<?xml version="1.0" encoding="utf-8"?>
<!-- Generator: Adobe Illustrator 16.0.0, SVG Export Plug-In . SVG Version: 6.00 Build 0)  -->
<!DOCTYPE svg PUBLIC "-//W3C//DTD SVG 1.1//EN" "http://www.w3.org/Graphics/SVG/1.1/DTD/svg11.dtd">
<svg version="1.1" id="Ebene_1" xmlns="http://www.w3.org/2000/svg" xmlns:xlink="http://www.w3.org/1999/xlink" x="0px" y="0px"
	 width="89.863px" height="101.093px" viewBox="0 0 89.863 101.093" enable-background="new 0 0 89.863 101.093"
	 xml:space="preserve">
<g>
	<polygon fill="#B61A2D" points="89.862,28.054 44.989,0 0,28.054 0,73.043 44.948,101.093 89.862,73.043 	"/>
	<g>
		<path fill="#FFFFFF" d="M25.271,46.712c-0.964,0.463-2.539,0.76-3.967,0.76c-4.598,0-6.229-2.466-6.229-7.212
			c0-4.857,1.909-7.193,6.396-7.193c1.225,0,2.615,0.222,3.615,0.612l-0.333,3.096c-0.909-0.334-2.077-0.538-3.077-0.538
			c-2.281,0-2.8,0.853-2.8,3.986c0,3.3,0.538,4.023,2.336,4.023c0.278,0,0.575-0.019,0.834-0.074V39.63h3.226V46.712z"/>
		<path fill="#FFFFFF" d="M35.097,41.521l2.706,5.691h-4.189l-1.854-4.969h-1.225v4.969H26.92V33.308h4.803
			c3.521,0,5.265,1.335,5.265,4.468C36.987,39.63,36.32,41.002,35.097,41.521z M31.797,36.312h-1.262v3.208h1.242
			c1.057,0,1.428-0.26,1.428-1.613C33.205,36.646,32.854,36.312,31.797,36.312z"/>
		<path fill="#FFFFFF" d="M45.885,44.784h-3.781l-0.538,2.429h-3.838l4.116-13.905h4.431l4.19,13.905h-4.043L45.885,44.784z
			 M43.679,37.776l-0.89,3.986h2.428l-0.889-3.986l-0.279-1.483h-0.055L43.679,37.776z"/>
		<path fill="#FFFFFF" d="M56.21,36.553v10.66h-3.689v-10.66h-3.151l0.074-3.245h9.844l0.074,3.245H56.21z"/>
		<path fill="#FFFFFF" d="M60.621,33.308h3.727v13.905h-3.727V33.308z"/>
		<path fill="#FFFFFF" d="M70.02,47.454c-1.465,0-2.91-0.334-4.041-0.964l0.463-3.078c1.131,0.575,2.279,0.927,3.484,0.927
			c1.15,0,1.596-0.389,1.596-1.131c0-1.78-5.525-1.224-5.525-5.766c0-2.428,1.482-4.356,4.912-4.356
			c1.279,0,2.652,0.241,3.652,0.667l-0.406,3.022c-1.057-0.315-2.115-0.501-3.004-0.501c-1.373,0-1.668,0.408-1.668,1.001
			c0,1.798,5.523,1.187,5.523,5.729C75.006,45.748,73.152,47.454,70.02,47.454z"/>
		<path fill="#FFFFFF" d="M21.657,65.08l-0.074,3.133h-8.954V54.308h8.713l0.074,3.189h-5.172v2.15h4.264v2.911h-4.264v2.521H21.657
			z"/>
		<path fill="#FFFFFF" d="M27.682,60.056v2.41h-5.173v-2.41H27.682z"/>
		<path fill="#FFFFFF" d="M34.726,68.213h-5.413V54.308h5.45c2.985,0,4.505,1.391,4.505,3.597c0,1.465-0.667,2.41-1.705,2.911v0.037
			c1.391,0.464,2.132,1.539,2.132,3.263C39.694,66.619,38.192,68.213,34.726,68.213z M34.614,57.349h-1.798v2.447h1.835
			c0.835,0,1.132-0.315,1.132-1.261C35.783,57.627,35.467,57.349,34.614,57.349z M34.707,62.503h-1.891v2.744h1.965
			c0.908,0,1.242-0.296,1.242-1.391C36.023,62.892,35.727,62.503,34.707,62.503z"/>
		<path fill="#FFFFFF" d="M46.59,68.454c-4.005,0-5.822-2.114-5.822-7.193c0-5.099,1.743-7.175,5.822-7.175
			c4.078,0,5.82,2.076,5.82,7.175C52.41,66.489,50.668,68.454,46.59,68.454z M46.57,57.33c-1.52,0-2.002,0.63-2.002,3.931
			c0,3.318,0.501,3.986,2.039,3.986c1.539,0,2.003-0.686,2.003-3.986C48.61,57.942,48.146,57.33,46.57,57.33z"/>
		<path fill="#FFFFFF" d="M59.38,68.454c-4.005,0-5.821-2.114-5.821-7.193c0-5.099,1.742-7.175,5.821-7.175s5.821,2.076,5.821,7.175
			C65.201,66.489,63.459,68.454,59.38,68.454z M59.361,57.33c-1.52,0-2.002,0.63-2.002,3.931c0,3.318,0.5,3.986,2.039,3.986
			s2.002-0.686,2.002-3.986C61.4,57.942,60.938,57.33,59.361,57.33z"/>
		<path fill="#FFFFFF" d="M73.838,68.213l-2.613-5.654h-0.891v5.654h-3.615V54.308h3.615v5.376h0.965l2.576-5.376h4.061L74.6,60.964
			l3.504,7.249H73.838z"/>
	</g>
</g>
</svg>
