<?xml version="1.0" encoding="utf-8"?>
<!-- Generator: Adobe Illustrator 22.1.0, SVG Export Plug-In . SVG Version: 6.00 Build 0)  -->
<svg version="1.1" id="Burger" xmlns="http://www.w3.org/2000/svg" xmlns:xlink="http://www.w3.org/1999/xlink" x="0px" y="0px"
	 viewBox="0 0 118.9 103.3" style="enable-background:new 0 0 118.9 103.3;" xml:space="preserve">
<style type="text/css">
	.st0{fill:#1A1A18;}
</style>
<g>
	<path class="st0" d="M99.9,40.4c-11.5,7.8-74.8,3.5-77.8,1.9c0.5-2.4,1.2-4.9,4.5-8.3C54.7,9.2,88.5,24.3,94,33.8
		c0.4-0.2,4.8-2.9,4.8-2.9c-5.6-8.6-20.2-17.4-39.6-16.2C37.8,14.4,18,29.2,16,42.9c-1.5,7.2,17.8,6.5,43,7.5
		c15.2,0,38.1-0.4,45.2-5.8L99.9,40.4z"/>
	<path class="st0" d="M84.4,64.4c-0.2,0-0.3,0-0.4,0c-2.5-0.1-21.5-1.7-25.4-2.1h-0.3c-0.7-0.1-3.1,0.3-5,0.6
		c-4.1,0.7-9.7,1.6-15.5,1.1c-9.5-0.3-23.8-7-24.4-7.3l2.6-5.4c0.1,0.1,13.8,6.5,22.1,6.8h0.2c5.1,0.4,10.1-0.4,14.1-1
		c3-0.5,5.2-0.8,6.9-0.6c9.1,0.8,23.7,2,25,2h0.3c0.9,0,5-0.6,21.2-5.6c1.2-0.4,2-0.6,2.2-0.7l1.5,5.8c-0.2,0.1-0.9,0.3-2,0.6
		C94,62.7,87.3,64.4,84.4,64.4z"/>
	<path class="st0" d="M17,65.4c3.8,1.7,7.8,5.5,42.7,6.7c10.5,0.2,34,0.7,44.3-6.3c0.8,3.8,0.7,18.3-7.3,21
		c-7.3,3.8-61.7,8.5-76-3.2C18.3,81.6,16.7,69.3,17,65.4z M25.8,81.4c13.7,6.8,61.1,3.2,66.7,1c3.2-0.8,5.3-1.9,6.1-8.2
		c-35.8,8-74-0.3-75.7-0.8C23,73.6,23.3,79.4,25.8,81.4z"/>
</g>
</svg>
