<?xml version="1.0" encoding="utf-8"?>
<!-- Generator: Adobe Illustrator 22.1.0, SVG Export Plug-In . SVG Version: 6.00 Build 0)  -->
<svg version="1.1" id="Ebene_1" xmlns="http://www.w3.org/2000/svg" xmlns:xlink="http://www.w3.org/1999/xlink" x="0px" y="0px"
	 viewBox="0 0 245.7 88.7" style="enable-background:new 0 0 245.7 88.7;" xml:space="preserve">
<path d="M228.9,72.6l-1-18.9h7.1l-1,18.9H228.9z M220.6,37.6h-7.2V16.9h-6.1l0.1-6.3h19.2l0.1,6.3h-6.1V37.6z M226.1,60H220v20.7
	h-7.2V60h-6.1l0.1-6.3H226L226.1,60z M195.2,64.7h8.3l0,6h-8.2v9.9h-7.1V53.7H205l0.1,6.3h-10V64.7z M197.6,10.6h7.2v26.9h-7.2V10.6
	z M187.2,26.3l0.1-2.9l-0.1,0l-0.9,2.8l-4,11.4h-4.6l-4-11.4l-0.9-2.8l-0.1,0l0,2.9v11.2h-6.2V10.6h7.8l4.8,13.6L180,27h0.1l0.9-2.7
	l4.8-13.7h7.8v26.9h-6.5V26.3z M171,71.4c0,2.4,0.9,3.5,3.4,3.5c2.5,0,3.3-1,3.3-3.5V53.7h7v17.8c0,6.3-3.4,9.6-10.3,9.6
	c-6.9,0-10.4-3.3-10.4-9.6V53.7h7.1V71.4z M145.8,80.7V53.7h7.1v20.7h9.2l-0.2,6.2H145.8z M146.2,38c-2.9,0-5.7-0.6-7.9-1.9l0.9-6
	c2.2,1.1,4.4,1.8,6.8,1.8c2.2,0,3.1-0.8,3.1-2.2c0-3.4-10.7-2.4-10.7-11.2c0-4.7,2.9-8.4,9.6-8.4c2.5,0,5.2,0.5,7.1,1.3l-0.8,5.9
	c-2.1-0.6-4.1-1-5.8-1c-2.7,0-3.2,0.8-3.2,1.9c0,3.5,10.7,2.3,10.7,11.1C155.9,34.7,152.3,38,146.2,38z M127.4,38
	c-2.8,0-5.7-0.6-7.9-1.9l0.9-6c2.2,1.1,4.4,1.8,6.8,1.8c2.2,0,3.1-0.8,3.1-2.2c0-3.4-10.7-2.4-10.7-11.2c0-4.7,2.9-8.4,9.6-8.4
	c2.5,0,5.2,0.5,7.1,1.3l-0.8,5.9c-2.1-0.6-4.1-1-5.8-1c-2.7,0-3.2,0.8-3.2,1.9c0,3.5,10.7,2.3,10.7,11.1
	C137.1,34.7,133.5,38,127.4,38z M106.8,38c-6.9,0-10.4-3.3-10.4-9.6V10.6h7.1v17.6c0,2.4,0.9,3.5,3.4,3.5c2.5,0,3.3-1,3.3-3.5V10.6
	h7v17.8C117.2,34.7,113.8,38,106.8,38z M78.3,37.6V10.6h7.1v20.7h9.2l-0.2,6.3H78.3z M84.3,53.7h7.9l-6.5,12.9l6.8,14h-8.3l-5.1-11
	h-1.7v11h-7V53.7h7v10.4h1.9L84.3,53.7z M67.6,27H61v10.6h-7V10.6h7v10.1h6.6V10.6h7.1v26.9h-7.1V27z M46.3,31.9
	c1.7,0,3.2-0.3,4.5-0.9l0.6,5.7c-1.6,0.8-4.1,1.3-6.2,1.3c-7.7,0-11.5-4.4-11.5-14.1c0-9.1,3.6-13.8,11.9-13.8c1.9,0,4.3,0.4,5.7,1
	l-0.7,6c-1.2-0.4-2.8-0.7-4.5-0.7c-4,0-5,1.7-5,7.6C41.2,30.2,42.3,31.9,46.3,31.9z M22.3,38c-2.9,0-5.7-0.6-7.9-1.9l0.9-6
	c2.2,1.1,4.4,1.8,6.8,1.8c2.2,0,3.1-0.8,3.1-2.2c0-3.4-10.7-2.4-10.7-11.2c0-4.7,2.9-8.4,9.6-8.4c2.5,0,5.2,0.5,7.1,1.3l-0.8,5.9
	c-2.1-0.6-4.1-1-5.8-1c-2.7,0-3.2,0.8-3.2,1.9c0,3.5,10.7,2.3,10.7,11.1C32,34.7,28.4,38,22.3,38z M36.4,67
	c0,9.9-3.8,13.6-11.4,13.6h-9.8V53.7h9.6C33,53.7,36.4,57.5,36.4,67z M22.2,74.5h2.6c3.1,0,4.1-0.9,4.1-7.5c0-6-1-7-4.1-7h-2.6V74.5
	z M46.9,80.7h-7.2V53.7h7.2V80.7z M62,53.3c1.9,0,4.3,0.4,5.7,1l-0.7,6c-1.2-0.4-2.8-0.7-4.5-0.7c-4,0-5,1.7-5,7.6
	c0,6.2,1.1,7.9,5.1,7.9c1.7,0,3.2-0.3,4.5-0.9l0.6,5.7c-1.6,0.8-4.1,1.3-6.2,1.3c-7.7,0-11.5-4.4-11.5-14.1
	C50.1,58,53.8,53.3,62,53.3z M111.6,59.9h-10.1v4.2h8.3v5.6h-8.3v4.9h10.5l-0.1,6.1H94.5V53.7h17L111.6,59.9z M134.4,62.4
	c0,3.6-1.3,6.2-3.7,7.3l5.3,11h-8.2l-3.6-9.6h-2.4v9.6h-7V53.7h9.3C131,53.7,134.4,56.3,134.4,62.4z M121.8,65.8h2.4
	c2.1,0,2.8-0.5,2.8-3.1c0-2.4-0.7-3.1-2.7-3.1h-2.5V65.8z M231.6,74.8c2.5,0,3.5,1.2,3.5,3.2c0,1.8-1.1,3.1-3.5,3.1
	c-2.4,0-3.5-0.9-3.5-3.1C228.1,76,229.2,74.8,231.6,74.8z"/>
</svg>
