<?xml version="1.0" encoding="utf-8"?>
<!-- Generator: Adobe Illustrator 22.1.0, SVG Export Plug-In . SVG Version: 6.00 Build 0)  -->
<svg version="1.1" id="Pollen" xmlns="http://www.w3.org/2000/svg" xmlns:xlink="http://www.w3.org/1999/xlink" x="0px" y="0px"
	 viewBox="0 0 205.9 209.3" style="enable-background:new 0 0 205.9 209.3;" xml:space="preserve">
<g>
	<path d="M167.1,169.9c3.2,0,5.6,2.4,5.6,5.6c0,3.1-2.5,5.6-5.6,5.6s-5.6-2.5-5.6-5.7C161.4,172.2,163.8,169.9,167.1,169.9z"/>
	<path d="M70.2,168c0-2.8,2.2-5,5-5s5,2.3,5,5s-2.3,5-5,5C72.3,173,70.2,170.8,70.2,168z"/>
	<path d="M133.2,22c-2.8,0-5-2.2-5-5c0-2.8,2.2-4.9,4.9-5c2.8,0,5.1,2.2,5.1,5C138.3,19.7,136,21.9,133.2,22z"/>
	<path d="M133.2,22c2.8,0,5.1-2.3,5-5c0-2.8-2.3-5-5.1-5s-4.9,2.2-4.9,5C128.2,19.7,130.4,22,133.2,22z"/>
	<path d="M75.2,163c-2.8,0-5,2.2-5,5c0,2.9,2.1,5,4.9,5c2.8,0,5-2.2,5-5C80.2,165.2,78,163,75.2,163z"/>
	<path d="M167.1,169.9c-3.2,0-5.6,2.3-5.6,5.5s2.4,5.7,5.6,5.7c3.1,0,5.6-2.5,5.6-5.6C172.6,172.3,170.2,169.9,167.1,169.9z"/>
	<path d="M188.6,119.8c-7.6-3.7-15.5-6.3-24.1-6.1c-8.5,0.1-15.9,3.1-22.2,8.7c-5.7,5.1-9.6,11.5-12.5,18.5
		c-0.3,0.6-0.8,1.2-1.3,1.6c-4.2,2.7-8.4,5.4-12.6,8.1c-0.4,0.2-0.7,0.4-1.1,0.7c0-0.3-0.1-0.5-0.1-0.6c0-19.6,0-39.1,0-58.7
		c0-0.4,0.3-1,0.6-1.3c3.4-3.3,6.6-6.8,9.1-10.8c5.3-8.3,7.7-17.3,5.4-27.2c-2.8-12.3-11-20.9-20.2-28.9c-0.5,0.5-1,0.9-1.5,1.4
		c-5.2,4.7-9.8,9.8-13.4,15.9c-5.4,9.4-7.1,19.2-3.5,29.7c2.6,7.6,7.4,13.7,13.2,19.1c0.7,0.6,0.9,1.2,0.9,2.1c0,13.1,0,26.2,0,39.4
		c0,0.4,0,0.8,0,1.4c-0.6-0.3-0.9-0.4-1.3-0.6c-4.8-2.4-9.6-4.9-14.4-7.3c-1.1-0.5-1.8-1.2-2.3-2.2c-3.2-5.7-7.1-10.9-12.2-15.1
		c-8-6.5-17.2-9-27.4-7.4c-5.7,0.9-11.1,2.9-16.2,5.7c-3.5,1.9-6.8,4.1-10.3,6.2c0.8,1.5,1.6,2.8,2.3,4.1
		c3.8,6.7,8.3,12.8,14.4,17.7c8.2,6.5,17.5,9,28,7.1c6.6-1.2,12.5-3.9,18.1-7.5c0.7-0.5,1.3-0.5,2-0.1c6.1,3.2,12.2,6.3,18.3,9.5
		c0.9,0.5,1.2,1,1.2,2c0,13.6,0,27.3,0,40.9c0,0.5,0,0.9,0,1.4c3.1,0,6.1,0,9.3,0c0-0.6,0-1.1,0-1.6c0-7.2,0-14.5,0-21.7
		c0-0.5,0.3-1.3,0.7-1.6c5.8-3.9,11.6-7.7,17.5-11.6c0.6-0.4,1.1-0.3,1.7,0c5.6,2.8,11.4,4.8,17.6,5.4c8.1,0.8,15.6-0.7,22.4-5.2
		c10.2-6.8,15.6-17,20-28.1C192.5,121.8,190.5,120.8,188.6,119.8z M72.4,129.2c-5,2.3-10.2,3.6-15.8,3c-4.8-0.5-9-2.4-12.7-5.3
		c-4-3.1-7.1-6.9-9.8-11c-0.1-0.2-0.2-0.3-0.3-0.6c3.2-1.9,6.6-3.5,10.1-4.6c7.2-2.3,14.2-2.4,21,1.4c4.7,2.6,8.2,6.3,11.3,10.6
		c0.8,1.1,1.4,2.2,2.3,3.5C76.4,127.1,74.4,128.3,72.4,129.2z M110.1,82.6c-5.7-5.6-10.3-11.8-11.4-19.9c-0.6-4.4,0.1-8.6,1.8-12.6
		c2.1-5.1,5.3-9.3,9.2-13.5c1.8,2.2,3.7,4.3,5.3,6.5c2.9,3.9,5,8.1,5.8,13c1,5.7-0.2,11.1-2.8,16.2C116,76.1,113.3,79.4,110.1,82.6z
		 M177.5,135.2c-4,5.5-9,9.6-15.7,11.2c-5.8,1.4-11.5,0.5-17-1.5c-1.9-0.7-3.7-1.5-5.6-2.3c4.5-9.1,10-16.7,20.3-19.1
		c5.7-1.4,11.3-0.5,16.7,1.2c2.1,0.7,4.1,1.5,6.5,2.4C180.8,130,179.3,132.7,177.5,135.2z"/>
</g>
</svg>
