<?xml version="1.0" encoding="utf-8"?>
<!-- Generator: Adobe Illustrator 22.1.0, SVG Export Plug-In . SVG Version: 6.00 Build 0)  -->
<svg version="1.1" id="Kreise" xmlns="http://www.w3.org/2000/svg" xmlns:xlink="http://www.w3.org/1999/xlink" x="0px" y="0px"
	 viewBox="0 0 102.9 105.3" style="enable-background:new 0 0 102.9 105.3;" xml:space="preserve">
<style type="text/css">
	.st0{fill:#1A1A18;}
</style>
<g>
	<path class="st0" d="M36.3,35.3c0,5.8-4.8,10.6-10.6,10.6S15,41.2,15,35.3c0-5.8,4.8-10.6,10.6-10.6C31.5,24.5,36.3,29.3,36.3,35.3
		z"/>
	<path class="st0" d="M74,24.5c0,5.1-4.1,9.3-9.3,9.3s-9.3-4.1-9.3-9.3s4.1-9.3,9.3-9.3C69.7,15.3,74,19.4,74,24.5z"/>
	<path class="st0" d="M64.7,53.4c0,6-5,11-11,11s-11-5-11-11s5-11,11-11C59.8,42.4,64.7,47.2,64.7,53.4z"/>
	<path class="st0" d="M55.5,82.9c0,4.1-3.3,7.4-7.4,7.4c-4.1,0-7.4-3.3-7.4-7.4c0-4.1,3.3-7.4,7.4-7.4C52,75.5,55.5,78.7,55.5,82.9z
		"/>
</g>
</svg>
