<?xml version="1.0" encoding="utf-8"?>
<!-- Generator: Adobe Illustrator 22.1.0, SVG Export Plug-In . SVG Version: 6.00 Build 0)  -->
<svg version="1.1" id="Kreise" xmlns="http://www.w3.org/2000/svg" xmlns:xlink="http://www.w3.org/1999/xlink" x="0px" y="0px"
	 viewBox="0 0 116.9 113.3" style="enable-background:new 0 0 116.9 113.3;" xml:space="preserve">
<style type="text/css">
	.st0{fill:#1A1A18;}
</style>
<g>
	<path class="st0" d="M19.1,76.5c-1.3,0-2.7-0.5-3.7-1.3c-2.5-2-2.9-5.7-0.8-8.2l16.8-20.7c2-2.5,5.7-2.9,8.2-0.8
		c2.5,2,2.9,5.7,0.8,8.2L23.6,74.3C22.4,75.8,20.7,76.5,19.1,76.5z"/>
	<path class="st0" d="M52.3,37.5c-0.7,0-1.3-0.2-2.2-0.3l-24.9-9.6c-3-1.2-4.5-4.5-3.4-7.6c1.2-3,4.5-4.5,7.6-3.4l24.9,9.6
		c3,1.2,4.5,4.5,3.4,7.6C56.9,36.2,54.7,37.5,52.3,37.5z"/>
	<path class="st0" d="M22.6,100.2c-2.9,0-5.4-2.2-5.9-5c-0.5-3.2,1.8-6.2,5-6.6l26.4-3.5c3.2-0.5,6.2,1.8,6.6,5
		c0.5,3.2-1.8,6.2-5,6.6l-26.4,3.5C23.3,100,22.9,100.2,22.6,100.2z"/>
	<path class="st0" d="M71.7,94.3c-1.5,0-3-0.7-4.2-1.8L49.2,73.1c-2.2-2.4-2.2-6.1,0.2-8.2c2.4-2.2,6.1-2.2,8.2,0.2l18.3,19.3
		c2.2,2.4,2.2,6.1-0.2,8.2C74.7,93.8,73.2,94.3,71.7,94.3z"/>
</g>
</svg>
