<?xml version="1.0" encoding="utf-8"?>
<!-- Generator: Adobe Illustrator 16.0.4, SVG Export Plug-In . SVG Version: 6.00 Build 0)  -->
<!DOCTYPE svg PUBLIC "-//W3C//DTD SVG 1.1//EN" "http://www.w3.org/Graphics/SVG/1.1/DTD/svg11.dtd">
<svg version="1.1" id="Ebene_1" xmlns="http://www.w3.org/2000/svg" xmlns:xlink="http://www.w3.org/1999/xlink" x="0px" y="0px"
	 width="78.964px" height="138.213px" viewBox="0 0 78.964 138.213" enable-background="new 0 0 78.964 138.213"
	 xml:space="preserve">
<g>
	<path fill="#FFFFFF" d="M7.235,7.603c0,3.521-1.793,4.626-4.61,4.626c-0.896,0-1.616-0.16-2.192-0.416l0.159-2.609
		C0.929,9.38,1.457,9.492,2.081,9.492c1.312,0,1.952-0.512,1.952-1.953V0h3.202V7.603z"/>
	<path fill="#FFFFFF" d="M16.659,9.3l-0.063,2.705H8.864V0h7.522l0.064,2.753h-4.466V4.61h3.682v2.513h-3.682V9.3H16.659z"/>
	<path fill="#FFFFFF" d="M23.09,2.801v9.204h-3.185V2.801h-2.722L17.248,0h8.5l0.063,2.801H23.09z"/>
	<path fill="#FFFFFF" d="M26.336,12.005V9.972l3.826-6.083l0.704-1.057L30.85,2.801h-4.418L26.512,0h8.02v2.241l-3.697,5.891
		L30.13,9.172l0.017,0.048h4.417l-0.048,2.785H26.336z"/>
	<path fill="#FFFFFF" d="M41.074,2.801v9.204H37.89V2.801h-2.722L35.232,0h8.5l0.063,2.801H41.074z"/>
	<path fill="#FFFFFF" d="M7.043,27.908H3.777l-0.464,2.097H0L3.554,18h3.825l3.617,12.005H7.508L7.043,27.908z M5.139,21.857
		L4.37,25.299h2.097l-0.768-3.441l-0.24-1.28H5.41L5.139,21.857z"/>
	<path fill="#FFFFFF" d="M17.939,30.005l-2.258-4.882h-0.768v4.882h-3.121V18h3.121v4.642h0.832L17.971,18h3.506l-2.881,5.747
		l3.025,6.258H17.939z"/>
	<path fill="#FFFFFF" d="M27.73,20.801v9.204h-3.186v-9.204h-2.721L21.888,18h8.499l0.064,2.801H27.73z"/>
	<path fill="#FFFFFF" d="M31.536,18h3.218v12.005h-3.218V18z"/>
	<path fill="#FFFFFF" d="M41.218,30.213c-3.458,0-5.026-1.825-5.026-6.21c0-4.402,1.505-6.194,5.026-6.194
		c3.521,0,5.026,1.792,5.026,6.194C46.244,28.516,44.738,30.213,41.218,30.213z M41.201,20.609c-1.312,0-1.729,0.544-1.729,3.394
		c0,2.865,0.432,3.441,1.761,3.441s1.729-0.592,1.729-3.441C42.963,21.137,42.562,20.609,41.201,20.609z"/>
	<path fill="#FFFFFF" d="M54.578,30.005l-3.585-5.538l-0.673-1.104l-0.031,0.016l0.016,1.296v5.33h-2.753V18h2.625l3.857,6.227
		l0.032-0.016l-0.032-1.28L54.051,18h2.752v12.005H54.578z"/>
	<path fill="#FFFFFF" d="M61.568,30.213c-1.264,0-2.513-0.288-3.488-0.832l0.399-2.657c0.977,0.496,1.969,0.8,3.009,0.8
		c0.993,0,1.377-0.336,1.377-0.977c0-1.537-4.77-1.056-4.77-4.978c0-2.097,1.28-3.761,4.241-3.761c1.104,0,2.289,0.208,3.153,0.576
		l-0.352,2.609c-0.912-0.272-1.825-0.432-2.594-0.432c-1.184,0-1.44,0.352-1.44,0.864c0,1.553,4.771,1.024,4.771,4.946
		C65.875,28.74,64.273,30.213,61.568,30.213z"/>
	<path fill="#FFFFFF" d="M71.232,22.962v2.081h-4.465v-2.081H71.232z"/>
	<path fill="#FFFFFF" d="M9.332,47.573c-0.832,0.4-2.193,0.656-3.426,0.656c-3.969,0-5.378-2.129-5.378-6.227
		c0-4.194,1.649-6.21,5.522-6.21c1.057,0,2.257,0.192,3.121,0.528l-0.288,2.673c-0.784-0.288-1.792-0.464-2.657-0.464
		c-1.969,0-2.417,0.736-2.417,3.441c0,2.85,0.464,3.474,2.017,3.474c0.24,0,0.496-0.016,0.721-0.064v-3.922h2.785V47.573z"/>
	<path fill="#FFFFFF" d="M18.547,45.3l-0.063,2.705h-7.731V36h7.523l0.064,2.753h-4.467v1.857h3.682v2.513h-3.682V45.3H18.547z"/>
	<path fill="#FFFFFF" d="M26.803,43.091l2.337,4.914h-3.617l-1.601-4.29h-1.057v4.29h-3.121V36h4.146
		c3.042,0,4.546,1.152,4.546,3.857C28.436,41.458,27.859,42.643,26.803,43.091z M23.953,38.593h-1.088v2.769h1.072
		c0.912,0,1.232-0.224,1.232-1.393C25.17,38.881,24.866,38.593,23.953,38.593z"/>
	<path fill="#FFFFFF" d="M36.114,45.908H32.85l-0.465,2.097h-3.313L32.625,36h3.826l3.617,12.005h-3.49L36.114,45.908z
		 M32.993,35.424c-0.784,0-1.185-0.304-1.185-1.072c0-0.721,0.4-1.104,1.185-1.104c0.816,0,1.185,0.384,1.185,1.104
		C34.178,35.056,33.81,35.424,32.993,35.424z M34.209,39.857l-0.768,3.441h2.097l-0.769-3.441l-0.24-1.28h-0.048L34.209,39.857z
		 M36.051,35.424c-0.785,0-1.186-0.304-1.186-1.072c0-0.721,0.4-1.104,1.186-1.104c0.816,0,1.184,0.384,1.184,1.104
		C37.234,35.056,36.867,35.424,36.051,35.424z"/>
	<path fill="#FFFFFF" d="M45.025,38.801v9.204h-3.185v-9.204h-2.722L39.184,36h8.5l0.063,2.801H45.025z"/>
	<path fill="#FFFFFF" d="M6.995,66.005l-2.257-4.882H3.97v4.882H0.849V54H3.97v4.642h0.833L7.027,54h3.505l-2.881,5.747l3.025,6.258
		H6.995z"/>
	<path fill="#FFFFFF" d="M17.747,63.908h-3.265l-0.465,2.097h-3.313L14.258,54h3.826l3.617,12.005h-3.49L17.747,63.908z
		 M15.842,57.857l-0.768,3.441h2.097l-0.769-3.441l-0.24-1.28h-0.048L15.842,57.857z"/>
	<path fill="#FFFFFF" d="M31.093,61.923c0,2.817-1.505,4.29-4.578,4.29s-4.626-1.473-4.626-4.29V54h3.138v7.859
		c0,1.072,0.416,1.552,1.488,1.552c1.089,0,1.456-0.448,1.456-1.552V54h3.122V61.923z"/>
	<path fill="#FFFFFF" d="M35.746,56.801v2.113h3.665l-0.017,2.657h-3.648v4.434h-3.138V54h7.507l0.049,2.801H35.746z"/>
	<path fill="#FFFFFF" d="M49.012,63.3l-0.064,2.705h-7.73V54h7.523l0.063,2.753h-4.466v1.857h3.682v2.513h-3.682V63.3H49.012z"/>
	<path fill="#FFFFFF" d="M57.234,66.005l-3.585-5.538l-0.673-1.104l-0.031,0.016l0.016,1.296v5.33h-2.753V54h2.625l3.857,6.227
		l0.032-0.016l-0.032-1.28L56.707,54h2.752v12.005H57.234z"/>
	<path fill="#FFFFFF" d="M9.94,79.923c0,2.817-1.505,4.29-4.578,4.29s-4.626-1.473-4.626-4.29V72h3.138v7.859
		c0,1.072,0.416,1.552,1.488,1.552c1.089,0,1.456-0.448,1.456-1.552V72H9.94V79.923z"/>
	<path fill="#FFFFFF" d="M18.483,84.005l-3.585-5.538l-0.673-1.104l-0.032,0.016l0.016,1.296v5.33h-2.752V72h2.625l3.857,6.227
		l0.031-0.016l-0.031-1.28L17.955,72h2.753v12.005H18.483z"/>
	<path fill="#FFFFFF" d="M26.674,84.005h-4.338V72h4.273c3.65,0,5.139,1.697,5.139,5.938C31.748,82.34,30.051,84.005,26.674,84.005z
		 M26.626,74.769h-1.169v6.499h1.169c1.376,0,1.841-0.416,1.841-3.361C28.467,75.25,28.035,74.769,26.626,74.769z"/>
	<path fill="#FFFFFF" d="M41.33,84.005h-4.674V72h4.706c2.577,0,3.89,1.201,3.89,3.105c0,1.264-0.576,2.081-1.473,2.513v0.032
		c1.2,0.4,1.84,1.329,1.84,2.817C45.619,82.628,44.323,84.005,41.33,84.005z M41.234,74.625h-1.553v2.113h1.584
		c0.721,0,0.977-0.272,0.977-1.088C42.242,74.865,41.971,74.625,41.234,74.625z M41.314,79.075h-1.633v2.369h1.696
		c0.784,0,1.073-0.256,1.073-1.201C42.451,79.411,42.194,79.075,41.314,79.075z"/>
	<path fill="#FFFFFF" d="M46.992,72h3.217v12.005h-3.217V72z"/>
	<path fill="#FFFFFF" d="M55.105,84.213c-1.266,0-2.514-0.288-3.49-0.832l0.4-2.657c0.977,0.496,1.969,0.8,3.01,0.8
		c0.992,0,1.376-0.336,1.376-0.977c0-1.537-4.771-1.056-4.771-4.978c0-2.097,1.281-3.761,4.242-3.761
		c1.104,0,2.289,0.208,3.153,0.576l-0.353,2.609c-0.912-0.272-1.824-0.432-2.592-0.432c-1.186,0-1.441,0.352-1.441,0.864
		c0,1.553,4.77,1.024,4.77,4.946C59.41,82.74,57.811,84.213,55.105,84.213z"/>
	<path fill="#FFFFFF" d="M0.416,102.005v-2.033l3.826-6.082l0.704-1.057L4.93,92.801H0.512L0.592,90h8.02v2.241l-3.697,5.89
		L4.21,99.172l0.017,0.048h4.417l-0.048,2.785H0.416z"/>
	<path fill="#FFFFFF" d="M18.837,97.923c0,2.817-1.505,4.29-4.578,4.29s-4.626-1.473-4.626-4.29V90h3.138v7.859
		c0,1.072,0.416,1.553,1.488,1.553c1.089,0,1.456-0.448,1.456-1.553V90h3.122V97.923z"/>
	<path fill="#FFFFFF" d="M27.362,102.165c-1.312,0-2.497-0.353-3.329-0.832l0.528-2.369c0.864,0.432,1.712,0.656,2.673,0.656
		c1.104,0,1.648-0.465,1.648-1.312c0-0.784-0.432-1.377-2.576-1.377V94.77c2.064,0,2.496-0.464,2.496-1.28
		c0-0.624-0.416-0.992-1.473-0.992c-1.04,0-1.937,0.353-2.689,0.96l-0.688-2.4c0.896-0.704,2.225-1.185,3.617-1.185
		c2.594,0,4.098,1.28,4.098,3.409c0,1.089-0.496,1.953-1.44,2.481v0.031c1.072,0.465,1.665,1.329,1.665,2.594
		C31.893,100.692,30.468,102.165,27.362,102.165z"/>
	<path fill="#FFFFFF" d="M36.979,102.165c-1.281,0-2.48-0.272-3.474-0.832l0.513-2.369c0.88,0.432,1.6,0.656,2.625,0.656
		c1.28,0,1.616-0.496,1.616-1.537c0-0.944-0.513-1.28-1.601-1.28c-0.624,0-1.393,0.096-1.984,0.304l-0.992-1.152L34.113,90h6.531
		l0.111,2.657h-4.178l-0.111,1.776c0.367-0.063,0.752-0.096,1.184-0.096c2.321,0,3.666,1.168,3.666,3.505
		C41.316,100.532,40.004,102.165,36.979,102.165z"/>
	<path fill="#FFFFFF" d="M46.674,102.165c-2.977,0-4.178-1.809-4.178-6.099c0-4.578,1.217-6.194,4.21-6.194
		c2.929,0,4.21,1.616,4.21,6.194C50.916,100.356,49.588,102.165,46.674,102.165z M46.706,92.545c-0.849,0-1.232,0.433-1.232,3.489
		c0,3.218,0.384,3.554,1.232,3.554c0.833,0,1.2-0.416,1.2-3.554C47.906,92.913,47.539,92.545,46.706,92.545z"/>
	<path fill="#FFFFFF" d="M62.291,97.923H59.81c0.353,1.345,1.169,1.777,2.353,1.777c0.561,0,1.121-0.16,1.633-0.353l0.209,2.257
		c-0.689,0.353-1.553,0.545-2.658,0.545c-2.656,0-4.257-1.361-4.737-4.227h-1.185l0.016-1.536h1.025v-0.576h-1.025l-0.016-1.585
		h1.185c0.513-2.641,2.241-4.273,4.882-4.273c1.057,0,1.857,0.16,2.529,0.416l-0.561,2.465c-0.367-0.128-0.784-0.208-1.264-0.208
		c-1.297,0-2.018,0.48-2.354,1.601h3.281l-0.336,1.585h-3.153v0.576h2.978L62.291,97.923z"/>
	<path fill="#FFFFFF" d="M8.035,110.897c-0.527-0.192-1.248-0.32-2-0.32c-1.777,0-2.226,0.752-2.226,3.377
		c0,2.77,0.497,3.538,2.272,3.538c0.736,0,1.426-0.145,1.985-0.4l0.288,2.545c-0.721,0.353-1.809,0.576-2.736,0.576
		c-3.426,0-5.091-1.953-5.091-6.274c0-4.033,1.616-6.146,5.282-6.146c0.848,0,1.889,0.192,2.529,0.448L8.035,110.897z"/>
	<path fill="#FFFFFF" d="M15.875,117.908h-3.266l-0.465,2.097H8.832L12.385,108h3.826l3.617,12.005h-3.489L15.875,117.908z
		 M13.97,111.857l-0.769,3.441h2.098l-0.769-3.441l-0.24-1.28h-0.048L13.97,111.857z"/>
	<path fill="#FFFFFF" d="M23.793,120.213c-1.264,0-2.513-0.288-3.488-0.832l0.399-2.657c0.977,0.496,1.969,0.8,3.009,0.8
		c0.993,0,1.377-0.336,1.377-0.976c0-1.537-4.77-1.057-4.77-4.979c0-2.097,1.28-3.762,4.241-3.762c1.104,0,2.289,0.208,3.153,0.576
		l-0.352,2.609c-0.912-0.272-1.825-0.432-2.594-0.432c-1.184,0-1.44,0.352-1.44,0.864c0,1.553,4.771,1.024,4.771,4.945
		C28.1,118.74,26.498,120.213,23.793,120.213z"/>
	<path fill="#FFFFFF" d="M35.25,120.005v-4.706h-2.913v4.706h-3.121V108h3.121v4.498h2.913V108h3.138v12.005H35.25z"/>
	<path fill="#FFFFFF" d="M44.674,120.005H40V108h4.706c2.577,0,3.89,1.2,3.89,3.105c0,1.265-0.576,2.081-1.473,2.513v0.032
		c1.2,0.4,1.84,1.328,1.84,2.817C48.963,118.628,47.667,120.005,44.674,120.005z M44.578,110.625h-1.553v2.113h1.584
		c0.721,0,0.977-0.272,0.977-1.089C45.586,110.865,45.314,110.625,44.578,110.625z M44.658,115.075h-1.633v2.368h1.696
		c0.784,0,1.073-0.256,1.073-1.2C45.795,115.411,45.538,115.075,44.658,115.075z"/>
	<path fill="#FFFFFF" d="M56.178,117.908h-3.265l-0.464,2.097h-3.314L52.689,108h3.825l3.617,12.005h-3.489L56.178,117.908z
		 M54.273,111.857l-0.768,3.441h2.096l-0.768-3.441l-0.24-1.28h-0.048L54.273,111.857z"/>
	<path fill="#FFFFFF" d="M67.666,110.897c-0.527-0.192-1.248-0.32-2-0.32c-1.777,0-2.226,0.752-2.226,3.377
		c0,2.77,0.497,3.538,2.272,3.538c0.736,0,1.426-0.145,1.985-0.4l0.288,2.545c-0.721,0.353-1.809,0.576-2.736,0.576
		c-3.426,0-5.091-1.953-5.091-6.274c0-4.033,1.616-6.146,5.282-6.146c0.848,0,1.889,0.192,2.529,0.448L67.666,110.897z"/>
	<path fill="#FFFFFF" d="M75.282,120.005l-2.257-4.882h-0.769v4.882h-3.121V108h3.121v4.642h0.833L75.314,108h3.505l-2.881,5.746
		l3.025,6.259H75.282z"/>
	<path fill="#FFFFFF" d="M3.986,138.213c-1.266,0-2.514-0.288-3.49-0.832l0.4-2.657c0.977,0.496,1.969,0.8,3.01,0.8
		c0.992,0,1.376-0.336,1.376-0.976c0-1.537-4.771-1.057-4.771-4.979c0-2.097,1.281-3.762,4.242-3.762
		c1.104,0,2.289,0.208,3.153,0.576l-0.353,2.609c-0.912-0.272-1.824-0.432-2.592-0.432c-1.186,0-1.441,0.352-1.441,0.864
		c0,1.553,4.77,1.024,4.77,4.945C8.291,136.74,6.691,138.213,3.986,138.213z"/>
	<path fill="#FFFFFF" d="M9.536,126h3.218v12.005H9.536V126z"/>
	<path fill="#FFFFFF" d="M21.699,128.897c-0.529-0.192-1.249-0.32-2.002-0.32c-1.776,0-2.225,0.752-2.225,3.377
		c0,2.77,0.496,3.538,2.273,3.538c0.736,0,1.424-0.145,1.984-0.4l0.288,2.545c-0.72,0.353-1.809,0.576-2.737,0.576
		c-3.426,0-5.09-1.953-5.09-6.274c0-4.033,1.617-6.146,5.282-6.146c0.849,0,1.889,0.192,2.528,0.448L21.699,128.897z"/>
	<path fill="#FFFFFF" d="M29.201,138.005v-4.706h-2.912v4.706h-3.121V126h3.121v4.498h2.912V126h3.138v12.005H29.201z"/>
	<path fill="#FFFFFF" d="M41.746,135.3l-0.064,2.705h-7.73V126h7.523l0.063,2.753h-4.466v1.857h3.682v2.513h-3.682v2.177H41.746z"/>
	<path fill="#FFFFFF" d="M50.002,133.091l2.337,4.914h-3.617l-1.601-4.29h-1.057v4.29h-3.121V126h4.146
		c3.042,0,4.546,1.152,4.546,3.857C51.635,131.458,51.059,132.643,50.002,133.091z M47.152,128.593h-1.088v2.77h1.072
		c0.912,0,1.232-0.225,1.232-1.393C48.369,128.881,48.065,128.593,47.152,128.593z"/>
	<path fill="#FFFFFF" d="M60.146,138.005l-3.586-5.538l-0.672-1.104l-0.033,0.016l0.017,1.297v5.33h-2.753V126h2.625l3.857,6.227
		l0.032-0.016l-0.032-1.281l0.016-4.93h2.754v12.005H60.146z"/>
	<path fill="#FFFFFF" d="M65.279,138.197c-1.12,0-1.617-0.433-1.617-1.521c0-0.977,0.497-1.537,1.617-1.537
		c1.121,0,1.601,0.561,1.601,1.537C66.88,137.589,66.4,138.197,65.279,138.197z"/>
	<path fill="#FFFFFF" d="M71.088,125.536l0.208,1.553l1.473-0.353l0.464,1.312l-1.424,0.688l0.816,1.36l-1.009,0.769l-1.185-1.152
		l-1.217,1.168l-1.04-0.736l0.784-1.408l-1.424-0.673l0.496-1.328l1.488,0.353l0.225-1.553H71.088z"/>
</g>
</svg>
