<?xml version="1.0" encoding="utf-8"?>
<!-- Generator: Adobe Illustrator 23.1.1, SVG Export Plug-In . SVG Version: 6.00 Build 0)  -->
<!DOCTYPE svg PUBLIC "-//W3C//DTD SVG 1.1//EN" "http://www.w3.org/Graphics/SVG/1.1/DTD/svg11.dtd" [
	<!ENTITY ns_extend "http://ns.adobe.com/Extensibility/1.0/">
	<!ENTITY ns_ai "http://ns.adobe.com/AdobeIllustrator/10.0/">
	<!ENTITY ns_graphs "http://ns.adobe.com/Graphs/1.0/">
	<!ENTITY ns_vars "http://ns.adobe.com/Variables/1.0/">
	<!ENTITY ns_imrep "http://ns.adobe.com/ImageReplacement/1.0/">
	<!ENTITY ns_sfw "http://ns.adobe.com/SaveForWeb/1.0/">
	<!ENTITY ns_custom "http://ns.adobe.com/GenericCustomNamespace/1.0/">
	<!ENTITY ns_adobe_xpath "http://ns.adobe.com/XPath/1.0/">
]>
<svg version="1.1" id="Ebene_1" xmlns:x="&ns_extend;" xmlns:i="&ns_ai;" xmlns:graph="&ns_graphs;"
	 xmlns="http://www.w3.org/2000/svg" xmlns:xlink="http://www.w3.org/1999/xlink" x="0px" y="0px" viewBox="0 0 112.24 139.38"
	 style="enable-background:new 0 0 112.24 139.38;" xml:space="preserve">
<style type="text/css">
	.st0{fill-rule:evenodd;clip-rule:evenodd;}
</style>
<metadata>
	<sfw  xmlns="&ns_sfw;">
		<slices></slices>
		<sliceSourceBounds  bottomLeftOrigin="true" height="88.95" width="98.61" x="9.76" y="-101.03"></sliceSourceBounds>
	</sfw>
</metadata>
<path class="st0" d="M103.63,19.55v-2.21h4.74v2.21H103.63z M98.58,12.07H102v12.75h-3.42V12.07z M92.14,63.04
	c-1.34,0-2.67-0.31-3.7-0.88l0.42-2.82c1.04,0.53,2.09,0.85,3.19,0.85c1.05,0,1.46-0.36,1.46-1.04c0-1.63-5.07-1.12-5.07-5.29
	c0-2.23,1.36-3.99,4.5-3.99c1.17,0,2.43,0.22,3.35,0.61l-0.37,2.77c-0.97-0.29-1.94-0.46-2.75-0.46c-1.26,0-1.53,0.37-1.53,0.92
	c0,1.65,5.07,1.09,5.07,5.25C96.71,61.48,95.01,63.04,92.14,63.04z M90.54,18.94l-0.71-1.17l-0.03,0.02l0.02,1.38v5.66h-2.92V12.07
	h2.79l4.1,6.61l0.03-0.02l-0.03-1.36l0.02-5.24h2.92v12.75h-2.36L90.54,18.94z M81.6,12.07h3.42v12.75H81.6V12.07z M78.06,31.07
	h3.42v12.75h-3.42V31.07z M80.19,21.95l-0.07,2.87h-8.21V12.07h7.99L79.97,15h-4.74v1.97h3.91v2.67h-3.91v2.31H80.19z M67.23,24.82
	l-1.7-4.56h-1.12v4.56H61.1V12.07h4.4c3.23,0,4.83,1.22,4.83,4.1c0,1.7-0.61,2.96-1.73,3.43l2.48,5.22H67.23z M65.57,14.83h-1.16
	v2.94h1.14c0.97,0,1.31-0.24,1.31-1.48C66.86,15.13,66.54,14.83,65.57,14.83z M61.47,34.25c-0.97-0.29-1.94-0.46-2.75-0.46
	c-1.26,0-1.53,0.37-1.53,0.92c0,1.65,5.06,1.09,5.06,5.25c0,2.52-1.7,4.08-4.57,4.08c-1.34,0-2.67-0.31-3.71-0.88l0.42-2.82
	c1.04,0.53,2.09,0.85,3.2,0.85c1.05,0,1.46-0.36,1.46-1.04c0-1.63-5.07-1.12-5.07-5.29c0-2.23,1.36-3.99,4.5-3.99
	c1.17,0,2.43,0.22,3.35,0.61L61.47,34.25z M50.49,24.82h-4.61V12.07h4.54c3.88,0,5.46,1.8,5.46,6.31
	C55.88,23.06,54.08,24.82,50.49,24.82z M50.44,15.02H49.2v6.9h1.24c1.46,0,1.95-0.44,1.95-3.57C52.39,15.53,51.93,15.02,50.44,15.02
	z M52.66,31.41l-0.31,2.84c-0.83-0.31-1.9-0.49-2.82-0.49c-2.09,0-2.57,0.78-2.57,3.65c0,3.03,0.49,3.69,2.14,3.69
	c0.26,0,0.53-0.02,0.76-0.07v-4.16h2.96v6.49c-0.88,0.42-2.33,0.7-3.64,0.7c-4.22,0-5.71-2.26-5.71-6.61c0-4.45,1.75-6.59,5.86-6.59
	C50.47,30.85,51.75,31.06,52.66,31.41z M37.98,18.94l-0.71-1.17l-0.03,0.02l0.02,1.38v5.66h-2.92V12.07h2.79l4.1,6.61l0.03-0.02
	l-0.03-1.36l0.02-5.24h2.92v12.75h-2.36L37.98,18.94z M27.84,25.04c-3.26,0-4.91-1.56-4.91-4.56v-8.41h3.33v8.35
	c0,1.14,0.44,1.65,1.58,1.65c1.16,0,1.55-0.48,1.55-1.65v-8.35h3.32v8.41C32.71,23.48,31.11,25.04,27.84,25.04z M19.97,25.03
	c-1.19,0-1.72-0.46-1.72-1.61c0-1.04,0.53-1.63,1.72-1.63c1.19,0,1.7,0.59,1.7,1.63C21.67,24.38,21.16,25.03,19.97,25.03z
	 M15.94,25.03c-1.19,0-1.72-0.46-1.72-1.61c0-1.04,0.53-1.63,1.72-1.63s1.7,0.59,1.7,1.63C17.64,24.38,17.13,25.03,15.94,25.03z
	 M11.83,25.03c-1.19,0-1.72-0.46-1.72-1.61c0-1.04,0.53-1.63,1.72-1.63s1.7,0.59,1.7,1.63C13.53,24.38,13.02,25.03,11.83,25.03z
	 M18.92,53.05h-2.89v9.77h-3.38v-9.77H9.76l0.07-2.98h9.03L18.92,53.05z M19.48,36.87v6.49c-0.88,0.42-2.33,0.7-3.64,0.7
	c-4.22,0-5.71-2.26-5.71-6.61c0-4.45,1.75-6.59,5.86-6.59c1.12,0,2.4,0.2,3.32,0.56L19,34.25c-0.83-0.31-1.9-0.49-2.82-0.49
	c-2.09,0-2.57,0.78-2.57,3.65c0,3.03,0.49,3.69,2.14,3.69c0.26,0,0.53-0.02,0.77-0.07v-4.16H19.48z M20.47,75.38
	c0,4.68-1.8,6.44-5.39,6.44h-4.61V69.07h4.54C18.89,69.07,20.47,70.88,20.47,75.38z M13.79,78.92h1.24c1.46,0,1.95-0.44,1.95-3.57
	c0-2.82-0.46-3.33-1.95-3.33h-1.24V78.92z M18.53,91h-4.74v1.97h3.91v2.67h-3.91v2.31h4.96l-0.07,2.87h-8.21V88.07h7.99L18.53,91z
	 M29.26,92.17c0,1.7-0.61,2.96-1.73,3.43l2.48,5.22h-3.84l-1.7-4.56h-1.12v4.56h-3.31V88.07h4.4C27.66,88.07,29.26,89.3,29.26,92.17
	z M23.34,93.77h1.14c0.97,0,1.31-0.24,1.31-1.48c0-1.16-0.32-1.46-1.29-1.46h-1.16V93.77z M34.15,92.85h3.09v-4.78h3.33v12.75h-3.33
	v-5h-3.09v5h-3.31V88.07h3.31V92.85z M32.55,79.66l4.06-6.46l0.75-1.12l-0.02-0.03h-4.69l0.08-2.98h8.52v2.38l-3.93,6.25l-0.75,1.1
	l0.02,0.05h4.69l-0.05,2.96h-8.69V79.66z M52.12,77.49c0,2.99-1.6,4.56-4.86,4.56c-3.26,0-4.91-1.56-4.91-4.56v-8.41h3.33v8.35
	c0,1.14,0.44,1.65,1.58,1.65c1.16,0,1.55-0.48,1.55-1.65v-8.35h3.31V77.49z M32.84,59.87h4.33l-0.08,2.96h-7.6V50.07h3.35V59.87z
	 M32.16,81.82h-3.71l-0.49-2.23H24.5L24,81.82h-3.52l3.77-12.75h4.06L32.16,81.82z M26.54,73.17l-0.25-1.36h-0.05l-0.29,1.36
	l-0.82,3.65h2.23L26.54,73.17z M19.94,50.07h7.99L28,53h-4.74v1.97h3.91v2.67h-3.91v2.31h4.96l-0.07,2.87h-8.21V50.07z M30.65,31.07
	v8.41c0,2.99-1.6,4.56-4.86,4.56s-4.91-1.56-4.91-4.56v-8.41h3.33v8.35c0,1.14,0.44,1.65,1.58,1.65c1.16,0,1.55-0.48,1.55-1.65
	v-8.35H30.65z M39.17,31.07h2.92v12.75h-2.36l-3.81-5.88l-0.71-1.17l-0.03,0.02l0.02,1.38v5.66h-2.92V31.07h2.79l4.1,6.61l0.03-0.02
	l-0.03-1.36L39.17,31.07z M51.1,55.87v6.49c-0.88,0.42-2.33,0.7-3.64,0.7c-4.22,0-5.71-2.26-5.71-6.61c0-4.45,1.75-6.6,5.87-6.6
	c1.12,0,2.4,0.2,3.31,0.56l-0.31,2.84c-0.83-0.31-1.9-0.49-2.82-0.49c-2.09,0-2.57,0.78-2.57,3.65c0,3.03,0.49,3.69,2.14,3.69
	c0.26,0,0.53-0.02,0.76-0.07v-4.17H51.1z M49.23,88.07l3.84,12.75h-3.7l-0.49-2.23h-3.47l-0.49,2.23h-3.52l3.77-12.75H49.23z
	 M48.26,95.83l-0.82-3.65l-0.26-1.36h-0.05l-0.29,1.36l-0.82,3.65H48.26z M57.27,97.87h4.33l-0.08,2.96h-7.6V88.07h3.35V97.87z
	 M60.59,88.07h9.03l0.07,2.97h-2.89v9.77h-3.38v-9.77h-2.89L60.59,88.07z M66.04,62.82h-3.45h-0.07h-3.77l-1.7-4.56h-1.12v4.56
	h-3.32V50.07h4.4c3.23,0,4.83,1.22,4.83,4.1c0,1.7-0.61,2.96-1.73,3.43l2.44,5.13l3.75-12.66h4.06l3.84,12.75H70.5L70,60.6h-3.47
	L66.04,62.82z M57.08,52.83h-1.16v2.94h1.14c0.97,0,1.31-0.24,1.31-1.48C58.38,53.13,58.05,52.83,57.08,52.83z M69.39,57.83
	l-0.82-3.65l-0.25-1.36h-0.05l-0.29,1.36l-0.82,3.65H69.39z M78.76,91h-4.74v1.97h3.91v2.67h-3.91v2.31h4.96l-0.07,2.87H70.7V88.07
	h7.99L78.76,91z M66.35,43.82h-2.91V31.07h3.66l2.24,6.44l0.43,1.31h0.05l0.42-1.29l2.28-6.46h3.67v12.75h-3.04v-5.34l0.03-1.38
	l-0.05-0.02l-0.42,1.33l-1.89,5.41h-2.16l-1.87-5.39l-0.43-1.33l-0.03,0.02l0.02,1.38V43.82z M76.09,62.82v-9.77H73.2l0.07-2.98
	h9.03l0.07,2.98h-2.89v9.77H76.09z M86.94,62.82h-3.42V50.07h3.42V62.82z M95.67,38.55h-4.74v-2.21h4.74V38.55z M85.52,43.82v-9.77
	h-2.89l0.07-2.97h9.03l0.07,2.97h-2.89v9.77H85.52z M87.14,94.69l0.03-0.02l-0.03-1.36l0.02-5.24h2.92v12.75h-2.36l-3.81-5.88
	l-0.71-1.17l-0.03,0.02l0.02,1.38v5.66h-2.92V88.07h2.79L87.14,94.69z M93.18,97.78c1.19,0,1.7,0.6,1.7,1.63
	c0,0.97-0.51,1.62-1.7,1.62s-1.72-0.46-1.72-1.62C91.46,98.38,91.99,97.78,93.18,97.78z"/>
</svg>
