<?xml version="1.0" encoding="utf-8"?>
<!-- Generator: Adobe Illustrator 23.1.1, SVG Export Plug-In . SVG Version: 6.00 Build 0)  -->
<!DOCTYPE svg PUBLIC "-//W3C//DTD SVG 1.1//EN" "http://www.w3.org/Graphics/SVG/1.1/DTD/svg11.dtd" [
	<!ENTITY ns_extend "http://ns.adobe.com/Extensibility/1.0/">
	<!ENTITY ns_ai "http://ns.adobe.com/AdobeIllustrator/10.0/">
	<!ENTITY ns_graphs "http://ns.adobe.com/Graphs/1.0/">
	<!ENTITY ns_vars "http://ns.adobe.com/Variables/1.0/">
	<!ENTITY ns_imrep "http://ns.adobe.com/ImageReplacement/1.0/">
	<!ENTITY ns_sfw "http://ns.adobe.com/SaveForWeb/1.0/">
	<!ENTITY ns_custom "http://ns.adobe.com/GenericCustomNamespace/1.0/">
	<!ENTITY ns_adobe_xpath "http://ns.adobe.com/XPath/1.0/">
]>
<svg version="1.1" id="Ebene_1" xmlns:x="&ns_extend;" xmlns:i="&ns_ai;" xmlns:graph="&ns_graphs;"
	 xmlns="http://www.w3.org/2000/svg" xmlns:xlink="http://www.w3.org/1999/xlink" x="0px" y="0px" viewBox="0 0 112.24 139.38"
	 style="enable-background:new 0 0 112.24 139.38;" xml:space="preserve">
<style type="text/css">
	.st0{fill-rule:evenodd;clip-rule:evenodd;}
</style>
<metadata>
	<sfw  xmlns="&ns_sfw;">
		<slices></slices>
		<sliceSourceBounds  bottomLeftOrigin="true" height="119.07" width="97" x="7.39" y="-126.64"></sliceSourceBounds>
	</sfw>
</metadata>
<path class="st0" d="M97.41,18.57v-3.25h6.97v3.25H97.41z M91.26,26.32l-2.5-6.7h-1.65v6.7h-4.87V7.57h6.47c4.75,0,7.1,1.8,7.1,6.02
	c0,2.5-0.9,4.35-2.55,5.05l3.65,7.67H91.26z M88.81,11.62h-1.7v4.32h1.68c1.42,0,1.92-0.35,1.92-2.17
	C90.71,12.07,90.24,11.62,88.81,11.62z M91.29,33.17l-0.55,4.07c-1.42-0.42-2.85-0.67-4.05-0.67c-1.85,0-2.25,0.55-2.25,1.35
	c0,2.43,7.45,1.6,7.45,7.72c0,3.7-2.5,6-6.72,6c-1.97,0-3.92-0.45-5.45-1.3l0.62-4.15c1.52,0.77,3.07,1.25,4.7,1.25
	c1.55,0,2.15-0.53,2.15-1.53c0-2.4-7.45-1.65-7.45-7.77c0-3.27,2-5.87,6.62-5.87C88.09,32.27,89.94,32.6,91.29,33.17z M80.36,22.09
	l-0.1,4.22H68.19V7.57h11.75l0.1,4.3h-6.97v2.9h5.75v3.92h-5.75v3.4H80.36z M59.14,20.49h-1.55v5.82h-4.87V7.57h6.42
	c5.2,0,7.27,2.02,7.27,6.6C66.41,18.22,64.39,20.49,59.14,20.49z M59.14,11.65h-1.55v4.97h1.55c1.6,0,2.2-0.38,2.2-2.47
	C61.34,12.12,60.86,11.65,59.14,11.65z M64.71,36.95h-4.25v14.37h-4.97V36.95h-4.25l0.1-4.37h13.27L64.71,36.95z M45.16,51.32
	l-3.52-7.62h-1.2v7.62h-4.87V32.57h4.87v7.25h1.3l3.47-7.25h5.47l-4.5,8.97l4.72,9.77H45.16z M35.46,17.67l-1.05-1.73l-0.05,0.02
	L34.39,18v8.32h-4.3V7.57h4.1l6.02,9.72l0.05-0.03l-0.05-2l0.02-7.7h4.3v18.74h-3.47L35.46,17.67z M22.32,7.57h5.02v18.74h-5.02
	V7.57z M33.36,36.87h-6.97v2.9h5.75v3.92h-5.75v3.4h7.3l-0.1,4.22H21.52V32.57h11.75L33.36,36.87z M26.81,101.32h-4.47v-7.85
	l0.05-2.02l-0.07-0.03l-0.62,1.95l-2.77,7.95h-3.17l-2.75-7.92l-0.62-1.95l-0.05,0.02l0.02,2.03v7.82H8.07V82.57h5.37l3.3,9.47
	l0.62,1.92h0.08l0.62-1.9l3.35-9.5h5.4V101.32z M7.39,76.32v-3.17l5.97-9.5l1.1-1.65l-0.03-0.05h-6.9l0.12-4.37h12.52v3.5l-5.77,9.2
	l-1.1,1.62l0.03,0.07h6.9l-0.07,4.35H7.39z M8.07,51.32V32.57h11.72l0.07,4.37h-6.9v3.3h5.72l-0.02,4.15h-5.7v6.92H8.07z
	 M20.24,22.09l-0.1,4.22H8.07V7.57h11.75l0.1,4.3h-6.97v2.9h5.75v3.92h-5.75v3.4H20.24z M12.84,122.44c1.55,0,2.15-0.52,2.15-1.52
	c0-2.4-7.45-1.65-7.45-7.77c0-3.27,2-5.87,6.62-5.87c1.72,0,3.57,0.33,4.92,0.9l-0.55,4.07c-1.43-0.42-2.85-0.67-4.05-0.67
	c-1.85,0-2.25,0.55-2.25,1.35c0,2.42,7.45,1.6,7.45,7.72c0,3.7-2.5,6-6.72,6c-1.97,0-3.92-0.45-5.45-1.3l0.62-4.15
	C9.66,121.97,11.21,122.44,12.84,122.44z M35.14,114.17c0,4.05-2.02,6.32-7.27,6.32h-1.55v5.82h-4.87v-18.74h6.42
	C33.06,107.57,35.14,109.6,35.14,114.17z M26.31,116.62h1.55c1.6,0,2.2-0.38,2.2-2.47c0-2.03-0.47-2.5-2.2-2.5h-1.55V116.62z
	 M42.14,126.32h-5.02v-18.74h5.02V126.32z M41.21,86.87h-6.97v2.9h5.75v3.92h-5.75v3.4h7.3l-0.1,4.22H29.36V82.57h11.75L41.21,86.87
	z M36.16,57.57v12.37c0,4.4-2.35,6.7-7.15,6.7s-7.22-2.3-7.22-6.7V57.57h4.9v12.27c0,1.67,0.65,2.42,2.32,2.42
	c1.7,0,2.27-0.7,2.27-2.42V57.57H36.16z M38.44,71.19c1.52,0.78,3.07,1.25,4.7,1.25c1.55,0,2.15-0.52,2.15-1.53
	c0-2.4-7.45-1.65-7.45-7.77c0-3.27,2-5.87,6.62-5.87c1.72,0,3.57,0.33,4.92,0.9l-0.55,4.07c-1.42-0.42-2.85-0.67-4.05-0.67
	c-1.85,0-2.25,0.55-2.25,1.35c0,2.42,7.45,1.6,7.45,7.72c0,3.7-2.5,6-6.72,6c-1.97,0-3.92-0.45-5.45-1.3L38.44,71.19z M53.54,92.3
	l0.05-0.03l-0.05-2l0.02-7.7h4.3v18.74h-3.47l-5.6-8.65l-1.05-1.72l-0.05,0.02L47.71,93v8.32h-4.3V82.57h4.1L53.54,92.3z
	 M56.74,111.87h-6.97v2.9h5.75v3.92h-5.75v3.4h7.3l-0.1,4.22H44.89v-18.74h11.75L56.74,111.87z M63.86,121.97h6.37l-0.12,4.35H58.94
	v-18.74h4.92V121.97z M73.84,121.84c1.75,0,2.5,0.88,2.5,2.4c0,1.43-0.75,2.38-2.5,2.38s-2.52-0.68-2.52-2.38
	C71.31,122.72,72.09,121.84,73.84,121.84z M67.04,93.57h-6.97v-3.25h6.97V93.57z M55.11,76.32h-5.17l5.55-18.74h5.97l5.65,18.74
	h-5.45l-0.73-3.27h-5.1L55.11,76.32z M60.04,68.97l-1.2-5.37l-0.38-2h-0.08l-0.42,2l-1.2,5.37H60.04z M78.39,47.09l-0.1,4.22H66.21
	V32.57h11.75l0.1,4.3h-6.97v2.9h5.75v3.92h-5.75v3.4H78.39z M73.29,68.4l-0.62-1.95l-0.05,0.03l0.03,2.03v7.82h-4.27V57.57h5.37
	l3.3,9.47l0.62,1.93h0.07l0.62-1.9l3.35-9.5h5.4v18.74h-4.47v-7.85l0.05-2.03l-0.08-0.03l-0.62,1.95l-2.77,7.95h-3.17L73.29,68.4z
	 M96.29,68.57h-6.97v-3.25h6.97V68.57z"/>
</svg>
