<svg enable-background="new 0 0 158.37 151.68" viewBox="0 0 158.37 151.68" xmlns="http://www.w3.org/2000/svg"><path clip-rule="evenodd" d="m128.14 137.44c-1.82 0-2.63-.7-2.63-2.47 0-1.59.81-2.5 2.63-2.5s2.6.91 2.6 2.5c0 1.48-.78 2.47-2.6 2.47zm-14.17-9.31-1.09-1.79-.05.03.03 2.11v8.66h-4.47v-18.92h4.26l6.27 9.53.05-.03-.05-1.42.03-8.08h4.47v18.92h-3.61zm.18-43-3.67-7.93h-1.25v7.93h-5.07v-18.91h5.07v6.96h1.35l3.61-6.96h5.69l-4.68 8.75 4.91 10.17h-5.96zm-2.31-31.9c0 3.85-2.6 6.24-6.99 6.24-2.05 0-4.08-.47-5.67-1.35l.65-4.32c1.59 1.17 3.64 1.3 4.89 1.3 1.61 0 2.24-.55 2.24-1.59 0-2.5-7.75-1.72-7.75-8.09 0-3.41 2.08-6.11 6.89-6.11 1.79 0 3.72 1.16 5.12.94l-.57 4.24c-1.48-.44-2.96-.7-4.21-.7-1.92 0-2.34.57-2.34 1.4-.01 2.53 7.74 1.67 7.74 8.04zm-18.17-20.1h-5.17v-14.95h-3.56l-.75-3.96h14.3l-.39 3.96h-4.42v14.95zm-10.59-4.15.18 4.16h-13.54v-3.3l6.21-9.88 1.14-1.72.65-.05h-7.85l.39-3.96h13.26v3.05l-6.06 9.57-1.59 1.69.03.45h7.18zm-18.64 4.15h-5.18v-14.95h-4.42l.1-3.96h13.81l.1 3.96h-4.42v14.95zm-10.32-4.39-.23 4.39h-12.56v-18.91h12.22l.1 3.89h-7.25v3.02h5.98v4.08h-5.98v3.54h7.72zm-22.93 4.75c-1.46 0-2.63-.26-3.56-.68l.26-4.1c.55.15 1.4.33 2.42.33 2.13 0 3.17-.83 3.17-3.17v-11.65h5.2v11.77c0 5.71-2.92 7.5-7.49 7.5zm5.56 5.8c1.72 0 3.67.66 5.07.86l-.47 4.34c-1.27-.47-2.91-.75-3.76-.75-3.76 0-4.48 1.2-4.48 5.59 0 4.63.75 5.64 3.28 5.64.39 0 .81-.03 1.17-.1v-6.37h4.52v9.93c-1.35.65-3.56 1.07-5.56 1.07-5.6 0-8.74-3.46-8.74-10.11 0-6.52 2.68-10.1 8.97-10.1zm3.88 30.81h-7.25v3.02h5.98v4.08h-5.98v3.54h7.59l-.1 4.39h-12.57v-18.91h12.22zm2.96 31.18c0 7.15-2.76 9.85-8.24 9.85h-7.05v-18.91h6.94c5.93 0 8.35 2.17 8.35 9.06zm-10.22 5.4h1.9c2.24 0 2.99-.68 2.99-5.46 0-4.32-.7-5.1-2.99-5.1h-1.9zm.05 26.3h7.33l-.83 4.15h-11.62v-18.92h5.12zm15.78-15.66c5.52 0 7.97 2.91 7.97 10.06 0 7.33-2.44 10.09-7.97 10.09-5.81 0-8.36-2.96-8.36-10.09-.01-7.15 2.44-10.06 8.36-10.06zm.26 15.65c1.73 0 2.38-.96 2.38-5.59 0-4.65-.65-5.51-2.86-5.51-2.13 0-2.81.88-2.81 5.51-.01 4.65.7 5.59 3.29 5.59zm19.71-14.75 6.54 18.92h-6.33l-.75-3.41h-5.31l-.75 3.41h-5.38l5.77-18.92zm-1.48 11.27-1.25-5.59.3-2.08h-.77l-.44 2.08-1.25 5.59zm23.95-2.21c0 7.15-2.76 9.85-8.24 9.85h-7.05v-18.92h6.94c5.93.01 8.35 2.18 8.35 9.07zm-10.22 5.4h1.9c2.24 0 2.99-.68 2.99-5.46 0-4.32-.7-5.1-2.99-5.1h-1.9zm8.37-92.46.1 3.97h-4.42v14.95h-5.17v-14.96h-4.42l1-3.97h12.91zm-47.63 33.47h7.26v3.38h-7.26zm11.21 37.78c-5.62 0-8.16-2.96-8.16-10.09 0-7.15 2.44-10.06 8.16-10.06s8.16 2.91 8.16 10.06c0 7.33-2.44 10.09-8.16 10.09zm-.03-15.6c-2.13 0-2.81.88-2.81 5.51 0 4.65.7 5.59 2.86 5.59s2.81-.96 2.81-5.59c0-4.65-.65-5.51-2.86-5.51zm-1.64-10.74v-18.91h7.64c4.19 0 6.32 1.5 6.32 4.46 0 2.05-.94 3.38-2.39 4.08v.05c1.95.65 2.99 2.16 2.99 4.58 0 3.51-2.11 5.75-6.97 5.75h-7.59zm7.44-15.24h-2.52v3.43h2.57c1.17 0 1.59-.44 1.59-1.77 0-1.27-.45-1.66-1.64-1.66zm1.97 9.13c0-1.35-.42-1.9-1.85-1.9h-2.65v3.85h2.76c1.28 0 1.74-.42 1.74-1.95zm6.66-3.64c0-7.15 2.44-10.06 8.16-10.06s8.17 2.91 8.17 10.06c0 7.33-2.44 10.09-8.17 10.09-5.61 0-8.16-2.97-8.16-10.09zm11 0c0-4.65-.65-5.51-2.86-5.51-2.13 0-2.81.88-2.81 5.51 0 4.65.7 5.59 2.86 5.59s2.81-.96 2.81-5.59zm3.77 35.75h-6.08l-1.83-11.83-.26-2.11h-.07l.02 2.11-2.1 11.83h-6.09l-3.42-18.92h4.65l2.55 11.71-.58 2.08h.08l.29-2.08 2.03-11.71h5.41l2.05 11.61.31 2.08h.08l.23-2.08 1.74-11.61h5.07zm-17.21-70.91h6.21l5.88 18.92h-5.67l-.6-3.41h-5.46l-.75 3.41h-5.28-.1-5.77l-2.6-6.97h-1.72v6.97h-5.07v-18.92h6.73c5.79 0 7.39 1.29 7.39 5.68 0 2.6-.94 4.52-2.65 5.25l3.73 7.85zm5.46 11.27-1.98-5.59-.39-2.08h-.08l-.44 2.08-1.25 5.59zm-19.56-7.65h-1.77v4.5h1.74c1.48 0 2-.36 2-2.26.01-1.77-.48-2.24-1.97-2.24zm40.43-3.62h5.23v18.92h-5.23zm10.93 35.16c0 7.33-2.99 10.09-8.71 10.09-5.62 0-8.16-2.96-8.16-10.09 0-7.15 2.44-10.06 8.16-10.06 5.71 0 8.71 2.91 8.71 10.06zm-8.74-5.51c-2.13 0-2.24.88-2.24 5.51 0 4.65.14 5.59 2.29 5.59 2.89 0 2.81-.96 2.81-5.59 0-4.65.08-5.51-2.86-5.51zm-1.17 41.26h-4.47v-18.91h4.26l6.27 9.53.05-.03-.05-1.42.03-8.08h4.47v18.92h-3.61l-5.82-9-1.09-1.79-.05.03.03 2.11v8.64zm12.84-11.44h7.25v3.38h-7.25zm.57 22.41h-7.25v3.02h5.98v4.08h-5.98v3.54h7.59l-.1 4.39h-12.56v-18.92h12.34z" fill="#020204" fill-rule="evenodd"/></svg>