<svg enable-background="new 0 0 182.42 94.72" viewBox="0 0 182.42 94.72" xmlns="http://www.w3.org/2000/svg"><path clip-rule="evenodd" d="m152.02 73.35c-1.89 0-2.73-.2-2.73-2.56 0-1.65.84-2.59 2.73-2.59s2.7.94 2.7 2.59c0 1.54-.81 2.56-2.7 2.56zm-9.58-.32-2.7-7.23h-1.78v7.23h-5.26v-20.24h6.99c5.13 0 7.97 1.94 7.97 6.5 0 2.7-.71 4.7-3.06 5.45l3.94 8.29zm-2.65-15.87h-1.84v4.67h1.81c1.54 0 2.08-.38 2.08-2.35 0-1.13-.37-2.32-2.05-2.32zm-15.12 12.33h-5.51l-.19 3.54h-6.18l5.99-20.24h6.45l6.31 20.24h-6.09zm-1.47-10.2-1.2-2.16h-.08l-.46 2.16-1.3 5.8h3.54zm-10.71 7.77c0 3.64-2.19 5.97-7.23 5.97h-7.32v-20.24h7.38c4.35 0 6.56 2.02 6.56 5.24 0 2.13-.97 3.51-1.82 4.24v.05c2.24.67 2.43 2.23 2.43 4.74zm-7.39-9.85h-2.62v3.56h2.67c1.66 0 1.65-.46 1.65-1.84 0-.85-.25-1.72-1.7-1.72zm.13 7.51h-2.75v4h3.09c1.1 0 1.58-.43 1.58-2.03 0-1.41-.43-1.97-1.92-1.97zm-8.56-18.34c-5.18 0-7.8-2.48-7.8-7.23v-13.36h5.29v13.25c0 1.81.7 3.44 2.51 3.44 1.83 0 2.46-1.58 2.46-3.44v-13.25h5.97v13.36c0 4.75-3.24 7.23-8.43 7.23zm-9.47-5.05-.08 4.7h-13.3v-3.11l5.96-10.57 1.19-1.78-.03-.05h-7.45l.13-4.72h13.52v3.78l-6.24 9.93-1.19 1.76.03.08h7.46zm-21.17 31.97c-5.02 0-7.04-3.05-7.04-10.28 0-7.72 2.05-10.15 7.1-10.15 4.94 0 7.1 2.43 7.1 10.15-.01 7.23-2.25 10.28-7.16 10.28zm.05-16.22c-1.43 0-2.08.73-2.08 5.88 0 5.43.65 5.99 2.08 5.99 1.4 0 2.02-.7 2.02-5.99.01-5.26-.61-5.88-2.02-5.88zm-7.26-10.7c-2.13 0-4.24-.49-5.88-1.4l.67-4.48c1.65.84 3.32 1.35 5.08 1.35 2.07 0 2.32-.57 2.32-1.65 0-2.21-8.04-1.78-8.04-8.39 0-3.54 2.16-6.34 7.15-6.34 1.86 0 3.86.35 5.32.97l-.59 4.4c-1.54-.46-3.08-.73-4.37-.73-2 0-2.43.59-2.43 1.46 0 2.62 8.04 1.73 8.04 8.34-.01 3.99-2.1 6.47-7.27 6.47zm-13.69-20.59h5.42v20.24h-5.42zm5.05 27.08c4.94 0 7.1 2.43 7.1 10.15 0 7.23-2.24 10.28-7.15 10.28-5.02 0-7.05-3.05-7.05-10.28 0-7.72 2.05-10.15 7.1-10.15zm0 16.08c1.4 0 2.03-.7 2.03-5.99 0-5.26-.62-5.88-2.03-5.88-1.43 0-2.08.73-2.08 5.88 0 5.43.65 5.99 2.08 5.99zm-7.37-28.89c0 3.64-2.19 5.97-7.23 5.97h-7.88v-20.24h7.94c4.35 0 6.56 2.02 6.56 5.24 0 2.13-.97 3.51-2.48 4.24v.05c2.01.67 3.09 2.23 3.09 4.74zm-6.53-9.85h-3.48v3.56h2.67c1.22 0 1.65-.46 1.65-1.84-.01-.85-.47-1.72-.84-1.72zm-.73 7.51h-2.75v3.99h2.86c1.32 0 1.81-.43 1.81-2.03-.01-1.4-.44-1.96-1.92-1.96zm2.24 15.09v16.6h2.4v3.62h-10.1v-3.62h2.4v-10.5l-3.08 2.12-.54-4.53 5.86-3.7h3.06zm44.2.06c4.94 0 7.1 2.43 7.1 10.15 0 7.23-2.24 10.28-7.15 10.28-5.02 0-7.05-3.05-7.05-10.28 0-7.72 2.05-10.15 7.1-10.15zm0 16.08c2.07 0 2.02-.7 2.02-5.99 0-5.26.04-5.88-2.02-5.88-1.43 0-2.08.73-2.08 5.88 0 5.43.65 5.99 2.08 5.99z" fill="#020204" fill-rule="evenodd"/></svg>