<svg enable-background="new 0 0 248.31 121.44" viewBox="0 0 248.31 121.44" xmlns="http://www.w3.org/2000/svg"><path clip-rule="evenodd" d="m235.49 78.43v-3.54h7.62v3.54zm-1.35 2.26c0 4.04-2.9 6.54-7.52 6.54-2.16 0-4.29-.49-5.95-1.42l.68-4.53c2.28.85 3.36 1.36 5.13 1.36 1.69 0 2.35-.57 2.35-1.66 0-2.62-8.14-1.8-8.14-7.83 0-4.22 2.19-7.06 7.24-7.06 1.88 0 3.91.52 5.38.98l-.6 5.26c-1.56-1.27-3.11-1.55-4.42-1.55-2.02 0-2.46.6-2.46 1.47 0 2.66 8.31 1.76 8.31 8.44zm-23.09 6.54c-5.24 0-7.89-2.51-7.89-7.31v-13.5h5.35v13.39c0 1.83.71 2.87 2.54 2.87 1.86 0 2.49-.99 2.49-2.87v-13.38h5.33v13.5c-.01 4.8-2.57 7.3-7.82 7.3zm-14.96-3.92h-5.57l-.79 3.57h-5.54-.11-5.5l-3.3-7.31h-1.8v7.31h-5.32v-20.45h7.07c5.19 0 8.05 1.96 8.05 6.57 0 2.73-.83 4.74-3.08 6.15l3.92 7.59 6.02-20.31h6.53l6.17 20.45h-5.95zm-20.76-12.47h-1.86v4.72h1.83c1.56 0 2.1-.38 2.1-2.37.01-1.85-.51-2.35-2.07-2.35zm18.46 2.16-.41-2.18h-.08l-.46 2.18-1.31 5.86h3.58zm-.87-56.3h7.62v3.55h-7.62zm.25 12h-6.28l-3.06-8.32h-2.1v8.32h-5.32v-20.45h5.32v7.91h1.42l3.8-7.91h5.98l-4.39 9.79zm-22.62-4.28c1.26 0 2.78-.24 3.39-.68l.49 4.34c-1.23.6-3.09.98-4.67.98-5.84 0-8.68-3.33-8.68-10.69 0-6.35 2.76-10.47 9.01-10.47 1.45 0 3.22.33 4.32.76l-.52 4.53c-.55-.33-2.13-.54-3.41-.54-3.03 0-3.79 1.28-3.79 5.75-.01 4.71.83 6.02 3.86 6.02zm-12.72 11.94c-1.34 0-2.02-.52-2.02-.99 0-2.06.68-2.72 2.02-2.72 1.39 0 2.02.65 2.02 2.72 0 .36-.63.99-2.02.99zm-6.61-7.3c-4.96 0-7.89-2.51-7.89-7.31v-13.5h5.35v13.39c0 2.1.71 2.65 2.54 2.65 1.86 0 2.49-.01 2.49-2.65v-13.39h6.08v13.5c0 4.8-3.33 7.31-8.57 7.31zm-14.91-.36-2.73-7.31h-1.8v7.31h-5.33v-20.45h7.07c5.19 0 7.75 1.96 7.75 6.57 0 2.73-.98 4.74-2.78 5.51l3.99 8.37zm-2.68-16.03h-1.86v4.72h1.83c1.56 0 2.1-.38 2.1-2.37.01-1.86-.51-2.35-2.07-2.35zm-7.43 69.6-.11 4.61h-13.19v-20.45h12.83l.11 4.69h-7.62v3.16h6.28v4.28h-6.28v3.71zm-9.77-31.37h-1.8v6.89h-5.33v-20.45h7.07c5.19 0 7.75 1.96 7.75 6.57 0 2.73-.98 4.75-2.78 5.51l3.99 8.37h-6.17zm.05-9.14h-1.86v5.05h1.83c2.14 0 2.1-.71 2.1-2.7.01-1.86.33-2.35-2.07-2.35zm-.93-13.06h-7.4v-20.45h7.29c6.23 0 8.77 2.89 8.77 10.12 0 7.5-2.89 10.33-8.66 10.33zm-.08-15.73h-1.99v11.07h1.99c2.35 0 3.14-.71 3.14-5.73 0-4.52-.73-5.34-3.14-5.34zm-8.22 40.21-.11 4.61h-12.5v-20.45h12.14l.11 4.69h-7.62v3.16h6.28v4.61h-6.28v3.38zm-5.38-24.48h-5.44v-15.68h-4.63l.11-4.77h14.5l.11 4.77h-4.64v15.68zm-25.37 18.86c0-7.14 2.81-10.58 9.42-10.58 1.8 0 3.85.33 5.33.9l-.49 4.65c-1.34-.59-3.06-.89-4.53-.89-3.36 0-4.12 1.25-4.12 6.53 0 4.19.79 5.25 3.44 5.25.9 0 .85-.03 1.23-.11v-6.68h4.75v10.42c-1.42.68-3.74 1.12-5.84 1.12-6.78 0-9.19-3.62-9.19-10.61zm14.97-24.37c0 3.36-2.73 5.87-7.35 5.87-1.99 0-4.29-.49-5.95-1.42l.68-4.53c1.67.85 3.36 1.72 5.49 1.72 1.33 0 1.99-.92 1.99-2.01 0-2.62-8.14-1.8-8.14-8.48 0-3.57 2.18-6.41 7.24-6.41 1.88 0 3.9.35 5.38.98l-.6 4.44c-1.56-.46-3.11-.74-4.42-.74-2.02 0-2.46.6-2.46 1.47 0 2.65 8.14 1.75 8.14 9.11zm-20.81-2.51h-4.97v8.02h-5.33v-20.45h5.33v7.66h4.97v-7.66h5.94v20.45h-5.94zm-16.14 3.74c1.26 0 2.83-.24 3.39-.68l.49 4.34c-1.23.6-3.09.98-4.67.98-5.84 0-7.8-3.33-7.8-10.69 0-6.35 1.88-10.47 8.13-10.47 1.45 0 3.22.33 4.31.76l-.52 4.53c-.5-.33-2.13-.54-3.41-.54-3.03 0-3.8 1.28-3.8 5.75 0 4.71.85 6.02 3.88 6.02zm-19.74 4.64c-5.9 0-8.58-3.11-8.58-10.23 0-7.85 2.57-10.9 8.58-10.9s8.57 3.05 8.57 10.9c0 7.34-2.57 10.23-8.57 10.23zm-.03-16.37c-2.24 0-2.95.93-2.95 6.13 0 4.53.74 5.51 3 5.51 2.27 0 2.95-1.01 2.95-5.51 0-5.23-.68-6.13-3-6.13zm2.65-5.42c-1.34 0-2.02-.52-2.02-1.43 0-1.62.68-2.28 2.02-2.28 1.39 0 2.02.65 2.02 2.28 0 .8-.63 1.43-2.02 1.43zm-5.22 0c-1.34 0-2.02-.52-2.02-1.43 0-1.62.68-2.28 2.02-2.28 1.39 0 2.02.65 2.02 2.28 0 .8-.63 1.43-2.02 1.43zm6.47 34.76h-6.83v3.16h5.49v4.61h-5.49v3.38h7.74l-.67 4.61h-13.18v-20.45h12.84zm-23.18 8.87h-1.8v6.89h-5.33v-20.45h7.07c5.19 0 7.75 1.96 7.75 6.57 0 2.73-.98 4.75-2.78 5.51l3.99 8.37h-6.17zm.05-9.14h-1.86v5.05h1.83c1.56 0 2.1-.71 2.1-2.7.01-1.86-.51-2.35-2.07-2.35zm3.12-21.08h-4.97v8.02h-5.33v-20.45h5.32v7.66h4.97v-7.66h5.73v20.45h-5.73v-8.02zm2.65 50.44h-7.62v3.16h6.38v4.28h-6.38v3.71h7.97l-.11 4.61h-13.19v-20.45h12.83zm-.06 29.17h-7.54v3.6h6.35l-.13 4.53h-6.23v7.55h-5.34v-19.73h12.81zm9.67-5.1c6.01 0 8.57 3.05 8.57 10.55 0 7.69-2.57 10.58-8.57 10.58-5.42 0-8.57-3.11-8.57-10.58-.01-7.5 2.56-10.55 8.57-10.55zm.03 16.42c2.27 0 2.95-1.01 2.95-5.86 0-4.88-.68-5.78-3-5.78-2.24 0-2.95.93-2.95 5.78-.01 4.87.73 5.86 3 5.86zm3.19-24.73-1.97-4.94-.77-2.07h-.08l-.76 2.07-1.94 4.94h-6.09l4.92-10.55-4.86-9.9h6.25l1.72 4.2.79 2.04h.08l.79-2.04 2.12-4.2h6.07l-5.32 9.74 5.02 10.72h-5.97zm12.64-49.54v20.45h-5.49v-20.45zm8.42 29.09.11 4.77h-4.64v15.68h-5.43v-15.68h-4.64l.11-4.77zm1.36 35.66c0 2.73-.98 4.75-2.79 5.51l3.99 8.37h-6.17l-2.73-7.31h-.98v7.31h-6.14v-19.73h7.07c5.43 0 7.75 1.63 7.75 5.85zm-8.68 2.56h1.01c1.56 0 2.31-.38 2.31-2.37 0-1.85-.72-2.35-2.28-2.35h-1.04zm27.08-46.86h-6.38v-20.45h6.38zm-3.19 15.21c0 2.73-.98 4.74-2.6 6.15l4.5 7.73h-6.86l-2.73-7.31h-1.8v7.31h-5.32v-20.45h7.52c4.72 0 7.29 1.96 7.29 6.57zm-7.64-2.16h-1.86v4.72h1.83c1.56 0 2.1-.38 2.1-2.37 0-1.85-.52-2.35-2.07-2.35zm-3.25-33.5h4.7v20.45h-3.8l-6.12-9.44-1.15-1.55-.06.28.03 1.62v9.08h-4.7v-20.44h4.48l6.58 10.61.06-.03-.06-2.18zm14.28 68.29c0 7.5-2.89 10.33-8.66 10.33h-7.4v-19.72h7.29c6.23 0 8.77 2.17 8.77 9.39zm-10.73 5.68h1.99c2.35 0 3.14-.71 3.14-5.73 0-4.53-.74-5.35-3.14-5.35h-1.99zm23.18-29.04-.11 4.61h-13.19v-20.45h12.83l.11 4.69h-7.62v3.16h6.28v4.28h-6.28v3.71zm2.73 17.94h-7.62v3.16h6.61v4.28h-6.61v3.71h7.97l-.11 4.61h-13.18v-19.73h12.83zm17.23 1.88c0 2.73-.98 4.75-2.79 5.51l3.99 8.37h-6.17l-2.73-7.31h-1.8v7.31h-5.32v-19.73h7.07c5.55 0 7.75 1.63 7.75 5.85zm-9.5 2.56h1.83c1.56 0 2.43-.38 2.43-2.37 0-1.85-.84-2.35-2.4-2.35h-1.86zm-3.74-17.77h-4.67v-20.45h5.87l3.6 10.33.68 2.1h.08l.68-2.07 3.66-10.36h5.9v20.45h-4.89v-8.56l.05-2.21-.08-.03-.68 2.13-3.03 8.67h-2.78l-3.04-8.65-1.33-2.13-.06.03.03 2.21v8.54zm21.44 22.03c0 1.83-.08 2.64 1.75 2.64 1.86 0 2.78-.76 2.78-2.64v-12.67h5.03v12.78c0 4.8-2.57 7.31-7.81 7.31s-7.89-2.51-7.89-7.31v-12.78h6.14zm23.32-2.79.55-.03-.55-2.18.27-7.68h4.35v19.73h-3.79l-6.12-8.57-1.15-2.75-.06.03.03 2.21v9.08h-4.7v-19.72h4.48zm-6.26-48.33v-20.45h12.81l.08 4.77h-7.54v3.6h6.25l-.03 4.53h-6.23v7.55zm6.91 29.09h-5.33v-20.45h5.33v7.66h4.97v-7.66h6.24v20.45h-6.24v-8.02h-4.97zm15.62 8.28c1.8 0 3.85.79 5.32.9l-.49 4.55c-1.34-.49-3.06-.79-4.53-.79-3.36 0-4.12 1.25-4.12 5.86 0 4.85.79 5.92 3.58 5.92.28 0 .71-.03 1.09.43v-7.22h4.75v10.42c-1.42.68-3.74 1.12-5.84 1.12-6.77 0-9.18-3.63-9.18-10.61 0-7.14 2.82-10.58 9.42-10.58zm-4.75-59.79c0-2.06.68-2.72 2.02-2.72 1.92 0 2.02.65 2.02 2.72 0 .36-.11.99-2.02.99-1.34 0-2.02-.52-2.02-.99zm13.06 1.97v13.5c0 4.8-3.2 7.31-8.44 7.31-5.1 0-7.89-2.51-7.89-7.31v-13.5h5.35v13.39c0 1.83.71 2.65 2.54 2.65 1.86 0 2.49-.76 2.49-2.65v-13.39zm2.45 44.93.31 4.61h-13.61v-20.45h12.83l.11 4.69h-7.62v3.16h6.28v4.28h-6.28v3.71zm-.49-24.48v-20.45h7.07c5.19 0 7.76 1.96 7.76 6.57 0 2.73-.98 4.75-2.79 5.51l3.99 8.37h-6.17l-2.73-6.89h-1.8v6.89zm7.16-10.98c1.56 0 2.1-.71 2.1-2.7 0-1.85-.52-2.35-2.08-2.35h-1.86v5.05zm3.55 53.4h-7.62v3.16h6.57v4.28h-6.57v3.71h7.97l-.11 4.61h-13.19v-19.73h12.84zm13.46 5.91.05-.03-.05-2.18.03-7.68h4.7v19.73h-3.8l-6.12-8.57-1.15-2.75-.06.03.03 2.21v9.08h-4.7v-19.72h4.48zm9.69 4.97c1.91 0 2.73.96 2.73 2.62 0 1.56-.82 2.59-2.73 2.59s-2.76-.74-2.76-2.59c.01-1.67.85-2.62 2.76-2.62z" fill-rule="evenodd"/></svg>