<svg enable-background="new 0 0 643.8 600" viewBox="0 0 643.8 600" xmlns="http://www.w3.org/2000/svg"><path d="m457.1 474.8-.4-362.7-.1-147.9-58.7-.1-70.7 45-69.3-45-59-.1v511.2l130.3 79.8h.1z" fill="#020203"/><path clip-rule="evenodd" d="m421.7 381.5c-1.7-.6-3.5-.9-5.6-.9-5.8 0-9 2.1-10.5 7.2h14.7l-1.5 7.1h-14.1v2.6h13.3l-1.4 6.9h-11.1c1.6 6 5.2 7.9 10.5 7.9 2.5 0 5-.7 7.3-1.6l.9 10.1c-3.1 1.6-6.9 2.4-11.9 2.4-11.9 0-19-6.1-21.2-18.9h-5.3l.1-6.9h4.6v-2.6h-4.6l-.1-7.1h5.3c2.3-11.8 10-19.1 21.9-19.1 4.7 0 8.3.7 11.3 1.9zm-75.1 41.7c-13.3 0-18.7-8.1-18.7-27.3 0-20.5 5.5-27.7 18.8-27.7 13.1 0 18.8 7.2 18.8 27.7.1 19.2-5.8 27.3-18.9 27.3zm.2-43c-3.8 0-5.5 1.9-5.5 15.6 0 14.4 1.7 15.9 5.5 15.9 3.7 0 5.4-1.9 5.4-15.9-.1-14-1.7-15.6-5.4-15.6zm-24.2 23.7c0 12-5.9 19.3-19.4 19.3-5.7 0-11.1-1.2-15.5-3.7l2.3-10.6c3.9 1.9 7.2 3 11.7 3 5.7 0 7.2-2.2 7.2-6.9 0-4.2-2.3-5.7-7.2-5.7-2.8 0-6.2.4-8.9 1.3l-4.4-5.2 1.9-26.6h29.2l.5 11.9h-18.7l-.5 7.9c1.7-.3 3.4-.4 5.3-.4 10.5 0 16.5 5.2 16.5 15.7zm-42.1 2.4c0 10.3-6.4 16.9-20.2 16.9-5.9 0-11.2-1.6-14.9-3.7l2.4-10.6c3.9 1.9 7.7 3 12 3 4.9 0 7.4-2.1 7.4-5.9 0-3.5-1.9-6.1-11.5-6.1v-9.7c9.2 0 11.2-2.1 11.2-5.7 0-2.8-1.9-4.4-6.6-4.4s-8.6 1.6-12 4.3l-3.1-10.7c4-3.1 9.9-5.3 16.2-5.3 11.6 0 18.3 5.7 18.3 15.3 0 4.9-2.2 8.7-6.4 11.1v.1c4.5 1.9 7.2 5.8 7.2 11.4z" fill="#ffed00" fill-rule="evenodd"/></svg>