<svg enable-background="new 0 0 643.8 600" viewBox="0 0 643.8 600" xmlns="http://www.w3.org/2000/svg"><path d="m457.1 474.8-.4-362.7-.1-147.9-58.7-.1-70.7 45-69.3-45-59-.1v511.2l130.3 79.8h.1z" fill="#020203"/><path clip-rule="evenodd" d="m421.5 381.7c-1.6-.6-3.5-.9-5.6-.9-5.7 0-8.9 2.1-10.4 7.1h14.5l-1.5 7h-13.9v2.6h13.2l-1.4 6.8h-11c1.6 6 5.2 7.9 10.4 7.9 2.5 0 5-.7 7.2-1.6l.9 10c-3 1.6-6.9 2.4-11.7 2.4-11.7 0-18.8-6-20.9-18.7h-5.2l.1-6.8h4.5v-2.6h-4.5l-.1-7h5.2c2.3-11.6 9.9-18.9 21.6-18.9 4.7 0 8.2.7 11.2 1.8zm-74.2 41.3c-13.2 0-18.5-8-18.5-26.9 0-20.2 5.4-27.4 18.6-27.4 13 0 18.6 7.1 18.6 27.4.1 18.9-5.8 26.9-18.7 26.9zm.2-42.5c-3.7 0-5.4 1.9-5.4 15.4 0 14.2 1.7 15.7 5.4 15.7s5.3-1.8 5.3-15.7c0-13.8-1.6-15.4-5.3-15.4zm-41.8 42.5c-13.2 0-18.4-8-18.4-26.9 0-20.2 5.4-27.4 18.6-27.4 13 0 18.6 7.1 18.6 27.4-.1 18.9-5.9 26.9-18.8 26.9zm.1-42.5c-3.7 0-5.4 1.9-5.4 15.4 0 14.2 1.7 15.7 5.4 15.7s5.3-1.8 5.3-15.7c0-13.8-1.6-15.4-5.3-15.4zm-26.4 32.3v9.5h-12.5v-9.5h-20.9l-1.1-8.6 18.4-34.9h16.2v32.4h4.3l-.3 11.2zm-11.4-30.3-9.5 19.1h8.8l.5-13.3.3-5.7z" fill="#ffed00" fill-rule="evenodd"/></svg>