<?xml version="1.0" encoding="utf-8"?>
<!-- Generator: Adobe Illustrator 27.3.0, SVG Export Plug-In . SVG Version: 6.00 Build 0)  -->
<svg version="1.1" id="Ebene_1" xmlns="http://www.w3.org/2000/svg" xmlns:xlink="http://www.w3.org/1999/xlink" x="0px" y="0px"
	 viewBox="0 0 643.8 600" style="enable-background:new 0 0 643.8 600;" xml:space="preserve">
<style type="text/css">
	.st0{fill-rule:evenodd;clip-rule:evenodd;}
</style>
<text transform="matrix(0.9919 0 0 1 -430.8037 362.9279)" style="fill:#FFFFFF; font-family:'ClanPro-NarrBlack'; font-size:12.2353px;">Mehr infos</text>
<path class="st0" d="M611.9,323.9l-11.1-17l-2.1-3.4l-0.1,0l0,4v16.4h-8.5v-37h8.1l11.9,19.2l0.1,0l-0.1-3.9l0-15.2h8.5v37H611.9z
	 M586.5,315.6l-0.2,8.3h-23.9v-37h23.3l0.2,8.5H572v5.7h11.4v7.7H572v6.7H586.5z M566.5,369.1c0,2.8-1.5,4.7-5,4.7
	c-3.5,0-5-1.3-5-4.7c0-3,1.5-4.7,5-4.7C565,364.4,566.5,366.1,566.5,369.1z M542.6,323.9h-13.4v-37h13.2c11.3,0,15.9,5.2,15.9,18.3
	C558.3,318.8,553.1,323.9,542.6,323.9z M542.5,295.5h-3.6v20h3.6c4.3,0,5.7-1.3,5.7-10.3C548.2,297,546.8,295.5,542.5,295.5z
	 M544,355.4l0.1,0l-0.1-3.9l0.1-15.2h8.5v37h-6.9l-11.1-17l-2.1-3.4l-0.1,0l0.1,4v16.4h-8.5v-37h8.1L544,355.4z M510.3,373.2
	l-5-13.2h-3.3v13.2h-9.7v-37h12.8c9.4,0,14.1,3.5,14.1,11.9c0,4.9-1.8,8.6-5.1,10l7.2,15.1H510.3z M505.5,344.2h-3.4v8.5h3.3
	c2.8,0,3.8-0.7,3.8-4.3C509.2,345.1,508.3,344.2,505.5,344.2z M504.4,323.9l-5-13.2h-3.3v13.2h-9.7v-37h12.8
	c9.4,0,14.1,3.5,14.1,11.9c0,4.9-1.8,8.6-5.1,10l7.2,15.1H504.4z M499.6,294.9h-3.4v8.5h3.3c2.8,0,3.8-0.7,3.8-4.3
	C503.3,295.8,502.4,294.9,499.6,294.9z M467.7,324.6c-9.5,0-14.3-4.5-14.3-13.2V287h9.7v24.2c0,3.3,1.3,4.8,4.6,4.8
	c3.4,0,4.5-1.4,4.5-4.8V287h9.7v24.4C481.9,320,477.2,324.6,467.7,324.6z M472.5,285.2c-2.4,0-3.7-0.9-3.7-3.3
	c0-2.2,1.2-3.4,3.7-3.4c2.5,0,3.7,1.2,3.7,3.4C476.1,284.1,475,285.2,472.5,285.2z M463,285.2c-2.4,0-3.7-0.9-3.7-3.3
	c0-2.2,1.2-3.4,3.7-3.4c2.5,0,3.7,1.2,3.7,3.4C466.7,284.1,465.5,285.2,463,285.2z M436.8,302.1h11.3l0,8.2h-11.3v13.6h-9.7v-37
	h23.2l0.1,8.6h-13.7V302.1z M426.7,345.1c-1.6-0.6-3.9-1-6.2-1c-5.5,0-6.9,2.3-6.9,10.4c0,8.5,1.5,10.9,7,10.9
	c2.3,0,4.4-0.4,6.1-1.2l0.9,7.8c-2.2,1.1-5.6,1.8-8.5,1.8c-10.6,0-15.8-6-15.8-19.3c0-12.4,5-18.9,16.3-18.9c2.6,0,5.8,0.6,7.8,1.4
	L426.7,345.1z M401.8,323.9l-7-15h-2.4v15h-9.7v-37h9.7v14.3h2.6l6.9-14.3h10.8l-8.9,17.7l9.4,19.3H401.8z M382.9,345.4
	c-2.8-0.8-5.6-1.3-8-1.3c-3.7,0-4.5,1.1-4.5,2.7c0,4.8,14.8,3.2,14.8,15.2c0,7.3-5,11.8-13.3,11.8c-3.9,0-7.8-0.9-10.8-2.6l1.2-8.2
	c3,1.5,6.1,2.5,9.3,2.5c3.1,0,4.3-1,4.3-3c0-4.7-14.8-3.3-14.8-15.3c0-6.5,4-11.6,13.1-11.6c3.4,0,7.1,0.6,9.8,1.8L382.9,345.4z
	 M372.2,316.2c2.3,0,4.4-0.4,6.1-1.2l0.9,7.8c-2.2,1.1-5.6,1.8-8.5,1.8c-10.6,0-15.8-6-15.8-19.3c0-12.4,5-18.9,16.3-18.9
	c2.6,0,5.8,0.6,7.8,1.4l-0.9,8.2c-1.6-0.6-3.9-1-6.2-1c-5.5,0-6.9,2.3-6.9,10.4C365.2,313.8,366.7,316.2,372.2,316.2z M342.7,317.5
	h-10.1l-1.4,6.5h-10.3l11-37h11.8l11.2,37h-10.8L342.7,317.5z M338.6,298.8l-0.7-3.9h-0.1l-0.8,3.9l-2.4,10.6h6.5L338.6,298.8z
	 M320.4,313c0,6.6-4,10.9-13.3,10.9h-14.5v-37h14.6c8,0,12,3.7,12,9.6c0,3.9-1.8,6.4-4.6,7.7v0.1C318.4,305.6,320.4,308.4,320.4,313
	z M306.8,295H302v6.5h4.9c2.2,0,3-0.8,3-3.4C309.9,295.8,309.1,295,306.8,295z M307.1,308.7H302v7.3h5.2c2.4,0,3.3-0.8,3.3-3.7
	C310.6,309.8,309.8,308.7,307.1,308.7z M277.9,309.4h-9v14.5h-9.7v-37h9.7v13.8h9V287h9.7v37h-9.7V309.4z M242.5,324.6
	c-3.9,0-7.8-0.9-10.8-2.6l1.2-8.2c3,1.5,6.1,2.5,9.3,2.5c3.1,0,4.3-1,4.3-3c0-4.7-14.8-3.3-14.8-15.3c0-6.5,4-11.6,13.1-11.6
	c3.4,0,7.1,0.6,9.8,1.8l-1.1,8c-2.8-0.8-5.6-1.3-8-1.3c-3.7,0-4.5,1.1-4.5,2.7c0,4.8,14.8,3.2,14.8,15.2
	C255.8,320,250.9,324.6,242.5,324.6z M218,317.5h-10.1l-1.4,6.5h-10.3l11-37H219l11.2,37h-10.8L218,317.5z M213.8,298.8l-0.7-3.9
	h-0.1l-0.8,3.9l-2.4,10.6h6.5L213.8,298.8z M187.7,316.2c2.3,0,4.4-0.4,6.1-1.2l0.9,7.8c-2.2,1.1-5.6,1.8-8.5,1.8
	c-10.6,0-15.8-6-15.8-19.3c0-12.4,5-18.9,16.3-18.9c2.6,0,5.8,0.6,7.8,1.4l-0.9,8.2c-1.6-0.6-3.9-1-6.2-1c-5.5,0-6.9,2.3-6.9,10.4
	C180.6,313.8,182.2,316.2,187.7,316.2z M181.5,346.3c0,3.3-1.5,6-4.5,7.6v0.1c3.3,1.4,5.2,4.1,5.2,8c0,7.1-4.4,11.6-14,11.6
	c-4.1,0-7.7-1.1-10.3-2.6l1.6-7.3c2.7,1.3,5.3,2,8.3,2c3.4,0,5.1-1.4,5.1-4c0-2.4-1.3-4.2-8-4.2v-6.6c6.4,0,7.7-1.4,7.7-3.9
	c0-1.9-1.3-3.1-4.6-3.1c-3.2,0-6,1.1-8.3,3l-2.1-7.4c2.8-2.2,6.9-3.6,11.2-3.6C176.8,335.8,181.5,339.8,181.5,346.3z M149,323.9
	h-9.9v-28.3h-8.4l0.2-8.6h26.3l0.2,8.6H149V323.9z M147,336.3v30.3h4.4v6.6h-18.5v-6.6h4.4v-19.2l-5.6,3.1l-1-7.5l10.7-6.8H147z
	 M128.8,315.3l-0.1,8.6h-25.3v-6.3l11.8-18.7l2.2-3.3l-0.1-0.1h-13.7l0.2-8.6h24.8v6.9L117.3,312l-2.2,3.2l0,0.1H128.8z
	 M112.7,337.4l-1.1,8c-2.8-0.8-5.6-1.3-8-1.3c-3.7,0-4.5,1.1-4.5,2.7c0,4.8,14.8,3.2,14.8,15.2c0,7.3-5,11.8-13.3,11.8
	c-3.9,0-7.8-0.9-10.8-2.6l1.2-8.2c3,1.5,6.1,2.5,9.3,2.5c3.1,0,4.3-1,4.3-3c0-4.7-14.8-3.3-14.8-15.3c0-6.5,4-11.6,13.1-11.6
	C106.3,335.6,110,336.3,112.7,337.4z M93.3,323.9h-9.9v-28.3H75l0.2-8.6h26.3l0.2,8.6h-8.4V323.9z M71.3,373.2H57.8v-37h13.2
	c11.3,0,15.9,5.2,15.9,18.3C87,368.1,81.7,373.2,71.3,373.2z M71.1,344.7h-3.6v20h3.6c4.3,0,5.7-1.3,5.7-10.3
	C76.8,346.2,75.5,344.7,71.1,344.7z M73.4,315.6l-0.2,8.3H49.3v-37h23.3l0.2,8.5H58.9v5.7h11.4v7.7H58.9v6.7H73.4z M30,324.6
	c-2.8,0-5-0.5-6.8-1.3l0.5-8c1,0.5,2.7,0.9,4.6,0.9c4.1,0,6-1.6,6-6V287h9.9v23.4C44.2,321.2,38.7,324.6,30,324.6z M34.1,350.1h9
	v-13.8h9.7v37h-9.7v-14.5h-9v14.5h-9.7v-37h9.7V350.1z M206.5,334.6L191,378.9h-7.5l15.3-44.2H206.5z M218.6,344.2
	c-2.8,0-5.4,1.3-7.8,3l-2.2-7.6c3-2.2,6.9-3.7,11.9-3.7c8.1,0,12.2,4.4,12.2,10.9c0,6-4.8,11.4-11.8,18l0,0.1h11.6l-0.2,8.3H209v-6
	c7.7-8.5,13.9-14.6,13.9-19.5C222.9,345.4,221.6,344.2,218.6,344.2z M249.7,335.8c9.1,0,13,5,13,19.1c0,13.2-4.1,18.8-13.1,18.8
	c-9.2,0-12.9-5.6-12.9-18.8C236.6,340.8,240.4,335.8,249.7,335.8z M249.7,365.7c2.6,0,3.7-1.3,3.7-10.9c0-9.6-1.1-10.7-3.7-10.7
	c-2.6,0-3.8,1.3-3.8,10.7C245.9,364.7,247,365.7,249.7,365.7z M279.9,357.9h-13.8v-6.4h13.8V357.9z M307,336.2v22.6h3l-0.2,7.8H307
	v6.6h-8.8v-6.6h-14.7l-0.8-6l12.9-24.3H307z M298.5,358.8l0.3-9.3l0.2-4l-0.1,0l-6.6,13.3H298.5z M334,365.5c3.1,0,4.3-1,4.3-3
	c0-4.7-14.8-3.3-14.8-15.3c0-6.5,4-11.6,13.1-11.6c3.4,0,7.1,0.6,9.8,1.8l-1.1,8c-2.8-0.8-5.6-1.3-8-1.3c-3.7,0-4.5,1.1-4.5,2.7
	c0,4.8,14.8,3.2,14.8,15.2c0,7.3-5,11.8-13.3,11.8c-3.9,0-7.8-0.9-10.8-2.6l1.2-8.2C327.7,364.6,330.8,365.5,334,365.5z M399,373.2
	h-10v-37h10V373.2z M440.9,350.1h9v-13.8h9.7v37h-9.7v-14.5h-9v14.5h-9.7v-37h9.7V350.1z M488.1,344.7h-13.8v5.7h11.4v7.7h-11.4v6.7
	h14.5l-0.2,8.3h-23.9v-37h23.3L488.1,344.7z M570.1,338.5l4.6,1.1l0.7-4.8h4.2l0.6,4.8l4.6-1.1l1.4,4l-4.4,2.1l2.5,4.2l-3.1,2.4
	l-3.7-3.5l-3.8,3.6l-3.2-2.3l2.4-4.3l-4.4-2.1L570.1,338.5z"/>
</svg>
