<?xml version="1.0" encoding="utf-8"?>
<!-- Generator: Adobe Illustrator 27.3.0, SVG Export Plug-In . SVG Version: 6.00 Build 0)  -->
<svg version="1.1" id="Ebene_1" xmlns="http://www.w3.org/2000/svg" xmlns:xlink="http://www.w3.org/1999/xlink" x="0px" y="0px"
	 viewBox="0 0 643.8 600" style="enable-background:new 0 0 643.8 600;" xml:space="preserve">
<style type="text/css">
	.st0{fill-rule:evenodd;clip-rule:evenodd;}
</style>
<text transform="matrix(0.9919 0 0 1 -430.8037 362.9279)" style="fill:#FFFFFF; font-family:'ClanPro-NarrBlack'; font-size:12.2353px;">Mehr infos</text>
<path class="st0" d="M592.4,303.3l-10.7-16.4l-2-3.3l-0.1,0l0,3.8v15.8h-8.2v-35.6h7.8l11.5,18.5l0.1,0l-0.1-3.8l0-14.6h8.2v35.6
	H592.4z M567.9,295.3l-0.2,8h-23v-35.6h22.4l0.2,8.2H554v5.5h11v7.5h-11v6.5H567.9z M550.4,350.8h-6.6l-10.7-16.4l-2-3.3l-0.1,0
	l0,3.8v15.8h-8.2v-35.6h7.8l11.5,18.5l0.1,0l-0.1-3.8l0-14.6h8.2V350.8z M525.7,303.3h-12.9v-35.6h12.7c10.9,0,15.3,5,15.3,17.6
	C540.8,298.3,535.8,303.3,525.7,303.3z M525.6,275.9h-3.5v19.3h3.5c4.1,0,5.5-1.2,5.5-10C531.1,277.3,529.8,275.9,525.6,275.9z
	 M513.6,336.2l7,14.6h-10.8l-4.8-12.7h-3.1v12.7h-9.3v-35.6h12.3c9,0,13.5,3.4,13.5,11.5C518.5,331.4,516.7,334.9,513.6,336.2z
	 M505.1,322.9h-3.2v8.2h3.2c2.7,0,3.7-0.7,3.7-4.1C508.7,323.7,507.8,322.9,505.1,322.9z M489,303.3l-4.8-12.7h-3.1v12.7h-9.3v-35.6
	h12.3c9,0,13.5,3.4,13.5,11.5c0,4.7-1.7,8.3-4.9,9.6l7,14.6H489z M484.4,275.4h-3.2v8.2h3.2c2.7,0,3.7-0.7,3.7-4.1
	C488,276.2,487.1,275.4,484.4,275.4z M453.7,303.9c-9.1,0-13.8-4.4-13.8-12.7v-23.5h9.3V291c0,3.2,1.2,4.6,4.4,4.6
	c3.2,0,4.3-1.3,4.3-4.6v-23.3h9.3v23.5C467.3,299.5,462.9,303.9,453.7,303.9z M458.3,265.9c-2.3,0-3.5-0.9-3.5-3.2
	c0-2.1,1.2-3.3,3.5-3.3c2.4,0,3.5,1.1,3.5,3.3C461.8,264.9,460.7,265.9,458.3,265.9z M449.2,265.9c-2.3,0-3.5-0.9-3.5-3.2
	c0-2.1,1.2-3.3,3.5-3.3c2.4,0,3.5,1.1,3.5,3.3C452.7,264.9,451.6,265.9,449.2,265.9z M424,282.2h10.9l0,7.9H424v13.2h-9.3v-35.6H437
	l0.1,8.3H424V282.2z M422.8,314.5c2.5,0,5.6,0.6,7.5,1.3l-0.9,7.9c-1.6-0.6-3.7-0.9-6-0.9c-5.3,0-6.6,2.2-6.6,10
	c0,8.2,1.5,10.5,6.8,10.5c2.2,0,4.2-0.4,5.9-1.2l0.9,7.6c-2.1,1-5.4,1.7-8.1,1.7c-10.2,0-15.1-5.8-15.1-18.6
	C407.1,320.8,411.9,314.5,422.8,314.5z M393.2,315.2h9.6v35.6h-9.6V315.2z M390.4,303.3l-6.7-14.5h-2.3v14.5h-9.3v-35.6h9.3v13.8
	h2.5l6.6-13.8h10.4l-8.6,17.1l9,18.6H390.4z M362,295.8c2.2,0,4.2-0.4,5.9-1.2l0.9,7.6c-2.1,1-5.4,1.7-8.1,1.7
	c-10.2,0-15.1-5.8-15.1-18.6c0-12,4.8-18.2,15.7-18.2c2.5,0,5.6,0.6,7.5,1.3l-0.9,7.9c-1.6-0.6-3.7-0.9-6-0.9c-5.3,0-6.6,2.2-6.6,10
	C355.2,293.6,356.7,295.8,362,295.8z M333.6,297.1h-9.7l-1.4,6.2h-9.9l10.6-35.6h11.4l10.8,35.6H335L333.6,297.1z M329.6,279.1
	l-0.7-3.8h-0.1l-0.8,3.8l-2.3,10.2h6.2L329.6,279.1z M312.1,292.8c0,6.4-3.9,10.5-12.8,10.5h-13.9v-35.6h14c7.7,0,11.6,3.6,11.6,9.2
	c0,3.8-1.7,6.2-4.4,7.5v0.1C310.2,285.6,312.1,288.4,312.1,292.8z M299.1,275.4h-4.6v6.3h4.7c2.1,0,2.9-0.8,2.9-3.2
	C302.1,276.2,301.3,275.4,299.1,275.4z M299.3,288.7h-4.9v7h5c2.3,0,3.2-0.8,3.2-3.6C302.7,289.7,301.9,288.7,299.3,288.7z
	 M271.3,289.3h-8.7v14h-9.3v-35.6h9.3V281h8.7v-13.4h9.3v35.6h-9.3V289.3z M237.2,303.9c-3.8,0-7.5-0.9-10.4-2.5l1.2-7.9
	c2.9,1.5,5.9,2.4,9,2.4c3,0,4.1-1,4.1-2.9c0-4.6-14.2-3.1-14.2-14.8c0-6.2,3.8-11.2,12.6-11.2c3.3,0,6.8,0.6,9.4,1.7l-1,7.7
	c-2.7-0.8-5.4-1.3-7.7-1.3c-3.5,0-4.3,1-4.3,2.6c0,4.6,14.2,3,14.2,14.7C250,299.5,245.3,303.9,237.2,303.9z M213.7,297.1H204
	l-1.4,6.2h-9.9l10.6-35.6h11.4l10.8,35.6h-10.4L213.7,297.1z M209.7,279.1l-0.7-3.8h-0.1l-0.8,3.8l-2.3,10.2h6.2L209.7,279.1z
	 M184.5,295.8c2.2,0,4.2-0.4,5.9-1.2l0.9,7.6c-2.1,1-5.4,1.7-8.1,1.7c-10.2,0-15.1-5.8-15.1-18.6c0-12,4.8-18.2,15.7-18.2
	c2.5,0,5.6,0.6,7.5,1.3l-0.9,7.9c-1.6-0.6-3.7-0.9-6-0.9c-5.3,0-6.6,2.2-6.6,10C177.8,293.6,179.3,295.8,184.5,295.8z M179.8,333.2
	c0,12.7-4,18.1-12.6,18.1c-8.9,0-12.4-5.4-12.4-18.1c0-13.6,3.6-18.4,12.5-18.4C176,314.8,179.8,319.6,179.8,333.2z M167.3,322.7
	c-2.5,0-3.7,1.3-3.7,10.4c0,9.5,1.1,10.5,3.7,10.5c2.5,0,3.6-1.2,3.6-10.5C170.8,323.8,169.7,322.7,167.3,322.7z M147.3,303.3h-9.5
	V276h-8.1l0.2-8.3h25.3l0.2,8.3h-8.1V303.3z M145.4,315.2v29.2h4.2v6.4h-17.8v-6.4h4.2v-18.5l-5.4,3l-1-7.2l10.3-6.5H145.4z
	 M128,295l-0.1,8.3h-24.3v-6l11.4-18.1l2.1-3.1l0-0.1h-13.1l0.2-8.3h23.9v6.7l-11,17.5l-2.1,3.1l0,0.1H128z M112.4,316.3l-1,7.7
	c-2.7-0.8-5.4-1.3-7.7-1.3c-3.5,0-4.3,1-4.3,2.6c0,4.6,14.2,3,14.2,14.7c0,7-4.8,11.4-12.8,11.4c-3.8,0-7.5-0.9-10.4-2.5l1.2-7.9
	c2.9,1.5,5.9,2.4,8.9,2.4c3,0,4.1-1,4.1-2.9c0-4.6-14.2-3.1-14.2-14.8c0-6.2,3.8-11.2,12.6-11.2
	C106.3,314.6,109.9,315.2,112.4,316.3z M93.8,303.3h-9.5V276h-8.1l0.2-8.3h25.3l0.2,8.3h-8.1V303.3z M72.6,350.8H59.7v-35.6h12.7
	c10.9,0,15.3,5,15.3,17.6C87.7,345.8,82.7,350.8,72.6,350.8z M72.5,323.4H69v19.3h3.5c4.1,0,5.5-1.2,5.5-10
	C78,324.8,76.7,323.4,72.5,323.4z M74.7,295.3l-0.2,8h-23v-35.6h22.4l0.2,8.2H60.8v5.5h11v7.5h-11v6.5H74.7z M32.9,304
	c-2.7,0-4.8-0.5-6.5-1.2l0.5-7.7c1,0.5,2.6,0.9,4.4,0.9c3.9,0,5.8-1.5,5.8-5.8v-22.4h9.5v22.6C46.7,300.7,41.3,304,32.9,304z
	 M36.9,328.5h8.7v-13.4h9.3v35.6h-9.3v-14h-8.7v14h-9.3v-35.6h9.3V328.5z M202.6,313.6l-14.9,42.7h-7.2l14.7-42.7H202.6z
	 M214.3,322.8c-2.7,0-5.2,1.2-7.5,2.9l-2.1-7.4c2.9-2.1,6.7-3.6,11.5-3.6c7.8,0,11.7,4.2,11.7,10.5c0,5.8-4.6,11-11.4,17.3l0,0.1
	h11.1l-0.2,8H205V345c7.4-8.2,13.4-14.1,13.4-18.8C218.4,324,217.2,322.8,214.3,322.8z M244.1,314.8c8.7,0,12.5,4.8,12.5,18.4
	c0,12.7-4,18.1-12.6,18.1c-8.9,0-12.4-5.4-12.4-18.1C231.6,319.6,235.2,314.8,244.1,314.8z M244.1,343.6c2.5,0,3.6-1.2,3.6-10.5
	c0-9.3-1.1-10.4-3.6-10.4c-2.5,0-3.7,1.3-3.7,10.4C240.5,342.6,241.6,343.6,244.1,343.6z M273.2,336.1h-13.3v-6.2h13.3V336.1z
	 M299.2,315.2v21.8h2.9l-0.2,7.5h-2.7v6.4h-8.4v-6.4h-14.1l-0.8-5.8l12.4-23.5H299.2z M291.1,336.9l0.3-8.9l0.2-3.8l-0.1,0
	l-6.4,12.8H291.1z M332.6,333.2l1.2,3.7h0.1l1.2-3.6l6.4-18.1h10.3v35.6h-8.5v-14.9l0.1-3.8l-0.1,0l-1.2,3.7l-5.3,15.1h-6l-5.2-15.1
	l-1.2-3.7l-0.1,0l0,3.8v14.9h-8.1v-35.6h10.2L332.6,333.2z M376.5,343.4c3,0,4.1-1,4.1-2.9c0-4.6-14.2-3.1-14.2-14.8
	c0-6.2,3.8-11.2,12.6-11.2c3.3,0,6.8,0.6,9.4,1.7l-1,7.7c-2.7-0.8-5.4-1.3-7.7-1.3c-3.5,0-4.3,1-4.3,2.6c0,4.6,14.2,3,14.2,14.7
	c0,7-4.8,11.4-12.8,11.4c-3.8,0-7.5-0.9-10.4-2.5l1.2-7.9C370.4,342.5,373.4,343.4,376.5,343.4z M443.1,328.5h8.7v-13.4h9.3v35.6
	h-9.3v-14h-8.7v14h-9.3v-35.6h9.3V328.5z M488.4,323.3h-13.3v5.5h10.9v7.5h-10.9v6.5H489l-0.2,8h-23v-35.6h22.4L488.4,323.3z
	 M559.1,342.3c3.3,0,4.8,1.7,4.8,4.6c0,2.7-1.4,4.5-4.8,4.5s-4.8-1.3-4.8-4.5C554.2,343.9,555.7,342.3,559.1,342.3z M567.2,317.3
	l4.4,1l0.7-4.6h4l0.6,4.6l4.4-1l1.4,3.9l-4.2,2l2.4,4l-3,2.3l-3.5-3.4l-3.6,3.5l-3.1-2.2l2.3-4.2l-4.2-2L567.2,317.3z"/>
</svg>
