<svg enable-background="new 0 0 128 54" viewBox="0 0 128 54" xmlns="http://www.w3.org/2000/svg"><path d="m0 0h128v54h-128z" fill="none"/><path d="m14 32h100v8h-100z"/><path d="m53.04 19.05c0 1.29-.51 1.62-1.76 1.62h-1.78v-3.11h1.8c1.3-.01 1.74.34 1.74 1.49zm4.45-.17c0-3.03-2.12-4.5-6.12-4.5h-6.12v13.62h4.25v-4.49h1.76l2.3 4.49h5.01l-3.49-5.3c1.53-.55 2.41-2.06 2.41-3.82z"/><path d="m91.73 24.64v-2.07h5.54v-2.98h-5.54v-1.82h6.7l-.07-3.39h-10.88v13.62h11.15l.08-3.36z"/><path d="m84.92 28v-13.62h-4.23v5.03h-4.53v-5.03h-4.25v13.62h4.25v-5.12h4.53v5.12z"/><path d="m69.94 14.68c-.98-.33-2.38-.56-3.67-.56-5.23 0-7.56 2.71-7.56 7.01 0 4.65 2.47 7.12 7.19 7.12 1.4 0 2.92-.33 4.07-.84l-.45-3.12c-.87.34-1.93.56-3.05.56-2.6 0-3.27-.89-3.27-3.71 0-2.67.62-3.56 3.23-3.56 1.22 0 2.23.18 3.09.42z"/><path d="m108.46 19.05c0 1.29-.51 1.62-1.76 1.62h-1.78v-3.11h1.8c1.3-.01 1.74.34 1.74 1.49zm4.45-.17c0-3.03-2.12-4.5-6.12-4.5h-6.12v13.62h4.25v-4.49h1.76l2.31 4.49h5.01l-3.49-5.3c1.53-.55 2.4-2.06 2.4-3.82z"/><path d="m37.44 22.55h-3.12l1.14-3.56.42-1.42h.05l.4 1.42zm6.47 5.45-5.52-13.62h-4.92l-5.42 13.62h4.52l.73-2.29h5.12l.71 2.29z"/><path d="m28.42 14.37h3.16v2.89h-3.16z"/><path d="m40.28 14.37h3.16v2.89h-3.16z"/><path d="m22.9 14.38-3.29 5.1h-1.36v-5.1h-4.25v13.62h4.25v-5.32h1.31l3.3 5.32h5.18l-4.7-7.18 4.45-6.44z"/></svg>