<?xml version="1.0" encoding="utf-8"?>
<!-- Generator: Adobe Illustrator 16.0.4, SVG Export Plug-In . SVG Version: 6.00 Build 0)  -->
<!DOCTYPE svg PUBLIC "-//W3C//DTD SVG 1.1//EN" "http://www.w3.org/Graphics/SVG/1.1/DTD/svg11.dtd">
<svg version="1.1" id="Ebene_1" xmlns="http://www.w3.org/2000/svg" xmlns:xlink="http://www.w3.org/1999/xlink" x="0px" y="0px"
	 width="128.722px" height="84.405px" viewBox="0 0 128.722 84.405" enable-background="new 0 0 128.722 84.405"
	 xml:space="preserve">
<g>
	<path d="M9.489,7.811c0,3.521-1.793,4.626-4.61,4.626c-0.896,0-1.616-0.16-2.192-0.416l0.159-2.609
		C3.183,9.588,3.711,9.7,4.335,9.7c1.312,0,1.952-0.512,1.952-1.953V0.208h3.202V7.811z"/>
	<path d="M18.913,9.508l-0.063,2.705h-7.731V0.208h7.522l0.064,2.753h-4.466v1.857h3.682v2.513h-3.682v2.177H18.913z"/>
	<path d="M25.344,3.009v9.204h-3.185V3.009h-2.722l0.064-2.801h8.5l0.063,2.801H25.344z"/>
	<path d="M28.59,12.213V10.18l3.826-6.083l0.704-1.057l-0.017-0.032h-4.418l0.08-2.801h8.02v2.241l-3.697,5.891L32.384,9.38
		L32.4,9.428h4.417l-0.048,2.785H28.59z"/>
	<path d="M43.328,3.009v9.204h-3.185V3.009h-2.722l0.064-2.801h8.5l0.063,2.801H43.328z"/>
	<path d="M57.793,3.105c-0.527-0.192-1.248-0.32-2-0.32c-1.777,0-2.226,0.752-2.226,3.377c0,2.769,0.497,3.537,2.272,3.537
		c0.736,0,1.426-0.144,1.985-0.4l0.288,2.545c-0.721,0.352-1.809,0.576-2.736,0.576c-3.426,0-5.091-1.953-5.091-6.274
		C50.286,2.113,51.902,0,55.568,0c0.848,0,1.889,0.192,2.529,0.448L57.793,3.105z"/>
	<path d="M65.632,10.116h-3.265l-0.465,2.097h-3.313l3.554-12.005h3.826l3.617,12.005h-3.49L65.632,10.116z M63.727,4.065
		l-0.768,3.441h2.097l-0.769-3.441l-0.24-1.28h-0.048L63.727,4.065z"/>
	<path d="M73.551,12.421c-1.265,0-2.514-0.288-3.489-0.832l0.399-2.657c0.977,0.496,1.969,0.8,3.01,0.8
		c0.992,0,1.377-0.336,1.377-0.977c0-1.537-4.771-1.056-4.771-4.978c0-2.097,1.28-3.761,4.241-3.761
		c1.105,0,2.289,0.208,3.154,0.576L77.12,3.201c-0.912-0.272-1.825-0.432-2.593-0.432c-1.185,0-1.441,0.352-1.441,0.864
		c0,1.553,4.771,1.024,4.771,4.946C77.856,10.948,76.256,12.421,73.551,12.421z"/>
	<path d="M85.008,12.213V7.507h-2.914v4.706h-3.121V0.208h3.121v4.498h2.914V0.208h3.137v12.005H85.008z"/>
	<path d="M94.431,12.213h-4.673V0.208h4.705c2.577,0,3.89,1.201,3.89,3.105c0,1.264-0.576,2.081-1.473,2.513v0.032
		c1.201,0.4,1.841,1.329,1.841,2.817C98.721,10.836,97.425,12.213,94.431,12.213z M94.335,2.833h-1.553v2.113h1.585
		c0.72,0,0.977-0.272,0.977-1.088C95.344,3.073,95.071,2.833,94.335,2.833z M94.415,7.283h-1.633v2.369h1.697
		c0.784,0,1.072-0.256,1.072-1.201C95.552,7.619,95.296,7.283,94.415,7.283z"/>
	<path d="M105.936,10.116h-3.266l-0.464,2.097h-3.313l3.554-12.005h3.825l3.618,12.005h-3.49L105.936,10.116z M104.031,4.065
		l-0.769,3.441h2.097l-0.769-3.441l-0.24-1.28h-0.048L104.031,4.065z"/>
	<path d="M117.424,3.105c-0.528-0.192-1.248-0.32-2.001-0.32c-1.776,0-2.225,0.752-2.225,3.377c0,2.769,0.496,3.537,2.273,3.537
		c0.736,0,1.424-0.144,1.984-0.4l0.288,2.545c-0.72,0.352-1.809,0.576-2.737,0.576c-3.425,0-5.09-1.953-5.09-6.274
		c0-4.034,1.617-6.146,5.282-6.146c0.849,0,1.889,0.192,2.529,0.448L117.424,3.105z"/>
	<path d="M125.04,12.213l-2.257-4.882h-0.769v4.882h-3.121V0.208h3.121V4.85h0.832l2.226-4.642h3.505l-2.881,5.747l3.025,6.258
		H125.04z"/>
	<path d="M7.776,30.213H3.103V18.208h4.706c2.576,0,3.889,1.201,3.889,3.105c0,1.264-0.576,2.081-1.472,2.513v0.032
		c1.2,0.4,1.841,1.329,1.841,2.817C12.066,28.836,10.77,30.213,7.776,30.213z M7.68,20.833H6.128v2.113h1.585
		c0.72,0,0.976-0.272,0.976-1.088C8.688,21.073,8.416,20.833,7.68,20.833z M7.76,25.283H6.128v2.369h1.696
		c0.785,0,1.072-0.256,1.072-1.201C8.896,25.619,8.641,25.283,7.76,25.283z"/>
	<path d="M21.105,27.508l-0.064,2.705h-7.73V18.208h7.523l0.063,2.753h-4.466v1.857h3.682v2.513h-3.682v2.177H21.105z"/>
	<path d="M22.431,18.208h3.218v12.005h-3.218V18.208z"/>
	<path d="M30.848,18.208l2.113,6.066l0.399,1.232h0.048l0.4-1.216l2.145-6.083h3.458v12.005h-2.865v-5.026l0.032-1.297l-0.049-0.016
		l-0.399,1.249l-1.776,5.09H32.32l-1.761-5.074l-0.4-1.249l-0.032,0.016l0.016,1.296v5.01h-2.736V18.208H30.848z"/>
	<path d="M50.784,30.213l-2.257-4.882h-0.769v4.882h-3.121V18.208h3.121v4.642h0.833l2.225-4.642h3.505l-2.881,5.747l3.025,6.258
		H50.784z"/>
	<path d="M61.536,28.116h-3.265l-0.465,2.097h-3.313l3.554-12.005h3.826l3.617,12.005H62L61.536,28.116z M59.631,22.065
		l-0.768,3.441h2.097l-0.769-3.441l-0.24-1.28h-0.048L59.631,22.065z"/>
	<path d="M74.882,26.131c0,2.817-1.505,4.29-4.578,4.29s-4.626-1.473-4.626-4.29v-7.923h3.138v7.859
		c0,1.072,0.416,1.552,1.488,1.552c1.089,0,1.456-0.448,1.456-1.552v-7.859h3.122V26.131z"/>
	<path d="M79.535,21.009v2.113H83.2l-0.017,2.657h-3.648v4.434h-3.138V18.208h7.507l0.049,2.801H79.535z"/>
	<path d="M10.897,45.508l-0.063,2.705H3.103V36.208h7.522l0.064,2.754H6.224v1.856h3.682v2.513H6.224v2.178H10.897z"/>
	<path d="M12.223,36.208h3.217v12.006h-3.217V36.208z"/>
	<path d="M24.225,48.213l-3.585-5.539l-0.673-1.104l-0.031,0.016l0.016,1.297v5.33h-2.753V36.208h2.625l3.857,6.227l0.032-0.016
		l-0.032-1.28l0.017-4.931h2.752v12.006H24.225z"/>
	<path d="M35.873,45.508l-0.064,2.705h-7.73V36.208h7.523l0.063,2.754h-4.466v1.856h3.682v2.513h-3.682v2.178H35.873z"/>
	<path d="M40.207,48.42c-1.264,0-2.513-0.287-3.488-0.832l0.399-2.656c0.977,0.496,1.969,0.8,3.009,0.8
		c0.993,0,1.377-0.337,1.377-0.977c0-1.536-4.77-1.056-4.77-4.978c0-2.098,1.28-3.762,4.241-3.762c1.104,0,2.289,0.208,3.153,0.576
		l-0.352,2.609c-0.912-0.272-1.825-0.433-2.594-0.433c-1.184,0-1.44,0.353-1.44,0.864c0,1.553,4.771,1.024,4.771,4.946
		C44.514,46.948,42.912,48.42,40.207,48.42z"/>
	<path d="M55.424,46.116h-3.266l-0.464,2.098h-3.313l3.554-12.006h3.825l3.617,12.006h-3.488L55.424,46.116z M53.52,40.065
		l-0.769,3.441h2.097l-0.768-3.441l-0.24-1.279h-0.049L53.52,40.065z"/>
	<path d="M66.32,48.213l-2.258-4.883h-0.768v4.883h-3.121V36.208h3.121v4.643h0.832l2.225-4.643h3.506l-2.881,5.747l3.025,6.259
		H66.32z"/>
	<path d="M76.111,39.009v9.204h-3.186v-9.204h-2.721l0.063-2.802h8.499l0.064,2.802H76.111z"/>
	<path d="M79.917,36.208h3.218v12.006h-3.218V36.208z"/>
	<path d="M89.599,48.42c-3.458,0-5.026-1.824-5.026-6.21c0-4.401,1.505-6.194,5.026-6.194s5.025,1.793,5.025,6.194
		C94.624,46.724,93.12,48.42,89.599,48.42z M89.582,38.817c-1.312,0-1.729,0.545-1.729,3.394c0,2.865,0.432,3.441,1.761,3.441
		s1.729-0.593,1.729-3.441C91.344,39.345,90.943,38.817,89.582,38.817z"/>
	<path d="M102.959,48.213l-3.585-5.539l-0.672-1.104l-0.032,0.016l0.016,1.297v5.33h-2.753V36.208h2.625l3.857,6.227l0.032-0.016
		l-0.032-1.28l0.017-4.931h2.753v12.006H102.959z"/>
	<path d="M109.949,48.42c-1.264,0-2.513-0.287-3.489-0.832l0.4-2.656c0.977,0.496,1.969,0.8,3.01,0.8
		c0.992,0,1.376-0.337,1.376-0.977c0-1.536-4.77-1.056-4.77-4.978c0-2.098,1.28-3.762,4.241-3.762c1.104,0,2.289,0.208,3.153,0.576
		l-0.352,2.609c-0.913-0.272-1.825-0.433-2.594-0.433c-1.185,0-1.44,0.353-1.44,0.864c0,1.553,4.771,1.024,4.771,4.946
		C114.256,46.948,112.655,48.42,109.949,48.42z"/>
	<path d="M119.613,41.17v2.08h-4.466v-2.08H119.613z"/>
	<path d="M11.586,65.781c-0.832,0.399-2.193,0.656-3.426,0.656c-3.969,0-5.378-2.129-5.378-6.227c0-4.194,1.649-6.21,5.522-6.21
		c1.057,0,2.257,0.191,3.121,0.527l-0.288,2.674c-0.784-0.289-1.792-0.465-2.657-0.465c-1.969,0-2.417,0.736-2.417,3.441
		c0,2.85,0.464,3.474,2.017,3.474c0.24,0,0.496-0.017,0.721-0.063v-3.922h2.785V65.781z"/>
	<path d="M20.801,63.508l-0.063,2.705h-7.731V54.208h7.523l0.064,2.754h-4.467v1.856h3.682v2.513h-3.682v2.178H20.801z"/>
	<path d="M29.057,61.299l2.337,4.914h-3.617l-1.601-4.29h-1.057v4.29h-3.121V54.208h4.146c3.042,0,4.546,1.152,4.546,3.857
		C30.689,59.667,30.113,60.85,29.057,61.299z M26.207,56.801h-1.088v2.77h1.072c0.912,0,1.232-0.225,1.232-1.393
		C27.424,57.089,27.12,56.801,26.207,56.801z"/>
	<path d="M38.368,64.116h-3.265l-0.465,2.098h-3.313l3.554-12.006h3.826l3.617,12.006h-3.49L38.368,64.116z M35.247,53.631
		c-0.784,0-1.185-0.304-1.185-1.072c0-0.721,0.4-1.104,1.185-1.104c0.816,0,1.185,0.383,1.185,1.104
		C36.432,53.264,36.063,53.631,35.247,53.631z M36.463,58.065l-0.768,3.441h2.097l-0.769-3.441l-0.24-1.279h-0.048L36.463,58.065z
		 M38.305,53.631c-0.785,0-1.186-0.304-1.186-1.072c0-0.721,0.4-1.104,1.186-1.104c0.816,0,1.184,0.383,1.184,1.104
		C39.488,53.264,39.121,53.631,38.305,53.631z"/>
	<path d="M47.279,57.009v9.204h-3.185v-9.204h-2.722l0.064-2.802h8.5l0.063,2.802H47.279z"/>
	<path d="M53.998,66.42c-1.264,0-2.513-0.287-3.488-0.832l0.399-2.656c0.977,0.496,1.969,0.8,3.009,0.8
		c0.993,0,1.377-0.337,1.377-0.977c0-1.536-4.77-1.056-4.77-4.978c0-2.098,1.28-3.762,4.241-3.762c1.104,0,2.289,0.208,3.153,0.576
		l-0.352,2.609c-0.912-0.272-1.825-0.433-2.594-0.433c-1.184,0-1.44,0.353-1.44,0.864c0,1.553,4.771,1.024,4.771,4.946
		C58.305,64.948,56.703,66.42,53.998,66.42z"/>
	<path d="M10.897,81.508l-0.063,2.705H3.103V72.208h7.522l0.064,2.754H6.224v1.856h3.682v2.513H6.224v2.178H10.897z"/>
	<path d="M19.153,79.299l2.337,4.914h-3.617l-1.601-4.29h-1.057v4.29h-3.121V72.208h4.146c3.041,0,4.546,1.152,4.546,3.857
		C20.786,77.667,20.21,78.85,19.153,79.299z M16.305,74.801h-1.089v2.77h1.073c0.912,0,1.232-0.225,1.232-1.393
		C17.521,75.089,17.217,74.801,16.305,74.801z"/>
	<path d="M28.305,84.213v-4.707h-2.913v4.707h-3.121V72.208h3.121v4.498h2.913v-4.498h3.138v12.006H28.305z"/>
	<path d="M39.249,82.116h-3.265l-0.465,2.098h-3.313l3.554-12.006h3.826l3.617,12.006h-3.49L39.249,82.116z M37.344,76.065
		l-0.768,3.441h2.097l-0.769-3.441l-0.24-1.279h-0.048L37.344,76.065z"/>
	<path d="M51.233,81.428l-0.08,2.785h-7.155V72.208h3.154v9.221H51.233z"/>
	<path d="M56.112,75.009v9.204h-3.185v-9.204h-2.722l0.063-2.802h8.5l0.064,2.802H56.112z"/>
	<path d="M67.585,81.508l-0.063,2.705H59.79V72.208h7.522l0.064,2.754h-4.466v1.856h3.682v2.513h-3.682v2.178H67.585z"/>
	<path d="M75.809,84.213l-3.585-5.539l-0.673-1.104l-0.031,0.016l0.016,1.297v5.33h-2.753V72.208h2.625l3.857,6.227l0.032-0.016
		l-0.032-1.28l0.017-4.931h2.752v12.006H75.809z"/>
	<path d="M80.942,84.405c-1.12,0-1.616-0.432-1.616-1.521c0-0.976,0.496-1.536,1.616-1.536s1.601,0.561,1.601,1.536
		C82.543,83.797,82.062,84.405,80.942,84.405z"/>
	<path d="M86.751,71.744l0.208,1.553l1.473-0.353l0.465,1.312l-1.426,0.689l0.816,1.359l-1.008,0.77l-1.185-1.153l-1.216,1.169
		l-1.041-0.736l0.784-1.408l-1.425-0.673l0.496-1.329l1.489,0.353l0.224-1.553H86.751z"/>
</g>
</svg>
