<?xml version="1.0" encoding="utf-8"?>
<!-- Generator: Adobe Illustrator 16.0.0, SVG Export Plug-In . SVG Version: 6.00 Build 0)  -->
<!DOCTYPE svg PUBLIC "-//W3C//DTD SVG 1.0//EN" "http://www.w3.org/TR/2001/REC-SVG-20010904/DTD/svg10.dtd">
<svg version="1.0" id="Ebene_1" xmlns="http://www.w3.org/2000/svg" xmlns:xlink="http://www.w3.org/1999/xlink" x="0px" y="0px"
	 width="371.606px" height="58.895px" viewBox="0 0 371.606 58.895" enable-background="new 0 0 371.606 58.895"
	 xml:space="preserve">
<g>
	<path d="M13.726,18.017l-0.102,4.312H1.301V3.193h11.991l0.102,4.389H6.276v2.959h5.868v4.006H6.276v3.47H13.726z"/>
	<path d="M26.281,12.302l4.694,10.026h-5.587l-1.837-4.617l-0.714-1.939H22.76l-0.714,1.939l-1.812,4.617h-5.689l4.592-9.873
		l-4.542-9.262h5.843l1.607,3.93l0.74,1.913h0.077l0.74-1.913l1.658-3.93h5.613L26.281,12.302z"/>
	<path d="M40.826,7.658v14.67h-5.077V7.658h-4.337l0.102-4.465h13.547l0.102,4.465H40.826z"/>
	<path d="M57.947,14.496l3.725,7.832h-5.766l-2.551-6.838h-1.684v6.838h-4.975V3.193h6.607c4.848,0,7.246,1.837,7.246,6.148
		C60.55,11.894,59.631,13.781,57.947,14.496z M53.406,7.326h-1.735v4.414h1.709c1.455,0,1.964-0.357,1.964-2.22
		C55.345,7.786,54.86,7.326,53.406,7.326z"/>
	<path d="M75.35,18.017l-0.102,4.312H62.925V3.193h11.991l0.102,4.389H67.9v2.959h5.868v4.006H67.9v3.47H75.35z"/>
	<path d="M82.751,3.193l3.368,9.67l0.638,1.964h0.076l0.638-1.938l3.418-9.695H96.4v19.135h-4.566v-8.011l0.051-2.067l-0.077-0.025
		l-0.638,1.99l-2.832,8.113h-3.24l-2.807-8.088l-0.638-1.99l-0.051,0.026l0.026,2.066v7.985h-4.363V3.193H82.751z"/>
	<path d="M111.432,18.017l-0.103,4.312H99.007V3.193h11.991l0.102,4.389h-7.118v2.959h5.868v4.006h-5.868v3.47H111.432z"/>
	<path d="M125.646,16.384h-1.582v5.944h-4.975V3.193h6.557c5.307,0,7.424,2.066,7.424,6.735
		C133.07,14.062,131.003,16.384,125.646,16.384z M125.646,7.352h-1.582v5.078h1.582c1.633,0,2.245-0.383,2.245-2.526
		C127.891,7.837,127.406,7.352,125.646,7.352z"/>
	<path d="M142.384,22.66c-5.511,0-8.011-2.908-8.011-9.899c0-7.016,2.398-9.873,8.011-9.873s8.011,2.857,8.011,9.873
		C150.396,19.955,147.997,22.66,142.384,22.66z M142.359,7.352c-2.092,0-2.755,0.868-2.755,5.409c0,4.567,0.689,5.485,2.807,5.485
		c2.117,0,2.755-0.943,2.755-5.485C145.165,8.194,144.527,7.352,142.359,7.352z"/>
	<path d="M165.706,3.193l2.015,11.966l0.306,2.041h0.077l0.229-2.041l1.709-11.966h4.975l-4.005,19.135h-5.97l-1.786-11.608
		l-0.255-2.066h-0.077l-0.28,2.066l-1.761,11.608h-5.97l-4.006-19.135h5.205l1.684,12.068l0.255,2.041h0.077l0.281-2.041
		l1.99-12.068H165.706z"/>
	<path d="M189.004,18.017l-0.103,4.312h-12.322V3.193h11.991l0.102,4.389h-7.118v2.959h5.868v4.006h-5.868v3.47H189.004z"/>
	<path d="M202.171,14.496l3.725,7.832h-5.766l-2.551-6.838h-1.684v6.838h-4.975V3.193h6.607c4.848,0,7.246,1.837,7.246,6.148
		C204.773,11.894,203.854,13.781,202.171,14.496z M197.63,7.326h-1.735v4.414h1.709c1.455,0,1.964-0.357,1.964-2.22
		C199.568,7.786,199.084,7.326,197.63,7.326z"/>
	<path d="M218.375,3.193l3.368,9.67l0.638,1.964h0.076l0.638-1.938l3.418-9.695h5.511v19.135h-4.566v-8.011l0.051-2.067
		l-0.077-0.025l-0.638,1.99l-2.832,8.113h-3.24l-2.807-8.088l-0.638-1.99l-0.051,0.026l0.026,2.066v7.985h-4.363V3.193H218.375z"/>
	<path d="M234.835,3.193h5.128v19.135h-5.128V3.193z"/>
	<path d="M251.113,7.658v14.67h-5.077V7.658h-4.337l0.102-4.465h13.547l0.103,4.465H251.113z"/>
	<path d="M277.216,15.822c0,4.49-2.398,6.838-7.297,6.838s-7.373-2.348-7.373-6.838V3.193h5.001v12.527
		c0,1.709,0.663,2.475,2.372,2.475c1.735,0,2.321-0.715,2.321-2.475V3.193h4.976V15.822z"/>
	<path d="M290.843,22.328l-5.715-8.827l-1.071-1.761l-0.052,0.025l0.026,2.066v8.496h-4.389V3.193h4.184l6.148,9.925l0.052-0.025
		l-0.052-2.041L290,3.193h4.389v19.135H290.843z"/>
	<path d="M301.995,22.66c-2.016,0-4.006-0.459-5.562-1.327l0.638-4.235c1.556,0.791,3.138,1.275,4.796,1.275
		c1.582,0,2.194-0.535,2.194-1.556c0-2.449-7.603-1.684-7.603-7.935c0-3.342,2.041-5.995,6.761-5.995
		c1.761,0,3.648,0.331,5.026,0.918l-0.562,4.159c-1.454-0.434-2.909-0.689-4.134-0.689c-1.888,0-2.296,0.562-2.296,1.378
		c0,2.475,7.603,1.633,7.603,7.884C308.857,20.312,306.307,22.66,301.995,22.66z"/>
	<path d="M323.07,18.017l-0.102,4.312h-12.322V3.193h11.99l0.102,4.389h-7.117v2.959h5.867v4.006h-5.867v3.47H323.07z"/>
	<path d="M336.238,14.496l3.725,7.832h-5.766l-2.552-6.838h-1.684v6.838h-4.976V3.193h6.608c4.847,0,7.245,1.837,7.245,6.148
		C338.84,11.894,337.922,13.781,336.238,14.496z M331.696,7.326h-1.734v4.414h1.709c1.454,0,1.965-0.357,1.965-2.22
		C333.636,7.786,333.15,7.326,331.696,7.326z"/>
	<path d="M353.641,18.017l-0.103,4.312h-12.322V3.193h11.991l0.102,4.389h-7.118v2.959h5.868v4.006h-5.868v3.47H353.641z"/>
	<path d="M366.756,22.328l-5.715-8.827l-1.071-1.761l-0.051,0.025l0.025,2.066v8.496h-4.388V3.193h4.184l6.148,9.925l0.051-0.025
		l-0.051-2.041l0.025-7.858h4.389v19.135H366.756z"/>
	<path d="M10.919,52.949v-7.501H6.276v7.501H1.301V33.814h4.975v7.17h4.643v-7.17h5v19.135H10.919z"/>
	<path d="M26,53.281c-5.511,0-8.011-2.908-8.011-9.899c0-7.016,2.398-9.873,8.011-9.873s8.011,2.857,8.011,9.873
		C34.012,50.576,31.613,53.281,26,53.281z M23.577,32.896c-1.25,0-1.888-0.484-1.888-1.709c0-1.148,0.638-1.761,1.888-1.761
		c1.301,0,1.888,0.612,1.888,1.761C25.465,32.31,24.878,32.896,23.577,32.896z M25.975,37.973c-2.092,0-2.755,0.868-2.755,5.409
		c0,4.567,0.689,5.485,2.807,5.485c2.117,0,2.755-0.943,2.755-5.485C28.781,38.815,28.144,37.973,25.975,37.973z M28.45,32.896
		c-1.25,0-1.888-0.484-1.888-1.709c0-1.148,0.638-1.761,1.888-1.761c1.301,0,1.888,0.612,1.888,1.761
		C30.338,32.31,29.751,32.896,28.45,32.896z"/>
	<path d="M47.562,38.433c-0.842-0.306-1.99-0.511-3.189-0.511c-2.832,0-3.546,1.199-3.546,5.384c0,4.413,0.791,5.638,3.623,5.638
		c1.174,0,2.271-0.229,3.164-0.638l0.459,4.057c-1.148,0.562-2.883,0.919-4.363,0.919c-5.459,0-8.113-3.113-8.113-10.002
		c0-6.429,2.577-9.797,8.419-9.797c1.353,0,3.011,0.307,4.031,0.715L47.562,38.433z"/>
	<path d="M59.53,52.949v-7.501h-4.643v7.501h-4.975V33.814h4.975v7.17h4.643v-7.17h5v19.135H59.53z"/>
	<path d="M72.111,53.281c-2.016,0-4.005-0.459-5.562-1.327l0.638-4.235c1.557,0.791,3.138,1.275,4.797,1.275
		c1.582,0,2.194-0.535,2.194-1.556c0-2.449-7.603-1.684-7.603-7.935c0-3.342,2.041-5.995,6.761-5.995
		c1.76,0,3.648,0.331,5.026,0.918L77.8,38.586c-1.454-0.434-2.908-0.689-4.133-0.689c-1.888,0-2.296,0.562-2.296,1.378
		c0,2.475,7.603,1.633,7.603,7.884C78.974,50.934,76.422,53.281,72.111,53.281z"/>
	<path d="M88.696,38.279v14.67h-5.077v-14.67h-4.337l0.102-4.465h13.547l0.102,4.465H88.696z"/>
	<path d="M101.48,52.949h-6.914V33.814h6.812c5.816,0,8.189,2.705,8.189,9.465C109.568,50.296,106.864,52.949,101.48,52.949z
		 M101.404,38.229h-1.862v10.357h1.862c2.194,0,2.934-0.662,2.934-5.357C104.338,38.994,103.649,38.229,101.404,38.229z"/>
	<path d="M122.915,45.117l3.725,7.832h-5.766l-2.551-6.838h-1.684v6.838h-4.975V33.814h6.608c4.847,0,7.245,1.837,7.245,6.148
		C125.517,42.515,124.599,44.402,122.915,45.117z M118.373,37.947h-1.734v4.414h1.709c1.454,0,1.965-0.357,1.965-2.22
		C120.312,38.407,119.828,37.947,118.373,37.947z"/>
	<path d="M142.103,46.443c0,4.49-2.398,6.838-7.297,6.838s-7.373-2.348-7.373-6.838V33.814h5v12.527
		c0,1.709,0.663,2.475,2.373,2.475c1.735,0,2.322-0.715,2.322-2.475V33.814h4.975V46.443z"/>
	<path d="M155.985,38.433c-0.842-0.306-1.99-0.511-3.189-0.511c-2.832,0-3.546,1.199-3.546,5.384c0,4.413,0.791,5.638,3.623,5.638
		c1.174,0,2.271-0.229,3.164-0.638l0.459,4.057c-1.148,0.562-2.883,0.919-4.363,0.919c-5.459,0-8.113-3.113-8.113-10.002
		c0-6.429,2.577-9.797,8.419-9.797c1.353,0,3.011,0.307,4.031,0.715L155.985,38.433z"/>
	<path d="M168.131,52.949l-3.597-7.781h-1.225v7.781h-4.975V33.814h4.975v7.398h1.326l3.546-7.398h5.587l-4.592,9.159l4.822,9.976
		H168.131z"/>
	<path d="M186.657,45.117l3.725,7.832h-5.766l-2.551-6.838h-1.684v6.838h-4.975V33.814h6.608c4.847,0,7.245,1.837,7.245,6.148
		C189.259,42.515,188.341,44.402,186.657,45.117z M182.115,37.947h-1.734v4.414h1.709c1.454,0,1.965-0.357,1.965-2.22
		C184.055,38.407,183.57,37.947,182.115,37.947z"/>
	<path d="M204.059,48.638l-0.102,4.312h-12.323V33.814h11.991l0.102,4.389h-7.118v2.959h5.868v4.006h-5.868v3.47H204.059z"/>
	<path d="M206.179,33.814h5.128v19.135h-5.128V33.814z"/>
	<path d="M225.314,52.949l-5.715-8.827l-1.071-1.761l-0.051,0.025l0.025,2.066v8.496h-4.388V33.814h4.184l6.148,9.925l0.051-0.025
		l-0.051-2.041l0.025-7.858h4.388v19.135H225.314z"/>
	<path d="M231.671,33.814h5.128v19.135h-5.128V33.814z"/>
	<path d="M253.128,52.26c-1.327,0.639-3.495,1.047-5.46,1.047c-6.326,0-8.572-3.394-8.572-9.925c0-6.685,2.628-9.899,8.803-9.899
		c1.684,0,3.597,0.307,4.975,0.843l-0.459,4.261c-1.25-0.459-2.857-0.74-4.235-0.74c-3.138,0-3.853,1.174-3.853,5.485
		c0,4.541,0.74,5.536,3.215,5.536c0.383,0,0.791-0.025,1.148-0.102v-6.251h4.438V52.26z"/>
	<path d="M267.826,48.638l-0.103,4.312h-12.322V33.814h11.991l0.102,4.389h-7.118v2.959h5.868v4.006h-5.868v3.47H267.826z"/>
	<path d="M280.993,45.117l3.725,7.832h-5.766l-2.552-6.838h-1.684v6.838h-4.975V33.814h6.607c4.848,0,7.246,1.837,7.246,6.148
		C283.596,42.515,282.677,44.402,280.993,45.117z M276.452,37.947h-1.735v4.414h1.709c1.455,0,1.965-0.357,1.965-2.22
		C278.391,38.407,277.906,37.947,276.452,37.947z"/>
	<path d="M297.171,52.949l-5.715-8.827l-1.071-1.761l-0.051,0.025l0.025,2.066v8.496h-4.389V33.814h4.185l6.148,9.925l0.051-0.025
		l-0.051-2.041l0.025-7.858h4.388v19.135H297.171z"/>
	<path d="M305.363,53.256c-1.785,0-2.576-0.689-2.576-2.424c0-1.557,0.791-2.449,2.576-2.449c1.786,0,2.552,0.893,2.552,2.449
		C307.915,52.286,307.149,53.256,305.363,53.256z"/>
</g>
</svg>
