<?xml version="1.0" encoding="utf-8"?>
<!-- Generator: Adobe Illustrator 16.0.0, SVG Export Plug-In . SVG Version: 6.00 Build 0)  -->
<!DOCTYPE svg PUBLIC "-//W3C//DTD SVG 1.1//EN" "http://www.w3.org/Graphics/SVG/1.1/DTD/svg11.dtd">
<svg version="1.1" id="Ebene_1" xmlns="http://www.w3.org/2000/svg" xmlns:xlink="http://www.w3.org/1999/xlink" x="0px" y="0px"
	 width="487.378px" height="28.273px" viewBox="0 0 487.378 28.273" enable-background="new 0 0 487.378 28.273"
	 xml:space="preserve">
<g>
	<path d="M11.48,15.312c0,5.613-2.857,7.374-7.348,7.374c-1.429,0-2.577-0.255-3.495-0.664l0.256-4.159
		c0.535,0.281,1.377,0.459,2.372,0.459c2.092,0,3.112-0.816,3.112-3.113V3.193h5.103V15.312z"/>
	<path d="M26.51,18.016l-0.102,4.312H14.085V3.193h11.991l0.103,4.389h-7.118v2.959h5.868v4.006h-5.868v3.47H26.51z"/>
	<path d="M36.769,7.658v14.67h-5.076V7.658h-4.338l0.102-4.465h13.548l0.103,4.465H36.769z"/>
	<path d="M41.95,22.328v-3.24l6.098-9.695l1.123-1.684l-0.026-0.051h-7.041l0.128-4.465h12.781v3.572l-5.894,9.389l-1.122,1.658
		l0.025,0.076h7.041l-0.076,4.439H41.95z"/>
	<path d="M65.45,7.658v14.67h-5.077V7.658h-4.337l0.102-4.465h13.547l0.103,4.465H65.45z"/>
	<path d="M83.976,22.328h-6.914V3.193h6.812c5.817,0,8.19,2.705,8.19,9.465C92.063,19.674,89.358,22.328,83.976,22.328z
		 M83.899,7.607h-1.863v10.358h1.863c2.193,0,2.934-0.663,2.934-5.357C86.833,8.372,86.144,7.607,83.899,7.607z"/>
	<path d="M94.362,3.193h5.128v19.135h-5.128V3.193z"/>
	<path d="M113.549,14.495l3.725,7.833h-5.766l-2.552-6.837h-1.684v6.837h-4.975V3.193h6.607c4.848,0,7.246,1.837,7.246,6.149
		C116.151,11.893,115.232,13.781,113.549,14.495z M109.008,7.326h-1.735v4.414h1.709c1.455,0,1.965-0.357,1.965-2.22
		C110.946,7.786,110.462,7.326,109.008,7.326z"/>
	<path d="M130.951,18.016l-0.102,4.312h-12.323V3.193h11.991l0.103,4.389h-7.118v2.959h5.868v4.006h-5.868v3.47H130.951z"/>
	<path d="M142.665,22.328l-3.598-7.781h-1.225v7.781h-4.975V3.193h4.975v7.399h1.326l3.547-7.399h5.587l-4.593,9.159l4.822,9.976
		H142.665z"/>
	<path d="M158.281,7.658v14.67h-5.077V7.658h-4.338l0.103-4.465h13.548l0.102,4.465H158.281z"/>
	<path d="M169.204,22.328v-3.24l6.098-9.695l1.123-1.684l-0.026-0.051h-7.041l0.128-4.465h12.781v3.572l-5.894,9.389l-1.122,1.658
		l0.025,0.076h7.041l-0.076,4.439H169.204z"/>
	<path d="M198.571,15.822c0,4.49-2.398,6.837-7.297,6.837s-7.373-2.347-7.373-6.837V3.193h5.001V15.72
		c0,1.709,0.663,2.475,2.372,2.475c1.735,0,2.322-0.715,2.322-2.475V3.193h4.975V15.822z"/>
	<path d="M206.483,3.193l3.368,9.669l0.638,1.964h0.076l0.639-1.938l3.418-9.695h5.511v19.135h-4.566v-8.011l0.051-2.067
		l-0.077-0.025l-0.637,1.99l-2.832,8.113h-3.24l-2.807-8.087l-0.638-1.99l-0.052,0.026l0.026,2.066v7.985h-4.362V3.193H206.483z"/>
	<path d="M242.231,3.193l2.016,11.966l0.307,2.041h0.076l0.229-2.041l1.71-11.966h4.975l-4.006,19.135h-5.97l-1.786-11.608
		l-0.255-2.066h-0.077l-0.28,2.066l-1.761,11.608h-5.969l-4.006-19.135h5.204l1.685,12.068l0.255,2.041h0.076l0.28-2.041
		l1.99-12.068H242.231z"/>
	<path d="M265.529,18.016l-0.102,4.312h-12.323V3.193h11.991l0.103,4.389h-7.118v2.959h5.868v4.006h-5.868v3.47H265.529z"/>
	<path d="M274.896,22.328h-7.449V3.193h7.5c4.107,0,6.199,1.914,6.199,4.95c0,2.016-0.918,3.317-2.347,4.005v0.051
		c1.913,0.638,2.935,2.118,2.935,4.49C281.733,20.133,279.666,22.328,274.896,22.328z M274.742,7.377h-2.475v3.367h2.526
		c1.147,0,1.556-0.434,1.556-1.734C276.35,7.76,275.916,7.377,274.742,7.377z M274.87,14.47h-2.603v3.776h2.704
		c1.25,0,1.709-0.408,1.709-1.914C276.681,15.005,276.272,14.47,274.87,14.47z"/>
	<path d="M283.93,3.193h5.128v19.135h-5.128V3.193z"/>
	<path d="M303.065,22.328l-5.715-8.827l-1.072-1.761l-0.051,0.025l0.025,2.067v8.496h-4.388V3.193h4.185l6.148,9.925l0.051-0.025
		l-0.051-2.041l0.025-7.858h4.388v19.135H303.065z"/>
	<path d="M319.091,18.985h-5.205l-0.74,3.342h-5.28l5.663-19.135h6.098l5.766,19.135h-5.561L319.091,18.985z M316.055,9.342
		l-1.225,5.485h3.342l-1.225-5.485l-0.382-2.041h-0.077L316.055,9.342z"/>
	<path d="M337.922,14.495l3.725,7.833h-5.766l-2.552-6.837h-1.684v6.837h-4.975V3.193h6.607c4.848,0,7.246,1.837,7.246,6.149
		C340.524,11.893,339.605,13.781,337.922,14.495z M333.381,7.326h-1.735v4.414h1.709c1.455,0,1.965-0.357,1.965-2.22
		C335.319,7.786,334.835,7.326,333.381,7.326z"/>
	<path d="M358.515,18.985h-5.205l-0.74,3.342h-5.28l5.663-19.135h6.098l5.766,19.135h-5.561L358.515,18.985z M355.479,9.342
		l-1.225,5.485h3.342l-1.225-5.485l-0.382-2.041h-0.077L355.479,9.342z"/>
	<path d="M377.295,22.328L371.58,13.5l-1.071-1.761l-0.052,0.025l0.026,2.067v8.496h-4.389V3.193h4.184l6.148,9.925l0.052-0.025
		l-0.052-2.041l0.025-7.858h4.389v19.135H377.295z"/>
	<path d="M388.932,3.193l3.367,9.669l0.638,1.964h0.077l0.638-1.938l3.418-9.695h5.512v19.135h-4.567v-8.011l0.052-2.067
		l-0.077-0.025l-0.638,1.99l-2.832,8.113h-3.24l-2.807-8.087l-0.637-1.99l-0.052,0.026l0.025,2.066v7.985h-4.362V3.193H388.932z"/>
	<path d="M417.611,18.016l-0.102,4.312h-12.323V3.193h11.991l0.103,4.389h-7.118v2.959h5.868v4.006h-5.868v3.47H417.611z"/>
	<path d="M431.06,17.888l-0.128,4.439h-11.403V3.193h5.025v14.695H431.06z"/>
	<path d="M439.608,22.328h-6.914V3.193h6.812c5.816,0,8.189,2.705,8.189,9.465C447.696,19.674,444.991,22.328,439.608,22.328z
		 M439.532,7.607h-1.862v10.358h1.862c2.193,0,2.934-0.663,2.934-5.357C442.466,8.372,441.777,7.607,439.532,7.607z"/>
	<path d="M462.216,18.016l-0.102,4.312h-12.322V3.193h11.99l0.102,4.389h-7.117v2.959h5.867v4.006h-5.867v3.47H462.216z"/>
	<path d="M475.332,22.328l-5.715-8.827l-1.071-1.761l-0.051,0.025l0.025,2.067v8.496h-4.389V3.193h4.185l6.148,9.925l0.051-0.025
		l-0.051-2.041l0.025-7.858h4.388v19.135H475.332z"/>
	<path d="M481.969,16.613l-0.715-13.42h5.026l-0.689,13.42H481.969z M483.856,22.634c-1.709,0-2.475-0.638-2.475-2.194
		c0-1.403,0.766-2.245,2.475-2.245c1.734,0,2.5,0.842,2.5,2.245C486.356,21.741,485.591,22.634,483.856,22.634z"/>
</g>
</svg>
