<svg enable-background="new 0 0 158.37 151.68" viewBox="0 0 158.37 151.68" xmlns="http://www.w3.org/2000/svg"><path clip-rule="evenodd" d="m136.36 139.9c-1.82 0-2.63-.7-2.63-2.47 0-1.59.81-2.28 2.63-2.28s3.19.69 3.19 2.28c0 1.68-1.37 2.47-3.19 2.47zm-9.23-.31-2.6-6.97h-1.72v6.97h-5.07v-19.5h6.73c4.94 0 7.39 2.32 7.39 6.27 0 3-.64 4.52-2.65 5.25l3.8 7.98zm-2.55-15.29h-1.77v4.5h1.74c1.48 0 2-.36 2-2.26.01-1.77-.49-2.24-1.97-2.24zm1.15-36.71-2.6-6.97h-1.72v6.97h-5.07v-19.5h6.73c4.94 0 7.38 2.32 7.38 6.27 0 3-.94 4.52-2.65 5.25l3.8 7.98zm-2.55-15.29h-1.77v4.5h1.74c1.48 0 2-.36 2-2.26 0-1.77-.49-2.24-1.97-2.24zm-10.82-48.15h7.25v3.38h-7.25zm-3.09 11.44h-5.17v-14.95h-4.42l.1-4.55h13.81l.1 4.55h-4.42zm-9.91-5.91c0 3.85-2.6 6.38-6.99 6.38-2.05 0-4.08-.61-5.67-1.5l.65-4.32c1.97.81 3.2 1.3 4.89 1.3 1.61 0 2.24-.55 2.24-1.03 0-3.05-7.75-2.27-7.75-8.64 0-3.41 2.08-6.11 6.89-6.11 1.79 0 3.72.34 5.12.94l-.57 4.6c-1.48-.8-2.96-1.06-3.66-1.06-2.47 0-2.89.57-2.89 1.4-.01 2.53 7.74 1.67 7.74 8.04zm-9.1 19.95h1.35l3.61-7.54h5.97l-4.95 9.33 4.92 10.17h-5.98l-3.67-7.93h-1.25v7.93h-5.07v-19.5h5.07zm3.82 18.12c1.72 0 3.67.31 5.07.86l-.47 4.7c-1.27-.83-2.91-1.11-4.32-1.11-3.2 0-3.93 1.2-3.93 5.59 0 4.63.75 5.64 3.28 5.64.39 0 .81-.03 1.17-.1v-5.97h4.53v9.54c-1.35.65-3.56 1.44-5.57 1.44-6.45 0-8.74-3.84-8.74-10.49.01-6.83 2.69-10.1 8.98-10.1zm-14.53-39.5h-4.73v7.34h-5.07v-19.5h5.07v7.31h4.73v-7.31h5.1v19.5h-5.1zm-18.33 33.82c-4.99 0-7.51-2.54-7.51-6.68v-13.3h5.1v12.77c0 1.74.68 2.52 2.42 2.52 2.63 0 2.37-.73 2.37-2.52v-12.77h5.07v13.3c-.01 4.14-2.46 6.68-7.45 6.68zm2.96-30.57c1.2 0 2.31-.23 3.22-.65l.47 4.85c-1.17-.15-2.53.36-4.45.36-5.56 0-8.27-3.32-8.27-10.34 0-6.55 2.63-9.98 8.58-9.98 1.38 0 3.07.31 4.11.73l-.49 4.32c-.86-.31-2.03-.52-3.25-.52-2.89 0-3.61 1.22-3.61 5.49 0 4.5.81 5.74 3.69 5.74zm-18.79 4.57c-5.62 0-8.17-2.64-8.17-10.23 0-7.15 2.44-10.06 8.17-10.06s8.16 2.91 8.16 10.06c0 7.33-2.44 10.23-8.16 10.23zm-.03-15.75c-2.13 0-2.81.88-2.81 5.51 0 4.65.7 5.59 2.86 5.59s2.81-.96 2.81-5.59c0-4.65-.65-5.51-2.86-5.51zm2.52-5.17c-1.27 0-1.33-.49-1.33-1.74 0-1.17.06-1.79 1.33-1.79 1.33 0 1.92.62 1.92 1.79.01 1.14-.59 1.74-1.92 1.74zm-4.75 0c-1.49 0-2.14-.49-2.14-1.74 0-1.17.65-1.79 2.14-1.79 1.11 0 1.71.62 1.71 1.79 0 1.14-.6 1.74-1.71 1.74zm5.95 57.41h-7.26v3.02h5.98v4.08h-5.98v3.54h7.59l-.1 4.39h-12.56v-19.5h12.96zm-24.52 41.03-5.75-19.5h5.59l2.73 12.17.44 2.05h.08l.42-2.05 2.81-12.17h5.25l-5.77 19.5zm-4.34-26v-19.5h7.27c4.4 0 6.84 2.32 6.84 6.27 0 3-.94 4.52-2.65 5.25l3.8 7.98h-5.88l-2.6-6.97h-1.72v6.97zm6.81-10.79c1.48 0 2-.36 2-2.26 0-1.77-.49-2.24-1.98-2.24h-1.77v4.5zm.24-15.21h-7.05v-19.5h6.94c5.93 0 8.35 2.76 8.35 9.65 0 7.14-2.76 9.85-8.24 9.85zm-.08-15.01h-1.9v10.56h1.9c2.24 0 2.99-.68 2.99-5.46 0-4.32-.7-5.1-2.99-5.1zm2.83-18.33h-4.73v7.34h-5.07v-19.5h5.07v7.31h4.73v-7.31h5.1v19.5h-5.1zm-4.73 99.38h1.35l3.61-7.54h6.2l-5.18 9.33 4.91 10.17h-5.98l-3.67-7.93h-1.25v7.93h-5.07v-19.5h5.07v7.54zm22.93-7.54 5.88 19.5h-5.67l-.75-3.41h-5.31l-.75 3.41h-5.38l5.77-19.5zm-1.48 12.16-1.25-5.9-.39-2.08h-.08l-.44 2.08-1.25 5.9zm10.06-44.66h-5.23v-19.5h5.23zm-7.3 29.82c0 1.14-.2 1.74-1.92 1.74-1.27 0-1.92-.49-1.92-1.74 0-1.17.65-1.79 1.92-1.79 1.71-.01 1.92.62 1.92 1.79zm-4.97 0c0 1.14-.26 1.74-1.92 1.74-1.27 0-1.92-.49-1.92-1.74 0-1.17.65-1.79 1.92-1.79 1.66-.01 1.92.62 1.92 1.79zm-8.4-13.57c0-7.15 2.44-10.06 8.17-10.06 5.72 0 8.16 2.91 8.16 10.06 0 7.33-2.44 10.23-8.16 10.23-5.62 0-8.17-2.64-8.17-10.23zm8.19 5.59c2.16 0 2.81-.96 2.81-5.59 0-4.65-.65-5.51-2.86-5.51-2.13 0-2.81.88-2.81 5.51 0 4.65.7 5.59 2.86 5.59zm2.71-47.84-2.6-6.97h-1.72v6.97h-5.07v-19.5h6.73c4.94 0 7.38 2.32 7.38 6.27 0 3-.94 4.52-2.65 5.25l4.59 7.98zm-2.55-15.29h-1.77v4.5h1.74c1.84 0 2-.36 2-2.26 0-1.77.1-2.24-1.97-2.24zm20.64 57.9.05-.03-.05-2.08.03-8.01h4.47v19.5h-3.62l-5.82-9-1.09-1.79-.05.03.03 2.29v8.48h-4.47v-19.5h4.26zm4.4 22.15c0 3-.94 4.52-2.65 5.25l3.8 7.98h-5.88l-2.6-6.97h-1.72v6.97h-5.07v-19.5h6.73c4.94.01 7.39 2.33 7.39 6.27zm-9.05 2.45h1.74c1.48 0 2-.36 2-2.26 0-1.77-.49-2.24-1.98-2.24h-1.77v4.5zm22.3-41.21h-5.23v-19.5h5.23zm-12.55-19.5h4.47v19.5h-3.61l-5.82-9-1.09-1.79-.05.03.03 2.29v8.48h-4.47v-19.5h4.54l5.99 10.11.05-.03-.05-2.08zm9.41-10.59c1.2 0 2.76-.23 3.22-.65l.47 4.85c-1.17-.15-2.94.36-4.45.36-5.56 0-8.27-3.32-8.27-10.34 0-6.55 2.63-9.98 8.58-9.98 1.38 0 3.07.31 4.11.73l-.49 4.32c-.41-.31-2.03-.52-3.25-.52-2.89 0-3.22 1.22-3.22 5.49 0 4.5.41 5.74 3.3 5.74zm-.03 62.25c2.16 0 3.07.31 4.11.73l-.49 4.32c-.86-.31-2.03-.52-2.59-.52-3.54 0-4.27 1.22-4.27 5.49 0 4.5.81 5.75 3.69 5.75 1.2 0 2.31-.23 3.22-.65l.47 4.85c-1.17-.15-2.94.36-4.45.36-5.56 0-8.27-3.32-8.27-10.34 0-6.56 2.63-9.99 8.58-9.99zm11.08 7.64h4.73v-7.31h5.1v19.5h-5.1v-7.34h-4.73v7.34h-5.07v-19.5h5.07zm10.5-77.24h6.99v3.38h-6.99zm12.87 22.41h-7.25v3.02h5.98v4.08h-5.98v3.54h7.59l-.1 4.39h-12.56v-19.5h12.71zm1.41 52h-7.26v3.02h5.98v4.08h-5.98v3.54h7.59l-.1 4.39h-12.56v-19.5h12.22z" fill="#020204" fill-rule="evenodd"/></svg>