<svg enable-background="new 0 0 158.37 151.68" viewBox="0 0 158.37 151.68" xmlns="http://www.w3.org/2000/svg"><path clip-rule="evenodd" d="m140.35 100.34-6.47-9.34-1.47-1.86-.05.03.03 2.19v8.99h-4.64v-20.25h4.43l6.51 10.5.05-.03-.05-2.16.03-8.31h4.64v20.24zm-27.24 0v-20.24h12.15l.11 4.64h-7.53v3.13h6.21v4.24h-6.21v3.67h7.88l.76 4.56zm12.61-58.56.76 4.56h-13.37v-20.24h12.15l.11 4.64h-7.53v3.13h6.21v4.24h-6.21v3.67zm-19.36 4.56h-5.37v-15.52h-4.59l.11-4.72h14.33l.11 4.72h-4.59zm-9.59 3.98c0-1.21.67-1.86 2-1.86 1.38 0 2 .65 2 1.86 0 1.19-.62 1.81-2 1.81-1.32 0-2-.52-2-1.81zm1.87 16.03v-13.25h5.26v13.36c0 4.75-2.54 7.23-7.72 7.23s-7.8-2.48-7.8-7.23v-13.36h5.29v13.25c0 1.81.7 3.44 2.51 3.44 1.83 0 2.46-1.57 2.46-3.44zm-3.03-16.03c0 1.19-.62 1.81-2 1.81-1.32 0-2-.51-2-1.81 0-1.21.67-1.86 2-1.86 1.38 0 2 .64 2 1.86zm.46-10.1c0 3.99-2.7 6.48-7.26 6.48-2.13 0-3.69-.49-5.89-1.4l1.48-4.48c.85.84 2.52 1.35 4.27 1.35 1.67 0 2.32-.57 2.32-1.65 0-2.21-8.04-1.78-8.04-8.4 0-3.54 2.16-6.34 7.15-6.34 1.86 0 3.86.35 5.32.97l-.59 4.4c-1.54-.46-3.08-.73-4.37-.73-2 0-2.43.59-2.43 1.46 0 2.61 8.04 1.72 8.04 8.34zm-20.57-1.81h-4.25v7.94h-5.93v-20.25h5.93v7.59h4.25v-7.59h5.29v20.24h-5.29zm-15.69 3.7c.97 0 2.13-.24 3.08-.67l.49 4.29c-1.21.59-3.05.97-4.61.97-5.78 0-8.58-3.29-8.58-10.58 0-6.8 2.73-10.37 8.91-10.37 1.63 0 3.19.32 4.26.76l-.51 4.48c-.89-.32-2.11-.54-3.37-.54-3 0-3.75 1.27-3.75 5.7-.02 4.66 1.12 5.96 4.08 5.96zm-15.09 10.99h5.24v20.24h-5.24zm-4.7-6.41c-5.83 0-8.17-3.08-8.17-10.47 0-7.42 2.23-10.45 8.17-10.45s8.48 3.02 8.48 10.45c0 7.61-2.54 10.47-8.48 10.47zm-.03-16.19c-2.21 0-2.92.92-2.92 5.72 0 4.83.73 5.8 2.97 5.8s2.91-1 2.91-5.8c.01-4.83-.66-5.72-2.96-5.72zm2.62-5.37c-1.32 0-2-.51-2-1.81 0-1.22.67-1.86 2-1.86 1.38 0 2.89.65 2.89 1.86 0 1.19-1.51 1.81-2.89 1.81zm-5.15 0c-1.32 0-2-.51-2-1.81 0-1.22.67-1.86 2-1.86 1.38 0 2 .65 2 1.86-.01 1.19-.63 1.81-2 1.81zm-13.4 13.28h-4.91v7.94h-5.26v-20.25h5.26v7.59h4.91v-7.59h5.29v20.24h-5.29zm2.92 18.47-6.24 9.93-.78 1.75.27.08h6.8l-.08 4.7h-13.79v-3.11l7.34-10.57.3-1.78-.03-.05h-7.45l.14-4.72h13.52zm-7.83 30.8h4.91v-7.58h5.29v20.24h-5.29v-7.93h-4.91v7.93h-5.26v-20.24h5.26zm10.61 29.43c0 7.42-2.86 10.23-8.56 10.23h-7.32v-20.24h7.21c6.16 0 8.67 3.58 8.67 10.01zm-10.61 5.62h1.97c2.32 0 3.1-.7 3.1-5.67 0-4.48-.73-5.29-3.1-5.29h-1.97zm26.35-45.41c0 1.19-1.51 1.81-2.89 1.81-1.32 0-2-.51-2-1.81 0-1.21.67-1.86 2-1.86 1.38 0 2.89.64 2.89 1.86zm-6.05 0c0 1.19-.62 1.81-2 1.81-1.32 0-2-.51-2-1.81 0-1.21.67-1.86 2-1.86 1.38 0 2 .64 2 1.86zm2.84-8.54-.11 4.56h-13.04v-20.24h12.69l.11 4.64h-7.54v3.13h6.21v4.24h-6.21v3.67zm-2.27 11c5.94 0 8.48 3.02 8.48 10.45 0 7.61-2.54 10.47-8.48 10.47-5.83 0-8.17-3.08-8.17-10.47 0-7.43 2.23-10.45 8.17-10.45zm.03 16.25c2.24 0 2.91-1 2.91-5.8 0-4.83-.67-5.72-2.97-5.72-2.21 0-2.92.92-2.92 5.72.01 4.82.74 5.8 2.98 5.8zm6.58 17.57c0 2.7-.97 4.7-2.75 5.45l3.94 8.29h-6.1l-2.7-7.23h-1.78v7.23h-5.26v-20.24h6.99c5.13 0 7.66 1.94 7.66 6.5zm-9.39 2.54h1.81c2.23 0 2.08-.38 2.08-2.35 0-1.13-.51-2.32-2.05-2.32h-1.84zm16.71 4.21c0 1.81.7 3.44 2.51 3.44 1.84 0 2.46-1.58 2.46-3.44v-13.25h5.26v13.36c0 4.75-2.54 7.23-7.72 7.23s-7.8-2.48-7.8-7.23v-13.36h5.29zm12.29-67.25.11 4.72h-4.59v15.52h-5.37v-15.52h-4.59l.11-4.72zm-6.43 43.01c.97 0 2.13-.24 3.08-.67l.49 4.29c-1.21.59-3.05.97-4.61.97-5.78 0-8.58-3.29-8.58-10.58 0-6.8 2.73-10.37 8.91-10.37 1.63 0 3.19.32 4.26.76l-.51 4.48c-.89-.32-2.11-.54-3.37-.54-3 0-3.75 1.27-3.75 5.7-.02 4.66 1.12 5.96 4.08 5.96zm11.44-8.43h4.25v-7.58h5.29v20.24h-5.29v-7.93h-4.25v7.93h-5.93v-20.24h5.93zm3.87 19.07c1.79 0 3.18.32 4.26.76l-.51 4.48c-.89-.32-2.11-.54-3.37-.54-3 0-3.75 1.27-3.75 5.69 0 4.67 1.48 5.97 4.45 5.97.62 0 1.78-.24 2.73-.67l.49 4.29c-1.22.59-3.05.97-4.62.97-5.78 0-8.58-3.29-8.58-10.58-.01-6.81 2.72-10.37 8.9-10.37zm-1.08-33.41v-20.24h12.66l.08 4.72h-7.45v3.56h6.48l-.32 4.48h-6.15v7.48zm22.03 20.88c0 4-2.7 6.48-7.26 6.48-2.13 0-3.69-.49-5.89-1.4l1.48-4.48c.85.84 2.52 1.35 4.27 1.35 1.67 0 2.32-.57 2.32-1.65 0-2.21-8.04-1.78-8.04-8.4 0-3.54 2.16-6.34 7.15-6.34 1.86 0 3.86.35 5.32.97l-.59 4.4c-1.54-.46-3.08-.73-4.37-.73-2 0-2.43.59-2.43 1.46 0 2.61 8.04 1.72 8.04 8.34zm-9.45 21.13h1.4l3.75-8.25h5.91l-4.86 9.69 5.1 10.55h-6.21l-3.81-8.23h-1.3v8.23h-5.26v-20.24h5.26v8.25zm17.15 5.95h-3.83l-.76-14.2h5.32zm-1.84 2.49c1.84 0 3.25.07 3.25 1.56 0 1.38-1.41 2.32-3.25 2.32-1.81 0-2.62-.67-2.62-2.32 0-1.49.81-1.56 2.62-1.56zm-.94-23.45v-15.52h-4.59l.11-4.72h14.33l.11 4.72h-4.59v15.52zm5.48-27v-20.24h6.99c5.82 0 7.67 1.94 7.67 6.5 0 2.7-.97 4.7-2.75 5.45l3.94 8.29h-6.1l-2.4-7.23h-2.08v7.23zm7.34-11.2c1.27 0 1.81-.38 1.81-2.35 0-1.13-.51-2.32-1.54-2.32h-2.35v4.67z" fill="#020204" fill-rule="evenodd"/></svg>