<?xml version="1.0" encoding="utf-8"?>
<!-- Generator: Adobe Illustrator 16.0.4, SVG Export Plug-In . SVG Version: 6.00 Build 0)  -->
<!DOCTYPE svg PUBLIC "-//W3C//DTD SVG 1.1//EN" "http://www.w3.org/Graphics/SVG/1.1/DTD/svg11.dtd">
<svg version="1.1" id="Ebene_1" xmlns="http://www.w3.org/2000/svg" xmlns:xlink="http://www.w3.org/1999/xlink" x="0px" y="0px"
	 width="127.152px" height="31.293px" viewBox="0 0 127.152 31.293" enable-background="new 0 0 127.152 31.293"
	 xml:space="preserve">
<g>
	<rect fill="#248C96" width="127.152" height="31.293"/>
	<g>
		<path fill="#FFFFFF" d="M19.08,16.996c0,2.447-1.235,3.311-3.227,3.311c-0.671,0-1.211-0.145-1.631-0.359l0.108-1.645
			c0.275,0.168,0.695,0.289,1.211,0.289c1.056,0,1.607-0.469,1.607-1.631v-5.818h1.931V16.996z"/>
		<path fill="#FFFFFF" d="M26.22,18.436l-0.049,1.703h-5.54v-8.996h5.373l0.035,1.729h-3.525v1.846h2.962v1.584h-2.962v2.135H26.22z
			"/>
		<path fill="#FFFFFF" d="M30.805,12.906v7.232h-1.907v-7.232h-2.183l0.048-1.764h6.188l0.036,1.764H30.805z"/>
		<path fill="#FFFFFF" d="M33.494,20.139v-1.283l3.179-5.146l0.527-0.791l-0.023-0.023h-3.599l0.061-1.752h5.769v1.416l-3.106,5.025
			l-0.516,0.779l0.012,0.035h3.635l-0.036,1.74H33.494z"/>
		<path fill="#FFFFFF" d="M44.101,12.906v7.232h-1.907v-7.232h-2.183l0.048-1.764h6.188l0.036,1.764H44.101z"/>
		<path fill="#FFFFFF" d="M55.331,18.387l-0.048,1.752h-5.157v-8.996h1.895v7.244H55.331z"/>
		<path fill="#FFFFFF" d="M59.461,20.295c-2.507,0-3.61-1.332-3.61-4.654S56.906,11,59.461,11s3.609,1.318,3.609,4.641
			C63.07,19.035,62.016,20.295,59.461,20.295z M59.461,12.75c-1.212,0-1.632,0.516-1.632,2.891c0,2.387,0.42,2.914,1.644,2.914
			c1.211,0,1.619-0.539,1.619-2.914C61.092,13.254,60.684,12.75,59.461,12.75z"/>
		<path fill="#FFFFFF" d="M66.457,20.295c-0.936,0-1.823-0.229-2.519-0.637l0.252-1.654c0.695,0.371,1.427,0.6,2.23,0.6
			c0.899,0,1.296-0.348,1.296-1.008c0-1.475-3.742-0.959-3.742-3.898c0-1.523,0.924-2.697,2.998-2.697
			c0.815,0,1.644,0.156,2.267,0.443l-0.216,1.631c-0.671-0.229-1.319-0.348-1.931-0.348c-1.02,0-1.308,0.383-1.308,0.887
			c0,1.439,3.742,0.912,3.742,3.863C69.527,19.238,68.4,20.295,66.457,20.295z"/>
		<path fill="#FFFFFF" d="M72.613,20.295c-0.936,0-1.823-0.229-2.519-0.637l0.252-1.654c0.695,0.371,1.427,0.6,2.23,0.6
			c0.899,0,1.296-0.348,1.296-1.008c0-1.475-3.742-0.959-3.742-3.898c0-1.523,0.924-2.697,2.998-2.697
			c0.815,0,1.644,0.156,2.267,0.443l-0.216,1.631c-0.671-0.229-1.319-0.348-1.931-0.348c-1.02,0-1.308,0.383-1.308,0.887
			c0,1.439,3.742,0.912,3.742,3.863C75.684,19.238,74.557,20.295,72.613,20.295z"/>
		<path fill="#FFFFFF" d="M81.192,18.363h-2.879l-0.443,1.775h-1.991l2.759-8.996h2.303l2.794,8.996h-2.099L81.192,18.363z
			 M79.524,13.59l-0.791,3.131h2.051l-0.792-3.131l-0.203-0.959h-0.036L79.524,13.59z"/>
		<path fill="#FFFFFF" d="M90.742,17.08c0,2.158-1.115,3.215-3.298,3.215c-2.184,0-3.322-1.057-3.322-3.215v-5.938h1.895v5.914
			c0,1.031,0.42,1.475,1.428,1.475c1.007,0,1.415-0.432,1.415-1.475v-5.914h1.883V17.08z"/>
		<path fill="#FFFFFF" d="M98.267,19.814c-0.611,0.287-1.583,0.492-2.494,0.492c-2.818,0-3.887-1.512-3.887-4.654
			c0-3.213,1.2-4.664,3.971-4.664c0.779,0,1.643,0.154,2.267,0.406l-0.192,1.68c-0.563-0.229-1.295-0.371-1.967-0.371
			c-1.607,0-2.099,0.623-2.099,2.926c0,2.338,0.479,2.926,1.858,2.926c0.312,0,0.601-0.023,0.852-0.096V15.27h1.691V19.814z"/>
		<path fill="#FFFFFF" d="M105.179,18.436l-0.049,1.703h-5.54v-8.996h5.373l0.035,1.729h-3.525v1.846h2.962v1.584h-2.962v2.135
			H105.179z"/>
		<path fill="#FFFFFF" d="M111.587,20.139l-3.082-4.869l-0.504-0.84l-0.024,0.012l0.013,0.971v4.727h-1.667v-8.996h1.618
			l3.335,5.457l0.023-0.012l-0.023-0.959v-4.486h1.654v8.996H111.587z"/>
	</g>
</g>
</svg>
