<?xml version="1.0" encoding="utf-8"?>
<!-- Generator: Adobe Illustrator 23.1.1, SVG Export Plug-In . SVG Version: 6.00 Build 0)  -->
<!DOCTYPE svg PUBLIC "-//W3C//DTD SVG 1.1//EN" "http://www.w3.org/Graphics/SVG/1.1/DTD/svg11.dtd" [
	<!ENTITY ns_extend "http://ns.adobe.com/Extensibility/1.0/">
	<!ENTITY ns_ai "http://ns.adobe.com/AdobeIllustrator/10.0/">
	<!ENTITY ns_graphs "http://ns.adobe.com/Graphs/1.0/">
	<!ENTITY ns_vars "http://ns.adobe.com/Variables/1.0/">
	<!ENTITY ns_imrep "http://ns.adobe.com/ImageReplacement/1.0/">
	<!ENTITY ns_sfw "http://ns.adobe.com/SaveForWeb/1.0/">
	<!ENTITY ns_custom "http://ns.adobe.com/GenericCustomNamespace/1.0/">
	<!ENTITY ns_adobe_xpath "http://ns.adobe.com/XPath/1.0/">
]>
<svg version="1.1" id="Ebene_1" xmlns:x="&ns_extend;" xmlns:i="&ns_ai;" xmlns:graph="&ns_graphs;"
	 xmlns="http://www.w3.org/2000/svg" xmlns:xlink="http://www.w3.org/1999/xlink" x="0px" y="0px" viewBox="0 0 319.7 72.3"
	 style="enable-background:new 0 0 319.7 72.3;" xml:space="preserve">
<style type="text/css">
	.st0{fill-rule:evenodd;clip-rule:evenodd;}
</style>
<metadata>
	<sfw  xmlns="&ns_sfw;">
		<slices></slices>
		<sliceSourceBounds  bottomLeftOrigin="true" height="35.5" width="290.4" x="-63.4" y="149.3"></sliceSourceBounds>
	</sfw>
</metadata>
<path class="st0" d="M310,53.9c-1.4,0-2-0.5-2-1.9c0-1.2,0.6-1.9,2-1.9c1.4,0,2,0.7,2,1.9C312,53.1,311.4,53.9,310,53.9z
	 M301.4,53.8c-3.7,0-5.2-2.3-5.2-7.6c0-5.7,1.5-7.7,5.3-7.7c3.7,0,5.3,2,5.3,7.7C306.7,51.6,305.1,53.8,301.4,53.8z M301.5,41.8
	c-1.1,0-1.5,0.5-1.5,4.4c0,4,0.5,4.4,1.5,4.4c1,0,1.5-0.5,1.5-4.4C303,42.3,302.5,41.8,301.5,41.8z M289.7,53.8
	c-3.7,0-5.2-2.3-5.2-7.6c0-5.7,1.5-7.7,5.3-7.7c3.7,0,5.3,2,5.3,7.7C295,51.6,293.3,53.8,289.7,53.8z M289.7,41.8
	c-1.1,0-1.5,0.5-1.5,4.4c0,4,0.5,4.4,1.5,4.4c1,0,1.5-0.5,1.5-4.4C291.2,42.3,290.7,41.8,289.7,41.8z M274.8,50.9h1.8v-7.8l-2.3,1.3
	l-0.4-3l4.3-2.7h2.3v12.3h1.8v2.7h-7.5V50.9z M261.7,44.8h4.6l0,3.3h-4.6v5.5h-3.9v-15h9.4l0.1,3.5h-5.5V44.8z M251.8,51h-4.1
	l-0.6,2.6H243l4.4-15h4.8l4.5,15h-4.4L251.8,51z M250.2,43.4l-0.3-1.6h-0.1l-0.3,1.6l-1,4.3h2.6L250.2,43.4z M247.1,31h-4.1
	l-0.6,2.6h-4.1l4.4-15h4.8l4.5,15h-4.4L247.1,31z M245.5,23.4l-0.3-1.6h-0.1l-0.3,1.6l-1,4.3h2.6L245.5,23.4z M238.6,53.6h-4.5
	l-2-5.4h-1.3v5.4h-3.9v-15h5.2c3.8,0,5.7,1.4,5.7,4.8c0,2-0.7,3.5-2,4L238.6,53.6z M232.1,41.9h-1.4v3.5h1.3c1.1,0,1.5-0.3,1.5-1.7
	C233.7,42.2,233.3,41.9,232.1,41.9z M233.8,27.3l0-1.6l-0.1,0l-0.5,1.6l-2.2,6.4h-2.5l-2.2-6.3l-0.5-1.6l0,0l0,1.6v6.3h-3.4v-15h4.3
	l2.6,7.6l0.5,1.5h0.1l0.5-1.5l2.7-7.6h4.3v15h-3.6V27.3z M216.1,18.6h4v15h-4V18.6z M225.1,42.1h-5.6v2.3h4.6v3.1h-4.6v2.7h5.8
	l-0.1,3.4h-9.7v-15h9.4L225.1,42.1z M205.7,33.6v-15h3.9v11.5h5.1l-0.1,3.5H205.7z M200,33.6l-2.8-6.1h-1v6.1h-3.9v-15h3.9v5.8h1
	l2.8-5.8h4.4l-3.6,7.2l3.8,7.8H200z M194.8,53.6h-2.8l-4.5-6.9l-0.8-1.4l0,0l0,1.6v6.7h-3.4v-15h3.3l4.8,7.8l0,0l0-1.6l0-6.2h3.4
	V53.6z M185.5,33.9c-1.6,0-3.1-0.4-4.4-1l0.5-3.3c1.2,0.6,2.5,1,3.8,1c1.2,0,1.7-0.4,1.7-1.2c0-1.9-6-1.3-6-6.2
	c0-2.6,1.6-4.7,5.3-4.7c1.4,0,2.9,0.3,3.9,0.7l-0.4,3.3c-1.1-0.3-2.3-0.5-3.2-0.5c-1.5,0-1.8,0.4-1.8,1.1c0,1.9,6,1.3,6,6.2
	C190.9,32,188.9,33.9,185.5,33.9z M177.1,38.6h4v15h-4V38.6z M177.1,33.6h-4V22.1h-3.4l0.1-3.5h10.6l0.1,3.5h-3.4V33.6z M164.3,18.6
	h4v15h-4V18.6z M164.7,53.6h-4.5l-2-5.4h-1.3v5.4h-3.9v-15h5.2c3.8,0,5.7,1.4,5.7,4.8c0,2-0.7,3.5-2,4L164.7,53.6z M158.2,41.9h-1.4
	v3.5h1.3c1.1,0,1.5-0.3,1.5-1.7C159.7,42.2,159.3,41.9,158.2,41.9z M162.7,30.2l-0.1,3.4h-9.7v-15h9.4l0.1,3.4h-5.6v2.3h4.6v3.1
	h-4.6v2.7H162.7z M148.3,53.6h-4V42.1H141l0.1-3.5h10.6l0.1,3.5h-3.4V53.6z M151.4,29.2c0,2.7-1.6,4.4-5.4,4.4h-5.8v-15h5.9
	c3.2,0,4.9,1.5,4.9,3.9c0,1.6-0.7,2.6-1.8,3.1v0C150.6,26.2,151.4,27.3,151.4,29.2z M145.9,21.9H144v2.6h2c0.9,0,1.2-0.3,1.2-1.4
	C147.2,22.2,146.8,21.9,145.9,21.9z M146,27.5h-2v3h2.1c1,0,1.3-0.3,1.3-1.5C147.4,27.9,147.1,27.5,146,27.5z M134.6,44.8h4.6l0,3.3
	h-4.6v5.5h-3.9v-15h9.4l0.1,3.5h-5.5V44.8z M134.7,33.6l-2-5.4h-1.3v5.4h-3.9v-15h5.2c3.8,0,5.7,1.4,5.7,4.8c0,2-0.7,3.5-2,4
	l2.9,6.1H134.7z M132.7,21.9h-1.4v3.5h1.3c1.1,0,1.5-0.3,1.5-1.7C134.2,22.2,133.9,21.9,132.7,21.9z M121.5,31h-4.1l-0.6,2.6h-4.1
	l4.4-15h4.8l4.5,15h-4.4L121.5,31z M119.8,23.4l-0.3-1.6h-0.1l-0.3,1.6l-1,4.3h2.6L119.8,23.4z M116.2,53.6h-8.9v-15h3.9v11.5h5.1
	L116.2,53.6z M102.5,33.9c-1.6,0-3.1-0.4-4.4-1l0.5-3.3c1.2,0.6,2.5,1,3.8,1c1.2,0,1.7-0.4,1.7-1.2c0-1.9-6-1.3-6-6.2
	c0-2.6,1.6-4.7,5.3-4.7c1.4,0,2.9,0.3,3.9,0.7l-0.4,3.3c-1.1-0.3-2.3-0.5-3.2-0.5c-1.5,0-1.8,0.4-1.8,1.1c0,1.9,6,1.3,6,6.2
	C107.9,32,105.9,33.9,102.5,33.9z M97.1,30.2L97,33.6h-9.7v-15h9.4l0.1,3.4h-5.6v2.3h4.6v3.1h-4.6v2.7H97.1z M81.8,33.6l-2-5.4h-1.3
	v5.4h-3.9v-15h5.2c3.8,0,5.7,1.4,5.7,4.8c0,2-0.7,3.5-2,4l2.9,6.1H81.8z M79.9,21.9h-1.4v3.5h1.3c1.1,0,1.5-0.3,1.5-1.7
	C81.4,22.2,81,21.9,79.9,21.9z M83.9,42.1h-5.6v2.3H83v3.1h-4.6v2.7h5.8l-0.1,3.4h-9.7v-15h9.4L83.9,42.1z M73.1,30.2L73,33.6h-9.7
	v-15h9.4l0.1,3.4h-5.6v2.3h4.6v3.1h-4.6v2.7H73.1z M57.4,27.7h-3.6v5.9h-3.9v-15h3.9v5.6h3.6v-5.6h3.9v15h-3.9V27.7z M45.6,30.5
	c0.9,0,1.8-0.2,2.5-0.5l0.4,3.2c-0.9,0.4-2.3,0.7-3.4,0.7c-4.3,0-6.4-2.4-6.4-7.8c0-5,2-7.7,6.6-7.7c1.1,0,2.4,0.2,3.2,0.6l-0.4,3.3
	c-0.7-0.2-1.6-0.4-2.5-0.4c-2.2,0-2.8,0.9-2.8,4.2C42.8,29.5,43.4,30.5,45.6,30.5z M33.4,47.3l0-1.6l-0.1,0l-0.5,1.6l-2.2,6.4h-2.5
	l-2.2-6.3l-0.5-1.6l0,0l0,1.6v6.3H22v-15h4.3l2.6,7.6l0.5,1.5h0.1l0.5-1.5l2.7-7.6H37v15h-3.6V47.3z M32.9,18.6h4v15h-4V18.6z
	 M25.9,33.9c-1.6,0-3.1-0.4-4.4-1l0.5-3.3c1.2,0.6,2.5,1,3.8,1c1.2,0,1.7-0.4,1.7-1.2c0-1.9-6-1.3-6-6.2c0-2.6,1.6-4.7,5.3-4.7
	c1.4,0,2.9,0.3,3.9,0.7l-0.4,3.3c-1.1-0.3-2.3-0.5-3.2-0.5c-1.5,0-1.8,0.4-1.8,1.1c0,1.9,6,1.3,6,6.2C31.3,32,29.3,33.9,25.9,33.9z
	 M43.2,53.6h-4v-15h4V53.6z M55.3,38.6l0.1,3.5H52v11.5h-4V42.1h-3.4l0.1-3.5H55.3z M72.8,46c0,5.5-2.1,7.6-6.3,7.6h-5.4v-15h5.3
	C71,38.6,72.8,40.7,72.8,46z M65,50.2h1.5c1.7,0,2.3-0.5,2.3-4.2c0-3.3-0.5-3.9-2.3-3.9H65V50.2z M92.6,46.2l0.5,1.5h0.1l0.5-1.5
	l2.7-7.6h4.3v15h-3.6v-6.3l0-1.6l-0.1,0l-0.5,1.6l-2.2,6.4h-2.5l-2.2-6.3l-0.5-1.6l0,0l0,1.6v6.3h-3.4v-15H90L92.6,46.2z
	 M121.2,48.4c0,1.3,0.5,1.9,1.9,1.9c1.4,0,1.8-0.6,1.8-1.9v-9.8h3.9v9.9c0,3.5-1.9,5.4-5.7,5.4c-3.8,0-5.8-1.8-5.8-5.4v-9.9h3.9
	V48.4z M175.1,42.1h-5.6v2.3h4.6v3.1h-4.6v2.7h5.8l-0.1,3.4h-9.7v-15h9.4L175.1,42.1z M201.1,53.6h-4v-15h4V53.6z M209.8,38.4
	c1.3,0,2.8,0.2,3.9,0.7l-0.4,3.3c-1-0.4-2.2-0.6-3.3-0.6c-2.5,0-3,0.9-3,4.3c0,3.6,0.6,4.3,2.5,4.3c0.3,0,0.6,0,0.9-0.1v-4.9h3.5
	v7.6c-1,0.5-2.7,0.8-4.3,0.8c-5,0-6.7-2.7-6.7-7.8C202.9,40.9,204.9,38.4,209.8,38.4z"/>
</svg>
