<svg enable-background="new 0 0 643.8 600" viewBox="0 0 643.8 600" xmlns="http://www.w3.org/2000/svg"><path d="m91.9 482.2 372.5-.4 151.9-.1.1-60.3-46.2-72.6 46.2-71.2.1-60.6h-525l-82 133.8v.1z" fill="#020203"/><path clip-rule="evenodd" d="m521.4 316.1c-3.7-1.3-8-2.1-12.8-2.1-13.2 0-20.5 4.9-23.9 16.3h33.3l-3.4 16.1h-32v5.9h30.3l-3.3 15.6h-25.2c3.6 13.7 11.9 18.1 23.9 18.1 5.7 0 11.4-1.6 16.6-3.6l2.1 22.9c-7 3.6-15.8 5.5-27 5.5-27 0-43.3-13.8-48.1-43h-12l.2-15.6h10.4v-5.9h-10.4l-.2-16.1h12c5.2-26.8 22.8-43.4 49.6-43.4 10.7 0 18.9 1.6 25.7 4.2zm-170.6 94.9c-30.3 0-42.5-18.4-42.5-62 0-46.5 12.4-63 42.8-63 29.8 0 42.8 16.4 42.8 63 0 43.6-13.5 62-43.1 62zm.3-97.8c-8.6 0-12.5 4.4-12.5 35.5 0 32.7 3.9 36.1 12.5 36.1 8.5 0 12.2-4.2 12.2-36.1 0-31.8-3.7-35.5-12.2-35.5zm-96.1 97.8c-30.3 0-42.4-18.4-42.4-62 0-46.5 12.4-63 42.8-63 29.8 0 42.8 16.4 42.8 63-.1 43.6-13.6 62-43.2 62zm.3-97.8c-8.6 0-12.5 4.4-12.5 35.5 0 32.7 3.9 36.1 12.5 36.1 8.5 0 12.2-4.2 12.2-36.1 0-31.8-3.8-35.5-12.2-35.5zm-60.9 74.4v21.8h-28.8v-21.8h-48.1l-2.6-19.9 42.3-80.4h37.2v74.5h9.9l-.6 25.7h-9.3zm-26.1-69.7-21.8 43.9h20.2l1.1-30.6.8-13.2z" fill="#ffed00" fill-rule="evenodd"/></svg>