<svg enable-background="new 0 0 643.8 600" viewBox="0 0 643.8 600" xmlns="http://www.w3.org/2000/svg"><text fill="#fff" font-family="ClanPro-NarrBlack" font-size="12.2353" transform="matrix(.9919 0 0 1 -430.8037 362.9277)">Mehr infos</text><path clip-rule="evenodd" d="m539.1 393.5v-19.3l.1-5-.2-.1-1.5 4.8-6.8 19.6h-7.8l-6.8-19.5-1.5-4.8-.1.1.1 5v19.3h-10.6v-46.2h13.2l8.1 23.3 1.5 4.7h.2l1.5-4.7 8.3-23.4h13.3v46.2zm-57-8.2v8.2h-10.9v-8.2h-18.2l-1-7.5 16-30.4h14.1v28.2h3.8l-.2 9.7zm-9.9-26.4-8.3 16.6h7.6l.5-11.5.3-5zm-41 7.5h17.2v8h-17.2zm-14-96.1-8.7-18.8h-3v18.8h-12v-46.2h12v17.9h3.2l8.6-17.9h13.5l-11.1 22.1 11.6 24.1zm-42.2 112.8h14.4l-.2 10.4h-29v-7.5c9.5-10.7 17.3-18.3 17.3-24.4 0-2.8-1.6-4.4-5.3-4.4-3.5 0-6.7 1.6-9.7 3.8l-2.8-9.5c3.7-2.7 8.6-4.6 14.8-4.6 10.1 0 15.2 5.5 15.2 13.6 0 7.5-6 14.2-14.7 22.5zm5.4-122.4c2.8 0 5.5-.6 7.6-1.5l1.1 9.8c-2.8 1.4-7 2.2-10.5 2.2-13.2 0-19.6-7.5-19.6-24.1 0-15.5 6.2-23.6 20.3-23.6 3.3 0 7.3.7 9.7 1.7l-1.2 10.2c-2-.7-4.8-1.2-7.7-1.2-6.8 0-8.6 2.9-8.6 13 .2 10.5 2.1 13.5 8.9 13.5zm-36.7 1.6h-12.6l-1.8 8.1h-12.7l13.7-46.2h14.7l13.9 46.2h-13.4zm-5.2-23.3-.9-4.9h-.2l-1 4.9-3 13.2h8.1zm-22.6 17.7c0 8.3-5 13.6-16.5 13.6h-18v-46.2h18.1c9.9 0 15 4.6 15 11.9 0 4.9-2.2 8-5.7 9.7v.1c4.6 1.6 7.1 5.2 7.1 10.9zm-16.9-22.4h-6v8.1h6.1c2.8 0 3.8-1 3.8-4.2 0-3-1-3.9-3.9-3.9zm.3 17.1h-6.3v9.1h6.5c3 0 4.1-1 4.1-4.6.1-3.2-.9-4.5-4.3-4.5zm-13.8-42.6h-12.3v-35.4h-10.5l.2-10.8h32.7l.2 10.8h-10.5v35.4zm-25-10.8-.2 10.7h-31.5v-7.8l14.7-23.4 2.7-4.1-.1-.1h-17l.3-10.8h30.8v8.6l-14.2 22.7-2.7 4 .1.2zm-44.2 10.8h-12.3v-35.4h-10.5l.2-10.8h32.7l.2 10.8h-10.5v35.4zm-24.7-10.4-.2 10.4h-29.7v-46.2h28.9l.2 10.6h-17.2v7.1h14.2v9.7h-14.2v8.4zm-1.8 25.8 13.9 46.2h-13.4l-1.8-8.1h-12.5l-1.8 8.1h-12.7l13.7-46.2zm-3.5 28-3-13.2-.9-4.9h-.2l-1 4.9-3 13.2zm-43.5 52.5h14.1l-.1 10.2h-14v17.1h-12.1v-46.2h28.9l.2 10.8h-17zm8.1-44c2.8 0 5.5-.6 7.6-1.5l1.1 9.8c-2.8 1.4-7 2.2-10.5 2.2-13.2 0-19.6-7.5-19.6-24.1 0-15.5 6.2-23.6 20.3-23.6 3.3 0 7.3.7 9.7 1.7l-1.2 10.2c-2-.7-4.8-1.2-7.7-1.2-6.8 0-8.6 2.9-8.6 13 .1 10.5 2 13.5 8.9 13.5zm-13.3-51.1c-3.4 0-6.2-.6-8.4-1.6l.6-10c1.3.7 3.3 1.1 5.7 1.1 5 0 7.5-2 7.5-7.5v-29h12.3v29.2c0 13.6-6.9 17.8-17.7 17.8zm4.9 236c3.8 0 5.3-1.3 5.3-3.8 0-5.9-18.3-4.1-18.3-19.2 0-8.1 4.9-14.5 16.3-14.5 4.2 0 8.8.8 12.1 2.2l-1.4 10c-3.5-1-7-1.7-10-1.7-4.6 0-5.5 1.4-5.5 3.3 0 6 18.3 3.9 18.3 19 0 9.1-6.2 14.8-16.6 14.8-4.9 0-9.7-1.1-13.4-3.2l1.5-10.2c3.9 2.1 7.7 3.3 11.7 3.3zm34 9.5h-12.4v-46.2h12.4zm25.9-47c3.3 0 7.3.7 9.7 1.7l-1.2 10.2c-2-.7-4.8-1.2-7.7-1.2-6.8 0-8.6 2.9-8.6 13 0 10.7 1.9 13.6 8.7 13.6 2.8 0 5.5-.6 7.6-1.5l1.1 9.8c-2.8 1.4-7 2.2-10.5 2.2-13.2 0-19.6-7.5-19.6-24.1.2-15.5 6.4-23.7 20.5-23.7zm26.2 18.1h11.2v-17.3h12.1v46.2h-12.1v-18.1h-11.2v18.1h-12v-46.2h12zm13.3-46.6c0 9.1-6.2 14.8-16.6 14.8-4.9 0-9.7-1.1-13.4-3.2l1.5-10.2c3.8 1.9 7.6 3.1 11.6 3.1 3.8 0 5.3-1.3 5.3-3.8 0-5.9-18.3-4.1-18.3-19.2 0-8.1 4.9-14.5 16.3-14.5 4.2 0 8.8.8 12.1 2.2l-1.4 10c-3.5-1-7-1.7-10-1.7-4.6 0-5.5 1.4-5.5 3.3 0 6.1 18.4 4.1 18.4 19.2zm-33.5-9.4c0 16.9-6.5 23.3-19.5 23.3h-16.7v-46.2h16.4c14.1.1 19.8 6.6 19.8 22.9zm-19.7-12.2h-4.5v25h4.5c5.3 0 7.1-1.6 7.1-12.9 0-10.3-1.6-12.1-7.1-12.1zm-22.7-10.6v46.2h-12.1v-18.1h-11.2v18.1h-12v-46.2h12v17.3h11.2v-17.3zm4.8-68c0-2.8 1.5-4.2 4.6-4.2s4.6 1.5 4.6 4.2-1.4 4.1-4.6 4.1c-3 0-4.6-1.1-4.6-4.1zm11.8 0c0-2.8 1.5-4.2 4.6-4.2s4.6 1.5 4.6 4.2-1.4 4.1-4.6 4.1c-3.1 0-4.6-1.1-4.6-4.1zm16.2 36.8c0 10.8-5.8 16.5-17.6 16.5s-17.8-5.7-17.8-16.5v-30.5h12.1v30.3c0 4.1 1.6 6 5.7 6 4.2 0 5.6-1.7 5.6-6v-30.2h12zm36.8-59.8c0 9.1-6.2 14.8-16.6 14.8-4.9 0-9.7-1.1-13.4-3.2l1.5-10.2c3.8 1.9 7.6 3.1 11.6 3.1 3.8 0 5.3-1.3 5.3-3.8 0-5.9-18.3-4.1-18.3-19.2 0-8.1 4.9-14.5 16.3-14.5 4.2 0 8.8.8 12.1 2.2l-1.4 10c-3.5-1-7-1.7-10-1.7-4.6 0-5.5 1.4-5.5 3.3.1 6.1 18.4 4.1 18.4 19.2zm-8.7 75.5-6.2-16.5h-4.1v16.5h-12v-46.2h15.9c11.7 0 17.5 4.4 17.5 14.8 0 6.2-2.2 10.7-6.3 12.4l9 18.9h-13.8zm-6-36.2h-4.2v10.7h4.1c3.5 0 4.7-.9 4.7-5.4.1-4.2-1.1-5.3-4.6-5.3zm19-25.4v-46.2h12v17.3h11.2v-17.3h12.1v46.2h-12.1v-18.1h-11.2v18.1zm54 38.3c0 16.9-6.5 23.3-19.5 23.3h-16.7v-46.2h16.4c14.1.1 19.8 6.6 19.8 22.9zm-24.2 12.8h4.5c5.3 0 7.1-1.6 7.1-12.9 0-10.2-1.7-12.1-7.1-12.1h-4.5zm17.6 98.1h-17.2v7.1h14.2v9.7h-14.2v8.4h18l-.2 10.4h-29.7v-46.2h28.9zm-23.3-54.3-1.2-9.4 13.4-8.4h7v37.9h5.5v8.2h-23v-8.2h5.5v-24zm62.2 58.6c0 6.2-2.2 10.7-6.3 12.4l9 18.9h-13.9l-6.2-16.5h-4.1v16.5h-12v-46.2h15.9c11.8 0 17.6 4.5 17.6 14.9zm-21.4 5.8h4.1c3.5 0 4.7-.9 4.7-5.4 0-4.2-1.2-5.3-4.7-5.3h-4.2v10.7zm6.6-82.7c11.3 0 16.2 6.2 16.2 23.8 0 16.5-5.1 23.5-16.3 23.5-11.5 0-16.1-7-16.1-23.5 0-17.6 4.6-23.8 16.2-23.8zm0 37.3c3.2 0 4.6-1.6 4.6-13.7 0-12-1.4-13.4-4.6-13.4-3.3 0-4.7 1.7-4.7 13.4-.1 12.4 1.4 13.7 4.7 13.7zm17.6-62.7-.2 10.4h-29.8v-46.2h28.9l.2 10.6h-17.1v7.1h14.2v9.7h-14.2v8.4zm-.5 79.2 19-55.3h9.6l-19.3 55.3zm30.1-114.9h10.6v46.2h-8.6l-13.8-21.3-2.6-4.2-.1.1.1 5v20.5h-10.6v-46.2h10.1l14.8 24 .1-.1-.1-4.9zm-1.7 147.1.1-.1-.1-4.9.1-19h10.6v46.2h-8.6l-13.8-21.3-2.6-4.2-.1.1.1 5v20.5h-10.6v-46.2h10zm21.8 11.2c4.3 0 6.2 2.2 6.2 5.9 0 3.5-1.8 5.8-6.2 5.8-4.3 0-6.2-1.7-6.2-5.8 0-3.7 1.9-5.9 6.2-5.9zm10.6-32.3 5.7 1.4.9-6h5.2l.8 6 5.7-1.4 1.8 5-5.5 2.6 3.1 5.2-3.9 3-4.6-4.4-4.7 4.5-4-2.8 3-5.4-5.5-2.6zm5.3-41.1c0-17.6 4.7-23.8 16.2-23.8 11.3 0 16.2 6.2 16.2 23.8 0 16.5-5.1 23.5-16.3 23.5-11.5-.1-16.1-7-16.1-23.5zm16.2 13.5c3.2 0 4.6-1.6 4.6-13.7 0-12-1.4-13.4-4.6-13.4-3.3 0-4.7 1.7-4.7 13.4 0 12.4 1.5 13.7 4.7 13.7z" fill-rule="evenodd"/></svg>