<?xml version="1.0" encoding="utf-8"?>
<!-- Generator: Adobe Illustrator 23.1.1, SVG Export Plug-In . SVG Version: 6.00 Build 0)  -->
<svg version="1.1" id="Ebene_1" xmlns="http://www.w3.org/2000/svg" xmlns:xlink="http://www.w3.org/1999/xlink" x="0px" y="0px"
	 viewBox="0 0 349.03 166.73" style="enable-background:new 0 0 349.03 166.73;" xml:space="preserve">
<style type="text/css">
	.st0{fill-rule:evenodd;clip-rule:evenodd;}
</style>
<path class="st0" d="M326.58,41.69v20.71h-7.17V41.69h-6.12l0.14-6.3h19.12l0.14,6.3H326.58z M303.61,35.39h7.24v27.01h-7.24V35.39z
	 M307.07,102.39h-5.01L294,89.93l-1.51-2.48l-0.07,0.04l0.04,2.92v11.99h-6.19V75.39h5.91l8.68,14.01l0.07-0.04l-0.07-2.88
	l0.04-11.09h6.19V102.39z M300.63,56.31l-0.14,6.09h-17.39V35.39h16.92l0.15,6.19h-10.05v4.18h8.28v5.65h-8.28v4.9H300.63z
	 M273.05,81.58v4.18h8.28v5.65h-8.28v4.9h10.52l-0.14,6.09h-17.39V75.39h16.93l0.14,6.19H273.05z M272.4,51.81h-6.55v10.59h-7.02
	V35.39h7.02v10.12h6.55V35.39h7.06v27.01h-7.06V51.81z M257.25,88.31l6.81,14.08h-8.28l-5.08-10.98h-1.73v10.98h-7.02V75.39h7.02
	v10.44h1.87l5-10.44h7.89L257.25,88.31z M245.12,62.86c-6.91,0-10.41-3.31-10.41-9.65V35.39h7.06v17.68c0,2.41,0.94,3.49,3.35,3.49
	c2.45,0,3.28-1.01,3.28-3.49V35.39h7.02v17.83C255.41,59.55,252.03,62.86,245.12,62.86z M238.64,81.9c-1.19-0.43-2.81-0.72-4.5-0.72
	c-4,0-5,1.69-5,7.6c0,6.23,1.12,7.96,5.11,7.96c1.66,0,3.21-0.32,4.47-0.9l0.65,5.73c-1.62,0.79-4.07,1.3-6.16,1.3
	c-7.71,0-11.45-4.39-11.45-14.12c0-9.07,3.64-13.83,11.88-13.83c1.91,0,4.25,0.43,5.69,1.01L238.64,81.9z M232.27,56.31l-0.14,6.09
	h-17.39V35.39h16.93l0.14,6.19h-10.05v4.18h8.28v5.65h-8.28v4.9H232.27z M208.21,102.86c-7.78,0-11.31-4.11-11.31-13.97
	c0-9.9,3.38-13.94,11.31-13.94c7.92,0,11.31,4.03,11.31,13.94C219.52,99.05,216.14,102.86,208.21,102.86z M208.18,81.26
	c-2.95,0-3.89,1.22-3.89,7.63c0,6.45,0.97,7.74,3.96,7.74c2.99,0,3.89-1.33,3.89-7.74C212.14,82.44,211.24,81.26,208.18,81.26z
	 M197.99,49.93l-1.51-2.48l-0.07,0.04l0.04,2.92v11.99h-6.19V35.39h5.91l8.68,14.01l0.07-0.04l-0.07-2.88l0.04-11.09h6.19v27.01h-5
	L197.99,49.93z M181.97,62.39h-7.17V41.69h-6.12l0.14-6.3h19.12l0.14,6.3h-6.12V62.39z M170.81,62.39h-16.1V35.39h7.09v20.74h9.18
	L170.81,62.39z M173.12,81.69H167v20.71h-7.17V81.69h-6.12l0.14-6.3h19.12L173.12,81.69z M152.02,56.31l-0.14,6.09h-17.39V35.39
	h16.92l0.14,6.19h-10.05v4.18h8.28v5.65h-8.28v4.9H152.02z M143.78,84.06c0,3.6-1.3,6.27-3.67,7.27l5.26,11.06h-8.14l-3.6-9.65
	h-2.38v9.65h-7.02V75.39h9.33C140.39,75.39,143.78,77.98,143.78,84.06z M133.7,81.22h-2.45v6.23h2.41c2.05,0,2.77-0.5,2.77-3.13
	C136.43,81.87,135.75,81.22,133.7,81.22z M118.22,62.39l-2.52-16.38l-0.36-2.92h-0.11l-0.4,2.92l-2.48,16.38h-8.43l-5.65-27.01h7.35
	l2.38,17.03l0.36,2.88h0.11l0.4-2.88l2.81-17.03h7.49L122,52.28l0.43,2.88h0.11l0.32-2.88l2.41-16.89h7.02l-5.65,27.01H118.22z
	 M89.63,102.39h-9.76V75.39h9.61c8.21,0,11.56,3.82,11.56,13.36C101.05,98.65,97.23,102.39,89.63,102.39z M89.52,81.62H86.9v14.62
	h2.63c3.1,0,4.14-0.94,4.14-7.56C93.67,82.7,92.69,81.62,89.52,81.62z M88.95,56.31l-0.14,6.09H71.41V35.39h16.92l0.15,6.19H78.44
	v4.18h8.28v5.65h-8.28v4.9H88.95z M55.04,89.93l-1.51-2.48l-0.07,0.04l0.04,2.92v11.99h-6.19V75.39h5.91l8.68,14.01l0.07-0.04
	l-0.07-2.88l0.04-11.09h6.19v27.01H63.1L55.04,89.93z M60.22,35.39h7.24v27.01h-7.24V35.39z M45.57,62.39h-9.76V35.39h9.62
	c8.21,0,11.56,3.82,11.56,13.36C56.98,58.65,53.17,62.39,45.57,62.39z M45.46,41.62h-2.63v14.62h2.63c3.1,0,4.14-0.94,4.14-7.56
	C49.6,42.7,48.63,41.62,45.46,41.62z M43.34,75.39v27.01H36.1V75.39H43.34z M52.88,121.58H42.83v4.18h8.28v5.65h-8.28v4.9h10.52
	l-0.14,6.09H35.81v-27.01h16.93L52.88,121.58z M63.57,142.39h-7.24v-27.01h7.24V142.39z M74.4,136.81c2.23,0,3.1-0.76,3.1-2.2
	c0-3.46-10.73-2.38-10.73-11.2c0-4.72,2.88-8.46,9.54-8.46c2.49,0,5.15,0.47,7.09,1.3l-0.79,5.87c-2.05-0.61-4.1-0.97-5.83-0.97
	c-2.66,0-3.24,0.79-3.24,1.94c0,3.49,10.73,2.31,10.73,11.13c0,5.33-3.6,8.64-9.69,8.64c-2.84,0-5.65-0.65-7.85-1.87l0.9-5.98
	C69.83,136.13,72.06,136.81,74.4,136.81z M106.34,124.06c0,3.6-1.3,6.27-3.67,7.27l5.26,11.06h-8.14l-3.6-9.65h-2.38v9.65h-7.02
	v-27.01h9.33C102.95,115.39,106.34,117.98,106.34,124.06z M93.81,127.45h2.41c2.05,0,2.77-0.5,2.77-3.13c0-2.45-0.69-3.1-2.74-3.1
	h-2.45V127.45z M121.53,96.31l-0.14,6.09h-17.39V75.39h16.92l0.14,6.19h-10.05v4.18h8.28v5.65h-8.28v4.9H121.53z M126.75,121.58
	H116.7v4.18h8.28v5.65h-8.28v4.9h10.51l-0.14,6.09h-17.39v-27.01h16.93L126.75,121.58z M137.44,142.39h-7.24v-27.01h7.24V142.39z
	 M155.98,129.39l0.07-0.04l-0.07-2.88l0.04-11.09h6.19v27.01h-5l-8.07-12.46l-1.51-2.48l-0.07,0.04l0.04,2.92v11.99h-6.19v-27.01
	h5.91L155.98,129.39z M173.4,142.39h-7.24v-27.01h7.24V142.39z M194.83,84.06c0,3.6-1.3,6.27-3.67,7.27l5.26,11.06h-8.14l-3.6-9.65
	h-2.38v9.65h-7.02V75.39h9.33C191.44,75.39,194.83,77.98,194.83,84.06z M182.29,87.45h2.41c2.05,0,2.77-0.5,2.77-3.13
	c0-2.45-0.68-3.1-2.74-3.1h-2.45V87.45z M189.06,114.92c2.38,0,5.08,0.43,7.02,1.19l-0.65,6.01c-1.76-0.65-4.03-1.04-5.98-1.04
	c-4.43,0-5.44,1.66-5.44,7.74c0,6.41,1.04,7.81,4.54,7.81c0.54,0,1.12-0.04,1.62-0.14v-8.82h6.27v13.76
	c-1.87,0.9-4.93,1.48-7.71,1.48c-8.93,0-12.1-4.79-12.1-14.01C176.64,119.46,180.35,114.92,189.06,114.92z M206.45,133.07
	c0,2.41,0.94,3.49,3.35,3.49c2.45,0,3.28-1.01,3.28-3.49v-17.68h7.02v17.83c0,6.34-3.39,9.65-10.3,9.65s-10.41-3.31-10.41-9.65
	v-17.83h7.06V133.07z M238.1,129.39l0.07-0.04l-0.07-2.88l0.04-11.09h6.19v27.01h-5.01l-8.07-12.46l-1.51-2.48l-0.07,0.04l0.04,2.92
	v11.99h-6.19v-27.01h5.91L238.1,129.39z M259.69,114.92c2.38,0,5.08,0.43,7.02,1.19l-0.65,6.01c-1.76-0.65-4.03-1.04-5.98-1.04
	c-4.43,0-5.44,1.66-5.44,7.74c0,6.41,1.04,7.81,4.54,7.81c0.54,0,1.12-0.04,1.62-0.14v-8.82h6.27v13.76
	c-1.87,0.9-4.93,1.48-7.71,1.48c-8.93,0-12.1-4.79-12.1-14.01C247.27,119.46,250.98,114.92,259.69,114.92z M273.16,135.95
	c2.52,0,3.6,1.26,3.6,3.46c0,2.05-1.08,3.42-3.6,3.42c-2.52,0-3.64-0.97-3.64-3.42C269.52,137.21,270.63,135.95,273.16,135.95z
	 M320.28,91.23h-10.05v-4.68h10.05V91.23z"/>
</svg>
