<?xml version="1.0" encoding="utf-8"?>
<!-- Generator: Adobe Illustrator 27.2.0, SVG Export Plug-In . SVG Version: 6.00 Build 0)  -->
<svg version="1.1" id="Ebene_1" xmlns="http://www.w3.org/2000/svg" xmlns:xlink="http://www.w3.org/1999/xlink" x="0px" y="0px"
	 viewBox="0 0 134.81 138.34" style="enable-background:new 0 0 134.81 138.34;" xml:space="preserve">
<style type="text/css">
	.st0{fill:#FFFFFF;}
	.st1{fill:#238C96;}
</style>
<g>
	<path d="M7.03,18h-6.5V0h6.41c5.47,0,7.7,2.54,7.7,8.9C14.64,15.51,12.1,18,7.03,18z M6.96,4.15H5.21v9.74h1.75
		c2.06,0,2.76-0.62,2.76-5.04C9.72,4.87,9.07,4.15,6.96,4.15z"/>
	<path d="M16.8,0h4.82v18H16.8V0z"/>
	<path d="M35.95,13.95L35.86,18H24.26V0h11.28l0.1,4.13h-6.7v2.78h5.52v3.77h-5.52v3.26H35.95z"/>
	<path d="M6.7,36.41H5.21V42H0.53V24H6.7c4.99,0,6.98,1.94,6.98,6.34C13.68,34.22,11.74,36.41,6.7,36.41z M6.7,27.91H5.21v4.78H6.7
		c1.54,0,2.11-0.36,2.11-2.38C8.81,28.37,8.35,27.91,6.7,27.91z"/>
	<path d="M23.3,38.86h-4.9L17.71,42h-4.97l5.33-18h5.74l5.42,18H24L23.3,38.86z M20.45,29.78l-1.15,5.16h3.14l-1.15-5.16l-0.36-1.92
		h-0.07L20.45,29.78z"/>
	<path d="M35.18,42.31c-1.9,0-3.77-0.43-5.23-1.25l0.6-3.98c1.46,0.74,2.95,1.2,4.51,1.2c1.49,0,2.06-0.5,2.06-1.46
		c0-2.3-7.15-1.58-7.15-7.46c0-3.14,1.92-5.64,6.36-5.64c1.66,0,3.43,0.31,4.73,0.86l-0.53,3.91c-1.37-0.41-2.74-0.65-3.89-0.65
		c-1.78,0-2.16,0.53-2.16,1.3c0,2.33,7.15,1.54,7.15,7.42C41.64,40.11,39.24,42.31,35.18,42.31z"/>
	<path d="M47.71,42.31c-1.9,0-3.77-0.43-5.23-1.25l0.6-3.98c1.46,0.74,2.95,1.2,4.51,1.2c1.49,0,2.06-0.5,2.06-1.46
		c0-2.3-7.15-1.58-7.15-7.46c0-3.14,1.92-5.64,6.36-5.64c1.66,0,3.43,0.31,4.73,0.86l-0.53,3.91c-1.37-0.41-2.74-0.65-3.89-0.65
		c-1.78,0-2.16,0.53-2.16,1.3c0,2.33,7.15,1.54,7.15,7.42C54.17,40.11,51.77,42.31,47.71,42.31z"/>
	<path d="M67.54,37.95L67.44,42H55.85V24h11.28l0.1,4.13h-6.7v2.78h5.52v3.77h-5.52v3.26H67.54z"/>
	<path d="M79.87,42l-5.38-8.3l-1.01-1.66l-0.05,0.02l0.02,1.94V42h-4.13V24h3.94l5.78,9.34l0.05-0.02l-0.05-1.92L79.08,24h4.13v18
		H79.87z"/>
	<path d="M92.16,42h-6.5V24h6.41c5.47,0,7.7,2.54,7.7,8.9C99.77,39.51,97.22,42,92.16,42z M92.09,28.15h-1.75v9.74h1.75
		c2.06,0,2.76-0.62,2.76-5.04C94.85,28.87,94.2,28.15,92.09,28.15z"/>
	<path d="M113.42,37.95l-0.1,4.06h-11.59V24h11.28l0.1,4.13h-6.7v2.78h5.52v3.77h-5.52v3.26H113.42z"/>
	<path d="M12.22,61.95L12.12,66H0.53V48h11.28l0.1,4.13h-6.7v2.78h5.52v3.77H5.21v3.26H12.22z"/>
	<path d="M24.6,58.63L28.1,66h-5.42l-2.4-6.43H18.7V66h-4.68V48h6.22c4.56,0,6.82,1.73,6.82,5.78
		C27.05,56.18,26.18,57.96,24.6,58.63z M20.33,51.89H18.7v4.15h1.61c1.37,0,1.85-0.34,1.85-2.09C22.15,52.32,21.7,51.89,20.33,51.89
		z"/>
	<path d="M41.64,65.35c-1.25,0.6-3.29,0.98-5.14,0.98c-5.95,0-8.06-3.19-8.06-9.34c0-6.29,2.47-9.31,8.28-9.31
		c1.58,0,3.38,0.29,4.68,0.79l-0.43,4.01c-1.18-0.43-2.69-0.7-3.98-0.7c-2.95,0-3.62,1.1-3.62,5.16c0,4.27,0.7,5.21,3.02,5.21
		c0.36,0,0.74-0.02,1.08-0.1v-5.88h4.18V65.35z"/>
	<path d="M53.06,62.86h-4.9L47.47,66H42.5l5.33-18h5.74l5.42,18h-5.23L53.06,62.86z M48.38,47.14c-1.18,0-1.78-0.46-1.78-1.61
		c0-1.08,0.6-1.66,1.78-1.66c1.22,0,1.78,0.58,1.78,1.66C50.16,46.58,49.61,47.14,48.38,47.14z M50.21,53.78l-1.15,5.16h3.14
		l-1.15-5.16l-0.36-1.92h-0.07L50.21,53.78z M52.97,47.14c-1.18,0-1.78-0.46-1.78-1.61c0-1.08,0.6-1.66,1.78-1.66
		c1.22,0,1.78,0.58,1.78,1.66C54.74,46.58,54.19,47.14,52.97,47.14z"/>
	<path d="M70.73,66l-5.38-8.3l-1.01-1.66l-0.05,0.02l0.02,1.94V66h-4.13V48h3.94l5.78,9.34l0.05-0.02l-0.05-1.92L69.94,48h4.13v18
		H70.73z"/>
	<path d="M75.86,66v-3.05l5.74-9.12l1.06-1.58l-0.02-0.05h-6.62l0.12-4.2h12.03v3.36l-5.54,8.83l-1.06,1.56l0.02,0.07h6.62L88.13,66
		H75.86z"/>
	<path d="M103.49,59.88c0,4.22-2.26,6.43-6.86,6.43s-6.94-2.21-6.94-6.43V48h4.7v11.79c0,1.61,0.62,2.33,2.23,2.33
		c1.63,0,2.18-0.67,2.18-2.33V48h4.68V59.88z"/>
	<path d="M116.3,66l-5.38-8.3l-1.01-1.66l-0.05,0.02l0.02,1.94V66h-4.13V48h3.94l5.78,9.34l0.05-0.02l-0.05-1.92l0.02-7.39h4.13v18
		H116.3z"/>
	<path d="M134.81,65.35c-1.25,0.6-3.29,0.98-5.14,0.98c-5.95,0-8.06-3.19-8.06-9.34c0-6.29,2.47-9.31,8.28-9.31
		c1.58,0,3.38,0.29,4.68,0.79l-0.43,4.01c-1.18-0.43-2.69-0.7-3.98-0.7c-2.95,0-3.62,1.1-3.62,5.16c0,4.27,0.7,5.21,3.02,5.21
		c0.36,0,0.74-0.02,1.08-0.1v-5.88h4.18V65.35z"/>
	<path d="M5.23,76.2v3.17h5.5l-0.02,3.98H5.23V90h-4.7V72h11.26l0.07,4.2H5.23z"/>
	<path d="M27.07,83.88c0,4.22-2.26,6.43-6.86,6.43s-6.94-2.21-6.94-6.43V72h4.7v11.79c0,1.61,0.62,2.33,2.23,2.33
		c1.63,0,2.18-0.67,2.18-2.33V72h4.68V83.88z M17.93,71.14c-1.18,0-1.78-0.46-1.78-1.61c0-1.08,0.6-1.66,1.78-1.66
		c1.22,0,1.78,0.58,1.78,1.66C19.7,70.58,19.15,71.14,17.93,71.14z M22.51,71.14c-1.18,0-1.78-0.46-1.78-1.61
		c0-1.08,0.6-1.66,1.78-1.66c1.22,0,1.78,0.58,1.78,1.66C24.29,70.58,23.74,71.14,22.51,71.14z"/>
	<path d="M39.94,82.63l3.5,7.37h-5.42l-2.4-6.43h-1.58V90h-4.68V72h6.22c4.56,0,6.82,1.73,6.82,5.78
		C42.38,80.18,41.52,81.96,39.94,82.63z M35.66,75.89h-1.63v4.15h1.61c1.37,0,1.85-0.34,1.85-2.09
		C37.49,76.32,37.03,75.89,35.66,75.89z"/>
	<path d="M50.21,72h4.82v18h-4.82V72z"/>
	<path d="M66.72,90v-7.06h-4.37V90h-4.68V72h4.68v6.74h4.37V72h4.7v18H66.72z"/>
	<path d="M84.43,82.63l3.5,7.37h-5.42l-2.4-6.43h-1.58V90h-4.68V72h6.22c4.56,0,6.82,1.73,6.82,5.78
		C86.88,80.18,86.02,81.96,84.43,82.63z M80.16,75.89h-1.63v4.15h1.61c1.37,0,1.85-0.34,1.85-2.09
		C81.98,76.32,81.53,75.89,80.16,75.89z"/>
	<path d="M100.8,85.95L100.7,90H89.11V72h11.28l0.1,4.13h-6.7v2.78h5.52v3.77h-5.52v3.26H100.8z"/>
	<path d="M113.14,90l-5.38-8.3l-1.01-1.66l-0.05,0.02l0.02,1.94V90h-4.13V72h3.94l5.78,9.34l0.05-0.02l-0.05-1.92l0.02-7.39h4.13v18
		H113.14z"/>
	<path d="M0.72,96h4.82v18H0.72V96z"/>
	<path d="M18.72,114l-5.38-8.3l-1.01-1.66l-0.05,0.02l0.02,1.94V114H8.18V96h3.94l5.78,9.34l0.05-0.02l-0.05-1.92L17.93,96h4.13v18
		H18.72z"/>
	<path d="M31.01,114h-6.5V96h6.41c5.47,0,7.7,2.54,7.7,8.9C38.62,111.51,36.07,114,31.01,114z M30.94,100.15h-1.75v9.74h1.75
		c2.06,0,2.76-0.62,2.76-5.04C33.7,100.87,33.05,100.15,30.94,100.15z"/>
	<path d="M54.22,107.88c0,4.22-2.26,6.43-6.86,6.43s-6.94-2.21-6.94-6.43V96h4.7v11.79c0,1.61,0.62,2.33,2.23,2.33
		c1.63,0,2.18-0.67,2.18-2.33V96h4.68V107.88z"/>
	<path d="M61.03,114.31c-1.9,0-3.77-0.43-5.23-1.25l0.6-3.98c1.46,0.74,2.95,1.2,4.51,1.2c1.49,0,2.06-0.5,2.06-1.46
		c0-2.3-7.15-1.58-7.15-7.46c0-3.14,1.92-5.64,6.36-5.64c1.66,0,3.43,0.31,4.73,0.86l-0.53,3.91c-1.37-0.41-2.74-0.65-3.89-0.65
		c-1.78,0-2.16,0.53-2.16,1.3c0,2.33,7.15,1.54,7.15,7.42C67.49,112.11,65.09,114.31,61.03,114.31z"/>
	<path d="M76.63,100.2V114h-4.78v-13.8h-4.08l0.1-4.2h12.75l0.1,4.2H76.63z"/>
	<path d="M92.74,106.63l3.5,7.37h-5.42l-2.4-6.43h-1.58V114h-4.68V96h6.22c4.56,0,6.82,1.73,6.82,5.78
		C95.18,104.18,94.32,105.96,92.74,106.63z M88.46,99.89h-1.63v4.15h1.61c1.37,0,1.85-0.34,1.85-2.09
		C90.29,100.32,89.83,99.89,88.46,99.89z"/>
	<path d="M97.61,96h4.82v18h-4.82V96z"/>
	<path d="M116.76,109.95l-0.1,4.06h-11.59V96h11.28l0.1,4.13h-6.7v2.78h5.52v3.77h-5.52v3.26H116.76z"/>
	<path d="M124.56,104.21v3.12h-6.7v-3.12H124.56z"/>
	<path d="M5.23,138.31c-1.9,0-3.77-0.43-5.23-1.25l0.6-3.98c1.46,0.74,2.95,1.2,4.51,1.2c1.49,0,2.06-0.5,2.06-1.46
		c0-2.3-7.15-1.58-7.15-7.46c0-3.14,1.92-5.64,6.36-5.64c1.66,0,3.43,0.31,4.73,0.86l-0.53,3.91c-1.37-0.41-2.74-0.65-3.89-0.65
		c-1.78,0-2.16,0.53-2.16,1.3c0,2.33,7.15,1.54,7.15,7.42C11.69,136.11,9.29,138.31,5.23,138.31z"/>
	<path d="M22.2,134.86h-4.9l-0.7,3.14h-4.97l5.33-18h5.74l5.42,18H22.9L22.2,134.86z M19.34,125.78l-1.15,5.16h3.14l-1.15-5.16
		l-0.36-1.92h-0.07L19.34,125.78z"/>
	<path d="M42.22,131.88c0,4.22-2.26,6.43-6.86,6.43s-6.94-2.21-6.94-6.43V120h4.7v11.79c0,1.61,0.62,2.33,2.23,2.33
		c1.63,0,2.18-0.67,2.18-2.33V120h4.68V131.88z"/>
	<path d="M57.22,137.35c-1.25,0.6-3.29,0.98-5.14,0.98c-5.95,0-8.06-3.19-8.06-9.34c0-6.29,2.47-9.31,8.28-9.31
		c1.58,0,3.38,0.29,4.68,0.79l-0.43,4.01c-1.18-0.43-2.69-0.7-3.98-0.7c-2.95,0-3.62,1.1-3.62,5.16c0,4.27,0.7,5.21,3.02,5.21
		c0.36,0,0.74-0.02,1.08-0.1v-5.88h4.18V137.35z"/>
	<path d="M71.04,133.95l-0.1,4.06H59.35v-18h11.28l0.1,4.13h-6.7v2.78h5.52v3.77h-5.52v3.26H71.04z"/>
	<path d="M83.42,130.63l3.5,7.37H81.5l-2.4-6.43h-1.58V138h-4.68v-18h6.22c4.56,0,6.82,1.73,6.82,5.78
		C85.87,128.18,85.01,129.96,83.42,130.63z M79.15,123.89h-1.63v4.15h1.61c1.37,0,1.85-0.34,1.85-2.09
		C80.98,124.32,80.52,123.89,79.15,123.89z"/>
	<path d="M90.02,138.29c-1.68,0-2.42-0.65-2.42-2.28c0-1.46,0.74-2.3,2.42-2.3c1.68,0,2.4,0.84,2.4,2.3
		C92.42,137.38,91.7,138.29,90.02,138.29z"/>
</g>
</svg>
