<?xml version="1.0" encoding="utf-8"?>
<!-- Generator: Adobe Illustrator 23.1.1, SVG Export Plug-In . SVG Version: 6.00 Build 0)  -->
<!DOCTYPE svg PUBLIC "-//W3C//DTD SVG 1.1//EN" "http://www.w3.org/Graphics/SVG/1.1/DTD/svg11.dtd" [
	<!ENTITY ns_extend "http://ns.adobe.com/Extensibility/1.0/">
	<!ENTITY ns_ai "http://ns.adobe.com/AdobeIllustrator/10.0/">
	<!ENTITY ns_graphs "http://ns.adobe.com/Graphs/1.0/">
	<!ENTITY ns_vars "http://ns.adobe.com/Variables/1.0/">
	<!ENTITY ns_imrep "http://ns.adobe.com/ImageReplacement/1.0/">
	<!ENTITY ns_sfw "http://ns.adobe.com/SaveForWeb/1.0/">
	<!ENTITY ns_custom "http://ns.adobe.com/GenericCustomNamespace/1.0/">
	<!ENTITY ns_adobe_xpath "http://ns.adobe.com/XPath/1.0/">
]>
<svg version="1.1" id="Ebene_1" xmlns:x="&ns_extend;" xmlns:i="&ns_ai;" xmlns:graph="&ns_graphs;"
	 xmlns="http://www.w3.org/2000/svg" xmlns:xlink="http://www.w3.org/1999/xlink" x="0px" y="0px" viewBox="0 0 321.23 45.89"
	 style="enable-background:new 0 0 321.23 45.89;" xml:space="preserve">
<style type="text/css">
	.st0{fill-rule:evenodd;clip-rule:evenodd;}
</style>
<metadata>
	<sfw  xmlns="&ns_sfw;">
		<slices></slices>
		<sliceSourceBounds  bottomLeftOrigin="true" height="19.42" width="255.92" x="21.5" y="45.11"></sliceSourceBounds>
	</sfw>
</metadata>
<path class="st0" d="M274.92,32.61c-1.75,0-2.52-0.68-2.52-2.38c0-1.52,0.77-2.4,2.52-2.4c1.75,0,2.5,0.88,2.5,2.4
	C277.42,31.66,276.67,32.61,274.92,32.61z M264.24,32.56c-4.65,0-6.52-2.82-6.52-9.52c0-7.15,1.9-9.67,6.57-9.67
	c4.57,0,6.57,2.52,6.57,9.67C270.87,29.73,268.79,32.56,264.24,32.56z M264.29,17.53c-1.32,0-1.92,0.67-1.92,5.45
	c0,5.02,0.6,5.55,1.92,5.55c1.3,0,1.88-0.65,1.88-5.55C266.17,18.11,265.59,17.53,264.29,17.53z M249.52,32.56
	c-4.65,0-6.52-2.82-6.52-9.52c0-7.15,1.9-9.67,6.57-9.67c4.57,0,6.57,2.52,6.57,9.67C256.14,29.73,254.07,32.56,249.52,32.56z
	 M249.57,17.53c-1.32,0-1.92,0.67-1.92,5.45c0,5.02,0.6,5.55,1.92,5.55c1.3,0,1.88-0.65,1.88-5.55
	C251.44,18.11,250.87,17.53,249.57,17.53z M230.97,28.96h2.22v-9.72l-2.85,1.58l-0.5-3.8l5.42-3.42h2.82v15.37h2.22v3.35h-9.35
	V28.96z M214.57,21.23h5.72l-0.02,4.15h-5.7v6.92h-4.9V13.56h11.72l0.07,4.37h-6.9V21.23z M202.24,29.03h-5.1l-0.73,3.27h-5.17
	l5.55-18.75h5.97l5.65,18.75h-5.45L202.24,29.03z M200.15,19.58l-0.38-2h-0.07l-0.43,2l-1.2,5.37h3.27L200.15,19.58z M180.07,32.31
	l-2.5-6.7h-1.65v6.7h-4.87V13.56h6.47c4.75,0,7.1,1.8,7.1,6.02c0,2.5-0.9,4.35-2.55,5.05l3.65,7.67H180.07z M177.62,17.61h-1.7v4.32
	h1.68c1.42,0,1.92-0.35,1.92-2.17C179.52,18.06,179.05,17.61,177.62,17.61z M169.17,28.08l-0.1,4.22H157V13.56h11.75l0.1,4.3h-6.97
	v2.9h5.75v3.92h-5.75v3.4H169.17z M149.42,32.66c-6.2,0-8.4-3.32-8.4-9.72c0-6.55,2.57-9.7,8.62-9.7c1.65,0,3.52,0.3,4.87,0.82
	l-0.45,4.17c-1.23-0.45-2.8-0.72-4.15-0.72c-3.07,0-3.77,1.15-3.77,5.37c0,4.45,0.72,5.42,3.15,5.42c0.38,0,0.77-0.02,1.12-0.1
	v-6.12h4.35v9.55C153.47,32.26,151.35,32.66,149.42,32.66z M133.75,13.56h5.02v18.75h-5.02V13.56z M121.92,23.66l-1.05-1.73
	l-0.05,0.02l0.03,2.03v8.32h-4.3V13.56h4.1l6.02,9.72l0.05-0.02l-0.05-2l0.03-7.7h4.3v18.75h-3.47L121.92,23.66z M108.77,13.56h5.02
	v18.75h-5.02V13.56z M106.7,28.08l-0.1,4.22H94.52V13.56h11.75l0.1,4.3H99.4v2.9h5.75v3.92H99.4v3.4H106.7z M87.65,32.31l-2.5-6.7
	H83.5v6.7h-4.87V13.56h6.47c4.75,0,7.1,1.8,7.1,6.02c0,2.5-0.9,4.35-2.55,5.05l3.65,7.67H87.65z M85.2,17.61h-1.7v4.32h1.67
	c1.43,0,1.93-0.35,1.93-2.17C87.1,18.06,86.62,17.61,85.2,17.61z M72.87,32.31H67.9V17.93h-4.25l0.1-4.37h13.27l0.1,4.37h-4.25
	V32.31z M55.7,21.23h5.72l-0.02,4.15h-5.7v6.92h-4.9V13.56h11.72l0.08,4.37h-6.9V21.23z M41.27,32.63c-4.8,0-7.22-2.3-7.22-6.7
	V13.56h4.9v12.27c0,1.67,0.65,2.42,2.32,2.42c1.7,0,2.27-0.7,2.27-2.42V13.56h4.87v12.37C48.42,30.33,46.07,32.63,41.27,32.63z
	 M21.5,32.31V13.56h4.92v14.4h6.37l-0.12,4.35H21.5z"/>
</svg>
