<?xml version="1.0" encoding="utf-8"?>
<!-- Generator: Adobe Illustrator 23.1.1, SVG Export Plug-In . SVG Version: 6.00 Build 0)  -->
<!DOCTYPE svg PUBLIC "-//W3C//DTD SVG 1.1//EN" "http://www.w3.org/Graphics/SVG/1.1/DTD/svg11.dtd" [
	<!ENTITY ns_extend "http://ns.adobe.com/Extensibility/1.0/">
	<!ENTITY ns_ai "http://ns.adobe.com/AdobeIllustrator/10.0/">
	<!ENTITY ns_graphs "http://ns.adobe.com/Graphs/1.0/">
	<!ENTITY ns_vars "http://ns.adobe.com/Variables/1.0/">
	<!ENTITY ns_imrep "http://ns.adobe.com/ImageReplacement/1.0/">
	<!ENTITY ns_sfw "http://ns.adobe.com/SaveForWeb/1.0/">
	<!ENTITY ns_custom "http://ns.adobe.com/GenericCustomNamespace/1.0/">
	<!ENTITY ns_adobe_xpath "http://ns.adobe.com/XPath/1.0/">
]>
<svg version="1.1" id="Ebene_1" xmlns:x="&ns_extend;" xmlns:i="&ns_ai;" xmlns:graph="&ns_graphs;"
	 xmlns="http://www.w3.org/2000/svg" xmlns:xlink="http://www.w3.org/1999/xlink" x="0px" y="0px" viewBox="0 0 321.23 45.89"
	 style="enable-background:new 0 0 321.23 45.89;" xml:space="preserve">
<style type="text/css">
	.st0{fill-rule:evenodd;clip-rule:evenodd;}
</style>
<metadata>
	<sfw  xmlns="&ns_sfw;">
		<slices></slices>
		<sliceSourceBounds  bottomLeftOrigin="true" height="19.4" width="294.77" x="11.45" y="43.44"></sliceSourceBounds>
	</sfw>
</metadata>
<path class="st0" d="M303.72,34.3c-1.75,0-2.52-0.67-2.52-2.38c0-1.52,0.77-2.4,2.52-2.4c1.75,0,2.5,0.88,2.5,2.4
	C306.22,33.35,305.47,34.3,303.72,34.3z M299.85,29.78l-0.1,4.22h-12.07V15.26h11.75l0.1,4.3h-6.97v2.9h5.75v3.92h-5.75v3.4H299.85z
	 M282.32,30.08c1.15,0,2.22-0.23,3.1-0.62l0.45,3.97c-1.12,0.55-2.82,0.9-4.27,0.9c-5.35,0-7.95-3.05-7.95-9.8
	c0-6.3,2.52-9.6,8.25-9.6c1.32,0,2.95,0.3,3.95,0.7l-0.48,4.15c-0.83-0.3-1.95-0.5-3.12-0.5c-2.77,0-3.47,1.17-3.47,5.27
	C278.77,28.88,279.55,30.08,282.32,30.08z M262.52,25.36l-1.05-1.73l-0.05,0.02l0.02,2.03V34h-4.3V15.26h4.1l6.02,9.72l0.05-0.02
	l-0.05-2l0.02-7.7h4.3V34h-3.48L262.52,25.36z M249.72,30.73h-5.1L243.9,34h-5.17l5.55-18.75h5.97L255.89,34h-5.45L249.72,30.73z
	 M247.62,21.28l-0.37-2h-0.08l-0.42,2l-1.2,5.37h3.27L247.62,21.28z M227.15,34V15.26h4.92v14.4h6.37L238.32,34H227.15z
	 M219.72,30.73h-5.1L213.9,34h-5.17l5.55-18.75h5.97L225.9,34h-5.45L219.72,30.73z M217.62,21.28l-0.38-2h-0.08l-0.42,2l-1.2,5.37
	h3.28L217.62,21.28z M208.45,28.48c0,3.37-2.02,5.52-6.7,5.52h-7.3V15.26h7.35c4.02,0,6.07,1.87,6.07,4.85c0,1.98-0.9,3.25-2.3,3.92
	v0.05C207.45,24.71,208.45,26.16,208.45,28.48z M201.6,19.36h-2.42v3.3h2.47c1.12,0,1.52-0.43,1.52-1.7
	C203.17,19.73,202.75,19.36,201.6,19.36z M201.72,26.31h-2.55v3.7h2.65c1.22,0,1.68-0.4,1.68-1.88
	C203.5,26.83,203.1,26.31,201.72,26.31z M185.27,23.01h6.97v3.25h-6.97V23.01z M178.2,26.66h-4.55V34h-4.87V15.26h4.87v7.02h4.55
	v-7.02h4.9V34h-4.9V26.66z M163.02,34h-4.97V19.63h-4.25l0.1-4.37h13.27l0.1,4.37h-4.25V34z M149.82,34l-0.73-3.27H144L143.27,34
	h-5.17l5.55-18.75h5.97L155.27,34H149.82z M147,21.28l-0.38-2h-0.08l-0.42,2l-1.2,5.37h3.27L147,21.28z M137.55,29.78l-0.1,4.22
	h-12.07V15.26h11.75l0.1,4.3h-6.97v2.9H136v3.92h-5.75v3.4H137.55z M118.5,34l-2.5-6.7h-1.65V34h-4.87V15.26h6.47
	c4.75,0,7.1,1.8,7.1,6.02c0,2.5-0.9,4.35-2.55,5.05l3.65,7.67H118.5z M116.05,19.31h-1.7v4.32h1.67c1.43,0,1.93-0.35,1.93-2.17
	C117.95,19.76,117.47,19.31,116.05,19.31z M107.52,28.48c0,3.37-2.03,5.52-6.7,5.52h-7.3V15.26h7.35c4.02,0,6.07,1.87,6.07,4.85
	c0,1.98-0.9,3.25-2.3,3.92v0.05C106.52,24.71,107.52,26.16,107.52,28.48z M100.67,19.36h-2.42v3.3h2.47c1.12,0,1.52-0.43,1.52-1.7
	C102.25,19.73,101.82,19.36,100.67,19.36z M100.8,26.31h-2.55v3.7h2.65c1.22,0,1.68-0.4,1.68-1.88
	C102.57,26.83,102.17,26.31,100.8,26.31z M84.35,23.01h6.97v3.25h-6.97V23.01z M84.57,34h-5.75l-3.52-7.62h-1.2V34h-4.87V15.26h4.87
	v7.25h1.3l3.47-7.25h5.47l-4.5,8.97L84.57,34z M62.35,34l-2.5-6.7H58.2V34h-4.87V15.26h6.47c4.75,0,7.1,1.8,7.1,6.02
	c0,2.5-0.9,4.35-2.55,5.05L68,34H62.35z M59.9,19.31h-1.7v4.32h1.67c1.42,0,1.92-0.35,1.92-2.17C61.8,19.76,61.32,19.31,59.9,19.31z
	 M43.42,34.33c-5.4,0-7.85-2.85-7.85-9.7c0-6.87,2.35-9.67,7.85-9.67s7.85,2.8,7.85,9.67C51.27,31.68,48.92,34.33,43.42,34.33z
	 M43.4,19.33c-2.05,0-2.7,0.85-2.7,5.3c0,4.47,0.67,5.37,2.75,5.37c2.07,0,2.7-0.92,2.7-5.37C46.15,20.16,45.52,19.33,43.4,19.33z
	 M25.3,34l-1.75-11.37l-0.25-2.03h-0.07l-0.28,2.03L21.22,34h-5.85l-3.92-18.75h5.1l1.65,11.82l0.25,2h0.07l0.27-2l1.95-11.82h5.2
	l1.98,11.72l0.3,2h0.08l0.22-2l1.67-11.72h4.87L31.15,34H25.3z"/>
</svg>
