<svg enable-background="new 0 0 36.8 37.29" viewBox="0 0 36.8 37.29" xmlns="http://www.w3.org/2000/svg" xmlns:xlink="http://www.w3.org/1999/xlink"><clipPath id="a"><path d="m0 0h36.8v37.29h-36.8z"/></clipPath><path clip-path="url(#a)" d="m24.56 24.02c-1.91 3.19-6.31 4.06-9.81 1.95-3.51-2.11-4.8-6.4-2.88-9.58s9.59-6.68 11.84-5.33c3.31 1.98 2.77 9.77.85 12.96"/><path clip-path="url(#a)" d="m36.36 11.87c-1.52.64-3.64 1.79-5.48 3.69-3.31 3.44-6.83.91-6.83.91m.26 20.53s-1.13-4.19.35-8.73c1.48-4.53-2.4-6.46-2.4-6.46m7.9 6.95c-.02-.21-.57-7.31-6.82-9.56m-6.56-19.1c.15 1.65.13 4.06-.69 6.57-1.48 4.53 2.4 6.46 2.4 6.46m-18.24 9.42s4.23-.97 7.54-4.41 6.83-.91 6.83-.91m-9.84-3.72c.19-.08 6.72-2.93 11.64 1.53" fill="none" stroke="#000" stroke-miterlimit="10" stroke-width="2.254"/></svg>