<?xml version="1.0" encoding="utf-8"?>
<!-- Generator: Adobe Illustrator 16.0.0, SVG Export Plug-In . SVG Version: 6.00 Build 0)  -->
<!DOCTYPE svg PUBLIC "-//W3C//DTD SVG 1.1//EN" "http://www.w3.org/Graphics/SVG/1.1/DTD/svg11.dtd">
<svg version="1.1" id="Ebene_1" xmlns="http://www.w3.org/2000/svg" xmlns:xlink="http://www.w3.org/1999/xlink" x="0px" y="0px"
	 width="92.339px" height="11.713px" viewBox="0 0 92.339 11.713" enable-background="new 0 0 92.339 11.713" xml:space="preserve">
<g id="Text">
	<g>
		<path fill="#1A1A18" d="M1.642,1.238v0.871h1.51L3.145,3.203H1.642v1.826H0.35V0.084h3.092l0.02,1.154H1.642z"/>
		<path fill="#1A1A18" d="M6.876,3.881L6.843,5.029H3.896V0.084h1.299v3.797H6.876z"/>
		<path fill="#1A1A18" d="M10.508,3.914L10.48,5.029H7.297V0.084h3.099l0.026,1.135h-1.84v0.764h1.517v1.035H8.582v0.896H10.508z"/>
		<path fill="#1A1A18" d="M13.75,2.438l1.213,2.592H13.52l-0.475-1.193L12.86,3.334h-0.02l-0.185,0.502l-0.468,1.193h-1.47
			l1.186-2.551L10.73,0.083h1.51L12.656,1.1l0.191,0.494h0.02L13.059,1.1l0.428-1.016h1.451L13.75,2.438z"/>
		<path fill="#1A1A18" d="M15.404,0.084h1.325v4.945h-1.325V0.084z"/>
		<path fill="#1A1A18" d="M19.379,5.029h-1.925V0.084h1.938c1.061,0,1.602,0.496,1.602,1.279c0,0.521-0.237,0.857-0.606,1.035v0.014
			c0.494,0.164,0.758,0.547,0.758,1.16C21.146,4.461,20.611,5.029,19.379,5.029z M19.34,1.166H18.7v0.869h0.652
			c0.297,0,0.402-0.111,0.402-0.447C19.755,1.266,19.643,1.166,19.34,1.166z M19.373,2.998H18.7v0.977h0.698
			c0.323,0,0.442-0.105,0.442-0.494C19.841,3.137,19.735,2.998,19.373,2.998z"/>
		<path fill="#1A1A18" d="M24.87,3.914l-0.026,1.115H21.66V0.084h3.098l0.026,1.135h-1.839v0.764h1.516v1.035h-1.516v0.896H24.87z"
			/>
		<path fill="#1A1A18" d="M28.344,3.881l-0.033,1.148h-2.946V0.084h1.298v3.797H28.344z"/>
		<path fill="#1A1A18" d="M33.155,3.006l0.962,2.023h-1.489l-0.659-1.768h-0.436v1.768h-1.285V0.084h1.707
			c1.253,0,1.873,0.475,1.873,1.59C33.828,2.332,33.59,2.82,33.155,3.006z M31.982,1.152h-0.449v1.141h0.442
			c0.376,0,0.507-0.092,0.507-0.574C32.482,1.271,32.357,1.152,31.982,1.152z"/>
		<path fill="#1A1A18" d="M37.65,3.914l-0.026,1.115H34.44V0.084h3.098l0.026,1.135h-1.839v0.764h1.517v1.035h-1.517v0.896H37.65z"
			/>
		<path fill="#1A1A18" d="M38.197,0.084h1.325v4.945h-1.325V0.084z"/>
		<path fill="#1A1A18" d="M43.141,5.029l-1.477-2.281l-0.276-0.455l-0.013,0.006l0.006,0.535v2.195h-1.134V0.084h1.081l1.589,2.564
			l0.013-0.006l-0.013-0.527l0.007-2.031h1.134v4.945H43.141z"/>
		<path fill="#1A1A18" d="M44.782,0.084h1.325v4.945h-1.325V0.084z"/>
		<path fill="#1A1A18" d="M50.326,4.852c-0.343,0.164-0.902,0.27-1.41,0.27c-1.636,0-2.215-0.877-2.215-2.564
			C46.701,0.83,47.378,0,48.975,0c0.437,0,0.93,0.078,1.284,0.217l-0.117,1.102c-0.323-0.119-0.738-0.191-1.096-0.191
			c-0.811,0-0.994,0.303-0.994,1.416c0,1.174,0.191,1.432,0.83,1.432c0.1,0,0.205-0.008,0.297-0.027V2.332h1.146V4.852z"/>
		<path fill="#1A1A18" d="M54.123,3.914l-0.026,1.115h-3.185V0.084h3.1l0.025,1.135h-1.84v0.764h1.518v1.035h-1.518v0.896H54.123z"
			/>
		<path fill="#1A1A18" d="M57.509,5.029l-1.477-2.281l-0.275-0.455l-0.014,0.006l0.006,0.535v2.195h-1.133V0.084h1.08l1.59,2.564
			l0.012-0.006l-0.012-0.527l0.006-2.031h1.135v4.945H57.509z"/>
		<path fill="#1A1A18" d="M62,0.084l0.869,2.5l0.166,0.506h0.02l0.165-0.5l0.883-2.506h1.424v4.945h-1.18v-2.07l0.014-0.533
			l-0.021-0.008l-0.166,0.514l-0.73,2.098h-0.837L61.88,2.94l-0.164-0.514l-0.014,0.006l0.006,0.533v2.064h-1.127V0.084H62z"/>
		<path fill="#1A1A18" d="M66.25,0.084h1.326v4.945H66.25V0.084z"/>
		<path fill="#1A1A18" d="M70.455,1.238v3.791h-1.312V1.238h-1.12l0.025-1.154h3.5l0.027,1.154H70.455z"/>
		<path fill="#1A1A18" d="M76.005,4.166H74.66L74.47,5.029h-1.364l1.463-4.945h1.575l1.49,4.945h-1.438L76.005,4.166z M75.221,1.674
			L74.904,3.09h0.863l-0.316-1.416l-0.099-0.527h-0.021L75.221,1.674z"/>
		<path fill="#1A1A18" d="M80.494,5.029l-0.93-2.012h-0.316v2.012h-1.285V0.084h1.285v1.912h0.344l0.916-1.912h1.443l-1.187,2.367
			l1.246,2.578H80.494z"/>
		<path fill="#1A1A18" d="M84.904,5.029l-0.93-2.012h-0.316v2.012h-1.285V0.084h1.285v1.912h0.344l0.916-1.912h1.443l-1.188,2.367
			l1.246,2.578H84.904z"/>
		<path fill="#1A1A18" d="M90.526,3.348c0,1.16-0.618,1.768-1.885,1.768s-1.905-0.607-1.905-1.768V0.084h1.292v3.238
			c0,0.441,0.171,0.639,0.613,0.639c0.448,0,0.601-0.186,0.601-0.639V0.084h1.284V3.348z"/>
		<path fill="#1A1A18" d="M91.68,2.537c-0.461,0-0.666-0.178-0.666-0.627c0-0.402,0.205-0.633,0.666-0.633
			c0.462,0,0.659,0.23,0.659,0.633C92.339,2.287,92.142,2.537,91.68,2.537z M91.68,5.107c-0.461,0-0.666-0.178-0.666-0.625
			c0-0.402,0.205-0.633,0.666-0.633c0.462,0,0.659,0.23,0.659,0.633C92.339,4.857,92.142,5.107,91.68,5.107z"/>
		<path fill="#1A1A18" d="M2.9,10.758H1.557l-0.191,0.863H0l1.464-4.944h1.575l1.49,4.944H3.092L2.9,10.758z M2.116,8.267L1.8,9.683
			h0.864L2.348,8.267l-0.1-0.527h-0.02L2.116,8.267z"/>
		<path fill="#1A1A18" d="M7.39,11.621L6.46,9.608H6.144v2.013H4.858V6.677h1.285v1.911h0.343l0.916-1.911h1.443L7.66,9.043
			l1.245,2.578H7.39z"/>
		<path fill="#1A1A18" d="M11.424,7.83v3.791h-1.312V7.83h-1.12l0.026-1.153h3.5l0.026,1.153H11.424z"/>
		<path fill="#1A1A18" d="M12.992,6.677h1.324v4.944h-1.324V6.677z"/>
		<path fill="#1A1A18" d="M16.98,11.707c-1.424,0-2.07-0.752-2.07-2.56c0-1.812,0.62-2.551,2.07-2.551s2.069,0.738,2.069,2.551
			C19.05,11.008,18.431,11.707,16.98,11.707z M16.974,7.752c-0.54,0-0.712,0.224-0.712,1.396c0,1.181,0.178,1.418,0.725,1.418
			c0.548,0,0.713-0.244,0.713-1.418C17.699,7.97,17.534,7.752,16.974,7.752z"/>
		<path fill="#1A1A18" d="M22.484,11.621L21.008,9.34L20.73,8.886l-0.014,0.006l0.007,0.535v2.194H19.59V6.677h1.081l1.589,2.562
			l0.014-0.006L22.26,8.707l0.007-2.03H23.4v4.944H22.484z"/>
		<path fill="#1A1A18" d="M25.364,11.707c-0.521,0-1.035-0.119-1.438-0.345l0.165-1.094c0.402,0.203,0.811,0.33,1.239,0.33
			c0.409,0,0.567-0.139,0.567-0.402c0-0.633-1.965-0.436-1.965-2.051c0-0.862,0.527-1.549,1.747-1.549
			c0.454,0,0.942,0.086,1.298,0.236L26.834,7.91c-0.376-0.113-0.752-0.181-1.068-0.181c-0.487,0-0.593,0.146-0.593,0.357
			c0,0.639,1.964,0.422,1.964,2.037C27.137,11.101,26.479,11.707,25.364,11.707z"/>
		<path fill="#1A1A18" d="M31.092,11.442c-0.343,0.164-0.902,0.271-1.41,0.271c-1.635,0-2.215-0.877-2.215-2.563
			c0-1.728,0.679-2.558,2.273-2.558c0.436,0,0.93,0.078,1.286,0.218L30.907,7.91c-0.323-0.119-0.738-0.19-1.094-0.19
			c-0.812,0-0.995,0.303-0.995,1.416c0,1.174,0.19,1.432,0.83,1.432c0.099,0,0.204-0.008,0.297-0.027V8.924h1.146L31.092,11.442
			L31.092,11.442z"/>
		<path fill="#1A1A18" d="M34.889,10.506l-0.026,1.115h-3.184V6.677h3.098l0.026,1.135h-1.839v0.764h1.517V9.61h-1.517v0.896H34.889
			z"/>
		<path fill="#1A1A18" d="M38.29,9.599l0.962,2.022h-1.489l-0.659-1.769h-0.436v1.769h-1.285V6.677h1.707
			c1.253,0,1.873,0.475,1.873,1.59C38.963,8.924,38.725,9.412,38.29,9.599z M37.117,7.744h-0.449v1.142h0.442
			c0.376,0,0.507-0.093,0.507-0.574C37.617,7.862,37.492,7.744,37.117,7.744z"/>
		<path fill="#1A1A18" d="M42.126,10.758h-1.345l-0.191,0.863h-1.364l1.464-4.944h1.575l1.489,4.944h-1.437L42.126,10.758z
			 M40.841,6.438c-0.323,0-0.488-0.125-0.488-0.44c0-0.297,0.165-0.455,0.488-0.455c0.336,0,0.487,0.158,0.487,0.455
			C41.328,6.287,41.177,6.438,40.841,6.438z M41.342,8.267l-0.316,1.416h0.863l-0.316-1.416l-0.099-0.527h-0.021L41.342,8.267z
			 M42.1,6.438c-0.323,0-0.488-0.125-0.488-0.44c0-0.297,0.165-0.455,0.488-0.455c0.336,0,0.488,0.158,0.488,0.455
			C42.588,6.287,42.436,6.438,42.1,6.438z"/>
		<path fill="#1A1A18" d="M45.797,7.83v3.791h-1.312V7.83h-1.12l0.026-1.153h3.5l0.026,1.153H45.797z"/>
		<path fill="#1A1A18" d="M50.523,10.506l-0.025,1.115h-3.185V6.677h3.099l0.026,1.135H48.6v0.764h1.517V9.61H48.6v0.896H50.523z"/>
		<path fill="#1A1A18" d="M53.792,11.707c-0.521,0-1.035-0.119-1.438-0.345l0.165-1.094c0.401,0.203,0.812,0.33,1.239,0.33
			c0.408,0,0.566-0.139,0.566-0.402c0-0.633-1.965-0.436-1.965-2.051c0-0.862,0.527-1.549,1.747-1.549
			c0.455,0,0.942,0.086,1.3,0.236L55.263,7.91c-0.376-0.113-0.751-0.181-1.067-0.181c-0.487,0-0.594,0.146-0.594,0.357
			c0,0.639,1.965,0.422,1.965,2.037C55.566,11.101,54.906,11.707,53.792,11.707z"/>
		<path fill="#1A1A18" d="M56.08,6.677h1.324v4.944H56.08V6.677z"/>
		<path fill="#1A1A18" d="M61.089,7.869c-0.217-0.078-0.514-0.132-0.823-0.132c-0.731,0-0.916,0.31-0.916,1.392
			c0,1.142,0.204,1.457,0.937,1.457c0.303,0,0.586-0.062,0.816-0.166l0.118,1.05c-0.296,0.145-0.744,0.237-1.127,0.237
			c-1.41,0-2.097-0.806-2.097-2.584c0-1.662,0.666-2.531,2.176-2.531c0.35,0,0.777,0.078,1.041,0.185L61.089,7.869z"/>
		<path fill="#1A1A18" d="M64.181,11.621V9.683h-1.2v1.938h-1.285V6.677h1.285V8.53h1.2V6.677h1.292v4.944H64.181z"/>
		<path fill="#1A1A18" d="M69.349,10.506l-0.026,1.115h-3.184V6.677h3.098l0.026,1.135h-1.84v0.764h1.517V9.61h-1.517v0.896H69.349z
			"/>
		<path fill="#1A1A18" d="M72.75,9.599l0.963,2.022h-1.489l-0.66-1.769h-0.435v1.769h-1.285V6.677h1.707
			c1.253,0,1.871,0.475,1.871,1.59C73.421,8.924,73.185,9.412,72.75,9.599z M71.576,7.744h-0.447v1.142h0.44
			c0.376,0,0.509-0.093,0.509-0.574C72.078,7.862,71.953,7.744,71.576,7.744z"/>
		<path fill="#1A1A18" d="M76.929,11.621L75.453,9.34l-0.277-0.454l-0.014,0.006l0.008,0.535v2.194h-1.135V6.677h1.082l1.588,2.562
			l0.014-0.006l-0.014-0.526l0.006-2.03h1.135v4.944H76.929z"/>
		<path fill="#1A1A18" d="M78.643,10.146l-0.187-3.469h1.299l-0.178,3.469H78.643z M79.13,11.698c-0.441,0-0.641-0.163-0.641-0.565
			c0-0.362,0.198-0.579,0.641-0.579c0.447,0,0.646,0.217,0.646,0.579C79.775,11.47,79.578,11.698,79.13,11.698z"/>
	</g>
</g>
<g id="Screens">
</g>
</svg>
