<?xml version="1.0" encoding="utf-8"?>
<!-- Generator: Adobe Illustrator 16.0.4, SVG Export Plug-In . SVG Version: 6.00 Build 0)  -->
<!DOCTYPE svg PUBLIC "-//W3C//DTD SVG 1.1//EN" "http://www.w3.org/Graphics/SVG/1.1/DTD/svg11.dtd">
<svg version="1.1" id="Ebene_1" xmlns="http://www.w3.org/2000/svg" xmlns:xlink="http://www.w3.org/1999/xlink" x="0px" y="0px"
	 width="261.885px" height="65.074px" viewBox="0 0 261.885 65.074" enable-background="new 0 0 261.885 65.074"
	 xml:space="preserve">
<g>
	<path d="M13.422,11.178c0,3.872-2.068,5.896-6.293,5.896S0.77,15.05,0.77,11.178V0.285h4.312V11.09
		c0,1.474,0.572,2.134,2.046,2.134c1.496,0,2.002-0.616,2.002-2.134V0.285h4.291V11.178z"/>
	<path d="M25.169,16.788l-4.929-7.613l-0.924-1.519l-0.044,0.022l0.022,1.782v7.327H15.51V0.285h3.608l5.303,8.56l0.044-0.022
		l-0.044-1.76l0.022-6.777h3.784v16.503H25.169z"/>
	<path d="M34.782,17.074c-1.738,0-3.454-0.396-4.796-1.145l0.55-3.652c1.342,0.682,2.707,1.1,4.137,1.1
		c1.364,0,1.892-0.461,1.892-1.342c0-2.112-6.557-1.452-6.557-6.843c0-2.882,1.76-5.171,5.831-5.171
		c1.519,0,3.146,0.286,4.335,0.793L39.689,4.4c-1.254-0.374-2.508-0.594-3.564-0.594c-1.628,0-1.98,0.483-1.98,1.188
		c0,2.135,6.557,1.408,6.557,6.799C40.701,15.05,38.501,17.074,34.782,17.074z"/>
	<path d="M52.955,13.069l-0.088,3.719H42.239V0.285h10.342l0.088,3.785H46.53v2.553h5.061v3.454H46.53v2.992H52.955z"/>
	<path d="M64.307,10.033l3.212,6.755h-4.973l-2.201-5.897h-1.452v5.897h-4.291V0.285h5.699c4.181,0,6.249,1.585,6.249,5.303
		C66.551,7.789,65.759,9.417,64.307,10.033z M60.39,3.85h-1.497v3.807h1.475c1.254,0,1.694-0.308,1.694-1.914
		C62.062,4.246,61.644,3.85,60.39,3.85z"/>
	<path d="M79.311,13.069l-0.088,3.719H68.595V0.285h10.342l0.088,3.785h-6.139v2.553h5.061v3.454h-5.061v2.992H79.311z"/>
	<path d="M95.612,10.033l3.212,6.755h-4.973l-2.2-5.897h-1.453v5.897h-4.291V0.285h5.699c4.181,0,6.249,1.585,6.249,5.303
		C97.856,7.789,97.064,9.417,95.612,10.033z M91.695,3.85h-1.497v3.807h1.475c1.254,0,1.694-0.308,1.694-1.914
		C93.367,4.246,92.949,3.85,91.695,3.85z"/>
	<path d="M110.616,13.069l-0.088,3.719H99.9V0.285h10.342l0.088,3.785h-6.139v2.553h5.061v3.454h-5.061v2.992H110.616z"/>
	<path d="M112.44,0.285h4.422v16.503h-4.422V0.285z"/>
	<path d="M128.941,16.788l-4.929-7.613l-0.924-1.519l-0.044,0.022l0.022,1.782v7.327h-3.785V0.285h3.608l5.303,8.56l0.044-0.022
		l-0.044-1.76l0.022-6.777h3.784v16.503H128.941z"/>
	<path d="M134.417,0.285h4.422v16.503h-4.422V0.285z"/>
	<path d="M152.92,16.193c-1.144,0.551-3.014,0.902-4.708,0.902c-5.457,0-7.393-2.926-7.393-8.559c0-5.766,2.266-8.537,7.591-8.537
		c1.452,0,3.102,0.264,4.291,0.726L152.305,4.4c-1.078-0.396-2.464-0.639-3.653-0.639c-2.707,0-3.322,1.013-3.322,4.73
		c0,3.918,0.638,4.775,2.772,4.775c0.33,0,0.682-0.021,0.99-0.088V7.789h3.829V16.193z"/>
	<path d="M167.375,11.178c0,3.872-2.068,5.896-6.293,5.896s-6.359-2.024-6.359-5.896V0.285h4.312V11.09
		c0,1.474,0.572,2.134,2.046,2.134c1.496,0,2.002-0.616,2.002-2.134V0.285h4.291V11.178z"/>
	<path d="M179.122,16.788l-4.929-7.613l-0.924-1.519l-0.044,0.022l0.022,1.782v7.327h-3.785V0.285h3.608l5.303,8.56l0.044-0.022
		l-0.044-1.76l0.022-6.777h3.784v16.503H179.122z"/>
	<path d="M196.084,16.193c-1.144,0.551-3.014,0.902-4.708,0.902c-5.457,0-7.393-2.926-7.393-8.559c0-5.766,2.266-8.537,7.591-8.537
		c1.453,0,3.103,0.264,4.291,0.726L195.468,4.4c-1.079-0.396-2.464-0.639-3.653-0.639c-2.706,0-3.322,1.013-3.322,4.73
		c0,3.918,0.638,4.775,2.772,4.775c0.33,0,0.682-0.021,0.99-0.088V7.789h3.829V16.193z"/>
	<path d="M202.353,17.074c-1.738,0-3.454-0.396-4.796-1.145l0.55-3.652c1.342,0.682,2.707,1.1,4.137,1.1
		c1.364,0,1.892-0.461,1.892-1.342c0-2.112-6.557-1.452-6.557-6.843c0-2.882,1.76-5.171,5.831-5.171
		c1.519,0,3.146,0.286,4.335,0.793L207.259,4.4c-1.254-0.374-2.508-0.594-3.564-0.594c-1.628,0-1.98,0.483-1.98,1.188
		c0,2.135,6.557,1.408,6.557,6.799C208.271,15.05,206.071,17.074,202.353,17.074z"/>
	<path d="M215.641,7.106v2.86h-6.139v-2.86H215.641z"/>
	<path d="M8.119,28.137v12.651H3.74V28.137H0l0.088-3.852h11.684l0.088,3.852H8.119z"/>
	<path d="M23.894,37.069l-0.088,3.719H13.178V24.285H23.52l0.088,3.785h-6.139v2.553h5.061v3.454h-5.061v2.992H23.894z"/>
	<path d="M35.113,28.268c-0.726-0.264-1.716-0.439-2.75-0.439c-2.442,0-3.058,1.034-3.058,4.643c0,3.807,0.682,4.863,3.125,4.863
		c1.012,0,1.958-0.198,2.728-0.551l0.396,3.499c-0.99,0.483-2.487,0.792-3.763,0.792c-4.709,0-6.997-2.685-6.997-8.625
		c0-5.545,2.222-8.449,7.261-8.449c1.166,0,2.596,0.264,3.476,0.615L35.113,28.268z"/>
	<path d="M45.431,40.788v-6.469h-4.005v6.469h-4.291V24.285h4.291v6.184h4.005v-6.184h4.312v16.503H45.431z"/>
	<path d="M61.624,40.788l-4.929-7.613l-0.924-1.519l-0.044,0.022l0.022,1.782v7.327h-3.785V24.285h3.608l5.303,8.56l0.044-0.022
		l-0.044-1.76l0.022-6.777h3.784v16.503H61.624z"/>
	<path d="M67.1,24.285h4.422v16.503H67.1V24.285z"/>
	<path d="M82.391,40.788l-3.103-6.711h-1.056v6.711h-4.291V24.285h4.291v6.381h1.145l3.058-6.381h4.819l-3.96,7.9l4.159,8.603
		H82.391z"/>
	<path d="M97.921,28.137v2.904h5.039l-0.022,3.652h-5.017v6.095h-4.312V24.285h10.32l0.066,3.852H97.921z"/>
	<path d="M117.943,35.178c0,3.872-2.068,5.896-6.293,5.896s-6.359-2.024-6.359-5.896V24.285h4.312V35.09
		c0,1.474,0.572,2.134,2.046,2.134c1.496,0,2.002-0.616,2.002-2.134V24.285h4.291V35.178z M109.56,23.494
		c-1.078,0-1.628-0.418-1.628-1.475c0-0.99,0.55-1.519,1.628-1.519c1.122,0,1.628,0.528,1.628,1.519
		C111.188,22.987,110.682,23.494,109.56,23.494z M113.762,23.494c-1.078,0-1.628-0.418-1.628-1.475c0-0.99,0.55-1.519,1.628-1.519
		c1.122,0,1.628,0.528,1.628,1.519C115.39,22.987,114.884,23.494,113.762,23.494z"/>
	<path d="M129.734,34.033l3.212,6.755h-4.973l-2.201-5.897h-1.452v5.897h-4.291V24.285h5.699c4.181,0,6.249,1.585,6.249,5.303
		C131.979,31.789,131.187,33.417,129.734,34.033z M125.818,27.85h-1.497v3.807h1.475c1.254,0,1.694-0.308,1.694-1.914
		C127.49,28.246,127.072,27.85,125.818,27.85z"/>
	<path d="M145.441,41.074c-4.753,0-6.909-2.508-6.909-8.537c0-6.051,2.068-8.516,6.909-8.516c4.84,0,6.909,2.465,6.909,8.516
		C152.35,38.742,150.282,41.074,145.441,41.074z M145.419,27.872c-1.804,0-2.376,0.748-2.376,4.665c0,3.938,0.594,4.73,2.42,4.73
		c1.826,0,2.376-0.814,2.376-4.73C147.839,28.598,147.29,27.872,145.419,27.872z"/>
	<path d="M159.807,35.661h-1.364v5.127h-4.291V24.285h5.655c4.577,0,6.403,1.783,6.403,5.81
		C166.209,33.659,164.427,35.661,159.807,35.661z M159.807,27.872h-1.364v4.379h1.364c1.408,0,1.937-0.33,1.937-2.179
		C161.743,28.29,161.325,27.872,159.807,27.872z"/>
	<path d="M174.943,28.137v12.651h-4.379V28.137h-3.74l0.088-3.852h11.684l0.088,3.852H174.943z"/>
	<path d="M180.178,24.285h4.422v16.503h-4.422V24.285z"/>
	<path d="M191.75,24.285l2.904,8.34l0.55,1.694h0.066l0.55-1.673l2.949-8.361h4.752v16.503h-3.938v-6.909l0.044-1.782l-0.066-0.022
		l-0.55,1.717l-2.442,6.997h-2.794l-2.42-6.976l-0.55-1.716l-0.044,0.022l0.022,1.781v6.888h-3.763V24.285H191.75z"/>
	<path d="M205.939,24.285h4.422v16.503h-4.422V24.285z"/>
	<path d="M223.496,37.069l-0.088,3.719H212.78V24.285h10.342l0.088,3.785h-6.139v2.553h5.061v3.454h-5.061v2.992H223.496z"/>
	<path d="M234.848,34.033l3.212,6.755h-4.973l-2.2-5.897h-1.452v5.897h-4.291V24.285h5.699c4.181,0,6.249,1.585,6.249,5.303
		C237.092,31.789,236.3,33.417,234.848,34.033z M230.931,27.85h-1.496v3.807h1.475c1.254,0,1.694-0.308,1.694-1.914
		C232.604,28.246,232.186,27.85,230.931,27.85z"/>
	<path d="M246.11,28.137v12.651h-4.379V28.137h-3.74l0.088-3.852h11.684l0.088,3.852H246.11z"/>
	<path d="M261.885,37.069l-0.088,3.719h-10.628V24.285h10.342l0.088,3.785h-6.139v2.553h5.061v3.454h-5.061v2.992H261.885z"/>
	<path d="M7.349,64.788H0.924V48.285h6.469c3.542,0,5.347,1.65,5.347,4.27c0,1.738-0.792,2.859-2.024,3.454v0.044
		c1.65,0.551,2.53,1.826,2.53,3.873C13.246,62.896,11.463,64.788,7.349,64.788z M7.217,51.895H5.083v2.904h2.178
		c0.99,0,1.342-0.374,1.342-1.496C8.603,52.225,8.229,51.895,7.217,51.895z M7.327,58.012H5.083v3.256h2.333
		c1.078,0,1.474-0.352,1.474-1.65C8.889,58.473,8.537,58.012,7.327,58.012z"/>
	<path d="M25.675,61.069l-0.088,3.719H14.959V48.285h10.342l0.088,3.785H19.25v2.553h5.061v3.454H19.25v2.992H25.675z"/>
	<path d="M34.519,52.137v12.651H30.14V52.137h-3.74l0.088-3.852h11.684l0.088,3.852H34.519z"/>
	<path d="M49.281,58.033l3.212,6.755h-4.973l-2.2-5.897h-1.453v5.897h-4.291V48.285h5.699c4.181,0,6.249,1.585,6.249,5.303
		C51.525,55.789,50.733,57.417,49.281,58.033z M45.364,51.85h-1.497v3.807h1.475c1.254,0,1.694-0.308,1.694-1.914
		C47.036,52.246,46.618,51.85,45.364,51.85z"/>
	<path d="M53.745,48.285h4.422v16.503h-4.422V48.285z"/>
	<path d="M71.302,61.069l-0.088,3.719H60.586V48.285h10.342l0.088,3.785h-6.139v2.553h5.061v3.454h-5.061v2.992H71.302z"/>
	<path d="M79.375,64.788H72.95V48.285h6.469c3.542,0,5.347,1.65,5.347,4.27c0,1.738-0.792,2.859-2.024,3.454v0.044
		c1.65,0.551,2.53,1.826,2.53,3.873C85.272,62.896,83.49,64.788,79.375,64.788z M79.243,51.895h-2.134v2.904h2.178
		c0.99,0,1.342-0.374,1.342-1.496C80.629,52.225,80.255,51.895,79.243,51.895z M79.353,58.012h-2.244v3.256h2.333
		c1.078,0,1.474-0.352,1.474-1.65C80.916,58.473,80.563,58.012,79.353,58.012z"/>
	<path d="M91.298,65.074c-1.738,0-3.454-0.396-4.796-1.145l0.55-3.652c1.342,0.682,2.707,1.1,4.137,1.1
		c1.364,0,1.893-0.461,1.893-1.342c0-2.112-6.557-1.452-6.557-6.843c0-2.882,1.76-5.171,5.831-5.171
		c1.519,0,3.146,0.286,4.335,0.793L96.205,52.4c-1.254-0.374-2.508-0.594-3.564-0.594c-1.628,0-1.98,0.483-1.98,1.188
		c0,2.135,6.557,1.408,6.557,6.799C97.217,63.05,95.017,65.074,91.298,65.074z"/>
	<path d="M104.41,59.661h-1.364v5.127h-4.291V48.285h5.655c4.577,0,6.403,1.783,6.403,5.81
		C110.813,57.659,109.031,59.661,104.41,59.661z M104.41,51.872h-1.364v4.379h1.364c1.408,0,1.937-0.33,1.937-2.179
		C106.347,52.29,105.929,51.872,104.41,51.872z"/>
	<path d="M122.077,58.033l3.212,6.755h-4.973l-2.2-5.897h-1.453v5.897h-4.291V48.285h5.699c4.181,0,6.249,1.585,6.249,5.303
		C124.321,55.789,123.529,57.417,122.077,58.033z M118.16,51.85h-1.497v3.807h1.475c1.254,0,1.694-0.308,1.694-1.914
		C119.832,52.246,119.414,51.85,118.16,51.85z"/>
	<path d="M132.504,65.074c-4.753,0-6.909-2.508-6.909-8.537c0-6.051,2.068-8.516,6.909-8.516c4.84,0,6.909,2.465,6.909,8.516
		C139.413,62.742,137.344,65.074,132.504,65.074z M132.481,51.872c-1.804,0-2.376,0.748-2.376,4.665c0,3.938,0.594,4.73,2.42,4.73
		c1.826,0,2.376-0.814,2.376-4.73C134.902,52.598,134.352,51.872,132.481,51.872z"/>
	<path d="M140.4,64.788v-2.794l5.259-8.361l0.968-1.453l-0.022-0.043h-6.073l0.11-3.852h11.023v3.081l-5.083,8.097l-0.968,1.431
		l0.022,0.065h6.073l-0.066,3.829H140.4z"/>
	<path d="M164.14,61.069l-0.088,3.719h-10.627V48.285h10.342l0.088,3.785h-6.139v2.553h5.061v3.454h-5.061v2.992H164.14z"/>
	<path d="M170.101,65.074c-1.738,0-3.454-0.396-4.796-1.145l0.55-3.652c1.342,0.682,2.707,1.1,4.137,1.1
		c1.364,0,1.892-0.461,1.892-1.342c0-2.112-6.557-1.452-6.557-6.843c0-2.882,1.76-5.171,5.831-5.171
		c1.519,0,3.146,0.286,4.335,0.793l-0.484,3.586c-1.254-0.374-2.508-0.594-3.564-0.594c-1.628,0-1.98,0.483-1.98,1.188
		c0,2.135,6.557,1.408,6.557,6.799C176.02,63.05,173.819,65.074,170.101,65.074z"/>
	<path d="M181.584,65.074c-1.738,0-3.454-0.396-4.796-1.145l0.55-3.652c1.342,0.682,2.707,1.1,4.137,1.1
		c1.364,0,1.893-0.461,1.893-1.342c0-2.112-6.557-1.452-6.557-6.843c0-2.882,1.76-5.171,5.831-5.171
		c1.519,0,3.146,0.286,4.335,0.793l-0.484,3.586c-1.254-0.374-2.508-0.594-3.564-0.594c-1.628,0-1.98,0.483-1.98,1.188
		c0,2.135,6.557,1.408,6.557,6.799C187.503,63.05,185.303,65.074,181.584,65.074z"/>
	<path d="M199.757,61.069l-0.088,3.719h-10.627V48.285h10.342l0.088,3.785h-6.139v2.553h5.061v3.454h-5.061v2.992H199.757z"/>
	<path d="M203.166,65.053c-1.54,0-2.222-0.595-2.222-2.091c0-1.343,0.682-2.112,2.222-2.112c1.541,0,2.2,0.77,2.2,2.112
		C205.366,64.216,204.706,65.053,203.166,65.053z"/>
</g>
</svg>
