<svg enable-background="new 0 0 299.7 78.8" viewBox="0 0 299.7 78.8" xmlns="http://www.w3.org/2000/svg"><path clip-rule="evenodd" d="m278.3 31.9v-10.5c0-2.6-1.5-3.8-4.1-3.8-1.5 0-3.4.7-4.2 2.1v12.1h-1.6v-15.4l1.1-.1.3 1.9h.1c1-1.3 2.8-2 4.7-2 3.3 0 5.3 1.7 5.3 5.3v10.5h-1.6zm-24.3-7.9c.1 5 1.7 6.6 5.4 6.6 1.6 0 3-.4 4.3-1.1l.2 1.4c-1.3.8-2.8 1.2-4.6 1.2-4.9 0-6.9-2.6-6.9-8.6 0-4.9 2.1-7.5 6.2-7.5 3.5 0 5.9 2.1 5.9 7.1 0 .2 0 .6-.1.8h-10.4zm4.5-6.5c-3 0-4.4 1.8-4.6 5.4h9c0-3.9-1.8-5.4-4.4-5.4zm-9.8 3.1c0 2.9-1.3 4.5-5.2 4.5-.7 0-1.5-.1-2.2-.3-1 .2-1.6.8-1.6 1.4s.5 1.1 1.8 1.2l3.6.4c3.8.4 4.9 1.5 4.9 3.6 0 2.7-1.6 4.5-6.3 4.5-4.1 0-5.8-1.6-5.8-4.1 0-1.2.6-2.3 1.7-3.2-.8-.3-1.4-1-1.4-2.1 0-.9.7-1.8 2-2.2-1.1-.6-1.9-1.8-1.9-3.7 0-2.9 1.5-4.5 5.2-4.5 1.3 0 2.8.3 3.8 1.1l2.5-1.1.4.8-2 1.3c.3.7.5 1.4.5 2.4zm-9.4 11c0 1.8 1.3 2.9 4.3 2.9 3.8 0 4.8-1.2 4.8-3.8 0-.4-.7-1.2-3.7-1.4l-3.8-.4c-1 .7-1.6 1.8-1.6 2.7zm4.2-14.1c-2.7 0-3.7 1.1-3.7 3.2 0 2.6 1.6 3.2 3.6 3.2 2.8 0 3.7-1.1 3.7-3.2.1-2.4-1-3.2-3.6-3.2zm-11.1 3.9c0-2.6-1.5-3.8-4.1-3.8-1.5 0-3.4.7-4.2 2.1v12.1h-1.6v-15.4l1.1-.1.3 1.9h.1c1.1-1.3 2.8-2 4.7-2 3.3 0 5.3 1.7 5.3 5.3v10.5h-1.6zm-20.3 10.8c-3.9 0-5.7-2-5.7-5.2v-10.6h1.6v10.5c0 2.4 1.4 3.7 4.1 3.7s4.2-1.3 4.2-3.7v-10.5h1.6v10.6c-.1 3.2-2 5.2-5.8 5.2zm-10.2-11.6c0 2.9-1.3 4.5-5.2 4.5-.7 0-1.5-.1-2.2-.3-1 .2-1.6.8-1.6 1.4s.5 1.1 1.8 1.2l3.6.4c3.8.4 4.9 1.5 4.9 3.6 0 2.7-1.6 4.5-6.3 4.5-4.1 0-5.8-1.6-5.8-4.1 0-1.2.6-2.3 1.7-3.2-.8-.3-1.4-1-1.4-2.1 0-.9.7-1.8 2-2.2-1.1-.6-1.9-1.8-1.9-3.7 0-2.9 1.5-4.5 5.2-4.5 1.3 0 2.8.3 3.8 1.1l2.5-1.1.4.8-2 1.3c.3.7.5 1.4.5 2.4zm-9.4 11c0 1.8 1.3 2.9 4.3 2.9 3.8 0 4.8-1.2 4.8-3.8 0-.4-.7-1.2-3.7-1.4l-3.8-.4c-1 .7-1.6 1.8-1.6 2.7zm4.2-14.1c-2.7 0-3.7 1.1-3.7 3.2 0 2.6 1.6 3.2 3.6 3.2 2.8 0 3.7-1.1 3.7-3.2.1-2.4-1.1-3.2-3.6-3.2zm-11.2 3.9c0-2.6-1.5-3.8-4.1-3.8-1.5 0-3.4.7-4.2 2.1v12.1h-1.6v-15.4l1.1-.1.3 1.9h.1c1.1-1.3 2.8-2 4.7-2 3.3 0 5.3 1.7 5.3 5.3v10.5h-1.6zm-16.4-8.2c-.8 0-1.2-.3-1.2-1.1 0-.7.4-1.1 1.2-1.1s1.2.4 1.2 1.1c0 .8-.4 1.1-1.2 1.1zm-8 16.9c-1 1.4-2.7 2.1-4.9 2.1-4.3 0-6-2.5-6-8.1 0-5.3 1.8-8 6-8 1.9 0 3.6.7 4.7 2h.1l-.1-2.1v-5l1.6-.1v21h-1.2zm-.2-10.3c-.8-1.3-2.4-2.1-4.3-2.1-3.5 0-4.8 1.9-4.8 6.5 0 4.8 1.2 6.6 4.7 6.6 2.6 0 3.9-1.3 4.4-2.3zm-24.1 4.2c.1 5 1.7 6.6 5.4 6.6 1.6 0 3-.4 4.3-1.1l.2 1.4c-1.3.8-2.8 1.2-4.6 1.2-4.9 0-6.9-2.6-6.9-8.6 0-4.9 2.1-7.5 6.2-7.5 3.5 0 5.9 2.1 5.9 7.1 0 .2 0 .6-.1.8h-10.4zm4.5-6.5c-3 0-4.4 1.8-4.6 5.4h9c0-3.9-1.8-5.4-4.4-5.4zm-15.3 14.7c-2 0-3.8-.8-4.8-2.1h-.1l-.3 1.8h-1.1v-20.9l1.6-.1v5.1 2.1h.1c1.1-1.3 2.8-2 4.8-2 3.6 0 5.9 2 5.9 8 .1 5.9-2.2 8.1-6.1 8.1zm-.2-14.6c-1.9 0-3.5.8-4.4 2.2v8.8c.7 1.2 2.2 2.3 4.4 2.3 2.8 0 4.7-1.4 4.7-6.7s-1.7-6.6-4.7-6.6zm-15.1 14.6c-1.8 0-3.6-.5-4.7-1.4l.3-1.4c1.1.9 2.9 1.5 4.4 1.5 2.6 0 3.7-1.3 3.7-3.1 0-4.1-8.3-2.4-8.3-7.5 0-2.5 1.8-4.1 5.1-4.1 1.5 0 2.8.3 4.1.9l-.2 1.4c-1.3-.6-2.6-.9-3.9-.9-2.2 0-3.6 1-3.6 2.6 0 3.9 8.3 1.9 8.3 7.4 0 2.7-1.6 4.6-5.2 4.6zm-10.2-10.8c0-2.6-1.5-3.8-4.1-3.8-1.5 0-3.4.7-4.2 2.1v12.1h-1.6v-15.4l1.1-.1.3 1.9h.1c1-1.3 2.8-2 4.7-2 3.3 0 5.3 1.7 5.3 5.3v10.5h-1.6zm-5.1 32.1v10.5h-1.6v-10.5c0-2.6-1.5-3.8-4.1-3.8-1.5 0-3.4.7-4.2 2.1v12.1h-1.5v-15.4l1.1-.1.3 1.9h.1c1-1.3 2.8-2 4.7-2 3.2-.1 5.2 1.6 5.2 5.2zm-15.2-21.3c-4.5 0-6.5-2.3-6.5-8.1 0-5.7 2-8 6.5-8s6.5 2.3 6.5 8c0 5.8-2 8.1-6.5 8.1zm0-14.7c-3.5 0-4.9 1.8-4.9 6.6 0 4.9 1.4 6.7 4.9 6.7s4.8-1.8 4.8-6.7c0-4.7-1.3-6.6-4.8-6.6zm-.2 37.8c0 .2 0 .6-.1.8h-10.4c.1 5 1.7 6.6 5.4 6.6 1.6 0 3-.4 4.3-1.1l.2 1.4c-1.3.8-2.8 1.2-4.6 1.2-4.9 0-6.9-2.6-6.9-8.6 0-4.9 2.1-7.5 6.2-7.5 3.5.1 5.9 2.2 5.9 7.2zm-10.5-.3h9c-.1-3.9-1.9-5.4-4.5-5.4-3 0-4.3 1.8-4.5 5.4zm-1.4-41.8c-.8 0-1.2-.3-1.2-1.1 0-.7.4-1.1 1.2-1.1s1.2.4 1.2 1.1c.1.8-.4 1.1-1.2 1.1zm-6.6 47c0 1.9 1 2.6 2.5 2.6.4 0 1-.1 1.3-.2l.1 1.3c-.4.2-1.2.3-1.9.3-2.4 0-3.7-1.3-3.7-3.9v-10.6h-2.4v-1.3h2.6l.3-4.1 1.3-.2v4.2h4.1v1.3h-4.1v10.6zm-2.5-32.1c0 1.9 1 2.6 2.5 2.6.4 0 1-.1 1.3-.2l.1 1.3c-.4.2-1.2.3-1.9.3-2.4 0-3.7-1.3-3.7-3.9v-10.5h-2.3v-1.3h2.4l.3-4.1 1.3-.2v4.2h4v1.3h-4zm-7.2 15 1.6-.1v21h-1.6zm-.5-11.2-5.7-7.7h-2.5v7.7h-1.6v-20.9l1.6-.1v11.9h2.5l5.4-6.4h2l-6 7.1 6.3 8.4zm-4 23.4c0 .2 0 .6-.1.8h-10.4c.1 5 1.7 6.6 5.4 6.6 1.6 0 3-.4 4.3-1.1l.2 1.4c-1.3.8-2.8 1.2-4.6 1.2-4.9 0-6.9-2.6-6.9-8.6 0-4.9 2.1-7.5 6.2-7.5 3.4.1 5.9 2.2 5.9 7.2zm-5.9-5.7c-3 0-4.4 1.8-4.6 5.4h9c0-3.9-1.9-5.4-4.4-5.4zm-7-22.9h-9.4l-1.9 5.2h-1.9l7.5-19.7h2l7.5 19.7h-1.9zm-4-11.2-.7-2h-.1l-.7 2-3.5 9.6h8.3zm-4 32.7c1.3 0 2.8.3 3.8 1.1l2.5-1.1.3.8-2 1.3c.3.6.6 1.4.6 2.4 0 2.9-1.3 4.5-5.2 4.5-.7 0-1.5-.1-2.2-.3-1.1.2-1.6.8-1.6 1.4s.5 1.1 1.8 1.2l3.6.4c3.8.4 4.9 1.5 4.9 3.6 0 2.7-1.6 4.5-6.3 4.5-4.1 0-5.8-1.6-5.8-4.1 0-1.2.6-2.3 1.7-3.2-.8-.3-1.4-1-1.4-2.1 0-.9.7-1.8 2-2.2-1.1-.6-1.9-1.8-1.9-3.7-.1-2.9 1.4-4.5 5.2-4.5zm-4.2 15.5c0 1.8 1.3 2.9 4.3 2.9 3.8 0 4.8-1.2 4.8-2.9 0-1.3-.7-2.1-3.7-2.3l-3.8-.4c-1.1.7-1.6 1.8-1.6 2.7zm4.1-7.8c2.8 0 3.7-1.1 3.7-3.2 0-2.4-1.1-3.2-3.7-3.2-2.7 0-3.7 1.1-3.7 3.2.1 2.7 1.7 3.2 3.7 3.2zm-6.5-38.2-.8.6-2-2.6-2 2.6-.7-.6 1.9-2.6-3-.9.3-.9 2.9.8.1-3.1h.9l.1 3.1 2.9-.8.3.9-2.9.9zm49.1 14.2h-1.6v-15.4l1.6-.1zm101 0h-1.6v-15.4l1.6-.1z" fill="#020204" fill-rule="evenodd"/></svg>