<svg enable-background="new 0 0 169.3 118.8" viewBox="0 0 169.3 118.8" xmlns="http://www.w3.org/2000/svg"><path clip-rule="evenodd" d="m148.4 93.9c-1.7 0-2.5-.7-2.5-2.3 0-1.5.8-2.4 2.5-2.4s2.4.9 2.5 2.3c-.1 1.5-.8 2.4-2.5 2.4zm-13.4.8-1-1.7v2 8.2h-4.2v-18.4h4l5.9 9.5-.1-2v-7.5h4.2v18.4h-3.4zm-2.9-52.3h6.8v3.2h-6.8zm-9 11.1c-4.7 0-7.1-2.2-7.1-6.6v-12.1h4.8v12c0 1.6.6 2.4 2.3 2.4s2.2-.7 2.2-2.4v-12h4.8v12.1c0 4.4-2.3 6.6-7 6.6zm4.5 35.5h-6.8v2.8h5.6v3.8h-5.6v3.3h7.2l-.1 4.1h-11.8v-18.4h11.5zm-18.4-35.8-3.5-7.5h-1.2v7.5h-4.8v-18.4h4.8v7.1h1.3l3.4-7.1h5.4l-4.4 8.8 4.6 9.6zm-16.4 0-3.5-7.5h-1.2v7.5h-4.8v-18.4h4.8v7.1h1.3l3.4-7.1h5.4l-4.4 8.8 4.6 9.6zm-16.7-3.2h-5l-.7 3.2h-5.1l5.4-18.4h5.9l5.5 18.4h-5.3zm-2-9.2-.4-2h-.1l-.4 2-1.2 5.2h3.2zm3.2-12.6h-4.9v-14.1h-4.2l.1-4.3h13l.1 4.3h-4.2zm-10-4.2-.1 4.3h-12.5v-3.1l5.9-9.3 1.1-1.6h-6.8l.1-4.4h12.3v3.4l-5.7 9-1.1 1.6v.1zm-17.5 4.2h-4.9v-14.1h-4.2l.1-4.3h13l.1 4.3h-4.2zm-9 6.7h4.8v12.1c0 4.3-2.3 6.6-7 6.6s-7.1-2.2-7.1-6.6v-12.1h4.8v12c0 1.6.6 2.4 2.3 2.4s2.2-.7 2.2-2.4zm-.9-10.8-.1 4.1h-11.8v-18.4h11.5l.1 4.2h-6.8v2.8h5.6v3.8h-5.6v3.3zm-14 29.1-.7-3.2h-5l-.7 3.2h-5.1l5.4-18.4h5.9l5.5 18.4zm-2.8-12.4-.4-2h-.1l-.4 2-1.1 5.2h3.2zm-4.7-12.2c-1.4 0-2.5-.2-3.4-.6l.2-4c.5.3 1.3.4 2.3.4 2 0 3-.8 3-3v-11.5h4.9v11.6c.1 5.4-2.7 7.1-7 7.1zm5.3 31c1.6 0 3.5.3 4.8.8l-.5 4.1c-1.2-.4-2.7-.7-4.1-.7-3 0-3.7 1.1-3.7 5.3 0 4.4.7 5.3 3.1 5.3.4 0 .8 0 1.1-.1v-6h4.3v9.4c-1.3.6-3.4 1-5.2 1-6.1 0-8.2-3.3-8.2-9.5-.1-6.5 2.5-9.6 8.4-9.6zm-3.3 37.3c0 1.6.6 2.4 2.3 2.4s2.2-.7 2.2-2.4v-12h4.8v12.1c0 4.3-2.3 6.6-7 6.6s-7.1-2.2-7.1-6.6v-12.1h4.8zm22.1-32.8h-6.8v2.8h5.6v3.8h-5.6v3.3h7.2l-.1 4.1h-11.8v-18.4h11.5zm-2 30.1.6 1.9h.1l.6-1.9 3.3-9.3h5.3v18.4h-4.4v-7.7-2h-.1l-.6 1.9-2.7 7.8h-3.1l-2.7-7.8-.6-1.9v2 7.7h-4.2v-18.4h5.3zm7.5-41v-18.4h11.5l.1 4.3h-6.8v3.2h5.6v4.1h-5.6v6.8zm15.1 4.1c0-1.1.6-1.7 1.8-1.7s1.8.6 1.8 1.7-.6 1.6-1.8 1.6c-1.2.1-1.8-.4-1.8-1.6zm4.7 0c0-1.1.6-1.7 1.8-1.7s1.8.6 1.8 1.7-.6 1.6-1.8 1.6c-1.2.1-1.8-.4-1.8-1.6zm-18.4 20.9h-4.8v-18.4h6.3c4.7 0 7 1.8 7 5.9 0 2.4-.9 4.3-2.5 4.9l3.5 7.4 5.4-18.2h5.9l5.5 18.4h-5.3l-.7-3.2h-5l-.7 3.2h-5.1-5.4l-2.5-6.6h-1.6zm19.4-7.2-1.2-5.3-.4-2h-.1l-.4 2-1.1 5.3zm-17.7-2.9c1.4 0 1.9-.3 1.9-2.1 0-1.7-.5-2.1-1.9-2.1h-1.7v4.2zm6.4 31.3c1.5 0 2.1-.5 2.1-1.5 0-2.4-7.3-1.6-7.3-7.6 0-3.2 2-5.8 6.5-5.8 1.7 0 3.5.3 4.8.9l-.5 4c-1.4-.4-2.8-.7-4-.7-1.8 0-2.2.5-2.2 1.3 0 2.4 7.3 1.6 7.3 7.6 0 3.6-2.4 5.9-6.6 5.9-1.9-.9-3.8-.4-5.3-1.3l.6-4.1c1.5.9 3 1.3 4.6 1.3zm20.1-14.5.1 4.3h-4.2v14.1h-4.9v-14.1h-4.2l.1-4.3zm-3.2-25h13l.1 4.3h-4.2v14.1h-4.9v-14.1h-4.2zm16.4 29.2h-6.8v2.8h5.6v3.8h-5.6v3.3h7.2l-.1 4.1h-11.8v-18.4h11.5zm7.3 14.1h-4.9v-18.4h4.9zm10.7-18.7c1.6 0 3.5.3 4.8.8l-.4 4.1c-1.2-.4-2.7-.7-4.1-.7-3 0-3.7 1.1-3.7 5.3 0 4.4.7 5.3 3.1 5.3.4 0 .8 0 1.1-.1v-6h4.3v9.4c-1.3.6-3.4 1-5.2 1-6.1 0-8.2-3.3-8.2-9.5-.2-6.5 2.3-9.6 8.3-9.6zm39.6 14.3c1.7 0 2.5.9 2.5 2.4 0 1.4-.7 2.3-2.4 2.3s-2.5-.7-2.5-2.3c-.1-1.5.6-2.4 2.4-2.4z" fill="#020204" fill-rule="evenodd"/></svg>