<svg enable-background="new 0 0 145.6 118.6" viewBox="0 0 145.6 118.6" xmlns="http://www.w3.org/2000/svg"><path clip-rule="evenodd" d="m124.8 45.1v9.5c-1.3.6-3.4 1-5.3 1-6.2 0-8.4-3.3-8.4-9.7 0-6.5 2.6-9.7 8.6-9.7 1.7 0 3.5.3 4.9.8l-.4 4.2c-1.2-.5-2.8-.7-4.1-.7-3.1 0-3.8 1.2-3.8 5.4 0 4.5.7 5.4 3.2 5.4.4 0 .8 0 1.1-.1v-6.1zm-24.9 1.6-1-1.7v2 8.3h-4.3v-18.7h4.1l6 9.7-.1-2v-7.7h4.3v18.7h-3.5zm-2.5 58.6c0 1.4-.7 2.4-2.5 2.4-1.7 0-2.5-.7-2.5-2.4 0-1.5.8-2.4 2.5-2.4 1.8 0 2.5.8 2.5 2.4zm-12.4-49.6c-4.8 0-7.2-2.3-7.2-6.7v-12.4h4.9v12.3c0 1.7.7 2.4 2.3 2.4 1.7 0 2.3-.7 2.3-2.4v-12.3h4.9v12.4c0 4.4-2.4 6.7-7.2 6.7zm2.2-30.6-.1 4.2h-12.1v-18.7h11.7l.1 4.3h-7v2.9h5.7v3.9h-5.7v3.4zm-25.1 4.2v-18.7h4.9v14.4h6.4l-.1 4.3zm-12.9.1v-18.7h4.9v14.4h6.4l-.1 4.3zm-6.6 74.7h-5.1l-.7 3.3h-5.2l5.5-18.7h6l5.7 18.7h-5.4zm-2.1-9.5-.4-2h-.1l-.4 2-1.2 5.4h3.3zm2.8-58h5v18.7h-5zm-4-6.9c-5.4 0-7.9-2.8-7.9-9.7s2.3-9.7 7.8-9.7 7.8 2.8 7.9 9.7c.1 7-2.3 9.7-7.8 9.7zm0-15c-2 0-2.7.9-2.7 5.3 0 4.5.7 5.4 2.8 5.4s2.7-.9 2.7-5.4c-.1-4.5-.7-5.3-2.8-5.3zm-19 14.7-5.5-18.7h5.4l2.6 11.7.4 2h.1l.4-2 2.7-11.7h5l-5.5 18.7zm-4.1 7.2h4.9v14.4h6.4l-.1 4.3h-11.2zm7.3 25.7c5.5 0 7.9 2.8 7.9 9.7 0 7-2.3 9.7-7.8 9.7-5.4 0-7.9-2.8-7.9-9.7s2.3-9.7 7.8-9.7zm.1 15.1c2.1 0 2.7-.9 2.7-5.4s-.6-5.3-2.8-5.3c-2 0-2.7.9-2.7 5.3 0 4.5.7 5.4 2.8 5.4zm5.5-40.8h11.7l.1 4.3h-7v2.9h5.7v3.9h-5.7v3.4h7.3l-.1 4.2h-12.1zm4.3 44.8v-18.7h4.9v7h4.5v-7h4.9v18.7h-4.9v-7.3h-4.5v7.3zm-12.3 14.5h1.3l3.5-7.3h5.5l-4.5 9 4.7 9.8h-5.7l-3.5-7.6h-1.2v7.6h-4.9v-18.7h4.9zm42.3-2.5c0 2-.9 3.2-2.3 3.9v.1c1.9.6 2.9 2.1 2.9 4.4 0 3.4-2 5.5-6.7 5.5h-7.3v-18.7h7.3c4.1 0 6.1 1.9 6.1 4.8zm-8.7 10h2.6c1.2 0 1.7-.4 1.7-1.9 0-1.3-.4-1.8-1.8-1.8h-2.5zm0-10.7v3.3h2.5c1.1 0 1.5-.4 1.5-1.7 0-1.2-.4-1.6-1.6-1.6zm8-43c0 3.7-2.5 6-6.7 6-2 0-3.9-.4-5.4-1.3l.6-4.1c1.5.8 3.1 1.2 4.7 1.2 1.5 0 2.1-.5 2.1-1.5 0-2.4-7.5-1.6-7.5-7.8 0-3.3 2-5.9 6.6-5.9 1.7 0 3.6.3 4.9.9l-.5 4.1c-1.4-.4-2.8-.7-4-.7-1.8 0-2.2.6-2.2 1.4 0 2.4 7.4 1.5 7.4 7.7zm-7 23-1-1.7v2 8.3h-4.3v-18.7h4.1l6 9.7-.1-2v-7.7h4.3v18.7h-3.5zm22.1 20.2h-7v2.9h5.7v3.9h-5.7v3.4h7.3l-.1 4.2h-12.1v-18.7h11.7zm-10.5-37.6v-14.4l-4.3.1.1-4.4h13.3l.1 4.4h-4.2v14.4zm0 7.3h11.7l.1 4.3h-7v2.9h5.7v3.9h-5.7v3.4h7.3l-.1 4.2h-12.1zm17.6 40.4h6.4l-.1 4.3h-11.2v-18.7h4.9z" fill="#020204" fill-rule="evenodd"/></svg>