<?xml version="1.0" encoding="utf-8"?>
<!-- Generator: Adobe Illustrator 23.1.1, SVG Export Plug-In . SVG Version: 6.00 Build 0)  -->
<svg version="1.1" id="Ebene_1" xmlns="http://www.w3.org/2000/svg" xmlns:xlink="http://www.w3.org/1999/xlink" x="0px" y="0px"
	 viewBox="0 0 425.2 65.41" style="enable-background:new 0 0 425.2 65.41;" xml:space="preserve">
<style type="text/css">
	.st0{fill-rule:evenodd;clip-rule:evenodd;fill:#FFEC03;}
</style>
<path class="st0" d="M315.76,55.09h-13.19l-5.83-15.51h-3.85v15.51h-11.38V11.67h15.11c11.08,0,16.57,4.17,16.57,13.95
	c0,5.79-2.1,10.07-5.95,11.69L315.76,55.09z M296.85,21.05h-3.97v10.01h3.91c3.33,0,4.49-0.81,4.49-5.04
	C301.28,22.09,300.18,21.05,296.85,21.05z M277.13,45.31l-0.23,9.78h-28.18V11.67h27.42l0.23,9.96H260.1v6.72h13.42v9.09H260.1v7.87
	H277.13z M218.62,55.09V11.67h11.49v33.34h14.88l-0.29,10.07H218.62z M188.52,55.09V11.67h11.49v33.34h14.88l-0.29,10.07H188.52z
	 M184.14,45.31l-0.23,9.78h-28.18V11.67h27.42l0.24,9.96h-16.28v6.72h13.42v9.09h-13.42v7.87H184.14z M128.6,35.06l-2.45-4
	l-0.11,0.06l0.06,4.69v19.27h-10.03V11.67h9.57l14.06,22.52l0.12-0.06l-0.12-4.63l0.06-17.83h10.03v43.41h-8.11L128.6,35.06z
	 M98.73,38.07H88.12v17.02H76.74V11.67h11.38v16.27h10.62V11.67h11.44v43.41H98.73V38.07z M64.26,46c2.68,0,5.19-0.52,7.24-1.44
	l1.05,9.2c-2.62,1.27-6.59,2.08-9.98,2.08c-12.48,0-18.55-7.06-18.55-22.69c0-14.59,5.89-22.23,19.25-22.23
	c3.09,0,6.88,0.7,9.21,1.62l-1.11,9.61c-1.92-0.69-4.55-1.16-7.29-1.16c-6.48,0-8.11,2.72-8.11,12.22C55.97,43.22,57.78,46,64.26,46
	z M25.41,55.84c-4.61,0-9.16-1.04-12.72-3.01l1.46-9.61c3.56,1.79,7.18,2.9,10.97,2.9c3.62,0,5.02-1.22,5.02-3.53
	c0-5.56-17.38-3.82-17.38-18c0-7.58,4.67-13.6,15.46-13.6c4.02,0,8.34,0.75,11.49,2.08l-1.28,9.44c-3.33-0.98-6.65-1.57-9.45-1.57
	c-4.32,0-5.25,1.27-5.25,3.13c0,5.61,17.38,3.71,17.38,17.89C41.1,50.52,35.26,55.84,25.41,55.84z"/>
</svg>
