<?xml version="1.0" encoding="utf-8"?>
<!-- Generator: Adobe Illustrator 23.1.1, SVG Export Plug-In . SVG Version: 6.00 Build 0)  -->
<svg version="1.1" id="Ebene_1" xmlns="http://www.w3.org/2000/svg" xmlns:xlink="http://www.w3.org/1999/xlink" x="0px" y="0px"
	 viewBox="0 0 425.2 65.41" style="enable-background:new 0 0 425.2 65.41;" xml:space="preserve">
<style type="text/css">
	.st0{fill-rule:evenodd;clip-rule:evenodd;fill:#FFEC03;}
</style>
<path class="st0" d="M327.29,54.63h-13.28l-5.87-15.62h-3.88v15.62h-11.45V10.92h15.21c11.16,0,16.68,4.2,16.68,14.05
	c0,5.83-2.11,10.14-5.99,11.77L327.29,54.63z M308.26,20.36h-3.99v10.08h3.94c3.35,0,4.52-0.81,4.52-5.07
	C312.73,21.41,311.61,20.36,308.26,20.36z M288.41,44.78l-0.23,9.85H259.8V10.92h27.6l0.24,10.02h-16.39v6.76h13.51v9.15h-13.51
	v7.93H288.41z M229.49,54.63V10.92h11.57v33.57h14.98l-0.29,10.14H229.49z M224.91,41.75c0,7.87-4.76,12.88-15.74,12.88h-17.15
	V10.92h17.27c9.45,0,14.27,4.37,14.27,11.31c0,4.6-2.11,7.58-5.4,9.15v0.12C222.56,32.95,224.91,36.33,224.91,41.75z M208.82,20.48
	h-5.7v7.69h5.82c2.64,0,3.58-0.99,3.58-3.96C212.52,21.35,211.52,20.48,208.82,20.48z M209.11,36.68h-5.99v8.62h6.23
	c2.88,0,3.93-0.93,3.93-4.37C213.28,37.91,212.34,36.68,209.11,36.68z M174.57,47h-11.98l-1.7,7.63h-12.16l13.04-43.71h14.04
	l13.27,43.71h-12.81L174.57,47z M169.64,24.97l-0.88-4.66h-0.18l-1,4.66l-2.82,12.53h7.7L169.64,24.97z M142.21,54.63h-11.69V21.12
	h-9.98l0.24-10.2h31.19l0.24,10.2h-9.98V54.63z M95.68,34.47l-2.46-4.02l-0.12,0.06l0.06,4.72v19.41h-10.1V10.92h9.63l14.15,22.67
	l0.12-0.06l-0.12-4.66l0.06-17.95H117v43.71h-8.16L95.68,34.47z M78.65,44.78l-0.24,9.85H50.04V10.92h27.61l0.23,10.02H61.5v6.76
	h13.51v9.15H61.5v7.93H78.65z M33.89,54.63l-5.87-15.62h-3.87v15.62H12.69V10.92H27.9c11.16,0,16.68,4.2,16.68,14.05
	c0,5.83-2.11,10.14-5.99,11.77l8.57,17.89H33.89z M28.13,20.36h-3.99v10.08h3.93c3.35,0,4.52-0.81,4.52-5.07
	C32.6,21.41,31.48,20.36,28.13,20.36z"/>
</svg>
