<?xml version="1.0" encoding="utf-8"?>
<!-- Generator: Adobe Illustrator 16.0.0, SVG Export Plug-In . SVG Version: 6.00 Build 0)  -->
<!DOCTYPE svg PUBLIC "-//W3C//DTD SVG 1.1//EN" "http://www.w3.org/Graphics/SVG/1.1/DTD/svg11.dtd">
<svg version="1.1" xmlns="http://www.w3.org/2000/svg" xmlns:xlink="http://www.w3.org/1999/xlink" x="0px" y="0px"
	 width="360.709px" height="151.521px" viewBox="0 0 360.709 151.521" enable-background="new 0 0 360.709 151.521"
	 xml:space="preserve">
<g id="Boundingbox">
	<rect fill="none" width="360.709" height="151.512"/>
</g>
<g id="Logo">
	<rect x="38.624" y="90.003" fill="#FFED00" width="283.464" height="22.9"/>
	<g>
		<path fill="#FFFFFF" d="M149.275,52.572c0,3.654-1.442,4.582-4.994,4.582h-5.046V48.35h5.097
			C148.04,48.35,149.275,49.326,149.275,52.572L149.275,52.572z M161.89,52.107c0-8.598-6.024-12.77-17.352-12.77h-17.354v38.62
			h12.049V65.239h4.996l6.539,12.719h14.211l-9.886-15.038C159.419,61.375,161.89,57.102,161.89,52.107L161.89,52.107z"/>
		<polygon fill="#FFFFFF" points="258.959,68.43 258.959,62.561 274.666,62.561 274.666,54.117 258.959,54.117 258.959,48.967 
			277.961,48.967 277.755,39.338 246.911,39.338 246.911,77.958 278.525,77.958 278.732,68.43 		"/>
		<polygon fill="#FFFFFF" points="239.653,77.958 239.653,39.338 227.654,39.338 227.654,53.602 214.834,53.602 214.834,39.338 
			202.786,39.338 202.786,77.958 214.834,77.958 214.834,63.436 227.654,63.436 227.654,77.958 		"/>
		<path fill="#FFFFFF" d="M197.182,40.213c-2.778-0.926-6.744-1.596-10.402-1.596c-14.827,0-21.419,7.672-21.419,19.875
			c0,13.182,7.004,20.186,20.39,20.186c3.967,0,8.291-0.926,11.536-2.37l-1.288-8.856c-2.473,0.979-5.459,1.598-8.651,1.598
			c-7.361,0-9.267-2.523-9.267-10.504c0-7.57,1.75-10.092,9.165-10.092c3.45,0,6.332,0.514,8.754,1.182L197.182,40.213z"/>
		<path fill="#FFFFFF" d="M306.383,52.572c0,3.654-1.44,4.582-4.994,4.582h-5.047V48.35h5.098
			C305.148,48.35,306.383,49.326,306.383,52.572L306.383,52.572z M318.998,52.107c0-8.598-6.023-12.77-17.352-12.77h-17.353v38.62
			h12.048V65.239h4.996l6.537,12.719h14.211l-9.885-15.038C316.525,61.375,318.998,57.102,318.998,52.107L318.998,52.107z"/>
		<path fill="#FFFFFF" d="M105.065,62.51h-8.856l3.244-10.093l1.185-4.017h0.155l1.133,4.017L105.065,62.51z M123.396,77.958
			l-15.654-38.62H93.789l-15.344,38.62h12.822l2.059-6.489h14.521l2.009,6.489H123.396z"/>
		<rect x="79.509" y="39.326" fill="#FFFFFF" width="8.969" height="8.191"/>
		<rect x="113.121" y="39.326" fill="#FFFFFF" width="8.969" height="8.191"/>
		<polygon fill="#FFFFFF" points="63.854,39.338 54.534,53.807 50.672,53.807 50.672,39.338 38.624,39.338 38.624,77.955 
			50.672,77.955 50.672,62.872 54.38,62.872 63.75,77.955 78.427,77.955 65.091,57.617 77.705,39.338 		"/>
	</g>
</g>
</svg>
