<?xml version="1.0" encoding="utf-8"?>
<!-- Generator: Adobe Illustrator 16.0.0, SVG Export Plug-In . SVG Version: 6.00 Build 0)  -->
<!DOCTYPE svg PUBLIC "-//W3C//DTD SVG 1.1//EN" "http://www.w3.org/Graphics/SVG/1.1/DTD/svg11.dtd">
<svg version="1.1" id="Ebene_1" xmlns="http://www.w3.org/2000/svg" xmlns:xlink="http://www.w3.org/1999/xlink" x="0px" y="0px"
	 width="45.139px" height="18.213px" viewBox="0 0 45.139 18.213" enable-background="new 0 0 45.139 18.213" xml:space="preserve">
<g id="Text">
	<g>
		<path fill="#FFFFFF" d="M2.142,4.944H0.355V0h1.761c1.502,0,2.115,0.699,2.115,2.446C4.231,4.259,3.533,4.944,2.142,4.944z
			 M2.122,1.141H1.642v2.677h0.479c0.567,0,0.758-0.172,0.758-1.385C2.88,1.339,2.702,1.141,2.122,1.141z"/>
		<path fill="#FFFFFF" d="M4.825,0h1.324v4.944H4.825V0z"/>
		<path fill="#FFFFFF" d="M10.085,3.83l-0.025,1.114H6.875V0h3.099l0.025,1.135H8.16v0.764h1.518v1.035H8.16V3.83H10.085z"/>
		<path fill="#FFFFFF" d="M14.612,4.081h-1.344l-0.191,0.863h-1.365L13.176,0h1.575l1.49,4.944h-1.438L14.612,4.081z M13.828,1.589
			l-0.315,1.417h0.863L14.06,1.589L13.96,1.062h-0.02L13.828,1.589z"/>
		<path fill="#FFFFFF" d="M19.102,4.944l-0.93-2.011h-0.315v2.011H16.57V0h1.286v1.912h0.342L19.115,0h1.443l-1.188,2.367
			l1.246,2.577H19.102z"/>
		<path fill="#FFFFFF" d="M23.512,4.944l-0.931-2.011h-0.315v2.011H20.98V0h1.285v1.912h0.343L23.524,0h1.442l-1.186,2.367
			l1.245,2.577H23.512z"/>
		<path fill="#FFFFFF" d="M29.134,3.264c0,1.16-0.618,1.767-1.885,1.767c-1.266,0-1.904-0.606-1.904-1.767V0h1.292v3.237
			c0,0.441,0.172,0.64,0.612,0.64c0.448,0,0.601-0.186,0.601-0.64V0h1.284V3.264z"/>
		<path fill="#FFFFFF" d="M31.507,2.044V2.9h-1.839V2.044H31.507z"/>
		<path fill="#FFFFFF" d="M2.05,10H1.642v1.536H0.355V6.592H2.05c1.371,0,1.918,0.534,1.918,1.74C3.968,9.4,3.435,10,2.05,10z
			 M2.05,7.667H1.642v1.312H2.05c0.423,0,0.58-0.099,0.58-0.652C2.63,7.792,2.505,7.667,2.05,7.667z"/>
		<path fill="#FFFFFF" d="M7.415,10.39l-0.033,1.146H4.436V6.592h1.299v3.798H7.415z"/>
		<path fill="#FFFFFF" d="M10.388,10.673H9.043l-0.19,0.863H7.487L8.95,6.592h1.576l1.489,4.944h-1.438L10.388,10.673z M9.604,8.181
			L9.287,9.598h0.863L9.834,8.181L9.735,7.653H9.715L9.604,8.181z"/>
		<path fill="#FFFFFF" d="M14.06,7.746v3.79h-1.312v-3.79h-1.121l0.026-1.154h3.5l0.027,1.154H14.06z"/>
		<path fill="#FFFFFF" d="M17.837,7.746v3.79h-1.312v-3.79h-1.12l0.026-1.154h3.5l0.025,1.154H17.837z"/>
		<path fill="#FFFFFF" d="M20.645,7.746v0.87h1.509L22.147,9.71h-1.503v1.826h-1.292V6.592h3.092l0.02,1.154H20.645z"/>
		<path fill="#FFFFFF" d="M24.797,11.622c-1.424,0-2.069-0.752-2.069-2.558c0-1.812,0.62-2.551,2.069-2.551
			c1.45,0,2.069,0.738,2.069,2.551C26.866,10.923,26.247,11.622,24.797,11.622z M24.79,7.667c-0.541,0-0.712,0.224-0.712,1.397
			c0,1.18,0.178,1.417,0.727,1.417c0.547,0,0.711-0.244,0.711-1.417C25.515,7.885,25.351,7.667,24.79,7.667z"/>
		<path fill="#FFFFFF" d="M30.313,9.513l0.963,2.023h-1.49l-0.658-1.766h-0.436v1.767h-1.285V6.592h1.707
			c1.252,0,1.872,0.475,1.872,1.589C30.986,8.84,30.749,9.328,30.313,9.513z M29.141,7.66h-0.448v1.141h0.44
			c0.376,0,0.509-0.093,0.509-0.574C29.642,7.779,29.517,7.66,29.141,7.66z"/>
		<path fill="#FFFFFF" d="M33.017,6.592l0.869,2.499l0.164,0.507h0.021l0.164-0.5l0.884-2.506h1.424v4.944h-1.181V9.467l0.014-0.534
			l-0.02-0.007L35.192,9.44l-0.731,2.097h-0.838l-0.725-2.09l-0.165-0.514L32.72,8.939l0.006,0.533v2.063h-1.127V6.592H33.017z"/>
		<path fill="#FFFFFF" d="M4.39,13.185l-1.463,4.942H1.456L0,13.185h1.417l0.692,3.084l0.112,0.521h0.02l0.105-0.521l0.712-3.084
			H4.39z"/>
		<path fill="#FFFFFF" d="M6.459,18.213c-1.424,0-2.068-0.752-2.068-2.558c0-1.813,0.618-2.553,2.068-2.553s2.07,0.738,2.07,2.553
			C8.529,17.515,7.909,18.213,6.459,18.213z M6.452,14.258c-0.54,0-0.711,0.224-0.711,1.397c0,1.18,0.178,1.416,0.725,1.416
			c0.548,0,0.713-0.243,0.713-1.416C7.178,14.476,7.013,14.258,6.452,14.258z"/>
		<path fill="#FFFFFF" d="M11.964,18.127l-1.477-2.28l-0.277-0.455l-0.014,0.008l0.007,0.533v2.194H9.069v-4.942h1.081l1.589,2.562
			l0.014-0.008l-0.014-0.526l0.007-2.028h1.134v4.942H11.964z"/>
		<path fill="#FFFFFF" d="M17.565,18.127l-0.931-2.011h-0.315v2.011h-1.285v-4.942h1.285v1.91h0.344l0.916-1.91h1.443l-1.188,2.365
			l1.246,2.577H17.565z"/>
		<path fill="#FFFFFF" d="M21.995,17.265H20.65l-0.191,0.862h-1.363l1.463-4.942h1.575l1.489,4.942h-1.437L21.995,17.265z
			 M20.71,12.944c-0.322,0-0.487-0.125-0.487-0.44c0-0.297,0.165-0.455,0.487-0.455c0.336,0,0.487,0.158,0.487,0.455
			C21.197,12.794,21.046,12.944,20.71,12.944z M21.211,14.771l-0.315,1.418h0.862l-0.315-1.418l-0.1-0.526h-0.02L21.211,14.771z
			 M21.969,12.944c-0.323,0-0.487-0.125-0.487-0.44c0-0.297,0.164-0.455,0.487-0.455c0.336,0,0.486,0.158,0.486,0.455
			C22.456,12.794,22.305,12.944,21.969,12.944z"/>
		<path fill="#FFFFFF" d="M26.86,16.104l0.962,2.022h-1.489l-0.66-1.767h-0.435v1.767h-1.285v-4.942h1.707
			c1.253,0,1.872,0.475,1.872,1.588C27.532,15.431,27.295,15.919,26.86,16.104z M25.687,14.251h-0.448v1.141h0.441
			c0.376,0,0.508-0.093,0.508-0.572C26.188,14.369,26.062,14.251,25.687,14.251z"/>
		<path fill="#FFFFFF" d="M31.006,14.376c-0.218-0.079-0.515-0.132-0.823-0.132c-0.731,0-0.916,0.312-0.916,1.392
			c0,1.141,0.204,1.456,0.937,1.456c0.303,0,0.586-0.059,0.816-0.163l0.119,1.047c-0.298,0.146-0.745,0.237-1.127,0.237
			c-1.411,0-2.098-0.805-2.098-2.584c0-1.661,0.666-2.53,2.176-2.53c0.35,0,0.777,0.078,1.041,0.185L31.006,14.376z"/>
		<path fill="#FFFFFF" d="M34.097,18.127v-1.938h-1.199v1.938h-1.285v-4.942h1.285v1.852h1.199v-1.852h1.293v4.942H34.097z"/>
		<path fill="#FFFFFF" d="M39.265,17.013l-0.026,1.114h-3.184v-4.942h3.098l0.026,1.133h-1.84v0.766h1.518v1.034H37.34v0.896H39.265
			z"/>
		<path fill="#FFFFFF" d="M42.666,16.104l0.962,2.022h-1.488L41.48,16.36h-0.437v1.767h-1.285v-4.942h1.707
			c1.254,0,1.873,0.475,1.873,1.588C43.339,15.431,43.101,15.919,42.666,16.104z M41.493,14.251h-0.449v1.141h0.442
			c0.376,0,0.507-0.093,0.507-0.572C41.993,14.369,41.868,14.251,41.493,14.251z"/>
		<path fill="#FFFFFF" d="M44.479,18.206c-0.462,0-0.666-0.178-0.666-0.626c0-0.401,0.204-0.634,0.666-0.634
			c0.461,0,0.659,0.23,0.659,0.634C45.138,17.955,44.939,18.206,44.479,18.206z"/>
	</g>
</g>
<g id="Screens">
</g>
</svg>
