<?xml version="1.0" encoding="utf-8"?>
<!-- Generator: Adobe Illustrator 16.0.0, SVG Export Plug-In . SVG Version: 6.00 Build 0)  -->
<!DOCTYPE svg PUBLIC "-//W3C//DTD SVG 1.1//EN" "http://www.w3.org/Graphics/SVG/1.1/DTD/svg11.dtd">
<svg version="1.1" id="Ebene_1" xmlns="http://www.w3.org/2000/svg" xmlns:xlink="http://www.w3.org/1999/xlink" x="0px" y="0px"
	 width="38.25px" height="18.291px" viewBox="0 0 38.25 18.291" enable-background="new 0 0 38.25 18.291" xml:space="preserve">
<g id="Text">
	<g>
		<path fill="#FFFFFF" d="M2.135,5.022H0.349V0.078H2.11c1.502,0,2.115,0.699,2.115,2.446C4.225,4.337,3.526,5.022,2.135,5.022z
			 M2.115,1.219h-0.48v2.677h0.48c0.567,0,0.758-0.172,0.758-1.385C2.873,1.417,2.695,1.219,2.115,1.219z"/>
		<path fill="#FFFFFF" d="M7.132,4.159H5.787L5.596,5.022H4.231l1.464-4.944H7.27l1.49,4.944H7.323L7.132,4.159z M6.348,1.667
			L6.031,3.084h0.863L6.578,1.667L6.479,1.14h-0.02L6.348,1.667z"/>
		<path fill="#FFFFFF" d="M10.395,5.108c-0.521,0-1.035-0.119-1.438-0.343L9.122,3.67C9.524,3.874,9.933,4,10.361,4
			c0.408,0,0.566-0.139,0.566-0.402c0-0.633-1.964-0.435-1.964-2.05C8.964,0.686,9.491,0,10.711,0c0.455,0,0.942,0.085,1.299,0.236
			l-0.146,1.075c-0.376-0.112-0.751-0.179-1.067-0.179c-0.488,0-0.594,0.146-0.594,0.356c0,0.64,1.965,0.422,1.965,2.037
			C12.168,4.502,11.508,5.108,10.395,5.108z"/>
		<path fill="#FFFFFF" d="M17.006,5.022l-1.477-2.28l-0.277-0.455l-0.014,0.006l0.007,0.534v2.195h-1.134V0.078h1.081l1.589,2.564
			l0.014-0.006l-0.014-0.527l0.007-2.031h1.134v4.944H17.006z"/>
		<path fill="#FFFFFF" d="M21.805,3.908l-0.027,1.114h-3.184V0.078h3.099l0.026,1.135h-1.841v0.764h1.518v1.035h-1.518v0.896H21.805
			z"/>
		<path fill="#FFFFFF" d="M26.042,3.342c0,1.16-0.619,1.767-1.885,1.767c-1.267,0-1.906-0.606-1.906-1.767V0.078h1.293v3.237
			c0,0.441,0.17,0.64,0.613,0.64c0.447,0,0.6-0.186,0.6-0.64V0.078h1.285V3.342z"/>
		<path fill="#FFFFFF" d="M29.878,3.908l-0.026,1.114h-3.185V0.078h3.1l0.025,1.135h-1.84v0.764h1.518v1.035h-1.518v0.896H29.878z"
			/>
		<path fill="#FFFFFF" d="M2.9,10.751H1.555l-0.19,0.863H0L1.463,6.67h1.575l1.49,4.944H3.091L2.9,10.751z M2.115,8.259L1.799,9.677
			h0.863L2.346,8.259L2.247,7.731h-0.02L2.115,8.259z"/>
		<path fill="#FFFFFF" d="M7.389,11.614l-0.93-2.011H6.143v2.011H4.857V6.67h1.285v1.912h0.343L7.401,6.67h1.444L7.658,9.037
			l1.246,2.577H7.389z"/>
		<path fill="#FFFFFF" d="M11.798,11.614l-0.929-2.011h-0.316v2.011H9.267V6.67h1.286v1.912h0.342l0.917-1.912h1.443l-1.187,2.367
			l1.246,2.577H11.798z"/>
		<path fill="#FFFFFF" d="M17.421,9.935c0,1.16-0.62,1.767-1.886,1.767c-1.266,0-1.904-0.606-1.904-1.767V6.67h1.291v3.237
			c0,0.441,0.172,0.64,0.613,0.64c0.448,0,0.6-0.187,0.6-0.64V6.67h1.286V9.935z"/>
		<path fill="#FFFFFF" d="M19.792,8.714V9.57h-1.838V8.714H19.792z"/>
		<path fill="#FFFFFF" d="M4.093,16.524c0,1.16-0.619,1.767-1.885,1.767s-1.905-0.606-1.905-1.767v-3.264h1.292v3.236
			c0,0.441,0.171,0.639,0.613,0.639c0.448,0,0.6-0.184,0.6-0.639v-3.236h1.285V16.524z"/>
		<path fill="#FFFFFF" d="M7.613,18.205l-1.477-2.281L5.859,15.47l-0.014,0.008l0.007,0.533v2.194H4.719v-4.942H5.8l1.589,2.562
			l0.014-0.008l-0.014-0.526l0.007-2.028H8.53v4.942H7.613z"/>
		<path fill="#FFFFFF" d="M9.254,13.263h1.324v4.942H9.254V13.263z"/>
		<path fill="#FFFFFF" d="M15.338,13.263l-1.463,4.942h-1.471l-1.456-4.942h1.417l0.692,3.084l0.112,0.521h0.02l0.105-0.521
			l0.712-3.084H15.338z"/>
		<path fill="#FFFFFF" d="M18.864,17.091l-0.026,1.114h-3.184v-4.942h3.098l0.026,1.133h-1.839v0.766h1.516v1.033h-1.516v0.896
			H18.864z"/>
		<path fill="#FFFFFF" d="M22.266,16.183l0.963,2.022h-1.49l-0.659-1.767h-0.435v1.767h-1.286v-4.942h1.708
			c1.252,0,1.871,0.475,1.871,1.588C22.938,15.509,22.701,15.997,22.266,16.183z M21.091,14.329h-0.446v1.141h0.44
			c0.375,0,0.509-0.093,0.509-0.572C21.594,14.446,21.468,14.329,21.091,14.329z"/>
		<path fill="#FFFFFF" d="M24.843,18.291c-0.521,0-1.035-0.119-1.438-0.343l0.165-1.096c0.402,0.205,0.811,0.33,1.239,0.33
			c0.409,0,0.567-0.139,0.567-0.402c0-0.633-1.965-0.436-1.965-2.049c0-0.864,0.526-1.551,1.746-1.551
			c0.454,0,0.942,0.086,1.299,0.238l-0.146,1.074c-0.376-0.112-0.752-0.178-1.067-0.178c-0.488,0-0.594,0.145-0.594,0.354
			c0,0.64,1.964,0.422,1.964,2.037C26.615,17.685,25.957,18.291,24.843,18.291z"/>
		<path fill="#FFFFFF" d="M30.821,16.524c0,1.16-0.62,1.767-1.886,1.767s-1.904-0.606-1.904-1.767v-3.264h1.291v3.236
			c0,0.441,0.172,0.639,0.613,0.639c0.447,0,0.6-0.184,0.6-0.639v-3.236h1.286V16.524z"/>
		<path fill="#FFFFFF" d="M32.864,13.263l0.87,2.498l0.165,0.508h0.021l0.164-0.502l0.883-2.504h1.425v4.942H35.21v-2.069
			l0.015-0.533l-0.021-0.008l-0.166,0.516l-0.73,2.096h-0.837l-0.726-2.09l-0.164-0.514l-0.015,0.006l0.007,0.533v2.063h-1.127
			v-4.942H32.864z"/>
		<path fill="#FFFFFF" d="M37.589,18.284c-0.461,0-0.666-0.178-0.666-0.626c0-0.402,0.205-0.634,0.666-0.634
			c0.463,0,0.66,0.23,0.66,0.634C38.25,18.033,38.052,18.284,37.589,18.284z"/>
	</g>
</g>
<g id="Screens">
</g>
</svg>
