<?xml version="1.0" encoding="utf-8"?>
<!-- Generator: Adobe Illustrator 16.0.0, SVG Export Plug-In . SVG Version: 6.00 Build 0)  -->
<!DOCTYPE svg PUBLIC "-//W3C//DTD SVG 1.1//EN" "http://www.w3.org/Graphics/SVG/1.1/DTD/svg11.dtd">
<svg version="1.1" id="Ebene_1" xmlns="http://www.w3.org/2000/svg" xmlns:xlink="http://www.w3.org/1999/xlink" x="0px" y="0px"
	 width="42.146px" height="31.396px" viewBox="0 0 42.146 31.396" enable-background="new 0 0 42.146 31.396" xml:space="preserve">
<g id="Text">
	<g>
		<path fill="#FFFFFF" d="M2.906,3.132c0,1.45-0.738,1.905-1.898,1.905c-0.368,0-0.665-0.065-0.901-0.172l0.064-1.074
			c0.14,0.072,0.356,0.118,0.613,0.118c0.54,0,0.804-0.211,0.804-0.804V0h1.318V3.132z"/>
		<path fill="#FFFFFF" d="M6.789,3.83L6.763,4.944H3.579V0h3.099l0.025,1.136H4.864v0.764h1.517v1.035H4.864V3.83H6.789z"/>
		<path fill="#FFFFFF" d="M9.439,1.154v3.79H8.127v-3.79h-1.12L7.033,0h3.5l0.026,1.154H9.439z"/>
		<path fill="#FFFFFF" d="M10.777,4.944V4.107l1.575-2.505l0.29-0.437l-0.008-0.013h-1.818L10.85,0h3.303v0.924L12.629,3.35
			l-0.29,0.428l0.008,0.02h1.818l-0.02,1.147L10.777,4.944L10.777,4.944z"/>
		<path fill="#FFFFFF" d="M16.848,1.154v3.79h-1.312v-3.79h-1.121L14.441,0h3.5l0.026,1.154H16.848z"/>
		<path fill="#FFFFFF" d="M21.264,0l0.869,2.499l0.165,0.507h0.021l0.165-0.5L23.366,0h1.424v4.944h-1.18V2.875l0.013-0.534
			l-0.02-0.007l-0.164,0.515l-0.732,2.097H21.87l-0.726-2.09L20.98,2.341l-0.015,0.008l0.008,0.532v2.063h-1.127V0H21.264z"/>
		<path fill="#FFFFFF" d="M25.515,0h1.324v4.944h-1.324V0z"/>
		<path fill="#FFFFFF" d="M29.721,1.154v3.79h-1.312v-3.79h-1.12L27.314,0h3.5l0.025,1.154H29.721z"/>
		<path fill="#FFFFFF" d="M0.863,10.652H1.45V8.089L0.698,8.504L0.566,7.502l1.431-0.902h0.745v4.054h0.586v0.884H0.863V10.652z"/>
		<path fill="#FFFFFF" d="M7.185,10.652v0.884H6.018v-0.884H4.066L3.961,9.849l1.714-3.258h1.511v3.021h0.401l-0.025,1.041
			L7.185,10.652L7.185,10.652z M6.104,8.372l0.033-0.534L6.123,7.832L5.24,9.611h0.817L6.104,8.372z"/>
		<path fill="#FFFFFF" d="M11.68,7.746v3.79h-1.312v-3.79H9.247l0.026-1.154h3.5L12.8,7.746H11.68z"/>
		<path fill="#FFFFFF" d="M15.312,10.673h-1.346l-0.19,0.863h-1.364l1.464-4.944h1.575l1.489,4.944h-1.438L15.312,10.673z
			 M14.527,8.181l-0.316,1.417h0.863l-0.316-1.417l-0.099-0.527h-0.021L14.527,8.181z"/>
		<path fill="#FFFFFF" d="M20.578,11.358c-0.343,0.165-0.902,0.271-1.41,0.271c-1.635,0-2.215-0.877-2.215-2.563
			c0-1.729,0.679-2.559,2.273-2.559c0.436,0,0.93,0.079,1.286,0.219l-0.119,1.101c-0.323-0.12-0.738-0.192-1.094-0.192
			c-0.812,0-0.994,0.305-0.994,1.418c0,1.174,0.189,1.431,0.829,1.431c0.1,0,0.204-0.007,0.298-0.026V8.84h1.146V11.358z"/>
		<path fill="#FFFFFF" d="M24.375,10.422l-0.025,1.114h-3.185V6.592h3.099l0.025,1.136H22.45V8.49h1.517v1.035H22.45v0.896
			L24.375,10.422L24.375,10.422z"/>
		<path fill="#FFFFFF" d="M3.771,17.949c-0.343,0.164-0.903,0.271-1.411,0.271c-1.635,0-2.215-0.876-2.215-2.563
			c0-1.728,0.68-2.558,2.273-2.558c0.436,0,0.931,0.079,1.285,0.217l-0.118,1.102c-0.322-0.119-0.737-0.19-1.095-0.19
			c-0.811,0-0.995,0.303-0.995,1.417c0,1.174,0.191,1.431,0.83,1.431c0.1,0,0.205-0.007,0.297-0.026v-1.614H3.77L3.771,17.949
			L3.771,17.949z"/>
		<path fill="#FFFFFF" d="M7.566,17.013l-0.025,1.113H4.356v-4.942h3.099l0.026,1.133H5.643v0.766h1.516v1.034H5.643v0.896H7.566z"
			/>
		<path fill="#FFFFFF" d="M11.041,16.98l-0.033,1.146H8.062v-4.942H9.36v3.797H11.041z"/>
		<path fill="#FFFFFF" d="M13.248,18.127h-1.786v-4.942h1.762c1.502,0,2.114,0.697,2.114,2.444
			C15.338,17.441,14.64,18.127,13.248,18.127z M13.229,14.323h-0.48V17h0.48c0.566,0,0.758-0.172,0.758-1.385
			C13.986,14.521,13.809,14.323,13.229,14.323z"/>
		<path fill="#FFFFFF" d="M17.625,15.227v0.856h-1.839v-0.856H17.625z"/>
		<path fill="#FFFFFF" d="M17.83,18.127V17.29l1.575-2.505l0.29-0.436l-0.007-0.014h-1.819l0.033-1.152h3.303v0.922l-1.522,2.426
			l-0.29,0.429l0.007,0.021h1.818l-0.02,1.146H17.83z"/>
		<path fill="#FFFFFF" d="M25.417,16.446c0,1.16-0.62,1.767-1.886,1.767s-1.904-0.605-1.904-1.767v-3.263h1.291v3.235
			c0,0.441,0.172,0.64,0.613,0.64c0.448,0,0.6-0.185,0.6-0.64v-3.235h1.286V16.446L25.417,16.446z"/>
		<path fill="#FFFFFF" d="M28.949,16.104l0.963,2.022h-1.49l-0.657-1.767h-0.437v1.767h-1.285v-4.942h1.707
			c1.252,0,1.872,0.475,1.872,1.588C29.622,15.431,29.385,15.919,28.949,16.104z M27.776,14.251h-0.448v1.142h0.441
			c0.376,0,0.508-0.094,0.508-0.573C28.277,14.369,28.152,14.251,27.776,14.251z"/>
		<path fill="#FFFFFF" d="M33.906,16.446c0,1.16-0.619,1.767-1.885,1.767c-1.267,0-1.905-0.605-1.905-1.767v-3.263h1.292v3.235
			c0,0.441,0.172,0.64,0.613,0.64c0.448,0,0.6-0.185,0.6-0.64v-3.235h1.285V16.446z M31.395,12.945
			c-0.322,0-0.487-0.125-0.487-0.441c0-0.297,0.165-0.455,0.487-0.455c0.337,0,0.487,0.158,0.487,0.455
			C31.883,12.794,31.731,12.945,31.395,12.945z M32.654,12.945c-0.323,0-0.488-0.125-0.488-0.441c0-0.297,0.165-0.455,0.488-0.455
			c0.336,0,0.487,0.158,0.487,0.455C33.142,12.794,32.99,12.945,32.654,12.945z"/>
		<path fill="#FFFFFF" d="M37.492,14.376c-0.218-0.079-0.514-0.132-0.824-0.132c-0.73,0-0.916,0.312-0.916,1.392
			c0,1.141,0.204,1.456,0.937,1.456c0.304,0,0.587-0.059,0.817-0.163l0.118,1.048c-0.297,0.145-0.745,0.236-1.127,0.236
			c-1.411,0-2.097-0.805-2.097-2.584c0-1.66,0.666-2.53,2.176-2.53c0.35,0,0.777,0.079,1.041,0.185L37.492,14.376z"/>
		<path fill="#FFFFFF" d="M40.63,18.127l-0.93-2.011h-0.316v2.011h-1.284v-4.942h1.284v1.911h0.344l0.916-1.911h1.442L40.9,15.55
			l1.245,2.577H40.63z"/>
		<path fill="#FFFFFF" d="M3.771,24.541c-0.343,0.164-0.903,0.271-1.411,0.271c-1.635,0-2.215-0.876-2.215-2.563
			c0-1.728,0.68-2.558,2.273-2.558c0.436,0,0.931,0.079,1.285,0.217l-0.118,1.102c-0.322-0.118-0.737-0.19-1.095-0.19
			c-0.811,0-0.995,0.303-0.995,1.417c0,1.174,0.191,1.431,0.83,1.431c0.1,0,0.205-0.007,0.297-0.025v-1.615H3.77L3.771,24.541
			L3.771,24.541z"/>
		<path fill="#FFFFFF" d="M6.908,23.855H5.562l-0.19,0.863H4.008l1.464-4.943h1.574l1.49,4.943H7.099L6.908,23.855z M6.123,21.363
			l-0.315,1.418H6.67l-0.315-1.418l-0.1-0.527h-0.02L6.123,21.363z"/>
		<path fill="#FFFFFF" d="M11.771,22.695l0.963,2.023h-1.49l-0.658-1.768H10.15v1.768H8.865v-4.943h1.707
			c1.252,0,1.872,0.475,1.872,1.588C12.444,22.022,12.207,22.511,11.771,22.695z M10.599,20.844H10.15v1.141h0.44
			c0.376,0,0.509-0.093,0.509-0.573C11.1,20.961,10.975,20.844,10.599,20.844z"/>
		<path fill="#FFFFFF" d="M15.608,23.855h-1.345l-0.191,0.863h-1.364l1.464-4.943h1.575l1.489,4.943H15.8L15.608,23.855z
			 M14.824,21.363l-0.316,1.418h0.863l-0.315-1.418l-0.1-0.527h-0.021L14.824,21.363z"/>
		<path fill="#FFFFFF" d="M20.459,24.719l-1.477-2.281l-0.276-0.454l-0.013,0.007l0.006,0.533v2.195h-1.134v-4.943h1.081
			l1.589,2.562l0.013-0.007l-0.013-0.526l0.007-2.029h1.134v4.943H20.459z"/>
		<path fill="#FFFFFF" d="M24.203,20.929v3.79h-1.312v-3.79h-1.12l0.025-1.153h3.5l0.026,1.153H24.203z"/>
		<path fill="#FFFFFF" d="M25.772,19.775h1.325v4.943h-1.325V19.775z"/>
		<path fill="#FFFFFF" d="M31.032,23.604l-0.026,1.114h-3.184v-4.943h3.098l0.026,1.133h-1.839v0.766h1.516v1.034h-1.516v0.896
			H31.032z"/>
		<path fill="#FFFFFF" d="M2.432,27.521v3.79H1.12v-3.79H0l0.026-1.153h3.5l0.026,1.153H2.432z"/>
		<path fill="#FFFFFF" d="M7.158,30.196L7.132,31.31H3.948v-4.943h3.098L7.072,27.5H5.233v0.767H6.75V29.3H5.233v0.896H7.158z"/>
		<path fill="#FFFFFF" d="M8.944,31.396c-0.521,0-1.034-0.119-1.438-0.343l0.164-1.096c0.402,0.205,0.812,0.33,1.24,0.33
			c0.408,0,0.566-0.139,0.566-0.401c0-0.634-1.965-0.437-1.965-2.051c0-0.863,0.526-1.55,1.746-1.55c0.455,0,0.942,0.086,1.3,0.238
			L10.414,27.6c-0.375-0.112-0.751-0.179-1.066-0.179c-0.487,0-0.594,0.146-0.594,0.355c0,0.64,1.964,0.422,1.964,2.037
			C10.718,30.79,10.059,31.396,8.944,31.396z"/>
		<path fill="#FFFFFF" d="M13.229,27.521v3.79h-1.312v-3.79h-1.12l0.026-1.153h3.5l0.026,1.153H13.229z"/>
		<path fill="#FFFFFF" d="M17.955,30.196l-0.025,1.114h-3.185v-4.943h3.098l0.026,1.133H16.03v0.767h1.517V29.3H16.03v0.896H17.955z
			"/>
		<path fill="#FFFFFF" d="M21.343,31.311l-1.477-2.281l-0.276-0.454l-0.014,0.007l0.007,0.533v2.195h-1.134v-4.943h1.081
			l1.589,2.563l0.013-0.008l-0.013-0.526l0.006-2.029h1.134v4.943H21.343z"/>
		<path fill="#FFFFFF" d="M23.459,31.39c-0.462,0-0.666-0.179-0.666-0.626c0-0.402,0.204-0.634,0.666-0.634
			c0.461,0,0.659,0.23,0.659,0.634C24.118,31.139,23.92,31.39,23.459,31.39z"/>
	</g>
</g>
<g id="Screens">
</g>
</svg>
