<?xml version="1.0" encoding="utf-8"?>
<!-- Generator: Adobe Illustrator 23.1.1, SVG Export Plug-In . SVG Version: 6.00 Build 0)  -->
<!DOCTYPE svg PUBLIC "-//W3C//DTD SVG 1.1//EN" "http://www.w3.org/Graphics/SVG/1.1/DTD/svg11.dtd" [
	<!ENTITY ns_extend "http://ns.adobe.com/Extensibility/1.0/">
	<!ENTITY ns_ai "http://ns.adobe.com/AdobeIllustrator/10.0/">
	<!ENTITY ns_graphs "http://ns.adobe.com/Graphs/1.0/">
	<!ENTITY ns_vars "http://ns.adobe.com/Variables/1.0/">
	<!ENTITY ns_imrep "http://ns.adobe.com/ImageReplacement/1.0/">
	<!ENTITY ns_sfw "http://ns.adobe.com/SaveForWeb/1.0/">
	<!ENTITY ns_custom "http://ns.adobe.com/GenericCustomNamespace/1.0/">
	<!ENTITY ns_adobe_xpath "http://ns.adobe.com/XPath/1.0/">
]>
<svg version="1.1" id="Ebene_1" xmlns:x="&ns_extend;" xmlns:i="&ns_ai;" xmlns:graph="&ns_graphs;"
	 xmlns="http://www.w3.org/2000/svg" xmlns:xlink="http://www.w3.org/1999/xlink" x="0px" y="0px" viewBox="0 0 124.66 29.03"
	 style="enable-background:new 0 0 124.66 29.03;" xml:space="preserve">
<style type="text/css">
	.st0{fill-rule:evenodd;clip-rule:evenodd;}
</style>
<metadata>
	<sfw  xmlns="&ns_sfw;">
		<slices></slices>
		<sliceSourceBounds  bottomLeftOrigin="true" height="10.1" width="108.91" x="6.85" y="-17.98"></sliceSourceBounds>
	</sfw>
</metadata>
<path class="st0" d="M113.96,17.8l-2.91-4.5l-0.55-0.9l-0.03,0.01l0.01,1.05v4.33h-2.24V8.05h2.13l3.13,5.06l0.03-0.01l-0.03-1.04
	l0.01-4.01h2.24v9.75H113.96z M106.95,15.6l-0.05,2.2h-6.28V8.05h6.11l0.05,2.24h-3.63v1.51h2.99v2.04h-2.99v1.77H106.95z
	 M95.85,12.04h2.98l-0.01,2.16h-2.96v3.6H93.3V8.05h6.1l0.04,2.28h-3.59V12.04z M88.93,8.05h2.61v9.75h-2.61V8.05z M87.53,15.6
	l-0.05,2.2H81.2V8.05h6.11l0.05,2.24h-3.63v1.51h2.99v2.04h-2.99v1.77H87.53z M77.3,17.8L76,14.32h-0.86v3.48h-2.54V8.05h3.37
	c2.47,0,3.69,0.94,3.69,3.13c0,1.3-0.47,2.26-1.33,2.63l1.9,3.99H77.3z M76.03,10.15h-0.88v2.25h0.87c0.74,0,1-0.18,1-1.13
	C77.01,10.39,76.77,10.15,76.03,10.15z M68.34,17.98c-3.22,0-4.37-1.73-4.37-5.06c0-3.41,1.34-5.05,4.49-5.05
	c0.86,0,1.83,0.16,2.54,0.43l-0.23,2.17c-0.64-0.23-1.46-0.38-2.16-0.38c-1.6,0-1.96,0.6-1.96,2.8c0,2.31,0.38,2.82,1.64,2.82
	c0.19,0,0.4-0.01,0.58-0.05v-3.19h2.26v4.97C70.45,17.77,69.34,17.98,68.34,17.98z M58.96,17.97c-2.5,0-3.76-1.2-3.76-3.48V8.05
	h2.55v6.38c0,0.87,0.34,1.26,1.21,1.26c0.88,0,1.18-0.36,1.18-1.26V8.05h2.53v6.44C62.68,16.77,61.45,17.97,58.96,17.97z
	 M54.07,15.54l-0.04,2.26h-6.64v-1.65l3.11-4.94l0.57-0.86l-0.01-0.03h-3.59l0.06-2.28h6.51v1.82l-3,4.79l-0.57,0.84l0.01,0.04
	H54.07z M41.17,17.8h-2.59v-7.48h-2.21l0.05-2.28h6.9l0.05,2.28h-2.21V17.8z M35.56,15.54l-0.04,2.26h-6.64v-1.65l3.11-4.94
	l0.57-0.86l-0.01-0.03h-3.59l0.06-2.28h6.51v1.82l-3,4.79l-0.57,0.84l0.01,0.04H35.56z M25.91,17.8h-2.59v-7.48h-2.21l0.05-2.28h6.9
	l0.05,2.28h-2.21V17.8z M20.36,15.6l-0.05,2.2h-6.28V8.05h6.11l0.05,2.24h-3.63v1.51h2.99v2.04h-2.99v1.77H20.36z M8.63,17.98
	c-0.73,0-1.31-0.13-1.78-0.34l0.13-2.12c0.27,0.14,0.7,0.23,1.21,0.23c1.07,0,1.59-0.42,1.59-1.59V8.05h2.6v6.18
	C12.38,17.08,10.92,17.98,8.63,17.98z"/>
</svg>
