<?xml version="1.0" encoding="utf-8"?>
<!-- Generator: Adobe Illustrator 23.1.1, SVG Export Plug-In . SVG Version: 6.00 Build 0)  -->
<!DOCTYPE svg PUBLIC "-//W3C//DTD SVG 1.1//EN" "http://www.w3.org/Graphics/SVG/1.1/DTD/svg11.dtd" [
	<!ENTITY ns_extend "http://ns.adobe.com/Extensibility/1.0/">
	<!ENTITY ns_ai "http://ns.adobe.com/AdobeIllustrator/10.0/">
	<!ENTITY ns_graphs "http://ns.adobe.com/Graphs/1.0/">
	<!ENTITY ns_vars "http://ns.adobe.com/Variables/1.0/">
	<!ENTITY ns_imrep "http://ns.adobe.com/ImageReplacement/1.0/">
	<!ENTITY ns_sfw "http://ns.adobe.com/SaveForWeb/1.0/">
	<!ENTITY ns_custom "http://ns.adobe.com/GenericCustomNamespace/1.0/">
	<!ENTITY ns_adobe_xpath "http://ns.adobe.com/XPath/1.0/">
]>
<svg version="1.1" id="Ebene_1" xmlns:x="&ns_extend;" xmlns:i="&ns_ai;" xmlns:graph="&ns_graphs;"
	 xmlns="http://www.w3.org/2000/svg" xmlns:xlink="http://www.w3.org/1999/xlink" x="0px" y="0px" viewBox="0 0 83.97 46.93"
	 style="enable-background:new 0 0 83.97 46.93;" xml:space="preserve">
<style type="text/css">
	.st0{fill-rule:evenodd;clip-rule:evenodd;}
</style>
<metadata>
	<sfw  xmlns="&ns_sfw;">
		<slices></slices>
		<sliceSourceBounds  bottomLeftOrigin="true" height="26.89" width="59.56" x="12.2" y="-36.91"></sliceSourceBounds>
	</sfw>
</metadata>
<path class="st0" d="M68.1,20.89c-2.57,0-3.6-1.55-3.6-5.23c0-3.92,1.05-5.31,3.63-5.31c2.53,0,3.63,1.39,3.63,5.31
	C71.76,19.34,70.62,20.89,68.1,20.89z M68.13,12.64c-0.73,0-1.06,0.37-1.06,2.99c0,2.76,0.33,3.05,1.06,3.05
	c0.72,0,1.04-0.36,1.04-3.05C69.17,12.96,68.85,12.64,68.13,12.64z M57.63,18.91h1.23v-5.34l-1.57,0.86L57,12.35l3-1.88h1.56v8.44
	h1.23v1.84h-5.17V18.91z M49.21,22.34l4.25-12.32h2.15L51.3,22.34H49.21z M45.1,20.89c-2.57,0-3.61-1.55-3.61-5.23
	c0-3.92,1.05-5.31,3.63-5.31c2.53,0,3.63,1.39,3.63,5.31C48.76,19.34,47.61,20.89,45.1,20.89z M45.13,12.64
	c-0.73,0-1.06,0.37-1.06,2.99c0,2.76,0.33,3.05,1.06,3.05c0.72,0,1.04-0.36,1.04-3.05C46.16,12.96,45.84,12.64,45.13,12.64z
	 M39.73,18.91v1.84h-2.44v-1.84H33.2l-0.22-1.67l3.59-6.78h3.16v6.28h0.84l-0.06,2.17H39.73z M37.51,13.04l-1.85,3.7h1.71l0.1-2.58
	l0.07-1.11L37.51,13.04z M34.9,28.18c0.62,0,1.22,0.21,1.7,0.62l0.03-0.03l-0.03-1.1v-1.59l2.51-0.12v10.77h-1.95l-0.22-0.63
	c-0.48,0.49-1.1,0.78-1.99,0.78c-1.93,0-2.98-1.35-2.98-4.39C31.97,29.67,33.01,28.18,34.9,28.18z M35.66,34.88
	c0.48,0,0.82-0.26,0.94-0.55v-3.51c-0.17-0.25-0.51-0.44-0.94-0.44c-0.8,0-1.09,0.45-1.09,2.19C34.57,34.45,34.8,34.88,35.66,34.88z
	 M28.28,34.93h-2.82l-0.4,1.8H22.2l3.06-10.29h3.3l3.12,10.29h-3.01L28.28,34.93z M27.12,29.75l-0.21-1.1h-0.04l-0.23,1.1
	l-0.66,2.95h1.81L27.12,29.75z M26.35,20.75l-1.38-3.68h-0.91v3.68h-2.69V10.46h3.58c2.62,0,3.92,0.99,3.92,3.31
	c0,1.37-0.5,2.39-1.41,2.77l2.02,4.21H26.35z M25,12.68h-0.94v2.37h0.93c0.79,0,1.06-0.19,1.06-1.19
	C26.05,12.93,25.79,12.68,25,12.68z M20.21,17.72c0,1.85-1.12,3.03-3.7,3.03h-4.03V10.46h4.06c2.22,0,3.36,1.03,3.36,2.66
	c0,1.08-0.5,1.78-1.27,2.15v0.03C19.66,15.65,20.21,16.44,20.21,17.72z M16.43,12.71h-1.34v1.81h1.37c0.62,0,0.84-0.23,0.84-0.93
	C17.3,12.92,17.06,12.71,16.43,12.71z M16.5,16.52h-1.41v2.03h1.46c0.68,0,0.92-0.22,0.92-1.03C17.48,16.81,17.26,16.52,16.5,16.52z
	 M16.76,26.26c0.73,0,1.63,0.16,2.18,0.38l-0.26,2.28c-0.46-0.16-1.08-0.27-1.73-0.27c-1.53,0-1.92,0.65-1.92,2.9
	c0,2.37,0.43,3.03,1.96,3.03c0.64,0,1.23-0.12,1.71-0.34l0.25,2.18c-0.62,0.3-1.56,0.49-2.36,0.49c-2.96,0-4.39-1.67-4.39-5.38
	C12.2,28.07,13.6,26.26,16.76,26.26z M43.96,33.26l0.24,1.08h0.04l0.22-1.08l1.16-4.93h2.72l-2.65,8.4h-2.97l-2.62-8.4h2.72
	L43.96,33.26z"/>
</svg>
