<svg enable-background="new 0 0 255.1 109.3" viewBox="0 0 255.1 109.3" xmlns="http://www.w3.org/2000/svg"><path clip-rule="evenodd" d="m231.9 51.4h7v4.7h-7v4.1h8.8l-.1 5.1h-14.6v-22.6h14.2l.1 5.2h-8.4zm-12.9 13.8h-6v-17.2h-5.1l.1-5.2h16.1l.1 5.2h-5.2zm-16.9-23.5c-1.5 0-2.2-.6-2.2-2 0-1.3.8-2.1 2.2-2.1 1.5 0 2.2.7 2.2 2.1 0 1.3-.7 2-2.2 2zm-5.8 0c-1.5 0-2.2-.6-2.2-2 0-1.3.8-2.1 2.2-2.1 1.5 0 2.2.7 2.2 2.1 0 1.3-.7 2-2.2 2zm-.7 1h7.2l6.8 22.5h-6.6l-.9-3.9h-6.1l-.9 3.9h-6.1-.1-6.7l-3-8h-2v8h-5.9v-22.5h7.8c5.8 0 8.6 2.2 8.6 7.2 0 3-1.1 5.2-3.1 6.1l4.3 9.1zm5.5 13.7-1.5-6.5-.5-2.4h-.1l-.5 2.4-1.5 6.5zm-21.9-8.8h-2.1v5.2h2c1.7 0 2.3-.4 2.3-2.6.1-2.1-.5-2.6-2.2-2.6zm-10.2 12.6-.1 5.1h-14.6v-22.6h14.2l.1 5.2h-8.4v3.5h7v4.7h-7v4.1zm-23.9 5.5c-7.5 0-10.2-4-10.2-11.7 0-7.9 3.1-11.6 10.4-11.6 2 0 4.3.4 5.9 1l-.5 5c-1.5-.5-3.4-.9-5-.9-3.7 0-4.6 1.4-4.6 6.5 0 5.3.9 6.5 3.8 6.5.5 0 .9 0 1.4-.1v-7.4h5.3v11.5c-1.6.7-4.2 1.2-6.5 1.2zm-19.9-.1c-2.4 0-4.8-.5-6.6-1.6l.8-5c1.8.9 3.7 1.5 5.7 1.5 1.9 0 2.6-.6 2.6-1.8 0-2.9-9-2-9-9.3 0-3.9 2.4-7 8-7 2.1 0 4.3.4 6 1.1l-.7 4.9c-1.7-.5-3.4-.8-4.9-.8-2.2 0-2.7.7-2.7 1.6 0 2.9 9 1.9 9 9.3 0 4.4-3 7.1-8.2 7.1zm-20-10.7-1.3-2.1h-.1v2.4 10h-5.2v-22.5h5l7.3 11.7h.1v-2.4-9.2h5.2v22.5h-4.2zm1.2 28.1c0 3-1.1 5.2-3.1 6.1l4.4 9.2h-6.8l-3-8h-2v8h-5.9v-22.6h7.8c5.8 0 8.6 2.2 8.6 7.3zm-8.4-2.4h-2.1v5.2h2c1.7 0 2.3-.4 2.3-2.6.1-2.1-.5-2.6-2.2-2.6zm-11.3-15c-6.5 0-9.5-3.4-9.5-11.6s2.8-11.6 9.5-11.6 9.5 3.4 9.5 11.6c0 8.4-2.8 11.6-9.5 11.6zm0-18c-2.5 0-3.3 1-3.3 6.4s.8 6.4 3.3 6.4 3.3-1.1 3.3-6.4c0-5.4-.7-6.4-3.3-6.4zm-.2-15.4h-6v-17.2h-5.1l.1-5.3h16.1l.1 5.3h-5.1v17.2zm-18.1 10.5h6.1v22.5h-6.1zm5.8-15.7-.1 5.2h-15.5v-3.8l7.2-11.4 1.3-2v-.1h-8.4l.2-5.3h15.2v4.2l-7 11-1.3 1.9v.1h8.4zm-21.7 5.2h-6v-17.2h-5.1l.1-5.3h16.1l.1 5.3h-5.1v17.2zm-12.2-5-.1 5.1h-14.6v-22.6h14.2l.1 5.2h-8.4v3.5h7v4.7h-7v4.1zm-17.3 38-.9-3.9h-6.2l-.9 3.9h-6.2l6.7-22.5h7.2l6.8 22.5zm-3.4-15.2-.5-2.4h-.1l-.5 2.4-1.5 6.5h4zm-5.8-17.3c-1.7 0-3.1-.3-4.1-.8l.2-4.9c.6.3 1.6.5 2.8.5 2.5 0 3.7-1 3.7-3.7v-14.1h6.1v14.3c0 6.6-3.4 8.7-8.7 8.7zm2.4 60.9c1.9 0 2.6-.6 2.6-1.8 0-2.9-9-2-9-9.3 0-3.9 2.4-7.1 8-7.1 2.1 0 4.3.4 6 1.1l-.7 4.9c-1.7-.5-3.5-.8-4.9-.8-2.2 0-2.7.7-2.7 1.6 0 2.9 9 1.9 9 9.3 0 4.4-3 7.2-8.1 7.2-2.4 0-4.8-.5-6.6-1.6l.8-5c1.7.9 3.6 1.5 5.6 1.5zm16.7 4.6h-6.1v-22.5h6.1zm9.8-33-4.3-9.2h-1.4v9.2h-5.9v-22.5h5.9v8.7h1.6l4.2-8.7h6.6l-5.4 10.8 5.7 11.7zm2.9 10.1c1.6 0 3.6.4 4.8.8l-.6 5c-1-.4-2.4-.6-3.8-.6-3.4 0-4.2 1.4-4.2 6.3 0 5.2.9 6.6 4.3 6.6 1.4 0 2.7-.3 3.8-.8l.5 4.8c-1.4.7-3.4 1.1-5.2 1.1-6.5 0-9.6-3.7-9.6-11.8 0-7.4 3.1-11.4 10-11.4zm9.6-10.1v-17.2h-5.1l.1-5.2h16.1l.1 5.2h-5.1v17.3h-6.1zm3.3 19h5.5v-8.4h5.9v22.5h-5.9v-8.8h-5.5v8.8h-5.9v-22.6h5.9zm28.8-3.3h-8.4v3.5h7v4.7h-7v4.1h8.8l-.1 5.1h-14.6v-22.6h14.2zm34.2 6.5v-2.4-9.2h5.2v22.5h-4.2l-6.8-10.4-1.3-2.1h-.1v2.4 10h-5.2v-22.5h5zm13.2 4.1h-4.3l-.8-15.8h6zm-2 1.9c2.1 0 3 1 3 2.6 0 1.5-.9 2.6-3 2.6-2 0-2.9-.8-2.9-2.6-.1-1.6.8-2.6 2.9-2.6z" fill="#020204" fill-rule="evenodd"/></svg>