<svg xmlns="http://www.w3.org/2000/svg" viewBox="0 0 135.7 67.97"><g id="kehrfunktion_03" data-name="kehrfunktion 03"><path d="M3.93,14A8.24,8.24,0,0,1,0,13l.45-3a7.44,7.44,0,0,0,3.39.9c1.11,0,1.54-.38,1.54-1.1C5.38,8.12,0,8.66,0,4.25,0,1.89,1.46,0,4.79,0A9.51,9.51,0,0,1,8.34.67L7.94,3.6A10.45,10.45,0,0,0,5,3.12c-1.33,0-1.62.39-1.62,1,0,1.74,5.37,1.15,5.37,5.56C8.77,12.32,7,14,3.93,14Z"/><path d="M18.11,3.49a7,7,0,0,0-2.25-.36c-2,0-2.5.85-2.5,3.8,0,3.12.56,4,2.55,4a5.43,5.43,0,0,0,2.24-.45l.32,2.86a7.56,7.56,0,0,1-3.08.65c-3.85,0-5.72-2.19-5.72-7.06C9.67,2.38,11.49,0,15.61,0a8.82,8.82,0,0,1,2.84.5Z"/><path d="M26.55,13.74V8.44H23.28v5.3H19.76V.23h3.52V5.29h3.27V.23h3.53V13.74Z"/><path d="M40.67,10.7l-.08,3H31.9V.23h8.46l.07,3.1h-5V5.42h4.14V8.25H35.41V10.7Z"/><path d="M52.24,9.15c0,3.17-1.69,4.82-5.15,4.82s-5.2-1.65-5.2-4.82V.23h3.53V9.07c0,1.21.46,1.75,1.67,1.75s1.64-.5,1.64-1.75V.23h3.51Z"/><path d="M62.71,10.7l-.07,3H54V.23h8.46l.07,3.1h-5V5.42H61.6V8.25H57.46V10.7Z"/><path d="M72,8.21l2.63,5.53H70.56l-1.8-4.83H67.57v4.83H64.06V.23h4.66c3.43,0,5.12,1.3,5.12,4.34C73.84,6.37,73.19,7.71,72,8.21ZM68.8,3.15H67.57V6.27h1.21c1,0,1.39-.26,1.39-1.57S69.82,3.15,68.8,3.15Z"/><path d="M79,14A8.26,8.26,0,0,1,75.11,13l.45-3A7.44,7.44,0,0,0,79,11c1.11,0,1.55-.38,1.55-1.1,0-1.73-5.37-1.19-5.37-5.6C75.13,1.89,76.57,0,79.9,0a9.44,9.44,0,0,1,3.55.65l-.4,2.93a10.39,10.39,0,0,0-2.91-.48c-1.34,0-1.62.39-1.62,1,0,1.74,5.36,1.15,5.36,5.56C83.88,12.32,82.08,14,79,14Z"/><path d="M91.77,11.38H88.09l-.52,2.36H83.84l4-13.51h4.3l4.07,13.51H92.29ZM89.62,4.57l-.86,3.87h2.36l-.87-3.87L90,3.13h0Z"/><path d="M106.78,9.15c0,3.17-1.69,4.82-5.15,4.82s-5.2-1.65-5.2-4.82V.23H100V9.07c0,1.21.46,1.75,1.67,1.75s1.64-.5,1.64-1.75V.23h3.51Z"/><path d="M118,13.25a9.82,9.82,0,0,1-3.85.74c-4.47,0-6.05-2.39-6.05-7s1.85-7,6.21-7a10.59,10.59,0,0,1,3.51.59l-.33,3a9.28,9.28,0,0,0-3-.52c-2.22,0-2.72.83-2.72,3.87,0,3.2.52,3.91,2.26,3.91a4.39,4.39,0,0,0,.82-.07V6.37H118Z"/><path d="M124.4,5.82V8.16h-5V5.82Z"/><path d="M4.27,18.23l2.37,6.83.45,1.38h.06l.45-1.36L10,18.23H13.9V31.74H10.68V26.08l0-1.46h-.05L10.21,26l-2,5.73H5.92L3.94,26l-.45-1.41,0,0,0,1.46v5.64H.4V18.23Z"/><path d="M22.7,29.38H19l-.53,2.36H14.78l4-13.51h4.3l4.07,13.51H23.22Zm-2.14-6.81-.87,3.87h2.36l-.86-3.87-.27-1.44h-.06Z"/><path d="M31.61,32A8.26,8.26,0,0,1,27.68,31l.45-3a7.44,7.44,0,0,0,3.39.9c1.12,0,1.55-.38,1.55-1.1,0-1.73-5.37-1.19-5.37-5.6,0-2.36,1.44-4.23,4.77-4.23a9.44,9.44,0,0,1,3.55.65l-.4,2.93a10.39,10.39,0,0,0-2.91-.48c-1.33,0-1.62.39-1.62,1,0,1.74,5.36,1.15,5.36,5.56C36.45,30.32,34.65,32,31.61,32Z"/><path d="M45.79,21.49a7,7,0,0,0-2.25-.36c-2,0-2.5.85-2.5,3.8,0,3.12.56,4,2.56,4a5.38,5.38,0,0,0,2.23-.45l.32,2.86a7.55,7.55,0,0,1-3.07.65c-3.86,0-5.73-2.19-5.73-7.06,0-4.53,1.82-6.91,5.94-6.91a8.84,8.84,0,0,1,2.85.5Z"/><path d="M54.24,31.74v-5.3H51v5.3H47.45V18.23H51v5.06h3.28V18.23h3.52V31.74Z"/><path d="M59.72,18.23h3.62V31.74H59.72Z"/><path d="M73.23,31.74l-4-6.23-.75-1.24h0l0,1.46v6h-3.1V18.23h3l4.34,7,0,0,0-1.44,0-5.55h3.1V31.74Z"/><path d="M86.33,28.7l-.07,3h-8.7V18.23H86l.08,3.1h-5v2.09h4.14v2.83H81.07V28.7Z"/><path d="M95.58,31.74l-4-6.23-.76-1.24h0v7.46H87.68V18.23h2.95l4.34,7,0,0,0-1.44,0-5.55h3.09V31.74Z"/><path d="M107.84,18.23l2.37,6.83.46,1.38h0l.45-1.36,2.41-6.85h3.89V31.74h-3.22V26.08l0-1.46h0l-.45,1.4-2,5.73H109.5l-2-5.71-.45-1.41,0,0,0,1.46v5.64H104V18.23Z"/><path d="M119.45,18.23h3.62V31.74h-3.62Z"/><path d="M130.93,21.38V31.74h-3.58V21.38h-3.06l.07-3.15h9.56l.07,3.15Z"/><path d="M.54,36.23H4.16V49.74H.54Z"/><path d="M14,49.74l-4-6.23-.76-1.24h0l0,1.46v6H6.14V36.23h3l4.34,7,0,0,0-1.44,0-5.55h3.09V49.74Z"/><path d="M24.27,39.38V49.74H20.68V39.38H17.62l.07-3.15h9.56l.08,3.15Z"/><path d="M37.17,46.7l-.07,3H28.4V36.23h8.47l.07,3.1h-5v2.09h4.14v2.83H31.92V46.7Z"/><path d="M47.81,49.25A9.78,9.78,0,0,1,44,50c-4.47,0-6.05-2.39-6.05-7s1.85-7,6.21-7a10.59,10.59,0,0,1,3.51.59l-.32,3a9.39,9.39,0,0,0-3-.52c-2.22,0-2.72.83-2.72,3.87,0,3.2.52,3.91,2.27,3.91a4.28,4.28,0,0,0,.81-.07V42.37h3.13Z"/><path d="M57.35,44.21,60,49.74H55.91l-1.8-4.83H52.92v4.83H49.41V36.23h4.66c3.42,0,5.12,1.3,5.12,4.34C59.19,42.37,58.54,43.71,57.35,44.21Zm-3.2-5.06H52.92v3.12h1.21c1,0,1.38-.26,1.38-1.57S55.17,39.15,54.15,39.15Z"/><path d="M61,36.23h3.62V49.74H61Z"/><path d="M75.37,46.7l-.07,3H66.6V36.23h8.46l.07,3.1h-5v2.09h4.14v2.83H70.11V46.7Z"/><path d="M84.66,44.21l2.62,5.53H83.22l-1.8-4.83H80.23v4.83H76.72V36.23h4.66c3.42,0,5.11,1.3,5.11,4.34C86.49,42.37,85.84,43.71,84.66,44.21Zm-3.21-5.06H80.23v3.12h1.2c1,0,1.39-.26,1.39-1.57S82.48,39.15,81.45,39.15Z"/><path d="M93.87,39.38V49.74H90.29V39.38H87.23l.07-3.15h9.56l.07,3.15Z"/><path d="M106.78,46.7l-.07,3H98V36.23h8.46l.07,3.1h-5v2.09h4.14v2.83h-4.14V46.7Z"/><path d="M116.07,44.21l2.62,5.53h-4.07l-1.8-4.83h-1.18v4.83h-3.52V36.23h4.67c3.42,0,5.11,1.3,5.11,4.34C117.9,42.37,117.25,43.71,116.07,44.21Zm-3.21-5.06h-1.22v3.12h1.2c1,0,1.39-.26,1.39-1.57S113.89,39.15,112.86,39.15Z"/><path d="M7.31,67.74,4.77,62.25H3.91v5.49H.4V54.23H3.91v5.23h.93l2.51-5.23h3.94L8.05,60.7l3.4,7Z"/><path d="M21.21,64.7l-.08,3H12.44V54.23H20.9l.07,3.1H16v2.09h4.14v2.83H16V64.7Z"/><path d="M29.34,67.74v-5.3H26.07v5.3H22.55V54.23h3.52v5.06h3.27V54.23h3.53V67.74Z"/><path d="M42.63,62.21l2.62,5.53H41.19l-1.8-4.83H38.2v4.83H34.69V54.23h4.66c3.42,0,5.11,1.3,5.11,4.34C44.46,60.37,43.81,61.71,42.63,62.21Zm-3.21-5.06H38.2v3.12h1.2c1,0,1.39-.26,1.39-1.57S40.45,57.15,39.42,57.15Z"/><path d="M49.66,57.38v2.38h4.13l0,3H49.66v5H46.13V54.23h8.45l.05,3.15Z"/><path d="M66,63.15C66,66.32,64.35,68,60.9,68s-5.21-1.65-5.21-4.82V54.23h3.53v8.84c0,1.21.47,1.75,1.68,1.75s1.63-.5,1.63-1.75V54.23H66Z"/><path d="M75.66,67.74l-4-6.23-.75-1.24h0l0,1.46v6h-3.1V54.23h3l4.33,7,0,0,0-1.44,0-5.55h3.1V67.74Z"/><path d="M86.91,67.74l-2.54-5.49H83.5v5.49H80V54.23H83.5v5.23h.94l2.5-5.23h3.94L87.64,60.7l3.41,7Z"/><path d="M97.92,57.38V67.74H94.34V57.38H91.28l.07-3.15h9.56l.07,3.15Z"/><path d="M102.2,54.23h3.62V67.74H102.2Z"/><path d="M113.09,68c-3.88,0-5.65-2-5.65-7s1.69-7,5.65-7,5.66,2,5.66,7S117.06,68,113.09,68Zm0-10.8c-1.48,0-2,.61-2,3.82s.49,3.87,2,3.87,2-.67,2-3.87S114.61,57.17,113.08,57.17Z"/><path d="M128.12,67.74l-4-6.23-.75-1.24h0l0,1.46v6h-3.1V54.23h3l4.34,7,0,0,0-1.44,0-5.55h3.1V67.74Z"/><path d="M133.9,68c-1.26,0-1.82-.48-1.82-1.71s.56-1.73,1.82-1.73,1.8.63,1.8,1.73A1.57,1.57,0,0,1,133.9,68Z"/></g></svg>