<?xml version="1.0" encoding="utf-8"?>
<!-- Generator: Adobe Illustrator 23.1.1, SVG Export Plug-In . SVG Version: 6.00 Build 0)  -->
<!DOCTYPE svg PUBLIC "-//W3C//DTD SVG 1.1//EN" "http://www.w3.org/Graphics/SVG/1.1/DTD/svg11.dtd" [
	<!ENTITY ns_extend "http://ns.adobe.com/Extensibility/1.0/">
	<!ENTITY ns_ai "http://ns.adobe.com/AdobeIllustrator/10.0/">
	<!ENTITY ns_graphs "http://ns.adobe.com/Graphs/1.0/">
	<!ENTITY ns_vars "http://ns.adobe.com/Variables/1.0/">
	<!ENTITY ns_imrep "http://ns.adobe.com/ImageReplacement/1.0/">
	<!ENTITY ns_sfw "http://ns.adobe.com/SaveForWeb/1.0/">
	<!ENTITY ns_custom "http://ns.adobe.com/GenericCustomNamespace/1.0/">
	<!ENTITY ns_adobe_xpath "http://ns.adobe.com/XPath/1.0/">
]>
<svg version="1.1" id="Ebene_1" xmlns:x="&ns_extend;" xmlns:i="&ns_ai;" xmlns:graph="&ns_graphs;"
	 xmlns="http://www.w3.org/2000/svg" xmlns:xlink="http://www.w3.org/1999/xlink" x="0px" y="0px" viewBox="0 0 83.97 46.93"
	 style="enable-background:new 0 0 83.97 46.93;" xml:space="preserve">
<style type="text/css">
	.st0{fill-rule:evenodd;clip-rule:evenodd;}
</style>
<metadata>
	<sfw  xmlns="&ns_sfw;">
		<slices></slices>
		<sliceSourceBounds  bottomLeftOrigin="true" height="29.26" width="70.78" x="6.59" y="-38.1"></sliceSourceBounds>
	</sfw>
</metadata>
<path class="st0" d="M75.37,11.48c-1.53,0-1.92,0.65-1.92,2.9c0,2.37,0.43,3.03,1.96,3.03c0.64,0,1.23-0.12,1.71-0.34l0.25,2.18
	c-0.62,0.3-1.56,0.49-2.36,0.49c-2.96,0-4.39-1.67-4.39-5.38c0-3.46,1.39-5.27,4.56-5.27c0.73,0,1.63,0.16,2.18,0.38l-0.26,2.28
	C76.64,11.59,76.02,11.48,75.37,11.48z M66.25,15.99c0,2.3-1.13,3.7-3.74,3.7c-1.1,0-2.14-0.23-3-0.71l0.44-2.03
	c0.76,0.37,1.38,0.56,2.26,0.56c1.1,0,1.4-0.42,1.4-1.32c0-0.81-0.44-1.1-1.38-1.1c-0.54,0-1.2,0.08-1.71,0.26l-0.86-0.99l0.37-5.1
	h5.63l0.1,2.28h-3.6l-0.1,1.52c0.32-0.05,0.65-0.08,1.02-0.08C65.09,12.99,66.25,13.99,66.25,15.99z M54.51,17.24h3.23l-0.06,2.32
	h-6.5v-1.67c2.14-2.37,3.88-4.07,3.88-5.43c0-0.62-0.36-0.97-1.19-0.97c-0.79,0-1.51,0.36-2.18,0.84l-0.62-2.13
	c0.83-0.6,1.93-1.03,3.33-1.03c2.26,0,3.4,1.22,3.4,3.03c0,1.67-1.34,3.17-3.3,5.01L54.51,17.24z M52.97,27.63h2.69l-1.8,3.81
	l1.85,4.58h-2.75l-1.26-3.47h-0.83v3.47h-2.5V25.37l2.5-0.11v5.31h0.83L52.97,27.63z M43.85,21.15L48.1,8.83h2.15l-4.32,12.32H43.85
	z M47.35,27.84l-0.14,2.07c-0.36-0.11-0.77-0.19-1.13-0.19c-1.31,0-1.71,0.53-1.71,2.18c0,1.55,0.62,2.19,1.66,2.19
	c0.46,0,0.87-0.08,1.23-0.22l0.17,1.91c-0.46,0.26-1.12,0.41-1.93,0.41c-2.4,0-3.72-1.4-3.72-4.29c0-2.81,1.13-4.39,3.74-4.39
	C46.15,27.51,46.88,27.64,47.35,27.84z M43.24,16.46c0,1.98-1.23,3.24-3.91,3.24c-1.13,0-2.15-0.3-2.87-0.71l0.46-2.03
	c0.75,0.37,1.48,0.56,2.31,0.56c0.95,0,1.42-0.4,1.42-1.12c0-0.67-0.37-1.18-2.22-1.18v-1.85c1.78,0,2.15-0.4,2.15-1.1
	c0-0.53-0.36-0.85-1.27-0.85c-0.9,0-1.67,0.3-2.32,0.82l-0.59-2.06c0.77-0.6,1.92-1.02,3.12-1.02c2.24,0,3.54,1.1,3.54,2.92
	c0,0.93-0.43,1.67-1.24,2.13v0.03C42.73,14.64,43.24,15.38,43.24,16.46z M34.37,17.72v1.84h-2.45v-1.84h-4.09l-0.22-1.67l3.59-6.78
	h3.16v6.28h0.84l-0.06,2.17H34.37z M32.14,11.85l-1.85,3.7H32l0.1-2.58l0.07-1.11L32.14,11.85z M34.03,29.36
	c0,2.22-1.12,3.47-4.02,3.47h-0.86v3.2h-2.69V25.74h3.55C32.88,25.74,34.03,26.85,34.03,29.36z M29.15,30.7h0.86
	c0.88,0,1.22-0.21,1.22-1.36c0-1.11-0.26-1.37-1.22-1.37h-0.86V30.7z M19.22,19.56h-3.74V9.27h3.69c3.15,0,4.43,1.45,4.43,5.09
	C23.6,18.13,22.13,19.56,19.22,19.56z M19.18,11.65h-1.01v5.57h1.01c1.19,0,1.59-0.36,1.59-2.88
	C20.77,12.06,20.39,11.65,19.18,11.65z M17.59,28.22c0.52-0.45,1.23-0.71,1.98-0.71c1.91,0,2.97,1.06,2.97,4.31
	c0,2.88-1.17,4.33-3.01,4.33c-0.61,0-1.15-0.12-1.6-0.51l-0.04,0.01l0.03,1.11v1.33H15.4V27.68l1.75-0.1L17.59,28.22z M17.91,33.56
	c0.19,0.33,0.5,0.56,0.94,0.56c0.68,0,1.09-0.36,1.09-2.36c0-1.73-0.28-2.11-1.06-2.11c-0.41,0-0.77,0.22-0.97,0.53V33.56z
	 M10.62,36.03H6.59V25.74h4.06c2.22,0,3.36,1.03,3.36,2.66c0,1.08-0.5,1.78-1.27,2.15v0.03c1.04,0.34,1.59,1.14,1.59,2.41
	C14.32,34.85,13.21,36.03,10.62,36.03z M10.54,27.99H9.2v1.81h1.37c0.62,0,0.84-0.23,0.84-0.93C11.41,28.19,11.18,27.99,10.54,27.99
	z M10.61,31.8H9.2v2.03h1.46c0.68,0,0.93-0.22,0.93-1.03C11.59,32.09,11.37,31.8,10.61,31.8z M14.32,16.53
	c0,1.85-1.12,3.03-3.7,3.03H6.59V9.27h4.06c2.22,0,3.36,1.03,3.36,2.66c0,1.08-0.5,1.78-1.27,2.15v0.03
	C13.77,14.46,14.32,15.25,14.32,16.53z M10.54,11.52H9.2v1.81h1.37c0.62,0,0.84-0.23,0.84-0.93C11.41,11.73,11.18,11.52,10.54,11.52
	z M10.61,15.34H9.2v2.03h1.46c0.68,0,0.93-0.22,0.93-1.03C11.59,15.62,11.37,15.34,10.61,15.34z M37.3,30.7
	c0.54,0,0.94,0.06,1.3,0.16v-0.33c0-0.63-0.33-0.97-1.31-0.97c-0.86,0-1.37,0.14-2.11,0.43l-0.19-1.96c0.8-0.36,1.75-0.52,2.78-0.52
	c2.47,0,3.31,1.04,3.31,3.39v5.13h-1.92l-0.18-0.67l-0.04-0.01c-0.45,0.53-1.13,0.82-1.96,0.82c-1.52,0-2.49-0.92-2.49-2.81
	C34.48,31.79,35.56,30.7,37.3,30.7z M37.64,34.21c0.5,0,0.94-0.3,0.94-0.77v-0.93c-0.17-0.07-0.43-0.12-0.8-0.12
	c-0.65,0-0.94,0.29-0.94,0.93C36.84,33.97,37.14,34.21,37.64,34.21z"/>
</svg>
