<?xml version="1.0" encoding="utf-8"?>
<!-- Generator: Adobe Illustrator 23.1.1, SVG Export Plug-In . SVG Version: 6.00 Build 0)  -->
<!DOCTYPE svg PUBLIC "-//W3C//DTD SVG 1.1//EN" "http://www.w3.org/Graphics/SVG/1.1/DTD/svg11.dtd" [
	<!ENTITY ns_extend "http://ns.adobe.com/Extensibility/1.0/">
	<!ENTITY ns_ai "http://ns.adobe.com/AdobeIllustrator/10.0/">
	<!ENTITY ns_graphs "http://ns.adobe.com/Graphs/1.0/">
	<!ENTITY ns_vars "http://ns.adobe.com/Variables/1.0/">
	<!ENTITY ns_imrep "http://ns.adobe.com/ImageReplacement/1.0/">
	<!ENTITY ns_sfw "http://ns.adobe.com/SaveForWeb/1.0/">
	<!ENTITY ns_custom "http://ns.adobe.com/GenericCustomNamespace/1.0/">
	<!ENTITY ns_adobe_xpath "http://ns.adobe.com/XPath/1.0/">
]>
<svg version="1.1" id="Ebene_1" xmlns:x="&ns_extend;" xmlns:i="&ns_ai;" xmlns:graph="&ns_graphs;"
	 xmlns="http://www.w3.org/2000/svg" xmlns:xlink="http://www.w3.org/1999/xlink" x="0px" y="0px" viewBox="0 0 205.34 135.93"
	 style="enable-background:new 0 0 205.34 135.93;" xml:space="preserve">
<style type="text/css">
	.st0{fill-rule:evenodd;clip-rule:evenodd;}
</style>
<metadata>
	<sfw  xmlns="&ns_sfw;">
		<slices></slices>
		<sliceSourceBounds  bottomLeftOrigin="true" height="123.66" width="185.14" x="7.33" y="-129.33"></sliceSourceBounds>
	</sfw>
</metadata>
<path class="st0" d="M190.09,129.3c-1.66,0-2.4-0.64-2.4-2.26c0-1.45,0.74-2.28,2.4-2.28c1.66,0,2.38,0.83,2.38,2.28
	C192.47,128.4,191.76,129.3,190.09,129.3z M177.14,120.79l-1-1.64l-0.05,0.02l0.02,1.93v7.92h-4.09v-17.83h3.9l5.73,9.25l0.05-0.02
	l-0.05-1.9l0.02-7.32h4.09v17.83h-3.3L177.14,120.79z M172.5,27.59h-4.73V13.92h-4.04l0.1-4.16h12.62l0.1,4.16h-4.04V27.59z
	 M159.16,8.9c-1.16,0-1.76-0.45-1.76-1.59c0-1.07,0.59-1.64,1.76-1.64c1.21,0,1.76,0.57,1.76,1.64
	C160.92,8.36,160.38,8.9,159.16,8.9z M154.62,8.9c-1.16,0-1.76-0.45-1.76-1.59c0-1.07,0.59-1.64,1.76-1.64
	c1.21,0,1.76,0.57,1.76,1.64C156.38,8.36,155.84,8.9,154.62,8.9z M154.08,9.76h5.68l5.37,17.83h-5.18l-0.69-3.11h-4.85l-0.69,3.11
	h-4.83h-0.1h-5.28l-2.38-6.37h-1.57v6.37h-4.63V9.76h6.16c4.52,0,6.75,1.71,6.75,5.73c0,2.38-0.86,4.14-2.42,4.8l3.41,7.18
	L154.08,9.76z M158.4,20.6l-1.14-5.11l-0.36-1.9h-0.07l-0.4,1.9l-1.14,5.11H158.4z M141.19,13.61h-1.62v4.11h1.59
	c1.36,0,1.83-0.33,1.83-2.07C143,14.04,142.55,13.61,141.19,13.61z M133.16,23.57l-0.1,4.02h-11.48V9.76h11.17l0.1,4.09h-6.63v2.76
	h5.47v3.73h-5.47v3.23H133.16z M106.39,18.67c0-6.23,2.45-9.22,8.2-9.22c1.57,0,3.35,0.29,4.63,0.78l-0.43,3.97
	c-1.16-0.43-2.66-0.69-3.95-0.69c-2.92,0-3.59,1.09-3.59,5.11c0,4.23,0.69,5.16,3,5.16c0.36,0,0.74-0.02,1.07-0.1v-5.82h4.14v9.08
	c-1.24,0.59-3.26,0.97-5.09,0.97C108.48,27.92,106.39,24.76,106.39,18.67z M105.2,22.19c0,3.52-2.38,5.71-6.39,5.71
	c-1.88,0-3.73-0.43-5.18-1.24l0.59-3.95c1.45,0.74,2.92,1.19,4.47,1.19c1.47,0,2.04-0.5,2.04-1.45c0-2.28-7.08-1.57-7.08-7.39
	c0-3.11,1.9-5.59,6.3-5.59c1.64,0,3.4,0.31,4.68,0.86l-0.52,3.88c-1.36-0.4-2.71-0.64-3.85-0.64c-1.76,0-2.14,0.52-2.14,1.28
	C98.12,17.15,105.2,16.37,105.2,22.19z M83.09,19.36l-1-1.64l-0.05,0.02l0.02,1.93v7.92h-4.09V9.76h3.9l5.73,9.25l0.05-0.02
	l-0.05-1.9l0.02-7.32h4.09v17.83h-3.3L83.09,19.36z M68.57,27.9c-5.13,0-7.46-2.71-7.46-9.22c0-6.54,2.23-9.2,7.46-9.2
	c5.23,0,7.46,2.66,7.46,9.2C76.03,25.38,73.8,27.9,68.57,27.9z M68.54,13.63c-1.95,0-2.57,0.81-2.57,5.04
	c0,4.26,0.64,5.11,2.62,5.11c1.97,0,2.57-0.88,2.57-5.11C71.16,14.42,70.56,13.63,68.54,13.63z M54.18,9.76h4.78v17.83h-4.78V9.76z
	 M46.72,53.25c-4.56,0-6.87-2.19-6.87-6.37V35.12h4.66v11.67c0,1.59,0.62,2.31,2.21,2.31c1.62,0,2.16-0.67,2.16-2.31V35.12h4.64
	v11.77C53.52,51.07,51.28,53.25,46.72,53.25z M48.53,27.59H43.8V13.92h-4.04l0.1-4.16h12.62l0.1,4.16h-4.04V27.59z M33.69,49.83
	h-4.85l-0.69,3.11h-4.92l5.28-17.83h5.68l5.37,17.83h-5.18L33.69,49.83z M31.7,40.85l-0.36-1.9h-0.07l-0.4,1.9l-1.14,5.11h3.11
	L31.7,40.85z M33.98,27.59l-3.35-7.25h-1.14v7.25h-4.64V9.76h4.64v6.89h1.24l3.3-6.89h5.21l-4.28,8.53l4.49,9.3H33.98z M17.79,24.47
	h-4.85l-0.69,3.11H7.33l5.28-17.83h5.68l5.37,17.83h-5.18L17.79,24.47z M15.79,15.49l-0.36-1.9h-0.07l-0.4,1.9l-1.14,5.11h3.11
	L15.79,15.49z M13.22,42.01h1.24l3.3-6.89h5.21l-4.28,8.53l4.49,9.3h-5.47l-3.35-7.25h-1.14v7.25H8.59V35.12h4.64V42.01z M21.5,66.2
	c0,2.38-0.86,4.14-2.42,4.8l3.47,7.3h-5.37l-2.38-6.37h-1.57v6.37H8.59V60.47h6.16C19.26,60.47,21.5,62.19,21.5,66.2z M13.22,68.44
	h1.59c1.36,0,1.83-0.33,1.83-2.07c0-1.62-0.45-2.04-1.81-2.04h-1.62V68.44z M16.84,94.84l0.59,1.83h0.07l0.59-1.81l3.19-9.03h5.13
	v17.83h-4.26V96.2l0.05-1.93l-0.07-0.02l-0.59,1.85l-2.64,7.56h-3.02l-2.62-7.54l-0.59-1.85l-0.05,0.02l0.02,1.93v7.44H8.59V85.83
	h5.11L16.84,94.84z M22.57,120.01c0,6.54-2.52,9.01-7.54,9.01H8.59v-17.83h6.35C20.36,111.19,22.57,113.71,22.57,120.01z
	 M13.22,124.95h1.74c2.04,0,2.73-0.62,2.73-4.99c0-3.95-0.64-4.66-2.73-4.66h-1.74V124.95z M29.03,103.66V85.83h4.78v17.83H29.03z
	 M35.28,74.29l-0.1,4.02H23.71V60.47h11.17l0.1,4.09h-6.63v2.76h5.47v3.73h-5.47v3.23H35.28z M33.55,111.19l5.37,17.83h-5.18
	l-0.69-3.11H28.2l-0.69,3.11h-4.92l5.28-17.83H33.55z M32.19,122.03l-1.14-5.11l-0.36-1.9h-0.07l-0.4,1.9l-1.14,5.11H32.19z
	 M42.04,60.47V78.3h-4.78V60.47H42.04z M35.52,85.83h12.62l0.1,4.16H44.2v13.67h-4.73V89.99h-4.04L35.52,85.83z M46.2,115.4
	l-0.02-0.05h-6.56l0.12-4.16h11.91v3.33l-5.49,8.75l-1.05,1.55l0.02,0.07h6.56l-0.07,4.14H39.47V126l5.68-9.03L46.2,115.4z
	 M49.14,85.83h12.62l0.1,4.16h-4.04v13.67h-4.73V89.99h-4.04L49.14,85.83z M57.82,122.86c0,1.59,0.62,2.31,2.21,2.31
	c1.62,0,2.16-0.67,2.16-2.31v-11.67h4.64v11.77c0,4.18-2.23,6.37-6.8,6.37c-4.56,0-6.87-2.19-6.87-6.37v-11.77h4.66V122.86z
	 M85.71,115.28h-6.63v2.76h5.47v3.73h-5.47V125h6.94l-0.1,4.02H74.44v-17.83h11.17L85.71,115.28z M74.56,89.92h-6.63v2.76h5.47v3.73
	h-5.47v3.23h6.94l-0.1,4.02H63.29V85.83h11.17L74.56,89.92z M61.01,78.3V60.47h4.78V78.3H61.01z M67,39.28h-6.56v3.14h5.44
	l-0.02,3.95h-5.42v6.59h-4.66V35.12h11.15L67,39.28z M54.3,60.47h4.09V78.3h-3.3l-5.33-8.23l-1-1.64l-0.05,0.02l0.02,1.93v7.92
	h-4.09V60.47h3.9l5.73,9.25l0.05-0.02l-0.05-1.9L54.3,60.47z M80.14,48.93l-0.1,4.02H68.57V35.12h11.17l0.1,4.09H73.2v2.76h5.47
	v3.73H73.2v3.23H80.14z M81,68.58v9.08c-1.24,0.59-3.26,0.97-5.09,0.97c-5.9,0-7.99-3.16-7.99-9.25c0-6.23,2.45-9.22,8.2-9.22
	c1.57,0,3.35,0.29,4.64,0.78l-0.43,3.97c-1.16-0.43-2.66-0.69-3.95-0.69c-2.92,0-3.59,1.09-3.59,5.11c0,4.23,0.69,5.16,3,5.16
	c0.36,0,0.74-0.02,1.07-0.1v-5.82H81z M76.65,85.83h4.68v13.69h6.06l-0.12,4.14H76.65V85.83z M100.71,116.92
	c0,2.38-0.86,4.14-2.42,4.8l3.47,7.3h-5.37L94,122.65h-1.57v6.37H87.8v-17.83h6.16C98.47,111.19,100.71,112.9,100.71,116.92z
	 M92.43,119.15h1.59c1.36,0,1.83-0.33,1.83-2.07c0-1.62-0.45-2.04-1.81-2.04h-1.62V119.15z M96.62,72.24c0,4.18-2.23,6.37-6.8,6.37
	s-6.87-2.19-6.87-6.37V60.47h4.66v11.67c0,1.59,0.62,2.31,2.21,2.31c1.62,0,2.16-0.67,2.16-2.31V60.47h4.63V72.24z M91.58,35.12
	h4.09v17.83h-3.3l-5.33-8.23l-1-1.64l-0.05,0.02l0.02,1.93v7.92h-4.09V35.12h3.9l5.73,9.25l0.05-0.02l-0.05-1.9L91.58,35.12z
	 M93.79,94.75c0-6.23,2.45-9.22,8.2-9.22c1.57,0,3.35,0.29,4.63,0.78l-0.43,3.97c-1.16-0.43-2.66-0.69-3.95-0.69
	c-2.92,0-3.59,1.09-3.59,5.11c0,4.23,0.69,5.16,3,5.16c0.36,0,0.74-0.02,1.07-0.1v-5.82h4.14v9.08c-1.24,0.59-3.26,0.97-5.09,0.97
	C95.88,103.99,93.79,100.83,93.79,94.75z M107.55,117.87h4.33v-6.68h4.66v17.83h-4.66v-6.99h-4.33v6.99h-4.64v-17.83h4.64V117.87z
	 M113.62,97.29v6.37h-4.63V85.83h6.16c4.52,0,6.75,1.71,6.75,5.73c0,2.38-0.86,4.14-2.42,4.8l3.41,7.18l5.24-17.71h5.68l5.37,17.83
	h-5.18l-0.69-3.11h-4.85l-0.69,3.11h-4.83h-0.1h-5.28l-2.38-6.37H113.62z M132.44,96.67l-1.14-5.11l-0.36-1.9h-0.07l-0.4,1.9
	l-1.14,5.11H132.44z M117.04,91.73c0-1.62-0.45-2.04-1.81-2.04h-1.62v4.11h1.59C116.56,93.8,117.04,93.46,117.04,91.73z
	 M128.64,111.19l5.37,17.83h-5.18l-0.69-3.11h-4.85l-0.69,3.11h-4.92l5.28-17.83H128.64z M127.29,122.03l-1.14-5.11l-0.36-1.9h-0.07
	l-0.4,1.9l-1.14,5.11H127.29z M139.89,124.88h6.06l-0.12,4.14H135.2v-17.83h4.68V124.88z M150.58,89.99h-4.04v13.67h-4.73V89.99
	h-4.04l0.1-4.16h12.62L150.58,89.99z M148.78,70.93h-6.63v-3.09h6.63V70.93z M149.35,43.94c0,6.54-2.52,9.01-7.54,9.01h-6.44V35.12
	h6.35C147.14,35.12,149.35,37.64,149.35,43.94z M140,48.88h1.74c2.04,0,2.73-0.62,2.73-4.99c0-3.95-0.64-4.66-2.73-4.66H140V48.88z
	 M140.24,61.04l-0.52,3.88c-1.36-0.4-2.71-0.64-3.85-0.64c-1.76,0-2.14,0.52-2.14,1.28c0,2.31,7.08,1.52,7.08,7.35
	c0,3.52-2.38,5.71-6.39,5.71c-1.88,0-3.73-0.43-5.18-1.24l0.59-3.95c1.45,0.74,2.92,1.19,4.47,1.19c1.47,0,2.04-0.5,2.04-1.45
	c0-2.28-7.08-1.57-7.08-7.39c0-3.11,1.9-5.59,6.3-5.59C137.2,60.19,138.96,60.5,140.24,61.04z M122.77,60.17
	c1.57,0,3.35,0.29,4.64,0.78l-0.43,3.97c-1.16-0.43-2.66-0.69-3.95-0.69c-2.92,0-3.59,1.09-3.59,5.11c0,4.23,0.69,5.16,2.99,5.16
	c0.36,0,0.74-0.02,1.07-0.1v-5.82h4.14v9.08c-1.24,0.59-3.26,0.97-5.09,0.97c-5.89,0-7.99-3.16-7.99-9.25
	C114.57,63.16,117.02,60.17,122.77,60.17z M102.97,78.3h-4.09V60.47h3.9l5.73,9.25l0.05-0.02l-0.05-1.9l0.02-7.32h4.09V78.3h-3.3
	l-5.32-8.23l-1-1.64l-0.05,0.02l0.02,1.93V78.3z M116.94,35.12v11.77c0,4.18-2.23,6.37-6.8,6.37c-4.56,0-6.87-2.19-6.87-6.37V35.12
	h4.66v11.67c0,1.59,0.62,2.31,2.21,2.31c1.62,0,2.16-0.67,2.16-2.31V35.12H116.94z M128.85,35.12h4.09v17.83h-3.3l-5.32-8.23
	l-1-1.64l-0.05,0.02l0.02,1.93v7.92h-4.09V35.12h3.9l5.73,9.25l0.05-0.02l-0.05-1.9L128.85,35.12z M156.98,85.83v17.83h-4.78V85.83
	H156.98z M144.52,111.19h12.62l0.1,4.16h-4.04v13.67h-4.73v-13.67h-4.04L144.52,111.19z M169.93,115.28h-6.63v2.76h5.47v3.73h-5.47
	V125h6.94l-0.1,4.02h-11.48v-17.83h11.17L169.93,115.28z M170.65,98.26c0,3.52-2.38,5.71-6.39,5.71c-1.88,0-3.73-0.43-5.18-1.24
	l0.59-3.95c1.45,0.74,2.92,1.19,4.47,1.19c1.47,0,2.04-0.5,2.04-1.45c0-2.28-7.08-1.57-7.08-7.39c0-3.11,1.9-5.59,6.3-5.59
	c1.64,0,3.4,0.31,4.68,0.86l-0.52,3.88c-1.36-0.4-2.71-0.64-3.85-0.64c-1.76,0-2.14,0.52-2.14,1.28
	C163.56,93.22,170.65,92.44,170.65,98.26z"/>
</svg>
