<svg enable-background="new 0 0 270.28 140.37" viewBox="0 0 270.28 140.37" xmlns="http://www.w3.org/2000/svg"><path clip-rule="evenodd" d="m250.61 87.2v-2.88h7.81v2.88zm-1.57 2.76c0 3.7-2.8 6.28-7.53 6.28-2.21 0-4.4-.5-6.1-1.46l.7-4.65c1.71.87 3.44 1.99 5.26 1.99 1.74 0 2.41-1.17 2.41-2.29 0-2.69-8.34-1.85-8.34-8.71 0-3.67 2.24-5.96 7.42-5.96 1.93 0 4-.26 5.52 1.08l-.62 3.87c-1.6-.48-3.19-.76-4.54-.76-2.07 0-2.52.62-2.52 1.51 0 2.73 8.34 1.8 8.34 9.1zm-23.49 6.28c-5.38 0-8.09-2.58-8.09-7.5v-13.86h5.74v13.75c0 2.14.48 2.72 2.35 2.72 1.9 0 2.55-.02 2.55-2.72v-13.75h5.46v13.86c0 4.93-1.84 7.5-8.01 7.5zm-15.35-4.03h-5.71l-.81 3.67h-4.95-.84-6.21l-2.8-7.5h-1.85v7.5h-5.46v-21h7.25c5.32 0 7.95 2.02 7.95 6.75 0 2.8-1.01 5.1-2.86 5.66l4.12 8.45 6.07-20.86h6.69l6.33 21h-6.1zm-20.38-12.8h-2.79v4.84h1.88c1.6 0 2.16-.39 2.16-2.44-.02-1.89-.55-2.4-1.25-2.4zm18.03 2.22-.42-2.24h-.08l-.48 2.24-1.34 6.02h3.67zm-.52-53.31h7.44v2.88h-7.44zm-.12 11.56h-6.44l-3.95-8.54h-1.34v8.54h-5.46v-21h5.46v8.12h1.61l3.74-8.12h6.5l-5.31 10.05zm-23.18-3.51c1.29 0 2.49-1.14 3.47-1.59l1.27 4.45c-2.03.62-3.93 1.01-5.55 1.01-5.99 0-8.9-3.42-8.9-10.98 0-7.06 2.83-10.38 9.24-10.38 1.48 0 3.3-.03 4.94.41l-1.05 4.65c-.92-.34-2.18-.56-3.27-.56-3.33 0-4.12 1.32-4.12 5.91-.01 4.85.96 7.08 3.97 7.08zm-12.51 9.5c-1.91 0-2.61-.53-2.61-1.88 0-1.26.7-1.93 2.61-1.93.89 0 1.53.67 1.53 1.93 0 1.24-.65 1.88-1.53 1.88zm-7.32-5.63c-5.38 0-8.09-2.58-8.09-7.5v-13.86h5.49v13.75c0 2.14.73 2.72 2.6 2.72 1.9 0 2.55-.02 2.55-2.72v-13.75h5.46v13.86c0 4.93-2.63 7.5-8.01 7.5zm-15.29-.36-2.8-7.5h-1.85v7.5h-5.46v-21h7.25c5.32 0 8.79 2.02 8.79 6.75 0 2.8-1.08 5.1-3.69 5.66l4.09 8.6h-6.33zm-2.74-16.47h-1.9v4.84h1.88c1.6 0 2.16-.39 2.16-2.44-.01-1.89-.54-2.4-2.14-2.4zm-7.62 67.74-.11 4.73h-13.42v-21h13.06l.11 4.82h-7.81v3.25h6.44v4.4h-6.44v3.81h8.17zm-10.02-30.78h-1.85v7.5h-5.46v-21h7.25c5.32 0 7.95 2.02 7.95 6.75 0 2.8-1.01 5.1-2.86 5.66l4.09 8.6h-6.33zm.06-8.96h-1.9v4.84h1.88c1.6 0 2.16-.39 2.16-2.44-.02-1.89-.55-2.4-2.14-2.4zm-.96-11.53h-7.59v-21h7.48c6.38 0 8.99 2.97 8.99 10.39 0 7.7-2.97 10.61-8.88 10.61zm-.08-16.16h-2.04v11.37h2.04c2.78 0 3.22-.73 3.22-5.88 0-3.85.12-5.49-3.22-5.49zm-8.43 39.43.72 4.73h-14.36v-21h13.16l.11 4.82h-7.55v3.25h6.18v4.4h-6.18v3.81h7.92zm-5.51-23.27h-5.57v-16.1h-4.76l.11-4.9h14.87l.11 4.9h-4.76zm-26.02 17.5c0-7.34 2.88-10.49 9.66-10.49 1.85 0 3.95-.03 5.46.56l-.5 4.68c-1.37-.5-3.14-.81-4.65-.81-3.44 0-4.23 1.29-4.23 6.02 0 4.98.81 6.08 3.53 6.08.42 0 .87-.03 1.26-.11v-6.86h5.56v10.7c-2.15.7-4.53 1.15-5.92 1.15-7.7-.03-10.17-3.1-10.17-10.92zm15.55-23.42c0 3.7-3 6.28-7.73 6.28-2.21 0-3.55-.5-6.1-1.46l1.47-4.65c.93.87 2.67 1.99 4.49 1.99 2.51 0 2.41-1.17 2.41-2.29 0-2.69-8.34-1.85-8.34-8.71 0-3.67 2.24-5.96 7.42-5.96 1.93 0 4-.26 5.52 1.08l-.62 3.87c-1.6-.48-3.19-.76-4.54-.76-2.07 0-2.52.62-2.52 1.51-.01 2.73 8.54 1.8 8.54 9.1zm-21.54-2.31h-5.1v8.23h-5.46v-21h5.46v7.87h5.1v-7.87h5.49v21h-5.49zm-16.55 4.72c1.29 0 2.49-1.14 3.47-1.59l.5 4.45c-1.26.62-3.16 1.01-4.79 1.01-5.99 0-8.9-3.42-8.9-10.98 0-7.06 2.83-10.38 9.24-10.38 1.48 0 3.3-.03 5.2.41l-1.31 4.65c-.92-.34-2.18-.56-3.01-.56-3.59 0-4.38 1.32-4.38 5.91.01 4.85 1.15 7.08 3.98 7.08zm-20.24 3.87c-6.05 0-8.79-3.19-8.79-10.86 0-7.7 2.63-10.21 8.79-10.21 6.65 0 8.79 2.51 8.79 10.21 0 7.89-2.13 10.86-8.79 10.86zm-.03-16.8c-2.3 0-3.02.95-3.02 5.94 0 5.01.76 6.02 3.08 6.02s3.02-1.04 3.02-6.02c0-5.01-.7-5.94-3.08-5.94zm2.72-5.57c-1.37 0-2.07-.53-2.07-1.88 0-1.26.7-1.93 2.07-1.93 1.53 0 2.07.67 2.07 1.93 0 1.24-.54 1.88-2.07 1.88zm-5.35 0c-1.37 0-2.07-.53-2.07-1.88 0-1.26.7-1.93 2.07-1.93 1.43 0 2.07.67 2.07 1.93 0 1.24-.64 1.88-2.07 1.88zm6.64 33.82h-7.29v3.25h5.92v4.4h-5.92v3.81h7.65l-.11 4.73h-13.53v-21h13.16zm-22.88 8.68h-2.74v7.5h-5.46v-21h7.64c4.93 0 7.56 2.02 7.56 6.75 0 2.8-1.01 5.1-2.86 5.66l4.09 8.6h-6.33zm-.84-8.96h-1.9v4.84h1.88c1.6 0 2.16-.39 2.16-2.44-.01-1.89-.54-2.4-2.14-2.4zm3.19-19.76h-5.1v8.23h-5.46v-21h5.46v7.87h5.1v-7.87h5.49v21h-5.49zm3.29 48.04h-8.38v3.25h6.44v4.4h-6.44v3.81h8.18l-.11 4.73h-13.53v-21h13.16zm.07 28.09h-8.42v3.79h6.41l-.03 4.55h-6.38v7.76h-5.49v-21h13.13zm9.22-4.62c6.87 0 8.79 2.51 8.79 10.21 0 7.9-1.92 10.86-8.79 10.86-6.05 0-8.79-3.19-8.79-10.86-.01-7.69 2.63-10.21 8.79-10.21zm.02 16.24c2.32 0 3.02-1.04 3.02-6.02 0-5.01-.7-5.94-3.08-5.94-2.3 0-3.02.95-3.02 5.94 0 5.01.76 6.02 3.08 6.02zm3.28-23.52-2.02-5.07-.78-2.13h-.08l-.78 2.13-1.99 5.07h-6.24l5.04-10.84-4.99-10.16h6.41l1.76 4.31.81 2.1h.08l.81-2.1 2.57-4.31h5.41l-5.04 10 5.15 11zm12.96-49v21h-5.63v-21zm8.63 28 .11 4.9h-4.76v16.1h-5.57v-16.1h-4.76l.11-4.9zm1.4 34.75c0 2.8-1.01 5.1-2.86 5.66l4.09 8.6h-6.33l-2.8-7.5h-1.85v7.5h-4.87v-21h6.66c5.32-.01 7.96 2 7.96 6.74zm-9.75 2.63h1.88c1.6 0 2.16-.39 2.16-2.44 0-1.9-.53-2.41-2.13-2.41h-1.9v4.85zm27.69-44.38h-5.63v-21h5.63zm-2.35 13.75c0 2.8-1.01 5.1-2.86 5.66l4.43 8.6h-6.67l-2.8-7.5h-1.29v7.5h-6.02v-21h7.25c5.33-.01 7.96 2 7.96 6.74zm-7.84-2.22h-1.35v4.84h1.32c1.6 0 3-.39 3-2.44.01-1.89-1.37-2.4-2.97-2.4zm-3.33-32.53h4.82v21h-3.89l-6.27-9.69-1.18-1.93.43.03.28 3v8.59h-5.55v-21h4.59l6.75 10.89.06-.03-.06-1.98zm14.64 66.39c0 7.7-2.97 10.61-8.88 10.61h-7.59v-21h7.48c6.39 0 8.99 2.97 8.99 10.39zm-11 5.82h2.04c2.41 0 3.22-.73 3.22-5.88 0-3.85-.76-5.49-3.22-5.49h-2.04zm24.19-27.94-.53 4.73h-13.52v-21h13.16l.11 4.82h-7.81v3.25h6.44v4.4h-6.44v3.81h8.59zm2.38 16.54h-7.51v3.25h6.13v4.4h-6.13v3.81h7.87l.77 4.73h-14.4v-21h13.16zm17.67 1.94c0 2.8-1.01 5.1-2.86 5.66l4.09 8.6h-6.33l-2.8-7.5h-1.85v7.5h-5.46v-21h7.25c5.33-.01 7.96 2 7.96 6.74zm-9.74 2.63h1.88c1.6 0 2.16-.39 2.16-2.44 0-1.9-.53-2.41-2.13-2.41h-1.9v4.85zm-3.84-16.38h-4.79v-21h6.02l3.7 10.76.7 2h.08l.7-1.72 4.63-11.04h5.17v21h-5.01v-8.79l.06-2.27-.08-.03-.7 2.18-3.11 8.9h-3.56l-3.08-8.87-.7-2.18-.06.03.03 2.27zm21.17 20.75c0 2.14.73 2.72 2.6 2.72 1.9 0 2.55-.02 2.55-2.72v-13.75h5.46v13.86c0 4.93-1.89 7.5-8.01 7.5-5.38 0-8.09-2.58-8.09-7.5v-13.86h5.49zm24.61-2.86.06-.03-.06-1.98.03-8.89h4.82v21h-3.89l-6.27-9.69-1.18-1.93-.06.03.03 3v8.6h-4.82v-21h4.59zm-6.3-45.89v-21h13.13l.08 4.9h-7.73v3.79h6.41l-.03 4.55h-6.38v7.76zm7.08 28h-5.13v-21h5.13v7.87h5.1v-7.87h6.22v21h-6.22v-8.23h-5.1zm16.02 7c1.85 0 3.95-.03 5.46.55l-.5 4.68c-.5-.5-3.14-.81-4.65-.81-3.44 0-4.23 1.29-4.23 6.02 0 4.98.81 6.08 3.53 6.08.42 0 .87-.03 1.26-.11v-6.86h4.87v10.7c-1.46.7-3.84 1.15-5.99 1.15-6.94 0-9.41-3.07-9.41-10.89 0-7.35 2.88-10.51 9.66-10.51zm-4.87-58.89c0-1.26.7-1.93 2.07-1.93 1.43 0 2.07.67 2.07 1.93 0 1.23-.64 1.88-2.07 1.88-1.37 0-2.07-.53-2.07-1.88zm12.74 2.89v13.86c0 4.93-2.63 7.5-8.01 7.5s-8.09-2.58-8.09-7.5v-13.86h5.49v13.75c0 2.14.73 2.72 2.6 2.72 1.9 0 2.55-.02 2.55-2.72v-13.75zm3.16 44.27-.11 4.73h-13.52v-21h13.78l-.51 4.82h-7.81v3.25h6.44v4.4h-6.44v3.81h8.17zm-.14-23.27v-21h6.89c5.32 0 7.95 2.02 7.95 6.75 0 2.8-1.01 5.1-2.86 5.66l4.09 8.6h-6.33l-2.8-7.5h-1.85v7.5h-5.09zm6.97-11.62c1.6 0 2.16-.39 2.16-2.44 0-1.9-.53-2.41-2.13-2.41h-1.9v4.84h1.87zm3.8 51.43h-7.96v3.25h6.44v4.4h-6.44v3.81h8.18l-.11 4.73h-13.52v-21h13.16zm13.65 6.08.06-.03-.06-1.98.03-8.89h4.82v21h-3.89l-6.27-9.69-1.18-1.93-.06.03.03 3v8.6h-4.82v-21h5.25zm9.94 5.1c1.96 0 2.8.98 2.8 3.42 0 .87-.84 1.93-2.8 1.93s-2.83-.76-2.83-1.93c0-2.44.87-3.42 2.83-3.42z" fill-rule="evenodd"/></svg>