<svg id="Ebene_1" data-name="Ebene 1" xmlns="http://www.w3.org/2000/svg" viewBox="0 0 206.35791 211.39941">
  <g>
    <path d="M14,43.39941A25.53415,25.53415,0,0,1,1.792,40.4873l1.3999-9.29589a23.11372,23.11372,0,0,0,10.52784,2.7998c3.47216,0,4.8164-1.17578,4.8164-3.416,0-5.376-16.688-3.69532-16.688-17.415C1.84814,5.82422,6.32812,0,16.688,0A29.7821,29.7821,0,0,1,27.71973,2.01562l-1.23194,9.12793A32.99112,32.99112,0,0,0,17.416,9.63184c-4.144,0-5.04,1.23144-5.04,3.02343,0,5.43262,16.688,3.584,16.688,17.30469C29.064,38.24805,23.46387,43.39941,14,43.39941Z"/>
    <path d="M53.59131,35.33594H42.16748l-1.624,7.33594H28.95166l12.43164-42H54.76758l12.65576,42h-12.208ZM46.92725,14.168l-2.688,12.04H51.5752l-2.688-12.04L48.04736,9.6875h-.168Z"/>
    <path d="M100.29541,28.3916c0,9.85645-5.26416,15.00781-16.01611,15.00781S68.09521,38.24805,68.09521,28.3916V.67188H79.07129V28.168c0,3.752,1.456,5.43164,5.208,5.43164,3.8081,0,5.0957-1.56836,5.0957-5.43164V.67188h10.92041Z"/>
    <path d="M121.96729,42.67188H105.61523v-42H122.0791c9.01611,0,13.60791,4.20019,13.60791,10.86425,0,4.42383-2.01611,7.2793-5.15185,8.792v.11133c4.20019,1.40039,6.43994,4.64844,6.43994,9.85645C136.9751,37.85547,132.439,42.67188,121.96729,42.67188Zm-.33594-32.81641h-5.43213v7.39258h5.54394c2.52,0,3.416-.95215,3.416-3.8086C125.15918,10.69531,124.207,9.85547,121.63135,9.85547Zm.27978,15.56836h-5.71191v8.28808h5.936c2.74414,0,3.752-.89648,3.752-4.20019C125.88721,26.59961,124.99121,25.42383,121.91113,25.42383Z"/>
    <path d="M168.61426,33.208l-.22412,9.46387H141.34229v-42h26.31982l.22412,9.63183h-15.624V16.7998h12.87988v8.792H152.26221V33.208Z"/>
    <path d="M197.50977,25.47949,205.686,42.67188H193.02979l-5.6001-15.00782h-3.6958V42.67188H172.814v-42h14.50391c10.64014,0,15.90381,4.03222,15.90381,13.49609C203.22168,19.76758,201.20605,23.91211,197.50977,25.47949ZM187.542,9.74414h-3.8081v9.6875h3.75195c3.19189,0,4.312-.78418,4.312-4.87207C191.79785,10.752,190.73389,9.74414,187.542,9.74414Z"/>
    <path d="M15.064,56.67188l7.39209,21.22363L23.856,82.208h.168l1.3999-4.25586,7.5039-21.28027h12.0962v42H35v-17.584l.11182-4.53613-.168-.05567L33.544,80.86328l-6.21631,17.8086H20.21582l-6.16016-17.752-1.3999-4.36816-.11181.05566.05615,4.53613V98.67188H3.02393v-42Z"/>
    <path d="M51.18359,56.67188H62.43945v42H51.18359Z"/>
    <path d="M86.91064,66.47168v32.2002H75.7666V66.47168h-9.52l.22412-9.7998H96.20654l.22412,9.7998Z"/>
    <path d="M37.2959,112.67188l-12.43213,42H12.376l-12.376-42H12.04l5.87988,26.208.95215,4.42383h.168l.896-4.42383,6.04785-26.208Z"/>
    <path d="M54.87939,155.39941c-12.0957,0-17.584-6.38379-17.584-21.72753,0-15.4004,5.26416-21.67188,17.584-21.67188s17.584,6.27148,17.584,21.67188C72.46338,149.46387,67.19922,155.39941,54.87939,155.39941Zm-.05615-33.59961c-4.59179,0-6.04785,1.9043-6.04785,11.87208,0,10.02343,1.51221,12.04,6.16016,12.04s6.04785-2.07226,6.04785-12.04C60.9834,123.64746,59.5835,121.7998,54.82324,121.7998Z"/>
    <path d="M102.3667,144.92773l-.28027,9.74415H77.05469v-42H88.08691v32.25585Z"/>
    <path d="M131.26221,144.92773l-.28028,9.74415H105.9502v-42h11.03222v32.25585Z"/>
    <path d="M162.11768,145.208l-.22413,9.46387H134.8457v-42h26.31983l.22412,9.63183h-15.624v6.49609h12.87989v8.792H145.76562V145.208Z"/>
    <path d="M191.01318,137.47949l8.17627,17.19239H186.5332l-5.59961-15.00782H177.2373v15.00782H166.31738v-42h14.50391c10.64014,0,15.90381,4.03222,15.90381,13.49609C196.7251,131.76758,194.70947,135.91211,191.01318,137.47949Zm-9.96777-15.73535H177.2373v9.6875h3.752c3.19189,0,4.312-.78418,4.312-4.87207C185.30127,122.752,184.2373,121.74414,181.04541,121.74414Z"/>
    <path d="M17.416,197.624H13.94385v13.04786H3.02393v-42H17.416c11.64794,0,16.29589,4.53613,16.29589,14.78417C33.71191,192.52734,29.17578,197.624,17.416,197.624Zm0-19.82422H13.94385v11.14356H17.416c3.584,0,4.92773-.83984,4.92773-5.544C22.34375,178.86328,21.27979,177.7998,17.416,177.7998Z"/>
    <path d="M54.15088,211.39941c-12.0957,0-17.584-6.38379-17.584-21.72753,0-15.4004,5.26416-21.67188,17.584-21.67188s17.584,6.27148,17.584,21.67188C71.73486,205.46387,66.4707,211.39941,54.15088,211.39941Zm-.05615-33.59961c-4.5918,0-6.04785,1.9043-6.04785,11.87208,0,10.02343,1.5122,12.04,6.16015,12.04s6.04785-2.07226,6.04785-12.04C60.25488,179.64746,58.855,177.7998,54.09473,177.7998Z"/>
    <path d="M105.335,168.67188l4.42383,26.26367.67187,4.48047h.168l.50391-4.48047,3.75195-26.26367H125.7749l-8.792,42h-13.104L99.959,185.19141l-.56005-4.53614h-.168l-.61621,4.53614L94.751,210.67188H81.647l-8.792-42H84.27881l3.6958,26.48828.56006,4.47949h.168l.61621-4.47949L93.687,168.67188Z"/>
    <path d="M156.4624,201.208l-.22412,9.46387H129.19043v-42h26.31982l.22413,9.63183h-15.624v6.49609h12.87988v8.792H140.11035V201.208Z"/>
    <path d="M185.3584,193.47949l8.17627,17.19239H180.87842l-5.6001-15.00782h-3.6958v15.00782H160.6626v-42h14.5039c10.64014,0,15.90381,4.03222,15.90381,13.49609C191.07031,187.76758,189.05469,191.91211,185.3584,193.47949Zm-9.96778-15.73535h-3.8081v9.6875h3.752c3.1919,0,4.312-.78418,4.312-4.87207C179.64648,178.752,178.58252,177.74414,175.39062,177.74414Z"/>
    <path d="M200.75781,211.34375c-3.91992,0-5.65576-1.51172-5.65576-5.32031,0-3.416,1.73584-5.376,5.65576-5.376s5.6001,1.96,5.6001,5.376C206.35791,209.21582,204.67773,211.34375,200.75781,211.34375Z"/>
  </g>
</svg>
