<svg enable-background="new 0 0 124.65 114.31" viewBox="0 0 124.65 114.31" xmlns="http://www.w3.org/2000/svg"><path d="m10.2 11.4c0 5.28-2.69 6.94-6.91 6.94-1.34 0-2.42-.24-3.29-.62l.24-3.91c.5.26 1.3.43 2.23.43 1.97 0 2.93-.77 2.93-2.93v-11.31h4.8z"/><path d="m24.34 13.95-.1 4.05h-11.59v-18h11.28l.1 4.13h-6.7v2.78h5.52v3.77h-5.52v3.26h7.01z"/><path d="m33.98 4.2v13.8h-4.78v-13.8h-4.08l.1-4.2h12.75l.1 4.2z"/><path d="m38.86 18v-3.05l5.74-9.12 1.06-1.58-.04-.05h-6.62l.12-4.2h12.03v3.36l-5.54 8.83-1.06 1.56.02.07h6.62l-.07 4.18z"/><path d="m60.96 4.2v13.8h-4.78v-13.8h-4.08l.1-4.2h12.75l.1 4.2z"/><path d="m11.16 42-5.38-8.3-1.01-1.66-.05.02.02 1.94v8h-4.12v-18h3.94l5.78 9.34.05-.02-.05-1.92.03-7.4h4.13v18z"/><path d="m28.63 37.95-.09 4.05h-11.6v-18h11.28l.1 4.13h-6.7v2.78h5.52v3.77h-5.52v3.26h7.01z"/><path d="m44.06 35.88c0 4.22-2.26 6.43-6.86 6.43s-6.94-2.21-6.94-6.43v-11.88h4.7v11.79c0 1.61.62 2.33 2.23 2.33 1.63 0 2.18-.67 2.18-2.33v-11.79h4.68v11.88z"/><path d="m58.03 37.95-.09 4.05h-11.6v-18h11.28l.1 4.13h-6.7v2.78h5.52v3.77h-5.52v3.26h7.01z"/><path d="m70.37 42-5.38-8.3-1.01-1.66-.05.02.02 1.94v8h-4.13v-18h3.94l5.78 9.34.05-.02-.05-1.92.04-7.4h4.13v18z"/><path d="m.82 48h4.82v18h-4.82z"/><path d="m18.82 66-5.38-8.3-1.01-1.66-.05.02.02 1.94v8h-4.12v-18h3.94l5.78 9.34.05-.02-.05-1.93.02-7.39h4.13v18z"/><path d="m31.1 66h-6.5v-18h6.41c5.47 0 7.7 2.54 7.7 8.9 0 6.61-2.54 9.1-7.61 9.1zm-.07-13.85h-1.75v9.74h1.75c2.06 0 2.76-.62 2.76-5.04 0-3.98-.65-4.7-2.76-4.7z"/><path d="m54.31 59.88c0 4.22-2.26 6.43-6.86 6.43s-6.94-2.21-6.94-6.43v-11.88h4.7v11.79c0 1.61.62 2.33 2.23 2.33 1.63 0 2.18-.67 2.18-2.33v-11.79h4.68v11.88z"/><path d="m61.13 66.31c-1.9 0-3.77-.43-5.23-1.25l.6-3.98c1.46.74 2.95 1.2 4.51 1.2 1.49 0 2.06-.5 2.06-1.46 0-2.3-7.15-1.58-7.15-7.46 0-3.14 1.92-5.64 6.36-5.64 1.66 0 3.43.31 4.73.86l-.53 3.91c-1.37-.41-2.74-.65-3.89-.65-1.78 0-2.16.53-2.16 1.3 0 2.33 7.15 1.54 7.15 7.42 0 3.55-2.4 5.75-6.45 5.75z"/><path d="m76.73 52.2v13.8h-4.78v-13.8h-4.08l.1-4.2h12.75l.1 4.2z"/><path d="m92.83 58.63 3.5 7.37h-5.42l-2.4-6.43h-1.58v6.43h-4.68v-18h6.22c4.56 0 6.82 1.73 6.82 5.78-.01 2.4-.87 4.18-2.46 4.85zm-4.27-6.74h-1.63v4.15h1.61c1.37 0 1.85-.34 1.85-2.09-.01-1.63-.46-2.06-1.83-2.06z"/><path d="m97.7 48h4.82v18h-4.82z"/><path d="m116.86 61.95-.1 4.06h-11.59v-18.01h11.28l.1 4.13h-6.7v2.78h5.52v3.77h-5.52v3.26h7.01z"/><path d="m124.65 56.21v3.12h-6.7v-3.12z"/><path d="m5.33 90.31c-1.9 0-3.77-.43-5.23-1.25l.6-3.98c1.46.74 2.95 1.2 4.51 1.2 1.49 0 2.06-.5 2.06-1.46 0-2.3-7.15-1.58-7.15-7.46 0-3.14 1.92-5.64 6.36-5.64 1.66 0 3.43.31 4.73.86l-.53 3.91c-1.37-.41-2.74-.65-3.89-.65-1.78 0-2.16.53-2.16 1.3 0 2.33 7.15 1.54 7.15 7.42.01 3.55-2.4 5.75-6.45 5.75z"/><path d="m22.3 86.86h-4.9l-.7 3.14h-4.97l5.33-18h5.74l5.42 18h-5.23zm-2.86-9.08-1.15 5.16h3.14l-1.15-5.16-.36-1.92h-.07z"/><path d="m42.31 83.88c0 4.22-2.26 6.43-6.86 6.43s-6.94-2.21-6.94-6.43v-11.88h4.7v11.79c0 1.61.62 2.33 2.23 2.33 1.63 0 2.18-.67 2.18-2.33v-11.79h4.68v11.88z"/><path d="m57.31 89.35c-1.25.6-3.29.98-5.14.98-5.95 0-8.06-3.19-8.06-9.34 0-6.29 2.47-9.31 8.28-9.31 1.58 0 3.38.29 4.68.79l-.43 4.01c-1.18-.43-2.69-.7-3.98-.7-2.95 0-3.62 1.1-3.62 5.16 0 4.27.7 5.21 3.02 5.21.36 0 .74-.02 1.08-.1v-5.88h4.18v9.18z"/><path d="m71.14 85.95-.1 4.05h-11.59v-18h11.28l.1 4.13h-6.7v2.78h5.52v3.77h-5.52v3.26h7.01z"/><path d="m83.52 82.63 3.5 7.37h-5.42l-2.4-6.43h-1.58v6.43h-4.68v-18h6.22c4.56 0 6.82 1.73 6.82 5.78-.01 2.4-.88 4.18-2.46 4.85zm-4.27-6.74h-1.63v4.15h1.61c1.37 0 1.85-.34 1.85-2.09-.01-1.63-.46-2.06-1.83-2.06z"/><path d="m9.84 114-3.38-7.32h-1.16v7.32h-4.68v-18h4.68v6.96h1.25l3.34-6.96h5.26l-4.32 8.62 4.54 9.38z"/><path d="m25.97 110.86h-4.9l-.7 3.14h-4.97l5.33-18h5.74l5.42 18h-5.23zm-2.86-9.08-1.15 5.16h3.14l-1.15-5.16-.36-1.92h-.07z"/><path d="m45.99 107.88c0 4.22-2.26 6.43-6.86 6.43s-6.94-2.21-6.94-6.43v-11.88h4.7v11.79c0 1.61.62 2.33 2.23 2.33 1.63 0 2.18-.67 2.18-2.33v-11.79h4.68v11.88z"/><path d="m52.97 100.2v3.17h5.5l-.02 3.98h-5.47v6.65h-4.7v-18h11.26l.07 4.2z"/><path d="m72.86 109.95-.1 4.06h-11.58v-18.01h11.28l.1 4.13h-6.7v2.78h5.52v3.77h-5.52v3.26h7z"/><path d="m85.2 114-5.38-8.3-1.01-1.66-.05.02.02 1.94v8h-4.13v-18h3.94l5.78 9.34.05-.02-.05-1.92.04-7.4h4.13v18z"/></svg>