<?xml version="1.0" encoding="utf-8"?>
<!-- Generator: Adobe Illustrator 27.2.0, SVG Export Plug-In . SVG Version: 6.00 Build 0)  -->
<svg version="1.1" id="Ebene_1" xmlns="http://www.w3.org/2000/svg" xmlns:xlink="http://www.w3.org/1999/xlink" x="0px" y="0px"
	 viewBox="0 0 124.12 155.18" style="enable-background:new 0 0 124.12 155.18;" xml:space="preserve">
<style type="text/css">
	.st0{fill:#FFFFFF;}
	.st1{fill:#238C96;}
</style>
<g>
	<path d="M11.9,10.08c0,3.52-1.88,5.36-5.72,5.36S0.4,13.6,0.4,10.08v-9.9h3.92V10c0,1.34,0.52,1.94,1.86,1.94
		C7.54,11.94,8,11.38,8,10V0.18h3.9V10.08z"/>
	<path d="M22.58,15.18L18.1,8.26l-0.84-1.38L17.22,6.9l0.02,1.62v6.66H13.8v-15h3.28l4.82,7.78l0.04-0.02l-0.04-1.6l0.02-6.16h3.44
		v15H22.58z"/>
	<path d="M32.82,15.18H27.4v-15h5.34c4.56,0,6.42,2.12,6.42,7.42C39.16,13.1,37.04,15.18,32.82,15.18z M32.76,3.64H31.3v8.12h1.46
		c1.72,0,2.3-0.52,2.3-4.2C35.06,4.24,34.52,3.64,32.76,3.64z"/>
	<path d="M18.85,60.17l0.06,0.19h14.98l-0.26,10.82H3.49v-7.81c9.92-11.07,17.98-19.01,17.98-25.34c0-2.88-1.66-4.54-5.5-4.54
		c-3.65,0-6.98,1.66-10.11,3.9l-2.88-9.92c3.84-2.82,8.96-4.8,15.42-4.8c10.5,0,15.74,5.7,15.74,14.14
		C34.14,44.62,27.93,51.6,18.85,60.17z"/>
	<path d="M54.88,71.82c-5.12,0-9.92-1.09-13.89-3.33l2.05-9.47c3.52,1.73,6.4,2.62,10.5,2.62c5.12,0,6.46-1.98,6.46-6.14
		c0-3.78-2.05-5.12-6.4-5.12c-2.5,0-5.57,0.38-7.94,1.22l-3.97-4.61l1.73-23.81h26.11l0.45,10.62h-16.7l-0.45,7.1
		c1.47-0.26,3.01-0.38,4.74-0.38c9.28,0,14.65,4.67,14.65,14.02C72.22,65.29,66.97,71.82,54.88,71.82z"/>
	<path d="M91.1,44.81c-6.78,0-9.86-3.84-9.86-11.07c0-7.68,3.07-11.07,9.92-11.07c6.4,0,9.92,3.14,9.92,11.07
		C101.09,41.1,97.44,44.81,91.1,44.81z M118.56,31.69l-25.92,36.8l-6.59-5.25l25.98-36.8L118.56,31.69z M91.17,29.77
		c-1.47,0-2.18,0.77-2.18,3.97c0,3.14,0.7,3.9,2.18,3.9c1.47,0,2.18-0.7,2.18-3.9C93.34,30.54,92.57,29.77,91.17,29.77z
		 M114.14,71.82c-6.78,0-9.85-3.84-9.85-11.01c0-7.68,3.07-11.26,9.92-11.26c6.46,0,9.92,3.33,9.92,11.26
		C124.12,68.11,120.54,71.82,114.14,71.82z M114.2,57.04c-1.47,0-2.18,0.7-2.18,3.78s0.7,3.78,2.18,3.78c1.47,0,2.24-0.64,2.24-3.78
		C116.44,57.74,115.68,57.04,114.2,57.04z"/>
	<path d="M9.36,89.04l2.92,6.14H7.76l-2-5.36H4.44v5.36h-3.9v-15h5.18c3.8,0,5.68,1.44,5.68,4.82C11.4,87,10.68,88.48,9.36,89.04z
		 M5.8,83.42H4.44v3.46h1.34c1.14,0,1.54-0.28,1.54-1.74C7.32,83.78,6.94,83.42,5.8,83.42z"/>
	<path d="M21,92.56h-4.08l-0.58,2.62H12.2l4.44-15h4.78l4.52,15h-4.36L21,92.56z M18.62,85l-0.96,4.3h2.62L19.32,85l-0.3-1.6h-0.06
		L18.62,85z"/>
	<path d="M32.78,95.18h-5.84v-15h5.88c3.22,0,4.86,1.5,4.86,3.88c0,1.58-0.72,2.6-1.84,3.14v0.04c1.5,0.5,2.3,1.66,2.3,3.52
		C38.14,93.46,36.52,95.18,32.78,95.18z M32.66,83.46h-1.94v2.64h1.98c0.9,0,1.22-0.34,1.22-1.36
		C33.92,83.76,33.58,83.46,32.66,83.46z M32.76,89.02h-2.04v2.96h2.12c0.98,0,1.34-0.32,1.34-1.5
		C34.18,89.44,33.86,89.02,32.76,89.02z"/>
	<path d="M47.16,92.56h-4.08l-0.58,2.62h-4.14l4.44-15h4.78l4.52,15h-4.36L47.16,92.56z M44.78,85l-0.96,4.3h2.62L45.48,85l-0.3-1.6
		h-0.06L44.78,85z"/>
	<path d="M58.3,83.68v11.5h-3.98v-11.5h-3.4l0.08-3.5h10.62l0.08,3.5H58.3z"/>
	<path d="M69.76,83.68v11.5h-3.98v-11.5h-3.4l0.08-3.5h10.62l0.08,3.5H69.76z"/>
	<path d="M86.6,92.56h-4.08l-0.58,2.62H77.8l4.44-15h4.78l4.52,15h-4.36L86.6,92.56z M84.22,85l-0.96,4.3h2.62L84.92,85l-0.3-1.6
		h-0.06L84.22,85z"/>
	<path d="M103.28,90.08c0,3.52-1.88,5.36-5.72,5.36s-5.78-1.84-5.78-5.36v-9.9h3.92V90c0,1.34,0.52,1.94,1.86,1.94
		c1.36,0,1.82-0.56,1.82-1.94v-9.82h3.9V90.08z"/>
	<path d="M109.1,83.68v2.64h4.58l-0.02,3.32h-4.56v5.54h-3.92v-15h9.38l0.06,3.5H109.1z"/>
	<path d="M5.68,110.52H4.44v4.66h-3.9v-15h5.14c4.16,0,5.82,1.62,5.82,5.28C11.5,108.7,9.88,110.52,5.68,110.52z M5.68,103.44H4.44
		v3.98h1.24c1.28,0,1.76-0.3,1.76-1.98C7.44,103.82,7.06,103.44,5.68,103.44z"/>
	<path d="M19.52,112.56h-4.08l-0.58,2.62h-4.14l4.44-15h4.78l4.52,15H20.1L19.52,112.56z M17.14,105l-0.96,4.3h2.62l-0.96-4.3
		l-0.3-1.6h-0.06L17.14,105z"/>
	<path d="M29.42,115.44c-1.58,0-3.14-0.36-4.36-1.04l0.5-3.32c1.22,0.62,2.46,1,3.76,1c1.24,0,1.72-0.42,1.72-1.22
		c0-1.92-5.96-1.32-5.96-6.22c0-2.62,1.6-4.7,5.3-4.7c1.38,0,2.86,0.26,3.94,0.72l-0.44,3.26c-1.14-0.34-2.28-0.54-3.24-0.54
		c-1.48,0-1.8,0.44-1.8,1.08c0,1.94,5.96,1.28,5.96,6.18C34.8,113.6,32.8,115.44,29.42,115.44z"/>
	<path d="M39.86,115.44c-1.58,0-3.14-0.36-4.36-1.04l0.5-3.32c1.22,0.62,2.46,1,3.76,1c1.24,0,1.72-0.42,1.72-1.22
		c0-1.92-5.96-1.32-5.96-6.22c0-2.62,1.6-4.7,5.3-4.7c1.38,0,2.86,0.26,3.94,0.72l-0.44,3.26c-1.14-0.34-2.28-0.54-3.24-0.54
		c-1.48,0-1.8,0.44-1.8,1.08c0,1.94,5.96,1.28,5.96,6.18C45.24,113.6,43.24,115.44,39.86,115.44z"/>
	<path d="M56.38,111.8l-0.08,3.38h-9.66v-15h9.4l0.08,3.44h-5.58v2.32h4.6v3.14h-4.6v2.72H56.38z"/>
	<path d="M66.66,115.18l-4.48-6.92l-0.84-1.38l-0.04,0.02l0.02,1.62v6.66h-3.44v-15h3.28l4.82,7.78l0.04-0.02l-0.04-1.6l0.02-6.16
		h3.44v15H66.66z"/>
	<path d="M76.9,115.18h-5.42v-15h5.34c4.56,0,6.42,2.12,6.42,7.42C83.24,113.1,81.12,115.18,76.9,115.18z M76.84,103.64h-1.46v8.12
		h1.46c1.72,0,2.3-0.52,2.3-4.2C79.14,104.24,78.6,103.64,76.84,103.64z"/>
	<path d="M94.62,111.8l-0.08,3.38h-9.66v-15h9.4l0.08,3.44h-5.58v2.32h4.6v3.14h-4.6v2.72H94.62z"/>
	<path d="M100.04,115.44c-1.58,0-3.14-0.36-4.36-1.04l0.5-3.32c1.22,0.62,2.46,1,3.76,1c1.24,0,1.72-0.42,1.72-1.22
		c0-1.92-5.96-1.32-5.96-6.22c0-2.62,1.6-4.7,5.3-4.7c1.38,0,2.86,0.26,3.94,0.72l-0.44,3.26c-1.14-0.34-2.28-0.54-3.24-0.54
		c-1.48,0-1.8,0.44-1.8,1.08c0,1.94,5.96,1.28,5.96,6.18C105.42,113.6,103.42,115.44,100.04,115.44z"/>
	<path d="M0,135.18v-2.54l4.78-7.6l0.88-1.32l-0.02-0.04H0.12l0.1-3.5h10.02v2.8l-4.62,7.36l-0.88,1.3l0.02,0.06h5.52l-0.06,3.48H0z
		"/>
	<path d="M23.02,130.08c0,3.52-1.88,5.36-5.72,5.36s-5.78-1.84-5.78-5.36v-9.9h3.92V130c0,1.34,0.52,1.94,1.86,1.94
		c1.36,0,1.82-0.56,1.82-1.94v-9.82h3.9V130.08z"/>
	<path d="M30.76,135.18h-5.84v-15h5.88c3.22,0,4.86,1.5,4.86,3.88c0,1.58-0.72,2.6-1.84,3.14v0.04c1.5,0.5,2.3,1.66,2.3,3.52
		C36.12,133.46,34.5,135.18,30.76,135.18z M30.64,123.46H28.7v2.64h1.98c0.9,0,1.22-0.34,1.22-1.36
		C31.9,123.76,31.56,123.46,30.64,123.46z M30.74,129.02H28.7v2.96h2.12c0.98,0,1.34-0.32,1.34-1.5
		C32.16,129.44,31.84,129.02,30.74,129.02z"/>
	<path d="M47.42,131.8l-0.08,3.38h-9.66v-15h9.4l0.08,3.44h-5.58v2.32h4.6v3.14h-4.6v2.72H47.42z"/>
	<path d="M56.46,135.18v-5.88h-3.64v5.88h-3.9v-15h3.9v5.62h3.64v-5.62h3.92v15H56.46z"/>
	<path d="M68.28,135.44c-4.32,0-6.28-2.28-6.28-7.76c0-5.5,1.88-7.74,6.28-7.74s6.28,2.24,6.28,7.74
		C74.56,133.32,72.68,135.44,68.28,135.44z M66.38,119.46c-0.98,0-1.48-0.38-1.48-1.34c0-0.9,0.5-1.38,1.48-1.38
		c1.02,0,1.48,0.48,1.48,1.38C67.86,119,67.4,119.46,66.38,119.46z M68.26,123.44c-1.64,0-2.16,0.68-2.16,4.24
		c0,3.58,0.54,4.3,2.2,4.3c1.66,0,2.16-0.74,2.16-4.3C70.46,124.1,69.96,123.44,68.26,123.44z M70.2,119.46
		c-0.98,0-1.48-0.38-1.48-1.34c0-0.9,0.5-1.38,1.48-1.38c1.02,0,1.48,0.48,1.48,1.38C71.68,119,71.22,119.46,70.2,119.46z"/>
	<path d="M85.02,129.04l2.92,6.14h-4.52l-2-5.36H80.1v5.36h-3.9v-15h5.18c3.8,0,5.68,1.44,5.68,4.82
		C87.06,127,86.34,128.48,85.02,129.04z M81.46,123.42H80.1v3.46h1.34c1.14,0,1.54-0.28,1.54-1.74
		C82.98,123.78,82.6,123.42,81.46,123.42z"/>
	<path d="M10.28,151.8l-0.08,3.38H0.54v-15h9.4l0.08,3.44H4.44v2.32h4.6v3.14h-4.6v2.72H10.28z"/>
	<path d="M20.6,149.04l2.92,6.14H19l-2-5.36h-1.32v5.36h-3.9v-15h5.18c3.8,0,5.68,1.44,5.68,4.82
		C22.64,147,21.92,148.48,20.6,149.04z M17.04,143.42h-1.36v3.46h1.34c1.14,0,1.54-0.28,1.54-1.74
		C18.56,143.78,18.18,143.42,17.04,143.42z"/>
	<path d="M32.04,155.18v-5.88H28.4v5.88h-3.9v-15h3.9v5.62h3.64v-5.62h3.92v15H32.04z"/>
	<path d="M45.72,152.56h-4.08l-0.58,2.62h-4.14l4.44-15h4.78l4.52,15H46.3L45.72,152.56z M43.34,145l-0.96,4.3H45l-0.96-4.3
		l-0.3-1.6h-0.06L43.34,145z"/>
	<path d="M60.7,151.7l-0.1,3.48h-8.94v-15h3.94v11.52H60.7z"/>
	<path d="M66.8,143.68v11.5h-3.98v-11.5h-3.4l0.08-3.5h10.62l0.08,3.5H66.8z"/>
	<path d="M81.14,151.8l-0.08,3.38H71.4v-15h9.4l0.08,3.44H75.3v2.32h4.6v3.14h-4.6v2.72H81.14z"/>
	<path d="M91.42,155.18l-4.48-6.92l-0.84-1.38l-0.04,0.02l0.02,1.62v6.66h-3.44v-15h3.28l4.82,7.78l0.04-0.02l-0.04-1.6l0.02-6.16
		h3.44v15H91.42z"/>
	<path d="M97.84,155.42c-1.4,0-2.02-0.54-2.02-1.9c0-1.22,0.62-1.92,2.02-1.92s2,0.7,2,1.92C99.84,154.66,99.24,155.42,97.84,155.42
		z"/>
	<path d="M105.1,139.6l0.26,1.94l1.84-0.44l0.58,1.64L106,143.6l1.02,1.7l-1.26,0.96l-1.48-1.44l-1.52,1.46l-1.3-0.92l0.98-1.76
		l-1.78-0.84l0.62-1.66l1.86,0.44l0.28-1.94H105.1z"/>
</g>
</svg>
