<svg enable-background="new 0 0 643.8 600" viewBox="0 0 643.8 600" xmlns="http://www.w3.org/2000/svg"><text fill="#fff" font-family="ClanPro-NarrBlack" font-size="12.2353" transform="matrix(.9919 0 0 1 -430.8037 362.9277)">Mehr infos</text><path clip-rule="evenodd" d="m532.5 277.2v-12.3c0-2.4-1.3-3.4-3.6-3.4-1.4 0-3 .6-3.8 1.7v13.9h-4v-18.9l2.9-.2.6 1.8c1.4-1.3 3.3-2 5.4-2 4 0 6.5 2.4 6.5 7v12.3h-4zm-26.6-8.6c.2 4 1.9 5.4 5.5 5.4 1.9 0 3.5-.3 5.1-1l.5 3.3c-1.6.8-3.7 1.3-6.1 1.3-6.4 0-9.2-3.4-9.2-10.2 0-6 2.6-9.5 8.1-9.5 4.7 0 7.7 2.7 7.7 8.8 0 .6 0 1.4-.1 1.9zm4-7.3c-2.7 0-3.9 1.4-4.1 4.6h8c0-3.3-1.5-4.6-3.9-4.6zm-14.5 10.6c0 1.7.9 2.4 2.5 2.4.5 0 1.2-.1 1.5-.2l.3 3c-.6.3-1.8.5-3 .5-3.6 0-5.3-2-5.3-5.5v-10.7h-2.4v-3.1h2.5l.7-4.4 3.2-.3v4.8h4.4v3.1h-4.4zm-14-19.4 4-.2v24.9h-4zm-15.6 16.1c.2 4 1.9 5.4 5.5 5.4 1.9 0 3.5-.3 5.1-1l.5 3.3c-1.6.8-3.7 1.3-6.1 1.3-6.4 0-9.2-3.4-9.2-10.2 0-6 2.6-9.5 8.1-9.5 4.7 0 7.7 2.7 7.7 8.8 0 .6 0 1.4-.1 1.9zm4-7.3c-2.7 0-3.9 1.4-4.1 4.6h8c-.1-3.3-1.6-4.6-3.9-4.6zm-11.5 2.4c0 3.6-1.9 5.7-7 5.7-.9 0-1.7-.1-2.5-.2-.6.3-1 .7-1 1.1 0 .5.4 1 1.4 1l4.6.3c4.5.3 6.1 1.9 6.1 4.7 0 3.7-2.4 6-8.4 6-5.3 0-7.5-2.1-7.5-5 0-1.2.6-2.4 1.6-3.3-.8-.5-1.5-1.5-1.5-2.7s.8-2.4 2.4-3.1c-1.3-.9-2.2-2.2-2.2-4.4 0-3.5 1.9-5.8 7-5.8 1.6 0 3.4.3 4.7 1.1l3.2-1.1.8 2-2.1 1.6c.3.5.4 1.2.4 2.1zm-6.9 15.5c3.9 0 4.9-.9 4.9-2.3 0-1.1-.6-1.6-3.2-1.8l-4.6-.3c-.7.6-1.1 1.4-1.1 2 0 1.6 1.2 2.4 4 2.4zm0-18.2c-2.3 0-3.1.9-3.1 2.8 0 2.2 1.2 2.8 3 2.8 2.5 0 3.2-.9 3.2-2.8-.1-2.1-1-2.8-3.1-2.8zm-23.9 3.9c0-2.4-1.3-3.4-3.6-3.4-1.4 0-3 .6-3.8 1.7v13.9h-4v-18.9l2.9-.2.6 1.8c1.4-1.3 3.3-2 5.4-2 4 0 6.5 2.4 6.5 7v12.3h-4zm-26.6 3.7c.2 4 1.9 5.4 5.5 5.4 1.9 0 3.5-.3 5.1-1l.5 3.3c-1.6.8-3.7 1.3-6.1 1.3-6.4 0-9.2-3.4-9.2-10.2 0-6 2.6-9.5 8.1-9.5 4.7 0 7.7 2.7 7.7 8.8 0 .6 0 1.4-.1 1.9zm4-7.3c-2.7 0-3.9 1.4-4.1 4.6h8c0-3.3-1.6-4.6-3.9-4.6zm-11.5 2.4c0 3.6-1.9 5.7-7 5.7-.9 0-1.7-.1-2.5-.2-.6.3-1 .7-1 1.1 0 .5.4 1 1.4 1l4.6.3c4.5.3 6.1 1.9 6.1 4.7 0 3.7-2.4 6-8.4 6-5.3 0-7.5-2.1-7.5-5 0-1.2.6-2.4 1.6-3.3-.9-.5-1.5-1.5-1.5-2.7s.8-2.4 2.4-3.1c-1.3-.9-2.2-2.2-2.2-4.4 0-3.5 1.9-5.8 7-5.8 1.6 0 3.4.3 4.7 1.1l3.2-1.1.9 2-2.1 1.6c.2.5.3 1.2.3 2.1zm-6.9 15.5c3.9 0 4.9-.9 4.9-2.3 0-1.1-.6-1.6-3.2-1.8l-4.6-.3c-.7.6-1.1 1.4-1.1 2 0 1.6 1.2 2.4 4 2.4zm0-18.2c-2.3 0-3.1.9-3.1 2.8 0 2.2 1.2 2.8 3 2.8 2.5 0 3.2-.9 3.2-2.8 0-2.1-1-2.8-3.1-2.8zm-15 3.9c0-2.4-1.3-3.4-3.6-3.4-1.4 0-3 .6-3.8 1.7v13.9h-4v-18.9l2.9-.2.6 1.8c1.4-1.3 3.3-2 5.4-2 4 0 6.5 2.4 6.5 7v12.3h-4zm-23.5 12.6c-5.2 0-7.7-2.5-7.7-6.8v-12.5h4v12.4c0 2.2 1.2 3.3 3.7 3.3s3.7-1.1 3.7-3.3v-12.4h4v12.5c.1 4.4-2.5 6.8-7.7 6.8zm-11.9-13.8c0 3.6-1.9 5.7-7 5.7-.9 0-1.7-.1-2.5-.2-.6.3-1 .7-1 1.1 0 .5.4 1 1.4 1l4.6.3c4.5.3 6.1 1.9 6.1 4.7 0 3.7-2.4 6-8.4 6-5.3 0-7.5-2.1-7.5-5 0-1.2.6-2.4 1.6-3.3-.9-.5-1.5-1.5-1.5-2.7s.8-2.4 2.4-3.1c-1.3-.9-2.2-2.2-2.2-4.4 0-3.5 1.9-5.8 7-5.8 1.6 0 3.4.3 4.7 1.1l3.2-1.1.9 2-2.1 1.6c.2.5.3 1.2.3 2.1zm-6.9 15.5c3.9 0 4.9-.9 4.9-2.3 0-1.1-.6-1.6-3.2-1.8l-4.6-.3c-.7.6-1.1 1.4-1.1 2 0 1.6 1.2 2.4 4 2.4zm0-18.2c-2.3 0-3.1.9-3.1 2.8 0 2.2 1.2 2.8 3 2.8 2.5 0 3.2-.9 3.2-2.8-.1-2.1-1-2.8-3.1-2.8zm-15.1 3.9c0-2.4-1.3-3.4-3.6-3.4-1.4 0-3 .6-3.8 1.7v13.9h-4v-18.9l2.9-.2.6 1.8c1.4-1.3 3.3-2 5.4-2 4 0 6.5 2.4 6.5 7v12.3h-4zm-18.6-9.2c-1.6 0-2.4-.5-2.4-1.9 0-1.2.8-1.9 2.4-1.9s2.4.7 2.4 1.9c0 1.3-.8 1.9-2.4 1.9zm-10.9 19.7c-1.3 1.4-3 2.2-5.4 2.2-5 0-7.3-3.1-7.3-9.9 0-6.3 2.3-9.8 7.2-9.8 1.9 0 3.7.7 5 1.9l.1-.1-.1-2.5v-4.7l4-.2v24.9h-3.1zm-.5-12.1c-.7-1-2.1-1.7-3.8-1.7-3.1 0-4.3 1.6-4.3 6.2 0 4.8 1 6.4 4.2 6.4 2.2 0 3.3-1 3.8-1.9v-9zm-26.4 5.3c.2 4 1.9 5.4 5.5 5.4 1.9 0 3.5-.3 5.1-1l.5 3.3c-1.6.8-3.7 1.3-6.1 1.3-6.4 0-9.2-3.4-9.2-10.2 0-6 2.6-9.5 8.1-9.5 4.7 0 7.7 2.7 7.7 8.8 0 .6 0 1.4-.1 1.9zm4-7.3c-2.7 0-3.9 1.4-4.1 4.6h8c0-3.3-1.5-4.6-3.9-4.6zm-18.4 16.3c-2.2 0-4.1-.8-5.3-2.1l-.6 1.7h-2.7v-24.7l4-.2v4.9l-.1 2.5.1.1c1.3-1.3 3.1-1.9 5-1.9 4.4 0 7.2 2.7 7.2 9.8 0 7-2.8 9.9-7.6 9.9zm-.7-16.1c-1.7 0-3.1.7-3.9 1.9v9c.7 1 2 1.9 3.9 1.9 2.6 0 4.2-1.2 4.2-6.5 0-5.2-1.5-6.3-4.2-6.3zm-18.5 16.1c-2.3 0-4.3-.5-5.9-4.6l.5-.3c1.5 1 3.7 1.5 5.4 1.5 2.3 0 3.3-1 3.3-2.4 0-3.6-9.2-1.7-9.2-8.3 0-3.3 2.3-5.6 6.9-5.6 1.9 0 3.7.4 5.3 1.1l-.3 3.3c-1.6-.7-3.5-1-5-1-1.9 0-3 .8-3 2 0 3.3 9.1 1.5 9.1 8.1-.1 3.7-2.2 6.2-7.1 6.2zm-13.4-12.7c0-2.4-1.3-3.4-3.6-3.4-1.4 0-3 .6-3.8 1.7v13.9h-4v-18.9l2.9-.2.6 1.8c1.4-1.3 3.3-2 5.4-2 4 0 6.5 2.4 6.5 7v12.3h-4zm-23.5 12.7c-5.9 0-8.5-2.8-8.5-9.9 0-7 2.6-9.9 8.5-9.9s8.4 2.9 8.4 9.9c.1 7.1-2.5 9.9-8.4 9.9zm0-16.3c-3.1 0-4.3 1.5-4.3 6.5s1.2 6.5 4.3 6.5 4.3-1.5 4.3-6.5-1.1-6.5-4.3-6.5zm-14.7-5.6c-1.6 0-2.4-.5-2.4-1.9 0-1.2.8-1.9 2.4-1.9s2.4.7 2.4 1.9c-.1 1.3-.8 1.9-2.4 1.9zm-10.4 16.2c0 1.7.9 2.4 2.5 2.4.5 0 1.2-.1 1.5-.2l.3 3c-.6.3-1.8.5-3 .5-3.6 0-5.3-2-5.3-5.5v-10.7h-2.4v-3.1h2.5l.7-4.4 3.2-.3v4.8h4.4v3.1h-4.4zm-12.3 5.3-4.8-8.5h-2.7v8.5h-4v-24.7l4-.2v13h2.7l4.7-7.1h4.5l-5.8 8.6 6 10.3h-4.6zm-20.7-5.1h-9.5l-1.6 5.1h-4.6l8.4-23.6h5.2l8.5 23.6h-4.9zm-4-12.9-.7-2.5h-.1l-.7 2.5-2.9 9.2h7.2zm-12.1 1.9-1.5 1.2-2.4-2.7-2.5 2.7-1.5-1.1 2-3-3.2-1.3.7-2 3.2.8.3-3.4h1.9l.3 3.4 3.2-.8.7 2-3.2 1.3zm61.5 16.1h-4.1v-18.8l4.1-.2zm123 0h-4.1v-18.8l4.1-.2z" fill-rule="evenodd"/></svg>