<?xml version="1.0" encoding="utf-8"?>
<!-- Generator: Adobe Illustrator 16.0.0, SVG Export Plug-In . SVG Version: 6.00 Build 0)  -->
<!DOCTYPE svg PUBLIC "-//W3C//DTD SVG 1.1//EN" "http://www.w3.org/Graphics/SVG/1.1/DTD/svg11.dtd">
<svg version="1.1" id="Ebene_1" xmlns="http://www.w3.org/2000/svg" xmlns:xlink="http://www.w3.org/1999/xlink" x="0px" y="0px"
	 width="313.43px" height="55.744px" viewBox="0 0 313.43 55.744" enable-background="new 0 0 313.43 55.744" xml:space="preserve">
<g>
	<g>
		<path fill="#1A1A18" d="M16.537,16.142l-1.002,3.006h-0.12l-1.002-3.046L9.121,1.108H0.502V30.78h6.855V18.396l-0.041-3.205
			l0.08-0.04l1.002,3.086l4.41,12.542h5.091l4.45-12.581l1.002-3.086l0.12,0.04l-0.08,3.205V30.78h7.175V1.108h-8.658L16.537,16.142
			z M34.974,30.78h8.057V1.108h-8.057V30.78z M55.256,18.713h9.22v-6.211h-9.22V7.913H66.44l-0.16-6.805H47.439V30.78h19.362
			l0.16-6.687H55.256V18.713z M75.098,30.78h7.977V8.031h6.815l-0.16-6.923H68.443l-0.16,6.923h6.814V30.78z M93.856,7.359
			l-0.962,4.628l2.565,0.633c1.884-2.255,3.969-6.211,3.929-8.545C99.388,1.622,98.105,0,95.379,0c-2.806,0-3.888,1.701-3.888,3.837
			C91.491,5.459,92.734,6.765,93.856,7.359z M127.527,16.142l-1.002,3.006h-0.12l-1.002-3.046l-5.291-14.994h-8.619V30.78h6.854
			V18.396l-0.04-3.205l0.08-0.04l1.002,3.086l4.41,12.542h5.091l4.45-12.581l1.002-3.086l0.12,0.04l-0.08,3.205V30.78h7.175V1.108
			h-8.658L127.527,16.142z M154.022,1.108h-8.057V30.78h8.057V1.108z M176.509,23.579c-1.403,0.633-3.127,0.989-4.971,0.989
			c-4.45,0-5.692-1.899-5.692-8.744c0-6.488,1.123-8.347,5.572-8.347c1.884,0,3.688,0.316,5.011,0.791l0.761-6.567
			c-1.603-0.633-4.209-1.107-6.333-1.107c-9.18,0-13.229,5.222-13.229,15.191c0,10.682,4.169,15.508,12.747,15.508
			c2.325,0,5.051-0.554,6.855-1.424L176.509,23.579z M195.227,12.225h-7.295V1.108h-7.816V30.78h7.816V19.148h7.295V30.78h7.857
			V1.108h-7.857V12.225z M213.586,21.917l1.082-20.81h-7.897l1.122,20.81H213.586z M214.788,27.852c0-2.176-1.201-3.481-3.928-3.481
			c-2.686,0-3.889,1.306-3.889,3.481c0,2.414,1.203,3.403,3.889,3.403C213.586,31.254,214.788,29.87,214.788,27.852z M5.211,51.341
			l-0.389,1.029H4.78l-0.403-1.029l-3.293-7.995H0v10.286h0.806v-7.653l-0.014-1.11l0.028-0.014l0.403,1.042l3.21,7.735h0.695
			l3.21-7.776l0.403-1.042l0.042,0.014l-0.028,1.11v7.694h0.82V43.346h-1.07L5.211,51.341z M15.047,45.375
			c-0.945,0-1.779,0.179-2.557,0.535l0.097,0.727c0.708-0.356,1.473-0.507,2.32-0.507c1.445,0,2.099,0.493,2.099,2.029v1.001
			c-0.556-0.205-1.306-0.356-2.043-0.356c-2.001,0-2.96,0.878-2.96,2.414c0,1.811,1.028,2.537,2.516,2.537
			c1.139,0,2.112-0.508,2.557-1.275l0.042,0.014l0.097,1.139h0.639v-5.349C17.854,46.185,17.048,45.375,15.047,45.375z
			 M17.006,51.438c0,0.781-1.07,1.604-2.265,1.604c-1.098,0-1.932-0.467-1.932-1.838c0-1.125,0.695-1.77,2.279-1.77
			c0.987,0,1.709,0.233,1.918,0.385V51.438z M26.398,45.541h-0.987l-2.292,3.538l-2.321-3.538H19.77l2.737,3.978L19.7,53.632h1
			l2.363-3.689l2.39,3.689h1.042l-2.779-4.142L26.398,45.541z M29.343,42.729c-0.417,0-0.653,0.206-0.653,0.576
			c0,0.438,0.236,0.576,0.653,0.576c0.417,0,0.653-0.179,0.653-0.576C29.996,42.935,29.759,42.729,29.343,42.729z M28.912,53.632
			h0.848v-8.119l-0.848,0.068V53.632z M40.389,45.417c-1.07,0-1.932,0.467-2.307,1.358h-0.042c-0.333-0.892-1.083-1.345-2.265-1.345
			c-0.889,0-1.709,0.412-2.167,1.057h-0.042L33.399,45.5l-0.598,0.055v8.078h0.834v-6.337c0.389-0.658,1.223-1.083,2.001-1.083
			c1.014,0,1.862,0.48,1.862,1.742v5.678h0.833v-5.678c0-1.152,0.889-1.742,1.862-1.742c1.223,0,1.987,0.604,1.987,1.92v5.5h0.833
			v-5.514C43.016,46.267,41.946,45.417,40.389,45.417z M48.113,45.375c-0.945,0-1.779,0.179-2.557,0.535l0.097,0.727
			c0.709-0.356,1.473-0.507,2.321-0.507c1.445,0,2.098,0.493,2.098,2.029v1.001c-0.556-0.205-1.306-0.356-2.042-0.356
			c-2.001,0-2.96,0.878-2.96,2.414c0,1.811,1.028,2.537,2.515,2.537c1.14,0,2.112-0.508,2.557-1.275l0.042,0.014l0.097,1.139h0.64
			v-5.349C50.92,46.185,50.114,45.375,48.113,45.375z M50.072,51.438c0,0.781-1.07,1.604-2.265,1.604
			c-1.098,0-1.932-0.467-1.932-1.838c0-1.125,0.695-1.77,2.279-1.77c0.987,0,1.709,0.233,1.917,0.385V51.438z M53.711,53.632h0.834
			V42.661l-0.834,0.055V53.632z M60.241,45.403c-2.168,0-3.266,1.372-3.266,3.909c0,3.127,1.042,4.484,3.655,4.484
			c0.959,0,1.751-0.233,2.459-0.631l-0.111-0.727c-0.695,0.37-1.404,0.576-2.265,0.576c-1.959,0-2.835-0.878-2.876-3.47h5.517
			c0.014-0.11,0.028-0.288,0.028-0.412C63.382,46.514,62.089,45.403,60.241,45.403z M57.823,48.956
			c0.083-1.865,0.806-2.812,2.418-2.812c1.362,0,2.334,0.768,2.362,2.812H57.823z M76.303,44.224l-0.028-0.878h-6.142v10.286h0.917
			v-4.869h4.419v-0.822H71.05v-3.717H76.303z M78.496,53.632h0.834V42.661l-0.834,0.055V53.632z M85.026,45.403
			c-2.168,0-3.266,1.372-3.266,3.909c0,3.127,1.042,4.484,3.655,4.484c0.959,0,1.751-0.233,2.459-0.631l-0.111-0.727
			c-0.695,0.37-1.404,0.576-2.265,0.576c-1.959,0-2.835-0.878-2.876-3.47h5.517c0.014-0.11,0.028-0.288,0.028-0.412
			C88.167,46.514,86.875,45.403,85.026,45.403z M82.608,48.956c0.083-1.865,0.806-2.812,2.418-2.812
			c1.362,0,2.334,0.768,2.362,2.812H82.608z M96.128,45.541h-0.987l-2.292,3.538l-2.321-3.538H89.5l2.737,3.978l-2.807,4.114h1
			l2.363-3.689l2.39,3.689h1.042l-2.779-4.142L96.128,45.541z M99.072,42.729c-0.417,0-0.653,0.206-0.653,0.576
			c0,0.438,0.236,0.576,0.653,0.576c0.417,0,0.653-0.179,0.653-0.576C99.725,42.935,99.489,42.729,99.072,42.729z M98.641,53.632
			h0.848v-8.119l-0.848,0.068V53.632z M106.005,45.389c-1.028,0-1.945,0.371-2.529,1.057l-0.027-0.014l0.014-1.098v-2.688
			l-0.848,0.055v10.931h0.556l0.167-0.946l0.042-0.014c0.528,0.713,1.473,1.11,2.529,1.11c2.057,0,3.238-1.124,3.238-4.21
			C109.146,46.432,107.923,45.389,106.005,45.389z M105.811,53.07c-1.181,0-1.987-0.562-2.349-1.18v-4.581
			c0.473-0.713,1.32-1.138,2.321-1.138c1.57,0,2.501,0.699,2.501,3.415C108.284,52.343,107.27,53.07,105.811,53.07z M112.076,42.729
			c-0.417,0-0.653,0.206-0.653,0.576c0,0.438,0.236,0.576,0.653,0.576s0.653-0.179,0.653-0.576
			C112.729,42.935,112.493,42.729,112.076,42.729z M111.646,53.632h0.848v-8.119l-0.848,0.068V53.632z M115.855,53.632h0.834V42.661
			l-0.834,0.055V53.632z M120.467,42.729c-0.417,0-0.653,0.206-0.653,0.576c0,0.438,0.236,0.576,0.653,0.576
			c0.417,0,0.653-0.179,0.653-0.576C121.121,42.935,120.884,42.729,120.467,42.729z M120.037,53.632h0.848v-8.119l-0.848,0.068
			V53.632z M125.274,43.333l-0.667,0.082l-0.167,2.126h-1.292v0.672h1.279v5.5c0,1.385,0.681,2.043,1.959,2.043
			c0.361,0,0.764-0.068,0.987-0.164l-0.069-0.659c-0.167,0.069-0.459,0.11-0.695,0.11c-0.82,0-1.334-0.384-1.334-1.358v-5.472h2.154
			v-0.672h-2.154V43.333z M131.833,45.375c-0.945,0-1.779,0.179-2.557,0.535l0.098,0.727c0.708-0.356,1.473-0.507,2.321-0.507
			c1.445,0,2.098,0.493,2.098,2.029v1.001c-0.556-0.205-1.306-0.356-2.043-0.356c-2.001,0-2.96,0.878-2.96,2.414
			c0,1.811,1.028,2.537,2.516,2.537c1.139,0,2.112-0.508,2.557-1.275l0.042,0.014L134,53.632h0.639v-5.349
			C134.64,46.185,133.833,45.375,131.833,45.375z M133.792,51.438c0,0.781-1.07,1.604-2.265,1.604c-1.098,0-1.932-0.467-1.932-1.838
			c0-1.125,0.695-1.77,2.279-1.77c0.987,0,1.709,0.233,1.918,0.385V51.438z M131.333,43.264c0-0.344-0.167-0.535-0.487-0.535
			c-0.319,0-0.486,0.206-0.486,0.535c0,0.384,0.167,0.521,0.486,0.521C131.166,43.785,131.333,43.621,131.333,43.264z
			 M133.403,43.264c0-0.344-0.167-0.535-0.486-0.535s-0.486,0.206-0.486,0.535c0,0.384,0.167,0.521,0.486,0.521
			S133.403,43.621,133.403,43.264z M138.459,43.333l-0.667,0.082l-0.167,2.126h-1.292v0.672h1.279v5.5
			c0,1.385,0.681,2.043,1.959,2.043c0.361,0,0.765-0.068,0.987-0.164l-0.069-0.659c-0.167,0.069-0.459,0.11-0.695,0.11
			c-0.82,0-1.334-0.384-1.334-1.358v-5.472h2.154v-0.672h-2.154V43.333z M154.521,45.417c-1.07,0-1.932,0.467-2.307,1.358h-0.042
			c-0.333-0.892-1.083-1.345-2.265-1.345c-0.89,0-1.709,0.412-2.168,1.057h-0.042l-0.167-0.987l-0.598,0.055v8.078h0.834v-6.337
			c0.389-0.658,1.223-1.083,2.001-1.083c1.015,0,1.862,0.48,1.862,1.742v5.678h0.833v-5.678c0-1.152,0.89-1.742,1.862-1.742
			c1.223,0,1.987,0.604,1.987,1.92v5.5h0.833v-5.514C157.147,46.267,156.078,45.417,154.521,45.417z M160.452,42.729
			c-0.416,0-0.652,0.206-0.652,0.576c0,0.438,0.236,0.576,0.652,0.576c0.417,0,0.653-0.179,0.653-0.576
			C161.105,42.935,160.869,42.729,160.452,42.729z M160.021,53.632h0.848v-8.119l-0.848,0.068V53.632z M165.258,43.333l-0.666,0.082
			l-0.167,2.126h-1.292v0.672h1.277v5.5c0,1.385,0.682,2.043,1.96,2.043c0.361,0,0.765-0.068,0.987-0.164l-0.07-0.659
			c-0.166,0.069-0.459,0.11-0.694,0.11c-0.819,0-1.335-0.384-1.335-1.358v-5.472h2.154v-0.672h-2.154V43.333z M181.348,43.346
			h-1.139l-3.586,4.498h-1.75v-4.498h-0.918v10.286h0.918v-4.979h1.736l3.779,4.979h1.195l-4.127-5.432L181.348,43.346z
			 M185.863,45.375c-0.944,0-1.778,0.179-2.557,0.535l0.097,0.727c0.709-0.356,1.474-0.507,2.321-0.507
			c1.444,0,2.099,0.493,2.099,2.029v1.001c-0.557-0.205-1.307-0.356-2.043-0.356c-2.002,0-2.961,0.878-2.961,2.414
			c0,1.811,1.029,2.537,2.516,2.537c1.14,0,2.112-0.508,2.557-1.275l0.043,0.014l0.097,1.139h0.64v-5.349
			C188.67,46.185,187.864,45.375,185.863,45.375z M187.823,51.438c0,0.781-1.07,1.604-2.266,1.604c-1.098,0-1.932-0.467-1.932-1.838
			c0-1.125,0.695-1.77,2.279-1.77c0.986,0,1.709,0.233,1.918,0.385V51.438z M185.363,43.264c0-0.344-0.167-0.535-0.486-0.535
			s-0.487,0.206-0.487,0.535c0,0.384,0.168,0.521,0.487,0.521S185.363,43.621,185.363,43.264z M187.433,43.264
			c0-0.344-0.167-0.535-0.486-0.535s-0.486,0.206-0.486,0.535c0,0.384,0.167,0.521,0.486,0.521S187.433,43.621,187.433,43.264z
			 M191.906,47.542h-0.028l-0.027-1.11l-0.027-0.905l-0.682,0.055v8.051h0.834v-4.128c0-1.962,1.168-3.224,2.557-3.224
			c0.265,0,0.515,0.027,0.751,0.11l0.069-0.864c-0.236-0.068-0.5-0.097-0.777-0.097C193.337,45.43,192.378,46.281,191.906,47.542z
			 M199.993,53.042c-1.737,0-2.641-0.933-2.641-3.552c0-2.318,0.75-3.292,2.668-3.292c0.653,0,1.293,0.178,1.807,0.425l0.069-0.768
			c-0.542-0.261-1.278-0.453-2.042-0.453c-2.35,0-3.377,1.331-3.377,4.088c0,3.058,1.111,4.319,3.362,4.319
			c0.848,0,1.64-0.247,2.126-0.604l-0.083-0.727C201.368,52.85,200.687,53.042,199.993,53.042z M207.356,45.389
			c-1.001,0-1.877,0.371-2.446,1.043l-0.027-0.014l0.014-1.098v-2.66l-0.848,0.068v10.903h0.848v-6.323
			c0.361-0.616,1.224-1.11,2.237-1.11c1.459,0,2.141,0.713,2.141,1.961v5.473h0.848V48.16
			C210.122,46.363,209.163,45.389,207.356,45.389z M215.344,45.403c-2.168,0-3.266,1.372-3.266,3.909
			c0,3.127,1.042,4.484,3.654,4.484c0.959,0,1.751-0.233,2.46-0.631l-0.111-0.727c-0.694,0.37-1.403,0.576-2.265,0.576
			c-1.959,0-2.835-0.878-2.877-3.47h5.518c0.014-0.11,0.027-0.288,0.027-0.412C218.485,46.514,217.192,45.403,215.344,45.403z
			 M212.926,48.956c0.083-1.865,0.806-2.812,2.418-2.812c1.361,0,2.334,0.768,2.362,2.812H212.926z M221.332,47.542h-0.028
			l-0.027-1.11l-0.027-0.905l-0.682,0.055v8.051h0.834v-4.128c0-1.962,1.168-3.224,2.557-3.224c0.265,0,0.515,0.027,0.751,0.11
			l0.069-0.864c-0.236-0.068-0.5-0.097-0.777-0.097C222.763,45.43,221.804,46.281,221.332,47.542z M236.518,51.341l-0.389,1.029
			h-0.043l-0.402-1.029l-3.293-7.995h-1.084v10.286h0.806v-7.653l-0.015-1.11l0.028-0.014l0.403,1.042l3.21,7.735h0.694l3.211-7.776
			l0.402-1.042l0.042,0.014l-0.028,1.11v7.694h0.82V43.346h-1.07L236.518,51.341z M244.13,53.632h0.848v-8.119l-0.848,0.068V53.632z
			 M244.561,42.729c-0.417,0-0.653,0.206-0.653,0.576c0,0.438,0.236,0.576,0.653,0.576s0.653-0.179,0.653-0.576
			C245.214,42.935,244.978,42.729,244.561,42.729z M250.758,45.403c-2.168,0-3.266,1.372-3.266,3.909
			c0,3.127,1.042,4.484,3.654,4.484c0.959,0,1.751-0.233,2.459-0.631l-0.11-0.727c-0.694,0.37-1.403,0.576-2.265,0.576
			c-1.96,0-2.836-0.878-2.877-3.47h5.517c0.014-0.11,0.028-0.288,0.028-0.412C253.899,46.514,252.606,45.403,250.758,45.403z
			 M248.34,48.956c0.083-1.865,0.806-2.812,2.418-2.812c1.361,0,2.334,0.768,2.361,2.812H248.34z M257.19,43.333l-0.667,0.082
			l-0.167,2.126h-1.292v0.672h1.278v5.5c0,1.385,0.682,2.043,1.959,2.043c0.361,0,0.766-0.068,0.987-0.164l-0.069-0.659
			c-0.167,0.069-0.459,0.11-0.695,0.11c-0.82,0-1.334-0.384-1.334-1.358v-5.472h2.154v-0.672h-2.154V43.333z M267.069,45.375
			l-1.32,0.59c-0.541-0.425-1.292-0.562-2-0.562c-1.988,0-2.766,0.851-2.766,2.373c0,1.001,0.416,1.604,1,1.92
			c-0.681,0.233-1.056,0.672-1.056,1.166c0,0.549,0.333,0.905,0.751,1.083c-0.584,0.439-0.904,1.043-0.904,1.66
			c0,1.289,0.904,2.139,3.058,2.139c2.487,0,3.321-0.904,3.321-2.331c0-1.069-0.598-1.673-2.613-1.879l-1.889-0.192
			c-0.682-0.068-0.932-0.329-0.932-0.645c0-0.343,0.292-0.617,0.848-0.74c0.375,0.109,0.792,0.15,1.182,0.15
			c2.057,0,2.751-0.822,2.751-2.345c0-0.521-0.111-0.933-0.292-1.262l1.057-0.699L267.069,45.375z M262.415,52.096l2,0.205
			c1.584,0.138,1.945,0.521,1.945,1.221c0,0.905-0.527,1.522-2.557,1.522c-1.611,0-2.279-0.576-2.279-1.536
			C261.524,53.015,261.831,52.466,262.415,52.096z M263.734,49.449c-1.098,0-1.931-0.302-1.931-1.659
			c0-1.125,0.527-1.687,1.945-1.687c1.348,0,1.945,0.438,1.945,1.687C265.694,48.873,265.235,49.449,263.734,49.449z
			 M271.681,45.403c-2.168,0-3.266,1.372-3.266,3.909c0,3.127,1.042,4.484,3.655,4.484c0.958,0,1.75-0.233,2.459-0.631l-0.111-0.727
			c-0.695,0.37-1.403,0.576-2.266,0.576c-1.959,0-2.834-0.878-2.876-3.47h5.517c0.014-0.11,0.028-0.288,0.028-0.412
			C274.822,46.514,273.53,45.403,271.681,45.403z M269.263,48.956c0.083-1.865,0.806-2.812,2.418-2.812
			c1.362,0,2.335,0.768,2.362,2.812H269.263z M277.668,47.542h-0.027l-0.028-1.11l-0.027-0.905l-0.681,0.055v8.051h0.834v-4.128
			c0-1.962,1.166-3.224,2.557-3.224c0.264,0,0.514,0.027,0.75,0.11l0.069-0.864c-0.235-0.068-0.5-0.097-0.778-0.097
			C279.1,45.43,278.141,46.281,277.668,47.542z M286.45,43.785c0.32,0,0.486-0.164,0.486-0.521c0-0.344-0.166-0.535-0.486-0.535
			c-0.319,0-0.486,0.206-0.486,0.535C285.963,43.648,286.13,43.785,286.45,43.785z M284.379,43.785c0.32,0,0.486-0.164,0.486-0.521
			c0-0.344-0.166-0.535-0.486-0.535s-0.486,0.206-0.486,0.535C283.893,43.648,284.059,43.785,284.379,43.785z M285.366,45.375
			c-0.945,0-1.778,0.179-2.557,0.535l0.098,0.727c0.709-0.356,1.473-0.507,2.32-0.507c1.445,0,2.098,0.493,2.098,2.029v1.001
			c-0.555-0.205-1.306-0.356-2.042-0.356c-2.001,0-2.96,0.878-2.96,2.414c0,1.811,1.028,2.537,2.516,2.537
			c1.139,0,2.111-0.508,2.557-1.275l0.041,0.014l0.098,1.139h0.64v-5.349C288.173,46.185,287.368,45.375,285.366,45.375z
			 M287.325,51.438c0,0.781-1.069,1.604-2.265,1.604c-1.098,0-1.931-0.467-1.931-1.838c0-1.125,0.694-1.77,2.278-1.77
			c0.987,0,1.709,0.233,1.917,0.385V51.438z M291.993,43.333l-0.667,0.082l-0.167,2.126h-1.292v0.672h1.278v5.5
			c0,1.385,0.682,2.043,1.959,2.043c0.361,0,0.765-0.068,0.987-0.164l-0.069-0.659c-0.167,0.069-0.459,0.11-0.695,0.11
			c-0.82,0-1.334-0.384-1.334-1.358v-5.472h2.154v-0.672h-2.154V43.333z M298.634,45.403c-2.168,0-3.266,1.372-3.266,3.909
			c0,3.127,1.042,4.484,3.655,4.484c0.958,0,1.75-0.233,2.459-0.631l-0.111-0.727c-0.695,0.37-1.403,0.576-2.266,0.576
			c-1.959,0-2.834-0.878-2.876-3.47h5.517c0.014-0.11,0.028-0.288,0.028-0.412C301.775,46.514,300.483,45.403,298.634,45.403z
			 M296.216,48.956c0.083-1.865,0.806-2.812,2.418-2.812c1.362,0,2.335,0.768,2.362,2.812H296.216z M307.137,45.403
			c-0.986,0-1.932,0.398-2.488,1.07h-0.041l-0.152-0.974l-0.598,0.055v8.078h0.834v-6.337c0.458-0.713,1.431-1.097,2.236-1.097
			c1.39,0,2.168,0.59,2.168,1.975v5.459h0.834V48.16C309.93,46.294,308.874,45.403,307.137,45.403z M312.792,52.494
			c-0.445,0-0.668,0.22-0.668,0.631c0,0.467,0.223,0.645,0.668,0.645c0.43,0,0.639-0.233,0.639-0.645S313.221,52.494,312.792,52.494
			z"/>
	</g>
</g>
</svg>
