<?xml version="1.0" encoding="utf-8"?>
<!-- Generator: Adobe Illustrator 16.0.4, SVG Export Plug-In . SVG Version: 6.00 Build 0)  -->
<!DOCTYPE svg PUBLIC "-//W3C//DTD SVG 1.1//EN" "http://www.w3.org/Graphics/SVG/1.1/DTD/svg11.dtd">
<svg version="1.1" id="Ebene_1" xmlns="http://www.w3.org/2000/svg" xmlns:xlink="http://www.w3.org/1999/xlink" x="0px" y="0px"
	 width="160.896px" height="68.965px" viewBox="0 0 160.896 68.965" enable-background="new 0 0 160.896 68.965"
	 xml:space="preserve">
<g>
	<path fill="#FFFFFF" d="M6.739,10.355c0,3.521-1.793,4.626-4.61,4.626c-0.896,0-1.616-0.16-2.192-0.416l0.159-2.609
		c0.337,0.177,0.865,0.288,1.489,0.288c1.312,0,1.952-0.512,1.952-1.953V2.752h3.202V10.355z"/>
	<path fill="#FFFFFF" d="M16.163,12.053L16.1,14.758H8.368V2.752h7.522l0.064,2.754h-4.466v1.856h3.682v2.513h-3.682v2.178H16.163z"
		/>
	<path fill="#FFFFFF" d="M22.594,5.554v9.204h-3.185V5.554h-2.722l0.064-2.802h8.5l0.063,2.802H22.594z"/>
	<path fill="#FFFFFF" d="M25.84,14.758v-2.033l3.826-6.082l0.704-1.057l-0.017-0.032h-4.418l0.08-2.802h8.02v2.241l-3.697,5.891
		l-0.704,1.04l0.017,0.049h4.417l-0.048,2.785H25.84z"/>
	<path fill="#FFFFFF" d="M40.578,5.554v9.204h-3.185V5.554h-2.722l0.064-2.802h8.5L43.3,5.554H40.578z"/>
	<path fill="#FFFFFF" d="M54.051,12.66h-3.266l-0.464,2.098h-3.313l3.554-12.006h3.825l3.617,12.006h-3.488L54.051,12.66z
		 M52.146,6.609l-0.769,3.441h2.097l-0.768-3.441l-0.24-1.279h-0.049L52.146,6.609z"/>
	<path fill="#FFFFFF" d="M64.946,14.758l-2.257-4.883h-0.769v4.883H58.8V2.752h3.121v4.643h0.833l2.225-4.643h3.505l-2.881,5.747
		l3.025,6.259H64.946z"/>
	<path fill="#FFFFFF" d="M74.738,5.554v9.204h-3.186V5.554h-2.721l0.063-2.802h8.499l0.064,2.802H74.738z"/>
	<path fill="#FFFFFF" d="M78.544,2.752h3.218v12.006h-3.218V2.752z"/>
	<path fill="#FFFFFF" d="M88.226,14.965c-3.458,0-5.026-1.824-5.026-6.21c0-4.401,1.505-6.194,5.026-6.194s5.025,1.793,5.025,6.194
		C93.251,13.269,91.747,14.965,88.226,14.965z M88.209,5.361c-1.312,0-1.729,0.545-1.729,3.394c0,2.865,0.432,3.441,1.761,3.441
		s1.729-0.593,1.729-3.441C89.97,5.89,89.57,5.361,88.209,5.361z"/>
	<path fill="#FFFFFF" d="M101.586,14.758l-3.585-5.539l-0.672-1.104l-0.032,0.016l0.016,1.297v5.33H94.56V2.752h2.625l3.857,6.227
		l0.032-0.016l-0.032-1.28l0.017-4.931h2.753v12.006H101.586z"/>
	<path fill="#FFFFFF" d="M108.576,14.965c-1.264,0-2.513-0.287-3.489-0.832l0.4-2.656c0.977,0.496,1.969,0.8,3.01,0.8
		c0.992,0,1.376-0.337,1.376-0.977c0-1.536-4.77-1.056-4.77-4.978c0-2.098,1.28-3.762,4.241-3.762c1.104,0,2.289,0.208,3.153,0.576
		l-0.352,2.609c-0.913-0.272-1.825-0.433-2.594-0.433c-1.185,0-1.44,0.353-1.44,0.864c0,1.553,4.771,1.024,4.771,4.946
		C112.883,13.492,111.282,14.965,108.576,14.965z"/>
	<path fill="#FFFFFF" d="M122.482,14.325c-0.832,0.399-2.193,0.656-3.426,0.656c-3.97,0-5.378-2.129-5.378-6.227
		c0-4.194,1.648-6.21,5.522-6.21c1.057,0,2.257,0.191,3.121,0.527l-0.288,2.674c-0.784-0.289-1.793-0.465-2.657-0.465
		c-1.969,0-2.417,0.736-2.417,3.441c0,2.85,0.465,3.474,2.017,3.474c0.24,0,0.497-0.017,0.721-0.063V8.211h2.785V14.325z"/>
	<path fill="#FFFFFF" d="M131.697,12.053l-0.063,2.705h-7.731V2.752h7.523l0.063,2.754h-4.466v1.856h3.682v2.513h-3.682v2.178
		H131.697z"/>
	<path fill="#FFFFFF" d="M139.953,9.844l2.337,4.914h-3.617l-1.601-4.29h-1.057v4.29h-3.121V2.752h4.146
		c3.041,0,4.546,1.152,4.546,3.857C141.586,8.211,141.01,9.395,139.953,9.844z M137.104,5.346h-1.089v2.77h1.072
		c0.913,0,1.232-0.225,1.232-1.393C138.32,5.634,138.017,5.346,137.104,5.346z"/>
	<path fill="#FFFFFF" d="M149.265,12.66h-3.266l-0.464,2.098h-3.313l3.554-12.006h3.825l3.618,12.006h-3.49L149.265,12.66z
		 M146.144,2.176c-0.784,0-1.185-0.304-1.185-1.072c0-0.721,0.4-1.104,1.185-1.104c0.816,0,1.185,0.383,1.185,1.104
		C147.328,1.809,146.96,2.176,146.144,2.176z M147.36,6.609l-0.769,3.441h2.097l-0.769-3.441l-0.24-1.279h-0.048L147.36,6.609z
		 M149.201,2.176c-0.785,0-1.185-0.304-1.185-1.072c0-0.721,0.399-1.104,1.185-1.104c0.815,0,1.184,0.383,1.184,1.104
		C150.385,1.809,150.017,2.176,149.201,2.176z"/>
	<path fill="#FFFFFF" d="M158.176,5.554v9.204h-3.186V5.554h-2.721l0.063-2.802h8.5l0.063,2.802H158.176z"/>
	<path fill="#FFFFFF" d="M6.499,32.758l-2.257-4.883H3.474v4.883H0.353V20.752h3.121v4.643h0.833l2.225-4.643h3.505l-2.881,5.747
		l3.025,6.259H6.499z"/>
	<path fill="#FFFFFF" d="M17.251,30.66h-3.265l-0.465,2.098h-3.313l3.554-12.006h3.826l3.617,12.006h-3.49L17.251,30.66z
		 M15.346,24.609l-0.768,3.441h2.097l-0.769-3.441l-0.24-1.279h-0.048L15.346,24.609z"/>
	<path fill="#FFFFFF" d="M30.597,28.676c0,2.816-1.505,4.289-4.578,4.289s-4.626-1.473-4.626-4.289v-7.924h3.138v7.859
		c0,1.072,0.416,1.553,1.488,1.553c1.089,0,1.456-0.447,1.456-1.553v-7.859h3.122V28.676z"/>
	<path fill="#FFFFFF" d="M35.25,23.554v2.112h3.665l-0.017,2.658H35.25v4.434h-3.138V20.752h7.507l0.049,2.802H35.25z"/>
	<path fill="#FFFFFF" d="M48.516,30.053l-0.064,2.705h-7.73V20.752h7.523l0.063,2.754h-4.466v1.856h3.682v2.513h-3.682v2.178H48.516
		z"/>
	<path fill="#FFFFFF" d="M56.738,32.758l-3.585-5.539l-0.673-1.104l-0.031,0.016l0.016,1.297v5.33h-2.753V20.752h2.625l3.857,6.227
		l0.032-0.016l-0.032-1.28l0.017-4.931h2.752v12.006H56.738z"/>
	<path fill="#FFFFFF" d="M73.283,28.676c0,2.816-1.505,4.289-4.578,4.289s-4.626-1.473-4.626-4.289v-7.924h3.138v7.859
		c0,1.072,0.416,1.553,1.488,1.553c1.088,0,1.457-0.447,1.457-1.553v-7.859h3.121V28.676z"/>
	<path fill="#FFFFFF" d="M81.826,32.758l-3.585-5.539l-0.673-1.104l-0.031,0.016l0.016,1.297v5.33H74.8V20.752h2.625l3.857,6.227
		l0.032-0.016l-0.032-1.28l0.017-4.931h2.752v12.006H81.826z"/>
	<path fill="#FFFFFF" d="M90.018,32.758H85.68V20.752h4.273c3.649,0,5.139,1.697,5.139,5.939
		C95.092,31.093,93.395,32.758,90.018,32.758z M89.97,23.521h-1.169v6.498h1.169c1.376,0,1.841-0.416,1.841-3.361
		C91.811,24.002,91.378,23.521,89.97,23.521z"/>
	<path fill="#FFFFFF" d="M104.673,32.758h-4.674V20.752h4.706c2.577,0,3.89,1.201,3.89,3.105c0,1.265-0.576,2.081-1.473,2.514v0.031
		c1.2,0.4,1.841,1.329,1.841,2.817C108.963,31.381,107.666,32.758,104.673,32.758z M104.577,23.377h-1.553v2.113h1.584
		c0.721,0,0.977-0.271,0.977-1.088C105.585,23.617,105.313,23.377,104.577,23.377z M104.657,27.827h-1.633v2.369h1.696
		c0.784,0,1.072-0.257,1.072-1.2C105.793,28.164,105.537,27.827,104.657,27.827z"/>
	<path fill="#FFFFFF" d="M110.335,20.752h3.218v12.006h-3.218V20.752z"/>
	<path fill="#FFFFFF" d="M118.447,32.965c-1.264,0-2.513-0.287-3.489-0.832l0.4-2.656c0.977,0.496,1.969,0.8,3.01,0.8
		c0.992,0,1.376-0.337,1.376-0.977c0-1.536-4.77-1.056-4.77-4.978c0-2.098,1.28-3.762,4.241-3.762c1.104,0,2.289,0.208,3.153,0.576
		l-0.352,2.609c-0.913-0.272-1.825-0.433-2.594-0.433c-1.185,0-1.44,0.353-1.44,0.864c0,1.553,4.771,1.024,4.771,4.946
		C122.754,31.492,121.153,32.965,118.447,32.965z"/>
	<path fill="#FFFFFF" d="M127.037,32.758v-2.033l3.826-6.082l0.704-1.057l-0.016-0.032h-4.418l0.08-2.802h8.019v2.241l-3.697,5.891
		l-0.704,1.04l0.016,0.049h4.418l-0.048,2.785H127.037z"/>
	<path fill="#FFFFFF" d="M145.458,28.676c0,2.816-1.505,4.289-4.578,4.289s-4.626-1.473-4.626-4.289v-7.924h3.138v7.859
		c0,1.072,0.416,1.553,1.488,1.553c1.089,0,1.457-0.447,1.457-1.553v-7.859h3.121V28.676z"/>
	<path fill="#FFFFFF" d="M3.762,50.918c-1.312,0-2.497-0.353-3.329-0.833l0.528-2.368c0.864,0.432,1.713,0.656,2.673,0.656
		c1.104,0,1.648-0.465,1.648-1.312c0-0.785-0.433-1.377-2.577-1.377v-2.161c2.064,0,2.498-0.464,2.498-1.28
		c0-0.625-0.417-0.992-1.473-0.992c-1.041,0-1.938,0.352-2.689,0.96l-0.688-2.401c0.896-0.704,2.225-1.184,3.617-1.184
		c2.593,0,4.098,1.279,4.098,3.408c0,1.089-0.496,1.953-1.44,2.481v0.032c1.072,0.465,1.664,1.328,1.664,2.593
		C8.291,49.445,6.867,50.918,3.762,50.918z"/>
	<path fill="#FFFFFF" d="M13.378,50.918c-1.28,0-2.481-0.272-3.474-0.833l0.512-2.368c0.881,0.432,1.602,0.656,2.625,0.656
		c1.281,0,1.617-0.497,1.617-1.537c0-0.945-0.512-1.281-1.601-1.281c-0.624,0-1.393,0.097-1.985,0.305l-0.992-1.152l0.433-5.955
		h6.53l0.112,2.658h-4.178l-0.112,1.775c0.369-0.063,0.752-0.096,1.185-0.096c2.321,0,3.665,1.169,3.665,3.506
		C17.715,49.285,16.402,50.918,13.378,50.918z"/>
	<path fill="#FFFFFF" d="M23.074,50.918c-2.978,0-4.178-1.809-4.178-6.1c0-4.577,1.216-6.193,4.209-6.193
		c2.93,0,4.21,1.616,4.21,6.193C27.315,49.109,25.986,50.918,23.074,50.918z M23.105,41.297c-0.848,0-1.232,0.433-1.232,3.49
		c0,3.217,0.385,3.553,1.232,3.553c0.832,0,1.201-0.416,1.201-3.553C24.307,41.666,23.938,41.297,23.105,41.297z"/>
	<path fill="#FFFFFF" d="M38.689,46.676h-2.48c0.353,1.344,1.168,1.777,2.354,1.777c0.561,0,1.12-0.16,1.633-0.354l0.207,2.258
		c-0.688,0.352-1.553,0.544-2.656,0.544c-2.657,0-4.258-1.36-4.738-4.226h-1.185l0.017-1.537h1.023v-0.576H31.84l-0.017-1.584h1.185
		c0.512-2.642,2.241-4.273,4.882-4.273c1.057,0,1.856,0.16,2.529,0.416l-0.561,2.465c-0.368-0.129-0.784-0.209-1.265-0.209
		c-1.296,0-2.017,0.48-2.353,1.602h3.281l-0.336,1.584h-3.153v0.576h2.977L38.689,46.676z"/>
	<path fill="#FFFFFF" d="M52.434,41.649c-0.527-0.192-1.248-0.319-2-0.319c-1.777,0-2.226,0.752-2.226,3.377
		c0,2.77,0.497,3.537,2.272,3.537c0.736,0,1.426-0.145,1.985-0.4l0.288,2.545c-0.721,0.353-1.809,0.576-2.736,0.576
		c-3.426,0-5.091-1.952-5.091-6.273c0-4.034,1.616-6.146,5.282-6.146c0.848,0,1.889,0.191,2.529,0.447L52.434,41.649z"/>
	<path fill="#FFFFFF" d="M60.273,48.66h-3.266l-0.465,2.098H53.23l3.553-12.006h3.826l3.617,12.006h-3.489L60.273,48.66z
		 M58.368,42.609L57.6,46.051h2.098l-0.769-3.441l-0.24-1.279h-0.048L58.368,42.609z"/>
	<path fill="#FFFFFF" d="M68.191,50.965c-1.264,0-2.513-0.287-3.488-0.832l0.399-2.656c0.977,0.496,1.969,0.8,3.009,0.8
		c0.993,0,1.377-0.337,1.377-0.977c0-1.536-4.77-1.056-4.77-4.978c0-2.098,1.28-3.762,4.241-3.762c1.104,0,2.289,0.208,3.153,0.576
		l-0.352,2.609c-0.912-0.272-1.825-0.433-2.594-0.433c-1.184,0-1.44,0.353-1.44,0.864c0,1.553,4.771,1.024,4.771,4.946
		C72.498,49.492,70.896,50.965,68.191,50.965z"/>
	<path fill="#FFFFFF" d="M79.648,50.758v-4.707h-2.913v4.707h-3.121V38.752h3.121v4.498h2.913v-4.498h3.138v12.006H79.648z"/>
	<path fill="#FFFFFF" d="M89.072,50.758h-4.674V38.752h4.706c2.577,0,3.89,1.201,3.89,3.105c0,1.265-0.576,2.081-1.473,2.514v0.031
		c1.2,0.4,1.841,1.329,1.841,2.817C93.362,49.381,92.065,50.758,89.072,50.758z M88.977,41.377h-1.553v2.113h1.584
		c0.721,0,0.977-0.271,0.977-1.088C89.984,41.617,89.713,41.377,88.977,41.377z M89.057,45.827h-1.633v2.369h1.696
		c0.784,0,1.072-0.257,1.072-1.2C90.192,46.164,89.937,45.827,89.057,45.827z"/>
	<path fill="#FFFFFF" d="M100.576,48.66h-3.266l-0.464,2.098h-3.313l3.554-12.006h3.825l3.618,12.006h-3.49L100.576,48.66z
		 M98.672,42.609l-0.769,3.441H100l-0.769-3.441l-0.24-1.279h-0.048L98.672,42.609z"/>
	<path fill="#FFFFFF" d="M112.065,41.649c-0.528-0.192-1.248-0.319-2.001-0.319c-1.776,0-2.225,0.752-2.225,3.377
		c0,2.77,0.496,3.537,2.273,3.537c0.736,0,1.424-0.145,1.984-0.4l0.288,2.545c-0.72,0.353-1.809,0.576-2.737,0.576
		c-3.425,0-5.09-1.952-5.09-6.273c0-4.034,1.617-6.146,5.282-6.146c0.849,0,1.889,0.191,2.529,0.447L112.065,41.649z"/>
	<path fill="#FFFFFF" d="M119.682,50.758l-2.257-4.883h-0.769v4.883h-3.121V38.752h3.121v4.643h0.832l2.226-4.643h3.505
		l-2.881,5.747l3.025,6.259H119.682z"/>
	<path fill="#FFFFFF" d="M3.49,68.965c-1.266,0-2.514-0.287-3.49-0.832l0.4-2.656c0.977,0.496,1.969,0.8,3.01,0.8
		c0.992,0,1.376-0.337,1.376-0.977c0-1.536-4.771-1.056-4.771-4.978c0-2.098,1.281-3.762,4.242-3.762
		c1.104,0,2.289,0.208,3.153,0.576l-0.353,2.609c-0.912-0.272-1.824-0.433-2.592-0.433c-1.186,0-1.441,0.353-1.441,0.864
		c0,1.553,4.77,1.024,4.77,4.946C7.795,67.492,6.195,68.965,3.49,68.965z"/>
	<path fill="#FFFFFF" d="M9.04,56.752h3.218v12.006H9.04V56.752z"/>
	<path fill="#FFFFFF" d="M21.203,59.649c-0.529-0.192-1.249-0.319-2.002-0.319c-1.776,0-2.225,0.752-2.225,3.377
		c0,2.77,0.496,3.537,2.273,3.537c0.736,0,1.424-0.145,1.984-0.4l0.288,2.545c-0.72,0.353-1.809,0.576-2.737,0.576
		c-3.426,0-5.09-1.952-5.09-6.273c0-4.034,1.617-6.146,5.282-6.146c0.849,0,1.889,0.191,2.528,0.447L21.203,59.649z"/>
	<path fill="#FFFFFF" d="M28.705,68.758v-4.707h-2.912v4.707h-3.121V56.752h3.121v4.498h2.912v-4.498h3.138v12.006H28.705z"/>
	<path fill="#FFFFFF" d="M41.25,66.053l-0.064,2.705h-7.73V56.752h7.523l0.063,2.754h-4.466v1.856h3.682v2.513h-3.682v2.178H41.25z"
		/>
	<path fill="#FFFFFF" d="M49.506,63.844l2.337,4.914h-3.617l-1.601-4.29h-1.057v4.29h-3.121V56.752h4.146
		c3.042,0,4.546,1.152,4.546,3.857C51.139,62.211,50.562,63.395,49.506,63.844z M46.656,59.346h-1.088v2.77h1.072
		c0.912,0,1.232-0.225,1.232-1.393C47.873,59.634,47.569,59.346,46.656,59.346z"/>
	<path fill="#FFFFFF" d="M59.65,68.758l-3.586-5.539l-0.672-1.104l-0.033,0.016l0.017,1.297v5.33h-2.753V56.752h2.625l3.857,6.227
		l0.032-0.016l-0.032-1.28l0.016-4.931h2.754v12.006H59.65z"/>
	<path fill="#FFFFFF" d="M64.783,68.949c-1.12,0-1.617-0.432-1.617-1.521c0-0.976,0.497-1.536,1.617-1.536
		c1.121,0,1.601,0.561,1.601,1.536C66.384,68.342,65.904,68.949,64.783,68.949z"/>
	<path fill="#FFFFFF" d="M70.592,56.288l0.208,1.553l1.473-0.353l0.464,1.312l-1.424,0.689l0.816,1.359l-1.009,0.77l-1.185-1.153
		l-1.217,1.169l-1.04-0.736l0.784-1.408l-1.424-0.673l0.496-1.329l1.488,0.353l0.225-1.553H70.592z"/>
</g>
</svg>
