<svg enable-background="new 0 0 248.8 74.6" viewBox="0 0 248.8 74.6" xmlns="http://www.w3.org/2000/svg"><path clip-rule="evenodd" d="m229.6 49.6c-1.8 0-2.5-.7-2.5-2.4 0-1.5.8-2.4 2.5-2.4 1.8 0 2.5.9 2.5 2.4s-.8 2.4-2.5 2.4zm-13.7.8-1.1-1.7h-.1v2 8.3h-4.3v-18.7h4.1l6 9.7h.1l-.1-2v-7.7h4.3v18.7h-3.5zm-9.1-28.3h7v3.2h-7zm-9.2 11.3c-4.8 0-7.2-2.3-7.2-6.7v-12.4h4.9v12.3c0 1.7.7 2.4 2.3 2.4 1.7 0 2.3-.7 2.3-2.4v-12.3h4.9v12.4c0 4.4-2.4 6.7-7.2 6.7zm-14.2-.3-3.5-7.6h-1.2v7.6h-4.9v-18.8h4.9v7.2h1.3l3.5-7.2h5.5l-4.5 9 4.7 9.8zm-5.2 26h-5v-18.8h5zm-11.5-26-3.5-7.6h-1.2v7.6h-4.9v-18.8h4.9v7.2h1.3l3.5-7.2h5.5l-4.5 9 4.7 9.8zm-17.1-3.3h-5.1l-.7 3.3h-5.2l5.6-18.7h6l5.7 18.7h-5.5zm-2.1-9.5-.4-2h-.1l-.4 2-1.2 5.4h3.3zm-4.5 20.6-.6 4.1c-1.4-.4-2.9-.7-4.1-.7-1.9 0-2.3.5-2.3 1.3 0 2.4 7.5 1.6 7.5 7.7 0 3.7-2.5 6-6.7 6-2 0-3.9-.5-5.5-1.3l.6-4.1c1.5.8 3.1 1.2 4.7 1.2s2.2-.5 2.2-1.5c0-2.4-7.5-1.7-7.5-7.8 0-3.3 2-5.9 6.6-5.9 1.9.1 3.8.4 5.1 1zm-17.3-18.9h5.7v4.1h-5.7v6.9h-4.9v-18.7h11.7l.1 4.4h-6.9zm3.7 18.3v18.7h-4.4v-7.8l.1-2h-.1l-.6 1.9-2.8 7.9h-3.2l-2.8-7.9-.6-1.9h-.1v2 7.8h-4.3v-18.7h5.4l3.3 9.5.6 1.9h.1l.6-1.9 3.4-9.5zm-18.1-6.9c-4.8 0-7.2-2.3-7.2-6.7v-12.4h4.9v12.3c0 1.7.7 2.4 2.3 2.4 1.7 0 2.3-.7 2.3-2.4v-12.3h4.9v12.4c-.1 4.4-2.4 6.7-7.2 6.7zm-13.7-3.6h-5.1l-.7 3.3h-5.2l5.6-18.7h6l5.7 18.7h-5.5zm-2.1-9.5-.4-2h-.1l-.4 2-1.2 5.4h3.3zm-19 12.8h-5v-14.4h-4.3l.1-4.4h13.3l.1 4.4h-4.3v14.4zm-7.9 2.9c1.3 0 1.9.6 1.9 1.7s-.6 1.7-1.9 1.7c-1.2 0-1.9-.5-1.9-1.7.1-1.1.7-1.7 1.9-1.7zm-2.3-7.3-.1 4.3h-12.8v-3.2l6-9.5 1.1-1.6h-6.9l.1-4.4h12.5v3.5l-5.7 9.2-1.1 1.6v.1zm-17.9 4.4h-5v-14.4h-4.3l.1-4.4h13.3l.1 4.4h-4.3v14.4zm-10.1-4.3-.1 4.2h-12.1v-18.7h11.8l.1 4.3h-7v2.9h5.8v3.9h-5.8v3.4zm-12.2 16.2c-1.2-.5-2.8-.7-4.2-.7-3.1 0-3.8 1.1-3.8 5.4 0 4.4.7 5.4 3.2 5.4.4 0 .8 0 1.1-.1v-6.1h4.4v9.5c-1.3.6-3.4 1-5.4 1-6.2 0-8.4-3.3-8.4-9.7 0-6.5 2.6-9.7 8.6-9.7 1.7 0 3.5.3 4.9.8zm-9.8-11.6c-1.4 0-2.5-.2-3.4-.6l.3-4.1c.5.3 1.4.4 2.3.4 2.1 0 3.1-.8 3.1-3v-11.8h5v11.9c-.1 5.5-2.9 7.2-7.3 7.2zm24.6 11.2h-7v2.9h5.8v3.9h-5.8v3.4h7.3l-.1 4.2h-12v-18.7h11.8zm21.1-6.9c0-1.1.6-1.7 1.9-1.7s1.9.6 1.9 1.7-.6 1.7-1.9 1.7-1.9-.5-1.9-1.7zm-5.3 8.6c0 2.5-.9 4.3-2.6 5l3.6 7.5 5.5-18.6h6l5.7 18.7h-5.5l-.7-3.3h-5.1l-.7 3.3h-5.1-.1-5.6l-2.5-6.7h-1.6v6.7h-4.9v-18.6h6.5c4.8 0 7.1 1.8 7.1 6zm11.1 5.4-1.2-5.4-.4-2h-.1l-.4 2-1.2 5.4zm-19.8-3h1.7c1.4 0 1.9-.4 1.9-2.2 0-1.7-.5-2.1-1.9-2.1h-1.7zm25.5-8.4h13.3l.1 4.4h-4.3v14.4h-5v-14.4h-4.3zm25.3 12.3c0 1.7.6 2.4 2.3 2.4s2.3-.7 2.3-2.4v-12.3h4.9v12.4c0 4.4-2.4 6.7-7.2 6.7s-7.2-2.3-7.2-6.7v-12.4h4.9zm58.5-12.3.1 4.4h-4.3v14.4h-5v-14.4h-4.3l.1-4.4zm13.5 4.3h-7v2.9h5.8v3.9h-5.8v3.4h7.3l-.1 4.2h-12.1v-18.7h11.8zm18.3-4.6c1.7 0 3.5.3 4.9.8l-.5 4.2c-1.2-.5-2.8-.7-4.2-.7-3.1 0-3.8 1.1-3.8 5.4 0 4.4.7 5.4 3.2 5.4.4 0 .8 0 1.1-.1v-6.1h4.4v9.5c-1.3.6-3.4 1-5.4 1-6.2 0-8.4-3.3-8.4-9.7.1-6.6 2.7-9.7 8.7-9.7zm19.2 4.6h-7v2.9h5.8v3.9h-5.8v3.4h7.3l-.1 4.2h-12.1v-18.7h11.8zm21.3 10c1.8 0 2.5.9 2.5 2.4 0 1.4-.8 2.4-2.5 2.4-1.8 0-2.5-.7-2.5-2.4 0-1.5.7-2.4 2.5-2.4z" fill="#020204" fill-rule="evenodd"/></svg>