<svg enable-background="new 0 0 340.4 98.2" viewBox="0 0 340.4 98.2" xmlns="http://www.w3.org/2000/svg"><path clip-rule="evenodd" d="m325.7 25.2v16c-2.2 1-5.8 1.7-9 1.7-10.4 0-14.1-5.6-14.1-16.3 0-11 4.3-16.3 14.5-16.3 2.8 0 5.9.5 8.2 1.4l-.8 7c-2.1-.8-4.7-1.2-7-1.2-5.2 0-6.3 1.9-6.3 9 0 7.5 1.2 9.1 5.3 9.1.6 0 1.3 0 1.9-.2v-10.2zm-41.8 2.7-1.8-2.9h-.1v3.4 14h-7.2v-31.5h6.9l10.1 16.3h.1l-.1-3.4v-12.9h7.2v31.5h-5.8zm-25.1 15.1c-8.1 0-12.1-3.9-12.1-11.3v-20.8h8.2v20.6c0 2.8 1.1 4.1 3.9 4.1 2.9 0 3.8-1.2 3.8-4.1v-20.6h8.2v20.8c.1 7.4-3.9 11.3-12 11.3zm-2.7 44.4h-18.8v-31.5h8.3v24.2h10.7zm-18.8-45h-8.3v-24.1h-7.1l.2-7.3h22.3l.2 7.3h-7.1v24.1zm-27.3.6c-3.3 0-6.6-.8-9.2-2.2l1.1-7c2.6 1.3 5.2 2.1 7.9 2.1 2.6 0 3.6-.9 3.6-2.6 0-4-12.5-2.8-12.5-13.1 0-5.5 3.4-9.9 11.1-9.9 2.9 0 6 .5 8.3 1.5l-.9 6.8c-2.4-.7-4.8-1.1-6.8-1.1-3.1 0-3.8.9-3.8 2.3 0 4.1 12.5 2.7 12.5 13 0 6.3-4.2 10.2-11.3 10.2zm-.6 21.1c0 3.3-1.5 5.5-3.9 6.6v.1c3.2 1 4.8 3.5 4.8 7.4 0 5.7-3.4 9.3-11.3 9.3h-12.3v-31.6h12.4c6.9 0 10.3 3.2 10.3 8.2zm-10.5-1.3h-4.1v5.5h4.2c1.9 0 2.6-.7 2.6-2.9-.1-2-.8-2.6-2.7-2.6zm.2 11.7h-4.3v6.2h4.5c2.1 0 2.8-.7 2.8-3.1 0-2.2-.7-3.1-3-3.1zm-10.4-63.6h8.4v31.5h-8.4zm-3.5 24.4-.2 7.1h-20.3v-31.5h19.8l.2 7.2h-11.7v4.9h9.7v6.6h-9.7v5.7zm-42.2 7.1v-31.5h8.3v24.2h10.7l-.2 7.3zm12.4 13.5-7.5 15.1 7.9 16.4h-9.7l-5.9-12.8h-2v12.8h-8.2v-31.5h8.2v12.2h2.2l5.8-12.2zm-25-20.6-.2 7.1h-20.2v-31.5h19.8l.2 7.2h-11.7v4.9h9.7v6.6h-9.7v5.7zm-42.1 7.1v-31.5h8.3v24.2h10.7l-.2 7.3zm-21.7 0v-31.5h8.3v24.2h10.7l-.2 7.3zm-10.7 32.7h-7.6v12.3h-8.3v-31.5h8.2v11.8h7.6v-11.8h8.2v31.5h-8.2v-12.3zm-6-32.1c-9.1 0-13.2-4.8-13.2-16.3s4-16.3 13.2-16.3 13.2 4.7 13.2 16.3c0 11.8-3.9 16.3-13.2 16.3zm0-25.2c-3.4 0-4.5 1.4-4.5 8.9s1.1 9 4.6 9 4.5-1.6 4.5-9c0-7.6-1-8.9-4.6-8.9zm-31.9 24.6-9.3-31.5h9l4.4 19.7.7 3.3h.2l.7-3.3 4.5-19.7h8.5l-9.3 31.5zm5.4 13c9.2 0 13.2 4.7 13.2 16.3 0 11.8-4 16.3-13.2 16.3-9.1 0-13.2-4.8-13.2-16.3 0-11.6 3.9-16.3 13.2-16.3zm0 25.3c3.5 0 4.5-1.6 4.5-9 0-7.5-1.1-8.9-4.6-8.9-3.4 0-4.5 1.4-4.5 8.9s1.1 9 4.6 9zm62-8.5v-3.4-12.9h7.2v31.5h-5.8l-9.4-14.5-1.8-2.9h-.1v3.4 14h-7.2v-31.5h6.9zm31.5-9.1h-11.7v4.9h9.7v6.6h-9.7v5.7h12.3l-.2 7.1h-20.4v-31.5h19.8zm58.4-7.2 9.5 31.5h-9.2l-1.2-5.5h-8.6l-1.2 5.5h-8.7l9.3-31.5zm-2.4 19.2-2-9-.6-3.4h-.1l-.7 3.4-2 9zm60.7-12h-11.7v4.9h9.7v6.6h-9.7v5.7h12.3l-.2 7.1h-20.3v-31.5h19.8zm28.8 16.8c2.9 0 4.2 1.5 4.2 4 0 2.4-1.3 4-4.2 4s-4.2-1.1-4.2-4c-.1-2.5 1.2-4 4.2-4z" fill="#020204" fill-rule="evenodd"/></svg>