<?xml version="1.0" encoding="utf-8"?>
<!-- Generator: Adobe Illustrator 23.1.1, SVG Export Plug-In . SVG Version: 6.00 Build 0)  -->
<!DOCTYPE svg PUBLIC "-//W3C//DTD SVG 1.1//EN" "http://www.w3.org/Graphics/SVG/1.1/DTD/svg11.dtd" [
	<!ENTITY ns_extend "http://ns.adobe.com/Extensibility/1.0/">
	<!ENTITY ns_ai "http://ns.adobe.com/AdobeIllustrator/10.0/">
	<!ENTITY ns_graphs "http://ns.adobe.com/Graphs/1.0/">
	<!ENTITY ns_vars "http://ns.adobe.com/Variables/1.0/">
	<!ENTITY ns_imrep "http://ns.adobe.com/ImageReplacement/1.0/">
	<!ENTITY ns_sfw "http://ns.adobe.com/SaveForWeb/1.0/">
	<!ENTITY ns_custom "http://ns.adobe.com/GenericCustomNamespace/1.0/">
	<!ENTITY ns_adobe_xpath "http://ns.adobe.com/XPath/1.0/">
]>
<svg version="1.1" id="Ebene_1" xmlns:x="&ns_extend;" xmlns:i="&ns_ai;" xmlns:graph="&ns_graphs;"
	 xmlns="http://www.w3.org/2000/svg" xmlns:xlink="http://www.w3.org/1999/xlink" x="0px" y="0px" viewBox="0 0 236.4 42.57"
	 style="enable-background:new 0 0 236.4 42.57;" xml:space="preserve">
<style type="text/css">
	.st0{fill-rule:evenodd;clip-rule:evenodd;}
</style>
<metadata>
	<sfw  xmlns="&ns_sfw;">
		<slices></slices>
		<sliceSourceBounds  bottomLeftOrigin="true" height="16.23" width="206.03" x="19.05" y="9.07"></sliceSourceBounds>
	</sfw>
</metadata>
<path class="st0" d="M19.05,27.27l8,6l10-13l-4-3l-7,9l-4-3L19.05,27.27z"/>
<path class="st0" d="M225.04,27.47h-5.18c0.07,2.13,0.85,2.86,2.59,2.86c0.81,0,1.5-0.18,2.2-0.51l0.15,1.08
	c-0.68,0.37-1.52,0.6-2.49,0.6c-2.66,0-3.75-1.4-3.75-4.42c0-2.53,1.11-3.96,3.33-3.96c1.92,0,3.19,1.14,3.19,3.73
	C225.06,27.05,225.05,27.29,225.04,27.47z M221.89,24.23c-1.37,0-1.98,0.76-2.06,2.36h4.05C223.86,24.88,223.06,24.23,221.89,24.23z
	 M215.6,25.97c0-1.14-0.64-1.65-1.68-1.65c-0.87,0-1.6,0.5-1.6,1.52v5.5h-1.27v-5.5c0-1.1-0.69-1.53-1.59-1.53
	c-0.68,0-1.37,0.37-1.69,0.91v6.13h-1.29V23.3l0.92-0.07l0.23,0.87h0.04c0.49-0.6,1.27-0.95,2.09-0.95c1.08,0,1.8,0.41,2.18,1.23
	h0.03c0.46-0.84,1.29-1.25,2.28-1.25c1.56,0,2.63,0.92,2.63,2.83v5.38h-1.27L215.6,25.97L215.6,25.97z M199.5,27.47
	c0.07,2.13,0.85,2.86,2.59,2.86c0.81,0,1.5-0.18,2.2-0.51l0.15,1.08c-0.68,0.37-1.52,0.6-2.49,0.6c-2.66,0-3.75-1.4-3.75-4.42
	c0-2.53,1.11-3.96,3.33-3.96c1.92,0,3.19,1.14,3.19,3.73c0,0.2-0.01,0.45-0.03,0.62H199.5z M201.53,24.23
	c-1.37,0-1.98,0.76-2.06,2.36h4.05C203.5,24.88,202.7,24.23,201.53,24.23z M195.2,29.22c0,0.84,0.45,1.18,1.18,1.18
	c0.23,0,0.51-0.04,0.68-0.11l0.08,0.98c-0.24,0.12-0.69,0.2-1.13,0.2c-1.38,0-2.1-0.77-2.1-2.21v-5h-1.13v-1h1.17l0.24-2.01l1-0.11
	v2.11h1.99v1h-1.99v4.97H195.2z M189.08,31.5c-0.96,0-1.86-0.23-2.48-0.68l0.16-1.11c0.61,0.46,1.53,0.7,2.3,0.7
	c1.18,0,1.67-0.57,1.67-1.33c0-1.83-4.13-0.98-4.13-3.7c0-1.37,0.96-2.26,2.82-2.26c0.79,0,1.53,0.16,2.18,0.46l-0.11,1.08
	c-0.68-0.28-1.45-0.43-2.1-0.43c-0.96,0-1.57,0.42-1.57,1.08c0,1.72,4.11,0.83,4.11,3.65C191.92,30.48,191.07,31.5,189.08,31.5z
	 M180.12,33.5c-0.45,0-0.89-0.1-1.25-0.26l0.12-0.96c0.31,0.15,0.61,0.22,0.91,0.22c0.62,0,1.06-0.24,1.41-1.03l0.04-0.14
	l-3.54-8.08h1.49l2.3,5.87l0.38,1.02h0.04l0.3-1.04l1.86-5.84h1.38l-2.94,8.17C182.08,32.91,181.3,33.5,180.12,33.5z M174.1,31.5
	c-0.96,0-1.86-0.23-2.48-0.68l0.16-1.11c0.61,0.46,1.53,0.7,2.3,0.7c1.18,0,1.67-0.57,1.67-1.33c0-1.83-4.13-0.98-4.13-3.7
	c0-1.37,0.96-2.26,2.82-2.26c0.79,0,1.53,0.16,2.18,0.46l-0.11,1.08c-0.68-0.28-1.45-0.43-2.1-0.43c-0.96,0-1.57,0.42-1.57,1.08
	c0,1.72,4.11,0.83,4.11,3.65C176.95,30.48,176.09,31.5,174.1,31.5z M169.56,24.43c-1.26,0-2.28,1.07-2.28,2.81v4.09H166v-8.02
	l1.03-0.07l0.11,1.73h0.03c0.5-1.17,1.38-1.84,2.48-1.84c0.3,0,0.58,0.04,0.8,0.11l-0.08,1.3
	C170.12,24.46,169.85,24.43,169.56,24.43z M159.02,27.47c0.07,2.13,0.85,2.86,2.59,2.86c0.81,0,1.5-0.18,2.2-0.51l0.15,1.08
	c-0.68,0.37-1.52,0.6-2.49,0.6c-2.66,0-3.75-1.4-3.75-4.42c0-2.53,1.11-3.96,3.33-3.96c1.92,0,3.19,1.14,3.19,3.73
	c0,0.2-0.01,0.45-0.03,0.62H159.02z M161.05,24.23c-1.37,0-1.98,0.76-2.06,2.36h4.05C163.01,24.88,162.21,24.23,161.05,24.23z
	 M154.72,29.22c0,0.84,0.45,1.18,1.18,1.18c0.23,0,0.51-0.04,0.68-0.11l0.08,0.98c-0.24,0.12-0.69,0.2-1.13,0.2
	c-1.38,0-2.1-0.77-2.1-2.21v-5h-1.13v-1h1.17l0.24-2.01l1-0.11v2.11h1.99v1h-1.99v4.97H154.72z M149.19,20.64l1.29-0.08v10.78h-1.29
	V20.64z M145.69,21.9c-0.56,0-0.83-0.18-0.83-0.69c0-0.45,0.27-0.69,0.83-0.69s0.83,0.24,0.83,0.69
	C146.52,21.68,146.25,21.9,145.69,21.9z M138.24,25.6h4.09l-0.01,1.23h-4.08v4.5h-1.4V21.17h6.25l0.03,1.32h-4.88V25.6z
	 M125.61,27.47c0.07,2.13,0.85,2.86,2.59,2.86c0.81,0,1.5-0.18,2.2-0.51l0.15,1.08c-0.68,0.37-1.52,0.6-2.49,0.6
	c-2.66,0-3.75-1.4-3.75-4.42c0-2.53,1.11-3.96,3.33-3.96c1.92,0,3.18,1.14,3.18,3.73c0,0.2-0.01,0.45-0.03,0.62H125.61z
	 M127.64,24.23c-1.37,0-1.98,0.76-2.06,2.36h4.05C129.6,24.88,128.8,24.23,127.64,24.23z M121.35,25.99c0-1.19-0.64-1.69-1.83-1.69
	c-0.69,0-1.5,0.33-1.88,0.91v6.13h-1.29v-8.05l0.92-0.07l0.22,0.85h0.04c0.56-0.61,1.44-0.96,2.34-0.96c1.71,0,2.75,0.96,2.75,2.89
	v5.34h-1.27V25.99z M109.37,27.47c0.07,2.13,0.85,2.86,2.59,2.86c0.81,0,1.5-0.18,2.2-0.51l0.15,1.08c-0.68,0.37-1.52,0.6-2.49,0.6
	c-2.66,0-3.75-1.4-3.75-4.42c0-2.53,1.11-3.96,3.33-3.96c1.92,0,3.19,1.14,3.19,3.73c0,0.2-0.01,0.45-0.03,0.62H109.37z
	 M111.4,24.23c-1.37,0-1.98,0.76-2.06,2.36h4.05C113.37,24.88,112.57,24.23,111.4,24.23z M105.09,30.49l-0.04-0.01
	c-0.5,0.66-1.3,1.02-2.38,1.02c-2.18,0-3.1-1.33-3.1-4.21c0-2.74,0.96-4.18,3.12-4.18c0.89,0,1.71,0.31,2.28,0.91l0.03-0.01
	l-0.03-1.08v-2.28l1.29-0.08v10.78h-0.99L105.09,30.49z M104.95,25.22c-0.34-0.56-1.06-0.92-1.92-0.92c-1.57,0-2.14,0.84-2.14,3.04
	c0,2.26,0.52,3.09,2.13,3.09c1.13,0,1.71-0.56,1.94-0.99v-4.22H104.95z M93.04,27.47c0.07,2.13,0.85,2.86,2.59,2.86
	c0.81,0,1.5-0.18,2.2-0.51l0.15,1.08c-0.68,0.37-1.52,0.6-2.49,0.6c-2.66,0-3.75-1.4-3.75-4.42c0-2.53,1.11-3.96,3.33-3.96
	c1.92,0,3.18,1.14,3.18,3.73c0,0.2-0.01,0.45-0.03,0.62H93.04z M95.07,24.23c-1.37,0-1.98,0.76-2.06,2.36h4.05
	C97.04,24.88,96.24,24.23,95.07,24.23z M88.94,21.9c-0.56,0-0.83-0.18-0.83-0.69c0-0.45,0.27-0.69,0.83-0.69
	c0.56,0,0.83,0.24,0.83,0.69C89.77,21.68,89.5,21.9,88.94,21.9z M84.55,25.98c0-1.08-0.58-1.68-1.83-1.68
	c-0.84,0-1.57,0.41-1.9,0.92v6.11h-1.27V20.64l1.27-0.08v2.34l-0.01,1.08L80.84,24c0.58-0.61,1.41-0.89,2.26-0.89
	c1.76,0,2.72,1.03,2.72,2.87v5.35h-1.27V25.98z M75.96,30.36c0.64,0,1.23-0.16,1.72-0.46l0.1,1.06c-0.47,0.33-1.23,0.56-2.09,0.56
	c-2.26,0-3.43-1.3-3.43-4.27c0-2.72,1.06-4.11,3.47-4.11c0.72,0,1.45,0.16,1.98,0.39l-0.08,1.15c-0.48-0.22-1.06-0.37-1.64-0.37
	c-1.75,0-2.4,0.84-2.4,2.93C73.59,29.52,74.41,30.36,75.96,30.36z M68.15,31.5c-0.96,0-1.86-0.23-2.48-0.68l0.16-1.11
	c0.61,0.46,1.53,0.7,2.3,0.7c1.18,0,1.67-0.57,1.67-1.33c0-1.83-4.13-0.98-4.13-3.7c0-1.37,0.96-2.26,2.82-2.26
	c0.79,0,1.53,0.16,2.18,0.46l-0.11,1.08c-0.68-0.28-1.45-0.43-2.1-0.43c-0.96,0-1.57,0.42-1.57,1.08c0,1.72,4.11,0.83,4.11,3.65
	C71,30.48,70.14,31.5,68.15,31.5z M63.61,24.43c-1.26,0-2.28,1.07-2.28,2.81v4.09h-1.29v-8.02l1.03-0.07l0.11,1.73h0.03
	c0.5-1.17,1.38-1.84,2.48-1.84c0.3,0,0.58,0.04,0.8,0.11l-0.08,1.3C64.17,24.46,63.9,24.43,63.61,24.43z M53.07,27.47
	c0.07,2.13,0.85,2.86,2.59,2.86c0.81,0,1.5-0.18,2.2-0.51L58,30.9c-0.68,0.37-1.52,0.6-2.49,0.6c-2.66,0-3.75-1.4-3.75-4.42
	c0-2.53,1.11-3.96,3.33-3.96c1.92,0,3.19,1.14,3.19,3.73c0,0.2-0.01,0.45-0.03,0.62H53.07z M55.1,24.23c-1.37,0-1.98,0.76-2.06,2.36
	h4.05C57.07,24.88,56.27,24.23,55.1,24.23z M46.1,31.33l-3.62-10.17h1.54l2.56,7.79L46.91,30h0.04l0.31-1.04l2.58-7.79h1.46
	l-3.62,10.17L46.1,31.33L46.1,31.33z M89.58,31.33h-1.29V23.3l1.29-0.07V31.33z M146.33,31.33h-1.29V23.3l1.29-0.07V31.33z"/>
</svg>
