<?xml version="1.0" encoding="utf-8"?>
<!-- Generator: Adobe Illustrator 23.1.1, SVG Export Plug-In . SVG Version: 6.00 Build 0)  -->
<!DOCTYPE svg PUBLIC "-//W3C//DTD SVG 1.1//EN" "http://www.w3.org/Graphics/SVG/1.1/DTD/svg11.dtd" [
	<!ENTITY ns_extend "http://ns.adobe.com/Extensibility/1.0/">
	<!ENTITY ns_ai "http://ns.adobe.com/AdobeIllustrator/10.0/">
	<!ENTITY ns_graphs "http://ns.adobe.com/Graphs/1.0/">
	<!ENTITY ns_vars "http://ns.adobe.com/Variables/1.0/">
	<!ENTITY ns_imrep "http://ns.adobe.com/ImageReplacement/1.0/">
	<!ENTITY ns_sfw "http://ns.adobe.com/SaveForWeb/1.0/">
	<!ENTITY ns_custom "http://ns.adobe.com/GenericCustomNamespace/1.0/">
	<!ENTITY ns_adobe_xpath "http://ns.adobe.com/XPath/1.0/">
]>
<svg version="1.1" id="Ebene_1" xmlns:x="&ns_extend;" xmlns:i="&ns_ai;" xmlns:graph="&ns_graphs;"
	 xmlns="http://www.w3.org/2000/svg" xmlns:xlink="http://www.w3.org/1999/xlink" x="0px" y="0px" viewBox="0 0 189.82 42.57"
	 style="enable-background:new 0 0 189.82 42.57;" xml:space="preserve">
<style type="text/css">
	.st0{fill-rule:evenodd;clip-rule:evenodd;}
</style>
<metadata>
	<sfw  xmlns="&ns_sfw;">
		<slices></slices>
		<sliceSourceBounds  bottomLeftOrigin="true" height="16.36" width="137.78" x="19.05" y="44.14"></sliceSourceBounds>
	</sfw>
</metadata>
<path class="st0" d="M19.05,27.27l8,6l10-13l-4-3l-7,9l-4-3L19.05,27.27z"/>
<path class="st0" d="M154.9,24.79v4.82c0,0.82,0.43,1.15,1.15,1.15c0.22,0,0.5-0.04,0.66-0.1l0.08,0.95
	c-0.24,0.12-0.67,0.2-1.09,0.2c-1.34,0-2.04-0.75-2.04-2.15v-4.86h-1.09v-0.98h1.13l0.24-1.95l0.97-0.1v2.05h1.94v0.98H154.9z
	 M150.08,30.7l-0.04-0.01c-0.46,0.67-1.32,1.09-2.33,1.09c-1.44,0-2.41-0.75-2.41-2.52c0-1.48,0.95-2.38,2.82-2.38
	c0.67,0,1.32,0.13,1.8,0.3v-0.78c0-1.24-0.55-1.67-1.83-1.67c-0.83,0-1.5,0.14-2.2,0.47l-0.12-1.04c0.75-0.34,1.59-0.51,2.53-0.51
	c2.07,0,2.85,0.87,2.85,2.94v5.07h-0.95L150.08,30.7z M149.91,28.08c-0.2-0.12-0.78-0.29-1.57-0.29c-1.3,0-1.87,0.53-1.87,1.46
	c0,1.12,0.67,1.5,1.58,1.5c0.97,0,1.86-0.66,1.86-1.32V28.08z M149.43,22.42c-0.41,0-0.62-0.17-0.62-0.62
	c0-0.41,0.21-0.65,0.62-0.65c0.41,0,0.59,0.22,0.59,0.65C150.02,22.22,149.84,22.42,149.43,22.42z M147.3,22.42
	c-0.4,0-0.59-0.17-0.59-0.62c0-0.41,0.2-0.65,0.59-0.65c0.42,0,0.61,0.22,0.61,0.65C147.9,22.22,147.72,22.42,147.3,22.42z
	 M142.27,29.61c0,0.82,0.44,1.15,1.15,1.15c0.22,0,0.5-0.04,0.66-0.1l0.08,0.95c-0.24,0.12-0.67,0.2-1.09,0.2
	c-1.34,0-2.04-0.75-2.04-2.15v-4.86h-1.09v-0.98h1.13l0.24-1.95l0.97-0.1v2.05h1.94v0.98h-1.94V29.61z M137.43,22.5
	c-0.54,0-0.8-0.17-0.8-0.67c0-0.44,0.26-0.67,0.8-0.67c0.54,0,0.8,0.24,0.8,0.67C138.24,22.28,137.97,22.5,137.43,22.5z
	 M132.78,21.27l1.25-0.08v10.47h-1.25V21.27z M129.4,30.7l-0.04-0.01c-0.46,0.67-1.32,1.09-2.33,1.09c-1.44,0-2.41-0.75-2.41-2.52
	c0-1.48,0.95-2.38,2.82-2.38c0.67,0,1.32,0.13,1.8,0.3v-0.78c0-1.24-0.55-1.67-1.83-1.67c-0.83,0-1.5,0.14-2.2,0.47l-0.12-1.04
	c0.75-0.34,1.59-0.51,2.53-0.51c2.07,0,2.85,0.87,2.85,2.94v5.07h-0.95L129.4,30.7z M129.23,28.08c-0.2-0.12-0.78-0.29-1.57-0.29
	c-1.3,0-1.87,0.53-1.87,1.46c0,1.12,0.67,1.5,1.58,1.5c0.97,0,1.86-0.66,1.86-1.32V28.08z M119.86,31.81c-2.06,0-3.04-1-3.04-2.73
	v-5.27h1.24v5.24c0,1.05,0.61,1.61,1.82,1.61c1.19,0,1.81-0.54,1.81-1.61v-5.24h1.24v5.27C122.92,30.82,121.93,31.81,119.86,31.81z
	 M113.47,32.06l0.03-1.07l-0.03-0.01c-0.51,0.51-1.25,0.8-2.13,0.8c-1.87,0-3.08-1.12-3.08-4.03c0-2.82,1.07-4.07,3.12-4.07
	c0.99,0,1.82,0.34,2.33,1h0.04l0.17-0.87h0.8v9.8l-1.25,0.01V32.06z M113.47,25.78c-0.25-0.51-0.99-0.94-1.86-0.94
	c-1.48,0-2.07,0.69-2.07,2.91c0,2.2,0.66,2.94,2.07,2.94c1.11,0,1.78-0.57,1.86-1.04V25.78z M105.36,29.61
	c0,0.82,0.43,1.15,1.15,1.15c0.22,0,0.5-0.04,0.66-0.1l0.08,0.95c-0.24,0.12-0.67,0.2-1.09,0.2c-1.34,0-2.04-0.75-2.04-2.15v-4.86
	h-1.09v-0.98h1.13l0.24-1.95l0.97-0.1v2.05h1.94v0.98h-1.94V29.61z M101.6,22.09c-1.09,0-1.54,0.51-1.54,1.38v0.34h2.02v0.96h-2.02
	v6.89h-1.25v-6.89h-1.16v-0.96h1.16v-0.36c0-1.32,0.76-2.28,2.57-2.28c0.41,0,0.87,0.07,1.16,0.16l-0.08,0.86
	C102.21,22.13,101.91,22.09,101.6,22.09z M93.19,31.81c-2.06,0-3.04-1-3.04-2.73v-5.27h1.24v5.24c0,1.05,0.61,1.61,1.82,1.61
	c1.19,0,1.81-0.54,1.81-1.61v-5.24h1.24v5.27C96.24,30.82,95.25,31.81,93.19,31.81z M82.98,31.66v-9.88h1.36v8.61h4.6l-0.04,1.27
	H82.98z M72.06,27.91c0.07,2.07,0.83,2.78,2.52,2.78c0.79,0,1.46-0.17,2.13-0.5l0.14,1.05c-0.66,0.36-1.47,0.58-2.42,0.58
	c-2.58,0-3.65-1.36-3.65-4.29c0-2.46,1.08-3.85,3.24-3.85c1.87,0,3.1,1.11,3.1,3.62c0,0.2-0.01,0.44-0.03,0.61H72.06z M74.03,24.76
	c-1.33,0-1.92,0.74-2,2.29h3.94C75.94,25.39,75.17,24.76,74.03,24.76z M67.88,29.61c0,0.82,0.43,1.15,1.15,1.15
	c0.22,0,0.5-0.04,0.66-0.1l0.08,0.95c-0.24,0.12-0.67,0.2-1.09,0.2c-1.34,0-2.04-0.75-2.04-2.15v-4.86h-1.09v-0.98h1.13l0.24-1.95
	l0.97-0.1v2.05h1.94v0.98h-1.94V29.61z M61.93,31.82c-0.94,0-1.81-0.22-2.41-0.66l0.16-1.08c0.59,0.45,1.49,0.69,2.24,0.69
	c1.15,0,1.62-0.55,1.62-1.29c0-1.78-4.02-0.95-4.02-3.6c0-1.33,0.93-2.2,2.74-2.2c0.76,0,1.49,0.16,2.12,0.45l-0.1,1.05
	c-0.66-0.28-1.41-0.42-2.04-0.42c-0.94,0-1.53,0.41-1.53,1.05c0,1.67,3.99,0.8,3.99,3.54C64.7,30.83,63.87,31.82,61.93,31.82z
	 M53.13,27.91c0.07,2.07,0.83,2.78,2.52,2.78c0.79,0,1.46-0.17,2.13-0.5l0.14,1.05c-0.66,0.36-1.48,0.58-2.42,0.58
	c-2.58,0-3.65-1.36-3.65-4.29c0-2.46,1.08-3.85,3.24-3.85c1.87,0,3.1,1.11,3.1,3.62c0,0.2-0.01,0.44-0.03,0.61H53.13z M55.11,24.76
	c-1.33,0-1.92,0.74-2,2.29h3.94C57.02,25.39,56.24,24.76,55.11,24.76z M50.4,28.86c0,1.75-0.9,2.81-3.17,2.81h-3.78v-9.88h3.62
	c1.95,0,2.94,0.84,2.94,2.46c0,1.23-0.59,1.91-1.41,2.19v0.03C49.73,26.72,50.4,27.48,50.4,28.86z M48.72,24.48
	c0-1.09-0.53-1.51-1.69-1.51h-2.28v3.06h2.37C48.2,26.03,48.72,25.52,48.72,24.48z M47.19,27.08h-2.44v3.43h2.49
	c1.16,0,1.82-0.45,1.82-1.75C49.06,27.61,48.47,27.08,47.19,27.08z M138.05,31.66h-1.25v-7.81l1.25-0.07V31.66z"/>
</svg>
