<?xml version="1.0" encoding="utf-8"?>
<!-- Generator: Adobe Illustrator 23.1.1, SVG Export Plug-In . SVG Version: 6.00 Build 0)  -->
<!DOCTYPE svg PUBLIC "-//W3C//DTD SVG 1.1//EN" "http://www.w3.org/Graphics/SVG/1.1/DTD/svg11.dtd" [
	<!ENTITY ns_extend "http://ns.adobe.com/Extensibility/1.0/">
	<!ENTITY ns_ai "http://ns.adobe.com/AdobeIllustrator/10.0/">
	<!ENTITY ns_graphs "http://ns.adobe.com/Graphs/1.0/">
	<!ENTITY ns_vars "http://ns.adobe.com/Variables/1.0/">
	<!ENTITY ns_imrep "http://ns.adobe.com/ImageReplacement/1.0/">
	<!ENTITY ns_sfw "http://ns.adobe.com/SaveForWeb/1.0/">
	<!ENTITY ns_custom "http://ns.adobe.com/GenericCustomNamespace/1.0/">
	<!ENTITY ns_adobe_xpath "http://ns.adobe.com/XPath/1.0/">
]>
<svg version="1.1" id="Ebene_1" xmlns:x="&ns_extend;" xmlns:i="&ns_ai;" xmlns:graph="&ns_graphs;"
	 xmlns="http://www.w3.org/2000/svg" xmlns:xlink="http://www.w3.org/1999/xlink" x="0px" y="0px" viewBox="0 0 215.28 42.57"
	 style="enable-background:new 0 0 215.28 42.57;" xml:space="preserve">
<style type="text/css">
	.st0{fill-rule:evenodd;clip-rule:evenodd;}
</style>
<metadata>
	<sfw  xmlns="&ns_sfw;">
		<slices></slices>
		<sliceSourceBounds  bottomLeftOrigin="true" height="16.09" width="184.77" x="19.05" y="9.21"></sliceSourceBounds>
	</sfw>
</metadata>
<path class="st0" d="M19.05,27.27l8,6l10-13l-4-3l-7,9l-4-3L19.05,27.27z"/>
<path class="st0" d="M202.56,31.24v-5.28c0-1.18-0.63-1.67-1.81-1.67c-0.68,0-1.49,0.32-1.86,0.9v6.06h-1.27v-7.96l0.91-0.07
	l0.21,0.84h0.04c0.55-0.6,1.42-0.95,2.32-0.95c1.69,0,2.72,0.95,2.72,2.85v5.28C203.82,31.24,202.56,31.24,202.56,31.24z
	 M195.41,25.5c0,1.52-0.74,2.36-2.82,2.36c-0.38,0-0.75-0.03-1.11-0.12c-0.39,0.11-0.6,0.32-0.6,0.59s0.21,0.5,0.7,0.54l1.94,0.16
	c1.93,0.16,2.56,0.8,2.56,1.93c0,1.46-0.91,2.4-3.4,2.4c-2.16,0-3.07-0.86-3.07-2.1c0-0.56,0.27-1.1,0.78-1.5
	c-0.38-0.22-0.67-0.59-0.67-1.11c0-0.51,0.35-0.98,1.01-1.25c-0.58-0.35-0.95-0.94-0.95-1.89c0-1.48,0.79-2.39,2.83-2.39
	c0.7,0,1.42,0.12,1.97,0.5l1.31-0.52l0.28,0.64l-0.96,0.67C195.33,24.71,195.41,25.05,195.41,25.5z M190.71,31.09
	c0,0.81,0.56,1.26,1.94,1.26c1.81,0,2.27-0.5,2.27-1.22c0-0.56-0.29-0.86-1.61-0.98l-1.94-0.17
	C190.92,30.28,190.71,30.71,190.71,31.09z M192.61,24.12c-1.17,0-1.58,0.46-1.58,1.41c0,1.13,0.66,1.39,1.56,1.39
	c1.23,0,1.61-0.46,1.61-1.39C194.19,24.48,193.72,24.12,192.61,24.12z M186.72,21.9c-0.55,0-0.82-0.17-0.82-0.68
	c0-0.44,0.27-0.68,0.82-0.68s0.82,0.24,0.82,0.68C187.54,21.69,187.27,21.9,186.72,21.9z M181.23,31.4c-0.95,0-1.84-0.23-2.45-0.67
	l0.16-1.1c0.6,0.46,1.51,0.7,2.28,0.7c1.17,0,1.65-0.56,1.65-1.31c0-1.81-4.09-0.97-4.09-3.66c0-1.35,0.95-2.24,2.79-2.24
	c0.78,0,1.51,0.16,2.16,0.46l-0.11,1.07c-0.67-0.28-1.43-0.43-2.08-0.43c-0.95,0-1.56,0.41-1.56,1.07c0,1.7,4.06,0.82,4.06,3.61
	C184.04,30.39,183.2,31.4,181.23,31.4z M172.27,27.41c0.07,2.11,0.84,2.83,2.56,2.83c0.8,0,1.49-0.17,2.17-0.51l0.15,1.07
	c-0.67,0.36-1.5,0.59-2.47,0.59c-2.63,0-3.71-1.38-3.71-4.37c0-2.51,1.1-3.91,3.3-3.91c1.9,0,3.15,1.13,3.15,3.69
	c0,0.2-0.01,0.44-0.03,0.62h-5.12V27.41z M174.28,24.21c-1.35,0-1.96,0.75-2.04,2.33h4.01C176.23,24.85,175.44,24.21,174.28,24.21z
	 M168.04,30.4L168,30.39c-0.5,0.66-1.29,1.01-2.36,1.01c-2.16,0-3.07-1.31-3.07-4.17c0-2.71,0.95-4.13,3.08-4.13
	c0.88,0,1.69,0.31,2.25,0.9l0.03-0.01l-0.03-1.07v-2.25l1.27-0.08v10.66h-0.98L168.04,30.4z M167.9,25.19
	c-0.34-0.55-1.04-0.91-1.9-0.91c-1.56,0-2.12,0.83-2.12,3c0,2.24,0.51,3.06,2.1,3.06c1.11,0,1.69-0.55,1.92-0.98L167.9,25.19
	L167.9,25.19z M156.12,27.41c0.07,2.11,0.85,2.83,2.56,2.83c0.8,0,1.49-0.17,2.17-0.51L161,30.8c-0.67,0.36-1.5,0.59-2.47,0.59
	c-2.63,0-3.71-1.38-3.71-4.37c0-2.51,1.1-3.91,3.3-3.91c1.9,0,3.15,1.13,3.15,3.69c0,0.2-0.01,0.44-0.03,0.62h-5.12V27.41z
	 M158.13,24.21c-1.35,0-1.96,0.75-2.04,2.33h4.01C160.07,24.85,159.28,24.21,158.13,24.21z M151.87,29.14
	c0,0.83,0.44,1.17,1.17,1.17c0.23,0,0.51-0.04,0.67-0.11l0.08,0.97c-0.24,0.12-0.68,0.2-1.11,0.2c-1.37,0-2.08-0.76-2.08-2.18v-4.95
	h-1.11v-0.99h1.15l0.24-1.98l0.99-0.11v2.09h1.97v0.99h-1.97V29.14z M146.96,30.26l-0.04-0.01c-0.47,0.68-1.34,1.11-2.37,1.11
	c-1.46,0-2.45-0.76-2.45-2.56c0-1.5,0.96-2.43,2.87-2.43c0.68,0,1.34,0.13,1.84,0.31v-0.79c0-1.26-0.56-1.7-1.86-1.7
	c-0.84,0-1.53,0.15-2.24,0.48l-0.12-1.06c0.76-0.35,1.62-0.52,2.57-0.52c2.1,0,2.9,0.89,2.9,2.99v5.16h-0.97L146.96,30.26z
	 M146.79,27.59c-0.2-0.12-0.79-0.3-1.6-0.3c-1.33,0-1.9,0.54-1.9,1.49c0,1.14,0.68,1.53,1.61,1.53c0.99,0,1.89-0.67,1.89-1.34V27.59
	z M146.3,21.82c-0.42,0-0.63-0.17-0.63-0.63c0-0.42,0.21-0.66,0.63-0.66c0.41,0,0.6,0.23,0.6,0.66
	C146.91,21.62,146.72,21.82,146.3,21.82z M144.13,21.82c-0.4,0-0.6-0.17-0.6-0.63c0-0.42,0.2-0.66,0.6-0.66
	c0.43,0,0.62,0.23,0.62,0.66S144.56,21.82,144.13,21.82z M140.27,24.41c-1.25,0-2.25,1.06-2.25,2.78v4.05h-1.27V23.3l1.02-0.07
	l0.11,1.72h0.03c0.5-1.15,1.37-1.82,2.45-1.82c0.29,0,0.58,0.04,0.79,0.11l-0.08,1.29C140.82,24.44,140.55,24.41,140.27,24.41z
	 M129.84,27.41c0.07,2.11,0.84,2.83,2.56,2.83c0.8,0,1.49-0.17,2.17-0.51l0.15,1.07c-0.67,0.36-1.5,0.59-2.47,0.59
	c-2.63,0-3.71-1.38-3.71-4.37c0-2.51,1.1-3.91,3.3-3.91c1.9,0,3.15,1.13,3.15,3.69c0,0.2-0.01,0.44-0.03,0.62h-5.12V27.41z
	 M131.85,24.21c-1.35,0-1.96,0.75-2.04,2.33h4.01C133.8,24.85,133.01,24.21,131.85,24.21z M124.12,31.42c-3.18,0-4.53-1.6-4.53-5.19
	c0-3.65,1.41-5.23,4.57-5.23c0.94,0,1.96,0.2,2.67,0.5l-0.16,1.23c-0.7-0.3-1.53-0.47-2.44-0.47c-2.24,0-3.19,0.91-3.19,3.95
	c0,2.95,0.85,3.91,3.04,3.91c0.68,0,1.25-0.09,1.74-0.28V25.9h1.22v4.93C126.32,31.2,125.22,31.42,124.12,31.42z M111.35,31.4
	c-0.95,0-1.84-0.23-2.45-0.67l0.16-1.1c0.6,0.46,1.51,0.7,2.28,0.7c1.17,0,1.65-0.56,1.65-1.31c0-1.81-4.09-0.97-4.09-3.66
	c0-1.35,0.95-2.24,2.79-2.24c0.78,0,1.51,0.16,2.16,0.46l-0.11,1.07c-0.67-0.28-1.43-0.43-2.08-0.43c-0.95,0-1.56,0.41-1.56,1.07
	c0,1.7,4.06,0.82,4.06,3.61C114.17,30.39,113.33,31.4,111.35,31.4z M102.4,27.41c0.07,2.11,0.85,2.83,2.56,2.83
	c0.81,0,1.49-0.17,2.17-0.51l0.15,1.07c-0.67,0.36-1.5,0.59-2.47,0.59c-2.63,0-3.71-1.38-3.71-4.37c0-2.51,1.1-3.91,3.3-3.91
	c1.9,0,3.15,1.13,3.15,3.69c0,0.2-0.01,0.44-0.03,0.62h-5.12V27.41z M104.41,24.21c-1.35,0-1.96,0.75-2.04,2.33h4.01
	C106.35,24.85,105.56,24.21,104.41,24.21z M98.15,29.14c0,0.83,0.44,1.17,1.17,1.17c0.23,0,0.51-0.04,0.67-0.11l0.08,0.97
	c-0.24,0.12-0.68,0.2-1.11,0.2c-1.37,0-2.08-0.76-2.08-2.18v-4.95h-1.11v-0.99h1.15l0.24-1.98l0.99-0.11v2.09h1.97v0.99h-1.97
	C98.15,24.24,98.15,29.14,98.15,29.14z M93.56,31.24l-2.45-3.77h-1.23v3.77h-1.26V20.66l1.26-0.08v5.82h1.22l2.36-3.15h1.49
	l-2.74,3.65l2.84,4.34H93.56z M85.35,30.26l-0.04-0.01c-0.47,0.68-1.34,1.11-2.37,1.11c-1.46,0-2.45-0.76-2.45-2.56
	c0-1.5,0.97-2.43,2.87-2.43c0.68,0,1.34,0.13,1.84,0.31v-0.79c0-1.26-0.56-1.7-1.86-1.7c-0.84,0-1.53,0.15-2.24,0.48l-0.12-1.06
	c0.76-0.35,1.62-0.52,2.57-0.52c2.11,0,2.9,0.89,2.9,2.99v5.16h-0.97L85.35,30.26z M85.17,27.59c-0.2-0.12-0.79-0.3-1.6-0.3
	c-1.33,0-1.9,0.54-1.9,1.49c0,1.14,0.68,1.53,1.61,1.53c0.99,0,1.89-0.67,1.89-1.34V27.59z M75.96,31.38
	c-0.84,0-1.62-0.21-2.17-0.87l-0.03,0.01l0.01,1.09v1.61h-1.3v-9.93l0.91-0.07l0.27,0.83c0.58-0.59,1.41-0.94,2.37-0.94
	c1.96,0,3.06,1.02,3.06,4.12C79.09,30.18,77.88,31.38,75.96,31.38z M75.72,24.28c-0.86,0-1.53,0.33-1.94,0.94v4.1
	c0.31,0.52,0.94,0.98,1.88,0.98c1.25,0,2.12-0.6,2.12-3.07C77.77,24.91,77.06,24.28,75.72,24.28z M69.11,25.93
	c0-1.13-0.63-1.64-1.66-1.64c-0.86,0-1.58,0.5-1.58,1.5v5.44h-1.26v-5.44c0-1.09-0.68-1.51-1.57-1.51c-0.67,0-1.35,0.36-1.68,0.9
	v6.06h-1.27v-7.96L61,23.2l0.23,0.86h0.04c0.48-0.59,1.26-0.94,2.07-0.94c1.07,0,1.78,0.4,2.16,1.22h0.03
	c0.46-0.83,1.27-1.23,2.25-1.23c1.54,0,2.6,0.91,2.6,2.8v5.32h-1.26L69.11,25.93L69.11,25.93z M54.87,31.41
	c-2.41,0-3.49-1.18-3.49-4.14s1.08-4.16,3.49-4.16s3.43,1.19,3.43,4.16S57.27,31.41,54.87,31.41z M54.87,24.2
	c-1.57,0-2.17,0.78-2.17,3.07s0.6,3.07,2.17,3.07c1.54,0,2.13-0.79,2.13-3.07C57.01,24.97,56.42,24.2,54.87,24.2z M48.91,31.24
	l-3.23-4.64h-1.46v4.64h-1.37V21.18h1.37v4.25h1.49l3.08-4.25h1.64l-3.47,4.76l3.67,5.3C50.63,31.24,48.91,31.24,48.91,31.24z
	 M187.35,31.24h-1.27v-7.95l1.27-0.07V31.24z"/>
</svg>
