<svg enable-background="new 0 0 124.66 29.03" viewBox="0 0 124.66 29.03" xmlns="http://www.w3.org/2000/svg"><path clip-rule="evenodd" d="m113.96 17.8-2.91-4.5-.55-.9-.03.01.01 1.05v4.33h-2.24v-9.74h2.13l3.13 5.06.03-.01-.03-1.04.01-4.01h2.24v9.75zm-7.01-2.2-.05 2.2h-6.28v-9.75h6.11l.05 2.24h-3.63v1.51h2.99v2.04h-2.99v1.77h3.8zm-11.1-3.56h2.98l-.01 2.16h-2.96v3.6h-2.56v-9.75h6.1l.04 2.28h-3.59zm-6.92-3.99h2.61v9.75h-2.61zm-1.4 7.55-.05 2.2h-6.28v-9.75h6.11l.05 2.24h-3.63v1.51h2.99v2.04h-2.99v1.77h3.8zm-10.23 2.2-1.3-3.48h-.86v3.48h-2.54v-9.75h3.37c2.47 0 3.69.94 3.69 3.13 0 1.3-.47 2.26-1.33 2.63l1.9 3.99zm-1.27-7.65h-.88v2.25h.87c.74 0 1-.18 1-1.13-.01-.88-.25-1.12-.99-1.12zm-7.69 7.83c-3.22 0-4.37-1.73-4.37-5.06 0-3.41 1.34-5.05 4.49-5.05.86 0 1.83.16 2.54.43l-.23 2.17c-.64-.23-1.46-.38-2.16-.38-1.6 0-1.96.6-1.96 2.8 0 2.31.38 2.82 1.64 2.82.19 0 .4-.01.58-.05v-3.19h2.26v4.97c-.68.33-1.79.54-2.79.54zm-9.38-.01c-2.5 0-3.76-1.2-3.76-3.48v-6.44h2.55v6.38c0 .87.34 1.26 1.21 1.26.88 0 1.18-.36 1.18-1.26v-6.38h2.53v6.44c.01 2.28-1.22 3.48-3.71 3.48zm-4.89-2.43-.04 2.26h-6.64v-1.65l3.11-4.94.57-.86-.01-.03h-3.59l.06-2.28h6.51v1.82l-3 4.79-.57.84.01.04h3.59zm-12.9 2.26h-2.59v-7.48h-2.21l.05-2.28h6.9l.05 2.28h-2.21v7.48zm-5.61-2.26-.04 2.26h-6.64v-1.65l3.11-4.94.57-.86-.01-.03h-3.59l.06-2.28h6.51v1.82l-3 4.79-.57.84.01.04h3.59zm-9.65 2.26h-2.59v-7.48h-2.21l.05-2.28h6.9l.05 2.28h-2.21v7.48zm-5.55-2.2-.05 2.2h-6.28v-9.75h6.11l.05 2.24h-3.63v1.51h2.99v2.04h-2.99v1.77h3.8zm-11.73 2.38c-.73 0-1.31-.13-1.78-.34l.13-2.12c.27.14.7.23 1.21.23 1.07 0 1.59-.42 1.59-1.59v-6.11h2.6v6.18c0 2.85-1.46 3.75-3.75 3.75z" fill-rule="evenodd"/></svg>