<svg enable-background="new 0 0 83.97 46.93" viewBox="0 0 83.97 46.93" xmlns="http://www.w3.org/2000/svg"><path clip-rule="evenodd" d="m68.1 20.89c-2.57 0-3.6-1.55-3.6-5.23 0-3.92 1.05-5.31 3.63-5.31 2.53 0 3.63 1.39 3.63 5.31 0 3.68-1.14 5.23-3.66 5.23zm.03-8.25c-.73 0-1.06.37-1.06 2.99 0 2.76.33 3.05 1.06 3.05.72 0 1.04-.36 1.04-3.05 0-2.67-.32-2.99-1.04-2.99zm-10.5 6.27h1.23v-5.34l-1.57.86-.29-2.08 3-1.88h1.56v8.44h1.23v1.84h-5.17v-1.84zm-8.42 3.43 4.25-12.32h2.15l-4.31 12.32zm-4.11-1.45c-2.57 0-3.61-1.55-3.61-5.23 0-3.92 1.05-5.31 3.63-5.31 2.53 0 3.63 1.39 3.63 5.31.01 3.68-1.14 5.23-3.65 5.23zm.03-8.25c-.73 0-1.06.37-1.06 2.99 0 2.76.33 3.05 1.06 3.05.72 0 1.04-.36 1.04-3.05-.01-2.67-.33-2.99-1.04-2.99zm-5.4 6.27v1.84h-2.44v-1.84h-4.09l-.22-1.67 3.59-6.78h3.16v6.28h.84l-.06 2.17zm-2.22-5.87-1.85 3.7h1.71l.1-2.58.07-1.11zm-2.61 15.14c.62 0 1.22.21 1.7.62l.03-.03-.03-1.1v-1.59l2.51-.12v10.77h-1.95l-.22-.63c-.48.49-1.1.78-1.99.78-1.93 0-2.98-1.35-2.98-4.39 0-2.82 1.04-4.31 2.93-4.31zm.76 6.7c.48 0 .82-.26.94-.55v-3.51c-.17-.25-.51-.44-.94-.44-.8 0-1.09.45-1.09 2.19 0 1.88.23 2.31 1.09 2.31zm-7.38.05h-2.82l-.4 1.8h-2.86l3.06-10.29h3.3l3.12 10.29h-3.01zm-1.16-5.18-.21-1.1h-.04l-.23 1.1-.66 2.95h1.81zm-.77-9-1.38-3.68h-.91v3.68h-2.69v-10.29h3.58c2.62 0 3.92.99 3.92 3.31 0 1.37-.5 2.39-1.41 2.77l2.02 4.21zm-1.35-8.07h-.94v2.37h.93c.79 0 1.06-.19 1.06-1.19 0-.93-.26-1.18-1.05-1.18zm-4.79 5.04c0 1.85-1.12 3.03-3.7 3.03h-4.03v-10.29h4.06c2.22 0 3.36 1.03 3.36 2.66 0 1.08-.5 1.78-1.27 2.15v.03c1.03.35 1.58 1.14 1.58 2.42zm-3.78-5.01h-1.34v1.81h1.37c.62 0 .84-.23.84-.93 0-.67-.24-.88-.87-.88zm.07 3.81h-1.41v2.03h1.46c.68 0 .92-.22.92-1.03.01-.71-.21-1-.97-1zm.26 9.74c.73 0 1.63.16 2.18.38l-.26 2.28c-.46-.16-1.08-.27-1.73-.27-1.53 0-1.92.65-1.92 2.9 0 2.37.43 3.03 1.96 3.03.64 0 1.23-.12 1.71-.34l.25 2.18c-.62.3-1.56.49-2.36.49-2.96 0-4.39-1.67-4.39-5.38 0-3.46 1.4-5.27 4.56-5.27zm27.2 7 .24 1.08h.04l.22-1.08 1.16-4.93h2.72l-2.65 8.4h-2.97l-2.62-8.4h2.72z" fill-rule="evenodd"/></svg>