<svg enable-background="new 0 0 83.97 46.93" viewBox="0 0 83.97 46.93" xmlns="http://www.w3.org/2000/svg"><path clip-rule="evenodd" d="m75.37 11.48c-1.53 0-1.92.65-1.92 2.9 0 2.37.43 3.03 1.96 3.03.64 0 1.23-.12 1.71-.34l.25 2.18c-.62.3-1.56.49-2.36.49-2.96 0-4.39-1.67-4.39-5.38 0-3.46 1.39-5.27 4.56-5.27.73 0 1.63.16 2.18.38l-.26 2.28c-.46-.16-1.08-.27-1.73-.27zm-9.12 4.51c0 2.3-1.13 3.7-3.74 3.7-1.1 0-2.14-.23-3-.71l.44-2.03c.76.37 1.38.56 2.26.56 1.1 0 1.4-.42 1.4-1.32 0-.81-.44-1.1-1.38-1.1-.54 0-1.2.08-1.71.26l-.86-.99.37-5.1h5.63l.1 2.28h-3.6l-.1 1.52c.32-.05.65-.08 1.02-.08 2.01.01 3.17 1.01 3.17 3.01zm-11.74 1.25h3.23l-.06 2.32h-6.5v-1.67c2.14-2.37 3.88-4.07 3.88-5.43 0-.62-.36-.97-1.19-.97-.79 0-1.51.36-2.18.84l-.62-2.13c.83-.6 1.93-1.03 3.33-1.03 2.26 0 3.4 1.22 3.4 3.03 0 1.67-1.34 3.17-3.3 5.01zm-1.54 10.39h2.69l-1.8 3.81 1.85 4.58h-2.75l-1.26-3.47h-.83v3.47h-2.5v-10.65l2.5-.11v5.31h.83zm-9.12-6.48 4.25-12.32h2.15l-4.32 12.32zm3.5 6.69-.14 2.07c-.36-.11-.77-.19-1.13-.19-1.31 0-1.71.53-1.71 2.18 0 1.55.62 2.19 1.66 2.19.46 0 .87-.08 1.23-.22l.17 1.91c-.46.26-1.12.41-1.93.41-2.4 0-3.72-1.4-3.72-4.29 0-2.81 1.13-4.39 3.74-4.39.63 0 1.36.13 1.83.33zm-4.11-11.38c0 1.98-1.23 3.24-3.91 3.24-1.13 0-2.15-.3-2.87-.71l.46-2.03c.75.37 1.48.56 2.31.56.95 0 1.42-.4 1.42-1.12 0-.67-.37-1.18-2.22-1.18v-1.85c1.78 0 2.15-.4 2.15-1.1 0-.53-.36-.85-1.27-.85-.9 0-1.67.3-2.32.82l-.59-2.06c.77-.6 1.92-1.02 3.12-1.02 2.24 0 3.54 1.1 3.54 2.92 0 .93-.43 1.67-1.24 2.13v.03c.91.4 1.42 1.14 1.42 2.22zm-8.87 1.26v1.84h-2.45v-1.84h-4.09l-.22-1.67 3.59-6.78h3.16v6.28h.84l-.06 2.17zm-2.23-5.87-1.85 3.7h1.71l.1-2.58.07-1.11zm1.89 17.51c0 2.22-1.12 3.47-4.02 3.47h-.86v3.2h-2.69v-10.29h3.55c2.87 0 4.02 1.11 4.02 3.62zm-4.88 1.34h.86c.88 0 1.22-.21 1.22-1.36 0-1.11-.26-1.37-1.22-1.37h-.86zm-9.93-11.14h-3.74v-10.29h3.69c3.15 0 4.43 1.45 4.43 5.09 0 3.77-1.47 5.2-4.38 5.2zm-.04-7.91h-1.01v5.57h1.01c1.19 0 1.59-.36 1.59-2.88 0-2.28-.38-2.69-1.59-2.69zm-1.59 16.57c.52-.45 1.23-.71 1.98-.71 1.91 0 2.97 1.06 2.97 4.31 0 2.88-1.17 4.33-3.01 4.33-.61 0-1.15-.12-1.6-.51l-.04.01.03 1.11v1.33h-2.52v-10.41l1.75-.1zm.32 5.34c.19.33.5.56.94.56.68 0 1.09-.36 1.09-2.36 0-1.73-.28-2.11-1.06-2.11-.41 0-.77.22-.97.53zm-7.29 2.47h-4.03v-10.29h4.06c2.22 0 3.36 1.03 3.36 2.66 0 1.08-.5 1.78-1.27 2.15v.03c1.04.34 1.59 1.14 1.59 2.41-.01 1.86-1.12 3.04-3.71 3.04zm-.08-8.04h-1.34v1.81h1.37c.62 0 .84-.23.84-.93 0-.68-.23-.88-.87-.88zm.07 3.81h-1.41v2.03h1.46c.68 0 .93-.22.93-1.03 0-.71-.22-1-.98-1zm3.71-15.27c0 1.85-1.12 3.03-3.7 3.03h-4.03v-10.29h4.06c2.22 0 3.36 1.03 3.36 2.66 0 1.08-.5 1.78-1.27 2.15v.03c1.03.35 1.58 1.14 1.58 2.42zm-3.78-5.01h-1.34v1.81h1.37c.62 0 .84-.23.84-.93 0-.67-.23-.88-.87-.88zm.07 3.82h-1.41v2.03h1.46c.68 0 .93-.22.93-1.03 0-.72-.22-1-.98-1zm26.69 15.36c.54 0 .94.06 1.3.16v-.33c0-.63-.33-.97-1.31-.97-.86 0-1.37.14-2.11.43l-.19-1.96c.8-.36 1.75-.52 2.78-.52 2.47 0 3.31 1.04 3.31 3.39v5.13h-1.92l-.18-.67-.04-.01c-.45.53-1.13.82-1.96.82-1.52 0-2.49-.92-2.49-2.81-.01-1.57 1.07-2.66 2.81-2.66zm.34 3.51c.5 0 .94-.3.94-.77v-.93c-.17-.07-.43-.12-.8-.12-.65 0-.94.29-.94.93 0 .65.3.89.8.89z" fill-rule="evenodd"/></svg>