<svg enable-background="new 0 0 232.49 67.9" viewBox="0 0 232.49 67.9" xmlns="http://www.w3.org/2000/svg"><path clip-rule="evenodd" d="m212.64 18.95-4.02-6.22-.75-1.24-.04.02.02 1.46v5.98h-3.09v-13.48h2.95l4.33 6.99.04-.02-.04-1.44.02-5.53h3.09v13.47h-2.51zm-4.6 19.65h-8.03v-13.48h3.54v10.35h4.58zm-4.64-22.69-.07 3.04h-8.68v-13.48h8.44l.07 3.09h-5.01v2.08h4.13v2.82h-4.13v2.44h5.25zm-14.89-4.92h4.11l-.02 2.98h-4.1v4.98h-3.52v-13.48h8.43l.05 3.14h-4.96v2.38zm-10.37 8.19c-3.45 0-5.19-1.65-5.19-4.81v-8.9h3.52v8.82c0 1.2.47 1.74 1.67 1.74 1.22 0 1.63-.5 1.63-1.74v-8.82h3.5v8.89c.01 3.17-1.68 4.82-5.13 4.82zm-9.84-2.59h-3.66l-.52 2.35h-3.72l3.99-13.47h4.29l4.06 13.47h-3.92zm-1.51-6.79-.27-1.44h-.05l-.31 1.44-.86 3.86h2.35zm-10.56 9.15-2.53-5.48h-.86v5.48h-3.5v-13.48h3.5v5.21h.93l2.5-5.21h3.93l-3.23 6.45 3.4 7.02h-4.14zm-1.42 12.98.45 1.38h.05l.45-1.37 2.41-6.83h3.88v13.49h-3.22v-5.64l.04-1.46-.05-.02-.45 1.4-1.99 5.71h-2.28l-1.98-5.69-.45-1.4-.04.02.02 1.46v5.62h-3.07v-13.48h3.86zm-3.02 12.84v13.47h-3.52v-5.28h-3.27v5.28h-3.5v-13.47h3.5v5.05h3.27v-5.05zm-9.31-5.94c-1.42 0-2.82-.32-3.92-.93l.45-2.98c1.1.56 2.21.9 3.38.9 1.11 0 1.54-.38 1.54-1.1 0-1.72-5.35-1.19-5.35-5.59 0-2.35 1.44-4.22 4.76-4.22 1.24 0 2.57.23 3.54.65l-.4 2.93c-1.02-.31-2.05-.49-2.91-.49-1.33 0-1.62.4-1.62.97 0 1.74 5.35 1.15 5.35 5.55.02 2.66-1.78 4.31-4.82 4.31zm1.46-22.92-.07 3.04h-8.68v-13.48h8.44l.07 3.09h-5.01v2.08h4.13v2.82h-4.13v2.44h5.25zm-12.88 3.04h-3.58v-10.33h-3.05l.07-3.14h9.54l.07 3.14h-3.05zm-10.08-14.12c-.88 0-1.33-.34-1.33-1.2 0-.81.45-1.24 1.33-1.24.92 0 1.33.43 1.33 1.24 0 .78-.41 1.2-1.33 1.2zm-3.43 0c-.88 0-1.33-.34-1.33-1.2 0-.81.45-1.24 1.33-1.24.92 0 1.33.43 1.33 1.24 0 .78-.41 1.2-1.33 1.2zm-.41.64h4.29l4.06 13.47h-3.92l-.52-2.35h-3.66l-.52 2.35h-3.65-.07-3.99l-1.8-4.81h-1.19v4.81h-3.5v-13.47h4.65c3.41 0 5.1 1.29 5.1 4.33 0 1.8-.65 3.13-1.83 3.63l2.58 5.42zm3.27 8.2-.86-3.86-.27-1.44h-.05l-.31 1.44-.86 3.86zm-13.01-5.29h-1.22v3.11h1.2c1.02 0 1.38-.25 1.38-1.56 0-1.22-.34-1.55-1.36-1.55zm-9.13 30.47c-4.46 0-6.04-2.39-6.04-6.99 0-4.71 1.85-6.97 6.2-6.97 1.19 0 2.53.22 3.5.59l-.32 3c-.88-.32-2.01-.52-2.98-.52-2.21 0-2.71.83-2.71 3.86 0 3.2.52 3.9 2.26 3.9.27 0 .56-.02.81-.07v-4.4h3.13v6.86c-.94.45-2.46.74-3.85.74zm3.06-22.94-.07 3.04h-8.68v-13.48h8.44l.07 3.09h-5.01v2.08h4.13v2.82h-4.13v2.44h5.25zm-14.19 3.29c-4.46 0-6.04-2.39-6.04-6.99 0-4.71 1.85-6.97 6.2-6.97 1.19 0 2.53.22 3.5.59l-.32 3c-.88-.32-2.01-.52-2.98-.52-2.21 0-2.71.83-2.71 3.86 0 3.2.52 3.9 2.26 3.9.27 0 .56-.02.81-.07v-4.4h3.13v6.86c-.94.45-2.47.74-3.85.74zm-11.77-.02c-1.42 0-2.82-.32-3.92-.93l.45-2.98c1.1.56 2.21.9 3.38.9 1.11 0 1.54-.38 1.54-1.1 0-1.72-5.35-1.19-5.35-5.59 0-2.35 1.44-4.22 4.76-4.22 1.24 0 2.57.23 3.54.65l-.4 2.93c-1.02-.31-2.05-.49-2.91-.49-1.33 0-1.62.4-1.62.97 0 1.74 5.35 1.15 5.35 5.55.01 2.66-1.79 4.31-4.82 4.31zm-11.88-6.45-.75-1.24-.04.02.02 1.46v5.98h-3.09v-13.48h2.95l4.33 6.99.04-.02-.04-1.44.02-5.53h3.09v13.47h-2.5zm3.85 15.48h-5.01v2.08h4.13v2.82h-4.13v2.44h5.25l-.08 3.05h-8.68v-13.48h8.44zm-14.82-9.03c-3.88 0-5.64-2.05-5.64-6.97 0-4.94 1.69-6.95 5.64-6.95s5.64 2.01 5.64 6.95c0 5.07-1.69 6.97-5.64 6.97zm-.02-10.78c-1.47 0-1.94.61-1.94 3.81 0 3.22.49 3.86 1.98 3.86s1.94-.66 1.94-3.86c0-3.21-.45-3.81-1.98-3.81zm-10.85-2.93h3.61v13.47h-3.61zm-4.28 13.48h-3.57v-10.33h-3.05l.07-3.14h9.54l.07 3.14h-3.05v10.33zm-10.99 0-2.53-5.48h-.86v5.48h-3.5v-13.48h3.5v5.21h.93l2.5-5.21h3.93l-3.23 6.45 3.4 7.02h-4.14zm0 13.16.04-.02-.04-1.44.02-5.53h3.09v13.48h-2.5l-4.02-6.22-.75-1.24-.04.02.02 1.46v5.98h-3.1v-13.48h2.95zm-12.23-15.52h-3.66l-.52 2.35h-3.73l3.99-13.47h4.29l4.06 13.47h-3.92zm-1.51-6.79-.27-1.44h-.05l-.31 1.44-.86 3.86h2.35zm.39 34.74c1.19 0 2.53.22 3.5.59l-.32 3c-.88-.32-2.01-.52-2.98-.52-2.21 0-2.71.83-2.71 3.86 0 3.2.52 3.9 2.26 3.9.27 0 .56-.02.81-.07v-4.4h3.13v6.86c-.93.45-2.46.74-3.84.74-4.45 0-6.04-2.39-6.04-6.99-.01-4.71 1.84-6.97 6.19-6.97zm4.37-19.42v8.89c0 3.16-1.69 4.81-5.14 4.81s-5.19-1.65-5.19-4.81v-8.89h3.52v8.82c0 1.2.47 1.74 1.67 1.74 1.22 0 1.63-.5 1.63-1.74v-8.82zm10.67 23.98c0 1.8-.65 3.13-1.83 3.63l2.58 5.42 3.96-13.38h4.29l4.06 13.47h-3.92l-.52-2.35h-3.66l-.52 2.35h-3.65-.07-3.99l-1.8-4.81h-1.19v4.81h-3.5v-13.47h4.65c3.42 0 5.11 1.3 5.11 4.33zm7.97 3.86-.86-3.86-.27-1.44h-.05l-.31 1.44-.86 3.86zm-14.22-2.17h1.2c1.02 0 1.38-.25 1.38-1.56 0-1.22-.34-1.54-1.37-1.54h-1.22v3.1zm14.37-12.19h-4.87v-13.48h4.8c4.1 0 5.77 1.9 5.77 6.66-.01 4.95-1.91 6.82-5.7 6.82zm-.06-10.37h-1.31v7.29h1.31c1.54 0 2.07-.47 2.07-3.77 0-2.98-.48-3.52-2.07-3.52zm4.01 16.54h9.54l.07 3.14h-3.05v10.33h-3.58v-10.32h-3.05zm7.26-6.17v-13.48h4.65c3.41 0 5.1 1.29 5.1 4.33 0 1.8-.65 3.13-1.83 3.63l2.62 5.52h-4.06l-1.8-4.81h-1.18v4.81zm4.71-7.46c1.02 0 1.38-.25 1.38-1.56 0-1.22-.34-1.54-1.37-1.54h-1.22v3.11h1.21zm2.47 27.11h-3.61v-13.48h3.61zm5.41-2.79c1.11 0 1.54-.38 1.54-1.1 0-1.72-5.35-1.19-5.35-5.59 0-2.35 1.44-4.22 4.76-4.22 1.24 0 2.57.23 3.54.65l-.4 2.93c-1.02-.31-2.05-.49-2.91-.49-1.33 0-1.62.4-1.62.97 0 1.74 5.35 1.15 5.35 5.55 0 2.66-1.8 4.31-4.83 4.31-1.42 0-2.82-.32-3.92-.93l.45-2.98c1.11.56 2.22.9 3.39.9zm12.68-16.86h-3.61v-13.48h3.61zm8.11 12.84c0 4.94-1.9 6.81-5.69 6.81h-4.87v-13.48h4.8c4.09 0 5.76 1.91 5.76 6.67zm-7.06 3.73h1.31c1.54 0 2.07-.47 2.07-3.77 0-2.98-.49-3.52-2.07-3.52h-1.31zm8.22-30.05h3.09v13.48h-2.5l-4.02-6.22-.75-1.24-.04.02.02 1.46v5.98h-3.09v-13.48h2.95l4.33 6.99.04-.02-.04-1.44zm5.07 0h3.61v13.48h-3.61zm2.07 19.65 4.06 13.47h-3.92l-.52-2.35h-3.66l-.52 2.35h-3.72l3.99-13.47zm-1.03 8.19-.86-3.86-.27-1.44h-.05l-.31 1.44-.86 3.86zm10.58-5.01-.02-.04h-4.96l.09-3.14h9v2.51l-4.14 6.62-.79 1.17.02.05h4.96l-.05 3.13h-9.18v-2.28l4.29-6.83zm8.48-14.01c0 1.2.47 1.74 1.67 1.74 1.22 0 1.63-.5 1.63-1.74v-8.82h3.5v8.89c0 3.16-1.69 4.81-5.14 4.81s-5.19-1.65-5.19-4.81v-8.89h3.52v8.82zm.31 19.65c0 1.2.47 1.74 1.67 1.74 1.22 0 1.63-.5 1.63-1.74v-8.82h3.5v8.89c0 3.16-1.69 4.81-5.14 4.81s-5.19-1.65-5.19-4.81v-8.89h3.52v8.82zm15.48-21.48.04-.02-.04-1.44.02-5.53h3.09v13.48h-2.5l-4.02-6.22-.75-1.24-.04.02.02 1.46v5.98h-3.09v-13.48h2.95zm5.59 15.75h-5.01v2.08h4.13v2.82h-4.13v2.44h5.25l-.07 3.04h-8.68v-13.47h8.44zm8.87-16.61v6.86c-.93.45-2.46.74-3.84.74-4.46 0-6.04-2.39-6.04-6.99 0-4.71 1.85-6.97 6.2-6.97 1.19 0 2.53.22 3.5.59l-.32 3c-.88-.32-2.01-.52-2.98-.52-2.21 0-2.71.83-2.71 3.86 0 3.2.52 3.9 2.26 3.9.27 0 .56-.02.81-.07v-4.4zm2.47 17.85c0 1.8-.65 3.13-1.83 3.63l2.62 5.52h-4.06l-1.8-4.81h-1.19v4.81h-3.5v-13.48h4.65c3.42 0 5.11 1.3 5.11 4.33zm-6.26 1.69h1.2c1.02 0 1.38-.25 1.38-1.56 0-1.22-.34-1.54-1.37-1.54h-1.22v3.1zm27.36-6.02 4.06 13.47h-3.92l-.52-2.35h-3.66l-.52 2.35h-3.72l3.99-13.47zm-1.02 8.19-.86-3.86-.27-1.44h-.05l-.31 1.44-.86 3.86zm4.11-27.84h3.61v13.48h-3.61zm5.41 30h4.58l-.09 3.13h-8.03v-13.48h3.54zm2.48-16.52v-10.33h-3.05l.07-3.14h9.54l.07 3.14h-3.05v10.33zm1.02 6.17h9.54l.07 3.14h-3.05v10.33h-3.58v-10.32h-3.05zm9.27-6.17v-10.33h-3.05l.07-3.14h9.54l.07 3.14h-3.05v10.33zm9.94 9.26h-5.01v2.08h4.13v2.82h-4.13v2.44h5.25l-.07 3.04h-8.68v-13.47h8.44zm6.52-12.3-.07 3.04h-8.68v-13.48h8.44l.07 3.09h-5.01v2.08h4.13v2.82h-4.13v2.44h5.25zm2.34 16.2.04-.02-.04-1.43.02-5.53h3.09v13.47h-2.5l-4.02-6.22-.75-1.24-.04.02.02 1.46v5.98h-3.09v-13.48h2.95zm6.37 3.27c1.26 0 1.8.63 1.8 1.72 0 1.02-.54 1.71-1.8 1.71s-1.81-.49-1.81-1.71c0-1.09.56-1.72 1.81-1.72z" fill-rule="evenodd"/></svg>