<?xml version="1.0" encoding="utf-8"?>
<!-- Generator: Adobe Illustrator 16.0.4, SVG Export Plug-In . SVG Version: 6.00 Build 0)  -->
<!DOCTYPE svg PUBLIC "-//W3C//DTD SVG 1.1//EN" "http://www.w3.org/Graphics/SVG/1.1/DTD/svg11.dtd">
<svg version="1.1" id="Ebene_1" xmlns="http://www.w3.org/2000/svg" xmlns:xlink="http://www.w3.org/1999/xlink" x="0px" y="0px"
	 width="123.48px" height="8.679px" viewBox="0 0 123.48 8.679" enable-background="new 0 0 123.48 8.679" xml:space="preserve">
<g>
	<path fill="#FFFFFF" d="M1.764,0.135l0.081,0.963l0.918-0.234l0.189,0.567l-0.909,0.36L2.602,2.62L2.179,2.962L1.503,2.197
		L0.801,2.962L0.36,2.638l0.558-0.846L0,1.432l0.207-0.567l0.927,0.234l0.081-0.963H1.764z"/>
	<path fill="#FFFFFF" d="M7.192,5.771H4.491L4.041,7.22H2.718l2.404-6.752h1.485L9.029,7.22H7.633L7.192,5.771z M5.635,2.08
		L4.815,4.717h2.052L6.058,2.08L5.869,1.377H5.842L5.635,2.08z"/>
	<path fill="#FFFFFF" d="M10.962,3.835h0.774l1.333-2.035h1.296l-1.647,2.466l1.701,2.953h-1.305L11.736,4.79h-0.774V7.22H9.819
		V0.171l1.143-0.063V3.835z"/>
	<path fill="#FFFFFF" d="M16.623,2.683v3.016c0,0.477,0.252,0.675,0.711,0.675c0.144,0,0.342-0.027,0.441-0.063l0.072,0.855
		c-0.18,0.081-0.513,0.144-0.846,0.144c-1.018,0-1.521-0.585-1.521-1.584V2.683h-0.675V1.801h0.711l0.207-1.27l0.9-0.09v1.359h1.27
		v0.882H16.623z"/>
	<path fill="#FFFFFF" d="M19.566,1.081c-0.459,0-0.684-0.135-0.684-0.531C18.882,0.198,19.107,0,19.566,0
		c0.468,0,0.684,0.198,0.684,0.549C20.25,0.909,20.034,1.081,19.566,1.081z M18.981,7.22V1.836l1.161-0.063V7.22H18.981z"/>
	<path fill="#FFFFFF" d="M23.787,7.346c-1.674,0-2.431-0.81-2.431-2.818c0-1.999,0.756-2.827,2.431-2.827
		c1.684,0,2.404,0.828,2.404,2.827C26.191,6.536,25.471,7.346,23.787,7.346z M23.787,6.383c0.891,0,1.225-0.432,1.225-1.854
		s-0.333-1.854-1.225-1.854c-0.9,0-1.242,0.432-1.242,1.854S22.896,6.383,23.787,6.383z"/>
	<path fill="#FFFFFF" d="M30.475,7.22V3.718c0-0.684-0.369-0.972-1.035-0.972c-0.405,0-0.855,0.18-1.081,0.495V7.22h-1.144V1.828
		l0.819-0.063l0.18,0.522c0.405-0.378,0.954-0.585,1.54-0.585c1.143,0,1.863,0.693,1.863,2.007V7.22H30.475z"/>
	<path fill="#FFFFFF" d="M34.317,7.328c-0.648,0-1.233-0.135-1.684-0.405l0.135-0.973c0.423,0.279,1.053,0.423,1.548,0.423
		c0.657,0,0.937-0.297,0.937-0.693c0-1.026-2.638-0.495-2.638-2.368c0-0.945,0.657-1.603,1.98-1.603c0.54,0,1.053,0.108,1.503,0.306
		L36,2.971c-0.45-0.189-1.008-0.279-1.422-0.279c-0.54,0-0.864,0.216-0.864,0.576c0,0.954,2.602,0.423,2.602,2.305
		C36.315,6.626,35.721,7.328,34.317,7.328z"/>
	<path fill="#FFFFFF" d="M39.79,7.328c-0.639,0-1.17-0.243-1.513-0.603L38.115,7.22h-0.774V0.171l1.143-0.063v1.405l-0.018,0.72
		l0.027,0.018c0.378-0.369,0.891-0.54,1.431-0.54c1.251,0,2.044,0.774,2.044,2.791C41.968,6.509,41.158,7.328,39.79,7.328z
		 M39.6,2.737c-0.486,0-0.882,0.198-1.116,0.531v2.566c0.189,0.297,0.567,0.549,1.125,0.549c0.729,0,1.188-0.342,1.188-1.863
		C40.798,3.043,40.366,2.737,39.6,2.737z"/>
	<path fill="#FFFFFF" d="M42.713,4.412c0-1.72,0.756-2.701,2.323-2.701c1.333,0,2.188,0.783,2.188,2.512
		c0,0.171-0.009,0.387-0.027,0.549h-3.295c0.054,1.134,0.531,1.53,1.566,1.53c0.531,0,0.999-0.099,1.458-0.297l0.135,0.945
		c-0.459,0.225-1.053,0.369-1.729,0.369C43.505,7.319,42.713,6.356,42.713,4.412z M46.17,3.997c-0.018-0.954-0.45-1.314-1.125-1.314
		c-0.783,0-1.116,0.396-1.17,1.314H46.17z"/>
	<path fill="#FFFFFF" d="M51.696,7.22L51.57,6.707l-0.027-0.009c-0.333,0.405-0.819,0.63-1.513,0.63c-1.422,0-2.08-0.9-2.08-2.836
		c0-1.8,0.666-2.791,2.071-2.791c0.549,0,1.053,0.189,1.422,0.549l0.018-0.018l-0.018-0.72V0.171l1.143-0.063V7.22H51.696z
		 M51.444,3.25c-0.198-0.297-0.594-0.495-1.089-0.495c-0.892,0-1.215,0.468-1.215,1.783c0,1.377,0.288,1.836,1.206,1.836
		c0.622,0,0.955-0.288,1.099-0.54V3.25z"/>
	<path fill="#FFFFFF" d="M54.684,1.081C54.225,1.081,54,0.945,54,0.549C54,0.198,54.225,0,54.684,0c0.468,0,0.684,0.198,0.684,0.549
		C55.368,0.909,55.152,1.081,54.684,1.081z M54.099,7.22V1.836l1.161-0.063V7.22H54.099z"/>
	<path fill="#FFFFFF" d="M60.012,7.22V3.718c0-0.684-0.369-0.972-1.035-0.972c-0.405,0-0.855,0.18-1.081,0.495V7.22h-1.143V1.828
		l0.819-0.063l0.18,0.522c0.405-0.378,0.954-0.585,1.54-0.585c1.143,0,1.863,0.693,1.863,2.007V7.22H60.012z"/>
	<path fill="#FFFFFF" d="M63.576,4.924c-0.18,0.072-0.288,0.189-0.288,0.324c0,0.153,0.126,0.279,0.405,0.297l1.306,0.09
		c1.287,0.09,1.747,0.54,1.747,1.341c0,1.044-0.675,1.702-2.404,1.702c-1.513,0-2.152-0.594-2.152-1.432
		c0-0.351,0.162-0.684,0.468-0.936c-0.243-0.153-0.423-0.414-0.423-0.774c0-0.36,0.216-0.693,0.675-0.9
		c-0.378-0.243-0.621-0.639-0.621-1.269c0-1,0.549-1.657,1.999-1.657c0.468,0,0.963,0.072,1.341,0.315l0.9-0.324l0.243,0.567
		l-0.603,0.45c0.072,0.18,0.108,0.396,0.108,0.648c0,1.035-0.549,1.621-1.99,1.621C64.043,4.988,63.801,4.97,63.576,4.924z
		 M63.495,6.527c-0.207,0.171-0.324,0.387-0.324,0.576c0,0.45,0.333,0.693,1.144,0.693c1.116,0,1.395-0.261,1.395-0.648
		c0-0.306-0.171-0.468-0.909-0.522L63.495,6.527z M63.414,3.385c0,0.63,0.351,0.792,0.855,0.792c0.703,0,0.91-0.243,0.91-0.792
		c0-0.585-0.261-0.792-0.882-0.792C63.647,2.593,63.414,2.845,63.414,3.385z"/>
	<path fill="#FFFFFF" d="M71.892,5.366c0,1.27-0.72,1.954-2.206,1.954S67.49,6.608,67.49,5.366V1.801h1.144v3.538
		c0,0.621,0.342,0.945,1.062,0.945c0.702,0,1.053-0.315,1.053-0.945V1.801h1.144V5.366z"/>
	<path fill="#FFFFFF" d="M76.374,7.22V3.718c0-0.684-0.369-0.972-1.035-0.972c-0.405,0-0.855,0.18-1.081,0.495V7.22h-1.143V1.828
		l0.819-0.063l0.18,0.522c0.405-0.378,0.954-0.585,1.54-0.585c1.143,0,1.863,0.693,1.863,2.007V7.22H76.374z"/>
	<path fill="#FFFFFF" d="M79.937,4.924c-0.18,0.072-0.288,0.189-0.288,0.324c0,0.153,0.126,0.279,0.405,0.297l1.306,0.09
		c1.287,0.09,1.747,0.54,1.747,1.341c0,1.044-0.675,1.702-2.404,1.702c-1.513,0-2.152-0.594-2.152-1.432
		c0-0.351,0.162-0.684,0.468-0.936c-0.243-0.153-0.423-0.414-0.423-0.774c0-0.36,0.216-0.693,0.675-0.9
		c-0.378-0.243-0.621-0.639-0.621-1.269c0-1,0.549-1.657,1.999-1.657c0.468,0,0.963,0.072,1.341,0.315l0.9-0.324l0.243,0.567
		l-0.603,0.45c0.072,0.18,0.108,0.396,0.108,0.648c0,1.035-0.549,1.621-1.99,1.621C80.405,4.988,80.162,4.97,79.937,4.924z
		 M79.856,6.527c-0.207,0.171-0.324,0.387-0.324,0.576c0,0.45,0.333,0.693,1.144,0.693c1.116,0,1.395-0.261,1.395-0.648
		c0-0.306-0.171-0.468-0.909-0.522L79.856,6.527z M79.775,3.385c0,0.63,0.351,0.792,0.855,0.792c0.703,0,0.91-0.243,0.91-0.792
		c0-0.585-0.261-0.792-0.882-0.792C80.009,2.593,79.775,2.845,79.775,3.385z"/>
	<path fill="#FFFFFF" d="M83.582,4.412c0-1.72,0.756-2.701,2.323-2.701c1.333,0,2.188,0.783,2.188,2.512
		c0,0.171-0.009,0.387-0.027,0.549H84.77c0.054,1.134,0.531,1.53,1.566,1.53c0.531,0,0.999-0.099,1.458-0.297L87.93,6.95
		c-0.459,0.225-1.053,0.369-1.729,0.369C84.374,7.319,83.582,6.356,83.582,4.412z M87.039,3.997
		c-0.018-0.954-0.45-1.314-1.125-1.314c-0.783,0-1.116,0.396-1.17,1.314H87.039z"/>
	<path fill="#FFFFFF" d="M92.357,7.22V3.718c0-0.684-0.369-0.972-1.035-0.972c-0.405,0-0.855,0.18-1.08,0.495V7.22h-1.144V1.828
		l0.819-0.063l0.18,0.522c0.405-0.378,0.955-0.585,1.54-0.585c1.144,0,1.863,0.693,1.863,2.007V7.22H92.357z"/>
	<path fill="#FFFFFF" d="M98.458,4.924c-0.181,0.072-0.288,0.189-0.288,0.324c0,0.153,0.126,0.279,0.405,0.297l1.305,0.09
		c1.288,0.09,1.747,0.54,1.747,1.341c0,1.044-0.676,1.702-2.404,1.702c-1.512,0-2.151-0.594-2.151-1.432
		c0-0.351,0.162-0.684,0.469-0.936c-0.243-0.153-0.424-0.414-0.424-0.774c0-0.36,0.217-0.693,0.676-0.9
		c-0.379-0.243-0.621-0.639-0.621-1.269c0-1,0.549-1.657,1.998-1.657c0.469,0,0.964,0.072,1.342,0.315l0.9-0.324l0.242,0.567
		l-0.603,0.45c0.072,0.18,0.107,0.396,0.107,0.648c0,1.035-0.549,1.621-1.989,1.621C98.926,4.988,98.683,4.97,98.458,4.924z
		 M98.377,6.527c-0.207,0.171-0.324,0.387-0.324,0.576c0,0.45,0.333,0.693,1.144,0.693c1.116,0,1.396-0.261,1.396-0.648
		c0-0.306-0.171-0.468-0.909-0.522L98.377,6.527z M98.296,3.385c0,0.63,0.351,0.792,0.855,0.792c0.702,0,0.909-0.243,0.909-0.792
		c0-0.585-0.262-0.792-0.883-0.792C98.531,2.593,98.296,2.845,98.296,3.385z"/>
	<path fill="#FFFFFF" d="M102.103,4.412c0-1.72,0.756-2.701,2.322-2.701c1.333,0,2.188,0.783,2.188,2.512
		c0,0.171-0.01,0.387-0.027,0.549h-3.295c0.054,1.134,0.531,1.53,1.566,1.53c0.531,0,0.999-0.099,1.458-0.297l0.136,0.945
		c-0.46,0.225-1.054,0.369-1.729,0.369C102.895,7.319,102.103,6.356,102.103,4.412z M105.56,3.997
		c-0.018-0.954-0.45-1.314-1.125-1.314c-0.783,0-1.117,0.396-1.171,1.314H105.56z"/>
	<path fill="#FFFFFF" d="M107.755,7.22V0.171l1.152-0.063V7.22H107.755z"/>
	<path fill="#FFFFFF" d="M111.76,2.683v3.016c0,0.477,0.252,0.675,0.711,0.675c0.145,0,0.343-0.027,0.441-0.063l0.072,0.855
		c-0.181,0.081-0.514,0.144-0.847,0.144c-1.017,0-1.521-0.585-1.521-1.584V2.683h-0.675V1.801h0.711l0.207-1.27l0.9-0.09v1.359h1.27
		v0.882H111.76z"/>
	<path fill="#FFFFFF" d="M113.56,4.412c0-1.72,0.756-2.701,2.322-2.701c1.333,0,2.188,0.783,2.188,2.512
		c0,0.171-0.01,0.387-0.027,0.549h-3.295c0.054,1.134,0.531,1.53,1.566,1.53c0.531,0,0.999-0.099,1.458-0.297l0.136,0.945
		c-0.46,0.225-1.054,0.369-1.729,0.369C114.352,7.319,113.56,6.356,113.56,4.412z M117.017,3.997
		c-0.018-0.954-0.45-1.314-1.125-1.314c-0.783,0-1.117,0.396-1.171,1.314H117.017z"/>
	<path fill="#FFFFFF" d="M122.336,7.22V3.718c0-0.684-0.369-0.972-1.035-0.972c-0.405,0-0.855,0.18-1.08,0.495V7.22h-1.144V1.828
		l0.819-0.063l0.18,0.522c0.405-0.378,0.954-0.585,1.539-0.585c1.144,0,1.864,0.693,1.864,2.007V7.22H122.336z"/>
</g>
</svg>
