<?xml version="1.0" encoding="utf-8"?>
<!-- Generator: Adobe Illustrator 23.1.1, SVG Export Plug-In . SVG Version: 6.00 Build 0)  -->
<!DOCTYPE svg PUBLIC "-//W3C//DTD SVG 1.1//EN" "http://www.w3.org/Graphics/SVG/1.1/DTD/svg11.dtd" [
	<!ENTITY ns_extend "http://ns.adobe.com/Extensibility/1.0/">
	<!ENTITY ns_ai "http://ns.adobe.com/AdobeIllustrator/10.0/">
	<!ENTITY ns_graphs "http://ns.adobe.com/Graphs/1.0/">
	<!ENTITY ns_vars "http://ns.adobe.com/Variables/1.0/">
	<!ENTITY ns_imrep "http://ns.adobe.com/ImageReplacement/1.0/">
	<!ENTITY ns_sfw "http://ns.adobe.com/SaveForWeb/1.0/">
	<!ENTITY ns_custom "http://ns.adobe.com/GenericCustomNamespace/1.0/">
	<!ENTITY ns_adobe_xpath "http://ns.adobe.com/XPath/1.0/">
]>
<svg version="1.1" id="Ebene_1" xmlns:x="&ns_extend;" xmlns:i="&ns_ai;" xmlns:graph="&ns_graphs;"
	 xmlns="http://www.w3.org/2000/svg" xmlns:xlink="http://www.w3.org/1999/xlink" x="0px" y="0px" viewBox="0 0 119.8 46.3"
	 style="enable-background:new 0 0 119.8 46.3;" xml:space="preserve">
<style type="text/css">
	.st0{fill-rule:evenodd;clip-rule:evenodd;}
</style>
<metadata>
	<sfw  xmlns="&ns_sfw;">
		<slices></slices>
		<sliceSourceBounds  bottomLeftOrigin="true" height="20.6" width="95" x="-151.3" y="171"></sliceSourceBounds>
	</sfw>
</metadata>
<path class="st0" d="M105.4,19.6v-4c0-0.7-0.4-1-1-1c-0.4,0-0.8,0.2-1.1,0.5v4.5h-1.2v-6l0.9-0.1l0.2,0.5c0.4-0.4,1-0.6,1.5-0.6
	c1.2,0,1.9,0.7,1.9,2.1v4H105.4z M97.8,16.8c0,1.3,0.5,1.8,1.6,1.8c0.5,0,1-0.1,1.5-0.3l0.1,1c-0.4,0.2-1,0.4-1.7,0.4
	c-1.9,0-2.7-1-2.7-3.2c0-2,0.8-3,2.4-3c1.4,0,2.2,0.8,2.2,2.8c0,0.2,0,0.4,0,0.6H97.8z M98.9,14.5c-0.8,0-1.1,0.4-1.2,1.5h2.3
	C100,14.9,99.6,14.5,98.9,14.5z M95.6,15.3c0,1.2-0.6,1.8-2,1.8c-0.2,0-0.5,0-0.7-0.1c-0.2,0.1-0.3,0.2-0.3,0.4
	c0,0.2,0.1,0.3,0.4,0.3l1.3,0.1c1.3,0.1,1.8,0.6,1.8,1.5c0,1.1-0.7,1.8-2.4,1.8c-1.5,0-2.2-0.6-2.2-1.6c0-0.4,0.2-0.8,0.5-1
	c-0.3-0.2-0.5-0.5-0.5-0.9c0-0.4,0.2-0.8,0.7-1c-0.4-0.3-0.6-0.7-0.6-1.4c0-1.1,0.6-1.8,2-1.8c0.5,0,1,0.1,1.3,0.3l0.9-0.4l0.3,0.6
	l-0.6,0.5C95.6,14.7,95.6,15,95.6,15.3z M93.6,20.2c1.1,0,1.4-0.3,1.4-0.7c0-0.4-0.2-0.5-0.9-0.6l-1.3-0.1c-0.2,0.2-0.3,0.4-0.3,0.7
	C92.5,19.9,92.8,20.2,93.6,20.2z M93.6,14.4c-0.7,0-0.9,0.3-0.9,0.9c0,0.7,0.4,0.9,0.9,0.9c0.7,0,0.9-0.3,0.9-0.9
	C94.5,14.6,94.2,14.4,93.6,14.4z M89.2,15.5c0-0.7-0.4-1-1-1c-0.4,0-0.8,0.2-1.1,0.5v4.5h-1.2v-6l0.9-0.1L87,14
	c0.4-0.4,1-0.6,1.5-0.6c1.2,0,1.9,0.7,1.9,2.1v4h-1.2V15.5z M82.4,19.7c-1.5,0-2.2-0.7-2.2-2.1v-4h1.2v4c0,0.7,0.3,1,1,1
	c0.7,0,1-0.3,1-1v-4h1.2v4C84.7,19,83.9,19.7,82.4,19.7z M79,15.3c0,1.2-0.6,1.8-2,1.8c-0.2,0-0.5,0-0.7-0.1
	c-0.2,0.1-0.3,0.2-0.3,0.4c0,0.2,0.1,0.3,0.4,0.3l1.3,0.1c1.3,0.1,1.8,0.6,1.8,1.5c0,1.1-0.7,1.8-2.4,1.8c-1.5,0-2.2-0.6-2.2-1.6
	c0-0.4,0.2-0.8,0.5-1c-0.3-0.2-0.5-0.5-0.5-0.9c0-0.4,0.2-0.8,0.7-1c-0.4-0.3-0.6-0.7-0.6-1.4c0-1.1,0.6-1.8,2-1.8
	c0.5,0,1,0.1,1.3,0.3l0.9-0.4l0.3,0.6l-0.6,0.5C78.9,14.7,79,15,79,15.3z M77,20.2c1.1,0,1.4-0.3,1.4-0.7c0-0.4-0.2-0.5-0.9-0.6
	l-1.3-0.1c-0.2,0.2-0.3,0.4-0.3,0.7C75.8,19.9,76.2,20.2,77,20.2z M76.9,14.4c-0.7,0-0.9,0.3-0.9,0.9c0,0.7,0.4,0.9,0.9,0.9
	c0.7,0,0.9-0.3,0.9-0.9C77.8,14.6,77.6,14.4,76.9,14.4z M72.5,15.5c0-0.7-0.4-1-1-1c-0.4,0-0.8,0.2-1.1,0.5v4.5h-1.2v-6l0.9-0.1
	l0.2,0.5c0.4-0.4,1-0.6,1.5-0.6c1.2,0,1.9,0.7,1.9,2.1v4h-1.2V15.5z M67.2,12.7c-0.5,0-0.7-0.1-0.7-0.6c0-0.4,0.2-0.6,0.7-0.6
	c0.5,0,0.7,0.2,0.7,0.6C67.9,12.5,67.6,12.7,67.2,12.7z M64,19L64,19c-0.4,0.4-0.8,0.7-1.5,0.7c-1.4,0-2.1-0.9-2.1-3.2
	c0-2.1,0.7-3.1,2.1-3.1c0.5,0,1,0.2,1.4,0.6l0,0l0-0.8v-1.5l1.2-0.1v7.9h-0.9L64,19z M63.8,15.1c-0.2-0.3-0.6-0.5-1.1-0.5
	c-0.9,0-1.2,0.5-1.2,2c0,1.6,0.3,2.1,1.2,2.1c0.6,0,0.9-0.3,1.1-0.6V15.1z M56.2,16.8c0,1.3,0.5,1.8,1.6,1.8c0.5,0,1-0.1,1.5-0.3
	l0.1,1c-0.4,0.2-1,0.4-1.7,0.4c-1.9,0-2.7-1-2.7-3.2c0-2,0.8-3,2.4-3c1.4,0,2.2,0.8,2.2,2.8c0,0.2,0,0.4,0,0.6H56.2z M57.4,14.5
	c-0.8,0-1.1,0.4-1.2,1.5h2.3C58.5,14.9,58,14.5,57.4,14.5z M52,19.7c-0.7,0-1.2-0.3-1.5-0.7l0,0l-0.2,0.5h-0.8v-7.9l1.2-0.1v1.6
	l0,0.8l0,0c0.4-0.4,0.9-0.6,1.4-0.6c1.3,0,2.1,0.8,2.1,3.1C54.2,18.8,53.4,19.7,52,19.7z M51.8,14.5c-0.5,0-0.9,0.2-1.1,0.6v3
	c0.2,0.3,0.5,0.6,1.1,0.6c0.7,0,1.2-0.4,1.2-2.1C53,14.8,52.6,14.5,51.8,14.5z M46.5,19.7c-0.6,0-1.2-0.1-1.7-0.4l0.1-1
	c0.4,0.3,1,0.4,1.5,0.4c0.7,0,1-0.3,1-0.8c0-1.2-2.6-0.6-2.6-2.6c0-1,0.7-1.8,2-1.8c0.5,0,1.1,0.1,1.5,0.3l-0.1,1
	c-0.4-0.2-1-0.3-1.4-0.3c-0.6,0-0.9,0.2-0.9,0.6c0,1.1,2.6,0.5,2.6,2.6C48.5,18.9,47.9,19.7,46.5,19.7z M42.6,15.5c0-0.7-0.4-1-1-1
	c-0.4,0-0.8,0.2-1.1,0.5v4.5h-1.2v-6l0.9-0.1l0.2,0.5c0.4-0.4,1-0.6,1.5-0.6c1.1,0,1.9,0.7,1.9,2.1v4h-1.2V15.5z M37.5,26.5
	c0-0.7-0.4-1-1-1c-0.4,0-0.8,0.2-1.1,0.5v4.5h-1.2v-6l0.9-0.1l0.2,0.5c0.4-0.4,1-0.6,1.5-0.6c1.1,0,1.9,0.7,1.9,2.1v4h-1.2V26.5z
	 M35.8,19.7c-1.7,0-2.5-0.8-2.5-3.1c0-2.3,0.8-3.1,2.5-3.1c1.7,0,2.4,0.8,2.4,3.1C38.3,18.9,37.5,19.7,35.8,19.7z M35.8,14.5
	c-0.9,0-1.2,0.4-1.2,2.1c0,1.6,0.3,2.1,1.2,2.1c0.9,0,1.2-0.5,1.2-2.1S36.7,14.5,35.8,14.5z M29.9,27.8c0.1,1.3,0.5,1.8,1.6,1.8
	c0.5,0,1-0.1,1.5-0.3l0.1,1c-0.4,0.2-1,0.4-1.7,0.4c-1.9,0-2.7-1-2.7-3.2c0-2,0.8-3,2.4-3c1.4,0,2.2,0.8,2.2,2.8c0,0.2,0,0.4,0,0.6
	H29.9z M31,25.5c-0.8,0-1.1,0.4-1.2,1.5h2.3C32.1,25.9,31.7,25.5,31,25.5z M32.1,19.6h-1.2v-6l1.2-0.1V19.6z M31.5,12.7
	c-0.5,0-0.7-0.1-0.7-0.6c0-0.4,0.2-0.6,0.7-0.6c0.5,0,0.7,0.2,0.7,0.6C32.2,12.5,32,12.7,31.5,12.7z M28.5,17.9
	c0,0.5,0.3,0.7,0.7,0.7c0.1,0,0.3,0,0.4-0.1l0.1,0.9c-0.2,0.1-0.5,0.1-0.9,0.1c-1,0-1.6-0.6-1.6-1.7v-3.5h-0.7v-0.9h0.7l0.2-1.4
	l0.9-0.1v1.5h1.3v0.9h-1.3V17.9z M25,19.6l-1.4-2.7h-0.8v2.7h-1.2v-7.9l1.2-0.1v4.2h0.8l1.3-2.3h1.3l-1.6,2.7l1.7,3.3H25z
	 M18.2,27.8c0.1,1.3,0.5,1.8,1.6,1.8c0.5,0,1-0.1,1.5-0.3l0.1,1c-0.4,0.2-1,0.4-1.7,0.4c-1.9,0-2.7-1-2.7-3.2c0-2,0.8-3,2.4-3
	c1.4,0,2.2,0.8,2.2,2.8c0,0.2,0,0.4,0,0.6H18.2z M19.4,25.5c-0.8,0-1.1,0.4-1.2,1.5h2.3C20.5,25.9,20,25.5,19.4,25.5z M18.9,17.9
	h-2.6l-0.4,1.6h-1.4l2.4-7.5h1.6l2.4,7.5h-1.4L18.9,17.9z M17.8,13.8L17.7,13h0l-0.2,0.8l-0.8,2.9h2L17.8,13.8z M14.4,14.3l-0.4,0.4
	l-0.7-0.8l-0.8,0.8L12,14.4l0.6-0.9l-1-0.4l0.2-0.6l1,0.3l0.1-1h0.6l0.1,1l1-0.3l0.2,0.6l-1,0.4L14.4,14.3z M11.9,28.7
	c0-0.4,0.2-0.8,0.7-1c-0.4-0.3-0.6-0.7-0.6-1.4c0-1.1,0.6-1.8,2-1.8c0.5,0,1,0.1,1.3,0.3l0.9-0.4l0.3,0.6l-0.6,0.5
	C16,25.7,16,26,16,26.3c0,1.2-0.6,1.8-2,1.8c-0.2,0-0.5,0-0.7-0.1c-0.2,0.1-0.3,0.2-0.3,0.4c0,0.2,0.1,0.3,0.4,0.3l1.3,0.1
	c1.3,0.1,1.8,0.6,1.8,1.5c0,1.1-0.7,1.8-2.4,1.8c-1.5,0-2.2-0.6-2.2-1.6c0-0.4,0.2-0.8,0.5-1C12.1,29.3,11.9,29.1,11.9,28.7z
	 M14,27.2c0.7,0,0.9-0.3,0.9-0.9c0-0.7-0.3-0.9-0.9-0.9c-0.6,0-0.9,0.3-0.9,0.9C13.1,27,13.5,27.2,14,27.2z M14,31.2
	c1.1,0,1.4-0.3,1.4-0.7c0-0.4-0.2-0.5-0.9-0.6l-1.3-0.1c-0.2,0.2-0.4,0.4-0.4,0.7C12.9,30.9,13.2,31.2,14,31.2z M23.9,30.6h-1.2
	v-7.9l1.2-0.1V30.6z M25.9,23.1l0.9-0.1v1.5h1.3v1h-1.3v3.4c0,0.5,0.3,0.7,0.7,0.7c0.1,0,0.3,0,0.4-0.1l0.1,0.9
	c-0.2,0.1-0.5,0.1-0.9,0.1c-1,0-1.6-0.6-1.6-1.7v-3.5H25v-1h0.7L25.9,23.1z M67.8,19.6h-1.2v-6l1.2-0.1V19.6z"/>
</svg>
