<svg enable-background="new 0 0 141.14 203.16" viewBox="0 0 141.14 203.16" xmlns="http://www.w3.org/2000/svg"><path clip-rule="evenodd" d="m125.07 12.45c-2.05 0-2.49.61-2.49 1.5 0 2.69 8.26 1.77 8.26 8.57 0 4.1-2.77 6.65-7.46 6.65-2.19 0-4.35-.5-6.04-1.44l.69-4.6c1.69.86 3.41 1.39 5.21 1.39 1.72 0 2.38-.58 2.38-1.69 0-2.66-8.26-1.83-8.26-8.62 0-3.63 2.22-6.52 7.35-6.52 1.91 0 3.96.36 5.46 1l-.61 4.52c-1.58-.49-3.16-.76-4.49-.76zm-9.21 11.67-.11 4.68h-13.39v-20.79h13.03l.11 4.77h-7.73v3.22h6.38v4.35h-6.38v3.77zm-21.12 4.68-2.77-7.43h-1.83v7.43h-5.41v-20.79h7.18c5.27 0 7.87 2 7.87 6.68 0 2.77-1 4.82-2.83 5.6l4.05 8.51zm-2.72-16.3h-1.89v4.8h1.86c1.58 0 2.13-.39 2.13-2.41.01-1.89-.52-2.39-2.1-2.39zm-9.37 11.62-.11 4.68h-13.4v-20.79h13.03l.11 4.77h-7.74v3.22h6.38v4.35h-6.38v3.77zm-21.74-3.47h-5.05v8.15h-5.4v-20.79h5.4v7.79h5.05v-7.79h5.43v20.79h-5.43zm-16.39 3.8c1.28 0 2.47-.25 3.44-.69l.5 4.41c-1.25.61-3.13 1-4.74 1-5.93 0-8.82-3.38-8.82-10.87 0-6.99 2.8-10.65 9.15-10.65 1.47 0 3.27.33 4.38.78l-.53 4.6c-.92-.33-2.16-.55-3.47-.55-3.08 0-3.85 1.3-3.85 5.85 0 4.79.86 6.12 3.94 6.12zm-17.69-16.44h5.57v20.79h-5.57zm-2.17 14.5c0 4.1-2.77 6.65-7.46 6.65-2.19 0-4.35-.5-6.04-1.44l.69-4.6c1.69.86 3.41 1.39 5.21 1.39 1.72 0 2.38-.58 2.38-1.69 0-2.66-8.26-1.83-8.26-8.62 0-3.63 2.22-6.52 7.35-6.52 1.91 0 3.97.36 5.46 1l-.61 4.52c-1.58-.47-3.16-.75-4.49-.75-2.05 0-2.49.61-2.49 1.5 0 2.68 8.26 1.77 8.26 8.56zm-1.58 13.23 6.27 20.79h-6.04l-.8-3.63h-5.66l-.8 3.63h-5.75l6.15-20.79zm-1.58 12.64-1.33-5.96-.42-2.22h-.08l-.47 2.22-1.33 5.96zm1.58 126.01 6.27 20.79h-6.04l-.8-3.63h-5.66l-.8 3.63h-5.75l6.15-20.79zm-1.58 12.64-1.33-5.96-.42-2.22h-.08l-.47 2.22-1.33 5.96zm21.05-35.6h-7.73v3.22h6.38v4.35h-6.38v3.77h8.09l-.11 4.68h-13.39v-20.79h13.03zm1.28 27.81h-7.65v3.66h6.35l-.03 4.6h-6.32v7.68h-5.43v-20.79h13zm13.53-55.46h-7.65v3.66h6.35l-.03 4.6h-6.32v7.68h-5.43v-20.79h13zm-6.57 43.67h-5.57v-20.79h5.57zm11.48 6.97v17.05h2.47v3.71h-10.38v-3.71h2.47v-10.78l-3.16 1.75-.55-4.21 6.02-3.8h3.13zm-3.64-18.47-.06.03.03 2.25v9.23h-4.77v-20.79h4.55l6.68 10.78.06-.03-.06-2.22.03-8.54h4.77v20.79h-3.85l-6.21-9.59zm16.36 18.22c5.07 0 7.29 2.8 7.29 10.73 0 7.43-2.3 10.56-7.35 10.56-5.16 0-7.24-3.13-7.24-10.56.01-7.93 2.12-10.73 7.3-10.73zm0 16.82c1.44 0 2.08-.72 2.08-6.15 0-5.41-.64-6.04-2.08-6.04-1.47 0-2.14.75-2.14 6.04.01 5.57.67 6.15 2.14 6.15zm15.56-44.69c1.83 0 3.91.33 5.41.91l-.5 4.63c-1.36-.5-3.1-.8-4.6-.8-3.41 0-4.19 1.28-4.19 5.96 0 4.93.8 6.01 3.49 6.01.42 0 .86-.03 1.25-.11v-6.79h4.82v10.59c-1.44.69-3.8 1.14-5.93 1.14-6.88 0-9.31-3.69-9.31-10.78 0-7.27 2.85-10.76 9.56-10.76zm.78 27.87c5.07 0 7.29 2.8 7.29 10.73 0 7.43-2.3 10.56-7.35 10.56-5.16 0-7.24-3.13-7.24-10.56.01-7.93 2.11-10.73 7.3-10.73zm0 16.82c1.44 0 2.08-.72 2.08-6.15 0-5.41-.64-6.04-2.08-6.04-1.47 0-2.14.75-2.14 6.04 0 5.57.67 6.15 2.14 6.15zm20.51-39.56h-7.74v3.22h6.38v4.35h-6.38v3.77h8.1l-.11 4.68h-13.39v-20.79h13.03zm-8.73 38.79c1.94 0 2.77.97 2.77 2.66 0 1.58-.83 2.63-2.77 2.63s-2.8-.75-2.8-2.63c0-1.69.86-2.66 2.8-2.66zm24.85-142.28h-7.74v-3.6h7.74zm-23.8-12.2.11 4.85h-4.71v15.94h-5.52v-15.94h-4.71l.11-4.85zm-6.15 71.57-.11 4.68h-13.39v-20.79h13.03l.11 4.77h-7.74v3.22h6.38v4.35h-6.38v3.77zm-32.08 4.68v-20.79h7.4c6.32 0 8.9 2.94 8.9 10.29 0 7.62-2.94 10.51-8.79 10.51h-7.51zm10.62-10.56c0-4.6-.75-5.43-3.19-5.43h-2.02v11.25h2.02c2.38 0 3.19-.72 3.19-5.82zm-3.63 66.02v-20.79h5.57v20.79zm-.86-39.93h7.73v3.6h-7.73zm-8.82 12.2v-15.94h-4.71l.11-4.85h14.72l.11 4.85h-4.71v15.94zm5.04-76.25h5.99v20.79h-4.96v-8.7l.06-2.25-.08-.03-.69 2.16-3.08 8.82h-3.52l-3.05-8.79-.69-2.16-.06.03.03 2.25v8.68h-4.74v-20.8h5.96l3.66 10.51.69 2.14h.08l.69-2.11zm-17.85 20.79h-5.57v-20.79h5.57zm-2.64 27.73v-15.94h-4.71l.11-4.85h14.72l.11 4.85h-4.71v15.94zm-12-32.55h7.07l-.14 4.82h-12.4v-20.79h5.46v15.97zm-24.02 39.49h5.46v15.97h7.07l-.14 4.82h-12.39zm23.85-27.73h5.57v20.79h-5.57zm6.01 41.45c0 4.88-2.61 7.43-7.93 7.43s-8.01-2.55-8.01-7.43v-13.72h5.43v13.61c0 1.86.72 2.69 2.58 2.69 1.89 0 2.52-.78 2.52-2.69v-13.61h5.41zm-29.86 34.8v-20.79h7.18c5.27 0 7.87 2 7.87 6.68 0 2.77-1 4.82-2.83 5.6l4.05 8.51h-6.26l-2.77-7.43h-1.83v7.43zm7.27-11.5c1.58 0 2.14-.39 2.14-2.41 0-1.89-.53-2.38-2.11-2.38h-1.89v4.8h1.86zm13.53-43.96h-4.97v-8.71l.06-2.24-.08-.03-.69 2.16-3.08 8.82h-3.52l-3.05-8.79-.69-2.16-.06.03.03 2.25v8.68h-4.74v-20.8h5.96l3.66 10.51.69 2.13h.08l.69-2.11 3.72-10.54h5.99zm-10.15-27.73-3.91-8.46h-1.33v8.46h-5.41v-20.79h5.41v8.04h1.44l3.85-8.04h6.07l-4.99 9.95 5.24 10.84zm18.33-27.73-2.77-7.43h-1.83v7.43h-5.41v-20.79h7.18c5.27 0 7.87 2 7.87 6.68 0 2.77-1 4.82-2.83 5.6l4.05 8.51zm-2.72-16.3h-1.88v4.8h1.85c1.58 0 2.14-.39 2.14-2.41 0-1.89-.53-2.39-2.11-2.39zm25.87 10.18c0 3.74-2.25 6.13-7.43 6.13h-8.09v-20.8h8.15c4.46 0 6.74 2.08 6.74 5.38 0 2.19-1 3.6-2.55 4.35v.05c2.07.7 3.18 2.31 3.18 4.89zm-7.6-10.12h-2.69v3.66h2.74c1.25 0 1.69-.47 1.69-1.88.01-1.37-.46-1.78-1.74-1.78zm.14 7.7h-2.83v4.1h2.94c1.36 0 1.86-.44 1.86-2.08 0-1.43-.44-2.02-1.97-2.02zm23.13 3.86-.11 4.68h-13.39v-20.79h13.03l.11 4.77h-7.74v3.22h6.38v4.35h-6.38v3.77zm7.87-16.11v20.79h-5.57v-20.79zm7.24 48.52h-6.04l-.8-3.63h-5.65l-.8 3.63h-5.74l6.15-20.79h6.62zm-9.18-14.11-.41-2.22h-.09l-.47 2.22-1.33 5.96h3.63zm35.38 41.84h-4.96v-8.71l.06-2.24-.08-.03-.69 2.16-3.08 8.82h-3.52l-3.05-8.79-.69-2.16-.06.03.03 2.25v8.68h-4.74v-20.8h5.96l3.66 10.51.69 2.13h.08l.69-2.11 3.72-10.54h5.99v20.8zm-2.21-61.75c0 4.1-2.77 6.65-7.46 6.65-2.19 0-4.35-.5-6.04-1.44l.69-4.6c1.69.86 3.41 1.39 5.21 1.39 1.72 0 2.39-.58 2.39-1.69 0-2.66-8.26-1.83-8.26-8.62 0-3.63 2.22-6.51 7.35-6.51 1.91 0 3.96.36 5.46 1l-.61 4.52c-1.58-.47-3.16-.75-4.49-.75-2.05 0-2.5.61-2.5 1.5-.01 2.67 8.26 1.76 8.26 8.55zm10.67 103.1c0 2.77-1 4.82-2.83 5.6l4.05 8.51h-6.26l-2.77-7.43h-1.83v7.43h-5.41v-20.79h7.18c5.26 0 7.87 2 7.87 6.68zm-9.65 2.61h1.86c1.58 0 2.14-.39 2.14-2.41 0-1.89-.53-2.38-2.11-2.38h-1.89z" fill-rule="evenodd"/></svg>