<?xml version="1.0" encoding="utf-8"?>
<!-- Generator: Adobe Illustrator 22.1.0, SVG Export Plug-In . SVG Version: 6.00 Build 0)  -->
<svg version="1.1" id="Keime" xmlns="http://www.w3.org/2000/svg" xmlns:xlink="http://www.w3.org/1999/xlink" x="0px" y="0px"
	 viewBox="0 0 117.9 116.3" style="enable-background:new 0 0 117.9 116.3;" xml:space="preserve">
<g>
	<path d="M104.7,60.9c-6.2-5.2-7.5-10.2-1.8-18.6c-8.9-2.4-11.4-8.2-9.2-16.4c-8.4,0.8-13.1-2.6-14.5-11.7
		c-7.8,4.4-13.8,2.3-18.2-5.4c-5.6,7.3-11.7,7.5-18.3,2.1c-2.5,8-7.2,11.3-16.6,9.3c-1.2,12.5-1.2,12.5-11.8,14.4
		c1.3,3.3,2.9,6.3,1.7,10.3c-1.2,4.1-4.1,5.7-7.2,7.8c2.4,2.7,5.4,4.5,5.7,8.7c0.4,4.2-1.7,6.8-3.7,9.9c3.5,1.5,6.6,2.3,8.6,6
		s1.5,6.9,0.5,10.7c8.9-1,13.7,2.9,14.6,11.7C38.1,98.2,41,97,44.9,98c4.2,1.1,5.6,4.3,8,7.2c2.4-2.9,4.7-5.1,8.7-5.7
		c4.3-0.7,6.5,1.9,9.7,3.6c1.4-3.4,2.3-6.5,5.9-8.5c3.7-2.1,6.9-1.3,10.7-0.7c0.3-3.7-0.4-6.9,2.4-10.2c2.9-3.4,6.3-2.3,9.9-3.1
		C94.6,72.2,97.2,65.9,104.7,60.9z M57.3,94.4C36.6,94.6,19.4,77.6,19.2,57C19,36.4,35.9,19.4,56.8,19.3
		c20.5-0.1,37.6,16.8,37.6,37.4C94.5,79.2,76.2,94.2,57.3,94.4z"/>
	<path d="M39.5,59c0,2.4-1.9,4.3-4.3,4.3c-2.4,0-4.3-1.9-4.3-4.3s1.9-4.3,4.3-4.3C37.5,54.7,39.5,56.6,39.5,59z"/>
	<path d="M68.4,77.7c0,3-2.4,5.4-5.4,5.4s-5.4-2.4-5.4-5.4s2.4-5.4,5.4-5.4C66,72.3,68.4,74.8,68.4,77.7z"/>
	<path d="M71.1,37c0,1.3-1,2.3-2.3,2.3s-2.3-1-2.3-2.3s1-2.3,2.3-2.3S71.1,35.7,71.1,37z"/>
</g>
</svg>
