<?xml version="1.0" encoding="utf-8"?>
<!-- Generator: Adobe Illustrator 22.1.0, SVG Export Plug-In . SVG Version: 6.00 Build 0)  -->
<svg version="1.1" id="Ebene_1" xmlns="http://www.w3.org/2000/svg" xmlns:xlink="http://www.w3.org/1999/xlink" x="0px" y="0px"
	 viewBox="0 0 457.4 39.8" style="enable-background:new 0 0 457.4 39.8;" xml:space="preserve">
<path d="M444.8,25.8l-1-18.9h7.1l-1,18.9H444.8z M435.8,33.8h-7.2V13.1h-6.1l0.1-6.3h19.2l0.1,6.3h-6.1V33.8z M411,17.9h8.3l0,6H411
	v10h-7.1v-27h17l0.1,6.3h-10V17.9z M390.1,34.3c-6.9,0-10.4-3.3-10.4-9.6V6.8h7.1v17.7c0,2.4,0.9,3.5,3.4,3.5c2.5,0,3.3-1,3.3-3.5
	V6.8h7v17.8C400.5,31,397.1,34.3,390.1,34.3z M361.5,33.8v-27h7.1v20.7h9.2l-0.2,6.3H361.5z M343.5,33.8l-3.6-9.6h-2.4v9.6h-7v-27
	h9.4c6.9,0,10.3,2.6,10.3,8.7c0,3.6-1.3,6.3-3.7,7.3l5.3,11.1H343.5z M339.9,12.7h-2.5v6.2h2.4c2.1,0,2.8-0.5,2.8-3.1
	C342.7,13.3,342,12.7,339.9,12.7z M327.7,27.8l-0.1,6.1h-17.5v-27h17l0.1,6.2h-10.1v4.2h8.3v5.7h-8.3v4.9H327.7z M299.8,33.8
	l-5.1-11H293v11h-7v-27h7v10.4h1.9l5-10.4h7.9l-6.5,12.9l6.8,14.1H299.8z M278.2,28.2c1.7,0,3.2-0.3,4.5-0.9l0.6,5.7
	c-1.6,0.8-4.1,1.3-6.2,1.3c-7.7,0-11.5-4.4-11.5-14.1c0-9.1,3.7-13.8,11.9-13.8c1.9,0,4.3,0.4,5.7,1l-0.7,6
	c-1.2-0.4-2.8-0.7-4.5-0.7c-4,0-5,1.7-5,7.6C273.1,26.5,274.2,28.2,278.2,28.2z M255.1,6.8h7.3v27h-7.3V6.8z M240.4,33.8h-9.8v-27
	h9.7c8.2,0,11.6,3.8,11.6,13.4C251.9,30.1,248,33.8,240.4,33.8z M240.3,13.1h-2.6v14.6h2.6c3.1,0,4.2-0.9,4.2-7.6
	C244.5,14.2,243.5,13.1,240.3,13.1z M214.2,33.8H207V13.1h-6.1l0.1-6.3h19.2l0.1,6.3h-6.1V33.8z M191.1,6.8h7.3v27h-7.3V6.8z
	 M180.7,22.5l0.1-2.9l-0.1,0l-0.9,2.8l-4,11.4h-4.6l-4-11.4l-0.9-2.8l-0.1,0l0,2.9v11.3H160v-27h7.8l4.8,13.6l0.9,2.8h0.1l0.9-2.7
	l4.8-13.7h7.8v27h-6.5V22.5z M139.6,34.3c-2.9,0-5.7-0.6-7.9-1.9l0.9-6c2.2,1.1,4.4,1.8,6.8,1.8c2.2,0,3.1-0.8,3.1-2.2
	c0-3.5-10.8-2.4-10.8-11.2c0-4.7,2.9-8.5,9.6-8.5c2.5,0,5.2,0.5,7.1,1.3l-0.8,5.9c-2.1-0.6-4.1-1-5.9-1c-2.7,0-3.3,0.8-3.3,1.9
	c0,3.5,10.8,2.3,10.8,11.1C149.4,31,145.8,34.3,139.6,34.3z M120.8,34.3c-2.9,0-5.7-0.6-7.9-1.9l0.9-6c2.2,1.1,4.4,1.8,6.8,1.8
	c2.2,0,3.1-0.8,3.1-2.2c0-3.5-10.8-2.4-10.8-11.2c0-4.7,2.9-8.5,9.6-8.5c2.5,0,5.2,0.5,7.1,1.3l-0.8,5.9c-2.1-0.6-4.1-1-5.9-1
	c-2.7,0-3.3,0.8-3.3,1.9c0,3.5,10.8,2.3,10.8,11.1C130.5,31,126.9,34.3,120.8,34.3z M100.2,34.3c-6.9,0-10.4-3.3-10.4-9.6V6.8h7.1
	v17.7c0,2.4,0.9,3.5,3.4,3.5c2.5,0,3.3-1,3.3-3.5V6.8h7v17.8C110.5,31,107.1,34.3,100.2,34.3z M71.6,33.8v-27h7.1v20.7h9.2l-0.2,6.3
	H71.6z M60.8,23.3h-6.6v10.6h-7v-27h7V17h6.6V6.8h7.1v27h-7.1V23.3z M39.5,28.2c1.7,0,3.2-0.3,4.5-0.9l0.7,5.7
	c-1.6,0.8-4.1,1.3-6.2,1.3c-7.7,0-11.5-4.4-11.5-14.1c0-9.1,3.7-13.8,11.9-13.8c1.9,0,4.3,0.4,5.7,1l-0.7,6
	c-1.2-0.4-2.8-0.7-4.5-0.7c-4,0-5,1.7-5,7.6C34.3,26.5,35.5,28.2,39.5,28.2z M15.4,34.3c-2.9,0-5.7-0.6-7.9-1.9l0.9-6
	c2.2,1.1,4.4,1.8,6.8,1.8c2.2,0,3.1-0.8,3.1-2.2c0-3.5-10.8-2.4-10.8-11.2c0-4.7,2.9-8.5,9.6-8.5c2.5,0,5.2,0.5,7.1,1.3l-0.8,5.9
	c-2.1-0.6-4.1-1-5.9-1c-2.7,0-3.3,0.8-3.3,1.9c0,3.5,10.8,2.3,10.8,11.1C25.1,31,21.5,34.3,15.4,34.3z M447.5,28
	c2.5,0,3.5,1.2,3.5,3.2c0,1.8-1.1,3.1-3.5,3.1c-2.4,0-3.5-0.9-3.5-3.1C444,29.2,445.1,28,447.5,28z"/>
</svg>
