<?xml version="1.0" encoding="utf-8"?>
<!-- Generator: Adobe Illustrator 23.1.1, SVG Export Plug-In . SVG Version: 6.00 Build 0)  -->
<!DOCTYPE svg PUBLIC "-//W3C//DTD SVG 1.1//EN" "http://www.w3.org/Graphics/SVG/1.1/DTD/svg11.dtd" [
	<!ENTITY ns_extend "http://ns.adobe.com/Extensibility/1.0/">
	<!ENTITY ns_ai "http://ns.adobe.com/AdobeIllustrator/10.0/">
	<!ENTITY ns_graphs "http://ns.adobe.com/Graphs/1.0/">
	<!ENTITY ns_vars "http://ns.adobe.com/Variables/1.0/">
	<!ENTITY ns_imrep "http://ns.adobe.com/ImageReplacement/1.0/">
	<!ENTITY ns_sfw "http://ns.adobe.com/SaveForWeb/1.0/">
	<!ENTITY ns_custom "http://ns.adobe.com/GenericCustomNamespace/1.0/">
	<!ENTITY ns_adobe_xpath "http://ns.adobe.com/XPath/1.0/">
]>
<svg version="1.1" id="Ebene_1" xmlns:x="&ns_extend;" xmlns:i="&ns_ai;" xmlns:graph="&ns_graphs;"
	 xmlns="http://www.w3.org/2000/svg" xmlns:xlink="http://www.w3.org/1999/xlink" x="0px" y="0px" viewBox="0 0 154.31 28.34"
	 style="enable-background:new 0 0 154.31 28.34;" xml:space="preserve">
<style type="text/css">
	.st0{fill-rule:evenodd;clip-rule:evenodd;}
</style>
<metadata>
	<sfw  xmlns="&ns_sfw;">
		<slices></slices>
		<sliceSourceBounds  bottomLeftOrigin="true" height="12.98" width="101.59" x="10.65" y="-20.66"></sliceSourceBounds>
	</sfw>
</metadata>
<path class="st0" d="M109.46,18.99h-3.12l-2.75-8.81h2.86l1.2,5.17l0.25,1.14h0.04l0.23-1.14l1.22-5.17h2.86L109.46,18.99z
	 M100.7,18.33c-0.51,0.52-1.16,0.82-2.09,0.82c-2.03,0-3.13-1.41-3.13-4.61c0-2.97,1.09-4.52,3.07-4.52c0.65,0,1.28,0.22,1.78,0.65
	l0.03-0.03l-0.03-1.15V7.81l2.64-0.13v11.31h-2.04L100.7,18.33z M100.34,12.78c-0.17-0.26-0.54-0.46-0.99-0.46
	c-0.84,0-1.14,0.48-1.14,2.31c0,1.97,0.25,2.42,1.14,2.42c0.51,0,0.86-0.27,0.99-0.58V12.78z M92.49,18.99l-0.42-1.89h-2.96
	l-0.42,1.89h-3l3.22-10.8h3.46l3.28,10.8H92.49z M90.86,11.66l-0.22-1.15h-0.04l-0.25,1.15l-0.7,3.1h1.9L90.86,11.66z M80.22,16.73
	c0.67,0,1.29-0.13,1.8-0.36l0.26,2.29c-0.65,0.32-1.64,0.52-2.48,0.52c-3.1,0-4.61-1.76-4.61-5.65C75.19,9.9,76.66,8,79.98,8
	c0.77,0,1.71,0.17,2.29,0.4l-0.28,2.39c-0.48-0.17-1.13-0.29-1.81-0.29c-1.61,0-2.01,0.68-2.01,3.04
	C78.17,16.04,78.62,16.73,80.22,16.73z M67.49,19.13c-2.7,0-3.78-1.63-3.78-5.49c0-4.12,1.1-5.57,3.81-5.57
	c2.65,0,3.81,1.45,3.81,5.57C71.33,17.51,70.13,19.13,67.49,19.13z M67.52,10.48c-0.77,0-1.12,0.39-1.12,3.14
	c0,2.89,0.35,3.2,1.12,3.2c0.75,0,1.09-0.37,1.09-3.2C68.61,10.81,68.27,10.48,67.52,10.48z M56.91,17.06h1.29v-5.6l-1.65,0.91
	l-0.29-2.19L59.4,8.2h1.64v8.86h1.29v1.93h-5.42V17.06z M48.39,20.66l4.47-12.93h2.26l-4.54,12.93H48.39z M44.49,19.13
	c-2.7,0-3.78-1.63-3.78-5.49c0-4.12,1.1-5.57,3.81-5.57c2.65,0,3.81,1.45,3.81,5.57C48.33,17.51,47.12,19.13,44.49,19.13z
	 M44.51,10.48c-0.77,0-1.12,0.39-1.12,3.14c0,2.89,0.35,3.2,1.12,3.2c0.75,0,1.09-0.37,1.09-3.2C45.6,10.81,45.27,10.48,44.51,10.48
	z M39.27,17.06v1.93H36.7v-1.93h-4.29l-0.23-1.76l3.77-7.11h3.32v6.6h0.88l-0.06,2.27H39.27z M36.93,10.9l-1.94,3.89h1.8l0.1-2.71
	l0.07-1.17L36.93,10.9z M25.3,18.99l-1.45-3.86h-0.96v3.86h-2.83V8.19h3.75c2.75,0,4.12,1.04,4.12,3.47c0,1.44-0.52,2.51-1.48,2.91
	l2.12,4.42H25.3z M23.88,10.52h-0.99v2.49h0.97c0.83,0,1.12-0.2,1.12-1.25C24.98,10.78,24.7,10.52,23.88,10.52z M18.77,15.81
	c0,1.94-1.17,3.18-3.88,3.18h-4.23V8.19h4.26c2.33,0,3.52,1.08,3.52,2.79c0,1.14-0.52,1.87-1.33,2.26v0.03
	C18.19,13.63,18.77,14.47,18.77,15.81z M14.8,10.55h-1.41v1.9h1.44c0.65,0,0.88-0.24,0.88-0.98C15.71,10.77,15.47,10.55,14.8,10.55z
	 M14.87,14.55h-1.48v2.13h1.54c0.71,0,0.97-0.23,0.97-1.08C15.9,14.86,15.67,14.55,14.87,14.55z"/>
</svg>
