<?xml version="1.0" encoding="utf-8"?>
<!-- Generator: Adobe Illustrator 23.1.1, SVG Export Plug-In . SVG Version: 6.00 Build 0)  -->
<!DOCTYPE svg PUBLIC "-//W3C//DTD SVG 1.1//EN" "http://www.w3.org/Graphics/SVG/1.1/DTD/svg11.dtd" [
	<!ENTITY ns_extend "http://ns.adobe.com/Extensibility/1.0/">
	<!ENTITY ns_ai "http://ns.adobe.com/AdobeIllustrator/10.0/">
	<!ENTITY ns_graphs "http://ns.adobe.com/Graphs/1.0/">
	<!ENTITY ns_vars "http://ns.adobe.com/Variables/1.0/">
	<!ENTITY ns_imrep "http://ns.adobe.com/ImageReplacement/1.0/">
	<!ENTITY ns_sfw "http://ns.adobe.com/SaveForWeb/1.0/">
	<!ENTITY ns_custom "http://ns.adobe.com/GenericCustomNamespace/1.0/">
	<!ENTITY ns_adobe_xpath "http://ns.adobe.com/XPath/1.0/">
]>
<svg version="1.1" id="Ebene_1" xmlns:x="&ns_extend;" xmlns:i="&ns_ai;" xmlns:graph="&ns_graphs;"
	 xmlns="http://www.w3.org/2000/svg" xmlns:xlink="http://www.w3.org/1999/xlink" x="0px" y="0px" viewBox="0 0 112.24 31.79"
	 style="enable-background:new 0 0 112.24 31.79;" xml:space="preserve">
<style type="text/css">
	.st0{fill-rule:evenodd;clip-rule:evenodd;fill:#FEFEFE;}
</style>
<metadata>
	<sfw  xmlns="&ns_sfw;">
		<slices></slices>
		<sliceSourceBounds  bottomLeftOrigin="true" height="12.36" width="92.94" x="11.02" y="-21.72"></sliceSourceBounds>
	</sfw>
</metadata>
<path class="st0" d="M101.75,21.51l-3.57-5.52l-0.67-1.1l-0.03,0.02l0.02,1.29v5.31h-2.74V9.55h2.62l3.84,6.2l0.03-0.02l-0.03-1.28
	l0.02-4.91h2.74v11.96H101.75z M88.04,21.72c-3.44,0-5.01-1.82-5.01-6.19c0-4.38,1.5-6.17,5.01-6.17s5.01,1.79,5.01,6.17
	C93.04,20.03,91.55,21.72,88.04,21.72z M88.02,12.15c-1.31,0-1.72,0.54-1.72,3.38c0,2.85,0.43,3.43,1.75,3.43
	c1.32,0,1.72-0.59,1.72-3.43C89.77,12.67,89.38,12.15,88.02,12.15z M77.99,9.55h3.21v11.96h-3.21V9.55z M73.8,21.51h-3.17v-9.17
	h-2.71l0.06-2.79h8.47l0.06,2.79H73.8V21.51z M63.64,21.51l-2.25-4.86h-0.76v4.86h-3.11V9.55h3.11v4.62h0.83l2.22-4.62h3.49
	l-2.87,5.72l3.01,6.24H63.64z M52.38,19.42h-3.25l-0.46,2.09h-3.3l3.54-11.96h3.81l3.6,11.96h-3.48L52.38,19.42z M51.05,13.39
	l-0.24-1.28h-0.05l-0.27,1.28l-0.77,3.43h2.09L51.05,13.39z M37.44,21.51l-1.6-4.27H34.8v4.27h-3.11V9.55h4.13
	c3.03,0,4.53,1.15,4.53,3.84c0,1.59-0.57,2.77-1.63,3.22l2.33,4.9H37.44z M35.88,12.13H34.8v2.76h1.07c0.91,0,1.23-0.22,1.23-1.39
	C37.09,12.42,36.79,12.13,35.88,12.13z M25.21,21.72c-3.06,0-4.61-1.47-4.61-4.27V9.55h3.13v7.83c0,1.07,0.41,1.55,1.48,1.55
	c1.08,0,1.45-0.45,1.45-1.55V9.55h3.11v7.89C29.77,20.25,28.27,21.72,25.21,21.72z M19.22,18.73l-0.05,2.77h-8.15v-2.03l3.81-6.06
	l0.7-1.05l-0.02-0.03h-4.4l0.08-2.79h7.99v2.23l-3.68,5.87l-0.7,1.04l0.02,0.05H19.22z"/>
</svg>
