<?xml version="1.0" encoding="utf-8"?>
<!-- Generator: Adobe Illustrator 16.0.4, SVG Export Plug-In . SVG Version: 6.00 Build 0)  -->
<!DOCTYPE svg PUBLIC "-//W3C//DTD SVG 1.1//EN" "http://www.w3.org/Graphics/SVG/1.1/DTD/svg11.dtd">
<svg version="1.1" id="Ebene_1" xmlns="http://www.w3.org/2000/svg" xmlns:xlink="http://www.w3.org/1999/xlink" x="0px" y="0px"
	 width="109.134px" height="31.105px" viewBox="0 0 109.134 31.105" enable-background="new 0 0 109.134 31.105"
	 xml:space="preserve">
<g>
	<g>
		<rect fill="#248C96" width="109.134" height="31.105"/>
	</g>
	<g>
		<path fill="#FFFFFF" d="M15.51,20.348h-3.469v-9.602h3.417c2.919,0,4.109,1.357,4.109,4.75
			C19.567,19.016,18.211,20.348,15.51,20.348z M15.471,12.961h-0.935v5.197h0.935c1.102,0,1.473-0.334,1.473-2.688
			C16.943,13.344,16.598,12.961,15.471,12.961z"/>
		<path fill="#FFFFFF" d="M24.386,20.514c-2.765,0-4.02-1.459-4.02-4.967c0-3.521,1.203-4.955,4.02-4.955s4.02,1.434,4.02,4.955
			C28.405,19.156,27.202,20.514,24.386,20.514z M24.373,12.832c-1.05,0-1.383,0.436-1.383,2.715c0,2.291,0.346,2.752,1.408,2.752
			s1.383-0.475,1.383-2.752C25.781,13.254,25.461,12.832,24.373,12.832z"/>
		<path fill="#FFFFFF" d="M36.091,10.746l1.012,6.004l0.153,1.025h0.039l0.115-1.025l0.856-6.004h2.497l-2.01,9.602h-2.996
			l-0.896-5.826l-0.128-1.035h-0.038l-0.142,1.035l-0.883,5.826h-2.996l-2.01-9.602h2.611l0.845,6.055l0.129,1.023h0.038
			l0.141-1.023l0.999-6.055H36.091z"/>
		<path fill="#FFFFFF" d="M47.172,20.348l-2.868-4.43l-0.538-0.883l-0.025,0.012l0.013,1.037v4.264h-2.201v-9.602h2.1l3.085,4.979
			l0.025-0.012l-0.025-1.023l0.013-3.943h2.202v9.602H47.172z"/>
		<path fill="#FFFFFF" d="M56.047,18.119l-0.063,2.229h-5.723v-9.602h2.522v7.373H56.047z"/>
		<path fill="#FFFFFF" d="M60.454,20.514c-2.765,0-4.02-1.459-4.02-4.967c0-3.521,1.203-4.955,4.02-4.955s4.021,1.434,4.021,4.955
			C64.475,19.156,63.271,20.514,60.454,20.514z M60.441,12.832c-1.05,0-1.382,0.436-1.382,2.715c0,2.291,0.345,2.752,1.408,2.752
			c1.062,0,1.382-0.475,1.382-2.752C61.85,13.254,61.529,12.832,60.441,12.832z"/>
		<path fill="#FFFFFF" d="M70.124,18.67h-2.611l-0.371,1.678h-2.65l2.843-9.602h3.059l2.894,9.602h-2.791L70.124,18.67z
			 M68.601,13.832l-0.614,2.752h1.677l-0.614-2.752l-0.192-1.025h-0.038L68.601,13.832z"/>
		<path fill="#FFFFFF" d="M77.4,20.348h-3.469v-9.602h3.417c2.919,0,4.11,1.357,4.11,4.75C81.459,19.016,80.102,20.348,77.4,20.348z
			 M77.361,12.961h-0.935v5.197h0.935c1.102,0,1.473-0.334,1.473-2.688C78.834,13.344,78.488,12.961,77.361,12.961z"/>
		<path fill="#FFFFFF" d="M88.747,18.184l-0.051,2.164h-6.183v-9.602h6.017l0.05,2.203h-3.571v1.484h2.945v2.01h-2.945v1.74H88.747z
			"/>
		<path fill="#FFFFFF" d="M95.332,20.348l-2.868-4.43l-0.537-0.883l-0.025,0.012l0.013,1.037v4.264h-2.202v-9.602h2.1l3.085,4.979
			l0.025-0.012l-0.025-1.023l0.013-3.943h2.202v9.602H95.332z"/>
	</g>
</g>
</svg>
