<?xml version="1.0" encoding="utf-8"?>
<!-- Generator: Adobe Illustrator 16.0.4, SVG Export Plug-In . SVG Version: 6.00 Build 0)  -->
<!DOCTYPE svg PUBLIC "-//W3C//DTD SVG 1.1//EN" "http://www.w3.org/Graphics/SVG/1.1/DTD/svg11.dtd">
<svg version="1.1" id="Ebene_1" xmlns="http://www.w3.org/2000/svg" xmlns:xlink="http://www.w3.org/1999/xlink" x="0px" y="0px"
	 width="189.348px" height="88.752px" viewBox="0 0 189.348 88.752" enable-background="new 0 0 189.348 88.752"
	 xml:space="preserve">
<g>
	<path d="M27.501,36.752c-2.601,1.25-6.851,2.05-10.7,2.05C4.399,38.803,0,32.152,0,19.352C0,6.25,5.149-0.05,17.25-0.05
		c3.301,0,7.051,0.6,9.751,1.65l-0.899,8.351C23.65,9.051,20.5,8.5,17.801,8.5c-6.15,0-7.551,2.3-7.551,10.751
		c0,8.9,1.45,10.851,6.301,10.851c0.75,0,1.55-0.05,2.25-0.2v-12.25h8.7V36.752z"/>
	<path d="M54,22.751l7.301,15.351H50l-5-13.401h-3.301v13.401h-9.75V0.6h12.95c9.501,0,14.2,3.601,14.2,12.051
		C59.1,17.651,57.301,21.352,54,22.751z M45.1,8.701h-3.4v8.65h3.35c2.851,0,3.851-0.7,3.851-4.35
		C48.899,9.601,47.949,8.701,45.1,8.701z"/>
	<path d="M83.1,31.552H72.898l-1.45,6.55H61.098L72.198,0.6h11.95l11.301,37.502h-10.9L83.1,31.552z M77.148,12.651l-2.4,10.751
		h6.551l-2.4-10.751l-0.75-4h-0.149L77.148,12.651z"/>
	<path d="M110.949,9.351v28.752h-9.95V9.351h-8.501l0.2-8.75h26.552l0.2,8.75H110.949z"/>
	<path d="M122.848,0.6h10.051v37.502h-10.051V0.6z"/>
	<path d="M148.197,38.752c-3.949,0-7.85-0.9-10.9-2.6l1.25-8.3c3.051,1.55,6.15,2.5,9.4,2.5c3.101,0,4.301-1.05,4.301-3.05
		c0-4.8-14.9-3.3-14.9-15.551c0-6.55,4-11.751,13.25-11.751c3.451,0,7.15,0.65,9.852,1.8l-1.101,8.15
		c-2.851-0.85-5.7-1.35-8.101-1.35c-3.7,0-4.5,1.1-4.5,2.7c0,4.851,14.9,3.2,14.9,15.451
		C161.648,34.152,156.648,38.752,148.197,38.752z"/>
	<path d="M25.352,79.652l-0.201,8.451H1V50.6h23.501l0.2,8.601H10.75v5.8h11.5v7.851h-11.5v6.8H25.352z"/>
	<path d="M41.6,66.101v6.5H27.648v-6.5H41.6z"/>
	<path d="M60.6,88.103H45.999V50.6h14.7c8.051,0,12.151,3.75,12.151,9.701c0,3.95-1.8,6.5-4.601,7.851v0.1
		c3.75,1.25,5.75,4.15,5.75,8.8C74,83.802,69.95,88.103,60.6,88.103z M60.3,58.801h-4.851v6.601H60.4c2.25,0,3.05-0.85,3.05-3.4
		C63.45,59.551,62.6,58.801,60.3,58.801z M60.55,72.702h-5.101v7.4h5.301c2.449,0,3.35-0.8,3.35-3.75
		C64.1,73.751,63.3,72.702,60.55,72.702z"/>
	<path d="M92.6,88.752c-10.801,0-15.701-5.7-15.701-19.401C76.898,55.601,81.599,50,92.6,50c11,0,15.701,5.601,15.701,19.352
		C108.301,83.452,103.6,88.752,92.6,88.752z M92.549,58.751c-4.1,0-5.4,1.7-5.4,10.601c0,8.95,1.351,10.75,5.501,10.75
		c4.149,0,5.399-1.85,5.399-10.75C98.049,60.401,96.799,58.751,92.549,58.751z"/>
	<path d="M127.099,88.752c-10.801,0-15.7-5.7-15.7-19.401c0-13.751,4.699-19.352,15.7-19.352S142.8,55.601,142.8,69.352
		C142.8,83.452,138.1,88.752,127.099,88.752z M127.049,58.751c-4.101,0-5.4,1.7-5.4,10.601c0,8.95,1.35,10.75,5.5,10.75
		s5.4-1.85,5.4-10.75C132.549,60.401,131.299,58.751,127.049,58.751z"/>
	<path d="M166.099,88.103l-7.051-15.251h-2.399v15.251h-9.751V50.6h9.751v14.501h2.6l6.951-14.501h10.95l-9.001,17.951l9.451,19.551
		H166.099z"/>
	<path d="M184.348,88.703c-3.5,0-5.051-1.35-5.051-4.75c0-3.05,1.551-4.8,5.051-4.8s5,1.75,5,4.8
		C189.348,86.802,187.848,88.703,184.348,88.703z"/>
</g>
</svg>
