<?xml version="1.0" encoding="utf-8"?>
<!-- Generator: Adobe Illustrator 23.1.1, SVG Export Plug-In . SVG Version: 6.00 Build 0)  -->
<!DOCTYPE svg PUBLIC "-//W3C//DTD SVG 1.1//EN" "http://www.w3.org/Graphics/SVG/1.1/DTD/svg11.dtd" [
	<!ENTITY ns_extend "http://ns.adobe.com/Extensibility/1.0/">
	<!ENTITY ns_ai "http://ns.adobe.com/AdobeIllustrator/10.0/">
	<!ENTITY ns_graphs "http://ns.adobe.com/Graphs/1.0/">
	<!ENTITY ns_vars "http://ns.adobe.com/Variables/1.0/">
	<!ENTITY ns_imrep "http://ns.adobe.com/ImageReplacement/1.0/">
	<!ENTITY ns_sfw "http://ns.adobe.com/SaveForWeb/1.0/">
	<!ENTITY ns_custom "http://ns.adobe.com/GenericCustomNamespace/1.0/">
	<!ENTITY ns_adobe_xpath "http://ns.adobe.com/XPath/1.0/">
]>
<svg version="1.1" id="Ebene_1" xmlns:x="&ns_extend;" xmlns:i="&ns_ai;" xmlns:graph="&ns_graphs;"
	 xmlns="http://www.w3.org/2000/svg" xmlns:xlink="http://www.w3.org/1999/xlink" x="0px" y="0px" viewBox="0 0 206 119.3"
	 style="enable-background:new 0 0 206 119.3;" xml:space="preserve">
<style type="text/css">
	.st0{fill-rule:evenodd;clip-rule:evenodd;}
</style>
<metadata>
	<sfw  xmlns="&ns_sfw;">
		<slices></slices>
		<sliceSourceBounds  bottomLeftOrigin="true" height="86.9" width="184.1" x="16.4" y="103.5"></sliceSourceBounds>
	</sfw>
</metadata>
<path class="st0" d="M198.2,99.6c-1.6,0-2.3-0.6-2.3-2.2c0-1.4,0.7-2.2,2.3-2.2c1.6,0,2.3,0.8,2.3,2.2
	C200.5,98.7,199.8,99.6,198.2,99.6z M188.4,99.5c-4.3,0-6-2.6-6-8.8c0-6.6,1.7-8.9,6-8.9c4.2,0,6,2.3,6,8.9
	C194.4,96.9,192.5,99.5,188.4,99.5z M188.4,85.7c-1.2,0-1.8,0.6-1.8,5c0,4.6,0.6,5.1,1.8,5.1c1.2,0,1.7-0.6,1.7-5.1
	C190.1,86.2,189.6,85.7,188.4,85.7z M174.8,99.5c-4.3,0-6-2.6-6-8.8c0-6.6,1.7-8.9,6-8.9c4.2,0,6,2.3,6,8.9
	C180.9,96.9,179,99.5,174.8,99.5z M174.9,85.7c-1.2,0-1.8,0.6-1.8,5c0,4.6,0.6,5.1,1.8,5.1c1.2,0,1.7-0.6,1.7-5.1
	C176.6,86.2,176,85.7,174.9,85.7z M170.9,50.3h-4.7l-0.7,3h-4.8l5.1-17.2h5.5l5.2,17.2h-5L170.9,50.3z M169,41.6l-0.3-1.8h-0.1
	l-0.4,1.8l-1.1,4.9h3L169,41.6z M155.6,46.1l0-1.9l-0.1,0L155,46l-2.6,7.3h-2.9L147,46l-0.6-1.8l0,0l0,1.9v7.2h-3.9V36.1h4.9l3,8.7
	l0.6,1.8h0.1l0.6-1.7l3.1-8.7h5v17.2h-4.1V46.1z M133.8,76.6c-4.4,0-6.6-2.1-6.6-6.2V59.1h4.5v11.3c0,1.5,0.6,2.2,2.1,2.2
	c1.6,0,2.1-0.6,2.1-2.2V59.1h4.5v11.4C140.4,74.5,138.2,76.6,133.8,76.6z M135.3,36.1h4.6v17.2h-4.6V36.1z M123.2,53.3V36.1h4.5
	v13.2h5.9l-0.1,4H123.2z M116.7,53.3l-3.2-7h-1.1v7h-4.5V36.1h4.5v6.7h1.2l3.2-6.7h5l-4.1,8.3l4.3,9H116.7z M116.3,25.1
	c0,3.4-2.3,5.5-6.2,5.5c-1.8,0-3.6-0.4-5-1.2l0.6-3.8c1.4,0.7,2.8,1.1,4.3,1.1c1.4,0,2-0.5,2-1.4c0-2.2-6.9-1.5-6.9-7.2
	c0-3,1.8-5.4,6.1-5.4c1.6,0,3.3,0.3,4.5,0.8l-0.5,3.7c-1.3-0.4-2.6-0.6-3.7-0.6c-1.7,0-2.1,0.5-2.1,1.2
	C109.5,20.2,116.3,19.4,116.3,25.1z M103.9,26.4l-0.1,3.9H92.7V13.1h10.8l0.1,4h-6.4v2.7h5.3v3.6h-5.3v3.1H103.9z M86.4,30.3
	l-2.3-6.2h-1.5v6.2h-4.5V13.1h6c4.4,0,6.5,1.7,6.5,5.5c0,2.3-0.8,4-2.3,4.6l3.4,7.1H86.4z M84.1,16.8h-1.6v4h1.5
	c1.3,0,1.8-0.3,1.8-2C85.9,17.2,85.5,16.8,84.1,16.8z M76.4,26.4l-0.1,3.9H65.2V13.1H76l0.1,4h-6.4v2.7h5.3v3.6h-5.3v3.1H76.4z
	 M58.3,23.5h-4.2v6.8h-4.5V13.1h4.5v6.5h4.2v-6.5h4.5v17.2h-4.5V23.5z M44.7,26.7c1.1,0,2-0.2,2.9-0.6l0.4,3.7
	c-1,0.5-2.6,0.8-3.9,0.8c-4.9,0-7.3-2.8-7.3-9c0-5.8,2.3-8.8,7.6-8.8c1.2,0,2.7,0.3,3.6,0.6l-0.4,3.8c-0.8-0.3-1.8-0.5-2.9-0.5
	c-2.6,0-3.2,1.1-3.2,4.9C41.5,25.6,42.2,26.7,44.7,26.7z M30.1,13.1h4.6v17.2h-4.6V13.1z M28.3,25.1c0,3.4-2.3,5.5-6.2,5.5
	c-1.8,0-3.6-0.4-5-1.2l0.6-3.8c1.4,0.7,2.8,1.1,4.3,1.1c1.4,0,2-0.5,2-1.4c0-2.2-6.9-1.5-6.9-7.2c0-3,1.8-5.4,6.1-5.4
	c1.6,0,3.3,0.3,4.5,0.8l-0.5,3.7c-1.3-0.4-2.6-0.6-3.7-0.6c-1.7,0-2.1,0.5-2.1,1.2C21.4,20.2,28.3,19.4,28.3,25.1z M27,36.1
	l5.2,17.2h-5l-0.7-3h-4.7l-0.7,3h-4.8l5.1-17.2H27z M25.7,46.5l-1.1-4.9l-0.3-1.8h-0.1l-0.4,1.8l-1.1,4.9H25.7z M25.6,67.8l0.6,1.8
	h0.1l0.6-1.7l3.1-8.7h5v17.2h-4.1v-7.2l0-1.9l-0.1,0L30.1,69l-2.6,7.3h-2.9L22.1,69l-0.6-1.8l0,0l0,1.9v7.2h-3.9V59.1h4.9L25.6,67.8
	z M30.1,87.6c0,2.3-0.8,4-2.3,4.6l3.4,7.1h-5.2l-2.3-6.2h-1.5v6.2h-4.5V82.1h6C27.9,82.1,30.1,83.7,30.1,87.6z M22.1,89.8h1.5
	c1.3,0,1.8-0.3,1.8-2c0-1.6-0.4-2-1.7-2h-1.6V89.8z M43.1,86h-6.4v2.7H42v3.6h-5.3v3.1h6.7l-0.1,3.9H32.2V82.1H43L43.1,86z M42,76.3
	h-4.6V59.1H42V76.3z M41.6,53.3l-2.3-6.2h-1.5v6.2h-4.5V36.1h6c4.4,0,6.5,1.7,6.5,5.5c0,2.3-0.8,4-2.3,4.6l3.4,7.1H41.6z M39.4,39.8
	h-1.6v4h1.5c1.3,0,1.8-0.3,1.8-2C41.1,40.2,40.7,39.8,39.4,39.8z M55.9,59.1l0.1,4H52v13.2h-4.6V63.1h-3.9l0.1-4H55.9z M49.9,99.3
	h-4.6V82.1h4.6V99.3z M60.8,48.2c0,3.1-1.9,5.1-6.2,5.1h-6.7V36.1h6.8c3.7,0,5.6,1.7,5.6,4.5c0,1.8-0.8,3-2.1,3.6v0
	C59.9,44.7,60.8,46.1,60.8,48.2z M54.5,39.8h-2.2v3h2.3c1,0,1.4-0.4,1.4-1.6C56,40.2,55.6,39.8,54.5,39.8z M54.6,46.2h-2.3v3.4h2.4
	c1.1,0,1.5-0.4,1.5-1.7C56.3,46.7,55.9,46.2,54.6,46.2z M61.8,91L61.8,91v-1.9l0-7.1h4v17.2h-3.2l-5.2-8l-1-1.6l0,0l0,1.9v7.7h-4
	V82.1h3.8L61.8,91z M72.9,99.3h-4.6V82.1h4.6V99.3z M82.9,81.8c1.5,0,3.2,0.3,4.5,0.8L87,86.4c-1.1-0.4-2.6-0.7-3.8-0.7
	c-2.8,0-3.5,1.1-3.5,4.9c0,4.1,0.7,5,2.9,5c0.3,0,0.7,0,1-0.1v-5.6h4v8.8c-1.2,0.6-3.1,0.9-4.9,0.9c-5.7,0-7.7-3.1-7.7-8.9
	C75,84.7,77.4,81.8,82.9,81.8z M80.3,53.3h-4.6V36.1h4.6V53.3z M68.7,76.3h-6.2V59.1h6.1c5.2,0,7.4,2.4,7.4,8.5
	C76,73.9,73.6,76.3,68.7,76.3z M68.7,63H67v9.3h1.7c2,0,2.6-0.6,2.6-4.8C71.3,63.7,70.7,63,68.7,63z M73.8,49.4l-0.1,3.9H62.6V36.1
	h10.8l0.1,4h-6.4v2.7h5.3v3.6h-5.3v3.1H73.8z M77.9,59.1h10.8l0.1,4h-6.4v2.7h5.3v3.6h-5.3v3.1h6.7L89,76.3H77.9V59.1z M100.6,86
	h-6.4v2.7h5.3v3.6h-5.3v3.1h6.7l-0.1,3.9H89.7V82.1h10.8L100.6,86z M85.8,53.3V40.1h-3.9l0.1-4h12.2l0.1,4h-3.9v13.2H85.8z
	 M108.1,76.3H104v-7.2l0-1.9l-0.1,0l-0.6,1.8l-2.6,7.3h-2.9L95.4,69l-0.6-1.8l0,0l0,1.9v7.2h-3.9V59.1h4.9l3,8.7l0.6,1.8h0.1
	l0.6-1.7l3.1-8.7h5V76.3z M106.2,48.1c0,3.4-2.3,5.5-6.2,5.5c-1.8,0-3.6-0.4-5-1.2l0.6-3.8c1.4,0.7,2.8,1.1,4.3,1.1
	c1.4,0,2-0.5,2-1.4c0-2.2-6.9-1.5-6.9-7.2c0-3,1.8-5.4,6.1-5.4c1.6,0,3.3,0.3,4.5,0.8l-0.5,3.7c-1.3-0.4-2.6-0.6-3.7-0.6
	c-1.7,0-2.1,0.5-2.1,1.2C99.4,43.2,106.2,42.4,106.2,48.1z M115.1,87.6c0,2.3-0.8,4-2.3,4.6l3.4,7.1h-5.2l-2.3-6.2h-1.5v6.2h-4.5
	V82.1h6C112.9,82.1,115.1,83.7,115.1,87.6z M107.1,89.8h1.5c1.3,0,1.8-0.3,1.8-2c0-1.6-0.4-2-1.7-2h-1.6V89.8z M115.6,59.1h4.5v13.2
	h5.9l-0.1,4h-10.3V59.1z M131.8,82.1l5.2,17.2h-5l-0.7-3h-4.7l-0.7,3h-4.8l5.1-17.2H131.8z M130.5,92.5l-1.1-4.9l-0.3-1.8H129
	l-0.4,1.8l-1.1,4.9H130.5z M149,86.1h-6.3v3h5.3l0,3.8h-5.2v6.4h-4.5V82.1h10.8L149,86.1z M147.1,76.3h-4.5V59.1h10.8l0.1,4h-6.3v3
	h5.3l0,3.8h-5.2V76.3z M166.7,59.1l0.1,4h-3.9v13.2h-4.6V63.1h-3.9l0.1-4H166.7z M165.6,66.2h6.4v3h-6.4V66.2z M164.3,82.1v14.1h2
	v3.1h-8.6v-3.1h2v-8.9l-2.6,1.4l-0.5-3.5l5-3.2H164.3z"/>
</svg>
