<svg enable-background="new 0 0 643.8 600" viewBox="0 0 643.8 600" xmlns="http://www.w3.org/2000/svg"><text fill="#fff" font-family="ClanPro-NarrBlack" font-size="12.2353" transform="matrix(.9919 0 0 1 -430.8037 362.9277)">Mehr infos</text><path clip-rule="evenodd" d="m604.5 303.7-5.2-1.3 2-9.5c-2.3-1.2-4.8-3.9-4.8-7.2 0-4.4 2.2-7.9 7.9-7.9 5.5 0 8.1 3.3 8.1 8.4 0 4.7-4.1 12.9-8 17.5zm-29.5-11.6-11.5-24.8h-3.9v24.8h-15.9v-61h15.9v23.6h4.2l11.3-23.6h17.9l-14.7 29.2 15.4 31.8zm-34.5 67.6-.3 13.8h-39.4v-61h38.3l.3 14h-22.7v9.4h18.7v12.8h-18.7v11.1h23.8zm-14.3-80.4c3.7 0 7.3-.7 10.1-2l1.5 12.9c-3.7 1.8-9.2 2.9-13.9 2.9-17.4 0-25.9-9.9-25.9-31.9 0-20.5 8.2-31.2 26.9-31.2 4.3 0 9.6 1 12.9 2.3l-1.5 13.5c-2.7-1-6.4-1.6-10.2-1.6-9 0-11.3 3.8-11.3 17.2-.1 14 2.4 17.9 11.4 17.9zm-53 95.2c-6.4 0-12.8-1.5-17.8-4.2l2-13.5c5 2.5 10 4.1 15.3 4.1 5.1 0 7-1.7 7-5 0-7.8-24.3-5.4-24.3-25.3 0-10.7 6.5-19.1 21.6-19.1 5.6 0 11.7 1.1 16.1 2.9l-1.8 13.3c-4.6-1.4-9.3-2.2-13.2-2.2-6 0-7.3 1.8-7.3 4.4 0 7.9 24.3 5.2 24.3 25.1 0 12-8.2 19.5-21.9 19.5zm-4.7-81.4c-15.6 0-23.6-7.5-23.6-21.8v-40.3h16v40c0 5.5 2.1 7.9 7.6 7.9s7.4-2.3 7.4-7.9v-40h15.9v40.3c0 14.3-7.6 21.8-23.3 21.8zm-44.5-1-8.1-21.8h-5.4v21.8h-15.9v-61h21.1c15.5 0 23.1 5.9 23.1 19.6 0 8.1-2.9 14.2-8.3 16.4l11.9 25zm-8-47.9h-5.5v14.1h5.5c4.6 0 6.3-1.1 6.3-7.1-.1-5.5-1.6-7-6.3-7zm-53.9 47.9h-22.1v-61h21.8c18.6 0 26.2 8.6 26.2 30.2-.1 22.3-8.7 30.8-25.9 30.8zm-.3-47h-5.9v33h5.9c7 0 9.4-2.1 9.4-17.1 0-13.4-2.2-15.9-9.4-15.9zm16 86.9c0 8.1-2.9 14.2-8.3 16.4l11.9 25h-18.4l-8.1-21.8h-5.4v21.8h-15.9v-61h21.1c15.5 0 23.1 5.9 23.1 19.6zm-28.3 7.7h5.5c4.6 0 6.3-1.1 6.3-7.1 0-5.5-1.5-7-6.2-7h-5.5v14.1zm-45.4 14.8h-5.1v19h-15.9v-61h20.9c17 0 23.7 6.6 23.7 21.5.1 13.1-6.5 20.5-23.6 20.5zm0-28.8h-5.1v16.2h5.1c5.2 0 7.2-1.2 7.2-8.1-.1-6.6-1.6-8.1-7.2-8.1zm-4.8-33.6-8.1-21.8h-5.4v21.8h-15.9v-61h21.1c15.5 0 23.1 5.9 23.1 19.6 0 8.1-2.9 14.2-8.3 16.4l11.9 25zm-8-47.9h-5.5v14.1h5.5c4.6 0 6.3-1.1 6.3-7.1-.1-5.5-1.7-7-6.3-7zm-27.6 34.1-.3 13.8h-39.4v-61h38.3l.3 14h-22.7v9.4h18.7v12.8h-18.7v11.1h23.8zm-6.1 48.1h-22.7v9.4h18.7v12.8h-18.7v11.1h23.8l-.3 13.8h-39.4v-61h38.3zm-57.8-58.3h-14.8v23.9h-15.9v-61h15.9v22.9h14.8v-22.9h16v61h-16zm-30.8 91.6-.3 13.8h-39.4v-61h38.3l.3 14h-22.7v9.4h18.8v12.8h-18.7v11.1h23.7zm-32.2-66.6c-17.6 0-25.6-9.3-25.6-31.6 0-22.4 7.7-31.5 25.6-31.5s25.6 9.1 25.6 31.5c0 23-7.6 31.6-25.6 31.6zm0-48.8c-6.7 0-8.8 2.8-8.8 17.3 0 14.6 2.2 17.5 9 17.5s8.8-3 8.8-17.5c-.1-14.6-2.1-17.3-9-17.3zm-48.1 23.8h-14.9v23.9h-15.9v-61h15.9v22.9h14.8v-22.9h16v61h-16v-23.9zm9.7 58.6h-13.8v46.8h-16.2v-46.8h-13.9l.3-14.2h43.3zm22 46.8h-16.4v-61h16.4zm93.2-46.8h-22.5v10.7h18.7l-.1 13.5h-18.6v22.5h-16v-61h38.2zm210.4-.3h-22.7v9.4h18.7v12.8h-18.7v11.1h23.8l-.3 13.8h-39.4v-61h38.3zm24.2 47.1h-16.4v-61h16.4zm111.5-18.3h-11.6l-2.3-42.8h16.1zm-5.5 5.1c5.5 0 8 2.7 8 7.2 0 4.1-2.4 7-8 7-5.5 0-7.9-2-7.9-7 0-4.5 2.4-7.2 7.9-7.2z" fill-rule="evenodd"/></svg>