<?xml version="1.0" encoding="utf-8"?>
<!-- Generator: Adobe Illustrator 27.2.0, SVG Export Plug-In . SVG Version: 6.00 Build 0)  -->
<svg version="1.1" id="Ebene_1" xmlns="http://www.w3.org/2000/svg" xmlns:xlink="http://www.w3.org/1999/xlink" x="0px" y="0px"
	 viewBox="0 0 359.05 120.38" style="enable-background:new 0 0 359.05 120.38;" xml:space="preserve">
<style type="text/css">
	.st0{fill:#FFFFFF;}
	.st1{fill:#238C96;}
</style>
<g>
	<g>
		<path d="M19.84,76.35l0.08,0.24h18.72l-0.32,13.52H0.64v-9.76c12.4-13.84,22.48-23.76,22.48-31.68c0-3.6-2.08-5.68-6.88-5.68
			c-4.56,0-8.72,2.08-12.64,4.88L0,35.47c4.8-3.52,11.2-6,19.28-6c13.12,0,19.68,7.12,19.68,17.68
			C38.96,56.91,31.2,65.63,19.84,76.35z"/>
		<path d="M64.88,90.91c-6.4,0-12.4-1.36-17.36-4.16l2.56-11.84c4.4,2.16,8,3.28,13.12,3.28c6.4,0,8.08-2.48,8.08-7.68
			c0-4.72-2.56-6.4-8-6.4c-3.12,0-6.96,0.48-9.92,1.52l-4.96-5.76l2.16-29.76H83.2l0.56,13.28H62.88l-0.56,8.88
			c1.84-0.32,3.76-0.48,5.92-0.48c11.6,0,18.32,5.84,18.32,17.52C86.56,82.75,80,90.91,64.88,90.91z"/>
		<path d="M110.16,57.15c-8.48,0-12.32-4.8-12.32-13.84c0-9.6,3.84-13.84,12.4-13.84c8,0,12.4,3.92,12.4,13.84
			C122.64,52.51,118.08,57.15,110.16,57.15z M144.48,40.75l-32.4,46l-8.24-6.56l32.48-46L144.48,40.75z M110.24,38.35
			c-1.84,0-2.72,0.96-2.72,4.96c0,3.92,0.88,4.88,2.72,4.88c1.84,0,2.72-0.88,2.72-4.88C112.96,39.31,112,38.35,110.24,38.35z
			 M138.96,90.91c-8.48,0-12.32-4.8-12.32-13.76c0-9.6,3.84-14.08,12.4-14.08c8.08,0,12.4,4.16,12.4,14.08
			C151.44,86.27,146.96,90.91,138.96,90.91z M139.04,72.43c-1.84,0-2.72,0.88-2.72,4.72s0.88,4.72,2.72,4.72
			c1.84,0,2.8-0.8,2.8-4.72C141.84,73.31,140.88,72.43,139.04,72.43z"/>
	</g>
	<g>
		<path d="M190.64,14.17l4.67,9.82h-7.23l-3.2-8.58h-2.11V24h-6.24V0h8.29c6.08,0,9.09,2.3,9.09,7.71
			C193.9,10.91,192.75,13.28,190.64,14.17z M184.94,5.18h-2.18v5.54h2.14c1.82,0,2.46-0.45,2.46-2.78
			C187.37,5.76,186.76,5.18,184.94,5.18z"/>
		<path d="M209.26,19.81h-6.53L201.8,24h-6.62l7.1-24h7.65l7.23,24h-6.98L209.26,19.81z M205.45,7.71l-1.54,6.88h4.19l-1.54-6.88
			l-0.48-2.56H206L205.45,7.71z"/>
		<path d="M228.11,24h-9.34V0h9.41c5.15,0,7.78,2.4,7.78,6.21c0,2.53-1.15,4.16-2.94,5.02v0.06c2.4,0.8,3.68,2.66,3.68,5.63
			C236.68,21.25,234.09,24,228.11,24z M227.92,5.25h-3.1v4.22h3.17c1.44,0,1.95-0.54,1.95-2.18C229.93,5.73,229.39,5.25,227.92,5.25
			z M228.08,14.14h-3.26v4.74h3.39c1.57,0,2.14-0.51,2.14-2.4C230.35,14.81,229.84,14.14,228.08,14.14z"/>
		<path d="M251.12,19.81h-6.53L243.66,24h-6.62l7.1-24h7.65l7.23,24h-6.98L251.12,19.81z M247.31,7.71l-1.54,6.88h4.19l-1.54-6.88
			l-0.48-2.56h-0.1L247.31,7.71z"/>
		<path d="M268.94,5.6V24h-6.37V5.6h-5.44l0.13-5.6h16.99l0.13,5.6H268.94z"/>
		<path d="M287.27,5.6V24h-6.37V5.6h-5.44L275.6,0h16.99l0.13,5.6H287.27z"/>
		<path d="M314.22,19.81h-6.53L306.76,24h-6.62l7.1-24h7.65l7.23,24h-6.98L314.22,19.81z M310.41,7.71l-1.54,6.88h4.19l-1.54-6.88
			l-0.48-2.56h-0.1L310.41,7.71z"/>
		<path d="M340.91,15.84c0,5.63-3.01,8.58-9.15,8.58s-9.25-2.94-9.25-8.58V0h6.27v15.71c0,2.14,0.83,3.1,2.98,3.1
			c2.18,0,2.91-0.9,2.91-3.1V0h6.24V15.84z"/>
		<path d="M350.22,5.6v4.22h7.33l-0.03,5.31h-7.3V24h-6.27V0h15.01l0.1,5.6H350.22z"/>
		<path d="M184.75,48.54h-1.98V56h-6.24V32h8.22c6.66,0,9.31,2.59,9.31,8.45C194.06,45.63,191.47,48.54,184.75,48.54z M184.75,37.22
			h-1.98v6.37h1.98c2.05,0,2.82-0.48,2.82-3.17C187.56,37.82,186.96,37.22,184.75,37.22z"/>
		<path d="M206.89,51.81h-6.53L199.44,56h-6.62l7.1-24h7.65l7.23,24h-6.98L206.89,51.81z M203.08,39.71l-1.54,6.88h4.19l-1.54-6.88
			l-0.48-2.56h-0.1L203.08,39.71z"/>
		<path d="M222.73,56.41c-2.53,0-5.02-0.58-6.98-1.66l0.8-5.31c1.95,0.99,3.94,1.6,6.02,1.6c1.98,0,2.75-0.67,2.75-1.95
			c0-3.07-9.54-2.11-9.54-9.95c0-4.19,2.56-7.52,8.48-7.52c2.21,0,4.58,0.42,6.3,1.15l-0.7,5.22c-1.82-0.54-3.65-0.86-5.18-0.86
			c-2.37,0-2.88,0.7-2.88,1.73c0,3.1,9.54,2.05,9.54,9.89C231.34,53.47,228.14,56.41,222.73,56.41z"/>
		<path d="M239.44,56.41c-2.53,0-5.02-0.58-6.98-1.66l0.8-5.31c1.95,0.99,3.94,1.6,6.02,1.6c1.98,0,2.75-0.67,2.75-1.95
			c0-3.07-9.54-2.11-9.54-9.95c0-4.19,2.56-7.52,8.48-7.52c2.21,0,4.58,0.42,6.3,1.15l-0.7,5.22c-1.82-0.54-3.65-0.86-5.18-0.86
			c-2.37,0-2.88,0.7-2.88,1.73c0,3.1,9.54,2.05,9.54,9.89C248.04,53.47,244.84,56.41,239.44,56.41z"/>
		<path d="M265.87,50.59L265.74,56h-15.46V32h15.04l0.13,5.5h-8.93v3.71h7.36v5.02h-7.36v4.35H265.87z"/>
		<path d="M282.31,56l-7.17-11.07l-1.34-2.21l-0.06,0.03l0.03,2.59V56h-5.5V32h5.25l7.71,12.45l0.06-0.03l-0.06-2.56l0.03-9.86h5.5
			v24H282.31z"/>
		<path d="M298.7,56h-8.67V32h8.54c7.3,0,10.27,3.39,10.27,11.87C308.84,52.67,305.45,56,298.7,56z M298.6,37.54h-2.34v12.99h2.34
			c2.75,0,3.68-0.83,3.68-6.72C302.28,38.5,301.42,37.54,298.6,37.54z"/>
		<path d="M327.05,50.59L326.92,56h-15.46V32h15.04l0.13,5.5h-8.93v3.71h7.36v5.02h-7.36v4.35H327.05z"/>
		<path d="M335.72,56.41c-2.53,0-5.02-0.58-6.98-1.66l0.8-5.31c1.95,0.99,3.94,1.6,6.02,1.6c1.98,0,2.75-0.67,2.75-1.95
			c0-3.07-9.54-2.11-9.54-9.95c0-4.19,2.56-7.52,8.48-7.52c2.21,0,4.58,0.42,6.3,1.15l-0.7,5.22c-1.82-0.54-3.65-0.86-5.18-0.86
			c-2.37,0-2.88,0.7-2.88,1.73c0,3.1,9.54,2.05,9.54,9.89C344.33,53.47,341.13,56.41,335.72,56.41z"/>
		<path d="M175.66,88v-4.06l7.65-12.16l1.41-2.11l-0.03-0.06h-8.83l0.16-5.6h16.03v4.48l-7.39,11.78l-1.41,2.08l0.03,0.1h8.83
			l-0.1,5.57H175.66z"/>
		<path d="M212.49,79.84c0,5.63-3.01,8.58-9.15,8.58s-9.25-2.94-9.25-8.58V64h6.27v15.71c0,2.14,0.83,3.1,2.98,3.1
			c2.18,0,2.91-0.9,2.91-3.1V64h6.24V79.84z"/>
		<path d="M224.88,88h-9.34V64h9.41c5.15,0,7.78,2.4,7.78,6.21c0,2.53-1.15,4.16-2.94,5.02v0.06c2.4,0.8,3.68,2.66,3.68,5.63
			C233.45,85.25,230.86,88,224.88,88z M224.68,69.25h-3.1v4.22h3.17c1.44,0,1.95-0.54,1.95-2.18
			C226.7,69.73,226.16,69.25,224.68,69.25z M224.84,78.14h-3.26v4.74h3.39c1.57,0,2.14-0.51,2.14-2.4
			C227.12,78.82,226.6,78.14,224.84,78.14z"/>
		<path d="M251.53,82.59L251.4,88h-15.46V64h15.04l0.13,5.5h-8.93v3.71h7.36v5.02h-7.36v4.35H251.53z"/>
		<path d="M266,88v-9.41h-5.82V88h-6.24V64h6.24v8.99H266V64h6.27v24H266z"/>
		<path d="M284.91,88.41c-6.91,0-10.05-3.65-10.05-12.42c0-8.8,3.01-12.38,10.05-12.38S294.95,67.2,294.95,76
			C294.95,85.02,291.95,88.41,284.91,88.41z M281.87,62.85c-1.57,0-2.37-0.61-2.37-2.14c0-1.44,0.8-2.21,2.37-2.21
			c1.63,0,2.37,0.77,2.37,2.21C284.24,62.11,283.5,62.85,281.87,62.85z M284.88,69.22c-2.62,0-3.46,1.09-3.46,6.78
			c0,5.73,0.86,6.88,3.52,6.88s3.46-1.18,3.46-6.88C288.4,70.27,287.6,69.22,284.88,69.22z M287.98,62.85
			c-1.57,0-2.37-0.61-2.37-2.14c0-1.44,0.8-2.21,2.37-2.21c1.63,0,2.37,0.77,2.37,2.21C290.35,62.11,289.61,62.85,287.98,62.85z"/>
		<path d="M311.69,78.17l4.67,9.82h-7.23l-3.2-8.58h-2.11V88h-6.24V64h8.29c6.08,0,9.09,2.3,9.09,7.71
			C314.95,74.91,313.8,77.28,311.69,78.17z M306,69.18h-2.18v5.54h2.14c1.82,0,2.46-0.45,2.46-2.78
			C308.43,69.76,307.82,69.18,306,69.18z"/>
		<path d="M192.11,114.59l-0.13,5.41h-15.46V96h15.04l0.13,5.5h-8.93v3.71h7.36v5.02h-7.36v4.35H192.11z"/>
		<path d="M208.62,110.17l4.67,9.82h-7.23l-3.2-8.58h-2.11V120h-6.24V96h8.29c6.08,0,9.09,2.3,9.09,7.71
			C211.88,106.91,210.73,109.28,208.62,110.17z M202.92,101.18h-2.18v5.54h2.14c1.82,0,2.46-0.45,2.46-2.78
			C205.36,101.76,204.75,101.18,202.92,101.18z"/>
		<path d="M226.92,120v-9.41h-5.82V120h-6.24V96h6.24v8.99h5.82V96h6.27v24H226.92z"/>
		<path d="M248.81,115.81h-6.53l-0.93,4.19h-6.62l7.1-24h7.65l7.23,24h-6.98L248.81,115.81z M245,103.71l-1.54,6.88h4.19l-1.54-6.88
			l-0.48-2.56h-0.1L245,103.71z"/>
		<path d="M272.78,114.43l-0.16,5.57h-14.3V96h6.3v18.43H272.78z"/>
		<path d="M282.54,101.6V120h-6.37v-18.4h-5.44l0.13-5.6h16.99l0.13,5.6H282.54z"/>
		<path d="M305.48,114.59l-0.13,5.41H289.9V96h15.04l0.13,5.5h-8.93v3.71h7.36v5.02h-7.36v4.35H305.48z"/>
		<path d="M321.93,120l-7.17-11.07l-1.34-2.21l-0.06,0.03l0.03,2.59V120h-5.5V96h5.25l7.71,12.45l0.06-0.03l-0.06-2.56l0.03-9.86
			h5.5v24H321.93z"/>
		<path d="M332.2,120.38c-2.24,0-3.23-0.86-3.23-3.04c0-1.95,0.99-3.07,3.23-3.07c2.24,0,3.2,1.12,3.2,3.07
			C335.4,119.17,334.44,120.38,332.2,120.38z"/>
		<path d="M343.82,95.07l0.42,3.1l2.94-0.7l0.93,2.62l-2.85,1.38l1.63,2.72l-2.02,1.54l-2.37-2.3l-2.43,2.34l-2.08-1.47l1.57-2.82
			l-2.85-1.34l0.99-2.66l2.98,0.7l0.45-3.1H343.82z"/>
	</g>
</g>
</svg>
