<?xml version="1.0" encoding="utf-8"?>
<!-- Generator: Adobe Illustrator 16.0.0, SVG Export Plug-In . SVG Version: 6.00 Build 0)  -->
<!DOCTYPE svg PUBLIC "-//W3C//DTD SVG 1.1//EN" "http://www.w3.org/Graphics/SVG/1.1/DTD/svg11.dtd">
<svg version="1.1" id="Ebene_1" xmlns="http://www.w3.org/2000/svg" xmlns:xlink="http://www.w3.org/1999/xlink" x="0px" y="0px"
	 width="202.938px" height="160.958px" viewBox="0 0 202.938 160.958" enable-background="new 0 0 202.938 160.958"
	 xml:space="preserve">
<g>
	<path d="M15.455,20.511c0,7.523-3.829,9.882-9.848,9.882c-1.915,0-3.453-0.342-4.685-0.889l0.342-5.574
		c0.718,0.376,1.847,0.615,3.181,0.615c2.804,0,4.172-1.094,4.172-4.172V4.269h6.838V20.511z"/>
	<path d="M35.593,24.136l-0.137,5.779H18.939V4.269h16.072l0.137,5.881h-9.541v3.967h7.865v5.368h-7.865v4.651H35.593z"/>
	<path d="M49.336,10.252v19.662h-6.805V10.252h-5.814l0.137-5.984h18.158l0.137,5.984H49.336z"/>
	<path d="M56.273,29.915v-4.343l8.172-12.994l1.505-2.257l-0.034-0.068h-9.438l0.17-5.984h17.133v4.787l-7.899,12.583l-1.505,2.223
		l0.034,0.103h9.438l-0.104,5.95H56.273z"/>
	<path d="M87.762,10.252v19.662h-6.805V10.252h-5.813l0.137-5.984h18.157l0.137,5.984H87.762z"/>
	<path d="M11.078,70.94H1.812V45.294h9.129c7.797,0,10.977,3.625,10.977,12.686C21.918,67.384,18.294,70.94,11.078,70.94z
		 M10.977,51.21H8.48v13.883h2.496c2.94,0,3.932-0.889,3.932-7.181C14.908,52.236,13.985,51.21,10.977,51.21z"/>
	<path d="M24.991,45.294h6.873V70.94h-6.873V45.294z"/>
	<path d="M50.703,60.442l4.992,10.498h-7.728l-3.419-9.164h-2.258v9.164h-6.668V45.294h8.857c6.496,0,9.711,2.462,9.711,8.241
		C54.191,56.955,52.96,59.485,50.703,60.442z M44.617,50.834h-2.326v5.916h2.291c1.949,0,2.633-0.479,2.633-2.975
		C47.215,51.449,46.566,50.834,44.617,50.834z"/>
	<path d="M74.02,65.162l-0.137,5.779H57.367V45.294h16.07l0.137,5.881h-9.539v3.967h7.864v5.368h-7.864v4.651H74.02z"/>
	<path d="M89.711,70.94l-4.822-10.43h-1.641v10.43H76.58V45.294h6.668v9.917h1.777l4.754-9.917h7.488L91.113,57.57l6.463,13.37
		H89.711z"/>
	<path d="M110.633,51.278V70.94h-6.805V51.278h-5.812l0.137-5.984h18.157l0.137,5.984H110.633z"/>
	<path d="M125.264,70.94v-4.343l8.172-12.994l1.505-2.257l-0.034-0.068h-9.438l0.17-5.984h17.133v4.787l-7.899,12.583l-1.505,2.223
		l0.034,0.103h9.438l-0.104,5.95H125.264z"/>
	<path d="M164.617,62.221c0,6.019-3.215,9.164-9.779,9.164c-6.566,0-9.883-3.146-9.883-9.164V45.294h6.702v16.79
		c0,2.291,0.89,3.317,3.181,3.317c2.325,0,3.111-0.958,3.111-3.317v-16.79h6.668V62.221z"/>
	<path d="M175.213,45.294l4.514,12.959l0.855,2.633h0.102l0.855-2.599l4.582-12.994h7.387V70.94h-6.121V60.203l0.068-2.77
		l-0.104-0.034l-0.854,2.667l-3.797,10.874h-4.342l-3.762-10.84l-0.855-2.667l-0.068,0.034l0.035,2.77V70.94h-5.848V45.294H175.213z
		"/>
	<path d="M20.242,86.32l2.702,16.037l0.41,2.736h0.103l0.309-2.736l2.291-16.037h6.668l-5.369,25.646h-8.002L16.96,96.408
		l-0.342-2.77h-0.103l-0.376,2.77l-2.359,15.559H5.778L0.41,86.32h6.976l2.257,16.174l0.342,2.736h0.103l0.376-2.736l2.668-16.174
		H20.242z"/>
	<path d="M51.456,106.188l-0.137,5.779H34.803V86.32h16.072l0.137,5.881h-9.541v3.967h7.865v5.368h-7.865v4.651H51.456z"/>
	<path d="M64.002,111.966h-9.984V86.32H64.07c5.506,0,8.309,2.564,8.309,6.634c0,2.701-1.23,4.445-3.146,5.369v0.068
		c2.565,0.854,3.933,2.838,3.933,6.018C73.166,109.025,70.396,111.966,64.002,111.966z M63.797,91.928h-3.317v4.514h3.386
		c1.539,0,2.086-0.582,2.086-2.325C65.951,92.441,65.369,91.928,63.797,91.928z M63.968,101.434h-3.488v5.061h3.625
		c1.675,0,2.291-0.547,2.291-2.564C66.396,102.152,65.848,101.434,63.968,101.434z"/>
	<path d="M76.102,86.32h6.873v25.646h-6.873V86.32z"/>
	<path d="M101.745,111.966l-7.659-11.832l-1.437-2.359l-0.068,0.034l0.034,2.77v11.387h-5.881V86.32h5.607l8.24,13.302l0.068-0.034
		l-0.068-2.736l0.035-10.532h5.881v25.646H101.745z"/>
	<path d="M123.215,107.487h-6.976l-0.991,4.479h-7.078l7.591-25.646h8.173l7.728,25.646h-7.454L123.215,107.487z M119.146,94.561
		l-1.643,7.352h4.48l-1.642-7.352l-0.513-2.735h-0.103L119.146,94.561z"/>
	<path d="M148.445,101.468l4.993,10.498h-7.728l-3.42-9.164h-2.257v9.164h-6.668V86.32h8.856c6.497,0,9.711,2.462,9.711,8.241
		C151.934,97.98,150.703,100.511,148.445,101.468z M142.359,91.86h-2.325v5.916h2.291c1.949,0,2.633-0.479,2.633-2.975
		C144.958,92.475,144.309,91.86,142.359,91.86z"/>
	<path d="M15.045,148.512H8.069l-0.991,4.479H0l7.591-25.646h8.173l7.728,25.646h-7.454L15.045,148.512z M10.977,135.586
		l-1.643,7.352h4.48l-1.642-7.352l-0.513-2.735h-0.103L10.977,135.586z"/>
	<path d="M40.207,152.992l-7.659-11.832l-1.437-2.359l-0.068,0.034l0.035,2.77v11.387h-5.882v-25.646h5.608l8.24,13.302l0.068-0.034
		l-0.068-2.736l0.034-10.532h5.882v25.646H40.207z"/>
	<path d="M55.795,127.346l4.514,12.959l0.855,2.633h0.103l0.854-2.599l4.582-12.994h7.387v25.646h-6.121v-10.737l0.068-2.77
		l-0.103-0.034l-0.854,2.667l-3.796,10.874h-4.343l-3.762-10.84l-0.854-2.667l-0.068,0.034l0.034,2.77v10.703h-5.848v-25.646H55.795
		z"/>
	<path d="M94.225,147.213l-0.137,5.779H77.572v-25.646h16.07l0.137,5.881H84.24v3.967h7.864v5.368H84.24v4.651H94.225z"/>
	<path d="M112.242,147.042l-0.172,5.95H96.785v-25.646h6.736v19.696H112.242z"/>
	<path d="M123.693,152.992h-9.268v-25.646h9.131c7.796,0,10.977,3.625,10.977,12.686
		C134.533,149.436,130.908,152.992,123.693,152.992z M123.59,133.261h-2.496v13.883h2.496c2.941,0,3.934-0.889,3.934-7.181
		C127.523,134.287,126.6,133.261,123.59,133.261z"/>
	<path d="M153.985,147.213l-0.137,5.779h-16.517v-25.646h16.072l0.137,5.881H144v3.967h7.865v5.368H144v4.651H153.985z"/>
	<path d="M171.557,152.992l-7.659-11.832l-1.437-2.359l-0.068,0.034l0.035,2.77v11.387h-5.882v-25.646h5.608l8.24,13.302
		l0.068-0.034l-0.068-2.736l0.034-10.532h5.882v25.646H171.557z"/>
	<path d="M180.443,145.332l-0.958-17.986h6.736l-0.923,17.986H180.443z M182.974,153.402c-2.292,0-3.317-0.854-3.317-2.94
		c0-1.881,1.025-3.009,3.317-3.009c2.325,0,3.351,1.128,3.351,3.009C186.324,152.206,185.299,153.402,182.974,153.402z"/>
</g>
</svg>
