<?xml version="1.0" encoding="utf-8"?>
<!-- Generator: Adobe Illustrator 16.0.0, SVG Export Plug-In . SVG Version: 6.00 Build 0)  -->
<!DOCTYPE svg PUBLIC "-//W3C//DTD SVG 1.1//EN" "http://www.w3.org/Graphics/SVG/1.1/DTD/svg11.dtd">
<svg version="1.1" id="Ebene_1" xmlns="http://www.w3.org/2000/svg" xmlns:xlink="http://www.w3.org/1999/xlink" x="0px" y="0px"
	 width="74.528px" height="48.165px" viewBox="0 0 74.528 48.165" enable-background="new 0 0 74.528 48.165" xml:space="preserve">
<g>
	<path d="M3.522,11.557c-1.117,0-2.027-0.299-2.769-0.754L0.91,9.997c0.754,0.494,1.586,0.754,2.612,0.754
		c1.548,0,2.341-0.754,2.341-2.015c0-2.613-5.005-1.469-5.005-4.68c0-1.469,0.936-2.587,3.029-2.587c0.949,0,1.807,0.195,2.496,0.52
		L6.228,2.756C5.486,2.444,4.771,2.262,3.927,2.262c-1.613,0-2.25,0.819-2.25,1.742c0,2.483,5.019,1.313,5.019,4.68
		C6.695,10.465,5.603,11.557,3.522,11.557z"/>
	<path d="M13.065,4.732c-0.481-0.234-1.08-0.403-1.69-0.403c-1.794,0-2.496,0.923-2.496,3.12c0,2.483,0.845,3.367,2.47,3.367
		c0.65,0,1.287-0.182,1.769-0.533l0.077,0.689c-0.454,0.338-1.195,0.572-1.988,0.572c-2.105,0-3.146-1.196-3.146-4.095
		c0-2.613,0.963-3.874,3.16-3.874c0.715,0,1.403,0.182,1.91,0.429L13.065,4.732z"/>
	<path d="M20.032,11.375V6.188c0-1.183-0.637-1.859-2.002-1.859c-0.949,0-1.754,0.468-2.093,1.053v5.993h-0.793V1.04l0.793-0.065
		v2.522l-0.013,1.04L15.95,4.55c0.533-0.637,1.353-0.988,2.289-0.988c1.689,0,2.586,0.923,2.586,2.626v5.187H20.032z"/>
	<path d="M28.054,11.375V6.201c0-1.313-0.729-1.872-2.027-1.872c-0.755,0-1.664,0.364-2.094,1.04v6.006h-0.78V3.718l0.56-0.052
		l0.143,0.923h0.039c0.52-0.637,1.404-1.014,2.327-1.014c1.625,0,2.612,0.845,2.612,2.613v5.187H28.054z"/>
	<path d="M30.667,7.28c0-2.405,1.027-3.705,3.055-3.705c1.729,0,2.938,1.053,2.938,3.536c0,0.117-0.013,0.286-0.026,0.39h-5.161
		c0.039,2.457,0.858,3.289,2.691,3.289c0.806,0,1.469-0.195,2.119-0.546l0.104,0.689c-0.664,0.377-1.404,0.598-2.302,0.598
		C31.642,11.531,30.667,10.244,30.667,7.28z M35.933,6.942c-0.027-1.937-0.937-2.665-2.211-2.665c-1.508,0-2.184,0.897-2.262,2.665
		H35.933z"/>
	<path d="M38.909,11.375V1.026l0.779-0.052v10.4H38.909z"/>
	<path d="M42.757,11.375V1.026l0.779-0.052v10.4H42.757z"/>
	<path d="M57.616,11.505c-0.676-0.416-1.392-0.949-2.08-1.547c-0.742,0.897-1.729,1.573-3.017,1.573
		c-1.819,0-2.522-1.157-2.522-2.496c0-1.417,0.897-2.366,1.885-3.146c-0.545-0.858-0.87-1.677-0.87-2.314
		c0-1.183,0.649-2.106,2.196-2.106c1.313,0,2.002,0.676,2.002,1.625c0,1.17-1.039,1.95-2.353,2.925
		c0.677,0.937,1.587,1.938,2.574,2.834c0.481-0.754,0.806-1.612,0.937-2.353l0.676-0.013c-0.078,0.741-0.43,1.859-1.066,2.86
		c0.637,0.546,1.287,1.04,1.924,1.443L57.616,11.505z M54.977,9.477c-1.015-0.936-1.976-1.989-2.69-2.99
		c-0.82,0.676-1.496,1.443-1.496,2.509c0,1.118,0.768,1.768,1.847,1.768C53.546,10.764,54.353,10.231,54.977,9.477z M52.48,5.447
		c1.079-0.793,1.95-1.417,1.964-2.301c0-0.637-0.469-1.027-1.262-1.027c-0.818,0-1.43,0.533-1.43,1.456
		C51.753,4.069,52.025,4.719,52.48,5.447z"/>
	<path d="M0.741,24.18c0-2.405,1.027-3.705,3.055-3.705c1.729,0,2.938,1.053,2.938,3.536c0,0.117-0.013,0.286-0.026,0.39H1.547
		c0.039,2.457,0.858,3.289,2.691,3.289c0.806,0,1.469-0.195,2.119-0.546l0.104,0.689c-0.664,0.377-1.404,0.598-2.302,0.598
		C1.716,28.431,0.741,27.144,0.741,24.18z M6.007,23.842c-0.027-1.937-0.937-2.665-2.211-2.665c-1.508,0-2.184,0.897-2.262,2.665
		H6.007z"/>
	<path d="M9.45,19.032c-0.389,0-0.61-0.13-0.61-0.546c0-0.351,0.222-0.546,0.61-0.546c0.391,0,0.611,0.195,0.611,0.546
		C10.062,18.862,9.841,19.032,9.45,19.032z M9.048,28.275v-7.631l0.793-0.065v7.696H9.048z"/>
	<path d="M17.589,28.275v-5.174c0-1.313-0.728-1.872-2.027-1.872c-0.754,0-1.664,0.364-2.094,1.04v6.006h-0.779v-7.657l0.559-0.052
		l0.143,0.923h0.039c0.521-0.637,1.404-1.014,2.328-1.014c1.625,0,2.613,0.845,2.613,2.613v5.187H17.589z"/>
	<path d="M21.203,28.275v-7.046h-1.235v-0.624h1.235v-0.377c0-1.365,0.715-2.288,2.444-2.288c0.377,0,0.818,0.065,1.078,0.156
		l-0.064,0.559c-0.26-0.065-0.572-0.117-0.91-0.117c-1.223,0-1.755,0.637-1.755,1.703v0.364h2.158v0.624h-2.158v7.046H21.203z"/>
	<path d="M30.069,27.196l-0.039-0.013c-0.416,0.729-1.326,1.209-2.393,1.209c-1.391,0-2.353-0.689-2.353-2.405
		c0-1.456,0.897-2.288,2.769-2.288c0.689,0,1.392,0.143,1.912,0.338v-0.949c0-1.456-0.611-1.924-1.963-1.924
		c-0.793,0-1.509,0.143-2.172,0.481l-0.091-0.689c0.728-0.338,1.508-0.507,2.392-0.507c1.873,0,2.627,0.767,2.627,2.756v5.07H30.16
		L30.069,27.196z M29.966,24.661c-0.195-0.143-0.871-0.364-1.795-0.364c-1.482,0-2.132,0.611-2.132,1.677
		c0,1.3,0.78,1.742,1.808,1.742c1.117,0,2.119-0.78,2.119-1.521V24.661z"/>
	<path d="M37.583,21.632c-0.48-0.234-1.079-0.403-1.689-0.403c-1.795,0-2.496,0.923-2.496,3.12c0,2.483,0.845,3.367,2.47,3.367
		c0.649,0,1.287-0.182,1.769-0.533l0.078,0.689c-0.455,0.338-1.197,0.572-1.99,0.572c-2.105,0-3.146-1.196-3.146-4.095
		c0-2.613,0.962-3.874,3.159-3.874c0.715,0,1.404,0.182,1.91,0.429L37.583,21.632z"/>
	<path d="M44.551,28.275v-5.187c0-1.183-0.638-1.859-2.002-1.859c-0.949,0-1.755,0.468-2.093,1.053v5.993h-0.793V17.939l0.793-0.065
		v2.522l-0.014,1.04l0.026,0.013c0.532-0.637,1.353-0.988,2.288-0.988c1.689,0,2.587,0.923,2.587,2.626v5.187H44.551z"/>
	<path d="M58.228,20.604l-3.068,7.67h-0.937l-3.081-7.67h0.896l2.275,5.967l0.364,0.988h0.039l0.351-0.988l2.275-5.967H58.228z"/>
	<path d="M62.581,28.444c-2.235,0-3.236-1.118-3.236-3.991c0-2.847,1.014-3.978,3.236-3.978c2.25,0,3.199,1.131,3.199,3.978
		C65.78,27.326,64.831,28.444,62.581,28.444z M62.581,27.755c1.717,0,2.38-0.91,2.38-3.302c0-2.379-0.663-3.276-2.38-3.276
		c-1.729,0-2.418,0.897-2.418,3.276C60.163,26.858,60.853,27.755,62.581,27.755z"/>
	<path d="M72.657,28.275v-5.174c0-1.313-0.729-1.872-2.029-1.872c-0.754,0-1.664,0.364-2.092,1.04v6.006h-0.781v-7.657l0.56-0.052
		l0.144,0.923h0.039c0.52-0.637,1.404-1.014,2.326-1.014c1.625,0,2.613,0.845,2.613,2.613v5.187H72.657z"/>
	<path d="M0.715,45.175V44.59l4.888-7.476l0.586-0.845l-0.014-0.026H0.884l0.039-0.819h6.305v0.676l-4.849,7.384l-0.585,0.832
		l0.014,0.039h5.434l-0.039,0.819H0.715z"/>
	<path d="M14.651,42.757c0,1.612-0.924,2.574-2.848,2.574c-1.91,0-2.834-0.975-2.834-2.574v-5.252h0.78v5.226
		c0,1.196,0.702,1.846,2.054,1.846c1.353,0,2.067-0.637,2.067-1.846v-5.226h0.78V42.757z"/>
	<path d="M21.944,45.175v-5.187c0-1.183-0.637-1.859-2.002-1.859c-0.949,0-1.756,0.468-2.094,1.053v5.993h-0.793V34.839l0.793-0.065
		v2.522l-0.012,1.04l0.025,0.013c0.533-0.637,1.352-0.988,2.288-0.988c1.69,0,2.587,0.923,2.587,2.626v5.187H21.944z"/>
	<path d="M29.445,44.096l-0.039-0.013c-0.416,0.728-1.326,1.209-2.392,1.209c-1.392,0-2.354-0.689-2.354-2.405
		c0-1.456,0.896-2.288,2.77-2.288c0.688,0,1.391,0.143,1.91,0.338v-0.949c0-1.456-0.61-1.924-1.963-1.924
		c-0.793,0-1.508,0.143-2.171,0.481l-0.091-0.689c0.729-0.338,1.508-0.507,2.393-0.507c1.871,0,2.625,0.767,2.625,2.756v5.07h-0.598
		L29.445,44.096z M29.341,41.561c-0.194-0.143-0.871-0.364-1.793-0.364c-1.482,0-2.133,0.611-2.133,1.677
		c0,1.3,0.78,1.742,1.807,1.742c1.119,0,2.119-0.78,2.119-1.521V41.561z"/>
	<path d="M37.986,42.757c0,1.612-0.923,2.574-2.847,2.574c-1.912,0-2.834-0.975-2.834-2.574v-5.252h0.779v5.226
		c0,1.196,0.702,1.846,2.055,1.846c1.352,0,2.066-0.637,2.066-1.846v-5.226h0.78V42.757z"/>
	<path d="M42.224,45.331c-0.91,0-1.768-0.247-2.34-0.702l0.13-0.715c0.56,0.468,1.417,0.728,2.197,0.728
		c1.3,0,1.846-0.663,1.846-1.547c0-2.054-4.134-1.17-4.134-3.705c0-1.248,0.896-2.015,2.548-2.015c0.728,0,1.404,0.143,2.015,0.442
		l-0.078,0.689c-0.637-0.286-1.312-0.429-1.949-0.429c-1.092,0-1.781,0.494-1.781,1.274c0,1.911,4.121,0.962,4.121,3.666
		C44.798,44.408,44.005,45.331,42.224,45.331z"/>
	<path d="M46.188,41.08c0-2.405,1.027-3.705,3.055-3.705c1.73,0,2.939,1.053,2.939,3.536c0,0.117-0.014,0.286-0.027,0.39h-5.16
		c0.039,2.457,0.857,3.289,2.691,3.289c0.805,0,1.469-0.195,2.119-0.546l0.104,0.689c-0.663,0.377-1.404,0.598-2.301,0.598
		C47.163,45.331,46.188,44.044,46.188,41.08z M51.454,40.742c-0.025-1.937-0.936-2.665-2.211-2.665
		c-1.508,0-2.184,0.897-2.262,2.665H51.454z"/>
</g>
</svg>
