<?xml version="1.0" encoding="utf-8"?>
<!-- Generator: Adobe Illustrator 16.0.0, SVG Export Plug-In . SVG Version: 6.00 Build 0)  -->
<!DOCTYPE svg PUBLIC "-//W3C//DTD SVG 1.1//EN" "http://www.w3.org/Graphics/SVG/1.1/DTD/svg11.dtd">
<svg version="1.1" id="Ebene_1" xmlns="http://www.w3.org/2000/svg" xmlns:xlink="http://www.w3.org/1999/xlink" x="0px" y="0px"
	 width="183.398px" height="116.001px" viewBox="0 0 183.398 116.001" enable-background="new 0 0 183.398 116.001"
	 xml:space="preserve">
<g>
	<path d="M12.725,18.797l-0.069,1.483H2.573V2.896h1.53v15.9H12.725z"/>
	<path d="M14.486,12.979c0-4.287,1.831-6.605,5.447-6.605c3.083,0,5.238,1.878,5.238,6.305c0,0.209-0.023,0.51-0.046,0.695h-9.202
		c0.069,4.381,1.53,5.864,4.798,5.864c1.437,0,2.619-0.348,3.778-0.974l0.186,1.229c-1.182,0.672-2.503,1.066-4.103,1.066
		C16.224,20.559,14.486,18.264,14.486,12.979z M23.873,12.377c-0.046-3.454-1.669-4.752-3.94-4.752c-2.689,0-3.894,1.6-4.033,4.752
		H23.873z"/>
	<path d="M28.647,20.28V6.675l1.136-0.093l0.046,1.529l0.046,1.878h0.046c0.788-2.132,2.388-3.569,4.45-3.569
		c0.464,0,0.904,0.047,1.298,0.162l-0.116,1.46c-0.394-0.139-0.811-0.185-1.251-0.185c-2.318,0-4.265,2.132-4.265,5.446v6.977
		H28.647z"/>
	<path d="M47.513,20.28v-9.226c0-2.34-1.298-3.337-3.616-3.337c-1.344,0-2.967,0.649-3.731,1.854V20.28h-1.391V6.629l0.997-0.094
		l0.255,1.646h0.069c0.927-1.137,2.503-1.809,4.149-1.809c2.897,0,4.659,1.507,4.659,4.659v9.248H47.513z"/>
	<path d="M52.171,12.979c0-4.287,1.831-6.605,5.447-6.605c3.083,0,5.238,1.878,5.238,6.305c0,0.209-0.023,0.51-0.046,0.695h-9.202
		c0.069,4.381,1.53,5.864,4.798,5.864c1.437,0,2.619-0.348,3.778-0.974l0.186,1.229c-1.182,0.672-2.503,1.066-4.103,1.066
		C53.91,20.559,52.171,18.264,52.171,12.979z M61.559,12.377c-0.046-3.454-1.669-4.752-3.94-4.752c-2.689,0-3.894,1.6-4.033,4.752
		H61.559z"/>
	<path d="M75.07,20.28v-9.226c0-2.34-1.298-3.337-3.616-3.337c-1.344,0-2.967,0.649-3.731,1.854V20.28h-1.391V6.629l0.997-0.094
		l0.255,1.646h0.069c0.927-1.137,2.503-1.809,4.149-1.809c2.897,0,4.659,1.507,4.659,4.659v9.248H75.07z"/>
	<path d="M92.105,20.605c-1.993,0-3.616-0.533-4.937-1.346l0.278-1.437c1.344,0.881,2.828,1.345,4.659,1.345
		c2.758,0,4.172-1.345,4.172-3.593c0-4.659-8.923-2.619-8.923-8.345c0-2.619,1.669-4.611,5.4-4.611c1.692,0,3.222,0.348,4.45,0.927
		l-0.278,1.367c-1.321-0.556-2.596-0.881-4.103-0.881c-2.875,0-4.01,1.46-4.01,3.106c0,4.427,8.947,2.341,8.947,8.344
		C97.76,18.658,95.813,20.605,92.105,20.605z"/>
	<path d="M102.441,3.801c-0.695,0-1.089-0.232-1.089-0.974c0-0.626,0.394-0.974,1.089-0.974s1.089,0.348,1.089,0.974
		C103.531,3.5,103.137,3.801,102.441,3.801z M101.723,20.28V6.675l1.414-0.116V20.28H101.723z"/>
	<path d="M107.332,12.979c0-4.287,1.831-6.605,5.447-6.605c3.083,0,5.238,1.878,5.238,6.305c0,0.209-0.023,0.51-0.046,0.695h-9.202
		c0.069,4.381,1.53,5.864,4.798,5.864c1.437,0,2.619-0.348,3.778-0.974l0.186,1.229c-1.182,0.672-2.503,1.066-4.103,1.066
		C109.07,20.559,107.332,18.264,107.332,12.979z M116.719,12.377c-0.046-3.454-1.669-4.752-3.94-4.752
		c-2.688,0-3.894,1.6-4.033,4.752H116.719z"/>
	<path d="M137.856,20.28l-0.231-1.599l-0.07-0.023c-0.857,1.251-2.318,1.9-4.241,1.9c-3.801,0-5.285-2.225-5.285-7.115
		c0-4.705,1.576-7.07,5.308-7.07c1.669,0,3.199,0.604,4.172,1.785l0.046-0.023l-0.046-1.854V1.854l1.414-0.115V20.28H137.856z
		 M137.508,9.596c-0.672-1.137-2.086-1.878-3.824-1.878c-3.06,0-4.218,1.669-4.218,5.771c0,4.218,1.066,5.864,4.195,5.864
		c2.294,0,3.407-1.137,3.847-1.994V9.596z"/>
	<path d="M144.739,3.801c-0.695,0-1.089-0.232-1.089-0.974c0-0.626,0.394-0.974,1.089-0.974s1.089,0.348,1.089,0.974
		C145.828,3.5,145.434,3.801,144.739,3.801z M144.021,20.28V6.675l1.414-0.116V20.28H144.021z"/>
	<path d="M149.629,12.979c0-4.287,1.831-6.605,5.447-6.605c3.083,0,5.238,1.878,5.238,6.305c0,0.209-0.023,0.51-0.046,0.695h-9.202
		c0.069,4.381,1.53,5.864,4.798,5.864c1.437,0,2.619-0.348,3.778-0.974l0.186,1.229c-1.182,0.672-2.503,1.066-4.103,1.066
		C151.368,20.559,149.629,18.264,149.629,12.979z M159.017,12.377c-0.046-3.454-1.669-4.752-3.94-4.752
		c-2.689,0-3.894,1.6-4.033,4.752H159.017z"/>
	<path d="M8.112,43.387h-4.01v7.023h-1.53V33.026h5.54c3.94,0,5.655,1.53,5.655,5.169C13.768,41.695,12.099,43.387,8.112,43.387z
		 M8.112,34.395h-4.01v7.672h4.01c2.712,0,4.103-0.928,4.103-3.871C12.215,35.414,10.894,34.395,8.112,34.395z"/>
	<path d="M21.879,50.711c-3.986,0-5.771-1.992-5.771-7.115c0-5.076,1.808-7.092,5.771-7.092c4.01,0,5.702,2.016,5.702,7.092
		C27.582,48.719,25.89,50.711,21.879,50.711z M21.879,49.482c3.06,0,4.242-1.622,4.242-5.887c0-4.242-1.182-5.841-4.242-5.841
		c-3.083,0-4.311,1.599-4.311,5.841C17.568,47.884,18.797,49.482,21.879,49.482z"/>
	<path d="M39.471,36.734l2.851,10.802l0.463,1.808h0.069l0.371-1.831l2.549-10.778h1.414L43.736,50.41h-1.785l-2.758-10.361
		l-0.44-1.83h-0.069l-0.463,1.83L35.392,50.41h-1.738l-3.569-13.676h1.437l2.596,10.732l0.417,1.831h0.069l0.44-1.808l2.875-10.756
		H39.471z"/>
	<path d="M49.692,43.109c0-4.288,1.831-6.605,5.447-6.605c3.083,0,5.238,1.877,5.238,6.304c0,0.208-0.023,0.511-0.046,0.695h-9.202
		c0.069,4.381,1.53,5.864,4.798,5.864c1.437,0,2.619-0.348,3.778-0.974l0.186,1.229c-1.182,0.673-2.503,1.066-4.103,1.066
		C51.431,50.688,49.692,48.394,49.692,43.109z M59.08,42.506c-0.046-3.453-1.669-4.751-3.94-4.751c-2.688,0-3.894,1.599-4.033,4.751
		H59.08z"/>
	<path d="M63.854,50.41V36.805l1.135-0.093l0.046,1.53l0.046,1.877h0.046c0.788-2.133,2.388-3.569,4.45-3.569
		c0.464,0,0.904,0.046,1.298,0.162l-0.116,1.46c-0.394-0.139-0.811-0.186-1.251-0.186c-2.318,0-4.265,2.133-4.265,5.447v6.977
		H63.854z"/>
	<path d="M90.344,50.41l-0.231-1.6l-0.07-0.023c-0.857,1.252-2.318,1.901-4.241,1.901c-3.801,0-5.285-2.226-5.285-7.116
		c0-4.705,1.576-7.068,5.308-7.068c1.669,0,3.199,0.602,4.172,1.784l0.046-0.023l-0.046-1.854v-4.427l1.414-0.116V50.41H90.344z
		 M89.997,39.725c-0.672-1.135-2.086-1.877-3.824-1.877c-3.06,0-4.218,1.669-4.218,5.771c0,4.219,1.066,5.863,4.195,5.863
		c2.294,0,3.407-1.135,3.847-1.992V39.725z"/>
	<path d="M94.979,43.109c0-4.288,1.831-6.605,5.447-6.605c3.083,0,5.238,1.877,5.238,6.304c0,0.208-0.023,0.511-0.046,0.695h-9.202
		c0.069,4.381,1.53,5.864,4.798,5.864c1.437,0,2.619-0.348,3.778-0.974l0.186,1.229c-1.182,0.673-2.503,1.066-4.103,1.066
		C96.718,50.688,94.979,48.394,94.979,43.109z M104.367,42.506c-0.046-3.453-1.669-4.751-3.94-4.751
		c-2.688,0-3.894,1.599-4.033,4.751H104.367z"/>
	<path d="M109.141,50.41V36.805l1.135-0.093l0.046,1.53l0.046,1.877h0.046c0.788-2.133,2.388-3.569,4.45-3.569
		c0.464,0,0.904,0.046,1.298,0.162l-0.116,1.46c-0.394-0.139-0.811-0.186-1.251-0.186c-2.318,0-4.265,2.133-4.265,5.447v6.977
		H109.141z"/>
	<path d="M13.49,80.541v-8.367H4.103v8.367h-1.53V63.156h1.53v7.58h9.387v-7.58h1.53v17.385H13.49z"/>
	<path d="M24.683,80.842c-3.986,0-5.771-1.993-5.771-7.115c0-5.076,1.808-7.093,5.771-7.093c4.01,0,5.702,2.017,5.702,7.093
		C30.385,78.849,28.693,80.842,24.683,80.842z M24.683,79.613c3.06,0,4.242-1.623,4.242-5.887c0-4.242-1.182-5.842-4.242-5.842
		c-3.083,0-4.311,1.6-4.311,5.842C20.372,78.014,21.601,79.613,24.683,79.613z M22.922,63.898c-0.533,0-0.812-0.231-0.812-0.881
		c0-0.557,0.278-0.904,0.812-0.904s0.811,0.325,0.811,0.904C23.733,63.621,23.455,63.898,22.922,63.898z M26.375,63.898
		c-0.533,0-0.812-0.231-0.812-0.881c0-0.557,0.278-0.904,0.812-0.904c0.533,0,0.811,0.325,0.811,0.904
		C27.187,63.621,26.908,63.898,26.375,63.898z"/>
	<path d="M41.95,68.696c-0.857-0.417-1.924-0.718-3.013-0.718c-3.198,0-4.45,1.645-4.45,5.562c0,4.427,1.507,6.003,4.404,6.003
		c1.159,0,2.295-0.325,3.152-0.95l0.139,1.229c-0.812,0.603-2.132,1.02-3.546,1.02c-3.755,0-5.609-2.133-5.609-7.301
		c0-4.659,1.715-6.907,5.632-6.907c1.274,0,2.503,0.324,3.407,0.765L41.95,68.696z"/>
	<path d="M54.374,80.541v-9.248c0-2.109-1.136-3.314-3.57-3.314c-1.692,0-3.129,0.834-3.731,1.877v10.686h-1.414V62.113l1.414-0.115
		v4.496l-0.023,1.854l0.046,0.023c0.951-1.136,2.411-1.762,4.08-1.762c3.013,0,4.612,1.646,4.612,4.683v9.248H54.374z"/>
	<path d="M63.342,80.818c-1.622,0-3.152-0.439-4.172-1.252l0.232-1.273c0.997,0.834,2.526,1.297,3.917,1.297
		c2.318,0,3.292-1.182,3.292-2.758c0-3.662-7.371-2.086-7.371-6.605c0-2.226,1.6-3.593,4.543-3.593c1.298,0,2.503,0.255,3.593,0.788
		l-0.139,1.229c-1.136-0.51-2.341-0.766-3.477-0.766c-1.947,0-3.175,0.881-3.175,2.271c0,3.408,7.347,1.716,7.347,6.537
		C67.931,79.173,66.518,80.818,63.342,80.818z"/>
	<path d="M73.285,68.001v9.248c0,1.646,0.857,2.295,2.225,2.295c0.394,0,0.881-0.069,1.159-0.186l0.116,1.112
		c-0.371,0.162-1.043,0.278-1.646,0.278c-2.132,0-3.268-1.112-3.268-3.454v-9.294h-2.132v-1.136h2.156l0.278-3.592l1.113-0.14v3.731
		h3.593v1.136H73.285z"/>
	<path d="M88.745,80.541l-0.231-1.6l-0.07-0.023c-0.857,1.252-2.318,1.9-4.241,1.9c-3.801,0-5.285-2.225-5.285-7.115
		c0-4.705,1.576-7.069,5.308-7.069c1.669,0,3.199,0.603,4.172,1.784l0.046-0.023l-0.046-1.854v-4.428l1.414-0.115v18.543H88.745z
		 M88.397,69.855c-0.672-1.136-2.086-1.877-3.824-1.877c-3.06,0-4.218,1.668-4.218,5.771c0,4.218,1.066,5.863,4.195,5.863
		c2.294,0,3.407-1.136,3.847-1.993V69.855z"/>
	<path d="M94.26,80.541V66.936l1.136-0.094l0.046,1.53l0.046,1.878h0.046c0.788-2.133,2.388-3.57,4.45-3.57
		c0.464,0,0.904,0.047,1.298,0.162l-0.116,1.461c-0.394-0.139-0.811-0.186-1.251-0.186c-2.318,0-4.265,2.133-4.265,5.447v6.977
		H94.26z"/>
	<path d="M114.262,76.229c0,2.874-1.646,4.589-5.076,4.589c-3.407,0-5.053-1.738-5.053-4.589v-9.364h1.391v9.318
		c0,2.132,1.252,3.291,3.663,3.291c2.41,0,3.685-1.137,3.685-3.291v-9.318h1.391V76.229z"/>
	<path d="M126.453,68.696c-0.857-0.417-1.924-0.718-3.013-0.718c-3.198,0-4.45,1.645-4.45,5.562c0,4.427,1.507,6.003,4.404,6.003
		c1.159,0,2.295-0.325,3.152-0.95l0.139,1.229c-0.812,0.603-2.132,1.02-3.546,1.02c-3.755,0-5.609-2.133-5.609-7.301
		c0-4.659,1.715-6.907,5.632-6.907c1.274,0,2.503,0.324,3.407,0.765L126.453,68.696z"/>
	<path d="M131.575,72.521h2.179l4.775-5.68h1.808l-5.308,6.259l5.54,7.44h-1.785l-5.03-6.769h-2.179v6.769h-1.414v-18.45
		l1.414-0.093V72.521z"/>
	<path d="M148.216,72.104v1.113h-5.864v-1.113H148.216z"/>
	<path d="M2.202,110.67V97.064l1.135-0.092l0.046,1.529l0.046,1.877h0.046c0.788-2.132,2.388-3.568,4.45-3.568
		c0.464,0,0.904,0.046,1.298,0.162l-0.116,1.46c-0.394-0.14-0.811-0.186-1.251-0.186c-2.318,0-4.265,2.132-4.265,5.446v6.977H2.202z
		"/>
	<path d="M11.102,103.369c0-4.287,1.831-6.605,5.447-6.605c3.083,0,5.238,1.877,5.238,6.305c0,0.208-0.023,0.51-0.046,0.695h-9.202
		c0.069,4.381,1.53,5.863,4.798,5.863c1.437,0,2.619-0.348,3.778-0.973l0.186,1.229c-1.182,0.672-2.503,1.066-4.103,1.066
		C12.84,110.949,11.102,108.654,11.102,103.369z M20.489,102.767c-0.046-3.454-1.669-4.751-3.94-4.751
		c-2.689,0-3.894,1.599-4.033,4.751H20.489z"/>
	<path d="M26.63,94.191c-0.695,0-1.089-0.232-1.089-0.975c0-0.625,0.394-0.973,1.089-0.973s1.089,0.348,1.089,0.973
		C27.72,93.89,27.326,94.191,26.63,94.191z M25.912,110.67V97.064l1.414-0.115v13.721H25.912z"/>
	<path d="M41.14,110.67v-9.225c0-2.341-1.298-3.338-3.616-3.338c-1.344,0-2.967,0.649-3.731,1.854v10.708h-1.391V97.019l0.997-0.093
		l0.255,1.646h0.069c0.927-1.136,2.503-1.808,4.149-1.808c2.897,0,4.659,1.506,4.659,4.658v9.248H41.14z"/>
	<path d="M48.046,94.191c-0.695,0-1.089-0.232-1.089-0.975c0-0.625,0.394-0.973,1.089-0.973s1.089,0.348,1.089,0.973
		C49.135,93.89,48.741,94.191,48.046,94.191z M47.328,110.67V97.064l1.414-0.115v13.721H47.328z"/>
	<path d="M56.158,104.459c-0.927,0.209-1.414,0.672-1.414,1.252c0,0.532,0.417,0.973,1.553,1.089l3.152,0.324
		c3.361,0.348,4.358,1.368,4.358,3.176c0,2.41-1.391,3.94-5.54,3.94c-3.593,0-5.1-1.438-5.1-3.616c0-1.043,0.533-2.063,1.507-2.805
		c-0.695-0.302-1.251-0.903-1.251-1.831c0-0.834,0.625-1.576,1.761-1.971c-0.974-0.532-1.669-1.553-1.669-3.244
		c0-2.572,1.298-4.01,4.613-4.01c1.182,0,2.434,0.231,3.337,0.95l2.202-0.997l0.324,0.719l-1.761,1.182
		c0.301,0.557,0.487,1.252,0.487,2.133c0,2.572-1.159,3.964-4.589,3.964C57.479,104.714,56.784,104.645,56.158,104.459z
		 M55.903,108.074c-0.974,0.626-1.483,1.553-1.483,2.388c0,1.622,1.112,2.596,3.801,2.596c3.384,0,4.265-1.043,4.265-2.573
		c0-1.182-0.603-1.83-3.245-2.062L55.903,108.074z M54.883,100.797c0,2.295,1.391,2.805,3.222,2.805
		c2.503,0,3.268-0.975,3.268-2.805c0-2.109-0.997-2.852-3.245-2.852C55.764,97.945,54.883,98.896,54.883,100.797z"/>
	<path d="M65.915,103.369c0-4.287,1.831-6.605,5.447-6.605c3.083,0,5.238,1.877,5.238,6.305c0,0.208-0.023,0.51-0.046,0.695h-9.202
		c0.069,4.381,1.53,5.863,4.798,5.863c1.437,0,2.619-0.348,3.778-0.973l0.186,1.229c-1.182,0.672-2.503,1.066-4.103,1.066
		C67.653,110.949,65.915,108.654,65.915,103.369z M75.302,102.767c-0.046-3.454-1.669-4.751-3.94-4.751
		c-2.688,0-3.894,1.599-4.033,4.751H75.302z"/>
	<path d="M80.077,110.67V97.064l1.136-0.092l0.046,1.529l0.046,1.877h0.046c0.788-2.132,2.388-3.568,4.45-3.568
		c0.464,0,0.904,0.046,1.298,0.162l-0.116,1.46c-0.394-0.14-0.811-0.186-1.251-0.186c-2.318,0-4.265,2.132-4.265,5.446v6.977H80.077
		z"/>
	<path d="M99.174,102.65h2.179l4.775-5.678h1.808l-5.308,6.258l5.54,7.439h-1.785l-5.03-6.768h-2.179v6.768H97.76V92.221
		l1.414-0.093V102.65z"/>
	<path d="M109.72,103.369c0-4.287,1.831-6.605,5.447-6.605c3.083,0,5.238,1.877,5.238,6.305c0,0.208-0.023,0.51-0.046,0.695h-9.202
		c0.069,4.381,1.53,5.863,4.798,5.863c1.437,0,2.619-0.348,3.778-0.973l0.186,1.229c-1.182,0.672-2.503,1.066-4.103,1.066
		C111.458,110.949,109.72,108.654,109.72,103.369z M119.107,102.767c-0.046-3.454-1.669-4.751-3.94-4.751
		c-2.688,0-3.894,1.599-4.033,4.751H119.107z"/>
	<path d="M132.619,110.67v-9.225c0-2.341-1.298-3.338-3.616-3.338c-1.344,0-2.967,0.649-3.731,1.854v10.708h-1.391V97.019
		l0.997-0.093l0.255,1.646h0.069c0.927-1.136,2.503-1.808,4.149-1.808c2.897,0,4.659,1.506,4.659,4.658v9.248H132.619z"/>
	<path d="M146.896,110.67v-9.225c0-2.341-1.298-3.338-3.616-3.338c-1.344,0-2.967,0.649-3.731,1.854v10.708h-1.391V97.019
		l0.997-0.093l0.255,1.646h0.069c0.927-1.136,2.503-1.808,4.149-1.808c2.897,0,4.659,1.506,4.659,4.658v9.248H146.896z"/>
	<path d="M151.554,103.369c0-4.287,1.831-6.605,5.447-6.605c3.083,0,5.238,1.877,5.238,6.305c0,0.208-0.023,0.51-0.046,0.695h-9.202
		c0.069,4.381,1.53,5.863,4.798,5.863c1.437,0,2.619-0.348,3.778-0.973l0.186,1.229c-1.182,0.672-2.503,1.066-4.103,1.066
		C153.292,110.949,151.554,108.654,151.554,103.369z M160.941,102.767c-0.046-3.454-1.669-4.751-3.94-4.751
		c-2.689,0-3.894,1.599-4.033,4.751H160.941z"/>
	<path d="M174.453,110.67v-9.225c0-2.341-1.298-3.338-3.616-3.338c-1.344,0-2.967,0.649-3.731,1.854v10.708h-1.391V97.019
		l0.997-0.093l0.255,1.646h0.069c0.927-1.136,2.503-1.808,4.149-1.808c2.897,0,4.659,1.506,4.659,4.658v9.248H174.453z"/>
	<path d="M180.618,110.902c-0.742,0-1.112-0.301-1.112-1.09c0-0.695,0.371-1.066,1.112-1.066c0.719,0,1.066,0.371,1.066,1.066
		S181.336,110.902,180.618,110.902z"/>
</g>
</svg>
