<?xml version="1.0" encoding="utf-8"?>
<!-- Generator: Adobe Illustrator 16.0.0, SVG Export Plug-In . SVG Version: 6.00 Build 0)  -->
<!DOCTYPE svg PUBLIC "-//W3C//DTD SVG 1.1//EN" "http://www.w3.org/Graphics/SVG/1.1/DTD/svg11.dtd">
<svg version="1.1" id="Ebene_1" xmlns="http://www.w3.org/2000/svg" xmlns:xlink="http://www.w3.org/1999/xlink" x="0px" y="0px"
	 width="73.033px" height="31.265px" viewBox="0 0 73.033 31.265" enable-background="new 0 0 73.033 31.265" xml:space="preserve">
<g>
	<path d="M7.462,11.375L3.927,6.656H2.302v4.719H1.442v-9.75h0.859v4.264h1.637l3.355-4.264h1.065L4.72,6.227l3.861,5.148H7.462z"/>
	<path d="M12.805,11.544c-2.235,0-3.237-1.118-3.237-3.991c0-2.847,1.014-3.978,3.237-3.978c2.249,0,3.198,1.131,3.198,3.978
		C16.003,10.426,15.054,11.544,12.805,11.544z M12.805,10.855c1.716,0,2.38-0.91,2.38-3.302c0-2.379-0.664-3.276-2.38-3.276
		c-1.729,0-2.418,0.897-2.418,3.276C10.387,9.958,11.075,10.855,12.805,10.855z"/>
	<path d="M19.864,11.531c-0.91,0-1.769-0.247-2.34-0.702l0.129-0.715c0.56,0.468,1.418,0.728,2.197,0.728
		c1.301,0,1.846-0.663,1.846-1.547c0-2.054-4.133-1.17-4.133-3.705c0-1.248,0.896-2.015,2.547-2.015
		c0.729,0,1.404,0.143,2.016,0.442l-0.078,0.689c-0.637-0.286-1.312-0.429-1.949-0.429c-1.093,0-1.781,0.494-1.781,1.274
		c0,1.911,4.121,0.962,4.121,3.666C22.438,10.608,21.646,11.531,19.864,11.531z"/>
	<path d="M25.44,4.342v5.187c0,0.923,0.481,1.287,1.248,1.287c0.222,0,0.494-0.039,0.65-0.104l0.064,0.624
		c-0.207,0.091-0.584,0.156-0.922,0.156c-1.197,0-1.834-0.624-1.834-1.938V4.342h-1.195V3.705h1.209l0.156-2.015l0.623-0.078v2.093
		h2.016v0.637H25.44z"/>
	<path d="M28.601,7.28c0-2.405,1.026-3.705,3.055-3.705c1.729,0,2.938,1.053,2.938,3.536c0,0.117-0.013,0.286-0.025,0.39h-5.162
		c0.039,2.457,0.859,3.289,2.691,3.289c0.807,0,1.469-0.195,2.119-0.546l0.104,0.689c-0.663,0.377-1.404,0.598-2.302,0.598
		C29.575,11.531,28.601,10.244,28.601,7.28z M33.865,6.942c-0.026-1.937-0.937-2.665-2.21-2.665c-1.508,0-2.184,0.897-2.262,2.665
		H33.865z"/>
	<path d="M41.444,11.375V6.201c0-1.313-0.729-1.872-2.029-1.872c-0.754,0-1.664,0.364-2.092,1.04v6.006h-0.781V3.718l0.56-0.052
		l0.144,0.923h0.039c0.52-0.637,1.404-1.014,2.326-1.014c1.625,0,2.613,0.845,2.613,2.613v5.187H41.444z"/>
	<path d="M44.851,11.375V1.026l0.779-0.052v10.4H44.851z"/>
	<path d="M51.142,11.544c-2.236,0-3.236-1.118-3.236-3.991c0-2.847,1.014-3.978,3.236-3.978c2.249,0,3.198,1.131,3.198,3.978
		C54.34,10.426,53.391,11.544,51.142,11.544z M51.142,10.855c1.717,0,2.379-0.91,2.379-3.302c0-2.379-0.662-3.276-2.379-3.276
		c-1.729,0-2.418,0.897-2.418,3.276C48.724,9.958,49.413,10.855,51.142,10.855z"/>
	<path d="M58.2,11.531c-0.91,0-1.768-0.247-2.34-0.702l0.131-0.715c0.559,0.468,1.416,0.728,2.197,0.728
		c1.299,0,1.846-0.663,1.846-1.547c0-2.054-4.135-1.17-4.135-3.705c0-1.248,0.897-2.015,2.549-2.015
		c0.728,0,1.404,0.143,2.015,0.442l-0.078,0.689c-0.637-0.286-1.313-0.429-1.95-0.429c-1.092,0-1.781,0.494-1.781,1.274
		c0,1.911,4.121,0.962,4.121,3.666C60.774,10.608,59.981,11.531,58.2,11.531z"/>
	<path d="M62.165,7.28c0-2.405,1.027-3.705,3.055-3.705c1.73,0,2.939,1.053,2.939,3.536c0,0.117-0.014,0.286-0.027,0.39h-5.16
		c0.039,2.457,0.857,3.289,2.691,3.289c0.805,0,1.469-0.195,2.119-0.546l0.104,0.689c-0.663,0.377-1.404,0.598-2.301,0.598
		C63.14,11.531,62.165,10.244,62.165,7.28z M67.431,6.942c-0.025-1.937-0.936-2.665-2.211-2.665c-1.508,0-2.184,0.897-2.262,2.665
		H67.431z"/>
	<path d="M5.019,28.275H1.442v-9.75h3.381c1.807,0,2.717,0.767,2.717,2.392c0,1.274-0.611,1.95-1.43,2.184v0.026
		c1.145,0.234,1.846,0.975,1.846,2.418C7.956,27.274,7.15,28.275,5.019,28.275z M4.979,23.543H2.263v3.978h2.769
		c1.3,0,2.08-0.533,2.08-2.041C7.111,24.154,6.409,23.543,4.979,23.543z M4.798,19.292H2.274v3.549h2.627
		c1.222,0,1.82-0.598,1.82-1.781C6.722,19.799,6.11,19.292,4.798,19.292z"/>
	<path d="M9.634,24.18c0-2.405,1.026-3.705,3.055-3.705c1.729,0,2.938,1.053,2.938,3.536c0,0.117-0.013,0.286-0.025,0.39h-5.162
		c0.039,2.457,0.859,3.289,2.691,3.289c0.807,0,1.469-0.195,2.119-0.546l0.104,0.689c-0.663,0.377-1.404,0.598-2.302,0.598
		C10.608,28.431,9.634,27.144,9.634,24.18z M14.898,23.842c-0.026-1.937-0.937-2.665-2.21-2.665c-1.508,0-2.184,0.897-2.262,2.665
		H14.898z"/>
	<path d="M17.575,28.275v-7.631l0.638-0.052l0.026,0.858l0.025,1.053h0.026c0.442-1.196,1.339-2.002,2.496-2.002
		c0.26,0,0.507,0.026,0.728,0.091l-0.064,0.819c-0.221-0.078-0.455-0.104-0.702-0.104c-1.3,0-2.392,1.196-2.392,3.055v3.913H17.575z
		"/>
	<path d="M27.431,27.196l-0.039-0.013c-0.416,0.729-1.326,1.209-2.393,1.209c-1.391,0-2.354-0.689-2.354-2.405
		c0-1.456,0.897-2.288,2.77-2.288c0.689,0,1.391,0.143,1.911,0.338v-0.949c0-1.456-0.61-1.924-1.963-1.924
		c-0.794,0-1.509,0.143-2.171,0.481l-0.092-0.689c0.729-0.338,1.508-0.507,2.393-0.507c1.872,0,2.626,0.767,2.626,2.756v5.07h-0.599
		L27.431,27.196z M27.326,24.661c-0.194-0.143-0.871-0.364-1.794-0.364c-1.482,0-2.133,0.611-2.133,1.677
		c0,1.3,0.781,1.742,1.808,1.742c1.118,0,2.119-0.78,2.119-1.521V24.661z"/>
	<path d="M31.694,21.242v5.187c0,0.923,0.48,1.287,1.248,1.287c0.221,0,0.494-0.039,0.649-0.104l0.065,0.624
		c-0.209,0.091-0.586,0.156-0.924,0.156c-1.195,0-1.832-0.624-1.832-1.937v-5.213h-1.197v-0.637h1.209l0.156-2.015l0.625-0.078
		v2.093h2.015v0.637H31.694z"/>
	<path d="M40.976,25.857c0,1.612-0.923,2.574-2.847,2.574c-1.911,0-2.835-0.975-2.835-2.574v-5.252h0.781v5.227
		c0,1.196,0.701,1.846,2.054,1.846s2.067-0.637,2.067-1.846v-5.227h0.779V25.857z"/>
	<path d="M48.204,28.275v-5.174c0-1.313-0.729-1.872-2.027-1.872c-0.755,0-1.664,0.364-2.094,1.04v6.006h-0.78v-7.657l0.56-0.052
		l0.143,0.923h0.039c0.52-0.637,1.404-1.014,2.327-1.014c1.625,0,2.612,0.845,2.612,2.613v5.187H48.204z"/>
	<path d="M52.624,24.791c-0.52,0.117-0.793,0.377-0.793,0.702c0,0.299,0.234,0.546,0.871,0.611l1.768,0.182
		c1.885,0.195,2.444,0.767,2.444,1.781c0,1.352-0.78,2.21-3.107,2.21c-2.015,0-2.86-0.806-2.86-2.028
		c0-0.585,0.299-1.157,0.846-1.573c-0.391-0.169-0.702-0.507-0.702-1.027c0-0.468,0.351-0.884,0.987-1.105
		c-0.545-0.299-0.936-0.871-0.936-1.82c0-1.443,0.729-2.249,2.588-2.249c0.662,0,1.364,0.13,1.871,0.533l1.235-0.559l0.183,0.403
		l-0.988,0.663c0.168,0.312,0.272,0.702,0.272,1.196c0,1.443-0.649,2.223-2.573,2.223C53.364,24.934,52.975,24.895,52.624,24.791z
		 M52.481,26.819c-0.547,0.351-0.832,0.871-0.832,1.339c0,0.91,0.623,1.456,2.131,1.456c1.898,0,2.393-0.585,2.393-1.443
		c0-0.663-0.338-1.027-1.82-1.157L52.481,26.819z M51.909,22.737c0,1.287,0.779,1.573,1.807,1.573c1.404,0,1.833-0.546,1.833-1.573
		c0-1.183-0.56-1.599-1.819-1.599C52.403,21.138,51.909,21.671,51.909,22.737z"/>
</g>
</svg>
