<?xml version="1.0" encoding="utf-8"?>
<!-- Generator: Adobe Illustrator 23.1.1, SVG Export Plug-In . SVG Version: 6.00 Build 0)  -->
<!DOCTYPE svg PUBLIC "-//W3C//DTD SVG 1.1//EN" "http://www.w3.org/Graphics/SVG/1.1/DTD/svg11.dtd" [
	<!ENTITY ns_extend "http://ns.adobe.com/Extensibility/1.0/">
	<!ENTITY ns_ai "http://ns.adobe.com/AdobeIllustrator/10.0/">
	<!ENTITY ns_graphs "http://ns.adobe.com/Graphs/1.0/">
	<!ENTITY ns_vars "http://ns.adobe.com/Variables/1.0/">
	<!ENTITY ns_imrep "http://ns.adobe.com/ImageReplacement/1.0/">
	<!ENTITY ns_sfw "http://ns.adobe.com/SaveForWeb/1.0/">
	<!ENTITY ns_custom "http://ns.adobe.com/GenericCustomNamespace/1.0/">
	<!ENTITY ns_adobe_xpath "http://ns.adobe.com/XPath/1.0/">
]>
<svg version="1.1" id="Ebene_1" xmlns:x="&ns_extend;" xmlns:i="&ns_ai;" xmlns:graph="&ns_graphs;"
	 xmlns="http://www.w3.org/2000/svg" xmlns:xlink="http://www.w3.org/1999/xlink" x="0px" y="0px" viewBox="0 0 217.76 147.66"
	 style="enable-background:new 0 0 217.76 147.66;" xml:space="preserve">
<style type="text/css">
	.st0{fill-rule:evenodd;clip-rule:evenodd;fill:#FFFFFF;}
</style>
<metadata>
	<sfw  xmlns="&ns_sfw;">
		<slices></slices>
		<sliceSourceBounds  bottomLeftOrigin="true" height="41.06" width="178.55" x="13.13" y="-56.25"></sliceSourceBounds>
	</sfw>
</metadata>
<path class="st0" d="M189.48,56.23c-1.54,0-2.22-0.59-2.22-2.09c0-1.34,0.68-2.11,2.22-2.11c1.54,0,2.2,0.77,2.2,2.11
	C191.68,55.39,191.02,56.23,189.48,56.23z M176.36,55.96V39.45h4.34v12.68h5.61l-0.11,3.83H176.36z M174.72,52.24l-0.09,3.72H164
	V39.45h10.34l0.09,3.79h-6.14v2.55h5.06v3.45h-5.06v2.99H174.72z M160.83,32.25c-1.74,0-3.46-0.4-4.8-1.14l0.55-3.65
	c1.34,0.68,2.71,1.1,4.14,1.1c1.36,0,1.89-0.46,1.89-1.34c0-2.11-6.56-1.45-6.56-6.84c0-2.88,1.76-5.17,5.83-5.17
	c1.52,0,3.15,0.29,4.34,0.79l-0.48,3.59c-1.25-0.37-2.51-0.59-3.57-0.59c-1.63,0-1.98,0.48-1.98,1.19c0,2.14,6.56,1.41,6.56,6.8
	C166.75,30.22,164.55,32.25,160.83,32.25z M149.02,50.83h-1.36v5.13h-4.29V39.45h5.66c4.58,0,6.4,1.78,6.4,5.81
	C155.43,48.83,153.64,50.83,149.02,50.83z M149.02,43.04h-1.36v4.38h1.36c1.41,0,1.94-0.33,1.94-2.18
	C150.96,43.46,150.54,43.04,149.02,43.04z M154.87,28.24l-0.09,3.72h-10.63V15.45h10.34l0.09,3.79h-6.14v2.55h5.06v3.45h-5.06v2.99
	H154.87z M139.1,31.96h-4.38V19.31h-3.74l0.09-3.85h11.69l0.09,3.85h-3.74V31.96z M125.64,31.96l-3.1-6.71h-1.06v6.71h-4.29V15.45
	h4.29v6.38h1.15l3.06-6.38h4.82l-3.96,7.9l4.16,8.61H125.64z M125.55,48.02l0.04-0.02l-0.04-1.76l0.02-6.78h3.78v16.51h-3.06
	l-4.93-7.62l-0.92-1.52l-0.04,0.02l0.02,1.78v7.33h-3.79V39.45h3.61L125.55,48.02z M115.54,28.24l-0.09,3.72h-10.63V15.45h10.35
	l0.09,3.79h-6.14v2.55h5.06v3.45h-5.06v2.99H115.54z M114.7,43.24h-6.14v2.55h5.06v3.45h-5.06v2.99h6.43l-0.09,3.72h-10.63V39.45
	h10.34L114.7,43.24z M97.3,22.21h5.04l-0.02,3.65H97.3v6.1h-4.31V15.45h10.32l0.07,3.85H97.3V22.21z M86.94,31.96l-2.2-5.9h-1.45
	v5.9h-4.29V15.45h5.7c4.18,0,6.25,1.59,6.25,5.31c0,2.2-0.79,3.83-2.25,4.44l3.21,6.76H86.94z M84.78,19.02h-1.5v3.81h1.47
	c1.25,0,1.69-0.31,1.69-1.91C86.45,19.42,86.04,19.02,84.78,19.02z M83.29,55.96h-3.94v-6.91l0.04-1.78l-0.07-0.02l-0.55,1.72
	l-2.44,7h-2.8l-2.42-6.98l-0.55-1.72l-0.04,0.02l0.02,1.78v6.89h-3.76V39.45h4.73l2.9,8.34l0.55,1.69h0.07l0.55-1.67l2.95-8.36h4.75
	V55.96z M77.35,28.24l-0.09,3.72H66.63V15.45h10.34l0.09,3.79h-6.14v2.55h5.06v3.45h-5.06v2.99H77.35z M60.25,53.08h-4.49
	l-0.64,2.88h-4.56l4.89-16.51h5.26l4.97,16.51h-4.8L60.25,53.08z M58.41,44.76L58.08,43h-0.07l-0.37,1.76l-1.06,4.73h2.88
	L58.41,44.76z M58.67,26.83H57.3v5.13h-4.29V15.45h5.66c4.58,0,6.41,1.78,6.41,5.81C65.07,24.83,63.29,26.83,58.67,26.83z
	 M58.67,19.04H57.3v4.38h1.36c1.41,0,1.94-0.33,1.94-2.18C60.6,19.46,60.19,19.04,58.67,19.04z M44.7,56.25
	c-1.74,0-3.46-0.4-4.8-1.14l0.55-3.65c1.34,0.68,2.71,1.1,4.14,1.1c1.36,0,1.89-0.46,1.89-1.34c0-2.11-6.56-1.45-6.56-6.84
	c0-2.88,1.76-5.17,5.83-5.17c1.52,0,3.15,0.29,4.34,0.79l-0.48,3.59c-1.25-0.37-2.51-0.59-3.57-0.59c-1.63,0-1.98,0.48-1.98,1.19
	c0,2.14,6.56,1.41,6.56,6.8C50.62,54.22,48.42,56.25,44.7,56.25z M37.83,24.35l-0.93-1.52l-0.04,0.02l0.02,1.78v7.33H33.1V15.45
	h3.61l5.3,8.56l0.04-0.02l-0.04-1.76l0.02-6.78h3.79v16.51h-3.06L37.83,24.35z M34.16,50.26V39.45h4.29v10.9
	c0,3.87-2.07,5.9-6.29,5.9c-4.23,0-6.36-2.03-6.36-5.9v-10.9h4.31v10.81c0,1.47,0.57,2.13,2.05,2.13
	C33.66,52.4,34.16,51.78,34.16,50.26z M26.26,15.45h4.42v16.51h-4.42V15.45z M13.13,55.96v-2.8l5.26-8.36l0.97-1.45l-0.02-0.04
	h-6.07l0.11-3.85h11.03v3.08l-5.08,8.1l-0.97,1.43l0.02,0.07h6.07l-0.07,3.83H13.13z M24.44,28.24l-0.09,3.72H13.72V15.45h10.34
	l0.09,3.79h-6.14v2.55h5.06v3.45h-5.06v2.99H24.44z M93.17,47.8l0.55,1.69h0.07l0.55-1.67l2.95-8.36h4.75v16.51H98.1v-6.91
	l0.04-1.78l-0.07-0.02l-0.55,1.72l-2.44,7h-2.79l-2.42-6.98l-0.55-1.72l-0.04,0.02l0.02,1.78v6.89h-3.76V39.45h4.73L93.17,47.8z
	 M135.8,52.55c1.36,0,1.89-0.46,1.89-1.34c0-2.11-6.56-1.45-6.56-6.84c0-2.88,1.76-5.17,5.83-5.17c1.52,0,3.15,0.29,4.34,0.79
	l-0.48,3.59c-1.25-0.37-2.51-0.59-3.57-0.59c-1.63,0-1.98,0.48-1.98,1.19c0,2.14,6.56,1.41,6.56,6.8c0,3.26-2.2,5.28-5.92,5.28
	c-1.74,0-3.46-0.4-4.8-1.14l0.55-3.65C133,52.13,134.37,52.55,135.8,52.55z M161.58,55.96h-4.42V39.45h4.42V55.96z"/>
</svg>
