<?xml version="1.0" encoding="utf-8"?>
<!-- Generator: Adobe Illustrator 27.2.0, SVG Export Plug-In . SVG Version: 6.00 Build 0)  -->
<svg version="1.1" id="Ebene_1" xmlns="http://www.w3.org/2000/svg" xmlns:xlink="http://www.w3.org/1999/xlink" x="0px" y="0px"
	 viewBox="0 0 643.8 600" style="enable-background:new 0 0 643.8 600;" xml:space="preserve">
<style type="text/css">
	.st0{fill:#020203;}
	.st1{fill-rule:evenodd;clip-rule:evenodd;fill:#FFED00;}
</style>
<polygon class="st0" points="91.9,482.2 464.4,481.8 616.3,481.7 616.4,421.4 570.2,348.8 616.4,277.6 616.5,217 91.5,217 
	9.5,350.8 9.5,350.9 "/>
<path class="st1" d="M519.6,317.9c-3.7-1.3-7.8-2.1-12.6-2.1c-12.9,0-20.1,4.8-23.4,15.9h32.7l-3.3,15.8h-31.4v5.7h29.6l-3.2,15.3
	h-24.7c3.5,13.4,11.6,17.7,23.4,17.7c5.6,0,11.2-1.6,16.3-3.5l2.1,22.5c-6.9,3.5-15.5,5.4-26.4,5.4c-26.4,0-42.4-13.5-47.2-42.1
	h-11.8l0.2-15.3H450v-5.7h-10.2l-0.2-15.8h11.8c5.1-26.3,22.3-42.5,48.6-42.5c10.5,0,18.5,1.6,25.2,4.1L519.6,317.9z M352.5,410.8
	c-29.6,0-41.6-18-41.6-60.7c0-45.6,12.1-61.7,41.9-61.7c29.2,0,41.9,16.1,41.9,61.7C394.7,392.8,381.5,410.8,352.5,410.8z
	 M352.8,315c-8.4,0-12.3,4.3-12.3,34.7c0,32,3.8,35.4,12.3,35.4c8.3,0,11.9-4.1,11.9-35.4C364.8,318.7,361.1,315,352.8,315z
	 M258.7,410.8c-29.6,0-41.6-18-41.6-60.7c0-45.6,12.1-61.7,41.9-61.7c29.2,0,41.9,16.1,41.9,61.7
	C300.9,392.8,287.7,410.8,258.7,410.8z M259,315c-8.4,0-12.3,4.3-12.3,34.7c0,32,3.8,35.4,12.3,35.4c8.3,0,11.9-4.1,11.9-35.4
	C270.9,318.7,267.3,315,259,315z M205.3,373.2c0,22.9-14.2,37.6-45.1,37.6c-13.1,0-24.9-3.5-33.1-8.3l5.3-23.6
	c8.6,4.3,17,6.5,26.6,6.5c11,0,16.4-4.6,16.4-13.1c0-7.8-4.3-13.7-25.6-13.7v-21.5c20.5,0,24.8-4.6,24.8-12.7
	c0-6.2-4.1-9.9-14.7-9.9c-10.4,0-19.3,3.5-26.8,9.6l-6.9-23.9c8.9-7,22.1-11.8,36-11.8c25.8,0,40.8,12.7,40.8,33.9
	c0,10.8-4.9,19.4-14.3,24.7v0.3C199.4,352,205.3,360.6,205.3,373.2z"/>
</svg>
