<?xml version="1.0" encoding="utf-8"?>
<!-- Generator: Adobe Illustrator 27.2.0, SVG Export Plug-In . SVG Version: 6.00 Build 0)  -->
<svg version="1.1" id="Ebene_1" xmlns="http://www.w3.org/2000/svg" xmlns:xlink="http://www.w3.org/1999/xlink" x="0px" y="0px"
	 viewBox="0 0 643.8 600" style="enable-background:new 0 0 643.8 600;" xml:space="preserve">
<style type="text/css">
	.st0{fill-rule:evenodd;clip-rule:evenodd;}
</style>
<text transform="matrix(0.9919 0 0 1 -430.8037 362.9277)" style="fill:#FFFFFF; font-family:'ClanPro-NarrBlack'; font-size:12.2353px;">Mehr infos</text>
<path class="st0" d="M597.9,345.6h-19.3L566.7,320h-4v25.6h-16.4v-63h16.4V307h4.4l11.7-24.3h18.4L582,312.8L597.9,345.6z
	 M528.3,332.5c3.9,0,7.5-0.8,10.4-2.1l1.5,13.3c-3.8,1.8-9.5,3-14.4,3c-18,0-26.7-10.2-26.7-32.9c0-21.2,8.5-32.2,27.7-32.2
	c4.4,0,9.9,1,13.3,2.4l-1.6,13.9c-2.8-1-6.5-1.7-10.5-1.7c-9.3,0-11.7,3.9-11.7,17.7C516.4,328.4,519,332.5,528.3,332.5z
	 M468.9,346.7c-16.1,0-24.3-7.7-24.3-22.5v-41.6h16.5v41.2c0,5.6,2.2,8.1,7.8,8.1c5.7,0,7.6-2.4,7.6-8.1v-41.2h16.4v41.6
	C492.9,339,485,346.7,468.9,346.7z M423.1,345.6l-8.4-22.5h-5.5v22.5h-16.4v-63h21.7c16,0,23.8,6,23.8,20.2c0,8.4-3,14.6-8.6,17
	l12.3,25.8H423.1z M414.8,296.3h-5.7v14.5h5.6c4.8,0,6.5-1.2,6.5-7.3C421.2,297.8,419.6,296.3,414.8,296.3z M359.3,345.6h-22.7v-63
	h22.4c19.1,0,26.9,8.9,26.9,31.1C385.9,336.9,377,345.6,359.3,345.6z M359,297.2h-6.1v34.1h6.1c7.2,0,9.7-2.2,9.7-17.6
	C368.7,299.7,366.4,297.2,359,297.2z M294.5,345.6l-8.4-22.5h-5.5v22.5h-16.4v-63H286c16,0,23.8,6,23.8,20.2c0,8.4-3,14.6-8.6,17
	l12.3,25.8H294.5z M286.3,296.3h-5.7v14.5h5.6c4.8,0,6.5-1.2,6.5-7.3C292.7,297.8,291.1,296.3,286.3,296.3z M257.9,331.5l-0.3,14.2
	H217v-63h39.5l0.3,14.4h-23.4v9.7h19.3V320h-19.3v11.4H257.9z M192.1,321h-15.3v24.7h-16.4v-63h16.4v23.6h15.3v-23.6h16.5v63h-16.5
	V321z M127.2,346.7c-18.1,0-26.4-9.6-26.4-32.6c0-23.1,7.9-32.5,26.4-32.5c18.5,0,26.4,9.4,26.4,32.5
	C153.6,337.8,145.7,346.7,127.2,346.7z M127.1,296.4c-6.9,0-9.1,2.9-9.1,17.8c0,15,2.3,18.1,9.2,18.1c7,0,9.1-3.1,9.1-18.1
	C136.4,299.1,134.3,296.4,127.1,296.4z M77.6,321H62.3v24.7H45.9v-63h16.4v23.6h15.3v-23.6H94v63H77.6V321z"/>
</svg>
