<?xml version="1.0" encoding="utf-8"?>
<!-- Generator: Adobe Illustrator 27.2.0, SVG Export Plug-In . SVG Version: 6.00 Build 0)  -->
<svg version="1.1" id="Ebene_1" xmlns="http://www.w3.org/2000/svg" xmlns:xlink="http://www.w3.org/1999/xlink" x="0px" y="0px"
	 viewBox="0 0 643.8 600" style="enable-background:new 0 0 643.8 600;" xml:space="preserve">
<style type="text/css">
	.st0{fill-rule:evenodd;clip-rule:evenodd;}
</style>
<text transform="matrix(0.9919 0 0 1 -430.8037 362.9277)" style="fill:#FFFFFF; font-family:'ClanPro-NarrBlack'; font-size:12.2353px;">Mehr infos</text>
<path class="st0" d="M579.9,323.8l-2.5-46h17.2l-2.4,46H579.9z M571.7,328.6l-0.4,14.8h-42.3v-65.6h41.1l0.4,15.1h-24.4V303h20.1
	v13.7h-20.1v11.9H571.7z M499.4,344.6c-6.9,0-13.7-1.6-19.1-4.5l2.2-14.5c5.3,2.7,10.8,4.4,16.5,4.4c5.4,0,7.5-1.8,7.5-5.3
	c0-8.4-26.1-5.8-26.1-27.2c0-11.5,7-20.6,23.2-20.6c6,0,12.5,1.1,17.2,3.2l-1.9,14.3c-5-1.5-10-2.4-14.2-2.4c-6.5,0-7.9,1.9-7.9,4.7
	c0,8.5,26.1,5.6,26.1,27C523,336.5,514.2,344.6,499.4,344.6z M455,277.8h17.6v65.6H455V277.8z M447.8,328.6l-0.4,14.8h-42.3v-65.6
	h41.1l0.4,15.1h-24.4V303h20.1v13.7h-20.1v11.9H447.8z M381.1,343.4l-8.8-23.5h-5.8v23.5h-17.1v-65.6h22.7
	c16.6,0,24.9,6.3,24.9,21.1c0,8.8-3.2,15.2-8.9,17.7l12.8,26.9H381.1z M372.5,292h-6v15.1h5.9c5,0,6.7-1.2,6.7-7.6
	C379.2,293.5,377.5,292,372.5,292z M317.8,323h-5.4v20.4h-17.1v-65.6h22.5c18.2,0,25.5,7.1,25.5,23.1
	C343.3,315.1,336.2,323,317.8,323z M317.8,292.1h-5.4v17.4h5.4c5.6,0,7.7-1.3,7.7-8.7C325.5,293.7,323.8,292.1,317.8,292.1z
	 M269.1,328.6l-0.4,14.8h-42.3v-65.6h41.1l0.4,15.1h-24.4V303h20.1v13.7h-20.1v11.9H269.1z M196.5,304.7h20l-0.1,14.5h-20v24.2
	h-17.2v-65.6h41l0.3,15.3h-24.2V304.7z M172.8,328.6l-0.4,14.8h-42.3v-65.6h41.1l0.4,15.1h-24.4V303h20.1v13.7h-20.1v11.9H172.8z
	 M103,277.8h17.6v65.6H103V277.8z M82.1,343.4H64.7v-50.3H49.8l0.4-15.3h46.5l0.4,15.3H82.1V343.4z M586.4,329.2
	c6,0,8.6,2.9,8.6,7.7c0,4.5-2.6,7.5-8.6,7.5c-5.9,0-8.5-2.2-8.5-7.5C577.9,332.1,580.5,329.2,586.4,329.2z"/>
</svg>
