<?xml version="1.0" encoding="utf-8"?>
<!-- Generator: Adobe Illustrator 27.2.0, SVG Export Plug-In . SVG Version: 6.00 Build 0)  -->
<svg version="1.1" id="Ebene_1" xmlns="http://www.w3.org/2000/svg" xmlns:xlink="http://www.w3.org/1999/xlink" x="0px" y="0px"
	 viewBox="0 0 643.8 600" style="enable-background:new 0 0 643.8 600;" xml:space="preserve">
<style type="text/css">
	.st0{fill-rule:evenodd;clip-rule:evenodd;}
</style>
<text transform="matrix(0.9919 0 0 1 -430.8037 362.9277)" style="fill:#FFFFFF; font-family:'ClanPro-NarrBlack'; font-size:12.2353px;">Mehr infos</text>
<path class="st0" d="M546.1,225.4l22.6,47.5h-35l-15.5-41.5H508v41.5h-30.2V156.8h40.1c29.4,0,44,11.1,44,37.3
	C561.8,209.6,556.3,221,546.1,225.4z M518.5,181.9H508v26.8h10.4c8.8,0,11.9-2.2,11.9-13.5C530.3,184.7,527.3,181.9,518.5,181.9z
	 M466.1,246.8l-0.6,26.2h-74.8V156.8h72.8l0.6,26.6h-43.2v18h35.6v24.3h-35.6v21.1H466.1z M426.4,309.6c8.2,0,18.3,1.9,24.5,4.3
	l-2.9,25.7c-5.1-1.9-12.1-3.1-19.4-3.1c-17.2,0-21.5,7.3-21.5,32.7c0,26.8,4.8,34.2,22,34.2c7.1,0,13.8-1.4,19.2-3.9l2.8,24.6
	c-7,3.4-17.5,5.6-26.5,5.6c-33.1,0-49.2-18.9-49.2-60.7C375.2,330.1,390.9,309.6,426.4,309.6z M344.7,227.4h-28.2v45.5h-30.2V156.8
	h30.2v43.5h28.2v-43.5h30.4v116.2h-30.4V227.4z M304.9,387.7c0,10.4,4,15,14.4,15c10.5,0,14.1-4.3,14.1-15v-76h30.2v76.7
	c0,27.3-14.6,41.5-44.3,41.5c-29.7,0-44.8-14.2-44.8-41.5v-76.7h30.4V387.7z M225,274.9c-33.5,0-48.6-17.7-48.6-60.1
	c0-42.6,14.6-59.9,48.6-59.9s48.6,17.3,48.6,59.9C273.7,258.5,259.1,274.9,225,274.9z M224.9,182c-12.7,0-16.7,5.3-16.7,32.8
	c0,27.7,4.2,33.3,17,33.3s16.7-5.7,16.7-33.3C241.9,187.1,238.1,182,224.9,182z M117.1,427.8h-42V311.6h41.4
	c35.3,0,49.7,16.4,49.7,57.5C166.2,411.7,149.8,427.8,117.1,427.8z M116.6,338.4h-11.3v62.9h11.3c13.3,0,17.8-4,17.8-32.5
	C134.5,343.1,130.3,338.4,116.6,338.4z M133.5,227.4h-28.2v45.5H75.1V156.8h30.2v43.5h28.2v-43.5h30.4v116.2h-30.4V227.4z M263,349
	c0,15.5-5.6,26.9-15.8,31.3l22.6,47.5h-35l-15.5-41.5h-10.2v41.5h-30.2V311.6H219C248.4,311.6,263,322.8,263,349z M209.1,363.5h10.4
	c8.8,0,11.9-2.2,11.9-13.5c0-10.5-2.9-13.3-11.8-13.3h-10.5V363.5z M492.3,356.5h8.1l21.5-44.9h33.9l-27.9,55.6l29.3,60.6h-35.6
	l-21.8-47.2h-7.4v47.2h-30.2V311.6h30.2V356.5z"/>
</svg>
