<?xml version="1.0" encoding="utf-8"?>
<!-- Generator: Adobe Illustrator 27.2.0, SVG Export Plug-In . SVG Version: 6.00 Build 0)  -->
<svg version="1.1" id="Ebene_1" xmlns="http://www.w3.org/2000/svg" xmlns:xlink="http://www.w3.org/1999/xlink" x="0px" y="0px"
	 viewBox="0 0 643.8 600" style="enable-background:new 0 0 643.8 600;" xml:space="preserve">
<style type="text/css">
	.st0{fill-rule:evenodd;clip-rule:evenodd;}
</style>
<text transform="matrix(0.9919 0 0 1 -430.8037 362.9277)" style="fill:#FFFFFF; font-family:'ClanPro-NarrBlack'; font-size:12.2353px;">Mehr infos</text>
<path class="st0" d="M539.1,393.5v-19.3l0.1-5l-0.2-0.1l-1.5,4.8l-6.8,19.6h-7.8l-6.8-19.5l-1.5-4.8l-0.1,0.1l0.1,5v19.3H504v-46.2
	h13.2l8.1,23.3l1.5,4.7h0.2l1.5-4.7l8.3-23.4h13.3v46.2H539.1z M482.1,385.3v8.2h-10.9v-8.2H453l-1-7.5l16-30.4h14.1v28.2h3.8
	l-0.2,9.7H482.1z M472.2,358.9l-8.3,16.6h7.6L472,364l0.3-5L472.2,358.9z M431.2,366.4h17.2v8h-17.2V366.4z M417.2,270.3l-8.7-18.8
	h-3v18.8h-12v-46.2h12V242h3.2l8.6-17.9h13.5l-11.1,22.1l11.6,24.1H417.2z M375,383.1h14.4l-0.2,10.4h-29V386
	c9.5-10.7,17.3-18.3,17.3-24.4c0-2.8-1.6-4.4-5.3-4.4c-3.5,0-6.7,1.6-9.7,3.8l-2.8-9.5c3.7-2.7,8.6-4.6,14.8-4.6
	c10.1,0,15.2,5.5,15.2,13.6c0,7.5-6,14.2-14.7,22.5L375,383.1z M380.4,260.7c2.8,0,5.5-0.6,7.6-1.5l1.1,9.8c-2.8,1.4-7,2.2-10.5,2.2
	c-13.2,0-19.6-7.5-19.6-24.1c0-15.5,6.2-23.6,20.3-23.6c3.3,0,7.3,0.7,9.7,1.7l-1.2,10.2c-2-0.7-4.8-1.2-7.7-1.2
	c-6.8,0-8.6,2.9-8.6,13C371.7,257.7,373.6,260.7,380.4,260.7z M343.7,262.3h-12.6l-1.8,8.1h-12.7l13.7-46.2H345l13.9,46.2h-13.4
	L343.7,262.3z M338.5,239l-0.9-4.9h-0.2l-1,4.9l-3,13.2h8.1L338.5,239z M315.9,256.7c0,8.3-5,13.6-16.5,13.6h-18v-46.2h18.1
	c9.9,0,15,4.6,15,11.9c0,4.9-2.2,8-5.7,9.7v0.1C313.4,247.4,315.9,251,315.9,256.7z M299,234.3h-6v8.1h6.1c2.8,0,3.8-1,3.8-4.2
	C302.9,235.2,301.9,234.3,299,234.3z M299.3,251.4h-6.3v9.1h6.5c3,0,4.1-1,4.1-4.6C303.7,252.7,302.7,251.4,299.3,251.4z
	 M285.5,208.8h-12.3v-35.4h-10.5l0.2-10.8h32.7l0.2,10.8h-10.5V208.8z M260.5,198l-0.2,10.7h-31.5v-7.8l14.7-23.4l2.7-4.1l-0.1-0.1
	h-17l0.3-10.8h30.8v8.6l-14.2,22.7l-2.7,4l0.1,0.2H260.5z M216.3,208.8h-12.3v-35.4h-10.5l0.2-10.8h32.7l0.2,10.8h-10.5V208.8z
	 M191.6,198.4l-0.2,10.4h-29.7v-46.2h28.9l0.2,10.6h-17.2v7.1h14.2v9.7h-14.2v8.4H191.6z M189.8,224.2l13.9,46.2h-13.4l-1.8-8.1H176
	l-1.8,8.1h-12.7l13.7-46.2H189.8z M186.3,252.2l-3-13.2l-0.9-4.9h-0.2l-1,4.9l-3,13.2H186.3z M142.8,304.7h14.1l-0.1,10.2h-14v17.1
	h-12.1v-46.2h28.9l0.2,10.8h-17V304.7z M150.9,260.7c2.8,0,5.5-0.6,7.6-1.5l1.1,9.8c-2.8,1.4-7,2.2-10.5,2.2
	c-13.2,0-19.6-7.5-19.6-24.1c0-15.5,6.2-23.6,20.3-23.6c3.3,0,7.3,0.7,9.7,1.7l-1.2,10.2c-2-0.7-4.8-1.2-7.7-1.2
	c-6.8,0-8.6,2.9-8.6,13C142.1,257.7,144,260.7,150.9,260.7z M137.6,209.6c-3.4,0-6.2-0.6-8.4-1.6l0.6-10c1.3,0.7,3.3,1.1,5.7,1.1
	c5,0,7.5-2,7.5-7.5v-29h12.3v29.2C155.3,205.4,148.4,209.6,137.6,209.6z M142.5,445.6c3.8,0,5.3-1.3,5.3-3.8
	c0-5.9-18.3-4.1-18.3-19.2c0-8.1,4.9-14.5,16.3-14.5c4.2,0,8.8,0.8,12.1,2.2l-1.4,10c-3.5-1-7-1.7-10-1.7c-4.6,0-5.5,1.4-5.5,3.3
	c0,6,18.3,3.9,18.3,19c0,9.1-6.2,14.8-16.6,14.8c-4.9,0-9.7-1.1-13.4-3.2l1.5-10.2C134.7,444.4,138.5,445.6,142.5,445.6z
	 M176.5,455.1h-12.4v-46.2h12.4V455.1z M202.4,408.1c3.3,0,7.3,0.7,9.7,1.7l-1.2,10.2c-2-0.7-4.8-1.2-7.7-1.2c-6.8,0-8.6,2.9-8.6,13
	c0,10.7,1.9,13.6,8.7,13.6c2.8,0,5.5-0.6,7.6-1.5l1.1,9.8c-2.8,1.4-7,2.2-10.5,2.2c-13.2,0-19.6-7.5-19.6-24.1
	C182.1,416.3,188.3,408.1,202.4,408.1z M228.6,426.2h11.2v-17.3h12.1v46.2h-12.1V437h-11.2v18.1h-12v-46.2h12V426.2z M241.9,379.6
	c0,9.1-6.2,14.8-16.6,14.8c-4.9,0-9.7-1.1-13.4-3.2l1.5-10.2c3.8,1.9,7.6,3.1,11.6,3.1c3.8,0,5.3-1.3,5.3-3.8
	c0-5.9-18.3-4.1-18.3-19.2c0-8.1,4.9-14.5,16.3-14.5c4.2,0,8.8,0.8,12.1,2.2l-1.4,10c-3.5-1-7-1.7-10-1.7c-4.6,0-5.5,1.4-5.5,3.3
	C223.5,366.5,241.9,364.5,241.9,379.6z M208.4,370.2c0,16.9-6.5,23.3-19.5,23.3h-16.7v-46.2h16.4
	C202.7,347.4,208.4,353.9,208.4,370.2z M188.7,358h-4.5v25h4.5c5.3,0,7.1-1.6,7.1-12.9C195.8,359.8,194.2,358,188.7,358z M166,347.4
	v46.2h-12.1v-18.1h-11.2v18.1h-12v-46.2h12v17.3h11.2v-17.3H166z M170.8,279.4c0-2.8,1.5-4.2,4.6-4.2c3.1,0,4.6,1.5,4.6,4.2
	c0,2.7-1.4,4.1-4.6,4.1C172.4,283.5,170.8,282.4,170.8,279.4z M182.6,279.4c0-2.8,1.5-4.2,4.6-4.2c3.1,0,4.6,1.5,4.6,4.2
	c0,2.7-1.4,4.1-4.6,4.1C184.1,283.5,182.6,282.4,182.6,279.4z M198.8,316.2c0,10.8-5.8,16.5-17.6,16.5c-11.8,0-17.8-5.7-17.8-16.5
	v-30.5h12.1V316c0,4.1,1.6,6,5.7,6c4.2,0,5.6-1.7,5.6-6v-30.2h12V316.2z M235.6,256.4c0,9.1-6.2,14.8-16.6,14.8
	c-4.9,0-9.7-1.1-13.4-3.2l1.5-10.2c3.8,1.9,7.6,3.1,11.6,3.1c3.8,0,5.3-1.3,5.3-3.8c0-5.9-18.3-4.1-18.3-19.2
	c0-8.1,4.9-14.5,16.3-14.5c4.2,0,8.8,0.8,12.1,2.2l-1.4,10c-3.5-1-7-1.7-10-1.7c-4.6,0-5.5,1.4-5.5,3.3
	C217.3,243.3,235.6,241.3,235.6,256.4z M226.9,331.9l-6.2-16.5h-4.1v16.5h-12v-46.2h15.9c11.7,0,17.5,4.4,17.5,14.8
	c0,6.2-2.2,10.7-6.3,12.4l9,18.9H226.9z M220.9,295.7h-4.2v10.7h4.1c3.5,0,4.7-0.9,4.7-5.4C225.6,296.8,224.4,295.7,220.9,295.7z
	 M239.9,270.3v-46.2h12v17.3h11.2v-17.3h12.1v46.2h-12.1v-18.1h-11.2v18.1H239.9z M293.9,308.6c0,16.9-6.5,23.3-19.5,23.3h-16.7
	v-46.2h16.4C288.2,285.8,293.9,292.3,293.9,308.6z M269.7,321.4h4.5c5.3,0,7.1-1.6,7.1-12.9c0-10.2-1.7-12.1-7.1-12.1h-4.5V321.4z
	 M287.3,419.5h-17.2v7.1h14.2v9.7h-14.2v8.4h18l-0.2,10.4h-29.7v-46.2h28.9L287.3,419.5z M264,365.2l-1.2-9.4l13.4-8.4h7v37.9h5.5
	v8.2h-23v-8.2h5.5v-24L264,365.2z M326.2,423.8c0,6.2-2.2,10.7-6.3,12.4l9,18.9H315l-6.2-16.5h-4.1v16.5h-12v-46.2h15.9
	C320.4,408.9,326.2,413.4,326.2,423.8z M304.8,429.6h4.1c3.5,0,4.7-0.9,4.7-5.4c0-4.2-1.2-5.3-4.7-5.3h-4.2V429.6z M311.4,346.9
	c11.3,0,16.2,6.2,16.2,23.8c0,16.5-5.1,23.5-16.3,23.5c-11.5,0-16.1-7-16.1-23.5C295.2,353.1,299.8,346.9,311.4,346.9z M311.4,384.2
	c3.2,0,4.6-1.6,4.6-13.7c0-12-1.4-13.4-4.6-13.4c-3.3,0-4.7,1.7-4.7,13.4C306.6,382.9,308.1,384.2,311.4,384.2z M329,321.5
	l-0.2,10.4H299v-46.2h28.9l0.2,10.6H311v7.1h14.2v9.7H311v8.4H329z M328.5,400.7l19-55.3h9.6l-19.3,55.3H328.5z M358.6,285.8h10.6
	v46.2h-8.6l-13.8-21.3l-2.6-4.2l-0.1,0.1l0.1,5v20.5h-10.6v-46.2h10.1l14.8,24l0.1-0.1l-0.1-4.9L358.6,285.8z M356.9,432.9l0.1-0.1
	l-0.1-4.9l0.1-19h10.6v46.2H359l-13.8-21.3l-2.6-4.2l-0.1,0.1l0.1,5v20.5h-10.6v-46.2H342L356.9,432.9z M378.7,444.1
	c4.3,0,6.2,2.2,6.2,5.9c0,3.5-1.8,5.8-6.2,5.8c-4.3,0-6.2-1.7-6.2-5.8C372.5,446.3,374.4,444.1,378.7,444.1z M389.3,411.8l5.7,1.4
	l0.9-6h5.2l0.8,6l5.7-1.4l1.8,5l-5.5,2.6l3.1,5.2l-3.9,3l-4.6-4.4l-4.7,4.5l-4-2.8l3-5.4l-5.5-2.6L389.3,411.8z M394.6,370.7
	c0-17.6,4.7-23.8,16.2-23.8c11.3,0,16.2,6.2,16.2,23.8c0,16.5-5.1,23.5-16.3,23.5C399.2,394.1,394.6,387.2,394.6,370.7z
	 M410.8,384.2c3.2,0,4.6-1.6,4.6-13.7c0-12-1.4-13.4-4.6-13.4c-3.3,0-4.7,1.7-4.7,13.4C406.1,382.9,407.6,384.2,410.8,384.2z"/>
</svg>
