<?xml version="1.0" encoding="utf-8"?>
<!-- Generator: Adobe Illustrator 16.0.0, SVG Export Plug-In . SVG Version: 6.00 Build 0)  -->
<!DOCTYPE svg PUBLIC "-//W3C//DTD SVG 1.1//EN" "http://www.w3.org/Graphics/SVG/1.1/DTD/svg11.dtd">
<svg version="1.1" id="Ebene_1" xmlns="http://www.w3.org/2000/svg" xmlns:xlink="http://www.w3.org/1999/xlink" x="0px" y="0px"
	 width="33.082px" height="18.291px" viewBox="0 0 33.082 18.291" enable-background="new 0 0 33.082 18.291" xml:space="preserve">
<g id="Text">
	<g>
		<path fill="#FFFFFF" d="M2.142,5.022H0.355V0.078h1.76c1.503,0,2.116,0.699,2.116,2.446C4.231,4.337,3.533,5.022,2.142,5.022z
			 M2.122,1.219H1.641v2.677h0.481c0.567,0,0.758-0.172,0.758-1.385C2.88,1.417,2.702,1.219,2.122,1.219z"/>
		<path fill="#FFFFFF" d="M7.139,4.159H5.794L5.603,5.022H4.238l1.463-4.944h1.576l1.489,4.944H7.33L7.139,4.159z M6.354,1.667
			L6.038,3.084h0.863L6.585,1.667L6.486,1.14h-0.02L6.354,1.667z"/>
		<path fill="#FFFFFF" d="M10.401,5.108c-0.521,0-1.035-0.119-1.438-0.343L9.128,3.67C9.53,3.874,9.939,4,10.367,4
			c0.409,0,0.567-0.139,0.567-0.402c0-0.633-1.964-0.435-1.964-2.05C8.971,0.686,9.498,0,10.718,0c0.455,0,0.942,0.085,1.298,0.236
			l-0.145,1.075c-0.376-0.112-0.751-0.179-1.068-0.179c-0.488,0-0.593,0.146-0.593,0.356c0,0.64,1.964,0.422,1.964,2.037
			C12.174,4.502,11.515,5.108,10.401,5.108z"/>
		<path fill="#FFFFFF" d="M17.012,5.022l-1.477-2.28l-0.277-0.455l-0.013,0.006l0.006,0.534v2.195h-1.134V0.078h1.081l1.589,2.564
			L16.8,2.636l-0.013-0.527l0.007-2.031h1.134v4.944H17.012z"/>
		<path fill="#FFFFFF" d="M21.811,3.908l-0.025,1.114h-3.184V0.078H21.7l0.026,1.135h-1.84v0.764h1.516v1.035h-1.516v0.896H21.811z"
			/>
		<path fill="#FFFFFF" d="M26.049,3.342c0,1.16-0.619,1.767-1.885,1.767s-1.905-0.606-1.905-1.767V0.078h1.292v3.237
			c0,0.441,0.172,0.64,0.613,0.64c0.447,0,0.6-0.186,0.6-0.64V0.078h1.285V3.342z"/>
		<path fill="#FFFFFF" d="M29.885,3.908l-0.025,1.114h-3.185V0.078h3.099L29.8,1.213h-1.84v0.764h1.517v1.035H27.96v0.896H29.885z"
			/>
		<path fill="#FFFFFF" d="M2.907,10.751H1.562l-0.191,0.863H0.006L1.47,6.67h1.575l1.49,4.944H3.098L2.907,10.751z M2.122,8.259
			L1.806,9.677H2.67L2.353,8.259L2.254,7.731h-0.02L2.122,8.259z"/>
		<path fill="#FFFFFF" d="M7.396,11.614l-0.93-2.011H6.149v2.011H4.864V6.67h1.285v1.912h0.343L7.408,6.67h1.444L7.666,9.037
			l1.246,2.577H7.396z"/>
		<path fill="#FFFFFF" d="M11.805,11.614l-0.929-2.011H10.56v2.011H9.273V6.67h1.286v1.912h0.343l0.917-1.912h1.443l-1.187,2.367
			l1.246,2.577H11.805z"/>
		<path fill="#FFFFFF" d="M17.428,9.935c0,1.16-0.62,1.767-1.886,1.767s-1.905-0.606-1.905-1.767V6.67h1.292v3.237
			c0,0.441,0.171,0.64,0.613,0.64c0.448,0,0.6-0.187,0.6-0.64V6.67h1.286V9.935z"/>
		<path fill="#FFFFFF" d="M19.8,8.714V9.57h-1.839V8.714H19.8z"/>
		<path fill="#FFFFFF" d="M24.125,9.935c0,1.16-0.62,1.767-1.887,1.767c-1.266,0-1.904-0.606-1.904-1.767V6.67h1.292v3.237
			c0,0.441,0.171,0.64,0.612,0.64c0.449,0,0.601-0.187,0.601-0.64V6.67h1.286V9.935z"/>
		<path fill="#FFFFFF" d="M27.645,11.614l-1.477-2.28l-0.277-0.455l-0.013,0.006l0.007,0.534v2.195h-1.134V6.67h1.081l1.588,2.564
			l0.014-0.006L27.42,8.701l0.006-2.031h1.135v4.944H27.645z"/>
		<path fill="#FFFFFF" d="M29.285,6.67h1.324v4.944h-1.324V6.67z"/>
		<path fill="#FFFFFF" d="M33.082,8.714V9.57h-1.839V8.714H33.082z"/>
		<path fill="#FFFFFF" d="M4.39,13.263l-1.463,4.942h-1.47L0,13.263h1.417l0.692,3.084l0.112,0.521h0.02l0.105-0.521l0.712-3.084
			H4.39z"/>
		<path fill="#FFFFFF" d="M7.916,17.091L7.89,18.205H4.706v-4.942h3.098l0.026,1.133H5.991v0.766h1.516v1.033H5.991v0.896H7.916z"/>
		<path fill="#FFFFFF" d="M11.317,16.183l0.962,2.022h-1.49l-0.659-1.767H9.696v1.767H8.41v-4.942h1.708
			c1.252,0,1.872,0.475,1.872,1.588C11.99,15.509,11.752,15.997,11.317,16.183z M10.144,14.329H9.696v1.141h0.442
			c0.375,0,0.507-0.093,0.507-0.572C10.645,14.446,10.52,14.329,10.144,14.329z"/>
		<path fill="#FFFFFF" d="M13.895,18.291c-0.521,0-1.035-0.119-1.438-0.343l0.165-1.096c0.402,0.205,0.811,0.33,1.239,0.33
			c0.409,0,0.567-0.139,0.567-0.402c0-0.633-1.964-0.436-1.964-2.049c0-0.864,0.527-1.551,1.747-1.551
			c0.455,0,0.942,0.086,1.298,0.238l-0.145,1.074c-0.376-0.112-0.751-0.178-1.068-0.178c-0.488,0-0.593,0.145-0.593,0.354
			c0,0.64,1.964,0.422,1.964,2.037C15.667,17.685,15.008,18.291,13.895,18.291z"/>
		<path fill="#FFFFFF" d="M19.873,16.524c0,1.16-0.62,1.767-1.887,1.767c-1.265,0-1.904-0.606-1.904-1.767v-3.264h1.292v3.236
			c0,0.441,0.171,0.639,0.612,0.639c0.449,0,0.601-0.184,0.601-0.639v-3.236h1.286V16.524z"/>
		<path fill="#FFFFFF" d="M21.916,13.263l0.87,2.498l0.165,0.508h0.02l0.166-0.502l0.883-2.504h1.424v4.942h-1.18v-2.069
			l0.012-0.533l-0.02-0.008l-0.165,0.516l-0.731,2.096h-0.838l-0.725-2.09l-0.165-0.514l-0.014,0.006l0.007,0.533v2.063h-1.127
			v-4.942H21.916z"/>
		<path fill="#FFFFFF" d="M26.643,18.284c-0.461,0-0.666-0.178-0.666-0.626c0-0.402,0.205-0.634,0.666-0.634s0.66,0.23,0.66,0.634
			C27.303,18.033,27.104,18.284,26.643,18.284z"/>
	</g>
</g>
<g id="Screens">
</g>
</svg>
