<?xml version="1.0" encoding="utf-8"?>
<!-- Generator: Adobe Illustrator 16.0.0, SVG Export Plug-In . SVG Version: 6.00 Build 0)  -->
<!DOCTYPE svg PUBLIC "-//W3C//DTD SVG 1.1//EN" "http://www.w3.org/Graphics/SVG/1.1/DTD/svg11.dtd">
<svg version="1.1" id="Ebene_1" xmlns="http://www.w3.org/2000/svg" xmlns:xlink="http://www.w3.org/1999/xlink" x="0px" y="0px"
	 width="31.871px" height="24.805px" viewBox="0 0 31.871 24.805" enable-background="new 0 0 31.871 24.805" xml:space="preserve">
<g id="Text">
	<g>
		<path fill="#FFFFFF" d="M1.787,4.944H0V0h1.76c1.503,0,2.116,0.698,2.116,2.445C3.876,4.259,3.178,4.944,1.787,4.944z
			 M1.767,1.141H1.286v2.677h0.481c0.567,0,0.758-0.172,0.758-1.385C2.525,1.339,2.347,1.141,1.767,1.141z"/>
		<path fill="#FFFFFF" d="M4.47,0h1.325v4.943H4.47V0z"/>
		<path fill="#FFFFFF" d="M9.729,3.83L9.703,4.944H6.52V0h3.098l0.026,1.135H7.805v0.764h1.516v1.035H7.805V3.83H9.729z"/>
		<path fill="#FFFFFF" d="M14.257,4.081h-1.345l-0.191,0.862h-1.365L12.82,0h1.575l1.49,4.943h-1.438L14.257,4.081z M13.473,1.589
			l-0.316,1.417h0.864l-0.316-1.417l-0.099-0.527h-0.02L13.473,1.589z"/>
		<path fill="#FFFFFF" d="M18.746,4.944l-0.929-2.011H17.5v2.011h-1.286V0H17.5v1.912h0.344L18.759,0h1.443l-1.187,2.367
			l1.246,2.576H18.746z"/>
		<path fill="#FFFFFF" d="M23.156,4.944l-0.93-2.011H21.91v2.011h-1.285V0h1.285v1.912h0.344L23.169,0h1.443l-1.188,2.367
			l1.246,2.576H23.156z"/>
		<path fill="#FFFFFF" d="M28.778,3.264c0,1.16-0.618,1.767-1.885,1.767s-1.905-0.605-1.905-1.767V0h1.292v3.236
			c0,0.441,0.171,0.641,0.613,0.641c0.448,0,0.601-0.187,0.601-0.641V0h1.284V3.264z"/>
		<path fill="#FFFFFF" d="M31.151,2.044V2.9h-1.839V2.044H31.151z"/>
		<path fill="#FFFFFF" d="M1.694,10H1.286v1.536H0V6.592h1.694c1.371,0,1.918,0.534,1.918,1.74C3.612,9.4,3.079,10,1.694,10z
			 M1.694,7.667H1.286v1.312h0.409c0.422,0,0.58-0.099,0.58-0.651C2.274,7.792,2.149,7.667,1.694,7.667z"/>
		<path fill="#FFFFFF" d="M7.06,10.389l-0.033,1.147H4.08V6.592h1.299v3.797H7.06z"/>
		<path fill="#FFFFFF" d="M10.032,10.673H8.688l-0.191,0.863H7.132l1.463-4.944h1.576l1.489,4.944h-1.437L10.032,10.673z
			 M9.248,8.181L8.932,9.598h0.863L9.479,8.181L9.38,7.653H9.36L9.248,8.181z"/>
		<path fill="#FFFFFF" d="M13.704,7.746v3.79h-1.312v-3.79h-1.121l0.026-1.154h3.5l0.026,1.154H13.704z"/>
		<path fill="#FFFFFF" d="M17.481,7.746v3.79h-1.312v-3.79h-1.12l0.026-1.154h3.5l0.025,1.154H17.481z"/>
		<path fill="#FFFFFF" d="M20.104,8.636v0.856h-1.839V8.636H20.104z"/>
		<path fill="#FFFFFF" d="M1.292,14.337v0.87h1.51l-0.007,1.094H1.292v1.826H0v-4.943h3.092l0.02,1.153H1.292z"/>
		<path fill="#FFFFFF" d="M5.445,18.213c-1.424,0-2.07-0.752-2.07-2.559c0-1.812,0.62-2.552,2.07-2.552
			c1.45,0,2.069,0.738,2.069,2.552C7.515,17.514,6.896,18.213,5.445,18.213z M5.438,14.258c-0.541,0-0.712,0.224-0.712,1.396
			c0,1.181,0.178,1.417,0.725,1.417c0.547,0,0.712-0.243,0.712-1.417C6.164,14.475,5.999,14.258,5.438,14.258z"/>
		<path fill="#FFFFFF" d="M10.962,16.104l0.962,2.023h-1.49L9.775,16.36H9.34v1.768H8.055v-4.943h1.708
			c1.252,0,1.872,0.476,1.872,1.588C11.634,15.431,11.397,15.919,10.962,16.104z M9.789,14.251H9.34v1.141h0.442
			c0.375,0,0.507-0.093,0.507-0.573C10.29,14.369,10.164,14.251,9.789,14.251z"/>
		<path fill="#FFFFFF" d="M13.664,13.184l0.87,2.498l0.165,0.508h0.02l0.165-0.502l0.883-2.504h1.424v4.943h-1.18v-2.07l0.013-0.533
			l-0.02-0.007l-0.165,0.515l-0.732,2.097H14.27l-0.725-2.09l-0.165-0.515l-0.014,0.006l0.007,0.534v2.063h-1.127v-4.943H13.664z"/>
		<path fill="#FFFFFF" d="M23.38,13.184l-1.463,4.943h-1.471l-1.457-4.943h1.418l0.691,3.084l0.111,0.521h0.021l0.104-0.521
			l0.713-3.084H23.38z"/>
		<path fill="#FFFFFF" d="M25.449,18.213c-1.424,0-2.068-0.752-2.068-2.559c0-1.812,0.619-2.552,2.068-2.552
			c1.45,0,2.07,0.738,2.07,2.552C27.52,17.514,26.899,18.213,25.449,18.213z M25.443,14.258c-0.541,0-0.712,0.224-0.712,1.396
			c0,1.181,0.179,1.417,0.726,1.417s0.711-0.243,0.711-1.417C26.167,14.475,26.003,14.258,25.443,14.258z"/>
		<path fill="#FFFFFF" d="M30.955,18.127l-1.478-2.281l-0.276-0.454l-0.014,0.007l0.006,0.533v2.195H28.06v-4.943h1.081l1.589,2.563
			l0.014-0.008l-0.014-0.526l0.007-2.029h1.134v4.943H30.955z"/>
		<path fill="#FFFFFF" d="M2.531,24.719l-0.929-2.011H1.286v2.011H0v-4.943h1.286v1.911h0.343l0.917-1.911h1.443l-1.187,2.366
			l1.246,2.577H2.531z"/>
		<path fill="#FFFFFF" d="M6.961,23.855H5.616l-0.191,0.863H4.061l1.463-4.943H7.1l1.489,4.943H7.152L6.961,23.855z M5.676,19.537
			c-0.323,0-0.488-0.125-0.488-0.441c0-0.297,0.165-0.455,0.488-0.455c0.336,0,0.487,0.158,0.487,0.455
			C6.163,19.386,6.012,19.537,5.676,19.537z M6.177,21.363L5.86,22.781h0.863l-0.316-1.418l-0.099-0.526h-0.02L6.177,21.363z
			 M6.935,19.537c-0.323,0-0.488-0.125-0.488-0.441c0-0.297,0.165-0.455,0.488-0.455c0.336,0,0.488,0.158,0.488,0.455
			C7.422,19.386,7.271,19.537,6.935,19.537z"/>
		<path fill="#FFFFFF" d="M11.825,22.695l0.962,2.023h-1.49l-0.659-1.767h-0.435v1.767H8.918v-4.943h1.708
			c1.252,0,1.872,0.476,1.872,1.588C12.498,22.022,12.26,22.511,11.825,22.695z M10.652,20.843h-0.448v1.141h0.442
			c0.375,0,0.507-0.093,0.507-0.572C11.153,20.961,11.027,20.843,10.652,20.843z"/>
		<path fill="#FFFFFF" d="M15.971,20.968c-0.217-0.079-0.514-0.132-0.824-0.132c-0.732,0-0.917,0.311-0.917,1.391
			c0,1.142,0.205,1.457,0.936,1.457c0.303,0,0.587-0.059,0.817-0.164l0.119,1.048c-0.296,0.146-0.745,0.237-1.127,0.237
			c-1.41,0-2.096-0.805-2.096-2.584c0-1.661,0.666-2.531,2.175-2.531c0.35,0,0.778,0.079,1.042,0.186L15.971,20.968z"/>
		<path fill="#FFFFFF" d="M19.062,24.719v-1.938h-1.2v1.938h-1.286v-4.943h1.286v1.853h1.2v-1.853h1.292v4.943H19.062z"/>
		<path fill="#FFFFFF" d="M24.23,23.604l-0.025,1.114H21.02v-4.943h3.099l0.025,1.134h-1.839v0.766h1.516v1.034h-1.516v0.896H24.23z
			"/>
		<path fill="#FFFFFF" d="M27.63,22.695l0.963,2.023h-1.49l-0.659-1.767h-0.435v1.767h-1.284v-4.943h1.707
			c1.252,0,1.872,0.476,1.872,1.588C28.304,22.022,28.066,22.511,27.63,22.695z M26.458,20.843h-0.449v1.141h0.441
			c0.377,0,0.508-0.093,0.508-0.572C26.958,20.961,26.833,20.843,26.458,20.843z"/>
		<path fill="#FFFFFF" d="M29.444,24.798c-0.462,0-0.666-0.178-0.666-0.626c0-0.402,0.204-0.633,0.666-0.633
			c0.461,0,0.659,0.229,0.659,0.633C30.104,24.547,29.905,24.798,29.444,24.798z"/>
	</g>
</g>
<g id="Screens">
</g>
</svg>
