<?xml version="1.0" encoding="utf-8"?>
<!-- Generator: Adobe Illustrator 16.0.0, SVG Export Plug-In . SVG Version: 6.00 Build 0)  -->
<!DOCTYPE svg PUBLIC "-//W3C//DTD SVG 1.1//EN" "http://www.w3.org/Graphics/SVG/1.1/DTD/svg11.dtd">
<svg version="1.1" id="Ebene_1" xmlns="http://www.w3.org/2000/svg" xmlns:xlink="http://www.w3.org/1999/xlink" x="0px" y="0px"
	 width="31.032px" height="37.986px" viewBox="0 0 31.032 37.986" enable-background="new 0 0 31.032 37.986" xml:space="preserve">
<g id="Text">
	<g>
		<path fill="#FFFFFF" d="M2.907,3.132c0,1.45-0.738,1.905-1.898,1.905c-0.369,0-0.666-0.066-0.903-0.173l0.065-1.073
			C0.31,3.863,0.527,3.909,0.784,3.909c0.541,0,0.804-0.212,0.804-0.805V0h1.318v3.132H2.907z"/>
		<path fill="#FFFFFF" d="M6.789,3.83L6.763,4.944H3.579V0h3.098l0.026,1.135H4.864v0.764H6.38v1.035H4.864V3.83H6.789z"/>
		<path fill="#FFFFFF" d="M9.439,1.154v3.79H8.127v-3.79h-1.12L7.033,0h3.5l0.026,1.153H9.439z"/>
		<path fill="#FFFFFF" d="M10.777,4.944V4.107l1.576-2.505l0.29-0.436l-0.007-0.014h-1.819L10.85,0h3.302v0.924L12.629,3.35
			l-0.29,0.428l0.007,0.021h1.819l-0.02,1.146L10.777,4.944L10.777,4.944z"/>
		<path fill="#FFFFFF" d="M16.848,1.154v3.79h-1.312v-3.79h-1.121L14.441,0h3.5l0.026,1.153H16.848z"/>
		<path fill="#FFFFFF" d="M21.264,0l0.869,2.499l0.166,0.507h0.02l0.165-0.5L23.366,0h1.424v4.943h-1.18V2.875l0.014-0.534
			l-0.021-0.007l-0.165,0.514l-0.732,2.097H21.87l-0.725-2.09L20.98,2.341l-0.015,0.007l0.008,0.533v2.062h-1.127V0H21.264z"/>
		<path fill="#FFFFFF" d="M25.515,0h1.325v4.943h-1.325V0z"/>
		<path fill="#FFFFFF" d="M29.72,1.154v3.79h-1.312v-3.79h-1.121L27.314,0h3.5l0.026,1.153H29.72z"/>
		<path fill="#FFFFFF" d="M0.863,10.652H1.45V8.089L0.698,8.504L0.566,7.502l1.431-0.903h0.745v4.054h0.586v0.885H0.863V10.652z"/>
		<path fill="#FFFFFF" d="M7.185,10.652v0.885H6.018v-0.885H4.066L3.961,9.849l1.714-3.257h1.51v3.02h0.402l-0.026,1.041
			L7.185,10.652L7.185,10.652z M6.104,8.372l0.033-0.534L6.123,7.832L5.24,9.611h0.817L6.104,8.372z"/>
		<path fill="#FFFFFF" d="M11.68,7.746v3.79h-1.312v-3.79H9.247l0.026-1.154h3.5L12.8,7.746H11.68z"/>
		<path fill="#FFFFFF" d="M15.312,10.673h-1.345l-0.191,0.863h-1.364l1.463-4.944h1.576l1.489,4.944h-1.437L15.312,10.673z
			 M14.527,8.181l-0.316,1.417h0.863l-0.316-1.417l-0.099-0.527h-0.02L14.527,8.181z"/>
		<path fill="#FFFFFF" d="M20.579,11.358c-0.344,0.165-0.904,0.271-1.41,0.271c-1.635,0-2.215-0.877-2.215-2.564
			c0-1.728,0.678-2.558,2.273-2.558c0.436,0,0.929,0.079,1.286,0.218l-0.119,1.102c-0.323-0.119-0.738-0.191-1.095-0.191
			c-0.811,0-0.995,0.304-0.995,1.417c0,1.174,0.19,1.431,0.831,1.431c0.099,0,0.203-0.007,0.297-0.025V8.84h1.146V11.358z"/>
		<path fill="#FFFFFF" d="M24.375,10.422l-0.026,1.114h-3.185V6.592h3.099l0.026,1.135h-1.84V8.49h1.516v1.035H22.45v0.896
			L24.375,10.422L24.375,10.422z"/>
		<path fill="#FFFFFF" d="M3.771,17.948c-0.343,0.164-0.903,0.271-1.411,0.271c-1.635,0-2.215-0.876-2.215-2.563
			c0-1.728,0.679-2.558,2.274-2.558c0.435,0,0.93,0.079,1.285,0.217l-0.118,1.103c-0.323-0.119-0.738-0.191-1.095-0.191
			c-0.811,0-0.995,0.303-0.995,1.417c0,1.174,0.191,1.431,0.831,1.431c0.099,0,0.205-0.007,0.296-0.025v-1.615H3.77L3.771,17.948
			L3.771,17.948z"/>
		<path fill="#FFFFFF" d="M7.567,17.013l-0.026,1.114H4.356v-4.943h3.099l0.026,1.133H5.642v0.767h1.516v1.034H5.642v0.896H7.567z"
			/>
		<path fill="#FFFFFF" d="M11.041,16.98l-0.033,1.146H8.062v-4.943H9.36v3.797H11.041z"/>
		<path fill="#FFFFFF" d="M13.249,18.127h-1.787v-4.943h1.76c1.503,0,2.116,0.698,2.116,2.445
			C15.338,17.441,14.64,18.127,13.249,18.127z M13.229,14.323h-0.481V17h0.481c0.567,0,0.758-0.172,0.758-1.386
			C13.987,14.521,13.809,14.323,13.229,14.323z"/>
		<path fill="#FFFFFF" d="M17.625,15.227v0.857h-1.839v-0.857H17.625z"/>
		<path fill="#FFFFFF" d="M0.099,24.719v-0.837l1.575-2.505l0.29-0.437l-0.006-0.013h-1.82l0.033-1.153h3.303v0.922l-1.522,2.427
			l-0.29,0.429l0.006,0.021h1.819l-0.02,1.146H0.099z"/>
		<path fill="#FFFFFF" d="M7.686,23.038c0,1.159-0.619,1.767-1.885,1.767c-1.266,0-1.905-0.606-1.905-1.767v-3.264h1.292v3.236
			c0,0.441,0.171,0.639,0.613,0.639c0.448,0,0.6-0.184,0.6-0.639v-3.236h1.285V23.038z"/>
		<path fill="#FFFFFF" d="M11.219,22.695l0.962,2.023h-1.49l-0.659-1.767H9.597v1.767H8.312v-4.943h1.708
			c1.252,0,1.872,0.476,1.872,1.588C11.891,22.022,11.654,22.511,11.219,22.695z M10.045,20.843H9.597v1.141h0.442
			c0.375,0,0.507-0.093,0.507-0.572C10.546,20.961,10.421,20.843,10.045,20.843z"/>
		<path fill="#FFFFFF" d="M16.176,23.038c0,1.159-0.62,1.767-1.886,1.767s-1.905-0.606-1.905-1.767v-3.264h1.292v3.236
			c0,0.441,0.171,0.639,0.613,0.639c0.448,0,0.6-0.184,0.6-0.639v-3.236h1.286V23.038z M13.664,19.537
			c-0.323,0-0.488-0.125-0.488-0.441c0-0.297,0.165-0.455,0.488-0.455c0.336,0,0.488,0.158,0.488,0.455
			C14.152,19.386,14,19.537,13.664,19.537z M14.923,19.537c-0.323,0-0.487-0.125-0.487-0.441c0-0.297,0.165-0.455,0.487-0.455
			c0.336,0,0.488,0.158,0.488,0.455C15.411,19.386,15.259,19.537,14.923,19.537z"/>
		<path fill="#FFFFFF" d="M19.761,20.968c-0.218-0.079-0.515-0.132-0.824-0.132c-0.731,0-0.917,0.311-0.917,1.391
			c0,1.142,0.205,1.457,0.936,1.457c0.303,0,0.588-0.059,0.817-0.164l0.119,1.048c-0.296,0.146-0.745,0.237-1.127,0.237
			c-1.41,0-2.097-0.805-2.097-2.584c0-1.661,0.666-2.531,2.176-2.531c0.35,0,0.777,0.079,1.042,0.186L19.761,20.968z"/>
		<path fill="#FFFFFF" d="M22.898,24.719l-0.929-2.011h-0.316v2.011h-1.285v-4.943h1.285v1.911h0.344l0.916-1.911h1.443
			l-1.188,2.366l1.246,2.577H22.898z"/>
		<path fill="#FFFFFF" d="M26.194,21.818v0.857h-1.839v-0.857H26.194z"/>
		<path fill="#FFFFFF" d="M3.771,31.133c-0.343,0.164-0.903,0.27-1.411,0.27c-1.635,0-2.215-0.876-2.215-2.562
			c0-1.729,0.679-2.558,2.274-2.558c0.435,0,0.93,0.078,1.285,0.217L3.586,27.6c-0.323-0.119-0.738-0.19-1.095-0.19
			c-0.811,0-0.995,0.303-0.995,1.417c0,1.174,0.191,1.431,0.831,1.431c0.099,0,0.205-0.007,0.296-0.026v-1.614H3.77L3.771,31.133
			L3.771,31.133z"/>
		<path fill="#FFFFFF" d="M6.908,30.447H5.563L5.372,31.31H4.007l1.463-4.942h1.575l1.49,4.942H7.099L6.908,30.447z M6.123,27.955
			l-0.316,1.418H6.67l-0.316-1.418l-0.099-0.527h-0.02L6.123,27.955z"/>
		<path fill="#FFFFFF" d="M11.772,29.287l0.962,2.022h-1.49l-0.659-1.767H10.15v1.767H8.865v-4.942h1.707
			c1.252,0,1.872,0.475,1.872,1.588C12.444,28.614,12.207,29.103,11.772,29.287z M10.599,27.435H10.15v1.142h0.441
			c0.376,0,0.508-0.094,0.508-0.573C11.1,27.553,10.975,27.435,10.599,27.435z"/>
		<path fill="#FFFFFF" d="M15.608,30.447h-1.345l-0.191,0.863h-1.364l1.463-4.942h1.576l1.489,4.942H15.8L15.608,30.447z
			 M14.824,27.955l-0.316,1.418h0.863l-0.316-1.418l-0.099-0.527h-0.02L14.824,27.955z"/>
		<path fill="#FFFFFF" d="M20.459,31.311l-1.478-2.281l-0.276-0.453l-0.014,0.007l0.006,0.533v2.194h-1.134v-4.942h1.081
			l1.589,2.562l0.013-0.007l-0.013-0.527l0.007-2.028h1.135v4.942H20.459z"/>
		<path fill="#FFFFFF" d="M24.204,27.521v3.79h-1.312v-3.79h-1.12l0.025-1.152h3.5l0.027,1.152H24.204z"/>
		<path fill="#FFFFFF" d="M25.772,26.367h1.325v4.942h-1.325V26.367z"/>
		<path fill="#FFFFFF" d="M31.032,30.196l-0.025,1.114h-3.185v-4.942h3.099l0.025,1.133h-1.839v0.766h1.517V29.3h-1.517v0.896
			H31.032z"/>
		<path fill="#FFFFFF" d="M2.432,34.111v3.79H1.12v-3.79H0l0.026-1.153h3.5l0.026,1.153H2.432z"/>
		<path fill="#FFFFFF" d="M7.158,36.787l-0.026,1.113H3.948v-4.943h3.098l0.026,1.135H5.233v0.764H6.75v1.035H5.233v0.896H7.158z"/>
		<path fill="#FFFFFF" d="M8.944,37.987c-0.521,0-1.035-0.118-1.437-0.343l0.165-1.095c0.402,0.204,0.811,0.33,1.239,0.33
			c0.409,0,0.567-0.14,0.567-0.402c0-0.633-1.964-0.435-1.964-2.05c0-0.863,0.527-1.549,1.747-1.549
			c0.455,0,0.943,0.085,1.299,0.235l-0.145,1.075c-0.375-0.111-0.751-0.179-1.068-0.179c-0.488,0-0.593,0.146-0.593,0.356
			c0,0.64,1.964,0.422,1.964,2.036C10.718,37.381,10.059,37.987,8.944,37.987z"/>
		<path fill="#FFFFFF" d="M13.229,34.111v3.79h-1.312v-3.79h-1.12l0.026-1.153h3.5l0.026,1.153H13.229z"/>
		<path fill="#FFFFFF" d="M17.956,36.787l-0.026,1.113h-3.184v-4.943h3.097l0.027,1.135h-1.84v0.764h1.516v1.035H16.03v0.896H17.956
			z"/>
		<path fill="#FFFFFF" d="M21.342,37.901l-1.477-2.279l-0.277-0.455l-0.012,0.006l0.006,0.534v2.194H18.45v-4.943h1.08l1.588,2.563
			l0.014-0.006l-0.014-0.527l0.006-2.03h1.135v4.943H21.342z"/>
		<path fill="#FFFFFF" d="M23.459,37.98c-0.463,0-0.666-0.178-0.666-0.626c0-0.401,0.203-0.633,0.666-0.633
			c0.461,0,0.658,0.23,0.658,0.633C24.118,37.73,23.92,37.98,23.459,37.98z"/>
	</g>
</g>
<g id="Screens">
</g>
</svg>
