<?xml version="1.0" encoding="utf-8"?>
<!-- Generator: Adobe Illustrator 16.0.4, SVG Export Plug-In . SVG Version: 6.00 Build 0)  -->
<!DOCTYPE svg PUBLIC "-//W3C//DTD SVG 1.1//EN" "http://www.w3.org/Graphics/SVG/1.1/DTD/svg11.dtd">
<svg version="1.1" id="Ebene_1" xmlns="http://www.w3.org/2000/svg" xmlns:xlink="http://www.w3.org/1999/xlink" x="0px" y="0px"
	 width="198.685px" height="120.798px" viewBox="0 0 198.685 120.798" enable-background="new 0 0 198.685 120.798"
	 xml:space="preserve">
<g>
	<path d="M7.135,24.798c-2.527,0-5.023-0.576-6.976-1.664l0.8-5.312c1.952,0.992,3.936,1.601,6.016,1.601
		c1.984,0,2.752-0.672,2.752-1.953c0-3.072-9.535-2.112-9.535-9.951C0.191,3.328,2.751,0,8.671,0c2.208,0,4.575,0.416,6.304,1.152
		l-0.704,5.216c-1.824-0.544-3.647-0.864-5.184-0.864c-2.368,0-2.88,0.704-2.88,1.728c0,3.104,9.535,2.048,9.535,9.887
		C15.742,21.855,12.543,24.798,7.135,24.798z"/>
	<path d="M29.758,20.191H23.23l-0.928,4.191H15.68l7.104-23.998h7.646l7.232,23.998h-6.977L29.758,20.191z M25.95,8.096
		l-1.536,6.879h4.192L27.07,8.096l-0.48-2.56h-0.096L25.95,8.096z"/>
	<path d="M56.445,16.223c0,5.632-3.008,8.575-9.15,8.575c-6.145,0-9.248-2.943-9.248-8.575V0.384h6.271v15.71
		c0,2.144,0.832,3.104,2.977,3.104c2.176,0,2.911-0.896,2.911-3.104V0.384h6.239V16.223z"/>
	<path d="M68.83,24.382h-9.344V0.384h9.408c5.151,0,7.775,2.399,7.775,6.208c0,2.528-1.152,4.16-2.944,5.023v0.064
		c2.399,0.8,3.681,2.656,3.681,5.632C77.406,21.63,74.814,24.382,68.83,24.382z M68.639,5.632h-3.104v4.224h3.168
		c1.44,0,1.952-0.544,1.952-2.176C70.654,6.112,70.109,5.632,68.639,5.632z M68.799,14.527h-3.265v4.736h3.392
		c1.568,0,2.145-0.512,2.145-2.4C71.07,15.199,70.559,14.527,68.799,14.527z"/>
	<path d="M95.485,18.974l-0.128,5.408H79.902V0.384h15.039l0.128,5.503h-8.927V9.6h7.358v5.023h-7.358v4.351H95.485z"/>
	<path d="M111.998,14.559l4.671,9.823h-7.231l-3.199-8.575h-2.112v8.575h-6.239V0.384h8.287c6.08,0,9.088,2.304,9.088,7.711
		C115.262,11.295,114.109,13.663,111.998,14.559z M106.302,5.568h-2.176v5.536h2.145c1.823,0,2.464-0.448,2.464-2.784
		C108.734,6.144,108.126,5.568,106.302,5.568z"/>
	<path d="M133.821,18.974l-0.128,5.408h-15.455V0.384h15.039l0.128,5.503h-8.928V9.6h7.359v5.023h-7.359v4.351H133.821z"/>
	<path d="M15.326,50.815l-0.16,5.567H0.863V32.384h6.304v18.431H15.326z"/>
	<path d="M26.334,56.798c-6.91,0-10.047-3.648-10.047-12.415c0-8.8,3.008-12.384,10.047-12.384c7.04,0,10.048,3.584,10.048,12.384
		C36.382,53.407,33.374,56.798,26.334,56.798z M23.295,31.232c-1.568,0-2.368-0.607-2.368-2.144c0-1.44,0.8-2.208,2.368-2.208
		c1.632,0,2.367,0.768,2.367,2.208C25.662,30.496,24.927,31.232,23.295,31.232z M26.303,37.599c-2.624,0-3.456,1.088-3.456,6.784
		c0,5.728,0.864,6.88,3.521,6.88c2.655,0,3.455-1.185,3.455-6.88C29.822,38.656,29.022,37.599,26.303,37.599z M29.406,31.232
		c-1.568,0-2.367-0.607-2.367-2.144c0-1.44,0.799-2.208,2.367-2.208c1.632,0,2.368,0.768,2.368,2.208
		C31.774,30.496,31.038,31.232,29.406,31.232z"/>
	<path d="M45.15,56.798c-2.527,0-5.023-0.576-6.976-1.664l0.8-5.312c1.952,0.992,3.936,1.601,6.016,1.601
		c1.984,0,2.752-0.672,2.752-1.953c0-3.071-9.535-2.111-9.535-9.951c0-4.191,2.56-7.52,8.479-7.52c2.208,0,4.575,0.416,6.304,1.152
		l-0.704,5.216c-1.824-0.544-3.647-0.864-5.184-0.864c-2.368,0-2.88,0.704-2.88,1.729c0,3.104,9.535,2.047,9.535,9.887
		C53.758,53.855,50.559,56.798,45.15,56.798z"/>
	<path d="M74.174,48.223c0,5.632-3.008,8.575-9.152,8.575c-6.143,0-9.247-2.943-9.247-8.575V32.384h6.271v15.711
		c0,2.144,0.832,3.104,2.976,3.104c2.176,0,2.912-0.896,2.912-3.104V32.384h6.24V48.223z"/>
	<path d="M91.262,56.382l-7.168-11.071l-1.344-2.208l-0.064,0.032l0.032,2.592v10.655h-5.503V32.384h5.247l7.712,12.447l0.063-0.032
		l-0.063-2.56l0.031-9.855h5.504v23.998H91.262z"/>
	<path d="M115.934,55.519c-1.664,0.799-4.384,1.311-6.848,1.311c-7.936,0-10.751-4.255-10.751-12.446
		c0-8.384,3.296-12.415,11.039-12.415c2.111,0,4.512,0.384,6.239,1.056l-0.576,5.344c-1.567-0.576-3.583-0.929-5.312-0.929
		c-3.936,0-4.831,1.473-4.831,6.881c0,5.695,0.928,6.943,4.031,6.943c0.48,0,0.992-0.033,1.44-0.129v-7.839h5.567V55.519z"/>
	<path d="M134.364,50.974l-0.128,5.408h-15.455V32.384h15.039l0.128,5.504h-8.928v3.711h7.359v5.023h-7.359v4.352H134.364z"/>
	<path d="M150.812,56.382l-7.167-11.071l-1.344-2.208l-0.064,0.032l0.032,2.592v10.655h-5.504V32.384h5.248l7.711,12.447
		l0.064-0.032l-0.064-2.56l0.032-9.855h5.504v23.998H150.812z"/>
	<path d="M0,88.382v-4.064L7.646,72.16l1.408-2.112l-0.031-0.063H0.191l0.16-5.6h16.031v4.479L8.99,80.638l-1.407,2.08l0.032,0.096
		h8.831l-0.097,5.568H0z"/>
	<path d="M36.83,80.222c0,5.632-3.008,8.576-9.151,8.576s-9.247-2.944-9.247-8.576V64.384h6.271v15.71
		c0,2.144,0.832,3.104,2.976,3.104c2.176,0,2.911-0.896,2.911-3.104v-15.71h6.24V80.222z"/>
	<path d="M46.75,64.384l4.225,12.127l0.8,2.463h0.096l0.8-2.432l4.288-12.158h6.911v23.998h-5.728V78.334l0.064-2.592l-0.097-0.032
		l-0.799,2.496l-3.553,10.176h-4.063l-3.52-10.144l-0.8-2.496l-0.064,0.032l0.032,2.592v10.016h-5.472V64.384H46.75z"/>
	<path d="M86.621,88.382l-4.512-9.76h-1.535v9.76h-6.24V64.384h6.24v9.279h1.664l4.447-9.279h7.008l-5.76,11.486l6.048,12.512
		H86.621z"/>
	<path d="M110.205,82.814l-0.16,5.568H95.742V64.384h6.304v18.43H110.205z"/>
	<path d="M127.837,82.974l-0.128,5.408h-15.455V64.384h15.039l0.128,5.503h-8.928v3.712h7.359v5.023h-7.359v4.352H127.837z"/>
	<path d="M130.494,64.384h6.432v23.998h-6.432V64.384z"/>
	<path d="M154.492,88.382l-7.167-11.072l-1.344-2.207l-0.064,0.031l0.032,2.592v10.656h-5.504V64.384h5.248l7.711,12.446
		l0.064-0.032l-0.064-2.56l0.032-9.854h5.504v23.998H154.492z"/>
	<path d="M177.788,82.974l-0.128,5.408h-15.455V64.384h15.039l0.128,5.503h-8.928v3.712h7.359v5.023h-7.359v4.352H177.788z"/>
	<path d="M194.236,88.382l-7.167-11.072l-1.344-2.207l-0.064,0.031l0.032,2.592v10.656h-5.504V64.384h5.248l7.711,12.446
		l0.064-0.032l-0.064-2.56l0.032-9.854h5.504v23.998H194.236z"/>
	<path d="M9.087,112.927H7.104v7.455h-6.24V96.384h8.224c6.655,0,9.312,2.592,9.312,8.447
		C18.398,110.015,15.807,112.927,9.087,112.927z M9.087,101.599H7.104v6.367h1.983c2.048,0,2.815-0.48,2.815-3.168
		C11.902,102.207,11.295,101.599,9.087,101.599z"/>
	<path d="M34.781,110.558l4.672,9.824h-7.23l-3.2-8.576H26.91v8.576h-6.239V96.384h8.288c6.079,0,9.087,2.303,9.087,7.711
		C38.046,107.294,36.894,109.664,34.781,110.558z M29.086,101.568H26.91v5.535h2.145c1.824,0,2.463-0.447,2.463-2.783
		C31.518,102.144,30.91,101.568,29.086,101.568z"/>
	<path d="M56.605,114.974l-0.128,5.408H41.022V96.384h15.039l0.128,5.502h-8.928v3.713h7.359v5.023h-7.359v4.352H56.605z"/>
	<path d="M59.262,96.384h6.432v23.998h-6.432V96.384z"/>
	<path d="M75.485,120.798c-2.528,0-5.023-0.576-6.976-1.664l0.801-5.312c1.951,0.992,3.936,1.6,6.016,1.6
		c1.983,0,2.751-0.672,2.751-1.951c0-3.072-9.535-2.111-9.535-9.951c0-4.191,2.56-7.52,8.479-7.52c2.207,0,4.576,0.416,6.303,1.152
		l-0.703,5.215c-1.824-0.543-3.648-0.863-5.184-0.863c-2.368,0-2.88,0.703-2.88,1.729c0,3.104,9.535,2.047,9.535,9.887
		C84.093,117.855,80.893,120.798,75.485,120.798z"/>
	<path d="M88.638,120.765c-2.24,0-3.231-0.863-3.231-3.039c0-1.951,0.991-3.072,3.231-3.072c2.239,0,3.199,1.121,3.199,3.072
		C91.837,119.55,90.877,120.765,88.638,120.765z"/>
</g>
</svg>
