<?xml version="1.0" encoding="utf-8"?>
<!-- Generator: Adobe Illustrator 16.0.4, SVG Export Plug-In . SVG Version: 6.00 Build 0)  -->
<!DOCTYPE svg PUBLIC "-//W3C//DTD SVG 1.1//EN" "http://www.w3.org/Graphics/SVG/1.1/DTD/svg11.dtd">
<svg version="1.1" id="Ebene_1" xmlns="http://www.w3.org/2000/svg" xmlns:xlink="http://www.w3.org/1999/xlink" x="0px" y="0px"
	 width="130.017px" height="68.691px" viewBox="0 0 130.017 68.691" enable-background="new 0 0 130.017 68.691"
	 xml:space="preserve">
<g>
	<path d="M9.489,8.875c0,3.521-1.793,4.626-4.61,4.626c-0.896,0-1.616-0.16-2.192-0.416l0.159-2.609
		c0.337,0.177,0.865,0.288,1.489,0.288c1.312,0,1.952-0.512,1.952-1.953V1.271h3.202V8.875z"/>
	<path d="M18.913,10.572l-0.063,2.705h-7.731V1.271h7.522l0.064,2.754h-4.466v1.856h3.682v2.513h-3.682v2.178H18.913z"/>
	<path d="M25.344,4.073v9.204h-3.185V4.073h-2.722l0.064-2.802h8.5l0.063,2.802H25.344z"/>
	<path d="M28.59,13.277v-2.033l3.826-6.082l0.704-1.057l-0.017-0.032h-4.418l0.08-2.802h8.02v2.241l-3.697,5.891l-0.704,1.04
		l0.017,0.049h4.417l-0.048,2.785H28.59z"/>
	<path d="M43.328,4.073v9.204h-3.185V4.073h-2.722l0.064-2.802h8.5l0.063,2.802H43.328z"/>
	<path d="M57.793,4.169c-0.527-0.192-1.248-0.319-2-0.319c-1.777,0-2.226,0.752-2.226,3.377c0,2.77,0.497,3.537,2.272,3.537
		c0.736,0,1.426-0.145,1.985-0.4l0.288,2.545c-0.721,0.353-1.809,0.576-2.736,0.576c-3.426,0-5.091-1.952-5.091-6.273
		c0-4.034,1.616-6.146,5.282-6.146c0.848,0,1.889,0.191,2.529,0.447L57.793,4.169z"/>
	<path d="M65.632,11.18h-3.265l-0.465,2.098h-3.313l3.554-12.006h3.826l3.617,12.006h-3.49L65.632,11.18z M63.727,5.129L62.959,8.57
		h2.097l-0.769-3.441l-0.24-1.279h-0.048L63.727,5.129z"/>
	<path d="M73.551,13.484c-1.265,0-2.514-0.287-3.489-0.832l0.399-2.656c0.977,0.496,1.969,0.8,3.01,0.8
		c0.992,0,1.377-0.337,1.377-0.977c0-1.536-4.771-1.056-4.771-4.978c0-2.098,1.28-3.762,4.241-3.762
		c1.105,0,2.289,0.208,3.154,0.576L77.12,4.266c-0.912-0.272-1.825-0.433-2.593-0.433c-1.185,0-1.441,0.353-1.441,0.864
		c0,1.553,4.771,1.024,4.771,4.946C77.856,12.012,76.256,13.484,73.551,13.484z"/>
	<path d="M85.008,13.277V8.57h-2.914v4.707h-3.121V1.271h3.121V5.77h2.914V1.271h3.137v12.006H85.008z"/>
	<path d="M94.431,13.277h-4.673V1.271h4.705c2.577,0,3.89,1.201,3.89,3.105c0,1.265-0.576,2.081-1.473,2.514v0.031
		c1.201,0.4,1.841,1.329,1.841,2.817C98.721,11.9,97.425,13.277,94.431,13.277z M94.335,3.896h-1.553V6.01h1.585
		c0.72,0,0.977-0.271,0.977-1.088C95.344,4.137,95.071,3.896,94.335,3.896z M94.415,8.347h-1.633v2.369h1.697
		c0.784,0,1.072-0.257,1.072-1.2C95.552,8.684,95.296,8.347,94.415,8.347z"/>
	<path d="M105.936,11.18h-3.266l-0.464,2.098h-3.313l3.554-12.006h3.825l3.618,12.006h-3.49L105.936,11.18z M104.031,5.129
		l-0.769,3.441h2.097l-0.769-3.441l-0.24-1.279h-0.048L104.031,5.129z"/>
	<path d="M117.424,4.169c-0.528-0.192-1.248-0.319-2.001-0.319c-1.776,0-2.225,0.752-2.225,3.377c0,2.77,0.496,3.537,2.273,3.537
		c0.736,0,1.424-0.145,1.984-0.4l0.288,2.545c-0.72,0.353-1.809,0.576-2.737,0.576c-3.425,0-5.09-1.952-5.09-6.273
		c0-4.034,1.617-6.146,5.282-6.146c0.849,0,1.889,0.191,2.529,0.447L117.424,4.169z"/>
	<path d="M125.04,13.277l-2.257-4.883h-0.769v4.883h-3.121V1.271h3.121v4.643h0.832l2.226-4.643h3.505l-2.881,5.747l3.025,6.259
		H125.04z"/>
	<path d="M7.776,31.277H3.103V19.271h4.706c2.576,0,3.889,1.201,3.889,3.105c0,1.265-0.576,2.081-1.472,2.514v0.031
		c1.2,0.4,1.841,1.329,1.841,2.817C12.066,29.9,10.77,31.277,7.776,31.277z M7.68,21.896H6.128v2.113h1.585
		c0.72,0,0.976-0.271,0.976-1.088C8.688,22.137,8.416,21.896,7.68,21.896z M7.76,26.347H6.128v2.369h1.696
		c0.785,0,1.072-0.257,1.072-1.2C8.896,26.684,8.641,26.347,7.76,26.347z"/>
	<path d="M21.105,28.572l-0.064,2.705h-7.73V19.271h7.523l0.063,2.754h-4.466v1.856h3.682v2.513h-3.682v2.178H21.105z"/>
	<path d="M22.431,19.271h3.218v12.006h-3.218V19.271z"/>
	<path d="M30.848,19.271l2.113,6.066l0.399,1.232h0.048l0.4-1.216l2.145-6.083h3.458v12.006h-2.865v-5.026l0.032-1.297l-0.049-0.016
		l-0.399,1.249l-1.776,5.09H32.32l-1.761-5.074l-0.4-1.249l-0.032,0.017l0.016,1.296v5.011h-2.736V19.271H30.848z"/>
	<path d="M50.784,31.277l-2.257-4.883h-0.769v4.883h-3.121V19.271h3.121v4.643h0.833l2.225-4.643h3.505l-2.881,5.747l3.025,6.259
		H50.784z"/>
	<path d="M61.536,29.18h-3.265l-0.465,2.098h-3.313l3.554-12.006h3.826l3.617,12.006H62L61.536,29.18z M59.631,23.129l-0.768,3.441
		h2.097l-0.769-3.441l-0.24-1.279h-0.048L59.631,23.129z"/>
	<path d="M74.882,27.195c0,2.816-1.505,4.289-4.578,4.289s-4.626-1.473-4.626-4.289v-7.924h3.138v7.859
		c0,1.072,0.416,1.553,1.488,1.553c1.089,0,1.456-0.447,1.456-1.553v-7.859h3.122V27.195z"/>
	<path d="M79.535,22.073v2.112H83.2l-0.017,2.658h-3.648v4.434h-3.138V19.271h7.507l0.049,2.802H79.535z"/>
	<path d="M96.4,28.572l-0.063,2.705h-7.731V19.271h7.523l0.063,2.754h-4.466v1.856h3.682v2.513h-3.682v2.178H96.4z"/>
	<path d="M97.726,19.271h3.218v12.006h-3.218V19.271z"/>
	<path d="M109.728,31.277l-3.585-5.539l-0.673-1.104l-0.031,0.016l0.016,1.297v5.33h-2.753V19.271h2.625l3.857,6.227l0.032-0.016
		l-0.032-1.28l0.017-4.931h2.753v12.006H109.728z"/>
	<path d="M121.376,28.572l-0.063,2.705h-7.731V19.271h7.523l0.063,2.754h-4.466v1.856h3.682v2.513h-3.682v2.178H121.376z"/>
	<path d="M125.71,31.484c-1.264,0-2.513-0.287-3.489-0.832l0.4-2.656c0.977,0.496,1.969,0.8,3.01,0.8
		c0.992,0,1.376-0.337,1.376-0.977c0-1.536-4.77-1.056-4.77-4.978c0-2.098,1.28-3.762,4.241-3.762c1.104,0,2.289,0.208,3.153,0.576
		l-0.352,2.609c-0.913-0.272-1.825-0.433-2.594-0.433c-1.185,0-1.44,0.353-1.44,0.864c0,1.553,4.771,1.024,4.771,4.946
		C130.017,30.012,128.415,31.484,125.71,31.484z"/>
	<path d="M9.297,47.18H6.031l-0.464,2.098H2.254l3.554-12.006h3.825l3.617,12.006H9.762L9.297,47.18z M7.393,41.129L6.624,44.57
		h2.097l-0.768-3.441l-0.24-1.279H7.664L7.393,41.129z"/>
	<path d="M20.193,49.277l-2.258-4.883h-0.768v4.883h-3.121V37.271h3.121v4.643H18l2.225-4.643h3.506l-2.881,5.747l3.025,6.259
		H20.193z"/>
	<path d="M29.984,40.073v9.204h-3.186v-9.204h-2.721l0.063-2.802h8.499l0.064,2.802H29.984z"/>
	<path d="M33.79,37.271h3.218v12.006H33.79V37.271z"/>
	<path d="M43.472,49.484c-3.458,0-5.026-1.824-5.026-6.21c0-4.401,1.505-6.194,5.026-6.194c3.521,0,5.026,1.793,5.026,6.194
		C48.498,47.788,46.992,49.484,43.472,49.484z M43.455,39.881c-1.312,0-1.729,0.545-1.729,3.394c0,2.865,0.432,3.441,1.761,3.441
		s1.729-0.593,1.729-3.441C45.217,40.409,44.816,39.881,43.455,39.881z"/>
	<path d="M56.832,49.277l-3.585-5.539l-0.673-1.104l-0.031,0.016l0.016,1.297v5.33h-2.753V37.271h2.625l3.857,6.227l0.032-0.016
		l-0.032-1.28l0.017-4.931h2.752v12.006H56.832z"/>
	<path d="M63.822,49.484c-1.264,0-2.513-0.287-3.488-0.832l0.399-2.656c0.977,0.496,1.969,0.8,3.009,0.8
		c0.993,0,1.377-0.337,1.377-0.977c0-1.536-4.77-1.056-4.77-4.978c0-2.098,1.28-3.762,4.241-3.762c1.104,0,2.289,0.208,3.153,0.576
		l-0.352,2.609c-0.912-0.272-1.825-0.433-2.594-0.433c-1.184,0-1.44,0.353-1.44,0.864c0,1.553,4.771,1.024,4.771,4.946
		C68.129,48.012,66.527,49.484,63.822,49.484z"/>
	<path d="M77.729,48.845c-0.832,0.399-2.193,0.656-3.426,0.656c-3.969,0-5.378-2.129-5.378-6.227c0-4.194,1.649-6.21,5.522-6.21
		c1.057,0,2.257,0.191,3.121,0.527l-0.288,2.674c-0.784-0.289-1.792-0.465-2.657-0.465c-1.969,0-2.417,0.736-2.417,3.441
		c0,2.85,0.464,3.474,2.017,3.474c0.24,0,0.496-0.017,0.721-0.063V42.73h2.785V48.845z"/>
	<path d="M86.943,46.572l-0.063,2.705h-7.731V37.271h7.523l0.064,2.754H82.27v1.856h3.682v2.513H82.27v2.178H86.943z"/>
	<path d="M95.199,44.363l2.337,4.914h-3.617l-1.601-4.29h-1.057v4.29h-3.121V37.271h4.146c3.041,0,4.546,1.152,4.546,3.857
		C96.832,42.73,96.256,43.914,95.199,44.363z M92.35,39.865h-1.088v2.77h1.072c0.913,0,1.232-0.225,1.232-1.393
		C93.566,40.153,93.263,39.865,92.35,39.865z"/>
	<path d="M104.511,47.18h-3.266l-0.464,2.098h-3.313l3.554-12.006h3.825l3.618,12.006h-3.49L104.511,47.18z M101.39,36.695
		c-0.784,0-1.185-0.304-1.185-1.072c0-0.721,0.4-1.104,1.185-1.104c0.816,0,1.185,0.383,1.185,1.104
		C102.574,36.328,102.206,36.695,101.39,36.695z M102.606,41.129l-0.769,3.441h2.097l-0.769-3.441l-0.24-1.279h-0.048
		L102.606,41.129z M104.447,36.695c-0.785,0-1.185-0.304-1.185-1.072c0-0.721,0.399-1.104,1.185-1.104
		c0.815,0,1.184,0.383,1.184,1.104C105.631,36.328,105.263,36.695,104.447,36.695z"/>
	<path d="M113.423,40.073v9.204h-3.186v-9.204h-2.721l0.063-2.802h8.499l0.064,2.802H113.423z"/>
	<path d="M120.142,49.484c-1.264,0-2.513-0.287-3.489-0.832l0.4-2.656c0.977,0.496,1.969,0.8,3.01,0.8
		c0.992,0,1.376-0.337,1.376-0.977c0-1.536-4.77-1.056-4.77-4.978c0-2.098,1.28-3.762,4.241-3.762c1.104,0,2.289,0.208,3.153,0.576
		l-0.352,2.609c-0.913-0.272-1.825-0.433-2.594-0.433c-1.185,0-1.44,0.353-1.44,0.864c0,1.553,4.771,1.024,4.771,4.946
		C124.448,48.012,122.847,49.484,120.142,49.484z"/>
	<path d="M10.897,64.572l-0.063,2.705H3.103V55.271h7.522l0.064,2.754H6.224v1.856h3.682v2.513H6.224v2.178H10.897z"/>
	<path d="M19.153,62.363l2.337,4.914h-3.617l-1.601-4.29h-1.057v4.29h-3.121V55.271h4.146c3.041,0,4.546,1.152,4.546,3.857
		C20.786,60.73,20.21,61.914,19.153,62.363z M16.305,57.865h-1.089v2.77h1.073c0.912,0,1.232-0.225,1.232-1.393
		C17.521,58.153,17.217,57.865,16.305,57.865z"/>
	<path d="M28.305,67.277V62.57h-2.913v4.707h-3.121V55.271h3.121v4.498h2.913v-4.498h3.138v12.006H28.305z"/>
	<path d="M39.249,65.18h-3.265l-0.465,2.098h-3.313l3.554-12.006h3.826l3.617,12.006h-3.49L39.249,65.18z M37.344,59.129
		l-0.768,3.441h2.097l-0.769-3.441l-0.24-1.279h-0.048L37.344,59.129z"/>
	<path d="M51.233,64.492l-0.08,2.785h-7.155V55.271h3.154v9.221H51.233z"/>
	<path d="M56.112,58.073v9.204h-3.185v-9.204h-2.722l0.063-2.802h8.5l0.064,2.802H56.112z"/>
	<path d="M67.585,64.572l-0.063,2.705H59.79V55.271h7.522l0.064,2.754h-4.466v1.856h3.682v2.513h-3.682v2.178H67.585z"/>
	<path d="M75.809,67.277l-3.585-5.539l-0.673-1.104L71.52,60.65l0.016,1.297v5.33h-2.753V55.271h2.625l3.857,6.227l0.032-0.016
		l-0.032-1.28l0.017-4.931h2.752v12.006H75.809z"/>
	<path d="M80.942,67.469c-1.12,0-1.616-0.432-1.616-1.521c0-0.976,0.496-1.536,1.616-1.536s1.601,0.561,1.601,1.536
		C82.543,66.861,82.062,67.469,80.942,67.469z"/>
	<path d="M86.751,54.808l0.208,1.553l1.473-0.353l0.465,1.312l-1.426,0.689l0.816,1.359l-1.008,0.77l-1.185-1.153l-1.216,1.169
		l-1.041-0.736l0.784-1.408l-1.425-0.673l0.496-1.329l1.489,0.353l0.224-1.553H86.751z"/>
</g>
</svg>
