<svg enable-background="new 0 0 280.5 101.4" viewBox="0 0 280.5 101.4" xmlns="http://www.w3.org/2000/svg"><path clip-rule="evenodd" d="m261.8 32.5-6.1-9.4-1.1-1.9h-.1v2.2 9.1h-4.7v-20.5h4.5l6.6 10.6h.1l-.1-2.2v-8.4h4.7v20.5zm-14.1-4.6-.1 4.6h-13.2v-20.5h12.8l.1 4.7h-7.6v3.2h6.3v4.3h-6.3v3.7zm-15.4-1.5c0 3.7-2.2 6-7.3 6h-8v-20.4h8c4.4 0 6.6 2 6.6 5.3 0 2.2-1 3.5-2.5 4.3v.1c2.1.6 3.2 2.2 3.2 4.7zm-7.5-9.9h-2.6v3.6h2.7c1.2 0 1.7-.5 1.7-1.9-.1-1.3-.5-1.7-1.8-1.7zm.2 7.6h-2.8v4h2.9c1.3 0 1.8-.4 1.8-2 0-1.4-.4-2-1.9-2zm-10 3.8-.1 4.6h-13.2v-20.5h12.8l.1 4.7h-7.6v3.2h6.3v4.3h-6.3v3.7zm-21.9 34c-5.2 0-7.9-2.5-7.9-7.3v-13.5h5.4v13.4c0 1.8.7 2.6 2.5 2.6 1.9 0 2.5-.8 2.5-2.6v-13.4h5.3v13.5c.1 4.8-2.5 7.3-7.8 7.3zm.3-29c-6.8 0-9.2-3.6-9.2-10.6 0-7.1 2.8-10.6 9.4-10.6 1.8 0 3.9.3 5.3.9l-.5 4.6c-1.3-.5-3.1-.8-4.5-.8-3.4 0-4.1 1.3-4.1 5.9 0 4.9.8 5.9 3.4 5.9.4 0 .8 0 1.2-.1v-6.7h4.8v10.4c-1.4.6-3.7 1.1-5.8 1.1zm-15.7 28.7-3.9-8.3h-1.3v8.3h-5.3v-20.5h5.3v7.9h1.4l3.8-7.9h6l-4.9 9.8 5.2 10.7zm4.9-35.2c0 3.7-2.2 6-7.3 6h-8v-20.4h8c4.4 0 6.6 2 6.6 5.3 0 2.2-1 3.5-2.5 4.3v.1c2.1.6 3.2 2.2 3.2 4.7zm-7.4-9.9h-2.6v3.6h2.7c1.2 0 1.7-.5 1.7-1.9-.1-1.3-.6-1.7-1.8-1.7zm.1 7.6h-2.8v4h2.9c1.3 0 1.8-.4 1.8-2 0-1.4-.4-2-1.9-2zm-16.1 4.8h-5.6l-.8 3.6h-5.7l6.1-20.5h6.5l6.2 20.5h-6zm-2.3-10.3-.4-2.2h-.1l-.5 2.2-1.3 5.9h3.6zm-15.3 43-.8-3.6h-5.6l-.8 3.6h-5.7l6.1-20.5h6.5l6.2 20.5zm-3.1-13.9-.4-2.2h-.1l-.5 2.2-1.3 5.9h3.6zm-2.3-15.2h-5.4v-15.7h-4.6l.1-4.8h14.5l.1 4.8h-4.6v15.7zm-15.3-21.5c-1.3 0-2-.5-2-1.8 0-1.2.7-1.9 2-1.9 1.4 0 2 .7 2 1.9s-.6 1.8-2 1.8zm-5.2 0c-1.3 0-2-.5-2-1.8 0-1.2.7-1.9 2-1.9 1.4 0 2 .7 2 1.9s-.6 1.8-2 1.8zm-.6 1h6.5l6.2 20.5h-6l-.8-3.6h-5.6l-.8 3.6h-5.5-.1-6.1l-2.7-7.3h-1.8v7.3h-5.3v-20.5h7.1c5.2 0 7.8 2 7.8 6.6 0 2.7-1 4.7-2.8 5.5l3.9 8.2zm4.9 12.5-1.3-5.9-.4-2.2h-.1l-.5 2.2-1.3 5.9zm-19.7-8.1h-1.9v4.7h1.8c1.6 0 2.1-.4 2.1-2.4 0-1.8-.5-2.3-2-2.3zm-2.9 45.2h-4.9v-8.6l.1-2.2h-.1l-.7 2.1-3 8.7h-3.5l-3-8.6-.7-2.1h-.1v2.2 8.5h-4.7v-20.5h5.9l3.6 10.3.7 2.1h.1l.7-2.1 3.7-10.4h5.9zm-6.4-33.7-.1 4.6h-13.2v-20.5h12.8l.1 4.7h-7.6v3.2h6.3v4.3h-6.3v3.7zm-21.5 5c-6.8 0-9.2-3.6-9.2-10.6 0-7.1 2.8-10.6 9.4-10.6 1.8 0 3.8.3 5.3.9l-.5 4.6c-1.3-.5-3.1-.8-4.5-.8-3.4 0-4.1 1.3-4.1 5.9 0 4.9.8 5.9 3.4 5.9.4 0 .8 0 1.2-.1v-6.7h4.8v10.4c-1.4.6-3.7 1.1-5.8 1.1zm-14.4-.4h-5.4v-15.7h-4.6l.1-4.8h14.5l.1 4.8h-4.6v15.7zm-8.4 0h-12.2v-20.5h5.4v15.7h7zm-1.8 19.2v-2.2-8.4h4.7v20.5h-3.8l-6.1-9.4-1.1-1.9h-.1v2.2 9.1h-4.7v-20.5h4.5zm1.2 28.7c0 7.7-2.6 10.6-8.6 10.6-5.9 0-8.6-3.1-8.6-10.6s2.6-10.6 8.6-10.6 8.6 3.1 8.6 10.6zm-11.6 0c0 4.9.7 5.9 3 5.9s3-1 3-5.9-.7-5.8-3-5.8c-2.2 0-3 1-3 5.8zm-8.2-51.5h-5.6l-.7 3.6h-5.7l6.1-20.5h6.5l6.2 20.5h-6zm-2.2-10.3-.4-2.2h-.1l-.5 2.2-1.3 5.9h3.6zm-3.2 35.9c0 1.8.7 2.6 2.5 2.6 1.9 0 2.5-.8 2.5-2.6v-13.4h5.3v13.5c0 4.8-2.6 7.3-7.8 7.3s-7.9-2.5-7.9-7.3v-13.5h5.4zm.3 31.4h7l-.2 4.8h-12.2v-20.5h5.4zm32.2.5c1.7 0 2.3-.6 2.3-1.7 0-2.6-8.1-1.8-8.1-8.5 0-3.6 2.2-6.4 7.2-6.4 1.9 0 3.9.4 5.4 1l-.6 4.4c-1.6-.5-3.1-.7-4.4-.7-2 0-2.5.6-2.5 1.5 0 2.6 8.1 1.7 8.1 8.4 0 4-2.7 6.5-7.3 6.5-2.2 0-4.3-.5-6-1.4l.7-4.5c1.8.9 3.5 1.4 5.2 1.4zm6.5-24.8h-7.4v-20.5h7.3c6.2 0 8.8 2.9 8.8 10.1-.1 7.5-3 10.4-8.7 10.4zm-.1-15.8h-2v11.1h2c2.3 0 3.1-.7 3.1-5.7 0-4.6-.7-5.4-3.1-5.4zm8.4 40.1h7l-.2 4.8h-12.2v-20.5h5.4zm21.7-11h-7.6v3.2h6.3v4.3h-6.3v3.6h8l-.1 4.6h-13.3v-20.4h12.8zm10.5-33.8h5.5v20.5h-5.5zm.4 28.7c1.8 0 3.9.3 5.3.9l-.5 4.6c-1.3-.5-3.1-.8-4.5-.8-3.4 0-4.1 1.3-4.1 5.9 0 4.9.8 5.9 3.4 5.9.4 0 .8 0 1.2-.1v-6.7h4.8v10.4c-1.4.7-3.7 1.1-5.8 1.1-6.8 0-9.2-3.6-9.2-10.6-.1-7.1 2.8-10.6 9.4-10.6zm21.5-28.7.1 4.8h-4.6v15.7h-5.4v-15.7h-4.6l.1-4.8zm-.6 33.8h-7.6v3.2h6.3v4.3h-6.3v3.6h8l-.1 4.6h-13.2v-20.4h12.8zm13.5 5.9v-2.2-8.4h4.7v20.5h-3.8l-6.1-9.4-1.1-1.9h-.1v2.2 9.1h-4.7v-20.5h4.5zm9.7 5c1.9 0 2.7 1 2.7 2.6s-.8 2.6-2.7 2.6-2.8-.7-2.8-2.6c0-1.7.9-2.6 2.8-2.6zm9.3-36.8h1.4l3.8-7.9h6l-4.9 9.8 5.2 10.7h-6.3l-3.9-8.3h-1.3v8.3h-5.3v-20.5h5.3z" fill="#020204" fill-rule="evenodd"/></svg>