<?xml version="1.0" encoding="utf-8"?>
<!-- Generator: Adobe Illustrator 23.1.1, SVG Export Plug-In . SVG Version: 6.00 Build 0)  -->
<svg version="1.1" id="Ebene_1" xmlns="http://www.w3.org/2000/svg" xmlns:xlink="http://www.w3.org/1999/xlink" x="0px" y="0px"
	 viewBox="0 0 425.2 65.41" style="enable-background:new 0 0 425.2 65.41;" xml:space="preserve">
<style type="text/css">
	.st0{fill-rule:evenodd;clip-rule:evenodd;}
</style>
<path class="st0" d="M413.4,31.42v14.22c-1.99,0.93-5.24,1.53-8.19,1.53c-9.49,0-12.86-4.95-12.86-14.48
	c0-9.75,3.94-14.44,13.2-14.44c2.53,0,5.4,0.45,7.46,1.23l-0.69,6.22c-1.87-0.67-4.28-1.08-6.35-1.08c-4.71,0-5.78,1.71-5.78,8
	c0,6.62,1.11,8.07,4.82,8.07c0.57,0,1.18-0.04,1.72-0.15v-9.12H413.4z M375.33,33.77l-1.61-2.57l-0.08,0.04l0.04,3.01v12.39h-6.58
	V18.73h6.28l9.22,14.48l0.08-0.04l-0.08-2.98l0.04-11.46h6.58v27.91h-5.32L375.33,33.77z M352.52,47.13
	c-7.35,0-11.06-3.42-11.06-9.97V18.73h7.5V37c0,2.49,1,3.61,3.56,3.61c2.6,0,3.48-1.04,3.48-3.61V18.73h7.46v18.42
	C363.47,43.7,359.87,47.13,352.52,47.13z M330.14,47.16c-9.49,0-12.86-4.95-12.86-14.48c0-9.75,3.94-14.44,13.2-14.44
	c2.53,0,5.4,0.45,7.46,1.23l-0.69,6.22c-1.88-0.67-4.29-1.08-6.35-1.08c-4.71,0-5.78,1.71-5.78,8c0,6.62,1.11,8.07,4.82,8.07
	c0.57,0,1.18-0.04,1.72-0.15v-9.12h6.66v14.22C336.34,46.57,333.08,47.16,330.14,47.16z M306.14,18.73h7.69v27.91h-7.69V18.73z
	 M288.04,33.77l-1.61-2.57l-0.08,0.04l0.04,3.01v12.39h-6.58V18.73h6.28l9.22,14.48l0.08-0.04l-0.08-2.98l0.04-11.46h6.58v27.91
	h-5.32L288.04,33.77z M267.91,18.73h7.69v27.91h-7.69V18.73z M264.74,40.35l-0.15,6.29H246.1V18.73h17.99l0.15,6.4h-10.68v4.32h8.8
	v5.84h-8.8v5.06H264.74z M235.58,46.64l-3.83-9.97h-2.53v9.97h-7.46V18.73h9.91c7.27,0,10.87,2.68,10.87,8.97
	c0,3.72-1.38,6.47-3.9,7.52l5.59,11.43H235.58z M231.83,24.76h-2.6v6.44h2.56c2.18,0,2.95-0.52,2.95-3.24
	C234.74,25.43,234.01,24.76,231.83,24.76z M203.97,33.77l-1.61-2.57l-0.08,0.04l0.04,3.01v12.39h-6.58V18.73h6.28l9.22,14.48
	l0.08-0.04l-0.08-2.98l0.04-11.46h6.58v27.91h-5.32L203.97,33.77z M192.88,40.35l-0.15,6.29h-18.48V18.73h17.99l0.15,6.4H181.7v4.32
	h8.8v5.84h-8.8v5.06H192.88z M156.44,33.77l-1.61-2.57l-0.08,0.04l0.04,3.01v12.39h-6.58V18.73h6.28l9.22,14.48l0.08-0.04
	l-0.08-2.98l0.04-11.46h6.58v27.91h-5.32L156.44,33.77z M130.42,33.77l-1.61-2.57l-0.08,0.04l0.04,3.01v12.39h-6.58V18.73h6.28
	l9.22,14.48l0.08-0.04l-0.08-2.98l0.04-11.46h6.58v27.91h-5.32L130.42,33.77z M110.29,18.73h7.69v27.91h-7.69V18.73z M99.08,46.64
	l-5.4-11.35h-1.84v11.35h-7.46V18.73h7.46v10.79h1.99l5.32-10.79h8.38l-6.89,13.36l7.23,14.55H99.08z M66.6,33.77l-1.61-2.57
	l-0.08,0.04l0.04,3.01v12.39h-6.58V18.73h6.28l9.22,14.48l0.08-0.04l-0.08-2.98l0.04-11.46h6.58v27.91h-5.32L66.6,33.77z M47,41.77
	H39.2l-1.11,4.88h-7.92l8.5-27.91h9.15l8.65,27.91h-8.34L47,41.77z M43.79,27.7l-0.57-2.98H43.1l-0.65,2.98l-1.84,8h5.01L43.79,27.7
	z M25.92,46.64H18.3v-21.4H11.8l0.15-6.51h20.32l0.15,6.51h-6.51V46.64z"/>
</svg>
