<?xml version="1.0" encoding="utf-8"?>
<!-- Generator: Adobe Illustrator 23.1.1, SVG Export Plug-In . SVG Version: 6.00 Build 0)  -->
<svg version="1.1" id="Ebene_1" xmlns="http://www.w3.org/2000/svg" xmlns:xlink="http://www.w3.org/1999/xlink" x="0px" y="0px"
	 viewBox="0 0 425.2 65.41" style="enable-background:new 0 0 425.2 65.41;" xml:space="preserve">
<style type="text/css">
	.st0{fill-rule:evenodd;clip-rule:evenodd;}
</style>
<path class="st0" d="M407.98,42.09c-0.89,0-1.33-0.36-1.33-1.31c0-0.83,0.44-1.28,1.33-1.28c0.86,0,1.28,0.45,1.28,1.28
	C409.26,41.62,408.84,42.09,407.98,42.09z M400.61,30.74c0-2.81-1.55-4-4.33-4c-1.61,0-3.55,0.78-4.46,2.23v12.85h-1.66V25.43
	l1.19-0.11l0.31,1.97h0.08c1.11-1.36,3-2.17,4.96-2.17c3.47,0,5.57,1.81,5.57,5.59v11.1h-1.66V30.74z M374.93,33.52
	c0.08,5.26,1.83,7.04,5.74,7.04c1.72,0,3.13-0.42,4.52-1.17l0.22,1.47c-1.41,0.81-2.99,1.28-4.91,1.28c-5.21,0-7.29-2.75-7.29-9.1
	c0-5.15,2.19-7.93,6.52-7.93c3.69,0,6.27,2.25,6.27,7.57c0,0.25-0.03,0.61-0.05,0.83H374.93z M379.73,26.62
	c-3.22,0-4.66,1.92-4.82,5.7h9.54C384.39,28.18,382.45,26.62,379.73,26.62z M364.75,42.15c-1.94,0-3.77-0.53-4.99-1.5l0.28-1.53
	c1.19,1,3.02,1.56,4.69,1.56c2.77,0,3.94-1.42,3.94-3.31c0-4.4-8.82-2.51-8.82-7.93c0-2.67,1.91-4.31,5.44-4.31
	c1.55,0,2.99,0.31,4.3,0.95l-0.16,1.47c-1.36-0.61-2.8-0.92-4.16-0.92c-2.33,0-3.8,1.06-3.8,2.73c0,4.09,8.79,2.06,8.79,7.85
	C370.25,40.17,368.55,42.15,364.75,42.15z M351.17,42.15c-1.94,0-3.77-0.53-4.99-1.5l0.28-1.53c1.19,1,3.02,1.56,4.69,1.56
	c2.77,0,3.94-1.42,3.94-3.31c0-4.4-8.82-2.51-8.82-7.93c0-2.67,1.91-4.31,5.43-4.31c1.55,0,3,0.31,4.3,0.95l-0.17,1.47
	c-1.36-0.61-2.8-0.92-4.16-0.92c-2.33,0-3.8,1.06-3.8,2.73c0,4.09,8.79,2.06,8.79,7.85C356.66,40.17,354.97,42.15,351.17,42.15z
	 M340.69,39.5l-0.08-0.03c-0.89,1.56-2.83,2.59-5.1,2.59c-2.97,0-5.02-1.47-5.02-5.15c0-3.12,1.91-4.9,5.91-4.9
	c1.47,0,2.97,0.31,4.08,0.72v-2.03c0-3.12-1.3-4.12-4.19-4.12c-1.69,0-3.21,0.31-4.63,1.03l-0.2-1.48c1.55-0.72,3.22-1.09,5.1-1.09
	c3.99,0,5.6,1.64,5.6,5.9v10.85h-1.28L340.69,39.5z M340.46,34.08c-0.42-0.31-1.86-0.78-3.83-0.78c-3.16,0-4.55,1.31-4.55,3.59
	c0,2.78,1.66,3.73,3.85,3.73c2.38,0,4.52-1.67,4.52-3.25V34.08z M323.77,19.67l1.66-0.11v22.26h-1.66V19.67z M307.63,30.74
	c0-2.81-1.55-4-4.32-4c-1.61,0-3.55,0.78-4.47,2.23v12.85h-1.66V25.43l1.19-0.11l0.3,1.97h0.08c1.11-1.36,2.99-2.17,4.96-2.17
	c3.47,0,5.57,1.81,5.57,5.59v11.1h-1.66V30.74z M281.96,33.52c0.08,5.26,1.83,7.04,5.74,7.04c1.72,0,3.13-0.42,4.52-1.17l0.22,1.47
	c-1.41,0.81-3,1.28-4.91,1.28c-5.21,0-7.29-2.75-7.29-9.1c0-5.15,2.19-7.93,6.52-7.93c3.69,0,6.27,2.25,6.27,7.57
	c0,0.25-0.03,0.61-0.06,0.83H281.96z M286.75,26.62c-3.22,0-4.66,1.92-4.82,5.7h9.54C291.41,28.18,289.47,26.62,286.75,26.62z
	 M274.64,30.71c0-2.53-1.36-3.98-4.27-3.98c-2.02,0-3.74,1-4.47,2.25v12.82h-1.69V19.7l1.69-0.14v5.4l-0.03,2.23l0.05,0.03
	c1.14-1.36,2.88-2.12,4.88-2.12c3.61,0,5.52,1.98,5.52,5.62v11.1h-1.69V30.71z M256.12,40.62c1.39,0,2.74-0.39,3.77-1.14l0.17,1.48
	c-0.97,0.72-2.55,1.22-4.24,1.22c-4.49,0-6.71-2.56-6.71-8.76c0-5.59,2.05-8.29,6.74-8.29c1.53,0,2.99,0.39,4.08,0.92l-0.14,1.56
	c-1.03-0.5-2.3-0.86-3.61-0.86c-3.83,0-5.32,1.97-5.32,6.68C250.85,38.73,252.65,40.62,256.12,40.62z M243.75,39.5l-0.08-0.03
	c-0.89,1.56-2.83,2.59-5.1,2.59c-2.97,0-5.02-1.47-5.02-5.15c0-3.12,1.91-4.9,5.91-4.9c1.47,0,2.97,0.31,4.08,0.72v-2.03
	c0-3.12-1.3-4.12-4.19-4.12c-1.69,0-3.21,0.31-4.63,1.03l-0.2-1.48c1.55-0.72,3.22-1.09,5.1-1.09c3.99,0,5.6,1.64,5.6,5.9v10.85
	h-1.28L243.75,39.5z M243.53,34.08c-0.42-0.31-1.86-0.78-3.83-0.78c-3.16,0-4.55,1.31-4.55,3.59c0,2.78,1.66,3.73,3.85,3.73
	c2.39,0,4.52-1.67,4.52-3.25V34.08z M227.78,30.66c0-2.67-1.53-3.89-3.97-3.89c-1.94,0-3.72,1.2-3.72,3.53v11.52h-1.66V30.3
	c0-2.56-1.69-3.53-3.72-3.53c-1.55,0-3.22,0.86-3.99,2.2v12.85h-1.66V25.43l1.19-0.11l0.33,2h0.08c0.91-1.31,2.55-2.14,4.32-2.14
	c2.36,0,3.85,0.92,4.52,2.73h0.08c0.75-1.81,2.47-2.75,4.6-2.75c3.1,0,5.24,1.73,5.24,5.48v11.18h-1.66V30.66z M192.14,37.86
	c0,1.97,1.03,2.75,2.66,2.75c0.47,0,1.05-0.08,1.39-0.22l0.14,1.33c-0.44,0.2-1.25,0.33-1.97,0.33c-2.55,0-3.91-1.33-3.91-4.15
	V26.76h-2.55V25.4h2.58l0.33-4.31l1.33-0.17v4.48h4.3v1.37h-4.3V37.86z M181.41,37.86c0,1.97,1.03,2.75,2.66,2.75
	c0.47,0,1.05-0.08,1.39-0.22l0.14,1.33c-0.44,0.2-1.25,0.33-1.97,0.33c-2.55,0-3.91-1.33-3.91-4.15V26.76h-2.55V25.4h2.58l0.33-4.31
	l1.33-0.17v4.48h4.3v1.37h-4.3V37.86z M172.32,39.5l-0.08-0.03c-0.89,1.56-2.83,2.59-5.1,2.59c-2.97,0-5.02-1.47-5.02-5.15
	c0-3.12,1.91-4.9,5.91-4.9c1.47,0,2.97,0.31,4.08,0.72v-2.03c0-3.12-1.3-4.12-4.19-4.12c-1.69,0-3.22,0.31-4.63,1.03l-0.2-1.48
	c1.55-0.72,3.22-1.09,5.1-1.09c3.99,0,5.6,1.64,5.6,5.9v10.85h-1.28L172.32,39.5z M172.1,34.08c-0.42-0.31-1.86-0.78-3.83-0.78
	c-3.16,0-4.55,1.31-4.55,3.59c0,2.78,1.66,3.73,3.85,3.73c2.38,0,4.52-1.67,4.52-3.25V34.08z M154.93,37.86
	c0,1.97,1.02,2.75,2.66,2.75c0.47,0,1.06-0.08,1.39-0.22l0.14,1.33c-0.44,0.2-1.25,0.33-1.97,0.33c-2.55,0-3.91-1.33-3.91-4.15
	V26.76h-2.55V25.4h2.58l0.33-4.31l1.33-0.17v4.48h4.3v1.37h-4.3V37.86z M142.73,42.15c-1.94,0-3.77-0.53-4.99-1.5l0.28-1.53
	c1.19,1,3.02,1.56,4.69,1.56c2.77,0,3.94-1.42,3.94-3.31c0-4.4-8.82-2.51-8.82-7.93c0-2.67,1.91-4.31,5.43-4.31
	c1.55,0,3,0.31,4.3,0.95l-0.16,1.47c-1.36-0.61-2.8-0.92-4.16-0.92c-2.33,0-3.8,1.06-3.8,2.73c0,4.09,8.79,2.06,8.79,7.85
	C148.22,40.17,146.53,42.15,142.73,42.15z M123.16,30.74c0-2.81-1.55-4-4.33-4c-1.61,0-3.55,0.78-4.47,2.23v12.85h-1.66V25.43
	l1.19-0.11l0.3,1.97h0.08c1.11-1.36,2.99-2.17,4.96-2.17c3.47,0,5.57,1.81,5.57,5.59v11.1h-1.66V30.74z M97.48,33.52
	c0.08,5.26,1.83,7.04,5.74,7.04c1.72,0,3.14-0.42,4.52-1.17l0.22,1.47c-1.41,0.81-2.99,1.28-4.91,1.28c-5.21,0-7.29-2.75-7.29-9.1
	c0-5.15,2.19-7.93,6.52-7.93c3.69,0,6.27,2.25,6.27,7.57c0,0.25-0.03,0.61-0.06,0.83H97.48z M102.28,26.62
	c-3.22,0-4.66,1.92-4.82,5.7h9.54C106.93,28.18,104.99,26.62,102.28,26.62z M90.16,30.71c0-2.53-1.36-3.98-4.27-3.98
	c-2.02,0-3.74,1-4.47,2.25v12.82h-1.69V19.7l1.69-0.14v5.4l-0.03,2.23l0.05,0.03c1.14-1.36,2.88-2.12,4.88-2.12
	c3.61,0,5.52,1.98,5.52,5.62v11.1h-1.69V30.71z M71.64,40.62c1.39,0,2.74-0.39,3.77-1.14l0.17,1.48c-0.97,0.72-2.55,1.22-4.24,1.22
	c-4.49,0-6.71-2.56-6.71-8.76c0-5.59,2.05-8.29,6.74-8.29c1.53,0,2.99,0.39,4.08,0.92L75.3,27.6c-1.02-0.5-2.3-0.86-3.61-0.86
	c-3.83,0-5.32,1.97-5.32,6.68C66.37,38.73,68.17,40.62,71.64,40.62z M59.27,39.5l-0.08-0.03c-0.89,1.56-2.83,2.59-5.1,2.59
	c-2.97,0-5.02-1.47-5.02-5.15c0-3.12,1.92-4.9,5.91-4.9c1.47,0,2.97,0.31,4.08,0.72v-2.03c0-3.12-1.3-4.12-4.19-4.12
	c-1.69,0-3.22,0.31-4.63,1.03l-0.2-1.48c1.55-0.72,3.22-1.09,5.1-1.09c4,0,5.6,1.64,5.6,5.9v10.85h-1.28L59.27,39.5z M59.05,34.08
	c-0.42-0.31-1.86-0.78-3.83-0.78c-3.16,0-4.55,1.31-4.55,3.59c0,2.78,1.66,3.73,3.85,3.73c2.39,0,4.52-1.67,4.52-3.25V34.08z
	 M42.58,26.21l0.05-2.25l-0.08-0.03l-0.8,2.12l-6.41,15.77h-1.39l-6.4-15.69l-0.8-2.11l-0.06,0.03l0.03,2.25v15.53h-1.61V20.95h2.16
	l6.57,16.22l0.8,2.09h0.08l0.78-2.09l6.57-16.22h2.13v20.87h-1.64V26.21z"/>
</svg>
