<?xml version="1.0" encoding="utf-8"?>
<!-- Generator: Adobe Illustrator 16.0.0, SVG Export Plug-In . SVG Version: 6.00 Build 0)  -->
<!DOCTYPE svg PUBLIC "-//W3C//DTD SVG 1.0//EN" "http://www.w3.org/TR/2001/REC-SVG-20010904/DTD/svg10.dtd">
<svg version="1.0" id="Ebene_1" xmlns="http://www.w3.org/2000/svg" xmlns:xlink="http://www.w3.org/1999/xlink" x="0px" y="0px"
	 width="192.93px" height="155.514px" viewBox="0 0 192.93 155.514" enable-background="new 0 0 192.93 155.514"
	 xml:space="preserve">
<g>
	<path d="M14.154,20.054l-0.074,1.528H2.737V3.089h10.898l0.074,1.528H4.34v6.584h8.112v1.381H4.34v7.472H14.154z"/>
	<path d="M22.641,14.949l-4.192,6.633h-1.775l4.981-7.397l-4.858-7.15h1.825l4.117,6.361l4.069-6.361h1.751l-4.76,7.102l4.932,7.446
		h-1.85L22.641,14.949z"/>
	<path d="M34.727,8.242v9.839c0,1.75,0.913,2.44,2.367,2.44c0.42,0,0.938-0.073,1.233-0.197l0.123,1.184
		c-0.395,0.173-1.109,0.296-1.751,0.296c-2.268,0-3.477-1.184-3.477-3.674V8.242h-2.269V7.034h2.294l0.295-3.822l1.184-0.148v3.971
		h3.822v1.208H34.727z"/>
	<path d="M41.88,21.582V7.107l1.208-0.099l0.05,1.628l0.05,1.997h0.049c0.838-2.269,2.54-3.797,4.734-3.797
		c0.493,0,0.962,0.049,1.381,0.172l-0.123,1.554c-0.42-0.147-0.863-0.197-1.332-0.197c-2.466,0-4.537,2.269-4.537,5.795v7.422H41.88
		z"/>
	<path d="M51.352,13.814c0-4.562,1.948-7.027,5.795-7.027c3.279,0,5.572,1.997,5.572,6.707c0,0.222-0.024,0.542-0.049,0.739h-9.789
		c0.074,4.661,1.627,6.239,5.104,6.239c1.529,0,2.787-0.37,4.02-1.036l0.197,1.307c-1.258,0.716-2.663,1.135-4.364,1.135
		C53.201,21.878,51.352,19.437,51.352,13.814z M61.338,13.174c-0.049-3.675-1.775-5.056-4.191-5.056
		c-2.86,0-4.143,1.702-4.291,5.056H61.338z"/>
	<path d="M83.066,21.582v-9.888c0-2.367-1.356-3.452-3.526-3.452c-1.727,0-3.305,1.06-3.305,3.132v10.208h-1.479V11.374
		c0-2.27-1.504-3.132-3.304-3.132c-1.381,0-2.86,0.765-3.551,1.948v11.392h-1.479V7.059l1.061-0.099l0.295,1.775h0.074
		c0.814-1.159,2.269-1.898,3.847-1.898c2.097,0,3.428,0.813,4.02,2.416h0.074c0.665-1.603,2.194-2.441,4.093-2.441
		c2.762,0,4.66,1.529,4.66,4.857v9.913H83.066z"/>
	<path d="M88.028,13.814c0-4.562,1.948-7.027,5.795-7.027c3.279,0,5.573,1.997,5.573,6.707c0,0.222-0.025,0.542-0.05,0.739h-9.789
		c0.073,4.661,1.627,6.239,5.104,6.239c1.528,0,2.786-0.37,4.019-1.036l0.197,1.307c-1.257,0.716-2.663,1.135-4.364,1.135
		C89.878,21.878,88.028,19.437,88.028,13.814z M98.016,13.174c-0.05-3.675-1.775-5.056-4.192-5.056c-2.86,0-4.143,1.702-4.29,5.056
		H98.016z"/>
	<path d="M117.279,14.11h-4.267v7.472h-1.627V3.089h5.894c4.191,0,6.016,1.627,6.016,5.498
		C123.295,12.311,121.52,14.11,117.279,14.11z M117.279,4.543h-4.267v8.162h4.267c2.885,0,4.364-0.986,4.364-4.118
		C121.644,5.628,120.238,4.543,117.279,4.543z"/>
	<path d="M131.93,21.902c-4.24,0-6.14-2.12-6.14-7.569c0-5.4,1.924-7.546,6.14-7.546c4.267,0,6.066,2.146,6.066,7.546
		C137.996,19.782,136.196,21.902,131.93,21.902z M131.93,20.596c3.256,0,4.513-1.726,4.513-6.263c0-4.513-1.257-6.215-4.513-6.215
		c-3.279,0-4.586,1.702-4.586,6.215C127.344,18.895,128.65,20.596,131.93,20.596z"/>
	<path d="M150.65,7.034l3.033,11.49l0.492,1.924h0.074l0.395-1.948l2.713-11.466h1.504l-3.674,14.548h-1.898l-2.935-11.022
		l-0.469-1.947h-0.074l-0.493,1.947l-3.008,11.022h-1.85l-3.797-14.548h1.528l2.762,11.416l0.444,1.948h0.073l0.469-1.923
		l3.058-11.441H150.65z"/>
	<path d="M161.53,13.814c0-4.562,1.948-7.027,5.795-7.027c3.279,0,5.573,1.997,5.573,6.707c0,0.222-0.025,0.542-0.05,0.739h-9.789
		c0.073,4.661,1.627,6.239,5.104,6.239c1.528,0,2.786-0.37,4.019-1.036l0.197,1.307c-1.257,0.716-2.663,1.135-4.364,1.135
		C163.38,21.878,161.53,19.437,161.53,13.814z M171.518,13.174c-0.05-3.675-1.775-5.056-4.192-5.056c-2.86,0-4.143,1.702-4.29,5.056
		H171.518z"/>
	<path d="M176.601,21.582V7.107l1.208-0.099l0.05,1.628l0.05,1.997h0.049c0.838-2.269,2.54-3.797,4.734-3.797
		c0.493,0,0.962,0.049,1.381,0.172l-0.123,1.554c-0.42-0.147-0.863-0.197-1.332-0.197c-2.466,0-4.537,2.269-4.537,5.795v7.422
		H176.601z"/>
	<path d="M18.986,53.646v-9.888c0-2.367-1.355-3.452-3.525-3.452c-1.727,0-3.305,1.06-3.305,3.132v10.208h-1.479V43.438
		c0-2.27-1.504-3.132-3.304-3.132c-1.381,0-2.86,0.765-3.551,1.948v11.392H2.343V39.123l1.06-0.099L3.699,40.8h0.073
		c0.813-1.159,2.269-1.898,3.847-1.898c2.096,0,3.428,0.813,4.02,2.416h0.074c0.666-1.603,2.194-2.441,4.093-2.441
		c2.762,0,4.661,1.529,4.661,4.857v9.913H18.986z"/>
	<path d="M26.341,36.114c-0.739,0-1.159-0.246-1.159-1.035c0-0.666,0.42-1.036,1.159-1.036s1.159,0.37,1.159,1.036
		C27.5,35.794,27.08,36.114,26.341,36.114z M25.576,53.646V39.172l1.504-0.123v14.598H25.576z"/>
	<path d="M34.875,40.307v9.839c0,1.75,0.912,2.44,2.367,2.44c0.419,0,0.937-0.073,1.232-0.197l0.123,1.184
		c-0.395,0.173-1.109,0.296-1.75,0.296c-2.27,0-3.478-1.184-3.478-3.674v-9.888h-2.269v-1.208h2.293l0.297-3.822l1.184-0.148v3.971
		h3.821v1.208H34.875z"/>
	<path d="M60.425,49.06c0,3.059-1.751,4.883-5.399,4.883c-3.625,0-5.376-1.85-5.376-4.883v-9.961h1.479v9.912
		c0,2.269,1.332,3.502,3.896,3.502s3.92-1.209,3.92-3.502v-9.912h1.479V49.06z"/>
	<path d="M74.139,53.646v-9.813c0-2.491-1.381-3.551-3.846-3.551c-1.431,0-3.156,0.689-3.971,1.973v11.392h-1.479V39.123
		l1.061-0.099l0.271,1.75h0.073c0.986-1.208,2.664-1.923,4.414-1.923c3.082,0,4.957,1.603,4.957,4.956v9.839H74.139z"/>
	<path d="M83.661,53.942c-1.726,0-3.354-0.469-4.438-1.332l0.246-1.355c1.061,0.888,2.688,1.381,4.168,1.381
		c2.466,0,3.501-1.258,3.501-2.935c0-3.896-7.841-2.22-7.841-7.027c0-2.367,1.701-3.822,4.833-3.822
		c1.381,0,2.663,0.271,3.821,0.839l-0.147,1.307c-1.208-0.543-2.49-0.814-3.698-0.814c-2.072,0-3.379,0.938-3.379,2.417
		c0,3.625,7.816,1.825,7.816,6.954C88.543,52.191,87.039,53.942,83.661,53.942z"/>
	<path d="M91.186,45.879c0-4.562,1.947-7.027,5.795-7.027c3.279,0,5.572,1.997,5.572,6.707c0,0.222-0.024,0.542-0.049,0.739h-9.79
		c0.074,4.661,1.628,6.239,5.104,6.239c1.529,0,2.786-0.37,4.02-1.036l0.197,1.307c-1.258,0.716-2.663,1.135-4.365,1.135
		C93.035,53.942,91.186,51.501,91.186,45.879z M101.172,45.238c-0.049-3.675-1.775-5.056-4.191-5.056
		c-2.861,0-4.143,1.702-4.291,5.056H101.172z"/>
	<path d="M106.255,53.646V39.172l1.208-0.099l0.05,1.628l0.05,1.997h0.049c0.838-2.269,2.54-3.797,4.734-3.797
		c0.493,0,0.962,0.049,1.381,0.172l-0.123,1.554c-0.42-0.147-0.863-0.197-1.332-0.197c-2.466,0-4.537,2.269-4.537,5.795v7.422
		H106.255z"/>
	<path d="M115.727,45.879c0-4.562,1.948-7.027,5.795-7.027c3.279,0,5.572,1.997,5.572,6.707c0,0.222-0.024,0.542-0.049,0.739h-9.789
		c0.074,4.661,1.627,6.239,5.104,6.239c1.529,0,2.787-0.37,4.02-1.036l0.197,1.307c-1.258,0.716-2.663,1.135-4.364,1.135
		C117.576,53.942,115.727,51.501,115.727,45.879z M125.713,45.238c-0.049-3.675-1.775-5.056-4.191-5.056
		c-2.86,0-4.143,1.702-4.291,5.056H125.713z"/>
	<path d="M140.094,53.646v-9.813c0-2.491-1.381-3.551-3.848-3.551c-1.43,0-3.156,0.689-3.97,1.973v11.392h-1.479V39.123l1.061-0.099
		l0.271,1.75h0.074c0.986-1.208,2.662-1.923,4.413-1.923c3.083,0,4.956,1.603,4.956,4.956v9.839H140.094z"/>
	<path d="M14.352,85.711V76.81H4.364v8.901H2.737V67.218h1.627v8.062h9.987v-8.062h1.627v18.493H14.352z"/>
	<path d="M26.266,86.031c-4.24,0-6.14-2.12-6.14-7.569c0-5.4,1.924-7.546,6.14-7.546c4.267,0,6.066,2.146,6.066,7.546
		C32.332,83.911,30.532,86.031,26.266,86.031z M26.266,84.725c3.256,0,4.513-1.726,4.513-6.263c0-4.513-1.257-6.215-4.513-6.215
		c-3.279,0-4.586,1.702-4.586,6.215C21.68,83.023,22.986,84.725,26.266,84.725z M24.393,68.007c-0.567,0-0.863-0.247-0.863-0.938
		c0-0.592,0.296-0.962,0.863-0.962c0.566,0,0.862,0.346,0.862,0.962C25.255,67.71,24.959,68.007,24.393,68.007z M28.066,68.007
		c-0.567,0-0.863-0.247-0.863-0.938c0-0.592,0.296-0.962,0.863-0.962c0.566,0,0.863,0.346,0.863,0.962
		C28.93,67.71,28.633,68.007,28.066,68.007z"/>
	<path d="M44.641,73.11c-0.913-0.443-2.047-0.764-3.206-0.764c-3.403,0-4.734,1.75-4.734,5.918c0,4.709,1.603,6.386,4.685,6.386
		c1.233,0,2.441-0.345,3.354-1.011l0.148,1.307c-0.863,0.642-2.269,1.085-3.772,1.085c-3.995,0-5.968-2.269-5.968-7.767
		c0-4.957,1.825-7.349,5.992-7.349c1.356,0,2.663,0.345,3.625,0.813L44.641,73.11z"/>
	<path d="M57.86,85.711v-9.839c0-2.244-1.208-3.525-3.798-3.525c-1.8,0-3.328,0.887-3.97,1.997v11.367h-1.504V66.107l1.504-0.123
		v4.784l-0.024,1.973l0.049,0.024c1.012-1.208,2.564-1.874,4.34-1.874c3.206,0,4.907,1.75,4.907,4.98v9.839H57.86z"/>
	<path d="M67.407,86.007c-1.726,0-3.354-0.469-4.438-1.332l0.246-1.355c1.061,0.888,2.688,1.381,4.168,1.381
		c2.466,0,3.501-1.258,3.501-2.935c0-3.896-7.841-2.22-7.841-7.027c0-2.367,1.701-3.822,4.833-3.822
		c1.381,0,2.663,0.271,3.821,0.839l-0.147,1.307c-1.208-0.543-2.49-0.814-3.698-0.814c-2.072,0-3.379,0.938-3.379,2.417
		c0,3.625,7.816,1.825,7.816,6.954C72.289,84.256,70.785,86.007,67.407,86.007z"/>
	<path d="M77.988,72.371v9.839c0,1.75,0.913,2.44,2.367,2.44c0.42,0,0.938-0.073,1.233-0.197l0.123,1.184
		c-0.395,0.173-1.109,0.296-1.751,0.296c-2.268,0-3.477-1.184-3.477-3.674v-9.888h-2.269v-1.208h2.294l0.295-3.822l1.184-0.148
		v3.971h3.822v1.208H77.988z"/>
	<path d="M94.438,85.711l-0.246-1.701l-0.074-0.024c-0.912,1.331-2.466,2.021-4.513,2.021c-4.044,0-5.622-2.367-5.622-7.57
		c0-5.006,1.677-7.521,5.647-7.521c1.775,0,3.402,0.642,4.438,1.898l0.05-0.024l-0.05-1.973v-4.71l1.505-0.123v19.727H94.438z
		 M94.068,74.344c-0.715-1.208-2.219-1.997-4.068-1.997c-3.255,0-4.487,1.775-4.487,6.14c0,4.487,1.134,6.238,4.463,6.238
		c2.441,0,3.625-1.208,4.093-2.12V74.344z"/>
	<path d="M100.312,85.711V71.236l1.208-0.099l0.049,1.628l0.05,1.997h0.05c0.838-2.269,2.539-3.797,4.734-3.797
		c0.492,0,0.961,0.049,1.381,0.172l-0.124,1.554c-0.419-0.147-0.862-0.197-1.331-0.197c-2.466,0-4.537,2.269-4.537,5.795v7.422
		H100.312z"/>
	<path d="M121.595,81.124c0,3.059-1.751,4.883-5.4,4.883c-3.625,0-5.376-1.85-5.376-4.883v-9.961h1.48v9.912
		c0,2.269,1.331,3.502,3.896,3.502s3.921-1.209,3.921-3.502v-9.912h1.479V81.124z"/>
	<path d="M134.568,73.11c-0.912-0.443-2.046-0.764-3.205-0.764c-3.402,0-4.734,1.75-4.734,5.918c0,4.709,1.603,6.386,4.686,6.386
		c1.232,0,2.44-0.345,3.354-1.011l0.147,1.307c-0.863,0.642-2.269,1.085-3.772,1.085c-3.995,0-5.968-2.269-5.968-7.767
		c0-4.957,1.825-7.349,5.992-7.349c1.356,0,2.663,0.345,3.625,0.813L134.568,73.11z"/>
	<path d="M140.021,77.179h2.318l5.079-6.041h1.923l-5.646,6.658l5.894,7.915h-1.898l-5.351-7.2h-2.318v7.2h-1.504V66.083
		l1.504-0.099V77.179z"/>
	<path d="M157.73,76.735v1.184h-6.238v-1.184H157.73z"/>
	<path d="M2.343,117.775v-14.475l1.208-0.099L3.6,104.83l0.05,1.997h0.05c0.838-2.269,2.539-3.797,4.734-3.797
		c0.492,0,0.961,0.049,1.381,0.172l-0.124,1.554c-0.419-0.147-0.862-0.197-1.331-0.197c-2.466,0-4.537,2.269-4.537,5.795v7.422
		H2.343z"/>
	<path d="M11.814,110.008c0-4.562,1.947-7.027,5.795-7.027c3.279,0,5.572,1.997,5.572,6.707c0,0.222-0.024,0.542-0.049,0.739h-9.79
		c0.074,4.661,1.628,6.239,5.104,6.239c1.529,0,2.786-0.37,4.02-1.036l0.197,1.307c-1.258,0.716-2.663,1.135-4.365,1.135
		C13.664,118.071,11.814,115.63,11.814,110.008z M21.801,109.367c-0.049-3.675-1.775-5.056-4.191-5.056
		c-2.861,0-4.143,1.702-4.291,5.056H21.801z"/>
	<path d="M28.339,100.243c-0.739,0-1.159-0.246-1.159-1.035c0-0.666,0.42-1.036,1.159-1.036s1.159,0.37,1.159,1.036
		C29.498,99.923,29.078,100.243,28.339,100.243z M27.574,117.775v-14.475l1.504-0.123v14.598H27.574z"/>
	<path d="M43.777,117.775v-9.813c0-2.491-1.381-3.551-3.847-3.551c-1.431,0-3.156,0.689-3.97,1.973v11.392h-1.479v-14.523
		l1.06-0.099l0.271,1.75h0.074c0.986-1.208,2.663-1.923,4.414-1.923c3.082,0,4.956,1.603,4.956,4.956v9.839H43.777z"/>
	<path d="M51.129,100.243c-0.739,0-1.158-0.246-1.158-1.035c0-0.666,0.419-1.036,1.158-1.036c0.74,0,1.159,0.37,1.159,1.036
		C52.288,99.923,51.869,100.243,51.129,100.243z M50.365,117.775v-14.475l1.504-0.123v14.598H50.365z"/>
	<path d="M59.762,111.167c-0.986,0.222-1.504,0.715-1.504,1.332c0,0.566,0.443,1.035,1.652,1.158l3.354,0.346
		c3.575,0.369,4.635,1.455,4.635,3.378c0,2.564-1.479,4.192-5.893,4.192c-3.822,0-5.425-1.529-5.425-3.848
		c0-1.109,0.567-2.194,1.603-2.983c-0.74-0.32-1.332-0.962-1.332-1.948c0-0.887,0.666-1.676,1.875-2.096
		c-1.036-0.566-1.775-1.652-1.775-3.452c0-2.737,1.381-4.266,4.906-4.266c1.258,0,2.59,0.247,3.551,1.011l2.343-1.061l0.345,0.765
		l-1.873,1.258c0.32,0.592,0.518,1.331,0.518,2.269c0,2.737-1.233,4.217-4.883,4.217C61.167,111.438,60.428,111.364,59.762,111.167z
		 M59.49,115.014c-1.035,0.666-1.578,1.652-1.578,2.54c0,1.726,1.184,2.762,4.044,2.762c3.601,0,4.537-1.109,4.537-2.737
		c0-1.258-0.641-1.948-3.452-2.194L59.49,115.014z M58.405,107.271c0,2.441,1.479,2.984,3.428,2.984
		c2.663,0,3.477-1.036,3.477-2.984c0-2.243-1.06-3.032-3.452-3.032C59.343,104.238,58.405,105.249,58.405,107.271z"/>
	<path d="M70.146,110.008c0-4.562,1.948-7.027,5.795-7.027c3.279,0,5.572,1.997,5.572,6.707c0,0.222-0.024,0.542-0.049,0.739h-9.789
		c0.074,4.661,1.627,6.239,5.104,6.239c1.529,0,2.787-0.37,4.02-1.036l0.197,1.307c-1.258,0.716-2.663,1.135-4.364,1.135
		C71.996,118.071,70.146,115.63,70.146,110.008z M80.133,109.367c-0.049-3.675-1.775-5.056-4.191-5.056
		c-2.86,0-4.143,1.702-4.291,5.056H80.133z"/>
	<path d="M85.217,117.775v-14.475l1.209-0.099l0.049,1.628l0.049,1.997h0.05c0.839-2.269,2.54-3.797,4.734-3.797
		c0.493,0,0.962,0.049,1.381,0.172l-0.123,1.554c-0.419-0.147-0.863-0.197-1.332-0.197c-2.466,0-4.537,2.269-4.537,5.795v7.422
		H85.217z"/>
	<path d="M105.291,117.775v-9.813c0-2.491-1.381-3.551-3.846-3.551c-1.431,0-3.156,0.689-3.971,1.973v11.392h-1.479v-14.523
		l1.061-0.099l0.271,1.75H97.4c0.986-1.208,2.664-1.923,4.414-1.923c3.082,0,4.957,1.603,4.957,4.956v9.839H105.291z"/>
	<path d="M125.074,118.047c-1.875,0-3.551-0.716-4.488-1.997l-0.074,0.024l-0.296,1.701h-0.986V98.123l1.505-0.099v4.833
		l-0.025,1.973l0.05,0.024c1.035-1.232,2.663-1.898,4.487-1.898c3.403,0,5.573,1.874,5.573,7.521
		C130.819,116.024,128.723,118.047,125.074,118.047z M124.852,104.361c-1.775,0-3.279,0.765-4.117,2.047v8.235
		c0.641,1.109,2.07,2.121,4.167,2.121c2.589,0,4.389-1.307,4.389-6.264C129.29,105.619,127.639,104.361,124.852,104.361z"/>
	<path d="M136.025,100.243c-0.739,0-1.158-0.246-1.158-1.035c0-0.666,0.419-1.036,1.158-1.036c0.74,0,1.159,0.37,1.159,1.036
		C137.185,99.923,136.766,100.243,136.025,100.243z M135.262,117.775v-14.475l1.504-0.123v14.598H135.262z"/>
	<path d="M145.793,118.071c-1.727,0-3.354-0.469-4.439-1.332l0.247-1.355c1.061,0.888,2.688,1.381,4.167,1.381
		c2.466,0,3.502-1.258,3.502-2.935c0-3.896-7.842-2.22-7.842-7.027c0-2.367,1.701-3.822,4.833-3.822
		c1.381,0,2.663,0.271,3.822,0.839l-0.147,1.307c-1.209-0.543-2.491-0.814-3.699-0.814c-2.071,0-3.378,0.938-3.378,2.417
		c0,3.625,7.816,1.825,7.816,6.954C150.675,116.32,149.171,118.071,145.793,118.071z"/>
	<path d="M4.66,146.882l-1.134,1.554l0.024,0.073h8.261l-0.05,1.332H1.727v-1.085l7.076-10.479l1.135-1.578l-0.025-0.05H2.047
		l0.049-1.356h9.617v1.11L4.66,146.882z"/>
	<path d="M26.265,145.255c0,3.057-1.751,4.882-5.4,4.882c-3.625,0-5.376-1.85-5.376-4.882v-9.963h1.48v9.913
		c0,2.269,1.331,3.501,3.896,3.501s3.921-1.208,3.921-3.501v-9.913h1.479V145.255z"/>
	<path d="M40.918,148.559h3.6v-13.094l0.049-1.997l-0.049-0.024l-4.241,2.885l-0.197-1.431l5.129-3.624h0.937v17.285h3.478v1.282
		h-8.704V148.559z"/>
	<path d="M60.427,150.112c-4.562,0-6.461-2.564-6.461-9.519c0-7.052,1.899-9.493,6.485-9.493c4.537,0,6.436,2.441,6.436,9.493
		C66.887,147.548,64.964,150.112,60.427,150.112z M60.451,132.58c-3.378,0-4.956,1.628-4.956,7.989c0,6.436,1.578,8.088,4.956,8.088
		c3.354,0,4.883-1.652,4.883-8.088C65.334,134.183,63.805,132.58,60.451,132.58z"/>
	<path d="M76.558,150.112c-4.562,0-6.461-2.564-6.461-9.519c0-7.052,1.899-9.493,6.485-9.493c4.537,0,6.436,2.441,6.436,9.493
		C83.018,147.548,81.095,150.112,76.558,150.112z M76.582,132.58c-3.378,0-4.956,1.628-4.956,7.989c0,6.436,1.578,8.088,4.956,8.088
		c3.354,0,4.883-1.652,4.883-8.088C81.465,134.183,79.936,132.58,76.582,132.58z"/>
	<path d="M92.688,150.112c-4.562,0-6.46-2.564-6.46-9.519c0-7.052,1.898-9.493,6.485-9.493c4.537,0,6.436,2.441,6.436,9.493
		C99.148,147.548,97.225,150.112,92.688,150.112z M92.713,132.58c-3.379,0-4.957,1.628-4.957,7.989c0,6.436,1.578,8.088,4.957,8.088
		c3.354,0,4.882-1.652,4.882-8.088C97.595,134.183,96.066,132.58,92.713,132.58z"/>
	<path d="M116.982,150.112c-1.874,0-3.551-0.715-4.488-1.998l-0.073,0.025l-0.296,1.701h-0.986v-19.652l1.504-0.099v4.833
		l-0.024,1.973l0.049,0.024c1.036-1.233,2.663-1.898,4.488-1.898c3.402,0,5.572,1.874,5.572,7.521
		C122.728,148.09,120.632,150.112,116.982,150.112z M116.761,136.427c-1.775,0-3.28,0.765-4.118,2.047v8.235
		c0.641,1.11,2.071,2.121,4.167,2.121c2.589,0,4.39-1.308,4.39-6.264C121.199,137.685,119.547,136.427,116.761,136.427z"/>
	<path d="M134.79,147.794l-0.074-0.024c-0.789,1.381-2.515,2.293-4.537,2.293c-2.638,0-4.463-1.307-4.463-4.562
		c0-2.762,1.701-4.34,5.252-4.34c1.308,0,2.639,0.271,3.625,0.641v-1.8c0-2.762-1.159-3.649-3.724-3.649
		c-1.504,0-2.86,0.271-4.117,0.912l-0.173-1.307c1.381-0.641,2.86-0.961,4.537-0.961c3.551,0,4.98,1.454,4.98,5.227v9.617h-1.134
		L134.79,147.794z M134.593,142.985c-0.37-0.271-1.652-0.689-3.403-0.689c-2.811,0-4.043,1.158-4.043,3.181
		c0,2.466,1.479,3.304,3.427,3.304c2.121,0,4.02-1.479,4.02-2.885V142.985z"/>
	<path d="M140.489,149.841v-14.475l1.208-0.099l0.05,1.628l0.05,1.997h0.049c0.838-2.269,2.54-3.798,4.734-3.798
		c0.493,0,0.962,0.05,1.381,0.173l-0.123,1.554c-0.42-0.148-0.863-0.197-1.332-0.197c-2.466,0-4.537,2.269-4.537,5.795v7.422
		H140.489z"/>
	<path d="M149.985,150.087c-0.789,0-1.184-0.32-1.184-1.158c0-0.74,0.395-1.135,1.184-1.135c0.765,0,1.134,0.395,1.134,1.135
		C151.119,149.668,150.75,150.087,149.985,150.087z"/>
</g>
</svg>
