<?xml version="1.0" encoding="utf-8"?>
<!-- Generator: Adobe Illustrator 23.1.1, SVG Export Plug-In . SVG Version: 6.00 Build 0)  -->
<!DOCTYPE svg PUBLIC "-//W3C//DTD SVG 1.1//EN" "http://www.w3.org/Graphics/SVG/1.1/DTD/svg11.dtd" [
	<!ENTITY ns_extend "http://ns.adobe.com/Extensibility/1.0/">
	<!ENTITY ns_ai "http://ns.adobe.com/AdobeIllustrator/10.0/">
	<!ENTITY ns_graphs "http://ns.adobe.com/Graphs/1.0/">
	<!ENTITY ns_vars "http://ns.adobe.com/Variables/1.0/">
	<!ENTITY ns_imrep "http://ns.adobe.com/ImageReplacement/1.0/">
	<!ENTITY ns_sfw "http://ns.adobe.com/SaveForWeb/1.0/">
	<!ENTITY ns_custom "http://ns.adobe.com/GenericCustomNamespace/1.0/">
	<!ENTITY ns_adobe_xpath "http://ns.adobe.com/XPath/1.0/">
]>
<svg version="1.1" id="Ebene_1" xmlns:x="&ns_extend;" xmlns:i="&ns_ai;" xmlns:graph="&ns_graphs;"
	 xmlns="http://www.w3.org/2000/svg" xmlns:xlink="http://www.w3.org/1999/xlink" x="0px" y="0px" viewBox="0 0 92.24 45.59"
	 style="enable-background:new 0 0 92.24 45.59;" xml:space="preserve">
<style type="text/css">
	.st0{fill-rule:evenodd;clip-rule:evenodd;fill:#FFED00;}
</style>
<metadata>
	<sfw  xmlns="&ns_sfw;">
		<slices></slices>
		<sliceSourceBounds  bottomLeftOrigin="true" height="33.24" width="77.67" x="8.68" y="-39.08"></sliceSourceBounds>
	</sfw>
</metadata>
<path class="st0" d="M85.56,37.75c-0.56,0-0.79-0.21-0.79-0.76c0-0.48,0.24-0.75,0.79-0.75c0.55,0,0.78,0.27,0.78,0.75
	C86.35,37.46,86.12,37.75,85.56,37.75z M78.75,23.43c-1.84,0-3.02-0.27-4.17-0.8l0.6-3.52c0.99,0.41,1.96,0.64,3.15,0.64
	c2.14,0,2.95-1.05,3.2-3.32l-0.05-0.05C80.73,16.82,79.83,17,78.82,17c-3.32,0-5.09-2.03-5.09-5.26c0-3.73,1.93-5.9,5.92-5.9
	c3.94,0,6.17,2.45,6.17,8.21C85.82,20.71,83.47,23.43,78.75,23.43z M79.58,9.48c-1.06,0-1.61,0.53-1.61,2.06
	c0,1.44,0.44,2.08,1.73,2.08c0.85,0,1.5-0.34,1.77-0.94C81.44,10.1,80.75,9.48,79.58,9.48z M75.32,32.34l-1.2,5.3h-1.67l-0.6-3.17
	l-0.12-0.71h-0.03l-0.12,0.71l-0.62,3.17h-1.67l-1.28-5.3h1.37l0.64,3.45l0.12,0.7h0.03l0.11-0.7l0.69-3.45h1.43l0.71,3.47
	l0.13,0.69h0.03l0.11-0.7l0.6-3.46H75.32z M65.15,23.43c-1.84,0-3.02-0.27-4.17-0.8l0.6-3.52c0.99,0.41,1.96,0.64,3.15,0.64
	c2.14,0,2.95-1.05,3.2-3.32l-0.05-0.05C67.13,16.82,66.23,17,65.22,17c-3.32,0-5.09-2.03-5.09-5.26c0-3.73,1.93-5.9,5.92-5.9
	c3.94,0,6.17,2.45,6.17,8.21C72.22,20.71,69.87,23.43,65.15,23.43z M65.98,9.48c-1.06,0-1.61,0.53-1.61,2.06
	c0,1.44,0.44,2.08,1.73,2.08c0.85,0,1.5-0.34,1.77-0.94C67.84,10.1,67.15,9.48,65.98,9.48z M48.14,23.2l6.12-13.04h-7.6l0.21-4.07
	h11.65v3.55L53.04,23.2H48.14z M42.81,23.48c-1.61,0-2.33-0.62-2.33-2.17c0-1.4,0.71-2.2,2.33-2.2c1.61,0,2.3,0.8,2.3,2.2
	C45.11,22.61,44.42,23.48,42.81,23.48z M29.41,20.14h2.05v-8.9l-2.62,1.44L28.38,9.2l5-3.13h2.6v14.07h2.05v3.07h-8.61V20.14z
	 M29.21,33.65c-0.44-0.18-1.03-0.27-1.43-0.27c-0.45,0-0.7,0.17-0.7,0.45c0,0.81,2.44,0.32,2.44,2.15c0,1.06-0.59,1.77-2.03,1.77
	c-0.64,0-1.22-0.12-1.67-0.37l0.14-1.12c0.44,0.25,1.07,0.38,1.52,0.38c0.55,0,0.78-0.22,0.78-0.53c0-0.85-2.47-0.36-2.47-2.21
	c0-0.95,0.65-1.64,2.02-1.64c0.54,0,1.07,0.11,1.51,0.29L29.21,33.65z M24.2,31.77c-0.53,0-0.78-0.15-0.78-0.58
	c0-0.38,0.26-0.59,0.78-0.59c0.54,0,0.77,0.2,0.77,0.59C24.97,31.58,24.74,31.77,24.2,31.77z M19.22,35.35
	c0.07,0.88,0.5,1.22,1.42,1.22c0.5,0,0.97-0.09,1.43-0.26l0.15,1.09c-0.45,0.2-1.07,0.34-1.74,0.34c-1.84,0-2.66-0.96-2.66-2.82
	c0-1.69,0.75-2.68,2.35-2.68c1.36,0,2.2,0.79,2.2,2.47c0,0.2-0.01,0.45-0.03,0.64H19.22z M20.17,33.37c-0.66,0-0.92,0.31-0.98,1.07
	h1.92C21.09,33.67,20.74,33.37,20.17,33.37z M17.99,11.79c-1.59,0-2.47,0.59-2.88,1.95h4.02l-0.41,1.93h-3.86v0.7h3.65l-0.39,1.87
	h-3.04c0.43,1.64,1.43,2.16,2.88,2.16c0.69,0,1.37-0.19,2-0.43l0.25,2.75c-0.84,0.43-1.9,0.66-3.25,0.66c-3.25,0-5.21-1.66-5.8-5.14
	H9.7l0.02-1.87h1.25v-0.7H9.72L9.7,13.74h1.45c0.63-3.21,2.74-5.2,5.98-5.2c1.29,0,2.27,0.19,3.1,0.51l-0.69,3
	C19.09,11.89,18.58,11.79,17.99,11.79z M13.63,33.33c0,1.38-0.74,2.18-2.58,2.18h-0.88v2.13H8.68v-6.56h2.37
	C12.88,31.08,13.63,31.8,13.63,33.33z M10.17,34.33h0.88c0.73,0,1.05-0.18,1.05-1.01c0-0.79-0.28-1.01-1.05-1.01h-0.88V34.33z
	 M15.48,33.21h0.03c0.33-0.64,0.85-0.95,1.46-0.95c0.24,0,0.44,0.03,0.58,0.08l-0.09,1.34c-0.17-0.05-0.37-0.09-0.58-0.09
	c-0.71,0-1.24,0.52-1.24,1.4v2.66h-1.37v-5.26l1.09-0.05L15.48,33.21z M24.89,37.64h-1.4v-5.26l1.4-0.06V37.64z M32.63,32.24
	c1.37,0,2.2,0.79,2.2,2.47c0,0.2-0.01,0.45-0.03,0.64h-3.11c0.07,0.88,0.5,1.22,1.42,1.22c0.5,0,0.97-0.09,1.43-0.26l0.15,1.09
	c-0.45,0.2-1.07,0.34-1.74,0.34c-1.84,0-2.66-0.96-2.66-2.82C30.28,33.23,31.02,32.24,32.63,32.24z M33.58,34.45
	c-0.02-0.78-0.37-1.07-0.94-1.07c-0.66,0-0.92,0.31-0.98,1.07H33.58z M40.27,33.49l-0.01-0.02h-2.3l0.04-1.13h3.84v0.94l-1.95,2.66
	l-0.42,0.54l0.01,0.03h2.45l-0.03,1.13h-4v-0.95l1.95-2.65L40.27,33.49z M45.18,33.49l-0.01-0.02h-2.3l0.04-1.13h3.84v0.94
	l-1.95,2.66l-0.42,0.54l0.01,0.03h2.45l-0.03,1.13h-4v-0.95l1.96-2.65L45.18,33.49z M47.75,36.05c0-0.35,0.2-0.7,0.64-0.91
	c-0.35-0.25-0.58-0.65-0.58-1.25c0-0.96,0.56-1.65,2.04-1.65c0.46,0,0.95,0.07,1.33,0.29l0.91-0.29l0.28,0.65l-0.56,0.44
	c0.05,0.16,0.08,0.35,0.08,0.56c0,1.02-0.58,1.62-2.03,1.62c-0.23,0-0.46-0.02-0.67-0.05c-0.11,0.06-0.19,0.16-0.19,0.25
	c0,0.13,0.12,0.23,0.35,0.24l1.27,0.07c1.25,0.07,1.73,0.53,1.73,1.35c0,1.06-0.71,1.71-2.45,1.71c-1.53,0-2.17-0.59-2.17-1.4
	c0-0.31,0.14-0.62,0.41-0.86C47.93,36.66,47.75,36.41,47.75,36.05z M49.84,34.57c0.57,0,0.74-0.17,0.74-0.66
	c0-0.48-0.2-0.65-0.7-0.65c-0.53,0-0.71,0.19-0.71,0.65C49.16,34.44,49.43,34.57,49.84,34.57z M49.88,38.06c1,0,1.25-0.19,1.25-0.49
	c0-0.24-0.14-0.36-0.74-0.4l-1.27-0.09c-0.14,0.13-0.22,0.29-0.22,0.43C48.91,37.88,49.19,38.06,49.88,38.06z M54.67,37.64h-1.38
	v-6.81l1.38-0.06V37.64z M56.47,36.23c0.55,0,0.78,0.27,0.78,0.75c0,0.47-0.23,0.76-0.78,0.76c-0.56,0-0.79-0.21-0.79-0.76
	C55.68,36.5,55.92,36.23,56.47,36.23z M63.61,34.91l0.25,0.66h0.03l0.25-0.66l1.54-3.83h1.64v6.56h-1.36V34.3l0.02-0.71l-0.03-0.01
	l-0.25,0.67l-1.36,3.39h-0.99l-1.35-3.38l-0.25-0.67l-0.02,0.01l0.01,0.71v3.33h-1.31v-6.56h1.64L63.61,34.91z M78.05,36.49
	c0.72,0,1.04-0.26,1.04-0.72c0-1.03-3.04-0.6-3.04-2.79c0-1.11,0.72-2.01,2.39-2.01c0.64,0,1.34,0.13,1.85,0.34l-0.18,1.24
	c-0.54-0.17-1.09-0.28-1.59-0.28c-0.82,0-1.04,0.28-1.04,0.63c0,1.02,3.04,0.55,3.04,2.77c0,1.29-0.91,2.09-2.45,2.09
	c-0.77,0-1.47-0.18-2.04-0.49l0.19-1.27C76.8,36.31,77.4,36.49,78.05,36.49z M81.68,31.14l1.07-0.1v1.3h1.19v1.01h-1.19v2.71
	c0,0.41,0.21,0.59,0.63,0.59c0.14,0,0.32-0.03,0.42-0.06l0.08,0.99c-0.18,0.08-0.54,0.15-0.92,0.15c-1.07,0-1.58-0.61-1.58-1.62
	v-2.76h-0.6v-1.01h0.66L81.68,31.14z"/>
</svg>
