<?xml version="1.0" encoding="utf-8"?>
<!-- Generator: Adobe Illustrator 27.2.0, SVG Export Plug-In . SVG Version: 6.00 Build 0)  -->
<svg version="1.1" id="Ebene_1" xmlns="http://www.w3.org/2000/svg" xmlns:xlink="http://www.w3.org/1999/xlink" x="0px" y="0px"
	 viewBox="0 0 274.36 46.47" style="enable-background:new 0 0 274.36 46.47;" xml:space="preserve">
<style type="text/css">
	.st0{fill:#FFFFFF;}
	.st1{fill:#238C96;}
</style>
<g>
	<path d="M4.7,8.33v3.17h5.5l-0.02,3.98H4.7v6.65H0v-18h11.26l0.07,4.2H4.7z"/>
	<path d="M26.54,16.01c0,4.22-2.26,6.43-6.86,6.43s-6.94-2.21-6.94-6.43V4.13h4.7v11.79c0,1.61,0.62,2.33,2.23,2.33
		c1.63,0,2.18-0.67,2.18-2.33V4.13h4.68V16.01z M17.4,3.26c-1.18,0-1.78-0.46-1.78-1.61c0-1.08,0.6-1.66,1.78-1.66
		c1.22,0,1.78,0.58,1.78,1.66C19.18,2.71,18.62,3.26,17.4,3.26z M21.98,3.26c-1.18,0-1.78-0.46-1.78-1.61c0-1.08,0.6-1.66,1.78-1.66
		c1.22,0,1.78,0.58,1.78,1.66C23.76,2.71,23.21,3.26,21.98,3.26z"/>
	<path d="M39.41,14.76l3.5,7.37h-5.42l-2.4-6.43H33.5v6.43h-4.68v-18h6.22c4.56,0,6.82,1.73,6.82,5.78
		C41.86,12.31,40.99,14.09,39.41,14.76z M35.14,8.02H33.5v4.15h1.61c1.37,0,1.85-0.34,1.85-2.09C36.96,8.45,36.5,8.02,35.14,8.02z"
		/>
	<path d="M56.5,22.13h-7.01v-18h7.06c3.86,0,5.83,1.8,5.83,4.66c0,1.9-0.86,3.12-2.21,3.77v0.05c1.8,0.6,2.76,1.99,2.76,4.22
		C62.93,20.07,60.98,22.13,56.5,22.13z M56.35,8.06h-2.33v3.17h2.38c1.08,0,1.46-0.41,1.46-1.63C57.86,8.42,57.46,8.06,56.35,8.06z
		 M56.47,14.74h-2.45v3.55h2.54c1.18,0,1.61-0.38,1.61-1.8C58.18,15.24,57.79,14.74,56.47,14.74z"/>
	<path d="M76.49,18.07l-0.1,4.06H64.8v-18h11.28l0.1,4.13h-6.7v2.78H75v3.77h-5.52v3.26H76.49z"/>
	<path d="M82.99,22.44c-1.9,0-3.77-0.43-5.23-1.25l0.6-3.98c1.46,0.74,2.95,1.2,4.51,1.2c1.49,0,2.06-0.5,2.06-1.46
		c0-2.3-7.15-1.58-7.15-7.46c0-3.14,1.92-5.64,6.36-5.64c1.66,0,3.43,0.31,4.73,0.86l-0.53,3.91c-1.37-0.41-2.74-0.65-3.89-0.65
		c-1.78,0-2.16,0.53-2.16,1.3c0,2.33,7.15,1.54,7.15,7.42C89.45,20.23,87.05,22.44,82.99,22.44z"/>
	<path d="M98.59,8.33v13.8h-4.78V8.33h-4.08l0.1-4.2h12.75l0.1,4.2H98.59z"/>
	<path d="M115.8,18.07l-0.1,4.06h-11.59v-18h11.28l0.1,4.13h-6.7v2.78h5.52v3.77h-5.52v3.26H115.8z"/>
	<path d="M10.58,38.76l3.5,7.37H8.66l-2.4-6.43H4.68v6.43H0v-18h6.22c4.56,0,6.82,1.73,6.82,5.78
		C13.03,36.31,12.17,38.09,10.58,38.76z M6.31,32.02H4.68v4.15h1.61c1.37,0,1.85-0.34,1.85-2.09C8.14,32.45,7.68,32.02,6.31,32.02z"
		/>
	<path d="M26.95,42.07l-0.1,4.06H15.26v-18h11.28l0.1,4.13h-6.7v2.78h5.52v3.77h-5.52v3.26H26.95z"/>
	<path d="M28.94,28.13h4.82v18h-4.82V28.13z"/>
	<path d="M46.94,46.13l-5.38-8.3l-1.01-1.66l-0.05,0.02l0.02,1.94v7.99h-4.13v-18h3.94l5.78,9.34l0.05-0.02l-0.05-1.92l0.02-7.39
		h4.13v18H46.94z"/>
	<path d="M52.92,28.13h4.82v18h-4.82V28.13z"/>
	<path d="M73.1,45.48c-1.25,0.6-3.29,0.98-5.14,0.98c-5.95,0-8.06-3.19-8.06-9.34c0-6.29,2.47-9.31,8.28-9.31
		c1.58,0,3.38,0.29,4.68,0.79l-0.43,4.01c-1.18-0.43-2.69-0.7-3.98-0.7c-2.95,0-3.62,1.1-3.62,5.16c0,4.27,0.7,5.21,3.02,5.21
		c0.36,0,0.74-0.02,1.08-0.1v-5.88h4.18V45.48z"/>
	<path d="M88.87,40.01c0,4.22-2.26,6.43-6.87,6.43s-6.94-2.21-6.94-6.43V28.13h4.7v11.79c0,1.61,0.62,2.33,2.23,2.33
		c1.63,0,2.18-0.67,2.18-2.33V28.13h4.68V40.01z"/>
	<path d="M101.69,46.13l-5.38-8.3l-1.01-1.66l-0.05,0.02l0.02,1.94v7.99h-4.13v-18h3.94l5.78,9.34l0.05-0.02l-0.05-1.92l0.02-7.39
		h4.13v18H101.69z"/>
	<path d="M120.19,45.48c-1.25,0.6-3.29,0.98-5.14,0.98c-5.95,0-8.06-3.19-8.06-9.34c0-6.29,2.47-9.31,8.28-9.31
		c1.58,0,3.38,0.29,4.68,0.79l-0.43,4.01c-1.18-0.43-2.69-0.7-3.98-0.7c-2.95,0-3.62,1.1-3.62,5.16c0,4.27,0.7,5.21,3.02,5.21
		c0.36,0,0.74-0.02,1.08-0.1v-5.88h4.18V45.48z"/>
	<path d="M127.03,46.44c-1.9,0-3.77-0.43-5.23-1.25l0.6-3.98c1.46,0.74,2.95,1.2,4.51,1.2c1.49,0,2.06-0.5,2.06-1.46
		c0-2.3-7.15-1.58-7.15-7.46c0-3.14,1.92-5.64,6.36-5.64c1.66,0,3.43,0.31,4.73,0.86l-0.53,3.91c-1.37-0.41-2.74-0.65-3.89-0.65
		c-1.78,0-2.16,0.53-2.16,1.3c0,2.33,7.15,1.54,7.15,7.42C133.49,44.23,131.09,46.44,127.03,46.44z"/>
	<path d="M146.85,42.07l-0.1,4.06h-11.59v-18h11.28l0.1,4.13h-6.7v2.78h5.52v3.77h-5.52v3.26H146.85z"/>
	<path d="M159.24,38.76l3.5,7.37h-5.42l-2.4-6.43h-1.58v6.43h-4.68v-18h6.22c4.56,0,6.82,1.73,6.82,5.78
		C161.69,36.31,160.82,38.09,159.24,38.76z M154.97,32.02h-1.63v4.15h1.61c1.37,0,1.85-0.34,1.85-2.09
		C156.79,32.45,156.33,32.02,154.97,32.02z"/>
	<path d="M176.28,45.48c-1.25,0.6-3.29,0.98-5.14,0.98c-5.95,0-8.06-3.19-8.06-9.34c0-6.29,2.47-9.31,8.28-9.31
		c1.58,0,3.38,0.29,4.68,0.79l-0.43,4.01c-1.18-0.43-2.69-0.7-3.98-0.7c-2.95,0-3.62,1.1-3.62,5.16c0,4.27,0.7,5.21,3.02,5.21
		c0.36,0,0.74-0.02,1.08-0.1v-5.88h4.18V45.48z"/>
	<path d="M190.1,42.07l-0.1,4.06h-11.59v-18h11.28l0.1,4.13h-6.7v2.78h5.52v3.77h-5.52v3.26H190.1z"/>
	<path d="M198.91,46.13h-7.01v-18h7.06c3.86,0,5.83,1.8,5.83,4.66c0,1.9-0.86,3.12-2.21,3.77v0.05c1.8,0.6,2.76,1.99,2.76,4.22
		C205.34,44.07,203.4,46.13,198.91,46.13z M198.77,32.06h-2.33v3.17h2.38c1.08,0,1.46-0.41,1.46-1.63
		C200.28,32.42,199.87,32.06,198.77,32.06z M198.89,38.74h-2.45v3.55h2.54c1.18,0,1.61-0.38,1.61-1.8
		C200.59,39.24,200.21,38.74,198.89,38.74z"/>
	<path d="M217.75,46.13l-5.38-8.3l-1.01-1.66l-0.05,0.02l0.02,1.94v7.99h-4.13v-18h3.94l5.78,9.34l0.05-0.02l-0.05-1.92l0.02-7.39
		h4.13v18H217.75z"/>
	<path d="M223.72,28.13h4.82v18h-4.82V28.13z"/>
	<path d="M235.89,46.44c-1.9,0-3.77-0.43-5.23-1.25l0.6-3.98c1.46,0.74,2.95,1.2,4.51,1.2c1.49,0,2.06-0.5,2.06-1.46
		c0-2.3-7.15-1.58-7.15-7.46c0-3.14,1.92-5.64,6.36-5.64c1.66,0,3.43,0.31,4.73,0.86l-0.53,3.91c-1.37-0.41-2.74-0.65-3.89-0.65
		c-1.78,0-2.16,0.53-2.16,1.3c0,2.33,7.15,1.54,7.15,7.42C242.35,44.23,239.95,46.44,235.89,46.44z"/>
	<path d="M248.42,46.44c-1.9,0-3.77-0.43-5.23-1.25l0.6-3.98c1.46,0.74,2.95,1.2,4.51,1.2c1.49,0,2.06-0.5,2.06-1.46
		c0-2.3-7.15-1.58-7.15-7.46c0-3.14,1.92-5.64,6.36-5.64c1.66,0,3.43,0.31,4.73,0.86l-0.53,3.91c-1.37-0.41-2.74-0.65-3.89-0.65
		c-1.78,0-2.16,0.53-2.16,1.3c0,2.33,7.15,1.54,7.15,7.42C254.88,44.23,252.48,46.44,248.42,46.44z"/>
	<path d="M268.25,42.07l-0.1,4.06h-11.59v-18h11.28l0.1,4.13h-6.7v2.78h5.52v3.77h-5.52v3.26H268.25z"/>
	<path d="M271.96,46.42c-1.68,0-2.42-0.65-2.42-2.28c0-1.46,0.74-2.3,2.42-2.3s2.4,0.84,2.4,2.3
		C274.36,45.51,273.64,46.42,271.96,46.42z"/>
</g>
</svg>
