<?xml version="1.0" encoding="utf-8"?>
<!-- Generator: Adobe Illustrator 27.2.0, SVG Export Plug-In . SVG Version: 6.00 Build 0)  -->
<svg version="1.1" id="Ebene_1" xmlns="http://www.w3.org/2000/svg" xmlns:xlink="http://www.w3.org/1999/xlink" x="0px" y="0px"
	 viewBox="0 0 414.64 46.47" style="enable-background:new 0 0 414.64 46.47;" xml:space="preserve">
<style type="text/css">
	.st0{fill:#FFFFFF;}
	.st1{fill:#238C96;}
</style>
<g>
	<path d="M6.5,22.13H0v-18h6.41c5.47,0,7.7,2.54,7.7,8.9C14.11,19.63,11.57,22.13,6.5,22.13z M6.43,8.28H4.68v9.74h1.75
		c2.06,0,2.76-0.62,2.76-5.04C9.19,9,8.54,8.28,6.43,8.28z"/>
	<path d="M16.27,4.13h4.82v18h-4.82V4.13z"/>
	<path d="M35.42,18.07l-0.1,4.06H23.74v-18h11.28l0.1,4.13h-6.7v2.78h5.52v3.77h-5.52v3.26H35.42z"/>
	<path d="M48.79,16.54H47.3v5.59h-4.68v-18h6.17c4.99,0,6.98,1.94,6.98,6.34C55.78,14.35,53.83,16.54,48.79,16.54z M48.79,8.04H47.3
		v4.78h1.49c1.54,0,2.11-0.36,2.11-2.38C50.9,8.5,50.45,8.04,48.79,8.04z"/>
	<path d="M65.4,18.99h-4.9l-0.7,3.14h-4.97l5.33-18h5.74l5.42,18H66.1L65.4,18.99z M62.54,9.91l-1.15,5.16h3.14l-1.15-5.16
		l-0.36-1.92h-0.07L62.54,9.91z"/>
	<path d="M77.28,22.44c-1.9,0-3.77-0.43-5.23-1.25l0.6-3.98c1.46,0.74,2.95,1.2,4.51,1.2c1.49,0,2.06-0.5,2.06-1.46
		c0-2.3-7.15-1.58-7.15-7.46c0-3.14,1.92-5.64,6.36-5.64c1.66,0,3.43,0.31,4.73,0.86l-0.53,3.91c-1.37-0.41-2.74-0.65-3.89-0.65
		c-1.78,0-2.16,0.53-2.16,1.3c0,2.33,7.15,1.54,7.15,7.42C83.74,20.23,81.34,22.44,77.28,22.44z"/>
	<path d="M89.81,22.44c-1.9,0-3.77-0.43-5.23-1.25l0.6-3.98c1.46,0.74,2.95,1.2,4.51,1.2c1.49,0,2.06-0.5,2.06-1.46
		c0-2.3-7.15-1.58-7.15-7.46c0-3.14,1.92-5.64,6.36-5.64c1.66,0,3.43,0.31,4.73,0.86l-0.53,3.91c-1.37-0.41-2.74-0.65-3.89-0.65
		c-1.78,0-2.16,0.53-2.16,1.3c0,2.33,7.15,1.54,7.15,7.42C96.26,20.23,93.86,22.44,89.81,22.44z"/>
	<path d="M109.63,18.07l-0.1,4.06H97.94v-18h11.28l0.1,4.13h-6.7v2.78h5.52v3.77h-5.52v3.26H109.63z"/>
	<path d="M121.97,22.13l-5.38-8.3l-1.01-1.66l-0.05,0.02l0.02,1.94v7.99h-4.13v-18h3.94l5.78,9.34l0.05-0.02l-0.05-1.92l0.02-7.39
		h4.13v18H121.97z"/>
	<path d="M134.25,22.13h-6.5v-18h6.41c5.47,0,7.7,2.54,7.7,8.9C141.86,19.63,139.32,22.13,134.25,22.13z M134.18,8.28h-1.75v9.74
		h1.75c2.06,0,2.76-0.62,2.76-5.04C136.94,9,136.3,8.28,134.18,8.28z"/>
	<path d="M155.52,18.07l-0.1,4.06h-11.59v-18h11.28l0.1,4.13h-6.7v2.78h5.52v3.77h-5.52v3.26H155.52z"/>
	<path d="M174.41,18.07l-0.1,4.06h-11.59v-18H174l0.1,4.13h-6.7v2.78h5.52v3.77h-5.52v3.26H174.41z"/>
	<path d="M186.79,14.76l3.5,7.37h-5.42l-2.4-6.43h-1.58v6.43h-4.68v-18h6.22c4.56,0,6.82,1.73,6.82,5.78
		C189.24,12.31,188.38,14.09,186.79,14.76z M182.52,8.02h-1.63v4.15h1.61c1.37,0,1.85-0.34,1.85-2.09
		C184.34,8.45,183.89,8.02,182.52,8.02z"/>
	<path d="M203.83,21.48c-1.25,0.6-3.29,0.98-5.14,0.98c-5.95,0-8.06-3.19-8.06-9.34c0-6.29,2.47-9.31,8.28-9.31
		c1.58,0,3.38,0.29,4.68,0.79l-0.43,4.01c-1.18-0.43-2.69-0.7-3.98-0.7c-2.95,0-3.62,1.1-3.62,5.16c0,4.27,0.7,5.21,3.02,5.21
		c0.36,0,0.74-0.02,1.08-0.1v-5.88h4.18V21.48z"/>
	<path d="M215.25,18.99h-4.9l-0.7,3.14h-4.97l5.33-18h5.74l5.42,18h-5.23L215.25,18.99z M210.57,3.26c-1.18,0-1.78-0.46-1.78-1.61
		c0-1.08,0.6-1.66,1.78-1.66c1.22,0,1.78,0.58,1.78,1.66C212.35,2.71,211.8,3.26,210.57,3.26z M212.4,9.91l-1.15,5.16h3.14
		l-1.15-5.16l-0.36-1.92h-0.07L212.4,9.91z M215.16,3.26c-1.18,0-1.78-0.46-1.78-1.61c0-1.08,0.6-1.66,1.78-1.66
		c1.22,0,1.78,0.58,1.78,1.66C216.93,2.71,216.38,3.26,215.16,3.26z"/>
	<path d="M232.92,22.13l-5.38-8.3l-1.01-1.66l-0.05,0.02l0.02,1.94v7.99h-4.13v-18h3.94l5.78,9.34l0.05-0.02l-0.05-1.92l0.02-7.39
		h4.13v18H232.92z"/>
	<path d="M238.05,22.13v-3.05l5.74-9.12l1.06-1.58l-0.02-0.05h-6.62l0.12-4.2h12.03v3.36l-5.54,8.83l-1.06,1.56l0.02,0.07h6.62
		l-0.07,4.18H238.05z"/>
	<path d="M265.68,16.01c0,4.22-2.26,6.43-6.86,6.43s-6.94-2.21-6.94-6.43V4.13h4.7v11.79c0,1.61,0.62,2.33,2.23,2.33
		c1.63,0,2.18-0.67,2.18-2.33V4.13h4.68V16.01z"/>
	<path d="M278.49,22.13l-5.38-8.3l-1.01-1.66l-0.05,0.02l0.02,1.94v7.99h-4.13v-18h3.94l5.78,9.34l0.05-0.02l-0.05-1.92l0.02-7.39
		h4.13v18H278.49z"/>
	<path d="M297,21.48c-1.25,0.6-3.29,0.98-5.14,0.98c-5.95,0-8.06-3.19-8.06-9.34c0-6.29,2.47-9.31,8.28-9.31
		c1.58,0,3.38,0.29,4.68,0.79l-0.43,4.01c-1.18-0.43-2.69-0.7-3.98-0.7c-2.95,0-3.62,1.1-3.62,5.16c0,4.27,0.7,5.21,3.02,5.21
		c0.36,0,0.74-0.02,1.08-0.1v-5.88H297V21.48z"/>
	<path d="M4.7,32.33v3.17h5.5l-0.02,3.98H4.7v6.65H0v-18h11.26l0.07,4.2H4.7z"/>
	<path d="M26.54,40.01c0,4.22-2.26,6.43-6.86,6.43s-6.94-2.21-6.94-6.43V28.13h4.7v11.79c0,1.61,0.62,2.33,2.23,2.33
		c1.63,0,2.18-0.67,2.18-2.33V28.13h4.68V40.01z M17.4,27.26c-1.18,0-1.78-0.46-1.78-1.61c0-1.08,0.6-1.66,1.78-1.66
		c1.22,0,1.78,0.58,1.78,1.66C19.18,26.71,18.62,27.26,17.4,27.26z M21.98,27.26c-1.18,0-1.78-0.46-1.78-1.61
		c0-1.08,0.6-1.66,1.78-1.66c1.22,0,1.78,0.58,1.78,1.66C23.76,26.71,23.21,27.26,21.98,27.26z"/>
	<path d="M39.41,38.76l3.5,7.37h-5.42l-2.4-6.43H33.5v6.43h-4.68v-18h6.22c4.56,0,6.82,1.73,6.82,5.78
		C41.86,36.31,40.99,38.09,39.41,38.76z M35.14,32.02H33.5v4.15h1.61c1.37,0,1.85-0.34,1.85-2.09
		C36.96,32.45,36.5,32.02,35.14,32.02z"/>
	<path d="M49.68,28.13h4.82v18h-4.82V28.13z"/>
	<path d="M66.19,46.13v-7.06h-4.37v7.06h-4.68v-18h4.68v6.74h4.37v-6.74h4.7v18H66.19z"/>
	<path d="M83.9,38.76l3.5,7.37h-5.42l-2.4-6.43H78v6.43h-4.68v-18h6.22c4.56,0,6.82,1.73,6.82,5.78
		C86.35,36.31,85.49,38.09,83.9,38.76z M79.63,32.02H78v4.15h1.61c1.37,0,1.85-0.34,1.85-2.09C81.46,32.45,81,32.02,79.63,32.02z"/>
	<path d="M100.27,42.07l-0.1,4.06H88.58v-18h11.28l0.1,4.13h-6.7v2.78h5.52v3.77h-5.52v3.26H100.27z"/>
	<path d="M112.61,46.13l-5.38-8.3l-1.01-1.66l-0.05,0.02l0.02,1.94v7.99h-4.13v-18h3.94l5.78,9.34l0.05-0.02l-0.05-1.92l0.02-7.39
		h4.13v18H112.61z"/>
	<path d="M134.33,46.13l-5.38-8.3l-1.01-1.66l-0.05,0.02l0.02,1.94v7.99h-4.13v-18h3.94l5.78,9.34l0.05-0.02l-0.05-1.92l0.02-7.39
		h4.13v18H134.33z"/>
	<path d="M151.8,42.07l-0.1,4.06h-11.59v-18h11.28l0.1,4.13h-6.7v2.78h5.52v3.77h-5.52v3.26H151.8z"/>
	<path d="M167.23,40.01c0,4.22-2.26,6.43-6.86,6.43s-6.94-2.21-6.94-6.43V28.13h4.7v11.79c0,1.61,0.62,2.33,2.23,2.33
		c1.63,0,2.18-0.67,2.18-2.33V28.13h4.68V40.01z"/>
	<path d="M181.2,42.07l-0.1,4.06h-11.59v-18h11.28l0.1,4.13h-6.7v2.78h5.52v3.77h-5.52v3.26H181.2z"/>
	<path d="M193.53,46.13l-5.38-8.3l-1.01-1.66l-0.05,0.02l0.02,1.94v7.99H183v-18h3.94l5.78,9.34l0.05-0.02l-0.05-1.92l0.02-7.39
		h4.13v18H193.53z"/>
	<path d="M204.91,28.13h4.82v18h-4.82V28.13z"/>
	<path d="M222.91,46.13l-5.38-8.3l-1.01-1.66l-0.05,0.02l0.02,1.94v7.99h-4.13v-18h3.94l5.78,9.34l0.05-0.02l-0.05-1.92l0.02-7.39
		h4.13v18H222.91z"/>
	<path d="M235.2,46.13h-6.5v-18h6.41c5.47,0,7.7,2.54,7.7,8.9C242.81,43.63,240.26,46.13,235.2,46.13z M235.12,32.28h-1.75v9.74
		h1.75c2.06,0,2.76-0.62,2.76-5.04C237.89,33,237.24,32.28,235.12,32.28z"/>
	<path d="M258.41,40.01c0,4.22-2.26,6.43-6.86,6.43s-6.94-2.21-6.94-6.43V28.13h4.7v11.79c0,1.61,0.62,2.33,2.23,2.33
		c1.63,0,2.18-0.67,2.18-2.33V28.13h4.68V40.01z"/>
	<path d="M265.22,46.44c-1.9,0-3.77-0.43-5.23-1.25l0.6-3.98c1.46,0.74,2.95,1.2,4.51,1.2c1.49,0,2.06-0.5,2.06-1.46
		c0-2.3-7.15-1.58-7.15-7.46c0-3.14,1.92-5.64,6.36-5.64c1.66,0,3.43,0.31,4.73,0.86l-0.53,3.91c-1.37-0.41-2.74-0.65-3.89-0.65
		c-1.78,0-2.16,0.53-2.16,1.3c0,2.33,7.15,1.54,7.15,7.42C271.68,44.23,269.28,46.44,265.22,46.44z"/>
	<path d="M280.82,32.33v13.8h-4.78v-13.8h-4.08l0.1-4.2h12.75l0.1,4.2H280.82z"/>
	<path d="M296.92,38.76l3.5,7.37H295l-2.4-6.43h-1.58v6.43h-4.68v-18h6.22c4.56,0,6.82,1.73,6.82,5.78
		C299.37,36.31,298.51,38.09,296.92,38.76z M292.65,32.02h-1.63v4.15h1.61c1.37,0,1.85-0.34,1.85-2.09
		C294.48,32.45,294.02,32.02,292.65,32.02z"/>
	<path d="M301.8,28.13h4.82v18h-4.82V28.13z"/>
	<path d="M320.95,42.07l-0.1,4.06h-11.59v-18h11.28l0.1,4.13h-6.7v2.78h5.52v3.77h-5.52v3.26H320.95z"/>
	<path d="M327.45,46.44c-1.9,0-3.77-0.43-5.23-1.25l0.6-3.98c1.46,0.74,2.95,1.2,4.51,1.2c1.49,0,2.06-0.5,2.06-1.46
		c0-2.3-7.15-1.58-7.15-7.46c0-3.14,1.92-5.64,6.36-5.64c1.66,0,3.43,0.31,4.73,0.86l-0.53,3.91c-1.37-0.41-2.74-0.65-3.89-0.65
		c-1.78,0-2.16,0.53-2.16,1.3c0,2.33,7.15,1.54,7.15,7.42C333.91,44.23,331.51,46.44,327.45,46.44z"/>
	<path d="M344.42,42.99h-4.9l-0.7,3.14h-4.97l5.33-18h5.74l5.42,18h-5.23L344.42,42.99z M341.56,33.91l-1.15,5.16h3.14l-1.15-5.16
		l-0.36-1.92h-0.07L341.56,33.91z"/>
	<path d="M364.44,40.01c0,4.22-2.26,6.43-6.87,6.43s-6.94-2.21-6.94-6.43V28.13h4.71v11.79c0,1.61,0.62,2.33,2.23,2.33
		c1.63,0,2.18-0.67,2.18-2.33V28.13h4.68V40.01z"/>
	<path d="M379.44,45.48c-1.25,0.6-3.29,0.98-5.14,0.98c-5.95,0-8.06-3.19-8.06-9.34c0-6.29,2.47-9.31,8.28-9.31
		c1.58,0,3.38,0.29,4.68,0.79l-0.43,4.01c-1.18-0.43-2.69-0.7-3.98-0.7c-2.95,0-3.62,1.1-3.62,5.16c0,4.27,0.7,5.21,3.02,5.21
		c0.36,0,0.74-0.02,1.08-0.1v-5.88h4.18V45.48z"/>
	<path d="M393.26,42.07l-0.1,4.06h-11.59v-18h11.28l0.1,4.13h-6.7v2.78h5.52v3.77h-5.52v3.26H393.26z"/>
	<path d="M405.64,38.76l3.5,7.37h-5.42l-2.4-6.43h-1.58v6.43h-4.68v-18h6.22c4.56,0,6.82,1.73,6.82,5.78
		C408.09,36.31,407.23,38.09,405.64,38.76z M401.37,32.02h-1.63v4.15h1.61c1.37,0,1.85-0.34,1.85-2.09
		C403.2,32.45,402.74,32.02,401.37,32.02z"/>
	<path d="M412.24,46.42c-1.68,0-2.42-0.65-2.42-2.28c0-1.46,0.74-2.3,2.42-2.3c1.68,0,2.4,0.84,2.4,2.3
		C414.64,45.51,413.92,46.42,412.24,46.42z"/>
</g>
</svg>
