<?xml version="1.0" encoding="utf-8"?>
<!-- Generator: Adobe Illustrator 22.1.0, SVG Export Plug-In . SVG Version: 6.00 Build 0)  -->
<svg version="1.1" id="Bug" xmlns="http://www.w3.org/2000/svg" xmlns:xlink="http://www.w3.org/1999/xlink" x="0px" y="0px"
	 viewBox="0 0 89.9 88.3" style="enable-background:new 0 0 89.9 88.3;" xml:space="preserve">
<style type="text/css">
	.st0{fill:#1A1A18;}
	.st1{fill:none;stroke:#1A1A18;stroke-width:4;stroke-miterlimit:10;}
</style>
<g>
	<path class="st0" d="M60.1,47.9c0,8.6-7.4,15.6-16.6,15.6S27,56.5,27,47.9s10.8-24.6,16.6-24.6C52.1,23.3,60.1,39.3,60.1,47.9z"/>
	<path class="st1" d="M10.4,50.5c0.3-0.4,9.5-13.7,23.9-10.8"/>
	<path class="st1" d="M12,73.6c0,0,7-6.8,9.3-17.6c2.3-10.6,11.9-9.9,11.9-9.9"/>
	<path class="st1" d="M17.8,10.1c2.2,3.1,4.9,7.9,6.3,13.7C26.4,34.4,36,33.6,36,33.6"/>
	<path class="st1" d="M76,50.5c-0.3-0.4-9.5-13.7-23.9-10.8"/>
	<path class="st1" d="M74.3,73.6c0,0-7-6.8-9.3-17.6C62.6,45.4,53,46.1,53,46.1"/>
	<path class="st1" d="M68.6,10.1c-2.2,3.1-4.9,7.9-6.3,13.7c-2.3,10.6-11.9,9.9-11.9,9.9"/>
</g>
</svg>
