<?xml version="1.0" encoding="utf-8"?>
<!-- Generator: Adobe Illustrator 22.1.0, SVG Export Plug-In . SVG Version: 6.00 Build 0)  -->
<svg version="1.1" xmlns="http://www.w3.org/2000/svg" xmlns:xlink="http://www.w3.org/1999/xlink" x="0px" y="0px"
	 viewBox="0 0 128 54" style="enable-background:new 0 0 128 54;" xml:space="preserve">
<style type="text/css">
	.st0{fill:none;}
	.st1{fill:#FFF000;}
</style>
<g id="Boundingbox">
	<rect x="0" class="st0" width="128" height="54"/>
</g>
<g id="Logo">
	<g>
		<rect id="Grafik" x="14" y="32" class="st1" width="100" height="8"/>
		<g id="Wortmarke">
			<path d="M53,19c0,1.3-0.5,1.6-1.8,1.6h-1.8v-3.1h1.8C52.6,17.6,53,17.9,53,19L53,19z M57.5,18.9c0-3-2.1-4.5-6.1-4.5h-6.1V28h4.3
				v-4.5h1.8l2.3,4.5h5l-3.5-5.3C56.6,22.2,57.5,20.6,57.5,18.9L57.5,18.9z"/>
			<polygon points="91.7,24.6 91.7,22.6 97.3,22.6 97.3,19.6 91.7,19.6 91.7,17.8 98.4,17.8 98.4,14.4 87.5,14.4 87.5,28 98.6,28 
				98.7,24.6 			"/>
			<polygon points="84.9,28 84.9,14.4 80.7,14.4 80.7,19.4 76.2,19.4 76.2,14.4 71.9,14.4 71.9,28 76.2,28 76.2,22.9 80.7,22.9 
				80.7,28 			"/>
			<path d="M69.9,14.7c-1-0.3-2.4-0.6-3.7-0.6c-5.2,0-7.6,2.7-7.6,7c0,4.7,2.5,7.1,7.2,7.1c1.4,0,2.9-0.3,4.1-0.8l-0.5-3.1
				c-0.9,0.3-1.9,0.6-3.1,0.6c-2.6,0-3.3-0.9-3.3-3.7c0-2.7,0.6-3.6,3.2-3.6c1.2,0,2.2,0.2,3.1,0.4L69.9,14.7z"/>
			<path d="M108.5,19c0,1.3-0.5,1.6-1.8,1.6h-1.8v-3.1h1.8C108,17.6,108.5,17.9,108.5,19L108.5,19z M112.9,18.9c0-3-2.1-4.5-6.1-4.5
				h-6.1V28h4.3v-4.5h1.8L109,28h5l-3.5-5.3C112,22.2,112.9,20.6,112.9,18.9L112.9,18.9z"/>
			<path d="M37.4,22.6h-3.1l1.1-3.6l0.4-1.4h0.1l0.4,1.4L37.4,22.6z M43.9,28l-5.5-13.6h-4.9L28,28h4.5l0.7-2.3h5.1l0.7,2.3H43.9z"
				/>
			<rect x="28.4" y="14.4" width="3.2" height="2.9"/>
			<rect x="40.3" y="14.4" width="3.2" height="2.9"/>
			<polygon points="22.9,14.4 19.6,19.5 18.3,19.5 18.3,14.4 14,14.4 14,28 18.3,28 18.3,22.7 19.6,22.7 22.9,28 28,28 23.3,20.8 
				27.8,14.4 			"/>
		</g>
	</g>
</g>
</svg>
