<?xml version="1.0" encoding="utf-8"?>
<!-- Generator: Adobe Illustrator 26.0.2, SVG Export Plug-In . SVG Version: 6.00 Build 0)  -->
<svg version="1.1" id="Ebene_1" xmlns="http://www.w3.org/2000/svg" xmlns:xlink="http://www.w3.org/1999/xlink" x="0px" y="0px"
	 viewBox="0 0 283.5 74.3" style="enable-background:new 0 0 283.5 74.3;" xml:space="preserve">
<style type="text/css">
	.st0{fill:none;}
	.st1{fill:#FFED00;}
	.st2{fill:#FFFFFF;}
</style>
<g id="Boundingbox">
	<rect x="-38.6" y="107.2" class="st0" width="360.7" height="151.5"/>
</g>
<g id="Logo">
	<rect y="51.4" class="st1" width="283.5" height="22.9"/>
	<g>
		<path class="st2" d="M110.7,14c0,3.7-1.4,4.6-5,4.6h-5V9.7h5.1C109.4,9.7,110.7,10.7,110.7,14L110.7,14z M123.3,13.5
			c0-8.6-6-12.8-17.4-12.8H88.6v38.6h12V26.6h5l6.5,12.7h14.2l-9.9-15C120.8,22.8,123.3,18.5,123.3,13.5L123.3,13.5z"/>
		<polygon class="st2" points="220.3,29.8 220.3,23.9 236,23.9 236,15.5 220.3,15.5 220.3,10.3 239.3,10.3 239.1,0.7 208.3,0.7 
			208.3,39.3 239.9,39.3 240.1,29.8 		"/>
		<polygon class="st2" points="201,39.3 201,0.7 189,0.7 189,15 176.2,15 176.2,0.7 164.2,0.7 164.2,39.3 176.2,39.3 176.2,24.8 
			189,24.8 189,39.3 		"/>
		<path class="st2" d="M158.6,1.6c-2.8-0.9-6.7-1.6-10.4-1.6c-14.8,0-21.4,7.7-21.4,19.9c0,13.2,7,20.2,20.4,20.2
			c4,0,8.3-0.9,11.5-2.4l-1.3-8.9c-2.5,1-5.5,1.6-8.7,1.6c-7.4,0-9.3-2.5-9.3-10.5c0-7.6,1.8-10.1,9.2-10.1c3.5,0,6.3,0.5,8.8,1.2
			L158.6,1.6z"/>
		<path class="st2" d="M267.8,14c0,3.7-1.4,4.6-5,4.6h-5V9.7h5.1C266.5,9.7,267.8,10.7,267.8,14L267.8,14z M280.4,13.5
			c0-8.6-6-12.8-17.4-12.8h-17.4v38.6h12V26.6h5l6.5,12.7h14.2l-9.9-15C277.9,22.8,280.4,18.5,280.4,13.5L280.4,13.5z"/>
		<path class="st2" d="M66.4,23.9h-8.9l3.2-10.1l1.2-4h0.2l1.1,4L66.4,23.9z M84.8,39.3L69.1,0.7h-14L39.8,39.3h12.8l2.1-6.5h14.5
			l2,6.5H84.8z"/>
		<rect x="40.9" y="0.7" class="st2" width="9" height="8.2"/>
		<rect x="74.5" y="0.7" class="st2" width="9" height="8.2"/>
		<polygon class="st2" points="25.2,0.7 15.9,15.2 12,15.2 12,0.7 0,0.7 0,39.3 12,39.3 12,24.3 15.8,24.3 25.1,39.3 39.8,39.3 
			26.5,19 39.1,0.7 		"/>
	</g>
</g>
</svg>
