<svg enable-background="new 0 0 92.24 45.59" viewBox="0 0 92.24 45.59" xmlns="http://www.w3.org/2000/svg"><path clip-rule="evenodd" d="m84.49 37.12c-.56 0-.79-.21-.79-.76 0-.48.24-.75.79-.75s.78.27.78.75-.23.76-.78.76zm-6.81-14.31c-1.84 0-3.02-.27-4.17-.8l.6-3.52c.99.41 1.96.64 3.15.64 2.14 0 2.95-1.05 3.2-3.32l-.05-.05c-.76.43-1.66.62-2.67.62-3.32 0-5.09-2.04-5.09-5.26 0-3.73 1.93-5.9 5.92-5.9 3.94 0 6.17 2.45 6.17 8.21.01 6.66-2.34 9.38-7.06 9.38zm.83-13.95c-1.06 0-1.61.53-1.61 2.06 0 1.44.44 2.08 1.73 2.08.85 0 1.5-.34 1.77-.94-.03-2.58-.72-3.2-1.89-3.2zm-4.26 22.86-1.2 5.3h-1.67l-.6-3.17-.12-.71h-.03l-.12.71-.62 3.17h-1.67l-1.28-5.3h1.37l.64 3.45.12.7h.03l.11-.7.69-3.45h1.43l.71 3.47.13.69h.03l.11-.7.6-3.46zm-10.17-8.91c-1.84 0-3.02-.27-4.17-.8l.6-3.52c.99.41 1.96.64 3.15.64 2.14 0 2.95-1.05 3.2-3.32l-.05-.05c-.76.43-1.66.62-2.67.62-3.32 0-5.09-2.04-5.09-5.26 0-3.73 1.93-5.9 5.92-5.9 3.94 0 6.17 2.45 6.17 8.21 0 6.66-2.34 9.38-7.06 9.38zm.82-13.95c-1.06 0-1.61.53-1.61 2.06 0 1.44.44 2.08 1.73 2.08.85 0 1.5-.34 1.77-.94-.02-2.58-.71-3.2-1.89-3.2zm-14.43 13.95c-1.84 0-3.02-.27-4.17-.8l.6-3.52c.99.41 1.96.64 3.15.64 2.14 0 2.95-1.05 3.2-3.32l-.05-.05c-.76.43-1.66.62-2.67.62-3.31 0-5.09-2.04-5.09-5.26 0-3.73 1.93-5.9 5.92-5.9 3.94 0 6.17 2.45 6.17 8.21.01 6.66-2.34 9.38-7.06 9.38zm.83-13.95c-1.06 0-1.61.53-1.61 2.06 0 1.44.44 2.08 1.73 2.08.85 0 1.5-.34 1.77-.94-.02-2.58-.71-3.2-1.89-3.2zm-9.57 14c-1.61 0-2.33-.62-2.33-2.17 0-1.4.71-2.2 2.33-2.2 1.61 0 2.3.8 2.3 2.2.01 1.3-.68 2.17-2.3 2.17zm-4.02-5.45c0 3.29-2.05 5.4-6.52 5.4-1.89 0-3.59-.5-4.79-1.19l.76-3.39c1.24.62 2.46.94 3.84.94 1.59 0 2.37-.66 2.37-1.88 0-1.12-.62-1.97-3.71-1.97v-3.09c2.97 0 3.59-.66 3.59-1.83 0-.89-.6-1.42-2.12-1.42-1.5 0-2.79.5-3.87 1.37l-.99-3.43c1.29-1.01 3.2-1.69 5.2-1.69 3.73 0 5.89 1.83 5.89 4.87 0 1.55-.71 2.79-2.07 3.54v.05c1.57.68 2.42 1.92 2.42 3.72zm-9.46 14.51-.11 1.11c-.44-.18-1.03-.27-1.43-.27-.45 0-.7.18-.7.45 0 .8 2.44.32 2.44 2.15 0 1.06-.59 1.77-2.03 1.77-.64 0-1.22-.12-1.67-.37l.14-1.12c.44.25 1.07.38 1.52.38.55 0 .78-.22.78-.53 0-.85-2.47-.36-2.47-2.21 0-.95.65-1.64 2.02-1.64.54-.01 1.06.1 1.51.28zm-5.12-.77c-.53 0-.78-.15-.78-.58 0-.38.26-.59.78-.59.54 0 .77.2.77.59s-.24.58-.77.58zm-4.99 3.58c.07.88.5 1.22 1.42 1.22.5 0 .97-.09 1.43-.26l.15 1.09c-.45.2-1.06.34-1.74.34-1.84 0-2.66-.96-2.66-2.82 0-1.69.75-2.68 2.35-2.68 1.36 0 2.2.79 2.2 2.47 0 .2-.01.45-.03.64zm.95-1.98c-.66 0-.91.31-.98 1.08h1.92c-.01-.78-.36-1.08-.94-1.08zm-2.17-21.58c-1.59 0-2.47.59-2.88 1.95h4.02l-.41 1.93h-3.86v.7h3.65l-.39 1.87h-3.05c.43 1.64 1.43 2.16 2.88 2.16.69 0 1.37-.19 2-.43l.26 2.75c-.84.43-1.9.66-3.25.66-3.25 0-5.21-1.66-5.8-5.14h-1.46l.02-1.87h1.25v-.7h-1.26l-.02-1.93h1.45c.63-3.21 2.74-5.2 5.98-5.2 1.29 0 2.27.19 3.1.51l-.69 3c-.45-.16-.96-.26-1.54-.26zm-4.37 21.54c0 1.38-.74 2.18-2.58 2.18h-.88v2.13h-1.48v-6.56h2.37c1.83 0 2.57.72 2.57 2.25zm-3.46 1h.88c.73 0 1.05-.18 1.05-1.01 0-.79-.28-1.01-1.05-1.01h-.88zm5.32-1.12h.03c.33-.64.85-.95 1.46-.95.24 0 .44.03.58.08l-.09 1.34c-.17-.05-.37-.09-.58-.09-.71 0-1.24.52-1.24 1.4v2.66h-1.37v-5.26l1.09-.05zm9.41 4.43h-1.4v-5.26l1.4-.06zm7.73-5.4c1.37 0 2.2.79 2.2 2.47 0 .2-.01.45-.03.64h-3.11c.07.88.5 1.22 1.42 1.22.5 0 .97-.09 1.43-.26l.15 1.09c-.45.2-1.07.34-1.74.34-1.84 0-2.66-.96-2.66-2.82-.01-1.69.74-2.68 2.34-2.68zm.95 2.21c-.02-.78-.37-1.08-.94-1.08-.66 0-.92.31-.98 1.08zm6.7-.96-.01-.02h-2.3l.04-1.13h3.84v.94l-1.95 2.66-.42.54.01.03h2.45l-.03 1.13h-4v-.95l1.95-2.65zm4.91 0-.01-.02h-2.3l.04-1.13h3.84v.94l-1.95 2.66-.42.54.01.03h2.45l-.03 1.13h-4v-.95l1.96-2.65zm2.57 2.56c0-.35.2-.7.64-.91-.35-.25-.58-.65-.58-1.25 0-.96.56-1.64 2.04-1.64.46 0 .95.07 1.33.29l.91-.29.28.65-.56.44c.05.16.08.35.08.56 0 1.02-.58 1.62-2.03 1.62-.23 0-.46-.02-.67-.05-.11.06-.19.16-.19.25 0 .13.12.23.35.24l1.27.07c1.25.07 1.73.53 1.73 1.35 0 1.06-.71 1.71-2.45 1.71-1.53 0-2.17-.59-2.17-1.4 0-.31.14-.62.41-.86-.21-.17-.39-.42-.39-.78zm2.09-1.48c.57 0 .74-.18.74-.66s-.2-.65-.7-.65c-.53 0-.71.19-.71.65-.01.53.26.66.67.66zm.04 3.49c1 0 1.25-.19 1.25-.49 0-.25-.14-.36-.74-.4l-1.27-.09c-.14.13-.22.29-.22.43 0 .37.28.55.98.55zm4.79-.42h-1.38v-6.81l1.38-.06zm1.8-1.41c.55 0 .78.27.78.75 0 .47-.23.76-.78.76-.56 0-.79-.21-.79-.76 0-.48.23-.75.79-.75zm7.14-1.32.25.66h.03l.25-.66 1.54-3.83h1.64v6.56h-1.36v-3.34l.02-.71-.03-.01-.25.67-1.36 3.39h-.99l-1.35-3.38-.25-.66-.02.01.01.71v3.33h-1.31v-6.56h1.64zm14.44 1.58c.72 0 1.04-.26 1.04-.72 0-1.03-3.04-.59-3.04-2.79 0-1.11.72-2.01 2.39-2.01.64 0 1.34.13 1.85.34l-.18 1.24c-.54-.17-1.09-.28-1.59-.28-.82 0-1.04.28-1.04.63 0 1.02 3.04.55 3.04 2.77 0 1.29-.91 2.09-2.45 2.09-.77 0-1.47-.18-2.04-.49l.19-1.27c.58.31 1.18.49 1.83.49zm3.63-5.35 1.07-.1v1.3h1.19v1.01h-1.19v2.71c0 .41.21.59.63.59.14 0 .32-.03.42-.06l.08.99c-.18.08-.54.15-.92.15-1.07 0-1.58-.61-1.58-1.62v-2.75h-.6v-1.01h.66z" fill="#ffed00" fill-rule="evenodd"/></svg>