<?xml version="1.0" encoding="utf-8"?>
<!-- Generator: Adobe Illustrator 23.1.1, SVG Export Plug-In . SVG Version: 6.00 Build 0)  -->
<!DOCTYPE svg PUBLIC "-//W3C//DTD SVG 1.1//EN" "http://www.w3.org/Graphics/SVG/1.1/DTD/svg11.dtd" [
	<!ENTITY ns_extend "http://ns.adobe.com/Extensibility/1.0/">
	<!ENTITY ns_ai "http://ns.adobe.com/AdobeIllustrator/10.0/">
	<!ENTITY ns_graphs "http://ns.adobe.com/Graphs/1.0/">
	<!ENTITY ns_vars "http://ns.adobe.com/Variables/1.0/">
	<!ENTITY ns_imrep "http://ns.adobe.com/ImageReplacement/1.0/">
	<!ENTITY ns_sfw "http://ns.adobe.com/SaveForWeb/1.0/">
	<!ENTITY ns_custom "http://ns.adobe.com/GenericCustomNamespace/1.0/">
	<!ENTITY ns_adobe_xpath "http://ns.adobe.com/XPath/1.0/">
]>
<svg version="1.1" id="Ebene_1" xmlns:x="&ns_extend;" xmlns:i="&ns_ai;" xmlns:graph="&ns_graphs;"
	 xmlns="http://www.w3.org/2000/svg" xmlns:xlink="http://www.w3.org/1999/xlink" x="0px" y="0px" viewBox="0 0 217.76 147.66"
	 style="enable-background:new 0 0 217.76 147.66;" xml:space="preserve">
<style type="text/css">
	.st0{fill-rule:evenodd;clip-rule:evenodd;}
</style>
<metadata>
	<sfw  xmlns="&ns_sfw;">
		<slices></slices>
		<sliceSourceBounds  bottomLeftOrigin="true" height="135.85" width="200.17" x="7.5" y="-140.74"></sliceSourceBounds>
	</sfw>
</metadata>
<path class="st0" d="M197.79,93.02v-4.6h9.88v4.6H197.79z M181.81,91.75l-1.49-2.44l-0.07,0.04l0.04,2.87V104h-6.09V77.44h5.81
	l8.54,13.78l0.07-0.04l-0.07-2.83l0.04-10.91h6.09V104h-4.92L181.81,91.75z M191.62,59.69c0,5.24-3.54,8.5-9.53,8.5
	c-2.8,0-5.56-0.64-7.72-1.84l0.89-5.88c2.16,1.1,4.36,1.77,6.66,1.77c2.2,0,3.05-0.74,3.05-2.16c0-3.4-10.56-2.34-10.56-11.02
	c0-4.64,2.83-8.32,9.39-8.32c2.44,0,5.07,0.46,6.98,1.28l-0.78,5.77c-2.02-0.6-4.04-0.96-5.74-0.96c-2.62,0-3.19,0.78-3.19,1.91
	C181.07,52.18,191.62,51.01,191.62,59.69z M172.49,61.74l-0.14,5.99h-17.11V41.16h16.65l0.14,6.09h-9.88v4.11h8.15v5.56h-8.15v4.82
	H172.49z M171.08,83.53h-9.88v4.11h8.15v5.56h-8.15v4.82h10.34l-0.14,5.99h-17.11V77.44h16.65L171.08,83.53z M147.09,67.73h-7.05
	V47.36h-6.02l0.14-6.2h18.81l0.14,6.2h-6.02V67.73z M125.41,67.73l-5-10.8h-1.7v10.8h-6.91V41.16h6.91v10.27h1.84l4.92-10.27h7.76
	l-6.38,12.72l6.7,13.85H125.41z M109.15,61.74L109,67.73H91.89V41.16h16.65l0.14,6.09H98.8v4.11h8.15v5.56H98.8v4.82H109.15z
	 M79.78,52.04h8.11l-0.04,5.88h-8.08v9.81h-6.94V41.16h16.61l0.11,6.2h-9.78V52.04z M63.09,67.73l-3.54-9.49h-2.34v9.49H50.3V41.16
	h9.17c6.73,0,10.06,2.55,10.06,8.54c0,3.54-1.27,6.16-3.61,7.16l5.17,10.87H63.09z M59.62,46.9h-2.41v6.13h2.37
	c2.02,0,2.73-0.5,2.73-3.08C62.31,47.54,61.64,46.9,59.62,46.9z M47.29,19.2l-1.49-2.44l-0.07,0.04l0.04,2.87v11.8h-6.09V4.89h5.81
	l8.54,13.78l0.07-0.04l-0.07-2.83l0.04-10.91h6.09v26.57h-4.92L47.29,19.2z M28.66,4.89h7.12v26.57h-7.12V4.89z M47.64,61.74
	l-0.14,5.99H30.39V41.16h16.65l0.14,6.09H37.3v4.11h8.15v5.56H37.3v4.82H47.64z M34.85,94.83c0,2.37,0.92,3.44,3.29,3.44
	c2.41,0,3.22-0.99,3.22-3.44V77.44h6.91v17.53c0,6.23-3.33,9.49-10.13,9.49s-10.24-3.26-10.24-9.49V77.44h6.94V94.83z M17.57,59.48
	h-2.2v8.25H8.46V41.16h9.1c7.37,0,10.31,2.87,10.31,9.35C27.87,56.25,25,59.48,17.57,59.48z M17.57,46.94h-2.2v7.05h2.2
	c2.27,0,3.12-0.53,3.12-3.51C20.68,47.61,20.01,46.94,17.57,46.94z M25.71,25.47l-0.14,5.99H8.46V4.89h16.65l0.14,6.09h-9.88v4.11
	h8.15v5.56h-8.15v4.82H25.71z M25.64,82.39l-8.18,13.04l-1.56,2.3l0.04,0.11h9.78L25.61,104H7.5v-4.5l8.47-13.46l1.56-2.34
	l-0.04-0.07H7.72l0.18-6.2h17.75V82.39z M15.23,134.78c2.2,0,3.05-0.74,3.05-2.16c0-3.4-10.56-2.34-10.56-11.02
	c0-4.64,2.83-8.32,9.39-8.32c2.44,0,5.07,0.46,6.98,1.28l-0.78,5.77c-2.02-0.6-4.04-0.96-5.74-0.96c-2.62,0-3.19,0.78-3.19,1.91
	c0,3.44,10.56,2.27,10.56,10.94c0,5.24-3.54,8.5-9.53,8.5c-2.8,0-5.56-0.64-7.72-1.84l0.89-5.88
	C10.73,134.11,12.92,134.78,15.23,134.78z M46.83,123.06c0,5.74-2.87,8.96-10.31,8.96h-2.2v8.25h-6.91v-26.57h9.1
	C43.89,113.71,46.83,116.58,46.83,123.06z M34.32,126.53h2.2c2.27,0,3.12-0.53,3.12-3.51c0-2.87-0.67-3.54-3.12-3.54h-2.2V126.53z
	 M56.75,140.28h-7.12v-26.57h7.12V140.28z M51.51,96.74c2.16,1.1,4.36,1.77,6.66,1.77c2.2,0,3.05-0.74,3.05-2.16
	c0-3.4-10.56-2.34-10.56-11.02c0-4.64,2.83-8.32,9.39-8.32c2.44,0,5.07,0.46,6.98,1.28l-0.78,5.77c-2.02-0.6-4.04-0.96-5.74-0.96
	c-2.62,0-3.19,0.78-3.19,1.91c0,3.44,10.56,2.27,10.56,10.94c0,5.24-3.54,8.5-9.53,8.5c-2.8,0-5.56-0.64-7.72-1.84L51.51,96.74z
	 M77.44,119.8h-9.88v4.11h8.15v5.56h-8.15v4.82H77.9l-0.14,5.99H60.65v-26.57H77.3L77.44,119.8z M83.39,99.36h-7.23L75.14,104H67.8
	l7.86-26.57h8.47L92.14,104h-7.72L83.39,99.36z M80.42,85.97l-0.53-2.83h-0.11l-0.6,2.83l-1.7,7.62h4.64L80.42,85.97z M87.54,134.11
	h9.03l-0.18,6.16H80.56v-26.57h6.98V134.11z M101.67,133.93c2.48,0,3.54,1.24,3.54,3.4c0,2.02-1.06,3.36-3.54,3.36
	c-2.48,0-3.58-0.96-3.58-3.36C98.09,135.17,99.19,133.93,101.67,133.93z M100.89,92.77l-0.89-2.76l-0.07,0.04l0.04,2.87V104h-6.06
	V77.44h7.62l4.68,13.42l0.89,2.73h0.11l0.89-2.69l4.75-13.46h7.65V104h-6.34V92.88l0.07-2.87l-0.11-0.04l-0.88,2.76L109.29,104h-4.5
	L100.89,92.77z M136.39,90.86l0.89,2.73h0.11l0.89-2.69l4.75-13.46h7.65V104h-6.34V92.88l0.07-2.87l-0.11-0.04l-0.89,2.76
	L139.47,104h-4.5l-3.9-11.23l-0.88-2.76l-0.07,0.04l0.04,2.87V104h-6.06V77.44h7.62L136.39,90.86z"/>
</svg>
