<?xml version="1.0" encoding="utf-8"?>
<!-- Generator: Adobe Illustrator 16.0.0, SVG Export Plug-In . SVG Version: 6.00 Build 0)  -->
<!DOCTYPE svg PUBLIC "-//W3C//DTD SVG 1.1//EN" "http://www.w3.org/Graphics/SVG/1.1/DTD/svg11.dtd">
<svg version="1.1" id="Ebene_1" xmlns="http://www.w3.org/2000/svg" xmlns:xlink="http://www.w3.org/1999/xlink" x="0px" y="0px"
	 width="58.428px" height="24.891px" viewBox="0 0 58.428 24.891" enable-background="new 0 0 58.428 24.891" xml:space="preserve">
<g id="Text">
	<g>
		<path fill="#1A1A18" d="M1.642,1.24v0.869h1.51L3.145,3.203H1.642v1.825H0.35V0.086h3.092l0.02,1.153H1.642z"/>
		<path fill="#1A1A18" d="M6.876,3.883L6.843,5.029H3.896V0.086h1.299v3.797H6.876z"/>
		<path fill="#1A1A18" d="M10.508,3.916L10.48,5.029H7.297V0.086h3.1l0.025,1.135h-1.84v0.764h1.518V3.02H8.582v0.896H10.508z"/>
		<path fill="#1A1A18" d="M13.75,2.439l1.213,2.59H13.52l-0.476-1.192l-0.185-0.5H12.84l-0.185,0.5l-0.468,1.192h-1.471l1.187-2.551
			L10.73,0.085h1.51l0.415,1.016l0.191,0.494h0.02l0.191-0.494l0.428-1.016h1.451L13.75,2.439z"/>
		<path fill="#1A1A18" d="M15.404,0.086h1.325v4.942h-1.325V0.086z"/>
		<path fill="#1A1A18" d="M19.379,5.029h-1.925V0.086h1.938c1.061,0,1.602,0.494,1.602,1.278c0,0.521-0.237,0.857-0.605,1.035v0.013
			c0.493,0.166,0.758,0.549,0.758,1.159C21.146,4.463,20.611,5.029,19.379,5.029z M19.34,1.168H18.7v0.869h0.652
			c0.297,0,0.401-0.111,0.401-0.447C19.755,1.266,19.643,1.168,19.34,1.168z M19.373,3H18.7v0.975h0.698
			c0.323,0,0.441-0.104,0.441-0.494C19.841,3.139,19.735,3,19.373,3z"/>
		<path fill="#1A1A18" d="M24.87,3.916l-0.025,1.112H21.66V0.086h3.098l0.026,1.135h-1.839v0.764h1.516V3.02h-1.516v0.896H24.87z"/>
		<path fill="#1A1A18" d="M28.344,3.883l-0.033,1.146h-2.946V0.086h1.298v3.797H28.344z"/>
		<path fill="#1A1A18" d="M33.155,3.006l0.962,2.022h-1.489l-0.658-1.766h-0.437v1.766h-1.285V0.086h1.707
			c1.253,0,1.873,0.475,1.873,1.588C33.828,2.334,33.59,2.822,33.155,3.006z M31.982,1.154h-0.449v1.142h0.442
			c0.376,0,0.507-0.094,0.507-0.574C32.482,1.273,32.357,1.154,31.982,1.154z"/>
		<path fill="#1A1A18" d="M37.65,3.916l-0.026,1.112H34.44V0.086h3.098l0.026,1.135h-1.839v0.764h1.517V3.02h-1.517v0.896H37.65z"/>
		<path fill="#1A1A18" d="M38.197,0.086h1.325v4.942h-1.325V0.086z"/>
		<path fill="#1A1A18" d="M43.141,5.029L41.664,2.75l-0.275-0.455l-0.014,0.006l0.006,0.533v2.194h-1.134V0.086h1.081l1.589,2.563
			l0.014-0.006l-0.014-0.526l0.007-2.031h1.135v4.942H43.141z"/>
		<path fill="#1A1A18" d="M44.782,0.086h1.325v4.942h-1.325V0.086z"/>
		<path fill="#1A1A18" d="M50.326,4.852c-0.343,0.166-0.903,0.271-1.411,0.271c-1.635,0-2.215-0.877-2.215-2.564
			C46.7,0.83,47.379,0,48.975,0c0.436,0,0.93,0.08,1.284,0.219l-0.117,1.1c-0.323-0.118-0.738-0.19-1.096-0.19
			c-0.811,0-0.994,0.305-0.994,1.418c0,1.174,0.19,1.43,0.83,1.43c0.1,0,0.204-0.006,0.297-0.024V2.334h1.146V4.852z"/>
		<path fill="#1A1A18" d="M54.123,3.916l-0.026,1.112h-3.185V0.086h3.1l0.025,1.135h-1.84v0.764h1.517V3.02h-1.517v0.896H54.123z"/>
		<path fill="#1A1A18" d="M57.51,5.029L56.033,2.75l-0.276-0.455l-0.013,0.006l0.006,0.533v2.194h-1.134V0.086h1.081l1.589,2.563
			l0.013-0.006l-0.013-0.526l0.007-2.031h1.135v4.942H57.51z"/>
		<path fill="#1A1A18" d="M1.768,6.678l0.869,2.498l0.165,0.508h0.021l0.164-0.5L3.87,6.678h1.424v4.943H4.113V9.553l0.014-0.535
			l-0.02-0.006L3.942,9.525l-0.731,2.097H2.373L1.648,9.531L1.483,9.018L1.471,9.025l0.006,0.533v2.062H0.35V6.678H1.768z"/>
		<path fill="#1A1A18" d="M6.019,6.678h1.325v4.943H6.019V6.678z"/>
		<path fill="#1A1A18" d="M10.224,7.832v3.789H8.912V7.832H7.791l0.026-1.154h3.501l0.024,1.154H10.224z"/>
		<path fill="#1A1A18" d="M15.773,10.758H14.43l-0.191,0.863h-1.365l1.464-4.943h1.575l1.49,4.943h-1.438L15.773,10.758z
			 M14.989,8.266l-0.316,1.418h0.864l-0.315-1.418l-0.101-0.527h-0.02L14.989,8.266z"/>
		<path fill="#1A1A18" d="M20.263,11.621l-0.931-2.011h-0.315v2.011h-1.285V6.678h1.285V8.59h0.343l0.916-1.912h1.443l-1.187,2.367
			l1.245,2.576H20.263z"/>
		<path fill="#1A1A18" d="M24.672,11.621l-0.93-2.011h-0.316v2.011h-1.284V6.678h1.284V8.59h0.345l0.916-1.912h1.442l-1.187,2.367
			l1.246,2.576H24.672z"/>
		<path fill="#1A1A18" d="M30.295,9.941c0,1.16-0.62,1.767-1.886,1.767s-1.905-0.605-1.905-1.767V6.678h1.293v3.236
			c0,0.44,0.171,0.641,0.612,0.641c0.448,0,0.601-0.186,0.601-0.641V6.678h1.285V9.941z"/>
		<path fill="#1A1A18" d="M31.448,9.131c-0.462,0-0.666-0.18-0.666-0.627c0-0.402,0.204-0.633,0.666-0.633
			c0.461,0,0.659,0.229,0.659,0.633C32.107,8.879,31.909,9.131,31.448,9.131z M31.448,11.701c-0.462,0-0.666-0.179-0.666-0.628
			c0-0.401,0.204-0.633,0.666-0.633c0.461,0,0.659,0.23,0.659,0.633C32.107,11.451,31.909,11.701,31.448,11.701z"/>
		<path fill="#1A1A18" d="M2.9,17.35H1.557l-0.191,0.863H0l1.464-4.943h1.575l1.49,4.943H3.092L2.9,17.35z M2.116,14.857L1.8,16.275
			h0.864l-0.315-1.418L2.248,14.33h-0.02L2.116,14.857z"/>
		<path fill="#1A1A18" d="M7.39,18.213L6.46,16.201H6.144v2.012H4.858V13.27h1.285v1.91h0.343l0.916-1.91h1.443L7.66,15.635
			l1.245,2.578H7.39z"/>
		<path fill="#1A1A18" d="M11.424,14.422v3.791h-1.312v-3.791h-1.12l0.026-1.152h3.5l0.025,1.152H11.424z"/>
		<path fill="#1A1A18" d="M12.992,13.27h1.324v4.943h-1.324V13.27z"/>
		<path fill="#1A1A18" d="M16.98,18.299c-1.424,0-2.07-0.752-2.07-2.56c0-1.812,0.62-2.551,2.07-2.551s2.068,0.738,2.068,2.551
			C19.05,17.6,18.431,18.299,16.98,18.299z M16.974,14.344c-0.54,0-0.712,0.223-0.712,1.396c0,1.181,0.178,1.419,0.725,1.419
			c0.548,0,0.713-0.244,0.713-1.419C17.699,14.561,17.534,14.344,16.974,14.344z"/>
		<path fill="#1A1A18" d="M22.484,18.213l-1.478-2.281l-0.276-0.455l-0.015,0.008l0.008,0.533v2.195H19.59V13.27h1.081l1.589,2.562
			l0.015-0.006l-0.015-0.527l0.008-2.029H23.4v4.943H22.484z"/>
		<path fill="#1A1A18" d="M25.364,18.299c-0.521,0-1.035-0.119-1.438-0.344l0.165-1.095c0.402,0.205,0.812,0.33,1.239,0.33
			c0.409,0,0.567-0.139,0.567-0.401c0-0.634-1.965-0.437-1.965-2.052c0-0.862,0.526-1.549,1.747-1.549
			c0.453,0,0.941,0.086,1.298,0.238l-0.146,1.074c-0.376-0.113-0.752-0.179-1.067-0.179c-0.487,0-0.594,0.146-0.594,0.355
			c0,0.639,1.964,0.422,1.964,2.037C27.137,17.691,26.479,18.299,25.364,18.299z"/>
		<path fill="#1A1A18" d="M31.092,18.035c-0.343,0.163-0.901,0.27-1.409,0.27c-1.636,0-2.216-0.877-2.216-2.563
			c0-1.728,0.68-2.558,2.273-2.558c0.436,0,0.93,0.078,1.286,0.217l-0.119,1.103c-0.323-0.119-0.738-0.191-1.094-0.191
			c-0.812,0-0.995,0.303-0.995,1.416c0,1.174,0.189,1.433,0.83,1.433c0.099,0,0.204-0.009,0.297-0.027v-1.615h1.146L31.092,18.035
			L31.092,18.035z"/>
		<path fill="#1A1A18" d="M34.889,17.098l-0.026,1.115h-3.184V13.27h3.098l0.026,1.133h-1.84v0.767h1.518v1.033h-1.518v0.896H34.889
			z"/>
		<path fill="#1A1A18" d="M38.29,16.189l0.962,2.023h-1.488l-0.659-1.769h-0.437v1.769h-1.285V13.27h1.707
			c1.253,0,1.873,0.476,1.873,1.588C38.963,15.516,38.725,16.004,38.29,16.189z M37.117,14.336h-0.449v1.141h0.442
			c0.376,0,0.507-0.092,0.507-0.572C37.617,14.455,37.492,14.336,37.117,14.336z"/>
		<path fill="#1A1A18" d="M42.126,17.35h-1.345l-0.191,0.863h-1.363l1.464-4.943h1.575l1.488,4.943h-1.437L42.126,17.35z
			 M40.841,13.031c-0.322,0-0.487-0.125-0.487-0.44c0-0.297,0.165-0.455,0.487-0.455c0.337,0,0.487,0.158,0.487,0.455
			C41.328,12.879,41.177,13.031,40.841,13.031z M41.342,14.857l-0.315,1.418h0.863l-0.316-1.418l-0.099-0.526h-0.021L41.342,14.857z
			 M42.1,13.031c-0.323,0-0.488-0.125-0.488-0.44c0-0.297,0.165-0.455,0.488-0.455c0.336,0,0.487,0.158,0.487,0.455
			C42.588,12.879,42.436,13.031,42.1,13.031z"/>
		<path fill="#1A1A18" d="M45.797,14.422v3.791h-1.312v-3.791h-1.12l0.026-1.152h3.5l0.025,1.152H45.797z"/>
		<path fill="#1A1A18" d="M50.523,17.098l-0.025,1.115h-3.185V13.27h3.099l0.026,1.133H48.6v0.767h1.516v1.033H48.6v0.896H50.523z"
			/>
		<path fill="#1A1A18" d="M1.642,24.891c-0.521,0-1.034-0.119-1.438-0.344l0.164-1.094c0.402,0.205,0.812,0.33,1.24,0.33
			c0.408,0,0.565-0.14,0.565-0.402c0-0.633-1.965-0.437-1.965-2.051c0-0.863,0.527-1.55,1.747-1.55c0.455,0,0.942,0.087,1.299,0.238
			L3.11,21.093c-0.375-0.113-0.751-0.178-1.067-0.178c-0.486,0-0.593,0.145-0.593,0.354c0,0.64,1.964,0.422,1.964,2.037
			C3.415,24.283,2.756,24.891,1.642,24.891z"/>
		<path fill="#1A1A18" d="M3.929,19.861h1.324v4.943H3.929V19.861z"/>
		<path fill="#1A1A18" d="M8.938,21.053c-0.218-0.078-0.516-0.131-0.824-0.131c-0.731,0-0.916,0.311-0.916,1.391
			c0,1.142,0.204,1.457,0.937,1.457c0.304,0,0.587-0.059,0.816-0.164l0.119,1.047c-0.297,0.146-0.745,0.238-1.127,0.238
			c-1.411,0-2.097-0.805-2.097-2.584c0-1.662,0.666-2.531,2.176-2.531c0.349,0,0.776,0.078,1.041,0.185L8.938,21.053z"/>
		<path fill="#1A1A18" d="M12.029,24.805v-1.938H10.83v1.938H9.545v-4.943h1.285v1.853h1.199v-1.853h1.293v4.943H12.029z"/>
		<path fill="#1A1A18" d="M17.197,23.689l-0.025,1.115h-3.185v-4.943h3.099l0.026,1.134h-1.839v0.766h1.516v1.033h-1.516v0.896
			H17.197z"/>
		<path fill="#1A1A18" d="M20.599,22.781l0.962,2.023h-1.489l-0.659-1.768h-0.436v1.768h-1.285v-4.943h1.707
			c1.253,0,1.873,0.476,1.873,1.588C21.271,22.107,21.033,22.596,20.599,22.781z M19.426,20.928h-0.448v1.141h0.441
			c0.376,0,0.507-0.092,0.507-0.571C19.926,21.047,19.801,20.928,19.426,20.928z"/>
		<path fill="#1A1A18" d="M24.777,24.805L23.3,22.524l-0.275-0.455l-0.013,0.009l0.006,0.532v2.195h-1.135v-4.943h1.081l1.59,2.562
			l0.013-0.006l-0.013-0.527l0.007-2.029h1.134v4.943H24.777z"/>
		<path fill="#1A1A18" d="M26.491,23.328l-0.185-3.468h1.299l-0.178,3.468H26.491z M26.979,24.883c-0.441,0-0.64-0.164-0.64-0.566
			c0-0.362,0.197-0.58,0.64-0.58c0.449,0,0.646,0.218,0.646,0.58C27.625,24.652,27.428,24.883,26.979,24.883z"/>
	</g>
</g>
<g id="Screens">
</g>
</svg>
