<svg enable-background="new 0 0 150.75 103.59" viewBox="0 0 150.75 103.59" xmlns="http://www.w3.org/2000/svg"><g clip-rule="evenodd" fill-rule="evenodd"><path d="m19.05 53.09 8 6 10-13-4-3-7 9-4-3z"/><path d="m122.94 63.73v-5.12c0-1.14-.61-1.62-1.75-1.62-.66 0-1.44.31-1.81.87v5.88h-1.24v-7.72l.88-.07.21.82h.04c.53-.58 1.38-.92 2.25-.92 1.64 0 2.64.92 2.64 2.77v5.12h-1.22zm-6.93-5.56c0 1.47-.71 2.29-2.73 2.29-.36 0-.73-.03-1.08-.12-.38.1-.58.31-.58.57s.21.48.68.52l1.89.16c1.87.16 2.48.78 2.48 1.87 0 1.42-.88 2.33-3.3 2.33-2.09 0-2.98-.83-2.98-2.04 0-.55.26-1.07.75-1.46-.36-.21-.65-.57-.65-1.08 0-.49.34-.95.98-1.21-.56-.34-.92-.91-.92-1.83 0-1.43.77-2.31 2.74-2.31.68 0 1.38.12 1.91.48l1.27-.51.27.62-.94.65c.13.3.21.64.21 1.07zm-4.56 5.42c0 .78.55 1.22 1.88 1.22 1.76 0 2.2-.48 2.2-1.18 0-.55-.29-.83-1.56-.95l-1.89-.17c-.42.3-.63.72-.63 1.08zm1.84-6.76c-1.13 0-1.53.44-1.53 1.36 0 1.09.64 1.35 1.51 1.35 1.2 0 1.56-.44 1.56-1.35 0-1.01-.46-1.36-1.54-1.36zm-1.17-10.97c0 1.46-.82 2.43-2.73 2.43-.92 0-1.78-.22-2.38-.65l.16-1.07c.58.44 1.47.68 2.21.68 1.13 0 1.6-.55 1.6-1.27 0-1.76-3.97-.94-3.97-3.55 0-1.31.92-2.17 2.7-2.17.75 0 1.47.16 2.09.44l-.1 1.04c-.65-.27-1.39-.42-2.01-.42-.92 0-1.51.4-1.51 1.04 0 1.65 3.94.8 3.94 3.5zm-4.53 7.5c.53 0 .79.23.79.66 0 .46-.26.66-.79.66s-.79-.17-.79-.66c-.01-.43.25-.66.79-.66zm-6.88-8.93c.06 2.04.82 2.74 2.48 2.74.78 0 1.44-.17 2.11-.49l.14 1.04c-.65.35-1.46.57-2.39.57-2.55 0-3.6-1.34-3.6-4.24 0-2.43 1.07-3.8 3.2-3.8 1.85 0 3.06 1.09 3.06 3.58 0 .19-.01.43-.03.6zm1.95-3.11c-1.31 0-1.9.73-1.98 2.26h3.89c-.03-1.63-.79-2.26-1.91-2.26zm-9.09 18.71c.07 2.04.82 2.74 2.48 2.74.78 0 1.44-.17 2.11-.49l.14 1.04c-.65.35-1.46.57-2.39.57-2.55 0-3.6-1.34-3.6-4.24 0-2.43 1.07-3.8 3.2-3.8 1.85 0 3.06 1.09 3.06 3.58 0 .19-.01.43-.03.6zm1.95-3.11c-1.31 0-1.9.73-1.98 2.26h3.89c-.02-1.63-.79-2.26-1.91-2.26zm1.07-10.81c0 .81.43 1.13 1.13 1.13.22 0 .49-.04.65-.1l.08.94c-.23.12-.66.19-1.08.19-1.33 0-2.01-.74-2.01-2.12v-4.8h-1.08v-.96h1.12l.23-1.92.96-.1v2.03h1.91v.96h-1.91zm-4.45 2.02-2.38-3.65h-1.2v3.65h-1.22v-10.25l1.22-.08v5.64h1.18l2.29-3.06h1.44l-2.65 3.54 2.76 4.21zm-2.81 8.58.03-.01-.03-1.04v-2.18l1.24-.08v10.34h-.95l-.16-.81-.04-.01c-.48.64-1.25.97-2.29.97-2.09 0-2.98-1.27-2.98-4.04 0-2.63.92-4 2.99-4 .87-.01 1.65.29 2.19.86zm-3.9 3.19c0 2.17.49 2.96 2.04 2.96 1.08 0 1.64-.53 1.86-.95v-4.04c-.33-.53-1.01-.88-1.85-.88-1.5 0-2.05.8-2.05 2.91zm-1.26-12.71-.04-.01c-.45.66-1.3 1.08-2.3 1.08-1.42 0-2.38-.74-2.38-2.48 0-1.46.94-2.35 2.78-2.35.66 0 1.3.13 1.78.3v-.77c0-1.22-.55-1.65-1.81-1.65-.82 0-1.48.14-2.17.47l-.12-1.03c.74-.34 1.57-.51 2.5-.51 2.04 0 2.81.86 2.81 2.9v5h-.94zm-.17-2.59c-.19-.12-.77-.29-1.55-.29-1.29 0-1.85.52-1.85 1.44 0 1.1.66 1.48 1.56 1.48.96 0 1.83-.65 1.83-1.3v-1.33zm-1.1 14.83c0 .19-.01.43-.03.6h-4.97c.07 2.04.82 2.74 2.48 2.74.78 0 1.44-.17 2.11-.49l.14 1.04c-.65.35-1.46.57-2.39.57-2.55 0-3.6-1.34-3.6-4.24 0-2.43 1.07-3.8 3.2-3.8 1.85.01 3.06 1.1 3.06 3.58zm-5.02-.25h3.89c-.03-1.64-.79-2.26-1.91-2.26-1.32 0-1.9.73-1.98 2.26zm-2.81-10.9c-.82 0-1.57-.21-2.11-.85l-.03.01.01 1.05v1.56h-1.26v-9.63l.88-.06.26.81c.56-.57 1.36-.91 2.3-.91 1.9 0 2.96.99 2.96 3.99.02 2.86-1.15 4.03-3.01 4.03zm-.23-6.89c-.83 0-1.48.33-1.89.91v3.98c.3.51.91.95 1.82.95 1.21 0 2.05-.58 2.05-2.98.01-2.25-.68-2.86-1.98-2.86zm-2.02 12.67.96-.1v2.03h1.91v.96h-1.91v4.76c0 .81.43 1.13 1.13 1.13.22 0 .49-.04.65-.1l.08.94c-.23.12-.66.19-1.08.19-1.33 0-2.01-.74-2.01-2.12v-4.8h-1.08v-.96h1.12zm-3.79 8.73-.04-.01c-.46.66-1.3 1.08-2.3 1.08-1.42 0-2.38-.74-2.38-2.48 0-1.46.94-2.35 2.78-2.35.66 0 1.3.13 1.78.3v-.77c0-1.22-.55-1.65-1.81-1.65-.82 0-1.48.14-2.17.47l-.12-1.03c.74-.34 1.57-.51 2.5-.51 2.04 0 2.81.86 2.81 2.9v5.01h-.94zm-.17-2.59c-.19-.12-.77-.29-1.55-.29-1.29 0-1.85.52-1.85 1.44 0 1.1.66 1.48 1.56 1.48.96 0 1.83-.65 1.83-1.3v-1.33zm.12-6.2c0 .42-.18.61-.58.61s-.61-.17-.61-.61c0-.4.21-.64.61-.64s.58.22.58.64zm-2.1 0c0 .42-.18.61-.6.61-.39 0-.58-.17-.58-.61 0-.4.19-.64.58-.64.42 0 .6.22.6.64zm1.55-11.01c0-1.09-.61-1.59-1.61-1.59-.83 0-1.53.48-1.53 1.46v5.28h-1.22v-5.28c0-1.05-.66-1.47-1.52-1.47-.65 0-1.31.35-1.62.87v5.88h-1.24v-7.72l.88-.06.22.83h.04c.47-.57 1.22-.91 2-.91 1.04 0 1.73.39 2.09 1.18h.03c.44-.81 1.24-1.2 2.18-1.2 1.5 0 2.52.88 2.52 2.72v5.16h-1.22zm-8.22 14.65h.03c.48-1.12 1.33-1.77 2.38-1.77.29 0 .56.04.77.1l-.08 1.25c-.23-.08-.49-.1-.77-.1-1.21 0-2.18 1.03-2.18 2.69v3.93h-1.24v-7.7l.99-.06zm-5.59-9.34c-2.34 0-3.38-1.14-3.38-4.02 0-2.87 1.05-4.03 3.38-4.03 2.34 0 3.33 1.16 3.33 4.03 0 2.88-1 4.02-3.33 4.02zm0-6.99c-1.52 0-2.11.75-2.11 2.98s.58 2.98 2.11 2.98c1.5 0 2.07-.77 2.07-2.98 0-2.23-.57-2.98-2.07-2.98zm-.26 14.55c1.85 0 3.06 1.09 3.06 3.58 0 .19-.01.43-.03.6h-4.97c.06 2.04.82 2.74 2.48 2.74.78 0 1.44-.17 2.11-.49l.14 1.04c-.65.35-1.46.57-2.39.57-2.55 0-3.6-1.34-3.6-4.24.01-2.44 1.07-3.8 3.2-3.8zm1.93 3.32c-.03-1.64-.79-2.26-1.91-2.26-1.31 0-1.9.73-1.98 2.26zm-7.45-11.05-3.13-4.5h-1.42v4.5h-1.33v-9.75h1.33v4.12h1.44l2.99-4.12h1.59l-3.37 4.62 3.56 5.13zm-1.92 5.69c.91 0 1.9.19 2.59.48l-.16 1.2c-.68-.29-1.48-.46-2.37-.46-2.17 0-3.09.88-3.09 3.84 0 2.86.82 3.8 2.95 3.8.66 0 1.21-.09 1.69-.27v-3.82h1.18v4.78c-.7.34-1.77.56-2.83.56-3.08 0-4.39-1.55-4.39-5.03-.01-3.55 1.36-5.08 4.43-5.08zm52.96 4.21c0-1.31.92-2.17 2.7-2.17.75 0 1.47.16 2.09.44l-.1 1.04c-.65-.27-1.39-.42-2.01-.42-.92 0-1.51.4-1.51 1.04 0 1.65 3.94.79 3.94 3.5 0 1.46-.82 2.43-2.73 2.43-.92 0-1.78-.22-2.38-.65l.16-1.07c.58.44 1.47.68 2.21.68 1.13 0 1.6-.55 1.6-1.27-.01-1.76-3.97-.94-3.97-3.55zm8.32 5.7h-1.24v-7.71l1.24-.07z"/></g></svg>