<svg enable-background="new 0 0 150.75 103.59" viewBox="0 0 150.75 103.59" xmlns="http://www.w3.org/2000/svg"><g clip-rule="evenodd" fill-rule="evenodd"><path d="m114.57 56.73v4.76c0 .81.43 1.13 1.13 1.13.22 0 .49-.04.65-.1l.08.94c-.23.12-.66.19-1.08.19-1.33 0-2.01-.74-2.01-2.12v-4.8h-1.08v-.96h1.12l.23-1.92.96-.1v2.03h1.91v.96h-1.91zm-4.76 5.83-.04-.01c-.46.66-1.3 1.08-2.3 1.08-1.42 0-2.38-.74-2.38-2.48 0-1.46.94-2.35 2.78-2.35.66 0 1.3.13 1.78.3v-.77c0-1.22-.55-1.65-1.81-1.65-.82 0-1.48.14-2.17.47l-.12-1.03c.74-.34 1.57-.51 2.5-.51 2.04 0 2.81.86 2.81 2.9v5.01h-.94zm-.17-2.58c-.19-.12-.77-.29-1.55-.29-1.29 0-1.85.52-1.85 1.44 0 1.1.66 1.48 1.56 1.48.96 0 1.83-.65 1.83-1.3v-1.33zm-.47-5.59c-.4 0-.61-.17-.61-.61 0-.4.21-.64.61-.64s.58.22.58.64c.01.41-.17.61-.58.61zm-2.1 0c-.39 0-.58-.17-.58-.61 0-.4.19-.64.58-.64.42 0 .6.22.6.64-.01.41-.19.61-.6.61zm-4.97 7.1c0 .81.43 1.13 1.13 1.13.22 0 .49-.04.65-.1l.08.94c-.23.12-.66.19-1.08.19-1.33 0-2.01-.74-2.01-2.12v-4.8h-1.08v-.96h1.12l.23-1.92.96-.1v2.03h1.91v.96h-1.91zm-4.77-7.02c-.53 0-.79-.17-.79-.66 0-.43.26-.66.79-.66s.79.23.79.66c0 .45-.26.66-.79.66zm-4.59-1.21 1.23-.08v10.33h-1.23zm-3.34 9.3-.04-.01c-.46.66-1.3 1.08-2.3 1.08-1.42 0-2.38-.74-2.38-2.48 0-1.46.94-2.35 2.78-2.35.66 0 1.3.13 1.78.3v-.77c0-1.22-.55-1.65-1.81-1.65-.82 0-1.48.14-2.17.47l-.12-1.03c.74-.34 1.57-.51 2.5-.51 2.04 0 2.81.86 2.81 2.9v5.01h-.94zm-.17-2.58c-.19-.12-.77-.29-1.55-.29-1.29 0-1.85.52-1.85 1.44 0 1.1.66 1.48 1.56 1.48.96 0 1.83-.65 1.83-1.3v-1.33zm-9.24 3.68c-2.03 0-3-.99-3-2.69v-5.2h1.22v5.17c0 1.04.6 1.59 1.79 1.59 1.17 0 1.78-.53 1.78-1.59v-5.17h1.22v5.2c0 1.71-.97 2.69-3.01 2.69zm-8.17-19.45c.07 2.04.82 2.74 2.48 2.74.78 0 1.44-.17 2.11-.49l.14 1.04c-.65.35-1.46.57-2.39.57-2.55 0-3.6-1.34-3.6-4.24 0-2.43 1.07-3.8 3.2-3.8 1.85 0 3.06 1.09 3.06 3.58 0 .19-.01.43-.03.6zm1.95-3.11c-1.31 0-1.9.73-1.98 2.26h3.89c-.02-1.63-.79-2.26-1.91-2.26zm.15 15.52h.04l.17-.86h.79v9.67l-1.24.01v-1.54l.03-1.05-.03-.01c-.51.51-1.24.79-2.11.79-1.85 0-3.04-1.11-3.04-3.98 0-2.78 1.05-4.02 3.08-4.02.98.01 1.8.34 2.31.99zm-4.11 3.03c0 2.17.65 2.9 2.04 2.9 1.09 0 1.76-.56 1.83-1.03v-3.82c-.25-.51-.97-.92-1.83-.92-1.46 0-2.04.68-2.04 2.87zm-2.11-13.76c0 .81.43 1.13 1.13 1.13.22 0 .49-.04.65-.1l.08.94c-.23.12-.66.19-1.08.19-1.33 0-2.01-.74-2.01-2.12v-4.8h-1.08v-.96h1.12l.23-1.92.96-.1v2.03h1.91v.96h-1.91zm-2.03 9.88h1.91v.96h-1.91v4.76c0 .81.43 1.13 1.13 1.13.22 0 .49-.04.65-.1l.08.94c-.23.12-.66.19-1.08.19-1.33 0-2.01-.74-2.01-2.12v-4.8h-1.08v-.96h1.12l.23-1.92.96-.1zm-1.11-10.13c0 1.46-.82 2.43-2.73 2.43-.92 0-1.78-.22-2.38-.65l.16-1.07c.58.44 1.47.68 2.21.68 1.13 0 1.6-.55 1.6-1.27 0-1.76-3.97-.94-3.97-3.55 0-1.31.92-2.17 2.7-2.17.75 0 1.47.16 2.09.44l-.1 1.04c-.65-.27-1.39-.42-2.01-.42-.92 0-1.51.4-1.51 1.04 0 1.65 3.94.79 3.94 3.5zm-2.81 7.53c.4 0 .86.06 1.14.16l-.08.85c-.25-.07-.55-.1-.84-.1-1.08 0-1.52.51-1.52 1.36v.34h1.99v.95h-1.99v6.8h-1.24v-6.8h-1.14v-.95h1.14v-.35c0-1.32.76-2.26 2.54-2.26zm-8.61-8.96c.06 2.04.82 2.74 2.48 2.74.78 0 1.44-.17 2.11-.49l.14 1.04c-.65.35-1.46.57-2.39.57-2.55 0-3.6-1.34-3.6-4.24 0-2.43 1.07-3.8 3.2-3.8 1.85 0 3.05 1.09 3.05 3.58 0 .19-.01.43-.03.6zm1.95-3.11c-1.31 0-1.9.73-1.98 2.26h3.89c-.02-1.63-.79-2.26-1.91-2.26zm-3.21 19.84c0 1.04.6 1.59 1.79 1.59 1.17 0 1.78-.53 1.78-1.59v-5.17h1.22v5.2c0 1.72-.97 2.69-3.02 2.69-2.03 0-3-.99-3-2.69v-5.2h1.22v5.17zm-1.43-15.8c0 1.73-.88 2.77-3.13 2.77h-3.73v-9.75h3.58c1.92 0 2.9.83 2.9 2.43 0 1.21-.58 1.89-1.39 2.16v.03c1.11.26 1.77 1 1.77 2.36zm-1.66-4.31c0-1.08-.52-1.49-1.66-1.49h-2.25v3.02h2.34c1.06-.01 1.57-.5 1.57-1.53zm-1.51 2.56h-2.41v3.38h2.46c1.14 0 1.79-.44 1.79-1.73.01-1.13-.58-1.65-1.84-1.65zm-2.35 18.88h4.54l-.04 1.25h-5.84v-9.75h1.34zm53.01 1.24h-1.24v-7.71l1.24-.07z"/><path d="m19.05 53.09 8 6 10-13-4-3-7 9-4-3z"/></g></svg>