<svg enable-background="new 0 0 150.75 103.59" viewBox="0 0 150.75 103.59" xmlns="http://www.w3.org/2000/svg"><path clip-rule="evenodd" d="m108.05 33.72-2.91-4.5-.55-.9-.03.01.01 1.05v4.33h-2.24v-9.75h2.13l3.13 5.06.03-.01-.03-1.04.01-4.01h2.24v9.75h-1.79zm-7-2.19-.05 2.2h-6.28v-9.75h6.11l.05 2.24h-3.63v1.51h2.99v2.04h-2.99v1.77h3.8zm-10.31-1.89.03-1.05-.04-.01-.33 1.01-1.44 4.13h-1.66l-1.43-4.12-.32-1.01-.03.01.01 1.05v4.07h-2.22v-9.75h2.8l1.72 4.93.32 1h.04l.33-.99 1.74-4.94h2.81v9.75h-2.33zm-10.74 4.08h-2.59v-7.48h-2.21l.05-2.27h6.9l.05 2.27h-2.2zm-7.19 0-.38-1.7h-2.65l-.38 1.7h-2.69l2.89-9.75h3.11l2.94 9.75zm-1.47-6.61-.19-1.04h-.04l-.22 1.04-.62 2.8h1.7zm-8.12 2.79h-2.37v3.82h-2.53v-9.75h2.53v3.65h2.37v-3.65h2.55v9.75h-2.55zm-8.01 1.78c.6 0 1.16-.12 1.61-.33l.23 2.07c-.58.29-1.47.47-2.22.47-2.78 0-4.13-1.59-4.13-5.1 0-3.28 1.31-4.99 4.29-4.99.69 0 1.53.16 2.05.36l-.25 2.16c-.43-.16-1.01-.26-1.62-.26-1.44 0-1.81.61-1.81 2.74 0 2.26.4 2.88 1.85 2.88zm-7.96 2.04-1.3-3.48h-.86v3.48h-2.53v-9.75h3.37c2.47 0 3.69.94 3.69 3.13 0 1.3-.47 2.26-1.33 2.63l1.9 3.99zm-1.27-7.64h-.88v2.25h.87c.74 0 1-.18 1-1.13 0-.89-.25-1.12-.99-1.12zm-8.7 7.81c-2.5 0-3.76-1.2-3.76-3.48v-6.44h2.55v6.38c0 .87.34 1.26 1.21 1.26.88 0 1.18-.36 1.18-1.26v-6.38h2.54v6.44c0 2.29-1.22 3.48-3.72 3.48zm-9.18-.17h-3.52v-9.75h3.47c2.96 0 4.17 1.38 4.17 4.82 0 3.58-1.37 4.93-4.12 4.93zm-.04-7.5h-.95v5.28h.95c1.12 0 1.49-.34 1.49-2.73.01-2.16-.34-2.55-1.49-2.55z" fill="#fefefe" fill-rule="evenodd"/></svg>