<svg enable-background="new 0 0 150.75 103.59" viewBox="0 0 150.75 103.59" xmlns="http://www.w3.org/2000/svg"><path clip-rule="evenodd" d="m129.98 53.47 3.94 8.29h-6.1l-2.7-7.23h-1.78v7.23h-5.26v-20.25h6.99c5.13 0 7.67 1.94 7.67 6.51-.01 2.69-.98 4.69-2.76 5.45zm-4.81-7.59h-1.84v4.67h1.81c1.54 0 2.08-.38 2.08-2.35 0-1.83-.51-2.32-2.05-2.32zm-9.12 11.31-.11 4.56h-13.04v-20.24h12.69l.11 4.64h-7.53v3.13h6.21v4.24h-6.21v3.67zm-20.39 31.83c-5.02 0-7.04-3.05-7.04-10.28 0-7.72 2.05-10.45 7.1-10.45 4.94 0 7.1 2.73 7.1 10.45 0 7.23-2.24 10.28-7.16 10.28zm.06-16.22c-1.43 0-2.08.73-2.08 5.89 0 5.42.65 5.99 2.08 5.99 1.4 0 2.02-.7 2.02-5.99 0-5.27-.62-5.89-2.02-5.89zm-10.07-21.17c0-7.07 2.78-10.47 9.31-10.47 1.78 0 3.81.32 5.26.89l-.49 4.51c-1.32-.49-3.02-.78-4.48-.78-3.32 0-4.08 1.24-4.08 5.8 0 4.8.78 5.86 3.4 5.86.4 0 .84-.03 1.21-.11v-6.61h4.7v10.31c-1.4.67-3.7 1.11-5.78 1.11-6.68-.01-9.05-3.6-9.05-10.51zm-8.7-28.75h7.53v3.51h-7.53zm-3.21 11.87h-5.37v-15.52h-4.59l.11-4.72h14.33l.11 4.72h-4.59zm-3.54 17.23-.05-2.16.03-8.31h4.64v20.24h-3.75l-6.05-9.34-1.13-1.86-.05.03.03 2.19v8.99h-4.64v-20.25h4.43l6.51 10.5zm-15.01-29.18h6.18l-.03 4.48h-6.15v7.48h-5.29v-20.25h12.66l.08 4.72h-7.45zm-13.17 54h6.18l-.03 4.48h-6.15v7.48h-5.29v-20.25h12.66l.08 4.72h-7.45zm6.55-19.61-.11 4.56h-13.03v-20.24h12.69l.11 4.64h-7.53v3.13h6.21v4.24h-6.21v3.67zm-8.96-22.08c-5.18 0-7.8-2.48-7.8-7.23v-13.37h5.29v13.25c0 1.81.7 2.62 2.51 2.62 1.83 0 2.46-.76 2.46-2.62v-13.25h5.26v13.36c0 4.75-2.54 7.24-7.72 7.24zm-9.45 18.36 3.94 8.29h-6.1l-2.7-7.23h-1.78v7.23h-5.26v-20.25h6.99c5.13 0 7.67 1.94 7.67 6.51-.01 2.69-.98 4.69-2.76 5.45zm-4.8-7.59h-1.84v4.67h1.81c1.54 0 2.08-.38 2.08-2.35 0-1.83-.52-2.32-2.05-2.32zm-7.1-11.13v-20.24h5.32v15.55h6.88l-.14 4.7h-12.06zm11.01 33.76 6.1 20.24h-5.88l-.78-3.54h-5.51l-.78 3.54h-5.59l5.99-20.24zm-1.54 12.31-1.3-5.8-.4-2.16h-.08l-.46 2.16-1.3 5.8zm28.51-19.07h-5.43v-20.24h5.43zm11.18 6.79v16.6h2.4v3.62h-10.1v-3.62h2.4v-10.5l-3.08 1.7-.54-4.1 5.86-3.7zm10.37-27.03h5.43v20.24h-5.43zm2.02 26.78c4.94 0 7.1 2.73 7.1 10.45 0 7.23-2.24 10.28-7.15 10.28-5.02 0-7.04-3.05-7.04-10.28 0-7.72 2.05-10.45 7.09-10.45zm0 16.39c1.4 0 2.02-.7 2.02-5.99 0-5.26-.62-5.89-2.02-5.89-1.43 0-2.08.73-2.08 5.89.01 5.42.65 5.99 2.08 5.99zm27.38-.76c1.89 0 2.7.94 2.7 2.59 0 1.54-.81 2.56-2.7 2.56s-2.73-.73-2.73-2.56c.01-1.64.84-2.59 2.73-2.59z" fill-rule="evenodd"/></svg>