<svg enable-background="new 0 0 150.75 103.59" viewBox="0 0 150.75 103.59" xmlns="http://www.w3.org/2000/svg"><path clip-rule="evenodd" d="m131.04 87.63c-1.89 0-2.73-.73-2.73-2.56 0-1.65.84-2.59 2.73-2.59s2.7.94 2.7 2.59c0 1.53-.81 2.56-2.7 2.56zm-4.19-4.89-.11 4.56h-13.04v-20.24h12.69l.11 4.64h-7.53v3.13h6.21v4.24h-6.21v3.67zm-14.74-34.31h7.53v3.51h-7.53zm-4.18 34.64c1.24 0 2.4-.24 3.35-.67l.49 4.29c-1.21.59-3.05.97-4.62.97-5.78 0-8.58-3.29-8.58-10.58 0-6.8 2.73-10.37 8.91-10.37 1.43 0 3.18.32 4.26.76l-.51 4.48c-.89-.32-2.1-.54-3.37-.54-3 0-3.75 1.27-3.75 5.7-.02 4.66.82 5.96 3.82 5.96zm-3.46-30.7h-4.91v7.94h-5.26v-20.25h5.26v7.59h4.91v-7.59h5.29v20.24h-5.29zm-13.82-30.94h7.53v3.51h-7.53zm.24 11.87h-6.21l-3.81-8.23h-1.29v8.23h-5.26v-20.24h5.26v7.83h1.4l3.75-7.83h5.91l-4.86 9.69zm-17.06 27-.78-3.54h-5.51l-.78 3.54h-5.59l5.99-20.25h6.45l6.1 20.25zm-3.05-13.73-.4-2.16h-.08l-.46 2.16-1.3 5.8h3.54zm-3.89-13.27-2.7-7.23h-1.78v7.23h-5.26v-20.24h6.99c5.13 0 7.67 1.94 7.67 6.51 0 2.7-.97 4.7-2.75 5.45l3.94 8.29h-6.11zm-2.65-15.87h-1.84v4.67h1.81c1.54 0 2.08-.38 2.08-2.35 0-1.83-.51-2.32-2.05-2.32zm-17.79 16.23c-5.83 0-8.48-3.08-8.48-10.47 0-7.42 2.54-10.45 8.48-10.45s8.48 3.02 8.48 10.45c-.01 7.6-2.54 10.47-8.48 10.47zm-.03-16.2c-2.21 0-2.92.92-2.92 5.72 0 4.83.73 5.8 2.97 5.8s2.92-1 2.92-5.8c0-4.83-.67-5.72-2.97-5.72zm-19.55 15.84-1.89-12.28-.27-2.19h-.08l-.3 2.19-1.86 12.28h-6.32l-4.24-20.25h5.51l1.78 12.77.27 2.16h.08l.3-2.16 2.1-12.77h5.61l2.13 12.66.32 2.16h.08l.24-2.16 1.81-12.66h5.26l-4.21 20.25zm.65 12c0 2.13-.97 3.51-2.48 4.24v.05c2.03.67 3.11 2.24 3.11 4.75 0 3.64-2.19 5.97-7.23 5.97h-7.88v-20.25h7.94c4.33 0 6.54 2.02 6.54 5.24zm-9.39 10.69h2.86c1.32 0 1.81-.43 1.81-2.02 0-1.4-.43-1.97-1.92-1.97h-2.75zm0-11.5v3.56h2.67c1.21 0 1.65-.46 1.65-1.83 0-1.32-.46-1.73-1.7-1.73zm9.39 27.81c0 2.13-.97 3.51-2.48 4.24v.05c2.03.67 3.11 2.24 3.11 4.75 0 3.64-2.19 5.96-7.23 5.96h-7.88v-20.24h7.94c4.33 0 6.54 2.02 6.54 5.24zm-9.39 10.69h2.86c1.32 0 1.81-.43 1.81-2.02 0-1.4-.43-1.97-1.92-1.97h-2.75zm0-11.5v3.56h2.67c1.21 0 1.65-.46 1.65-1.83 0-1.32-.46-1.73-1.7-1.73zm21.87-11.19-2.7-7.23h-1.78v7.23h-5.26v-20.24h6.99c5.13 0 7.67 1.94 7.67 6.51 0 2.7-.97 4.7-2.75 5.45l3.94 8.29h-6.11zm-2.65-15.87h-1.83v4.67h1.81c1.54 0 2.08-.38 2.08-2.35-.01-1.83-.52-2.32-2.06-2.32zm3.54 22.63 6.1 20.24h-5.89l-.78-3.54h-5.51l-.78 3.54h-5.59l5.99-20.24zm-1.54 12.31-1.3-5.8-.4-2.16h-.08l-.46 2.16-1.3 5.8zm20.87-34.67h-7.53v3.13h6.21v4.24h-6.21v3.67h7.88l-.11 4.56h-13.04v-20.24h12.69zm-6.56 37.91h6.88l-.14 4.7h-12.06v-20.25h5.32zm19.63-15.55 6.1 20.24h-5.89l-.78-3.54h-5.51l-.78 3.54h-5.59l5.99-20.24zm-1.54 12.31-1.29-5.8-.4-2.16h-.08l-.46 2.16-1.3 5.8zm10.96-19.07v-15.52h-4.59l.11-4.72h14.33l.11 4.72h-4.59v15.52zm8.96 17.26.05-.03-.05-2.16.03-8.31h4.64v20.24h-3.75l-6.05-9.34-1.13-1.86-.05.03.03 2.19v8.99h-4.64v-20.25h4.43z" fill-rule="evenodd"/></svg>