<svg enable-background="new 0 0 25.44 34.5" viewBox="0 0 25.44 34.5" xmlns="http://www.w3.org/2000/svg" xmlns:xlink="http://www.w3.org/1999/xlink"><clipPath id="a"><path d="m0 0h25.44v34.5h-25.44z"/></clipPath><path clip-path="url(#a)" d="m9.7 12.13c.68 2.54-.9 5.17-3.54 5.87s-5.32-.78-6-3.32.9-5.17 3.54-5.87c2.63-.7 5.32.78 6 3.32"/><path clip-path="url(#a)" d="m25.3 3.02c.59 2.2-.78 4.48-3.07 5.09-2.28.61-4.61-.67-5.2-2.87s.78-4.47 3.07-5.09c2.28-.61 4.61.68 5.2 2.87"/><path clip-path="url(#a)" d="m24.48 16.49c.7 2.6-.93 5.3-3.63 6.02s-5.46-.8-6.15-3.4c-.7-2.6.93-5.3 3.63-6.02s5.45.8 6.15 3.4"/><path clip-path="url(#a)" d="m23.75 30.32c.47 1.75-.63 3.57-2.45 4.06s-3.68-.54-4.15-2.29.62-3.57 2.45-4.06c1.82-.49 3.68.54 4.15 2.29"/></svg>