<?xml version="1.0" encoding="utf-8"?>
<!-- Generator: Adobe Illustrator 16.0.0, SVG Export Plug-In . SVG Version: 6.00 Build 0)  -->
<!DOCTYPE svg PUBLIC "-//W3C//DTD SVG 1.1//EN" "http://www.w3.org/Graphics/SVG/1.1/DTD/svg11.dtd">
<svg version="1.1" id="Ebene_1" xmlns="http://www.w3.org/2000/svg" xmlns:xlink="http://www.w3.org/1999/xlink" x="0px" y="0px"
	 width="183.3px" height="89.6px" viewBox="0 0 183.3 89.6" enable-background="new 0 0 183.3 89.6" xml:space="preserve">
<g>
	<g>
		<path fill="#1A1A18" d="M12.5,12.5c0-5.6-2-7.8-6.8-7.8H0v15.8h5.7C10.2,20.4,12.5,18.3,12.5,12.5z M4.1,16.9V8.3h1.5
			c1.9,0,2.4,0.6,2.4,4.1c0,3.9-0.6,4.4-2.4,4.4H4.1z M18.6,4.7h-4.3v15.8h4.3V4.7z M31.3,16.9h-6.2V14H30v-3.3h-4.9V8.3H31
			l-0.1-3.6H21v15.8h10.2L31.3,16.9z M41.5,17.7h4.3l0.6,2.8h4.6L46.3,4.7h-5.1l-4.7,15.8h4.4L41.5,17.7z M43.3,9.8l0.4-1.7h0.1
			l0.3,1.7l1,4.5h-2.8L43.3,9.8z M61.8,16.8h-5.4V4.7h-4.2v15.8h9.5L61.8,16.8z M72.7,16.8h-5.4V4.7h-4.2v15.8h9.5L72.7,16.8z
			 M84.4,16.9h-6.2V14h4.9v-3.3h-4.9V8.3h5.9L84,4.7h-10v15.8h10.2L84.4,16.9z M89.5,9.2c0-0.7,0.3-1.1,1.9-1.1c1,0,2.2,0.2,3.4,0.6
			l0.5-3.4c-1.1-0.5-2.7-0.8-4.2-0.8c-3.9,0-5.6,2.2-5.6,4.9c0,5.1,6.3,4.5,6.3,6.5c0,0.8-0.5,1.3-1.8,1.3c-1.4,0-2.7-0.4-4-1.1
			l-0.5,3.5c1.3,0.7,2.9,1.1,4.6,1.1c3.6,0,5.7-1.9,5.7-5C95.8,10.5,89.5,11.2,89.5,9.2z M110.2,4.7h-4.6l-2.9,6.1h-1.1V4.7h-4.1
			v15.8h4.1V14h1l3,6.4h4.9l-4-8.2L110.2,4.7z M116.9,4.4c-4.7,0-6.7,2.4-6.7,8.1c0,5.8,2.1,8.1,6.7,8.1c4.7,0,6.7-2.2,6.7-8.1
			C123.5,6.8,121.5,4.4,116.9,4.4z M116.9,17.1c-1.8,0-2.3-0.8-2.3-4.5c0-3.7,0.6-4.5,2.3-4.5c1.8,0,2.3,0.7,2.3,4.5
			C119.2,16.3,118.7,17.1,116.9,17.1z M114.9,3.9c1.1,0,1.6-0.5,1.6-1.4c0-0.9-0.5-1.4-1.6-1.4c-1,0-1.6,0.5-1.6,1.4
			C113.3,3.5,113.8,3.9,114.9,3.9z M118.9,3.9c1.1,0,1.6-0.5,1.6-1.4c0-0.9-0.5-1.4-1.6-1.4c-1,0-1.6,0.5-1.6,1.4
			C117.3,3.5,117.9,3.9,118.9,3.9z M133.9,11.2l0,1.7l0,0l-5.1-8.2h-3.5v15.8h3.6v-7l0-1.7l0,0l0.9,1.4l4.8,7.3h2.9V4.7h-3.6
			L133.9,11.2z M148.3,11.2l0,1.7l0,0l-5.1-8.2h-3.5v15.8h3.6v-7l0-1.7l0,0l0.9,1.4l4.8,7.3h2.9V4.7h-3.6L148.3,11.2z M158.3,14h4.9
			v-3.3h-4.9V8.3h5.9l-0.1-3.6h-10v15.8h10.2l0.1-3.5h-6.2V14z M177.6,9.8c0-3.5-2-5.1-6-5.1H166v15.8h4.1v-5.6h1.4l2.1,5.6h4.8
			l-3.1-6.4C176.8,13.4,177.6,11.9,177.6,9.8z M171.6,11.7h-1.4V8.1h1.4c1.2,0,1.6,0.4,1.6,1.8C173.2,11.4,172.8,11.7,171.6,11.7z
			 M181.2,16.7c-1.5,0-2.1,0.7-2.1,2c0,1.4,0.7,2,2.1,2c1.5,0,2.1-0.8,2.1-2C183.3,17.4,182.7,16.7,181.2,16.7z M2.5,40.8
			c-1,0-1.9-0.3-2.6-0.8l-0.2,0.8c0.7,0.5,1.7,0.8,2.8,0.8c2.1,0,3.2-1.1,3.2-2.9c0-3.4-5.1-2.2-5.1-4.7c0-0.9,0.6-1.7,2.3-1.7
			c0.9,0,1.6,0.2,2.3,0.5l0.2-0.8c-0.7-0.3-1.6-0.5-2.5-0.5c-2.1,0-3.1,1.1-3.1,2.6c0,3.2,5.1,2.1,5.1,4.7C4.8,40.1,4,40.8,2.5,40.8
			z M10.4,34.4c0.6,0,1.2,0.2,1.7,0.4l0.1-0.7c-0.5-0.2-1.2-0.4-1.9-0.4c-2.2,0-3.2,1.3-3.2,3.9c0,2.9,1,4.1,3.2,4.1
			c0.8,0,1.5-0.2,2-0.6l-0.1-0.7c-0.5,0.4-1.1,0.5-1.8,0.5c-1.6,0-2.5-0.9-2.5-3.4C7.9,35.3,8.6,34.4,10.4,34.4z M15,35.4
			c0.3-0.6,1.2-1.1,2.1-1.1c1.4,0,2,0.7,2,1.9v5.2H20v-5.2c0-1.7-0.9-2.6-2.6-2.6c-0.9,0-1.8,0.4-2.3,1l0,0l0-1V31l-0.8,0.1v10.3H15
			V35.4z M27.9,37.2c0-2.5-1.2-3.5-3-3.5c-2,0-3.1,1.3-3.1,3.7c0,3,1,4.3,3.5,4.3c0.9,0,1.7-0.2,2.3-0.6l-0.1-0.7
			c-0.7,0.4-1.3,0.5-2.1,0.5c-1.9,0-2.7-0.8-2.7-3.3h5.2C27.8,37.5,27.9,37.3,27.9,37.2z M22.6,37c0.1-1.8,0.8-2.7,2.3-2.7
			c1.3,0,2.2,0.7,2.2,2.7H22.6z M30.5,39v-5.2h-0.8V39c0,1.6,0.9,2.6,2.9,2.6c1.9,0,2.9-1,2.9-2.6v-5.3h-0.8V39
			c0,1.2-0.7,1.8-2.1,1.8S30.5,40.2,30.5,39z M43.3,37.2c0-2.5-1.2-3.5-3-3.5c-2,0-3.1,1.3-3.1,3.7c0,3,1,4.3,3.5,4.3
			c0.9,0,1.7-0.2,2.3-0.6l-0.1-0.7c-0.7,0.4-1.3,0.5-2.1,0.5c-1.9,0-2.7-0.8-2.7-3.3h5.2C43.3,37.5,43.3,37.3,43.3,37.2z M38.1,37
			c0.1-1.8,0.8-2.7,2.3-2.7c1.3,0,2.2,0.7,2.2,2.7H38.1z M46.1,37.5c0-1.9,1.1-3.1,2.4-3.1c0.2,0,0.5,0,0.7,0.1l0.1-0.8
			c-0.2-0.1-0.5-0.1-0.7-0.1c-1.2,0-2.1,0.8-2.5,2h0l0-1.1l0-0.9l-0.6,0.1v7.6h0.8V37.5z M54.8,39.4c0,0.9-0.6,1.5-1.9,1.5
			c-0.8,0-1.7-0.3-2.2-0.7l-0.1,0.7c0.6,0.5,1.4,0.7,2.4,0.7c1.8,0,2.6-0.9,2.6-2.3c0-2.7-4.2-1.8-4.2-3.7c0-0.8,0.7-1.3,1.8-1.3
			c0.6,0,1.3,0.1,2,0.4l0.1-0.7c-0.6-0.3-1.3-0.4-2-0.4c-1.7,0-2.6,0.8-2.6,2C50.6,38.2,54.8,37.3,54.8,39.4z M57.5,34.1l0.1,0.7
			c0.7-0.3,1.4-0.5,2.2-0.5c1.4,0,2,0.5,2,1.9v0.9c-0.5-0.2-1.2-0.3-1.9-0.3c-1.9,0-2.8,0.8-2.8,2.3c0,1.7,1,2.4,2.4,2.4
			c1.1,0,2-0.5,2.4-1.2l0,0l0.1,1.1h0.6v-5.1c0-2-0.8-2.8-2.7-2.8C59,33.6,58.2,33.8,57.5,34.1z M61.7,39.4c0,0.7-1,1.5-2.1,1.5
			c-1,0-1.8-0.4-1.8-1.7c0-1.1,0.7-1.7,2.2-1.7c0.9,0,1.6,0.2,1.8,0.4V39.4z M70.5,39v-5.3h-0.8V39c0,1.2-0.7,1.8-2.1,1.8
			c-1.4,0-2.1-0.7-2.1-1.8v-5.2h-0.8V39c0,1.6,0.9,2.6,2.9,2.6C69.5,41.6,70.5,40.6,70.5,39z M73.6,37.7c-0.6,0.2-1,0.6-1,1.1
			c0,0.5,0.3,0.9,0.7,1c-0.6,0.4-0.9,1-0.9,1.6c0,1.2,0.9,2,2.9,2c2.4,0,3.1-0.9,3.1-2.2c0-1-0.6-1.6-2.5-1.8l-1.8-0.2
			c-0.6-0.1-0.9-0.3-0.9-0.6c0-0.3,0.3-0.6,0.8-0.7c0.4,0.1,0.7,0.1,1.1,0.1c1.9,0,2.6-0.8,2.6-2.2c0-0.5-0.1-0.9-0.3-1.2l1-0.7
			l-0.2-0.4l-1.2,0.6c-0.5-0.4-1.2-0.5-1.9-0.5c-1.9,0-2.6,0.8-2.6,2.2C72.7,36.8,73,37.4,73.6,37.7z M74,40l1.9,0.2
			c1.5,0.1,1.8,0.5,1.8,1.2c0,0.9-0.5,1.4-2.4,1.4c-1.5,0-2.2-0.5-2.2-1.5C73.2,40.9,73.5,40.3,74,40z M75.3,34.3
			c1.3,0,1.8,0.4,1.8,1.6c0,1-0.4,1.6-1.9,1.6c-1,0-1.8-0.3-1.8-1.6C73.4,34.8,73.9,34.3,75.3,34.3z M79.8,37.3h3.3v-0.6h-3.3V37.3z
			 M1,51.4c0.4-0.6,1.2-1,1.9-1c1,0,1.8,0.5,1.8,1.7v5.4h0.8v-5.4c0-1.1,0.8-1.7,1.8-1.7C8.3,50.4,9,51,9,52.2v5.2h0.8v-5.2
			c0-1.8-1-2.6-2.5-2.6c-1,0-1.8,0.4-2.2,1.3h0c-0.3-0.8-1-1.3-2.1-1.3c-0.8,0-1.6,0.4-2,1h0l-0.2-0.9l-0.6,0.1v7.7H1V51.4z
			 M17.3,57.4v-5.1c0-2-0.8-2.8-2.7-2.8c-0.9,0-1.7,0.2-2.4,0.5l0.1,0.7c0.7-0.3,1.4-0.5,2.2-0.5c1.4,0,2,0.5,2,1.9v0.9
			c-0.5-0.2-1.2-0.3-1.9-0.3c-1.9,0-2.8,0.8-2.8,2.3c0,1.7,1,2.4,2.4,2.4c1.1,0,2-0.5,2.4-1.2l0,0l0.1,1.1H17.3z M16.5,55.4
			c0,0.7-1,1.5-2.1,1.5c-1,0-1.8-0.4-1.8-1.7c0-1.1,0.7-1.7,2.2-1.7c0.9,0,1.6,0.2,1.8,0.4V55.4z M20,51.6c0-0.8,0.7-1.3,1.8-1.3
			c0.6,0,1.3,0.1,2,0.4l0.1-0.7c-0.6-0.3-1.3-0.4-2-0.4c-1.7,0-2.6,0.8-2.6,2c0,2.5,4.2,1.7,4.2,3.7c0,0.9-0.6,1.5-1.9,1.5
			c-0.8,0-1.7-0.3-2.2-0.7l-0.1,0.7c0.6,0.5,1.4,0.7,2.4,0.7c1.8,0,2.6-0.9,2.6-2.3C24.2,52.6,20,53.5,20,51.6z M28.7,57.6
			c0.8,0,1.5-0.2,2-0.6l-0.1-0.7c-0.5,0.4-1.1,0.5-1.8,0.5c-1.6,0-2.5-0.9-2.5-3.4c0-2.2,0.7-3.1,2.5-3.1c0.6,0,1.2,0.2,1.7,0.4
			l0.1-0.7c-0.5-0.2-1.2-0.4-1.9-0.4c-2.2,0-3.2,1.3-3.2,3.9C25.6,56.4,26.6,57.6,28.7,57.6z M33.5,50.6l0-1V47l-0.8,0.1v10.3h0.8
			v-6c0.3-0.6,1.2-1.1,2.1-1.1c1.4,0,2,0.7,2,1.9v5.2h0.8v-5.2c0-1.7-0.9-2.6-2.6-2.6C34.9,49.6,34.1,50,33.5,50.6L33.5,50.6z
			 M41.2,57.4H42v-7.7l-0.8,0.1V57.4z M42.2,47.7c0-0.4-0.2-0.5-0.6-0.5S41,47.3,41,47.7c0,0.4,0.2,0.5,0.6,0.5S42.2,48,42.2,47.7z
			 M50.6,57.4v-5.2c0-1.8-1-2.6-2.6-2.6c-0.9,0-1.8,0.4-2.4,1h0l-0.1-0.9l-0.6,0.1v7.7h0.8v-6c0.4-0.7,1.4-1,2.1-1
			c1.3,0,2,0.6,2,1.9v5.2H50.6z M58.5,53.2c0-2.5-1.2-3.5-3-3.5c-2,0-3.1,1.3-3.1,3.7c0,3,1,4.3,3.5,4.3c0.9,0,1.7-0.2,2.3-0.6
			l-0.1-0.7c-0.7,0.4-1.3,0.5-2.1,0.5c-1.9,0-2.7-0.8-2.7-3.3h5.2C58.5,53.5,58.5,53.3,58.5,53.2z M53.2,53c0.1-1.8,0.8-2.7,2.3-2.7
			c1.3,0,2.2,0.7,2.2,2.7H53.2z M63.6,49.6c-0.9,0-1.8,0.4-2.4,1h0L61,49.7l-0.6,0.1v7.7h0.8v-6c0.4-0.7,1.4-1,2.1-1
			c1.3,0,2,0.6,2,1.9v5.2h0.8v-5.2C66.2,50.5,65.2,49.6,63.6,49.6z M79.9,49.7c-1,0-1.8,0.4-2.2,1.3h0c-0.3-0.8-1-1.3-2.1-1.3
			c-0.8,0-1.6,0.4-2,1h0l-0.2-0.9l-0.6,0.1v7.7h0.8v-6c0.4-0.6,1.2-1,1.9-1c1,0,1.8,0.5,1.8,1.7v5.4H78v-5.4c0-1.1,0.8-1.7,1.8-1.7
			c1.2,0,1.9,0.6,1.9,1.8v5.2h0.8v-5.2C82.4,50.5,81.4,49.7,79.9,49.7z M85.5,47.1c-0.4,0-0.6,0.2-0.6,0.5c0,0.4,0.2,0.5,0.6,0.5
			s0.6-0.2,0.6-0.5C86.1,47.3,85.9,47.1,85.5,47.1z M85.1,57.4h0.8v-7.7l-0.8,0.1V57.4z M90.1,47.7l-0.6,0.1l-0.2,2h-1.2v0.6h1.2
			v5.2c0,1.3,0.6,1.9,1.9,1.9c0.3,0,0.7-0.1,0.9-0.2L92,56.8c-0.2,0.1-0.4,0.1-0.7,0.1c-0.8,0-1.3-0.4-1.3-1.3v-5.2h2v-0.6h-2V47.7z
			 M0.9,64.2c0.4,0,0.6-0.2,0.6-0.5c0-0.4-0.2-0.5-0.6-0.5s-0.6,0.2-0.6,0.5C0.3,64.1,0.5,64.2,0.9,64.2z M0.5,73.4h0.8v-7.7
			l-0.8,0.1V73.4z M9.9,73.4v-5.2c0-1.8-1-2.6-2.6-2.6c-0.9,0-1.8,0.4-2.4,1h0l-0.1-0.9l-0.6,0.1v7.7H5v-6c0.4-0.7,1.4-1,2.1-1
			c1.3,0,2,0.6,2,1.9v5.2H9.9z M13.6,63.7l-0.6,0.1l-0.2,2h-1.2v0.6h1.2v5.2c0,1.3,0.6,1.9,1.9,1.9c0.3,0,0.7-0.1,0.9-0.2l-0.1-0.6
			c-0.2,0.1-0.4,0.1-0.7,0.1c-0.8,0-1.3-0.4-1.3-1.3v-5.2h2v-0.6h-2V63.7z M19.8,65.6c-2,0-3.1,1.3-3.1,3.7c0,3,1,4.3,3.5,4.3
			c0.9,0,1.7-0.2,2.3-0.6l-0.1-0.7c-0.7,0.4-1.3,0.5-2.1,0.5c-1.9,0-2.7-0.8-2.7-3.3h5.2c0-0.1,0-0.3,0-0.4
			C22.8,66.7,21.6,65.6,19.8,65.6z M17.6,69c0.1-1.8,0.8-2.7,2.3-2.7c1.3,0,2.2,0.7,2.2,2.7H17.6z M28,71.5l-1.8-0.2
			c-0.6-0.1-0.9-0.3-0.9-0.6c0-0.3,0.3-0.6,0.8-0.7c0.4,0.1,0.7,0.1,1.1,0.1c1.9,0,2.6-0.8,2.6-2.2c0-0.5-0.1-0.9-0.3-1.2l1-0.7
			l-0.2-0.4l-1.2,0.6c-0.5-0.4-1.2-0.5-1.9-0.5c-1.9,0-2.6,0.8-2.6,2.2c0,0.9,0.4,1.5,0.9,1.8c-0.6,0.2-1,0.6-1,1.1
			c0,0.5,0.3,0.9,0.7,1c-0.6,0.4-0.9,1-0.9,1.6c0,1.2,0.9,2,2.9,2c2.4,0,3.1-0.9,3.1-2.2C30.4,72.2,29.9,71.6,28,71.5z M25.4,67.9
			c0-1.1,0.5-1.6,1.8-1.6c1.3,0,1.8,0.4,1.8,1.6c0,1-0.4,1.6-1.9,1.6C26.2,69.5,25.4,69.2,25.4,67.9z M27.3,74.8
			c-1.5,0-2.2-0.5-2.2-1.5c0-0.5,0.3-1,0.8-1.3l1.9,0.2c1.5,0.1,1.8,0.5,1.8,1.2C29.7,74.2,29.2,74.8,27.3,74.8z M36.2,65.8
			c-0.2-0.1-0.5-0.1-0.7-0.1c-1.2,0-2.1,0.8-2.5,2h0l0-1.1l0-0.9l-0.6,0.1v7.6H33v-3.9c0-1.9,1.1-3.1,2.4-3.1c0.2,0,0.5,0,0.7,0.1
			L36.2,65.8z M38.3,73.4h0.8v-7.7l-0.8,0.1V73.4z M39.3,63.7c0-0.4-0.2-0.5-0.6-0.5c-0.4,0-0.6,0.2-0.6,0.5c0,0.4,0.2,0.5,0.6,0.5
			C39.1,64.2,39.3,64,39.3,63.7z M47.3,73l-0.1-0.7c-0.7,0.4-1.3,0.5-2.1,0.5c-1.9,0-2.7-0.8-2.7-3.3h5.2c0-0.1,0-0.3,0-0.4
			c0-2.5-1.2-3.5-3-3.5c-2,0-3.1,1.3-3.1,3.7c0,3,1,4.3,3.5,4.3C45.8,73.6,46.6,73.4,47.3,73z M44.6,66.3c1.3,0,2.2,0.7,2.2,2.7
			h-4.5C42.4,67.2,43,66.3,44.6,66.3z M53.4,66.6l0.1-0.8c-0.2-0.1-0.5-0.1-0.7-0.1c-1.2,0-2.1,0.8-2.5,2h0l0-1.1l0-0.9l-0.6,0.1
			v7.6h0.8v-3.9c0-1.9,1.1-3.1,2.4-3.1C53,66.5,53.2,66.5,53.4,66.6z M56.5,63.7l-0.6,0.1l-0.2,2h-1.2v0.6h1.2v5.2
			c0,1.3,0.6,1.9,1.9,1.9c0.3,0,0.7-0.1,0.9-0.2l-0.1-0.6c-0.2,0.1-0.4,0.1-0.7,0.1c-0.8,0-1.3-0.4-1.3-1.3v-5.2h2v-0.6h-2V63.7z
			 M65.4,72.3c-0.7,0.4-1.3,0.5-2.1,0.5c-1.9,0-2.7-0.8-2.7-3.3h5.2c0-0.1,0-0.3,0-0.4c0-2.5-1.2-3.5-3-3.5c-2,0-3.1,1.3-3.1,3.7
			c0,3,1,4.3,3.5,4.3c0.9,0,1.7-0.2,2.3-0.6L65.4,72.3z M60.5,69c0.1-1.8,0.8-2.7,2.3-2.7c1.3,0,2.2,0.7,2.2,2.7H60.5z M68.5,69.5
			c0-1.9,1.1-3.1,2.4-3.1c0.2,0,0.5,0,0.7,0.1l0.1-0.8c-0.2-0.1-0.5-0.1-0.7-0.1c-1.2,0-2.1,0.8-2.5,2h0l0-1.1l0-0.9l-0.6,0.1v7.6
			h0.8V69.5z M7.4,79.7H6.3L2.9,84H1.2v-4.3H0.4v9.8h0.9v-4.7h1.6l3.6,4.7h1.1l-3.9-5.1L7.4,79.7z M11.7,81.6c-2,0-3.1,1.3-3.1,3.7
			c0,3,1,4.3,3.5,4.3c0.9,0,1.7-0.2,2.3-0.6l-0.1-0.7c-0.7,0.4-1.3,0.5-2.1,0.5c-1.9,0-2.7-0.8-2.7-3.3h5.2c0-0.1,0-0.3,0-0.4
			C14.6,82.7,13.4,81.6,11.7,81.6z M9.4,85c0.1-1.8,0.8-2.7,2.3-2.7c1.3,0,2.2,0.7,2.2,2.7H9.4z M19.8,81.6c-0.9,0-1.8,0.4-2.3,1
			l0,0l0-1V79l-0.8,0.1v10.3h0.8v-6c0.3-0.6,1.2-1.1,2.1-1.1c1.4,0,2,0.7,2,1.9v5.2h0.8v-5.2C22.4,82.5,21.5,81.6,19.8,81.6z
			 M25.5,83.7L25.5,83.7l-0.1-1.1l0-0.9l-0.6,0.1v7.6h0.8v-3.9c0-1.9,1.1-3.1,2.4-3.1c0.2,0,0.5,0,0.7,0.1l0.1-0.8
			c-0.2-0.1-0.5-0.1-0.7-0.1C26.8,81.7,25.9,82.5,25.5,83.7z M31,81.4v0.4h-1.2v0.6H31v7h0.8v-7H34v-0.6h-2.2v-0.4
			c0-1.1,0.5-1.7,1.8-1.7c0.3,0,0.7,0.1,0.9,0.1l0.1-0.6c-0.3-0.1-0.7-0.2-1.1-0.2C31.7,79.1,31,80,31,81.4z M40.6,87
			c0,1.2-0.7,1.8-2.1,1.8s-2.1-0.7-2.1-1.8v-5.2h-0.8V87c0,1.6,0.9,2.6,2.9,2.6c1.9,0,2.9-1,2.9-2.6v-5.3h-0.8V87z M46.8,81.6
			c-0.9,0-1.8,0.4-2.4,1h0l-0.1-0.9l-0.6,0.1v7.7h0.8v-6c0.4-0.7,1.4-1,2.1-1c1.3,0,2,0.6,2,1.9v5.2h0.8v-5.2
			C49.5,82.5,48.5,81.6,46.8,81.6z M57.7,81.8h-1l-2.7,3.2h-1.2V79l-0.8,0.1v10.4h0.8v-3.8h1.2l2.8,3.8h1l-3.1-4.2L57.7,81.8z
			 M60.6,79.7L60,79.8l-0.2,2h-1.2v0.6h1.2v5.2c0,1.3,0.6,1.9,1.9,1.9c0.3,0,0.7-0.1,0.9-0.2l-0.1-0.6c-0.2,0.1-0.4,0.1-0.7,0.1
			c-0.8,0-1.3-0.4-1.3-1.3v-5.2h2v-0.6h-2V79.7z M65.2,79.1c-0.4,0-0.6,0.2-0.6,0.5c0,0.4,0.2,0.5,0.6,0.5c0.4,0,0.6-0.2,0.6-0.5
			C65.8,79.3,65.6,79.1,65.2,79.1z M64.8,89.4h0.8v-7.7l-0.8,0.1V89.4z M71.2,81.6c-2.2,0-3.3,1.1-3.3,4c0,2.9,1,4,3.3,4
			c2.3,0,3.2-1.1,3.2-4C74.5,82.8,73.5,81.6,71.2,81.6z M71.2,88.9c-1.7,0-2.4-0.9-2.4-3.3c0-2.4,0.7-3.3,2.4-3.3
			c1.7,0,2.4,0.9,2.4,3.3C73.6,88,73,88.9,71.2,88.9z M79.6,81.6c-0.9,0-1.8,0.4-2.4,1h0L77,81.7l-0.6,0.1v7.7h0.8v-6
			c0.4-0.7,1.4-1,2.1-1c1.3,0,2,0.6,2,1.9v5.2h0.8v-5.2C82.2,82.5,81.2,81.6,79.6,81.6z M84.9,88.4c-0.4,0-0.6,0.2-0.6,0.6
			c0,0.4,0.2,0.6,0.6,0.6c0.4,0,0.6-0.2,0.6-0.6C85.5,88.6,85.3,88.4,84.9,88.4z"/>
	</g>
</g>
</svg>
