<?xml version="1.0" encoding="utf-8"?>
<!-- Generator: Adobe Illustrator 16.0.0, SVG Export Plug-In . SVG Version: 6.00 Build 0)  -->
<!DOCTYPE svg PUBLIC "-//W3C//DTD SVG 1.1//EN" "http://www.w3.org/Graphics/SVG/1.1/DTD/svg11.dtd">
<svg version="1.1" id="Ebene_1" xmlns="http://www.w3.org/2000/svg" xmlns:xlink="http://www.w3.org/1999/xlink" x="0px" y="0px"
	 width="239.553px" height="119.932px" viewBox="0 0 239.553 119.932" enable-background="new 0 0 239.553 119.932"
	 xml:space="preserve">
<g>
	<path d="M15.456,20.511c0,7.523-3.83,9.882-9.848,9.882c-1.915,0-3.454-0.342-4.685-0.889l0.342-5.574
		c0.718,0.376,1.847,0.615,3.18,0.615c2.804,0,4.172-1.094,4.172-4.172V4.269h6.839V20.511z"/>
	<path d="M35.593,24.136l-0.137,5.779H18.94V4.269h16.071l0.137,5.881h-9.54v3.967h7.865v5.368h-7.865v4.651H35.593z"/>
	<path d="M49.336,10.252v19.662h-6.805V10.252h-5.813l0.137-5.984h18.158l0.137,5.984H49.336z"/>
	<path d="M56.273,29.915v-4.343l8.172-12.994l1.505-2.257l-0.034-0.068h-9.438l0.171-5.984h17.132v4.787l-7.899,12.583l-1.505,2.223
		l0.034,0.103h9.438l-0.103,5.95H56.273z"/>
	<path d="M87.762,10.252v19.662h-6.805V10.252h-5.813l0.137-5.984h18.158l0.137,5.984H87.762z"/>
	<path d="M112.582,29.915h-9.267V4.269h9.13c7.796,0,10.977,3.625,10.977,12.686C123.422,26.358,119.797,29.915,112.582,29.915z
		 M112.479,10.184h-2.496v13.883h2.496c2.941,0,3.933-0.889,3.933-7.181C116.412,11.21,115.489,10.184,112.479,10.184z"/>
	<path d="M126.495,4.269h6.873v25.646h-6.873V4.269z"/>
	<path d="M152.207,19.417l4.993,10.498h-7.728l-3.419-9.164h-2.257v9.164h-6.668V4.269h8.856c6.497,0,9.711,2.462,9.711,8.241
		C155.695,15.929,154.463,18.459,152.207,19.417z M146.12,9.808h-2.325v5.916h2.291c1.949,0,2.633-0.479,2.633-2.975
		C148.719,10.423,148.069,9.808,146.12,9.808z"/>
	<path d="M175.523,24.136l-0.137,5.779H158.87V4.269h16.071l0.137,5.881h-9.54v3.967h7.865v5.368h-7.865v4.651H175.523z"/>
	<path d="M191.214,29.915l-4.822-10.43h-1.641v10.43h-6.668V4.269h6.668v9.917h1.778l4.753-9.917h7.488l-6.155,12.276l6.463,13.37
		H191.214z"/>
	<path d="M212.137,10.252v19.662h-6.805V10.252h-5.813l0.137-5.984h18.158l0.137,5.984H212.137z"/>
	<path d="M0.889,70.94v-4.343l8.172-12.994l1.505-2.257l-0.034-0.068H1.094l0.171-5.984h17.132v4.787l-7.899,12.583l-1.505,2.223
		l0.034,0.103h9.438l-0.103,5.95H0.889z"/>
	<path d="M40.244,62.221c0,6.019-3.214,9.164-9.78,9.164s-9.882-3.146-9.882-9.164V45.294h6.702v16.79
		c0,2.291,0.889,3.317,3.18,3.317c2.326,0,3.112-0.958,3.112-3.317v-16.79h6.668V62.221z"/>
	<path d="M50.839,45.294l4.514,12.959l0.855,2.633h0.103l0.855-2.599l4.582-12.994h7.386V70.94h-6.121V60.203l0.069-2.77
		l-0.103-0.034l-0.854,2.667L58.328,70.94h-4.343l-3.761-10.84l-0.855-2.667l-0.068,0.034l0.034,2.77V70.94h-5.847V45.294H50.839z"
		/>
	<path d="M98.738,45.294l2.702,16.037l0.41,2.736h0.103l0.308-2.736l2.291-16.037h6.668l-5.369,25.646H97.85l-2.394-15.559
		l-0.342-2.77h-0.103l-0.376,2.77L92.276,70.94h-8.002l-5.369-25.646h6.976l2.257,16.174l0.342,2.736h0.103l0.376-2.736
		l2.667-16.174H98.738z"/>
	<path d="M129.952,65.162l-0.137,5.779h-16.516V45.294h16.071l0.137,5.881h-9.54v3.967h7.865v5.368h-7.865v4.651H129.952z"/>
	<path d="M142.498,70.94h-9.985V45.294h10.053c5.505,0,8.309,2.564,8.309,6.634c0,2.701-1.231,4.445-3.146,5.369v0.068
		c2.565,0.854,3.933,2.838,3.933,6.018C151.662,68,148.892,70.94,142.498,70.94z M142.292,50.902h-3.317v4.514h3.386
		c1.539,0,2.086-0.582,2.086-2.325C144.447,51.415,143.865,50.902,142.292,50.902z M142.463,60.408h-3.488v5.061h3.625
		c1.675,0,2.291-0.547,2.291-2.564C144.891,61.126,144.344,60.408,142.463,60.408z"/>
	<path d="M154.598,45.294h6.873V70.94h-6.873V45.294z"/>
	<path d="M180.241,70.94l-7.66-11.832l-1.436-2.359l-0.068,0.034l0.034,2.77V70.94h-5.881V45.294h5.608l8.241,13.302l0.068-0.034
		l-0.068-2.736l0.034-10.532h5.882V70.94H180.241z"/>
	<path d="M201.711,66.461h-6.976l-0.992,4.479h-7.078l7.591-25.646h8.172l7.728,25.646h-7.454L201.711,66.461z M197.642,53.535
		L196,60.887h4.48l-1.642-7.352l-0.513-2.735h-0.103L197.642,53.535z"/>
	<path d="M226.941,60.442l4.993,10.498h-7.728l-3.419-9.164h-2.257v9.164h-6.668V45.294h8.856c6.497,0,9.711,2.462,9.711,8.241
		C230.43,56.955,229.198,59.485,226.941,60.442z M220.855,50.834h-2.325v5.916h2.291c1.949,0,2.633-0.479,2.633-2.975
		C223.454,51.449,222.804,50.834,220.855,50.834z"/>
	<path d="M15.046,107.487H8.07l-0.992,4.479H0L7.591,86.32h8.172l7.728,25.646h-7.454L15.046,107.487z M10.977,94.561l-1.642,7.352
		h4.48l-1.642-7.352l-0.513-2.735h-0.103L10.977,94.561z"/>
	<path d="M40.208,111.966l-7.66-11.832l-1.436-2.359l-0.068,0.034l0.034,2.77v11.387h-5.881V86.32h5.608l8.241,13.302l0.068-0.034
		l-0.068-2.736L39.08,86.32h5.882v25.646H40.208z"/>
	<path d="M55.796,86.32L60.31,99.28l0.855,2.633h0.103l0.855-2.599l4.582-12.994h7.386v25.646h-6.121v-10.737l0.068-2.77
		l-0.103-0.034l-0.854,2.667l-3.796,10.874h-4.343l-3.761-10.84l-0.855-2.667l-0.068,0.034l0.034,2.77v10.703h-5.847V86.32H55.796z"
		/>
	<path d="M94.225,106.188l-0.137,5.779H77.572V86.32h16.071l0.137,5.881h-9.54v3.967h7.865v5.368H84.24v4.651H94.225z"/>
	<path d="M112.242,106.017l-0.171,5.95H96.786V86.32h6.736v19.696H112.242z"/>
	<path d="M123.693,111.966h-9.267V86.32h9.13c7.796,0,10.977,3.625,10.977,12.686C134.533,108.41,130.909,111.966,123.693,111.966z
		 M123.591,92.236h-2.496v13.883h2.496c2.941,0,3.933-0.889,3.933-7.181C127.523,93.262,126.6,92.236,123.591,92.236z"/>
	<path d="M153.986,106.188l-0.137,5.779h-16.516V86.32h16.071l0.137,5.881h-9.54v3.967h7.865v5.368h-7.865v4.651H153.986z"/>
	<path d="M171.558,111.966l-7.66-11.832l-1.436-2.359l-0.068,0.034l0.034,2.77v11.387h-5.881V86.32h5.608l8.241,13.302l0.068-0.034
		l-0.068-2.736l0.034-10.532h5.882v25.646H171.558z"/>
	<path d="M180.443,104.307l-0.958-17.986h6.736l-0.923,17.986H180.443z M182.974,112.376c-2.292,0-3.317-0.854-3.317-2.94
		c0-1.881,1.026-3.009,3.317-3.009c2.325,0,3.351,1.128,3.351,3.009C186.325,111.18,185.299,112.376,182.974,112.376z"/>
</g>
</svg>
