<?xml version="1.0" encoding="utf-8"?>
<!-- Generator: Adobe Illustrator 16.0.0, SVG Export Plug-In . SVG Version: 6.00 Build 0)  -->
<!DOCTYPE svg PUBLIC "-//W3C//DTD SVG 1.1//EN" "http://www.w3.org/Graphics/SVG/1.1/DTD/svg11.dtd">
<svg version="1.1" id="Ebene_1" xmlns="http://www.w3.org/2000/svg" xmlns:xlink="http://www.w3.org/1999/xlink" x="0px" y="0px"
	 width="112.812px" height="31.265px" viewBox="0 0 112.812 31.265" enable-background="new 0 0 112.812 31.265"
	 xml:space="preserve">
<g>
	<path d="M3.522,11.557c-1.117,0-2.027-0.299-2.769-0.754L0.91,9.997c0.754,0.494,1.586,0.754,2.612,0.754
		c1.548,0,2.341-0.754,2.341-2.015c0-2.613-5.005-1.469-5.005-4.68c0-1.469,0.936-2.587,3.029-2.587c0.949,0,1.807,0.195,2.496,0.52
		L6.228,2.756C5.486,2.444,4.771,2.262,3.927,2.262c-1.613,0-2.25,0.819-2.25,1.742c0,2.483,5.019,1.313,5.019,4.68
		C6.695,10.465,5.603,11.557,3.522,11.557z"/>
	<path d="M13.065,4.732c-0.481-0.234-1.08-0.403-1.69-0.403c-1.794,0-2.496,0.923-2.496,3.12c0,2.483,0.845,3.367,2.47,3.367
		c0.65,0,1.287-0.182,1.769-0.533l0.077,0.689c-0.454,0.338-1.195,0.572-1.988,0.572c-2.105,0-3.146-1.196-3.146-4.095
		c0-2.613,0.963-3.874,3.16-3.874c0.715,0,1.403,0.182,1.91,0.429L13.065,4.732z"/>
	<path d="M20.032,11.375V6.188c0-1.183-0.637-1.859-2.002-1.859c-0.949,0-1.754,0.468-2.093,1.053v5.993h-0.793V1.04l0.793-0.065
		v2.522l-0.013,1.04L15.95,4.55c0.533-0.637,1.353-0.988,2.289-0.988c1.689,0,2.586,0.923,2.586,2.626v5.187H20.032z"/>
	<path d="M28.054,11.375V6.201c0-1.313-0.729-1.872-2.027-1.872c-0.755,0-1.664,0.364-2.094,1.04v6.006h-0.78V3.718l0.56-0.052
		l0.143,0.923h0.039c0.52-0.637,1.404-1.014,2.327-1.014c1.625,0,2.612,0.845,2.612,2.613v5.187H28.054z"/>
	<path d="M30.667,7.28c0-2.405,1.027-3.705,3.055-3.705c1.729,0,2.938,1.053,2.938,3.536c0,0.117-0.013,0.286-0.026,0.39h-5.161
		c0.039,2.457,0.858,3.289,2.691,3.289c0.806,0,1.469-0.195,2.119-0.546l0.104,0.689c-0.664,0.377-1.404,0.598-2.302,0.598
		C31.642,11.531,30.667,10.244,30.667,7.28z M35.933,6.942c-0.027-1.937-0.937-2.665-2.211-2.665c-1.508,0-2.184,0.897-2.262,2.665
		H35.933z"/>
	<path d="M38.909,11.375V1.026l0.779-0.052v10.4H38.909z"/>
	<path d="M42.757,11.375V1.026l0.779-0.052v10.4H42.757z"/>
	<path d="M57.616,11.505c-0.676-0.416-1.392-0.949-2.08-1.547c-0.742,0.897-1.729,1.573-3.017,1.573
		c-1.819,0-2.522-1.157-2.522-2.496c0-1.417,0.897-2.366,1.885-3.146c-0.545-0.858-0.87-1.677-0.87-2.314
		c0-1.183,0.649-2.106,2.196-2.106c1.313,0,2.002,0.676,2.002,1.625c0,1.17-1.039,1.95-2.353,2.925
		c0.677,0.937,1.587,1.938,2.574,2.834c0.481-0.754,0.806-1.612,0.937-2.353l0.676-0.013c-0.078,0.741-0.43,1.859-1.066,2.86
		c0.637,0.546,1.287,1.04,1.924,1.443L57.616,11.505z M54.977,9.477c-1.015-0.936-1.976-1.989-2.69-2.99
		c-0.82,0.676-1.496,1.443-1.496,2.509c0,1.118,0.768,1.768,1.847,1.768C53.546,10.764,54.353,10.231,54.977,9.477z M52.48,5.447
		c1.079-0.793,1.95-1.417,1.964-2.301c0-0.637-0.469-1.027-1.262-1.027c-0.818,0-1.43,0.533-1.43,1.456
		C51.753,4.069,52.025,4.719,52.48,5.447z"/>
	<path d="M62.958,7.28c0-2.405,1.027-3.705,3.055-3.705c1.729,0,2.938,1.053,2.938,3.536c0,0.117-0.013,0.286-0.026,0.39h-5.161
		c0.039,2.457,0.858,3.289,2.691,3.289c0.806,0,1.469-0.195,2.119-0.546l0.104,0.689c-0.664,0.377-1.404,0.598-2.302,0.598
		C63.933,11.531,62.958,10.244,62.958,7.28z M68.224,6.942c-0.027-1.937-0.937-2.665-2.211-2.665c-1.508,0-2.184,0.897-2.262,2.665
		H68.224z"/>
	<path d="M71.668,2.132c-0.39,0-0.61-0.13-0.61-0.546c0-0.351,0.221-0.546,0.61-0.546s0.611,0.195,0.611,0.546
		C72.279,1.963,72.058,2.132,71.668,2.132z M71.265,11.375V3.744l0.793-0.065v7.696H71.265z"/>
	<path d="M79.806,11.375V6.201c0-1.313-0.728-1.872-2.027-1.872c-0.754,0-1.664,0.364-2.094,1.04v6.006h-0.779V3.718l0.559-0.052
		l0.143,0.923h0.039c0.521-0.637,1.404-1.014,2.328-1.014c1.625,0,2.613,0.845,2.613,2.613v5.187H79.806z"/>
	<path d="M83.42,11.375V4.329h-1.235V3.705h1.235V3.328c0-1.365,0.715-2.288,2.444-2.288c0.377,0,0.818,0.065,1.078,0.156
		l-0.064,0.559c-0.26-0.065-0.572-0.117-0.91-0.117c-1.223,0-1.755,0.637-1.755,1.703v0.364h2.158v0.624h-2.158v7.046H83.42z"/>
	<path d="M92.286,10.296l-0.039-0.013c-0.416,0.728-1.326,1.209-2.393,1.209c-1.391,0-2.353-0.689-2.353-2.405
		c0-1.456,0.897-2.288,2.769-2.288c0.689,0,1.392,0.143,1.912,0.338V6.188c0-1.456-0.611-1.924-1.963-1.924
		c-0.793,0-1.509,0.143-2.172,0.481l-0.091-0.689c0.728-0.338,1.508-0.507,2.392-0.507c1.873,0,2.627,0.767,2.627,2.756v5.07h-0.599
		L92.286,10.296z M92.183,7.761c-0.195-0.143-0.871-0.364-1.795-0.364c-1.482,0-2.132,0.611-2.132,1.677
		c0,1.3,0.78,1.742,1.808,1.742c1.117,0,2.119-0.78,2.119-1.521V7.761z"/>
	<path d="M99.8,4.732c-0.48-0.234-1.079-0.403-1.689-0.403c-1.795,0-2.496,0.923-2.496,3.12c0,2.483,0.845,3.367,2.47,3.367
		c0.649,0,1.287-0.182,1.769-0.533l0.078,0.689c-0.455,0.338-1.197,0.572-1.99,0.572c-2.105,0-3.146-1.196-3.146-4.095
		c0-2.613,0.962-3.874,3.159-3.874c0.715,0,1.404,0.182,1.91,0.429L99.8,4.732z"/>
	<path d="M106.769,11.375V6.188c0-1.183-0.637-1.859-2.002-1.859c-0.949,0-1.756,0.468-2.094,1.053v5.993h-0.793V1.04l0.793-0.065
		v2.522l-0.013,1.04l0.026,0.013c0.533-0.637,1.352-0.988,2.287-0.988c1.69,0,2.588,0.923,2.588,2.626v5.187H106.769z"/>
	<path d="M7.632,20.604l-3.068,7.67H3.627l-3.081-7.67h0.896l2.275,5.967l0.364,0.988h0.039l0.351-0.988l2.275-5.967H7.632z"/>
	<path d="M11.985,28.444c-2.235,0-3.236-1.118-3.236-3.991c0-2.847,1.014-3.978,3.236-3.978c2.25,0,3.199,1.131,3.199,3.978
		C15.185,27.326,14.235,28.444,11.985,28.444z M11.985,27.755c1.717,0,2.38-0.91,2.38-3.302c0-2.379-0.663-3.276-2.38-3.276
		c-1.729,0-2.418,0.897-2.418,3.276C9.567,26.858,10.257,27.755,11.985,27.755z"/>
	<path d="M22.062,28.275v-5.174c0-1.313-0.729-1.872-2.029-1.872c-0.754,0-1.664,0.364-2.092,1.04v6.006h-0.781v-7.657l0.56-0.052
		l0.144,0.923h0.039c0.52-0.637,1.404-1.014,2.326-1.014c1.625,0,2.613,0.845,2.613,2.613v5.187H22.062z"/>
	<path d="M28.808,28.275V27.69l4.889-7.475l0.584-0.845l-0.012-0.026h-5.291l0.038-0.819h6.306v0.676l-4.85,7.384l-0.585,0.832
		l0.013,0.039h5.435l-0.039,0.819H28.808z"/>
	<path d="M42.744,25.857c0,1.612-0.923,2.574-2.847,2.574c-1.912,0-2.834-0.975-2.834-2.574v-5.252h0.779v5.227
		c0,1.196,0.702,1.846,2.055,1.846c1.352,0,2.066-0.637,2.066-1.846v-5.227h0.78V25.857z"/>
	<path d="M50.037,28.275v-5.187c0-1.183-0.638-1.859-2.002-1.859c-0.949,0-1.755,0.468-2.093,1.053v5.993h-0.793V17.939l0.793-0.065
		v2.522l-0.014,1.04l0.026,0.013c0.532-0.637,1.353-0.988,2.288-0.988c1.689,0,2.587,0.923,2.587,2.626v5.187H50.037z"/>
	<path d="M57.538,27.196l-0.039-0.013c-0.416,0.729-1.326,1.209-2.393,1.209c-1.391,0-2.353-0.689-2.353-2.405
		c0-1.456,0.897-2.288,2.769-2.288c0.689,0,1.392,0.143,1.912,0.338v-0.949c0-1.456-0.611-1.924-1.963-1.924
		c-0.793,0-1.509,0.143-2.172,0.481l-0.091-0.689c0.728-0.338,1.508-0.507,2.392-0.507c1.873,0,2.627,0.767,2.627,2.756v5.07h-0.599
		L57.538,27.196z M57.435,24.661c-0.195-0.143-0.871-0.364-1.795-0.364c-1.482,0-2.132,0.611-2.132,1.677
		c0,1.3,0.78,1.742,1.808,1.742c1.117,0,2.119-0.78,2.119-1.521V24.661z"/>
	<path d="M66.079,25.857c0,1.612-0.924,2.574-2.848,2.574c-1.91,0-2.834-0.975-2.834-2.574v-5.252h0.78v5.227
		c0,1.196,0.702,1.846,2.054,1.846c1.353,0,2.067-0.637,2.067-1.846v-5.227h0.78V25.857z"/>
	<path d="M70.316,28.431c-0.909,0-1.769-0.247-2.34-0.702l0.13-0.715c0.559,0.468,1.417,0.728,2.197,0.728
		c1.3,0,1.846-0.663,1.846-1.547c0-2.054-4.134-1.17-4.134-3.705c0-1.248,0.897-2.015,2.548-2.015c0.729,0,1.404,0.143,2.016,0.442
		l-0.078,0.689c-0.637-0.286-1.313-0.429-1.951-0.429c-1.092,0-1.78,0.494-1.78,1.274c0,1.911,4.121,0.962,4.121,3.666
		C72.891,27.508,72.098,28.431,70.316,28.431z"/>
	<path d="M74.282,24.18c0-2.405,1.026-3.705,3.055-3.705c1.729,0,2.938,1.053,2.938,3.536c0,0.117-0.013,0.286-0.025,0.39h-5.162
		c0.039,2.457,0.859,3.289,2.691,3.289c0.807,0,1.469-0.195,2.119-0.546l0.104,0.689c-0.663,0.377-1.404,0.598-2.302,0.598
		C75.257,28.431,74.282,27.144,74.282,24.18z M79.547,23.842c-0.026-1.937-0.937-2.665-2.21-2.665c-1.508,0-2.184,0.897-2.262,2.665
		H79.547z"/>
</g>
</svg>
