<?xml version="1.0" encoding="utf-8"?>
<!-- Generator: Adobe Illustrator 16.0.0, SVG Export Plug-In . SVG Version: 6.00 Build 0)  -->
<!DOCTYPE svg PUBLIC "-//W3C//DTD SVG 1.1//EN" "http://www.w3.org/Graphics/SVG/1.1/DTD/svg11.dtd">
<svg version="1.1" id="Ebene_1" xmlns="http://www.w3.org/2000/svg" xmlns:xlink="http://www.w3.org/1999/xlink" x="0px" y="0px"
	 width="188.084px" height="88.109px" viewBox="-409.499 68.528 188.084 88.109"
	 enable-background="new -409.499 68.528 188.084 88.109" xml:space="preserve">
<g>
	<path d="M-395.844,87.862l-0.072,1.475h-10.942V71.495h10.514l0.072,1.476h-9.04v6.352h7.826v1.332h-7.826v7.208H-395.844z"/>
	<path d="M-383.384,89.337v-9.468c0-2.402-1.332-3.426-3.711-3.426c-1.38,0-3.045,0.666-3.83,1.903v10.99h-1.427V75.325l1.023-0.095
		l0.262,1.688h0.071c0.952-1.165,2.569-1.855,4.258-1.855c2.974,0,4.781,1.547,4.781,4.782v9.491H-383.384z"/>
	<path d="M-375.395,76.468v9.491c0,1.688,0.88,2.355,2.284,2.355c0.404,0,0.904-0.072,1.189-0.19l0.119,1.142
		c-0.381,0.166-1.071,0.285-1.689,0.285c-2.188,0-3.354-1.142-3.354-3.544v-9.539h-2.188v-1.166h2.212l0.285-3.688l1.142-0.143v3.83
		h3.687v1.166H-375.395z"/>
	<path d="M-359.531,89.337l-0.238-1.642l-0.072-0.023c-0.88,1.284-2.378,1.95-4.353,1.95c-3.901,0-5.424-2.283-5.424-7.303
		c0-4.829,1.618-7.256,5.448-7.256c1.712,0,3.283,0.619,4.282,1.832l0.047-0.023l-0.047-1.903v-4.544l1.451-0.118v19.03H-359.531z
		 M-359.888,78.37c-0.69-1.165-2.141-1.927-3.925-1.927c-3.14,0-4.329,1.713-4.329,5.924c0,4.329,1.094,6.019,4.306,6.019
		c2.355,0,3.497-1.166,3.949-2.046V78.37z"/>
	<path d="M-354.778,81.844c0-4.401,1.879-6.78,5.59-6.78c3.164,0,5.376,1.927,5.376,6.471c0,0.214-0.023,0.523-0.047,0.714h-9.444
		c0.071,4.496,1.57,6.019,4.924,6.019c1.475,0,2.688-0.357,3.877-0.999l0.19,1.261c-1.213,0.689-2.569,1.094-4.21,1.094
		C-352.994,89.622-354.778,87.268-354.778,81.844z M-345.144,81.225c-0.047-3.544-1.713-4.876-4.044-4.876
		c-2.76,0-3.997,1.642-4.139,4.876H-345.144z"/>
	<path d="M-331.993,77.181c-0.88-0.428-1.975-0.737-3.093-0.737c-3.283,0-4.567,1.689-4.567,5.709c0,4.544,1.546,6.162,4.52,6.162
		c1.189,0,2.355-0.333,3.235-0.976l0.143,1.261c-0.833,0.618-2.188,1.047-3.64,1.047c-3.854,0-5.757-2.188-5.757-7.494
		c0-4.781,1.76-7.089,5.781-7.089c1.308,0,2.569,0.333,3.497,0.785L-331.993,77.181z"/>
	<path d="M-326.739,81.106h2.236l4.9-5.828h1.855l-5.447,6.423l5.685,7.636h-1.832l-5.162-6.946h-2.236v6.946h-1.451V70.401
		l1.451-0.095V81.106z"/>
	<path d="M-315.919,81.844c0-4.401,1.879-6.78,5.59-6.78c3.164,0,5.376,1.927,5.376,6.471c0,0.214-0.023,0.523-0.047,0.714h-9.444
		c0.071,4.496,1.57,6.019,4.924,6.019c1.475,0,2.688-0.357,3.877-0.999l0.19,1.261c-1.213,0.689-2.569,1.094-4.21,1.094
		C-314.135,89.622-315.919,87.268-315.919,81.844z M-306.285,81.225c-0.047-3.544-1.713-4.876-4.044-4.876
		c-2.76,0-3.997,1.642-4.139,4.876H-306.285z"/>
	<path d="M-292.42,89.337v-9.468c0-2.402-1.332-3.426-3.711-3.426c-1.38,0-3.045,0.666-3.83,1.903v10.99h-1.427V75.325l1.023-0.095
		l0.262,1.688h0.071c0.952-1.165,2.569-1.855,4.258-1.855c2.974,0,4.781,1.547,4.781,4.782v9.491H-292.42z"/>
	<path d="M-274.943,89.67c-2.046,0-3.711-0.547-5.067-1.38l0.285-1.475c1.38,0.904,2.902,1.38,4.782,1.38
		c2.831,0,4.282-1.38,4.282-3.688c0-4.781-9.159-2.688-9.159-8.563c0-2.688,1.713-4.734,5.543-4.734
		c1.736,0,3.307,0.357,4.567,0.952l-0.286,1.403c-1.356-0.571-2.664-0.904-4.21-0.904c-2.95,0-4.115,1.499-4.115,3.188
		c0,4.544,9.182,2.403,9.182,8.564C-269.139,87.672-271.137,89.67-274.943,89.67z"/>
	<path d="M-264.337,72.423c-0.714,0-1.118-0.237-1.118-0.999c0-0.642,0.404-0.999,1.118-0.999c0.713,0,1.118,0.357,1.118,0.999
		C-263.22,72.114-263.624,72.423-264.337,72.423z M-265.075,89.337V75.373l1.451-0.119v14.083H-265.075z"/>
	<path d="M-259.321,81.844c0-4.401,1.879-6.78,5.59-6.78c3.164,0,5.376,1.927,5.376,6.471c0,0.214-0.023,0.523-0.047,0.714h-9.444
		c0.071,4.496,1.57,6.019,4.924,6.019c1.475,0,2.688-0.357,3.877-0.999l0.19,1.261c-1.213,0.689-2.569,1.094-4.21,1.094
		C-257.537,89.622-259.321,87.268-259.321,81.844z M-249.687,81.225c-0.047-3.544-1.713-4.876-4.044-4.876
		c-2.76,0-3.997,1.642-4.139,4.876H-249.687z"/>
	<path d="M-397.105,115.828c0,2.95-1.689,4.71-5.209,4.71c-3.497,0-5.186-1.784-5.186-4.71v-9.61h1.427v9.562
		c0,2.188,1.285,3.378,3.759,3.378s3.782-1.165,3.782-3.378v-9.562h1.427V115.828z"/>
	<path d="M-383.883,120.253v-9.468c0-2.402-1.332-3.426-3.711-3.426c-1.38,0-3.045,0.666-3.83,1.903v10.99h-1.427v-14.012
		l1.023-0.095l0.262,1.688h0.071c0.952-1.165,2.569-1.855,4.258-1.855c2.974,0,4.781,1.547,4.781,4.782v9.491H-383.883z"/>
	<path d="M-374.705,120.538c-1.665,0-3.235-0.452-4.282-1.284l0.238-1.309c1.023,0.856,2.593,1.332,4.02,1.332
		c2.379,0,3.378-1.213,3.378-2.83c0-3.759-7.564-2.142-7.564-6.78c0-2.283,1.641-3.688,4.663-3.688c1.332,0,2.569,0.262,3.687,0.81
		l-0.143,1.261c-1.166-0.523-2.403-0.785-3.568-0.785c-1.999,0-3.259,0.903-3.259,2.331c0,3.497,7.541,1.761,7.541,6.708
		C-369.995,118.85-371.446,120.538-374.705,120.538z"/>
	<path d="M-367.453,112.76c0-4.401,1.879-6.78,5.59-6.78c3.164,0,5.376,1.927,5.376,6.471c0,0.214-0.023,0.523-0.047,0.714h-9.444
		c0.071,4.496,1.57,6.019,4.924,6.019c1.475,0,2.688-0.357,3.877-0.999l0.19,1.261c-1.213,0.689-2.569,1.094-4.21,1.094
		C-365.669,120.538-367.453,118.184-367.453,112.76z M-357.819,112.141c-0.047-3.544-1.713-4.876-4.044-4.876
		c-2.759,0-3.997,1.642-4.139,4.876H-357.819z"/>
	<path d="M-352.923,120.253v-13.964l1.166-0.095l0.047,1.569l0.047,1.927h0.048c0.809-2.188,2.45-3.663,4.567-3.663
		c0.476,0,0.928,0.048,1.332,0.167l-0.119,1.498c-0.404-0.143-0.833-0.19-1.284-0.19c-2.379,0-4.377,2.188-4.377,5.591v7.16
		H-352.923z"/>
	<path d="M-343.791,112.76c0-4.401,1.879-6.78,5.59-6.78c3.164,0,5.376,1.927,5.376,6.471c0,0.214-0.023,0.523-0.047,0.714h-9.444
		c0.071,4.496,1.57,6.019,4.924,6.019c1.475,0,2.688-0.357,3.877-0.999l0.19,1.261c-1.213,0.689-2.569,1.094-4.21,1.094
		C-342.007,120.538-343.791,118.184-343.791,112.76z M-334.157,112.141c-0.047-3.544-1.713-4.876-4.044-4.876
		c-2.759,0-3.997,1.642-4.139,4.876H-334.157z"/>
	<path d="M-321.651,120.253v-13.964l1.166-0.095l0.048,1.569l0.047,1.927h0.048c0.809-2.188,2.45-3.663,4.567-3.663
		c0.476,0,0.928,0.048,1.332,0.167l-0.119,1.498c-0.404-0.143-0.833-0.19-1.284-0.19c-2.379,0-4.377,2.188-4.377,5.591v7.16
		H-321.651z"/>
	<path d="M-306.596,120.562c-4.092,0-5.923-2.046-5.923-7.304c0-5.209,1.855-7.279,5.923-7.279c4.115,0,5.852,2.07,5.852,7.279
		C-300.744,118.517-302.48,120.562-306.596,120.562z M-306.596,119.302c3.14,0,4.353-1.666,4.353-6.043
		c0-4.353-1.213-5.994-4.353-5.994c-3.164,0-4.425,1.642-4.425,5.994C-311.021,117.66-309.76,119.302-306.596,119.302z"/>
	<path d="M-291.352,120.515c-1.808,0-3.426-0.689-4.33-1.927l-0.071,0.023l-0.286,1.642h-0.951v-18.959l1.451-0.096v4.663
		l-0.023,1.902l0.047,0.024c0.999-1.189,2.569-1.832,4.33-1.832c3.283,0,5.376,1.808,5.376,7.256
		C-285.81,118.563-287.832,120.515-291.352,120.515z M-291.566,107.312c-1.712,0-3.164,0.737-3.973,1.974v7.945
		c0.619,1.071,1.999,2.046,4.021,2.046c2.498,0,4.234-1.261,4.234-6.042C-287.284,108.525-288.878,107.312-291.566,107.312z"/>
	<path d="M-272.064,115.828c0,2.95-1.689,4.71-5.209,4.71c-3.497,0-5.186-1.784-5.186-4.71v-9.61h1.428v9.562
		c0,2.188,1.284,3.378,3.758,3.378s3.782-1.165,3.782-3.378v-9.562h1.427V115.828z"/>
	<path d="M-264.314,120.538c-1.665,0-3.235-0.452-4.282-1.284l0.238-1.309c1.023,0.856,2.593,1.332,4.02,1.332
		c2.379,0,3.378-1.213,3.378-2.83c0-3.759-7.564-2.142-7.564-6.78c0-2.283,1.641-3.688,4.663-3.688c1.332,0,2.569,0.262,3.687,0.81
		l-0.143,1.261c-1.166-0.523-2.403-0.785-3.568-0.785c-1.998,0-3.259,0.903-3.259,2.331c0,3.497,7.541,1.761,7.541,6.708
		C-259.604,118.85-261.055,120.538-264.314,120.538z"/>
	<path d="M-254.112,107.384v9.491c0,1.688,0.88,2.355,2.284,2.355c0.404,0,0.904-0.072,1.189-0.19l0.119,1.142
		c-0.381,0.166-1.071,0.285-1.689,0.285c-2.188,0-3.354-1.142-3.354-3.544v-9.539h-2.188v-1.166h2.212l0.285-3.688l1.142-0.143v3.83
		h3.687v1.166H-254.112z"/>
	<path d="M-248.334,112.76c0-4.401,1.879-6.78,5.59-6.78c3.164,0,5.376,1.927,5.376,6.471c0,0.214-0.023,0.523-0.047,0.714h-9.444
		c0.071,4.496,1.57,6.019,4.924,6.019c1.475,0,2.688-0.357,3.877-0.999l0.19,1.261c-1.213,0.689-2.569,1.094-4.21,1.094
		C-246.55,120.538-248.334,118.184-248.334,112.76z M-238.7,112.141c-0.047-3.544-1.713-4.876-4.044-4.876
		c-2.759,0-3.997,1.642-4.139,4.876H-238.7z"/>
	<path d="M-224.835,120.253v-9.468c0-2.402-1.332-3.426-3.711-3.426c-1.38,0-3.045,0.666-3.83,1.903v10.99h-1.427v-14.012
		l1.023-0.095l0.262,1.688h0.071c0.952-1.165,2.569-1.855,4.258-1.855c2.974,0,4.781,1.547,4.781,4.782v9.491H-224.835z"/>
	<path d="M-406.525,133.326h1.57v17.842h-1.57V133.326z"/>
	<path d="M-390.756,151.168V141.7c0-2.402-1.332-3.426-3.711-3.426c-1.38,0-3.045,0.666-3.83,1.903v10.99h-1.427v-14.012
		l1.023-0.095l0.262,1.688h0.071c0.952-1.165,2.569-1.855,4.258-1.855c2.974,0,4.781,1.547,4.781,4.782v9.491H-390.756z"/>
	<path d="M-375.892,151.168l-0.238-1.642l-0.072-0.023c-0.88,1.284-2.378,1.95-4.353,1.95c-3.901,0-5.424-2.283-5.424-7.303
		c0-4.829,1.618-7.256,5.448-7.256c1.712,0,3.283,0.619,4.282,1.832l0.047-0.023l-0.047-1.903v-4.544l1.451-0.119v19.031H-375.892z
		 M-376.249,140.201c-0.69-1.165-2.141-1.927-3.925-1.927c-3.14,0-4.329,1.713-4.329,5.924c0,4.329,1.094,6.019,4.306,6.019
		c2.355,0,3.497-1.166,3.949-2.046V140.201z"/>
	<path d="M-360.102,146.743c0,2.95-1.689,4.71-5.209,4.71c-3.497,0-5.186-1.784-5.186-4.71v-9.61h1.428v9.562
		c0,2.189,1.284,3.378,3.758,3.378s3.782-1.165,3.782-3.378v-9.562h1.427V146.743z"/>
	<path d="M-352.351,151.453c-1.665,0-3.235-0.452-4.282-1.284l0.238-1.309c1.023,0.856,2.593,1.332,4.02,1.332
		c2.379,0,3.378-1.213,3.378-2.831c0-3.758-7.564-2.141-7.564-6.779c0-2.283,1.641-3.688,4.663-3.688
		c1.332,0,2.569,0.262,3.687,0.81l-0.143,1.261c-1.166-0.523-2.403-0.785-3.568-0.785c-1.998,0-3.259,0.903-3.259,2.331
		c0,3.497,7.541,1.761,7.541,6.708C-347.641,149.765-349.092,151.453-352.351,151.453z"/>
	<path d="M-342.149,138.299v9.491c0,1.688,0.88,2.355,2.284,2.355c0.404,0,0.904-0.072,1.189-0.19l0.119,1.142
		c-0.381,0.166-1.071,0.285-1.689,0.285c-2.188,0-3.354-1.142-3.354-3.544v-9.539h-2.188v-1.166h2.212l0.285-3.688l1.142-0.143v3.83
		h3.687v1.166H-342.149z"/>
	<path d="M-335.253,151.168v-13.964l1.166-0.095l0.048,1.569l0.047,1.927h0.048c0.809-2.188,2.45-3.663,4.567-3.663
		c0.476,0,0.928,0.048,1.332,0.167l-0.119,1.498c-0.404-0.143-0.833-0.19-1.284-0.19c-2.379,0-4.377,2.188-4.377,5.591v7.16
		H-335.253z"/>
	<path d="M-323.458,134.254c-0.714,0-1.118-0.237-1.118-0.999c0-0.642,0.404-0.999,1.118-0.999c0.713,0,1.118,0.357,1.118,0.999
		C-322.34,133.945-322.744,134.254-323.458,134.254z M-324.195,151.168v-13.964l1.451-0.119v14.083H-324.195z"/>
	<path d="M-318.44,143.675c0-4.401,1.879-6.78,5.59-6.78c3.164,0,5.376,1.927,5.376,6.471c0,0.214-0.023,0.523-0.047,0.714h-9.444
		c0.071,4.496,1.57,6.019,4.924,6.019c1.475,0,2.688-0.357,3.877-0.999l0.19,1.261c-1.213,0.689-2.569,1.094-4.21,1.094
		C-316.656,151.453-318.44,149.099-318.44,143.675z M-308.806,143.056c-0.047-3.544-1.713-4.876-4.044-4.876
		c-2.759,0-3.997,1.642-4.139,4.876H-308.806z"/>
	<path d="M-300.46,151.453c-1.665,0-3.235-0.452-4.282-1.284l0.238-1.309c1.023,0.856,2.593,1.332,4.02,1.332
		c2.379,0,3.378-1.213,3.378-2.831c0-3.758-7.564-2.141-7.564-6.779c0-2.283,1.641-3.688,4.663-3.688
		c1.332,0,2.569,0.262,3.687,0.81l-0.143,1.261c-1.166-0.523-2.403-0.785-3.568-0.785c-1.998,0-3.259,0.903-3.259,2.331
		c0,3.497,7.541,1.761,7.541,6.708C-295.75,149.765-297.202,151.453-300.46,151.453z"/>
	<path d="M-284.288,149.193l-0.072-0.023c-0.761,1.332-2.426,2.212-4.377,2.212c-2.545,0-4.306-1.261-4.306-4.4
		c0-2.665,1.642-4.187,5.067-4.187c1.261,0,2.545,0.261,3.497,0.618v-1.736c0-2.665-1.118-3.521-3.592-3.521
		c-1.451,0-2.759,0.262-3.973,0.881l-0.167-1.261c1.332-0.619,2.76-0.928,4.377-0.928c3.426,0,4.806,1.403,4.806,5.043v9.277h-1.094
		L-284.288,149.193z M-284.479,144.555c-0.357-0.262-1.594-0.666-3.283-0.666c-2.712,0-3.901,1.118-3.901,3.068
		c0,2.379,1.427,3.188,3.307,3.188c2.045,0,3.877-1.428,3.877-2.784V144.555z"/>
	<path d="M-268.664,146.743c0,2.95-1.689,4.71-5.209,4.71c-3.497,0-5.186-1.784-5.186-4.71v-9.61h1.427v9.562
		c0,2.189,1.285,3.378,3.759,3.378s3.782-1.165,3.782-3.378v-9.562h1.427V146.743z"/>
	<path d="M-262.007,144.793c-0.952,0.214-1.451,0.689-1.451,1.284c0,0.547,0.428,0.999,1.594,1.118l3.235,0.333
		c3.449,0.356,4.472,1.403,4.472,3.259c0,2.475-1.427,4.044-5.686,4.044c-3.687,0-5.233-1.475-5.233-3.711
		c0-1.07,0.547-2.117,1.546-2.878c-0.714-0.31-1.285-0.928-1.285-1.88c0-0.856,0.642-1.617,1.808-2.021
		c-1-0.547-1.713-1.594-1.713-3.33c0-2.641,1.332-4.116,4.734-4.116c1.213,0,2.498,0.238,3.425,0.976l2.26-1.022l0.333,0.737
		l-1.808,1.213c0.31,0.571,0.5,1.285,0.5,2.188c0,2.641-1.189,4.068-4.71,4.068C-260.651,145.055-261.365,144.983-262.007,144.793z
		 M-262.269,148.504c-0.999,0.642-1.522,1.594-1.522,2.45c0,1.665,1.142,2.664,3.901,2.664c3.473,0,4.377-1.07,4.377-2.641
		c0-1.213-0.619-1.879-3.331-2.117L-262.269,148.504z M-263.316,141.034c0,2.354,1.427,2.878,3.307,2.878
		c2.569,0,3.354-0.999,3.354-2.878c0-2.165-1.023-2.926-3.331-2.926C-262.412,138.108-263.316,139.083-263.316,141.034z"/>
	<path d="M-251.997,143.675c0-4.401,1.879-6.78,5.59-6.78c3.164,0,5.376,1.927,5.376,6.471c0,0.214-0.023,0.523-0.047,0.714h-9.444
		c0.071,4.496,1.57,6.019,4.924,6.019c1.475,0,2.688-0.357,3.877-0.999l0.19,1.261c-1.213,0.689-2.569,1.094-4.21,1.094
		C-250.212,151.453-251.997,149.099-251.997,143.675z M-242.362,143.056c-0.047-3.544-1.713-4.876-4.044-4.876
		c-2.76,0-3.997,1.642-4.139,4.876H-242.362z"/>
	<path d="M-237.466,151.168v-13.964l1.166-0.095l0.047,1.569l0.047,1.927h0.048c0.809-2.188,2.45-3.663,4.567-3.663
		c0.476,0,0.928,0.048,1.332,0.167l-0.119,1.498c-0.404-0.143-0.833-0.19-1.284-0.19c-2.379,0-4.377,2.188-4.377,5.591v7.16
		H-237.466z"/>
	<path d="M-228.31,151.406c-0.761,0-1.142-0.31-1.142-1.118c0-0.714,0.381-1.095,1.142-1.095c0.737,0,1.094,0.381,1.094,1.095
		C-227.215,151.001-227.572,151.406-228.31,151.406z"/>
</g>
</svg>
