<svg enable-background="new 0 0 1658 600" viewBox="0 0 1658 600" xmlns="http://www.w3.org/2000/svg"><text fill="#fff" font-family="'ClanPro-NarrBlack'" font-size="12.2353" transform="matrix(.9919 0 0 1 23.8394 362.9277)">Mehr infos</text><path clip-rule="evenodd" d="m1027.1 541.6-4.1-76.7h28.7l-3.9 76.7zm-10.2-240.5 3.5-17.1c-4.1-2.2-8.6-7-8.6-13 0-7.9 3.9-14.1 14.2-14.1 9.9 0 14.6 6 14.6 15 0 8.6-7.4 23.2-14.3 31.5zm-32.3-164.4-14.6-39h-9.6v39.1h-28.4v-109.5h37.8c27.7 0 41.4 10.5 41.4 35.2 0 14.6-5.3 25.4-14.9 29.5l21.3 44.8h-33zm-14.3-85.7h-9.9v25.2h9.8c8.3 0 11.2-2 11.2-12.7 0-9.9-2.7-12.5-11.1-12.5zm-49.3 61.1-.6 24.6h-70.4v-109.4h68.6l.6 25.1h-40.7v16.9h33.5v22.9h-33.6v19.8h42.6zm-14.4 63.3-2.8 24.2c-4.8-1.8-11.4-2.9-18.2-2.9-16.2 0-20.3 6.9-20.3 30.8 0 25.2 4.5 32.2 20.7 32.2 6.7 0 13-1.3 18.1-3.6l2.6 23.2c-6.6 3.2-16.5 5.3-24.9 5.3-31.2 0-46.4-17.8-46.4-57.2 0-36.8 14.7-56 48.1-56 7.8-.1 17.3 1.6 23.1 4zm-99.9-81.5h-26.5v42.9h-28.4v-109.5h28.4v41h26.5v-41h28.6v109.4h-28.6zm-37.5 150.9c0 9.8 3.8 14.2 13.6 14.2 9.9 0 13.3-4.1 13.3-14.2v-71.6h28.4v72.2c0 25.7-13.7 39.1-41.7 39.1s-42.2-13.4-42.2-39.1v-72.2h28.6zm-75.2-106.2c-31.5 0-45.8-16.6-45.8-56.6 0-40.1 13.7-56.4 45.8-56.4s45.8 16.3 45.8 56.4c0 41.2-13.8 56.6-45.8 56.6zm-.2-87.5c-12 0-15.8 5-15.8 30.9 0 26.1 3.9 31.4 16 31.4s15.8-5.4 15.8-31.4c.1-26.1-3.6-30.9-16-30.9zm-101.5 231.5h-39.5v-109.4h38.9c33.3 0 46.8 15.5 46.8 54.1 0 40.1-15.4 55.3-46.2 55.3zm-.4-84.2h-10.6v59.2h10.6c12.5 0 16.8-3.8 16.8-30.6-.1-24.2-4-28.6-16.8-28.6zm15.9-104.5h-26.5v42.9h-28.4v-109.5h28.4v41h26.5v-41h28.6v109.4h-28.6zm17.5 250.7h-24.8v83.9h-29v-83.9h-24.8l.6-25.5h77.5zm7.4 158.8c0 23.6-11.8 36.9-42.4 36.9h-9v34h-28.4v-109.4h37.5c30.2 0 42.3 11.8 42.3 38.5zm-51.5 14.3h9c9.3 0 12.8-2.2 12.8-14.4 0-11.8-2.8-14.6-12.8-14.6h-9zm83.3-89.3h-29.3v-109.4h29.3zm57.8 71.6c0 14.6-5.3 25.4-14.9 29.5l21.3 44.8h-33l-14.6-39.1h-9.6v39.1h-28.5v-109.4h37.8c27.7 0 41.5 10.5 41.5 35.1zm-50.8 13.8h9.8c8.3 0 11.2-2 11.2-12.7 0-9.9-2.8-12.5-11.1-12.5h-9.9zm31.6-231.2-14.6-39.1h-9.6v39.1h-28.4v-109.4h37.8c27.7 0 41.4 10.5 41.4 35.2 0 14.6-5.3 25.4-14.9 29.5l21.3 44.8h-33zm-14.2-85.8h-9.9v25.2h9.8c8.3 0 11.2-2 11.2-12.7-.1-9.8-2.8-12.5-11.1-12.5zm62.7 207-.6 24.6h-70.4v-109.4h68.6l.6 25.1h-40.8v16.9h33.6v22.9h-33.6v19.8h42.6zm53.3 86.2h-40.7v16.9h33.6v22.9h-33.6v19.8h42.6l-.6 24.6h-70.4v-109.3h68.6zm-42.4-61.6v-109.4h68.4l.4 25.5h-40.3v19.3h33.4l-.1 24.2h-33.3v40.4zm85.8 145.9h-29.3v-109.4h29.3zm63.7-170.5-.6 24.6h-70.4v-109.4h68.6l.6 25.1h-40.7v16.9h33.5v22.9h-33.6v19.8h42.6zm-19.8 147.9c9 0 12.5-3.1 12.5-8.9 0-14-43.5-9.6-43.5-45.4 0-19.1 11.7-34.3 38.7-34.3 10.1 0 20.9 1.9 28.7 5.3l-3.2 23.8c-8.3-2.5-16.6-3.9-23.6-3.9-10.8 0-13.1 3.2-13.1 7.9 0 14.1 43.5 9.3 43.5 45.1 0 21.6-14.6 35-39.2 35-11.5 0-22.9-2.6-31.8-7.6l3.6-24.2c8.8 4.4 17.9 7.2 27.4 7.2zm81.1-269.1-20.6-44.5h-7v44.5h-28.4v-109.4h28.4v42.3h7.6l20.3-42.3h31.9l-26.3 52.4 27.6 57zm38.2 207.4h-40.7v16.9h33.6v22.9h-33.6v19.8h42.6l-.6 24.6h-70.4v-109.3h68.6zm26.4 60.7c9.9 0 14.3 4.8 14.3 12.8 0 7.4-4.4 12.5-14.3 12.5-9.8 0-14.1-3.6-14.1-12.5-.1-8 4.3-12.8 14.1-12.8z" fill-rule="evenodd"/></svg>