<svg enable-background="new 0 0 141.14 203.16" viewBox="0 0 141.14 203.16" xmlns="http://www.w3.org/2000/svg"><path clip-rule="evenodd" d="m124.61 176.42 1.38 2.3-1.7 1.3-2-1.94-2.05 1.97-1.75-1.24 1.32-2.38-2.4-1.13.84-2.24 2.51.59.38-2.62h2.27l.35 2.62 2.48-.59.78 2.21zm-11.01 15.96c-1.89 0-2.73-.73-2.73-2.57 0-1.65.84-2.59 2.73-2.59s2.7.94 2.7 2.59c0 1.54-.81 2.57-2.7 2.57zm-5.67-3.94v3.62h-4.78v-3.62h-7.99l-.43-3.29 7.02-13.34h6.18v12.37h1.65l-.11 4.27h-1.54zm-4.35-11.56-3.62 7.29h3.35l.19-5.08.14-2.19zm5.35-46.39c0 3.89-2.4 6.37-7.64 6.37-2.21 0-4.21-.59-5.62-1.4l.89-4c1.46.73 2.89 1.11 4.51 1.11 1.86 0 2.78-.78 2.78-2.22 0-1.32-.73-2.32-4.35-2.32v-3.64c3.48 0 4.21-.78 4.21-2.16 0-1.05-.7-1.67-2.49-1.67-1.76 0-3.27.59-4.54 1.62l-1.16-4.05c1.51-1.19 3.75-2 6.1-2 4.37 0 6.91 2.16 6.91 5.75 0 1.84-.84 3.29-2.43 4.18v.05c1.83.79 2.83 2.25 2.83 4.38zm-10.59-86.43-1.13-1.86-.05.03.03 2.19v8.99h-4.64v-20.25h4.43l6.51 10.5.05-.03-.05-2.16.03-8.32h4.64v20.25h-3.75zm-7.83 4.78-.11 4.56h-13.04v-20.24h12.69l.11 4.64h-7.53v3.13h6.21v4.24h-6.21v3.67zm-16.09-23.16h-5.37v-15.53h-4.59l.11-4.72h14.33l.11 4.72h-4.59zm-10.99-4.7-.08 4.7h-13.8v-3.43l6.45-10.26 1.19-1.78-.03-.05h-7.45l.14-4.72h13.53v3.78l-6.24 9.94-1.19 1.76.03.08h7.45zm-19.36 4.7h-5.37v-15.53h-4.59l.11-4.72h14.34l.11 4.72h-4.59v15.53zm-10.85-4.57-.11 4.56h-13.04v-20.24h12.69l.11 4.64h-7.53v3.13h6.21v4.24h-6.21v3.67zm-6.42 12.05v20.25h-4.83v-8.48l.05-2.19-.08-.03-.68 2.11-3 8.59h-3.43l-2.97-8.56-.68-2.11-.05.03.03 2.19v8.45h-4.62v-20.25h5.81l3.56 10.23.67 2.08h.08l.67-2.05 3.62-10.26zm-17.26-7.1c-1.51 0-2.73-.27-3.7-.7l.27-4.4c.57.3 1.46.49 2.51.49 2.22 0 3.3-.86 3.3-3.29v-12.73h5.4v12.83c0 5.93-3.03 7.8-7.78 7.8zm2.11 131.27c0 1.81.7 2.62 2.51 2.62 1.84 0 2.46-.76 2.46-2.62v-13.26h5.26v13.37c0 4.75-2.54 7.24-7.72 7.24-5.19 0-7.8-2.48-7.8-7.24v-13.37h5.29zm.16 22.06h4.91v-7.59h5.29v20.25h-5.29v-7.94h-4.91v7.94h-5.27v-20.25h5.27zm23.57-24.81.05-.03-.05-2.16.03-8.32h4.64v20.25h-3.75l-6.05-9.34-1.13-1.86-.05.03.03 2.19v8.99h-4.64v-20.25h4.43zm2.16 21.87h-7.53v3.13h6.21v4.24h-6.21v3.67h7.88l-.11 4.56h-13.04v-20.25h12.69zm17.17 2.48c0 4.37-2.19 6.83-7.86 6.83h-1.67v6.29h-5.26v-20.25h6.94c5.61 0 7.85 2.19 7.85 7.13zm-9.53 2.65h1.67c1.73 0 2.38-.4 2.38-2.67 0-2.19-.51-2.7-2.38-2.7h-1.67zm20.93-9.78 6.1 20.25h-5.89l-.78-3.54h-5.51l-.78 3.54h-5.59l5.99-20.25zm-1.54 12.32-1.3-5.8-.4-2.16h-.08l-.46 2.16-1.3 5.8zm6.94-75.25v-20.26h6.99c5.13 0 7.67 1.94 7.67 6.51 0 2.7-.97 4.7-2.75 5.45l3.94 8.29h-6.1l-2.7-7.24h-1.78v7.24h-5.27zm7.07-11.21c1.54 0 2.08-.38 2.08-2.35 0-1.84-.51-2.32-2.05-2.32h-1.84v4.67zm11.15 18.71v16.61h2.4v3.62h-10.1v-3.62h2.4v-10.5l-3.08 1.7-.54-4.1 5.86-3.7h3.06zm0 55.46v16.61h2.4v3.62h-10.1v-3.62h2.4v-10.5l-3.08 1.7-.54-4.1 5.86-3.7h3.06zm-14.58-128.66c0 7.42-2.86 10.23-8.56 10.23h-7.32v-20.24h7.21c6.16 0 8.67 2.86 8.67 10.01zm-10.61 5.62h1.97c2.32 0 3.11-.7 3.11-5.67 0-4.48-.73-5.29-3.11-5.29h-1.97zm6.24 16.74h-7.53v3.13h6.21v4.24h-6.21v3.67h7.88l-.11 4.56h-13.04v-20.24h12.69zm-1.65 27.73h-7.53v3.13h6.21v4.24h-6.21v3.67h7.88l-.11 4.56h-13.04v-20.25h12.69zm-3.02 23.08 6.1 20.25h-5.89l-.78-3.54h-5.51l-.78 3.54h-5.59l5.99-20.25zm-1.54 12.32-1.3-5.81-.4-2.16h-.08l-.46 2.16-1.3 5.81zm-9.15-54.41c0 4.75-2.54 7.24-7.72 7.24s-7.8-2.48-7.8-7.24v-13.36h5.29v13.26c0 1.81.7 2.62 2.51 2.62 1.84 0 2.46-.76 2.46-2.62v-13.26h5.26zm-3.95-41.09.11 4.72h-4.59v15.53h-5.37v-15.53h-4.59l.11-4.72zm-13.58 98.87-.11 4.56h-13.04v-20.25h12.69l.11 4.64h-7.53v3.13h6.21v4.24h-6.21v3.67h7.88zm-8.21-43.42h5.32v15.55h6.88l-.14 4.7h-12.06zm15.07 20.26v-15.53h-4.59l.11-4.72h14.33l.11 4.72h-4.59v15.53zm13.93 45.22c0 7.43-2.86 10.23-8.56 10.23h-7.32v-20.25h7.21c6.16 0 8.67 2.87 8.67 10.02zm-10.61 5.62h1.97c2.32 0 3.1-.7 3.1-5.67 0-4.48-.73-5.29-3.1-5.29h-1.97zm-8.15-43.37h6.94c5.62 0 7.86 2.19 7.86 7.13 0 4.37-2.19 6.83-7.86 6.83h-1.67v6.29h-5.26v-20.25zm5.26 9.78h1.67c1.73 0 2.38-.4 2.38-2.67 0-2.19-.51-2.7-2.38-2.7h-1.67zm-18.47-17.25h-5.43v-20.26h5.43zm-20.17-20.26h12.66l.08 4.72h-7.45v3.57h6.18l-.03 4.48h-6.16v7.48h-5.28zm0 47.99v-20.25h5.27v7.59h4.91v-7.59h5.29v20.25h-5.29v-7.94h-4.91v7.94zm10.97-75.71h4.64v20.25h-3.75l-6.05-9.34-1.13-1.86-.05.03.03 2.19v8.99h-4.66v-20.26h4.43l6.51 10.5.05-.03-.05-2.16zm17.68-27.73v20.25h-5.43v-20.25zm2.51 32.37h-7.53v3.13h6.21v4.24h-6.21v3.67h7.89l-.11 4.56h-13.05v-20.24h12.7zm46.42-4.64h4.65v20.25h-3.75l-6.05-9.34-1.13-1.86-.05.03.03 2.19v8.99h-4.64v-20.26h4.43l6.51 10.5.05-.03-.05-2.16zm9.2 47.98h-4.64v-20.26h4.43l6.51 10.5.05-.03-.05-2.16.03-8.32h4.65v20.25h-3.75l-6.05-9.34-1.13-1.86-.05.03.03 2.19v9z" fill-rule="evenodd"/></svg>