<?xml version="1.0" encoding="utf-8"?>
<!-- Generator: Adobe Illustrator 16.0.0, SVG Export Plug-In . SVG Version: 6.00 Build 0)  -->
<!DOCTYPE svg PUBLIC "-//W3C//DTD SVG 1.1//EN" "http://www.w3.org/Graphics/SVG/1.1/DTD/svg11.dtd">
<svg version="1.1" id="Ebene_1" xmlns="http://www.w3.org/2000/svg" xmlns:xlink="http://www.w3.org/1999/xlink" x="0px" y="0px"
	 width="62px" height="55px" viewBox="0 0 62 55" enable-background="new 0 0 62 55" xml:space="preserve">
<path fill="#B61A2D" d="M62,33.5v2V55l-14.5-9.6H9.9c-5.5,0-9.9-4.5-9.9-10V10C0,4.5,4.4,0,9.9,0h42.2C57.6,0,62,4.5,62,10V33.5z"/>
<g>
	<g>
		<path fill="#FFFFFF" d="M21,19.9c0-2.7-1.7-4.5-5-4.5c-2.1,0-3.7,0.6-4.9,1.5L12,20c1-0.7,2.1-1.2,3.2-1.2c1.2,0,1.8,0.5,1.8,1.4
			c0,2-2.6,4.5-5.7,8v2.5h9.6l0.1-3.4h-4.8v-0.1C19,24.6,21,22.4,21,19.9z M24.4,30.8h3.8V18.3l-3.8,0.2V30.8z M26.3,14.4
			c-1.4,0-2,0.5-2,1.5c0,1.1,0.7,1.5,2,1.5c1.4,0,2-0.5,2-1.5S27.6,14.4,26.3,14.4z M36.9,18.1c-1.1,0-2.2,0.4-3.1,1.1l-0.5-0.9
			l-2.7,0.2v12.3h3.7V22c0.3-0.4,0.9-0.7,1.4-0.7c0.9,0,1.3,0.4,1.3,1.5v8h3.7v-8C40.9,19.8,39.3,18.1,36.9,18.1z M50.8,28.1V15.6
			h-2.3l-4.4,2.8l0.4,3.1l2.3-1.3v7.9H45v2.7h7.6v-2.7H50.8z"/>
	</g>
</g>
</svg>
