<?xml version="1.0" encoding="utf-8"?>
<!-- Generator: Adobe Illustrator 16.0.0, SVG Export Plug-In . SVG Version: 6.00 Build 0)  -->
<!DOCTYPE svg PUBLIC "-//W3C//DTD SVG 1.1//EN" "http://www.w3.org/Graphics/SVG/1.1/DTD/svg11.dtd">
<svg version="1.1" id="Ebene_1" xmlns="http://www.w3.org/2000/svg" xmlns:xlink="http://www.w3.org/1999/xlink" x="0px" y="0px"
	 width="353.7px" height="48.7px" viewBox="0 0 353.7 48.7" enable-background="new 0 0 353.7 48.7" xml:space="preserve">
<g>
	<g>
		<path fill="#1A1A18" d="M7.8,4.6H0.6v20h7.3c5.7,0,8.5-2.8,8.5-10.1C16.4,7.4,13.9,4.6,7.8,4.6z M7.8,20.1h-2V9.2h2
			c2.4,0,3.1,0.8,3.1,5.2C10.9,19.4,10.1,20.1,7.8,20.1z M24.3,4.6h-5.4v20h5.4V4.6z M40.3,20.1h-7.9v-3.6h6.2v-4.2h-6.2V9.2H40
			l-0.1-4.6H27.2v20h13L40.3,20.1z M53,4.6l-6,20h5.6l0.8-3.5h5.5l0.8,3.5h5.9l-6.1-20H53z M54.3,16.8l1.3-5.7l0.5-2.1h0.1l0.4,2.1
			l1.3,5.7H54.3z M79,20h-6.9V4.6h-5.3v20h12L79,20z M92.9,20H86V4.6h-5.3v20h12L92.9,20z M107.7,20.1h-7.9v-3.6h6.2v-4.2h-6.2V9.2
			h7.5l-0.1-4.6H94.6v20h13L107.7,20.1z M114.9,20.5c-1.8,0-3.4-0.5-5.1-1.3l-0.7,4.4c1.6,0.9,3.7,1.4,5.9,1.4
			c4.6,0,7.2-2.5,7.2-6.4c0-6.5-8-5.7-8-8.3c0-0.9,0.4-1.4,2.4-1.4c1.3,0,2.8,0.3,4.4,0.7l0.6-4.4c-1.5-0.6-3.4-1-5.3-1
			c-5,0-7.1,2.8-7.1,6.3c0,6.5,8,5.7,8,8.3C117.2,19.9,116.6,20.5,114.9,20.5z M134.5,24.6h6.2l-5.1-10.4l4.8-9.6h-5.9l-3.7,7.7
			h-1.4V4.6h-5.3v20h5.3v-8.2h1.3L134.5,24.6z M146.4,3.6c1.4,0,2-0.6,2-1.8c0-1.2-0.6-1.8-2-1.8c-1.3,0-2,0.6-2,1.8
			C144.4,3.1,145.1,3.6,146.4,3.6z M151.6,3.6c1.4,0,2-0.6,2-1.8c0-1.2-0.6-1.8-2-1.8c-1.3,0-2,0.6-2,1.8
			C149.6,3.1,150.3,3.6,151.6,3.6z M149,4.3c-5.9,0-8.5,3-8.5,10.3c0,7.3,2.6,10.4,8.5,10.4c5.9,0,8.5-2.8,8.5-10.4
			C157.4,7.3,154.9,4.3,149,4.3z M149,20.4c-2.2,0-3-1-3-5.7c0-4.8,0.7-5.7,2.9-5.7c2.3,0,3,0.9,3,5.7
			C151.9,19.4,151.2,20.4,149,20.4z M164.3,15.7l0-2.2l0.1,0l1.1,1.8l6,9.2h3.7v-20h-4.6l0,8.2l0.1,2.1l-0.1,0l-6.5-10.4h-4.4v20
			h4.6V15.7z M193.5,24.6v-20h-4.6l0,8.2l0.1,2.1l-0.1,0l-6.5-10.4H178v20h4.6v-8.9l0-2.2l0.1,0l1.1,1.8l6,9.2H193.5z M201.5,16.5
			h6.2v-4.2h-6.2V9.2h7.5l-0.1-4.6h-12.7v20h13l0.1-4.5h-7.9V16.5z M226,11c0-4.5-2.5-6.4-7.6-6.4h-7v20h5.3v-7.2h1.8l2.7,7.2h6.1
			l-3.9-8.2C225.1,15.7,226,13.7,226,11z M218.5,13.5h-1.8V8.9h1.8c1.5,0,2,0.5,2,2.3C220.5,13.2,220,13.5,218.5,13.5z M230.7,25
			c1.9,0,2.7-1,2.7-2.5c0-1.6-0.8-2.6-2.7-2.6c-1.9,0-2.7,0.9-2.7,2.6C228,24.2,228.8,25,230.7,25z M1,39c0-1,0.7-1.8,2.4-1.8
			c0.9,0,1.6,0.2,2.4,0.5l0.2-0.8c-0.7-0.3-1.6-0.5-2.6-0.5c-2.2,0-3.2,1.2-3.2,2.7c0,3.3,5.2,2.1,5.2,4.9c0,1.3-0.8,2.1-2.4,2.1
			c-1.1,0-1.9-0.3-2.7-0.8L0,46c0.8,0.5,1.7,0.8,2.9,0.8c2.2,0,3.3-1.1,3.3-3C6.2,40.3,1,41.6,1,39z M11.1,46.1
			c-1.7,0-2.6-0.9-2.6-3.5c0-2.3,0.7-3.2,2.6-3.2c0.6,0,1.3,0.2,1.8,0.4L13,39c-0.5-0.3-1.3-0.4-2-0.4c-2.3,0-3.3,1.3-3.3,4
			c0,3,1.1,4.3,3.3,4.3c0.8,0,1.6-0.2,2.1-0.6l-0.1-0.7C12.4,45.9,11.8,46.1,11.1,46.1z M18.3,38.5c-1,0-1.8,0.4-2.4,1l0,0l0-1.1
			v-2.6l-0.8,0.1v10.7h0.8v-6.2c0.4-0.6,1.2-1.1,2.2-1.1c1.4,0,2.1,0.7,2.1,1.9v5.4H21v-5.4C21,39.5,20.1,38.5,18.3,38.5z
			 M26.1,38.5c-2.1,0-3.2,1.3-3.2,3.8c0,3.1,1,4.4,3.6,4.4c0.9,0,1.7-0.2,2.4-0.6l-0.1-0.7c-0.7,0.4-1.4,0.6-2.2,0.6
			c-1.9,0-2.8-0.9-2.8-3.4h5.4c0-0.1,0-0.3,0-0.4C29.2,39.6,27.9,38.5,26.1,38.5z M23.8,42c0.1-1.8,0.8-2.8,2.4-2.8
			c1.3,0,2.3,0.8,2.3,2.8H23.8z M36.2,44.1c0,1.3-0.7,1.9-2.2,1.9c-1.4,0-2.2-0.7-2.2-1.9v-5.4h-0.8v5.5c0,1.7,1,2.7,3,2.7
			c2,0,3-1,3-2.7v-5.5h-0.8V44.1z M42.2,38.5c-2.1,0-3.2,1.3-3.2,3.8c0,3.1,1,4.4,3.6,4.4c0.9,0,1.7-0.2,2.4-0.6l-0.1-0.7
			c-0.7,0.4-1.4,0.6-2.2,0.6c-1.9,0-2.8-0.9-2.8-3.4h5.4c0-0.1,0-0.3,0-0.4C45.2,39.6,44,38.5,42.2,38.5z M39.8,42
			c0.1-1.8,0.8-2.8,2.4-2.8c1.3,0,2.3,0.8,2.3,2.8H39.8z M48,40.6L48,40.6L48,39.6l0-0.9l-0.7,0.1v7.9h0.8v-4.1
			c0-1.9,1.1-3.2,2.5-3.2c0.3,0,0.5,0,0.7,0.1l0.1-0.8c-0.2-0.1-0.5-0.1-0.8-0.1C49.4,38.6,48.5,39.4,48,40.6z M53.6,40.6
			c0-0.8,0.7-1.3,1.9-1.3c0.7,0,1.4,0.1,2,0.4l0.1-0.7c-0.6-0.3-1.3-0.5-2.1-0.5c-1.7,0-2.7,0.8-2.7,2.1c0,2.6,4.3,1.7,4.3,3.8
			c0,0.9-0.6,1.6-1.9,1.6c-0.8,0-1.7-0.3-2.3-0.8l-0.1,0.7c0.6,0.5,1.5,0.7,2.4,0.7c1.9,0,2.7-1,2.7-2.4
			C57.9,41.6,53.6,42.6,53.6,40.6z M62.4,38.5c-0.9,0-1.7,0.2-2.5,0.5l0.1,0.7c0.7-0.4,1.4-0.5,2.3-0.5c1.4,0,2.1,0.5,2.1,2v1
			c-0.5-0.2-1.3-0.4-2-0.4c-2,0-2.9,0.9-2.9,2.4c0,1.8,1,2.5,2.5,2.5c1.1,0,2.1-0.5,2.5-1.3l0,0l0.1,1.1h0.6v-5.3
			C65.1,39.3,64.4,38.5,62.4,38.5z M64.3,44.5c0,0.8-1,1.6-2.2,1.6c-1.1,0-1.9-0.5-1.9-1.8c0-1.1,0.7-1.7,2.2-1.7
			c1,0,1.7,0.2,1.9,0.4V44.5z M72.5,44.1c0,1.3-0.7,1.9-2.2,1.9s-2.1-0.7-2.1-1.9v-5.4h-0.8v5.5c0,1.7,1,2.7,3,2.7c2,0,3-1,3-2.7
			v-5.5h-0.8V44.1z M81.6,38.5l-1.3,0.6c-0.5-0.4-1.3-0.6-2-0.6c-1.9,0-2.7,0.8-2.7,2.3c0,1,0.4,1.6,1,1.9c-0.7,0.2-1,0.7-1,1.1
			c0,0.5,0.3,0.9,0.7,1.1c-0.6,0.4-0.9,1-0.9,1.6c0,1.3,0.9,2.1,3,2.1c2.4,0,3.3-0.9,3.3-2.3c0-1.1-0.6-1.6-2.6-1.8l-1.9-0.2
			c-0.7-0.1-0.9-0.3-0.9-0.6c0-0.3,0.3-0.6,0.8-0.7c0.4,0.1,0.8,0.1,1.2,0.1c2,0,2.7-0.8,2.7-2.3c0-0.5-0.1-0.9-0.3-1.2l1-0.7
			L81.6,38.5z M77,45.1l2,0.2c1.6,0.1,1.9,0.5,1.9,1.2c0,0.9-0.5,1.5-2.5,1.5c-1.6,0-2.2-0.6-2.2-1.5C76.2,46,76.5,45.5,77,45.1z
			 M78.3,42.5c-1.1,0-1.9-0.3-1.9-1.6c0-1.1,0.5-1.7,1.9-1.7c1.3,0,1.9,0.4,1.9,1.7C80.2,42,79.8,42.5,78.3,42.5z M90.9,38.6
			c-1,0-1.9,0.5-2.3,1.3h0c-0.3-0.9-1.1-1.3-2.2-1.3c-0.9,0-1.7,0.4-2.1,1h0l-0.2-1l-0.6,0.1v8h0.8v-6.2c0.4-0.6,1.2-1.1,2-1.1
			c1,0,1.8,0.5,1.8,1.7v5.6h0.8V41c0-1.1,0.9-1.7,1.8-1.7c1.2,0,1.9,0.6,1.9,1.9v5.4h0.8v-5.4C93.5,39.4,92.4,38.6,90.9,38.6z
			 M98.5,38.5c-0.9,0-1.7,0.2-2.5,0.5l0.1,0.7c0.7-0.4,1.4-0.5,2.3-0.5c1.4,0,2.1,0.5,2.1,2v1c-0.5-0.2-1.3-0.4-2-0.4
			c-2,0-2.9,0.9-2.9,2.4c0,1.8,1,2.5,2.5,2.5c1.1,0,2.1-0.5,2.5-1.3l0,0l0.1,1.1h0.6v-5.3C101.2,39.3,100.4,38.5,98.5,38.5z
			 M100.4,44.5c0,0.8-1,1.6-2.2,1.6c-1.1,0-1.9-0.5-1.9-1.8c0-1.1,0.7-1.7,2.2-1.7c1,0,1.7,0.2,1.9,0.4V44.5z M104,40.6
			c0-0.8,0.7-1.3,1.9-1.3c0.7,0,1.4,0.1,2,0.4L108,39c-0.6-0.3-1.3-0.5-2.1-0.5c-1.7,0-2.7,0.8-2.7,2.1c0,2.6,4.3,1.7,4.3,3.8
			c0,0.9-0.6,1.6-1.9,1.6c-0.8,0-1.7-0.3-2.3-0.8l-0.1,0.7c0.6,0.5,1.5,0.7,2.4,0.7c1.9,0,2.7-1,2.7-2.4
			C108.3,41.6,104,42.6,104,40.6z M113.2,46.1c-1.7,0-2.6-0.9-2.6-3.5c0-2.3,0.7-3.2,2.6-3.2c0.6,0,1.3,0.2,1.8,0.4l0.1-0.8
			c-0.5-0.3-1.3-0.4-2-0.4c-2.3,0-3.3,1.3-3.3,4c0,3,1.1,4.3,3.3,4.3c0.8,0,1.6-0.2,2.1-0.6l-0.1-0.7
			C114.6,45.9,113.9,46.1,113.2,46.1z M120.5,38.5c-1,0-1.8,0.4-2.4,1l0,0l0-1.1v-2.6l-0.8,0.1v10.7h0.8v-6.2
			c0.4-0.6,1.2-1.1,2.2-1.1c1.4,0,2.1,0.7,2.1,1.9v5.4h0.8v-5.4C123.2,39.5,122.2,38.5,120.5,38.5z M126.4,35.9
			c-0.4,0-0.6,0.2-0.6,0.6c0,0.4,0.2,0.6,0.6,0.6s0.6-0.2,0.6-0.6C127,36.1,126.8,35.9,126.4,35.9z M126,46.6h0.8v-8l-0.8,0.1V46.6z
			 M133,38.5c-1,0-1.9,0.4-2.4,1.1h0l-0.1-1l-0.6,0.1v8h0.8v-6.2c0.4-0.7,1.4-1.1,2.2-1.1c1.4,0,2.1,0.6,2.1,1.9v5.4h0.8v-5.4
			C135.7,39.4,134.7,38.5,133,38.5z M140.8,38.5c-2.1,0-3.2,1.3-3.2,3.8c0,3.1,1,4.4,3.6,4.4c0.9,0,1.7-0.2,2.4-0.6l-0.1-0.7
			c-0.7,0.4-1.4,0.6-2.2,0.6c-1.9,0-2.8-0.9-2.8-3.4h5.4c0-0.1,0-0.3,0-0.4C143.9,39.6,142.7,38.5,140.8,38.5z M138.5,42
			c0.1-1.8,0.8-2.8,2.4-2.8c1.3,0,2.3,0.8,2.3,2.8H138.5z M149.2,38.5c-1,0-1.9,0.4-2.4,1.1h0l-0.2-1l-0.6,0.1v8h0.8v-6.2
			c0.4-0.7,1.4-1.1,2.2-1.1c1.4,0,2.1,0.6,2.1,1.9v5.4h0.8v-5.4C151.9,39.4,150.9,38.5,149.2,38.5z M166.1,38.6
			c-1,0-1.9,0.5-2.3,1.3h0c-0.3-0.9-1.1-1.3-2.2-1.3c-0.9,0-1.7,0.4-2.1,1h0l-0.2-1l-0.6,0.1v8h0.8v-6.2c0.4-0.6,1.2-1.1,2-1.1
			c1,0,1.8,0.5,1.8,1.7v5.6h0.8V41c0-1.1,0.9-1.7,1.8-1.7c1.2,0,1.9,0.6,1.9,1.9v5.4h0.8v-5.4C168.7,39.4,167.7,38.6,166.1,38.6z
			 M171.9,35.9c-0.4,0-0.6,0.2-0.6,0.6c0,0.4,0.2,0.6,0.6,0.6s0.6-0.2,0.6-0.6C172.6,36.1,172.3,35.9,171.9,35.9z M171.5,46.6h0.8
			v-8l-0.8,0.1V46.6z M176.6,36.5l-0.7,0.1l-0.2,2.1h-1.3v0.7h1.3v5.4c0,1.4,0.7,2,1.9,2c0.4,0,0.7-0.1,1-0.2l-0.1-0.6
			c-0.2,0.1-0.4,0.1-0.7,0.1c-0.8,0-1.3-0.4-1.3-1.3v-5.4h2.1v-0.7h-2.1V36.5z M185.7,35.9c-0.4,0-0.6,0.2-0.6,0.6
			c0,0.4,0.2,0.6,0.6,0.6s0.6-0.2,0.6-0.6C186.4,36.1,186.2,35.9,185.7,35.9z M185.3,46.6h0.8v-8l-0.8,0.1V46.6z M192.3,38.5
			c-1,0-1.9,0.4-2.4,1.1h0l-0.1-1l-0.6,0.1v8h0.8v-6.2c0.4-0.7,1.4-1.1,2.2-1.1c1.4,0,2.1,0.6,2.1,1.9v5.4h0.8v-5.4
			C195.1,39.4,194,38.5,192.3,38.5z M198.8,36.5l-0.7,0.1l-0.2,2.1h-1.3v0.7h1.3v5.4c0,1.4,0.7,2,1.9,2c0.4,0,0.7-0.1,1-0.2
			l-0.1-0.6c-0.2,0.1-0.4,0.1-0.7,0.1c-0.8,0-1.3-0.4-1.3-1.3v-5.4h2.1v-0.7h-2.1V36.5z M205.3,38.5c-2.1,0-3.2,1.3-3.2,3.8
			c0,3.1,1,4.4,3.6,4.4c0.9,0,1.7-0.2,2.4-0.6l-0.1-0.7c-0.7,0.4-1.4,0.6-2.2,0.6c-1.9,0-2.8-0.9-2.8-3.4h5.4c0-0.1,0-0.3,0-0.4
			C208.4,39.6,207.1,38.5,205.3,38.5z M203,42c0.1-1.8,0.8-2.8,2.4-2.8c1.3,0,2.3,0.8,2.3,2.8H203z M216.2,38.5l-1.3,0.6
			c-0.5-0.4-1.3-0.6-2-0.6c-1.9,0-2.7,0.8-2.7,2.3c0,1,0.4,1.6,1,1.9c-0.7,0.2-1,0.7-1,1.1c0,0.5,0.3,0.9,0.7,1.1
			c-0.6,0.4-0.9,1-0.9,1.6c0,1.3,0.9,2.1,3,2.1c2.4,0,3.3-0.9,3.3-2.3c0-1.1-0.6-1.6-2.6-1.8l-1.8-0.2c-0.7-0.1-0.9-0.3-0.9-0.6
			c0-0.3,0.3-0.6,0.8-0.7c0.4,0.1,0.8,0.1,1.2,0.1c2,0,2.7-0.8,2.7-2.3c0-0.5-0.1-0.9-0.3-1.2l1-0.7L216.2,38.5z M211.7,45.1l2,0.2
			c1.6,0.1,1.9,0.5,1.9,1.2c0,0.9-0.5,1.5-2.5,1.5c-1.6,0-2.2-0.6-2.2-1.5C210.8,46,211.1,45.5,211.7,45.1z M213,42.5
			c-1.1,0-1.9-0.3-1.9-1.6c0-1.1,0.5-1.7,1.9-1.7c1.3,0,1.9,0.4,1.9,1.7C214.9,42,214.4,42.5,213,42.5z M218.9,40.6L218.9,40.6
			l-0.1-1.1l0-0.9l-0.7,0.1v7.9h0.8v-4.1c0-1.9,1.1-3.2,2.5-3.2c0.3,0,0.5,0,0.7,0.1l0.1-0.8c-0.2-0.1-0.5-0.1-0.8-0.1
			C220.3,38.6,219.4,39.4,218.9,40.6z M224.5,46.6h0.8v-8l-0.8,0.1V46.6z M224.9,35.9c-0.4,0-0.6,0.2-0.6,0.6c0,0.4,0.2,0.6,0.6,0.6
			c0.4,0,0.6-0.2,0.6-0.6C225.5,36.1,225.3,35.9,224.9,35.9z M231,38.5c-2.1,0-3.2,1.3-3.2,3.8c0,3.1,1,4.4,3.6,4.4
			c0.9,0,1.7-0.2,2.4-0.6l-0.1-0.7c-0.7,0.4-1.4,0.6-2.2,0.6c-1.9,0-2.8-0.9-2.8-3.4h5.4c0-0.1,0-0.3,0-0.4
			C234,39.6,232.8,38.5,231,38.5z M228.6,42c0.1-1.8,0.8-2.8,2.4-2.8c1.3,0,2.3,0.8,2.3,2.8H228.6z M236.8,40.6L236.8,40.6l-0.1-1.1
			l0-0.9l-0.7,0.1v7.9h0.8v-4.1c0-1.9,1.1-3.2,2.5-3.2c0.3,0,0.5,0,0.7,0.1l0.1-0.8c-0.2-0.1-0.5-0.1-0.8-0.1
			C238.2,38.6,237.3,39.4,236.8,40.6z M243.3,36.5l-0.7,0.1l-0.2,2.1h-1.3v0.7h1.3v5.4c0,1.4,0.7,2,1.9,2c0.4,0,0.7-0.1,1-0.2
			l-0.1-0.6c-0.2,0.1-0.4,0.1-0.7,0.1c-0.8,0-1.3-0.4-1.3-1.3v-5.4h2.1v-0.7h-2.1V36.5z M249.8,38.5c-2.1,0-3.2,1.3-3.2,3.8
			c0,3.1,1,4.4,3.6,4.4c0.9,0,1.7-0.2,2.4-0.6l-0.1-0.7c-0.7,0.4-1.4,0.6-2.2,0.6c-1.9,0-2.8-0.9-2.8-3.4h5.4c0-0.1,0-0.3,0-0.4
			C252.9,39.6,251.7,38.5,249.8,38.5z M247.5,42c0.1-1.8,0.8-2.8,2.4-2.8c1.3,0,2.3,0.8,2.3,2.8H247.5z M255.7,40.6L255.7,40.6
			l-0.1-1.1l0-0.9l-0.7,0.1v7.9h0.8v-4.1c0-1.9,1.1-3.2,2.5-3.2c0.3,0,0.5,0,0.7,0.1l0.1-0.8c-0.2-0.1-0.5-0.1-0.8-0.1
			C257.1,38.6,256.2,39.4,255.7,40.6z M272.7,36.5h-1.1l-3.5,4.4h-1.7v-4.4h-0.9v10.1h0.9v-4.9h1.7l3.7,4.9h1.2l-4-5.3L272.7,36.5z
			 M277.2,38.5c-2.1,0-3.2,1.3-3.2,3.8c0,3.1,1,4.4,3.6,4.4c0.9,0,1.7-0.2,2.4-0.6l-0.1-0.7c-0.7,0.4-1.4,0.6-2.2,0.6
			c-1.9,0-2.8-0.9-2.8-3.4h5.4c0-0.1,0-0.3,0-0.4C280.3,39.6,279,38.5,277.2,38.5z M274.8,42c0.1-1.8,0.8-2.8,2.4-2.8
			c1.3,0,2.3,0.8,2.3,2.8H274.8z M285.6,38.5c-1,0-1.8,0.4-2.4,1l0,0l0-1.1v-2.6l-0.8,0.1v10.7h0.8v-6.2c0.4-0.6,1.2-1.1,2.2-1.1
			c1.4,0,2.1,0.7,2.1,1.9v5.4h0.8v-5.4C288.3,39.5,287.4,38.5,285.6,38.5z M291.5,40.6L291.5,40.6l-0.1-1.1l0-0.9l-0.7,0.1v7.9h0.8
			v-4.1c0-1.9,1.1-3.2,2.5-3.2c0.3,0,0.5,0,0.7,0.1l0.1-0.8c-0.2-0.1-0.5-0.1-0.8-0.1C292.9,38.6,292,39.4,291.5,40.6z M297.2,38.3
			v0.4h-1.3v0.6h1.3v7.3h0.8v-7.3h2.3v-0.6h-2.3v-0.4c0-1.1,0.6-1.8,1.8-1.8c0.4,0,0.7,0.1,1,0.1l0.1-0.6c-0.3-0.1-0.7-0.2-1.1-0.2
			C298,35.9,297.2,36.9,297.2,38.3z M307.2,44.1c0,1.3-0.7,1.9-2.2,1.9c-1.4,0-2.2-0.7-2.2-1.9v-5.4H302v5.5c0,1.7,1,2.7,3,2.7
			c2,0,3-1,3-2.7v-5.5h-0.8V44.1z M313.6,38.5c-1,0-1.9,0.4-2.4,1.1h0l-0.1-1l-0.6,0.1v8h0.8v-6.2c0.4-0.7,1.4-1.1,2.2-1.1
			c1.4,0,2.1,0.6,2.1,1.9v5.4h0.8v-5.4C316.4,39.4,315.3,38.5,313.6,38.5z M324.9,38.7h-1.1L321,42h-1.3v-6.1l-0.8,0.1v10.7h0.8
			v-3.9h1.3l3,3.9h1l-3.3-4.3L324.9,38.7z M327.9,36.5l-0.7,0.1l-0.2,2.1h-1.3v0.7h1.3v5.4c0,1.4,0.7,2,1.9,2c0.4,0,0.7-0.1,1-0.2
			l-0.1-0.6c-0.2,0.1-0.4,0.1-0.7,0.1c-0.8,0-1.3-0.4-1.3-1.3v-5.4h2.1v-0.7h-2.1V36.5z M332.7,35.9c-0.4,0-0.6,0.2-0.6,0.6
			c0,0.4,0.2,0.6,0.6,0.6s0.6-0.2,0.6-0.6C333.3,36.1,333.1,35.9,332.7,35.9z M332.2,46.6h0.8v-8l-0.8,0.1V46.6z M338.9,38.5
			c-2.3,0-3.4,1.2-3.4,4.1c0,3,1,4.1,3.4,4.1c2.4,0,3.3-1.2,3.3-4.1C342.3,39.7,341.3,38.5,338.9,38.5z M338.9,46.1
			c-1.8,0-2.5-0.9-2.5-3.4c0-2.5,0.7-3.4,2.5-3.4c1.8,0,2.5,0.9,2.5,3.4C341.4,45.2,340.7,46.1,338.9,46.1z M347.5,38.5
			c-1,0-1.9,0.4-2.4,1.1h0l-0.1-1l-0.6,0.1v8h0.8v-6.2c0.4-0.7,1.4-1.1,2.2-1.1c1.4,0,2.1,0.6,2.1,1.9v5.4h0.8v-5.4
			C350.3,39.4,349.2,38.5,347.5,38.5z M353.1,45.5c-0.4,0-0.7,0.2-0.7,0.6c0,0.5,0.2,0.6,0.7,0.6c0.4,0,0.6-0.2,0.6-0.6
			C353.7,45.7,353.5,45.5,353.1,45.5z"/>
	</g>
</g>
</svg>
