<?xml version="1.0" encoding="utf-8"?>
<!-- Generator: Adobe Illustrator 16.0.4, SVG Export Plug-In . SVG Version: 6.00 Build 0)  -->
<!DOCTYPE svg PUBLIC "-//W3C//DTD SVG 1.1//EN" "http://www.w3.org/Graphics/SVG/1.1/DTD/svg11.dtd">
<svg version="1.1" id="Ebene_1" xmlns="http://www.w3.org/2000/svg" xmlns:xlink="http://www.w3.org/1999/xlink" x="0px" y="0px"
	 width="318.176px" height="58.079px" viewBox="0 0 318.176 58.079" enable-background="new 0 0 318.176 58.079"
	 xml:space="preserve">
<g>
	<path d="M1.02,5.16h6.03v22.499H1.02V5.16z"/>
	<path d="M23.519,27.659l-6.72-10.38l-1.26-2.07l-0.061,0.031l0.031,2.43v9.989h-5.16V5.16h4.92l7.229,11.67l0.061-0.03L22.498,14.4
		l0.031-9.24h5.159v22.499H23.519z"/>
	<path d="M38.879,27.659h-8.13V5.16h8.01c6.84,0,9.63,3.18,9.63,11.129C48.389,24.539,45.209,27.659,38.879,27.659z M38.789,10.35
		H36.6v12.18h2.189c2.58,0,3.449-0.779,3.449-6.3C42.238,11.25,41.429,10.35,38.789,10.35z"/>
	<path d="M67.889,20.01c0,5.279-2.82,8.039-8.58,8.039s-8.67-2.76-8.67-8.039V5.16h5.881V19.89c0,2.01,0.779,2.909,2.789,2.909
		c2.04,0,2.73-0.84,2.73-2.909V5.16h5.85V20.01z"/>
	<path d="M76.409,28.049c-2.37,0-4.71-0.539-6.54-1.56l0.75-4.979c1.83,0.93,3.689,1.5,5.641,1.5c1.859,0,2.58-0.631,2.58-1.83
		c0-2.88-8.94-1.98-8.94-9.33c0-3.93,2.399-7.049,7.95-7.049c2.069,0,4.289,0.389,5.909,1.079L83.1,10.77
		c-1.711-0.51-3.42-0.81-4.86-0.81c-2.22,0-2.7,0.66-2.7,1.62c0,2.91,8.939,1.92,8.939,9.27
		C84.479,25.289,81.479,28.049,76.409,28.049z"/>
	<path d="M95.908,10.41v17.249h-5.969V10.41h-5.1l0.119-5.25h15.93l0.12,5.25H95.908z"/>
	<path d="M116.039,18.449l4.379,9.21h-6.779l-3-8.04h-1.979v8.04h-5.851V5.16h7.771c5.7,0,8.52,2.16,8.52,7.229
		C119.099,15.39,118.019,17.609,116.039,18.449z M110.699,10.02h-2.04v5.189h2.01c1.71,0,2.31-0.42,2.31-2.609
		C112.979,10.561,112.408,10.02,110.699,10.02z"/>
	<path d="M122.129,5.16h6.029v22.499h-6.029V5.16z"/>
	<path d="M146.067,22.59l-0.12,5.069h-14.489V5.16h14.1l0.12,5.16h-8.369V13.8h6.898v4.71h-6.898v4.08H146.067z"/>
	<path d="M154.197,28.049c-2.369,0-4.709-0.539-6.539-1.56l0.75-4.979c1.83,0.93,3.689,1.5,5.64,1.5c1.86,0,2.579-0.631,2.579-1.83
		c0-2.88-8.939-1.98-8.939-9.33c0-3.93,2.4-7.049,7.95-7.049c2.069,0,4.29,0.389,5.909,1.079l-0.659,4.89
		c-1.71-0.51-3.42-0.81-4.86-0.81c-2.22,0-2.699,0.66-2.699,1.62c0,2.91,8.939,1.92,8.939,9.27
		C162.268,25.289,159.268,28.049,154.197,28.049z"/>
	<path d="M175.408,23.729h-6.121l-0.869,3.93h-6.21l6.659-22.499h7.17l6.78,22.499h-6.54L175.408,23.729z M171.838,12.39
		l-1.439,6.45h3.93l-1.44-6.45l-0.45-2.399h-0.09L171.838,12.39z"/>
	<path d="M200.428,20.01c0,5.279-2.82,8.039-8.58,8.039s-8.67-2.76-8.67-8.039V5.16h5.88V19.89c0,2.01,0.78,2.909,2.79,2.909
		c2.039,0,2.73-0.84,2.73-2.909V5.16h5.85V20.01z"/>
	<path d="M219.177,26.85c-1.56,0.75-4.11,1.229-6.419,1.229c-7.44,0-10.08-3.989-10.08-11.669c0-7.86,3.09-11.641,10.35-11.641
		c1.979,0,4.229,0.36,5.85,0.99l-0.54,5.01c-1.47-0.539-3.36-0.869-4.979-0.869c-3.689,0-4.53,1.379-4.53,6.449
		c0,5.34,0.87,6.51,3.78,6.51c0.449,0,0.93-0.029,1.35-0.12v-7.35h5.22V26.85z"/>
	<path d="M236.457,22.59l-0.121,5.069h-14.488V5.16h14.1l0.119,5.16h-8.369V13.8h6.9v4.71h-6.9v4.08H236.457z"/>
	<path d="M251.938,18.449l4.379,9.21h-6.779l-3-8.04h-1.98v8.04h-5.85V5.16h7.77c5.699,0,8.52,2.16,8.52,7.229
		C254.996,15.39,253.916,17.609,251.938,18.449z M246.598,10.02h-2.041v5.189h2.01c1.711,0,2.311-0.42,2.311-2.609
		C248.877,10.561,248.307,10.02,246.598,10.02z"/>
	<path d="M270.416,10.41v3.959h6.869l-0.029,4.98h-6.84v8.31h-5.879V5.16h14.068l0.09,5.25H270.416z"/>
	<path d="M297.715,20.01c0,5.279-2.82,8.039-8.58,8.039s-8.668-2.76-8.668-8.039V5.16h5.879V19.89c0,2.01,0.779,2.909,2.789,2.909
		c2.041,0,2.73-0.84,2.73-2.909V5.16h5.85V20.01z M286.285,4.08c-1.469,0-2.219-0.57-2.219-2.01c0-1.35,0.75-2.07,2.219-2.07
		c1.531,0,2.221,0.721,2.221,2.07C288.506,3.391,287.816,4.08,286.285,4.08z M292.016,4.08c-1.471,0-2.221-0.57-2.221-2.01
		c0-1.35,0.75-2.07,2.221-2.07c1.529,0,2.221,0.721,2.221,2.07C294.236,3.391,293.545,4.08,292.016,4.08z"/>
	<path d="M313.795,18.449l4.381,9.21h-6.781l-3-8.04h-1.979v8.04h-5.85V5.16h7.77c5.699,0,8.52,2.16,8.52,7.229
		C316.855,15.39,315.775,17.609,313.795,18.449z M308.455,10.02h-2.039v5.189h2.01c1.709,0,2.309-0.42,2.309-2.609
		C310.734,10.561,310.166,10.02,308.455,10.02z"/>
	<path d="M12.75,49.41c0,6.6-3.36,8.669-8.641,8.669c-1.68,0-3.029-0.3-4.109-0.78l0.3-4.89c0.63,0.33,1.62,0.54,2.79,0.54
		c2.46,0,3.66-0.96,3.66-3.66V35.16h6V49.41z"/>
	<path d="M30.419,52.59l-0.12,5.069H15.81V35.16h14.1l0.12,5.16H21.66V43.8h6.898v4.71H21.66v4.08H30.419z"/>
	<path d="M40.799,57.659H32.67V35.16h8.01c6.84,0,9.629,3.18,9.629,11.129C50.309,54.539,47.129,57.659,40.799,57.659z
		 M40.709,40.35H38.52v12.18h2.189c2.58,0,3.45-0.779,3.45-6.3C44.159,41.25,43.35,40.35,40.709,40.35z"/>
	<path d="M67.379,52.59l-0.119,5.069H52.77V35.16h14.1l0.12,5.16h-8.37V43.8h6.9v4.71h-6.9v4.08H67.379z"/>
	<path d="M85.139,57.659h-8.76V35.16h8.82c4.829,0,7.289,2.25,7.289,5.82c0,2.369-1.08,3.899-2.76,4.709v0.061
		c2.25,0.75,3.449,2.49,3.449,5.279C93.178,55.079,90.748,57.659,85.139,57.659z M84.959,40.08h-2.91v3.959h2.97
		c1.351,0,1.83-0.51,1.83-2.039C86.849,40.529,86.339,40.08,84.959,40.08z M85.109,48.42h-3.061v4.439h3.18
		c1.471,0,2.01-0.48,2.01-2.25C87.238,49.049,86.759,48.42,85.109,48.42z"/>
	<path d="M108.748,48.449l4.38,9.21h-6.78l-3-8.04h-1.979v8.04h-5.851V35.16h7.771c5.699,0,8.52,2.16,8.52,7.229
		C111.809,45.39,110.729,47.609,108.748,48.449z M103.408,40.02h-2.039v5.189h2.01c1.709,0,2.31-0.42,2.31-2.609
		C105.688,40.561,105.118,40.02,103.408,40.02z"/>
	<path d="M126.208,53.729h-6.12l-0.869,3.93h-6.211l6.66-22.499h7.17l6.779,22.499h-6.539L126.208,53.729z M122.639,42.39
		l-1.44,6.45h3.93l-1.44-6.45l-0.449-2.399h-0.09L122.639,42.39z"/>
	<path d="M148.287,57.659l-6.72-10.38l-1.26-2.07l-0.06,0.031l0.029,2.43v9.989h-5.16V35.16h4.92l7.23,11.67l0.06-0.03l-0.06-2.399
		l0.029-9.24h5.16v22.499H148.287z"/>
	<path d="M168.987,40.59c-0.99-0.359-2.34-0.6-3.75-0.6c-3.329,0-4.17,1.41-4.17,6.33c0,5.189,0.931,6.629,4.26,6.629
		c1.38,0,2.67-0.27,3.72-0.75l0.541,4.77c-1.351,0.66-3.391,1.08-5.131,1.08c-6.42,0-9.539-3.66-9.539-11.76
		c0-7.559,3.029-11.52,9.899-11.52c1.59,0,3.54,0.36,4.739,0.84L168.987,40.59z"/>
	<path d="M183.057,57.659V48.84h-5.459v8.819h-5.851V35.16h5.851v8.43h5.459v-8.43h5.88v22.499H183.057z"/>
	<path d="M206.576,52.59l-0.119,5.069h-14.49V35.16h14.1l0.12,5.16h-8.37V43.8h6.9v4.71h-6.9v4.08H206.576z"/>
	<path d="M211.227,58.02c-2.1,0-3.029-0.811-3.029-2.85c0-1.83,0.93-2.881,3.029-2.881s3,1.051,3,2.881
		C214.227,56.879,213.326,58.02,211.227,58.02z"/>
</g>
</svg>
