<?xml version="1.0" encoding="utf-8"?>
<!-- Generator: Adobe Illustrator 16.0.0, SVG Export Plug-In . SVG Version: 6.00 Build 0)  -->
<!DOCTYPE svg PUBLIC "-//W3C//DTD SVG 1.1//EN" "http://www.w3.org/Graphics/SVG/1.1/DTD/svg11.dtd">
<svg version="1.1" id="Ebene_1" xmlns="http://www.w3.org/2000/svg" xmlns:xlink="http://www.w3.org/1999/xlink" x="0px" y="0px"
	 width="269.346px" height="54.171px" viewBox="-409.499 348.282 269.346 54.171"
	 enable-background="new -409.499 348.282 269.346 54.171" xml:space="preserve">
<g>
	<path d="M-384.296,401.7l-8.169-17.671h-2.781V401.7h-11.298v-43.453h11.298v16.802h3.013l8.053-16.802h12.688l-10.429,20.8
		l10.95,22.653H-384.296z"/>
	<path d="M-345.363,394.11h-11.819l-1.68,7.59h-11.993l12.862-43.453h13.847l13.094,43.453h-12.631L-345.363,394.11z
		 M-356.661,356.161c-2.839,0-4.287-1.101-4.287-3.882c0-2.607,1.448-3.998,4.287-3.998c2.955,0,4.288,1.391,4.288,3.998
		C-352.373,354.828-353.706,356.161-356.661,356.161z M-352.257,372.21l-2.781,12.456h7.59l-2.781-12.456l-0.869-4.636h-0.173
		L-352.257,372.21z M-345.594,356.161c-2.839,0-4.288-1.101-4.288-3.882c0-2.607,1.449-3.998,4.288-3.998
		c2.955,0,4.287,1.391,4.287,3.998C-341.307,354.828-342.64,356.161-345.594,356.161z"/>
	<path d="M-302.605,383.914l8.459,17.786h-13.094l-5.793-15.527h-3.824V401.7h-11.298v-43.453h15.006
		c11.008,0,16.455,4.171,16.455,13.963C-296.695,378.004-298.781,382.291-302.605,383.914z M-312.918,367.633h-3.94v10.023h3.882
		c3.303,0,4.461-0.812,4.461-5.041C-308.515,368.676-309.616,367.633-312.918,367.633z"/>
	<path d="M-266.164,368.734c-1.912-0.695-4.519-1.16-7.242-1.16c-6.431,0-8.053,2.724-8.053,12.226
		c0,10.022,1.796,12.804,8.227,12.804c2.665,0,5.156-0.521,7.184-1.447l1.043,9.211c-2.607,1.275-6.547,2.086-9.907,2.086
		c-12.398,0-18.424-7.068-18.424-22.711c0-14.601,5.852-22.248,19.12-22.248c3.071,0,6.836,0.695,9.154,1.622L-266.164,368.734z"/>
	<path d="M-238.992,401.7v-17.034h-10.545V401.7h-11.298v-43.453h11.298v16.28h10.545v-16.28h11.355V401.7H-238.992z"/>
	<path d="M-193.569,391.908l-0.232,9.792h-27.984v-43.453h27.231l0.232,9.966h-16.165v6.721h13.326v9.096h-13.326v7.879H-193.569z"
		/>
	<path d="M-163.674,383.914l8.459,17.786h-13.094l-5.793-15.527h-3.824V401.7h-11.298v-43.453h15.006
		c11.008,0,16.455,4.171,16.455,13.963C-157.764,378.004-159.85,382.291-163.674,383.914z M-173.987,367.633h-3.94v10.023h3.882
		c3.303,0,4.461-0.812,4.461-5.041C-169.583,368.676-170.685,367.633-173.987,367.633z"/>
	<path d="M-147.742,402.396c-4.056,0-5.852-1.564-5.852-5.504c0-3.534,1.796-5.562,5.852-5.562s5.794,2.027,5.794,5.562
		C-141.948,400.193-143.687,402.396-147.742,402.396z"/>
</g>
</svg>
