<?xml version="1.0" encoding="utf-8"?>
<!-- Generator: Adobe Illustrator 16.0.0, SVG Export Plug-In . SVG Version: 6.00 Build 0)  -->
<!DOCTYPE svg PUBLIC "-//W3C//DTD SVG 1.1//EN" "http://www.w3.org/Graphics/SVG/1.1/DTD/svg11.dtd">
<svg version="1.1" xmlns="http://www.w3.org/2000/svg" xmlns:xlink="http://www.w3.org/1999/xlink" x="0px" y="0px" width="360.7px"
	 height="193.9px" viewBox="0 0 360.7 193.9" enable-background="new 0 0 360.7 193.9" xml:space="preserve">
<g id="Boundingbox">
	<rect x="0" fill="none" width="360.7" height="193.9"/>
</g>
<g id="Logo">
	<g>
		<path fill="#1A1A18" d="M284.5,155.2c-4.6,0-6.7-2.4-6.7-7.9c0-4.4,2.1-6.8,6-6.8c3.7,0,5.7,2.3,5.7,6.4c0,0.3,0,0.7,0,1.1l0,0.1
			h-9.1c0.1,3.5,1.4,4.9,4.5,4.9c1.4,0,2.6-0.3,3.8-0.9l0.1,0l0.3,2.1l0,0C287.7,154.9,286.1,155.2,284.5,155.2z M280.2,146.4h7
			c-0.1-2.5-1.2-3.8-3.4-3.8C281.5,142.7,280.4,143.8,280.2,146.4z"/>
		<path fill="#1A1A18" d="M272.3,155.3c-4.1,0-6.1-2.5-6.1-7.5c0-4.9,2-7.2,6.2-7.2c1.2,0,2.5,0.3,3.5,0.7l0,0l0,0.1l-0.2,2.1
			l-0.1,0c-0.9-0.4-1.9-0.6-2.9-0.6c-3,0-4.2,1.4-4.2,5c0,3.7,1.3,5.3,4.1,5.3c1.1,0,2.1-0.3,3-0.8l0.1-0.1l0,0.1l0.2,1.9l0,0
			C275.1,154.9,273.7,155.3,272.3,155.3z"/>
		<path fill="#1A1A18" d="M263.3,154.9h-2.4v-9.5c0-2-1-2.9-3.2-2.9c-1.1,0-2.5,0.5-3.2,1.5v10.9h-2.4v-14.3l0.1,0l1.7-0.1l0,0.1
			l0.4,1.4c1-1.1,2.5-1.7,4.2-1.7c3.2,0,4.9,1.8,4.9,5.2V154.9z"/>
		<path fill="#1A1A18" d="M244.1,155.2c-4.6,0-6.7-2.4-6.7-7.9c0-4.4,2.1-6.8,6-6.8c3.7,0,5.7,2.3,5.7,6.4c0,0.3,0,0.7,0,1.1l0,0.1
			h-9.1c0.1,3.5,1.4,4.9,4.5,4.9c1.4,0,2.6-0.3,3.8-0.9l0.1,0l0,0.1l0.3,2l0,0C247.2,154.9,245.8,155.2,244.1,155.2z M239.8,146.4h7
			c-0.1-2.5-1.2-3.8-3.4-3.8C241.1,142.7,240,143.8,239.8,146.4z"/>
		<path fill="#1A1A18" d="M230.5,154.9h-2.4v-14.1l2-0.1l0.2,2.9c0.9-2,2.5-3.1,4.4-3.1c0.5,0,1,0.1,1.4,0.2l0.1,0l0,0.1l-0.2,2.4
			l-0.1,0c-0.4-0.1-0.8-0.2-1.4-0.2c-2.3,0-3.9,2-3.9,4.8V154.9z"/>
		<path fill="#1A1A18" d="M219.9,155.2c-4.6,0-6.7-2.4-6.7-7.9c0-4.4,2.1-6.8,6-6.8c3.7,0,5.7,2.3,5.7,6.4c0,0.3,0,0.7,0,1.1l0,0.1
			h-9.1c0.1,3.5,1.4,4.9,4.5,4.9c1.4,0,2.6-0.3,3.8-0.9l0.1,0l0,0.1l0.3,2l0,0C223,154.9,221.5,155.2,219.9,155.2z M215.6,146.4h7
			c-0.1-2.5-1.2-3.8-3.4-3.8C216.9,142.7,215.8,143.8,215.6,146.4z"/>
		<path fill="#1A1A18" d="M198.7,154.9h-2.4v-12.5h-2.1v-1.9h2.1V140c0-1.6,0.6-4.2,4.7-4.2c0.7,0,1.6,0.1,2.1,0.3l0.1,0l-0.2,1.7
			l-0.1,0c-0.5-0.1-1-0.2-1.5-0.2c-1.8,0-2.7,0.8-2.7,2.4v0.5h3.7v1.9h-3.7V154.9z"/>
		<path fill="#1A1A18" d="M208.1,154.9h-2.4v-12.5h-2.1v-1.9h2.1V140c0-1.6,0.6-4.2,4.7-4.2c0.7,0,1.6,0.1,2.1,0.3l0.1,0l-0.2,1.7
			l-0.1,0c-0.5-0.1-1-0.2-1.5-0.2c-1.8,0-2.7,0.8-2.7,2.4v0.5h3.7v1.9h-3.7V154.9z"/>
		<path fill="#1A1A18" d="M190.8,154.9h-2.4v-14.3l2.4-0.1V154.9z M189.7,138.3c-1.1,0-1.5-0.4-1.5-1.3c0-0.6,0.3-1.3,1.5-1.3
			c1.3,0,1.5,0.7,1.5,1.3C191.2,137.9,190.7,138.3,189.7,138.3z"/>
		<path fill="#1A1A18" d="M177.5,155.2c-3.8,0-5.5-2.3-5.5-7.5c0-5,1.8-7.4,5.6-7.4c1.6,0,3,0.5,4,1.5l0-1.8v-4.1l0.1,0l2.3-0.1
			v19.2H182l-0.3-1.5C180.8,154.6,179.4,155.2,177.5,155.2z M178.2,142.5c-2.7,0-3.7,1.4-3.7,5.3c0,4,0.9,5.4,3.7,5.4
			c2.2,0,3.1-1.3,3.3-1.7v-7.4C180.9,143.1,179.6,142.5,178.2,142.5z"/>
		<path fill="#1A1A18" d="M163.2,154.9h-1.9l-0.2-1.9c-0.9,1.2-2.5,1.9-4.2,1.9c-2.9,0-4.4-1.6-4.4-4.4c0-2.8,1.8-4.4,5.2-4.4
			c1.4,0,2.6,0.3,3.2,0.5v-1.3c0-2.1-0.9-3-3.2-3c-1.5,0-2.7,0.3-4,0.9l-0.1,0l-0.2-2l0,0c1.4-0.6,2.9-0.9,4.6-0.9
			c3.7,0,5.2,1.6,5.2,5.4V154.9z M158,147.9c-2.2,0-3.3,0.8-3.3,2.5c0,1.7,0.9,2.5,2.8,2.5c1.8,0,3.3-1.2,3.3-2.1v-2.4
			C160.4,148.2,159.4,147.9,158,147.9z"/>
		<path fill="#1A1A18" d="M138.7,155.2c-1.8,0-3.3-0.4-4.4-1.2l0,0l0.3-2.1l0.1,0.1c1,0.7,2.6,1.2,4,1.2c1.8,0,2.9-0.8,2.9-2.2
			c0-1.4-1.4-1.8-3.1-2.4c-2-0.6-4.2-1.4-4.2-4c0-2.5,1.9-4,5-4c1.4,0,2.7,0.3,3.9,0.8l0,0l-0.2,2l-0.1,0c-1.1-0.5-2.5-0.7-3.7-0.7
			c-1.7,0-2.7,0.7-2.7,1.8c0,1.2,1.3,1.7,2.9,2.2c2,0.6,4.3,1.4,4.3,4.1C143.8,153.6,142,155.2,138.7,155.2z"/>
		<path fill="#1A1A18" d="M126.8,155.2c-4.6,0-6.7-2.4-6.7-7.9c0-4.4,2.1-6.8,6-6.8c3.7,0,5.7,2.3,5.7,6.4c0,0.3,0,0.7,0,1.1l0,0.1
			h-9.1c0.1,3.5,1.4,4.9,4.5,4.9c1.4,0,2.6-0.3,3.8-0.9l0.1,0l0.3,2.1l0,0C130,154.9,128.4,155.2,126.8,155.2z M122.5,146.4h7
			c-0.1-2.5-1.2-3.8-3.4-3.8C123.8,142.7,122.7,143.8,122.5,146.4z"/>
		<path fill="#1A1A18" d="M119,154.9h-2.8l0,0l-4.4-6.7h-2.1v6.7h-2.4v-19l0.1,0l2.3-0.1v10.4h2.1l4.2-5.6h2.8l-0.1,0.1l-4.8,6.5
			L119,154.9z"/>
		<path fill="#1A1A18" d="M103.5,154.9h-1.9l-0.2-1.9c-0.9,1.2-2.5,1.9-4.2,1.9c-2.9,0-4.4-1.6-4.4-4.4c0-2.8,1.8-4.4,5.2-4.4
			c1.4,0,2.6,0.3,3.2,0.5v-1.3c0-2.1-0.9-3-3.2-3c-1.5,0-2.7,0.3-4,0.9l-0.1,0l-0.2-2l0,0c1.4-0.6,2.9-0.9,4.6-0.9
			c3.7,0,5.2,1.6,5.2,5.4V154.9z M98.3,147.9c-2.2,0-3.3,0.8-3.3,2.5c0,1.7,0.9,2.5,2.8,2.5c1.8,0,3.3-1.2,3.3-2.1v-2.4
			C100.7,148.2,99.7,147.9,98.3,147.9z"/>
		<path fill="#1A1A18" d="M89.7,154.9h-2.4v-9.4c0-1.8-1-2.8-2.9-2.8c-1.3,0-2.7,0.7-2.7,2.5v9.6h-2.4v-9.6c0-2.2-1.7-2.6-2.7-2.6
			c-1.2,0-2.3,0.6-2.9,1.5v10.7h-2.4v-14.1l0.1,0l1.7-0.1l0.4,1.5c0.9-1,2.3-1.6,3.7-1.6c1.9,0,3.2,0.7,3.9,2.2
			c0.8-1.4,2.2-2.2,4-2.2c3,0,4.7,1.8,4.7,5V154.9z"/>
	</g>
	<rect x="38.6" y="90" fill="#FFED00" width="283.5" height="22.9"/>
	<g>
		<path fill="#1A1A18" d="M149.3,52.6c0,3.7-1.4,4.6-5,4.6h-5v-8.8h5.1C148,48.4,149.3,49.3,149.3,52.6L149.3,52.6z M161.9,52.1
			c0-8.6-6-12.8-17.4-12.8h-17.4V78h12V65.2h5l6.5,12.7H165l-9.9-15C159.4,61.4,161.9,57.1,161.9,52.1L161.9,52.1z"/>
		<polygon fill="#1A1A18" points="259,68.4 259,62.6 274.7,62.6 274.7,54.1 259,54.1 259,49 278,49 277.8,39.3 246.9,39.3 246.9,78 
			278.5,78 278.7,68.4 		"/>
		<polygon fill="#1A1A18" points="239.7,78 239.7,39.3 227.7,39.3 227.7,53.6 214.8,53.6 214.8,39.3 202.8,39.3 202.8,78 214.8,78 
			214.8,63.4 227.7,63.4 227.7,78 		"/>
		<path fill="#1A1A18" d="M197.2,40.2c-2.8-0.9-6.7-1.6-10.4-1.6c-14.8,0-21.4,7.7-21.4,19.9c0,13.2,7,20.2,20.4,20.2
			c4,0,8.3-0.9,11.5-2.4l-1.3-8.9c-2.5,1-5.5,1.6-8.7,1.6c-7.4,0-9.3-2.5-9.3-10.5c0-7.6,1.8-10.1,9.2-10.1c3.5,0,6.3,0.5,8.8,1.2
			L197.2,40.2z"/>
		<path fill="#1A1A18" d="M306.4,52.6c0,3.7-1.4,4.6-5,4.6h-5v-8.8h5.1C305.1,48.4,306.4,49.3,306.4,52.6L306.4,52.6z M319,52.1
			c0-8.6-6-12.8-17.4-12.8h-17.4V78h12V65.2h5l6.5,12.7h14.2l-9.9-15C316.5,61.4,319,57.1,319,52.1L319,52.1z"/>
		<path fill="#1A1A18" d="M105.1,62.5h-8.9l3.2-10.1l1.2-4h0.2l1.1,4L105.1,62.5z M123.4,78l-15.7-38.6h-14L78.4,78h12.8l2.1-6.5
			h14.5l2,6.5H123.4z"/>
		<rect x="79.5" y="39.3" fill="#1A1A18" width="9" height="8.2"/>
		<rect x="113.1" y="39.3" fill="#1A1A18" width="9" height="8.2"/>
		<polygon fill="#1A1A18" points="63.9,39.3 54.5,53.8 50.7,53.8 50.7,39.3 38.6,39.3 38.6,78 50.7,78 50.7,62.9 54.4,62.9 63.7,78 
			78.4,78 65.1,57.6 77.7,39.3 		"/>
	</g>
</g>
</svg>
