<?xml version="1.0" encoding="utf-8"?>
<!-- Generator: Adobe Illustrator 16.0.0, SVG Export Plug-In . SVG Version: 6.00 Build 0)  -->
<!DOCTYPE svg PUBLIC "-//W3C//DTD SVG 1.1//EN" "http://www.w3.org/Graphics/SVG/1.1/DTD/svg11.dtd">
<svg version="1.1" id="Ebene_1" xmlns="http://www.w3.org/2000/svg" xmlns:xlink="http://www.w3.org/1999/xlink" x="0px" y="0px"
	 width="77.165px" height="27.625px" viewBox="0 0 77.165 27.625" enable-background="new 0 0 77.165 27.625" xml:space="preserve">
<g id="Text">
	<g>
		<path fill="#FFFFFF" d="M2.708,7.496H0V0h2.668c2.279,0,3.209,1.059,3.209,3.707C5.877,6.457,4.816,7.496,2.708,7.496z
			 M2.678,1.729h-0.73v4.059h0.729c0.859,0,1.149-0.26,1.149-2.1C3.827,2.029,3.558,1.729,2.678,1.729z"/>
		<path fill="#FFFFFF" d="M6.779,0h2.01v7.496h-2.01V0L6.779,0z"/>
		<path fill="#FFFFFF" d="M14.756,5.807l-0.039,1.689H9.889V0h4.697l0.041,1.719h-2.789v1.16h2.299v1.568h-2.299v1.359L14.756,5.807
			L14.756,5.807z"/>
		<path fill="#FFFFFF" d="M21.627,6.186h-2.039l-0.289,1.311H17.23L19.448,0h2.389l2.259,7.496h-2.179L21.627,6.186z M20.438,2.408
			l-0.479,2.148h1.31l-0.48-2.148L20.64,1.609h-0.03L20.438,2.408z"/>
		<path fill="#FFFFFF" d="M28.438,7.496l-1.41-3.049h-0.479v3.049H24.6V0h1.948v2.898h0.521L28.457,0h2.189l-1.8,3.588l1.89,3.908
			H28.438z"/>
		<path fill="#FFFFFF" d="M35.127,7.496l-1.409-3.049h-0.479v3.049H31.29V0h1.949v2.898h0.52L35.146,0h2.189l-1.799,3.588
			l1.889,3.908H35.127z"/>
		<path fill="#FFFFFF" d="M43.656,4.947c0,1.758-0.938,2.678-2.858,2.678c-1.918,0-2.888-0.92-2.888-2.678V0h1.958v4.906
			c0,0.67,0.26,0.971,0.93,0.971c0.68,0,0.91-0.281,0.91-0.971V0h1.948V4.947z"/>
		<path fill="#FFFFFF" d="M47.258,3.098v1.299h-2.789V3.098H47.258z"/>
		<path fill="#FFFFFF" d="M2.568,15.166h-0.62v2.33H0V10h2.568c2.078,0,2.908,0.809,2.908,2.639
			C5.477,14.258,4.667,15.166,2.568,15.166z M2.568,11.629h-0.62v1.988h0.62c0.639,0,0.879-0.148,0.879-0.988
			C3.447,11.818,3.258,11.629,2.568,11.629z"/>
		<path fill="#FFFFFF" d="M10.707,15.756l-0.051,1.74H6.189V10h1.969v5.756H10.707z"/>
		<path fill="#FFFFFF" d="M15.217,16.186h-2.039l-0.289,1.312H10.82L13.038,10h2.389l2.259,7.496h-2.179L15.217,16.186z
			 M14.027,12.408l-0.479,2.148h1.31l-0.48-2.148l-0.149-0.799h-0.03L14.027,12.408z"/>
		<path fill="#FFFFFF" d="M20.787,11.748v5.748h-1.988v-5.748H17.1L17.14,10h5.308l0.039,1.748H20.787z"/>
		<path fill="#FFFFFF" d="M26.518,11.748v5.748h-1.989v-5.748H22.83L22.869,10h5.307l0.041,1.748H26.518z"/>
		<path fill="#FFFFFF" d="M30.777,11.748v1.32h2.289l-0.01,1.659h-2.279v2.77h-1.959V10h4.688l0.03,1.748H30.777z"/>
		<path fill="#FFFFFF" d="M37.078,17.625c-2.16,0-3.139-1.139-3.139-3.877c0-2.748,0.939-3.869,3.139-3.869
			c2.198,0,3.137,1.121,3.137,3.869C40.215,16.566,39.276,17.625,37.078,17.625z M37.067,11.629c-0.819,0-1.079,0.34-1.079,2.119
			c0,1.789,0.27,2.148,1.1,2.148c0.829,0,1.079-0.369,1.079-2.148C38.167,11.959,37.917,11.629,37.067,11.629z"/>
		<path fill="#FFFFFF" d="M45.447,14.428l1.459,3.068h-2.26l-0.999-2.68h-0.659v2.68H41.04V10h2.588
			c1.898,0,2.838,0.719,2.838,2.408C46.465,13.408,46.106,14.146,45.447,14.428z M43.668,11.619h-0.681v1.729h0.671
			c0.567,0,0.77-0.141,0.77-0.869C44.428,11.799,44.237,11.619,43.668,11.619z"/>
		<path fill="#FFFFFF" d="M49.547,10l1.32,3.787l0.25,0.77h0.028l0.25-0.76L52.736,10h2.158v7.496h-1.789v-3.139l0.021-0.812
			l-0.029-0.01l-0.25,0.778l-1.109,3.181h-1.27l-1.1-3.168l-0.25-0.781l-0.021,0.012l0.01,0.809v3.129h-1.709V10H49.547z"/>
		<path fill="#FFFFFF" d="M64.286,10l-2.22,7.496h-2.229L57.629,10h2.147l1.05,4.678l0.17,0.789h0.03l0.159-0.789L62.266,10H64.286z
			"/>
		<path fill="#FFFFFF" d="M67.427,17.625c-2.159,0-3.138-1.139-3.138-3.877c0-2.748,0.938-3.869,3.138-3.869
			c2.198,0,3.138,1.121,3.138,3.869C70.564,16.566,69.625,17.625,67.427,17.625z M67.417,11.629c-0.818,0-1.078,0.34-1.078,2.119
			c0,1.789,0.27,2.148,1.099,2.148s1.079-0.369,1.079-2.148C68.516,11.959,68.266,11.629,67.417,11.629z"/>
		<path fill="#FFFFFF" d="M75.775,17.496l-2.237-3.459l-0.42-0.689l-0.021,0.01l0.01,0.811v3.328h-1.719V10h1.639l2.408,3.887
			l0.021-0.01l-0.021-0.799L75.445,10h1.72v7.496H75.775z"/>
		<path fill="#FFFFFF" d="M3.838,27.496l-1.41-3.049h-0.48v3.049H0V20h1.948v2.898h0.521L3.857,20h2.189l-1.8,3.588l1.89,3.908
			H3.838z"/>
		<path fill="#FFFFFF" d="M10.557,26.186H8.519l-0.29,1.312H6.16L8.379,20h2.389l2.258,7.496h-2.178L10.557,26.186z M8.608,19.641
			c-0.489,0-0.739-0.19-0.739-0.67c0-0.449,0.25-0.689,0.739-0.689c0.51,0,0.739,0.24,0.739,0.689
			C9.348,19.41,9.118,19.641,8.608,19.641z M9.368,22.408l-0.479,2.148h1.309l-0.479-2.148L9.57,21.609H9.537L9.368,22.408z
			 M10.518,19.641c-0.49,0-0.74-0.19-0.74-0.67c0-0.449,0.25-0.689,0.74-0.689c0.51,0,0.739,0.24,0.739,0.689
			C11.257,19.41,11.027,19.641,10.518,19.641z"/>
		<path fill="#FFFFFF" d="M17.938,24.428l1.459,3.068h-2.26l-0.999-2.68h-0.659v2.68H13.53V20h2.588
			c1.899,0,2.839,0.719,2.839,2.408C18.956,23.408,18.597,24.146,17.938,24.428z M16.158,21.619h-0.68v1.729h0.67
			c0.568,0,0.77-0.141,0.77-0.869C16.918,21.799,16.728,21.619,16.158,21.619z"/>
		<path fill="#FFFFFF" d="M24.227,21.809c-0.33-0.119-0.779-0.199-1.249-0.199c-1.109,0-1.39,0.47-1.39,2.107
			c0,1.73,0.311,2.209,1.42,2.209c0.459,0,0.889-0.09,1.238-0.25l0.181,1.59c-0.45,0.221-1.13,0.359-1.709,0.359
			c-2.14,0-3.179-1.219-3.179-3.918c0-2.518,1.01-3.838,3.299-3.838c0.529,0,1.18,0.121,1.578,0.281L24.227,21.809z"/>
		<path fill="#FFFFFF" d="M28.917,27.496v-2.939h-1.819v2.939h-1.949V20h1.949v2.809h1.819V20h1.958v7.496H28.917z"/>
		<path fill="#FFFFFF" d="M36.756,25.807l-0.039,1.689h-4.828V20h4.697l0.041,1.719h-2.789v1.16h2.299v1.568h-2.299v1.359H36.756
			L36.756,25.807z"/>
		<path fill="#FFFFFF" d="M41.917,24.428l1.459,3.068h-2.258l-1-2.68h-0.66v2.68h-1.949V20h2.589c1.898,0,2.838,0.719,2.838,2.408
			C42.936,23.408,42.577,24.146,41.917,24.428z M40.137,21.619h-0.68v1.729h0.67c0.569,0,0.77-0.141,0.77-0.869
			C40.896,21.799,40.708,21.619,40.137,21.619z"/>
		<path fill="#FFFFFF" d="M44.668,27.615c-0.699,0-1.01-0.27-1.01-0.949c0-0.609,0.311-0.959,1.01-0.959s1,0.35,1,0.959
			C45.668,27.236,45.368,27.615,44.668,27.615z"/>
	</g>
</g>
<g id="Screens">
</g>
</svg>
