<?xml version="1.0" encoding="utf-8"?>
<!-- Generator: Adobe Illustrator 16.0.0, SVG Export Plug-In . SVG Version: 6.00 Build 0)  -->
<!DOCTYPE svg PUBLIC "-//W3C//DTD SVG 1.1//EN" "http://www.w3.org/Graphics/SVG/1.1/DTD/svg11.dtd">
<svg version="1.1" id="Ebene_1" xmlns="http://www.w3.org/2000/svg" xmlns:xlink="http://www.w3.org/1999/xlink" x="0px" y="0px"
	 width="86.086px" height="27.766px" viewBox="0 0 86.086 27.766" enable-background="new 0 0 86.086 27.766" xml:space="preserve">
<g id="Text">
	<g>
		<path fill="#FFFFFF" d="M4.247,4.877c0,2.199-1.12,2.889-2.878,2.889c-0.561,0-1.01-0.1-1.369-0.26l0.1-1.629
			c0.209,0.108,0.539,0.18,0.93,0.18c0.818,0,1.219-0.32,1.219-1.219V0.13h1.999L4.247,4.877L4.247,4.877z"/>
		<path fill="#FFFFFF" d="M10.137,5.938l-0.041,1.688H5.27V0.13h4.697l0.039,1.72H7.218v1.158h2.299v1.57H7.218v1.358L10.137,5.938
			L10.137,5.938z"/>
		<path fill="#FFFFFF" d="M14.157,1.879v5.747h-1.989V1.879h-1.699L10.51,0.13h5.307l0.04,1.749H14.157z"/>
		<path fill="#FFFFFF" d="M16.189,7.626V6.356l2.389-3.798l0.439-0.66l-0.01-0.02h-2.759l0.05-1.749h5.008v1.398l-2.309,3.679
			l-0.44,0.649l0.011,0.029h2.758l-0.029,1.739h-5.108V7.626z"/>
		<path fill="#FFFFFF" d="M25.396,1.879v5.747h-1.988V1.879h-1.699l0.04-1.749h5.308l0.039,1.749H25.396z"/>
		<path fill="#FFFFFF" d="M32.098,0.13l1.319,3.788l0.249,0.77h0.031l0.249-0.76l1.339-3.798h2.159v7.496h-1.788V4.488l0.02-0.811
			l-0.03-0.01l-0.25,0.778l-1.109,3.18h-1.269l-1.1-3.169l-0.25-0.779l-0.02,0.01l0.01,0.812v3.128h-1.709V0.13H32.098z"/>
		<path fill="#FFFFFF" d="M38.549,0.13h2.009v7.496h-2.009V0.13z"/>
		<path fill="#FFFFFF" d="M44.927,1.879v5.747h-1.989V1.879h-1.699L41.28,0.13h5.307l0.041,1.749H44.927z"/>
		<path fill="#FFFFFF" d="M50.368,6.287h0.891v-3.89l-1.141,0.63l-0.199-1.519l2.168-1.369h1.131v6.146h0.889v1.339H50.37V6.287
			H50.368z"/>
		<path fill="#FFFFFF" d="M59.956,6.287v1.339h-1.77V6.287h-2.958l-0.16-1.221l2.599-4.938h2.289v4.577h0.609l-0.04,1.58
			L59.956,6.287L59.956,6.287z M58.316,2.828l0.052-0.81l-0.021-0.01l-1.34,2.697h1.238L58.316,2.828z"/>
		<path fill="#FFFFFF" d="M66.775,1.879v5.747h-1.987V1.879h-1.699l0.039-1.749h5.309l0.039,1.749H66.775z"/>
		<path fill="#FFFFFF" d="M72.286,6.316h-2.039l-0.289,1.311h-2.068l2.219-7.496h2.389l2.258,7.496h-2.178L72.286,6.316z
			 M71.097,2.539l-0.479,2.147h1.31l-0.479-2.147l-0.148-0.801h-0.031L71.097,2.539z"/>
		<path fill="#FFFFFF" d="M80.275,7.355c-0.521,0.25-1.369,0.41-2.139,0.41c-2.479,0-3.358-1.329-3.358-3.888
			C74.778,1.26,75.808,0,78.227,0c0.659,0,1.408,0.12,1.949,0.33l-0.182,1.669c-0.488-0.181-1.119-0.29-1.658-0.29
			c-1.229,0-1.51,0.46-1.51,2.147c0,1.779,0.291,2.17,1.26,2.17c0.149,0,0.311-0.01,0.449-0.041V3.538h1.739V7.355z"/>
		<path fill="#FFFFFF" d="M86.036,5.938l-0.041,1.688h-4.826V0.13h4.697l0.039,1.72h-2.787v1.158h2.299v1.57h-2.299v1.358
			L86.036,5.938L86.036,5.938z"/>
		<path fill="#FFFFFF" d="M5.557,17.355c-0.52,0.25-1.369,0.41-2.139,0.41c-2.479,0-3.358-1.329-3.358-3.888
			C0.06,11.26,1.089,10,3.508,10c0.659,0,1.408,0.12,1.949,0.33l-0.181,1.669c-0.489-0.181-1.119-0.29-1.659-0.29
			c-1.229,0-1.509,0.46-1.509,2.147c0,1.779,0.29,2.17,1.259,2.17c0.15,0,0.311-0.01,0.45-0.041v-2.447h1.739L5.557,17.355
			L5.557,17.355z"/>
		<path fill="#FFFFFF" d="M11.316,15.938l-0.04,1.688H6.449V10.13h4.697l0.04,1.72H8.398v1.158h2.299v1.57H8.398v1.358
			L11.316,15.938L11.316,15.938z"/>
		<path fill="#FFFFFF" d="M16.587,15.887l-0.05,1.739h-4.468V10.13h1.969v5.757H16.587z"/>
		<path fill="#FFFFFF" d="M19.938,17.626h-2.709V10.13h2.669c2.278,0,3.208,1.06,3.208,3.708
			C23.105,16.586,22.047,17.626,19.938,17.626z M19.908,11.859h-0.73v4.059h0.73c0.859,0,1.148-0.261,1.148-2.1
			C21.057,12.159,20.787,11.859,19.908,11.859z"/>
		<path fill="#FFFFFF" d="M26.578,13.229v1.299h-2.789v-1.299H26.578z"/>
		<path fill="#FFFFFF" d="M26.889,17.626v-1.271l2.389-3.798l0.44-0.66l-0.011-0.02h-2.758l0.05-1.749h5.007v1.398l-2.309,3.679
			l-0.439,0.649l0.01,0.029h2.759l-0.03,1.739h-5.108V17.626z"/>
		<path fill="#FFFFFF" d="M38.396,15.077c0,1.759-0.939,2.679-2.859,2.679c-1.918,0-2.888-0.92-2.888-2.679V10.13h1.958v4.907
			c0,0.67,0.261,0.97,0.93,0.97c0.68,0,0.91-0.28,0.91-0.97V10.13h1.949V15.077z"/>
		<path fill="#FFFFFF" d="M43.756,14.558l1.459,3.068h-2.258l-1-2.68h-0.659v2.68H39.35V10.13h2.588c1.898,0,2.838,0.72,2.838,2.409
			C44.775,13.538,44.417,14.277,43.756,14.558z M41.978,11.749h-0.68v1.729h0.67c0.569,0,0.77-0.141,0.77-0.869
			C42.737,11.93,42.547,11.749,41.978,11.749z"/>
		<path fill="#FFFFFF" d="M51.275,15.077c0,1.759-0.938,2.679-2.856,2.679c-1.92,0-2.89-0.92-2.89-2.679V10.13h1.959v4.907
			c0,0.67,0.261,0.97,0.931,0.97c0.68,0,0.908-0.28,0.908-0.97V10.13h1.948V15.077z M47.469,9.771c-0.49,0-0.74-0.189-0.74-0.67
			c0-0.45,0.25-0.688,0.74-0.688c0.509,0,0.738,0.238,0.738,0.688C48.208,9.541,47.978,9.771,47.469,9.771z M49.377,9.771
			c-0.49,0-0.74-0.189-0.74-0.67c0-0.45,0.25-0.688,0.74-0.688c0.51,0,0.74,0.238,0.74,0.688
			C50.118,9.541,49.887,9.771,49.377,9.771z"/>
		<path fill="#FFFFFF" d="M56.717,11.939c-0.33-0.12-0.779-0.2-1.25-0.2c-1.109,0-1.389,0.471-1.389,2.108
			c0,1.729,0.31,2.209,1.418,2.209c0.461,0,0.891-0.09,1.239-0.25l0.181,1.59c-0.449,0.221-1.129,0.359-1.709,0.359
			c-2.14,0-3.179-1.219-3.179-3.918c0-2.52,1.011-3.838,3.298-3.838c0.53,0,1.18,0.12,1.579,0.278L56.717,11.939z"/>
		<path fill="#FFFFFF" d="M61.477,17.626l-1.409-3.048h-0.479v3.048H57.64V10.13h1.948v2.897h0.521l1.39-2.897h2.188l-1.799,3.589
			l1.889,3.907H61.477z"/>
		<path fill="#FFFFFF" d="M66.477,13.229v1.299h-2.788v-1.299H66.477z"/>
		<path fill="#FFFFFF" d="M5.557,27.355c-0.52,0.25-1.369,0.41-2.139,0.41c-2.479,0-3.358-1.329-3.358-3.888
			C0.06,21.26,1.089,20,3.508,20c0.659,0,1.408,0.12,1.949,0.33l-0.181,1.669c-0.489-0.181-1.119-0.29-1.659-0.29
			c-1.229,0-1.509,0.46-1.509,2.147c0,1.779,0.29,2.17,1.259,2.17c0.15,0,0.311-0.01,0.45-0.041v-2.447h1.739L5.557,27.355
			L5.557,27.355z"/>
		<path fill="#FFFFFF" d="M10.316,26.316H8.278l-0.29,1.311H5.92l2.219-7.496h2.389l2.258,7.496h-2.178L10.316,26.316z
			 M9.128,22.539l-0.479,2.147h1.309l-0.479-2.147L9.33,21.739H9.297L9.128,22.539z"/>
		<path fill="#FFFFFF" d="M17.697,24.558l1.459,3.068h-2.26l-0.999-2.68h-0.659v2.68h-1.949V20.13h2.588
			c1.899,0,2.839,0.72,2.839,2.409C18.716,23.538,18.356,24.277,17.697,24.558z M15.918,21.749h-0.68v1.729h0.67
			c0.568,0,0.77-0.141,0.77-0.869C16.678,21.93,16.487,21.749,15.918,21.749z"/>
		<path fill="#FFFFFF" d="M23.517,26.316h-2.038l-0.291,1.311H19.12l2.219-7.496h2.389l2.259,7.496h-2.179L23.517,26.316z
			 M22.328,22.539l-0.48,2.147h1.309l-0.479-2.147l-0.15-0.801h-0.029L22.328,22.539z"/>
		<path fill="#FFFFFF" d="M30.877,27.626l-2.239-3.458l-0.42-0.689l-0.021,0.01l0.011,0.811v3.328h-1.72V20.13h1.64l2.409,3.888
			l0.02-0.01l-0.02-0.799l0.01-3.079h1.719v7.496H30.877z"/>
		<path fill="#FFFFFF" d="M36.557,21.879v5.747h-1.988v-5.747H32.87l0.039-1.749h5.308l0.04,1.749H36.557z"/>
		<path fill="#FFFFFF" d="M38.939,20.13h2.008v7.496h-2.008V20.13z"/>
		<path fill="#FFFFFF" d="M46.917,25.938l-0.041,1.688h-4.827V20.13h4.698l0.039,1.72h-2.789v1.158h2.299v1.57h-2.299v1.358
			L46.917,25.938L46.917,25.938z"/>
		<path fill="#FFFFFF" d="M53.187,21.879v5.747h-1.989v-5.747h-1.699l0.041-1.749h5.308l0.04,1.749H53.187z"/>
		<path fill="#FFFFFF" d="M60.355,25.938l-0.04,1.688h-4.827V20.13h4.697l0.04,1.72h-2.788v1.158h2.299v1.57h-2.299v1.358
			L60.355,25.938L60.355,25.938z"/>
		<path fill="#FFFFFF" d="M63.067,27.756c-0.79,0-1.568-0.18-2.179-0.521l0.25-1.658c0.608,0.31,1.229,0.499,1.879,0.499
			c0.619,0,0.858-0.209,0.858-0.609c0-0.959-2.979-0.659-2.979-3.107c0-1.31,0.8-2.35,2.648-2.35c0.688,0,1.43,0.131,1.969,0.36
			l-0.221,1.629c-0.568-0.17-1.14-0.271-1.619-0.271c-0.738,0-0.898,0.221-0.898,0.541c0,0.969,2.979,0.64,2.979,3.088
			C65.756,26.836,64.756,27.756,63.067,27.756z"/>
		<path fill="#FFFFFF" d="M69.566,21.879v5.747h-1.987v-5.747h-1.699l0.039-1.749h5.308l0.04,1.749H69.566z"/>
		<path fill="#FFFFFF" d="M76.735,25.938l-0.04,1.688h-4.827V20.13h4.697l0.04,1.72h-2.789v1.158h2.3v1.57h-2.3v1.358L76.735,25.938
			L76.735,25.938z"/>
		<path fill="#FFFFFF" d="M81.875,27.626l-2.238-3.458l-0.42-0.689l-0.021,0.01l0.011,0.811v3.328h-1.72V20.13h1.64l2.408,3.888
			l0.021-0.01l-0.021-0.799l0.01-3.079h1.721v7.496H81.875z"/>
		<path fill="#FFFFFF" d="M85.088,27.746c-0.699,0-1.01-0.271-1.01-0.949c0-0.61,0.311-0.96,1.01-0.96s0.998,0.35,0.998,0.96
			C86.086,27.366,85.788,27.746,85.088,27.746z"/>
	</g>
</g>
<g id="Screens">
</g>
</svg>
