<?xml version="1.0" encoding="utf-8"?>
<!-- Generator: Adobe Illustrator 16.0.0, SVG Export Plug-In . SVG Version: 6.00 Build 0)  -->
<!DOCTYPE svg PUBLIC "-//W3C//DTD SVG 1.1//EN" "http://www.w3.org/Graphics/SVG/1.1/DTD/svg11.dtd">
<svg version="1.1" id="Ebene_1" xmlns="http://www.w3.org/2000/svg" xmlns:xlink="http://www.w3.org/1999/xlink" x="0px" y="0px"
	 width="88.406px" height="17.746px" viewBox="0 0 88.406 17.746" enable-background="new 0 0 88.406 17.746" xml:space="preserve">
<g id="Text">
	<g>
		<path fill="#FFFFFF" d="M3.238,7.617H0.529V0.121h2.668c2.279,0,3.209,1.059,3.209,3.707C6.406,6.578,5.347,7.617,3.238,7.617z
			 M3.208,1.85H2.479v4.059h0.729c0.859,0,1.149-0.26,1.149-2.1C4.357,2.15,4.088,1.85,3.208,1.85z"/>
		<path fill="#FFFFFF" d="M10.816,6.307H8.778l-0.29,1.311H6.42l2.22-7.496h2.389l2.258,7.496h-2.178L10.816,6.307z M9.628,2.529
			L9.148,4.678h1.309L9.978,2.529L9.828,1.73h-0.03L9.628,2.529z"/>
		<path fill="#FFFFFF" d="M15.768,7.746c-0.789,0-1.568-0.18-2.179-0.52l0.249-1.658c0.61,0.309,1.229,0.5,1.879,0.5
			c0.62,0,0.86-0.211,0.86-0.611c0-0.959-2.979-0.658-2.979-3.107C13.6,1.041,14.398,0,16.248,0c0.689,0,1.43,0.131,1.969,0.361
			L17.996,1.99c-0.567-0.17-1.139-0.27-1.619-0.27c-0.737,0-0.897,0.219-0.897,0.539c0,0.969,2.979,0.639,2.979,3.088
			C18.457,6.826,17.457,7.746,15.768,7.746z"/>
		<path fill="#FFFFFF" d="M25.797,7.617l-2.237-3.459l-0.42-0.689l-0.021,0.01l0.011,0.811v3.328h-1.72V0.121h1.64l2.408,3.887
			l0.021-0.01l-0.021-0.799l0.01-3.078h1.72v7.496H25.797z"/>
		<path fill="#FFFFFF" d="M33.076,5.928l-0.04,1.689h-4.827V0.121h4.697l0.04,1.719h-2.788V3h2.299v1.568h-2.299v1.359L33.076,5.928
			L33.076,5.928z"/>
		<path fill="#FFFFFF" d="M39.506,5.068c0,1.758-0.938,2.678-2.857,2.678s-2.889-0.92-2.889-2.678V0.121h1.958v4.906
			c0,0.67,0.262,0.971,0.931,0.971c0.68,0,0.909-0.281,0.909-0.971V0.121h1.948V5.068z"/>
		<path fill="#FFFFFF" d="M45.326,5.928l-0.04,1.689h-4.827V0.121h4.697l0.04,1.719h-2.788V3h2.299v1.568h-2.299v1.359L45.326,5.928
			L45.326,5.928z"/>
		<path fill="#FFFFFF" d="M4.396,16.307H2.358l-0.29,1.312H0l2.22-7.496h2.389l2.258,7.496H4.688L4.396,16.307z M3.208,12.529
			l-0.479,2.148h1.309l-0.479-2.148L3.408,11.73h-0.03L3.208,12.529z"/>
		<path fill="#FFFFFF" d="M11.207,17.617l-1.409-3.049H9.318v3.049H7.369v-7.496h1.949v2.898h0.52l1.39-2.898h2.188l-1.799,3.588
			l1.889,3.908H11.207z"/>
		<path fill="#FFFFFF" d="M17.896,17.617l-1.408-3.049h-0.48v3.049h-1.948v-7.496h1.948v2.898h0.521l1.39-2.898h2.188l-1.799,3.588
			l1.889,3.908H17.896z"/>
		<path fill="#FFFFFF" d="M26.426,15.068c0,1.758-0.938,2.678-2.857,2.678s-2.888-0.92-2.888-2.678v-4.947h1.958v4.906
			c0,0.67,0.261,0.971,0.93,0.971c0.68,0,0.909-0.281,0.909-0.971v-4.906h1.948V15.068z"/>
		<path fill="#FFFFFF" d="M30.027,13.219v1.299h-2.789v-1.299H30.027z"/>
		<path fill="#FFFFFF" d="M36.586,15.068c0,1.758-0.938,2.678-2.857,2.678s-2.889-0.92-2.889-2.678v-4.947h1.958v4.906
			c0,0.67,0.262,0.971,0.931,0.971c0.68,0,0.909-0.281,0.909-0.971v-4.906h1.948V15.068z"/>
		<path fill="#FFFFFF" d="M41.927,17.617l-2.239-3.459l-0.42-0.689l-0.021,0.01l0.01,0.812v3.328h-1.719v-7.496h1.64l2.408,3.887
			l0.021-0.01L41.587,13.2l0.011-3.078h1.72v7.496L41.927,17.617L41.927,17.617z"/>
		<path fill="#FFFFFF" d="M44.419,10.121h2.01v7.496h-2.01V10.121z"/>
		<path fill="#FFFFFF" d="M53.646,10.121l-2.219,7.496h-2.229l-2.208-7.496h2.148l1.05,4.678l0.17,0.789h0.029l0.159-0.789
			l1.08-4.678H53.646z"/>
		<path fill="#FFFFFF" d="M58.996,15.928l-0.041,1.689h-4.826v-7.496h4.697l0.039,1.719h-2.788V13h2.299v1.568h-2.299v1.359H58.996
			L58.996,15.928z"/>
		<path fill="#FFFFFF" d="M64.156,14.549l1.459,3.068h-2.259l-0.999-2.68h-0.66v2.68h-1.949v-7.496h2.589
			c1.899,0,2.839,0.719,2.839,2.408C65.176,13.529,64.816,14.268,64.156,14.549z M62.377,11.74h-0.68v1.729h0.67
			c0.569,0,0.771-0.141,0.771-0.869C63.137,11.92,62.947,11.74,62.377,11.74z"/>
		<path fill="#FFFFFF" d="M68.067,17.746c-0.79,0-1.569-0.18-2.179-0.52l0.25-1.658c0.608,0.309,1.229,0.5,1.879,0.5
			c0.619,0,0.858-0.211,0.858-0.611c0-0.959-2.979-0.658-2.979-3.107c0-1.309,0.8-2.35,2.647-2.35c0.689,0,1.431,0.131,1.97,0.361
			l-0.221,1.629c-0.568-0.17-1.14-0.27-1.619-0.27c-0.738,0-0.898,0.219-0.898,0.538c0,0.97,2.979,0.64,2.979,3.089
			C70.756,16.826,69.756,17.746,68.067,17.746z"/>
		<path fill="#FFFFFF" d="M77.135,15.068c0,1.758-0.938,2.678-2.857,2.678s-2.888-0.92-2.888-2.678v-4.947h1.958v4.906
			c0,0.67,0.261,0.971,0.93,0.971c0.68,0,0.909-0.281,0.909-0.971v-4.906h1.948V15.068z"/>
		<path fill="#FFFFFF" d="M80.237,10.121l1.319,3.787l0.25,0.77h0.028l0.25-0.76l1.34-3.797h2.158v7.496h-1.789v-3.139l0.021-0.812
			l-0.03-0.011l-0.25,0.779l-1.109,3.181h-1.27l-1.1-3.169l-0.249-0.78l-0.021,0.013l0.01,0.809v3.129h-1.709v-7.496H80.237z"/>
		<path fill="#FFFFFF" d="M87.407,17.736c-0.699,0-1.009-0.271-1.009-0.949c0-0.609,0.31-0.959,1.009-0.959
			c0.7,0,0.999,0.35,0.999,0.959C88.406,17.357,88.107,17.736,87.407,17.736z"/>
	</g>
</g>
<g id="Screens">
</g>
</svg>
