<?xml version="1.0" encoding="utf-8"?>
<!-- Generator: Adobe Illustrator 23.1.1, SVG Export Plug-In . SVG Version: 6.00 Build 0)  -->
<svg version="1.1" id="Ebene_1" xmlns="http://www.w3.org/2000/svg" xmlns:xlink="http://www.w3.org/1999/xlink" x="0px" y="0px"
	 viewBox="0 0 326.02 109.2" style="enable-background:new 0 0 326.02 109.2;" xml:space="preserve">
<style type="text/css">
	.st0{fill-rule:evenodd;clip-rule:evenodd;}
</style>
<path class="st0" d="M295.38,77.73c-4.34,0-6.27-1.68-6.27-5.9c0-3.79,1.92-5.96,6.27-5.96c4.35,0,6.21,2.17,6.21,5.96
	C301.58,75.37,299.72,77.73,295.38,77.73z M273.34,76.99l-6.21-16.63h-4.1v16.63h-12.1V30.44h16.07c11.79,0,17.63,4.47,17.63,14.96
	c0,6.21-2.23,10.8-6.33,12.54l9.06,19.05H273.34z M267.26,40.49h-4.22v10.74h4.16c3.54,0,4.78-0.87,4.78-5.4
	C271.98,41.61,270.8,40.49,267.26,40.49z M246.28,66.5l-0.25,10.49h-29.98V30.44h29.17l0.25,10.67h-17.32v7.2h14.28v9.74h-14.28
	v8.44H246.28z M201.78,76.99h-12.35V41.3h-10.55l0.25-10.86h32.95l0.25,10.86h-10.55V76.99z M161.44,77.79
	c-4.9,0-9.74-1.12-13.53-3.23l1.55-10.3c3.79,1.92,7.63,3.1,11.67,3.1c3.85,0,5.34-1.3,5.34-3.79c0-5.96-18.5-4.1-18.5-19.3
	c0-8.13,4.97-14.58,16.45-14.58c4.28,0,8.88,0.81,12.23,2.23l-1.37,10.12c-3.54-1.05-7.08-1.68-10.05-1.68
	c-4.59,0-5.59,1.37-5.59,3.35c0,6.02,18.49,3.97,18.49,19.18C178.13,72.08,171.93,77.79,161.44,77.79z M130.71,68.86h-12.66
	l-1.8,8.13h-12.85l13.78-46.55h14.83l14.03,46.55h-13.53L130.71,68.86z M125.5,45.4l-0.93-4.96h-0.19l-1.05,4.96l-2.98,13.34h8.13
	L125.5,45.4z M74.67,76.99V30.44H86.9v35.75h15.82l-0.31,10.8H74.67z M69.83,63.27c0,8.38-5.03,13.72-16.63,13.72H35.07V30.44h18.25
	c9.99,0,15.08,4.65,15.08,12.04c0,4.9-2.23,8.07-5.71,9.74v0.12C67.35,53.9,69.83,57.5,69.83,63.27z M52.82,40.62H46.8v8.19h6.15
	c2.79,0,3.78-1.06,3.78-4.22C56.73,41.55,55.68,40.62,52.82,40.62z M53.13,57.87H46.8v9.19h6.58c3.04,0,4.16-0.99,4.16-4.65
	C57.54,59.17,56.55,57.87,53.13,57.87z"/>
</svg>
