<?xml version="1.0" encoding="utf-8"?>
<!-- Generator: Adobe Illustrator 26.2.0, SVG Export Plug-In . SVG Version: 6.00 Build 0)  -->
<svg version="1.1" id="Ebene_1" xmlns="http://www.w3.org/2000/svg" xmlns:xlink="http://www.w3.org/1999/xlink" x="0px" y="0px"
	 viewBox="0 0 728 90" style="enable-background:new 0 0 728 90;" xml:space="preserve">
<style type="text/css">
	.st0{fill:#FFFFFF;}
</style>
<g>
	<path class="st0" d="M611.6,71.6l0.1,1l1-0.3l0.2,0.6l-1,0.4l0.6,0.9l-0.5,0.4l-0.7-0.8l-0.8,0.8l-0.5-0.3l0.6-0.9l-1-0.4l0.2-0.6
		l1,0.3l0.1-1H611.6z"/>
	<path class="st0" d="M617.1,77.9h-2.6l-0.4,1.6h-1.4L615,72h1.6l2.4,7.5h-1.4L617.1,77.9z M615.6,73.8l-0.8,2.9h2l-0.8-2.9
		l-0.2-0.8h0L615.6,73.8z"/>
	<path class="st0" d="M621,75.7h0.8l1.3-2.3h1.3l-1.6,2.8l1.7,3.3h-1.3l-1.4-2.7H621v2.7h-1.2v-7.9l1.2-0.1V75.7z"/>
	<path class="st0" d="M626.7,74.4v3.4c0,0.5,0.3,0.7,0.7,0.7c0.2,0,0.3,0,0.4-0.1l0.1,0.9c-0.2,0.1-0.5,0.2-0.9,0.2
		c-1,0-1.6-0.6-1.6-1.7v-3.5h-0.7v-0.9h0.7l0.2-1.4l0.9-0.1v1.5h1.3v0.9C628,74.4,626.7,74.4,626.7,74.4z"/>
	<path class="st0" d="M629.7,72.7c-0.5,0-0.7-0.2-0.7-0.6c0-0.4,0.2-0.6,0.7-0.6s0.7,0.2,0.7,0.6C630.4,72.5,630.1,72.7,629.7,72.7z
		 M629,79.5v-6l1.2-0.1v6.1C630.3,79.5,629,79.5,629,79.5z"/>
	<path class="st0" d="M634,79.6c-1.7,0-2.5-0.8-2.5-3.1s0.8-3.1,2.5-3.1c1.7,0,2.4,0.8,2.4,3.1C636.4,78.8,635.7,79.6,634,79.6z
		 M634,78.6c0.9,0,1.2-0.4,1.2-2.1s-0.3-2.1-1.2-2.1c-0.9,0-1.2,0.4-1.2,2.1C632.7,78.1,633.1,78.6,634,78.6z"/>
	<path class="st0" d="M640.7,79.5v-4c0-0.7-0.4-1-1-1c-0.4,0-0.8,0.2-1.1,0.5v4.5h-1.2v-6l0.9-0.1l0.2,0.5c0.4-0.4,1-0.6,1.5-0.6
		c1.2,0,1.9,0.7,1.9,2.1v4H640.7z"/>
	<path class="st0" d="M644.6,79.6c-0.7,0-1.2-0.1-1.7-0.4l0.1-1.1c0.4,0.3,1,0.4,1.5,0.4c0.7,0,1-0.3,1-0.8c0-1.2-2.7-0.6-2.7-2.7
		c0-1,0.7-1.8,2-1.8c0.5,0,1.1,0.1,1.5,0.3l-0.1,1c-0.5-0.2-1-0.3-1.4-0.3c-0.6,0-0.9,0.2-0.9,0.7c0,1.1,2.6,0.5,2.6,2.6
		C646.7,78.9,646,79.6,644.6,79.6z"/>
	<path class="st0" d="M650.2,79.6c-0.7,0-1.2-0.3-1.5-0.7l0,0l-0.2,0.5h-0.8v-7.9l1.2-0.1v1.6l0,0.8l0,0c0.4-0.4,0.9-0.6,1.4-0.6
		c1.3,0,2.1,0.8,2.1,3.1C652.4,78.7,651.5,79.6,650.2,79.6z M650,74.4c-0.5,0-0.9,0.2-1.1,0.6v3c0.2,0.3,0.5,0.6,1.1,0.6
		c0.7,0,1.2-0.4,1.2-2.1C651.2,74.8,650.7,74.4,650,74.4z"/>
	<path class="st0" d="M653.1,76.4c0-2,0.8-3,2.4-3c1.4,0,2.2,0.8,2.2,2.8c0,0.2,0,0.4,0,0.6h-3.3c0,1.3,0.5,1.8,1.6,1.8
		c0.5,0,1-0.1,1.5-0.3l0.1,1c-0.5,0.2-1,0.4-1.7,0.4C653.9,79.6,653.1,78.6,653.1,76.4z M656.6,75.9c0-1.1-0.4-1.5-1.1-1.5
		c-0.8,0-1.1,0.4-1.2,1.5H656.6z"/>
	<path class="st0" d="M662.2,79.5l-0.1-0.5l0,0c-0.3,0.4-0.8,0.7-1.5,0.7c-1.4,0-2.1-0.9-2.1-3.2c0-2.1,0.7-3.1,2.1-3.1
		c0.5,0,1,0.2,1.4,0.6l0,0l0-0.8v-1.5l1.2-0.1v7.9C663.2,79.5,662.2,79.5,662.2,79.5z M662,75c-0.2-0.3-0.6-0.5-1.1-0.5
		c-0.9,0-1.2,0.5-1.2,2c0,1.6,0.3,2.1,1.2,2.1c0.6,0,0.9-0.3,1.1-0.6V75z"/>
	<path class="st0" d="M665.3,72.7c-0.5,0-0.7-0.2-0.7-0.6c0-0.4,0.2-0.6,0.7-0.6s0.7,0.2,0.7,0.6C666,72.5,665.8,72.7,665.3,72.7z
		 M664.7,79.5v-6l1.2-0.1v6.1C665.9,79.5,664.7,79.5,664.7,79.5z"/>
	<path class="st0" d="M670.7,79.5v-4c0-0.7-0.4-1-1-1c-0.4,0-0.8,0.2-1.1,0.5v4.5h-1.2v-6l0.9-0.1l0.2,0.5c0.4-0.4,1-0.6,1.5-0.6
		c1.2,0,1.9,0.7,1.9,2.1v4H670.7z"/>
	<path class="st0" d="M674.3,76.9c-0.2,0.1-0.3,0.2-0.3,0.4c0,0.2,0.1,0.3,0.4,0.3l1.3,0.1c1.3,0.1,1.8,0.6,1.8,1.5
		c0,1.1-0.7,1.8-2.5,1.8c-1.5,0-2.2-0.6-2.2-1.6c0-0.4,0.2-0.8,0.5-1.1c-0.3-0.2-0.5-0.4-0.5-0.8c0-0.4,0.2-0.8,0.7-1
		c-0.4-0.3-0.6-0.7-0.6-1.4c0-1.1,0.6-1.8,2-1.8c0.5,0,1,0.1,1.3,0.3l1-0.4l0.3,0.6l-0.6,0.5c0.1,0.2,0.1,0.4,0.1,0.7
		c0,1.2-0.6,1.8-2,1.8C674.8,77,674.6,77,674.3,76.9z M674.3,78.7c-0.2,0.2-0.3,0.4-0.3,0.7c0,0.5,0.3,0.8,1.2,0.8
		c1.1,0,1.4-0.3,1.4-0.7c0-0.3-0.2-0.5-0.9-0.6L674.3,78.7z M674.2,75.2c0,0.7,0.3,0.9,0.9,0.9c0.7,0,0.9-0.3,0.9-0.9
		c0-0.7-0.3-0.9-0.9-0.9C674.4,74.3,674.2,74.6,674.2,75.2z"/>
	<path class="st0" d="M682.8,77.5c0,1.4-0.7,2.1-2.2,2.1c-1.5,0-2.2-0.7-2.2-2.1v-4.1h1.2v4c0,0.7,0.3,1,1,1c0.7,0,1-0.3,1-1v-4h1.2
		V77.5z"/>
	<path class="st0" d="M687.3,79.5v-4c0-0.7-0.4-1-1-1c-0.4,0-0.8,0.2-1.1,0.5v4.5H684v-6l0.9-0.1l0.2,0.5c0.4-0.4,1-0.6,1.5-0.6
		c1.2,0,1.9,0.7,1.9,2.1v4H687.3z"/>
	<path class="st0" d="M691,76.9c-0.2,0.1-0.3,0.2-0.3,0.4c0,0.2,0.1,0.3,0.4,0.3l1.3,0.1c1.3,0.1,1.8,0.6,1.8,1.5
		c0,1.1-0.7,1.8-2.5,1.8c-1.5,0-2.2-0.6-2.2-1.6c0-0.4,0.2-0.8,0.5-1.1c-0.3-0.2-0.5-0.4-0.5-0.8c0-0.4,0.2-0.8,0.7-1
		c-0.4-0.3-0.6-0.7-0.6-1.4c0-1.1,0.6-1.8,2-1.8c0.5,0,1,0.1,1.3,0.3l1-0.4l0.3,0.6l-0.6,0.5c0.1,0.2,0.1,0.4,0.1,0.7
		c0,1.2-0.6,1.8-2,1.8C691.5,77,691.2,77,691,76.9z M690.9,78.7c-0.2,0.2-0.3,0.4-0.3,0.7c0,0.5,0.3,0.8,1.2,0.8
		c1.1,0,1.4-0.3,1.4-0.7c0-0.3-0.2-0.5-0.9-0.6L690.9,78.7z M690.8,75.2c0,0.7,0.3,0.9,0.9,0.9c0.7,0,0.9-0.3,0.9-0.9
		c0-0.7-0.3-0.9-0.9-0.9C691.1,74.3,690.8,74.6,690.8,75.2z"/>
	<path class="st0" d="M694.7,76.4c0-2,0.8-3,2.4-3c1.4,0,2.2,0.8,2.2,2.8c0,0.2,0,0.4,0,0.6h-3.3c0,1.3,0.5,1.8,1.6,1.8
		c0.5,0,1-0.1,1.5-0.3l0.1,1c-0.5,0.2-1,0.4-1.7,0.4C695.5,79.6,694.7,78.6,694.7,76.4z M698.2,75.9c0-1.1-0.4-1.5-1.1-1.5
		c-0.8,0-1.1,0.4-1.2,1.5H698.2z"/>
	<path class="st0" d="M703.6,79.5v-4c0-0.7-0.4-1-1-1c-0.4,0-0.8,0.2-1.1,0.5v4.5h-1.2v-6l0.9-0.1l0.2,0.5c0.4-0.4,1-0.6,1.5-0.6
		c1.2,0,1.9,0.7,1.9,2.1v4H703.6z"/>
</g>
<g>
	<path class="st0" d="M163.7,41.5h-7.3V22.8h7.3c4,0,6.1,1.9,6.1,4.8c0,2-0.9,3.2-2.3,3.9v0c1.9,0.6,2.9,2.1,2.9,4.4
		C170.4,39.4,168.4,41.5,163.7,41.5z M163.6,26.9h-2.4v3.3h2.5c1.1,0,1.5-0.4,1.5-1.7C165.2,27.2,164.7,26.9,163.6,26.9z
		 M163.7,33.8h-2.5v3.7h2.6c1.2,0,1.7-0.4,1.7-1.9C165.5,34.3,165.1,33.8,163.7,33.8z"/>
	<path class="st0" d="M184.5,37.3l-0.1,4.2h-12.1V22.8h11.7l0.1,4.3h-7V30h5.7v3.9h-5.7v3.4H184.5z"/>
	<path class="st0" d="M186.6,22.8h5v18.7h-5V22.8z"/>
	<path class="st0" d="M199.8,22.8l3.3,9.5l0.6,1.9h0.1l0.6-1.9l3.3-9.5h5.4v18.7h-4.5v-7.8l0-2l-0.1,0l-0.6,1.9l-2.8,7.9h-3.2
		l-2.7-7.9l-0.6-1.9l0,0l0,2v7.8h-4.3V22.8H199.8z"/>
	<path class="st0" d="M230.9,41.5l-3.5-7.6h-1.2v7.6h-4.9V22.8h4.9V30h1.3l3.5-7.2h5.5l-4.5,9l4.7,9.8H230.9z"/>
	<path class="st0" d="M247.7,38.2h-5.1l-0.7,3.3h-5.2l5.5-18.7h6l5.6,18.7h-5.4L247.7,38.2z M244.7,28.8l-1.2,5.4h3.3l-1.2-5.4
		l-0.4-2h-0.1L244.7,28.8z"/>
	<path class="st0" d="M268.5,35.1c0,4.4-2.3,6.7-7.1,6.7s-7.2-2.3-7.2-6.7V22.8h4.9V35c0,1.7,0.6,2.4,2.3,2.4c1.7,0,2.3-0.7,2.3-2.4
		V22.8h4.9V35.1z"/>
	<path class="st0" d="M275.8,27.1v3.3h5.7l0,4.1h-5.7v6.9h-4.9V22.8h11.7l0.1,4.4H275.8z"/>
	<path class="st0" d="M302.2,37.3l-0.1,4.2H290V22.8h11.7l0.1,4.3h-7V30h5.7v3.9h-5.7v3.4H302.2z"/>
	<path class="st0" d="M304.2,22.8h5v18.7h-5V22.8z"/>
	<path class="st0" d="M323,41.5l-5.6-8.6l-1-1.7l0,0l0,2v8.3H312V22.8h4.1l6,9.7l0.1,0l-0.1-2l0-7.7h4.3v18.7H323z"/>
	<path class="st0" d="M341.2,37.3l-0.1,4.2H329V22.8h11.7l0.1,4.3h-7V30h5.7v3.9h-5.7v3.4H341.2z"/>
	<path class="st0" d="M347.9,41.8c-2,0-3.9-0.4-5.4-1.3l0.6-4.1c1.5,0.8,3.1,1.2,4.7,1.2c1.5,0,2.1-0.5,2.1-1.5
		c0-2.4-7.4-1.6-7.4-7.8c0-3.3,2-5.9,6.6-5.9c1.7,0,3.6,0.3,4.9,0.9l-0.6,4.1c-1.4-0.4-2.8-0.7-4-0.7c-1.8,0-2.2,0.5-2.2,1.3
		c0,2.4,7.4,1.6,7.4,7.7C354.7,39.5,352.2,41.8,347.9,41.8z"/>
	<path class="st0" d="M166.1,63.2H161l-0.7,3.3h-5.2l5.5-18.7h6l5.6,18.7h-5.4L166.1,63.2z M163.1,53.8l-1.2,5.4h3.3l-1.2-5.4
		l-0.4-2h-0.1L163.1,53.8z"/>
	<path class="st0" d="M183.1,66.5l-3.5-7.6h-1.2v7.6h-4.9V47.8h4.9V55h1.3l3.5-7.2h5.5l-4.5,9l4.7,9.8H183.1z"/>
	<path class="st0" d="M198.4,52.1v14.4h-5V52.1h-4.2l0.1-4.4h13.3l0.1,4.4H198.4z"/>
	<path class="st0" d="M204.4,47.8h5v18.7h-5V47.8z"/>
	<path class="st0" d="M219.5,66.8c-5.4,0-7.8-2.8-7.8-9.7c0-6.9,2.3-9.7,7.8-9.7c5.5,0,7.8,2.8,7.8,9.7
		C227.3,64.2,225,66.8,219.5,66.8z M219.5,51.8c-2,0-2.7,0.8-2.7,5.3c0,4.5,0.7,5.4,2.7,5.4c2.1,0,2.7-0.9,2.7-5.4
		C222.2,52.7,221.6,51.8,219.5,51.8z"/>
	<path class="st0" d="M240.3,66.5l-5.6-8.6l-1-1.7l0,0l0,2v8.3h-4.3V47.8h4.1l6,9.7l0.1,0l-0.1-2l0-7.7h4.3v18.7H240.3z"/>
	<path class="st0" d="M251.3,66.8c-2,0-3.9-0.4-5.4-1.3l0.6-4.1c1.5,0.8,3.1,1.2,4.7,1.2c1.5,0,2.1-0.5,2.1-1.5
		c0-2.4-7.4-1.6-7.4-7.8c0-3.3,2-5.9,6.6-5.9c1.7,0,3.6,0.3,4.9,0.9l-0.6,4.1c-1.4-0.4-2.8-0.7-4-0.7c-1.8,0-2.2,0.5-2.2,1.3
		c0,2.4,7.4,1.6,7.4,7.7C258,64.5,255.5,66.8,251.3,66.8z"/>
	<path class="st0" d="M273,65.8c-1.3,0.6-3.4,1-5.3,1c-6.2,0-8.4-3.3-8.4-9.7c0-6.5,2.6-9.7,8.6-9.7c1.6,0,3.5,0.3,4.9,0.8l-0.4,4.2
		c-1.2-0.4-2.8-0.7-4.1-0.7c-3.1,0-3.8,1.1-3.8,5.4c0,4.4,0.7,5.4,3.1,5.4c0.4,0,0.8,0,1.1-0.1v-6.1h4.3V65.8z"/>
	<path class="st0" d="M287.4,62.3l-0.1,4.2h-12.1V47.8H287l0.1,4.3h-7V55h5.7v3.9h-5.7v3.4H287.4z"/>
	<path class="st0" d="M300.3,58.8l3.6,7.7h-5.6l-2.5-6.7h-1.6v6.7h-4.9V47.8h6.5c4.7,0,7.1,1.8,7.1,6
		C302.8,56.3,301.9,58.1,300.3,58.8z M295.8,51.8h-1.7v4.3h1.7c1.4,0,1.9-0.3,1.9-2.2C297.7,52.3,297.3,51.8,295.8,51.8z"/>
	<path class="st0" d="M314.8,63.2h-5.1l-0.7,3.3h-5.2l5.5-18.7h6l5.6,18.7h-5.4L314.8,63.2z M310,46.9c-1.2,0-1.8-0.5-1.8-1.7
		c0-1.1,0.6-1.7,1.8-1.7c1.3,0,1.8,0.6,1.8,1.7C311.8,46.3,311.2,46.9,310,46.9z M311.9,53.8l-1.2,5.4h3.3l-1.2-5.4l-0.4-2h-0.1
		L311.9,53.8z M314.7,46.9c-1.2,0-1.8-0.5-1.8-1.7c0-1.1,0.6-1.7,1.8-1.7c1.3,0,1.8,0.6,1.8,1.7C316.6,46.3,316,46.9,314.7,46.9z"/>
	<path class="st0" d="M328.7,52.1v14.4h-5V52.1h-4.2l0.1-4.4h13.3l0.1,4.4H328.7z"/>
	<path class="st0" d="M339.2,66.8c-2,0-3.9-0.4-5.4-1.3l0.6-4.1c1.5,0.8,3.1,1.2,4.7,1.2c1.5,0,2.1-0.5,2.1-1.5
		c0-2.4-7.4-1.6-7.4-7.8c0-3.3,2-5.9,6.6-5.9c1.7,0,3.6,0.3,4.9,0.9l-0.6,4.1c-1.4-0.4-2.8-0.7-4-0.7c-1.8,0-2.2,0.5-2.2,1.3
		c0,2.4,7.4,1.6,7.4,7.7C346,64.5,343.5,66.8,339.2,66.8z"/>
	<path class="st0" d="M349.5,66.8c-1.7,0-2.5-0.7-2.5-2.4c0-1.5,0.8-2.4,2.5-2.4c1.7,0,2.5,0.9,2.5,2.4
		C352,65.9,351.3,66.8,349.5,66.8z"/>
	<path class="st0" d="M358.6,47l0.3,2.4l2.3-0.5l0.7,2l-2.2,1.1l1.3,2.1l-1.6,1.2l-1.8-1.8l-1.9,1.8l-1.6-1.1l1.2-2.2l-2.2-1
		l0.8-2.1l2.3,0.5l0.3-2.4H358.6z"/>
</g>
</svg>
