<?xml version="1.0" encoding="utf-8"?>
<!-- Generator: Adobe Illustrator 23.1.1, SVG Export Plug-In . SVG Version: 6.00 Build 0)  -->
<!DOCTYPE svg PUBLIC "-//W3C//DTD SVG 1.1//EN" "http://www.w3.org/Graphics/SVG/1.1/DTD/svg11.dtd" [
	<!ENTITY ns_extend "http://ns.adobe.com/Extensibility/1.0/">
	<!ENTITY ns_ai "http://ns.adobe.com/AdobeIllustrator/10.0/">
	<!ENTITY ns_graphs "http://ns.adobe.com/Graphs/1.0/">
	<!ENTITY ns_vars "http://ns.adobe.com/Variables/1.0/">
	<!ENTITY ns_imrep "http://ns.adobe.com/ImageReplacement/1.0/">
	<!ENTITY ns_sfw "http://ns.adobe.com/SaveForWeb/1.0/">
	<!ENTITY ns_custom "http://ns.adobe.com/GenericCustomNamespace/1.0/">
	<!ENTITY ns_adobe_xpath "http://ns.adobe.com/XPath/1.0/">
]>
<svg version="1.1" id="Ebene_1" xmlns:x="&ns_extend;" xmlns:i="&ns_ai;" xmlns:graph="&ns_graphs;"
	 xmlns="http://www.w3.org/2000/svg" xmlns:xlink="http://www.w3.org/1999/xlink" x="0px" y="0px" viewBox="0 0 182.59 60.76"
	 style="enable-background:new 0 0 182.59 60.76;" xml:space="preserve">
<style type="text/css">
	.st0{fill-rule:evenodd;clip-rule:evenodd;}
</style>
<metadata>
	<sfw  xmlns="&ns_sfw;">
		<slices></slices>
		<sliceSourceBounds  bottomLeftOrigin="true" height="20.76" width="156.15" x="9.2" y="-28.06"></sliceSourceBounds>
	</sfw>
</metadata>
<path class="st0" d="M161.62,27.71l-6-9.27l-1.13-1.85l-0.05,0.03l0.03,2.17v8.92h-4.61V7.61h4.39l6.46,10.42l0.05-0.03l-0.05-2.14
	l0.03-8.25h4.61v20.09H161.62z M138.58,28.06c-5.79,0-8.41-3.05-8.41-10.39c0-7.37,2.52-10.37,8.41-10.37c5.89,0,8.41,3,8.41,10.37
	C147,25.22,144.48,28.06,138.58,28.06z M138.56,11.98c-2.2,0-2.9,0.91-2.9,5.68c0,4.8,0.72,5.76,2.95,5.76
	c2.22,0,2.89-0.99,2.89-5.76C141.5,12.87,140.84,11.98,138.56,11.98z M121.71,7.61h5.38v20.09h-5.38V7.61z M114.66,27.71h-5.33V12.3
	h-4.55l0.11-4.69h14.22l0.11,4.69h-4.55V27.71z M97.6,27.71l-3.78-8.17h-1.29v8.17h-5.22V7.61h5.22v7.77h1.39l3.72-7.77h5.87
	l-4.82,9.62l5.06,10.47H97.6z M78.69,24.2h-5.46l-0.78,3.51H66.9l5.95-20.09h6.4l6.05,20.09h-5.84L78.69,24.2z M76.43,14.07
	l-0.4-2.15h-0.08l-0.46,2.15l-1.29,5.76h3.51L76.43,14.07z M53.58,27.71l-2.68-7.18h-1.77v7.18h-5.22V7.61h6.94
	c5.09,0,7.61,1.93,7.61,6.46c0,2.68-0.96,4.66-2.73,5.41l3.91,8.22H53.58z M50.96,11.95h-1.82v4.64h1.79c1.53,0,2.06-0.38,2.06-2.33
	C52.99,12.44,52.49,11.95,50.96,11.95z M33.04,28.06c-5.14,0-7.74-2.46-7.74-7.18V7.61h5.25v13.16c0,1.79,0.7,2.6,2.49,2.6
	c1.82,0,2.44-0.75,2.44-2.6V7.61h5.23v13.26C40.7,25.59,38.18,28.06,33.04,28.06z M22.97,23.05l-0.08,4.66H9.2v-3.4l6.4-10.18
	l1.18-1.77l-0.03-0.05H9.36l0.13-4.69h13.42v3.75l-6.19,9.86l-1.18,1.74l0.03,0.08H22.97z"/>
</svg>
