<?xml version="1.0" encoding="utf-8"?>
<!-- Generator: Adobe Illustrator 23.1.1, SVG Export Plug-In . SVG Version: 6.00 Build 0)  -->
<!DOCTYPE svg PUBLIC "-//W3C//DTD SVG 1.1//EN" "http://www.w3.org/Graphics/SVG/1.1/DTD/svg11.dtd" [
	<!ENTITY ns_extend "http://ns.adobe.com/Extensibility/1.0/">
	<!ENTITY ns_ai "http://ns.adobe.com/AdobeIllustrator/10.0/">
	<!ENTITY ns_graphs "http://ns.adobe.com/Graphs/1.0/">
	<!ENTITY ns_vars "http://ns.adobe.com/Variables/1.0/">
	<!ENTITY ns_imrep "http://ns.adobe.com/ImageReplacement/1.0/">
	<!ENTITY ns_sfw "http://ns.adobe.com/SaveForWeb/1.0/">
	<!ENTITY ns_custom "http://ns.adobe.com/GenericCustomNamespace/1.0/">
	<!ENTITY ns_adobe_xpath "http://ns.adobe.com/XPath/1.0/">
]>
<svg version="1.1" id="Ebene_1" xmlns:x="&ns_extend;" xmlns:i="&ns_ai;" xmlns:graph="&ns_graphs;"
	 xmlns="http://www.w3.org/2000/svg" xmlns:xlink="http://www.w3.org/1999/xlink" x="0px" y="0px" viewBox="0 0 217.76 66.28"
	 style="enable-background:new 0 0 217.76 66.28;" xml:space="preserve">
<style type="text/css">
	.st0{fill-rule:evenodd;clip-rule:evenodd;}
</style>
<metadata>
	<sfw  xmlns="&ns_sfw;">
		<slices></slices>
		<sliceSourceBounds  bottomLeftOrigin="true" height="60.54" width="188.07" x="2.94" y="-64.1"></sliceSourceBounds>
	</sfw>
</metadata>
<path class="st0" d="M185.26,12.9v-2.68h5.75v2.68H185.26z M178.55,19.56c-1.63,0-3.24-0.37-4.49-1.07l0.52-3.42
	c1.26,0.64,2.54,1.03,3.88,1.03c1.28,0,1.77-0.43,1.77-1.26c0-1.98-6.14-1.36-6.14-6.41c0-2.7,1.65-4.84,5.46-4.84
	c1.42,0,2.95,0.27,4.06,0.74l-0.45,3.36c-1.18-0.35-2.35-0.56-3.34-0.56c-1.53,0-1.85,0.45-1.85,1.11c0,2,6.14,1.32,6.14,6.37
	C184.1,17.66,182.04,19.56,178.55,19.56z M168.26,19.58c-5.11,0-6.93-2.74-6.93-8.02c0-5.4,2.12-8,7.11-8
	c1.36,0,2.91,0.25,4.02,0.68l-0.37,3.44c-1.01-0.37-2.31-0.6-3.42-0.6c-2.54,0-3.11,0.95-3.11,4.43c0,3.67,0.6,4.47,2.6,4.47
	c0.31,0,0.64-0.02,0.93-0.08v-5.05h3.59v7.88C171.6,19.25,169.85,19.58,168.26,19.58z M162.86,62.12c0,1.18-0.62,1.96-2.06,1.96
	c-1.44,0-2.08-0.56-2.08-1.96c0-1.26,0.64-1.98,2.08-1.98C162.24,60.14,162.86,60.86,162.86,62.12z M152.16,12.16l-0.87-1.42
	l-0.04,0.02l0.02,1.67v6.86h-3.55V3.83h3.38l4.97,8.02l0.04-0.02l-0.04-1.65l0.02-6.35h3.55v15.46h-2.87L152.16,12.16z
	 M139.87,19.56c-3.96,0-5.96-1.9-5.96-5.53V3.83h4.04v10.12c0,1.38,0.54,2,1.92,2c1.4,0,1.88-0.58,1.88-2V3.83h4.02v10.2
	C145.77,17.66,143.83,19.56,139.87,19.56z M139.38,25.85c1.42,0,2.95,0.27,4.06,0.74l-0.45,3.36c-1.18-0.35-2.35-0.56-3.34-0.56
	c-1.53,0-1.86,0.45-1.86,1.11c0,2,6.14,1.32,6.14,6.37c0,3.05-2.06,4.95-5.55,4.95c-1.63,0-3.24-0.37-4.49-1.07l0.52-3.42
	c1.26,0.64,2.54,1.03,3.88,1.03c1.28,0,1.77-0.43,1.77-1.26c0-1.98-6.14-1.36-6.14-6.41C133.91,27.99,135.56,25.85,139.38,25.85z
	 M143.31,51.91h-5.75v2.39h4.74v3.24h-4.74v2.8h6.02l-0.08,3.48h-9.96V48.37h9.69L143.31,51.91z M128.8,63.83h-4.1V51.97h-3.5
	l0.08-3.61h10.95l0.08,3.61h-3.5V63.83z M132.08,41.56h-4.14V26.1h4.14V41.56z M127.81,19.58c-5.11,0-6.93-2.74-6.93-8.02
	c0-5.4,2.12-8,7.11-8c1.36,0,2.91,0.25,4.02,0.68l-0.37,3.44c-1.01-0.37-2.31-0.6-3.42-0.6c-2.54,0-3.11,0.95-3.11,4.43
	c0,3.67,0.6,4.47,2.6,4.47c0.31,0,0.64-0.02,0.93-0.08v-5.05h3.59v7.88C131.15,19.25,129.4,19.58,127.81,19.58z M114.88,3.83h4.14
	v15.46h-4.14V3.83z M105.13,12.16l-0.87-1.42l-0.04,0.02l0.02,1.67v6.86h-3.55V3.83h3.38l4.97,8.02l0.04-0.02l-0.04-1.65l0.02-6.35
	h3.55v15.46h-2.87L105.13,12.16z M99.54,35.23l2.96,6.23l4.55-15.36h4.93l4.66,15.46h-4.49l-0.6-2.7h-4.21l-0.6,2.7h-4.19h-0.08
	h-4.58l-2.06-5.53h-1.36v5.53h-4.02V26.1h5.34c3.92,0,5.85,1.48,5.85,4.97C101.64,33.13,100.9,34.65,99.54,35.23z M110.8,35.5
	l-0.99-4.43l-0.31-1.65h-0.06l-0.35,1.65l-0.99,4.43H110.8z M95.87,29.44h-1.4V33h1.38c1.17,0,1.59-0.29,1.59-1.79
	C97.44,29.81,97.04,29.44,95.87,29.44z M94.28,3.83h4.14v15.46h-4.14V3.83z M92.57,15.8l-0.08,3.48h-9.96V3.83h9.69l0.08,3.55h-5.75
	v2.39h4.74V13h-4.74v2.8H92.57z M76.86,19.29l-2.06-5.53h-1.36v5.53h-4.02V3.83h5.34c3.92,0,5.85,1.48,5.85,4.97
	c0,2.06-0.74,3.59-2.1,4.16l3.01,6.33H76.86z M74.84,7.17h-1.4v3.57h1.38c1.17,0,1.59-0.29,1.59-1.79
	C76.4,7.54,76.01,7.17,74.84,7.17z M71.62,41.56h-9.22V26.1h4.06v11.87h5.26L71.62,41.56z M56.55,19.29h-5.59V3.83h5.5
	c4.7,0,6.62,2.18,6.62,7.65C63.08,17.14,60.9,19.29,56.55,19.29z M56.49,7.39h-1.51v8.37h1.51c1.77,0,2.37-0.54,2.37-4.33
	C58.86,8.01,58.3,7.39,56.49,7.39z M60.59,29.64h-5.75v2.39h4.74v3.24h-4.74v2.8h6.02l-0.08,3.48h-9.96V26.1h9.69L60.59,29.64z
	 M53.89,48.37v10.2c0,3.63-1.94,5.53-5.9,5.53c-3.96,0-5.96-1.9-5.96-5.53v-10.2h4.04v10.12c0,1.38,0.54,2,1.92,2
	c1.4,0,1.88-0.58,1.88-2V48.37H53.89z M46.07,41.56h-4.1V29.7h-3.51l0.08-3.61H49.5l0.08,3.61h-3.51V41.56z M41.37,12.16l-0.87-1.42
	l-0.04,0.02l0.02,1.67v6.86h-3.55V3.83h3.38l4.97,8.02l0.04-0.02l-0.04-1.65l0.02-6.35h3.55v15.46h-2.87L41.37,12.16z M29.08,19.56
	c-3.96,0-5.96-1.9-5.96-5.53V3.83h4.04v10.12c0,1.38,0.54,2,1.92,2c1.4,0,1.88-0.58,1.88-2V3.83h4.02v10.2
	C34.98,17.66,33.04,19.56,29.08,19.56z M25.25,41.56H21.1V26.1h4.14V41.56z M29.68,63.83h-4.49l-0.6-2.7h-4.21l-0.6,2.7h-4.27
	l4.58-15.46h4.93L29.68,63.83z M22.86,53.33l-0.31-1.65h-0.06l-0.35,1.65l-0.99,4.43h2.7L22.86,53.33z M15.14,35.08l0.04-1.67
	l-0.06-0.02L14.61,35l-2.29,6.56H9.7l-2.27-6.53l-0.52-1.61l-0.04,0.02l0.02,1.67v6.45H3.37V26.1H7.8l2.72,7.81l0.52,1.59h0.06
	l0.52-1.57l2.76-7.83h4.45v15.46h-3.69V35.08z M14.9,19.54c-1.44,0-2.08-0.56-2.08-1.96c0-1.26,0.64-1.98,2.08-1.98
	c1.44,0,2.06,0.72,2.06,1.98C16.96,18.75,16.34,19.54,14.9,19.54z M10.01,19.54c-1.44,0-2.08-0.56-2.08-1.96
	c0-1.26,0.64-1.98,2.08-1.98c1.44,0,2.06,0.72,2.06,1.98C12.07,18.75,11.45,19.54,10.01,19.54z M5.02,19.54
	c-1.44,0-2.08-0.56-2.08-1.96c0-1.26,0.64-1.98,2.08-1.98s2.06,0.72,2.06,1.98C7.08,18.75,6.46,19.54,5.02,19.54z M15.49,56.01
	c0,5.67-2.18,7.81-6.53,7.81H3.37V48.37h5.5C13.58,48.37,15.49,50.55,15.49,56.01z M7.39,60.3H8.9c1.77,0,2.37-0.54,2.37-4.33
	c0-3.42-0.56-4.04-2.37-4.04H7.39V60.3z M26.73,26.1h10.95l0.08,3.61h-3.5v11.85h-4.1V29.7h-3.5L26.73,26.1z M35.99,52.01
	l-0.02-0.04h-5.69l0.1-3.61h10.33v2.89l-4.76,7.59l-0.91,1.34l0.02,0.06h5.69l-0.06,3.59H30.16v-2.62l4.93-7.83L35.99,52.01z
	 M70.26,51.91h-5.75v2.39h4.74v3.24h-4.74v2.8h6.02l-0.08,3.48h-9.96V48.37h9.69L70.26,51.91z M83.27,53.33
	c0,2.06-0.74,3.59-2.1,4.16l3.01,6.33h-4.66l-2.06-5.53H76.1v5.53h-4.02V48.37h5.34C81.33,48.37,83.27,49.85,83.27,53.33z
	 M76.1,55.27h1.38c1.18,0,1.59-0.29,1.59-1.79c0-1.4-0.39-1.77-1.57-1.77h-1.4V55.27z M77.27,33.83c0-5.4,2.12-8,7.11-8
	c1.36,0,2.91,0.25,4.02,0.68l-0.37,3.44c-1.01-0.37-2.31-0.6-3.42-0.6c-2.54,0-3.11,0.95-3.11,4.43c0,3.67,0.6,4.47,2.6,4.47
	c0.31,0,0.64-0.02,0.93-0.08v-5.05h3.59V41c-1.07,0.52-2.82,0.85-4.41,0.85C79.09,41.85,77.27,39.1,77.27,33.83z M89.21,54.16h3.75
	v-5.79H97v15.46h-4.04v-6.06h-3.75v6.06h-4.02V48.37h4.02V54.16z M107.5,48.37l4.66,15.46h-4.49l-0.6-2.7h-4.21l-0.6,2.7h-4.27
	l4.58-15.46H107.5z M106.32,57.77l-0.99-4.43l-0.31-1.65h-0.06l-0.35,1.65l-0.99,4.43H106.32z M118.92,41.56V29.7h-3.5l0.08-3.61
	h10.95l0.08,3.61h-3.5v11.85H118.92z M117.25,60.24h5.26l-0.1,3.59h-9.21V48.37h4.06V60.24z M153.48,56.38l0.04-0.02l-0.04-1.65
	l0.02-6.35h3.55v15.46h-2.87l-4.62-7.13l-0.87-1.42l-0.04,0.02l0.02,1.67v6.86h-3.55V48.37h3.38L153.48,56.38z"/>
</svg>
