<?xml version="1.0" encoding="utf-8"?>
<!-- Generator: Adobe Illustrator 23.1.1, SVG Export Plug-In . SVG Version: 6.00 Build 0)  -->
<!DOCTYPE svg PUBLIC "-//W3C//DTD SVG 1.1//EN" "http://www.w3.org/Graphics/SVG/1.1/DTD/svg11.dtd" [
	<!ENTITY ns_extend "http://ns.adobe.com/Extensibility/1.0/">
	<!ENTITY ns_ai "http://ns.adobe.com/AdobeIllustrator/10.0/">
	<!ENTITY ns_graphs "http://ns.adobe.com/Graphs/1.0/">
	<!ENTITY ns_vars "http://ns.adobe.com/Variables/1.0/">
	<!ENTITY ns_imrep "http://ns.adobe.com/ImageReplacement/1.0/">
	<!ENTITY ns_sfw "http://ns.adobe.com/SaveForWeb/1.0/">
	<!ENTITY ns_custom "http://ns.adobe.com/GenericCustomNamespace/1.0/">
	<!ENTITY ns_adobe_xpath "http://ns.adobe.com/XPath/1.0/">
]>
<svg version="1.1" id="Ebene_1" xmlns:x="&ns_extend;" xmlns:i="&ns_ai;" xmlns:graph="&ns_graphs;"
	 xmlns="http://www.w3.org/2000/svg" xmlns:xlink="http://www.w3.org/1999/xlink" x="0px" y="0px" viewBox="0 0 217.76 66.28"
	 style="enable-background:new 0 0 217.76 66.28;" xml:space="preserve">
<style type="text/css">
	.st0{fill-rule:evenodd;clip-rule:evenodd;}
</style>
<metadata>
	<sfw  xmlns="&ns_sfw;">
		<slices></slices>
		<sliceSourceBounds  bottomLeftOrigin="true" height="44.37" width="202.9" x="7.43" y="-55.32"></sliceSourceBounds>
	</sfw>
</metadata>
<path class="st0" d="M207.83,55.3c-1.75,0-2.52-0.67-2.52-2.37c0-1.52,0.77-2.4,2.52-2.4c1.75,0,2.5,0.88,2.5,2.4
	C210.33,54.35,209.58,55.3,207.83,55.3z M192.93,55V36.25h4.92v14.4h6.37L204.1,55H192.93z M191.05,50.77l-0.1,4.22h-12.07V36.25
	h11.75l0.1,4.3h-6.97v2.9h5.75v3.92h-5.75v3.4H191.05z M175.28,30.32c-1.98,0-3.92-0.45-5.45-1.3l0.62-4.15
	c1.52,0.77,3.07,1.25,4.7,1.25c1.55,0,2.15-0.53,2.15-1.52c0-2.4-7.45-1.65-7.45-7.77c0-3.27,2-5.87,6.62-5.87
	c1.72,0,3.57,0.32,4.92,0.9l-0.55,4.07c-1.42-0.42-2.85-0.67-4.05-0.67c-1.85,0-2.25,0.55-2.25,1.35c0,2.42,7.45,1.6,7.45,7.72
	C182,28.02,179.5,30.32,175.28,30.32z M161.85,49.17h-1.55V55h-4.87V36.25h6.42c5.2,0,7.27,2.03,7.27,6.6
	C169.13,46.9,167.1,49.17,161.85,49.17z M161.85,40.33h-1.55v4.97h1.55c1.6,0,2.2-0.38,2.2-2.48
	C164.05,40.8,163.58,40.33,161.85,40.33z M168.5,25.77L168.4,30h-12.07V11.25h11.75l0.1,4.3h-6.97v2.9h5.75v3.92h-5.75v3.4H168.5z
	 M150.58,30h-4.97V15.63h-4.25l0.1-4.38h13.27l0.1,4.38h-4.25V30z M135.28,30l-3.52-7.62h-1.2V30h-4.87V11.25h4.87v7.25h1.3
	l3.47-7.25h5.47l-4.5,8.97l4.72,9.77H135.28z M135.18,45.97l0.05-0.03l-0.05-2l0.03-7.7h4.3V55h-3.47l-5.6-8.65l-1.05-1.72
	l-0.05,0.03l0.02,2.02V55h-4.3V36.25h4.1L135.18,45.97z M123.8,25.77L123.7,30h-12.07V11.25h11.75l0.1,4.3h-6.97v2.9h5.75v3.92
	h-5.75v3.4H123.8z M122.85,40.55h-6.97v2.9h5.75v3.92h-5.75v3.4h7.3l-0.1,4.22H111V36.25h11.75L122.85,40.55z M103.08,18.93h5.72
	l-0.03,4.15h-5.7V30h-4.9V11.25h11.72l0.08,4.38h-6.9V18.93z M91.3,30l-2.5-6.7h-1.65V30h-4.87V11.25h6.47c4.75,0,7.1,1.8,7.1,6.02
	c0,2.5-0.9,4.35-2.55,5.05L96.95,30H91.3z M88.85,15.3h-1.7v4.32h1.67c1.42,0,1.92-0.35,1.92-2.17
	C90.75,15.75,90.28,15.3,88.85,15.3z M87.15,55h-4.47v-7.85l0.05-2.02l-0.08-0.02l-0.62,1.95L79.25,55h-3.18l-2.75-7.92l-0.62-1.95
	l-0.05,0.03l0.02,2.02V55h-4.27V36.25h5.37l3.3,9.47l0.62,1.92h0.08l0.62-1.9l3.35-9.5h5.4V55z M80.4,25.77L80.3,30H68.23V11.25
	h11.75l0.1,4.3H73.1v2.9h5.75v3.92H73.1v3.4H80.4z M60.98,51.72h-5.1L55.15,55h-5.17l5.55-18.75h5.97L67.15,55H61.7L60.98,51.72z
	 M58.88,42.28l-0.38-2h-0.08l-0.42,2l-1.2,5.37h3.27L58.88,42.28z M59.18,24.17h-1.55V30h-4.87V11.25h6.42c5.2,0,7.27,2.03,7.27,6.6
	C66.45,21.9,64.43,24.17,59.18,24.17z M59.18,15.33h-1.55v4.97h1.55c1.6,0,2.2-0.38,2.2-2.47C61.38,15.8,60.9,15.33,59.18,15.33z
	 M43.3,55.32c-1.97,0-3.92-0.45-5.45-1.3l0.62-4.15c1.53,0.77,3.08,1.25,4.7,1.25c1.55,0,2.15-0.52,2.15-1.52
	c0-2.4-7.45-1.65-7.45-7.77c0-3.27,2-5.87,6.62-5.87c1.72,0,3.57,0.32,4.92,0.9l-0.55,4.07c-1.42-0.42-2.85-0.67-4.05-0.67
	c-1.85,0-2.25,0.55-2.25,1.35c0,2.42,7.45,1.6,7.45,7.72C50.03,53.02,47.53,55.32,43.3,55.32z M35.5,21.35l-1.05-1.72l-0.05,0.02
	l0.03,2.02V30h-4.3V11.25h4.1l6.02,9.72l0.05-0.03l-0.05-2l0.03-7.7h4.3V30H41.1L35.5,21.35z M31.33,36.25h4.87v12.37
	c0,4.4-2.35,6.7-7.15,6.7s-7.22-2.3-7.22-6.7V36.25h4.9v12.27c0,1.67,0.65,2.42,2.33,2.42c1.7,0,2.27-0.7,2.27-2.42V36.25z
	 M22.36,11.25h5.02V30h-5.02V11.25z M7.43,55v-3.17l5.97-9.5l1.1-1.65l-0.02-0.05h-6.9l0.12-4.38h12.52v3.5l-5.77,9.2l-1.1,1.62
	l0.02,0.08h6.9L20.2,55H7.43z M20.28,25.77L20.18,30H8.11V11.25h11.75l0.1,4.3h-6.97v2.9h5.75v3.92h-5.75v3.4H20.28z M98.38,45.72
	L99,47.65h0.07l0.62-1.9l3.35-9.5h5.4V55h-4.47v-7.85l0.05-2.02l-0.07-0.02l-0.62,1.95L100.55,55h-3.17l-2.75-7.92L94,45.13
	l-0.05,0.03l0.03,2.02V55h-4.27V36.25h5.37L98.38,45.72z M146.83,51.12c1.55,0,2.15-0.52,2.15-1.52c0-2.4-7.45-1.65-7.45-7.77
	c0-3.27,2-5.87,6.62-5.87c1.73,0,3.57,0.32,4.92,0.9l-0.55,4.07c-1.43-0.42-2.85-0.67-4.05-0.67c-1.85,0-2.25,0.55-2.25,1.35
	c0,2.42,7.45,1.6,7.45,7.72c0,3.7-2.5,6-6.72,6c-1.97,0-3.92-0.45-5.45-1.3l0.62-4.15C143.65,50.65,145.2,51.12,146.83,51.12z
	 M176.13,55h-5.02V36.25h5.02V55z"/>
</svg>
