<?xml version="1.0" encoding="utf-8"?>
<!-- Generator: Adobe Illustrator 23.1.1, SVG Export Plug-In . SVG Version: 6.00 Build 0)  -->
<!DOCTYPE svg PUBLIC "-//W3C//DTD SVG 1.1//EN" "http://www.w3.org/Graphics/SVG/1.1/DTD/svg11.dtd" [
	<!ENTITY ns_extend "http://ns.adobe.com/Extensibility/1.0/">
	<!ENTITY ns_ai "http://ns.adobe.com/AdobeIllustrator/10.0/">
	<!ENTITY ns_graphs "http://ns.adobe.com/Graphs/1.0/">
	<!ENTITY ns_vars "http://ns.adobe.com/Variables/1.0/">
	<!ENTITY ns_imrep "http://ns.adobe.com/ImageReplacement/1.0/">
	<!ENTITY ns_sfw "http://ns.adobe.com/SaveForWeb/1.0/">
	<!ENTITY ns_custom "http://ns.adobe.com/GenericCustomNamespace/1.0/">
	<!ENTITY ns_adobe_xpath "http://ns.adobe.com/XPath/1.0/">
]>
<svg version="1.1" id="Ebene_1" xmlns:x="&ns_extend;" xmlns:i="&ns_ai;" xmlns:graph="&ns_graphs;"
	 xmlns="http://www.w3.org/2000/svg" xmlns:xlink="http://www.w3.org/1999/xlink" x="0px" y="0px" viewBox="0 0 217.76 66.28"
	 style="enable-background:new 0 0 217.76 66.28;" xml:space="preserve">
<style type="text/css">
	.st0{fill-rule:evenodd;clip-rule:evenodd;}
</style>
<metadata>
	<sfw  xmlns="&ns_sfw;">
		<slices></slices>
		<sliceSourceBounds  bottomLeftOrigin="true" height="50.37" width="177.94" x="10.84" y="-55.5"></sliceSourceBounds>
	</sfw>
</metadata>
<path class="st0" d="M184.54,13.8v14.37h-4.97V13.8h-4.25l0.1-4.37h13.27l0.1,4.37H184.54z M170.51,8.52
	c-1.23,0-1.85-0.48-1.85-1.68c0-1.12,0.62-1.72,1.85-1.72c1.27,0,1.85,0.6,1.85,1.72C172.36,7.95,171.79,8.52,170.51,8.52z
	 M165.74,8.52c-1.22,0-1.85-0.48-1.85-1.68c0-1.12,0.62-1.72,1.85-1.72c1.27,0,1.85,0.6,1.85,1.72
	C167.59,7.95,167.01,8.52,165.74,8.52z M165.16,9.42h5.97l5.65,18.75h-5.45l-0.72-3.27h-5.1l-0.73,3.27h-5.08h-0.1h-5.55l-2.5-6.7
	h-1.65v6.7h-4.87V9.42h6.47c4.75,0,7.1,1.8,7.1,6.02c0,2.5-0.9,4.35-2.55,5.05l3.59,7.55L165.16,9.42z M169.71,20.82l-1.2-5.37
	l-0.38-2h-0.07l-0.43,2l-1.2,5.37H169.71z M151.61,13.47h-1.7v4.32h1.68c1.42,0,1.92-0.35,1.92-2.17
	C153.51,13.92,153.04,13.47,151.61,13.47z M143.16,23.95l-0.1,4.22h-12.07V9.42h11.75l0.1,4.3h-6.97v2.9h5.75v3.92h-5.75v3.4H143.16
	z M123.41,28.52c-6.2,0-8.4-3.33-8.4-9.72c0-6.55,2.57-9.7,8.62-9.7c1.65,0,3.52,0.3,4.87,0.82l-0.45,4.17
	c-1.23-0.45-2.8-0.73-4.15-0.73c-3.08,0-3.78,1.15-3.78,5.37c0,4.45,0.72,5.42,3.15,5.42c0.38,0,0.78-0.03,1.12-0.1v-6.12h4.35v9.55
	C127.46,28.12,125.34,28.52,123.41,28.52z M116.84,53.1c0,1.42-0.75,2.38-2.5,2.38c-1.75,0-2.53-0.67-2.53-2.38
	c0-1.52,0.78-2.4,2.53-2.4C116.09,50.7,116.84,51.57,116.84,53.1z M107.04,28.5c-1.97,0-3.92-0.45-5.45-1.3l0.62-4.15
	c1.52,0.77,3.07,1.25,4.7,1.25c1.55,0,2.15-0.53,2.15-1.53c0-2.4-7.45-1.65-7.45-7.77c0-3.27,2-5.87,6.62-5.87
	c1.72,0,3.58,0.32,4.92,0.9l-0.55,4.07c-1.42-0.43-2.85-0.68-4.05-0.68c-1.85,0-2.25,0.55-2.25,1.35c0,2.42,7.45,1.6,7.45,7.72
	C113.76,26.2,111.26,28.5,107.04,28.5z M90.51,19.52l-1.05-1.73l-0.05,0.02l0.03,2.02v8.32h-4.3V9.42h4.1l6.02,9.72l0.05-0.02
	l-0.05-2l0.03-7.7h4.3v18.75h-3.47L90.51,19.52z M75.24,28.5c-5.4,0-7.85-2.85-7.85-9.7c0-6.87,2.35-9.67,7.85-9.67
	c5.5,0,7.85,2.8,7.85,9.67C83.09,25.85,80.74,28.5,75.24,28.5z M75.21,13.5c-2.05,0-2.7,0.85-2.7,5.3c0,4.47,0.67,5.37,2.75,5.37
	c2.07,0,2.7-0.93,2.7-5.37C77.96,14.32,77.34,13.5,75.21,13.5z M60.12,9.42h5.02v18.75h-5.02V9.42z M52.27,55.5
	c-4.8,0-7.22-2.3-7.22-6.7V36.42h4.9V48.7c0,1.68,0.65,2.43,2.32,2.43c1.7,0,2.27-0.7,2.27-2.43V36.42h4.87V48.8
	C59.41,53.2,57.06,55.5,52.27,55.5z M54.16,28.17h-4.97V13.8h-4.25l0.1-4.37h13.27l0.1,4.37h-4.25V28.17z M38.56,51.9h-5.1
	l-0.72,3.27h-5.17l5.55-18.75h5.97l5.65,18.75h-5.45L38.56,51.9z M36.46,42.45l-0.37-2h-0.08l-0.42,2l-1.2,5.37h3.27L36.46,42.45z
	 M38.86,28.17l-3.52-7.62h-1.2v7.62h-4.87V9.42h4.87v7.25h1.3l3.47-7.25h5.47l-4.5,8.97l4.72,9.77H38.86z M21.84,24.9h-5.1
	l-0.73,3.27h-5.17l5.55-18.75h5.97l5.65,18.75h-5.45L21.84,24.9z M19.74,15.45l-0.38-2h-0.08l-0.42,2l-1.2,5.37h3.27L19.74,15.45z
	 M17.04,43.67h1.3l3.47-7.25h5.47l-4.5,8.97l4.72,9.77h-5.75l-3.52-7.62h-1.2v7.62h-4.87V36.42h4.87V43.67z M73.59,40.8h-6.9v3.3
	h5.72l-0.03,4.15h-5.7v6.92h-4.9V36.42h11.72L73.59,40.8z M87.09,40.72h-6.97v2.9h5.75v3.92h-5.75v3.4h7.3l-0.1,4.22H75.24V36.42
	h11.75L87.09,40.72z M99.41,46.15l0.05-0.02l-0.05-2l0.03-7.7h4.3v18.75h-3.47l-5.6-8.65l-1.05-1.72l-0.05,0.02l0.03,2.03v8.32h-4.3
	V36.42h4.1L99.41,46.15z M108.29,50.7c1.75,0,2.5,0.88,2.5,2.4c0,1.42-0.75,2.38-2.5,2.38s-2.52-0.67-2.52-2.38
	C105.77,51.57,106.54,50.7,108.29,50.7z M120.26,50.7c1.75,0,2.5,0.88,2.5,2.4c0,1.42-0.75,2.38-2.5,2.38
	c-1.75,0-2.52-0.67-2.52-2.38C117.74,51.57,118.51,50.7,120.26,50.7z"/>
</svg>
