<?xml version="1.0" encoding="utf-8"?>
<!-- Generator: Adobe Illustrator 23.1.1, SVG Export Plug-In . SVG Version: 6.00 Build 0)  -->
<!DOCTYPE svg PUBLIC "-//W3C//DTD SVG 1.1//EN" "http://www.w3.org/Graphics/SVG/1.1/DTD/svg11.dtd" [
	<!ENTITY ns_extend "http://ns.adobe.com/Extensibility/1.0/">
	<!ENTITY ns_ai "http://ns.adobe.com/AdobeIllustrator/10.0/">
	<!ENTITY ns_graphs "http://ns.adobe.com/Graphs/1.0/">
	<!ENTITY ns_vars "http://ns.adobe.com/Variables/1.0/">
	<!ENTITY ns_imrep "http://ns.adobe.com/ImageReplacement/1.0/">
	<!ENTITY ns_sfw "http://ns.adobe.com/SaveForWeb/1.0/">
	<!ENTITY ns_custom "http://ns.adobe.com/GenericCustomNamespace/1.0/">
	<!ENTITY ns_adobe_xpath "http://ns.adobe.com/XPath/1.0/">
]>
<svg version="1.1" id="Ebene_1" xmlns:x="&ns_extend;" xmlns:i="&ns_ai;" xmlns:graph="&ns_graphs;"
	 xmlns="http://www.w3.org/2000/svg" xmlns:xlink="http://www.w3.org/1999/xlink" x="0px" y="0px" viewBox="0 0 234.7 177.4"
	 style="enable-background:new 0 0 234.7 177.4;" xml:space="preserve">
<style type="text/css">
	.st0{fill-rule:evenodd;clip-rule:evenodd;}
</style>
<metadata>
	<sfw  xmlns="&ns_sfw;">
		<slices></slices>
		<sliceSourceBounds  bottomLeftOrigin="true" height="137.5" width="190.3" x="22.2" y="50.9"></sliceSourceBounds>
	</sfw>
</metadata>
<path class="st0" d="M206.5,64.7l-0.8-3.6h-5.6l-0.8,3.6h-5.7l6.1-20.5h6.5l6.2,20.5H206.5z M203.4,50.8l-0.4-2.2h-0.1l-0.5,2.2
	l-1.3,5.9h3.6L203.4,50.8z M187.5,56.2l0.1-2.2l-0.1,0l-0.7,2.1l-3,8.7h-3.5l-3-8.6l-0.7-2.1l-0.1,0l0,2.2v8.5h-4.7V44.3h5.9
	l3.6,10.3l0.7,2.1h0.1l0.7-2.1l3.7-10.4h5.9v20.5h-4.9V56.2z M161.6,94.2c-5.2,0-7.9-2.5-7.9-7.3V73.3h5.4v13.4
	c0,1.8,0.7,2.6,2.5,2.6c1.9,0,2.5-0.8,2.5-2.6V73.3h5.3v13.5C169.4,91.6,166.9,94.2,161.6,94.2z M163.4,44.3h5.5v20.5h-5.5V44.3z
	 M149.1,64.7V44.3h5.4V60h7l-0.1,4.7H149.1z M141.3,64.7l-3.9-8.3h-1.3v8.3h-5.3V44.3h5.3v7.9h1.4l3.8-7.9h6l-4.9,9.8l5.2,10.7
	H141.3z M140.9,29.4c0,4-2.7,6.5-7.3,6.5c-2.2,0-4.3-0.5-6-1.4l0.7-4.5c1.7,0.8,3.4,1.4,5.1,1.4c1.7,0,2.3-0.6,2.3-1.7
	c0-2.6-8.1-1.8-8.1-8.5c0-3.6,2.2-6.4,7.2-6.4c1.9,0,3.9,0.4,5.4,1l-0.6,4.4c-1.6-0.5-3.1-0.7-4.4-0.7c-2,0-2.5,0.6-2.5,1.5
	C132.8,23.7,140.9,22.8,140.9,29.4z M126.2,31l-0.1,4.6h-13.2V15.2h12.8l0.1,4.7h-7.6V23h6.3v4.3h-6.3V31H126.2z M105.3,35.6
	l-2.7-7.3h-1.8v7.3h-5.3V15.2h7.1c5.2,0,7.8,2,7.8,6.6c0,2.7-1,4.7-2.8,5.5l4,8.4H105.3z M102.7,19.6h-1.9v4.7h1.8
	c1.6,0,2.1-0.4,2.1-2.4C104.7,20.1,104.2,19.6,102.7,19.6z M93.4,31l-0.1,4.6H80.1V15.2H93l0.1,4.7h-7.6V23h6.3v4.3h-6.3V31H93.4z
	 M72,27.6h-5v8h-5.3V15.2h5.3v7.7h5v-7.7h5.4v20.5H72V27.6z M55.9,31.3c1.3,0,2.4-0.2,3.4-0.7l0.5,4.3c-1.2,0.6-3.1,1-4.7,1
	c-5.8,0-8.7-3.3-8.7-10.7c0-6.9,2.8-10.5,9-10.5c1.4,0,3.2,0.3,4.3,0.8l-0.5,4.5c-0.9-0.3-2.1-0.5-3.4-0.5c-3,0-3.8,1.3-3.8,5.8
	C52,30,52.9,31.3,55.9,31.3z M38.5,15.2H44v20.5h-5.5V15.2z M36.3,29.4c0,4-2.7,6.5-7.3,6.5c-2.2,0-4.3-0.5-6-1.4l0.7-4.5
	c1.7,0.8,3.4,1.4,5.1,1.4c1.7,0,2.3-0.6,2.3-1.7c0-2.6-8.1-1.8-8.1-8.5c0-3.6,2.2-6.4,7.2-6.4c1.9,0,3.9,0.4,5.4,1l-0.6,4.4
	c-1.6-0.5-3.1-0.7-4.4-0.7c-2,0-2.5,0.6-2.5,1.5C28.2,23.7,36.3,22.8,36.3,29.4z M34.8,44.3L41,64.7h-6l-0.8-3.6h-5.6l-0.8,3.6h-5.7
	l6.1-20.5H34.8z M33.2,56.7l-1.3-5.9l-0.4-2.2h-0.1L31,50.8l-1.3,5.9H33.2z M34.8,131.5L41,152h-6l-0.8-3.6h-5.6l-0.8,3.6h-5.7
	l6.1-20.5H34.8z M33.2,144l-1.3-5.9l-0.4-2.2h-0.1l-0.5,2.2l-1.3,5.9H33.2z M54,107.1h-7.6v3.2h6.3v4.3h-6.3v3.7h8l-0.1,4.6H41
	v-20.5h12.8L54,107.1z M55.2,136.3h-7.5v3.6h6.3l0,4.5h-6.2v7.6h-5.4v-20.5h12.8L55.2,136.3z M62.1,122.9h-5.5v-20.5h5.5V122.9z
	 M73.4,131.6v16.8h2.4v3.7H65.6v-3.7H68v-10.6l-3.1,1.7l-0.5-4.1l5.9-3.7H73.4z M69.2,78.1h-4.6v15.7h-5.4V78.1h-4.6l0.1-4.8h14.5
	L69.2,78.1z M52.6,93.8h-5.5V73.3h5.5V93.8z M23.6,73.3h5.9l3.6,10.3l0.7,2.1h0.1l0.7-2.1l3.7-10.4h5.9v20.5h-4.9v-8.6l0.1-2.2
	l-0.1,0l-0.7,2.1l-3,8.7H32l-3-8.6L28.3,83l-0.1,0l0,2.2v8.5h-4.7V73.3z M23.6,122.9v-20.5h7.1c5.2,0,7.8,2,7.8,6.6
	c0,2.7-1,4.7-2.8,5.5l4,8.4h-6.2l-2.7-7.3H29v7.3H23.6z M30.8,111.6c1.6,0,2.1-0.4,2.1-2.4c0-1.9-0.5-2.3-2.1-2.3H29v4.7H30.8z
	 M52.2,64.7l-2.7-7.3h-1.8v7.3h-5.3V44.3h7.1c5.2,0,7.8,2,7.8,6.6c0,2.7-1,4.7-2.8,5.5l4,8.4H52.2z M49.5,48.7h-1.9v4.7h1.8
	c1.6,0,2.1-0.4,2.1-2.4C51.6,49.2,51.1,48.7,49.5,48.7z M75,58.7c0,3.7-2.2,6-7.3,6h-8V44.3h8c4.4,0,6.6,2,6.6,5.3
	c0,2.2-1,3.5-2.5,4.3v0.1C73.9,54.6,75,56.2,75,58.7z M67.5,48.7h-2.6v3.6h2.7c1.2,0,1.7-0.5,1.7-1.9C69.2,49.1,68.8,48.7,67.5,48.7
	z M67.6,56.3h-2.8v4h2.9c1.3,0,1.8-0.4,1.8-2C69.6,56.9,69.1,56.3,67.6,56.3z M69.8,111.6L69.8,111.6l0,2.2v9.1h-4.7v-20.5h4.5
	l6.6,10.6l0.1,0l-0.1-2.2l0-8.4h4.7v20.5h-3.8l-6.1-9.4L69.8,111.6z M85.9,131.3c5,0,7.2,2.8,7.2,10.6c0,7.3-2.3,10.4-7.2,10.4
	c-5.1,0-7.1-3.1-7.1-10.4C78.7,134.1,80.8,131.3,85.9,131.3z M85.9,147.9c1.4,0,2-0.7,2-6.1c0-5.3-0.6-5.9-2-5.9
	c-1.4,0-2.1,0.7-2.1,5.9C83.8,147.3,84.5,147.9,85.9,147.9z M102,131.3c5,0,7.2,2.8,7.2,10.6c0,7.3-2.3,10.4-7.2,10.4
	c-5.1,0-7.1-3.1-7.1-10.4C94.8,134.1,96.9,131.3,102,131.3z M102,147.9c1.4,0,2-0.7,2-6.1c0-5.3-0.6-5.9-2-5.9
	c-1.4,0-2.1,0.7-2.1,5.9C99.9,147.3,100.5,147.9,102,147.9z M122.2,107.1h-7.6v3.2h6.3v4.3h-6.3v3.7h8l-0.1,4.6h-13.2v-20.5h12.8
	L122.2,107.1z M113.6,147.1c1.9,0,2.7,1,2.7,2.6c0,1.6-0.8,2.6-2.7,2.6c-1.9,0-2.8-0.7-2.8-2.6C110.8,148.1,111.7,147.1,113.6,147.1
	z M114.6,44.3l0.1,4.8h-4.6v15.7h-5.4V49H100l0.1-4.8H114.6z M108.2,78h-7.6v3.2h6.3v4.3h-6.3v3.7h8l-0.1,4.6H95.3V73.3h12.8
	L108.2,78z M98.2,64.7h-5.5V44.3h5.5V64.7z M106.8,111.7v10.4c-1.4,0.7-3.7,1.1-5.8,1.1c-6.8,0-9.2-3.6-9.2-10.6
	c0-7.1,2.8-10.6,9.4-10.6c1.8,0,3.9,0.3,5.3,0.9l-0.5,4.6c-1.3-0.5-3.1-0.8-4.5-0.8c-3.4,0-4.1,1.3-4.1,5.9c0,4.9,0.8,5.9,3.4,5.9
	c0.4,0,0.8,0,1.2-0.1v-6.7H106.8z M89.3,122.9h-5.5v-20.5h5.5V122.9z M84.4,93.8H77V73.3h7.3c6.2,0,8.8,2.9,8.8,10.1
	C93,91,90.1,93.8,84.4,93.8z M84.3,78.1h-2v11.1h2c2.3,0,3.1-0.7,3.1-5.7C87.4,78.9,86.7,78.1,84.3,78.1z M90.4,60.1l-0.1,4.6H77.1
	V44.3h12.8l0.1,4.7h-7.6v3.2h6.3v4.3h-6.3v3.7H90.4z M131.1,93.8h-4.9v-8.6l0.1-2.2l-0.1,0l-0.7,2.1l-3,8.7H119l-3-8.6l-0.7-2.1
	l-0.1,0l0,2.2v8.5h-4.7V73.3h5.9l3.6,10.3l0.7,2.1h0.1l0.7-2.1l3.7-10.4h5.9V93.8z M128.9,58.5c0,4-2.7,6.5-7.3,6.5
	c-2.2,0-4.3-0.5-6-1.4l0.7-4.5c1.7,0.8,3.4,1.4,5.1,1.4c1.7,0,2.3-0.6,2.3-1.7c0-2.6-8.1-1.8-8.1-8.5c0-3.6,2.2-6.4,7.2-6.4
	c1.9,0,3.9,0.4,5.4,1l-0.6,4.4c-1.6-0.5-3.1-0.7-4.4-0.7c-2,0-2.5,0.6-2.5,1.5C120.8,52.7,128.9,51.8,128.9,58.5z M139.4,109
	c0,2.7-1,4.7-2.8,5.5l4,8.4h-6.2l-2.7-7.3h-1.8v7.3h-5.3v-20.5h7.1C136.9,102.4,139.4,104.4,139.4,109z M129.9,111.6h1.8
	c1.6,0,2.1-0.4,2.1-2.4c0-1.9-0.5-2.3-2.1-2.3h-1.9V111.6z M140,73.3h5.4v15.7h7l-0.1,4.7H140V73.3z M184.9,78.1h-7.5v3.6h6.3l0,4.5
	h-6.2v7.6H172V73.3h12.8L184.9,78.1z M200.7,73.3l0.1,4.8h-4.6v15.7h-5.4V78.1h-4.6l0.1-4.8H200.7z M207,85.3h-7.6v-3.5h7.6V85.3z"
	/>
</svg>
