<?xml version="1.0" encoding="utf-8"?>
<!-- Generator: Adobe Illustrator 16.0.4, SVG Export Plug-In . SVG Version: 6.00 Build 0)  -->
<!DOCTYPE svg PUBLIC "-//W3C//DTD SVG 1.1//EN" "http://www.w3.org/Graphics/SVG/1.1/DTD/svg11.dtd">
<svg version="1.1" id="Ebene_1" xmlns="http://www.w3.org/2000/svg" xmlns:xlink="http://www.w3.org/1999/xlink" x="0px" y="0px"
	 width="123.427px" height="84.389px" viewBox="0 0 123.427 84.389" enable-background="new 0 0 123.427 84.389"
	 xml:space="preserve">
<g>
	<path fill="#FFFFFF" d="M6.803,7.795c0,3.521-1.793,4.626-4.61,4.626c-0.896,0-1.616-0.16-2.192-0.416l0.159-2.609
		c0.337,0.176,0.865,0.288,1.489,0.288c1.312,0,1.952-0.512,1.952-1.953V0.192h3.202V7.795z"/>
	<path fill="#FFFFFF" d="M16.227,9.492l-0.063,2.705H8.432V0.192h7.522l0.064,2.753h-4.466v1.857h3.682v2.513h-3.682v2.177H16.227z"
		/>
	<path fill="#FFFFFF" d="M22.657,2.993v9.204h-3.185V2.993h-2.722l0.064-2.801h8.5l0.063,2.801H22.657z"/>
	<path fill="#FFFFFF" d="M25.903,12.197v-2.033l3.826-6.083l0.704-1.057l-0.017-0.032h-4.418l0.08-2.801h8.02v2.241l-3.697,5.891
		l-0.704,1.041l0.017,0.048h4.417l-0.048,2.785H25.903z"/>
	<path fill="#FFFFFF" d="M40.642,2.993v9.204h-3.185V2.993h-2.722L34.8,0.192h8.5l0.063,2.801H40.642z"/>
	<path fill="#FFFFFF" d="M54.114,10.1h-3.266l-0.464,2.097h-3.313l3.554-12.005h3.825l3.617,12.005h-3.488L54.114,10.1z
		 M52.21,4.049l-0.769,3.441h2.097l-0.768-3.441l-0.24-1.28h-0.049L52.21,4.049z"/>
	<path fill="#FFFFFF" d="M65.01,12.197l-2.257-4.882h-0.769v4.882h-3.121V0.192h3.121v4.642h0.833l2.225-4.642h3.505l-2.881,5.747
		l3.025,6.258H65.01z"/>
	<path fill="#FFFFFF" d="M74.802,2.993v9.204h-3.186V2.993h-2.721l0.063-2.801h8.499l0.064,2.801H74.802z"/>
	<path fill="#FFFFFF" d="M78.607,0.192h3.218v12.005h-3.218V0.192z"/>
	<path fill="#FFFFFF" d="M88.289,12.405c-3.458,0-5.026-1.825-5.026-6.21C83.263,1.792,84.768,0,88.289,0s5.025,1.792,5.025,6.194
		C93.314,10.708,91.811,12.405,88.289,12.405z M88.272,2.801c-1.312,0-1.729,0.544-1.729,3.394c0,2.865,0.432,3.441,1.761,3.441
		s1.729-0.592,1.729-3.441C90.033,3.329,89.634,2.801,88.272,2.801z"/>
	<path fill="#FFFFFF" d="M101.649,12.197l-3.585-5.538l-0.672-1.104L97.36,5.57l0.016,1.296v5.33h-2.753V0.192h2.625l3.857,6.227
		l0.032-0.016l-0.032-1.28l0.017-4.93h2.753v12.005H101.649z"/>
	<path fill="#FFFFFF" d="M108.64,12.405c-1.264,0-2.513-0.288-3.489-0.832l0.4-2.657c0.977,0.496,1.969,0.8,3.01,0.8
		c0.992,0,1.376-0.336,1.376-0.977c0-1.537-4.77-1.056-4.77-4.978c0-2.097,1.28-3.761,4.241-3.761c1.104,0,2.289,0.208,3.153,0.576
		l-0.352,2.609c-0.913-0.272-1.825-0.432-2.594-0.432c-1.185,0-1.44,0.352-1.44,0.864c0,1.553,4.771,1.024,4.771,4.946
		C112.946,10.932,111.346,12.405,108.64,12.405z"/>
	<path fill="#FFFFFF" d="M118.304,5.154v2.081h-4.466V5.154H118.304z"/>
	<path fill="#FFFFFF" d="M8.899,29.765c-0.832,0.4-2.193,0.656-3.426,0.656c-3.969,0-5.378-2.129-5.378-6.227
		c0-4.194,1.649-6.21,5.522-6.21c1.057,0,2.257,0.192,3.121,0.528l-0.288,2.673c-0.784-0.288-1.792-0.464-2.657-0.464
		c-1.969,0-2.417,0.736-2.417,3.441c0,2.85,0.464,3.474,2.017,3.474c0.24,0,0.496-0.016,0.721-0.064V23.65h2.785V29.765z"/>
	<path fill="#FFFFFF" d="M18.114,27.492l-0.063,2.705h-7.731V18.192h7.523l0.064,2.753H13.44v1.857h3.682v2.513H13.44v2.177H18.114z
		"/>
	<path fill="#FFFFFF" d="M26.37,25.283l2.337,4.914H25.09l-1.601-4.29h-1.057v4.29h-3.121V18.192h4.146
		c3.042,0,4.546,1.152,4.546,3.857C28.003,23.65,27.427,24.834,26.37,25.283z M23.521,20.785h-1.088v2.769h1.072
		c0.912,0,1.232-0.224,1.232-1.393C24.737,21.073,24.434,20.785,23.521,20.785z"/>
	<path fill="#FFFFFF" d="M35.682,28.1h-3.265l-0.465,2.097h-3.313l3.554-12.005h3.826l3.617,12.005h-3.49L35.682,28.1z
		 M32.561,17.616c-0.784,0-1.185-0.304-1.185-1.072c0-0.721,0.4-1.104,1.185-1.104c0.816,0,1.185,0.384,1.185,1.104
		C33.745,17.248,33.377,17.616,32.561,17.616z M33.776,22.049l-0.768,3.441h2.097l-0.769-3.441l-0.24-1.28h-0.048L33.776,22.049z
		 M35.618,17.616c-0.785,0-1.186-0.304-1.186-1.072c0-0.721,0.4-1.104,1.186-1.104c0.816,0,1.184,0.384,1.184,1.104
		C36.802,17.248,36.435,17.616,35.618,17.616z"/>
	<path fill="#FFFFFF" d="M44.593,20.993v9.204h-3.185v-9.204h-2.722l0.064-2.801h8.5l0.063,2.801H44.593z"/>
	<path fill="#FFFFFF" d="M58.017,30.197l-2.256-4.882h-0.77v4.882H51.87V18.192h3.121v4.642h0.833l2.225-4.642h3.506l-2.882,5.747
		l3.025,6.258H58.017z"/>
	<path fill="#FFFFFF" d="M68.769,28.1h-3.265l-0.464,2.097h-3.314l3.555-12.005h3.825l3.617,12.005h-3.489L68.769,28.1z
		 M66.864,22.049l-0.768,3.441h2.096l-0.768-3.441l-0.24-1.28h-0.048L66.864,22.049z"/>
	<path fill="#FFFFFF" d="M82.114,26.115c0,2.817-1.505,4.29-4.578,4.29s-4.626-1.473-4.626-4.29v-7.923h3.138v7.859
		c0,1.072,0.416,1.552,1.488,1.552c1.088,0,1.457-0.448,1.457-1.552v-7.859h3.121V26.115z"/>
	<path fill="#FFFFFF" d="M86.769,20.993v2.113h3.665l-0.016,2.657h-3.649v4.434h-3.138V18.192h7.507l0.048,2.801H86.769z"/>
	<path fill="#FFFFFF" d="M100.034,27.492l-0.063,2.705h-7.731V18.192h7.523l0.063,2.753H95.36v1.857h3.682v2.513H95.36v2.177
		H100.034z"/>
	<path fill="#FFFFFF" d="M108.258,30.197l-3.585-5.538L104,23.554l-0.031,0.016l0.016,1.296v5.33h-2.753V18.192h2.625l3.857,6.227
		l0.032-0.016l-0.032-1.28l0.017-4.93h2.753v12.005H108.258z"/>
	<path fill="#FFFFFF" d="M9.508,44.115c0,2.816-1.505,4.289-4.578,4.289s-4.626-1.473-4.626-4.289v-7.923h3.138v7.859
		c0,1.072,0.416,1.553,1.488,1.553c1.089,0,1.456-0.447,1.456-1.553v-7.859h3.122V44.115z"/>
	<path fill="#FFFFFF" d="M18.051,48.197l-3.585-5.539l-0.673-1.104l-0.032,0.016l0.016,1.297v5.33h-2.752V36.192h2.625l3.857,6.226
		l0.031-0.016l-0.031-1.28l0.016-4.93h2.753v12.005H18.051z"/>
	<path fill="#FFFFFF" d="M26.241,48.197h-4.338V36.192h4.273c3.65,0,5.139,1.697,5.139,5.939
		C31.315,46.532,29.618,48.197,26.241,48.197z M26.193,38.961h-1.169v6.498h1.169c1.376,0,1.841-0.416,1.841-3.361
		C28.034,39.441,27.603,38.961,26.193,38.961z"/>
	<path fill="#FFFFFF" d="M40.897,48.197h-4.674V36.192h4.706c2.577,0,3.89,1.201,3.89,3.105c0,1.264-0.576,2.081-1.473,2.513v0.031
		c1.2,0.4,1.84,1.329,1.84,2.817C45.187,46.82,43.891,48.197,40.897,48.197z M40.802,38.817h-1.553v2.113h1.584
		c0.721,0,0.977-0.271,0.977-1.088C41.81,39.057,41.538,38.817,40.802,38.817z M40.882,43.267h-1.633v2.369h1.696
		c0.784,0,1.073-0.257,1.073-1.2C42.019,43.604,41.762,43.267,40.882,43.267z"/>
	<path fill="#FFFFFF" d="M46.56,36.192h3.217v12.005H46.56V36.192z"/>
	<path fill="#FFFFFF" d="M54.673,48.404c-1.266,0-2.514-0.287-3.49-0.832l0.4-2.656c0.977,0.496,1.969,0.8,3.01,0.8
		c0.992,0,1.376-0.337,1.376-0.977c0-1.536-4.771-1.056-4.771-4.978c0-2.097,1.281-3.761,4.242-3.761
		c1.104,0,2.289,0.208,3.153,0.576l-0.353,2.609c-0.912-0.272-1.824-0.432-2.592-0.432c-1.186,0-1.441,0.352-1.441,0.864
		c0,1.553,4.77,1.024,4.77,4.946C58.978,46.932,57.378,48.404,54.673,48.404z"/>
	<path fill="#FFFFFF" d="M63.263,48.197v-2.033l3.824-6.082l0.705-1.057l-0.016-0.032h-4.418l0.08-2.801h8.02v2.241l-3.698,5.891
		l-0.704,1.04l0.016,0.049h4.418l-0.048,2.785H63.263z"/>
	<path fill="#FFFFFF" d="M81.683,44.115c0,2.816-1.505,4.289-4.578,4.289s-4.626-1.473-4.626-4.289v-7.923h3.138v7.859
		c0,1.072,0.416,1.553,1.488,1.553c1.088,0,1.457-0.447,1.457-1.553v-7.859h3.121V44.115z"/>
	<path fill="#FFFFFF" d="M3.825,66.357c-1.312,0-2.497-0.353-3.329-0.833l0.528-2.368c0.864,0.432,1.713,0.656,2.673,0.656
		c1.104,0,1.648-0.465,1.648-1.312c0-0.785-0.433-1.377-2.577-1.377v-2.161c2.064,0,2.498-0.464,2.498-1.28
		c0-0.625-0.417-0.992-1.473-0.992c-1.041,0-1.938,0.352-2.689,0.96l-0.688-2.401c0.896-0.704,2.225-1.184,3.617-1.184
		c2.593,0,4.098,1.279,4.098,3.408c0,1.089-0.496,1.953-1.44,2.481v0.032c1.072,0.465,1.664,1.328,1.664,2.593
		C8.354,64.885,6.931,66.357,3.825,66.357z"/>
	<path fill="#FFFFFF" d="M13.441,66.357c-1.28,0-2.481-0.272-3.474-0.833l0.512-2.368c0.881,0.432,1.602,0.656,2.625,0.656
		c1.281,0,1.617-0.497,1.617-1.537c0-0.945-0.512-1.281-1.601-1.281c-0.624,0-1.393,0.097-1.985,0.305l-0.992-1.152l0.433-5.955
		h6.53l0.112,2.658h-4.178l-0.112,1.775c0.369-0.063,0.752-0.096,1.185-0.096c2.321,0,3.665,1.169,3.665,3.506
		C17.778,64.725,16.466,66.357,13.441,66.357z"/>
	<path fill="#FFFFFF" d="M23.138,66.357c-2.978,0-4.178-1.809-4.178-6.1c0-4.577,1.216-6.193,4.209-6.193
		c2.93,0,4.21,1.616,4.21,6.193C27.379,64.549,26.05,66.357,23.138,66.357z M23.169,56.736c-0.848,0-1.232,0.433-1.232,3.49
		c0,3.217,0.385,3.553,1.232,3.553c0.832,0,1.201-0.416,1.201-3.553C24.37,57.105,24.001,56.736,23.169,56.736z"/>
	<path fill="#FFFFFF" d="M38.753,62.115h-2.48c0.353,1.344,1.168,1.777,2.354,1.777c0.561,0,1.12-0.16,1.633-0.354l0.207,2.258
		c-0.688,0.352-1.553,0.544-2.656,0.544c-2.657,0-4.258-1.36-4.738-4.226h-1.185l0.017-1.537h1.023v-0.576h-1.023l-0.017-1.584
		h1.185c0.512-2.642,2.241-4.273,4.882-4.273c1.057,0,1.856,0.16,2.529,0.416l-0.561,2.465c-0.368-0.129-0.784-0.209-1.265-0.209
		c-1.296,0-2.017,0.48-2.353,1.602h3.281l-0.336,1.584h-3.153v0.576h2.977L38.753,62.115z"/>
	<path fill="#FFFFFF" d="M52.497,57.089c-0.527-0.192-1.248-0.319-2-0.319c-1.777,0-2.226,0.752-2.226,3.377
		c0,2.77,0.497,3.537,2.272,3.537c0.736,0,1.426-0.145,1.985-0.4l0.288,2.545c-0.721,0.353-1.809,0.576-2.736,0.576
		c-3.426,0-5.091-1.952-5.091-6.273c0-4.034,1.616-6.146,5.282-6.146c0.848,0,1.889,0.191,2.529,0.447L52.497,57.089z"/>
	<path fill="#FFFFFF" d="M60.337,64.1h-3.266l-0.465,2.098h-3.312l3.553-12.006h3.826l3.617,12.006h-3.489L60.337,64.1z
		 M58.432,58.049l-0.769,3.441h2.098l-0.769-3.441l-0.24-1.279h-0.048L58.432,58.049z"/>
	<path fill="#FFFFFF" d="M68.255,66.404c-1.264,0-2.513-0.287-3.488-0.832l0.399-2.656c0.977,0.496,1.969,0.8,3.009,0.8
		c0.993,0,1.377-0.337,1.377-0.977c0-1.536-4.77-1.056-4.77-4.978c0-2.098,1.28-3.762,4.241-3.762c1.104,0,2.289,0.208,3.153,0.576
		l-0.352,2.609c-0.912-0.272-1.825-0.433-2.594-0.433c-1.184,0-1.44,0.353-1.44,0.864c0,1.553,4.771,1.024,4.771,4.946
		C72.562,64.932,70.96,66.404,68.255,66.404z"/>
	<path fill="#FFFFFF" d="M79.712,66.197V61.49h-2.913v4.707h-3.121V54.191h3.121v4.498h2.913v-4.498h3.138v12.006H79.712z"/>
	<path fill="#FFFFFF" d="M89.136,66.197h-4.674V54.191h4.706c2.577,0,3.89,1.201,3.89,3.105c0,1.265-0.576,2.081-1.473,2.514v0.031
		c1.2,0.4,1.841,1.329,1.841,2.817C93.426,64.82,92.129,66.197,89.136,66.197z M89.04,56.816h-1.553v2.113h1.584
		c0.721,0,0.977-0.271,0.977-1.088C90.048,57.057,89.776,56.816,89.04,56.816z M89.12,61.267h-1.633v2.369h1.696
		c0.784,0,1.072-0.257,1.072-1.2C90.256,61.604,90,61.267,89.12,61.267z"/>
	<path fill="#FFFFFF" d="M100.64,64.1h-3.266l-0.464,2.098h-3.313l3.554-12.006h3.825l3.618,12.006h-3.49L100.64,64.1z
		 M98.735,58.049l-0.769,3.441h2.097l-0.769-3.441l-0.24-1.279h-0.048L98.735,58.049z"/>
	<path fill="#FFFFFF" d="M112.129,57.089c-0.528-0.192-1.248-0.319-2.001-0.319c-1.776,0-2.225,0.752-2.225,3.377
		c0,2.77,0.496,3.537,2.273,3.537c0.736,0,1.424-0.145,1.984-0.4l0.288,2.545c-0.72,0.353-1.809,0.576-2.737,0.576
		c-3.425,0-5.09-1.952-5.09-6.273c0-4.034,1.617-6.146,5.282-6.146c0.849,0,1.889,0.191,2.529,0.447L112.129,57.089z"/>
	<path fill="#FFFFFF" d="M119.745,66.197l-2.257-4.883h-0.769v4.883h-3.121V54.191h3.121v4.643h0.832l2.226-4.643h3.505
		l-2.881,5.747l3.025,6.259H119.745z"/>
	<path fill="#FFFFFF" d="M3.554,84.404c-1.266,0-2.514-0.287-3.49-0.832l0.4-2.656c0.977,0.496,1.969,0.8,3.01,0.8
		c0.992,0,1.376-0.337,1.376-0.977c0-1.536-4.771-1.056-4.771-4.978C0.079,73.664,1.36,72,4.321,72c1.104,0,2.289,0.208,3.153,0.576
		l-0.353,2.609c-0.912-0.272-1.824-0.433-2.592-0.433c-1.186,0-1.441,0.353-1.441,0.864c0,1.553,4.77,1.024,4.77,4.946
		C7.858,82.932,6.259,84.404,3.554,84.404z"/>
	<path fill="#FFFFFF" d="M9.104,72.191h3.218v12.006H9.104V72.191z"/>
	<path fill="#FFFFFF" d="M21.267,75.089c-0.529-0.192-1.249-0.319-2.002-0.319c-1.776,0-2.225,0.752-2.225,3.377
		c0,2.77,0.496,3.537,2.273,3.537c0.736,0,1.424-0.145,1.984-0.4l0.288,2.545c-0.72,0.353-1.809,0.576-2.737,0.576
		c-3.426,0-5.09-1.952-5.09-6.273c0-4.034,1.617-6.146,5.282-6.146c0.849,0,1.889,0.191,2.528,0.447L21.267,75.089z"/>
	<path fill="#FFFFFF" d="M28.769,84.197V79.49h-2.912v4.707h-3.121V72.191h3.121v4.498h2.912v-4.498h3.138v12.006H28.769z"/>
	<path fill="#FFFFFF" d="M41.313,81.492l-0.064,2.705h-7.73V72.191h7.523l0.063,2.754H36.64v1.856h3.682v2.513H36.64v2.178H41.313z"
		/>
	<path fill="#FFFFFF" d="M49.569,79.283l2.337,4.914h-3.617l-1.601-4.29h-1.057v4.29h-3.121V72.191h4.146
		c3.042,0,4.546,1.152,4.546,3.857C51.202,77.65,50.626,78.834,49.569,79.283z M46.72,74.785h-1.088v2.77h1.072
		c0.912,0,1.232-0.225,1.232-1.393C47.937,75.073,47.633,74.785,46.72,74.785z"/>
	<path fill="#FFFFFF" d="M59.714,84.197l-3.586-5.539l-0.672-1.104l-0.033,0.016l0.017,1.297v5.33h-2.753V72.191h2.625l3.857,6.227
		l0.032-0.016l-0.032-1.28l0.016-4.931h2.754v12.006H59.714z"/>
	<path fill="#FFFFFF" d="M64.847,84.389c-1.12,0-1.617-0.432-1.617-1.521c0-0.976,0.497-1.536,1.617-1.536
		c1.121,0,1.601,0.561,1.601,1.536C66.447,83.781,65.968,84.389,64.847,84.389z"/>
	<path fill="#FFFFFF" d="M70.655,71.728l0.208,1.553l1.473-0.353L72.8,74.24l-1.424,0.689l0.816,1.359l-1.009,0.77l-1.185-1.153
		l-1.217,1.169l-1.04-0.736l0.784-1.408l-1.424-0.673l0.496-1.329l1.488,0.353l0.225-1.553H70.655z"/>
</g>
</svg>
