<?xml version="1.0" encoding="utf-8"?>
<!-- Generator: Adobe Illustrator 16.0.4, SVG Export Plug-In . SVG Version: 6.00 Build 0)  -->
<!DOCTYPE svg PUBLIC "-//W3C//DTD SVG 1.1//EN" "http://www.w3.org/Graphics/SVG/1.1/DTD/svg11.dtd">
<svg version="1.1" id="Ebene_1" xmlns="http://www.w3.org/2000/svg" xmlns:xlink="http://www.w3.org/1999/xlink" x="0px" y="0px"
	 width="211.298px" height="38.802px" viewBox="0 0 211.298 38.802" enable-background="new 0 0 211.298 38.802"
	 xml:space="preserve">
<g>
	<path d="M10.9,38.802c-3.95,0-7.851-0.9-10.9-2.6l1.25-8.3c3.05,1.55,6.15,2.5,9.4,2.5c3.101,0,4.3-1.05,4.3-3.05
		c0-4.8-14.9-3.3-14.9-15.551c0-6.55,4-11.751,13.251-11.751c3.45,0,7.15,0.65,9.851,1.8l-1.1,8.15
		c-2.851-0.85-5.701-1.35-8.102-1.35c-3.699,0-4.5,1.1-4.5,2.7c0,4.851,14.901,3.2,14.901,15.451
		C24.352,34.202,19.351,38.802,10.9,38.802z"/>
	<path d="M50.301,9.701c-1.649-0.6-3.9-1-6.251-1c-5.55,0-6.949,2.35-6.949,10.55c0,8.651,1.549,11.051,7.1,11.051
		c2.301,0,4.451-0.45,6.201-1.25l0.899,7.951c-2.25,1.1-5.65,1.8-8.55,1.8c-10.701,0-15.901-6.1-15.901-19.601
		C26.85,6.601,31.899,0,43.351,0c2.65,0,5.9,0.6,7.9,1.4L50.301,9.701z"/>
	<path d="M73.75,38.152V23.452h-9.101v14.701h-9.75V0.65h9.75v14.051h9.101V0.65h9.801v37.502H73.75z"/>
	<path d="M110.55,38.152L99.349,20.851l-2.1-3.45l-0.1,0.05l0.05,4.05v16.651h-8.601V0.65h8.2l12.051,19.451l0.101-0.05l-0.101-4
		l0.05-15.401h8.602v37.502H110.55z"/>
	<path d="M146.95,29.702l-0.201,8.451h-24.15V0.65H146.1l0.2,8.601h-13.951v5.8h11.5v7.851h-11.5v6.8H146.95z"/>
	<path d="M173.299,29.452l-0.25,8.701h-22.351V0.65h9.85v28.802H173.299z"/>
	<path d="M199.099,29.452l-0.25,8.701h-22.352V0.65h9.852v28.802H199.099z"/>
	<path d="M206.298,38.752c-3.5,0-5.051-1.35-5.051-4.75c0-3.05,1.551-4.8,5.051-4.8s5,1.75,5,4.8
		C211.298,36.852,209.798,38.752,206.298,38.752z"/>
</g>
</svg>
