<?xml version="1.0" encoding="utf-8"?>
<!-- Generator: Adobe Illustrator 16.0.0, SVG Export Plug-In . SVG Version: 6.00 Build 0)  -->
<!DOCTYPE svg PUBLIC "-//W3C//DTD SVG 1.1//EN" "http://www.w3.org/Graphics/SVG/1.1/DTD/svg11.dtd">
<svg version="1.1" id="Ebene_1" xmlns="http://www.w3.org/2000/svg" xmlns:xlink="http://www.w3.org/1999/xlink" x="0px" y="0px"
	 width="84.398px" height="85.739px" viewBox="0 0 84.398 85.739" enable-background="new 0 0 84.398 85.739" xml:space="preserve">
<g>
	<path fill="#1A1A18" d="M7.202,9.229H2.278L1.31,11.93H0.341l3.888-10.23h1.064l3.888,10.23h-1.01L7.202,9.229z M4.393,3.418
		L2.578,8.424h4.338L5.129,3.418L4.788,2.367H4.747L4.393,3.418z"/>
	<path fill="#1A1A18" d="M11.727,7.21h1.282l2.811-3.342h1.063l-3.124,3.683l3.261,4.379h-1.051l-2.96-3.983h-1.282v3.983h-0.832
		V1.071l0.832-0.055V7.21z"/>
	<path fill="#1A1A18" d="M19.949,4.55v5.443c0,0.968,0.505,1.351,1.31,1.351c0.231,0,0.519-0.041,0.682-0.109l0.068,0.654
		c-0.218,0.096-0.613,0.164-0.969,0.164c-1.255,0-1.923-0.655-1.923-2.032V4.55h-1.255V3.882h1.269l0.163-2.114l0.655-0.082v2.196
		h2.114V4.55H19.949z"/>
	<path fill="#1A1A18" d="M24.707,2.23c-0.409,0-0.641-0.136-0.641-0.572c0-0.368,0.231-0.573,0.641-0.573s0.642,0.205,0.642,0.573
		C25.349,2.054,25.116,2.23,24.707,2.23z M24.284,11.93V3.923l0.832-0.068v8.075H24.284z"/>
	<path fill="#1A1A18" d="M30.979,12.107c-2.346,0-3.396-1.173-3.396-4.188c0-2.987,1.064-4.174,3.396-4.174
		c2.36,0,3.356,1.187,3.356,4.174C34.336,10.935,33.34,12.107,30.979,12.107z M30.979,11.385c1.801,0,2.497-0.955,2.497-3.466
		c0-2.496-0.696-3.438-2.497-3.438c-1.813,0-2.537,0.941-2.537,3.438C28.442,10.443,29.166,11.385,30.979,11.385z"/>
	<path fill="#1A1A18" d="M41.548,11.93V6.501c0-1.378-0.764-1.965-2.128-1.965c-0.791,0-1.746,0.382-2.196,1.092v6.302h-0.818V3.896
		l0.587-0.055l0.149,0.969h0.041c0.546-0.669,1.474-1.064,2.442-1.064c1.705,0,2.741,0.887,2.741,2.742v5.442H41.548z"/>
	<path fill="#1A1A18" d="M46.809,12.094c-0.954,0-1.854-0.26-2.455-0.736l0.137-0.751c0.586,0.491,1.486,0.765,2.305,0.765
		c1.364,0,1.938-0.696,1.938-1.624c0-2.155-4.338-1.228-4.338-3.888c0-1.31,0.941-2.114,2.674-2.114c0.764,0,1.473,0.15,2.114,0.464
		l-0.082,0.723c-0.668-0.3-1.378-0.45-2.046-0.45c-1.146,0-1.869,0.519-1.869,1.337c0,2.006,4.324,1.01,4.324,3.847
		C49.51,11.125,48.678,12.094,46.809,12.094z"/>
	<path fill="#1A1A18" d="M52.863,8.274c-0.546,0.122-0.832,0.396-0.832,0.736c0,0.313,0.245,0.573,0.914,0.641L54.8,9.843
		c1.979,0.205,2.565,0.805,2.565,1.869c0,1.419-0.819,2.318-3.261,2.318c-2.114,0-3.001-0.846-3.001-2.128
		c0-0.613,0.313-1.214,0.887-1.65c-0.409-0.177-0.736-0.532-0.736-1.077c0-0.491,0.368-0.928,1.036-1.16
		c-0.572-0.313-0.982-0.914-0.982-1.909c0-1.515,0.765-2.36,2.715-2.36c0.696,0,1.433,0.137,1.965,0.56l1.296-0.587l0.19,0.423
		l-1.036,0.696c0.177,0.327,0.286,0.736,0.286,1.255c0,1.514-0.682,2.332-2.701,2.332C53.641,8.424,53.231,8.383,52.863,8.274z
		 M52.713,10.402c-0.572,0.368-0.873,0.914-0.873,1.405c0,0.954,0.655,1.527,2.237,1.527c1.992,0,2.51-0.614,2.51-1.514
		c0-0.696-0.354-1.078-1.909-1.215L52.713,10.402z M52.113,6.119c0,1.35,0.818,1.65,1.896,1.65c1.474,0,1.924-0.573,1.924-1.65
		c0-1.242-0.587-1.679-1.91-1.679C52.631,4.44,52.113,5,52.113,6.119z"/>
	<path fill="#1A1A18" d="M58.602,7.633c0-2.523,1.078-3.888,3.206-3.888c1.814,0,3.083,1.104,3.083,3.711
		c0,0.122-0.014,0.3-0.027,0.409h-5.416c0.041,2.578,0.9,3.451,2.824,3.451c0.846,0,1.541-0.205,2.224-0.573l0.108,0.723
		c-0.695,0.396-1.473,0.628-2.414,0.628C59.625,12.094,58.602,10.743,58.602,7.633z M64.127,7.278
		c-0.027-2.032-0.982-2.797-2.319-2.797c-1.582,0-2.292,0.941-2.374,2.797H64.127z"/>
	<path fill="#1A1A18" d="M66.933,11.93V3.923l0.668-0.055l0.027,0.9l0.027,1.104h0.027c0.464-1.255,1.405-2.101,2.619-2.101
		c0.273,0,0.532,0.027,0.765,0.096l-0.068,0.859c-0.232-0.082-0.478-0.109-0.737-0.109c-1.363,0-2.51,1.255-2.51,3.206v4.105H66.933
		z"/>
	<path fill="#1A1A18" d="M77.271,10.798l-0.04-0.014c-0.437,0.764-1.392,1.269-2.511,1.269c-1.459,0-2.469-0.723-2.469-2.523
		c0-1.528,0.941-2.401,2.905-2.401c0.724,0,1.46,0.15,2.006,0.354V6.487c0-1.528-0.642-2.02-2.061-2.02
		c-0.832,0-1.582,0.15-2.277,0.505L72.729,4.25c0.764-0.354,1.582-0.532,2.51-0.532c1.965,0,2.756,0.805,2.756,2.892v5.32h-0.628
		L77.271,10.798z M77.162,8.138c-0.205-0.15-0.914-0.382-1.883-0.382c-1.555,0-2.237,0.641-2.237,1.76
		c0,1.364,0.818,1.828,1.896,1.828c1.173,0,2.224-0.819,2.224-1.597V8.138z M74.27,2.136c-0.313,0-0.478-0.137-0.478-0.519
		c0-0.327,0.164-0.532,0.478-0.532c0.314,0,0.478,0.191,0.478,0.532C74.747,1.972,74.584,2.136,74.27,2.136z M76.303,2.136
		c-0.314,0-0.478-0.137-0.478-0.519c0-0.327,0.163-0.532,0.478-0.532c0.313,0,0.478,0.191,0.478,0.532
		C76.78,1.972,76.616,2.136,76.303,2.136z"/>
	<path fill="#1A1A18" d="M81.741,4.55v5.443c0,0.968,0.505,1.351,1.31,1.351c0.231,0,0.519-0.041,0.682-0.109l0.068,0.654
		c-0.218,0.096-0.613,0.164-0.968,0.164c-1.256,0-1.924-0.655-1.924-2.032V4.55h-1.255V3.882h1.269l0.164-2.114l0.654-0.082v2.196
		h2.114V4.55H81.741z"/>
	<path fill="#1A1A18" d="M2.21,24.879h1.282l2.811-3.343h1.063L4.242,25.22l3.261,4.379H6.452l-2.96-3.983H2.21v3.983H1.378V18.74
		l0.832-0.055V24.879z"/>
	<path fill="#1A1A18" d="M13.665,28.466l-0.041-0.014c-0.437,0.765-1.392,1.269-2.511,1.269c-1.459,0-2.469-0.723-2.469-2.523
		c0-1.527,0.941-2.4,2.905-2.4c0.724,0,1.46,0.149,2.006,0.354v-0.996c0-1.527-0.642-2.019-2.061-2.019
		c-0.832,0-1.582,0.15-2.277,0.505l-0.096-0.724c0.764-0.354,1.582-0.531,2.51-0.531c1.965,0,2.756,0.805,2.756,2.892v5.32H13.76
		L13.665,28.466z M13.556,25.806c-0.205-0.149-0.914-0.382-1.883-0.382c-1.555,0-2.237,0.642-2.237,1.76
		c0,1.364,0.818,1.828,1.896,1.828c1.173,0,2.224-0.818,2.224-1.596V25.806z"/>
	<path fill="#1A1A18" d="M22.624,27.062c0,1.691-0.969,2.7-2.987,2.7c-2.006,0-2.975-1.022-2.975-2.7V21.55h0.819v5.484
		c0,1.255,0.736,1.937,2.155,1.937c1.418,0,2.169-0.668,2.169-1.937V21.55h0.818V27.062z"/>
	<path fill="#1A1A18" d="M25.594,29.599v-7.394h-1.296V21.55h1.296v-0.396c0-1.433,0.75-2.4,2.564-2.4
		c0.396,0,0.859,0.067,1.132,0.163l-0.068,0.587c-0.272-0.068-0.6-0.123-0.954-0.123c-1.282,0-1.842,0.669-1.842,1.787v0.382h2.265
		v0.655h-2.265v7.394H25.594z"/>
	<path fill="#1A1A18" d="M29.765,25.302c0-2.524,1.078-3.888,3.206-3.888c1.814,0,3.083,1.104,3.083,3.71
		c0,0.123-0.014,0.3-0.027,0.409H30.61c0.041,2.578,0.9,3.451,2.824,3.451c0.846,0,1.541-0.204,2.224-0.573l0.108,0.724
		c-0.695,0.396-1.473,0.627-2.414,0.627C30.788,29.762,29.765,28.411,29.765,25.302z M35.29,24.946
		c-0.027-2.032-0.982-2.796-2.319-2.796c-1.583,0-2.292,0.941-2.374,2.796H35.29z"/>
	<path fill="#1A1A18" d="M43.238,29.599v-5.43c0-1.378-0.764-1.964-2.128-1.964c-0.791,0-1.746,0.382-2.196,1.091v6.303h-0.818
		v-8.035l0.587-0.055l0.149,0.969h0.041c0.546-0.668,1.474-1.063,2.442-1.063c1.705,0,2.741,0.886,2.741,2.741v5.443H43.238z"/>
	<path fill="#1A1A18" d="M56.67,27.062c0,1.691-0.969,2.7-2.987,2.7c-2.006,0-2.975-1.022-2.975-2.7V21.55h0.818v5.484
		c0,1.255,0.737,1.937,2.156,1.937c1.418,0,2.169-0.668,2.169-1.937V21.55h0.818V27.062z"/>
	<path fill="#1A1A18" d="M64.25,29.599v-5.43c0-1.378-0.764-1.964-2.128-1.964c-0.791,0-1.746,0.382-2.196,1.091v6.303h-0.818
		v-8.035l0.587-0.055l0.149,0.969h0.041c0.546-0.668,1.474-1.063,2.442-1.063c1.705,0,2.741,0.886,2.741,2.741v5.443H64.25z"/>
	<path fill="#1A1A18" d="M72.771,29.599l-0.137-0.941l-0.041-0.014c-0.504,0.736-1.364,1.118-2.496,1.118
		c-2.237,0-3.11-1.31-3.11-4.188c0-2.77,0.928-4.16,3.124-4.16c0.982,0,1.883,0.354,2.455,1.05l0.027-0.014l-0.027-1.091v-2.605
		l0.833-0.068v10.913H72.771z M72.566,23.31c-0.396-0.668-1.228-1.104-2.25-1.104c-1.801,0-2.483,0.981-2.483,3.396
		c0,2.482,0.628,3.451,2.47,3.451c1.351,0,2.005-0.668,2.264-1.173V23.31z"/>
	<path fill="#1A1A18" d="M4.61,47.416c-1.036,0-1.964-0.396-2.482-1.104l-0.041,0.014l-0.163,0.941H1.378V36.395L2.21,36.34v2.674
		l-0.014,1.091l0.027,0.014c0.573-0.682,1.474-1.05,2.482-1.05c1.883,0,3.083,1.036,3.083,4.16
		C7.789,46.298,6.63,47.416,4.61,47.416z M4.488,39.846c-0.982,0-1.814,0.423-2.278,1.132v4.557
		c0.354,0.613,1.146,1.173,2.306,1.173c1.432,0,2.428-0.723,2.428-3.465C6.943,40.541,6.029,39.846,4.488,39.846z"/>
	<path fill="#1A1A18" d="M10.663,37.567c-0.409,0-0.641-0.137-0.641-0.573c0-0.368,0.231-0.572,0.641-0.572s0.642,0.204,0.642,0.572
		C11.305,37.39,11.072,37.567,10.663,37.567z M10.24,47.267v-8.008l0.832-0.068v8.076H10.24z"/>
	<path fill="#1A1A18" d="M16.062,47.43c-0.954,0-1.854-0.259-2.455-0.736l0.137-0.75c0.586,0.491,1.486,0.764,2.305,0.764
		c1.364,0,1.938-0.695,1.938-1.623c0-2.155-4.338-1.228-4.338-3.888c0-1.31,0.941-2.114,2.674-2.114
		c0.764,0,1.473,0.149,2.114,0.463l-0.082,0.724c-0.668-0.301-1.378-0.45-2.046-0.45c-1.146,0-1.869,0.519-1.869,1.337
		c0,2.005,4.324,1.009,4.324,3.847C18.764,46.462,17.932,47.43,16.062,47.43z"/>
	<path fill="#1A1A18" d="M26.384,45.63l-0.627,0.859l0.014,0.04h4.569l-0.027,0.737h-5.552v-0.601l3.915-5.798l0.627-0.873
		l-0.014-0.027h-4.352l0.027-0.75h5.32v0.614L26.384,45.63z"/>
	<path fill="#1A1A18" d="M38.33,44.729c0,1.691-0.969,2.7-2.987,2.7c-2.006,0-2.975-1.022-2.975-2.7v-5.512h0.818v5.484
		c0,1.255,0.737,1.937,2.156,1.937c1.418,0,2.169-0.668,2.169-1.937v-5.484h0.818V44.729z"/>
	<path fill="#1A1A18" d="M50.574,44.879v2.388h-0.806v-2.388h-4.842l-0.082-0.586l4.638-7.258h1.092v7.053h1.418l-0.041,0.791
		H50.574z M49.823,38.863l0.041-1.104l-0.027-0.014l-0.586,0.954L46.44,43.16l-0.601,0.887l0.014,0.041h3.929L49.823,38.863z"/>
	<path fill="#1A1A18" d="M57.213,47.416c-2.523,0-3.574-1.418-3.574-5.266c0-3.901,1.051-5.251,3.588-5.251
		c2.51,0,3.561,1.35,3.561,5.251C60.787,45.998,59.723,47.416,57.213,47.416z M57.227,37.718c-1.869,0-2.742,0.9-2.742,4.42
		c0,3.56,0.873,4.474,2.742,4.474c1.854,0,2.701-0.914,2.701-4.474C59.928,38.604,59.081,37.718,57.227,37.718z"/>
	<path fill="#1A1A18" d="M66.13,47.416c-2.523,0-3.574-1.418-3.574-5.266c0-3.901,1.051-5.251,3.588-5.251
		c2.51,0,3.561,1.35,3.561,5.251C69.704,45.998,68.64,47.416,66.13,47.416z M66.144,37.718c-1.869,0-2.742,0.9-2.742,4.42
		c0,3.56,0.873,4.474,2.742,4.474c1.855,0,2.701-0.914,2.701-4.474C68.845,38.604,67.999,37.718,66.144,37.718z"/>
	<path fill="#1A1A18" d="M81.565,43.188h-3.942c0.245,2.429,1.351,3.424,3.396,3.424c0.887,0,1.801-0.286,2.564-0.75l0.096,0.723
		c-0.709,0.491-1.76,0.792-2.837,0.792c-2.633,0-3.848-1.337-4.093-4.188h-1.269l0.014-0.573h1.228
		c-0.014-0.204-0.014-0.409-0.014-0.627v-0.341h-1.214l-0.014-0.587h1.269c0.245-2.674,1.664-4.12,4.174-4.12
		c0.955,0,1.91,0.205,2.511,0.532l-0.205,0.737c-0.709-0.301-1.296-0.45-2.169-0.45c-2.06,0-3.192,1.146-3.438,3.301h4.638
		l-0.149,0.587h-4.543v0.396c0,0.204,0,0.396,0.014,0.572h4.134L81.565,43.188z"/>
	<path fill="#1A1A18" d="M7.53,55.863c-0.56-0.259-1.378-0.464-2.224-0.464c-2.333,0-3.424,1.064-3.424,4.311
		c0,3.465,1.104,4.557,3.465,4.557c0.859,0,1.596-0.205,2.21-0.532l0.149,0.777c-0.613,0.327-1.555,0.614-2.469,0.614
		c-2.974,0-4.283-1.65-4.283-5.416c0-3.588,1.337-5.17,4.311-5.17c0.859,0,1.855,0.232,2.387,0.491L7.53,55.863z"/>
	<path fill="#1A1A18" d="M14.183,63.803l-0.04-0.014c-0.437,0.764-1.392,1.269-2.511,1.269c-1.459,0-2.469-0.723-2.469-2.523
		c0-1.528,0.941-2.401,2.905-2.401c0.724,0,1.46,0.15,2.006,0.354v-0.995c0-1.528-0.642-2.02-2.061-2.02
		c-0.832,0-1.582,0.15-2.277,0.505l-0.096-0.723c0.764-0.354,1.582-0.532,2.51-0.532c1.965,0,2.756,0.805,2.756,2.892v5.32h-0.628
		L14.183,63.803z M14.074,61.143c-0.205-0.15-0.914-0.382-1.883-0.382c-1.555,0-2.237,0.641-2.237,1.76
		c0,1.364,0.818,1.828,1.896,1.828c1.173,0,2.224-0.819,2.224-1.597V61.143z"/>
	<path fill="#1A1A18" d="M19.335,65.099c-0.954,0-1.854-0.26-2.455-0.736l0.137-0.751c0.586,0.491,1.486,0.765,2.305,0.765
		c1.364,0,1.938-0.696,1.938-1.624c0-2.155-4.338-1.228-4.338-3.888c0-1.31,0.941-2.114,2.674-2.114c0.764,0,1.473,0.15,2.114,0.464
		l-0.082,0.723c-0.668-0.3-1.378-0.45-2.046-0.45c-1.146,0-1.869,0.519-1.869,1.337c0,2.006,4.324,1.01,4.324,3.847
		C22.036,64.13,21.204,65.099,19.335,65.099z"/>
	<path fill="#1A1A18" d="M29.222,64.935v-5.442c0-1.241-0.668-1.951-2.101-1.951c-0.996,0-1.842,0.491-2.196,1.105v6.288h-0.832
		V54.09l0.832-0.068v2.646l-0.014,1.092l0.027,0.014c0.56-0.669,1.419-1.037,2.4-1.037c1.773,0,2.715,0.969,2.715,2.756v5.442
		H29.222z"/>
	<path fill="#1A1A18" d="M35.807,65.085c-1.036,0-1.964-0.396-2.482-1.105l-0.041,0.014l-0.163,0.941h-0.546V54.062l0.832-0.055
		v2.674l-0.014,1.092l0.027,0.014c0.573-0.683,1.474-1.051,2.482-1.051c1.883,0,3.083,1.037,3.083,4.161
		C38.985,63.966,37.826,65.085,35.807,65.085z M35.685,57.514c-0.982,0-1.814,0.423-2.278,1.133v4.556
		c0.354,0.614,1.146,1.174,2.306,1.174c1.432,0,2.428-0.724,2.428-3.466C38.14,58.21,37.226,57.514,35.685,57.514z"/>
	<path fill="#1A1A18" d="M45.651,63.803l-0.04-0.014c-0.437,0.764-1.392,1.269-2.511,1.269c-1.459,0-2.469-0.723-2.469-2.523
		c0-1.528,0.941-2.401,2.905-2.401c0.724,0,1.46,0.15,2.006,0.354v-0.995c0-1.528-0.642-2.02-2.061-2.02
		c-0.832,0-1.582,0.15-2.277,0.505l-0.096-0.723c0.764-0.354,1.582-0.532,2.51-0.532c1.965,0,2.756,0.805,2.756,2.892v5.32h-0.628
		L45.651,63.803z M45.543,61.143c-0.205-0.15-0.914-0.382-1.883-0.382c-1.555,0-2.237,0.641-2.237,1.76
		c0,1.364,0.818,1.828,1.896,1.828c1.173,0,2.224-0.819,2.224-1.597V61.143z"/>
	<path fill="#1A1A18" d="M53.532,57.964c-0.505-0.245-1.132-0.423-1.773-0.423c-1.882,0-2.619,0.969-2.619,3.274
		c0,2.605,0.887,3.533,2.592,3.533c0.683,0,1.351-0.191,1.855-0.56l0.082,0.723c-0.478,0.354-1.255,0.601-2.087,0.601
		c-2.21,0-3.302-1.255-3.302-4.297c0-2.742,1.01-4.065,3.315-4.065c0.75,0,1.473,0.191,2.005,0.45L53.532,57.964z"/>
	<path fill="#1A1A18" d="M56.544,60.215h1.282l2.811-3.342H61.7l-3.124,3.683l3.261,4.379h-1.051l-2.96-3.983h-1.282v3.983h-0.832
		V54.076l0.832-0.055V60.215z"/>
	<path fill="#1A1A18" d="M3.301,82.768c-0.954,0-1.854-0.26-2.455-0.737l0.137-0.75c0.586,0.491,1.486,0.764,2.305,0.764
		c1.364,0,1.938-0.695,1.938-1.623c0-2.155-4.338-1.228-4.338-3.888c0-1.31,0.941-2.114,2.674-2.114
		c0.764,0,1.473,0.149,2.114,0.464l-0.082,0.723c-0.668-0.3-1.378-0.45-2.046-0.45c-1.146,0-1.869,0.519-1.869,1.337
		c0,2.005,4.324,1.01,4.324,3.847C6.002,81.799,5.17,82.768,3.301,82.768z"/>
	<path fill="#1A1A18" d="M8.781,72.904c-0.409,0-0.641-0.136-0.641-0.572c0-0.369,0.231-0.573,0.641-0.573s0.642,0.204,0.642,0.573
		C9.423,72.728,9.19,72.904,8.781,72.904z M8.358,82.604v-8.008l0.832-0.067v8.075H8.358z"/>
	<path fill="#1A1A18" d="M16.909,75.633c-0.505-0.245-1.132-0.423-1.773-0.423c-1.882,0-2.619,0.969-2.619,3.273
		c0,2.605,0.887,3.533,2.592,3.533c0.683,0,1.351-0.19,1.855-0.559l0.082,0.723c-0.478,0.354-1.255,0.601-2.087,0.601
		c-2.21,0-3.302-1.256-3.302-4.298c0-2.741,1.01-4.064,3.315-4.064c0.75,0,1.473,0.19,2.005,0.45L16.909,75.633z"/>
	<path fill="#1A1A18" d="M24.218,82.604V77.16c0-1.241-0.668-1.95-2.101-1.95c-0.996,0-1.842,0.491-2.196,1.104v6.289h-0.832V71.759
		l0.832-0.068v2.646l-0.014,1.091l0.027,0.014c0.56-0.668,1.419-1.036,2.4-1.036c1.773,0,2.715,0.969,2.715,2.755v5.443H24.218z"/>
	<path fill="#1A1A18" d="M26.97,78.307c0-2.523,1.078-3.888,3.206-3.888c1.814,0,3.083,1.104,3.083,3.71
		c0,0.123-0.014,0.301-0.027,0.409h-5.416c0.041,2.578,0.9,3.451,2.824,3.451c0.846,0,1.541-0.204,2.224-0.572l0.108,0.723
		c-0.695,0.396-1.473,0.628-2.414,0.628C27.993,82.768,26.97,81.417,26.97,78.307z M32.495,77.952
		c-0.027-2.033-0.982-2.797-2.319-2.797c-1.583,0-2.292,0.941-2.374,2.797H32.495z"/>
	<path fill="#1A1A18" d="M35.301,82.604v-8.008l0.669-0.055l0.026,0.9l0.027,1.105h0.027c0.464-1.255,1.405-2.101,2.619-2.101
		c0.273,0,0.532,0.027,0.765,0.095l-0.068,0.86c-0.232-0.082-0.478-0.109-0.737-0.109c-1.363,0-2.51,1.255-2.51,3.205v4.106H35.301z
		"/>
	<path fill="#1A1A18" d="M46.401,82.604v-5.43c0-1.377-0.764-1.964-2.128-1.964c-0.791,0-1.746,0.382-2.196,1.091v6.303h-0.818
		v-8.035l0.587-0.054l0.149,0.968h0.041c0.546-0.668,1.474-1.063,2.442-1.063c1.705,0,2.741,0.887,2.741,2.741v5.443H46.401z"/>
	<path fill="#1A1A18" d="M50.436,82.74c-0.409,0-0.627-0.164-0.627-0.587c0-0.382,0.218-0.601,0.627-0.601
		c0.437,0,0.628,0.219,0.628,0.601S50.872,82.74,50.436,82.74z M50.108,79.998l-0.15-7.626h0.9l-0.149,7.626H50.108z"/>
</g>
</svg>
