<?xml version="1.0" encoding="utf-8"?>
<!-- Generator: Adobe Illustrator 16.0.0, SVG Export Plug-In . SVG Version: 6.00 Build 0)  -->
<!DOCTYPE svg PUBLIC "-//W3C//DTD SVG 1.1//EN" "http://www.w3.org/Graphics/SVG/1.1/DTD/svg11.dtd">
<svg version="1.1" id="Ebene_1" xmlns="http://www.w3.org/2000/svg" xmlns:xlink="http://www.w3.org/1999/xlink" x="0px" y="0px"
	 width="170.199px" height="110.023px" viewBox="0 0 170.199 110.023" enable-background="new 0 0 170.199 110.023"
	 xml:space="preserve">
<g>
	<path fill="#1A1A18" d="M8.097,28.871c-2.568,0-5.104-0.585-7.088-1.691l0.812-5.398c1.983,1.008,4,1.626,6.113,1.626
		c2.016,0,2.796-0.683,2.796-1.983c0-3.122-9.689-2.146-9.689-10.113c0-4.26,2.602-7.641,8.617-7.641
		c2.243,0,4.649,0.422,6.405,1.17l-0.715,5.3c-1.854-0.553-3.707-0.878-5.269-0.878c-2.406,0-2.926,0.715-2.926,1.756
		c0,3.154,9.689,2.081,9.689,10.047C16.844,25.879,13.592,28.871,8.097,28.871z"/>
	<path fill="#1A1A18" d="M31.084,24.188H24.45l-0.942,4.26h-6.731l7.219-24.387h7.771l7.349,24.387h-7.088L31.084,24.188z
		 M27.215,11.897l-1.562,6.991h4.26l-1.561-6.991l-0.487-2.602h-0.098L27.215,11.897z"/>
	<path fill="#1A1A18" d="M58.2,20.157c0,5.723-3.057,8.714-9.3,8.714s-9.397-2.992-9.397-8.714V4.061h6.373v15.965
		c0,2.179,0.846,3.154,3.024,3.154c2.211,0,2.959-0.911,2.959-3.154V4.061H58.2V20.157z"/>
	<path fill="#1A1A18" d="M70.78,28.448h-9.495V4.061h9.56c5.235,0,7.902,2.438,7.902,6.308c0,2.569-1.171,4.227-2.992,5.105v0.065
		c2.439,0.813,3.739,2.699,3.739,5.723C79.494,25.652,76.86,28.448,70.78,28.448z M70.585,9.394h-3.154v4.292h3.22
		c1.463,0,1.983-0.553,1.983-2.211C72.634,9.881,72.081,9.394,70.585,9.394z M70.748,18.433h-3.317v4.812h3.447
		c1.593,0,2.179-0.521,2.179-2.439C73.057,19.116,72.536,18.433,70.748,18.433z"/>
	<path fill="#1A1A18" d="M97.863,22.953l-0.13,5.495H82.027V4.061h15.283l0.13,5.593h-9.072v3.772h7.479v5.105h-7.479v4.422H97.863z
		"/>
	<path fill="#1A1A18" d="M114.64,18.466l4.747,9.982h-7.349l-3.251-8.714h-2.146v8.714H100.3V4.061h8.422
		c6.178,0,9.234,2.341,9.234,7.836C117.956,15.149,116.786,17.555,114.64,18.466z M108.852,9.329h-2.211v5.625h2.179
		c1.854,0,2.504-0.456,2.504-2.829C111.323,9.914,110.705,9.329,108.852,9.329z"/>
	<path fill="#1A1A18" d="M136.812,22.953l-0.13,5.495h-15.706V4.061h15.283l0.13,5.593h-9.072v3.772h7.479v5.105h-7.479v4.422
		H136.812z"/>
	<path fill="#1A1A18" d="M16.323,46.946c-1.072-0.39-2.536-0.65-4.064-0.65c-3.609,0-4.52,1.528-4.52,6.861
		c0,5.625,1.008,7.186,4.617,7.186c1.496,0,2.895-0.292,4.032-0.812l0.585,5.17c-1.463,0.716-3.674,1.171-5.56,1.171
		c-6.959,0-10.341-3.967-10.341-12.747c0-8.193,3.284-12.486,10.73-12.486c1.724,0,3.837,0.391,5.138,0.911L16.323,46.946z"/>
	<path fill="#1A1A18" d="M32.253,61.188h-6.634l-0.942,4.26h-6.731l7.219-24.388h7.771l7.349,24.388h-7.088L32.253,61.188z
		 M28.384,48.897l-1.562,6.991h4.26l-1.561-6.991l-0.487-2.602h-0.098L28.384,48.897z"/>
	<path fill="#1A1A18" d="M48.346,65.871c-2.568,0-5.104-0.585-7.088-1.691l0.812-5.397c1.983,1.008,4,1.626,6.113,1.626
		c2.016,0,2.796-0.683,2.796-1.983c0-3.122-9.689-2.146-9.689-10.112c0-4.26,2.602-7.642,8.617-7.642
		c2.243,0,4.649,0.423,6.405,1.17l-0.715,5.301c-1.854-0.553-3.707-0.878-5.269-0.878c-2.406,0-2.926,0.715-2.926,1.756
		c0,3.154,9.689,2.081,9.689,10.048C57.093,62.879,53.842,65.871,48.346,65.871z"/>
	<path fill="#1A1A18" d="M71.625,65.448v-9.56h-5.918v9.56h-6.341V41.06h6.341v9.138h5.918V41.06h6.373v24.388H71.625z"/>
	<path fill="#1A1A18" d="M90.774,65.448h-9.495V41.06h9.56c5.235,0,7.902,2.439,7.902,6.309c0,2.568-1.171,4.228-2.992,5.105v0.064
		c2.439,0.813,3.739,2.699,3.739,5.723C99.488,62.651,96.854,65.448,90.774,65.448z M90.579,46.393h-3.154v4.292h3.22
		c1.463,0,1.983-0.553,1.983-2.211C92.628,46.88,92.075,46.393,90.579,46.393z M90.742,55.433h-3.317v4.812h3.447
		c1.593,0,2.179-0.52,2.179-2.438C93.051,56.116,92.53,55.433,90.742,55.433z"/>
	<path fill="#1A1A18" d="M114.15,61.188h-6.634l-0.942,4.26h-6.731l7.219-24.388h7.771l7.349,24.388h-7.088L114.15,61.188z
		 M110.281,48.897l-1.562,6.991h4.26l-1.561-6.991l-0.487-2.602h-0.098L110.281,48.897z"/>
	<path fill="#1A1A18" d="M137.494,46.946c-1.072-0.39-2.536-0.65-4.064-0.65c-3.609,0-4.52,1.528-4.52,6.861
		c0,5.625,1.008,7.186,4.617,7.186c1.496,0,2.895-0.292,4.032-0.812l0.585,5.17c-1.463,0.716-3.674,1.171-5.56,1.171
		c-6.959,0-10.341-3.967-10.341-12.747c0-8.193,3.284-12.486,10.73-12.486c1.724,0,3.837,0.391,5.138,0.911L137.494,46.946z"/>
	<path fill="#1A1A18" d="M152.969,65.448l-4.585-9.918h-1.561v9.918h-6.341V41.06h6.341v9.43h1.69l4.521-9.43h7.121l-5.854,11.674
		l6.146,12.714H152.969z"/>
	<path fill="#1A1A18" d="M14.308,98.188H7.674l-0.942,4.26H0L7.219,78.06h7.771l7.349,24.388h-7.088L14.308,98.188z M10.438,85.897
		l-1.562,6.991h4.26l-1.561-6.991l-0.487-2.602h-0.098L10.438,85.897z"/>
	<path fill="#1A1A18" d="M38.236,102.448l-7.283-11.251l-1.365-2.243l-0.065,0.032l0.032,2.634v10.828h-5.593V78.06h5.333
		l7.836,12.649l0.065-0.032l-0.065-2.602l0.033-10.016h5.593v24.388H38.236z"/>
	<path fill="#1A1A18" d="M63.303,101.57c-1.69,0.812-4.454,1.333-6.958,1.333c-8.064,0-10.926-4.324-10.926-12.648
		c0-8.52,3.35-12.617,11.219-12.617c2.146,0,4.584,0.391,6.341,1.073l-0.586,5.431c-1.593-0.585-3.642-0.943-5.397-0.943
		c-4,0-4.91,1.496-4.91,6.991c0,5.788,0.943,7.056,4.097,7.056c0.488,0,1.009-0.032,1.464-0.13v-7.966h5.657V101.57z"/>
	<path fill="#1A1A18" d="M82.03,96.953l-0.13,5.495H66.194V78.06h15.283l0.13,5.593h-9.072v3.772h7.479v5.104h-7.479v4.423H82.03z"
		/>
	<path fill="#1A1A18" d="M93.961,102.448h-9.495V78.06h9.56c5.235,0,7.902,2.439,7.902,6.309c0,2.568-1.171,4.228-2.992,5.105v0.064
		c2.439,0.813,3.739,2.699,3.739,5.723C102.675,99.651,100.041,102.448,93.961,102.448z M93.766,83.393h-3.154v4.292h3.22
		c1.463,0,1.983-0.553,1.983-2.211C95.814,83.88,95.262,83.393,93.766,83.393z M93.929,92.433h-3.317v4.812h3.447
		c1.593,0,2.179-0.52,2.179-2.438C96.237,93.116,95.717,92.433,93.929,92.433z"/>
	<path fill="#1A1A18" d="M114.768,102.871c-7.023,0-10.21-3.707-10.21-12.616c0-8.942,3.057-12.584,10.21-12.584
		c7.154,0,10.211,3.642,10.211,12.584C124.979,99.423,121.922,102.871,114.768,102.871z M114.735,83.361
		c-2.666,0-3.512,1.105-3.512,6.894c0,5.82,0.878,6.99,3.577,6.99c2.698,0,3.512-1.202,3.512-6.99
		C118.312,84.434,117.499,83.361,114.735,83.361z"/>
	<path fill="#1A1A18" d="M137.592,83.75v18.697h-6.471V83.75h-5.527l0.13-5.69h17.267l0.13,5.69H137.592z"/>
	<path fill="#1A1A18" d="M160.903,96.953l-0.13,5.495h-15.706V78.06h15.283l0.13,5.593h-9.072v3.772h7.479v5.104h-7.479v4.423
		H160.903z"/>
	<path fill="#1A1A18" d="M165.941,102.838c-2.276,0-3.284-0.878-3.284-3.09c0-1.983,1.008-3.121,3.284-3.121
		s3.252,1.138,3.252,3.121C169.193,101.602,168.218,102.838,165.941,102.838z"/>
</g>
</svg>
