<?xml version="1.0" encoding="utf-8"?>
<!-- Generator: Adobe Illustrator 16.0.4, SVG Export Plug-In . SVG Version: 6.00 Build 0)  -->
<!DOCTYPE svg PUBLIC "-//W3C//DTD SVG 1.1//EN" "http://www.w3.org/Graphics/SVG/1.1/DTD/svg11.dtd">
<svg version="1.1" id="Ebene_1" xmlns="http://www.w3.org/2000/svg" xmlns:xlink="http://www.w3.org/1999/xlink" x="0px" y="0px"
	 width="364.742px" height="38.853px" viewBox="0 0 364.742 38.853" enable-background="new 0 0 364.742 38.853"
	 xml:space="preserve">
<g>
	<path d="M27.501,36.802c-2.601,1.25-6.851,2.05-10.7,2.05C4.399,38.853,0,32.202,0,19.401C0,6.3,5.149,0,17.25,0
		c3.301,0,7.051,0.6,9.751,1.65L26.102,10c-2.451-0.9-5.602-1.45-8.301-1.45c-6.15,0-7.551,2.3-7.551,10.751
		c0,8.9,1.45,10.851,6.301,10.851c0.75,0,1.55-0.05,2.25-0.2v-12.25h8.7V36.802z"/>
	<path d="M54,22.801l7.301,15.351H50l-5-13.401h-3.301v13.401h-9.75V0.65h12.95c9.501,0,14.2,3.601,14.2,12.051
		C59.1,17.701,57.301,21.401,54,22.801z M45.1,8.75h-3.4v8.65h3.35c2.851,0,3.851-0.7,3.851-4.35C48.899,9.65,47.949,8.75,45.1,8.75
		z"/>
	<path d="M83.1,31.602H72.898l-1.45,6.55H61.098L72.198,0.65h11.95l11.301,37.502h-10.9L83.1,31.602z M77.148,12.701l-2.4,10.751
		h6.551l-2.4-10.751l-0.75-4h-0.149L77.148,12.701z"/>
	<path d="M110.949,9.4v28.752h-9.95V9.4h-8.501l0.2-8.75h26.552l0.2,8.75H110.949z"/>
	<path d="M122.848,0.65h10.051v37.502h-10.051V0.65z"/>
	<path d="M148.197,38.802c-3.949,0-7.85-0.9-10.9-2.6l1.25-8.3c3.051,1.55,6.15,2.5,9.4,2.5c3.101,0,4.301-1.05,4.301-3.05
		c0-4.8-14.9-3.3-14.9-15.551c0-6.55,4-11.751,13.25-11.751c3.451,0,7.15,0.65,9.852,1.8L159.349,10
		c-2.851-0.85-5.7-1.35-8.101-1.35c-3.7,0-4.5,1.1-4.5,2.7c0,4.851,14.9,3.2,14.9,15.451
		C161.648,34.202,156.648,38.802,148.197,38.802z"/>
	<path d="M200.748,29.702l-0.2,8.451h-24.151V0.65h23.502l0.199,8.601h-13.951v5.8h11.501v7.851h-11.501v6.8H200.748z"/>
	<path d="M216.996,16.151v6.5h-13.95v-6.5H216.996z"/>
	<path d="M235.997,38.152h-14.601V0.65h14.7c8.051,0,12.15,3.75,12.15,9.701c0,3.95-1.8,6.5-4.6,7.851v0.1
		c3.75,1.25,5.75,4.15,5.75,8.8C249.397,33.852,245.348,38.152,235.997,38.152z M235.696,8.851h-4.85v6.601h4.95
		c2.25,0,3.05-0.85,3.05-3.4C238.847,9.601,237.997,8.851,235.696,8.851z M235.946,22.751h-5.1v7.4h5.3c2.45,0,3.351-0.8,3.351-3.75
		C239.497,23.801,238.697,22.751,235.946,22.751z"/>
	<path d="M267.995,38.802c-10.801,0-15.701-5.7-15.701-19.401c0-13.751,4.7-19.352,15.701-19.352s15.701,5.601,15.701,19.352
		C283.696,33.502,278.996,38.802,267.995,38.802z M267.945,8.801c-4.101,0-5.4,1.7-5.4,10.601c0,8.95,1.35,10.75,5.5,10.75
		s5.4-1.85,5.4-10.75C273.445,10.451,272.195,8.801,267.945,8.801z"/>
	<path d="M302.494,38.802c-10.801,0-15.701-5.7-15.701-19.401c0-13.751,4.7-19.352,15.701-19.352s15.701,5.601,15.701,19.352
		C318.195,33.502,313.495,38.802,302.494,38.802z M302.444,8.801c-4.101,0-5.4,1.7-5.4,10.601c0,8.95,1.35,10.75,5.5,10.75
		s5.4-1.85,5.4-10.75C307.944,10.451,306.694,8.801,302.444,8.801z"/>
	<path d="M341.493,38.152l-7.05-15.251h-2.4v15.251h-9.751V0.65h9.751v14.501h2.601l6.95-14.501h10.95l-9,17.951l9.45,19.551
		H341.493z"/>
	<path d="M359.742,38.752c-3.501,0-5.051-1.35-5.051-4.75c0-3.05,1.55-4.8,5.051-4.8c3.5,0,5,1.75,5,4.8
		C364.742,36.852,363.242,38.752,359.742,38.752z"/>
</g>
</svg>
