<?xml version="1.0" encoding="utf-8"?>
<!-- Generator: Adobe Illustrator 16.0.4, SVG Export Plug-In . SVG Version: 6.00 Build 0)  -->
<!DOCTYPE svg PUBLIC "-//W3C//DTD SVG 1.1//EN" "http://www.w3.org/Graphics/SVG/1.1/DTD/svg11.dtd">
<svg version="1.1" id="Ebene_1" xmlns="http://www.w3.org/2000/svg" xmlns:xlink="http://www.w3.org/1999/xlink" x="0px" y="0px"
	 width="262.616px" height="83.309px" viewBox="0 0 262.616 83.309" enable-background="new 0 0 262.616 83.309"
	 xml:space="preserve">
<g>
	<path d="M14.82,17.819l-0.12,5.07H0.211V0.39h14.1l0.119,5.16H6.061v3.48h6.899v4.71H6.061v4.08H14.82z"/>
	<path d="M30.24,22.889L23.52,12.51l-1.26-2.07l-0.06,0.03l0.03,2.43v9.99h-5.16V0.39h4.92L29.22,12.06l0.06-0.03l-0.06-2.4
		l0.03-9.24h5.16v22.499H30.24z"/>
	<path d="M47.279,5.64v17.25h-5.969V5.64h-5.1l0.119-5.25h15.93l0.12,5.25H47.279z"/>
	<path d="M62.311,22.889H54.18V0.39h8.01c6.84,0,9.631,3.18,9.631,11.129C71.82,19.769,68.64,22.889,62.311,22.889z M62.221,5.58
		h-2.19v12.179h2.19c2.579,0,3.449-0.78,3.449-6.3C65.67,6.48,64.859,5.58,62.221,5.58z"/>
	<path d="M88.89,17.819l-0.12,5.07H74.28V0.39h14.1l0.12,5.16h-8.369v3.48h6.898v4.71h-6.898v4.08H88.89z"/>
	<path d="M104.189,5.82c-0.99-0.36-2.34-0.6-3.75-0.6c-3.329,0-4.17,1.41-4.17,6.33c0,5.189,0.931,6.629,4.26,6.629
		c1.381,0,2.67-0.27,3.721-0.75l0.54,4.77c-1.351,0.66-3.39,1.08-5.13,1.08c-6.42,0-9.539-3.66-9.539-11.76
		C90.121,3.96,93.15,0,100.02,0c1.59,0,3.541,0.36,4.74,0.84L104.189,5.82z"/>
	<path d="M118.469,22.889l-4.229-9.149h-1.44v9.149h-5.851V0.39h5.851v8.7h1.56l4.17-8.7h6.57l-5.4,10.77l5.67,11.729H118.469z"/>
	<path d="M141.629,17.819l-0.119,5.07h-14.49V0.39h14.1l0.12,5.16h-8.37v3.48h6.9v4.71h-6.9v4.08H141.629z"/>
	<path d="M157.049,22.889l-6.72-10.379l-1.26-2.07l-0.06,0.03l0.029,2.43v9.99h-5.16V0.39h4.92l7.23,11.669l0.06-0.03l-0.06-2.4
		l0.029-9.24h5.16v22.499H157.049z"/>
	<path d="M176.908,23.279c-2.369,0-4.709-0.54-6.539-1.56l0.75-4.98c1.83,0.93,3.689,1.5,5.64,1.5c1.86,0,2.58-0.63,2.58-1.83
		c0-2.88-8.94-1.98-8.94-9.33c0-3.93,2.4-7.049,7.95-7.049c2.069,0,4.29,0.39,5.909,1.08L183.599,6c-1.71-0.51-3.42-0.81-4.86-0.81
		c-2.22,0-2.699,0.66-2.699,1.62c0,2.91,8.939,1.92,8.939,9.27C184.979,20.519,181.979,23.279,176.908,23.279z"/>
	<path d="M187.318,0.39h6.03v22.499h-6.03V0.39z"/>
	<path d="M211.258,17.819l-0.12,5.07h-14.489V0.39h14.1l0.119,5.16h-8.369v3.48h6.899v4.71h-6.899v4.08H211.258z"/>
	<path d="M17.25,45.239c0,5.28-2.82,8.04-8.58,8.04S0,50.519,0,45.239V30.39h5.881V45.12c0,2.01,0.779,2.91,2.789,2.91
		c2.04,0,2.73-0.84,2.73-2.91V30.39h5.85V45.239z"/>
	<path d="M33.27,52.889L26.55,42.51l-1.26-2.07l-0.06,0.03l0.029,2.43v9.99H20.1V30.39h4.92l7.23,11.669l0.06-0.03l-0.06-2.4
		l0.029-9.24h5.16v22.499H33.27z"/>
	<path d="M46.38,53.279c-2.37,0-4.71-0.54-6.54-1.56l0.75-4.98c1.83,0.93,3.689,1.5,5.641,1.5c1.859,0,2.579-0.63,2.579-1.83
		c0-2.88-8.939-1.98-8.939-9.33c0-3.93,2.399-7.049,7.95-7.049c2.069,0,4.289,0.39,5.909,1.08L53.07,36
		c-1.711-0.51-3.42-0.81-4.86-0.81c-2.22,0-2.7,0.66-2.7,1.62c0,2.91,8.939,1.92,8.939,9.27
		C54.449,50.519,51.449,53.279,46.38,53.279z"/>
	<path d="M71.159,47.819l-0.12,5.07H56.55V30.39h14.1l0.12,5.16H62.4v3.48h6.898v4.71H62.4v4.08H71.159z"/>
	<path d="M86.639,43.68l4.381,9.209h-6.78l-3-8.04H79.26v8.04h-5.85V30.39h7.77c5.699,0,8.52,2.16,8.52,7.229
		C89.699,40.62,88.619,42.839,86.639,43.68z M81.299,35.25H79.26v5.189h2.01c1.71,0,2.311-0.42,2.311-2.61
		C83.58,35.79,83.01,35.25,81.299,35.25z"/>
	<path d="M107.099,47.819l-0.12,5.07H92.489V30.39h14.1l0.12,5.16H98.34v3.48h6.898v4.71H98.34v4.08H107.099z"/>
	<path d="M129.328,43.68l4.38,9.209h-6.78l-2.999-8.04h-1.979v8.04h-5.851V30.39h7.771c5.699,0,8.52,2.16,8.52,7.229
		C132.389,40.62,131.309,42.839,129.328,43.68z M123.988,35.25h-2.039v5.189h2.01c1.709,0,2.31-0.42,2.31-2.61
		C126.269,35.79,125.698,35.25,123.988,35.25z"/>
	<path d="M143.548,53.279c-6.479,0-9.419-3.42-9.419-11.64c0-8.25,2.819-11.609,9.419-11.609s9.419,3.36,9.419,11.609
		C152.967,50.099,150.147,53.279,143.548,53.279z M143.518,35.28c-2.459,0-3.24,1.02-3.24,6.36c0,5.37,0.811,6.45,3.301,6.45
		s3.24-1.11,3.24-6.45C146.818,36.27,146.068,35.28,143.518,35.28z"/>
	<path d="M164.188,52.889h-8.76V30.39h8.82c4.829,0,7.289,2.25,7.289,5.82c0,2.37-1.08,3.9-2.76,4.709v0.06
		c2.25,0.75,3.449,2.49,3.449,5.28C172.227,50.309,169.797,52.889,164.188,52.889z M164.008,35.31h-2.91v3.959h2.97
		c1.351,0,1.83-0.51,1.83-2.04C165.897,35.76,165.388,35.31,164.008,35.31z M164.158,43.649h-3.061v4.44h3.18
		c1.471,0,2.01-0.48,2.01-2.25C166.287,44.279,165.808,43.649,164.158,43.649z"/>
	<path d="M191.428,45.239c0,5.28-2.82,8.04-8.58,8.04s-8.67-2.76-8.67-8.04V30.39h5.88V45.12c0,2.01,0.78,2.91,2.79,2.91
		c2.039,0,2.729-0.84,2.729-2.91V30.39h5.851V45.239z"/>
	<path d="M199.947,53.279c-2.369,0-4.709-0.54-6.539-1.56l0.75-4.98c1.83,0.93,3.689,1.5,5.64,1.5c1.86,0,2.58-0.63,2.58-1.83
		c0-2.88-8.94-1.98-8.94-9.33c0-3.93,2.4-7.049,7.95-7.049c2.069,0,4.29,0.39,5.909,1.08L206.638,36c-1.71-0.51-3.42-0.81-4.86-0.81
		c-2.22,0-2.699,0.66-2.699,1.62c0,2.91,8.939,1.92,8.939,9.27C208.018,50.519,205.018,53.279,199.947,53.279z"/>
	<path d="M219.447,35.64v17.25h-5.97V35.64h-5.1l0.12-5.25h15.93l0.119,5.25H219.447z"/>
	<path d="M240.957,47.819l-0.12,5.07h-14.489V30.39h14.1l0.12,5.16h-8.37v3.48h6.9v4.71h-6.9v4.08H240.957z"/>
	<path d="M256.377,52.889l-6.72-10.379l-1.26-2.07l-0.06,0.03l0.029,2.43v9.99h-5.159V30.39h4.92l7.229,11.669l0.06-0.03l-0.06-2.4
		l0.029-9.24h5.16v22.499H256.377z"/>
	<path d="M0.451,60.39H6.48v22.499H0.451V60.39z"/>
	<path d="M22.949,82.889l-6.72-10.379l-1.26-2.07l-0.06,0.03l0.029,2.43v9.99h-5.16V60.39h4.92l7.23,11.669l0.06-0.03l-0.06-2.4
		l0.029-9.24h5.16v22.499H22.949z"/>
	<path d="M38.31,82.889h-8.13V60.39h8.01c6.84,0,9.63,3.18,9.63,11.129C47.819,79.769,44.639,82.889,38.31,82.889z M38.22,65.58
		h-2.19v12.179h2.19c2.579,0,3.45-0.78,3.45-6.3C41.67,66.48,40.859,65.58,38.22,65.58z"/>
	<path d="M67.319,75.239c0,5.28-2.819,8.04-8.579,8.04s-8.67-2.76-8.67-8.04V60.39h5.879V75.12c0,2.01,0.78,2.91,2.791,2.91
		c2.039,0,2.729-0.84,2.729-2.91V60.39h5.85V75.239z"/>
	<path d="M75.84,83.279c-2.37,0-4.71-0.54-6.539-1.56l0.75-4.98c1.829,0.93,3.689,1.5,5.639,1.5c1.86,0,2.58-0.63,2.58-1.83
		c0-2.88-8.939-1.98-8.939-9.33c0-3.93,2.4-7.049,7.949-7.049c2.07,0,4.291,0.39,5.91,1.08L82.529,66
		c-1.709-0.51-3.42-0.81-4.859-0.81c-2.221,0-2.7,0.66-2.7,1.62c0,2.91,8.94,1.92,8.94,9.27C83.91,80.519,80.91,83.279,75.84,83.279
		z"/>
	<path d="M95.34,65.64v17.25h-5.971V65.64h-5.1l0.121-5.25h15.929l0.12,5.25H95.34z"/>
	<path d="M115.469,73.68l4.381,9.209h-6.78l-3-8.04h-1.979v8.04h-5.85V60.39h7.77c5.699,0,8.52,2.16,8.52,7.229
		C118.529,70.62,117.449,72.839,115.469,73.68z M110.129,65.25h-2.039v5.189h2.01c1.71,0,2.311-0.42,2.311-2.61
		C112.41,65.79,111.84,65.25,110.129,65.25z"/>
	<path d="M121.56,60.39h6.03v22.499h-6.03V60.39z"/>
	<path d="M145.498,77.819l-0.119,5.07h-14.49V60.39h14.1l0.12,5.16h-8.37v3.48h6.9v4.71h-6.9v4.08H145.498z"/>
	<path d="M153.629,83.279c-2.37,0-4.711-0.54-6.54-1.56l0.75-4.98c1.829,0.93,3.689,1.5,5.64,1.5c1.859,0,2.58-0.63,2.58-1.83
		c0-2.88-8.939-1.98-8.939-9.33c0-3.93,2.399-7.049,7.949-7.049c2.07,0,4.29,0.39,5.91,1.08l-0.66,4.89
		c-1.71-0.51-3.42-0.81-4.859-0.81c-2.221,0-2.701,0.66-2.701,1.62c0,2.91,8.94,1.92,8.94,9.27
		C161.698,80.519,158.698,83.279,153.629,83.279z"/>
	<path d="M174.838,78.959h-6.119l-0.87,3.93h-6.21l6.66-22.499h7.17l6.779,22.499h-6.54L174.838,78.959z M171.269,67.62l-1.44,6.45
		h3.93l-1.439-6.45l-0.45-2.4h-0.09L171.269,67.62z"/>
	<path d="M199.857,75.239c0,5.28-2.819,8.04-8.579,8.04s-8.67-2.76-8.67-8.04V60.39h5.88V75.12c0,2.01,0.779,2.91,2.79,2.91
		c2.04,0,2.729-0.84,2.729-2.91V60.39h5.85V75.239z"/>
	<path d="M218.607,82.079c-1.561,0.75-4.109,1.23-6.42,1.23c-7.439,0-10.079-3.99-10.079-11.669c0-7.86,3.09-11.64,10.35-11.64
		c1.979,0,4.229,0.36,5.85,0.99l-0.54,5.01c-1.47-0.54-3.359-0.87-4.98-0.87c-3.689,0-4.529,1.38-4.529,6.45
		c0,5.34,0.87,6.51,3.779,6.51c0.451,0,0.931-0.03,1.351-0.12v-7.35h5.22V82.079z"/>
	<path d="M235.888,77.819l-0.12,5.07h-14.49V60.39h14.1l0.12,5.16h-8.369v3.48h6.899v4.71h-6.899v4.08H235.888z"/>
	<path d="M251.367,73.68l4.38,9.209h-6.78l-3-8.04h-1.979v8.04h-5.85V60.39h7.77c5.699,0,8.52,2.16,8.52,7.229
		C254.427,70.62,253.347,72.839,251.367,73.68z M246.027,65.25h-2.04v5.189h2.01c1.71,0,2.31-0.42,2.31-2.61
		C248.307,65.79,247.737,65.25,246.027,65.25z"/>
	<path d="M259.616,83.249c-2.1,0-3.029-0.81-3.029-2.85c0-1.83,0.93-2.88,3.029-2.88s3,1.05,3,2.88
		C262.616,82.109,261.716,83.249,259.616,83.249z"/>
</g>
</svg>
