<?xml version="1.0" encoding="utf-8"?>
<!-- Generator: Adobe Illustrator 16.0.0, SVG Export Plug-In . SVG Version: 6.00 Build 0)  -->
<!DOCTYPE svg PUBLIC "-//W3C//DTD SVG 1.1//EN" "http://www.w3.org/Graphics/SVG/1.1/DTD/svg11.dtd">
<svg version="1.1" id="Ebene_1" xmlns="http://www.w3.org/2000/svg" xmlns:xlink="http://www.w3.org/1999/xlink" x="0px" y="0px"
	 width="77.166px" height="27.625px" viewBox="0 0 77.166 27.625" enable-background="new 0 0 77.166 27.625" xml:space="preserve">
<g id="Text">
	<g>
		<path fill="#FFFFFF" d="M2.708,7.496H0V0h2.668c2.279,0,3.208,1.06,3.208,3.708C5.877,6.457,4.817,7.496,2.708,7.496z
			 M2.679,1.729h-0.73v4.058h0.73c0.859,0,1.149-0.26,1.149-2.099C3.828,2.029,3.558,1.729,2.679,1.729z"/>
		<path fill="#FFFFFF" d="M6.78,0h2.009v7.496H6.78V0z"/>
		<path fill="#FFFFFF" d="M14.757,5.807l-0.04,1.689H9.89V0h4.697l0.04,1.72h-2.789v1.159h2.299v1.569h-2.299v1.358L14.757,5.807
			L14.757,5.807z"/>
		<path fill="#FFFFFF" d="M21.627,6.187h-2.039l-0.29,1.31H17.23L19.449,0h2.389l2.259,7.496h-2.179L21.627,6.187z M20.438,2.409
			l-0.48,2.148h1.309l-0.479-2.148l-0.15-0.8h-0.03L20.438,2.409z"/>
		<path fill="#FFFFFF" d="M28.438,7.496l-1.409-3.048h-0.48v3.048H24.6V0h1.949v2.898h0.52L28.458,0h2.189l-1.799,3.588l1.889,3.908
			H28.438z"/>
		<path fill="#FFFFFF" d="M35.127,7.496l-1.409-3.048h-0.48v3.048H31.29V0h1.949v2.898h0.52L35.147,0h2.188l-1.799,3.588
			l1.889,3.908H35.127z"/>
		<path fill="#FFFFFF" d="M43.655,4.947c0,1.759-0.938,2.679-2.857,2.679s-2.888-0.92-2.888-2.679V0h1.958v4.907
			c0,0.67,0.26,0.97,0.93,0.97c0.68,0,0.91-0.28,0.91-0.97V0h1.949v4.947H43.655z"/>
		<path fill="#FFFFFF" d="M47.258,3.099v1.299H44.47V3.099H47.258z"/>
		<path fill="#FFFFFF" d="M2.568,15.167h-0.62v2.33H0V10h2.568c2.079,0,2.909,0.81,2.909,2.639
			C5.477,14.258,4.667,15.167,2.568,15.167z M2.568,11.629h-0.62v1.989h0.62c0.64,0,0.88-0.149,0.88-0.989
			C3.448,11.819,3.258,11.629,2.568,11.629z"/>
		<path fill="#FFFFFF" d="M10.708,15.756l-0.05,1.74H6.19V10h1.969v5.756H10.708z"/>
		<path fill="#FFFFFF" d="M15.217,16.187h-2.039l-0.29,1.31H10.82L13.039,10h2.389l2.259,7.497h-2.179L15.217,16.187z
			 M14.028,12.409l-0.48,2.148h1.309l-0.479-2.148l-0.15-0.8h-0.03L14.028,12.409z"/>
		<path fill="#FFFFFF" d="M20.788,11.749v5.748h-1.989v-5.748H17.1L17.14,10h5.307l0.04,1.749H20.788z"/>
		<path fill="#FFFFFF" d="M26.518,11.749v5.748h-1.989v-5.748H22.83L22.87,10h5.307l0.04,1.749H26.518z"/>
		<path fill="#FFFFFF" d="M30.778,11.749v1.319h2.289l-0.01,1.659h-2.279v2.77h-1.959V10h4.688l0.03,1.749H30.778z"/>
		<path fill="#FFFFFF" d="M37.078,17.625c-2.159,0-3.138-1.14-3.138-3.877c0-2.748,0.939-3.868,3.138-3.868
			c2.198,0,3.138,1.12,3.138,3.868C40.216,16.566,39.276,17.625,37.078,17.625z M37.068,11.629c-0.819,0-1.079,0.34-1.079,2.119
			c0,1.79,0.27,2.149,1.099,2.149s1.08-0.37,1.08-2.149C38.167,11.959,37.917,11.629,37.068,11.629z"/>
		<path fill="#FFFFFF" d="M45.446,14.428l1.459,3.068h-2.258l-1-2.68h-0.66v2.68H41.04V10h2.588c1.898,0,2.838,0.72,2.838,2.409
			C46.466,13.408,46.106,14.147,45.446,14.428z M43.668,11.619h-0.681v1.729h0.671c0.569,0,0.771-0.141,0.771-0.87
			C44.429,11.799,44.237,11.619,43.668,11.619z"/>
		<path fill="#FFFFFF" d="M49.548,10l1.319,3.788l0.25,0.77h0.03l0.25-0.76L52.735,10h2.16v7.497h-1.789v-3.14l0.02-0.81
			l-0.029-0.01l-0.25,0.779l-1.109,3.179h-1.27l-1.1-3.168l-0.25-0.78l-0.02,0.011l0.01,0.81v3.129h-1.709V10H49.548z"/>
		<path fill="#FFFFFF" d="M64.286,10l-2.219,7.497h-2.229L57.629,10h2.147l1.051,4.678l0.17,0.789h0.029l0.16-0.789L62.267,10
			H64.286z"/>
		<path fill="#FFFFFF" d="M67.427,17.625c-2.158,0-3.138-1.14-3.138-3.877c0-2.748,0.938-3.868,3.138-3.868s3.139,1.12,3.139,3.868
			C70.565,16.566,69.626,17.625,67.427,17.625z M67.417,11.629c-0.818,0-1.079,0.34-1.079,2.119c0,1.79,0.271,2.149,1.099,2.149
			c0.83,0,1.08-0.37,1.08-2.149C68.517,11.959,68.267,11.629,67.417,11.629z"/>
		<path fill="#FFFFFF" d="M75.776,17.497l-2.239-3.458l-0.42-0.689l-0.021,0.01l0.01,0.81v3.328h-1.719V10h1.639l2.41,3.888
			l0.02-0.01l-0.02-0.8L75.446,10h1.719v7.497H75.776z"/>
		<path fill="#FFFFFF" d="M3.838,27.497l-1.409-3.049h-0.48v3.049H0V20h1.949v2.897h0.52L3.858,20h2.189l-1.799,3.588l1.889,3.908
			H3.838z"/>
		<path fill="#FFFFFF" d="M10.558,26.187H8.519l-0.29,1.31H6.16L8.379,20h2.389l2.259,7.496h-2.179L10.558,26.187z M8.609,19.641
			c-0.49,0-0.74-0.189-0.74-0.67c0-0.449,0.25-0.689,0.74-0.689c0.51,0,0.74,0.24,0.74,0.689
			C9.349,19.411,9.119,19.641,8.609,19.641z M9.369,22.409l-0.48,2.148h1.309l-0.479-2.148l-0.15-0.8h-0.03L9.369,22.409z
			 M10.518,19.641c-0.49,0-0.739-0.189-0.739-0.67c0-0.449,0.25-0.689,0.739-0.689c0.51,0,0.74,0.24,0.74,0.689
			C11.257,19.411,11.027,19.641,10.518,19.641z"/>
		<path fill="#FFFFFF" d="M17.938,24.428l1.459,3.068h-2.259l-1-2.68h-0.66v2.68H13.53V20h2.588c1.899,0,2.838,0.72,2.838,2.408
			C18.957,23.409,18.597,24.147,17.938,24.428z M16.158,21.62h-0.68v1.729h0.67c0.569,0,0.77-0.141,0.77-0.87
			C16.918,21.799,16.728,21.62,16.158,21.62z"/>
		<path fill="#FFFFFF" d="M24.227,21.81c-0.33-0.12-0.779-0.2-1.249-0.2c-1.109,0-1.389,0.471-1.389,2.108
			c0,1.729,0.31,2.209,1.419,2.209c0.46,0,0.89-0.091,1.239-0.25l0.18,1.59c-0.45,0.22-1.129,0.358-1.709,0.358
			c-2.139,0-3.178-1.22-3.178-3.918c0-2.519,1.009-3.838,3.298-3.838c0.53,0,1.18,0.12,1.579,0.28L24.227,21.81z"/>
		<path fill="#FFFFFF" d="M28.917,27.497v-2.938h-1.819v2.938h-1.949V20h1.949v2.809h1.819V20h1.958v7.496H28.917z"/>
		<path fill="#FFFFFF" d="M36.757,25.807l-0.04,1.689H31.89V20h4.697l0.04,1.72h-2.789v1.159h2.299v1.568h-2.299v1.358
			L36.757,25.807L36.757,25.807z"/>
		<path fill="#FFFFFF" d="M41.917,24.428l1.459,3.068h-2.259l-1-2.68h-0.66v2.68h-1.949V20h2.589c1.898,0,2.838,0.72,2.838,2.408
			C42.937,23.409,42.577,24.147,41.917,24.428z M40.138,21.62h-0.68v1.729h0.67c0.568,0,0.77-0.141,0.77-0.87
			C40.897,21.799,40.708,21.62,40.138,21.62z"/>
		<path fill="#FFFFFF" d="M44.668,27.616c-0.698,0-1.009-0.271-1.009-0.949c0-0.609,0.311-0.959,1.009-0.959c0.7,0,1,0.35,1,0.959
			C45.668,27.236,45.368,27.616,44.668,27.616z"/>
	</g>
</g>
<g id="Screens">
</g>
</svg>
