<?xml version="1.0" encoding="utf-8"?>
<!-- Generator: Adobe Illustrator 16.0.0, SVG Export Plug-In . SVG Version: 6.00 Build 0)  -->
<!DOCTYPE svg PUBLIC "-//W3C//DTD SVG 1.1//EN" "http://www.w3.org/Graphics/SVG/1.1/DTD/svg11.dtd">
<svg version="1.1" id="Ebene_1" xmlns="http://www.w3.org/2000/svg" xmlns:xlink="http://www.w3.org/1999/xlink" x="0px" y="0px"
	 width="88.407px" height="17.746px" viewBox="0 0 88.407 17.746" enable-background="new 0 0 88.407 17.746" xml:space="preserve">
<g id="Text">
	<g>
		<path fill="#FFFFFF" d="M3.238,7.617H0.53V0.121h2.668c2.279,0,3.208,1.059,3.208,3.707C6.407,6.578,5.347,7.617,3.238,7.617z
			 M3.208,1.85h-0.73v4.059h0.73c0.859,0,1.149-0.26,1.149-2.1C4.357,2.15,4.088,1.85,3.208,1.85z"/>
		<path fill="#FFFFFF" d="M10.817,6.307H8.779l-0.29,1.311H6.42l2.219-7.496h2.389l2.259,7.496h-2.179L10.817,6.307z M9.628,2.529
			l-0.48,2.148h1.309L9.978,2.529L9.828,1.73h-0.03L9.628,2.529z"/>
		<path fill="#FFFFFF" d="M15.769,7.746c-0.79,0-1.569-0.18-2.179-0.52l0.25-1.658c0.61,0.309,1.229,0.5,1.879,0.5
			c0.62,0,0.86-0.211,0.86-0.611c0-0.959-2.979-0.658-2.979-3.107C13.6,1.041,14.4,0,16.248,0c0.69,0,1.429,0.131,1.969,0.361
			l-0.22,1.629c-0.569-0.17-1.139-0.27-1.619-0.27c-0.739,0-0.899,0.219-0.899,0.539c0,0.969,2.979,0.639,2.979,3.088
			C18.457,6.826,17.458,7.746,15.769,7.746z"/>
		<path fill="#FFFFFF" d="M25.797,7.617l-2.239-3.459l-0.42-0.689l-0.02,0.01l0.01,0.811v3.328H21.41V0.121h1.639l2.409,3.887
			l0.02-0.01l-0.02-0.799l0.01-3.078h1.719v7.496H25.797z"/>
		<path fill="#FFFFFF" d="M33.077,5.928l-0.04,1.689H28.21V0.121h4.697l0.04,1.719h-2.789V3h2.299v1.568h-2.299v1.359L33.077,5.928
			L33.077,5.928z"/>
		<path fill="#FFFFFF" d="M39.506,5.068c0,1.758-0.939,2.678-2.858,2.678s-2.888-0.92-2.888-2.678V0.121h1.958v4.906
			c0,0.67,0.26,0.971,0.93,0.971c0.68,0,0.91-0.281,0.91-0.971V0.121h1.949L39.506,5.068L39.506,5.068z"/>
		<path fill="#FFFFFF" d="M45.327,5.928l-0.039,1.689H40.46V0.121h4.697l0.04,1.719h-2.789V3h2.299v1.568h-2.299v1.359L45.327,5.928
			L45.327,5.928z"/>
		<path fill="#FFFFFF" d="M4.397,16.307H2.359l-0.29,1.312H0l2.219-7.496h2.389l2.259,7.496H4.688L4.397,16.307z M3.208,12.529
			l-0.48,2.148h1.309l-0.479-2.148l-0.15-0.799h-0.03L3.208,12.529z"/>
		<path fill="#FFFFFF" d="M11.208,17.617l-1.409-3.049h-0.48v3.049H7.37v-7.496h1.949v2.898h0.52l1.389-2.898h2.189l-1.799,3.588
			l1.889,3.908H11.208z"/>
		<path fill="#FFFFFF" d="M17.897,17.617l-1.409-3.049h-0.48v3.049H14.06v-7.496h1.949v2.898h0.52l1.389-2.898h2.188l-1.799,3.588
			l1.889,3.908H17.897z"/>
		<path fill="#FFFFFF" d="M26.426,15.068c0,1.758-0.939,2.678-2.858,2.678s-2.888-0.92-2.888-2.678v-4.947h1.958v4.906
			c0,0.67,0.26,0.971,0.93,0.971c0.68,0,0.91-0.281,0.91-0.971v-4.906h1.949v4.947H26.426z"/>
		<path fill="#FFFFFF" d="M30.028,13.219v1.299h-2.789v-1.299H30.028z"/>
		<path fill="#FFFFFF" d="M36.586,15.068c0,1.758-0.939,2.678-2.858,2.678s-2.888-0.92-2.888-2.678v-4.947h1.958v4.906
			c0,0.67,0.26,0.971,0.93,0.971c0.68,0,0.91-0.281,0.91-0.971v-4.906h1.949L36.586,15.068L36.586,15.068z"/>
		<path fill="#FFFFFF" d="M41.927,17.617l-2.239-3.459l-0.42-0.689l-0.02,0.01l0.01,0.812v3.328H37.54v-7.496h1.639l2.409,3.887
			l0.02-0.01l-0.02-0.799l0.01-3.078h1.719v7.496L41.927,17.617L41.927,17.617z"/>
		<path fill="#FFFFFF" d="M44.419,10.121h2.009v7.496h-2.009V10.121z"/>
		<path fill="#FFFFFF" d="M53.646,10.121l-2.219,7.496h-2.229l-2.207-7.496h2.147l1.05,4.678l0.17,0.789h0.03l0.159-0.789
			l1.08-4.678H53.646z"/>
		<path fill="#FFFFFF" d="M58.997,15.928l-0.041,1.689h-4.826v-7.496h4.697l0.039,1.719h-2.789V13h2.299v1.568h-2.299v1.359H58.997
			L58.997,15.928z"/>
		<path fill="#FFFFFF" d="M64.157,14.549l1.459,3.068h-2.259l-1-2.68h-0.66v2.68h-1.948v-7.496h2.588
			c1.898,0,2.838,0.719,2.838,2.408C65.176,13.529,64.816,14.268,64.157,14.549z M62.377,11.74h-0.681v1.729h0.671
			c0.568,0,0.77-0.141,0.77-0.869C63.137,11.92,62.947,11.74,62.377,11.74z"/>
		<path fill="#FFFFFF" d="M68.068,17.746c-0.79,0-1.569-0.18-2.179-0.52l0.25-1.658c0.609,0.309,1.229,0.5,1.879,0.5
			c0.62,0,0.859-0.211,0.859-0.611c0-0.959-2.979-0.658-2.979-3.107c0-1.309,0.801-2.35,2.648-2.35c0.689,0,1.429,0.131,1.969,0.361
			l-0.221,1.629c-0.568-0.17-1.139-0.27-1.618-0.27c-0.739,0-0.899,0.219-0.899,0.538c0,0.97,2.979,0.64,2.979,3.089
			C70.756,16.826,69.756,17.746,68.068,17.746z"/>
		<path fill="#FFFFFF" d="M77.135,15.068c0,1.758-0.939,2.678-2.858,2.678s-2.888-0.92-2.888-2.678v-4.947h1.958v4.906
			c0,0.67,0.26,0.971,0.93,0.971c0.681,0,0.91-0.281,0.91-0.971v-4.906h1.949L77.135,15.068L77.135,15.068z"/>
		<path fill="#FFFFFF" d="M80.238,10.121l1.319,3.787l0.25,0.77h0.029l0.25-0.76l1.34-3.797h2.158v7.496h-1.789v-3.139l0.021-0.812
			l-0.03-0.011l-0.25,0.779l-1.109,3.181h-1.268l-1.101-3.169l-0.25-0.78l-0.021,0.013l0.01,0.809v3.129h-1.709v-7.496H80.238z"/>
		<path fill="#FFFFFF" d="M87.409,17.736c-0.699,0-1.01-0.271-1.01-0.949c0-0.609,0.311-0.959,1.01-0.959s1,0.35,1,0.959
			C88.407,17.357,88.107,17.736,87.409,17.736z"/>
	</g>
</g>
<g id="Screens">
</g>
</svg>
