<?xml version="1.0" encoding="utf-8"?>
<!-- Generator: Adobe Illustrator 16.0.0, SVG Export Plug-In . SVG Version: 6.00 Build 0)  -->
<!DOCTYPE svg PUBLIC "-//W3C//DTD SVG 1.1//EN" "http://www.w3.org/Graphics/SVG/1.1/DTD/svg11.dtd">
<svg version="1.1" id="Ebene_1" xmlns="http://www.w3.org/2000/svg" xmlns:xlink="http://www.w3.org/1999/xlink" x="0px" y="0px"
	 width="86.086px" height="27.766px" viewBox="0 0 86.086 27.766" enable-background="new 0 0 86.086 27.766" xml:space="preserve">
<g id="Text">
	<g>
		<path fill="#FFFFFF" d="M4.248,4.878c0,2.198-1.12,2.888-2.878,2.888c-0.56,0-1.009-0.1-1.369-0.26l0.1-1.629
			c0.21,0.109,0.54,0.18,0.93,0.18c0.819,0,1.219-0.319,1.219-1.219V0.13h1.999L4.248,4.878L4.248,4.878z"/>
		<path fill="#FFFFFF" d="M10.137,5.937l-0.04,1.689H5.27V0.13h4.697l0.04,1.72H7.218v1.159h2.299v1.569H7.218v1.357L10.137,5.937
			L10.137,5.937z"/>
		<path fill="#FFFFFF" d="M14.158,1.879v5.747h-1.989V1.879H10.47l0.04-1.749h5.307l0.04,1.749H14.158z"/>
		<path fill="#FFFFFF" d="M16.189,7.626V6.356l2.389-3.798l0.44-0.659l-0.01-0.021H16.25l0.05-1.749h5.007v1.398l-2.309,3.679
			l-0.44,0.649l0.01,0.029h2.758l-0.03,1.739h-5.107V7.626z"/>
		<path fill="#FFFFFF" d="M25.397,1.879v5.747h-1.989V1.879h-1.699l0.04-1.749h5.307l0.04,1.749H25.397z"/>
		<path fill="#FFFFFF" d="M32.098,0.13l1.319,3.788l0.25,0.77h0.03l0.25-0.76l1.339-3.798h2.159v7.496h-1.789v-3.14l0.02-0.81
			l-0.03-0.01l-0.25,0.778l-1.109,3.18h-1.269l-1.1-3.168l-0.25-0.78l-0.02,0.011l0.01,0.811v3.128h-1.709V0.13H32.098z"/>
		<path fill="#FFFFFF" d="M38.549,0.13h2.009v7.496h-2.009V0.13z"/>
		<path fill="#FFFFFF" d="M44.927,1.879v5.747h-1.989V1.879h-1.699l0.04-1.749h5.308l0.039,1.749H44.927z"/>
		<path fill="#FFFFFF" d="M50.37,6.287h0.889v-3.89l-1.139,0.63l-0.201-1.519l2.168-1.37h1.129v6.147h0.891v1.339h-3.738V6.287
			H50.37z"/>
		<path fill="#FFFFFF" d="M59.956,6.287v1.339h-1.769V6.287h-2.958l-0.16-1.221l2.6-4.938h2.289v4.578h0.609l-0.04,1.579
			L59.956,6.287L59.956,6.287z M58.317,2.829l0.051-0.811l-0.021-0.011l-1.339,2.699h1.238L58.317,2.829z"/>
		<path fill="#FFFFFF" d="M66.776,1.879v5.747h-1.988V1.879h-1.699l0.039-1.749h5.308l0.04,1.749H66.776z"/>
		<path fill="#FFFFFF" d="M72.286,6.316h-2.039l-0.289,1.311h-2.069l2.219-7.496h2.39l2.258,7.496h-2.178L72.286,6.316z
			 M71.097,2.539l-0.479,2.147h1.309l-0.479-2.147l-0.149-0.801h-0.03L71.097,2.539z"/>
		<path fill="#FFFFFF" d="M80.275,7.356c-0.521,0.25-1.369,0.409-2.139,0.409c-2.479,0-3.358-1.329-3.358-3.888
			C74.779,1.26,75.808,0,78.227,0c0.66,0,1.409,0.12,1.949,0.33l-0.18,1.669c-0.49-0.181-1.119-0.29-1.66-0.29
			c-1.229,0-1.508,0.46-1.508,2.148c0,1.778,0.289,2.168,1.258,2.168c0.15,0,0.311-0.01,0.451-0.039V3.538h1.738L80.275,7.356
			L80.275,7.356z"/>
		<path fill="#FFFFFF" d="M86.036,5.937l-0.039,1.689h-4.828V0.13h4.697l0.04,1.72h-2.788v1.159h2.299v1.569h-2.299v1.357
			L86.036,5.937L86.036,5.937z"/>
		<path fill="#FFFFFF" d="M5.557,17.356c-0.52,0.25-1.369,0.409-2.139,0.409c-2.479,0-3.358-1.329-3.358-3.888
			C0.06,11.26,1.089,10,3.508,10c0.66,0,1.409,0.12,1.949,0.33l-0.18,1.669c-0.49-0.181-1.119-0.29-1.659-0.29
			c-1.229,0-1.509,0.46-1.509,2.148c0,1.778,0.29,2.168,1.259,2.168c0.15,0,0.31-0.01,0.45-0.039v-2.448h1.739V17.356z"/>
		<path fill="#FFFFFF" d="M11.317,15.937l-0.04,1.689H6.45V10.13h4.697l0.04,1.72H8.398v1.159h2.299v1.569H8.398v1.357
			L11.317,15.937L11.317,15.937z"/>
		<path fill="#FFFFFF" d="M16.587,15.887l-0.05,1.739H12.07V10.13h1.969v5.757H16.587z"/>
		<path fill="#FFFFFF" d="M19.938,17.626H17.23V10.13h2.668c2.279,0,3.208,1.06,3.208,3.708
			C23.106,16.587,22.047,17.626,19.938,17.626z M19.908,11.859h-0.73v4.059h0.73c0.859,0,1.149-0.261,1.149-2.1
			C21.057,12.159,20.788,11.859,19.908,11.859z"/>
		<path fill="#FFFFFF" d="M26.578,13.229v1.299H23.79v-1.299H26.578z"/>
		<path fill="#FFFFFF" d="M26.89,17.626v-1.271l2.389-3.798l0.44-0.659l-0.01-0.021H26.95L27,10.13h5.007v1.398l-2.309,3.679
			l-0.44,0.649l0.01,0.029h2.758l-0.03,1.739L26.89,17.626L26.89,17.626z"/>
		<path fill="#FFFFFF" d="M38.396,15.077c0,1.759-0.939,2.679-2.858,2.679s-2.888-0.92-2.888-2.679V10.13h1.958v4.907
			c0,0.67,0.26,0.97,0.93,0.97c0.68,0,0.91-0.28,0.91-0.97V10.13h1.949L38.396,15.077L38.396,15.077z"/>
		<path fill="#FFFFFF" d="M43.756,14.558l1.459,3.068h-2.258l-1-2.68h-0.66v2.68H39.35V10.13h2.588c1.898,0,2.838,0.72,2.838,2.409
			C44.776,13.538,44.417,14.277,43.756,14.558z M41.978,11.749h-0.68v1.729h0.67c0.569,0,0.77-0.141,0.77-0.87
			C42.738,11.929,42.548,11.749,41.978,11.749z"/>
		<path fill="#FFFFFF" d="M51.276,15.077c0,1.759-0.939,2.679-2.857,2.679c-1.92,0-2.889-0.92-2.889-2.679V10.13h1.958v4.907
			c0,0.67,0.261,0.97,0.931,0.97c0.68,0,0.91-0.28,0.91-0.97V10.13h1.948L51.276,15.077L51.276,15.077z M47.469,9.771
			c-0.49,0-0.74-0.189-0.74-0.67c0-0.449,0.25-0.688,0.74-0.688c0.509,0,0.738,0.239,0.738,0.688
			C48.208,9.54,47.978,9.771,47.469,9.771z M49.377,9.771c-0.49,0-0.74-0.189-0.74-0.67c0-0.449,0.25-0.688,0.74-0.688
			c0.51,0,0.74,0.239,0.74,0.688C50.118,9.54,49.887,9.771,49.377,9.771z"/>
		<path fill="#FFFFFF" d="M56.717,11.939c-0.33-0.12-0.779-0.2-1.25-0.2c-1.108,0-1.389,0.471-1.389,2.108
			c0,1.729,0.311,2.209,1.42,2.209c0.459,0,0.89-0.09,1.238-0.25l0.18,1.59c-0.449,0.221-1.129,0.359-1.709,0.359
			c-2.139,0-3.178-1.22-3.178-3.918c0-2.52,1.01-3.838,3.299-3.838c0.529,0,1.18,0.12,1.578,0.279L56.717,11.939z"/>
		<path fill="#FFFFFF" d="M61.477,17.626l-1.409-3.048h-0.479v3.048h-1.949V10.13h1.949v2.897h0.52l1.389-2.897h2.188l-1.799,3.588
			l1.889,3.908H61.477z"/>
		<path fill="#FFFFFF" d="M66.478,13.229v1.299h-2.789v-1.299H66.478z"/>
		<path fill="#FFFFFF" d="M5.557,27.356c-0.52,0.25-1.369,0.409-2.139,0.409c-2.479,0-3.358-1.329-3.358-3.888
			C0.06,21.26,1.089,20,3.508,20c0.66,0,1.409,0.12,1.949,0.33l-0.18,1.669c-0.49-0.181-1.119-0.29-1.659-0.29
			c-1.229,0-1.509,0.46-1.509,2.148c0,1.778,0.29,2.168,1.259,2.168c0.15,0,0.31-0.01,0.45-0.039v-2.448h1.739V27.356z"/>
		<path fill="#FFFFFF" d="M10.317,26.316H8.279l-0.29,1.311H5.92l2.219-7.496h2.389l2.259,7.496h-2.179L10.317,26.316z
			 M9.128,22.539l-0.48,2.147h1.309l-0.479-2.147l-0.15-0.801h-0.03L9.128,22.539z"/>
		<path fill="#FFFFFF" d="M17.697,24.558l1.459,3.068h-2.259l-1-2.68h-0.66v2.68H13.29V20.13h2.588c1.899,0,2.838,0.72,2.838,2.409
			C18.716,23.538,18.357,24.277,17.697,24.558z M15.918,21.749h-0.68v1.729h0.67c0.569,0,0.77-0.141,0.77-0.87
			C16.678,21.929,16.488,21.749,15.918,21.749z"/>
		<path fill="#FFFFFF" d="M23.517,26.316h-2.039l-0.29,1.311H19.12l2.219-7.496h2.389l2.259,7.496h-2.179L23.517,26.316z
			 M22.328,22.539l-0.48,2.147h1.309l-0.479-2.147l-0.15-0.801h-0.03L22.328,22.539z"/>
		<path fill="#FFFFFF" d="M30.877,27.626l-2.239-3.458l-0.42-0.689l-0.02,0.01l0.01,0.811v3.328h-1.719V20.13h1.639l2.409,3.888
			l0.02-0.01l-0.02-0.8l0.01-3.078h1.719v7.496H30.877z"/>
		<path fill="#FFFFFF" d="M36.557,21.879v5.747h-1.989v-5.747h-1.699l0.04-1.749h5.307l0.04,1.749H36.557z"/>
		<path fill="#FFFFFF" d="M38.939,20.13h2.009v7.496h-2.009V20.13z"/>
		<path fill="#FFFFFF" d="M46.917,25.937l-0.041,1.689h-4.827V20.13h4.698l0.039,1.72h-2.789v1.159h2.299v1.569h-2.299v1.357
			L46.917,25.937L46.917,25.937z"/>
		<path fill="#FFFFFF" d="M53.187,21.879v5.747h-1.989v-5.747h-1.699l0.041-1.749h5.307l0.04,1.749H53.187z"/>
		<path fill="#FFFFFF" d="M60.356,25.937l-0.04,1.689h-4.827V20.13h4.697l0.04,1.72h-2.789v1.159h2.299v1.569h-2.299v1.357
			L60.356,25.937L60.356,25.937z"/>
		<path fill="#FFFFFF" d="M63.068,27.756c-0.79,0-1.569-0.18-2.179-0.521l0.25-1.658c0.609,0.31,1.229,0.5,1.879,0.5
			c0.62,0,0.859-0.21,0.859-0.61c0-0.959-2.979-0.659-2.979-3.108c0-1.309,0.801-2.349,2.648-2.349c0.689,0,1.429,0.13,1.969,0.36
			l-0.221,1.629c-0.568-0.17-1.139-0.271-1.618-0.271c-0.739,0-0.899,0.22-0.899,0.539c0,0.97,2.979,0.641,2.979,3.089
			C65.756,26.836,64.756,27.756,63.068,27.756z"/>
		<path fill="#FFFFFF" d="M69.567,21.879v5.747h-1.988v-5.747h-1.699l0.039-1.749h5.308l0.04,1.749H69.567z"/>
		<path fill="#FFFFFF" d="M76.736,25.937l-0.04,1.689H71.87V20.13h4.696l0.04,1.72h-2.789v1.159h2.299v1.569h-2.299v1.357
			L76.736,25.937L76.736,25.937z"/>
		<path fill="#FFFFFF" d="M81.875,27.626l-2.238-3.458l-0.42-0.689l-0.021,0.01l0.011,0.811v3.328h-1.72V20.13h1.64l2.408,3.888
			l0.021-0.01l-0.021-0.8l0.01-3.078h1.72v7.496H81.875z"/>
		<path fill="#FFFFFF" d="M85.088,27.746c-0.699,0-1.01-0.271-1.01-0.949c0-0.61,0.311-0.96,1.01-0.96s1,0.35,1,0.96
			C86.086,27.366,85.788,27.746,85.088,27.746z"/>
	</g>
</g>
<g id="Screens">
</g>
</svg>
