<?xml version="1.0" encoding="utf-8"?>
<!-- Generator: Adobe Illustrator 16.0.0, SVG Export Plug-In . SVG Version: 6.00 Build 0)  -->
<!DOCTYPE svg PUBLIC "-//W3C//DTD SVG 1.1//EN" "http://www.w3.org/Graphics/SVG/1.1/DTD/svg11.dtd">
<svg version="1.1" id="Ebene_1" xmlns="http://www.w3.org/2000/svg" xmlns:xlink="http://www.w3.org/1999/xlink" x="0px" y="0px"
	 width="192.971px" height="10.357px" viewBox="0 0 192.971 10.357" enable-background="new 0 0 192.971 10.357"
	 xml:space="preserve">
<g id="Text">
	<g>
		<path fill="#FFFFFF" d="M3.002,10.214H0V1.905h2.957c2.525,0,3.558,1.175,3.558,4.11C6.514,9.062,5.339,10.214,3.002,10.214z
			 M2.969,3.822H2.16v4.497h0.81c0.951,0,1.272-0.288,1.272-2.326C4.242,4.154,3.943,3.822,2.969,3.822z"/>
		<path fill="#FFFFFF" d="M7.508,1.905h2.228v8.309H7.508V1.905z"/>
		<path fill="#FFFFFF" d="M16.348,8.342l-0.045,1.872h-5.352V1.905h5.206l0.045,1.905h-3.091v1.285h2.548v1.738h-2.548v1.507
			L16.348,8.342L16.348,8.342z"/>
		<path fill="#FFFFFF" d="M23.955,8.763h-2.26l-0.322,1.45H19.08l2.459-8.309h2.648l2.504,8.309h-2.416L23.955,8.763z M22.637,4.575
			l-0.532,2.382h1.451l-0.532-2.382l-0.166-0.886h-0.033L22.637,4.575z"/>
		<path fill="#FFFFFF" d="M31.496,10.214l-1.562-3.379h-0.531v3.379h-2.16V1.905h2.16v3.213h0.576l1.539-3.213h2.427L31.95,5.883
			l2.094,4.331H31.496z"/>
		<path fill="#FFFFFF" d="M38.904,10.214l-1.562-3.379H36.81v3.379h-2.16V1.905h2.16v3.213h0.576l1.539-3.213h2.428l-1.994,3.978
			l2.094,4.331H38.904z"/>
		<path fill="#FFFFFF" d="M48.352,7.389c0,1.949-1.041,2.969-3.168,2.969s-3.201-1.02-3.201-2.969V1.905h2.171v5.439
			c0,0.741,0.288,1.073,1.03,1.073c0.754,0,1.008-0.31,1.008-1.073V1.905h2.16V7.389z"/>
		<path fill="#FFFFFF" d="M52.338,5.34v1.439h-3.092V5.34H52.338z"/>
		<path fill="#FFFFFF" d="M56.158,7.633H55.47v2.581h-2.16V1.905h2.848c2.305,0,3.224,0.897,3.224,2.925
			C59.382,6.625,58.484,7.633,56.158,7.633z M56.158,3.711H55.47v2.205h0.688c0.709,0,0.975-0.167,0.975-1.097
			C57.133,3.922,56.922,3.711,56.158,3.711z"/>
		<path fill="#FFFFFF" d="M65.174,8.286l-0.057,1.928h-4.951V1.905h2.183v6.381H65.174z"/>
		<path fill="#FFFFFF" d="M70.168,8.763h-2.26l-0.322,1.45h-2.293l2.459-8.309H70.4l2.504,8.309h-2.416L70.168,8.763z M68.85,4.575
			l-0.532,2.382h1.451l-0.532-2.382L69.07,3.689h-0.033L68.85,4.575z"/>
		<path fill="#FFFFFF" d="M76.336,3.844v6.369h-2.205V3.844h-1.883l0.045-1.938h5.882l0.044,1.938H76.336z"/>
		<path fill="#FFFFFF" d="M82.682,3.844v6.369h-2.205V3.844h-1.883l0.045-1.938h5.882l0.044,1.938H82.682z"/>
		<path fill="#FFFFFF" d="M87.398,3.844v1.463h2.537l-0.012,1.839h-2.525v3.067h-2.171V1.905h5.195l0.033,1.938L87.398,3.844
			L87.398,3.844z"/>
		<path fill="#FFFFFF" d="M94.376,10.357c-2.393,0-3.479-1.263-3.479-4.298c0-3.046,1.042-4.287,3.479-4.287
			c2.438,0,3.479,1.241,3.479,4.287C97.854,9.184,96.812,10.357,94.376,10.357z M94.365,3.711c-0.908,0-1.197,0.377-1.197,2.35
			c0,1.982,0.3,2.382,1.22,2.382s1.196-0.41,1.196-2.382C95.584,4.077,95.307,3.711,94.365,3.711z"/>
		<path fill="#FFFFFF" d="M103.646,6.812l1.618,3.4h-2.504l-1.107-2.969h-0.732v2.969h-2.159V1.905h2.868
			c2.105,0,3.146,0.798,3.146,2.67C104.775,5.683,104.377,6.503,103.646,6.812z M101.674,3.7h-0.754v1.916h0.742
			c0.632,0,0.854-0.154,0.854-0.964C102.516,3.899,102.305,3.7,101.674,3.7z"/>
		<path fill="#FFFFFF" d="M108.186,1.905l1.462,4.198l0.275,0.854h0.033l0.277-0.842l1.483-4.21h2.394v8.309h-1.982V6.735
			l0.021-0.897l-0.033-0.011l-0.276,0.864l-1.229,3.521h-1.407l-1.218-3.512l-0.277-0.864l-0.021,0.013l0.011,0.896v3.468h-1.895
			V1.905H108.186z"/>
		<path fill="#FFFFFF" d="M124.51,1.905l-2.459,8.309h-2.471l-2.447-8.309h2.382l1.164,5.185l0.188,0.875h0.033l0.178-0.875
			l1.196-5.185H124.51z"/>
		<path fill="#FFFFFF" d="M127.986,10.357c-2.394,0-3.479-1.263-3.479-4.298c0-3.046,1.041-4.287,3.479-4.287
			c2.438,0,3.479,1.241,3.479,4.287C131.465,9.184,130.424,10.357,127.986,10.357z M127.975,3.711c-0.908,0-1.195,0.377-1.195,2.35
			c0,1.982,0.299,2.382,1.219,2.382c0.919,0,1.195-0.41,1.195-2.382C129.193,4.077,128.917,3.711,127.975,3.711z"/>
		<path fill="#FFFFFF" d="M137.234,10.214l-2.482-3.833l-0.465-0.765l-0.021,0.012l0.01,0.897v3.688h-1.904V1.905h1.816l2.67,4.31
			l0.021-0.011l-0.021-0.887l0.011-3.412h1.905v8.309H137.234z"/>
		<path fill="#FFFFFF" d="M146.646,10.214l-1.562-3.379h-0.531v3.379h-2.16V1.905h2.16v3.213h0.575l1.54-3.213h2.428l-1.994,3.978
			l2.094,4.331H146.646z"/>
		<path fill="#FFFFFF" d="M154.089,8.763h-2.26l-0.321,1.45h-2.293l2.459-8.309h2.648l2.503,8.309h-2.415L154.089,8.763z
			 M151.929,1.507c-0.543,0-0.819-0.211-0.819-0.741c0-0.499,0.276-0.766,0.819-0.766c0.564,0,0.818,0.267,0.818,0.766
			C152.748,1.252,152.494,1.507,151.929,1.507z M152.771,4.575l-0.532,2.382h1.451l-0.531-2.382l-0.166-0.886h-0.033L152.771,4.575z
			 M154.045,1.507c-0.543,0-0.819-0.211-0.819-0.741c0-0.499,0.276-0.766,0.819-0.766c0.564,0,0.819,0.267,0.819,0.766
			C154.864,1.252,154.609,1.507,154.045,1.507z"/>
		<path fill="#FFFFFF" d="M162.262,6.812l1.616,3.4h-2.504l-1.106-2.969h-0.73v2.969h-2.16V1.905h2.869
			c2.104,0,3.146,0.798,3.146,2.67C163.392,5.683,162.993,6.503,162.262,6.812z M160.29,3.7h-0.753v1.916h0.742
			c0.631,0,0.853-0.154,0.853-0.964C161.132,3.899,160.922,3.7,160.29,3.7z"/>
		<path fill="#FFFFFF" d="M169.228,3.91c-0.366-0.133-0.864-0.221-1.386-0.221c-1.229,0-1.539,0.521-1.539,2.337
			c0,1.917,0.344,2.448,1.572,2.448c0.51,0,0.985-0.101,1.374-0.277l0.199,1.762c-0.498,0.244-1.252,0.398-1.895,0.398
			c-2.371,0-3.523-1.352-3.523-4.342c0-2.792,1.119-4.254,3.656-4.254c0.588,0,1.307,0.133,1.75,0.31L169.228,3.91z"/>
		<path fill="#FFFFFF" d="M174.421,10.214V6.957h-2.017v3.257h-2.16V1.905h2.16v3.113h2.017V1.905h2.171v8.309H174.421z"/>
		<path fill="#FFFFFF" d="M183.104,8.342l-0.044,1.872h-5.352V1.905h5.207l0.044,1.905h-3.091v1.285h2.548v1.738h-2.548v1.507
			L183.104,8.342L183.104,8.342z"/>
		<path fill="#FFFFFF" d="M188.818,6.812l1.617,3.4h-2.504l-1.107-2.969h-0.731v2.969h-2.159V1.905h2.869
			c2.104,0,3.146,0.798,3.146,2.67C189.947,5.683,189.549,6.503,188.818,6.812z M186.846,3.7h-0.754v1.916h0.742
			c0.632,0,0.854-0.154,0.854-0.964C187.688,3.899,187.478,3.7,186.846,3.7z"/>
		<path fill="#FFFFFF" d="M191.861,10.347c-0.775,0-1.118-0.3-1.118-1.054c0-0.676,0.343-1.062,1.118-1.062s1.108,0.388,1.108,1.062
			C192.97,9.927,192.637,10.347,191.861,10.347z"/>
	</g>
</g>
<g id="Screens">
</g>
</svg>
