<?xml version="1.0" encoding="utf-8"?>
<!-- Generator: Adobe Illustrator 16.0.0, SVG Export Plug-In . SVG Version: 6.00 Build 0)  -->
<!DOCTYPE svg PUBLIC "-//W3C//DTD SVG 1.1//EN" "http://www.w3.org/Graphics/SVG/1.1/DTD/svg11.dtd">
<svg version="1.1" id="Ebene_1" xmlns="http://www.w3.org/2000/svg" xmlns:xlink="http://www.w3.org/1999/xlink" x="0px" y="0px"
	 width="35.102px" height="12.453px" viewBox="0 0 35.102 12.453" enable-background="new 0 0 35.102 12.453" xml:space="preserve">
<g id="Text">
	<rect x="0" fill="#FFED00" width="35.102" height="12.453"/>
	<g>
		<path d="M4.343,7.689v-0.58l1.091-1.733l0.201-0.301L5.63,5.066H4.37l0.022-0.799h2.285v0.639L5.625,6.585l-0.2,0.297l0.004,0.015
			h1.26L6.675,7.689H4.343z"/>
		<path d="M9.706,6.526c0,0.803-0.431,1.223-1.307,1.223s-1.317-0.42-1.317-1.223V4.268h0.895v2.24c0,0.307,0.118,0.442,0.424,0.442
			c0.312,0,0.416-0.128,0.416-0.442v-2.24h0.891L9.706,6.526L9.706,6.526z"/>
		<path d="M12.262,6.289l0.666,1.4h-1.031L11.44,6.467h-0.3v1.223h-0.89V4.268h1.182c0.866,0,1.295,0.328,1.295,1.1
			C12.727,5.823,12.562,6.161,12.262,6.289z M11.449,5.007h-0.311v0.789h0.306c0.261,0,0.352-0.063,0.352-0.396
			C11.796,5.089,11.71,5.007,11.449,5.007z"/>
		<path d="M16.167,7.092h-0.933l-0.132,0.598h-0.943l1.013-3.421h1.091l1.03,3.421h-0.994L16.167,7.092z M15.624,5.367l-0.221,0.98
			h0.599l-0.219-0.98l-0.068-0.365h-0.014L15.624,5.367z"/>
		<path d="M19.384,7.689L18.74,6.298h-0.22v1.392h-0.89V4.268h0.89v1.323h0.237l0.634-1.323h1l-0.821,1.638l0.862,1.784H19.384
			L19.384,7.689z"/>
		<path d="M22.286,5.066v2.624h-0.907V5.066h-0.776l0.02-0.799h2.423l0.018,0.799H22.286z"/>
		<path d="M23.483,4.268H24.4v3.421h-0.917V4.268z"/>
		<path d="M26.355,7.749c-0.984,0-1.433-0.521-1.433-1.771c0-1.255,0.429-1.766,1.433-1.766s1.434,0.511,1.434,1.766
			C27.788,7.266,27.359,7.749,26.355,7.749z M26.351,5.012c-0.374,0-0.492,0.154-0.492,0.967c0,0.816,0.123,0.981,0.502,0.981
			c0.378,0,0.492-0.169,0.492-0.981C26.853,5.162,26.738,5.012,26.351,5.012z"/>
		<path d="M30.275,7.689l-1.021-1.579l-0.191-0.315l-0.009,0.005l0.005,0.369v1.52h-0.785V4.268h0.748l1.101,1.774l0.009-0.004
			l-0.01-0.365l0.005-1.405h0.784v3.421H30.275L30.275,7.689z"/>
	</g>
</g>
<g id="Screens">
</g>
</svg>
