<?xml version="1.0" encoding="utf-8"?>
<!-- Generator: Adobe Illustrator 16.0.0, SVG Export Plug-In . SVG Version: 6.00 Build 0)  -->
<!DOCTYPE svg PUBLIC "-//W3C//DTD SVG 1.1//EN" "http://www.w3.org/Graphics/SVG/1.1/DTD/svg11.dtd">
<svg version="1.1" id="Ebene_1" xmlns="http://www.w3.org/2000/svg" xmlns:xlink="http://www.w3.org/1999/xlink" x="0px" y="0px"
	 width="168.953px" height="21.443px" viewBox="0 0 168.953 21.443" enable-background="new 0 0 168.953 21.443"
	 xml:space="preserve">
<g id="Text">
	<g>
		<path fill="#FFFFFF" d="M4.708,7.167c0,2.438-1.24,3.202-3.19,3.202c-0.62,0-1.118-0.111-1.518-0.288l0.11-1.806
			c0.233,0.122,0.599,0.199,1.031,0.199c0.908,0,1.352-0.354,1.352-1.353V1.905h2.215V7.167z"/>
		<path fill="#FFFFFF" d="M11.231,8.342l-0.045,1.872h-5.35V1.905h5.206l0.044,1.905h-3.09v1.285h2.547v1.738H7.997v1.507
			L11.231,8.342L11.231,8.342z"/>
		<path fill="#FFFFFF" d="M15.683,3.844v6.369h-2.205V3.844h-1.883l0.045-1.938h5.882l0.044,1.938H15.683z"/>
		<path fill="#FFFFFF" d="M17.93,10.214V8.807l2.647-4.209l0.487-0.731l-0.011-0.021h-3.058l0.056-1.938h5.55v1.551l-2.56,4.077
			l-0.487,0.72l0.011,0.033h3.059l-0.033,1.928H17.93V10.214z"/>
		<path fill="#FFFFFF" d="M28.13,3.844v6.369h-2.205V3.844h-1.883l0.045-1.938h5.882l0.044,1.938H28.13z"/>
		<path fill="#FFFFFF" d="M35.55,1.905l1.462,4.198l0.276,0.854h0.033l0.277-0.842l1.484-4.21h2.393v8.309h-1.982V6.735l0.021-0.897
			l-0.033-0.011l-0.276,0.864l-1.229,3.521h-1.407L35.35,6.702l-0.276-0.864L35.051,5.85l0.011,0.896v3.468h-1.895V1.905H35.55z"/>
		<path fill="#FFFFFF" d="M42.692,1.905h2.227v8.309h-2.227V1.905z"/>
		<path fill="#FFFFFF" d="M49.758,3.844v6.369h-2.204V3.844H45.67l0.044-1.938h5.883l0.045,1.938H49.758z"/>
		<path fill="#FFFFFF" d="M55.781,8.729h0.985V4.42l-1.262,0.698l-0.223-1.684l2.404-1.519h1.252v6.812h0.986v1.483h-4.144V8.729
			H55.781z"/>
		<path fill="#FFFFFF" d="M66.403,8.729v1.483h-1.961V8.729h-3.279l-0.178-1.353l2.881-5.473h2.537v5.074h0.676l-0.045,1.75
			L66.403,8.729L66.403,8.729z M64.587,4.896l0.055-0.897L64.62,3.988l-1.484,2.991h1.373L64.587,4.896z"/>
		<path fill="#FFFFFF" d="M73.955,3.844v6.369h-2.204V3.844h-1.884l0.044-1.938h5.883l0.045,1.938H73.955z"/>
		<path fill="#FFFFFF" d="M80.058,8.763h-2.26l-0.322,1.45h-2.293l2.459-8.309h2.648l2.504,8.309h-2.416L80.058,8.763z
			 M78.739,4.575l-0.532,2.382h1.451l-0.532-2.382L78.96,3.689h-0.033L78.739,4.575z"/>
		<path fill="#FFFFFF" d="M88.906,9.915c-0.574,0.276-1.518,0.454-2.369,0.454c-2.749,0-3.724-1.474-3.724-4.31
			c0-2.902,1.141-4.298,3.821-4.298c0.73,0,1.562,0.133,2.16,0.364l-0.198,1.851c-0.543-0.199-1.241-0.321-1.841-0.321
			c-1.361,0-1.672,0.51-1.672,2.382c0,1.974,0.32,2.404,1.396,2.404c0.166,0,0.344-0.011,0.499-0.044V5.683h1.927V9.915
			L88.906,9.915z"/>
		<path fill="#FFFFFF" d="M95.285,8.342l-0.043,1.872H89.89V1.905h5.207l0.045,1.905H92.05v1.285h2.549v1.738H92.05v1.507
			L95.285,8.342L95.285,8.342z"/>
		<path fill="#FFFFFF" d="M104.477,9.915c-0.575,0.276-1.519,0.454-2.37,0.454c-2.748,0-3.723-1.474-3.723-4.31
			c0-2.902,1.141-4.298,3.822-4.298c0.729,0,1.562,0.133,2.16,0.364l-0.199,1.851c-0.543-0.199-1.242-0.321-1.84-0.321
			c-1.363,0-1.673,0.51-1.673,2.382c0,1.974,0.32,2.404,1.396,2.404c0.166,0,0.344-0.011,0.5-0.044V5.683h1.927V9.915L104.477,9.915
			z"/>
		<path fill="#FFFFFF" d="M110.855,8.342l-0.044,1.872h-5.353V1.905h5.207l0.045,1.905h-3.092v1.285h2.549v1.738h-2.549v1.507
			L110.855,8.342L110.855,8.342z"/>
		<path fill="#FFFFFF" d="M116.691,8.286l-0.057,1.928h-4.95V1.905h2.183v6.381H116.691z"/>
		<path fill="#FFFFFF" d="M120.4,10.214h-3.002V1.905h2.958c2.524,0,3.556,1.175,3.556,4.11
			C123.912,9.062,122.737,10.214,120.4,10.214z M120.367,3.822h-0.809v4.497h0.809c0.952,0,1.274-0.288,1.274-2.326
			C121.642,4.154,121.343,3.822,120.367,3.822z"/>
		<path fill="#FFFFFF" d="M127.753,5.34v1.439h-3.09V5.34H127.753z"/>
		<path fill="#FFFFFF" d="M128.097,10.214V8.807l2.646-4.209l0.487-0.731l-0.012-0.021h-3.058l0.055-1.938h5.552v1.551l-2.56,4.077
			l-0.487,0.72l0.012,0.033h3.058l-0.033,1.928h-5.66V10.214z"/>
		<path fill="#FFFFFF" d="M140.845,7.389c0,1.949-1.041,2.969-3.168,2.969s-3.201-1.02-3.201-2.969V1.905h2.171v5.439
			c0,0.741,0.288,1.073,1.03,1.073c0.754,0,1.008-0.31,1.008-1.073V1.905h2.16V7.389z"/>
		<path fill="#FFFFFF" d="M146.78,6.812l1.617,3.4h-2.504l-1.106-2.969h-0.73v2.969h-2.16V1.905h2.869
			c2.104,0,3.146,0.798,3.146,2.67C147.91,5.683,147.512,6.503,146.78,6.812z M144.809,3.7h-0.753v1.916h0.742
			c0.631,0,0.853-0.154,0.853-0.964C145.65,3.899,145.44,3.7,144.809,3.7z"/>
		<path fill="#FFFFFF" d="M155.109,7.389c0,1.949-1.042,2.969-3.169,2.969s-3.201-1.02-3.201-2.969V1.905h2.173v5.439
			c0,0.741,0.286,1.073,1.028,1.073c0.754,0,1.009-0.31,1.009-1.073V1.905h2.16V7.389z M150.889,1.507
			c-0.543,0-0.819-0.211-0.819-0.741c0-0.499,0.276-0.766,0.819-0.766c0.565,0,0.819,0.267,0.819,0.766
			C151.708,1.252,151.455,1.507,150.889,1.507z M153.005,1.507c-0.543,0-0.82-0.211-0.82-0.741c0-0.499,0.277-0.766,0.82-0.766
			c0.563,0,0.818,0.267,0.818,0.766C153.824,1.252,153.569,1.507,153.005,1.507z"/>
		<path fill="#FFFFFF" d="M161.134,3.91c-0.366-0.133-0.865-0.221-1.385-0.221c-1.23,0-1.541,0.521-1.541,2.337
			c0,1.917,0.344,2.448,1.574,2.448c0.508,0,0.984-0.101,1.372-0.277l0.199,1.762c-0.498,0.244-1.252,0.398-1.896,0.398
			c-2.369,0-3.521-1.352-3.521-4.342c0-2.792,1.119-4.254,3.654-4.254c0.589,0,1.309,0.133,1.752,0.31L161.134,3.91z"/>
		<path fill="#FFFFFF" d="M166.403,10.214l-1.562-3.379h-0.532v3.379h-2.16V1.905h2.16v3.213h0.576l1.54-3.213h2.427l-1.994,3.978
			l2.095,4.331H166.403z"/>
		<path fill="#FFFFFF" d="M6.159,20.989c-0.576,0.276-1.518,0.454-2.371,0.454c-2.746,0-3.722-1.474-3.722-4.311
			c0-2.901,1.142-4.298,3.822-4.298c0.731,0,1.562,0.134,2.16,0.365l-0.2,1.85c-0.542-0.198-1.24-0.32-1.838-0.32
			c-1.363,0-1.674,0.51-1.674,2.382c0,1.973,0.322,2.404,1.396,2.404c0.166,0,0.344-0.012,0.498-0.044v-2.716h1.928L6.159,20.989
			L6.159,20.989z"/>
		<path fill="#FFFFFF" d="M11.431,19.837h-2.26l-0.322,1.451H6.556l2.459-8.309h2.648l2.504,8.309h-2.416L11.431,19.837z
			 M10.112,15.649L9.58,18.031h1.451l-0.532-2.382l-0.166-0.886H10.3L10.112,15.649z"/>
		<path fill="#FFFFFF" d="M19.603,17.887l1.618,3.4h-2.504l-1.107-2.969h-0.731v2.969h-2.16v-8.309h2.869
			c2.105,0,3.146,0.798,3.146,2.67C20.733,16.757,20.335,17.577,19.603,17.887z M17.632,14.774h-0.754v1.916h0.742
			c0.631,0,0.854-0.154,0.854-0.964C18.474,14.974,18.263,14.774,17.632,14.774z"/>
		<path fill="#FFFFFF" d="M26.048,19.837h-2.26l-0.32,1.451h-2.293l2.459-8.309h2.647l2.503,8.309H26.37L26.048,19.837z
			 M24.729,15.649l-0.531,2.382h1.451l-0.531-2.382l-0.166-0.886h-0.033L24.729,15.649z"/>
		<path fill="#FFFFFF" d="M34.199,21.288l-2.481-3.833l-0.465-0.765l-0.022,0.012l0.011,0.897v3.688h-1.905v-8.309h1.817l2.669,4.31
			l0.022-0.011l-0.022-0.887l0.011-3.412h1.906v8.309L34.199,21.288L34.199,21.288z"/>
		<path fill="#FFFFFF" d="M40.489,14.918v6.37h-2.205v-6.37h-1.883l0.045-1.938h5.882l0.044,1.938H40.489z"/>
		<path fill="#FFFFFF" d="M43.124,12.979h2.227v8.309h-2.227V12.979z"/>
		<path fill="#FFFFFF" d="M51.962,19.416l-0.044,1.872h-5.351v-8.309h5.207l0.044,1.904h-3.091v1.285h2.548v1.739h-2.548v1.507
			L51.962,19.416L51.962,19.416z"/>
		<path fill="#FFFFFF" d="M58.905,14.918v6.37H56.7v-6.37h-1.883l0.045-1.938h5.882l0.044,1.938H58.905z"/>
		<path fill="#FFFFFF" d="M66.847,19.416l-0.045,1.872h-5.351v-8.309h5.206l0.045,1.904h-3.091v1.285h2.548v1.739h-2.548v1.507
			L66.847,19.416L66.847,19.416z"/>
		<path fill="#FFFFFF" d="M69.847,21.432c-0.875,0-1.739-0.199-2.415-0.575l0.276-1.839c0.676,0.343,1.363,0.554,2.083,0.554
			c0.687,0,0.953-0.232,0.953-0.676c0-1.063-3.302-0.731-3.302-3.445c0-1.451,0.887-2.604,2.936-2.604
			c0.765,0,1.584,0.145,2.183,0.397l-0.243,1.807c-0.632-0.188-1.264-0.3-1.795-0.3c-0.82,0-0.997,0.244-0.997,0.6
			c0,1.073,3.302,0.709,3.302,3.423C72.827,20.413,71.719,21.432,69.847,21.432z"/>
		<path fill="#FFFFFF" d="M77.046,14.918v6.37h-2.205v-6.37h-1.883l0.044-1.938h5.882l0.045,1.938H77.046z"/>
		<path fill="#FFFFFF" d="M84.986,19.416l-0.044,1.872H79.59v-8.309h5.207l0.045,1.904H81.75v1.285h2.55v1.739h-2.549v1.507
			L84.986,19.416L84.986,19.416z"/>
		<path fill="#FFFFFF" d="M90.679,21.288l-2.482-3.833l-0.465-0.765l-0.021,0.012l0.011,0.897v3.688h-1.904v-8.309h1.815l2.671,4.31
			l0.021-0.011l-0.021-0.887l0.011-3.412h1.905v8.309L90.679,21.288L90.679,21.288z"/>
		<path fill="#FFFFFF" d="M94.231,21.421c-0.774,0-1.118-0.299-1.118-1.053c0-0.676,0.344-1.062,1.118-1.062
			s1.108,0.388,1.108,1.062C95.339,21,95.007,21.421,94.231,21.421z"/>
	</g>
</g>
<g id="Screens">
</g>
</svg>
