<?xml version="1.0" encoding="utf-8"?>
<!-- Generator: Adobe Illustrator 16.0.0, SVG Export Plug-In . SVG Version: 6.00 Build 0)  -->
<!DOCTYPE svg PUBLIC "-//W3C//DTD SVG 1.1//EN" "http://www.w3.org/Graphics/SVG/1.1/DTD/svg11.dtd">
<svg version="1.1" id="Ebene_1" xmlns="http://www.w3.org/2000/svg" xmlns:xlink="http://www.w3.org/1999/xlink" x="0px" y="0px"
	 width="150.257px" height="8.585px" viewBox="0 0 150.257 8.585" enable-background="new 0 0 150.257 8.585" xml:space="preserve">
<g id="Text">
	<g>
		<path fill="#FFFFFF" d="M3.002,8.441H0V0.133h2.957c2.525,0,3.557,1.175,3.557,4.11C6.514,7.289,5.339,8.441,3.002,8.441z
			 M2.969,2.05H2.16v4.497h0.809c0.952,0,1.273-0.287,1.273-2.325C4.242,2.382,3.943,2.05,2.969,2.05z"/>
		<path fill="#FFFFFF" d="M11.396,6.99h-2.26L8.815,8.441H6.522l2.459-8.309h2.647l2.504,8.309h-2.415L11.396,6.99z M10.078,2.803
			L9.547,5.185h1.451l-0.532-2.382L10.3,1.917h-0.033L10.078,2.803z"/>
		<path fill="#FFFFFF" d="M16.877,8.585c-0.875,0-1.738-0.199-2.414-0.575l0.276-1.839c0.676,0.343,1.362,0.554,2.083,0.554
			c0.687,0,0.953-0.231,0.953-0.677c0-1.062-3.302-0.73-3.302-3.444C14.474,1.152,15.359,0,17.409,0
			c0.765,0,1.584,0.145,2.183,0.398l-0.244,1.806c-0.631-0.188-1.263-0.299-1.795-0.299c-0.819,0-0.996,0.244-0.996,0.599
			c0,1.074,3.301,0.709,3.301,3.423C19.857,7.566,18.75,8.585,16.877,8.585z"/>
		<path fill="#FFFFFF" d="M27.986,8.441l-2.482-3.833l-0.465-0.765l-0.021,0.012l0.01,0.897V8.44h-1.904V0.133h1.816l2.67,4.31
			l0.021-0.011L27.61,3.545l0.011-3.412h1.905v8.309L27.986,8.441L27.986,8.441z"/>
		<path fill="#FFFFFF" d="M36.049,6.569l-0.045,1.872h-5.351V0.133h5.206l0.045,1.905h-3.091v1.285h2.548v1.739h-2.548v1.507H36.049
			z"/>
		<path fill="#FFFFFF" d="M43.17,5.617c0,1.949-1.042,2.969-3.169,2.969s-3.202-1.02-3.202-2.969V0.133h2.172v5.439
			c0,0.742,0.288,1.074,1.03,1.074c0.753,0,1.009-0.311,1.009-1.074V0.133h2.16V5.617z"/>
		<path fill="#FFFFFF" d="M49.614,6.569L49.57,8.441h-5.352V0.133h5.207l0.045,1.905h-3.092v1.285h2.549v1.739h-2.549v1.507H49.614z
			"/>
		<path fill="#FFFFFF" d="M57.222,6.99h-2.26l-0.321,1.451h-2.293l2.459-8.309h2.648l2.503,8.309h-2.415L57.222,6.99z M55.903,2.803
			l-0.532,2.382h1.451l-0.531-2.382l-0.166-0.886h-0.033L55.903,2.803z"/>
		<path fill="#FFFFFF" d="M64.764,8.441l-1.562-3.379H62.67v3.379h-2.16V0.133h2.16v3.213h0.576l1.539-3.213h2.427L65.218,4.11
			l2.094,4.331H64.764z"/>
		<path fill="#FFFFFF" d="M72.172,8.441L70.61,5.062h-0.532v3.379h-2.16V0.133h2.16v3.213h0.576l1.54-3.213h2.427L72.627,4.11
			l2.094,4.331H72.172z"/>
		<path fill="#FFFFFF" d="M81.619,5.617c0,1.949-1.041,2.969-3.168,2.969s-3.201-1.02-3.201-2.969V0.133h2.171v5.439
			c0,0.742,0.287,1.074,1.029,1.074c0.754,0,1.008-0.311,1.008-1.074V0.133h2.16V5.617z"/>
		<path fill="#FFFFFF" d="M85.605,3.567v1.438h-3.092V3.567H85.605z"/>
		<path fill="#FFFFFF" d="M92.871,5.617c0,1.949-1.041,2.969-3.168,2.969s-3.201-1.02-3.201-2.969V0.133h2.17v5.439
			c0,0.742,0.289,1.074,1.031,1.074c0.754,0,1.008-0.311,1.008-1.074V0.133h2.16V5.617z"/>
		<path fill="#FFFFFF" d="M98.785,8.441l-2.481-3.833l-0.466-0.765l-0.021,0.012l0.012,0.897V8.44h-1.906V0.133h1.817l2.671,4.31
			l0.021-0.011L98.41,3.545l0.01-3.412h1.906v8.309L98.785,8.441L98.785,8.441z"/>
		<path fill="#FFFFFF" d="M101.541,0.133h2.228v8.309h-2.228V0.133z"/>
		<path fill="#FFFFFF" d="M111.764,0.133l-2.459,8.309h-2.472l-2.447-8.309h2.382l1.163,5.185l0.188,0.875h0.033l0.178-0.875
			l1.195-5.185H111.764z"/>
		<path fill="#FFFFFF" d="M117.688,6.569l-0.044,1.872h-5.352V0.133h5.207l0.045,1.905h-3.092v1.285h2.549v1.739h-2.549v1.507
			H117.688z"/>
		<path fill="#FFFFFF" d="M123.402,5.041l1.617,3.4h-2.504l-1.107-2.969h-0.729v2.969h-2.16V0.133h2.869
			c2.104,0,3.146,0.798,3.146,2.67C124.533,3.91,124.134,4.73,123.402,5.041z M121.431,1.928h-0.753v1.916h0.741
			c0.631,0,0.854-0.154,0.854-0.964C122.272,2.127,122.062,1.928,121.431,1.928z"/>
		<path fill="#FFFFFF" d="M127.731,8.585c-0.876,0-1.739-0.199-2.415-0.575l0.277-1.839c0.676,0.343,1.361,0.554,2.082,0.554
			c0.688,0,0.953-0.231,0.953-0.677c0-1.062-3.301-0.73-3.301-3.444c0-1.451,0.885-2.604,2.936-2.604
			c0.764,0,1.584,0.145,2.182,0.398l-0.244,1.806c-0.631-0.188-1.262-0.299-1.793-0.299c-0.82,0-0.998,0.244-0.998,0.599
			c0,1.074,3.301,0.709,3.301,3.423C130.71,7.566,129.604,8.585,127.731,8.585z"/>
		<path fill="#FFFFFF" d="M137.777,5.617c0,1.949-1.041,2.969-3.168,2.969s-3.201-1.02-3.201-2.969V0.133h2.17v5.439
			c0,0.742,0.289,1.074,1.031,1.074c0.753,0,1.008-0.311,1.008-1.074V0.133h2.16V5.617L137.777,5.617z"/>
		<path fill="#FFFFFF" d="M141.208,0.133l1.463,4.198l0.276,0.854h0.033l0.276-0.842l1.484-4.21h2.393v8.309h-1.982V4.962
			l0.021-0.896l-0.032-0.011l-0.276,0.864l-1.23,3.521h-1.405l-1.22-3.511l-0.276-0.864l-0.021,0.012l0.011,0.896v3.468h-1.896
			V0.133H141.208z"/>
		<path fill="#FFFFFF" d="M149.148,8.574c-0.775,0-1.118-0.299-1.118-1.053c0-0.676,0.343-1.062,1.118-1.062
			s1.107,0.388,1.107,1.062C150.257,8.153,149.923,8.574,149.148,8.574z"/>
	</g>
</g>
<g id="Screens">
</g>
</svg>
