<?xml version="1.0" encoding="utf-8"?>
<!-- Generator: Adobe Illustrator 16.0.0, SVG Export Plug-In . SVG Version: 6.00 Build 0)  -->
<!DOCTYPE svg PUBLIC "-//W3C//DTD SVG 1.0//EN" "http://www.w3.org/TR/2001/REC-SVG-20010904/DTD/svg10.dtd">
<svg version="1.0" id="Ebene_1" xmlns="http://www.w3.org/2000/svg" xmlns:xlink="http://www.w3.org/1999/xlink" x="0px" y="0px"
	 width="191.964px" height="78.906px" viewBox="0 0 191.964 78.906" enable-background="new 0 0 191.964 78.906"
	 xml:space="preserve">
<g>
	<path d="M20.175,4.269l2.702,16.037l0.41,2.736h0.102l0.309-2.736l2.291-16.037h6.668l-5.369,25.646h-8.001l-2.394-15.559
		l-0.342-2.77h-0.104l-0.375,2.77l-2.359,15.559H5.711L0.342,4.269h6.977l2.256,16.174l0.342,2.736h0.104l0.375-2.736l2.668-16.174
		H20.175z"/>
	<path d="M51.389,24.136l-0.137,5.779H34.735V4.269h16.071l0.137,5.881h-9.54v3.967h7.864v5.368h-7.864v4.651H51.389z"/>
	<path d="M79.764,28.991c-1.777,0.855-4.684,1.402-7.317,1.402c-8.479,0-11.489-4.548-11.489-13.302
		c0-8.959,3.521-13.268,11.797-13.268c2.258,0,4.822,0.411,6.668,1.128l-0.615,5.71c-1.676-0.615-3.83-0.991-5.676-0.991
		c-4.207,0-5.164,1.573-5.164,7.352c0,6.087,0.992,7.42,4.309,7.42c0.514,0,1.061-0.034,1.539-0.137v-8.378h5.949V28.991z"/>
	<path d="M92.856,30.359c-7.386,0-10.737-3.898-10.737-13.268c0-9.403,3.215-13.233,10.737-13.233s10.737,3.83,10.737,13.233
		C103.594,26.734,100.379,30.359,92.856,30.359z M92.822,9.842c-2.805,0-3.693,1.163-3.693,7.249c0,6.121,0.924,7.352,3.762,7.352
		s3.693-1.265,3.693-7.352C96.584,10.971,95.729,9.842,92.822,9.842z"/>
	<path d="M116.856,10.252v19.662h-6.805V10.252h-5.813l0.137-5.984h18.158l0.137,5.984H116.856z"/>
	<path d="M143.591,10.252v19.662h-6.805V10.252h-5.813l0.137-5.984h18.158l0.137,5.984H143.591z"/>
	<path d="M164.343,29.915V19.861h-6.224v10.053h-6.668V4.269h6.668v9.608h6.224V4.269h6.702v25.646H164.343z"/>
	<path d="M191.147,24.136l-0.137,5.779h-16.517V4.269h16.072l0.137,5.881h-9.541v3.967h7.865v5.368h-7.865v4.651H191.147z"/>
	<path d="M10.532,62.973h-2.12v7.967H1.744V45.294h8.788c7.112,0,9.95,2.77,9.95,9.027C20.482,59.861,17.713,62.973,10.532,62.973z
		 M10.532,50.868h-2.12v6.805h2.12c2.188,0,3.009-0.513,3.009-3.385C13.541,51.518,12.892,50.868,10.532,50.868z"/>
	<path d="M32.959,71.385c-7.386,0-10.736-3.898-10.736-13.268c0-9.403,3.214-13.233,10.736-13.233
		c7.523,0,10.738,3.83,10.738,13.233C43.697,67.76,40.482,71.385,32.959,71.385z M32.926,50.868c-2.805,0-3.693,1.163-3.693,7.249
		c0,6.121,0.923,7.352,3.762,7.352c2.838,0,3.692-1.265,3.692-7.352C36.687,51.997,35.832,50.868,32.926,50.868z"/>
	<path d="M64.209,45.294l2.701,16.037l0.41,2.736h0.103l0.308-2.736l2.291-16.037h6.668L71.321,70.94H63.32l-2.395-15.559
		l-0.342-2.77h-0.103l-0.376,2.77L57.746,70.94h-8.002l-5.369-25.646h6.977l2.257,16.174l0.342,2.736h0.103l0.377-2.736
		l2.666-16.174H64.209z"/>
	<path d="M95.422,65.162l-0.137,5.779H78.77V45.294h16.07l0.137,5.881h-9.539v3.967h7.864v5.368h-7.864v4.651H95.422z"/>
	<path d="M113.062,60.442l4.992,10.498h-7.728l-3.419-9.164h-2.258v9.164h-6.668V45.294h8.857c6.496,0,9.711,2.462,9.711,8.241
		C116.551,56.955,115.319,59.485,113.062,60.442z M106.977,50.834h-2.326v5.916h2.291c1.949,0,2.633-0.479,2.633-2.975
		C109.574,51.449,108.926,50.834,106.977,50.834z"/>
	<path d="M122.461,71.351c-2.393,0-3.453-0.923-3.453-3.249c0-2.086,1.061-3.283,3.453-3.283c2.395,0,3.42,1.197,3.42,3.283
		C125.881,70.051,124.855,71.351,122.461,71.351z"/>
</g>
</svg>
