<?xml version="1.0" encoding="utf-8"?>
<!-- Generator: Adobe Illustrator 16.0.4, SVG Export Plug-In . SVG Version: 6.00 Build 0)  -->
<!DOCTYPE svg PUBLIC "-//W3C//DTD SVG 1.1//EN" "http://www.w3.org/Graphics/SVG/1.1/DTD/svg11.dtd">
<svg version="1.1" id="Ebene_1" xmlns="http://www.w3.org/2000/svg" xmlns:xlink="http://www.w3.org/1999/xlink" x="0px" y="0px"
	 width="275.066px" height="53.309px" viewBox="0 0 275.066 53.309" enable-background="new 0 0 275.066 53.309"
	 xml:space="preserve">
<g>
	<path d="M0,0.39h6.03v22.499H0V0.39z"/>
	<path d="M22.499,22.889l-6.72-10.379l-1.26-2.07l-0.061,0.03l0.031,2.43v9.99H9.33V0.39h4.92l7.229,11.669l0.061-0.03l-0.061-2.4
		l0.031-9.24h5.159v22.499H22.499z"/>
	<path d="M37.859,22.889h-8.13V0.39h8.01c6.84,0,9.63,3.18,9.63,11.129C47.369,19.769,44.189,22.889,37.859,22.889z M37.77,5.58
		H35.58v12.179h2.189c2.58,0,3.449-0.78,3.449-6.3C41.219,6.48,40.409,5.58,37.77,5.58z"/>
	<path d="M66.869,15.239c0,5.28-2.82,8.04-8.58,8.04s-8.67-2.76-8.67-8.04V0.39H55.5V15.12c0,2.01,0.779,2.91,2.789,2.91
		c2.04,0,2.73-0.84,2.73-2.91V0.39h5.85V15.239z"/>
	<path d="M75.39,23.279c-2.37,0-4.71-0.54-6.54-1.56l0.75-4.98c1.83,0.93,3.689,1.5,5.641,1.5c1.859,0,2.58-0.63,2.58-1.83
		c0-2.88-8.94-1.98-8.94-9.33c0-3.93,2.399-7.049,7.95-7.049c2.069,0,4.289,0.39,5.909,1.08L82.08,6
		c-1.711-0.51-3.42-0.81-4.86-0.81c-2.22,0-2.7,0.66-2.7,1.62c0,2.91,8.939,1.92,8.939,9.27
		C83.459,20.519,80.459,23.279,75.39,23.279z"/>
	<path d="M94.889,5.64v17.25H88.92V5.64h-5.1l0.119-5.25h15.93l0.12,5.25H94.889z"/>
	<path d="M115.02,13.68l4.379,9.209h-6.779l-3-8.04h-1.979v8.04h-5.851V0.39h7.771c5.7,0,8.52,2.16,8.52,7.229
		C118.079,10.62,116.999,12.839,115.02,13.68z M109.68,5.25h-2.04v5.189h2.01c1.71,0,2.31-0.42,2.31-2.61
		C111.959,5.79,111.389,5.25,109.68,5.25z"/>
	<path d="M121.109,0.39h6.029v22.499h-6.029V0.39z"/>
	<path d="M145.048,17.819l-0.12,5.07h-14.489V0.39h14.1l0.12,5.16h-8.369v3.48h6.898v4.71h-6.898v4.08H145.048z"/>
	<path d="M153.178,23.279c-2.369,0-4.709-0.54-6.539-1.56l0.75-4.98c1.83,0.93,3.689,1.5,5.64,1.5c1.86,0,2.579-0.63,2.579-1.83
		c0-2.88-8.939-1.98-8.939-9.33c0-3.93,2.4-7.049,7.95-7.049c2.069,0,4.29,0.39,5.909,1.08L159.868,6
		c-1.71-0.51-3.42-0.81-4.86-0.81c-2.22,0-2.699,0.66-2.699,1.62c0,2.91,8.939,1.92,8.939,9.27
		C161.248,20.519,158.248,23.279,153.178,23.279z"/>
	<path d="M174.389,18.959h-6.121l-0.869,3.93h-6.21l6.659-22.499h7.17l6.78,22.499h-6.54L174.389,18.959z M170.818,7.62l-1.439,6.45
		h3.93l-1.44-6.45l-0.45-2.4h-0.09L170.818,7.62z"/>
	<path d="M199.408,15.239c0,5.28-2.82,8.04-8.58,8.04s-8.67-2.76-8.67-8.04V0.39h5.88V15.12c0,2.01,0.78,2.91,2.79,2.91
		c2.039,0,2.73-0.84,2.73-2.91V0.39h5.85V15.239z"/>
	<path d="M218.157,22.079c-1.56,0.75-4.11,1.23-6.419,1.23c-7.44,0-10.08-3.99-10.08-11.669c0-7.86,3.09-11.64,10.35-11.64
		c1.979,0,4.229,0.36,5.85,0.99L217.317,6c-1.47-0.54-3.36-0.87-4.979-0.87c-3.689,0-4.53,1.38-4.53,6.45
		c0,5.34,0.87,6.51,3.78,6.51c0.449,0,0.93-0.03,1.35-0.12v-7.35h5.22V22.079z"/>
	<path d="M235.438,17.819l-0.121,5.07h-14.488V0.39h14.1l0.119,5.16h-8.369v3.48h6.9v4.71h-6.9v4.08H235.438z"/>
	<path d="M250.918,13.68l4.379,9.209h-6.779l-3-8.04h-1.98v8.04h-5.85V0.39h7.77c5.699,0,8.52,2.16,8.52,7.229
		C253.977,10.62,252.896,12.839,250.918,13.68z M245.578,5.25h-2.041v5.189h2.01c1.711,0,2.311-0.42,2.311-2.61
		C247.857,5.79,247.287,5.25,245.578,5.25z"/>
	<path d="M5.641,35.64v3.96h6.869l-0.029,4.98h-6.84v8.31H-0.24V30.39h14.07l0.09,5.25H5.641z"/>
	<path d="M32.939,45.239c0,5.28-2.82,8.041-8.58,8.041s-8.67-2.761-8.67-8.041V30.39h5.881V45.12c0,2.01,0.779,2.91,2.789,2.91
		c2.04,0,2.73-0.84,2.73-2.91V30.39h5.85V45.239z M21.51,29.31c-1.47,0-2.22-0.57-2.22-2.01c0-1.35,0.75-2.07,2.22-2.07
		c1.529,0,2.221,0.72,2.221,2.07C23.73,28.62,23.039,29.31,21.51,29.31z M27.24,29.31c-1.471,0-2.221-0.57-2.221-2.01
		c0-1.35,0.75-2.07,2.221-2.07c1.529,0,2.219,0.72,2.219,2.07C29.459,28.62,28.77,29.31,27.24,29.31z"/>
	<path d="M49.02,43.68l4.379,9.209h-6.779l-3-8.039H41.64v8.039h-5.851V30.39h7.771c5.7,0,8.52,2.16,8.52,7.229
		C52.079,40.62,50.999,42.839,49.02,43.68z M43.68,35.25h-2.04v5.189h2.01c1.71,0,2.31-0.42,2.31-2.61
		C45.959,35.79,45.389,35.25,43.68,35.25z"/>
	<path d="M73.588,44.639c0,6.6-3.359,8.67-8.639,8.67c-1.681,0-3.03-0.3-4.11-0.779l0.3-4.891c0.631,0.33,1.62,0.54,2.79,0.54
		c2.46,0,3.659-0.96,3.659-3.659V30.39h6V44.639z"/>
	<path d="M91.258,47.819l-0.119,5.07h-14.49V30.39h14.1l0.12,5.16h-8.37v3.48h6.9v4.71h-6.9v4.079H91.258z"/>
	<path d="M101.639,52.889h-8.131V30.39h8.01c6.84,0,9.631,3.18,9.631,11.129C111.148,49.769,107.968,52.889,101.639,52.889z
		 M101.549,35.58h-2.19v12.179h2.19c2.579,0,3.449-0.78,3.449-6.3C104.998,36.48,104.188,35.58,101.549,35.58z"/>
	<path d="M128.218,47.819l-0.12,5.07h-14.489V30.39h14.1l0.12,5.16h-8.369v3.48h6.898v4.71h-6.898v4.079H128.218z"/>
	<path d="M145.978,52.889h-8.76V30.39h8.819c4.83,0,7.29,2.25,7.29,5.82c0,2.37-1.079,3.9-2.76,4.709v0.06
		c2.25,0.75,3.45,2.49,3.45,5.28C154.018,50.309,151.588,52.889,145.978,52.889z M145.797,35.31h-2.909v3.959h2.97
		c1.35,0,1.83-0.51,1.83-2.04C147.688,35.76,147.178,35.31,145.797,35.31z M145.947,43.649h-3.06v4.44h3.18
		c1.47,0,2.011-0.479,2.011-2.25C148.078,44.28,147.598,43.649,145.947,43.649z"/>
	<path d="M169.587,43.68l4.38,9.209h-6.779l-3-8.039h-1.98v8.039h-5.85V30.39h7.77c5.7,0,8.52,2.16,8.52,7.229
		C172.646,40.62,171.566,42.839,169.587,43.68z M164.247,35.25h-2.04v5.189h2.01c1.711,0,2.311-0.42,2.311-2.61
		C166.527,35.79,165.957,35.25,164.247,35.25z"/>
	<path d="M187.047,48.959h-6.12l-0.87,3.93h-6.209l6.659-22.499h7.17l6.78,22.499h-6.541L187.047,48.959z M183.477,37.62
		l-1.439,6.449h3.93l-1.439-6.449l-0.451-2.4h-0.09L183.477,37.62z"/>
	<path d="M209.126,52.889l-6.72-10.379l-1.26-2.07l-0.061,0.03l0.031,2.43v9.99h-5.16V30.39h4.92l7.229,11.669l0.061-0.03
		l-0.061-2.4l0.031-9.24h5.159v22.499H209.126z"/>
	<path d="M229.826,35.82c-0.99-0.36-2.34-0.6-3.75-0.6c-3.33,0-4.17,1.41-4.17,6.33c0,5.189,0.93,6.629,4.26,6.629
		c1.381,0,2.67-0.271,3.721-0.75l0.539,4.771c-1.35,0.66-3.39,1.08-5.129,1.08c-6.42,0-9.54-3.66-9.54-11.76
		c0-7.56,3.03-11.52,9.899-11.52c1.59,0,3.539,0.36,4.74,0.84L229.826,35.82z"/>
	<path d="M243.896,52.889v-8.82h-5.461v8.82h-5.85V30.39h5.85v8.43h5.461v-8.43h5.879v22.499H243.896z"/>
	<path d="M267.416,47.819l-0.121,5.07h-14.488V30.39h14.098l0.121,5.16h-8.369v3.48h6.898v4.71h-6.898v4.079H267.416z"/>
	<path d="M272.066,53.249c-2.1,0-3.029-0.81-3.029-2.85c0-1.83,0.93-2.879,3.029-2.879s3,1.049,3,2.879
		C275.066,52.11,274.166,53.249,272.066,53.249z"/>
</g>
</svg>
