<?xml version="1.0" encoding="utf-8"?>
<!-- Generator: Adobe Illustrator 16.0.0, SVG Export Plug-In . SVG Version: 6.00 Build 0)  -->
<!DOCTYPE svg PUBLIC "-//W3C//DTD SVG 1.0//EN" "http://www.w3.org/TR/2001/REC-SVG-20010904/DTD/svg10.dtd">
<svg version="1.0" id="Ebene_1" xmlns="http://www.w3.org/2000/svg" xmlns:xlink="http://www.w3.org/1999/xlink" x="0px" y="0px"
	 width="326.596px" height="37.88px" viewBox="0 0 326.596 37.88" enable-background="new 0 0 326.596 37.88" xml:space="preserve">
<g>
	<path d="M20.175,4.269l2.702,16.037l0.41,2.736h0.102l0.309-2.736l2.291-16.037h6.668l-5.369,25.646h-8.001l-2.394-15.559
		l-0.342-2.77h-0.104l-0.375,2.77l-2.359,15.559H5.711L0.342,4.269h6.977l2.256,16.174l0.342,2.736h0.104l0.375-2.736l2.668-16.174
		H20.175z"/>
	<path d="M51.389,24.136l-0.137,5.779H34.735V4.269h16.071l0.137,5.881h-9.54v3.967h7.864v5.368h-7.864v4.651H51.389z"/>
	<path d="M79.764,28.991c-1.777,0.855-4.684,1.402-7.317,1.402c-8.479,0-11.489-4.548-11.489-13.302
		c0-8.959,3.521-13.268,11.797-13.268c2.258,0,4.822,0.411,6.668,1.128l-0.615,5.71c-1.676-0.615-3.83-0.991-5.676-0.991
		c-4.207,0-5.164,1.573-5.164,7.352c0,6.087,0.992,7.42,4.309,7.42c0.514,0,1.061-0.034,1.539-0.137v-8.378h5.949V28.991z"/>
	<path d="M92.856,30.359c-7.386,0-10.737-3.898-10.737-13.268c0-9.403,3.215-13.233,10.737-13.233s10.737,3.83,10.737,13.233
		C103.594,26.734,100.379,30.359,92.856,30.359z M92.822,9.842c-2.805,0-3.693,1.163-3.693,7.249c0,6.121,0.924,7.352,3.762,7.352
		s3.693-1.265,3.693-7.352C96.584,10.971,95.729,9.842,92.822,9.842z"/>
	<path d="M116.856,10.252v19.662h-6.805V10.252h-5.813l0.137-5.984h18.158l0.137,5.984H116.856z"/>
	<path d="M143.591,10.252v19.662h-6.805V10.252h-5.813l0.137-5.984h18.158l0.137,5.984H143.591z"/>
	<path d="M164.343,29.915V19.861h-6.224v10.053h-6.668V4.269h6.668v9.608h6.224V4.269h6.702v25.646H164.343z"/>
	<path d="M191.147,24.136l-0.137,5.779h-16.517V4.269h16.072l0.137,5.881h-9.541v3.967h7.865v5.368h-7.865v4.651H191.147z"/>
	<path d="M210.188,21.947h-2.119v7.967H201.4V4.269h8.787c7.113,0,9.951,2.77,9.951,9.027
		C220.139,18.835,217.369,21.947,210.188,21.947z M210.188,9.842h-2.119v6.805h2.119c2.189,0,3.01-0.513,3.01-3.385
		C213.197,10.492,212.547,9.842,210.188,9.842z"/>
	<path d="M232.615,30.359c-7.387,0-10.737-3.898-10.737-13.268c0-9.403,3.214-13.233,10.737-13.233s10.736,3.83,10.736,13.233
		C243.352,26.734,240.139,30.359,232.615,30.359z M232.581,9.842c-2.804,0-3.693,1.163-3.693,7.249c0,6.121,0.923,7.352,3.762,7.352
		s3.692-1.265,3.692-7.352C236.342,10.971,235.488,9.842,232.581,9.842z"/>
	<path d="M263.865,4.269l2.701,16.037l0.41,2.736h0.104l0.307-2.736l2.291-16.037h6.668l-5.369,25.646h-8l-2.395-15.559l-0.342-2.77
		h-0.102l-0.377,2.77l-2.359,15.559H249.4l-5.369-25.646h6.977l2.256,16.174l0.344,2.736h0.102l0.377-2.736l2.666-16.174H263.865z"
		/>
	<path d="M295.078,24.136l-0.137,5.779h-16.516V4.269h16.07l0.137,5.881h-9.539v3.967h7.863v5.368h-7.863v4.651H295.078z"/>
	<path d="M312.719,19.417l4.992,10.498h-7.729l-3.418-9.164h-2.258v9.164h-6.668V4.269h8.857c6.496,0,9.711,2.462,9.711,8.241
		C316.207,15.929,314.977,18.459,312.719,19.417z M306.633,9.808h-2.326v5.916h2.291c1.949,0,2.633-0.479,2.633-2.975
		C309.23,10.423,308.582,9.808,306.633,9.808z"/>
	<path d="M322.117,30.325c-2.393,0-3.453-0.923-3.453-3.249c0-2.085,1.061-3.283,3.453-3.283c2.395,0,3.42,1.197,3.42,3.283
		C325.537,29.025,324.512,30.325,322.117,30.325z"/>
</g>
</svg>
