<?xml version="1.0" encoding="utf-8"?>
<!-- Generator: Adobe Illustrator 16.0.0, SVG Export Plug-In . SVG Version: 6.00 Build 0)  -->
<!DOCTYPE svg PUBLIC "-//W3C//DTD SVG 1.0//EN" "http://www.w3.org/TR/2001/REC-SVG-20010904/DTD/svg10.dtd">
<svg version="1.0" id="Ebene_1" xmlns="http://www.w3.org/2000/svg" xmlns:xlink="http://www.w3.org/1999/xlink" x="0px" y="0px"
	 width="758.668px" height="25.61px" viewBox="0 0 758.668 25.61" enable-background="new 0 0 758.668 25.61" xml:space="preserve">
<g>
	<path d="M13.305,18.843l-0.07,1.437H2.572V2.896h10.245l0.069,1.438H4.08v6.188h7.625v1.298H4.08v7.023H13.305z"/>
	<path d="M21.277,14.045l-3.941,6.235h-1.668l4.682-6.954l-4.566-6.722h1.715l3.871,5.98l3.824-5.98h1.646l-4.474,6.675l4.636,7
		h-1.738L21.277,14.045z"/>
	<path d="M32.633,7.74v9.248c0,1.646,0.857,2.295,2.226,2.295c0.394,0,0.881-0.07,1.159-0.186l0.115,1.113
		c-0.371,0.162-1.043,0.278-1.645,0.278c-2.133,0-3.27-1.112-3.27-3.454V7.74h-2.132V6.604h2.155l0.279-3.592l1.111-0.139v3.731
		h3.594V7.74H32.633z"/>
	<path d="M39.354,20.28V6.674l1.136-0.093l0.046,1.53l0.046,1.877h0.047c0.788-2.132,2.388-3.569,4.45-3.569
		c0.464,0,0.904,0.046,1.298,0.162l-0.115,1.46c-0.395-0.139-0.812-0.185-1.252-0.185c-2.318,0-4.265,2.132-4.265,5.447v6.977
		H39.354z"/>
	<path d="M48.254,12.979c0-4.288,1.832-6.605,5.447-6.605c3.082,0,5.238,1.877,5.238,6.304c0,0.208-0.023,0.51-0.047,0.695h-9.201
		c0.069,4.381,1.529,5.864,4.798,5.864c1.437,0,2.619-0.348,3.778-0.974l0.186,1.229c-1.183,0.672-2.504,1.066-4.104,1.066
		C49.992,20.558,48.254,18.263,48.254,12.979z M57.642,12.376c-0.046-3.454-1.669-4.751-3.94-4.751
		c-2.689,0-3.895,1.599-4.033,4.751H57.642z"/>
	<path d="M78.061,20.28v-9.294c0-2.225-1.275-3.245-3.314-3.245c-1.623,0-3.105,0.997-3.105,2.944v9.596H70.25v-9.596
		c0-2.132-1.414-2.944-3.106-2.944c-1.298,0-2.688,0.719-3.337,1.831V20.28h-1.391V6.628l0.996-0.093l0.277,1.669h0.07
		c0.765-1.089,2.133-1.785,3.615-1.785c1.971,0,3.223,0.765,3.778,2.271h0.069c0.626-1.507,2.062-2.295,3.848-2.295
		c2.596,0,4.381,1.437,4.381,4.566v9.317H78.061z"/>
	<path d="M82.719,12.979c0-4.288,1.83-6.605,5.446-6.605c3.083,0,5.238,1.877,5.238,6.304c0,0.208-0.023,0.51-0.046,0.695h-9.202
		c0.069,4.381,1.53,5.864,4.798,5.864c1.438,0,2.619-0.348,3.777-0.974l0.186,1.229c-1.182,0.672-2.503,1.066-4.102,1.066
		C84.457,20.558,82.719,18.263,82.719,12.979z M92.105,12.376c-0.047-3.454-1.669-4.751-3.94-4.751
		c-2.688,0-3.894,1.599-4.033,4.751H92.105z"/>
	<path d="M110.206,13.257h-4.01v7.023h-1.53V2.896h5.54c3.94,0,5.655,1.53,5.655,5.169
		C115.861,11.565,114.193,13.257,110.206,13.257z M110.206,4.264h-4.01v7.672h4.01c2.712,0,4.103-0.927,4.103-3.871
		C114.309,5.284,112.987,4.264,110.206,4.264z"/>
	<path d="M123.973,20.581c-3.986,0-5.771-1.993-5.771-7.116c0-5.076,1.809-7.092,5.771-7.092c4.01,0,5.702,2.017,5.702,7.092
		C129.675,18.588,127.982,20.581,123.973,20.581z M123.973,19.353c3.06,0,4.242-1.623,4.242-5.887c0-4.242-1.183-5.841-4.242-5.841
		c-3.082,0-4.311,1.599-4.311,5.841C119.662,17.753,120.891,19.353,123.973,19.353z"/>
	<path d="M141.564,6.604l2.852,10.801l0.463,1.808h0.07l0.371-1.831l2.549-10.778h1.414L145.83,20.28h-1.785l-2.758-10.361
		l-0.441-1.831h-0.068l-0.464,1.831l-2.828,10.361h-1.738l-3.569-13.675h1.438l2.596,10.731l0.417,1.832h0.069l0.44-1.808
		l2.874-10.755H141.564z"/>
	<path d="M151.785,12.979c0-4.288,1.832-6.605,5.447-6.605c3.082,0,5.238,1.877,5.238,6.304c0,0.208-0.023,0.51-0.047,0.695h-9.201
		c0.069,4.381,1.529,5.864,4.798,5.864c1.437,0,2.619-0.348,3.778-0.974l0.186,1.229c-1.183,0.672-2.504,1.066-4.104,1.066
		C153.523,20.558,151.785,18.263,151.785,12.979z M161.173,12.376c-0.046-3.454-1.669-4.751-3.94-4.751
		c-2.689,0-3.895,1.599-4.033,4.751H161.173z"/>
	<path d="M165.947,20.28V6.674l1.135-0.093l0.047,1.53l0.046,1.877h0.046c0.789-2.132,2.389-3.569,4.451-3.569
		c0.463,0,0.904,0.046,1.298,0.162l-0.116,1.46c-0.395-0.139-0.811-0.185-1.252-0.185c-2.317,0-4.264,2.132-4.264,5.447v6.977
		H165.947z"/>
	<path d="M199.137,20.28v-9.294c0-2.225-1.275-3.245-3.314-3.245c-1.623,0-3.105,0.997-3.105,2.944v9.596h-1.391v-9.596
		c0-2.132-1.414-2.944-3.106-2.944c-1.298,0-2.688,0.719-3.337,1.831V20.28h-1.391V6.628l0.996-0.093l0.277,1.669h0.07
		c0.765-1.089,2.133-1.785,3.615-1.785c1.971,0,3.223,0.765,3.778,2.271h0.069c0.626-1.507,2.062-2.295,3.848-2.295
		c2.596,0,4.381,1.437,4.381,4.566v9.317H199.137z"/>
	<path d="M206.043,3.8c-0.695,0-1.09-0.232-1.09-0.974c0-0.626,0.395-0.974,1.09-0.974s1.089,0.348,1.089,0.974
		C207.132,3.499,206.738,3.8,206.043,3.8z M205.324,20.28V6.674l1.414-0.116V20.28H205.324z"/>
	<path d="M214.062,7.74v9.248c0,1.646,0.857,2.295,2.226,2.295c0.394,0,0.881-0.07,1.158-0.186l0.116,1.113
		c-0.371,0.162-1.043,0.278-1.646,0.278c-2.133,0-3.269-1.112-3.269-3.454V7.74h-2.132V6.604h2.155l0.278-3.592l1.112-0.139v3.731
		h3.593V7.74H214.062z"/>
	<path d="M238.072,15.969c0,2.874-1.645,4.589-5.075,4.589c-3.407,0-5.054-1.739-5.054-4.589V6.604h1.391v9.318
		c0,2.132,1.252,3.291,3.663,3.291s3.685-1.136,3.685-3.291V6.604h1.391V15.969z"/>
	<path d="M250.959,20.28v-9.225c0-2.341-1.297-3.337-3.615-3.337c-1.346,0-2.967,0.649-3.732,1.854V20.28h-1.391V6.628l0.996-0.093
		l0.256,1.646h0.07c0.926-1.136,2.502-1.808,4.148-1.808c2.896,0,4.658,1.506,4.658,4.659v9.248H250.959z"/>
	<path d="M259.906,20.558c-1.623,0-3.152-0.44-4.172-1.252l0.23-1.274c0.996,0.834,2.527,1.298,3.918,1.298
		c2.316,0,3.291-1.182,3.291-2.758c0-3.662-7.371-2.086-7.371-6.606c0-2.225,1.6-3.592,4.543-3.592c1.299,0,2.504,0.255,3.594,0.788
		l-0.141,1.229c-1.135-0.51-2.34-0.765-3.477-0.765c-1.947,0-3.176,0.881-3.176,2.271c0,3.407,7.348,1.715,7.348,6.536
		C264.494,18.912,263.08,20.558,259.906,20.558z"/>
	<path d="M266.975,12.979c0-4.288,1.83-6.605,5.445-6.605c3.084,0,5.238,1.877,5.238,6.304c0,0.208-0.021,0.51-0.045,0.695h-9.203
		c0.07,4.381,1.531,5.864,4.799,5.864c1.438,0,2.619-0.348,3.777-0.974l0.186,1.229c-1.182,0.672-2.502,1.066-4.102,1.066
		C268.713,20.558,266.975,18.263,266.975,12.979z M276.361,12.376c-0.047-3.454-1.67-4.751-3.941-4.751
		c-2.688,0-3.893,1.599-4.031,4.751H276.361z"/>
	<path d="M281.135,20.28V6.674l1.137-0.093l0.045,1.53l0.047,1.877h0.047c0.787-2.132,2.387-3.569,4.449-3.569
		c0.465,0,0.904,0.046,1.299,0.162l-0.115,1.46c-0.395-0.139-0.812-0.185-1.252-0.185c-2.318,0-4.266,2.132-4.266,5.447v6.977
		H281.135z"/>
	<path d="M290.035,12.979c0-4.288,1.83-6.605,5.445-6.605c3.084,0,5.238,1.877,5.238,6.304c0,0.208-0.021,0.51-0.045,0.695h-9.203
		c0.07,4.381,1.531,5.864,4.799,5.864c1.438,0,2.619-0.348,3.777-0.974l0.186,1.229c-1.182,0.672-2.502,1.066-4.102,1.066
		C291.773,20.558,290.035,18.263,290.035,12.979z M299.422,12.376c-0.047-3.454-1.67-4.751-3.941-4.751
		c-2.688,0-3.893,1.599-4.031,4.751H299.422z"/>
	<path d="M312.934,20.28v-9.225c0-2.341-1.297-3.337-3.615-3.337c-1.346,0-2.967,0.649-3.732,1.854V20.28h-1.391V6.628l0.996-0.093
		l0.256,1.646h0.07c0.926-1.136,2.502-1.808,4.148-1.808c2.896,0,4.658,1.506,4.658,4.659v9.248H312.934z"/>
	<path d="M337.176,20.28v-8.367h-9.387v8.367h-1.529V2.896h1.529v7.58h9.387v-7.58h1.531V20.28H337.176z"/>
	<path d="M348.371,20.581c-3.986,0-5.771-1.993-5.771-7.116c0-5.076,1.809-7.092,5.771-7.092c4.01,0,5.701,2.017,5.701,7.092
		C354.072,18.588,352.381,20.581,348.371,20.581z M348.371,19.353c3.061,0,4.242-1.623,4.242-5.887c0-4.242-1.182-5.841-4.242-5.841
		c-3.082,0-4.311,1.599-4.311,5.841C344.061,17.753,345.289,19.353,348.371,19.353z M346.609,3.638c-0.533,0-0.811-0.231-0.811-0.88
		c0-0.557,0.277-0.904,0.811-0.904s0.812,0.325,0.812,0.904C347.422,3.36,347.143,3.638,346.609,3.638z M350.062,3.638
		c-0.533,0-0.811-0.231-0.811-0.88c0-0.557,0.277-0.904,0.811-0.904s0.812,0.325,0.812,0.904
		C350.875,3.36,350.596,3.638,350.062,3.638z"/>
	<path d="M365.639,8.436c-0.859-0.417-1.924-0.718-3.014-0.718c-3.199,0-4.451,1.646-4.451,5.562c0,4.427,1.508,6.003,4.404,6.003
		c1.158,0,2.295-0.325,3.152-0.95l0.139,1.228c-0.811,0.603-2.133,1.02-3.545,1.02c-3.756,0-5.609-2.132-5.609-7.301
		c0-4.659,1.715-6.907,5.631-6.907c1.275,0,2.504,0.324,3.408,0.765L365.639,8.436z"/>
	<path d="M378.061,20.28v-9.248c0-2.109-1.137-3.314-3.57-3.314c-1.691,0-3.129,0.834-3.73,1.877V20.28h-1.414V1.853l1.414-0.116
		v4.497l-0.023,1.854l0.047,0.023c0.949-1.136,2.41-1.762,4.078-1.762c3.014,0,4.613,1.646,4.613,4.682v9.248H378.061z"/>
	<path d="M387.029,20.558c-1.623,0-3.152-0.44-4.172-1.252l0.232-1.274c0.996,0.834,2.525,1.298,3.916,1.298
		c2.318,0,3.291-1.182,3.291-2.758c0-3.662-7.369-2.086-7.369-6.606c0-2.225,1.598-3.592,4.543-3.592
		c1.297,0,2.502,0.255,3.592,0.788l-0.139,1.229c-1.137-0.51-2.342-0.765-3.477-0.765c-1.947,0-3.176,0.881-3.176,2.271
		c0,3.407,7.348,1.715,7.348,6.536C391.619,18.912,390.205,20.558,387.029,20.558z"/>
	<path d="M396.973,7.74v9.248c0,1.646,0.857,2.295,2.225,2.295c0.395,0,0.881-0.07,1.158-0.186l0.117,1.113
		c-0.371,0.162-1.043,0.278-1.646,0.278c-2.133,0-3.268-1.112-3.268-3.454V7.74h-2.133V6.604h2.156l0.277-3.592l1.113-0.139v3.731
		h3.592V7.74H396.973z"/>
	<path d="M412.432,20.28l-0.23-1.599l-0.07-0.023c-0.857,1.251-2.318,1.901-4.242,1.901c-3.801,0-5.283-2.225-5.283-7.116
		c0-4.705,1.576-7.069,5.307-7.069c1.67,0,3.199,0.603,4.172,1.785l0.047-0.023l-0.047-1.854V1.853l1.414-0.116V20.28H412.432z
		 M412.084,9.595c-0.672-1.136-2.086-1.877-3.824-1.877c-3.059,0-4.219,1.669-4.219,5.771c0,4.218,1.066,5.864,4.195,5.864
		c2.295,0,3.408-1.136,3.848-1.993V9.595z"/>
	<path d="M417.947,20.28V6.674l1.137-0.093l0.045,1.53l0.047,1.877h0.047c0.787-2.132,2.387-3.569,4.449-3.569
		c0.465,0,0.904,0.046,1.299,0.162l-0.115,1.46c-0.395-0.139-0.812-0.185-1.252-0.185c-2.318,0-4.266,2.132-4.266,5.447v6.977
		H417.947z"/>
	<path d="M437.949,15.969c0,2.874-1.646,4.589-5.076,4.589c-3.406,0-5.053-1.739-5.053-4.589V6.604h1.391v9.318
		c0,2.132,1.252,3.291,3.662,3.291s3.686-1.136,3.686-3.291V6.604h1.391V15.969z"/>
	<path d="M450.141,8.436c-0.857-0.417-1.924-0.718-3.014-0.718c-3.197,0-4.449,1.646-4.449,5.562c0,4.427,1.506,6.003,4.404,6.003
		c1.158,0,2.293-0.325,3.152-0.95l0.139,1.228c-0.812,0.603-2.133,1.02-3.547,1.02c-3.754,0-5.609-2.132-5.609-7.301
		c0-4.659,1.715-6.907,5.633-6.907c1.275,0,2.504,0.324,3.406,0.765L450.141,8.436z"/>
	<path d="M455.262,12.26h2.18l4.773-5.679h1.809l-5.309,6.258l5.541,7.44h-1.785l-5.029-6.768h-2.18v6.768h-1.414V1.83l1.414-0.093
		V12.26z"/>
	<path d="M466.99,20.28V6.674l1.135-0.093l0.047,1.53l0.047,1.877h0.045c0.789-2.132,2.389-3.569,4.451-3.569
		c0.463,0,0.904,0.046,1.297,0.162l-0.115,1.46c-0.395-0.139-0.811-0.185-1.252-0.185c-2.316,0-4.264,2.132-4.264,5.447v6.977
		H466.99z"/>
	<path d="M475.891,12.979c0-4.288,1.83-6.605,5.445-6.605c3.084,0,5.238,1.877,5.238,6.304c0,0.208-0.021,0.51-0.045,0.695h-9.203
		c0.07,4.381,1.531,5.864,4.799,5.864c1.438,0,2.619-0.348,3.777-0.974l0.186,1.229c-1.182,0.672-2.502,1.066-4.102,1.066
		C477.629,20.558,475.891,18.263,475.891,12.979z M485.277,12.376c-0.047-3.454-1.67-4.751-3.941-4.751
		c-2.688,0-3.893,1.599-4.031,4.751H485.277z"/>
	<path d="M491.418,3.8c-0.695,0-1.088-0.232-1.088-0.974c0-0.626,0.393-0.974,1.088-0.974s1.09,0.348,1.09,0.974
		C492.508,3.499,492.113,3.8,491.418,3.8z M490.699,20.28V6.674l1.414-0.116V20.28H490.699z"/>
	<path d="M505.928,20.28v-9.225c0-2.341-1.299-3.337-3.617-3.337c-1.344,0-2.967,0.649-3.73,1.854V20.28h-1.391V6.628l0.996-0.093
		l0.254,1.646h0.07c0.928-1.136,2.504-1.808,4.148-1.808c2.898,0,4.66,1.506,4.66,4.659v9.248H505.928z"/>
	<path d="M512.834,3.8c-0.695,0-1.09-0.232-1.09-0.974c0-0.626,0.395-0.974,1.09-0.974s1.09,0.348,1.09,0.974
		C513.924,3.499,513.529,3.8,512.834,3.8z M512.115,20.28V6.674l1.414-0.116V20.28H512.115z"/>
	<path d="M520.945,14.068c-0.926,0.209-1.414,0.672-1.414,1.252c0,0.533,0.418,0.973,1.553,1.089l3.152,0.324
		c3.361,0.348,4.357,1.368,4.357,3.175c0,2.411-1.391,3.94-5.539,3.94c-3.592,0-5.1-1.437-5.1-3.616
		c0-1.043,0.533-2.063,1.508-2.805c-0.695-0.301-1.252-0.904-1.252-1.831c0-0.834,0.625-1.576,1.762-1.97
		c-0.975-0.533-1.67-1.553-1.67-3.245c0-2.573,1.299-4.01,4.613-4.01c1.182,0,2.434,0.231,3.338,0.95l2.201-0.997l0.324,0.718
		l-1.762,1.182c0.303,0.557,0.488,1.252,0.488,2.132c0,2.573-1.16,3.964-4.59,3.964C522.268,14.323,521.572,14.253,520.945,14.068z
		 M520.691,17.684c-0.975,0.625-1.484,1.553-1.484,2.387c0,1.623,1.113,2.596,3.801,2.596c3.385,0,4.266-1.043,4.266-2.573
		c0-1.182-0.604-1.831-3.244-2.062L520.691,17.684z M519.672,10.406c0,2.295,1.391,2.805,3.221,2.805
		c2.504,0,3.268-0.974,3.268-2.805c0-2.109-0.996-2.851-3.244-2.851C520.551,7.555,519.672,8.505,519.672,10.406z"/>
	<path d="M530.703,12.979c0-4.288,1.83-6.605,5.445-6.605c3.084,0,5.238,1.877,5.238,6.304c0,0.208-0.021,0.51-0.045,0.695h-9.203
		c0.07,4.381,1.531,5.864,4.799,5.864c1.438,0,2.619-0.348,3.777-0.974l0.186,1.229c-1.182,0.672-2.502,1.066-4.102,1.066
		C532.441,20.558,530.703,18.263,530.703,12.979z M540.09,12.376c-0.047-3.454-1.67-4.751-3.941-4.751
		c-2.688,0-3.893,1.599-4.031,4.751H540.09z"/>
	<path d="M544.865,20.28V6.674L546,6.582l0.047,1.53l0.047,1.877h0.045c0.789-2.132,2.389-3.569,4.451-3.569
		c0.463,0,0.904,0.046,1.297,0.162l-0.115,1.46c-0.395-0.139-0.811-0.185-1.252-0.185c-2.316,0-4.264,2.132-4.264,5.447v6.977
		H544.865z"/>
	<path d="M563.73,20.28v-9.225c0-2.341-1.297-3.337-3.615-3.337c-1.346,0-2.967,0.649-3.732,1.854V20.28h-1.391V6.628l0.996-0.093
		l0.256,1.646h0.07c0.926-1.136,2.502-1.808,4.148-1.808c2.896,0,4.658,1.506,4.658,4.659v9.248H563.73z"/>
	<path d="M582.318,20.535c-1.762,0-3.338-0.672-4.219-1.877l-0.07,0.023l-0.277,1.599h-0.928V1.807l1.414-0.092v4.542l-0.023,1.854
		l0.047,0.023c0.975-1.159,2.504-1.785,4.219-1.785c3.199,0,5.238,1.762,5.238,7.069C587.719,18.634,585.748,20.535,582.318,20.535z
		 M582.109,7.671c-1.668,0-3.082,0.719-3.871,1.924v7.741c0.604,1.043,1.947,1.994,3.918,1.994c2.434,0,4.125-1.229,4.125-5.887
		C586.281,8.853,584.729,7.671,582.109,7.671z"/>
	<path d="M592.607,3.8c-0.695,0-1.088-0.232-1.088-0.974c0-0.626,0.393-0.974,1.088-0.974s1.09,0.348,1.09,0.974
		C593.697,3.499,593.303,3.8,592.607,3.8z M591.889,20.28V6.674l1.414-0.116V20.28H591.889z"/>
	<path d="M601.787,20.558c-1.623,0-3.152-0.44-4.172-1.252l0.23-1.274c0.996,0.834,2.527,1.298,3.918,1.298
		c2.316,0,3.291-1.182,3.291-2.758c0-3.662-7.371-2.086-7.371-6.606c0-2.225,1.6-3.592,4.543-3.592c1.299,0,2.504,0.255,3.594,0.788
		L605.68,8.39c-1.135-0.51-2.34-0.765-3.477-0.765c-1.947,0-3.176,0.881-3.176,2.271c0,3.407,7.348,1.715,7.348,6.536
		C606.375,18.912,604.961,20.558,601.787,20.558z"/>
	<path d="M619.332,17.499l-1.066,1.46l0.023,0.07h7.764l-0.047,1.251h-9.434v-1.02l6.652-9.851l1.066-1.483l-0.023-0.046h-7.393
		l0.045-1.275h9.041v1.043L619.332,17.499z"/>
	<path d="M639.635,15.969c0,2.874-1.646,4.589-5.076,4.589c-3.408,0-5.053-1.739-5.053-4.589V6.604h1.391v9.318
		c0,2.132,1.25,3.291,3.662,3.291c2.41,0,3.686-1.136,3.686-3.291V6.604h1.391V15.969z"/>
	<path d="M653.4,19.075h3.385V6.767l0.045-1.877l-0.045-0.023l-3.988,2.712l-0.184-1.344l4.82-3.407h0.881v16.248h3.268v1.205H653.4
		V19.075z"/>
	<path d="M671.734,20.535c-4.289,0-6.072-2.411-6.072-8.947c0-6.629,1.783-8.923,6.096-8.923c4.264,0,6.049,2.294,6.049,8.923
		C677.807,18.124,675.998,20.535,671.734,20.535z M671.758,4.055c-3.176,0-4.66,1.53-4.66,7.51c0,6.049,1.484,7.603,4.66,7.603
		c3.152,0,4.588-1.553,4.588-7.603C676.346,5.562,674.91,4.055,671.758,4.055z"/>
	<path d="M686.891,20.535c-4.287,0-6.072-2.411-6.072-8.947c0-6.629,1.785-8.923,6.096-8.923c4.266,0,6.051,2.294,6.051,8.923
		C692.965,18.124,691.156,20.535,686.891,20.535z M686.914,4.055c-3.176,0-4.658,1.53-4.658,7.51c0,6.049,1.482,7.603,4.658,7.603
		c3.152,0,4.59-1.553,4.59-7.603C691.504,5.562,690.066,4.055,686.914,4.055z"/>
	<path d="M702.049,20.535c-4.289,0-6.072-2.411-6.072-8.947c0-6.629,1.783-8.923,6.096-8.923c4.264,0,6.049,2.294,6.049,8.923
		C708.121,18.124,706.312,20.535,702.049,20.535z M702.072,4.055c-3.176,0-4.66,1.53-4.66,7.51c0,6.049,1.484,7.603,4.66,7.603
		c3.152,0,4.588-1.553,4.588-7.603C706.66,5.562,705.225,4.055,702.072,4.055z"/>
	<path d="M724.877,20.535c-1.762,0-3.338-0.672-4.217-1.877l-0.07,0.023l-0.277,1.599h-0.928V1.807l1.414-0.092v4.542l-0.023,1.854
		l0.047,0.023c0.973-1.159,2.502-1.785,4.217-1.785c3.199,0,5.238,1.762,5.238,7.069C730.277,18.634,728.309,20.535,724.877,20.535z
		 M724.67,7.671c-1.67,0-3.084,0.719-3.871,1.924v7.741c0.602,1.043,1.947,1.994,3.916,1.994c2.434,0,4.127-1.229,4.127-5.887
		C728.842,8.853,727.289,7.671,724.67,7.671z"/>
	<path d="M741.611,18.356l-0.07-0.023c-0.74,1.298-2.363,2.155-4.264,2.155c-2.48,0-4.195-1.229-4.195-4.288
		c0-2.596,1.6-4.08,4.936-4.08c1.229,0,2.48,0.255,3.408,0.603v-1.692c0-2.596-1.09-3.43-3.5-3.43c-1.414,0-2.689,0.255-3.871,0.857
		l-0.162-1.229c1.299-0.603,2.689-0.904,4.266-0.904c3.338,0,4.682,1.367,4.682,4.914v9.04h-1.066L741.611,18.356z M741.426,13.836
		c-0.348-0.255-1.553-0.649-3.199-0.649c-2.643,0-3.801,1.089-3.801,2.99c0,2.318,1.391,3.106,3.223,3.106
		c1.992,0,3.777-1.391,3.777-2.712V13.836z"/>
	<path d="M746.965,20.28V6.674l1.137-0.093l0.045,1.53l0.047,1.877h0.047c0.787-2.132,2.387-3.569,4.449-3.569
		c0.465,0,0.904,0.046,1.299,0.162l-0.115,1.46c-0.395-0.139-0.812-0.185-1.252-0.185c-2.318,0-4.266,2.132-4.266,5.447v6.977
		H746.965z"/>
	<path d="M755.889,20.512c-0.742,0-1.113-0.301-1.113-1.089c0-0.695,0.371-1.066,1.113-1.066c0.717,0,1.064,0.371,1.064,1.066
		S756.605,20.512,755.889,20.512z"/>
</g>
</svg>
