<?xml version="1.0" encoding="utf-8"?>
<!-- Generator: Adobe Illustrator 23.1.1, SVG Export Plug-In . SVG Version: 6.00 Build 0)  -->
<!DOCTYPE svg PUBLIC "-//W3C//DTD SVG 1.1//EN" "http://www.w3.org/Graphics/SVG/1.1/DTD/svg11.dtd" [
	<!ENTITY ns_extend "http://ns.adobe.com/Extensibility/1.0/">
	<!ENTITY ns_ai "http://ns.adobe.com/AdobeIllustrator/10.0/">
	<!ENTITY ns_graphs "http://ns.adobe.com/Graphs/1.0/">
	<!ENTITY ns_vars "http://ns.adobe.com/Variables/1.0/">
	<!ENTITY ns_imrep "http://ns.adobe.com/ImageReplacement/1.0/">
	<!ENTITY ns_sfw "http://ns.adobe.com/SaveForWeb/1.0/">
	<!ENTITY ns_custom "http://ns.adobe.com/GenericCustomNamespace/1.0/">
	<!ENTITY ns_adobe_xpath "http://ns.adobe.com/XPath/1.0/">
]>
<svg version="1.1" id="Ebene_1" xmlns:x="&ns_extend;" xmlns:i="&ns_ai;" xmlns:graph="&ns_graphs;"
	 xmlns="http://www.w3.org/2000/svg" xmlns:xlink="http://www.w3.org/1999/xlink" x="0px" y="0px" viewBox="0 0 76 11.4"
	 style="enable-background:new 0 0 76 11.4;" xml:space="preserve">
<style type="text/css">
	.st0{fill-rule:evenodd;clip-rule:evenodd;fill:#FEFEFE;}
</style>
<metadata>
	<sfw  xmlns="&ns_sfw;">
		<slices></slices>
		<sliceSourceBounds  bottomLeftOrigin="true" height="6.59" width="70.75" x="-15.48" y="-9.01"></sliceSourceBounds>
	</sfw>
</metadata>
<path class="st0" d="M72.54,8.89l-1.9-2.94l-0.36-0.59l-0.02,0.01l0.01,0.69v2.83h-1.46V2.51h1.4l2.05,3.31l0.02-0.01l-0.02-0.68
	l0.01-2.62h1.46v6.38C73.73,8.89,72.54,8.89,72.54,8.89z M67.95,7.46L67.91,8.9h-4.1V2.51h4l0.04,1.46h-2.37v0.99h1.96v1.33h-1.96
	v1.16h2.47V7.46z M62.93,7.41l-0.02,1.48h-4.35V7.81l2.03-3.24l0.37-0.56V4h-2.35l0.04-1.49h4.26V3.7l-1.96,3.13l-0.37,0.55
	l0.01,0.02C60.59,7.41,62.93,7.41,62.93,7.41z M56.62,8.89h-1.69V4h-1.45l0.04-1.49h4.52L58.08,4h-1.44L56.62,8.89L56.62,8.89z
	 M50.98,2.51h1.71v6.38h-1.71V2.51z M47.82,9c-0.67,0-1.33-0.15-1.85-0.44l0.21-1.41c0.52,0.26,1.05,0.43,1.6,0.43
	c0.53,0,0.73-0.18,0.73-0.52c0-0.82-2.53-0.56-2.53-2.64c0-1.11,0.68-2,2.26-2c0.59,0,1.22,0.11,1.68,0.31L49.71,4.1
	c-0.48-0.15-0.97-0.23-1.38-0.23c-0.63,0-0.77,0.19-0.77,0.46c0,0.83,2.53,0.54,2.53,2.63C50.1,8.22,49.25,9,47.82,9z M43.03,5.12
	h1.95l-0.01,1.41h-1.94v2.36h-1.67V2.51h3.99L45.37,4h-2.35L43.03,5.12L43.03,5.12z M37.91,9c-1.63,0-2.46-0.78-2.46-2.28V2.51h1.67
	v4.18c0,0.57,0.22,0.83,0.79,0.83c0.58,0,0.78-0.24,0.78-0.83V2.51h1.66v4.21C40.34,8.22,39.54,9,37.91,9z M33.03,7.78h-1.74
	l-0.25,1.11h-1.76l1.89-6.38h2.03l1.92,6.38h-1.85L33.03,7.78z M32.32,4.56l-0.13-0.68h-0.02l-0.15,0.68l-0.41,1.83h1.11L32.32,4.56
	z M25.44,8.89h-1.69V4h-1.44l0.04-1.49h4.52L26.91,4h-1.45L25.44,8.89L25.44,8.89z M21.77,7.41l-0.02,1.48H17.4V7.81l2.03-3.24
	l0.37-0.56l0-0.01h-2.35l0.04-1.49h4.26V3.7l-1.96,3.13l-0.38,0.56l0.01,0.02H21.77z M15.46,8.89h-1.69V4h-1.46l0.04-1.49h4.52
	L16.91,4h-1.44L15.46,8.89L15.46,8.89z M11.82,7.46L11.78,8.9H7.67V2.51h4l0.04,1.46H9.34v0.99h1.96v1.33H9.34v1.16h2.48V7.46z
	 M4.15,9.01c-0.48,0-0.86-0.09-1.17-0.22L3.07,7.4c0.18,0.09,0.46,0.15,0.79,0.15c0.7,0,1.04-0.27,1.04-1.04v-4h1.7v4.04
	C6.6,8.43,5.65,9.01,4.15,9.01z"/>
</svg>
