<?xml version="1.0" encoding="utf-8"?>
<!-- Generator: Adobe Illustrator 23.1.1, SVG Export Plug-In . SVG Version: 6.00 Build 0)  -->
<!DOCTYPE svg PUBLIC "-//W3C//DTD SVG 1.1//EN" "http://www.w3.org/Graphics/SVG/1.1/DTD/svg11.dtd" [
	<!ENTITY ns_extend "http://ns.adobe.com/Extensibility/1.0/">
	<!ENTITY ns_ai "http://ns.adobe.com/AdobeIllustrator/10.0/">
	<!ENTITY ns_graphs "http://ns.adobe.com/Graphs/1.0/">
	<!ENTITY ns_vars "http://ns.adobe.com/Variables/1.0/">
	<!ENTITY ns_imrep "http://ns.adobe.com/ImageReplacement/1.0/">
	<!ENTITY ns_sfw "http://ns.adobe.com/SaveForWeb/1.0/">
	<!ENTITY ns_custom "http://ns.adobe.com/GenericCustomNamespace/1.0/">
	<!ENTITY ns_adobe_xpath "http://ns.adobe.com/XPath/1.0/">
]>
<svg version="1.1" id="Ebene_1" xmlns:x="&ns_extend;" xmlns:i="&ns_ai;" xmlns:graph="&ns_graphs;"
	 xmlns="http://www.w3.org/2000/svg" xmlns:xlink="http://www.w3.org/1999/xlink" x="0px" y="0px" viewBox="0 0 57.54 34.02"
	 style="enable-background:new 0 0 57.54 34.02;" xml:space="preserve">
<style type="text/css">
	.st0{fill-rule:evenodd;clip-rule:evenodd;fill:#020204;}
</style>
<metadata>
	<sfw  xmlns="&ns_sfw;">
		<slices></slices>
		<sliceSourceBounds  bottomLeftOrigin="true" height="30.89" width="54.26" x="1.13" y="-32.18"></sliceSourceBounds>
	</sfw>
</metadata>
<path class="st0" d="M53.21,21.38v-1.01h2.18v1.01H53.21z M48.33,20.87c0-2.05,0.8-3.03,2.69-3.03c0.51,0,1.1,0.09,1.52,0.26
	l-0.14,1.3c-0.38-0.14-0.88-0.23-1.3-0.23c-0.96,0-1.18,0.36-1.18,1.68c0,1.39,0.23,1.7,0.99,1.7c0.12,0,0.24-0.01,0.35-0.03V20.6
	h1.36v2.99c-0.41,0.19-1.07,0.32-1.67,0.32C49.01,23.91,48.33,22.87,48.33,20.87z M45.51,23.9c-1.51,0-2.26-0.72-2.26-2.09v-3.86
	h1.53v3.84c0,0.52,0.2,0.76,0.73,0.76c0.53,0,0.71-0.22,0.71-0.76v-3.84h1.52v3.86C47.74,23.18,47,23.9,45.51,23.9z M41.22,22.77
	h-1.6l-0.23,1.02h-1.62l1.73-5.86h1.87l1.76,5.86h-1.69L41.22,22.77z M40.56,19.82l-0.12-0.63h-0.03l-0.13,0.63l-0.38,1.68h1.02
	L40.56,19.82z M37.8,22.02c0,1.15-0.79,1.87-2.1,1.87c-0.62,0-1.23-0.14-1.7-0.41l0.19-1.3c0.48,0.24,0.96,0.39,1.47,0.39
	c0.49,0,0.67-0.17,0.67-0.48c0-0.75-2.33-0.51-2.33-2.43c0-1.02,0.63-1.84,2.07-1.84c0.54,0,1.12,0.1,1.54,0.28l-0.17,1.27
	c-0.44-0.13-0.89-0.21-1.26-0.21c-0.58,0-0.7,0.17-0.7,0.43C35.47,20.36,37.8,20.11,37.8,22.02z M32.02,23.79l-0.79-2.09h-0.51v2.09
	H29.2v-5.86h2.02c1.49,0,2.22,0.56,2.22,1.88c0,0.79-0.28,1.36-0.79,1.58l1.14,2.4C33.78,23.79,32.02,23.79,32.02,23.79z
	 M31.26,19.2h-0.53v1.35h0.52c0.44,0,0.6-0.11,0.6-0.68C31.84,19.34,31.7,19.2,31.26,19.2z M31.18,12.08h2.18v1.01h-2.18V12.08z
	 M30.86,14.17l-0.03,1.36h-4v-1l1.87-2.97l0.34-0.51l-0.01-0.02h-2.16l0.04-1.36h3.91v1.1l-1.81,2.88l-0.34,0.51l0.01,0.03
	L30.86,14.17L30.86,14.17z M29.4,5.93l-0.03,1.32h-3.77V1.39h3.67l0.03,1.35h-2.18v0.9h1.8v1.23h-1.8v1.06H29.4z M23.44,7.24
	l-0.79-2.09h-0.51v2.09h-1.53V1.38h2.02c1.49,0,2.22,0.56,2.22,1.88c0,0.79-0.28,1.36-0.79,1.58l1.14,2.4
	C25.21,7.24,23.44,7.24,23.44,7.24z M22.67,2.65h-0.53V4h0.52c0.44,0,0.6-0.11,0.6-0.68C23.27,2.79,23.12,2.65,22.67,2.65z
	 M21.85,15.52h-1.57V9.66h1.57V15.52z M20.04,5.93l-0.03,1.32h-3.77V1.39h3.67l0.03,1.35h-2.18v0.9h1.8v1.23h-1.8v1.06H20.04z
	 M15.87,11.41c0-1.02,0.63-1.84,2.07-1.84c0.54,0,1.12,0.1,1.54,0.28l-0.17,1.27c-0.44-0.13-0.89-0.21-1.26-0.21
	c-0.58,0-0.7,0.17-0.7,0.43c0,0.76,2.33,0.5,2.33,2.42c0,1.15-0.79,1.87-2.1,1.87c-0.62,0-1.23-0.14-1.7-0.41l0.19-1.3
	c0.48,0.24,0.96,0.39,1.47,0.39c0.49,0,0.67-0.17,0.67-0.48C18.2,13.08,15.87,13.32,15.87,11.41z M15.68,5.48
	c0,1.15-0.79,1.87-2.1,1.87c-0.62,0-1.23-0.14-1.7-0.41l0.19-1.3c0.48,0.24,0.96,0.39,1.47,0.39c0.49,0,0.67-0.17,0.67-0.48
	c0-0.75-2.33-0.51-2.33-2.43c0-1.02,0.63-1.84,2.07-1.84c0.54,0,1.12,0.1,1.54,0.28l-0.17,1.27c-0.44-0.13-0.89-0.21-1.26-0.21
	c-0.58,0-0.7,0.17-0.7,0.43C13.36,3.81,15.68,3.56,15.68,5.48z M15.53,11.03h-2.16v1.03h1.79l-0.01,1.3h-1.78v2.17h-1.53V9.66h3.66
	L15.53,11.03z M12.91,17.94h1.53v5.86h-1.53v-2.3h-1.42v2.3H9.96v-5.86h1.52v2.19h1.42V17.94z M8.41,4.54L8.08,4.01L8.06,4.01
	l0.01,0.64v2.6H6.73V1.39h1.28l1.88,3.04l0.02-0.01L9.89,3.79L9.9,1.38h1.35v5.86h-1.09L8.41,4.54z M8.14,13.5
	c0,0.52,0.2,0.76,0.73,0.76c0.53,0,0.71-0.22,0.71-0.76V9.66h1.52v3.86c0,1.37-0.74,2.09-2.23,2.09s-2.26-0.72-2.26-2.09V9.66h1.53
	V13.5L8.14,13.5z M4.58,14.5h-1.6l-0.23,1.02H1.13l1.73-5.86h1.87l1.76,5.86H4.81L4.58,14.5z M3.92,11.54l-0.12-0.63H3.78
	l-0.13,0.63l-0.38,1.68h1.02L3.92,11.54z M3.76,7.35c-1.51,0-2.26-0.72-2.26-2.09V1.4h1.53v3.84C3.03,5.75,3.23,6,3.76,6
	s0.71-0.22,0.71-0.76V1.4h1.52v3.86C6,6.63,5.25,7.35,3.76,7.35z M3.04,22.58c0.49,0,0.67-0.17,0.67-0.48
	c0-0.75-2.33-0.51-2.33-2.43c0-1.02,0.63-1.84,2.07-1.84c0.54,0,1.12,0.1,1.54,0.28l-0.17,1.27c-0.44-0.13-0.89-0.21-1.26-0.21
	c-0.58,0-0.7,0.17-0.7,0.43c0,0.76,2.33,0.5,2.33,2.42c0,1.15-0.79,1.87-2.1,1.87c-0.62,0-1.23-0.14-1.7-0.41l0.19-1.3
	C2.06,22.44,2.53,22.58,3.04,22.58z M4.27,29.17l0.19,0.6h0.03l0.19-0.59l1.05-2.97h1.69v5.86h-1.4v-2.46l0.02-0.64l-0.03-0.01
	l-0.19,0.61l-0.86,2.48h-1L3.1,29.59L2.9,28.98l-0.02,0.01l0.01,0.64v2.44H1.56V26.2h1.68L4.27,29.17z M8.29,22.57
	c0.36,0,0.69-0.07,0.97-0.19l0.14,1.25c-0.35,0.17-0.88,0.28-1.34,0.28c-1.67,0-2.48-0.95-2.48-3.06c0-1.97,0.79-3,2.58-3
	c0.41,0,0.92,0.09,1.24,0.22l-0.15,1.3c-0.26-0.09-0.61-0.16-0.98-0.16c-0.86,0-1.09,0.37-1.09,1.65
	C7.18,22.2,7.42,22.57,8.29,22.57z M11.4,26.21l1.76,5.86h-1.7l-0.23-1.02H9.65l-0.23,1.02H7.8l1.73-5.86
	C9.54,26.21,11.4,26.21,11.4,26.21z M10.96,29.77l-0.38-1.68l-0.12-0.63h-0.03l-0.13,0.63l-0.38,1.68H10.96z M15.06,30.86
	c0.49,0,0.67-0.17,0.67-0.48c0-0.75-2.33-0.51-2.33-2.43c0-1.02,0.63-1.84,2.07-1.84c0.54,0,1.12,0.1,1.54,0.28l-0.17,1.27
	c-0.44-0.13-0.89-0.21-1.26-0.21c-0.58,0-0.7,0.17-0.7,0.43c0,0.76,2.33,0.5,2.33,2.42c0,1.15-0.79,1.87-2.1,1.87
	c-0.62,0-1.23-0.14-1.7-0.41l0.19-1.3C14.08,30.71,14.55,30.86,15.06,30.86z M19.04,22.47L19,23.79h-3.77v-5.86h3.67l0.03,1.35
	h-2.18v0.9h1.8v1.23h-1.8v1.06C16.75,22.47,19.04,22.47,19.04,22.47z M20.17,26.1c0.41,0,0.92,0.09,1.24,0.22l-0.15,1.3
	c-0.26-0.09-0.61-0.16-0.98-0.16c-0.86,0-1.09,0.37-1.09,1.65c0,1.35,0.24,1.72,1.11,1.72c0.36,0,0.69-0.07,0.97-0.19l0.13,1.24
	c-0.35,0.17-0.88,0.28-1.34,0.28c-1.67,0-2.48-0.95-2.48-3.06C17.6,27.14,18.39,26.1,20.17,26.1z M19.57,21.8v-3.86h1.53v3.84
	c0,0.52,0.2,0.76,0.73,0.76c0.53,0,0.71-0.22,0.71-0.76v-3.84h1.52v3.86c0,1.37-0.74,2.09-2.23,2.09
	C20.32,23.9,19.57,23.18,19.57,21.8z M23.5,28.41h1.42v-2.19h1.53v5.86h-1.53v-2.3H23.5v2.3h-1.52v-5.86h1.52V28.41z M23.71,15.52
	v-4.49h-1.33l0.03-1.36h4.15l0.03,1.36h-1.33v4.49C25.27,15.52,23.71,15.52,23.71,15.52z M28.61,22.47l-0.03,1.32H24.8v-5.86h3.67
	l0.03,1.35h-2.18v0.9h1.8v1.23h-1.8v1.06C26.33,22.47,28.61,22.47,28.61,22.47z M28.88,32.07h-1.57v-5.86h1.57
	C28.88,26.21,28.88,32.07,28.88,32.07z M32.9,29.26l0.02-0.01l-0.02-0.63l0.01-2.41h1.35v5.86h-1.09l-1.75-2.7l-0.33-0.54
	l-0.02,0.01v0.63v2.6h-1.34v-5.86h1.28L32.9,29.26z M38.76,27.56h-2.18v0.9h1.8v1.23h-1.8v1.06h2.28l-0.03,1.32h-3.77v-5.86h3.67
	L38.76,27.56z M42.61,29.26l0.02-0.01l-0.02-0.63l0.01-2.41h1.35v5.86h-1.09l-1.75-2.7l-0.33-0.54l-0.02,0.01l0.01,0.64v2.6h-1.35
	v-5.86h1.28L42.61,29.26z M45.38,30.67c0.54,0,0.79,0.28,0.79,0.75c0,0.44-0.23,0.74-0.79,0.74c-0.54,0-0.79-0.21-0.79-0.74
	C44.6,30.94,44.84,30.67,45.38,30.67z"/>
</svg>
