<?xml version="1.0" encoding="utf-8"?>
<!-- Generator: Adobe Illustrator 23.1.1, SVG Export Plug-In . SVG Version: 6.00 Build 0)  -->
<!DOCTYPE svg PUBLIC "-//W3C//DTD SVG 1.1//EN" "http://www.w3.org/Graphics/SVG/1.1/DTD/svg11.dtd" [
	<!ENTITY ns_extend "http://ns.adobe.com/Extensibility/1.0/">
	<!ENTITY ns_ai "http://ns.adobe.com/AdobeIllustrator/10.0/">
	<!ENTITY ns_graphs "http://ns.adobe.com/Graphs/1.0/">
	<!ENTITY ns_vars "http://ns.adobe.com/Variables/1.0/">
	<!ENTITY ns_imrep "http://ns.adobe.com/ImageReplacement/1.0/">
	<!ENTITY ns_sfw "http://ns.adobe.com/SaveForWeb/1.0/">
	<!ENTITY ns_custom "http://ns.adobe.com/GenericCustomNamespace/1.0/">
	<!ENTITY ns_adobe_xpath "http://ns.adobe.com/XPath/1.0/">
]>
<svg version="1.1" id="Ebene_1" xmlns:x="&ns_extend;" xmlns:i="&ns_ai;" xmlns:graph="&ns_graphs;"
	 xmlns="http://www.w3.org/2000/svg" xmlns:xlink="http://www.w3.org/1999/xlink" x="0px" y="0px" viewBox="0 0 34.02 34.02"
	 style="enable-background:new 0 0 34.02 34.02;" xml:space="preserve">
<style type="text/css">
	.st0{fill-rule:evenodd;clip-rule:evenodd;fill:#020204;}
</style>
<metadata>
	<sfw  xmlns="&ns_sfw;">
		<slices></slices>
		<sliceSourceBounds  bottomLeftOrigin="true" height="26.85" width="31.08" x="2.09" y="-29.3"></sliceSourceBounds>
	</sfw>
</metadata>
<path class="st0" d="M32.49,26.63c-0.48,0-0.69-0.19-0.69-0.64c0-0.41,0.21-0.65,0.69-0.65s0.68,0.24,0.68,0.65
	C33.17,26.37,32.98,26.63,32.49,26.63z M28.79,26.85l-0.28-0.47l-0.01,0.01l0.01,0.55v2.27h-1.16v-5.09h1.11l1.63,2.64l0.01-0.01
	l-0.01-0.55l0.01-2.09h1.16v5.09h-0.94L28.79,26.85z M27.37,12.46L27.09,12l-0.01,0.01l0.01,0.55v2.27h-1.16V9.72h1.11l1.63,2.64
	l0.01-0.01l-0.01-0.55l0.01-2.09h1.16v5.09H28.9L27.37,12.46z M25.8,6.48l-0.03,1.15h-3.28V2.53h3.19l0.03,1.16h-1.89v0.78h1.56
	v1.07h-1.56v0.93L25.8,6.48L25.8,6.48z M25.31,10.9h-1.89v0.78h1.56v1.07h-1.56v0.93h1.98l-0.03,1.15H22.1V9.72h3.19L25.31,10.9z
	 M22.02,6.08c0,1-0.68,1.63-1.82,1.63c-0.53,0-1.07-0.11-1.48-0.35l0.17-1.13c0.41,0.21,0.84,0.34,1.27,0.34
	c0.42,0,0.58-0.14,0.58-0.41c0-0.65-2.03-0.45-2.03-2.11c0-0.89,0.55-1.6,1.8-1.6c0.47,0,0.97,0.09,1.34,0.25l-0.15,1.11
	c-0.39-0.11-0.78-0.19-1.1-0.19c-0.5,0-0.61,0.15-0.61,0.37C19.99,4.65,22.02,4.43,22.02,6.08z M18.46,6.08c0,1-0.68,1.63-1.82,1.63
	c-0.54,0-1.07-0.11-1.48-0.35l0.17-1.13c0.41,0.21,0.84,0.34,1.27,0.34c0.42,0,0.58-0.14,0.58-0.41c0-0.65-2.03-0.45-2.03-2.11
	c0-0.89,0.55-1.6,1.8-1.6c0.47,0,0.97,0.09,1.34,0.25l-0.15,1.11c-0.38-0.13-0.77-0.2-1.09-0.2c-0.51,0-0.62,0.16-0.62,0.37
	C16.45,4.65,18.46,4.43,18.46,6.08z M12.66,7.71c-1.46,0-2.13-0.78-2.13-2.64c0-1.87,0.64-2.63,2.13-2.63s2.13,0.77,2.13,2.63
	C14.79,6.99,14.15,7.71,12.66,7.71z M12.64,3.64c-0.56,0-0.73,0.23-0.73,1.45s0.19,1.46,0.75,1.46c0.56,0,0.73-0.25,0.73-1.46
	C13.39,3.86,13.22,3.64,12.64,3.64z M8.88,7.63L8.21,5.8H7.76v1.82H6.43V2.53H8.2c1.29,0,1.93,0.49,1.93,1.63
	c0,0.68-0.25,1.18-0.7,1.37l0.99,2.08C10.42,7.63,8.88,7.63,8.88,7.63z M8.22,3.63H7.76v1.17h0.46c0.39,0,0.53-0.1,0.53-0.59
	C8.73,3.76,8.61,3.63,8.22,3.63z M7.22,13.63h1.73l-0.04,1.18H5.87V9.71h1.34L7.22,13.63L7.22,13.63z M2.1,5.08
	c0-1.78,0.7-2.64,2.34-2.64c0.45,0,0.95,0.08,1.32,0.23L5.65,3.81C5.31,3.7,4.88,3.62,4.52,3.62c-0.84,0-1.02,0.31-1.02,1.46
	c0,1.21,0.19,1.47,0.85,1.47c0.11,0,0.21-0.01,0.31-0.03V4.85h1.18v2.6C5.49,7.62,4.92,7.72,4.39,7.72C2.7,7.72,2.1,6.82,2.1,5.08z
	 M4.34,16.83c0.35,0,0.8,0.08,1.08,0.19l-0.13,1.13c-0.23-0.08-0.53-0.13-0.85-0.13c-0.75,0-0.94,0.32-0.94,1.43
	c0,1.17,0.21,1.5,0.96,1.5c0.31,0,0.61-0.06,0.85-0.17l0.11,1.08c-0.31,0.15-0.77,0.25-1.16,0.25c-1.45,0-2.16-0.83-2.16-2.66
	C2.1,17.72,2.79,16.83,4.34,16.83z M2.23,14.82V9.72h3.18l0.03,1.19H3.57v0.89h1.55l-0.01,1.13H3.57v1.89H2.23L2.23,14.82z
	 M5.92,25.74c0,0.68-0.25,1.18-0.7,1.37l0.99,2.08H4.68L4,27.37H3.56v1.82H2.24V24.1H4C5.28,24.1,5.92,24.59,5.92,25.74z
	 M3.56,26.37h0.46c0.39,0,0.53-0.1,0.53-0.59c0-0.46-0.13-0.58-0.51-0.58H3.57L3.56,26.37L3.56,26.37z M5.91,16.92h1.34v3.9h1.73
	L8.94,22H5.9C5.91,22.01,5.91,16.92,5.91,16.92z M9.77,25.27H7.87v0.78h1.56v1.07H7.87v0.93h1.98l-0.03,1.15H6.55V24.1h3.19
	L9.77,25.27z M11.78,29.19h-1.37V24.1h1.37V29.19z M15.29,26.74L15.29,26.74v-0.56l0.01-2.09h1.16v5.09h-0.94L14,26.85l-0.28-0.47
	l-0.01,0.01l0.01,0.55v2.27h-1.16v-5.09h1.11L15.29,26.74z M12.72,20.85L12.69,22H9.41v-5.09h3.19l0.03,1.16h-1.89v0.78h1.56v1.07
	h-1.56v0.93L12.72,20.85L12.72,20.85z M10.19,9.02c0-0.31,0.17-0.47,0.5-0.47c0.34,0,0.5,0.17,0.5,0.47c0,0.3-0.15,0.46-0.5,0.46
	C10.36,9.48,10.19,9.35,10.19,9.02z M11.48,9.02c0-0.31,0.17-0.47,0.49-0.47c0.34,0,0.5,0.17,0.5,0.47c0,0.3-0.15,0.46-0.5,0.46
	C11.66,9.48,11.48,9.35,11.48,9.02z M12.22,14.82l-0.19-0.89h-1.38l-0.19,0.89H9.03l1.51-5.09h1.62l1.53,5.09H12.22z M11.45,11.35
	l-0.11-0.55h-0.03l-0.11,0.55l-0.33,1.46h0.89L11.45,11.35z M15.87,22.01h-1.52l-1.5-5.09h1.46l0.71,3.18l0.11,0.54h0.03l0.11-0.54
	l0.73-3.18h1.37L15.87,22.01z M16.07,13.75c0.31,0,0.61-0.06,0.85-0.17l0.11,1.08c-0.31,0.15-0.77,0.25-1.16,0.25
	c-1.45,0-2.16-0.83-2.16-2.66c0-1.71,0.69-2.61,2.24-2.61c0.35,0,0.8,0.08,1.08,0.19l-0.13,1.13c-0.23-0.08-0.53-0.13-0.85-0.13
	c-0.75,0-0.94,0.32-0.94,1.43C15.1,13.43,15.31,13.75,16.07,13.75z M18.57,29.19H17.2V24.1h1.37V29.19L18.57,29.19z M21.01,20.85
	L20.98,22h-3.28v-5.09h3.19l0.03,1.16h-1.89v0.78h1.56v1.07h-1.56v0.93C19.04,20.85,21.01,20.85,21.01,20.85z M21.41,9.72v5.09
	h-1.33v-2h-1.23v2h-1.32V9.72h1.32v1.9h1.23v-1.9H21.41z M21.52,24.01c0.45,0,0.95,0.08,1.32,0.23l-0.11,1.14
	c-0.33-0.11-0.77-0.19-1.13-0.19c-0.84,0-1.02,0.31-1.02,1.46c0,1.21,0.19,1.47,0.85,1.47c0.11,0,0.21-0.01,0.31-0.03v-1.67h1.18
	v2.6c-0.35,0.17-0.93,0.27-1.45,0.27c-1.68,0-2.28-0.91-2.28-2.64C19.18,24.87,19.88,24.01,21.52,24.01z M22.84,22.01h-1.32v-5.09
	h1.76c1.29,0,1.93,0.49,1.93,1.63c0,0.68-0.25,1.18-0.7,1.37L25.51,22h-1.54l-0.68-1.82h-0.45C22.84,20.18,22.84,22.01,22.84,22.01z
	 M23.3,19.19c0.39,0,0.53-0.1,0.53-0.59c0-0.46-0.13-0.58-0.51-0.58h-0.46v1.17H23.3L23.3,19.19z M26.74,25.27h-1.89v0.78h1.56v1.07
	h-1.56v0.93h1.98l-0.03,1.15h-3.28V24.1h3.19L26.74,25.27z M32.49,27.98c0.48,0,0.68,0.24,0.68,0.65c0,0.39-0.2,0.64-0.68,0.64
	s-0.69-0.19-0.69-0.64C31.81,28.21,32.02,27.98,32.49,27.98z"/>
</svg>
