<?xml version="1.0" encoding="utf-8"?>
<!-- Generator: Adobe Illustrator 23.1.1, SVG Export Plug-In . SVG Version: 6.00 Build 0)  -->
<!DOCTYPE svg PUBLIC "-//W3C//DTD SVG 1.1//EN" "http://www.w3.org/Graphics/SVG/1.1/DTD/svg11.dtd" [
	<!ENTITY ns_extend "http://ns.adobe.com/Extensibility/1.0/">
	<!ENTITY ns_ai "http://ns.adobe.com/AdobeIllustrator/10.0/">
	<!ENTITY ns_graphs "http://ns.adobe.com/Graphs/1.0/">
	<!ENTITY ns_vars "http://ns.adobe.com/Variables/1.0/">
	<!ENTITY ns_imrep "http://ns.adobe.com/ImageReplacement/1.0/">
	<!ENTITY ns_sfw "http://ns.adobe.com/SaveForWeb/1.0/">
	<!ENTITY ns_custom "http://ns.adobe.com/GenericCustomNamespace/1.0/">
	<!ENTITY ns_adobe_xpath "http://ns.adobe.com/XPath/1.0/">
]>
<svg version="1.1" id="Ebene_1" xmlns:x="&ns_extend;" xmlns:i="&ns_ai;" xmlns:graph="&ns_graphs;"
	 xmlns="http://www.w3.org/2000/svg" xmlns:xlink="http://www.w3.org/1999/xlink" x="0px" y="0px" viewBox="0 0 57.54 34.02"
	 style="enable-background:new 0 0 57.54 34.02;" xml:space="preserve">
<style type="text/css">
	.st0{fill-rule:evenodd;clip-rule:evenodd;fill:#020204;}
</style>
<metadata>
	<sfw  xmlns="&ns_sfw;">
		<slices></slices>
		<sliceSourceBounds  bottomLeftOrigin="true" height="11.31" width="45.73" x="9.08" y="-22.51"></sliceSourceBounds>
	</sfw>
</metadata>
<path class="st0" d="M53.59,22.51l-0.8-0.2l0.3-1.46c-0.35-0.19-0.74-0.6-0.74-1.11c0-0.67,0.34-1.21,1.21-1.21
	c0.85,0,1.25,0.51,1.25,1.29C54.82,20.55,54.18,21.8,53.59,22.51z M46.81,16.4l-0.53-0.86l-0.02,0.01l0.01,1.01v4.16h-2.15v-9.37
	h2.05l3.01,4.86l0.02-0.01l-0.02-1l0.01-3.85h2.15v9.38H49.6L46.81,16.4z M43.18,18.61l-0.05,2.11H37.1v-9.37h5.87l0.05,2.15h-3.49
	v1.45h2.87v1.97h-2.87v1.7C39.53,18.61,43.18,18.61,43.18,18.61z M36.11,18.55l-0.04,2.18h-6.38v-1.59l2.99-4.75l0.55-0.82
	l-0.01-0.02h-3.45l0.06-2.19h6.26v1.75l-2.89,4.6l-0.55,0.81l0.01,0.04C32.67,18.55,36.11,18.55,36.11,18.55z M27.15,20.73h-2.49
	v-7.19h-2.12l0.05-2.19h6.63l0.05,2.19h-2.13v7.19H27.15z M22.13,18.61l-0.05,2.11h-6.04v-9.37h5.87l0.05,2.15h-3.49v1.45h2.87v1.97
	h-2.87v1.7h3.66V18.61z M11.81,20.89c-0.99,0-1.96-0.22-2.73-0.65l0.31-2.07c0.76,0.39,1.54,0.62,2.35,0.62
	c0.78,0,1.07-0.26,1.07-0.76c0-1.2-3.73-0.83-3.73-3.89c0-1.63,1-2.94,3.31-2.94c0.86,0,1.79,0.17,2.46,0.45l-0.27,2.03
	c-0.71-0.21-1.42-0.34-2.02-0.34c-0.93,0-1.13,0.27-1.13,0.67c0,1.21,3.73,0.8,3.73,3.86C15.17,19.74,13.91,20.89,11.81,20.89z"/>
</svg>
