<?xml version="1.0" encoding="utf-8"?>
<!-- Generator: Adobe Illustrator 16.0.0, SVG Export Plug-In . SVG Version: 6.00 Build 0)  -->
<!DOCTYPE svg PUBLIC "-//W3C//DTD SVG 1.0//EN" "http://www.w3.org/TR/2001/REC-SVG-20010904/DTD/svg10.dtd">
<svg version="1.0" id="Ebene_1" xmlns="http://www.w3.org/2000/svg" xmlns:xlink="http://www.w3.org/1999/xlink" x="0px" y="0px"
	 width="338.304px" height="91.384px" viewBox="0 0 338.304 91.384" enable-background="new 0 0 338.304 91.384"
	 xml:space="preserve">
<g>
	<path d="M14.154,20.054l-0.074,1.528H2.737V3.089h10.898l0.074,1.528H4.34v6.584h8.112v1.381H4.34v7.472H14.154z"/>
	<path d="M22.64,14.949l-4.192,6.633h-1.775l4.981-7.397l-4.858-7.15h1.825l4.118,6.361l4.069-6.361h1.75l-4.759,7.102l4.932,7.446
		h-1.849L22.64,14.949z"/>
	<path d="M34.727,8.242v9.839c0,1.75,0.913,2.44,2.367,2.44c0.419,0,0.937-0.073,1.233-0.197l0.123,1.184
		c-0.395,0.173-1.109,0.296-1.75,0.296c-2.269,0-3.477-1.184-3.477-3.674V8.242h-2.269V7.034h2.293l0.296-3.822l1.184-0.148v3.971
		h3.822v1.208H34.727z"/>
	<path d="M41.88,21.582V7.107l1.208-0.099l0.049,1.628l0.049,1.997h0.049c0.838-2.269,2.54-3.797,4.734-3.797
		c0.493,0,0.962,0.049,1.381,0.172l-0.123,1.554c-0.419-0.147-0.863-0.197-1.332-0.197c-2.466,0-4.537,2.269-4.537,5.795v7.422
		H41.88z"/>
	<path d="M51.352,13.814c0-4.562,1.948-7.027,5.795-7.027c3.279,0,5.573,1.997,5.573,6.707c0,0.222-0.025,0.542-0.049,0.739h-9.789
		c0.074,4.661,1.627,6.239,5.104,6.239c1.529,0,2.787-0.37,4.019-1.036l0.197,1.307c-1.257,0.716-2.663,1.135-4.364,1.135
		C53.201,21.878,51.352,19.437,51.352,13.814z M61.338,13.174c-0.049-3.675-1.775-5.056-4.192-5.056
		c-2.86,0-4.143,1.702-4.291,5.056H61.338z"/>
	<path d="M83.066,21.582v-9.888c0-2.367-1.356-3.452-3.526-3.452c-1.727,0-3.305,1.06-3.305,3.132v10.208h-1.479V11.374
		c0-2.27-1.504-3.132-3.304-3.132c-1.381,0-2.86,0.765-3.551,1.948v11.392h-1.479V7.059l1.06-0.099l0.296,1.775h0.074
		c0.814-1.159,2.269-1.898,3.847-1.898c2.096,0,3.428,0.813,4.02,2.416h0.074c0.666-1.603,2.194-2.441,4.093-2.441
		c2.762,0,4.661,1.529,4.661,4.857v9.913H83.066z"/>
	<path d="M88.028,13.814c0-4.562,1.948-7.027,5.795-7.027c3.279,0,5.573,1.997,5.573,6.707c0,0.222-0.025,0.542-0.049,0.739h-9.789
		c0.074,4.661,1.627,6.239,5.104,6.239c1.529,0,2.787-0.37,4.019-1.036l0.197,1.307c-1.257,0.716-2.663,1.135-4.364,1.135
		C89.878,21.878,88.028,19.437,88.028,13.814z M98.015,13.174c-0.049-3.675-1.775-5.056-4.192-5.056
		c-2.86,0-4.143,1.702-4.291,5.056H98.015z"/>
	<path d="M117.279,14.11h-4.266v7.472h-1.627V3.089h5.893c4.192,0,6.017,1.627,6.017,5.498
		C123.295,12.311,121.52,14.11,117.279,14.11z M117.279,4.543h-4.266v8.162h4.266c2.885,0,4.365-0.986,4.365-4.118
		C121.644,5.628,120.238,4.543,117.279,4.543z"/>
	<path d="M131.93,21.902c-4.241,0-6.14-2.12-6.14-7.569c0-5.4,1.924-7.546,6.14-7.546c4.266,0,6.066,2.146,6.066,7.546
		C137.996,19.782,136.196,21.902,131.93,21.902z M131.93,20.596c3.255,0,4.512-1.726,4.512-6.263c0-4.513-1.257-6.215-4.512-6.215
		c-3.28,0-4.586,1.702-4.586,6.215C127.344,18.895,128.65,20.596,131.93,20.596z"/>
	<path d="M150.65,7.034l3.033,11.49l0.493,1.924h0.074l0.395-1.948l2.713-11.466h1.504l-3.674,14.548h-1.899l-2.934-11.022
		l-0.469-1.947h-0.074l-0.493,1.947l-3.008,11.022h-1.85l-3.797-14.548h1.529l2.762,11.416l0.444,1.948h0.074l0.469-1.923
		l3.058-11.441H150.65z"/>
	<path d="M161.53,13.814c0-4.562,1.948-7.027,5.795-7.027c3.279,0,5.573,1.997,5.573,6.707c0,0.222-0.025,0.542-0.049,0.739h-9.789
		c0.074,4.661,1.627,6.239,5.104,6.239c1.529,0,2.787-0.37,4.019-1.036l0.197,1.307c-1.257,0.716-2.663,1.135-4.364,1.135
		C163.38,21.878,161.53,19.437,161.53,13.814z M171.517,13.174c-0.049-3.675-1.775-5.056-4.192-5.056
		c-2.86,0-4.143,1.702-4.291,5.056H171.517z"/>
	<path d="M176.601,21.582V7.107l1.208-0.099l0.049,1.628l0.049,1.997h0.049c0.838-2.269,2.54-3.797,4.734-3.797
		c0.493,0,0.962,0.049,1.381,0.172l-0.123,1.554c-0.419-0.147-0.863-0.197-1.332-0.197c-2.466,0-4.537,2.269-4.537,5.795v7.422
		H176.601z"/>
	<path d="M211.916,21.582v-9.888c0-2.367-1.356-3.452-3.526-3.452c-1.726,0-3.304,1.06-3.304,3.132v10.208h-1.479V11.374
		c0-2.27-1.504-3.132-3.305-3.132c-1.381,0-2.86,0.765-3.551,1.948v11.392h-1.479V7.059l1.061-0.099l0.296,1.775h0.074
		c0.813-1.159,2.269-1.898,3.847-1.898c2.096,0,3.427,0.813,4.019,2.416h0.074c0.666-1.603,2.195-2.441,4.094-2.441
		c2.762,0,4.66,1.529,4.66,4.857v9.913H211.916z"/>
	<path d="M219.27,4.05c-0.74,0-1.159-0.246-1.159-1.035c0-0.666,0.419-1.036,1.159-1.036s1.159,0.37,1.159,1.036
		C220.429,3.729,220.01,4.05,219.27,4.05z M218.506,21.582V7.107l1.504-0.123v14.598H218.506z"/>
	<path d="M227.804,8.242v9.839c0,1.75,0.913,2.44,2.367,2.44c0.419,0,0.937-0.073,1.233-0.197l0.123,1.184
		c-0.395,0.173-1.109,0.296-1.75,0.296c-2.269,0-3.477-1.184-3.477-3.674V8.242h-2.269V7.034h2.293l0.296-3.822l1.184-0.148v3.971
		h3.822v1.208H227.804z"/>
	<path d="M253.354,16.995c0,3.059-1.75,4.883-5.4,4.883c-3.624,0-5.375-1.85-5.375-4.883V7.034h1.479v9.912
		c0,2.269,1.331,3.502,3.896,3.502s3.921-1.209,3.921-3.502V7.034h1.479V16.995z"/>
	<path d="M267.068,21.582v-9.813c0-2.491-1.381-3.551-3.847-3.551c-1.43,0-3.156,0.689-3.97,1.973v11.392h-1.479V7.059l1.061-0.099
		l0.271,1.75h0.074c0.986-1.208,2.663-1.923,4.414-1.923c3.082,0,4.956,1.603,4.956,4.956v9.839H267.068z"/>
	<path d="M276.591,21.878c-1.727,0-3.354-0.469-4.439-1.332l0.247-1.355c1.061,0.888,2.688,1.381,4.167,1.381
		c2.466,0,3.502-1.258,3.502-2.935c0-3.896-7.842-2.22-7.842-7.027c0-2.367,1.701-3.822,4.833-3.822
		c1.381,0,2.663,0.271,3.822,0.839l-0.147,1.307c-1.209-0.543-2.491-0.814-3.699-0.814c-2.071,0-3.378,0.938-3.378,2.417
		c0,3.625,7.816,1.825,7.816,6.954C281.473,20.127,279.969,21.878,276.591,21.878z"/>
	<path d="M284.114,13.814c0-4.562,1.948-7.027,5.795-7.027c3.279,0,5.572,1.997,5.572,6.707c0,0.222-0.024,0.542-0.049,0.739h-9.789
		c0.074,4.661,1.627,6.239,5.104,6.239c1.529,0,2.787-0.37,4.02-1.036l0.197,1.307c-1.258,0.716-2.663,1.135-4.364,1.135
		C285.964,21.878,284.114,19.437,284.114,13.814z M294.101,13.174c-0.049-3.675-1.775-5.056-4.191-5.056
		c-2.86,0-4.143,1.702-4.291,5.056H294.101z"/>
	<path d="M299.185,21.582V7.107l1.208-0.099l0.05,1.628l0.049,1.997h0.049c0.839-2.269,2.54-3.797,4.734-3.797
		c0.494,0,0.962,0.049,1.381,0.172l-0.123,1.554c-0.419-0.147-0.863-0.197-1.331-0.197c-2.466,0-4.537,2.269-4.537,5.795v7.422
		H299.185z"/>
	<path d="M308.656,13.814c0-4.562,1.948-7.027,5.795-7.027c3.279,0,5.573,1.997,5.573,6.707c0,0.222-0.025,0.542-0.05,0.739h-9.789
		c0.073,4.661,1.627,6.239,5.104,6.239c1.528,0,2.786-0.37,4.019-1.036l0.197,1.307c-1.257,0.716-2.663,1.135-4.364,1.135
		C310.506,21.878,308.656,19.437,308.656,13.814z M318.644,13.174c-0.05-3.675-1.775-5.056-4.192-5.056
		c-2.86,0-4.143,1.702-4.29,5.056H318.644z"/>
	<path d="M333.022,21.582v-9.813c0-2.491-1.381-3.551-3.847-3.551c-1.431,0-3.156,0.689-3.97,1.973v11.392h-1.479V7.059l1.06-0.099
		l0.271,1.75h0.074c0.986-1.208,2.663-1.923,4.414-1.923c3.082,0,4.956,1.603,4.956,4.956v9.839H333.022z"/>
	<path d="M14.351,53.646v-8.901H4.364v8.901H2.737V35.153h1.627v8.062h9.987v-8.062h1.627v18.493H14.351z"/>
	<path d="M26.266,53.967c-4.241,0-6.14-2.12-6.14-7.569c0-5.4,1.924-7.546,6.14-7.546c4.266,0,6.066,2.146,6.066,7.546
		C32.332,51.847,30.532,53.967,26.266,53.967z M26.266,52.66c3.255,0,4.512-1.726,4.512-6.263c0-4.513-1.257-6.215-4.512-6.215
		c-3.28,0-4.586,1.702-4.586,6.215C21.68,50.959,22.986,52.66,26.266,52.66z M24.392,35.942c-0.567,0-0.863-0.247-0.863-0.938
		c0-0.592,0.296-0.962,0.863-0.962s0.863,0.346,0.863,0.962C25.255,35.646,24.959,35.942,24.392,35.942z M28.066,35.942
		c-0.567,0-0.863-0.247-0.863-0.938c0-0.592,0.296-0.962,0.863-0.962c0.567,0,0.863,0.346,0.863,0.962
		C28.929,35.646,28.633,35.942,28.066,35.942z"/>
	<path d="M44.64,41.046c-0.913-0.443-2.046-0.764-3.206-0.764c-3.403,0-4.734,1.75-4.734,5.918c0,4.709,1.603,6.386,4.685,6.386
		c1.233,0,2.441-0.345,3.354-1.011l0.148,1.307c-0.863,0.642-2.269,1.085-3.772,1.085c-3.995,0-5.968-2.269-5.968-7.767
		c0-4.957,1.825-7.349,5.992-7.349c1.356,0,2.663,0.345,3.625,0.813L44.64,41.046z"/>
	<path d="M57.86,53.646v-9.839c0-2.244-1.208-3.525-3.798-3.525c-1.8,0-3.329,0.887-3.97,1.997v11.367h-1.504V34.043l1.504-0.123
		v4.784l-0.024,1.973l0.049,0.024c1.011-1.208,2.564-1.874,4.34-1.874c3.206,0,4.907,1.75,4.907,4.98v9.839H57.86z"/>
	<path d="M67.407,53.942c-1.726,0-3.354-0.469-4.438-1.332l0.247-1.355c1.06,0.888,2.688,1.381,4.167,1.381
		c2.466,0,3.501-1.258,3.501-2.935c0-3.896-7.841-2.22-7.841-7.027c0-2.367,1.701-3.822,4.833-3.822
		c1.381,0,2.663,0.271,3.822,0.839l-0.148,1.307c-1.208-0.543-2.49-0.814-3.699-0.814c-2.071,0-3.378,0.938-3.378,2.417
		c0,3.625,7.817,1.825,7.817,6.954C72.29,52.191,70.785,53.942,67.407,53.942z"/>
	<path d="M77.989,40.307v9.839c0,1.75,0.913,2.44,2.367,2.44c0.419,0,0.937-0.073,1.233-0.197l0.123,1.184
		c-0.395,0.173-1.109,0.296-1.75,0.296c-2.269,0-3.477-1.184-3.477-3.674v-9.888h-2.269v-1.208h2.293l0.296-3.822l1.184-0.148v3.971
		h3.822v1.208H77.989z"/>
	<path d="M94.438,53.646l-0.246-1.701l-0.074-0.024c-0.912,1.331-2.466,2.021-4.513,2.021c-4.044,0-5.622-2.367-5.622-7.57
		c0-5.006,1.677-7.521,5.647-7.521c1.775,0,3.403,0.642,4.438,1.898l0.049-0.024l-0.049-1.973v-4.71l1.504-0.123v19.727H94.438z
		 M94.069,42.279c-0.715-1.208-2.219-1.997-4.069-1.997c-3.255,0-4.487,1.775-4.487,6.14c0,4.487,1.134,6.238,4.463,6.238
		c2.441,0,3.625-1.208,4.093-2.12V42.279z"/>
	<path d="M100.312,53.646V39.172l1.208-0.099l0.049,1.628l0.049,1.997h0.049c0.838-2.269,2.54-3.797,4.734-3.797
		c0.493,0,0.961,0.049,1.381,0.172l-0.124,1.554c-0.419-0.147-0.863-0.197-1.331-0.197c-2.466,0-4.537,2.269-4.537,5.795v7.422
		H100.312z"/>
	<path d="M121.595,49.06c0,3.059-1.751,4.883-5.4,4.883c-3.625,0-5.375-1.85-5.375-4.883v-9.961h1.479v9.912
		c0,2.269,1.332,3.502,3.896,3.502s3.921-1.209,3.921-3.502v-9.912h1.479V49.06z"/>
	<path d="M134.569,41.046c-0.913-0.443-2.046-0.764-3.206-0.764c-3.403,0-4.734,1.75-4.734,5.918c0,4.709,1.603,6.386,4.685,6.386
		c1.233,0,2.441-0.345,3.354-1.011l0.148,1.307c-0.863,0.642-2.269,1.085-3.772,1.085c-3.995,0-5.968-2.269-5.968-7.767
		c0-4.957,1.825-7.349,5.992-7.349c1.356,0,2.663,0.345,3.625,0.813L134.569,41.046z"/>
	<path d="M140.021,45.114h2.318l5.08-6.041h1.923l-5.647,6.658l5.894,7.915h-1.898l-5.351-7.2h-2.318v7.2h-1.504V34.019l1.504-0.099
		V45.114z"/>
	<path d="M152.502,53.646V39.172l1.208-0.099l0.049,1.628l0.049,1.997h0.049c0.838-2.269,2.54-3.797,4.734-3.797
		c0.493,0,0.962,0.049,1.381,0.172l-0.123,1.554c-0.419-0.147-0.863-0.197-1.332-0.197c-2.466,0-4.537,2.269-4.537,5.795v7.422
		H152.502z"/>
	<path d="M161.974,45.879c0-4.562,1.948-7.027,5.795-7.027c3.279,0,5.573,1.997,5.573,6.707c0,0.222-0.025,0.542-0.049,0.739h-9.789
		c0.074,4.661,1.627,6.239,5.104,6.239c1.529,0,2.787-0.37,4.019-1.036l0.197,1.307c-1.257,0.716-2.663,1.135-4.364,1.135
		C163.823,53.942,161.974,51.501,161.974,45.879z M171.96,45.238c-0.049-3.675-1.775-5.056-4.192-5.056
		c-2.86,0-4.143,1.702-4.291,5.056H171.96z"/>
	<path d="M178.499,36.114c-0.74,0-1.159-0.246-1.159-1.035c0-0.666,0.419-1.036,1.159-1.036s1.159,0.37,1.159,1.036
		C179.658,35.794,179.239,36.114,178.499,36.114z M177.734,53.646V39.172l1.504-0.123v14.598H177.734z"/>
	<path d="M193.937,53.646v-9.813c0-2.491-1.381-3.551-3.847-3.551c-1.43,0-3.156,0.689-3.97,1.973v11.392h-1.479V39.123l1.061-0.099
		l0.271,1.75h0.074c0.986-1.208,2.663-1.923,4.414-1.923c3.083,0,4.957,1.603,4.957,4.956v9.839H193.937z"/>
	<path d="M201.289,36.114c-0.74,0-1.159-0.246-1.159-1.035c0-0.666,0.419-1.036,1.159-1.036s1.159,0.37,1.159,1.036
		C202.448,35.794,202.029,36.114,201.289,36.114z M200.524,53.646V39.172l1.504-0.123v14.598H200.524z"/>
	<path d="M209.922,47.038c-0.986,0.222-1.504,0.715-1.504,1.332c0,0.566,0.443,1.035,1.652,1.158l3.354,0.346
		c3.576,0.369,4.636,1.455,4.636,3.378c0,2.564-1.479,4.192-5.893,4.192c-3.822,0-5.425-1.529-5.425-3.848
		c0-1.109,0.567-2.194,1.603-2.983c-0.74-0.32-1.332-0.962-1.332-1.948c0-0.887,0.666-1.676,1.874-2.096
		c-1.036-0.566-1.775-1.652-1.775-3.452c0-2.737,1.381-4.266,4.907-4.266c1.258,0,2.589,0.247,3.551,1.011l2.343-1.061l0.345,0.765
		l-1.874,1.258c0.321,0.592,0.518,1.331,0.518,2.269c0,2.737-1.233,4.217-4.883,4.217C211.327,47.31,210.588,47.235,209.922,47.038z
		 M209.65,50.885c-1.035,0.666-1.578,1.652-1.578,2.54c0,1.726,1.184,2.762,4.044,2.762c3.601,0,4.537-1.109,4.537-2.737
		c0-1.258-0.641-1.948-3.452-2.194L209.65,50.885z M208.565,43.142c0,2.441,1.479,2.984,3.428,2.984
		c2.663,0,3.477-1.036,3.477-2.984c0-2.243-1.06-3.032-3.452-3.032C209.503,40.109,208.565,41.12,208.565,43.142z"/>
	<path d="M220.307,45.879c0-4.562,1.948-7.027,5.794-7.027c3.28,0,5.573,1.997,5.573,6.707c0,0.222-0.024,0.542-0.049,0.739h-9.79
		c0.074,4.661,1.628,6.239,5.104,6.239c1.529,0,2.786-0.37,4.02-1.036l0.197,1.307c-1.258,0.716-2.663,1.135-4.365,1.135
		C222.156,53.942,220.307,51.501,220.307,45.879z M230.293,45.238c-0.049-3.675-1.775-5.056-4.192-5.056
		c-2.86,0-4.143,1.702-4.291,5.056H230.293z"/>
	<path d="M235.377,53.646V39.172l1.208-0.099l0.049,1.628l0.05,1.997h0.05c0.838-2.269,2.539-3.797,4.734-3.797
		c0.492,0,0.961,0.049,1.381,0.172l-0.124,1.554c-0.419-0.147-0.862-0.197-1.331-0.197c-2.466,0-4.537,2.269-4.537,5.795v7.422
		H235.377z"/>
	<path d="M255.451,53.646v-9.813c0-2.491-1.381-3.551-3.847-3.551c-1.43,0-3.156,0.689-3.97,1.973v11.392h-1.479V39.123l1.061-0.099
		l0.271,1.75h0.074c0.986-1.208,2.663-1.923,4.414-1.923c3.082,0,4.956,1.603,4.956,4.956v9.839H255.451z"/>
	<path d="M275.233,53.918c-1.875,0-3.551-0.716-4.488-1.997l-0.074,0.024l-0.296,1.701h-0.986V33.994l1.505-0.099v4.833
		l-0.025,1.973l0.05,0.024c1.035-1.232,2.663-1.898,4.487-1.898c3.403,0,5.573,1.874,5.573,7.521
		C280.979,51.896,278.882,53.918,275.233,53.918z M275.011,40.232c-1.775,0-3.279,0.765-4.117,2.047v8.235
		c0.641,1.109,2.07,2.121,4.167,2.121c2.589,0,4.389-1.307,4.389-6.264C279.449,41.49,277.798,40.232,275.011,40.232z"/>
	<path d="M286.187,36.114c-0.74,0-1.159-0.246-1.159-1.035c0-0.666,0.419-1.036,1.159-1.036c0.739,0,1.158,0.37,1.158,1.036
		C287.345,35.794,286.926,36.114,286.187,36.114z M285.422,53.646V39.172l1.504-0.123v14.598H285.422z"/>
	<path d="M295.952,53.942c-1.726,0-3.354-0.469-4.438-1.332l0.246-1.355c1.061,0.888,2.688,1.381,4.167,1.381
		c2.466,0,3.502-1.258,3.502-2.935c0-3.896-7.842-2.22-7.842-7.027c0-2.367,1.702-3.822,4.833-3.822
		c1.381,0,2.663,0.271,3.822,0.839l-0.148,1.307c-1.208-0.543-2.49-0.814-3.698-0.814c-2.071,0-3.378,0.938-3.378,2.417
		c0,3.625,7.816,1.825,7.816,6.954C300.835,52.191,299.331,53.942,295.952,53.942z"/>
	<path d="M314.624,50.688l-1.134,1.554l0.024,0.074h8.261l-0.05,1.331H311.69v-1.085l7.076-10.479l1.135-1.578l-0.025-0.05h-7.865
		l0.049-1.355h9.617v1.109L314.624,50.688z"/>
	<path d="M336.228,49.06c0,3.059-1.75,4.883-5.4,4.883c-3.624,0-5.375-1.85-5.375-4.883v-9.961h1.479v9.912
		c0,2.269,1.331,3.502,3.896,3.502s3.921-1.209,3.921-3.502v-9.912h1.479V49.06z"/>
	<path d="M4.685,84.429h3.6V71.335l0.049-1.997l-0.049-0.024l-4.241,2.885l-0.197-1.43l5.129-3.625h0.937v17.285h3.477v1.282H4.685
		V84.429z"/>
	<path d="M24.194,85.982c-4.562,0-6.461-2.564-6.461-9.519c0-7.052,1.899-9.493,6.485-9.493c4.537,0,6.436,2.441,6.436,9.493
		C30.654,83.418,28.731,85.982,24.194,85.982z M24.219,68.45c-3.378,0-4.956,1.627-4.956,7.989c0,6.436,1.578,8.088,4.956,8.088
		c3.354,0,4.882-1.652,4.882-8.088C29.101,70.053,27.572,68.45,24.219,68.45z"/>
	<path d="M40.325,85.982c-4.562,0-6.461-2.564-6.461-9.519c0-7.052,1.899-9.493,6.485-9.493c4.537,0,6.436,2.441,6.436,9.493
		C46.785,83.418,44.862,85.982,40.325,85.982z M40.35,68.45c-3.378,0-4.956,1.627-4.956,7.989c0,6.436,1.578,8.088,4.956,8.088
		c3.354,0,4.882-1.652,4.882-8.088C45.232,70.053,43.703,68.45,40.35,68.45z"/>
	<path d="M56.455,85.982c-4.562,0-6.46-2.564-6.46-9.519c0-7.052,1.898-9.493,6.485-9.493c4.537,0,6.436,2.441,6.436,9.493
		C62.916,83.418,60.992,85.982,56.455,85.982z M56.48,68.45c-3.378,0-4.957,1.627-4.957,7.989c0,6.436,1.578,8.088,4.957,8.088
		c3.354,0,4.882-1.652,4.882-8.088C61.362,70.053,59.833,68.45,56.48,68.45z"/>
	<path d="M80.75,85.982c-1.874,0-3.551-0.716-4.488-1.997l-0.074,0.024l-0.296,1.701h-0.986V66.059l1.504-0.099v4.833l-0.024,1.973
		l0.049,0.024c1.036-1.232,2.663-1.898,4.488-1.898c3.402,0,5.572,1.874,5.572,7.521C86.495,83.96,84.399,85.982,80.75,85.982z
		 M80.528,72.297c-1.775,0-3.28,0.765-4.118,2.047v8.235c0.641,1.109,2.071,2.121,4.167,2.121c2.589,0,4.39-1.307,4.39-6.264
		C84.967,73.555,83.314,72.297,80.528,72.297z"/>
	<path d="M98.558,83.664l-0.074-0.024c-0.789,1.381-2.515,2.293-4.537,2.293c-2.638,0-4.463-1.307-4.463-4.562
		c0-2.762,1.701-4.34,5.252-4.34c1.307,0,2.639,0.271,3.625,0.642v-1.801c0-2.762-1.159-3.649-3.724-3.649
		c-1.504,0-2.86,0.271-4.118,0.913l-0.172-1.308c1.381-0.641,2.86-0.962,4.537-0.962c3.551,0,4.98,1.455,4.98,5.229v9.616H98.73
		L98.558,83.664z M98.36,78.856c-0.37-0.271-1.652-0.691-3.403-0.691c-2.811,0-4.044,1.159-4.044,3.182
		c0,2.466,1.479,3.304,3.427,3.304c2.121,0,4.02-1.479,4.02-2.885V78.856z"/>
	<path d="M104.257,85.711V71.236l1.208-0.099l0.049,1.628l0.049,1.997h0.049c0.838-2.269,2.54-3.797,4.734-3.797
		c0.493,0,0.962,0.049,1.381,0.172l-0.123,1.554c-0.419-0.147-0.863-0.197-1.332-0.197c-2.466,0-4.537,2.269-4.537,5.795v7.422
		H104.257z"/>
	<path d="M113.753,85.958c-0.789,0-1.184-0.321-1.184-1.159c0-0.74,0.395-1.135,1.184-1.135c0.765,0,1.134,0.395,1.134,1.135
		C114.887,85.538,114.518,85.958,113.753,85.958z"/>
</g>
</svg>
