<?xml version="1.0" encoding="utf-8"?>
<!-- Generator: Adobe Illustrator 16.0.0, SVG Export Plug-In . SVG Version: 6.00 Build 0)  -->
<!DOCTYPE svg PUBLIC "-//W3C//DTD SVG 1.1//EN" "http://www.w3.org/Graphics/SVG/1.1/DTD/svg11.dtd">
<svg version="1.1" id="Ebene_1" xmlns="http://www.w3.org/2000/svg" xmlns:xlink="http://www.w3.org/1999/xlink" x="0px" y="0px"
	 width="258.338px" height="54.172px" viewBox="-409.499 266.381 258.338 54.172"
	 enable-background="new -409.499 266.381 258.338 54.172" xml:space="preserve">
<g>
	<path d="M-395.188,320.553c-4.577,0-9.096-1.043-12.63-3.013l1.448-9.618c3.534,1.797,7.126,2.897,10.893,2.897
		c3.592,0,4.982-1.217,4.982-3.534c0-5.562-17.265-3.824-17.265-18.019c0-7.59,4.635-13.615,15.354-13.615
		c3.998,0,8.285,0.753,11.414,2.086l-1.275,9.444c-3.302-0.986-6.604-1.564-9.386-1.564c-4.287,0-5.214,1.273-5.214,3.128
		c0,5.62,17.266,3.708,17.266,17.903C-379.603,315.223-385.396,320.553-395.188,320.553z"/>
	<path d="M-357.529,286.486V319.8h-11.53v-33.313h-9.849l0.232-10.14h30.765l0.232,10.14H-357.529z"/>
	<path d="M-325.606,312.21h-11.819l-1.68,7.59h-11.993l12.862-43.453h13.847l13.094,43.453h-12.631L-325.606,312.21z
		 M-336.904,274.261c-2.839,0-4.287-1.101-4.287-3.882c0-2.607,1.448-3.998,4.287-3.998c2.955,0,4.288,1.391,4.288,3.998
		C-332.616,272.928-333.949,274.261-336.904,274.261z M-332.5,290.31l-2.781,12.456h7.59l-2.781-12.456l-0.869-4.636h-0.173
		L-332.5,290.31z M-325.837,274.261c-2.839,0-4.288-1.101-4.288-3.882c0-2.607,1.449-3.998,4.288-3.998
		c2.955,0,4.287,1.391,4.287,3.998C-321.55,272.928-322.883,274.261-325.837,274.261z"/>
	<path d="M-282.848,302.014l8.459,17.786h-13.094l-5.793-15.527h-3.824V319.8h-11.298v-43.453h15.006
		c11.008,0,16.455,4.171,16.455,13.963C-276.938,296.104-279.024,300.391-282.848,302.014z M-293.161,285.732h-3.94v10.023h3.882
		c3.303,0,4.461-0.812,4.461-5.041C-288.758,286.775-289.859,285.732-293.161,285.732z"/>
	<path d="M-249.304,319.8l-8.169-17.671h-2.781V319.8h-11.298v-43.453h11.298v16.802h3.013l8.053-16.802h12.688l-10.429,20.8
		l10.95,22.653H-249.304z"/>
	<path d="M-204.577,310.008l-0.232,9.792h-27.984v-43.453h27.231l0.232,9.966h-16.165v6.721h13.326v9.096h-13.326v7.879H-204.577z"
		/>
	<path d="M-174.681,302.014l8.459,17.786h-13.094l-5.793-15.527h-3.824V319.8h-11.298v-43.453h15.006
		c11.008,0,16.455,4.171,16.455,13.963C-168.771,296.104-170.857,300.391-174.681,302.014z M-184.994,285.732h-3.94v10.023h3.882
		c3.303,0,4.461-0.812,4.461-5.041C-180.591,286.775-181.692,285.732-184.994,285.732z"/>
	<path d="M-158.75,320.495c-4.056,0-5.852-1.564-5.852-5.504c0-3.534,1.796-5.562,5.852-5.562s5.794,2.027,5.794,5.562
		C-152.956,318.293-154.694,320.495-158.75,320.495z"/>
</g>
</svg>
