<?xml version="1.0" encoding="utf-8"?>
<!-- Generator: Adobe Illustrator 16.0.0, SVG Export Plug-In . SVG Version: 6.00 Build 0)  -->
<!DOCTYPE svg PUBLIC "-//W3C//DTD SVG 1.1//EN" "http://www.w3.org/Graphics/SVG/1.1/DTD/svg11.dtd">
<svg version="1.1" id="Ebene_1" xmlns="http://www.w3.org/2000/svg" xmlns:xlink="http://www.w3.org/1999/xlink" x="0px" y="0px"
	 width="832.278px" height="39.78px" viewBox="0 0 832.278 39.78" enable-background="new 0 0 832.278 39.78" xml:space="preserve">
<g>
	<path fill="#1A1A18" d="M20.662,29.269L20.553,31.5H3.996V4.503h15.91l0.108,2.232H6.335v9.61h11.842v2.016H6.335v10.907H20.662z"
		/>
	<path fill="#1A1A18" d="M39.525,31.5V17.174c0-3.636-2.016-5.184-5.615-5.184c-2.088,0-4.607,1.008-5.795,2.88V31.5h-2.16V10.299
		l1.548-0.145l0.396,2.556h0.108c1.44-1.764,3.888-2.808,6.443-2.808c4.5,0,7.235,2.34,7.235,7.235V31.5H39.525z"/>
	<path fill="#1A1A18" d="M51.623,12.026v14.362c0,2.556,1.332,3.563,3.456,3.563c0.612,0,1.368-0.108,1.8-0.288l0.18,1.728
		c-0.576,0.252-1.62,0.433-2.556,0.433c-3.312,0-5.076-1.729-5.076-5.363V12.026h-3.312v-1.764h3.348l0.432-5.579l1.728-0.216v5.795
		h5.579v1.764H51.623z"/>
	<path fill="#1A1A18" d="M75.634,31.5l-0.36-2.483l-0.108-0.036c-1.332,1.943-3.6,2.951-6.587,2.951
		c-5.903,0-8.207-3.455-8.207-11.051c0-7.307,2.448-10.979,8.243-10.979c2.591,0,4.967,0.937,6.479,2.772l0.072-0.036l-0.072-2.88
		V2.884l2.196-0.181V31.5H75.634z M75.094,14.906c-1.044-1.764-3.24-2.916-5.939-2.916c-4.751,0-6.551,2.592-6.551,8.963
		c0,6.552,1.656,9.107,6.515,9.107c3.563,0,5.291-1.764,5.975-3.096V14.906z"/>
	<path fill="#1A1A18" d="M82.835,20.161c0-6.659,2.844-10.259,8.459-10.259c4.787,0,8.135,2.916,8.135,9.791
		c0,0.324-0.036,0.792-0.072,1.08h-14.29c0.108,6.803,2.375,9.106,7.451,9.106c2.232,0,4.068-0.54,5.867-1.512l0.288,1.908
		c-1.835,1.044-3.887,1.655-6.371,1.655C85.535,31.932,82.835,28.368,82.835,20.161z M97.414,19.226
		c-0.072-5.363-2.592-7.379-6.119-7.379c-4.176,0-6.047,2.483-6.263,7.379H97.414z"/>
	<path fill="#1A1A18" d="M117.322,13.106c-1.332-0.648-2.988-1.116-4.68-1.116c-4.967,0-6.911,2.556-6.911,8.639
		c0,6.876,2.34,9.323,6.839,9.323c1.8,0,3.563-0.504,4.896-1.476l0.216,1.907c-1.26,0.937-3.312,1.584-5.507,1.584
		c-5.832,0-8.711-3.312-8.711-11.339c0-7.234,2.664-10.727,8.747-10.727c1.979,0,3.887,0.504,5.291,1.188L117.322,13.106z"/>
	<path fill="#1A1A18" d="M125.278,19.046h3.384l7.415-8.819h2.808l-8.243,9.719l8.603,11.555h-2.771l-7.811-10.511h-3.384V31.5
		h-2.195V2.848l2.195-0.145V19.046z"/>
	<path fill="#1A1A18" d="M141.66,20.161c0-6.659,2.844-10.259,8.459-10.259c4.787,0,8.135,2.916,8.135,9.791
		c0,0.324-0.036,0.792-0.072,1.08h-14.29c0.108,6.803,2.375,9.106,7.451,9.106c2.232,0,4.067-0.54,5.867-1.512l0.288,1.908
		c-1.836,1.044-3.887,1.655-6.371,1.655C144.359,31.932,141.66,28.368,141.66,20.161z M156.238,19.226
		c-0.072-5.363-2.592-7.379-6.119-7.379c-4.176,0-6.047,2.483-6.263,7.379H156.238z"/>
	<path fill="#1A1A18" d="M177.226,31.5V17.174c0-3.636-2.017-5.184-5.615-5.184c-2.088,0-4.607,1.008-5.796,2.88V31.5h-2.159V10.299
		l1.548-0.145l0.396,2.556h0.108c1.439-1.764,3.887-2.808,6.442-2.808c4.5,0,7.235,2.34,7.235,7.235V31.5H177.226z"/>
	<path fill="#1A1A18" d="M203.686,32.004c-3.096,0-5.615-0.828-7.667-2.088l0.432-2.231c2.088,1.368,4.392,2.088,7.235,2.088
		c4.283,0,6.479-2.088,6.479-5.579c0-7.235-13.858-4.068-13.858-12.959c0-4.067,2.592-7.163,8.387-7.163
		c2.628,0,5.003,0.54,6.911,1.44l-0.432,2.123c-2.052-0.863-4.032-1.367-6.371-1.367c-4.464,0-6.228,2.268-6.228,4.823
		c0,6.875,13.895,3.636,13.895,12.958C212.469,28.98,209.445,32.004,203.686,32.004z"/>
	<path fill="#1A1A18" d="M219.742,5.907c-1.079,0-1.691-0.36-1.691-1.512c0-0.972,0.612-1.512,1.691-1.512
		c1.08,0,1.692,0.54,1.692,1.512C221.434,5.439,220.822,5.907,219.742,5.907z M218.626,31.5V10.371l2.195-0.181V31.5H218.626z"/>
	<path fill="#1A1A18" d="M227.338,20.161c0-6.659,2.844-10.259,8.459-10.259c4.787,0,8.135,2.916,8.135,9.791
		c0,0.324-0.036,0.792-0.072,1.08h-14.29c0.108,6.803,2.376,9.106,7.451,9.106c2.231,0,4.067-0.54,5.867-1.512l0.288,1.908
		c-1.836,1.044-3.888,1.655-6.371,1.655C230.038,31.932,227.338,28.368,227.338,20.161z M241.917,19.226
		c-0.072-5.363-2.592-7.379-6.119-7.379c-4.176,0-6.047,2.483-6.264,7.379H241.917z"/>
	<path fill="#1A1A18" d="M276.188,24.805c0,4.464-2.556,7.127-7.883,7.127c-5.292,0-7.848-2.699-7.848-7.127V10.263h2.16v14.47
		c0,3.312,1.943,5.111,5.688,5.111c3.743,0,5.723-1.764,5.723-5.111v-14.47h2.16V24.805z"/>
	<path fill="#1A1A18" d="M296.205,31.5V17.174c0-3.636-2.017-5.184-5.615-5.184c-2.088,0-4.607,1.008-5.796,2.88V31.5h-2.159V10.299
		l1.548-0.145l0.396,2.556h0.108c1.439-1.764,3.887-2.808,6.442-2.808c4.5,0,7.235,2.34,7.235,7.235V31.5H296.205z"/>
	<path fill="#1A1A18" d="M310.101,31.932c-2.52,0-4.896-0.684-6.479-1.943l0.36-1.979c1.548,1.296,3.924,2.016,6.083,2.016
		c3.6,0,5.111-1.836,5.111-4.284c0-5.687-11.446-3.239-11.446-10.258c0-3.456,2.483-5.58,7.055-5.58
		c2.016,0,3.888,0.396,5.579,1.225l-0.216,1.907c-1.764-0.792-3.635-1.188-5.399-1.188c-3.023,0-4.931,1.367-4.931,3.527
		c0,5.291,11.41,2.664,11.41,10.15C317.228,29.376,315.033,31.932,310.101,31.932z"/>
	<path fill="#1A1A18" d="M321.082,20.161c0-6.659,2.844-10.259,8.459-10.259c4.787,0,8.135,2.916,8.135,9.791
		c0,0.324-0.036,0.792-0.072,1.08h-14.29c0.108,6.803,2.376,9.106,7.451,9.106c2.231,0,4.067-0.54,5.867-1.512l0.288,1.908
		c-1.836,1.044-3.888,1.655-6.371,1.655C323.781,31.932,321.082,28.368,321.082,20.161z M335.66,19.226
		c-0.072-5.363-2.592-7.379-6.119-7.379c-4.176,0-6.047,2.483-6.264,7.379H335.66z"/>
	<path fill="#1A1A18" d="M343.078,31.5V10.371l1.764-0.145l0.071,2.376l0.072,2.915h0.072c1.224-3.312,3.707-5.543,6.911-5.543
		c0.72,0,1.403,0.072,2.016,0.252l-0.18,2.268c-0.612-0.216-1.26-0.288-1.944-0.288c-3.6,0-6.623,3.312-6.623,8.459V31.5H343.078z"
		/>
	<path fill="#1A1A18" d="M356.902,20.161c0-6.659,2.844-10.259,8.459-10.259c4.787,0,8.135,2.916,8.135,9.791
		c0,0.324-0.036,0.792-0.072,1.08h-14.29c0.108,6.803,2.376,9.106,7.451,9.106c2.231,0,4.067-0.54,5.867-1.512l0.288,1.908
		c-1.836,1.044-3.888,1.655-6.371,1.655C359.601,31.932,356.902,28.368,356.902,20.161z M371.48,19.226
		c-0.072-5.363-2.592-7.379-6.119-7.379c-4.176,0-6.047,2.483-6.264,7.379H371.48z"/>
	<path fill="#1A1A18" d="M390.417,31.5V10.371l1.764-0.145l0.071,2.376l0.072,2.915h0.072c1.224-3.312,3.707-5.543,6.911-5.543
		c0.72,0,1.403,0.072,2.016,0.252l-0.18,2.268c-0.612-0.216-1.26-0.288-1.944-0.288c-3.6,0-6.623,3.312-6.623,8.459V31.5H390.417z"
		/>
	<path fill="#1A1A18" d="M413.204,31.968c-6.191,0-8.963-3.096-8.963-11.051c0-7.883,2.808-11.015,8.963-11.015
		c6.228,0,8.854,3.132,8.854,11.015C422.058,28.872,419.431,31.968,413.204,31.968z M413.204,30.061
		c4.751,0,6.587-2.521,6.587-9.144c0-6.587-1.836-9.07-6.587-9.07c-4.787,0-6.695,2.483-6.695,9.07
		C406.508,27.576,408.417,30.061,413.204,30.061z"/>
	<path fill="#1A1A18" d="M436.279,31.896c-2.735,0-5.183-1.043-6.551-2.915l-0.108,0.036l-0.432,2.483h-1.439V2.812l2.195-0.144
		v7.055l-0.036,2.88l0.072,0.036c1.512-1.8,3.888-2.771,6.551-2.771c4.968,0,8.136,2.735,8.136,10.979
		C444.667,28.944,441.607,31.896,436.279,31.896z M435.956,11.918c-2.592,0-4.788,1.116-6.012,2.988v12.022
		c0.937,1.62,3.023,3.096,6.083,3.096c3.78,0,6.407-1.908,6.407-9.144C442.434,13.754,440.023,11.918,435.956,11.918z"/>
	<path fill="#1A1A18" d="M465.474,24.805c0,4.464-2.556,7.127-7.883,7.127c-5.292,0-7.848-2.699-7.848-7.127V10.263h2.16v14.47
		c0,3.312,1.943,5.111,5.688,5.111c3.743,0,5.723-1.764,5.723-5.111v-14.47h2.16V24.805z"/>
	<path fill="#1A1A18" d="M477.211,31.932c-2.52,0-4.896-0.684-6.479-1.943l0.36-1.979c1.548,1.296,3.924,2.016,6.083,2.016
		c3.6,0,5.111-1.836,5.111-4.284c0-5.687-11.446-3.239-11.446-10.258c0-3.456,2.483-5.58,7.055-5.58c2.016,0,3.888,0.396,5.58,1.225
		l-0.217,1.907c-1.764-0.792-3.635-1.188-5.399-1.188c-3.023,0-4.931,1.367-4.931,3.527c0,5.291,11.41,2.664,11.41,10.15
		C484.338,29.376,482.143,31.932,477.211,31.932z"/>
	<path fill="#1A1A18" d="M492.656,12.026v14.362c0,2.556,1.332,3.563,3.456,3.563c0.611,0,1.367-0.108,1.799-0.288l0.181,1.728
		c-0.576,0.252-1.62,0.433-2.556,0.433c-3.312,0-5.075-1.729-5.075-5.363V12.026h-3.312v-1.764h3.347l0.433-5.579l1.728-0.216v5.795
		h5.579v1.764H492.656z"/>
	<path fill="#1A1A18" d="M501.405,20.161c0-6.659,2.844-10.259,8.459-10.259c4.787,0,8.135,2.916,8.135,9.791
		c0,0.324-0.036,0.792-0.072,1.08h-14.29c0.108,6.803,2.376,9.106,7.451,9.106c2.231,0,4.067-0.54,5.867-1.512l0.288,1.908
		c-1.836,1.044-3.888,1.655-6.371,1.655C504.104,31.932,501.405,28.368,501.405,20.161z M515.983,19.226
		c-0.072-5.363-2.592-7.379-6.119-7.379c-4.176,0-6.047,2.483-6.264,7.379H515.983z"/>
	<path fill="#1A1A18" d="M536.971,31.5V17.174c0-3.636-2.016-5.184-5.615-5.184c-2.088,0-4.607,1.008-5.796,2.88V31.5h-2.159V10.299
		l1.548-0.145l0.396,2.556h0.108c1.439-1.764,3.887-2.808,6.442-2.808c4.5,0,7.235,2.34,7.235,7.235V31.5H536.971z"/>
	<path fill="#1A1A18" d="M558.175,4.503h2.376V31.5h-2.376V4.503z"/>
	<path fill="#1A1A18" d="M582.042,31.5V17.174c0-3.636-2.017-5.184-5.615-5.184c-2.088,0-4.607,1.008-5.796,2.88V31.5h-2.159V10.299
		l1.548-0.145l0.396,2.556h0.108c1.439-1.764,3.887-2.808,6.442-2.808c4.5,0,7.235,2.34,7.235,7.235V31.5H582.042z"/>
	<path fill="#1A1A18" d="M604.542,31.5l-0.359-2.483l-0.108-0.036c-1.332,1.943-3.6,2.951-6.587,2.951
		c-5.903,0-8.207-3.455-8.207-11.051c0-7.307,2.447-10.979,8.243-10.979c2.592,0,4.967,0.937,6.479,2.772l0.072-0.036l-0.072-2.88
		V2.884l2.196-0.181V31.5H604.542z M604.001,14.906c-1.043-1.764-3.239-2.916-5.938-2.916c-4.752,0-6.552,2.592-6.552,8.963
		c0,6.552,1.656,9.107,6.516,9.107c3.563,0,5.291-1.764,5.975-3.096V14.906z"/>
	<path fill="#1A1A18" d="M628.446,24.805c0,4.464-2.556,7.127-7.883,7.127c-5.292,0-7.848-2.699-7.848-7.127V10.263h2.16v14.47
		c0,3.312,1.943,5.111,5.688,5.111c3.743,0,5.723-1.764,5.723-5.111v-14.47h2.16V24.805z"/>
	<path fill="#1A1A18" d="M640.182,31.932c-2.52,0-4.896-0.684-6.479-1.943l0.36-1.979c1.548,1.296,3.924,2.016,6.083,2.016
		c3.6,0,5.111-1.836,5.111-4.284c0-5.687-11.446-3.239-11.446-10.258c0-3.456,2.483-5.58,7.055-5.58c2.016,0,3.888,0.396,5.58,1.225
		l-0.217,1.907c-1.764-0.792-3.635-1.188-5.399-1.188c-3.023,0-4.931,1.367-4.931,3.527c0,5.291,11.41,2.664,11.41,10.15
		C647.309,29.376,645.114,31.932,640.182,31.932z"/>
	<path fill="#1A1A18" d="M655.626,12.026v14.362c0,2.556,1.332,3.563,3.456,3.563c0.611,0,1.367-0.108,1.799-0.288l0.181,1.728
		c-0.576,0.252-1.62,0.433-2.556,0.433c-3.312,0-5.075-1.729-5.075-5.363V12.026h-3.312v-1.764h3.347l0.433-5.579l1.728-0.216v5.795
		h5.579v1.764H655.626z"/>
	<path fill="#1A1A18" d="M666.068,31.5V10.371l1.764-0.145l0.071,2.376l0.072,2.915h0.072c1.224-3.312,3.707-5.543,6.911-5.543
		c0.72,0,1.403,0.072,2.016,0.252l-0.18,2.268c-0.612-0.216-1.26-0.288-1.944-0.288c-3.6,0-6.623,3.312-6.623,8.459V31.5H666.068z"
		/>
	<path fill="#1A1A18" d="M683.922,5.907c-1.079,0-1.691-0.36-1.691-1.512c0-0.972,0.612-1.512,1.691-1.512
		c1.08,0,1.692,0.54,1.692,1.512C685.615,5.439,685.002,5.907,683.922,5.907z M682.807,31.5V10.371l2.195-0.181V31.5H682.807z"/>
	<path fill="#1A1A18" d="M691.519,20.161c0-6.659,2.844-10.259,8.459-10.259c4.787,0,8.135,2.916,8.135,9.791
		c0,0.324-0.036,0.792-0.072,1.08h-14.29c0.108,6.803,2.376,9.106,7.451,9.106c2.231,0,4.067-0.54,5.867-1.512l0.288,1.908
		c-1.836,1.044-3.888,1.655-6.371,1.655C694.218,31.932,691.519,28.368,691.519,20.161z M706.097,19.226
		c-0.072-5.363-2.592-7.379-6.119-7.379c-4.176,0-6.047,2.483-6.264,7.379H706.097z"/>
	<path fill="#1A1A18" d="M718.734,31.932c-2.52,0-4.896-0.684-6.479-1.943l0.36-1.979c1.548,1.296,3.924,2.016,6.083,2.016
		c3.6,0,5.111-1.836,5.111-4.284c0-5.687-11.446-3.239-11.446-10.258c0-3.456,2.483-5.58,7.055-5.58
		c2.016,0,3.888,0.396,5.579,1.225l-0.216,1.907c-1.764-0.792-3.635-1.188-5.399-1.188c-3.023,0-4.931,1.367-4.931,3.527
		c0,5.291,11.41,2.664,11.41,10.15C725.861,29.376,723.666,31.932,718.734,31.932z"/>
	<path fill="#1A1A18" d="M743.212,28.513l-0.107-0.036c-1.152,2.016-3.672,3.348-6.623,3.348c-3.852,0-6.516-1.908-6.516-6.659
		c0-4.032,2.483-6.335,7.667-6.335c1.908,0,3.852,0.396,5.291,0.936v-2.628c0-4.031-1.691-5.327-5.435-5.327
		c-2.196,0-4.176,0.396-6.012,1.332l-0.252-1.908c2.016-0.936,4.176-1.403,6.623-1.403c5.184,0,7.271,2.123,7.271,7.631V31.5h-1.656
		L743.212,28.513z M742.924,21.493c-0.54-0.396-2.411-1.008-4.967-1.008c-4.104,0-5.903,1.691-5.903,4.644
		c0,3.6,2.159,4.823,5.003,4.823c3.096,0,5.867-2.16,5.867-4.212V21.493z"/>
	<path fill="#1A1A18" d="M766.865,24.805c0,4.464-2.556,7.127-7.883,7.127c-5.292,0-7.848-2.699-7.848-7.127V10.263h2.16v14.47
		c0,3.312,1.943,5.111,5.688,5.111c3.743,0,5.723-1.764,5.723-5.111v-14.47h2.16V24.805z"/>
	<path fill="#1A1A18" d="M776.945,21.854c-1.439,0.323-2.195,1.044-2.195,1.943c0,0.828,0.647,1.512,2.412,1.691l4.895,0.505
		c5.22,0.539,6.768,2.123,6.768,4.931c0,3.744-2.16,6.119-8.603,6.119c-5.58,0-7.919-2.231-7.919-5.615
		c0-1.619,0.827-3.203,2.339-4.355c-1.079-0.468-1.943-1.403-1.943-2.844c0-1.296,0.972-2.447,2.735-3.06
		c-1.512-0.827-2.592-2.411-2.592-5.039c0-3.995,2.017-6.228,7.163-6.228c1.836,0,3.78,0.36,5.184,1.477l3.42-1.548l0.504,1.115
		l-2.735,1.836c0.468,0.864,0.756,1.944,0.756,3.312c0,3.996-1.8,6.155-7.128,6.155C778.997,22.249,777.917,22.142,776.945,21.854z
		 M776.549,27.469c-1.512,0.972-2.304,2.411-2.304,3.707c0,2.52,1.728,4.032,5.903,4.032c5.255,0,6.623-1.62,6.623-3.996
		c0-1.836-0.936-2.844-5.039-3.203L776.549,27.469z M774.965,16.166c0,3.563,2.16,4.355,5.004,4.355
		c3.887,0,5.075-1.512,5.075-4.355c0-3.275-1.548-4.428-5.04-4.428C776.333,11.738,774.965,13.214,774.965,16.166z"/>
	<path fill="#1A1A18" d="M792.102,20.161c0-6.659,2.844-10.259,8.459-10.259c4.787,0,8.135,2.916,8.135,9.791
		c0,0.324-0.036,0.792-0.072,1.08h-14.29c0.108,6.803,2.376,9.106,7.451,9.106c2.231,0,4.067-0.54,5.867-1.512l0.288,1.908
		c-1.836,1.044-3.888,1.655-6.371,1.655C794.801,31.932,792.102,28.368,792.102,20.161z M806.68,19.226
		c-0.072-5.363-2.592-7.379-6.119-7.379c-4.176,0-6.047,2.483-6.264,7.379H806.68z"/>
	<path fill="#1A1A18" d="M814.098,31.5V10.371l1.764-0.145l0.071,2.376l0.072,2.915h0.072c1.224-3.312,3.707-5.543,6.911-5.543
		c0.72,0,1.403,0.072,2.016,0.252l-0.18,2.268c-0.612-0.216-1.26-0.288-1.944-0.288c-3.6,0-6.623,3.312-6.623,8.459V31.5H814.098z"
		/>
	<path fill="#1A1A18" d="M827.958,31.86c-1.152,0-1.728-0.469-1.728-1.692c0-1.08,0.575-1.655,1.728-1.655
		c1.115,0,1.655,0.575,1.655,1.655S829.074,31.86,827.958,31.86z"/>
</g>
</svg>
