<?xml version="1.0" encoding="utf-8"?>
<!-- Generator: Adobe Illustrator 23.1.1, SVG Export Plug-In . SVG Version: 6.00 Build 0)  -->
<!DOCTYPE svg PUBLIC "-//W3C//DTD SVG 1.1//EN" "http://www.w3.org/Graphics/SVG/1.1/DTD/svg11.dtd" [
	<!ENTITY ns_extend "http://ns.adobe.com/Extensibility/1.0/">
	<!ENTITY ns_ai "http://ns.adobe.com/AdobeIllustrator/10.0/">
	<!ENTITY ns_graphs "http://ns.adobe.com/Graphs/1.0/">
	<!ENTITY ns_vars "http://ns.adobe.com/Variables/1.0/">
	<!ENTITY ns_imrep "http://ns.adobe.com/ImageReplacement/1.0/">
	<!ENTITY ns_sfw "http://ns.adobe.com/SaveForWeb/1.0/">
	<!ENTITY ns_custom "http://ns.adobe.com/GenericCustomNamespace/1.0/">
	<!ENTITY ns_adobe_xpath "http://ns.adobe.com/XPath/1.0/">
]>
<svg version="1.1" id="Ebene_1" xmlns:x="&ns_extend;" xmlns:i="&ns_ai;" xmlns:graph="&ns_graphs;"
	 xmlns="http://www.w3.org/2000/svg" xmlns:xlink="http://www.w3.org/1999/xlink" x="0px" y="0px" viewBox="0 0 217.8 158"
	 style="enable-background:new 0 0 217.8 158;" xml:space="preserve">
<style type="text/css">
	.st0{fill-rule:evenodd;clip-rule:evenodd;}
</style>
<metadata>
	<sfw  xmlns="&ns_sfw;">
		<slices></slices>
		<sliceSourceBounds  bottomLeftOrigin="true" height="136.3" width="136.2" x="15.3" y="10.3"></sliceSourceBounds>
	</sfw>
</metadata>
<path class="st0" d="M151.4,99.5H142V83.7h4.1v12.1h5.4L151.4,99.5z M135.6,123.7c-4,0-6.1-1.9-6.1-5.6v-10.4h4.1V118
	c0,1.4,0.5,2,2,2c1.4,0,1.9-0.6,1.9-2v-10.3h4.1v10.4C141.6,121.8,139.6,123.7,135.6,123.7z M140.4,95.9l-0.1,3.5h-10.1V83.7h9.9
	l0.1,3.6h-5.9v2.4h4.8V93h-4.8v2.9H140.4z M128.5,44.2l-0.9-1.4l0,0l0,1.7v7H124V35.7h3.4l5.1,8.2l0,0l0-1.7l0-6.5h3.6v15.7h-2.9
	L128.5,44.2z M127.5,18.2h5.9v2.7h-5.9V18.2z M126.5,23.9l-0.1,3.5h-10.1V11.7h9.9l0.1,3.6h-5.9v2.4h4.8V21h-4.8v2.9H126.5z
	 M102.8,19.6c0-5.5,2.2-8.1,7.2-8.1c1.4,0,3,0.3,4.1,0.7l-0.4,3.5c-1-0.4-2.4-0.6-3.5-0.6c-2.6,0-3.2,1-3.2,4.5
	c0,3.7,0.6,4.6,2.6,4.6c0.3,0,0.7,0,0.9-0.1v-5.1h3.7v8c-1.1,0.5-2.9,0.9-4.5,0.9C104.7,27.7,102.8,25,102.8,19.6z M101.8,22.7
	c0,3.1-2.1,5-5.6,5c-1.7,0-3.3-0.4-4.6-1.1l0.5-3.5c1.3,0.7,2.6,1,3.9,1c1.3,0,1.8-0.4,1.8-1.3c0-2-6.3-1.4-6.3-6.5
	c0-2.8,1.7-4.9,5.6-4.9c1.4,0,3,0.3,4.1,0.8l-0.5,3.4c-1.2-0.4-2.4-0.6-3.4-0.6c-1.6,0-1.9,0.5-1.9,1.1
	C95.5,18.2,101.8,17.5,101.8,22.7z M94.8,46V35.7h4.1v10.4c0,3.7-2,5.6-6,5.6c-4,0-6.1-1.9-6.1-5.6V35.7h4.1V46c0,1.4,0.5,2,2,2
	C94.3,48.1,94.8,47.5,94.8,46z M82.3,20.2l-0.9-1.4l0,0l0,1.7v7h-3.6V11.7h3.4l5.1,8.2l0,0l0-1.7l0-6.5h3.6v15.7H87L82.3,20.2z
	 M86.5,51.5H82l-0.6-2.8h-4.3l-0.6,2.8h-4.3l4.7-15.7h5L86.5,51.5z M79.6,40.8l-0.3-1.7h-0.1l-0.4,1.7l-1,4.5h2.8L79.6,40.8z
	 M69.4,27.7c-4.5,0-6.6-2.4-6.6-8.1c0-5.8,2-8.1,6.6-8.1c4.6,0,6.6,2.4,6.6,8.1C76,25.5,74,27.7,69.4,27.7z M69.4,15.1
	c-1.7,0-2.3,0.7-2.3,4.5c0,3.8,0.6,4.5,2.3,4.5c1.7,0,2.3-0.8,2.3-4.5C71.7,15.8,71.2,15.1,69.4,15.1z M56.7,11.7h4.2v15.7h-4.2
	V11.7z M50.3,75.5h-5.7V59.7h5.6c4.8,0,6.7,2.2,6.7,7.8C57,73.3,54.8,75.5,50.3,75.5z M50.3,63.3h-1.5v8.5h1.5
	c1.8,0,2.4-0.5,2.4-4.4C52.7,64,52.1,63.3,50.3,63.3z M51.7,27.5h-4.2V15.4H44l0.1-3.7h11.1l0.1,3.7h-3.6V27.5z M38.9,27.5l-3-6.4
	h-1v6.4h-4.1V11.7h4.1v6.1H36l2.9-6.1h4.6l-3.8,7.5l4,8.2H38.9z M24.6,24.7h-4.3l-0.6,2.8h-4.3L20,11.7h5l4.7,15.7h-4.6L24.6,24.7z
	 M22.8,16.8l-0.3-1.7h-0.1l-0.4,1.7l-1,4.5h2.8L22.8,16.8z M23.3,83.4c1.4,0,3,0.3,4.1,0.7L27,87.6c-1-0.4-2.4-0.6-3.5-0.6
	c-2.6,0-3.2,1-3.2,4.5c0,3.7,0.6,4.6,2.6,4.6c0.3,0,0.7,0,0.9-0.1v-5.1h3.7v8c-1.1,0.5-2.9,0.9-4.5,0.9c-5.2,0-7.1-2.8-7.1-8.2
	C16,86.1,18.2,83.4,23.3,83.4z M23.3,107.4c1.4,0,3,0.3,4.1,0.7l-0.4,3.5c-1-0.4-2.4-0.6-3.5-0.6c-2.6,0-3.2,1-3.2,4.5
	c0,3.7,0.6,4.6,2.6,4.6c0.3,0,0.7,0,0.9-0.1v-5.1h3.7v8c-1.1,0.5-2.9,0.9-4.5,0.9c-5.2,0-7.1-2.8-7.1-8.2
	C16,110.1,18.2,107.4,23.3,107.4z M26.4,135.3h-5.9v2.4h4.8v3.3h-4.8v2.9h6.1l-0.1,3.5H16.4v-15.7h9.9L26.4,135.3z M39.7,136.8
	c0,2.1-0.8,3.7-2.1,4.2l3.1,6.4h-4.7l-2.1-5.6h-1.4v5.6h-4.1v-15.7h5.4C37.7,131.7,39.7,133.2,39.7,136.8z M32.3,138.7h1.4
	c1.2,0,1.6-0.3,1.6-1.8c0-1.4-0.4-1.8-1.6-1.8h-1.4V138.7z M45.7,137.6h3.8v-5.9h4.1v15.7h-4.1v-6.2h-3.8v6.2h-4.1v-15.7h4.1V137.6z
	 M64.3,131.7l4.7,15.7h-4.6l-0.6-2.8h-4.3l-0.6,2.8h-4.3l4.7-15.7H64.3z M63.1,141.3l-1-4.5l-0.3-1.7h-0.1l-0.4,1.7l-1,4.5H63.1z
	 M74.3,143.8h5.4l-0.1,3.7h-9.4v-15.7h4.1V143.8z M78.4,131.7h11.1l0.1,3.7H86v12.1h-4.2v-12.1h-3.6L78.4,131.7z M102.5,115.5
	c0,5.8-2.2,8-6.7,8h-5.7v-15.7h5.6C100.5,107.7,102.5,109.9,102.5,115.5z M94.2,119.9h1.5c1.8,0,2.4-0.5,2.4-4.4
	c0-3.5-0.6-4.1-2.4-4.1h-1.5V119.9z M100.8,135.3h-5.9v2.4h4.8v3.3h-4.8v2.9h6.1l-0.1,3.5H90.8v-15.7h9.9L100.8,135.3z M112.2,107.7
	l4.7,15.7h-4.6l-0.6-2.8h-4.3l-0.6,2.8h-4.3l4.7-15.7H112.2z M111,117.3l-1-4.5l-0.3-1.7h-0.1l-0.4,1.7l-1,4.5H111z M111.2,139.9
	L111.2,139.9v-1.7l0-6.5h3.6v15.7h-2.9l-4.7-7.3l-0.9-1.4l0,0l0,1.7v7h-3.6v-15.7h3.4L111.2,139.9z M118.6,143.7
	c1.5,0,2.1,0.7,2.1,2c0,1.2-0.6,2-2.1,2c-1.5,0-2.1-0.6-2.1-2C116.5,144.4,117.1,143.7,118.6,143.7z M117.4,120.8l5-8l0.9-1.4l0,0
	h-5.8l0.1-3.7h10.5v2.9l-4.9,7.7l-0.9,1.4l0,0.1h5.8l-0.1,3.7h-10.7V120.8z M128.9,87.4h-3.6v12.1h-4.2V87.4h-3.6l0.1-3.7h11.1
	L128.9,87.4z M114,75.5h-4.2V59.7h4.2V75.5z M110.8,39.4H105v2.8h4.8l0,3.5H105v5.8h-4.1V35.7h9.8L110.8,39.4z M116,66.2h5.9v2.7
	H116V66.2z M109.2,99.5V87.4h-3.6l0.1-3.7h11.1l0.1,3.7h-3.6v12.1H109.2z M99.9,99.5V83.7h4.2v15.7H99.9z M103.8,67.9L103.8,67.9
	v-1.7l0-6.5h3.6v15.7h-2.9l-4.7-7.3l-0.9-1.4l0,0l0,1.7v7h-3.6V59.7h3.4L103.8,67.9z M83.9,118.7c0,3.1-2.1,5-5.6,5
	c-1.7,0-3.3-0.4-4.6-1.1l0.5-3.5c1.3,0.7,2.6,1.1,3.9,1.1c1.3,0,1.8-0.4,1.8-1.3c0-2-6.3-1.4-6.3-6.5c0-2.8,1.7-4.9,5.6-4.9
	c1.4,0,3,0.3,4.1,0.8l-0.5,3.4c-1.2-0.4-2.4-0.6-3.4-0.6c-1.6,0-1.9,0.5-1.9,1.1C77.7,114.2,83.9,113.5,83.9,118.7z M79.9,84.2
	l-0.5,3.4c-1.2-0.4-2.4-0.6-3.4-0.6c-1.6,0-1.9,0.5-1.9,1.1c0,2,6.3,1.3,6.3,6.5c0,3.1-2.1,5-5.6,5c-1.7,0-3.3-0.4-4.6-1.1l0.5-3.5
	c1.3,0.7,2.6,1.1,3.9,1.1c1.3,0,1.8-0.4,1.8-1.3c0-2-6.3-1.4-6.3-6.5c0-2.8,1.7-4.9,5.6-4.9C77.2,83.5,78.8,83.7,79.9,84.2z
	 M71.8,123.5h-4.2v-15.7h4.2V123.5z M64.5,83.4c1.4,0,3,0.3,4.1,0.7l-0.4,3.5c-1-0.4-2.4-0.6-3.5-0.6c-2.6,0-3.2,1-3.2,4.5
	c0,3.7,0.6,4.6,2.6,4.6c0.3,0,0.7,0,0.9-0.1v-5.1h3.7v8c-1.1,0.5-2.9,0.9-4.5,0.9c-5.2,0-7.1-2.8-7.1-8.2
	C57.2,86.1,59.4,83.4,64.5,83.4z M66.2,111.4h-3.6v12.1h-4.2v-12.1h-3.6l0.1-3.7h11.1L66.2,111.4z M29.3,83.7h4.1V94
	c0,1.4,0.5,2,2,2c1.4,0,1.9-0.6,1.9-2V83.7h4.1v10.4c0,3.7-2,5.6-6,5.6c-4,0-6.1-1.9-6.1-5.6V83.7z M38.9,59.7h3.6v15.7h-2.9
	l-4.7-7.3L34,66.7l0,0l0,1.7v7h-3.6V59.7h3.4l5.1,8.2l0,0l0-1.7L38.9,59.7z M29.4,123.5v-15.7h5.4c4,0,6,1.5,6,5.1
	c0,2.1-0.8,3.7-2.1,4.2l3,6.3l4.6-15.6h5l4.7,15.7h-4.6l-0.6-2.8h-4.3l-0.6,2.8h-4.3h-0.1H37l-2.1-5.6h-1.4v5.6H29.4z M50.2,117.3
	l-1-4.5l-0.3-1.7h-0.1l-0.4,1.7l-1,4.5H50.2z M34.9,114.7c1.2,0,1.6-0.3,1.6-1.8c0-1.4-0.4-1.8-1.6-1.8h-1.4v3.6H34.9z M28.4,59.7
	v10.4c0,3.7-2,5.6-6,5.6s-6.1-1.9-6.1-5.6V59.7h4.1V70c0,1.4,0.5,2,2,2c1.4,0,1.9-0.6,1.9-2V59.7H28.4z M32.3,33.5
	c0-0.9,0.5-1.4,1.6-1.4c1.1,0,1.6,0.5,1.6,1.4c0,0.9-0.5,1.4-1.6,1.4C32.8,34.9,32.3,34.5,32.3,33.5z M36.3,33.5
	c0-0.9,0.5-1.4,1.6-1.4c1.1,0,1.6,0.5,1.6,1.4c0,0.9-0.5,1.4-1.6,1.4C36.8,34.9,36.3,34.5,36.3,33.5z M38.5,51.5l-0.6-2.8h-4.3
	L33,51.5h-4.3h-0.1H24l-2.1-5.6h-1.4v5.6h-4.1V35.7h5.4c4,0,6,1.5,6,5.1c0,2.1-0.8,3.7-2.1,4.2l3,6.3l4.6-15.6h5l4.7,15.7H38.5z
	 M22,39.1h-1.4v3.6h1.4c1.2,0,1.6-0.3,1.6-1.8C23.6,39.5,23.2,39.1,22,39.1z M36.2,40.8l-0.3-1.7h-0.1l-0.4,1.7l-1,4.5h2.8
	L36.2,40.8z M45.4,51.5V39.4h-3.6l0.1-3.7h11.1l0.1,3.7h-3.6v12.1H45.4z M51.9,83.7h3.6v15.7h-2.9l-4.7-7.3L47,90.7l0,0l0,1.7v7
	h-3.6V83.7h3.4l5.1,8.2l0,0l0-1.7L51.9,83.7z M67.2,51.5l-3-6.4h-1v6.4h-4.1V35.7h4.1v6.1h1.1l2.9-6.1h4.6l-3.8,7.5l4,8.2H67.2z
	 M71,75.5l-2.1-5.6h-1.4v5.6h-4.1V59.7h5.4c4,0,6,1.5,6,5.1c0,2.1-0.8,3.7-2.1,4.2l3.1,6.4H71z M69,63.1h-1.4v3.6h1.4
	c1.2,0,1.6-0.3,1.6-1.8C70.6,63.5,70.2,63.1,69,63.1z M87,71.9l-0.1,3.5H76.8V59.7h9.9l0.1,3.6h-5.9v2.4h4.8V69h-4.8v2.9H87z
	 M88.8,59.7H93v15.7h-4.2V59.7z M97.6,83.7v15.7h-3.8v-6.6l0-1.7l-0.1,0l-0.5,1.6L91,99.5h-2.7L86,92.8l-0.5-1.6l0,0l0,1.7v6.6h-3.6
	V83.7h4.5l2.8,8l0.5,1.6h0.1l0.5-1.6l2.8-8H97.6z M122.4,47.9l-0.1,3.5h-10.1V35.7h9.9l0.1,3.6h-5.9v2.4h4.8V45h-4.8v2.9H122.4z"/>
</svg>
