<?xml version="1.0" encoding="utf-8"?>
<!-- Generator: Adobe Illustrator 23.1.1, SVG Export Plug-In . SVG Version: 6.00 Build 0)  -->
<!DOCTYPE svg PUBLIC "-//W3C//DTD SVG 1.1//EN" "http://www.w3.org/Graphics/SVG/1.1/DTD/svg11.dtd" [
	<!ENTITY ns_extend "http://ns.adobe.com/Extensibility/1.0/">
	<!ENTITY ns_ai "http://ns.adobe.com/AdobeIllustrator/10.0/">
	<!ENTITY ns_graphs "http://ns.adobe.com/Graphs/1.0/">
	<!ENTITY ns_vars "http://ns.adobe.com/Variables/1.0/">
	<!ENTITY ns_imrep "http://ns.adobe.com/ImageReplacement/1.0/">
	<!ENTITY ns_sfw "http://ns.adobe.com/SaveForWeb/1.0/">
	<!ENTITY ns_custom "http://ns.adobe.com/GenericCustomNamespace/1.0/">
	<!ENTITY ns_adobe_xpath "http://ns.adobe.com/XPath/1.0/">
]>
<svg version="1.1" id="Ebene_1" xmlns:x="&ns_extend;" xmlns:i="&ns_ai;" xmlns:graph="&ns_graphs;"
	 xmlns="http://www.w3.org/2000/svg" xmlns:xlink="http://www.w3.org/1999/xlink" x="0px" y="0px" viewBox="0 0 217.76 158"
	 style="enable-background:new 0 0 217.76 158;" xml:space="preserve">
<style type="text/css">
	.st0{fill-rule:evenodd;clip-rule:evenodd;}
</style>
<metadata>
	<sfw  xmlns="&ns_sfw;">
		<slices></slices>
		<sliceSourceBounds  bottomLeftOrigin="true" height="93.31" width="135.6" x="10.98" y="-99.67"></sliceSourceBounds>
	</sfw>
</metadata>
<path class="st0" d="M139.88,66.92V63.8h6.7v3.12H139.88z M129.06,66.05l-1.01-1.66L128,64.42l0.02,1.94v7.99h-4.13v-18h3.94
	l5.78,9.34l0.05-0.02l-0.05-1.92l0.02-7.39h4.13v18h-3.34L129.06,66.05z M135.7,43.91c0,3.55-2.4,5.76-6.46,5.76
	c-1.9,0-3.77-0.43-5.23-1.25l0.6-3.98c1.46,0.74,2.95,1.2,4.51,1.2c1.49,0,2.06-0.5,2.06-1.46c0-2.31-7.15-1.58-7.15-7.47
	c0-3.14,1.92-5.64,6.36-5.64c1.66,0,3.43,0.31,4.73,0.86l-0.53,3.91c-1.37-0.41-2.74-0.65-3.89-0.65c-1.78,0-2.16,0.53-2.16,1.3
	C128.55,38.82,135.7,38.03,135.7,43.91z M122.74,45.3l-0.1,4.06h-11.59v-18h11.28l0.1,4.13h-6.7v2.78h5.52v3.77h-5.52v3.27H122.74z
	 M121.78,60.49h-6.7v2.78h5.52v3.77h-5.52v3.26h7.01l-0.1,4.06h-11.59v-18h11.28L121.78,60.49z M105.54,49.36h-4.78v-13.8h-4.08
	l0.1-4.2h12.75l0.1,4.2h-4.08V49.36z M90.85,49.36l-3.38-7.32h-1.15v7.32h-4.68v-18h4.68v6.96h1.25l3.34-6.96h5.26l-4.32,8.62
	l4.54,9.39H90.85z M79.83,45.3l-0.1,4.06H68.14v-18h11.28l0.1,4.13h-6.7v2.78h5.52v3.77h-5.52v3.27H79.83z M59.94,38.73h5.5
	l-0.02,3.98h-5.47v6.65h-4.7v-18h11.26l0.07,4.2h-6.62V38.73z M48.63,49.36l-2.4-6.43h-1.58v6.43h-4.68v-18h6.22
	c4.56,0,6.82,1.73,6.82,5.78c0,2.4-0.86,4.18-2.45,4.85l3.5,7.37H48.63z M46.28,35.25h-1.63v4.15h1.61c1.37,0,1.85-0.34,1.85-2.09
	C48.1,35.68,47.65,35.25,46.28,35.25z M37.93,16.05l-1.01-1.66l-0.05,0.02l0.02,1.94v7.99h-4.13v-18h3.94l5.78,9.34l0.05-0.02
	l-0.05-1.92l0.02-7.39h4.13v18H43.3L37.93,16.05z M25.3,6.36h4.82v18H25.3V6.36z M38.17,45.3l-0.1,4.06H26.48v-18h11.28l0.1,4.13
	h-6.7v2.78h5.52v3.77h-5.52v3.27H38.17z M29.5,68.14c0,1.61,0.62,2.33,2.23,2.33c1.63,0,2.18-0.67,2.18-2.33V56.36h4.68v11.88
	c0,4.22-2.26,6.43-6.86,6.43c-4.61,0-6.94-2.21-6.94-6.43V56.36h4.7V68.14z M17.79,43.77H16.3v5.59h-4.68v-18h6.17
	c4.99,0,6.98,1.94,6.98,6.34C24.78,41.58,22.83,43.77,17.79,43.77z M17.79,35.27H16.3v4.78h1.49c1.54,0,2.11-0.36,2.11-2.38
	C19.9,35.73,19.45,35.27,17.79,35.27z M23.31,20.3l-0.1,4.06H11.62v-18H22.9l0.1,4.13h-6.7v2.78h5.52v3.77H16.3v3.27H23.31z
	 M23.26,59.72l-5.54,8.83l-1.06,1.56l0.02,0.07h6.62l-0.07,4.18H10.98v-3.05l5.74-9.12l1.06-1.58l-0.02-0.05h-6.62l0.12-4.2h12.03
	V59.72z M16.21,95.64c1.49,0,2.06-0.5,2.06-1.46c0-2.31-7.15-1.59-7.15-7.47c0-3.14,1.92-5.64,6.36-5.64c1.66,0,3.43,0.31,4.73,0.86
	l-0.53,3.91c-1.37-0.41-2.74-0.65-3.89-0.65c-1.78,0-2.16,0.53-2.16,1.3c0,2.33,7.15,1.54,7.15,7.42c0,3.55-2.4,5.76-6.46,5.76
	c-1.9,0-3.77-0.43-5.23-1.25l0.6-3.98C13.16,95.18,14.65,95.64,16.21,95.64z M37.62,87.69c0,3.89-1.94,6.07-6.98,6.07h-1.49v5.59
	h-4.68v-18h6.17C35.62,81.36,37.62,83.3,37.62,87.69z M29.14,90.05h1.49c1.54,0,2.11-0.36,2.11-2.38c0-1.94-0.46-2.4-2.11-2.4h-1.49
	V90.05z M44.34,99.36h-4.82v-18h4.82V99.36z M40.78,69.44c1.46,0.74,2.95,1.2,4.51,1.2c1.49,0,2.06-0.5,2.06-1.46
	c0-2.31-7.15-1.58-7.15-7.47c0-3.14,1.92-5.64,6.36-5.64c1.66,0,3.43,0.31,4.73,0.86l-0.53,3.91c-1.37-0.41-2.74-0.65-3.89-0.65
	c-1.78,0-2.16,0.53-2.16,1.3c0,2.33,7.15,1.54,7.15,7.42c0,3.55-2.4,5.76-6.46,5.76c-1.9,0-3.77-0.43-5.23-1.25L40.78,69.44z
	 M58.35,85.49h-6.7v2.78h5.52v3.77h-5.52v3.26h7.01l-0.1,4.06H46.97v-18h11.28L58.35,85.49z M62.38,71.22h-4.9l-0.7,3.14h-4.97
	l5.33-18h5.74l5.42,18h-5.23L62.38,71.22z M60.37,62.14l-0.36-1.92h-0.07l-0.41,1.92l-1.15,5.16h3.14L60.37,62.14z M65.19,95.18
	h6.12l-0.12,4.18H60.46v-18h4.73V95.18z M74.77,95.06c1.68,0,2.4,0.84,2.4,2.3c0,1.37-0.72,2.28-2.4,2.28s-2.42-0.65-2.42-2.28
	C72.34,95.9,73.09,95.06,74.77,95.06z M74.24,66.75l-0.6-1.87l-0.05,0.02l0.02,1.94v7.51h-4.1v-18h5.16l3.17,9.1l0.6,1.85h0.07
	l0.6-1.82l3.22-9.12h5.18v18h-4.3v-7.54l0.05-1.94l-0.07-0.02l-0.6,1.87l-2.66,7.63h-3.05L74.24,66.75z M98.29,65.45l0.6,1.85h0.07
	l0.6-1.82l3.22-9.12h5.18v18h-4.3v-7.54l0.05-1.94l-0.07-0.02l-0.6,1.87l-2.67,7.63h-3.05l-2.64-7.61l-0.6-1.87l-0.05,0.02
	l0.02,1.94v7.51h-4.1v-18h5.16L98.29,65.45z"/>
</svg>
