<?xml version="1.0" encoding="utf-8"?>
<!-- Generator: Adobe Illustrator 27.2.0, SVG Export Plug-In . SVG Version: 6.00 Build 0)  -->
<svg version="1.1" id="Ebene_1" xmlns="http://www.w3.org/2000/svg" xmlns:xlink="http://www.w3.org/1999/xlink" x="0px" y="0px"
	 viewBox="0 0 128 35" style="enable-background:new 0 0 128 35;" xml:space="preserve">
<style type="text/css">
	.st0{fill:#FFFFFF;}
	.st1{fill:#238C96;}
</style>
<g>
	<rect y="-0.22" class="st1" width="128" height="35"/>
	<g>
		<path class="st0" d="M18.45,23.27v-2.03l3.83-6.08l0.71-1.06l-0.02-0.03h-4.42l0.08-2.8h8.02v2.24l-3.7,5.89l-0.7,1.04l0.02,0.05
			h4.42l-0.05,2.79H18.45z"/>
		<path class="st0" d="M37.03,19.19c0,2.82-1.5,4.29-4.58,4.29s-4.63-1.47-4.63-4.29v-7.92h3.14v7.86c0,1.07,0.42,1.55,1.49,1.55
			c1.09,0,1.46-0.45,1.46-1.55v-7.86h3.12V19.19z"/>
		<path class="st0" d="M45.76,18.36l2.34,4.91h-3.62l-1.6-4.29h-1.06v4.29H38.7v-12h4.15c3.04,0,4.55,1.15,4.55,3.86
			C47.39,16.73,46.82,17.91,45.76,18.36z M42.91,13.86h-1.09v2.77h1.07c0.91,0,1.23-0.22,1.23-1.39
			C44.13,14.15,43.82,13.86,42.91,13.86z"/>
		<path class="st0" d="M58.99,21.18h-3.26l-0.46,2.1h-3.31l3.55-12h3.83l3.62,12h-3.49L58.99,21.18z M57.09,15.12l-0.77,3.44h2.1
			l-0.77-3.44l-0.24-1.28h-0.05L57.09,15.12z"/>
		<path class="st0" d="M70.05,23.27l-2.26-4.88h-0.77v4.88H63.9v-12h3.12v4.64h0.83l2.22-4.64h3.51l-2.88,5.75l3.03,6.26H70.05z"/>
		<path class="st0" d="M80,14.07v9.2h-3.19v-9.2h-2.72l0.06-2.8h8.5l0.06,2.8H80z"/>
		<path class="st0" d="M83.97,11.27h3.22v12h-3.22V11.27z"/>
		<path class="st0" d="M93.81,23.48c-3.46,0-5.03-1.82-5.03-6.21c0-4.4,1.5-6.19,5.03-6.19c3.52,0,5.03,1.79,5.03,6.19
			C98.83,21.78,97.33,23.48,93.81,23.48z M93.79,13.88c-1.31,0-1.73,0.54-1.73,3.39c0,2.87,0.43,3.44,1.76,3.44
			c1.33,0,1.73-0.59,1.73-3.44C95.55,14.4,95.15,13.88,93.79,13.88z"/>
		<path class="st0" d="M107.33,23.27l-3.58-5.54l-0.67-1.1l-0.03,0.02l0.02,1.3v5.33h-2.75v-12h2.62l3.86,6.23l0.03-0.02l-0.03-1.28
			l0.02-4.93h2.75v12H107.33z"/>
	</g>
</g>
</svg>
