<?xml version="1.0" encoding="utf-8"?>
<!-- Generator: Adobe Illustrator 16.0.0, SVG Export Plug-In . SVG Version: 6.00 Build 0)  -->
<!DOCTYPE svg PUBLIC "-//W3C//DTD SVG 1.1//EN" "http://www.w3.org/Graphics/SVG/1.1/DTD/svg11.dtd">
<svg version="1.1" id="Ebene_1" xmlns="http://www.w3.org/2000/svg" xmlns:xlink="http://www.w3.org/1999/xlink" x="0px" y="0px"
	 width="230.2px" height="104.5px" viewBox="0 0 230.2 104.5" enable-background="new 0 0 230.2 104.5" xml:space="preserve">
<g>
	<g>
		<path fill="#1A1A18" d="M16.2,14.3c0-7-2.5-9.8-8.5-9.8H0.6v19.8h7.2C13.4,24.3,16.2,21.6,16.2,14.3z M5.8,19.8V9.1h1.9
			c2.3,0,3.1,0.8,3.1,5.2c0,4.8-0.8,5.5-3.1,5.5H5.8z M23.9,4.5h-5.3v19.8h5.3V4.5z M39.8,19.8H32v-3.6h6.1v-4.1H32V9.1h7.4
			l-0.1-4.5H26.9v19.8h12.8L39.8,19.8z M58.8,24.3h5.8l-6-19.8h-6.3l-5.9,19.8h5.5l0.8-3.5H58L58.8,24.3z M53.6,16.5l1.3-5.7
			l0.5-2.1h0.1l0.4,2.1l1.3,5.7H53.6z M77.9,19.7h-6.8V4.5h-5.2v19.8h11.9L77.9,19.7z M91.6,19.7h-6.8V4.5h-5.2v19.8h11.9L91.6,19.7
			z M106.3,19.8h-7.8v-3.6h6.1v-4.1h-6.1V9.1h7.4l-0.1-4.5H93.3v19.8h12.8L106.3,19.8z M113.3,20.2c-1.7,0-3.4-0.5-5-1.3l-0.7,4.4
			c1.6,0.9,3.7,1.4,5.8,1.4c4.5,0,7.1-2.4,7.1-6.3c0-6.5-7.9-5.6-7.9-8.1c0-0.8,0.4-1.4,2.4-1.4c1.3,0,2.8,0.3,4.3,0.7l0.6-4.3
			c-1.4-0.6-3.4-0.9-5.2-0.9c-4.9,0-7,2.7-7,6.2c0,6.5,7.9,5.7,7.9,8.2C115.6,19.7,115,20.2,113.3,20.2z M127.6,16.3h1.3l3.7,8h6.1
			l-5-10.3l4.8-9.5h-5.8l-3.7,7.6h-1.4V4.5h-5.2v19.8h5.2V16.3z M144.4,3.6c1.4,0,2-0.6,2-1.8c0-1.2-0.6-1.8-2-1.8
			c-1.3,0-2,0.6-2,1.8C142.5,3.1,143.1,3.6,144.4,3.6z M149.5,3.6c1.4,0,2-0.6,2-1.8c0-1.2-0.6-1.8-2-1.8c-1.3,0-2,0.6-2,1.8
			C147.5,3.1,148.2,3.6,149.5,3.6z M147,24.6c5.8,0,8.3-2.8,8.3-10.2c0-7.2-2.5-10.2-8.3-10.2s-8.3,3-8.3,10.2
			C138.6,21.6,141.2,24.6,147,24.6z M146.9,8.8c2.3,0,2.9,0.9,2.9,5.6c0,4.7-0.7,5.7-2.9,5.7c-2.2,0-2.9-0.9-2.9-5.7
			C144.1,9.7,144.8,8.8,146.9,8.8z M172.8,24.3V4.5h-4.6l0,8.1l0.1,2.1l-0.1,0l-6.4-10.2h-4.4v19.8h4.6v-8.8l0-2.1l0.1,0l1.1,1.8
			l5.9,9.1H172.8z M180.1,15.5l0-2.1l0.1,0l1.1,1.8l5.9,9.1h3.7V4.5h-4.6l0,8.1l0.1,2.1l-0.1,0l-6.4-10.2h-4.4v19.8h4.6V15.5z
			 M206.5,19.8h-7.8v-3.6h6.1v-4.1h-6.1V9.1h7.4l-0.1-4.5h-12.5v19.8h12.8L206.5,19.8z M222.9,10.9c0-4.5-2.5-6.4-7.5-6.4h-6.9v19.8
			h5.2v-7.1h1.8l2.7,7.1h6l-3.9-8.1C222,15.5,222.9,13.5,222.9,10.9z M215.5,13.4h-1.8V8.8h1.8c1.5,0,2,0.5,2,2.3
			C217.5,13,217,13.4,215.5,13.4z M227.5,19.6c-1.9,0-2.7,0.9-2.7,2.5c0,1.8,0.8,2.5,2.7,2.5c1.9,0,2.7-1,2.7-2.5
			C230.2,20.5,229.4,19.6,227.5,19.6z M4.4,53.4c-1.5,0-2.7-0.4-3.8-1.1l-0.2,1.2c1.1,0.7,2.4,1.1,4.1,1.1c3.1,0,4.7-1.6,4.7-4.2
			c0-4.9-7.4-3.2-7.4-6.8C1.7,42.2,2.7,41,5,41c1.2,0,2.3,0.3,3.4,0.7l0.2-1.1c-1-0.5-2.3-0.8-3.7-0.8c-3.1,0-4.5,1.6-4.5,3.8
			c0,4.7,7.4,3,7.4,6.8C7.9,52.3,6.7,53.4,4.4,53.4z M16,53.5c-2.4,0-3.6-1.3-3.6-4.9c0-3.2,1-4.6,3.7-4.6c0.9,0,1.8,0.2,2.5,0.6
			l0.1-1.1c-0.7-0.4-1.8-0.6-2.8-0.6c-3.2,0-4.7,1.8-4.7,5.7c0,4.2,1.5,6,4.6,6c1.2,0,2.3-0.3,2.9-0.8l-0.1-1
			C17.9,53.2,16.9,53.5,16,53.5z M26.1,42.9c-1.4,0-2.6,0.5-3.4,1.4l0,0l0-1.5v-3.7l-1.2,0.1v15.1h1.2v-8.8c0.5-0.9,1.7-1.5,3.1-1.5
			c2,0,2.9,1,2.9,2.7v7.6h1.2v-7.6C29.9,44.2,28.6,42.9,26.1,42.9z M37.1,42.9c-3,0-4.5,1.9-4.5,5.4c0,4.3,1.4,6.2,5,6.2
			c1.3,0,2.4-0.3,3.4-0.9l-0.2-1c-1,0.5-1.9,0.8-3.1,0.8c-2.7,0-3.9-1.2-4-4.8h7.6c0-0.2,0-0.4,0-0.6C41.5,44.4,39.7,42.9,37.1,42.9
			z M33.8,47.8c0.1-2.6,1.1-3.9,3.3-3.9c1.9,0,3.2,1.1,3.3,3.9H33.8z M48.3,54.5c2.8,0,4.2-1.4,4.2-3.8v-7.7h-1.1v7.6
			c0,1.8-1.1,2.7-3,2.7c-2,0-3-1-3-2.7v-7.6h-1.1v7.7C44.1,53.1,45.5,54.5,48.3,54.5z M64,48.1c0-3.6-1.8-5.2-4.3-5.2
			c-3,0-4.5,1.9-4.5,5.4c0,4.3,1.4,6.2,5,6.2c1.3,0,2.4-0.3,3.4-0.9l-0.2-1c-1,0.5-1.9,0.8-3.1,0.8c-2.7,0-3.9-1.2-4-4.8H64
			C64,48.5,64,48.2,64,48.1z M56.4,47.8c0.1-2.6,1.1-3.9,3.3-3.9c1.9,0,3.2,1.1,3.3,3.9H56.4z M67.9,45.9L67.9,45.9l-0.1-1.5l0-1.3
			l-0.9,0.1v11.2H68v-5.7c0-2.7,1.6-4.5,3.5-4.5c0.4,0,0.7,0,1,0.2l0.1-1.2c-0.3-0.1-0.7-0.1-1.1-0.1C69.9,42.9,68.6,44.1,67.9,45.9
			z M74.6,45.8c0,3.7,6.1,2.4,6.1,5.4c0,1.3-0.8,2.3-2.7,2.3c-1.1,0-2.4-0.4-3.2-1.1l-0.2,1c0.8,0.7,2.1,1,3.4,1
			c2.6,0,3.8-1.3,3.8-3.4c0-4-6.1-2.6-6.1-5.4c0-1.1,1-1.9,2.6-1.9c0.9,0,1.9,0.2,2.9,0.6l0.1-1c-0.9-0.4-1.9-0.6-3-0.6
			C75.9,42.9,74.6,44,74.6,45.8z M88.2,42.9c-1.3,0-2.5,0.2-3.5,0.7l0.1,1c1-0.5,2-0.7,3.2-0.7c2,0,2.9,0.7,2.9,2.8v1.4
			c-0.8-0.3-1.8-0.5-2.8-0.5c-2.8,0-4.1,1.2-4.1,3.3c0,2.5,1.4,3.5,3.5,3.5c1.6,0,2.9-0.7,3.5-1.8l0.1,0l0.1,1.6H92v-7.4
			C92,44,90.9,42.9,88.2,42.9z M90.9,51.3c0,1.1-1.5,2.2-3.1,2.2c-1.5,0-2.7-0.6-2.7-2.5c0-1.6,1-2.5,3.1-2.5c1.4,0,2.4,0.3,2.6,0.5
			V51.3z M103.6,50.8v-7.7h-1.1v7.6c0,1.8-1.1,2.7-3,2.7c-2,0-3-1-3-2.7v-7.6h-1.1v7.7c0,2.3,1.4,3.8,4.2,3.8
			C102.3,54.5,103.6,53.1,103.6,50.8z M106.5,54.3c0,1.8,1.2,3,4.2,3c3.4,0,4.6-1.3,4.6-3.2c0-1.5-0.8-2.3-3.6-2.6l-2.6-0.3
			c-0.9-0.1-1.3-0.5-1.3-0.9c0-0.5,0.4-0.9,1.2-1c0.5,0.2,1.1,0.2,1.6,0.2c2.8,0,3.8-1.1,3.8-3.2c0-0.7-0.2-1.3-0.4-1.7l1.5-1
			l-0.3-0.6l-1.8,0.8c-0.7-0.6-1.8-0.8-2.8-0.8c-2.7,0-3.8,1.2-3.8,3.3c0,1.4,0.6,2.2,1.4,2.7c-0.9,0.3-1.5,0.9-1.5,1.6
			c0,0.8,0.5,1.3,1,1.5C106.9,52.6,106.5,53.4,106.5,54.3z M107.9,46.2c0-1.6,0.7-2.3,2.7-2.3c1.9,0,2.7,0.6,2.7,2.3
			c0,1.5-0.6,2.3-2.7,2.3C109.1,48.5,107.9,48.1,107.9,46.2z M108.8,52.2l2.8,0.3c2.2,0.2,2.7,0.7,2.7,1.7c0,1.3-0.7,2.1-3.5,2.1
			c-2.2,0-3.1-0.8-3.1-2.1C107.5,53.4,108,52.7,108.8,52.2z M125.5,54.3v-7.9c0-1.6,1.2-2.4,2.6-2.4c1.7,0,2.7,0.8,2.7,2.7v7.6h1.1
			v-7.6c0-2.6-1.5-3.7-3.6-3.7c-1.5,0-2.7,0.6-3.2,1.9h-0.1c-0.5-1.2-1.5-1.9-3.1-1.9c-1.2,0-2.4,0.6-3,1.5h-0.1l-0.2-1.4l-0.8,0.1
			v11.2h1.1v-8.8c0.5-0.9,1.7-1.5,2.8-1.5c1.4,0,2.6,0.7,2.6,2.4v7.9H125.5z M139,42.9c-1.3,0-2.5,0.2-3.5,0.7l0.1,1
			c1-0.5,2-0.7,3.2-0.7c2,0,2.9,0.7,2.9,2.8v1.4c-0.8-0.3-1.8-0.5-2.8-0.5c-2.8,0-4.1,1.2-4.1,3.3c0,2.5,1.4,3.5,3.5,3.5
			c1.6,0,2.9-0.7,3.5-1.8l0.1,0l0.1,1.6h0.9v-7.4C142.8,44,141.7,42.9,139,42.9z M141.7,51.3c0,1.1-1.5,2.2-3.1,2.2
			c-1.5,0-2.7-0.6-2.7-2.5c0-1.6,1-2.5,3.1-2.5c1.4,0,2.4,0.3,2.6,0.5V51.3z M152.8,51.1c0-4-6.1-2.6-6.1-5.4c0-1.1,1-1.9,2.6-1.9
			c0.9,0,1.9,0.2,2.9,0.6l0.1-1c-0.9-0.4-1.9-0.6-3-0.6c-2.4,0-3.8,1.1-3.8,2.9c0,3.7,6.1,2.4,6.1,5.4c0,1.3-0.8,2.3-2.7,2.3
			c-1.1,0-2.4-0.4-3.2-1.1l-0.2,1c0.8,0.7,2.1,1,3.4,1C151.7,54.5,152.8,53.2,152.8,51.1z M159.7,53.5c-2.4,0-3.6-1.3-3.6-4.9
			c0-3.2,1-4.6,3.7-4.6c0.9,0,1.8,0.2,2.5,0.6l0.1-1.1c-0.7-0.4-1.8-0.6-2.8-0.6c-3.2,0-4.7,1.8-4.7,5.7c0,4.2,1.5,6,4.6,6
			c1.2,0,2.3-0.3,2.9-0.8l-0.1-1C161.6,53.2,160.7,53.5,159.7,53.5z M169.9,42.9c-1.4,0-2.6,0.5-3.4,1.4l0,0l0-1.5v-3.7l-1.2,0.1
			v15.1h1.2v-8.8c0.5-0.9,1.7-1.5,3.1-1.5c2,0,2.9,1,2.9,2.7v7.6h1.2v-7.6C173.7,44.2,172.4,42.9,169.9,42.9z M179.2,40
			c0-0.5-0.3-0.8-0.9-0.8s-0.9,0.3-0.9,0.8c0,0.6,0.3,0.8,0.9,0.8S179.2,40.5,179.2,40z M177.7,54.3h1.2V43l-1.2,0.1V54.3z
			 M190.2,46.7v7.6h1.1v-7.6c0-2.6-1.5-3.8-3.8-3.8c-1.4,0-2.7,0.6-3.4,1.5h-0.1l-0.2-1.3l-0.8,0.1v11.2h1.1v-8.8
			c0.6-1,2-1.5,3.1-1.5C189.2,44,190.2,44.8,190.2,46.7z M198.6,42.9c-3,0-4.5,1.9-4.5,5.4c0,4.3,1.4,6.2,5,6.2
			c1.3,0,2.4-0.3,3.4-0.9l-0.2-1c-1,0.5-1.9,0.8-3.1,0.8c-2.7,0-3.9-1.2-4-4.8h7.6c0-0.2,0-0.4,0-0.6
			C202.9,44.4,201.1,42.9,198.6,42.9z M195.3,47.8c0.1-2.6,1.1-3.9,3.3-3.9c1.9,0,3.2,1.1,3.3,3.9H195.3z M210.3,42.9
			c-1.4,0-2.7,0.6-3.4,1.5h-0.1l-0.2-1.3l-0.8,0.1v11.2h1.1v-8.8c0.6-1,2-1.5,3.1-1.5c1.9,0,3,0.8,3,2.7v7.6h1.1v-7.6
			C214.2,44.1,212.7,42.9,210.3,42.9z M8.7,79.3v-7.9c0-1.6,1.2-2.4,2.6-2.4c1.7,0,2.7,0.8,2.7,2.7v7.6h1.1v-7.6
			c0-2.6-1.5-3.7-3.6-3.7c-1.5,0-2.7,0.6-3.2,1.9H8.3c-0.5-1.2-1.5-1.9-3.1-1.9c-1.2,0-2.4,0.6-3,1.5H2.1L1.9,68l-0.8,0.1v11.2h1.1
			v-8.8C2.8,69.6,3.9,69,5,69c1.4,0,2.6,0.7,2.6,2.4v7.9H8.7z M19.7,64.2c-0.6,0-0.9,0.3-0.9,0.8c0,0.6,0.3,0.8,0.9,0.8
			s0.9-0.2,0.9-0.8C20.6,64.5,20.3,64.2,19.7,64.2z M19.1,79.3h1.2V68l-1.2,0.1V79.3z M26.3,65l-0.9,0.1l-0.2,2.9h-1.8V69h1.8v7.6
			c0,1.9,0.9,2.8,2.7,2.8c0.5,0,1.1-0.1,1.4-0.2l-0.1-0.9c-0.2,0.1-0.6,0.2-1,0.2c-1.1,0-1.8-0.5-1.8-1.9V69h3v-0.9h-3V65z
			 M38.5,79.3h1.2V68l-1.2,0.1V79.3z M40,65c0-0.5-0.3-0.8-0.9-0.8s-0.9,0.3-0.9,0.8c0,0.6,0.3,0.8,0.9,0.8S40,65.5,40,65z
			 M51.1,79.3h1.1v-7.6c0-2.6-1.5-3.8-3.8-3.8c-1.4,0-2.7,0.6-3.4,1.5h-0.1L44.7,68l-0.8,0.1v11.2h1.1v-8.8c0.6-1,2-1.5,3.1-1.5
			c1.9,0,3,0.8,3,2.7V79.3z M56.4,76.6c0,1.9,0.9,2.8,2.7,2.8c0.5,0,1.1-0.1,1.4-0.2l-0.1-0.9c-0.2,0.1-0.6,0.2-1,0.2
			c-1.1,0-1.8-0.5-1.8-1.9V69h3v-0.9h-3V65l-0.9,0.1l-0.2,2.9h-1.8V69h1.8V76.6z M70.5,77.6c-1,0.5-1.9,0.8-3.1,0.8
			c-2.7,0-3.9-1.2-4-4.8H71c0-0.2,0-0.4,0-0.6c0-3.6-1.8-5.2-4.3-5.2c-3,0-4.5,1.9-4.5,5.4c0,4.3,1.4,6.2,5,6.2
			c1.3,0,2.4-0.3,3.4-0.9L70.5,77.6z M66.7,68.9c1.9,0,3.2,1.1,3.3,3.9h-6.6C63.5,70.2,64.5,68.9,66.7,68.9z M82.1,67.9l-1.8,0.8
			c-0.7-0.6-1.8-0.8-2.8-0.8c-2.7,0-3.8,1.2-3.8,3.3c0,1.4,0.6,2.2,1.4,2.7c-0.9,0.3-1.5,0.9-1.5,1.6c0,0.8,0.5,1.3,1,1.5
			c-0.8,0.6-1.2,1.4-1.2,2.3c0,1.8,1.2,3,4.2,3c3.4,0,4.6-1.3,4.6-3.2c0-1.5-0.8-2.3-3.6-2.6L76,76.1c-0.9-0.1-1.3-0.5-1.3-0.9
			c0-0.5,0.4-0.9,1.2-1c0.5,0.2,1.1,0.2,1.6,0.2c2.8,0,3.8-1.1,3.8-3.2c0-0.7-0.2-1.3-0.4-1.7l1.5-1L82.1,67.9z M75.6,77.2l2.8,0.3
			c2.2,0.2,2.7,0.7,2.7,1.7c0,1.3-0.7,2.1-3.5,2.1c-2.2,0-3.1-0.8-3.1-2.1C74.4,78.4,74.8,77.7,75.6,77.2z M77.5,73.5
			c-1.5,0-2.7-0.4-2.7-2.3c0-1.6,0.7-2.3,2.7-2.3c1.9,0,2.7,0.6,2.7,2.3C80.2,72.7,79.5,73.5,77.5,73.5z M85.8,70.9L85.8,70.9
			l-0.1-1.5l0-1.3l-0.9,0.1v11.2h1.1v-5.7c0-2.7,1.6-4.5,3.5-4.5c0.4,0,0.7,0,1,0.2l0.1-1.2c-0.3-0.1-0.7-0.1-1.1-0.1
			C87.8,67.9,86.4,69.1,85.8,70.9z M93.6,79.3h1.2V68l-1.2,0.1V79.3z M94.2,64.2c-0.6,0-0.9,0.3-0.9,0.8c0,0.6,0.3,0.8,0.9,0.8
			s0.9-0.2,0.9-0.8C95.1,64.5,94.8,64.2,94.2,64.2z M102.8,67.9c-3,0-4.5,1.9-4.5,5.4c0,4.3,1.4,6.2,5,6.2c1.3,0,2.4-0.3,3.4-0.9
			l-0.2-1c-1,0.5-1.9,0.8-3.1,0.8c-2.7,0-3.9-1.2-4-4.8h7.6c0-0.2,0-0.4,0-0.6C107.1,69.4,105.3,67.9,102.8,67.9z M99.4,72.8
			c0.1-2.6,1.1-3.9,3.3-3.9c1.9,0,3.2,1.1,3.3,3.9H99.4z M111,70.9L111,70.9l-0.1-1.5l0-1.3l-0.9,0.1v11.2h1.1v-5.7
			c0-2.7,1.6-4.5,3.5-4.5c0.4,0,0.7,0,1,0.2l0.1-1.2c-0.3-0.1-0.7-0.1-1.1-0.1C113,67.9,111.7,69.1,111,70.9z M120.2,65l-0.9,0.1
			l-0.2,2.9h-1.8V69h1.8v7.6c0,1.9,0.9,2.8,2.7,2.8c0.5,0,1.1-0.1,1.4-0.2l-0.1-0.9c-0.2,0.1-0.6,0.2-1,0.2c-1.1,0-1.8-0.5-1.8-1.9
			V69h3v-0.9h-3V65z M129.3,67.9c-3,0-4.5,1.9-4.5,5.4c0,4.3,1.4,6.2,5,6.2c1.3,0,2.4-0.3,3.4-0.9l-0.2-1c-1,0.5-1.9,0.8-3.1,0.8
			c-2.7,0-3.9-1.2-4-4.8h7.6c0-0.2,0-0.4,0-0.6C133.7,69.4,131.9,67.9,129.3,67.9z M126,72.8c0.1-2.6,1.1-3.9,3.3-3.9
			c1.9,0,3.2,1.1,3.3,3.9H126z M137.6,70.9L137.6,70.9l-0.1-1.5l0-1.3l-0.9,0.1v11.2h1.1v-5.7c0-2.7,1.6-4.5,3.5-4.5
			c0.4,0,0.7,0,1,0.2l0.1-1.2c-0.3-0.1-0.7-0.1-1.1-0.1C139.6,67.9,138.3,69.1,137.6,70.9z M161.5,65H160l-4.9,6.2h-2.4V65h-1.3
			v14.2h1.3v-6.9h2.4l5.2,6.9h1.6l-5.7-7.5L161.5,65z M167.8,67.9c-3,0-4.5,1.9-4.5,5.4c0,4.3,1.4,6.2,5,6.2c1.3,0,2.4-0.3,3.4-0.9
			l-0.2-1c-1,0.5-1.9,0.8-3.1,0.8c-2.7,0-3.9-1.2-4-4.8h7.6c0-0.2,0-0.4,0-0.6C172.1,69.4,170.4,67.9,167.8,67.9z M164.5,72.8
			c0.1-2.6,1.1-3.9,3.3-3.9c1.9,0,3.2,1.1,3.3,3.9H164.5z M179.7,67.9c-1.4,0-2.6,0.5-3.4,1.4l0,0l0-1.5v-3.7l-1.2,0.1v15.1h1.2
			v-8.8c0.5-0.9,1.7-1.5,3.1-1.5c2,0,2.9,1,2.9,2.7v7.6h1.2v-7.6C183.5,69.2,182.2,67.9,179.7,67.9z M188,70.9L188,70.9l-0.1-1.5
			l0-1.3l-0.9,0.1v11.2h1.1v-5.7c0-2.7,1.6-4.5,3.5-4.5c0.4,0,0.7,0,1,0.2l0.1-1.2c-0.3-0.1-0.7-0.1-1.1-0.1
			C190,67.9,188.6,69.1,188,70.9z M194.4,73.3h4.8v-0.9h-4.8V73.3z M1.8,92.5v0.6H0V94h1.8v10.3H3V94h3.2v-0.9H3v-0.5
			c0-1.6,0.8-2.5,2.6-2.5c0.5,0,1,0.1,1.3,0.2L7,89.4c-0.4-0.1-1-0.2-1.6-0.2C2.9,89.2,1.8,90.5,1.8,92.5z M15.8,100.7
			c0,1.8-1.1,2.7-3,2.7c-2,0-3-1-3-2.7v-7.6H8.6v7.7c0,2.3,1.4,3.8,4.2,3.8c2.8,0,4.2-1.4,4.2-3.8v-7.7h-1.1V100.7z M24.9,92.9
			c-1.4,0-2.7,0.6-3.4,1.5h-0.1L21.2,93l-0.8,0.1v11.2h1.1v-8.8c0.6-1,2-1.5,3.1-1.5c1.9,0,3,0.8,3,2.7v7.6h1.1v-7.6
			C28.7,94.1,27.3,92.9,24.9,92.9z M40.7,93.1h-1.5l-3.9,4.7h-1.8v-8.6l-1.2,0.1v15.1h1.2v-5.5h1.8l4.2,5.5h1.5l-4.6-6.1L40.7,93.1z
			 M45,90l-0.9,0.1l-0.2,2.9h-1.8V94h1.8v7.6c0,1.9,0.9,2.8,2.7,2.8c0.5,0,1.1-0.1,1.4-0.2l-0.1-0.9c-0.2,0.1-0.6,0.2-1,0.2
			c-1.1,0-1.8-0.5-1.8-1.9V94h3v-0.9h-3V90z M51.1,104.3h1.2V93l-1.2,0.1V104.3z M51.7,89.2c-0.6,0-0.9,0.3-0.9,0.8
			c0,0.6,0.3,0.8,0.9,0.8s0.9-0.2,0.9-0.8C52.6,89.5,52.3,89.2,51.7,89.2z M60.5,92.9c-3.3,0-4.8,1.7-4.8,5.8c0,4.2,1.5,5.8,4.8,5.8
			c3.3,0,4.7-1.6,4.7-5.8C65.2,94.5,63.8,92.9,60.5,92.9z M60.5,103.5c-2.5,0-3.6-1.3-3.6-4.8c0-3.5,1-4.8,3.6-4.8
			c2.5,0,3.5,1.3,3.5,4.8C64,102.2,63,103.5,60.5,103.5z M72.6,92.9c-1.4,0-2.7,0.6-3.4,1.5h-0.1L68.9,93l-0.8,0.1v11.2h1.1v-8.8
			c0.6-1,2-1.5,3.1-1.5c1.9,0,3,0.8,3,2.7v7.6h1.1v-7.6C76.5,94.1,75,92.9,72.6,92.9z M80.4,102.7c-0.6,0-0.9,0.3-0.9,0.9
			c0,0.6,0.3,0.9,0.9,0.9c0.6,0,0.9-0.3,0.9-0.9S81,102.7,80.4,102.7z"/>
	</g>
</g>
</svg>
