<?xml version="1.0" encoding="utf-8"?>
<!-- Generator: Adobe Illustrator 16.0.0, SVG Export Plug-In . SVG Version: 6.00 Build 0)  -->
<!DOCTYPE svg PUBLIC "-//W3C//DTD SVG 1.1//EN" "http://www.w3.org/Graphics/SVG/1.1/DTD/svg11.dtd">
<svg version="1.1" id="Ebene_1" xmlns="http://www.w3.org/2000/svg" xmlns:xlink="http://www.w3.org/1999/xlink" x="0px" y="0px"
	 width="231px" height="122px" viewBox="0 0 231 122" enable-background="new 0 0 231 122" xml:space="preserve">
<g>
	<g>
		<path fill="#1A1A18" d="M8.8,6.5c2.3,0,3.3,1,3.3,2.7c0,3.8-4.9,8.6-10.9,15.2v4.7h18.3l0.2-6.5h-9.1l0-0.1
			c5.5-5.2,9.3-9.4,9.3-14c0-5.1-3.2-8.5-9.5-8.5C6.4,0,3.3,1.2,1,2.9l1.7,6C4.6,7.5,6.6,6.5,8.8,6.5z M34.9,0.3h-7.8v28.9h7.8V0.3z
			 M45,16.4l0-3.1l0.1,0l1.6,2.7l8.7,13.3h5.4V0.3h-6.7l0,11.9l0.1,3.1l-0.1,0l-9.3-15h-6.4v28.9H45V16.4z M70.8,9v15h-3.4v5.2h14.5
			V24h-3.4V0.3H74l-8.4,5.3l0.8,5.8L70.8,9z M89.8,14.6c2.7,0,3.9-1.5,3.9-3.7c0-2.3-1.2-3.7-3.9-3.7s-3.9,1.3-3.9,3.7
			C85.9,13.6,87.1,14.6,89.8,14.6z M89.8,29.6c2.7,0,3.9-1.5,3.9-3.7c0-2.3-1.2-3.7-3.9-3.7s-3.9,1.3-3.9,3.7
			C85.9,28.6,87.1,29.6,89.8,29.6z M8.4,63.6h1.9l5.5,11.7h8.9l-7.3-15l7-13.8h-8.5l-5.4,11.2h-2V46.5H0.9v28.9h7.6V63.6z
			 M45.6,68.8H34.3v-5.2h8.9v-6h-8.9v-4.5h10.8L45,46.5H26.8v28.9h18.7L45.6,68.8z M56.1,46.5h-7.6v28.9h7.6V64h7.1v11.3h7.6V46.5
			h-7.6v10.8h-7.1V46.5z M91.8,63.5c2.6-1.1,4-3.9,4-7.8c0-6.5-3.6-9.3-11-9.3h-10v28.9h7.6V65h2.6l3.9,10.3h8.8L91.8,63.5z
			 M84.8,59.4h-2.6v-6.7h2.6c2.2,0,2.9,0.7,2.9,3.3C87.8,58.8,87,59.4,84.8,59.4z M118.2,68.8h-11.3v-5.2h8.9v-6h-8.9v-4.5h10.8
			l-0.2-6.6H99.3v28.9H118L118.2,68.8z M127.7,62.5l0-3.1l0.1,0l1.6,2.7l8.7,13.3h5.4V46.5h-6.7l0,11.9l0.1,3.1l-0.1,0l-9.3-15h-6.4
			v28.9h6.7V62.5z M167.1,75.9c7.4,0,11.1-3.5,11.1-10.3V46.5h-7.6v18.9c0,2.7-0.9,3.7-3.5,3.7c-2.6,0-3.6-1.2-3.6-3.7V46.5h-7.6
			v19.1C155.9,72.3,159.6,75.9,167.1,75.9z M188.5,62.5l0-3.1l0.1,0l1.6,2.7l8.7,13.3h5.4V46.5h-6.7l0,11.9l0.1,3.1l-0.1,0l-9.3-15
			h-6.4v28.9h6.7V62.5z M218.5,46.5h-10.3v28.9h10.5c8.2,0,12.3-4,12.3-14.6C231,50.6,227.4,46.5,218.5,46.5z M218.6,68.8h-2.8V53.1
			h2.8c3.4,0,4.5,1.2,4.5,7.5C223,67.8,221.9,68.8,218.6,68.8z M7.3,100.9c0-1.2,0.6-2.1,3.5-2.1c1.9,0,4.1,0.4,6.3,1l0.9-6.3
			c-2.1-0.9-5-1.4-7.6-1.4c-7.2,0-10.3,4-10.3,9c0,9.4,11.5,8.3,11.5,12c0,1.5-0.9,2.3-3.3,2.3c-2.5,0-4.9-0.7-7.3-1.9L0,120
			c2.4,1.3,5.4,2,8.4,2c6.5,0,10.4-3.5,10.4-9.2C18.9,103.4,7.3,104.6,7.3,100.9z M34.3,115.5c-4.3,0-5.5-1.8-5.5-8.5
			c0-6.3,1.1-8.1,5.4-8.1c1.8,0,3.6,0.3,4.8,0.8l0.7-6.4c-1.5-0.6-4.1-1.1-6.1-1.1c-8.9,0-12.8,5.1-12.8,14.8
			c0,10.4,4,15.1,12.3,15.1c2.2,0,4.9-0.5,6.6-1.4l-0.7-6.1C37.7,115.1,36,115.5,34.3,115.5z M57.1,103.5h-7.1V92.7h-7.6v28.9h7.6
			v-11.3h7.1v11.3h7.6V92.7h-7.6V103.5z M76.2,109.8h8.9v-6h-8.9v-4.5H87l-0.2-6.6H68.7v28.9h18.7l0.2-6.5H76.2V109.8z M104.9,111.6
			c0,2.7-0.9,3.7-3.5,3.7c-2.6,0-3.6-1.2-3.6-3.7V92.7h-7.6v19.1c0,6.8,3.8,10.3,11.2,10.3s11.1-3.5,11.1-10.3V92.7h-7.6V111.6z
			 M123.7,109.8h8.9v-6h-8.9v-4.5h10.8l-0.2-6.6h-18.2v28.9h18.7l0.2-6.5h-11.3V109.8z M158.9,101.9c0-6.5-3.6-9.3-11-9.3h-10v28.9
			h7.6v-10.3h2.6l3.9,10.3h8.8l-5.7-11.8C157.5,108.6,158.9,105.8,158.9,101.9z M148,105.6h-2.6v-6.7h2.6c2.2,0,2.9,0.7,2.9,3.3
			C151,105,150.3,105.6,148,105.6z M178.2,104.5l0.1,3.1l-0.1,0l-9.3-15h-6.4v28.9h6.7v-12.8l0-3.1l0.1,0l1.6,2.7l8.7,13.3h5.4V92.7
			h-6.7L178.2,104.5z M210.5,114.6c-2.7,0-3.9,1.3-3.9,3.7c0,2.6,1.2,3.7,3.9,3.7c2.7,0,3.9-1.5,3.9-3.7
			C214.4,116,213.3,114.6,210.5,114.6z M201.4,114.6c-2.7,0-3.9,1.3-3.9,3.7c0,2.6,1.2,3.7,3.9,3.7c2.7,0,3.9-1.5,3.9-3.7
			C205.2,116,204.1,114.6,201.4,114.6z M192,114.6c-2.7,0-3.9,1.3-3.9,3.7c0,2.6,1.2,3.7,3.9,3.7c2.7,0,3.9-1.5,3.9-3.7
			C195.9,116,194.7,114.6,192,114.6z"/>
	</g>
</g>
</svg>
