<?xml version="1.0" encoding="utf-8"?>
<!-- Generator: Adobe Illustrator 16.0.0, SVG Export Plug-In . SVG Version: 6.00 Build 0)  -->
<!DOCTYPE svg PUBLIC "-//W3C//DTD SVG 1.1//EN" "http://www.w3.org/Graphics/SVG/1.1/DTD/svg11.dtd">
<svg version="1.1" id="Ebene_1" xmlns="http://www.w3.org/2000/svg" xmlns:xlink="http://www.w3.org/1999/xlink" x="0px" y="0px"
	 width="231.804px" height="53.418px" viewBox="-409.499 190.405 231.804 53.418"
	 enable-background="new -409.499 190.405 231.804 53.418" xml:space="preserve">
<g>
	<path d="M-384.701,243.823v-17.034h-10.545v17.034h-11.298V200.37h11.298v16.28h10.545v-16.28h11.356v43.453H-384.701z"/>
	<path d="M-345.073,236.233h-11.819l-1.68,7.59h-11.993l12.862-43.453h13.847l13.094,43.453h-12.631L-345.073,236.233z
		 M-356.371,198.284c-2.839,0-4.287-1.101-4.287-3.882c0-2.607,1.448-3.998,4.287-3.998c2.955,0,4.288,1.391,4.288,3.998
		C-352.083,196.951-353.416,198.284-356.371,198.284z M-351.967,214.333l-2.781,12.456h7.59l-2.781-12.456l-0.869-4.636h-0.173
		L-351.967,214.333z M-345.304,198.284c-2.839,0-4.288-1.101-4.288-3.882c0-2.607,1.449-3.998,4.288-3.998
		c2.955,0,4.287,1.391,4.287,3.998C-341.017,196.951-342.35,198.284-345.304,198.284z"/>
	<path d="M-302.315,226.037l8.459,17.786h-13.094l-5.793-15.527h-3.824v15.527h-11.298V200.37h15.006
		c11.008,0,16.455,4.171,16.455,13.963C-296.406,220.127-298.492,224.414-302.315,226.037z M-312.628,209.756h-3.94v10.023h3.882
		c3.303,0,4.461-0.812,4.461-5.041C-308.225,210.799-309.326,209.756-312.628,209.756z"/>
	<path d="M-272.652,210.51v33.313h-11.53V210.51h-9.849l0.232-10.14h30.765l0.232,10.14H-272.652z"/>
	<path d="M-231.111,234.031l-0.232,9.792h-27.984V200.37h27.231l0.232,9.966h-16.165v6.721h13.326v9.096h-13.326v7.879H-231.111z"/>
	<path d="M-201.216,226.037l8.459,17.786h-13.094l-5.793-15.527h-3.824v15.527h-11.298V200.37h15.006
		c11.008,0,16.455,4.171,16.455,13.963C-195.306,220.127-197.392,224.414-201.216,226.037z M-211.529,209.756h-3.94v10.023h3.882
		c3.303,0,4.461-0.812,4.461-5.041C-207.125,210.799-208.227,209.756-211.529,209.756z"/>
	<path d="M-185.284,244.519c-4.056,0-5.852-1.564-5.852-5.504c0-3.534,1.796-5.562,5.852-5.562s5.794,2.027,5.794,5.562
		C-179.49,242.316-181.229,244.519-185.284,244.519z"/>
</g>
</svg>
