<?xml version="1.0" encoding="utf-8"?>
<!-- Generator: Adobe Illustrator 16.0.0, SVG Export Plug-In . SVG Version: 6.00 Build 0)  -->
<!DOCTYPE svg PUBLIC "-//W3C//DTD SVG 1.1//EN" "http://www.w3.org/Graphics/SVG/1.1/DTD/svg11.dtd">
<svg version="1.1" id="Ebene_1" xmlns="http://www.w3.org/2000/svg" xmlns:xlink="http://www.w3.org/1999/xlink" x="0px" y="0px"
	 width="317.84px" height="124.848px" viewBox="0 0 317.84 124.848" enable-background="new 0 0 317.84 124.848"
	 xml:space="preserve">
<g>
	<path fill="#1A1A18" d="M19.366,25.417L19.222,31.5H1.836V4.503h16.917l0.144,6.191H8.855v4.175h8.279v5.651H8.855v4.896H19.366z"
		/>
	<path fill="#1A1A18" d="M37.87,31.5l-8.063-12.455l-1.512-2.483l-0.072,0.036l0.036,2.916V31.5h-6.191V4.503h5.903l8.675,14.002
		l0.072-0.036l-0.072-2.88l0.036-11.086h6.191V31.5H37.87z"/>
	<path fill="#1A1A18" d="M58.318,10.803V31.5h-7.163V10.803h-6.12l0.144-6.299h19.114l0.144,6.299H58.318z"/>
	<path fill="#1A1A18" d="M76.354,31.5h-9.754V4.503h9.611c8.207,0,11.554,3.815,11.554,13.354
		C87.764,27.756,83.949,31.5,76.354,31.5z M76.246,10.73h-2.627v14.614h2.627c3.096,0,4.14-0.936,4.14-7.559
		C80.385,11.811,79.414,10.73,76.246,10.73z"/>
	<path fill="#1A1A18" d="M108.249,25.417l-0.144,6.083H90.719V4.503h16.917l0.144,6.191H97.738v4.175h8.279v5.651h-8.279v4.896
		H108.249z"/>
	<path fill="#1A1A18" d="M126.609,11.019c-1.188-0.432-2.808-0.72-4.499-0.72c-3.996,0-5.003,1.691-5.003,7.595
		c0,6.228,1.116,7.955,5.111,7.955c1.656,0,3.204-0.324,4.463-0.9l0.648,5.723c-1.62,0.792-4.067,1.296-6.155,1.296
		c-7.703,0-11.447-4.391-11.447-14.11c0-9.071,3.636-13.822,11.878-13.822c1.908,0,4.248,0.432,5.688,1.008L126.609,11.019z"/>
	<path fill="#1A1A18" d="M143.745,31.5l-5.076-10.979h-1.728V31.5h-7.019V4.503h7.019v10.438h1.872l5.003-10.438h7.883
		l-6.479,12.922l6.803,14.074H143.745z"/>
	<path fill="#1A1A18" d="M171.536,25.417l-0.144,6.083h-17.386V4.503h16.918l0.144,6.191h-10.042v4.175h8.279v5.651h-8.279v4.896
		H171.536z"/>
	<path fill="#1A1A18" d="M190.041,31.5l-8.062-12.455l-1.513-2.483l-0.071,0.036l0.036,2.916V31.5h-6.191V4.503h5.903l8.675,14.002
		l0.072-0.036l-0.072-2.88l0.036-11.086h6.191V31.5H190.041z"/>
	<path fill="#1A1A18" d="M213.873,31.968c-2.844,0-5.651-0.648-7.847-1.872l0.899-5.975c2.196,1.116,4.428,1.8,6.768,1.8
		c2.231,0,3.096-0.756,3.096-2.196c0-3.456-10.727-2.376-10.727-11.195c0-4.715,2.88-8.459,9.539-8.459
		c2.483,0,5.146,0.468,7.091,1.296l-0.792,5.867c-2.052-0.612-4.104-0.972-5.831-0.972c-2.664,0-3.24,0.792-3.24,1.944
		c0,3.491,10.727,2.304,10.727,11.123C223.555,28.656,219.956,31.968,213.873,31.968z"/>
	<path fill="#1A1A18" d="M226.366,4.503h7.234V31.5h-7.234V4.503z"/>
	<path fill="#1A1A18" d="M255.09,25.417l-0.144,6.083h-17.386V4.503h16.918l0.144,6.191H244.58v4.175h8.279v5.651h-8.279v4.896
		H255.09z"/>
	<path fill="#1A1A18" d="M22.281,64.801c0,6.335-3.384,9.646-10.295,9.646S1.584,71.136,1.584,64.801V46.983h7.055v17.674
		c0,2.412,0.936,3.492,3.347,3.492c2.448,0,3.276-1.008,3.276-3.492V46.983h7.019V64.801z"/>
	<path fill="#1A1A18" d="M41.505,73.98l-8.063-12.455l-1.512-2.483l-0.072,0.036l0.036,2.916V73.98h-6.191V46.983h5.903
		l8.675,14.002l0.072-0.036l-0.072-2.88l0.036-11.086h6.191V73.98H41.505z"/>
	<path fill="#1A1A18" d="M57.239,74.448c-2.844,0-5.651-0.648-7.847-1.872l0.9-5.975c2.196,1.116,4.427,1.8,6.767,1.8
		c2.232,0,3.096-0.756,3.096-2.196c0-3.456-10.727-2.376-10.727-11.195c0-4.715,2.879-8.459,9.539-8.459
		c2.484,0,5.147,0.468,7.091,1.296l-0.792,5.867c-2.052-0.612-4.104-0.972-5.832-0.972c-2.664,0-3.239,0.792-3.239,1.944
		c0,3.491,10.727,2.304,10.727,11.123C66.921,71.136,63.322,74.448,57.239,74.448z"/>
	<path fill="#1A1A18" d="M86.973,67.897l-0.144,6.083H69.443V46.983H86.36l0.144,6.191H76.462v4.175h8.279v5.651h-8.279v4.896
		H86.973z"/>
	<path fill="#1A1A18" d="M105.549,62.929l5.255,11.051h-8.135l-3.6-9.647h-2.375v9.647h-7.019V46.983h9.323
		c6.839,0,10.223,2.592,10.223,8.675C109.22,59.258,107.924,61.921,105.549,62.929z M99.142,52.814h-2.448v6.228h2.412
		c2.052,0,2.771-0.504,2.771-3.132C101.877,53.462,101.193,52.814,99.142,52.814z"/>
	<path fill="#1A1A18" d="M130.1,67.897l-0.144,6.083H112.57V46.983h16.917l0.144,6.191h-10.042v4.175h8.279v5.651h-8.279v4.896
		H130.1z"/>
	<path fill="#1A1A18" d="M156.776,62.929l5.255,11.051h-8.135l-3.6-9.647h-2.375v9.647h-7.019V46.983h9.323
		c6.839,0,10.223,2.592,10.223,8.675C160.447,59.258,159.151,61.921,156.776,62.929z M150.369,52.814h-2.448v6.228h2.412
		c2.052,0,2.771-0.504,2.771-3.132C153.104,53.462,152.42,52.814,150.369,52.814z"/>
	<path fill="#1A1A18" d="M173.839,74.448c-7.774,0-11.302-4.104-11.302-13.966c0-9.898,3.384-13.93,11.302-13.93
		c7.92,0,11.303,4.032,11.303,13.93C185.142,70.632,181.759,74.448,173.839,74.448z M173.804,52.851
		c-2.952,0-3.888,1.224-3.888,7.631c0,6.443,0.972,7.739,3.959,7.739c2.988,0,3.888-1.332,3.888-7.739
		C177.763,54.039,176.864,52.851,173.804,52.851z"/>
	<path fill="#1A1A18" d="M198.608,73.98h-10.511V46.983h10.582c5.796,0,8.747,2.7,8.747,6.983c0,2.844-1.296,4.68-3.312,5.651v0.072
		c2.7,0.9,4.14,2.987,4.14,6.335C208.254,70.884,205.338,73.98,198.608,73.98z M198.392,52.887H194.9v4.751h3.563
		c1.62,0,2.196-0.612,2.196-2.448C200.66,53.427,200.047,52.887,198.392,52.887z M198.572,62.894H194.9v5.327h3.815
		c1.764,0,2.412-0.576,2.412-2.7C201.127,63.649,200.551,62.894,198.572,62.894z"/>
	<path fill="#1A1A18" d="M231.293,64.801c0,6.335-3.384,9.646-10.295,9.646s-10.402-3.312-10.402-9.646V46.983h7.055v17.674
		c0,2.412,0.937,3.492,3.348,3.492c2.448,0,3.275-1.008,3.275-3.492V46.983h7.02V64.801z"/>
	<path fill="#1A1A18" d="M241.52,74.448c-2.844,0-5.651-0.648-7.847-1.872l0.899-5.975c2.196,1.116,4.428,1.8,6.768,1.8
		c2.231,0,3.096-0.756,3.096-2.196c0-3.456-10.727-2.376-10.727-11.195c0-4.715,2.88-8.459,9.539-8.459
		c2.483,0,5.146,0.468,7.091,1.296l-0.792,5.867c-2.052-0.612-4.104-0.972-5.831-0.972c-2.664,0-3.24,0.792-3.24,1.944
		c0,3.491,10.727,2.304,10.727,11.123C251.203,71.136,247.604,74.448,241.52,74.448z"/>
	<path fill="#1A1A18" d="M264.919,53.283V73.98h-7.163V53.283h-6.119l0.144-6.299h19.114l0.144,6.299H264.919z"/>
	<path fill="#1A1A18" d="M290.73,67.897l-0.144,6.083h-17.386V46.983h16.918l0.144,6.191h-10.043v4.175h8.279v5.651h-8.279v4.896
		H290.73z"/>
	<path fill="#1A1A18" d="M309.234,73.98l-8.062-12.455l-1.513-2.483l-0.071,0.036l0.036,2.916V73.98h-6.191V46.983h5.903
		l8.675,14.002l0.072-0.036l-0.072-2.88l0.036-11.086h6.191V73.98H309.234z"/>
	<path fill="#1A1A18" d="M2.124,89.463h7.235v26.997H2.124V89.463z"/>
	<path fill="#1A1A18" d="M29.121,116.46l-8.063-12.455l-1.512-2.483l-0.072,0.036l0.036,2.916v11.986h-6.191V89.463h5.903
		l8.675,14.002l0.072-0.036l-0.072-2.88l0.036-11.086h6.191v26.997H29.121z"/>
	<path fill="#1A1A18" d="M47.554,116.46h-9.754V89.463h9.611c8.207,0,11.554,3.815,11.554,13.354
		C58.964,112.716,55.149,116.46,47.554,116.46z M47.446,95.69h-2.627v14.614h2.627c3.096,0,4.14-0.936,4.14-7.559
		C51.585,96.771,50.614,95.69,47.446,95.69z"/>
	<path fill="#1A1A18" d="M82.364,107.281c0,6.335-3.384,9.646-10.295,9.646s-10.402-3.312-10.402-9.646V89.463h7.055v17.674
		c0,2.412,0.936,3.492,3.347,3.492c2.448,0,3.276-1.008,3.276-3.492V89.463h7.019V107.281z"/>
	<path fill="#1A1A18" d="M92.59,116.928c-2.844,0-5.651-0.648-7.847-1.872l0.9-5.975c2.196,1.116,4.427,1.8,6.767,1.8
		c2.232,0,3.096-0.756,3.096-2.196c0-3.456-10.727-2.376-10.727-11.195c0-4.715,2.879-8.459,9.539-8.459
		c2.484,0,5.147,0.468,7.091,1.296l-0.792,5.867c-2.052-0.612-4.104-0.972-5.832-0.972c-2.664,0-3.239,0.792-3.239,1.944
		c0,3.491,10.727,2.304,10.727,11.123C102.273,113.616,98.673,116.928,92.59,116.928z"/>
	<path fill="#1A1A18" d="M115.99,95.763v20.697h-7.163V95.763h-6.12l0.144-6.299h19.114l0.144,6.299H115.99z"/>
	<path fill="#1A1A18" d="M140.145,105.409l5.255,11.051h-8.135l-3.6-9.647h-2.375v9.647h-7.019V89.463h9.323
		c6.839,0,10.223,2.592,10.223,8.675C143.816,101.738,142.521,104.401,140.145,105.409z M133.738,95.294h-2.448v6.228h2.412
		c2.052,0,2.771-0.504,2.771-3.132C136.473,95.942,135.79,95.294,133.738,95.294z"/>
	<path fill="#1A1A18" d="M147.454,89.463h7.235v26.997h-7.235V89.463z"/>
	<path fill="#1A1A18" d="M176.179,110.377l-0.144,6.083H158.65V89.463h16.918l0.144,6.191h-10.042v4.175h8.279v5.651h-8.279v4.896
		H176.179z"/>
	<path fill="#1A1A18" d="M185.936,116.928c-2.844,0-5.651-0.648-7.847-1.872l0.899-5.975c2.196,1.116,4.428,1.8,6.768,1.8
		c2.231,0,3.096-0.756,3.096-2.196c0-3.456-10.727-2.376-10.727-11.195c0-4.715,2.88-8.459,9.539-8.459
		c2.483,0,5.146,0.468,7.091,1.296l-0.792,5.867c-2.052-0.612-4.104-0.972-5.831-0.972c-2.664,0-3.24,0.792-3.24,1.944
		c0,3.491,10.727,2.304,10.727,11.123C195.619,113.616,192.02,116.928,185.936,116.928z"/>
	<path fill="#1A1A18" d="M211.387,111.745h-7.343L203,116.46h-7.451l7.991-26.997h8.603l8.136,26.997h-7.848L211.387,111.745z
		 M207.104,98.138l-1.728,7.739h4.715l-1.728-7.739l-0.54-2.879h-0.107L207.104,98.138z"/>
	<path fill="#1A1A18" d="M241.411,107.281c0,6.335-3.384,9.646-10.295,9.646s-10.402-3.312-10.402-9.646V89.463h7.055v17.674
		c0,2.412,0.937,3.492,3.348,3.492c2.448,0,3.275-1.008,3.275-3.492V89.463h7.02V107.281z"/>
	<path fill="#1A1A18" d="M263.911,115.488c-1.871,0.9-4.931,1.476-7.703,1.476c-8.927,0-12.094-4.788-12.094-14.002
		c0-9.431,3.707-13.966,12.418-13.966c2.376,0,5.075,0.432,7.02,1.188l-0.648,6.011c-1.764-0.648-4.031-1.044-5.975-1.044
		c-4.428,0-5.436,1.656-5.436,7.739c0,6.407,1.044,7.811,4.535,7.811c0.54,0,1.116-0.036,1.62-0.144v-8.819h6.263V115.488z"/>
	<path fill="#1A1A18" d="M284.646,110.377l-0.144,6.083h-17.386V89.463h16.918l0.144,6.191h-10.043v4.175h8.279v5.651h-8.279v4.896
		H284.646z"/>
	<path fill="#1A1A18" d="M303.222,105.409l5.255,11.051h-8.135l-3.6-9.647h-2.376v9.647h-7.019V89.463h9.322
		c6.84,0,10.223,2.592,10.223,8.675C306.893,101.738,305.598,104.401,303.222,105.409z M296.815,95.294h-2.448v6.228h2.412
		c2.052,0,2.771-0.504,2.771-3.132C299.55,95.942,298.867,95.294,296.815,95.294z"/>
	<path fill="#1A1A18" d="M313.125,116.892c-2.521,0-3.636-0.972-3.636-3.42c0-2.196,1.115-3.456,3.636-3.456
		c2.52,0,3.6,1.26,3.6,3.456C316.724,115.524,315.644,116.892,313.125,116.892z"/>
</g>
</svg>
