<?xml version="1.0" encoding="utf-8"?>
<!-- Generator: Adobe Illustrator 16.0.4, SVG Export Plug-In . SVG Version: 6.00 Build 0)  -->
<!DOCTYPE svg PUBLIC "-//W3C//DTD SVG 1.1//EN" "http://www.w3.org/Graphics/SVG/1.1/DTD/svg11.dtd">
<svg version="1.1" id="Ebene_1" xmlns="http://www.w3.org/2000/svg" xmlns:xlink="http://www.w3.org/1999/xlink" x="0px" y="0px"
	 width="207.447px" height="138.752px" viewBox="0 0 207.447 138.752" enable-background="new 0 0 207.447 138.752"
	 xml:space="preserve">
<g>
	<path d="M27.602,36.752c-2.6,1.25-6.851,2.05-10.701,2.05C4.5,38.803,0.1,32.152,0.1,19.352C0.1,6.25,5.25-0.05,17.352-0.05
		c3.3,0,7.05,0.6,9.75,1.65l-0.9,8.351c-2.449-0.9-5.6-1.45-8.301-1.45c-6.15,0-7.55,2.3-7.55,10.751c0,8.9,1.45,10.851,6.3,10.851
		c0.75,0,1.551-0.05,2.25-0.2v-12.25h8.701V36.752z"/>
	<path d="M54.101,22.751l7.3,15.351H50.1l-5-13.401h-3.3v13.401h-9.751V0.6H45c9.5,0,14.201,3.601,14.201,12.051
		C59.201,17.651,57.4,21.352,54.101,22.751z M45.2,8.701h-3.4v8.65h3.351c2.85,0,3.85-0.7,3.85-4.35
		C49,9.601,48.051,8.701,45.2,8.701z"/>
	<path d="M83.199,31.552h-10.2l-1.45,6.55H61.198L72.299,0.6H84.25l11.301,37.502h-10.9L83.199,31.552z M77.25,12.651l-2.4,10.751
		h6.55L79,12.651l-0.75-4H78.1L77.25,12.651z"/>
	<path d="M111.051,9.351v28.752H101.1V9.351h-8.5l0.199-8.75h26.552l0.2,8.75H111.051z"/>
	<path d="M122.949,0.6H133v37.502h-10.051V0.6z"/>
	<path d="M148.299,38.752c-3.951,0-7.851-0.9-10.9-2.6l1.25-8.3c3.05,1.55,6.15,2.5,9.4,2.5c3.1,0,4.3-1.05,4.3-3.05
		c0-4.8-14.901-3.3-14.901-15.551c0-6.55,4.001-11.751,13.252-11.751c3.449,0,7.15,0.65,9.85,1.8l-1.1,8.15
		c-2.85-0.85-5.7-1.35-8.101-1.35c-3.7,0-4.5,1.1-4.5,2.7c0,4.851,14.901,3.2,14.901,15.451
		C161.75,34.152,156.749,38.752,148.299,38.752z"/>
	<path d="M25.451,79.652l-0.199,8.451H1.1V50.6h23.502l0.199,8.601h-13.95v5.8h11.501v7.851H10.851v6.8H25.451z"/>
	<path d="M41.7,66.101v6.5H27.75v-6.5H41.7z"/>
	<path d="M60.7,88.103H46.1V50.6h14.701c8.051,0,12.15,3.75,12.15,9.701c0,3.95-1.801,6.5-4.601,7.851v0.1
		c3.751,1.25,5.751,4.15,5.751,8.8C74.102,83.802,70.051,88.103,60.7,88.103z M60.4,58.801H55.55v6.601h4.95
		c2.25,0,3.051-0.85,3.051-3.4C63.551,59.551,62.701,58.801,60.4,58.801z M60.65,72.702H55.55v7.4h5.301
		c2.45,0,3.351-0.8,3.351-3.75C64.201,73.751,63.4,72.702,60.65,72.702z"/>
	<path d="M92.699,88.752c-10.801,0-15.7-5.7-15.7-19.401c0-13.751,4.7-19.352,15.7-19.352c11.002,0,15.701,5.601,15.701,19.352
		C108.4,83.452,103.701,88.752,92.699,88.752z M92.65,58.751c-4.102,0-5.4,1.7-5.4,10.601c0,8.95,1.35,10.75,5.5,10.75
		s5.4-1.85,5.4-10.75C98.15,60.401,96.9,58.751,92.65,58.751z"/>
	<path d="M127.199,88.752c-10.801,0-15.701-5.7-15.701-19.401c0-13.751,4.701-19.352,15.701-19.352
		C138.2,50,142.9,55.601,142.9,69.352C142.9,83.452,138.2,88.752,127.199,88.752z M127.149,58.751c-4.101,0-5.4,1.7-5.4,10.601
		c0,8.95,1.351,10.75,5.501,10.75c4.149,0,5.399-1.85,5.399-10.75C132.649,60.401,131.399,58.751,127.149,58.751z"/>
	<path d="M166.199,88.103l-7.051-15.251h-2.4v15.251h-9.75V50.6h9.75v14.501h2.601l6.95-14.501h10.951l-9.001,17.951l9.45,19.551
		H166.199z"/>
	<path d="M10.9,138.752c-3.95,0-7.85-0.9-10.9-2.6l1.25-8.3c3.051,1.55,6.15,2.5,9.4,2.5c3.101,0,4.301-1.05,4.301-3.05
		c0-4.8-14.901-3.3-14.901-15.551c0-6.55,4.001-11.751,13.251-11.751c3.45,0,7.15,0.65,9.851,1.8l-1.101,8.15
		c-2.85-0.85-5.699-1.35-8.1-1.35c-3.701,0-4.5,1.1-4.5,2.7c0,4.851,14.9,3.2,14.9,15.451
		C24.352,134.152,19.352,138.752,10.9,138.752z"/>
	<path d="M28.25,100.6h10.051v37.502H28.25V100.6z"/>
	<path d="M66.25,109.651c-1.65-0.6-3.9-1-6.25-1c-5.551,0-6.951,2.35-6.951,10.55c0,8.651,1.551,11.051,7.102,11.051
		c2.299,0,4.449-0.45,6.199-1.25l0.9,7.951c-2.25,1.1-5.65,1.8-8.551,1.8c-10.7,0-15.9-6.1-15.9-19.601
		c0-12.601,5.051-19.201,16.501-19.201c2.649,0,5.9,0.6,7.9,1.4L66.25,109.651z"/>
	<path d="M89.699,138.103v-14.701h-9.101v14.701h-9.751V100.6h9.751v14.051h9.101V100.6H99.5v37.502H89.699z"/>
	<path d="M128.899,129.652l-0.2,8.451h-24.151V100.6h23.501l0.2,8.601h-13.95v5.8h11.5v7.851h-11.5v6.8H128.899z"/>
	<path d="M154.699,122.751l7.3,15.351h-11.301l-5-13.401h-3.3v13.401h-9.751V100.6h12.95c9.501,0,14.201,3.601,14.201,12.051
		C159.799,117.651,157.999,121.352,154.699,122.751z M145.799,108.701h-3.4v8.65h3.35c2.85,0,3.85-0.7,3.85-4.35
		C149.598,109.601,148.648,108.701,145.799,108.701z"/>
	<path d="M186.398,138.103l-11.201-17.301l-2.1-3.45l-0.101,0.05l0.05,4.05v16.651h-8.6V100.6h8.199l12.051,19.451l0.101-0.05
		l-0.101-4l0.051-15.401h8.601v37.502H186.398z"/>
	<path d="M202.446,138.703c-3.5,0-5.05-1.35-5.05-4.75c0-3.05,1.55-4.8,5.05-4.8c3.501,0,5.001,1.75,5.001,4.8
		C207.447,136.802,205.947,138.703,202.446,138.703z"/>
</g>
</svg>
