<?xml version="1.0" encoding="utf-8"?>
<!-- Generator: Adobe Illustrator 16.0.4, SVG Export Plug-In . SVG Version: 6.00 Build 0)  -->
<!DOCTYPE svg PUBLIC "-//W3C//DTD SVG 1.1//EN" "http://www.w3.org/Graphics/SVG/1.1/DTD/svg11.dtd">
<svg version="1.1" id="Ebene_1" xmlns="http://www.w3.org/2000/svg" xmlns:xlink="http://www.w3.org/1999/xlink" x="0px" y="0px"
	 width="161.668px" height="143.309px" viewBox="0 0 161.668 143.309" enable-background="new 0 0 161.668 143.309"
	 xml:space="preserve">
<g>
	<path d="M15.27,17.818l-0.12,5.07H0.66V0.39h14.1l0.119,5.159H6.51v3.48h6.899v4.71H6.51v4.079H15.27z"/>
	<path d="M30.689,22.889L23.969,12.51l-1.26-2.07l-0.06,0.029l0.03,2.43v9.99h-5.16V0.39h4.92l7.229,11.669l0.06-0.029l-0.06-2.4
		l0.03-9.239h5.16v22.499H30.689z"/>
	<path d="M47.729,5.639v17.25H41.76V5.639h-5.1l0.119-5.249h15.93l0.12,5.249H47.729z"/>
	<path d="M62.76,22.889h-8.131V0.39h8.01c6.84,0,9.631,3.18,9.631,11.13C72.27,19.769,69.089,22.889,62.76,22.889z M62.67,5.58
		h-2.19v12.179h2.19c2.579,0,3.449-0.78,3.449-6.3C66.119,6.479,65.309,5.58,62.67,5.58z"/>
	<path d="M89.339,17.818l-0.12,5.07H74.729V0.39h14.1l0.12,5.159H80.58v3.48h6.898v4.71H80.58v4.079H89.339z"/>
	<path d="M104.639,5.819c-0.99-0.36-2.34-0.601-3.75-0.601c-3.329,0-4.17,1.41-4.17,6.33c0,5.189,0.931,6.63,4.26,6.63
		c1.381,0,2.67-0.271,3.721-0.75l0.54,4.771c-1.351,0.66-3.39,1.08-5.13,1.08c-6.42,0-9.539-3.66-9.539-11.76
		C90.57,3.959,93.6,0,100.469,0c1.59,0,3.541,0.359,4.74,0.84L104.639,5.819z"/>
	<path d="M118.918,22.889l-4.229-9.149h-1.44v9.149h-5.851V0.39h5.851v8.7h1.56l4.17-8.7h6.57l-5.4,10.77l5.67,11.729H118.918z"/>
	<path d="M142.078,17.818l-0.119,5.07h-14.49V0.39h14.1l0.12,5.159h-8.37v3.48h6.9v4.71h-6.9v4.079H142.078z"/>
	<path d="M157.498,22.889l-6.72-10.379l-1.26-2.07l-0.06,0.029l0.029,2.43v9.99h-5.16V0.39h4.92l7.23,11.669l0.06-0.029l-0.06-2.4
		l0.029-9.239h5.16v22.499H157.498z"/>
	<path d="M6.539,53.279c-2.369,0-4.709-0.541-6.539-1.561l0.75-4.98c1.83,0.931,3.689,1.5,5.64,1.5c1.86,0,2.58-0.629,2.58-1.829
		c0-2.88-8.94-1.979-8.94-9.33c0-3.93,2.4-7.05,7.95-7.05c2.069,0,4.29,0.391,5.909,1.08L13.229,36
		c-1.71-0.511-3.42-0.811-4.86-0.811c-2.22,0-2.699,0.66-2.699,1.62c0,2.909,8.939,1.92,8.939,9.27
		C14.609,50.519,11.609,53.279,6.539,53.279z"/>
	<path d="M16.949,30.39h6.03v22.499h-6.03V30.39z"/>
	<path d="M40.889,47.818l-0.12,5.07H26.279V30.39h14.1l0.119,5.159h-8.369v3.48h6.899v4.71h-6.899v4.079H40.889z"/>
	<path d="M66.928,45.238c0,5.28-2.82,8.041-8.58,8.041s-8.67-2.761-8.67-8.041V30.39h5.881v14.729c0,2.01,0.779,2.91,2.789,2.91
		c2.04,0,2.73-0.84,2.73-2.91V30.39h5.85V45.238z"/>
	<path d="M82.947,52.889l-6.72-10.379l-1.26-2.07l-0.06,0.029l0.029,2.43v9.99h-5.16V30.39h4.92l7.23,11.669l0.06-0.029l-0.06-2.4
		l0.029-9.239h5.16v22.499H82.947z"/>
	<path d="M96.058,53.279c-2.37,0-4.71-0.541-6.54-1.561l0.75-4.98c1.83,0.931,3.689,1.5,5.641,1.5c1.859,0,2.579-0.629,2.579-1.829
		c0-2.88-8.939-1.979-8.939-9.33c0-3.93,2.399-7.05,7.95-7.05c2.069,0,4.289,0.391,5.909,1.08L102.748,36
		c-1.711-0.511-3.42-0.811-4.86-0.811c-2.22,0-2.7,0.66-2.7,1.62c0,2.909,8.939,1.92,8.939,9.27
		C104.127,50.519,101.127,53.279,96.058,53.279z"/>
	<path d="M120.837,47.818l-0.12,5.07h-14.489V30.39h14.1l0.12,5.159h-8.369v3.48h6.898v4.71h-6.898v4.079H120.837z"/>
	<path d="M136.316,43.68l4.381,9.209h-6.78l-3-8.039h-1.979v8.039h-5.85V30.39h7.77c5.699,0,8.52,2.159,8.52,7.229
		C139.377,40.619,138.297,42.839,136.316,43.68z M130.977,35.25h-2.039v5.189h2.01c1.71,0,2.311-0.42,2.311-2.61
		C133.258,35.789,132.688,35.25,130.977,35.25z"/>
	<path d="M156.776,47.818l-0.12,5.07h-14.489V30.39h14.1l0.12,5.159h-8.369v3.48h6.898v4.71h-6.898v4.079H156.776z"/>
	<path d="M13.889,73.68l4.381,9.209h-6.78l-3-8.039H6.51v8.039H0.66V60.39h7.77c5.699,0,8.52,2.159,8.52,7.229
		C16.949,70.619,15.869,72.839,13.889,73.68z M8.549,65.25H6.51v5.189h2.01c1.71,0,2.311-0.42,2.311-2.61
		C10.83,65.789,10.26,65.25,8.549,65.25z"/>
	<path d="M28.109,83.279c-6.48,0-9.42-3.42-9.42-11.641c0-8.249,2.82-11.609,9.42-11.609s9.419,3.36,9.419,11.609
		C37.528,80.099,34.709,83.279,28.109,83.279z M28.079,65.279c-2.46,0-3.24,1.02-3.24,6.359c0,5.37,0.81,6.45,3.3,6.45
		s3.24-1.11,3.24-6.45C31.379,66.27,30.629,65.279,28.079,65.279z"/>
	<path d="M48.748,82.889h-8.76V60.39h8.82c4.83,0,7.289,2.25,7.289,5.819c0,2.37-1.079,3.9-2.76,4.71v0.06
		c2.25,0.75,3.45,2.49,3.45,5.28C56.788,80.309,54.358,82.889,48.748,82.889z M48.568,65.31h-2.91v3.96h2.971
		c1.35,0,1.83-0.51,1.83-2.04C50.459,65.76,49.949,65.31,48.568,65.31z M48.719,73.648h-3.061v4.44h3.18
		c1.471,0,2.011-0.479,2.011-2.25C50.849,74.279,50.369,73.648,48.719,73.648z"/>
	<path d="M75.988,75.238c0,5.28-2.82,8.041-8.58,8.041s-8.67-2.761-8.67-8.041V60.39h5.881v14.729c0,2.01,0.779,2.91,2.789,2.91
		c2.04,0,2.73-0.84,2.73-2.91V60.39h5.85V75.238z"/>
	<path d="M84.509,83.279c-2.37,0-4.71-0.541-6.54-1.561l0.75-4.98c1.83,0.931,3.689,1.5,5.641,1.5c1.859,0,2.579-0.629,2.579-1.829
		c0-2.88-8.939-1.979-8.939-9.33c0-3.93,2.399-7.05,7.95-7.05c2.069,0,4.289,0.391,5.909,1.08L91.199,66
		c-1.711-0.511-3.42-0.811-4.86-0.811c-2.22,0-2.7,0.66-2.7,1.62c0,2.909,8.939,1.92,8.939,9.27
		C92.578,80.519,89.578,83.279,84.509,83.279z"/>
	<path d="M104.008,65.639v17.25h-5.969v-17.25h-5.1l0.119-5.249h15.93l0.12,5.249H104.008z"/>
	<path d="M125.518,77.818l-0.119,5.07h-14.49V60.39h14.1l0.121,5.159h-8.37v3.48h6.899v4.71h-6.899v4.079H125.518z"/>
	<path d="M140.938,82.889l-6.719-10.379l-1.26-2.07l-0.061,0.029l0.03,2.43v9.99h-5.16V60.39h4.92l7.229,11.669l0.061-0.029
		l-0.061-2.4l0.03-9.239h5.159v22.499H140.938z"/>
	<path d="M0.9,90.39H6.93v22.499H0.9V90.39z"/>
	<path d="M23.398,112.889l-6.72-10.379l-1.26-2.07l-0.06,0.029l0.029,2.43v9.99h-5.16V90.39h4.92l7.23,11.669l0.06-0.029l-0.06-2.4
		l0.029-9.239h5.16v22.499H23.398z"/>
	<path d="M38.759,112.889h-8.13V90.39h8.01c6.84,0,9.63,3.18,9.63,11.13C48.269,109.769,45.088,112.889,38.759,112.889z
		 M38.669,95.58h-2.19v12.179h2.19c2.579,0,3.45-0.78,3.45-6.3C42.119,96.479,41.309,95.58,38.669,95.58z"/>
	<path d="M67.769,105.238c0,5.28-2.819,8.041-8.579,8.041s-8.67-2.761-8.67-8.041V90.39h5.879v14.729c0,2.01,0.78,2.91,2.791,2.91
		c2.039,0,2.729-0.84,2.729-2.91V90.39h5.85V105.238z"/>
	<path d="M76.289,113.279c-2.37,0-4.71-0.541-6.539-1.561l0.75-4.98c1.829,0.931,3.689,1.5,5.639,1.5c1.86,0,2.58-0.629,2.58-1.829
		c0-2.88-8.939-1.979-8.939-9.33c0-3.93,2.4-7.05,7.949-7.05c2.07,0,4.291,0.391,5.91,1.08L82.979,96
		c-1.709-0.511-3.42-0.811-4.859-0.811c-2.221,0-2.7,0.66-2.7,1.62c0,2.909,8.94,1.92,8.94,9.27
		C84.359,110.519,81.359,113.279,76.289,113.279z"/>
	<path d="M95.789,95.639v17.25h-5.971v-17.25h-5.1l0.121-5.249h15.929l0.12,5.249H95.789z"/>
	<path d="M115.918,103.68l4.381,9.209h-6.78l-3-8.039h-1.979v8.039h-5.85V90.39h7.77c5.699,0,8.52,2.159,8.52,7.229
		C118.979,100.619,117.898,102.839,115.918,103.68z M110.578,95.25h-2.039v5.189h2.01c1.71,0,2.311-0.42,2.311-2.61
		C112.859,95.789,112.289,95.25,110.578,95.25z"/>
	<path d="M122.009,90.39h6.03v22.499h-6.03V90.39z"/>
	<path d="M145.947,107.818l-0.119,5.07h-14.49V90.39h14.1l0.12,5.159h-8.37v3.48h6.9v4.71h-6.9v4.079H145.947z"/>
	<path d="M155.697,99.689v3.899h-8.369v-3.899H155.697z"/>
	<path d="M6.539,143.279c-2.369,0-4.709-0.541-6.539-1.561l0.75-4.98c1.83,0.931,3.689,1.5,5.64,1.5c1.86,0,2.58-0.629,2.58-1.829
		c0-2.88-8.94-1.979-8.94-9.33c0-3.93,2.4-7.05,7.95-7.05c2.069,0,4.29,0.391,5.909,1.08L13.229,126
		c-1.71-0.511-3.42-0.811-4.86-0.811c-2.22,0-2.699,0.66-2.699,1.62c0,2.909,8.939,1.92,8.939,9.27
		C14.609,140.519,11.609,143.279,6.539,143.279z"/>
	<path d="M27.75,138.959h-6.121l-0.869,3.93h-6.21l6.659-22.499h7.17l6.78,22.499h-6.54L27.75,138.959z M24.18,127.619l-1.439,6.449
		h3.93l-1.44-6.449l-0.45-2.4h-0.09L24.18,127.619z"/>
	<path d="M52.77,135.238c0,5.28-2.82,8.041-8.58,8.041s-8.67-2.761-8.67-8.041V120.39h5.88v14.729c0,2.01,0.78,2.91,2.79,2.91
		c2.039,0,2.729-0.84,2.729-2.91V120.39h5.851V135.238z"/>
	<path d="M71.519,142.078c-1.56,0.75-4.11,1.23-6.419,1.23c-7.44,0-10.08-3.99-10.08-11.67c0-7.859,3.09-11.639,10.35-11.639
		c1.979,0,4.229,0.359,5.85,0.99l-0.54,5.01c-1.47-0.541-3.36-0.871-4.979-0.871c-3.69,0-4.53,1.381-4.53,6.45
		c0,5.34,0.87,6.51,3.78,6.51c0.449,0,0.93-0.03,1.35-0.12v-7.35h5.22V142.078z"/>
	<path d="M88.799,137.818l-0.12,5.07H74.189V120.39h14.1l0.119,5.159h-8.369v3.48h6.899v4.71h-6.899v4.079H88.799z"/>
	<path d="M104.278,133.68l4.38,9.209h-6.779l-3-8.039h-1.98v8.039h-5.85V120.39h7.77c5.7,0,8.52,2.159,8.52,7.229
		C107.338,130.619,106.258,132.839,104.278,133.68z M98.938,125.25h-2.04v5.189h2.01c1.711,0,2.311-0.42,2.311-2.61
		C101.219,125.789,100.648,125.25,98.938,125.25z"/>
	<path d="M112.528,143.248c-2.1,0-3.03-0.81-3.03-2.85c0-1.83,0.931-2.879,3.03-2.879c2.101,0,3,1.049,3,2.879
		C115.528,142.109,114.629,143.248,112.528,143.248z"/>
</g>
</svg>
