<svg enable-background="new 0 0 277.7 109.9" viewBox="0 0 277.7 109.9" xmlns="http://www.w3.org/2000/svg"><path clip-rule="evenodd" d="m262.1 80.8 1.5 2.5-1.9 1.4-2.2-2.1-2.3 2.2-1.9-1.4 1.5-2.6-2.7-1.2.9-2.5 2.8.6.4-2.9h2.5l.4 2.9 2.7-.6.9 2.4zm-12.1 17.5c-2.1 0-3-.8-3-2.8 0-1.8.9-2.8 3-2.8s3 1 3 2.8c0 1.7-.9 2.8-3 2.8zm-16.3-10.6-1.3-2h-.1v2.4 9.8h-5.1v-22.1h4.9l7.2 11.5h.1l-.1-2.4v-9.1h5.1v22.2h-4.1zm-14.6 10.2-3-7.9h-2v7.9h-5.8v-22.1h7.7c5.7 0 8.5 2.1 8.5 7.1 0 3-1.1 5.1-3 6l4.4 9.1h-6.8zm-2.9-17.4h-2v5.1h2c1.7 0 2.3-.4 2.3-2.6 0-1.9-.6-2.5-2.3-2.5zm-17.5-15.6h-8.1v-22.1h8c6.8 0 9.6 3.1 9.6 11-.1 8-3.2 11.1-9.5 11.1zm-.1-17h-2.2v12h2.2c2.6 0 3.4-.8 3.4-6.2 0-4.9-.8-5.8-3.4-5.8zm-15.8 41.3h-5.4v8.7h-5.8v-22.1h5.8v8.3h5.4v-8.3h5.8v22.2h-5.8zm-6-34.5-1.3-2h-.1v2.4 9.8h-5.1v-22.1h4.9l7.2 11.5h.1l-.1-2.4v-9.1h5.1v22.2h-4.1zm-11.6 38.6c1.4 0 2.7-.3 3.7-.7l.5 4.7c-1.3.7-3.4 1.1-5.1 1.1-6.4 0-9.5-3.6-9.5-11.6 0-7.4 3-11.3 9.8-11.3 1.6 0 3.5.4 4.7.8l-.6 4.9c-1-.4-2.3-.6-3.7-.6-3.3 0-4.1 1.4-4.1 6.2 0 5.1 1 6.5 4.3 6.5zm-6.2-28c-5.7 0-8.6-2.7-8.6-7.9v-14.6h5.8v14.5c0 2 .8 2.9 2.8 2.9s2.7-.8 2.7-2.9v-14.5h5.8v14.6c0 5.2-2.8 7.9-8.5 7.9zm-14.3-33.4h-5.9v-17h-5.1l.1-5.2h15.8l.1 5.2h-5.1v17zm-16.7-23.2c-1.5 0-2.2-.6-2.2-2 0-1.3.7-2 2.2-2s2.2.7 2.2 2-.7 2-2.2 2zm-5.7 0c-1.5 0-2.2-.6-2.2-2 0-1.3.7-2 2.2-2s2.2.7 2.2 2-.7 2-2.2 2zm-.7 1.1h7.1l6.7 22.2h-6.4l-.9-3.9h-6.1l-.9 3.9h-6-.1-6.6l-3-7.9h-2v7.9h-5.8v-22.2h7.7c5.7 0 8.5 2.1 8.5 7.1 0 3-1.1 5.1-3 6l4.3 8.9zm5.4 13.4-1.4-6.4-.4-2.4h-.1l-.5 2.4-1.4 6.4zm-21.5-8.7h-2v5.1h2c1.7 0 2.3-.4 2.3-2.6-.1-1.9-.6-2.5-2.3-2.5zm-1.6 34c0 2.3-1.1 3.8-2.7 4.6v.1c2.2.7 3.4 2.5 3.4 5.2 0 4-2.4 6.5-8 6.5h-8.7v-22.1h8.8c4.7 0 7.2 2.2 7.2 5.7zm-7.5-.9h-2.9v3.9h3c1.3 0 1.8-.5 1.8-2s-.6-1.9-1.9-1.9zm.1 8.2h-3v4.4h3.2c1.5 0 2-.5 2-2.2-.1-1.6-.5-2.2-2.2-2.2zm-1.1-28.9-.1 5h-14.4v-22.1h14l.1 5.1h-8.3v3.4h6.9v4.6h-6.9v4zm-23.6 5.4c-7.4 0-10-3.9-10-11.5 0-7.7 3.1-11.5 10.3-11.5 2 0 4.2.4 5.8 1l-.5 4.9c-1.5-.5-3.3-.9-4.9-.9-3.7 0-4.5 1.4-4.5 6.4 0 5.3.9 6.4 3.8 6.4.4 0 .9 0 1.3-.1v-7.2h5.2v11.3c-1.6.8-4.2 1.2-6.5 1.2zm-15.6-.4h-5.9v-17h-5.1l.1-5.2h15.8l.1 5.2h-5.1v17zm-9.2 0h-13.4v-22.1h5.9v17h7.6zm-22.2 29.1h-6.1l-.9 3.9h-6.2l6.6-22.2h7.1l6.7 22.2h-6.5zm-2.5-11.1-.4-2.4h-.1l-.5 2.4-1.4 6.4h3.9zm2.5-21.9h-6.1l-.9 3.9h-6.2l6.6-22.2h7.1l6.7 22.2h-6.5zm-2.5-11.1-.4-2.4h-.1l-.5 2.4-1.4 6.4h3.9zm28 41.5c0 4-2.4 6.5-8 6.5h-8.7v-22.1h8.8c4.8 0 7.2 2.2 7.2 5.7 0 2.3-1.1 3.8-2.7 4.6v.1c2.2.7 3.4 2.4 3.4 5.2zm-8.1-10.8h-2.9v3.9h3c1.3 0 1.8-.5 1.8-2-.1-1.5-.6-1.9-1.9-1.9zm.1 8.2h-3v4.4h3.2c1.5 0 2-.5 2-2.2-.1-1.6-.5-2.2-2.2-2.2zm-12.9 27.1c0 3-1.1 5.1-3 6l4.3 8.9 6.6-22h7.1l6.7 22.2h-6.5l-.9-4h-6.1l-.9 3.9h-6-.1-6.6l-3-7.9h-2v7.9h-5.8v-22.1h7.8c5.6 0 8.4 2.1 8.4 7.1zm13.3 6.3-1.4-6.4-.4-2.4h-.1l-.5 2.4-1.4 6.4zm-23.6-3.5h2c1.7 0 2.3-.4 2.3-2.6 0-2-.6-2.5-2.3-2.5h-2zm43.2-43.3c2 0 4.2.4 5.8 1l-.5 4.9c-1.5-.5-3.3-.9-4.9-.9-3.7 0-4.5 1.4-4.5 6.4 0 5.3.9 6.4 3.8 6.4.4 0 .9 0 1.3-.1v-7.2h5.2v11.3c-1.6.7-4.1 1.2-6.4 1.2-7.4 0-10-3.9-10-11.5 0-7.8 3-11.5 10.2-11.5zm6.3 39.1c0 2.3-1.1 3.8-2.7 4.6v.1c2.2.7 3.4 2.5 3.4 5.2 0 4-2.4 6.5-8 6.5h-8.7v-22.1h8.8c4.8 0 7.2 2.2 7.2 5.7zm-10.4 11.7h3.2c1.5 0 2-.5 2-2.2 0-1.5-.5-2.2-2.1-2.2h-3v4.4zm0-12.6v3.9h3c1.3 0 1.8-.5 1.8-2 0-1.4-.5-1.9-1.9-1.9zm27.4-20.7-.1 5h-14.4v-22.1h14l.1 5.1h-8.3v3.4h6.9v4.6h-6.9v4zm-2.2 15.9 6.7 22.2h-6.5l-.9-4h-6.1l-.9 3.9h-6.2l6.6-22.2h7.3zm-1.7 13.4-1.4-6.4-.4-2.4h-.1l-.5 2.4-1.4 6.4zm6.7-13.4h15.8l.1 5.2h-5.1v17h-5.9v-17h-5.1zm33-15.9-.1 5h-14.4v-22.1h14l.1 5.1h-8.3v3.4h6.9v4.6h-6.9v4zm0 15.9.1 5.2h-5.1v17h-5.9v-17h-5.1l.1-5.2zm14.3-21.5v-2.4-9.1h5.1v22.2h-4.1l-6.7-10.3-1.3-2h-.1v2.4 9.8h-5.1v-22.1h4.9zm0 39c1.8 0 2.6-.6 2.6-1.8 0-2.8-8.9-2-8.9-9.2 0-3.9 2.4-6.9 7.9-6.9 2.1 0 4.3.4 5.9 1.1l-.7 4.8c-1.7-.5-3.4-.8-4.8-.8-2.2 0-2.7.7-2.7 1.6 0 2.9 8.9 1.9 8.9 9.1 0 4.4-3 7.1-8 7.1-2.4 0-4.7-.5-6.5-1.5l.7-4.9c1.8.9 3.6 1.4 5.6 1.4zm16.4 4.6h-6v-22.1h6zm53.7-17.1h-8.3v3.4h6.9v4.6h-6.9v4h8.7l-.1 5h-14.4v-22h14z" fill="#020204" fill-rule="evenodd"/></svg>