<?xml version="1.0" encoding="utf-8"?>
<!-- Generator: Adobe Illustrator 27.2.0, SVG Export Plug-In . SVG Version: 6.00 Build 0)  -->
<svg version="1.1" id="Ebene_1" xmlns="http://www.w3.org/2000/svg" xmlns:xlink="http://www.w3.org/1999/xlink" x="0px" y="0px"
	 viewBox="0 0 205 109.9" style="enable-background:new 0 0 205 109.9;" xml:space="preserve">
<style type="text/css">
	.st0{fill-rule:evenodd;clip-rule:evenodd;}
</style>
<path class="st0" d="M178.2,48.8v17h-5.9v-17h-5.1l0.1-5.2h15.8l0.1,5.2H178.2z M161.5,42.6c-1.5,0-2.2-0.6-2.2-2c0-1.3,0.7-2,2.2-2
	c1.5,0,2.2,0.7,2.2,2C163.7,41.9,163,42.6,161.5,42.6z M155.8,42.6c-1.5,0-2.2-0.6-2.2-2c0-1.3,0.7-2,2.2-2c1.5,0,2.2,0.7,2.2,2
	C158,41.9,157.3,42.6,155.8,42.6z M149.4,19.7h6.8l0,4.9h-6.8v8.2h-5.8V10.7h14l0.1,5.2h-8.2V19.7z M132.2,33.2
	c-5.7,0-8.6-2.7-8.6-7.9V10.7h5.8v14.5c0,2,0.8,2.9,2.8,2.9c2,0,2.7-0.8,2.7-2.9V10.7h5.8v14.6C140.8,30.5,138,33.2,132.2,33.2z
	 M115.9,29h-6.1l-0.9,3.9h-6.2l6.6-22.2h7.1l6.7,22.2h-6.5L115.9,29z M113.4,17.8l-0.4-2.4h-0.1l-0.5,2.4l-1.4,6.4h3.9L113.4,17.8z
	 M111.4,44.3l-0.5,4.9c-1.5-0.5-3.3-0.9-4.9-0.9c-3.7,0-4.5,1.4-4.5,6.4c0,5.3,0.9,6.4,3.8,6.4c0.4,0,0.9,0,1.3-0.1v-7.2h5.2V65
	c-1.5,0.7-4.1,1.2-6.4,1.2c-7.4,0-10-3.9-10-11.5c0-7.7,3.1-11.5,10.3-11.5C107.6,43.3,109.8,43.6,111.4,44.3z M90.8,32.8h-5.9v-17
	h-5.1l0.1-5.2h15.8l0.1,5.2h-5.1V32.8z M78.7,27.7l-0.1,5.1H63.4v-3.8l7.1-11.2l1.3-2l0-0.1h-8.2l0.1-5.2h14.9v4.1l-6.9,10.9
	l-1.3,1.9l0,0.1H78.7z M57.3,32.8h-5.9v-17h-5.1l0.1-5.2h15.8l0.1,5.2h-5.1V32.8z M45.3,27.8l-0.1,5H30.8V10.7h14l0.1,5.1h-8.3v3.4
	h6.9v4.6h-6.9v4H45.3z M28.3,65.8L27.4,62h-6.1l-0.9,3.9h-6.2l6.6-22.2H28l6.7,22.2H28.3z M24.9,50.8l-0.4-2.4h-0.1l-0.5,2.4
	l-1.4,6.4h3.9L24.9,50.8z M19.2,33.2c-1.7,0-3-0.3-4.1-0.8l0.3-4.8c0.6,0.3,1.6,0.5,2.8,0.5c2.4,0,3.6-0.9,3.6-3.6V10.7h6v14
	C27.8,31.2,24.4,33.2,19.2,33.2z M21.5,91.2c0,2,0.8,2.9,2.8,2.9c2,0,2.7-0.8,2.7-2.9V76.7h5.8v14.6c0,5.2-2.8,7.9-8.5,7.9
	c-5.7,0-8.6-2.7-8.6-7.9V76.7h5.8V91.2z M47.7,65.8l-4.2-9h-1.4v9h-5.8V43.7h5.8v8.6h1.5l4.1-8.6h6.5l-5.4,10.6l5.6,11.6H47.7z
	 M46,87.9l0.7,2.3h0.1l0.7-2.2l4-11.2H58v22.2h-5.3v-9.3l0.1-2.4l-0.1,0l-0.7,2.3l-3.3,9.4h-3.8l-3.3-9.4l-0.7-2.3l-0.1,0l0,2.4v9.2
	h-5.1V76.7H42L46,87.9z M67.6,65.8l-4.2-9H62v9h-5.8V43.7H62v8.6h1.5l4.1-8.6h6.5l-5.4,10.6l5.6,11.6H67.6z M66.7,94.2
	c1.8,0,2.6-0.6,2.6-1.8c0-2.8-8.9-2-8.9-9.2c0-3.9,2.4-6.9,7.9-6.9c2.1,0,4.3,0.4,5.9,1.1l-0.7,4.8c-1.7-0.5-3.4-0.8-4.8-0.8
	C66.5,81.4,66,82,66,83c0,2.9,8.9,1.9,8.9,9.1c0,4.4-3,7.1-8,7.1c-2.4,0-4.7-0.5-6.5-1.5l0.7-4.9C62.9,93.7,64.8,94.2,66.7,94.2z
	 M91.2,76.7l0.1,5.2h-5.1v17h-5.9v-17h-5.1l0.1-5.2H91.2z M93.1,43.7v14.6c0,5.2-2.8,7.9-8.5,7.9c-5.7,0-8.6-2.7-8.6-7.9V43.7h5.8
	v14.5c0,2,0.8,2.9,2.8,2.9c2,0,2.7-0.8,2.7-2.9V43.7H93.1z M107.2,81.7h-8.3v3.4h6.9v4.6h-6.9v4h8.7l-0.1,5H93.1V76.7h14L107.2,81.7
	z M116.1,98.8h-6V76.7h6V98.8z M128.9,60.8l-0.1,5h-14.4V43.7h14l0.1,5.1h-8.3v3.4h6.9v4.6h-6.9v4H128.9z M129,76.3
	c2,0,4.2,0.4,5.8,1l-0.5,4.9c-1.5-0.5-3.3-0.9-4.9-0.9c-3.7,0-4.5,1.4-4.5,6.4c0,5.3,0.9,6.4,3.8,6.4c0.4,0,0.9,0,1.3-0.1v-7.2h5.2
	V98c-1.6,0.7-4.1,1.2-6.4,1.2c-7.4,0-10-3.9-10-11.5C118.8,80,121.8,76.3,129,76.3z M131.1,65.8V43.7h7.7c5.7,0,8.5,2.1,8.5,7.1
	c0,3-1.1,5.1-3,6l4.3,8.9l6.6-22h7.1l6.7,22.2h-6.5l-0.9-3.9h-6.1l-0.9,3.9h-6h-0.1h-6.6l-3-7.9h-2v7.9H131.1z M160.5,57.1l-1.4-6.4
	l-0.4-2.4h-0.1l-0.5,2.4l-1.4,6.4H160.5z M138.9,53.6c1.7,0,2.3-0.4,2.3-2.6c0-2-0.6-2.5-2.3-2.5h-2v5.1H138.9z M151.9,81.7h-8.3
	v3.4h6.9v4.6h-6.9v4h8.7l-0.1,5h-14.4V76.7h14L151.9,81.7z M166.6,88.2L166.6,88.2v-2.4l0-9.1h5.1v22.2h-4.1L161,88.6l-1.3-2l-0.1,0
	l0,2.4v9.8h-5.1V76.7h4.9L166.6,88.2z M177.2,82c2.1,0,3,1,3,2.8c0,1.7-0.9,2.8-3,2.8s-3-0.8-3-2.8C174.2,83,175.1,82,177.2,82z
	 M177.2,93.5c2.1,0,3,1,3,2.8c0,1.7-0.9,2.8-3,2.8s-3-0.8-3-2.8C174.2,94.6,175.1,93.5,177.2,93.5z"/>
</svg>
