<?xml version="1.0" encoding="utf-8"?>
<!-- Generator: Adobe Illustrator 23.1.1, SVG Export Plug-In . SVG Version: 6.00 Build 0)  -->
<!DOCTYPE svg PUBLIC "-//W3C//DTD SVG 1.1//EN" "http://www.w3.org/Graphics/SVG/1.1/DTD/svg11.dtd" [
	<!ENTITY ns_extend "http://ns.adobe.com/Extensibility/1.0/">
	<!ENTITY ns_ai "http://ns.adobe.com/AdobeIllustrator/10.0/">
	<!ENTITY ns_graphs "http://ns.adobe.com/Graphs/1.0/">
	<!ENTITY ns_vars "http://ns.adobe.com/Variables/1.0/">
	<!ENTITY ns_imrep "http://ns.adobe.com/ImageReplacement/1.0/">
	<!ENTITY ns_sfw "http://ns.adobe.com/SaveForWeb/1.0/">
	<!ENTITY ns_custom "http://ns.adobe.com/GenericCustomNamespace/1.0/">
	<!ENTITY ns_adobe_xpath "http://ns.adobe.com/XPath/1.0/">
]>
<svg version="1.1" id="Ebene_1" xmlns:x="&ns_extend;" xmlns:i="&ns_ai;" xmlns:graph="&ns_graphs;"
	 xmlns="http://www.w3.org/2000/svg" xmlns:xlink="http://www.w3.org/1999/xlink" x="0px" y="0px" viewBox="0 0 113.62 93.86"
	 style="enable-background:new 0 0 113.62 93.86;" xml:space="preserve">
<style type="text/css">
	.st0{fill-rule:evenodd;clip-rule:evenodd;}
</style>
<metadata>
	<sfw  xmlns="&ns_sfw;">
		<slices></slices>
		<sliceSourceBounds  bottomLeftOrigin="true" height="84.95" width="98.61" x="4.22" y="-89.03"></sliceSourceBounds>
	</sfw>
</metadata>
<path class="st0" d="M98.1,11.55V9.34h4.74v2.21H98.1z M93.05,4.07h3.42v12.75h-3.42V4.07z M86.6,53.04c-1.34,0-2.67-0.31-3.7-0.88
	l0.42-2.82c1.04,0.53,2.09,0.85,3.19,0.85c1.05,0,1.46-0.36,1.46-1.04c0-1.63-5.07-1.12-5.07-5.29c0-2.23,1.36-3.99,4.5-3.99
	c1.17,0,2.43,0.22,3.35,0.61l-0.37,2.77c-0.97-0.29-1.94-0.46-2.75-0.46c-1.26,0-1.53,0.37-1.53,0.92c0,1.65,5.07,1.09,5.07,5.25
	C91.18,51.48,89.48,53.04,86.6,53.04z M85.01,10.94l-0.71-1.17l-0.03,0.02l0.02,1.38v5.66h-2.92V4.07h2.79l4.1,6.61l0.03-0.02
	l-0.03-1.36l0.02-5.24h2.92v12.75h-2.36L85.01,10.94z M76.07,4.07h3.42v12.75h-3.42V4.07z M72.53,22.07h3.42v12.75h-3.42V22.07z
	 M74.65,13.95l-0.07,2.87h-8.21V4.07h7.99L74.43,7h-4.74v1.97h3.91v2.67h-3.91v2.31H74.65z M61.7,16.82L60,12.27h-1.12v4.56h-3.31
	V4.07h4.4c3.23,0,4.83,1.22,4.83,4.1c0,1.7-0.61,2.96-1.73,3.43l2.48,5.22H61.7z M60.03,6.83h-1.16v2.94h1.14
	c0.97,0,1.31-0.24,1.31-1.48C61.33,7.13,61,6.83,60.03,6.83z M55.94,25.25c-0.97-0.29-1.94-0.46-2.75-0.46
	c-1.26,0-1.53,0.37-1.53,0.92c0,1.65,5.06,1.09,5.06,5.25c0,2.52-1.7,4.08-4.57,4.08c-1.34,0-2.67-0.31-3.71-0.88l0.42-2.82
	c1.04,0.53,2.09,0.85,3.2,0.85c1.05,0,1.46-0.36,1.46-1.04c0-1.63-5.07-1.12-5.07-5.29c0-2.23,1.36-3.99,4.5-3.99
	c1.17,0,2.43,0.22,3.35,0.61L55.94,25.25z M44.96,16.82h-4.61V4.07h4.54c3.88,0,5.46,1.8,5.46,6.31
	C50.34,15.05,48.54,16.82,44.96,16.82z M44.9,7.01h-1.24v6.9h1.24c1.46,0,1.95-0.44,1.95-3.57C46.86,7.52,46.4,7.01,44.9,7.01z
	 M47.13,22.41l-0.31,2.84c-0.83-0.31-1.9-0.49-2.82-0.49c-2.09,0-2.57,0.78-2.57,3.65c0,3.03,0.49,3.69,2.14,3.69
	c0.26,0,0.53-0.02,0.76-0.07v-4.16h2.96v6.49c-0.88,0.42-2.33,0.7-3.64,0.7c-4.22,0-5.71-2.26-5.71-6.61c0-4.45,1.75-6.59,5.86-6.59
	C44.94,21.85,46.21,22.06,47.13,22.41z M32.44,10.94l-0.71-1.17L31.7,9.78l0.02,1.38v5.66h-2.92V4.07h2.79l4.1,6.61l0.03-0.02
	l-0.03-1.36l0.02-5.24h2.92v12.75h-2.36L32.44,10.94z M22.31,17.04c-3.26,0-4.91-1.56-4.91-4.56V4.07h3.33v8.35
	c0,1.14,0.44,1.65,1.58,1.65c1.16,0,1.55-0.48,1.55-1.65V4.07h3.31v8.41C27.17,15.48,25.58,17.04,22.31,17.04z M14.44,17.03
	c-1.19,0-1.72-0.46-1.72-1.62c0-1.04,0.53-1.63,1.72-1.63s1.7,0.6,1.7,1.63C16.14,16.38,15.63,17.03,14.44,17.03z M10.41,17.03
	c-1.19,0-1.72-0.46-1.72-1.62c0-1.04,0.53-1.63,1.72-1.63s1.7,0.6,1.7,1.63C12.11,16.38,11.6,17.03,10.41,17.03z M6.3,17.03
	c-1.19,0-1.72-0.46-1.72-1.62c0-1.04,0.53-1.63,1.72-1.63S8,14.37,8,15.41C8,16.38,7.49,17.03,6.3,17.03z M13.39,43.05H10.5v9.77
	H7.11v-9.77H4.22l0.07-2.98h9.03L13.39,43.05z M13.95,27.87v6.49c-0.88,0.42-2.33,0.7-3.64,0.7c-4.22,0-5.71-2.26-5.71-6.61
	c0-4.45,1.75-6.59,5.86-6.59c1.12,0,2.4,0.2,3.32,0.56l-0.31,2.84c-0.83-0.31-1.9-0.49-2.82-0.49c-2.09,0-2.57,0.78-2.57,3.65
	c0,3.03,0.49,3.69,2.14,3.69c0.26,0,0.53-0.02,0.77-0.07v-4.16H13.95z M14.93,64.38c0,4.68-1.8,6.44-5.39,6.44H4.94V58.07h4.54
	C13.35,58.07,14.93,59.88,14.93,64.38z M8.25,67.92h1.24c1.46,0,1.95-0.44,1.95-3.57c0-2.82-0.46-3.33-1.95-3.33H8.25V67.92z M13,79
	H8.25v1.97h3.91v2.67H8.25v2.31h4.96l-0.07,2.87H4.94V76.07h7.99L13,79z M23.72,80.17c0,1.7-0.61,2.96-1.73,3.43l2.48,5.22h-3.84
	l-1.7-4.56h-1.12v4.56h-3.31V76.07h4.4C22.12,76.07,23.72,77.3,23.72,80.17z M17.81,81.77h1.14c0.97,0,1.31-0.24,1.31-1.48
	c0-1.16-0.32-1.46-1.29-1.46h-1.16V81.77z M28.62,80.85h3.09v-4.78h3.33v12.75h-3.33v-5h-3.09v5H25.3V76.07h3.31V80.85z
	 M27.02,68.66l4.06-6.46l0.75-1.12l-0.02-0.03h-4.69l0.08-2.98h8.52v2.38l-3.93,6.26l-0.75,1.1l0.02,0.05h4.69l-0.05,2.96h-8.69
	V68.66z M46.59,66.49c0,2.99-1.6,4.56-4.86,4.56c-3.26,0-4.91-1.56-4.91-4.56v-8.41h3.33v8.35c0,1.14,0.44,1.65,1.58,1.65
	c1.16,0,1.55-0.48,1.55-1.65v-8.35h3.31V66.49z M27.31,49.86h4.33l-0.08,2.96h-7.6V40.07h3.35V49.86z M26.63,70.82h-3.71l-0.49-2.23
	h-3.47l-0.49,2.23h-3.52l3.77-12.75h4.06L26.63,70.82z M21,62.17l-0.25-1.36H20.7l-0.29,1.36l-0.82,3.65h2.23L21,62.17z
	 M14.41,40.07h7.99L22.46,43h-4.74v1.97h3.91v2.67h-3.91v2.31h4.96l-0.07,2.87h-8.21V40.07z M25.12,22.07v8.41
	c0,2.99-1.6,4.56-4.86,4.56s-4.91-1.56-4.91-4.56v-8.41h3.33v8.35c0,1.14,0.44,1.65,1.58,1.65c1.16,0,1.55-0.48,1.55-1.65v-8.35
	H25.12z M33.63,22.07h2.92v12.75h-2.36l-3.81-5.88l-0.71-1.17l-0.03,0.02l0.02,1.38v5.66h-2.92V22.07h2.79l4.1,6.61l0.03-0.02
	l-0.03-1.36L33.63,22.07z M45.57,45.87v6.49c-0.88,0.42-2.33,0.7-3.64,0.7c-4.22,0-5.71-2.26-5.71-6.61c0-4.45,1.75-6.6,5.87-6.6
	c1.12,0,2.4,0.2,3.31,0.56l-0.31,2.84c-0.83-0.31-1.9-0.49-2.82-0.49c-2.09,0-2.57,0.78-2.57,3.65c0,3.03,0.49,3.69,2.14,3.69
	c0.26,0,0.53-0.02,0.76-0.07v-4.17H45.57z M43.7,76.07l3.84,12.75h-3.7l-0.49-2.23h-3.47l-0.49,2.23h-3.52l3.77-12.75H43.7z
	 M42.73,83.82l-0.82-3.65l-0.26-1.36h-0.05l-0.29,1.36l-0.82,3.65H42.73z M51.74,85.86h4.33l-0.08,2.96h-7.6V76.07h3.35V85.86z
	 M55.05,76.07h9.03l0.07,2.97h-2.89v9.77h-3.38v-9.77h-2.89L55.05,76.07z M60.51,52.82h-3.45h-0.07h-3.77l-1.7-4.56H50.4v4.56h-3.32
	V40.07h4.4c3.23,0,4.83,1.22,4.83,4.1c0,1.7-0.61,2.96-1.73,3.43l2.44,5.13l3.75-12.66h4.06l3.84,12.75h-3.71l-0.49-2.23H61
	L60.51,52.82z M51.55,42.83H50.4v2.94h1.14c0.97,0,1.31-0.24,1.31-1.48C52.84,43.13,52.52,42.83,51.55,42.83z M63.86,47.82
	l-0.82-3.65l-0.26-1.36h-0.05l-0.29,1.36l-0.82,3.65H63.86z M73.23,79h-4.74v1.97h3.91v2.67h-3.91v2.31h4.96l-0.07,2.87h-8.21V76.07
	h7.99L73.23,79z M60.82,34.82h-2.91V22.07h3.65l2.24,6.44l0.43,1.31h0.05l0.42-1.29l2.28-6.46h3.67v12.75h-3.04v-5.34l0.03-1.38
	l-0.05-0.02l-0.42,1.33l-1.89,5.41h-2.16l-1.87-5.39l-0.42-1.33l-0.03,0.02l0.02,1.38V34.82z M70.56,52.82v-9.77h-2.89l0.07-2.98
	h9.03l0.07,2.98h-2.89v9.77H70.56z M81.4,52.82h-3.42V40.07h3.42V52.82z M90.14,29.55H85.4v-2.21h4.74V29.55z M79.99,34.82v-9.77
	H77.1l0.07-2.97h9.03l0.07,2.97h-2.89v9.77H79.99z M81.61,82.69l0.03-0.02l-0.03-1.36l0.02-5.24h2.92v12.75h-2.36l-3.81-5.88
	l-0.71-1.17l-0.03,0.02l0.02,1.38v5.66h-2.92V76.07h2.79L81.61,82.69z M87.64,85.78c1.19,0,1.7,0.6,1.7,1.63
	c0,0.97-0.51,1.62-1.7,1.62s-1.72-0.46-1.72-1.62C85.93,86.37,86.45,85.78,87.64,85.78z"/>
</svg>
