<?xml version="1.0" encoding="utf-8"?>
<!-- Generator: Adobe Illustrator 23.1.1, SVG Export Plug-In . SVG Version: 6.00 Build 0)  -->
<!DOCTYPE svg PUBLIC "-//W3C//DTD SVG 1.1//EN" "http://www.w3.org/Graphics/SVG/1.1/DTD/svg11.dtd" [
	<!ENTITY ns_extend "http://ns.adobe.com/Extensibility/1.0/">
	<!ENTITY ns_ai "http://ns.adobe.com/AdobeIllustrator/10.0/">
	<!ENTITY ns_graphs "http://ns.adobe.com/Graphs/1.0/">
	<!ENTITY ns_vars "http://ns.adobe.com/Variables/1.0/">
	<!ENTITY ns_imrep "http://ns.adobe.com/ImageReplacement/1.0/">
	<!ENTITY ns_sfw "http://ns.adobe.com/SaveForWeb/1.0/">
	<!ENTITY ns_custom "http://ns.adobe.com/GenericCustomNamespace/1.0/">
	<!ENTITY ns_adobe_xpath "http://ns.adobe.com/XPath/1.0/">
]>
<svg version="1.1" id="Ebene_1" xmlns:x="&ns_extend;" xmlns:i="&ns_ai;" xmlns:graph="&ns_graphs;"
	 xmlns="http://www.w3.org/2000/svg" xmlns:xlink="http://www.w3.org/1999/xlink" x="0px" y="0px" viewBox="0 0 124.13 22.79"
	 style="enable-background:new 0 0 124.13 22.79;" xml:space="preserve">
<style type="text/css">
	.st0{fill-rule:evenodd;clip-rule:evenodd;fill:#FEFEFE;}
</style>
<metadata>
	<sfw  xmlns="&ns_sfw;">
		<slices></slices>
		<sliceSourceBounds  bottomLeftOrigin="true" height="10.1" width="108.91" x="5.31" y="-16"></sliceSourceBounds>
	</sfw>
</metadata>
<path class="st0" d="M112.42,15.82l-2.91-4.5l-0.55-0.9l-0.03,0.01l0.01,1.05v4.33h-2.24V6.07h2.13l3.13,5.06l0.03-0.01l-0.03-1.04
	l0.01-4h2.24v9.75H112.42z M105.41,13.62l-0.05,2.2h-6.28V6.07h6.11l0.05,2.24h-3.63v1.51h2.99v2.04h-2.99v1.77H105.41z
	 M94.31,10.06h2.98l-0.01,2.16h-2.96v3.6h-2.55V6.07h6.1l0.04,2.28h-3.59V10.06z M87.39,6.07h2.61v9.75h-2.61V6.07z M85.99,13.62
	l-0.05,2.2h-6.28V6.07h6.11l0.05,2.24h-3.63v1.51h2.99v2.04h-2.99v1.77H85.99z M75.76,15.82l-1.3-3.48H73.6v3.48h-2.54V6.07h3.37
	c2.47,0,3.69,0.94,3.69,3.13c0,1.3-0.47,2.26-1.33,2.63l1.9,3.99H75.76z M74.49,8.18H73.6v2.25h0.87c0.74,0,1-0.18,1-1.13
	C75.47,8.41,75.23,8.18,74.49,8.18z M66.8,16c-3.22,0-4.37-1.73-4.37-5.06c0-3.41,1.34-5.05,4.49-5.05c0.86,0,1.83,0.16,2.54,0.43
	L69.22,8.5c-0.64-0.23-1.46-0.38-2.16-0.38c-1.6,0-1.96,0.6-1.96,2.8c0,2.31,0.38,2.82,1.64,2.82c0.19,0,0.4-0.01,0.58-0.05V10.5
	h2.26v4.97C68.91,15.79,67.8,16,66.8,16z M57.42,15.99c-2.5,0-3.76-1.2-3.76-3.48V6.07h2.55v6.38c0,0.87,0.34,1.26,1.21,1.26
	c0.88,0,1.18-0.36,1.18-1.26V6.07h2.53v6.44C61.14,14.79,59.91,15.99,57.42,15.99z M52.53,13.56l-0.04,2.26h-6.64v-1.65l3.11-4.94
	l0.57-0.86l-0.01-0.03h-3.59l0.06-2.28h6.51v1.82l-3,4.79l-0.57,0.84l0.01,0.04H52.53z M39.63,15.82h-2.59V8.34h-2.21l0.05-2.28h6.9
	l0.05,2.28h-2.21V15.82z M34.02,13.56l-0.04,2.26h-6.64v-1.65l3.11-4.94l0.57-0.86L31,8.34h-3.59l0.06-2.28h6.51v1.82l-3,4.79
	l-0.57,0.84l0.01,0.04H34.02z M24.37,15.82h-2.59V8.34h-2.21l0.05-2.28h6.9l0.05,2.28h-2.21V15.82z M18.82,13.62l-0.05,2.2h-6.28
	V6.07h6.11l0.05,2.24h-3.63v1.51h2.99v2.04h-2.99v1.77H18.82z M7.09,16c-0.73,0-1.31-0.13-1.78-0.34l0.13-2.12
	c0.27,0.14,0.7,0.23,1.21,0.23c1.07,0,1.59-0.42,1.59-1.59V6.07h2.6v6.18C10.84,15.11,9.38,16,7.09,16z"/>
</svg>
