<?xml version="1.0" encoding="utf-8"?>
<!-- Generator: Adobe Illustrator 23.1.1, SVG Export Plug-In . SVG Version: 6.00 Build 0)  -->
<!DOCTYPE svg PUBLIC "-//W3C//DTD SVG 1.1//EN" "http://www.w3.org/Graphics/SVG/1.1/DTD/svg11.dtd" [
	<!ENTITY ns_extend "http://ns.adobe.com/Extensibility/1.0/">
	<!ENTITY ns_ai "http://ns.adobe.com/AdobeIllustrator/10.0/">
	<!ENTITY ns_graphs "http://ns.adobe.com/Graphs/1.0/">
	<!ENTITY ns_vars "http://ns.adobe.com/Variables/1.0/">
	<!ENTITY ns_imrep "http://ns.adobe.com/ImageReplacement/1.0/">
	<!ENTITY ns_sfw "http://ns.adobe.com/SaveForWeb/1.0/">
	<!ENTITY ns_custom "http://ns.adobe.com/GenericCustomNamespace/1.0/">
	<!ENTITY ns_adobe_xpath "http://ns.adobe.com/XPath/1.0/">
]>
<svg version="1.1" id="Ebene_1" xmlns:x="&ns_extend;" xmlns:i="&ns_ai;" xmlns:graph="&ns_graphs;"
	 xmlns="http://www.w3.org/2000/svg" xmlns:xlink="http://www.w3.org/1999/xlink" x="0px" y="0px" viewBox="0 0 154.31 157.23"
	 style="enable-background:new 0 0 154.31 157.23;" xml:space="preserve">
<style type="text/css">
	.st0{fill-rule:evenodd;clip-rule:evenodd;}
</style>
<metadata>
	<sfw  xmlns="&ns_sfw;">
		<slices></slices>
		<sliceSourceBounds  bottomLeftOrigin="true" height="136.27" width="136.16" x="13.02" y="-140.81"></sliceSourceBounds>
	</sfw>
</metadata>
<path class="st0" d="M149.07,92.56h-9.39V76.82h4.14v12.09h5.35L149.07,92.56z M133.24,116.84c-4.03,0-6.07-1.93-6.07-5.63v-10.39
	h4.12v10.31c0,1.41,0.55,2.04,1.95,2.04c1.43,0,1.91-0.59,1.91-2.04v-10.31h4.09v10.39C139.25,114.9,137.27,116.84,133.24,116.84z
	 M138.11,89.01l-0.08,3.55h-10.14V76.82h9.87l0.08,3.61h-5.86v2.44h4.83v3.3h-4.83v2.86H138.11z M126.17,37.3l-0.88-1.45l-0.04,0.02
	l0.02,1.7v6.99h-3.61V28.82h3.44l5.06,8.17l0.04-0.02l-0.04-1.68l0.02-6.47h3.61v15.75h-2.92L126.17,37.3z M125.14,11.32h5.86v2.73
	h-5.86V11.32z M124.17,17.01l-0.08,3.55h-10.14V4.82h9.87l0.08,3.61h-5.86v2.44h4.83v3.3h-4.83v2.86H124.17z M100.53,12.69
	c0-5.5,2.16-8.15,7.24-8.15c1.39,0,2.96,0.25,4.09,0.69l-0.38,3.51c-1.03-0.38-2.35-0.61-3.49-0.61c-2.58,0-3.17,0.97-3.17,4.51
	c0,3.74,0.61,4.56,2.64,4.56c0.32,0,0.65-0.02,0.94-0.08v-5.14h3.65V20c-1.09,0.52-2.88,0.86-4.49,0.86
	C102.37,20.86,100.53,18.06,100.53,12.69z M99.47,15.8c0,3.11-2.1,5.04-5.65,5.04c-1.66,0-3.3-0.38-4.58-1.09l0.52-3.49
	c1.28,0.65,2.58,1.05,3.95,1.05c1.3,0,1.81-0.44,1.81-1.28c0-2.02-6.26-1.39-6.26-6.53c0-2.75,1.68-4.93,5.56-4.93
	c1.45,0,3,0.27,4.14,0.76l-0.46,3.42c-1.2-0.36-2.39-0.57-3.4-0.57c-1.55,0-1.89,0.46-1.89,1.13C93.22,11.35,99.47,10.65,99.47,15.8
	z M92.46,39.12V28.82h4.09v10.39c0,3.69-1.97,5.63-6.01,5.63c-4.03,0-6.07-1.93-6.07-5.63V28.82h4.12v10.31
	c0,1.41,0.54,2.04,1.95,2.04C91.98,41.16,92.46,40.57,92.46,39.12z M79.94,13.3l-0.88-1.45l-0.04,0.02l0.02,1.7v6.99h-3.61V4.82
	h3.44l5.06,8.17l0.04-0.02l-0.04-1.68l0.02-6.47h3.61v15.75h-2.92L79.94,13.3z M84.23,44.56h-4.58l-0.61-2.75h-4.28l-0.61,2.75H69.8
	l4.66-15.75h5.02L84.23,44.56z M77.28,33.88l-0.32-1.68H76.9l-0.36,1.68l-1.01,4.51h2.75L77.28,33.88z M67.11,20.84
	c-4.53,0-6.59-2.39-6.59-8.15c0-5.77,1.97-8.12,6.59-8.12c4.62,0,6.59,2.35,6.59,8.12C73.71,18.61,71.73,20.84,67.11,20.84z
	 M67.09,8.24c-1.72,0-2.27,0.71-2.27,4.45c0,3.76,0.57,4.52,2.31,4.52c1.74,0,2.27-0.78,2.27-4.52C69.4,8.93,68.88,8.24,67.09,8.24z
	 M54.41,4.82h4.22v15.75h-4.22V4.82z M48.03,68.56h-5.69V52.82h5.61c4.79,0,6.74,2.23,6.74,7.79
	C54.68,66.38,52.46,68.56,48.03,68.56z M47.96,56.45h-1.53v8.53h1.53c1.81,0,2.41-0.55,2.41-4.41
	C50.38,57.08,49.81,56.45,47.96,56.45z M49.41,20.56h-4.18V8.49h-3.57l0.08-3.67H52.9l0.08,3.67h-3.57V20.56z M36.56,20.56
	l-2.96-6.4h-1.01v6.4H28.5V4.82h4.09v6.09h1.09l2.92-6.09h4.6l-3.78,7.54l3.97,8.21H36.56z M22.26,17.81h-4.28l-0.61,2.75h-4.35
	l4.66-15.75h5.02l4.75,15.75h-4.58L22.26,17.81z M20.49,9.88L20.18,8.2h-0.06l-0.36,1.68l-1.01,4.51h2.75L20.49,9.88z M20.96,76.54
	c1.39,0,2.96,0.25,4.09,0.69l-0.38,3.51c-1.03-0.38-2.35-0.61-3.49-0.61c-2.58,0-3.17,0.97-3.17,4.51c0,3.74,0.61,4.56,2.65,4.56
	c0.31,0,0.65-0.02,0.94-0.08v-5.14h3.65V92c-1.09,0.53-2.88,0.86-4.49,0.86c-5.21,0-7.05-2.79-7.05-8.17
	C13.71,79.19,15.88,76.54,20.96,76.54z M20.96,100.54c1.39,0,2.96,0.25,4.09,0.69l-0.38,3.51c-1.03-0.38-2.35-0.61-3.49-0.61
	c-2.58,0-3.17,0.97-3.17,4.51c0,3.74,0.61,4.56,2.65,4.56c0.31,0,0.65-0.02,0.94-0.08v-5.14h3.65V116
	c-1.09,0.53-2.88,0.86-4.49,0.86c-5.21,0-7.05-2.79-7.05-8.17C13.71,103.19,15.88,100.54,20.96,100.54z M24.08,128.43h-5.86v2.44
	h4.83v3.3h-4.83v2.86h6.13l-0.08,3.55H14.13v-15.75H24L24.08,128.43z M37.34,129.88c0,2.1-0.76,3.65-2.14,4.24l3.07,6.45h-4.75
	l-2.1-5.63h-1.39v5.63h-4.09v-15.75h5.44C35.36,124.82,37.34,126.33,37.34,129.88z M30.03,131.85h1.41c1.2,0,1.62-0.29,1.62-1.83
	c0-1.43-0.4-1.81-1.6-1.81h-1.43V131.85z M43.38,130.72h3.82v-5.9h4.12v15.75h-4.12v-6.17h-3.82v6.17h-4.09v-15.75h4.09V130.72z
	 M62.01,124.82l4.74,15.75h-4.58l-0.61-2.75h-4.28l-0.61,2.75h-4.35l4.66-15.75H62.01z M60.81,134.39l-1.01-4.51l-0.32-1.68h-0.06
	l-0.36,1.68l-1.01,4.51H60.81z M71.94,136.91h5.35l-0.1,3.65h-9.39v-15.75h4.14V136.91z M76.04,124.82h11.15l0.08,3.67H83.7v12.07
	h-4.18v-12.07h-3.57L76.04,124.82z M100.14,108.6c0,5.77-2.22,7.96-6.65,7.96H87.8v-15.75h5.61
	C98.19,100.82,100.14,103.04,100.14,108.6z M91.89,112.97h1.53c1.8,0,2.41-0.55,2.41-4.41c0-3.49-0.57-4.11-2.41-4.11h-1.53V112.97z
	 M98.49,128.43h-5.86v2.44h4.83v3.3h-4.83v2.86h6.13l-0.08,3.55H88.53v-15.75h9.87L98.49,128.43z M109.85,100.82l4.74,15.75h-4.58
	l-0.61-2.75h-4.28l-0.61,2.75h-4.35l4.66-15.75H109.85z M108.65,110.39l-1.01-4.51l-0.31-1.68h-0.06l-0.36,1.68l-1.01,4.51H108.65z
	 M108.84,132.98l0.04-0.02l-0.04-1.68l0.02-6.47h3.61v15.75h-2.92l-4.7-7.26l-0.88-1.45l-0.04,0.02l0.02,1.7v6.99h-3.61v-15.75h3.44
	L108.84,132.98z M116.3,136.8c1.47,0,2.1,0.74,2.1,2.01c0,1.2-0.63,1.99-2.1,1.99c-1.47,0-2.12-0.57-2.12-1.99
	C114.18,137.54,114.83,136.8,116.3,136.8z M115.08,113.9l5.02-7.98l0.92-1.39l-0.02-0.04h-5.79l0.1-3.67h10.52v2.94l-4.85,7.73
	l-0.92,1.37l0.02,0.06h5.79l-0.06,3.65h-10.73V113.9z M126.63,80.49h-3.57v12.07h-4.18V80.49h-3.57l0.08-3.67h11.15L126.63,80.49z
	 M111.65,68.56h-4.22V52.82h4.22V68.56z M108.46,32.49h-5.79v2.77h4.81l-0.02,3.49h-4.79v5.82h-4.11V28.82h9.85L108.46,32.49z
	 M113.67,59.32h5.86v2.73h-5.86V59.32z M106.85,92.56V80.49h-3.57l0.08-3.67h11.15l0.08,3.67h-3.57v12.07H106.85z M97.63,92.56
	V76.82h4.22v15.75H97.63z M101.49,60.98l0.04-0.02l-0.04-1.68l0.02-6.47h3.61v15.75h-2.92l-4.7-7.27l-0.88-1.45l-0.04,0.02l0.02,1.7
	v6.99h-3.61V52.82h3.44L101.49,60.98z M81.6,111.8c0,3.11-2.1,5.04-5.65,5.04c-1.66,0-3.3-0.38-4.58-1.09l0.53-3.49
	c1.28,0.65,2.58,1.05,3.95,1.05c1.3,0,1.81-0.44,1.81-1.28c0-2.02-6.26-1.39-6.26-6.53c0-2.75,1.68-4.93,5.56-4.93
	c1.45,0,3,0.27,4.14,0.76l-0.46,3.42c-1.2-0.36-2.39-0.57-3.4-0.57c-1.55,0-1.89,0.46-1.89,1.13
	C75.35,107.35,81.6,106.65,81.6,111.8z M77.59,77.32l-0.46,3.42c-1.2-0.36-2.39-0.57-3.4-0.57c-1.55,0-1.89,0.46-1.89,1.13
	c0,2.04,6.26,1.34,6.26,6.49c0,3.11-2.1,5.04-5.65,5.04c-1.66,0-3.3-0.38-4.58-1.09l0.53-3.49c1.28,0.65,2.58,1.05,3.95,1.05
	c1.3,0,1.81-0.44,1.81-1.28c0-2.02-6.26-1.39-6.26-6.53c0-2.75,1.68-4.93,5.56-4.93C74.9,76.56,76.46,76.84,77.59,77.32z
	 M69.53,116.56h-4.22v-15.75h4.22V116.56z M62.16,76.54c1.39,0,2.96,0.25,4.09,0.69l-0.38,3.51c-1.03-0.38-2.35-0.61-3.49-0.61
	c-2.58,0-3.17,0.97-3.17,4.51c0,3.74,0.61,4.56,2.65,4.56c0.31,0,0.65-0.02,0.94-0.08v-5.14h3.65V92c-1.09,0.53-2.88,0.86-4.49,0.86
	c-5.21,0-7.05-2.79-7.05-8.17C54.91,79.19,57.08,76.54,62.16,76.54z M63.88,104.49h-3.57v12.07h-4.18v-12.07h-3.57l0.08-3.67H63.8
	L63.88,104.49z M26.98,76.82h4.11v10.31c0,1.41,0.55,2.04,1.95,2.04c1.43,0,1.91-0.59,1.91-2.04V76.82h4.1v10.39
	c0,3.69-1.97,5.63-6.01,5.63c-4.03,0-6.07-1.93-6.07-5.63V76.82z M36.58,52.82h3.61v15.75h-2.92l-4.7-7.27l-0.88-1.45l-0.04,0.02
	l0.02,1.7v6.99h-3.61V52.82h3.44l5.06,8.17l0.04-0.02l-0.04-1.68L36.58,52.82z M27.13,116.56v-15.75h5.44
	c3.99,0,5.96,1.51,5.96,5.06c0,2.1-0.76,3.65-2.14,4.24l3.01,6.34l4.63-15.64h5.02l4.75,15.75h-4.58l-0.61-2.75h-4.28l-0.61,2.75
	h-4.26h-0.08h-4.66l-2.1-5.63h-1.39v5.63H27.13z M47.86,110.39l-1.01-4.51l-0.32-1.68h-0.06l-0.36,1.68l-1.01,4.51H47.86z
	 M32.63,107.85c1.2,0,1.62-0.29,1.62-1.83c0-1.43-0.4-1.81-1.6-1.81h-1.43v3.63H32.63z M26.06,52.82v10.39
	c0,3.7-1.97,5.63-6.01,5.63s-6.07-1.93-6.07-5.63V52.82h4.11v10.31c0,1.41,0.55,2.04,1.95,2.04c1.43,0,1.91-0.59,1.91-2.04V52.82
	H26.06z M29.97,26.65c0-0.94,0.52-1.45,1.55-1.45c1.07,0,1.55,0.5,1.55,1.45c0,0.92-0.48,1.41-1.55,1.41
	C30.49,28.06,29.97,27.66,29.97,26.65z M33.98,26.65c0-0.94,0.52-1.45,1.55-1.45c1.07,0,1.55,0.5,1.55,1.45
	c0,0.92-0.48,1.41-1.55,1.41C34.5,28.06,33.98,27.66,33.98,26.65z M36.22,44.56l-0.61-2.75h-4.28l-0.61,2.75h-4.26h-0.08h-4.66
	l-2.1-5.63h-1.39v5.63h-4.09V28.82h5.44c3.99,0,5.96,1.51,5.96,5.06c0,2.1-0.76,3.65-2.14,4.24l3.01,6.34l4.63-15.64h5.02
	l4.74,15.75H36.22z M19.65,32.22h-1.43v3.63h1.41c1.2,0,1.62-0.29,1.62-1.83C21.25,32.59,20.85,32.22,19.65,32.22z M33.85,33.88
	l-0.32-1.68h-0.06l-0.36,1.68l-1.01,4.51h2.75L33.85,33.88z M43.13,44.56V32.49h-3.57l0.08-3.67H50.8l0.08,3.67h-3.57v12.07H43.13z
	 M49.58,76.82h3.61v15.75h-2.92l-4.7-7.26l-0.88-1.45l-0.04,0.02l0.02,1.7v6.99h-3.61V76.82h3.44l5.06,8.17l0.04-0.02l-0.04-1.68
	L49.58,76.82z M64.93,44.56l-2.96-6.4h-1.01v6.4h-4.1V28.82h4.1v6.09h1.09l2.92-6.09h4.6l-3.78,7.54l3.97,8.21H64.93z M68.71,68.56
	l-2.1-5.63h-1.39v5.63h-4.09V52.82h5.44c3.99,0,5.96,1.51,5.96,5.06c0,2.1-0.75,3.65-2.14,4.24l3.07,6.45H68.71z M66.65,56.22h-1.43
	v3.63h1.41c1.2,0,1.62-0.29,1.62-1.83C68.25,56.59,67.85,56.22,66.65,56.22z M84.71,65.01l-0.08,3.55H74.49V52.82h9.87l0.08,3.61
	h-5.86v2.44h4.83v3.3h-4.83v2.86H84.71z M86.46,52.82h4.22v15.75h-4.22V52.82z M95.31,76.82v15.75h-3.76v-6.59l0.04-1.7l-0.06-0.02
	l-0.52,1.64l-2.33,6.68h-2.67l-2.31-6.66l-0.52-1.64l-0.04,0.02l0.02,1.7v6.57h-3.59V76.82h4.51l2.77,7.96l0.53,1.62h0.06l0.52-1.6
	l2.81-7.98H95.31z M120.07,41.01l-0.08,3.55h-10.14V28.82h9.87l0.08,3.61h-5.86v2.44h4.83v3.3h-4.83v2.86H120.07z"/>
</svg>
