<?xml version="1.0" encoding="utf-8"?>
<!-- Generator: Adobe Illustrator 23.1.1, SVG Export Plug-In . SVG Version: 6.00 Build 0)  -->
<!DOCTYPE svg PUBLIC "-//W3C//DTD SVG 1.1//EN" "http://www.w3.org/Graphics/SVG/1.1/DTD/svg11.dtd" [
	<!ENTITY ns_extend "http://ns.adobe.com/Extensibility/1.0/">
	<!ENTITY ns_ai "http://ns.adobe.com/AdobeIllustrator/10.0/">
	<!ENTITY ns_graphs "http://ns.adobe.com/Graphs/1.0/">
	<!ENTITY ns_vars "http://ns.adobe.com/Variables/1.0/">
	<!ENTITY ns_imrep "http://ns.adobe.com/ImageReplacement/1.0/">
	<!ENTITY ns_sfw "http://ns.adobe.com/SaveForWeb/1.0/">
	<!ENTITY ns_custom "http://ns.adobe.com/GenericCustomNamespace/1.0/">
	<!ENTITY ns_adobe_xpath "http://ns.adobe.com/XPath/1.0/">
]>
<svg version="1.1" id="Ebene_1" xmlns:x="&ns_extend;" xmlns:i="&ns_ai;" xmlns:graph="&ns_graphs;"
	 xmlns="http://www.w3.org/2000/svg" xmlns:xlink="http://www.w3.org/1999/xlink" x="0px" y="0px" viewBox="0 0 252.9 169.2"
	 style="enable-background:new 0 0 252.9 169.2;" xml:space="preserve">
<style type="text/css">
	.st0{fill-rule:evenodd;clip-rule:evenodd;}
</style>
<metadata>
	<sfw  xmlns="&ns_sfw;">
		<slices></slices>
		<sliceSourceBounds  bottomLeftOrigin="true" height="156" width="233.6" x="3.9" y="-9.2"></sliceSourceBounds>
	</sfw>
</metadata>
<path class="st0" d="M241.5,160.9c-2.1,0-3-0.8-3-2.9c0-1.8,0.9-2.9,3-2.9c2.1,0,3,1,3,2.9C244.5,159.8,243.6,160.9,241.5,160.9z
	 M225.2,150.2l-1.3-2.1l-0.1,0l0,2.4v10h-5.2v-22.5h4.9l7.2,11.7l0.1,0l-0.1-2.4l0-9.2h5.2v22.5h-4.2L225.2,150.2z M219.3,32.6h-6
	V15.3h-5.1l0.1-5.2h15.9l0.1,5.2h-5.1V32.6z M202.5,9c-1.5,0-2.2-0.6-2.2-2c0-1.3,0.8-2.1,2.2-2.1c1.5,0,2.2,0.7,2.2,2.1
	C204.7,8.3,204,9,202.5,9z M196.8,9c-1.5,0-2.2-0.6-2.2-2c0-1.3,0.8-2.1,2.2-2.1c1.5,0,2.2,0.7,2.2,2.1C199,8.3,198.3,9,196.8,9z
	 M196.1,10.1h7.2l6.8,22.5h-6.5l-0.9-3.9h-6.1l-0.9,3.9h-6.1h-0.1h-6.7l-3-8h-2v8h-5.8V10.1h7.8c5.7,0,8.5,2.2,8.5,7.2
	c0,3-1.1,5.2-3.1,6.1l4.3,9.1L196.1,10.1z M201.5,23.8l-1.4-6.4l-0.4-2.4h-0.1l-0.5,2.4l-1.4,6.4H201.5z M179.8,14.9h-2v5.2h2
	c1.7,0,2.3-0.4,2.3-2.6C182.1,15.5,181.5,14.9,179.8,14.9z M169.7,27.5l-0.1,5.1h-14.5V10.1h14.1l0.1,5.2h-8.4v3.5h6.9v4.7h-6.9v4.1
	H169.7z M135.9,21.3c0-7.9,3.1-11.6,10.3-11.6c2,0,4.2,0.4,5.8,1l-0.5,5c-1.5-0.5-3.4-0.9-5-0.9c-3.7,0-4.5,1.4-4.5,6.4
	c0,5.3,0.9,6.5,3.8,6.5c0.4,0,0.9,0,1.4-0.1v-7.4h5.2v11.5c-1.6,0.8-4.1,1.2-6.4,1.2C138.5,33,135.9,29,135.9,21.3z M134.4,25.8
	c0,4.4-3,7.2-8.1,7.2c-2.4,0-4.7-0.5-6.5-1.6l0.8-5c1.8,0.9,3.7,1.5,5.6,1.5c1.9,0,2.6-0.6,2.6-1.8c0-2.9-8.9-2-8.9-9.3
	c0-3.9,2.4-7.1,7.9-7.1c2.1,0,4.3,0.4,5.9,1.1l-0.7,4.9c-1.7-0.5-3.4-0.8-4.9-0.8c-2.2,0-2.7,0.7-2.7,1.6
	C125.5,19.4,134.4,18.4,134.4,25.8z M106.5,22.2l-1.3-2.1l-0.1,0l0,2.4v10h-5.2V10.1h4.9l7.2,11.7l0.1,0l-0.1-2.4l0-9.2h5.2v22.5
	h-4.2L106.5,22.2z M88.2,33c-6.5,0-9.4-3.4-9.4-11.6c0-8.2,2.8-11.6,9.4-11.6c6.6,0,9.4,3.4,9.4,11.6C97.6,29.8,94.8,33,88.2,33z
	 M88.1,15c-2.5,0-3.2,1-3.2,6.4c0,5.4,0.8,6.4,3.3,6.4c2.5,0,3.2-1.1,3.2-6.4C91.4,16,90.7,15,88.1,15z M70,10.1h6v22.5h-6V10.1z
	 M60.6,65c-5.8,0-8.7-2.8-8.7-8V42.1h5.9v14.7c0,2,0.8,2.9,2.8,2.9c2,0,2.7-0.8,2.7-2.9V42.1h5.8v14.8C69.2,62.2,66.4,65,60.6,65z
	 M62.9,32.6h-6V15.3h-5.1l0.1-5.2h15.9l0.1,5.2h-5.1V32.6z M44.2,60.7H38l-0.9,3.9H31l6.7-22.5h7.2l6.8,22.5H45L44.2,60.7z
	 M41.6,49.3l-0.5-2.4h-0.1l-0.5,2.4l-1.4,6.4h3.9L41.6,49.3z M44.5,32.6l-4.2-9.1h-1.4v9.1H33V10.1h5.9v8.7h1.6l4.2-8.7h6.6
	l-5.4,10.8l5.7,11.7H44.5z M24.1,28.7H18l-0.9,3.9h-6.2l6.7-22.5h7.2l6.8,22.5H25L24.1,28.7z M21.6,17.3l-0.5-2.4H21l-0.5,2.4
	l-1.4,6.4H23L21.6,17.3z M18.3,50.8h1.6l4.2-8.7h6.6l-5.4,10.8l5.7,11.7H24l-4.2-9.2h-1.4v9.2h-5.8V42.1h5.8V50.8z M28.8,81.3
	c0,3-1.1,5.2-3.1,6.1l4.4,9.2h-6.8l-3-8h-2v8h-5.8V74.1h7.8C26,74.1,28.8,76.2,28.8,81.3z M18.3,84.1h2c1.7,0,2.3-0.4,2.3-2.6
	c0-2-0.6-2.6-2.3-2.6h-2V84.1z M22.9,117.5l0.8,2.3h0.1l0.8-2.3l4-11.4H35v22.5h-5.4v-9.4l0.1-2.4l-0.1,0l-0.7,2.3l-3.3,9.5h-3.8
	l-3.3-9.5l-0.8-2.3l-0.1,0l0,2.4v9.4h-5.1v-22.5h6.4L22.9,117.5z M30.1,149.2c0,8.2-3.2,11.4-9.5,11.4h-8.1v-22.5h8
	C27.3,138.1,30.1,141.3,30.1,149.2z M18.3,155.5h2.2c2.6,0,3.5-0.8,3.5-6.3c0-5-0.8-5.9-3.5-5.9h-2.2V155.5z M38.3,128.6v-22.5h6
	v22.5H38.3z M46.2,91.5l-0.1,5.1H31.6V74.1h14.1l0.1,5.2h-8.4v3.5h6.9v4.7h-6.9v4.1H46.2z M44,138.1l6.8,22.5h-6.5l-0.9-3.9h-6.1
	l-0.9,3.9h-6.2l6.7-22.5H44z M42.3,151.8l-1.4-6.4l-0.5-2.4h-0.1l-0.5,2.4l-1.4,6.4H42.3z M54.7,74.1v22.5h-6V74.1H54.7z
	 M46.5,106.1h15.9l0.1,5.2h-5.1v17.2h-6v-17.2h-5.1L46.5,106.1z M59.9,143.4L59.9,143.4l-8.3-0.1l0.2-5.2h15v4.2l-6.9,11l-1.3,1.9
	l0,0.1h8.3l-0.1,5.2H51.5v-3.8l7.2-11.4L59.9,143.4z M63.7,106.1h15.9l0.1,5.2h-5.1v17.2h-6v-17.2h-5.1L63.7,106.1z M74.6,152.8
	c0,2,0.8,2.9,2.8,2.9c2,0,2.7-0.8,2.7-2.9v-14.7H86v14.8c0,5.3-2.8,8-8.6,8c-5.8,0-8.7-2.8-8.7-8v-14.8h5.9V152.8z M109.8,143.2
	h-8.4v3.5h6.9v4.7h-6.9v4.1h8.8l-0.1,5.1H95.6v-22.5h14.1L109.8,143.2z M95.7,111.2h-8.4v3.5h6.9v4.7h-6.9v4.1h8.8l-0.1,5.1H81.5
	v-22.5h14.1L95.7,111.2z M78.6,96.6V74.1h6v22.5H78.6z M86.2,47.3h-8.3v4h6.9l0,5h-6.8v8.3H72V42.1h14.1L86.2,47.3z M70.2,74.1h5.2
	v22.5h-4.2l-6.7-10.4l-1.3-2.1l-0.1,0l0,2.4v10H58V74.1h4.9l7.2,11.7l0.1,0l-0.1-2.4L70.2,74.1z M102.8,59.5l-0.1,5.1H88.2V42.1
	h14.1l0.1,5.2H94v3.5h6.9v4.7H94v4.1H102.8z M103.9,84.3v11.5c-1.6,0.8-4.1,1.2-6.4,1.2c-7.4,0-10.1-4-10.1-11.7
	c0-7.9,3.1-11.6,10.3-11.6c2,0,4.2,0.4,5.8,1l-0.5,5c-1.5-0.5-3.4-0.9-5-0.9c-3.7,0-4.5,1.4-4.5,6.4c0,5.3,0.9,6.5,3.8,6.5
	c0.4,0,0.9,0,1.3-0.1v-7.3H103.9z M98.4,106.1h5.9v17.3h7.7l-0.2,5.2H98.4V106.1z M128.7,145.3c0,3-1.1,5.2-3.1,6.1l4.4,9.2h-6.8
	l-3-8h-2v8h-5.9v-22.5h7.8C125.9,138.1,128.7,140.2,128.7,145.3z M118.3,148.1h2c1.7,0,2.3-0.4,2.3-2.6c0-2-0.6-2.6-2.3-2.6h-2
	V148.1z M123.6,88.9c0,5.3-2.8,8-8.6,8s-8.7-2.8-8.7-8V74.1h5.9v14.7c0,2,0.8,2.9,2.8,2.9c2,0,2.7-0.8,2.7-2.9V74.1h5.8V88.9z
	 M117.2,42.1h5.2v22.5h-4.2l-6.7-10.4l-1.3-2.1l-0.1,0l0,2.4v10H105V42.1h4.9l7.2,11.7l0.1,0l-0.1-2.4L117.2,42.1z M120,117.3
	c0-7.9,3.1-11.6,10.3-11.6c2,0,4.2,0.4,5.8,1l-0.5,5c-1.5-0.5-3.4-0.9-5-0.9c-3.7,0-4.5,1.4-4.5,6.4c0,5.3,0.9,6.5,3.8,6.5
	c0.4,0,0.9,0,1.4-0.1v-7.3h5.2v11.5c-1.6,0.8-4.1,1.2-6.4,1.2C122.6,129,120,125,120,117.3z M137.4,146.5h5.5v-8.4h5.9v22.5h-5.9
	v-8.8h-5.5v8.8h-5.8v-22.5h5.8V146.5z M145,120.5v8h-5.8v-22.5h7.8c5.7,0,8.5,2.2,8.5,7.2c0,3-1.1,5.2-3.1,6.1l4.3,9.1l6.6-22.3h7.2
	l6.8,22.5h-6.5l-0.9-3.9h-6.1l-0.9,3.9h-6.1h-0.1H150l-3-8H145z M168.8,119.8l-1.4-6.4l-0.4-2.4h-0.1l-0.5,2.4l-1.4,6.4H168.8z
	 M149.3,113.5c0-2-0.6-2.6-2.3-2.6h-2v5.2h2C148.7,116.1,149.3,115.7,149.3,113.5z M164,138.1l6.8,22.5h-6.5l-0.9-3.9h-6.1l-0.9,3.9
	h-6.2l6.7-22.5H164z M162.3,151.8l-1.4-6.4l-0.4-2.4h-0.1l-0.5,2.4l-1.4,6.4H162.3z M178.2,155.4h7.7l-0.2,5.2h-13.4v-22.5h5.9
	V155.4z M191.7,111.3h-5.1v17.2h-6v-17.2h-5.1l0.1-5.2h15.9L191.7,111.3z M189.4,87.3H181v-3.9h8.4V87.3z M190.1,53.2
	c0,8.2-3.2,11.4-9.5,11.4h-8.1V42.1h8C187.3,42.1,190.1,45.3,190.1,53.2z M178.3,59.5h2.2c2.6,0,3.4-0.8,3.4-6.3
	c0-5-0.8-5.9-3.4-5.9h-2.2V59.5z M178.6,74.8l-0.7,4.9c-1.7-0.5-3.4-0.8-4.9-0.8c-2.2,0-2.7,0.7-2.7,1.6c0,2.9,8.9,1.9,8.9,9.3
	c0,4.4-3,7.2-8.1,7.2c-2.4,0-4.7-0.5-6.5-1.6l0.8-5c1.8,0.9,3.7,1.5,5.6,1.5c1.9,0,2.6-0.6,2.6-1.8c0-2.9-8.9-2-8.9-9.3
	c0-3.9,2.4-7.1,7.9-7.1C174.8,73.7,177,74.1,178.6,74.8z M156.6,73.7c2,0,4.2,0.4,5.9,1l-0.5,5c-1.5-0.5-3.4-0.9-5-0.9
	c-3.7,0-4.5,1.4-4.5,6.4c0,5.3,0.9,6.5,3.8,6.5c0.4,0,0.9,0,1.4-0.1v-7.3h5.2v11.5c-1.6,0.8-4.1,1.2-6.4,1.2
	c-7.4,0-10.1-4-10.1-11.7C146.2,77.5,149.3,73.7,156.6,73.7z M131.6,96.6h-5.2V74.1h4.9l7.2,11.7l0.1,0l-0.1-2.4l0-9.2h5.2v22.5
	h-4.2l-6.7-10.4l-1.3-2.1l-0.1,0l0,2.4V96.6z M149.2,42.1v14.8c0,5.3-2.8,8-8.6,8c-5.8,0-8.7-2.8-8.7-8V42.1h5.9v14.7
	c0,2,0.8,2.9,2.8,2.9c2,0,2.7-0.8,2.7-2.9V42.1H149.2z M164.2,42.1h5.2v22.5h-4.2l-6.7-10.4l-1.3-2.1l-0.1,0l0,2.4v10h-5.2V42.1h4.9
	l7.2,11.7l0.1,0l-0.1-2.4L164.2,42.1z M199.7,106.1v22.5h-6v-22.5H199.7z M184,138.1h15.9l0.1,5.2H195v17.2h-6v-17.2h-5.1L184,138.1
	z M216.1,143.2h-8.4v3.5h6.9v4.7h-6.9v4.1h8.8l-0.1,5.1h-14.5v-22.5H216L216.1,143.2z M217,121.8c0,4.4-3,7.2-8.1,7.2
	c-2.4,0-4.7-0.5-6.5-1.6l0.8-5c1.8,0.9,3.7,1.5,5.6,1.5c1.9,0,2.6-0.6,2.6-1.8c0-2.9-8.9-2-8.9-9.3c0-3.9,2.4-7.1,7.9-7.1
	c2.1,0,4.3,0.4,5.9,1.1l-0.7,4.9c-1.7-0.5-3.4-0.8-4.9-0.8c-2.2,0-2.7,0.7-2.7,1.6C208,115.4,217,114.4,217,121.8z"/>
</svg>
