<?xml version="1.0" encoding="utf-8"?>
<!-- Generator: Adobe Illustrator 23.1.1, SVG Export Plug-In . SVG Version: 6.00 Build 0)  -->
<!DOCTYPE svg PUBLIC "-//W3C//DTD SVG 1.1//EN" "http://www.w3.org/Graphics/SVG/1.1/DTD/svg11.dtd" [
	<!ENTITY ns_extend "http://ns.adobe.com/Extensibility/1.0/">
	<!ENTITY ns_ai "http://ns.adobe.com/AdobeIllustrator/10.0/">
	<!ENTITY ns_graphs "http://ns.adobe.com/Graphs/1.0/">
	<!ENTITY ns_vars "http://ns.adobe.com/Variables/1.0/">
	<!ENTITY ns_imrep "http://ns.adobe.com/ImageReplacement/1.0/">
	<!ENTITY ns_sfw "http://ns.adobe.com/SaveForWeb/1.0/">
	<!ENTITY ns_custom "http://ns.adobe.com/GenericCustomNamespace/1.0/">
	<!ENTITY ns_adobe_xpath "http://ns.adobe.com/XPath/1.0/">
]>
<svg version="1.1" id="Ebene_1" xmlns:x="&ns_extend;" xmlns:i="&ns_ai;" xmlns:graph="&ns_graphs;"
	 xmlns="http://www.w3.org/2000/svg" xmlns:xlink="http://www.w3.org/1999/xlink" x="0px" y="0px" viewBox="0 0 96.38 65.54"
	 style="enable-background:new 0 0 96.38 65.54;" xml:space="preserve">
<style type="text/css">
	.st0{fill-rule:evenodd;clip-rule:evenodd;}
</style>
<metadata>
	<sfw  xmlns="&ns_sfw;">
		<slices></slices>
		<sliceSourceBounds  bottomLeftOrigin="true" height="49.17" width="76.11" x="5.14" y="-54.89"></sliceSourceBounds>
	</sfw>
</metadata>
<path class="st0" d="M79.54,54.87c-1.19,0-1.72-0.46-1.72-1.62c0-1.04,0.53-1.63,1.72-1.63s1.7,0.6,1.7,1.63
	C81.24,54.22,80.73,54.87,79.54,54.87z M76.08,11.19h4.74v2.21h-4.74V11.19z M77.21,53.26c0,0.97-0.51,1.62-1.7,1.62
	s-1.72-0.46-1.72-1.62c0-1.04,0.53-1.63,1.72-1.63S77.21,52.22,77.21,53.26z M75.12,14.81c0,2.52-1.7,4.08-4.57,4.08
	c-1.34,0-2.67-0.31-3.7-0.88l0.42-2.82c1.04,0.53,2.09,0.85,3.19,0.85c1.05,0,1.46-0.36,1.46-1.04c0-1.63-5.07-1.12-5.07-5.29
	c0-2.23,1.36-3.99,4.5-3.99c1.17,0,2.43,0.22,3.35,0.61L74.34,9.1c-0.97-0.29-1.94-0.46-2.75-0.46c-1.26,0-1.53,0.37-1.53,0.92
	C70.06,11.2,75.12,10.64,75.12,14.81z M59.31,12.78l-0.71-1.17l-0.03,0.02l0.02,1.38v5.66h-2.92V5.92h2.79l4.1,6.61l0.03-0.02
	l-0.03-1.36l0.02-5.24h2.92v12.75h-2.36L59.31,12.78z M48.93,18.89c-3.67,0-5.34-1.94-5.34-6.6c0-4.67,1.6-6.58,5.34-6.58
	c3.74,0,5.34,1.9,5.34,6.58C54.26,17.09,52.67,18.89,48.93,18.89z M48.91,8.69c-1.39,0-1.84,0.58-1.84,3.6
	c0,3.04,0.46,3.65,1.87,3.65c1.41,0,1.84-0.63,1.84-3.65C50.78,9.25,50.35,8.69,48.91,8.69z M44.69,22.17
	c0,0.75-0.39,1.14-1.26,1.14c-0.83,0-1.26-0.32-1.26-1.14c0-0.76,0.42-1.17,1.26-1.17C44.3,20.99,44.69,21.4,44.69,22.17z
	 M38.64,5.92h3.42v12.75h-3.42V5.92z M34.6,18.67h-3.38V8.89h-2.89l0.07-2.97h9.03l0.07,2.97H34.6V18.67z M24.19,18.67l-2.4-5.19
	h-0.82v5.19h-3.31V5.92h3.31v4.93h0.88l2.36-4.93h3.72l-3.06,6.1l3.21,6.65H24.19z M12.61,16.44H9.15l-0.49,2.23H5.14L8.91,5.92
	h4.06l3.84,12.75h-3.71L12.61,16.44z M11.19,10.01l-0.26-1.36h-0.05l-0.29,1.36l-0.82,3.65H12L11.19,10.01z M11.56,23.7
	c1.12,0,2.4,0.2,3.32,0.56l-0.31,2.84c-0.83-0.31-1.9-0.49-2.82-0.49c-2.09,0-2.57,0.78-2.57,3.65c0,3.03,0.49,3.69,2.14,3.69
	c0.26,0,0.53-0.02,0.77-0.07v-4.16h2.96v6.49c-0.88,0.43-2.33,0.7-3.64,0.7c-4.22,0-5.71-2.26-5.71-6.61
	C5.7,25.84,7.45,23.7,11.56,23.7z M9.35,46.85h0.88l2.36-4.93h3.72l-3.06,6.1l3.21,6.65h-3.91l-2.4-5.18H9.35v5.18H6.04V41.92h3.31
	V46.85z M24.84,33.79l-0.07,2.87h-8.21V23.92h7.99l0.07,2.92h-4.74v1.97h3.91v2.67h-3.91v2.31H24.84z M24.34,41.92l3.84,12.75h-3.7
	l-0.49-2.23h-3.47l-0.49,2.23h-3.52l3.77-12.75H24.34z M23.38,49.67l-0.82-3.65l-0.25-1.36h-0.05l-0.29,1.36l-0.82,3.65H23.38z
	 M31.72,50.26c0,1.14,0.44,1.65,1.58,1.65c1.16,0,1.55-0.48,1.55-1.65v-8.35h3.31v8.41c0,2.99-1.6,4.56-4.86,4.56
	c-3.26,0-4.91-1.56-4.91-4.56v-8.41h3.33V50.26z M38.93,22.17c0-0.76,0.42-1.17,1.26-1.17c0.87,0,1.26,0.41,1.26,1.17
	c0,0.75-0.39,1.14-1.26,1.14C39.36,23.31,38.93,22.98,38.93,22.17z M36.02,36.67h-3.77l-1.7-4.56h-1.12v4.56h-3.31V23.92h4.4
	c3.23,0,4.83,1.22,4.83,4.1c0,1.7-0.61,2.96-1.73,3.43l2.44,5.13l3.75-12.66h4.06l3.84,12.75H44l-0.49-2.23h-3.47l-0.49,2.23h-3.45
	H36.02z M30.58,26.67h-1.16v2.94h1.14c0.97,0,1.31-0.24,1.31-1.48C31.88,26.98,31.55,26.67,30.58,26.67z M42.89,31.67l-0.82-3.65
	l-0.25-1.36h-0.05l-0.29,1.36l-0.82,3.65H42.89z M47.8,44.89h-4.69v2.24h3.89l-0.02,2.82h-3.88v4.71h-3.33V41.92h7.97L47.8,44.89z
	 M49.59,36.67v-9.77H46.7l0.07-2.97h9.03l0.07,2.97h-2.89v9.77H49.59z M56.98,44.84h-4.74v1.97h3.91v2.67h-3.91v2.31h4.96
	l-0.07,2.87h-8.21V41.92h7.99L56.98,44.84z M65.37,48.53l0.03-0.02l-0.03-1.36l0.02-5.24h2.92v12.75h-2.36l-3.81-5.88l-0.71-1.17
	l-0.03,0.02l0.02,1.38v5.66h-2.92V41.92h2.79L65.37,48.53z M71.4,51.62c1.19,0,1.7,0.6,1.7,1.63c0,0.97-0.51,1.62-1.7,1.62
	c-1.19,0-1.72-0.46-1.72-1.62C69.68,52.22,70.21,51.62,71.4,51.62z"/>
</svg>
