<?xml version="1.0" encoding="utf-8"?>
<!-- Generator: Adobe Illustrator 23.1.1, SVG Export Plug-In . SVG Version: 6.00 Build 0)  -->
<!DOCTYPE svg PUBLIC "-//W3C//DTD SVG 1.1//EN" "http://www.w3.org/Graphics/SVG/1.1/DTD/svg11.dtd" [
	<!ENTITY ns_extend "http://ns.adobe.com/Extensibility/1.0/">
	<!ENTITY ns_ai "http://ns.adobe.com/AdobeIllustrator/10.0/">
	<!ENTITY ns_graphs "http://ns.adobe.com/Graphs/1.0/">
	<!ENTITY ns_vars "http://ns.adobe.com/Variables/1.0/">
	<!ENTITY ns_imrep "http://ns.adobe.com/ImageReplacement/1.0/">
	<!ENTITY ns_sfw "http://ns.adobe.com/SaveForWeb/1.0/">
	<!ENTITY ns_custom "http://ns.adobe.com/GenericCustomNamespace/1.0/">
	<!ENTITY ns_adobe_xpath "http://ns.adobe.com/XPath/1.0/">
]>
<svg version="1.1" id="Ebene_1" xmlns:x="&ns_extend;" xmlns:i="&ns_ai;" xmlns:graph="&ns_graphs;"
	 xmlns="http://www.w3.org/2000/svg" xmlns:xlink="http://www.w3.org/1999/xlink" x="0px" y="0px" viewBox="0 0 88.86 69.04"
	 style="enable-background:new 0 0 88.86 69.04;" xml:space="preserve">
<style type="text/css">
	.st0{fill-rule:evenodd;clip-rule:evenodd;}
</style>
<metadata>
	<sfw  xmlns="&ns_sfw;">
		<slices></slices>
		<sliceSourceBounds  bottomLeftOrigin="true" height="60.63" width="81.12" x="3.88" y="6"></sliceSourceBounds>
	</sfw>
</metadata>
<path class="st0" d="M77.74,18.4h-6.15v10.05h-6.59V2.81h6.59v9.6h6.15v-9.6h6.62v25.63h-6.62V18.4z M62.64,20.69
	c0,5.06-3.38,8.2-9.08,8.2c-2.67,0-5.3-0.62-7.36-1.78l0.84-5.67c2.06,1.06,4.15,1.71,6.35,1.71c2.09,0,2.9-0.72,2.9-2.08
	c0-3.28-10.06-2.26-10.06-10.63c0-4.48,2.7-8.03,8.95-8.03c2.33,0,4.83,0.44,6.65,1.23L61.09,9.2c-1.93-0.58-3.85-0.92-5.47-0.92
	c-2.5,0-3.04,0.75-3.04,1.85C52.58,13.44,62.64,12.31,62.64,20.69z M34.31,28.89c-6.48,0-9.76-3.14-9.76-9.16V2.81h6.62v16.78
	c0,2.29,0.88,3.32,3.14,3.32c2.3,0,3.07-0.96,3.07-3.32V2.81h6.59v16.92C43.97,25.74,40.79,28.89,34.31,28.89z M12.56,20.48h-2.09
	v7.96H3.88V2.81h8.68c7.02,0,9.83,2.77,9.83,9.02C22.39,17.37,19.65,20.48,12.56,20.48z M12.56,8.38h-2.09v6.8h2.09
	c2.16,0,2.97-0.51,2.97-3.38C15.53,9.03,14.89,8.38,12.56,8.38z M59.33,62.63h-6.79V36.99h6.79V62.63z M79.7,36.99l0.14,5.98h-5.74
	v19.65h-6.72V42.97h-5.74l0.14-5.98H79.7z M81.62,56.51c2.36,0,3.38,1.2,3.38,3.28c0,1.95-1.01,3.25-3.38,3.25
	c-2.36,0-3.41-0.92-3.41-3.25C78.21,57.7,79.26,56.51,81.62,56.51z"/>
</svg>
