<?xml version="1.0" encoding="utf-8"?>
<!-- Generator: Adobe Illustrator 23.1.1, SVG Export Plug-In . SVG Version: 6.00 Build 0)  -->
<!DOCTYPE svg PUBLIC "-//W3C//DTD SVG 1.1//EN" "http://www.w3.org/Graphics/SVG/1.1/DTD/svg11.dtd" [
	<!ENTITY ns_extend "http://ns.adobe.com/Extensibility/1.0/">
	<!ENTITY ns_ai "http://ns.adobe.com/AdobeIllustrator/10.0/">
	<!ENTITY ns_graphs "http://ns.adobe.com/Graphs/1.0/">
	<!ENTITY ns_vars "http://ns.adobe.com/Variables/1.0/">
	<!ENTITY ns_imrep "http://ns.adobe.com/ImageReplacement/1.0/">
	<!ENTITY ns_sfw "http://ns.adobe.com/SaveForWeb/1.0/">
	<!ENTITY ns_custom "http://ns.adobe.com/GenericCustomNamespace/1.0/">
	<!ENTITY ns_adobe_xpath "http://ns.adobe.com/XPath/1.0/">
]>
<svg version="1.1" id="Ebene_1" xmlns:x="&ns_extend;" xmlns:i="&ns_ai;" xmlns:graph="&ns_graphs;"
	 xmlns="http://www.w3.org/2000/svg" xmlns:xlink="http://www.w3.org/1999/xlink" x="0px" y="0px" viewBox="0 0 301.04 69.98"
	 style="enable-background:new 0 0 301.04 69.98;" xml:space="preserve">
<style type="text/css">
	.st0{fill-rule:evenodd;clip-rule:evenodd;}
</style>
<metadata>
	<sfw  xmlns="&ns_sfw;">
		<slices></slices>
		<sliceSourceBounds  bottomLeftOrigin="true" height="41.07" width="271.81" x="13.12" y="42.47"></sliceSourceBounds>
	</sfw>
</metadata>
<path class="st0" d="M282.72,52.47c-1.54,0-2.22-0.59-2.22-2.09c0-1.34,0.68-2.11,2.22-2.11c1.54,0,2.2,0.77,2.2,2.11
	C284.92,51.63,284.26,52.47,282.72,52.47z M270.73,44.59l-0.92-1.52l-0.04,0.02l0.02,1.78v7.32H266v-16.5h3.61l5.3,8.56l0.04-0.02
	l-0.04-1.76l0.02-6.78h3.78v16.5h-3.06L270.73,44.59z M264.35,48.49l-0.09,3.72h-10.62v-16.5h10.34l0.09,3.78h-6.14v2.55h5.06v3.45
	h-5.06v2.99H264.35z M243.41,44.59l-0.92-1.52l-0.04,0.02l0.02,1.78v7.32h-3.78v-16.5h3.61l5.3,8.56l0.04-0.02l-0.04-1.76l0.02-6.78
	h3.78v16.5h-3.06L243.41,44.59z M231.84,35.71h4.42v16.5h-4.42V35.71z M225.12,45.74h-4v6.47h-4.29v-16.5h4.29v6.18h4v-6.18h4.31
	v16.5h-4.31V45.74z M212.12,48.75c1.01,0,1.96-0.2,2.73-0.55l0.4,3.5c-0.99,0.48-2.49,0.79-3.76,0.79c-4.71,0-7-2.68-7-8.62
	c0-5.54,2.22-8.45,7.26-8.45c1.17,0,2.6,0.26,3.48,0.62l-0.42,3.65c-0.73-0.26-1.72-0.44-2.75-0.44c-2.44,0-3.06,1.03-3.06,4.64
	C209,47.7,209.68,48.75,212.12,48.75z M197.47,52.49c-1.74,0-3.45-0.4-4.79-1.14l0.55-3.65c1.34,0.68,2.71,1.1,4.13,1.1
	c1.36,0,1.89-0.46,1.89-1.34c0-2.11-6.55-1.45-6.55-6.84c0-2.88,1.76-5.17,5.83-5.17c1.52,0,3.15,0.29,4.33,0.79l-0.48,3.58
	c-1.25-0.37-2.51-0.59-3.56-0.59c-1.63,0-1.98,0.48-1.98,1.19c0,2.13,6.56,1.41,6.56,6.8C203.39,50.47,201.19,52.49,197.47,52.49z
	 M195.65,28.2h-4.38V15.56h-3.74l0.09-3.85h11.68l0.09,3.85h-3.74V28.2z M182.18,28.2l-3.1-6.71h-1.05v6.71h-4.29v-16.5h4.29v6.38
	h1.14l3.06-6.38h4.82l-3.96,7.9l4.16,8.6H182.18z M167.2,25.32h-4.49l-0.64,2.88h-4.55l4.88-16.5h5.26l4.97,16.5h-4.79L167.2,25.32z
	 M165.35,17.01l-0.33-1.76h-0.07l-0.37,1.76l-1.06,4.73h2.88L165.35,17.01z M151.98,23.08h-1.36v5.12h-4.29v-16.5h5.65
	c4.57,0,6.4,1.78,6.4,5.81C158.38,21.08,156.6,23.08,151.98,23.08z M151.98,15.29h-1.36v4.38h1.36c1.41,0,1.93-0.33,1.93-2.18
	C153.91,15.71,153.49,15.29,151.98,15.29z M152.86,35.42c1.45,0,3.1,0.26,4.29,0.73l-0.4,3.67c-1.08-0.4-2.46-0.64-3.65-0.64
	c-2.71,0-3.32,1.01-3.32,4.73c0,3.92,0.64,4.77,2.77,4.77c0.33,0,0.68-0.02,0.99-0.09v-5.39h3.83v8.4c-1.14,0.55-3.01,0.9-4.71,0.9
	c-5.46,0-7.39-2.93-7.39-8.56C145.27,38.19,147.53,35.42,152.86,35.42z M140.14,21.3l0.04-1.78l-0.07-0.02l-0.55,1.72l-2.44,7h-2.79
	l-2.42-6.97l-0.55-1.72l-0.04,0.02l0.02,1.78v6.89h-3.76v-16.5h4.73l2.9,8.34l0.55,1.69h0.07l0.55-1.67l2.95-8.36h4.75v16.5h-3.94
	V21.3z M118.87,28.49c-4.75,0-6.91-2.51-6.91-8.53c0-6.05,2.07-8.51,6.91-8.51c4.84,0,6.91,2.46,6.91,8.51
	C125.77,26.16,123.71,28.49,118.87,28.49z M118.85,15.29c-1.8,0-2.38,0.75-2.38,4.66c0,3.94,0.59,4.73,2.42,4.73
	c1.83,0,2.38-0.81,2.38-4.73C121.26,16.02,120.72,15.29,118.85,15.29z M112.09,28.2h-5.06l-3.1-6.71h-1.06v6.71h-4.29v-16.5h4.29
	v6.38h1.14l3.06-6.38h4.82l-3.96,7.9L112.09,28.2z M103.36,41.01c0,2.2-0.79,3.83-2.24,4.44l3.21,6.75h-4.97l-2.2-5.9H95.7v5.9
	h-4.29v-16.5h5.7C101.29,35.71,103.36,37.29,103.36,41.01z M97.2,39.27H95.7v3.81h1.47c1.25,0,1.69-0.31,1.69-1.91
	C98.87,39.67,98.45,39.27,97.2,39.27z M91.98,24.49l-0.09,3.72H81.27v-16.5h10.34l0.09,3.78h-6.14v2.55h5.06v3.45h-5.06v2.99H91.98z
	 M75.22,28.2l-2.2-5.9h-1.45v5.9h-4.29v-16.5h5.7c4.18,0,6.25,1.58,6.25,5.3c0,2.2-0.79,3.83-2.24,4.44l3.21,6.75H75.22z
	 M73.06,15.27h-1.5v3.81h1.47c1.25,0,1.69-0.31,1.69-1.91C74.74,15.67,74.32,15.27,73.06,15.27z M65.63,24.49l-0.09,3.72H54.92
	v-16.5h10.34l0.09,3.78H59.2v2.55h5.06v3.45H59.2v2.99H65.63z M47.46,28.49c-1.74,0-3.45-0.4-4.79-1.14l0.55-3.65
	c1.34,0.68,2.7,1.1,4.13,1.1c1.36,0,1.89-0.46,1.89-1.34c0-2.11-6.56-1.45-6.56-6.84c0-2.88,1.76-5.17,5.83-5.17
	c1.52,0,3.15,0.29,4.33,0.79l-0.48,3.59c-1.25-0.37-2.51-0.59-3.56-0.59c-1.63,0-1.98,0.48-1.98,1.19c0,2.13,6.56,1.41,6.56,6.8
	C53.37,26.47,51.17,28.49,47.46,28.49z M45.56,35.71h4.31v16.5h-4.31v-6.47h-4v6.47h-4.29v-16.5h4.29v6.18h4V35.71z M32.91,20.59
	l-0.92-1.52l-0.04,0.02l0.02,1.78v7.33h-3.78v-16.5h3.61l5.3,8.56l0.04-0.02l-0.04-1.76l0.02-6.77h3.78v16.5h-3.06L32.91,20.59z
	 M19.8,28.49c-4.22,0-6.36-2.02-6.36-5.9V11.71h4.31v10.8c0,1.47,0.57,2.13,2.05,2.13c1.5,0,2-0.62,2-2.13v-10.8h4.29V22.6
	C26.09,26.47,24.03,28.49,19.8,28.49z M18.97,35.44c1.52,0,3.15,0.29,4.33,0.79l-0.48,3.58c-1.25-0.37-2.51-0.59-3.56-0.59
	c-1.63,0-1.98,0.48-1.98,1.19c0,2.13,6.55,1.41,6.55,6.8c0,3.26-2.2,5.28-5.92,5.28c-1.74,0-3.45-0.4-4.8-1.14l0.55-3.65
	c1.34,0.68,2.71,1.1,4.14,1.1c1.36,0,1.89-0.46,1.89-1.34c0-2.11-6.55-1.45-6.55-6.84C13.14,37.73,14.9,35.44,18.97,35.44z
	 M32.19,35.42c1.17,0,2.59,0.26,3.47,0.62l-0.42,3.65c-0.73-0.26-1.72-0.44-2.75-0.44c-2.44,0-3.06,1.03-3.06,4.64
	c0,3.81,0.68,4.86,3.12,4.86c1.01,0,1.96-0.2,2.73-0.55l0.4,3.5c-0.99,0.48-2.49,0.79-3.76,0.79c-4.71,0-7-2.68-7-8.62
	C24.93,38.32,27.15,35.42,32.19,35.42z M62.53,39.49h-6.14v2.55h5.06v3.45h-5.06v2.99h6.42l-0.09,3.72H52.1v-16.5h10.34L62.53,39.49
	z M68.62,46.51c0,1.47,0.57,2.13,2.04,2.13c1.5,0,2-0.62,2-2.13v-10.8h4.29V46.6c0,3.87-2.07,5.89-6.29,5.89
	c-4.22,0-6.36-2.02-6.36-5.89V35.71h4.31V46.51z M89.47,39.49h-6.14v2.55h5.06v3.45h-5.06v2.99h6.42l-0.09,3.72H79.05v-16.5h10.34
	L89.47,39.49z M109.61,48.79c1.36,0,1.89-0.46,1.89-1.34c0-2.11-6.56-1.45-6.56-6.84c0-2.88,1.76-5.17,5.83-5.17
	c1.52,0,3.14,0.29,4.33,0.79l-0.48,3.58c-1.25-0.37-2.51-0.59-3.56-0.59c-1.63,0-1.98,0.48-1.98,1.19c0,2.13,6.56,1.41,6.56,6.8
	c0,3.26-2.2,5.28-5.92,5.28c-1.74,0-3.45-0.4-4.8-1.14l0.55-3.65C106.81,48.38,108.18,48.79,109.61,48.79z M125.73,35.71l4.97,16.5
	h-4.8l-0.64-2.88h-4.49l-0.64,2.88h-4.55l4.88-16.5H125.73z M124.48,45.74l-1.05-4.73l-0.33-1.76h-0.07l-0.37,1.76l-1.06,4.73
	H124.48z M135.28,46.51c0,1.47,0.57,2.13,2.05,2.13c1.49,0,2-0.62,2-2.13v-10.8h4.29V46.6c0,3.87-2.07,5.89-6.29,5.89
	c-4.22,0-6.36-2.02-6.36-5.89V35.71h4.31V46.51z M166.96,44.04l0.55,1.69h0.07l0.55-1.67l2.95-8.36h4.75v16.5h-3.94V45.3l0.04-1.78
	l-0.07-0.02l-0.55,1.72l-2.44,6.99h-2.79l-2.42-6.97l-0.55-1.72l-0.04,0.02l0.02,1.78v6.88h-3.76v-16.5h4.73L166.96,44.04z
	 M187.04,35.71l4.97,16.5h-4.79l-0.64-2.88h-4.49l-0.64,2.88h-4.55l4.88-16.5H187.04z M185.79,45.74l-1.06-4.73l-0.33-1.76h-0.07
	l-0.37,1.76l-1.06,4.73H185.79z"/>
</svg>
