<svg enable-background="new 0 0 244.83 157.04" viewBox="0 0 244.83 157.04" xmlns="http://www.w3.org/2000/svg"><path clip-rule="evenodd" d="m196.54 30.46c-2.1 0-3.03-.81-3.03-2.85 0-1.83.93-2.88 3.03-2.88s3 1.05 3 2.88c0 1.71-.9 2.85-3 2.85zm-10.57 11.34-3-8.04h-1.98v8.04h-5.85v-22.5h7.77c5.7 0 8.52 2.16 8.52 7.23 0 3-1.08 5.22-3.06 6.06l4.38 9.21zm-2.94-17.64h-2.04v5.19h2.01c1.71 0 2.31-.42 2.31-2.61 0-2.04-.57-2.58-2.28-2.58zm-25.63 17.94c-5.58 0-7.83-3.39-7.83-11.43 0-8.58 2.28-11.61 7.89-11.61 5.49 0 7.89 3.03 7.89 11.61 0 8.04-2.49 11.43-7.95 11.43zm.06-18.03c-1.59 0-2.31.81-2.31 6.54 0 6.03.72 6.66 2.31 6.66 1.56 0 2.25-.78 2.25-6.66 0-5.85-.69-6.54-2.25-6.54zm-22.65 13.71h2.67v-11.67l-3.42 1.89-.6-4.56 6.51-4.11h3.39v18.45h2.67v4.02h-11.22zm-18 0h2.67v-11.67l-3.42 1.89-.6-4.56 6.51-4.11h3.39v18.45h2.67v4.02h-11.22zm-11.87-2.61c0 4.05-2.43 6.63-8.04 6.63h-8.76v-22.5h8.82c4.83 0 7.29 2.25 7.29 5.82 0 2.37-1.08 3.9-2.76 4.71v.06c2.25.75 3.45 2.49 3.45 5.28zm-8.22-10.95h-2.91v3.96h2.97c1.35 0 1.83-.51 1.83-2.04 0-1.47-.51-1.92-1.89-1.92zm.15 8.34h-3.06v4.44h3.18c1.47 0 2.01-.48 2.01-2.25 0-1.56-.48-2.19-2.13-2.19zm-18.12 4.17-.12 5.07h-14.49v-22.5h14.1l.12 5.16h-8.37v3.48h6.9v4.71h-6.9v4.08zm-24.37-17.43h6.03v22.5h-6.03zm-12.11 22.5h-8.13v-22.5h8.01c6.84 0 9.63 3.18 9.63 11.13 0 8.25-3.18 11.37-9.51 11.37zm-.09-17.31h-2.19v12.18h2.19c2.58 0 3.45-.78 3.45-6.3 0-4.98-.81-5.88-3.45-5.88zm154.36 11.94c2.1 0 3 1.05 3 2.88 0 1.71-.9 2.85-3 2.85s-3.03-.81-3.03-2.85c0-1.83.93-2.88 3.03-2.88z" fill-rule="evenodd"/></svg>