<svg enable-background="new 0 0 244.83 157.04" viewBox="0 0 244.83 157.04" xmlns="http://www.w3.org/2000/svg"><path clip-rule="evenodd" d="m223.41 23.97h11.5v7.85h-11.5v6.8h14.6l-.2 8.45h-24.15v-37.5h23.5l.2 8.6h-13.95zm-21.4 23.1h-9.95v-28.75h-8.5l.2-8.75h26.55l.2 8.75h-8.5zm-19.1-11.35c0 7.4-5 12-13.45 12-3.95 0-7.85-.9-10.9-2.6l1.25-8.3c3.05 1.55 6.15 2.5 9.4 2.5 3.1 0 4.3-1.05 4.3-3.05 0-4.8-14.9-3.3-14.9-15.55 0-6.55 4-11.75 13.25-11.75 3.45 0 7.15.65 9.85 1.8l-1.1 8.15c-2.85-.85-5.7-1.35-8.1-1.35-3.7 0-4.5 1.1-4.5 2.7 0 4.85 14.9 3.2 14.9 15.45zm-1.55 82.45h-13.95v5.8h11.5v7.85h-11.5v6.8h14.6l-.2 8.45h-24.15v-37.5h23.5zm-25.35-79.55-.2 8.45h-24.15v-37.5h23.5l.2 8.6h-13.95v5.8h11.5v7.85h-11.5v6.8zm-28.35-2.6c0 6.75-4.05 11.05-13.4 11.05h-14.6v-37.5h14.7c8.05 0 12.15 3.75 12.15 9.7 0 3.95-1.8 6.5-4.6 7.85v.1c3.75 1.25 5.75 4.15 5.75 8.8zm-13.7-18.25h-4.85v6.6h4.95c2.25 0 3.05-.85 3.05-3.4 0-2.45-.85-3.2-3.15-3.2zm.25 13.9h-5.1v7.4h5.3c2.45 0 3.35-.8 3.35-3.75 0-2.6-.8-3.65-3.55-3.65zm3.15 36.5h-13.95v5.8h11.5v7.85h-11.5v6.8h14.6l-.2 8.45h-24.15v-37.5h23.5zm-25.9 78.9-1.45-6.55h-10.2l-1.45 6.55h-10.35l11.1-37.5h11.95l11.3 37.5zm-5.65-25.45-.75-4h-.15l-.85 4-2.4 10.75h6.55zm-6.1-24.55-5-13.4h-3.3v13.4h-9.75v-37.5h12.95c9.5 0 14.2 3.6 14.2 12.05 0 5-1.8 8.7-5.1 10.1l7.3 15.35zm-4.9-29.4h-3.4v8.65h3.35c2.85 0 3.85-.7 3.85-4.35 0-3.4-.95-4.3-3.8-4.3zm10.2-29.05-.2 8.45h-24.15v-37.5h23.5l.2 8.6h-13.95v5.8h11.5v7.85h-11.5v6.8zm-38.5 43.75h-9.1v14.7h-9.75v-37.5h9.75v14.05h9.1v-14.05h9.8v37.5h-9.8zm-1.45-72.8h10.05v37.5h-10.05zm-19.85 37.5h-13.55v-37.5h13.35c11.4 0 16.05 5.3 16.05 18.55 0 13.75-5.3 18.95-15.85 18.95zm-.15-28.85h-3.65v20.3h3.65c4.3 0 5.75-1.3 5.75-10.5 0-8.3-1.35-9.8-5.75-9.8zm-13 41.35h10.05v37.5h-10.05zm9.35 64.5h2.6l6.95-14.5h10.95l-9 17.95 9.45 19.55h-11.5l-7.05-15.25h-2.4v15.25h-9.75v-37.5h9.75zm33.1 14.3h12.75l-.25 8.7h-22.35v-37.5h9.85zm59.7.95c3.1 0 4.3-1.05 4.3-3.05 0-4.8-14.9-3.3-14.9-15.55 0-6.55 4-11.75 13.25-11.75 3.45 0 7.15.65 9.85 1.8l-1.1 8.15c-2.85-.85-5.7-1.35-8.1-1.35-3.7 0-4.5 1.1-4.5 2.7 0 4.85 14.9 3.2 14.9 15.45 0 7.4-5 12-13.45 12-3.95 0-7.85-.9-10.9-2.6l1.25-8.3c3.05 1.55 6.15 2.5 9.4 2.5zm25.5-42.25-5-13.4h-3.3v13.4h-9.75v-37.5h12.95c9.5 0 14.2 3.6 14.2 12.05 0 5-1.8 8.7-5.1 10.1l7.3 15.35zm-4.9-29.4h-3.4v8.65h3.35c2.85 0 3.85-.7 3.85-4.35 0-3.4-.95-4.3-3.8-4.3zm5.4 71.65c3.1 0 4.3-1.05 4.3-3.05 0-4.8-14.9-3.3-14.9-15.55 0-6.55 4-11.75 13.25-11.75 3.45 0 7.15.65 9.85 1.8l-1.1 8.15c-2.85-.85-5.7-1.35-8.1-1.35-3.7 0-4.5 1.1-4.5 2.7 0 4.85 14.9 3.2 14.9 15.45 0 7.4-5 12-13.45 12-3.95 0-7.85-.9-10.9-2.6l1.25-8.3c3.05 1.55 6.15 2.5 9.4 2.5zm49.45-1.2c3.5 0 5 1.75 5 4.8 0 2.85-1.5 4.75-5 4.75s-5.05-1.35-5.05-4.75c0-3.05 1.55-4.8 5.05-4.8z" fill-rule="evenodd"/></svg>