<svg enable-background="new 0 0 244.83 157.04" viewBox="0 0 244.83 157.04" xmlns="http://www.w3.org/2000/svg"><g clip-rule="evenodd" fill-rule="evenodd"><path d="m208.99 39.77c-2.1 0-3.03-.81-3.03-2.85 0-1.83.93-2.88 3.03-2.88s3 1.05 3 2.88c0 1.71-.9 2.85-3 2.85z"/><path d="m200.82 30.2c1.98-.84 3.06-3.06 3.06-6.06 0-5.07-2.82-7.23-8.52-7.23h-7.77v22.5h5.85v-8.04h1.98l3 8.04h6.78zm-5.37-3.24h-2.01v-5.19h2.04c1.71 0 2.28.54 2.28 2.58 0 2.19-.6 2.61-2.31 2.61z"/><path d="m168.54 32.6c0 4.44-3 7.2-8.07 7.2-2.37 0-4.71-.54-6.54-1.56l.75-4.98c1.83.93 3.69 1.5 5.64 1.5 1.86 0 2.58-.63 2.58-1.83 0-2.88-8.94-1.98-8.94-9.33 0-3.93 2.4-7.05 7.95-7.05 2.07 0 4.29.39 5.91 1.08l-.66 4.89c-1.71-.51-3.42-.81-4.86-.81-2.22 0-2.7.66-2.7 1.62 0 2.91 8.94 1.92 8.94 9.27z"/><path d="m142.2 34.34-.12 5.07h-14.49v-22.5h14.1l.12 5.16h-8.37v3.48h6.9v4.71h-6.9v4.08z"/><path d="m112.59 39.41v-22.5h5.91v17.28h7.65l-.15 5.22z"/><path d="m96.9 30.59h-5.46v8.82h-5.85v-22.5h5.85v8.43h5.46v-8.43h5.88v22.5h-5.88z"/><path d="m83.06 22.34c-.99-.36-2.34-.6-3.75-.6-3.33 0-4.17 1.41-4.17 6.33 0 5.19.93 6.63 4.26 6.63 1.38 0 2.67-.27 3.72-.75l.54 4.77c-1.35.66-3.39 1.08-5.13 1.08-6.42 0-9.54-3.66-9.54-11.76 0-7.56 3.03-11.52 9.9-11.52 1.59 0 3.54.36 4.74.84z"/><path d="m57.41 16.55c-6.6 0-9.42 3.36-9.42 11.61 0 8.22 2.94 11.64 9.42 11.64 6.6 0 9.42-3.18 9.42-11.64 0-8.25-2.82-11.61-9.42-11.61zm.03 18.06c-2.49 0-3.3-1.08-3.3-6.45 0-5.34.78-6.36 3.24-6.36 2.55 0 3.3.99 3.3 6.36 0 5.34-.75 6.45-3.24 6.45z"/><path d="m40.74 28.58.06-.03-.06-2.4.03-9.24h5.16v22.5h-4.17l-6.72-10.38-1.26-2.07-.06.03.03 2.43v9.99h-5.16v-22.5h4.92z"/><path d="m144.83 16.91h6.03v22.5h-6.03z"/><path d="m185.2 34.34-.12 5.07h-14.49v-22.5h14.1l.12 5.16h-8.37v3.48h6.9v4.71h-6.9v4.08z"/></g></svg>