<svg enable-background="new 0 0 168.85 44.3" viewBox="0 0 168.85 44.3" xmlns="http://www.w3.org/2000/svg"><path clip-rule="evenodd" d="m147.94 27.46-3.58-5.54-.67-1.1-.03.02.02 1.3v5.33h-2.75v-12h2.62l3.86 6.23.03-.02-.03-1.28.02-4.93h2.75v12h-2.24zm-8.62-2.7-.06 2.7h-7.73v-12h7.52l.06 2.75h-4.46v1.86h3.68v2.51h-3.68v2.18zm-9.44-.08-.05 2.78h-8.18v-2.03l3.82-6.08.7-1.06-.02-.03h-4.42l.08-2.8h8.02v2.24l-3.7 5.89-.7 1.04.02.05zm-11.87 2.78h-3.18v-9.2h-2.72l.06-2.8h8.5l.06 2.8h-2.72zm-10.61-12h3.22v12h-3.22zm-5.95 12.21c-1.26 0-2.51-.29-3.49-.83l.4-2.66c.98.5 1.97.8 3.01.8.99 0 1.38-.34 1.38-.98 0-1.54-4.77-1.06-4.77-4.98 0-2.1 1.28-3.76 4.24-3.76 1.1 0 2.29.21 3.15.58l-.35 2.61c-.91-.27-1.82-.43-2.59-.43-1.18 0-1.44.35-1.44.86 0 1.55 4.77 1.02 4.77 4.94-.01 2.38-1.61 3.85-4.31 3.85zm-8.99-7.29h3.66l-.02 2.66h-3.65v4.43h-3.14v-12h7.5l.05 2.8h-4.42v2.11zm-9.64 7.29c-3.07 0-4.62-1.47-4.62-4.29v-7.92h3.14v7.86c0 1.07.42 1.55 1.49 1.55 1.09 0 1.46-.45 1.46-1.55v-7.86h3.12v7.92c-.01 2.82-1.51 4.29-4.59 4.29zm-9.16-2.3h-3.26l-.46 2.1h-3.31l3.55-12h3.82l3.62 12h-3.49zm-1.35-6.05-.24-1.28h-.05l-.27 1.28-.77 3.44h2.1zm-12.92 8.14h-3.19v-9.2h-2.72l.06-2.8h8.5l.06 2.8h-2.72v9.2zm-6.92-2.78-.05 2.78h-8.18v-2.03l3.83-6.08.7-1.06-.02-.03h-4.42l.08-2.8h8.02v2.24l-3.7 5.89-.7 1.04.02.05zm-11.87 2.78h-3.18v-9.2h-2.72l.06-2.8h8.5l.06 2.8h-2.72zm-6.83-2.7-.06 2.7h-7.73v-12h7.52l.06 2.75h-4.46v1.86h3.68v2.51h-3.68v2.18zm-14.43 2.93c-.9 0-1.62-.16-2.19-.42l.16-2.61c.34.18.86.29 1.49.29 1.31 0 1.95-.51 1.95-1.95v-7.54h3.2v7.6c0 3.52-1.8 4.63-4.61 4.63z" fill="#fefefe" fill-rule="evenodd"/></svg>