<?xml version="1.0" encoding="utf-8"?>
<!-- Generator: Adobe Illustrator 16.0.0, SVG Export Plug-In . SVG Version: 6.00 Build 0)  -->
<!DOCTYPE svg PUBLIC "-//W3C//DTD SVG 1.1//EN" "http://www.w3.org/Graphics/SVG/1.1/DTD/svg11.dtd">
<svg version="1.1" id="Ebene_1" xmlns="http://www.w3.org/2000/svg" xmlns:xlink="http://www.w3.org/1999/xlink" x="0px" y="0px"
	 width="130.453px" height="26.988px" viewBox="0 0 130.453 26.988" enable-background="new 0 0 130.453 26.988"
	 xml:space="preserve">
<g>
	<path d="M5.525,6.344c0,2.86-1.457,3.757-3.744,3.757c-0.729,0-1.313-0.13-1.781-0.338l0.13-2.119
		c0.272,0.143,0.702,0.234,1.209,0.234c1.065,0,1.586-0.416,1.586-1.586V0.169h2.601V6.344z"/>
	<path d="M13.182,7.722L13.13,9.919H6.851v-9.75h6.11l0.052,2.236H9.386v1.508h2.989v2.041H9.386v1.768H13.182z"/>
	<path d="M18.408,2.444v7.475H15.82V2.444h-2.209l0.051-2.275h6.904l0.051,2.275H18.408z"/>
	<path d="M21.047,9.919V8.269l3.106-4.94l0.572-0.858l-0.013-0.026h-3.588l0.064-2.275h6.514v1.82l-3.004,4.784l-0.572,0.845
		l0.014,0.039h3.588l-0.039,2.262H21.047z"/>
	<path d="M33.02,2.444v7.475h-2.587V2.444h-2.21l0.052-2.275h6.903l0.053,2.275H33.02z"/>
	<path d="M45.824,9.568c-0.676,0.325-1.781,0.533-2.782,0.533c-3.224,0-4.368-1.729-4.368-5.057c0-3.406,1.34-5.044,4.485-5.044
		c0.858,0,1.833,0.156,2.535,0.429L45.461,2.6c-0.638-0.234-1.457-0.377-2.158-0.377c-1.6,0-1.963,0.598-1.963,2.795
		c0,2.314,0.377,2.821,1.637,2.821c0.195,0,0.404-0.013,0.586-0.052V4.602h2.262V9.568z"/>
	<path d="M52.715,5.928l1.897,3.991h-2.938l-1.3-3.484h-0.858v3.484H46.98v-9.75h3.367c2.471,0,3.692,0.936,3.692,3.133
		C54.04,4.602,53.572,5.564,52.715,5.928z M50.4,2.275h-0.885v2.25h0.871c0.741,0,1.002-0.182,1.002-1.131
		C51.389,2.509,51.141,2.275,50.4,2.275z"/>
	<path d="M60.28,8.216h-2.652l-0.377,1.703h-2.69l2.885-9.75h3.107l2.938,9.75h-2.834L60.28,8.216z M58.732,3.302l-0.623,2.795
		h1.703l-0.625-2.795l-0.194-1.04h-0.039L58.732,3.302z"/>
	<path d="M67.521,2.444v7.475h-2.588V2.444h-2.209l0.051-2.275h6.904l0.051,2.275H67.521z"/>
	<path d="M70.615,0.169h2.613v9.75h-2.613V0.169z"/>
	<path d="M77.205,10.088c-1.026,0-2.041-0.234-2.834-0.676l0.326-2.158c0.793,0.403,1.599,0.65,2.443,0.65
		c0.807,0,1.118-0.273,1.118-0.793c0-1.248-3.874-0.858-3.874-4.043c0-1.703,1.04-3.055,3.445-3.055
		c0.896,0,1.859,0.169,2.561,0.468L80.105,2.6c-0.742-0.221-1.482-0.351-2.107-0.351c-0.961,0-1.17,0.286-1.17,0.702
		c0,1.261,3.875,0.832,3.875,4.017C80.703,8.893,79.402,10.088,77.205,10.088z"/>
	<path d="M90.869,7.722l-0.053,2.197h-6.279v-9.75h6.111l0.051,2.236h-3.627v1.508h2.99v2.041h-2.99v1.768H90.869z"/>
	<path d="M95.094,4.199v1.69h-3.627v-1.69H95.094z"/>
	<path d="M100.033,9.919h-3.796v-9.75h3.822c2.093,0,3.159,0.975,3.159,2.522c0,1.027-0.469,1.69-1.196,2.042v0.026
		c0.976,0.325,1.495,1.079,1.495,2.288C103.518,8.801,102.465,9.919,100.033,9.919z M99.955,2.301h-1.261v1.716h1.287
		c0.585,0,0.793-0.221,0.793-0.884C100.774,2.496,100.553,2.301,99.955,2.301z M100.021,5.916h-1.326v1.924h1.378
		c0.637,0,0.871-0.208,0.871-0.975C100.943,6.188,100.735,5.916,100.021,5.916z"/>
	<path d="M108.354,10.088c-2.809,0-4.082-1.482-4.082-5.044c0-3.575,1.222-5.031,4.082-5.031c2.859,0,4.082,1.456,4.082,5.031
		C112.436,8.71,111.213,10.088,108.354,10.088z M108.34,2.288c-1.065,0-1.404,0.442-1.404,2.756c0,2.327,0.352,2.795,1.431,2.795
		s1.404-0.481,1.404-2.795C109.771,2.717,109.445,2.288,108.34,2.288z"/>
	<path d="M117.323,10.088c-2.808,0-4.083-1.482-4.083-5.044c0-3.575,1.223-5.031,4.083-5.031s4.082,1.456,4.082,5.031
		C121.405,8.71,120.184,10.088,117.323,10.088z M117.311,2.288c-1.066,0-1.404,0.442-1.404,2.756c0,2.327,0.351,2.795,1.43,2.795
		s1.404-0.481,1.404-2.795C118.74,2.717,118.415,2.288,117.311,2.288z"/>
	<path d="M127.463,9.919l-1.833-3.965h-0.624v3.965h-2.535v-9.75h2.535v3.77h0.676l1.807-3.77h2.848l-2.34,4.667l2.457,5.083
		H127.463z"/>
	<path d="M3.861,26.819H0.338v-9.75h3.471c2.965,0,4.174,1.378,4.174,4.823C7.982,25.467,6.604,26.819,3.861,26.819z M3.822,19.318
		H2.873v5.278h0.949c1.117,0,1.494-0.338,1.494-2.73C5.316,19.708,4.966,19.318,3.822,19.318z"/>
	<path d="M12.87,26.988c-2.808,0-4.083-1.482-4.083-5.044c0-3.575,1.223-5.031,4.083-5.031s4.082,1.456,4.082,5.031
		C16.952,25.61,15.73,26.988,12.87,26.988z M12.857,19.188c-1.066,0-1.404,0.442-1.404,2.756c0,2.327,0.351,2.795,1.43,2.795
		s1.404-0.481,1.404-2.795C14.287,19.617,13.962,19.188,12.857,19.188z"/>
	<path d="M24.752,17.069l1.027,6.097l0.156,1.04h0.039l0.116-1.04l0.871-6.097h2.535l-2.041,9.75h-3.042l-0.91-5.915l-0.131-1.053
		h-0.038l-0.144,1.053l-0.896,5.915h-3.043l-2.041-9.75h2.652l0.858,6.149l0.13,1.04h0.039l0.143-1.04l1.015-6.149H24.752z"/>
	<path d="M35.996,26.819l-2.912-4.498l-0.545-0.897l-0.026,0.013l0.013,1.053v4.329h-2.236v-9.75h2.133l3.133,5.057l0.025-0.013
		l-0.025-1.04l0.014-4.004h2.235v9.75H35.996z"/>
	<path d="M45.006,24.557l-0.065,2.262h-5.812v-9.75h2.562v7.488H45.006z"/>
	<path d="M49.479,26.988c-2.809,0-4.083-1.482-4.083-5.044c0-3.575,1.222-5.031,4.083-5.031c2.859,0,4.082,1.456,4.082,5.031
		C53.561,25.61,52.338,26.988,49.479,26.988z M49.465,19.188c-1.066,0-1.404,0.442-1.404,2.756c0,2.327,0.352,2.795,1.43,2.795
		c1.08,0,1.404-0.481,1.404-2.795C50.895,19.617,50.57,19.188,49.465,19.188z"/>
	<path d="M59.293,25.116h-2.652l-0.377,1.703h-2.691l2.887-9.75h3.106l2.938,9.75H59.67L59.293,25.116z M57.745,20.202l-0.624,2.795
		h1.703L58.2,20.202l-0.194-1.04h-0.039L57.745,20.202z"/>
	<path d="M66.676,26.819h-3.522v-9.75h3.472c2.963,0,4.172,1.378,4.172,4.823C70.797,25.467,69.42,26.819,66.676,26.819z
		 M66.637,19.318h-0.948v5.278h0.948c1.119,0,1.496-0.338,1.496-2.73C68.133,19.708,67.781,19.318,66.637,19.318z"/>
	<path d="M78.194,24.622l-0.052,2.197h-6.279v-9.75h6.11l0.052,2.236h-3.627v1.508h2.99v2.041h-2.99v1.768H78.194z"/>
	<path d="M84.877,26.819l-2.912-4.498l-0.547-0.897l-0.025,0.013l0.013,1.053v4.329H79.17v-9.75h2.131l3.134,5.057l0.026-0.013
		l-0.026-1.04l0.013-4.004h2.236v9.75H84.877z"/>
	<path d="M89.049,26.975c-0.91,0-1.312-0.351-1.312-1.235c0-0.793,0.402-1.248,1.312-1.248s1.301,0.455,1.301,1.248
		C90.35,26.481,89.959,26.975,89.049,26.975z"/>
</g>
</svg>
