<?xml version="1.0" encoding="utf-8"?>
<!-- Generator: Adobe Illustrator 16.0.0, SVG Export Plug-In . SVG Version: 6.00 Build 0)  -->
<!DOCTYPE svg PUBLIC "-//W3C//DTD SVG 1.1//EN" "http://www.w3.org/Graphics/SVG/1.1/DTD/svg11.dtd">
<svg version="1.1" id="Ebene_1" xmlns="http://www.w3.org/2000/svg" xmlns:xlink="http://www.w3.org/1999/xlink" x="0px" y="0px"
	 width="179.598px" height="25.61px" viewBox="0 0 179.598 25.61" enable-background="new 0 0 179.598 25.61" xml:space="preserve">
<g>
	<path d="M13.304,18.843l-0.068,1.437H2.573V2.896h10.244l0.07,1.438H4.079v6.188h7.626v1.298H4.079v7.023H13.304z"/>
	<path d="M21.276,14.045l-3.939,6.235h-1.67l4.683-6.954l-4.565-6.722h1.715l3.871,5.98l3.824-5.98h1.645l-4.473,6.675l4.636,7
		h-1.739L21.276,14.045z"/>
	<path d="M35.878,20.558c-1.576,0-3.036-0.487-4.01-1.762l-0.046,0.023l0.022,1.877v2.921h-1.459V6.674l1.043-0.093l0.301,1.576
		h0.069c0.927-1.113,2.457-1.785,4.241-1.785c3.338,0,5.238,1.692,5.238,7.046C41.278,18.611,39.216,20.558,35.878,20.558z
		 M35.739,7.717c-1.715,0-3.06,0.649-3.895,1.9v7.695c0.604,1.043,1.855,1.993,3.756,1.993c2.457,0,4.218-1.205,4.218-5.887
		C39.818,8.946,38.335,7.717,35.739,7.717z"/>
	<path d="M43.921,12.979c0-4.288,1.83-6.605,5.446-6.605c3.083,0,5.238,1.877,5.238,6.304c0,0.208-0.023,0.51-0.046,0.695h-9.202
		c0.069,4.381,1.53,5.864,4.798,5.864c1.438,0,2.619-0.348,3.777-0.974l0.186,1.229c-1.182,0.672-2.503,1.066-4.102,1.066
		C45.659,20.558,43.921,18.263,43.921,12.979z M53.308,12.376c-0.047-3.454-1.669-4.751-3.94-4.751
		c-2.688,0-3.894,1.599-4.033,4.751H53.308z"/>
	<path d="M58.081,20.28V6.674l1.137-0.093l0.045,1.53l0.047,1.877h0.047c0.787-2.132,2.387-3.569,4.449-3.569
		c0.465,0,0.904,0.046,1.299,0.162l-0.116,1.46c-0.394-0.139-0.812-0.185-1.251-0.185c-2.318,0-4.266,2.132-4.266,5.447v6.977
		H58.081z"/>
	<path d="M70.458,7.74v9.248c0,1.646,0.857,2.295,2.225,2.295c0.395,0,0.881-0.07,1.158-0.186l0.117,1.113
		c-0.371,0.162-1.043,0.278-1.646,0.278c-2.133,0-3.268-1.112-3.268-3.454V7.74h-2.133V6.604h2.156l0.277-3.592l1.113-0.139v3.731
		h3.592V7.74H70.458z"/>
	<path d="M76.09,12.979c0-4.288,1.831-6.605,5.446-6.605c3.083,0,5.238,1.877,5.238,6.304c0,0.208-0.023,0.51-0.046,0.695h-9.202
		c0.07,4.381,1.53,5.864,4.799,5.864c1.437,0,2.619-0.348,3.777-0.974l0.186,1.229c-1.182,0.672-2.504,1.066-4.103,1.066
		C77.828,20.558,76.09,18.263,76.09,12.979z M85.478,12.376c-0.047-3.454-1.67-4.751-3.941-4.751c-2.688,0-3.894,1.599-4.033,4.751
		H85.478z"/>
	<path d="M98.989,20.28v-9.225c0-2.341-1.299-3.337-3.616-3.337c-1.345,0-2.967,0.649-3.731,1.854V20.28h-1.391V6.628l0.996-0.093
		l0.256,1.646h0.068c0.928-1.136,2.504-1.808,4.149-1.808c2.897,0,4.659,1.506,4.659,4.659v9.248H98.989z"/>
	<path d="M113.149,6.604l2.852,10.801l0.463,1.808h0.07l0.371-1.831l2.549-10.778h1.414l-3.453,13.675h-1.785l-2.758-10.361
		l-0.441-1.831h-0.068l-0.464,1.831L109.07,20.28h-1.738l-3.569-13.675h1.438l2.596,10.731l0.417,1.832h0.069l0.44-1.808
		l2.874-10.755H113.149z"/>
	<path d="M125.874,3.8c-0.695,0-1.09-0.232-1.09-0.974c0-0.626,0.395-0.974,1.09-0.974s1.09,0.348,1.09,0.974
		C126.964,3.499,126.569,3.8,125.874,3.8z M125.155,20.28V6.674l1.414-0.116V20.28H125.155z"/>
	<path d="M135.052,20.558c-1.622,0-3.152-0.44-4.172-1.252l0.232-1.274c0.996,0.834,2.525,1.298,3.916,1.298
		c2.318,0,3.292-1.182,3.292-2.758c0-3.662-7.371-2.086-7.371-6.606c0-2.225,1.6-3.592,4.543-3.592c1.298,0,2.503,0.255,3.593,0.788
		l-0.139,1.229c-1.137-0.51-2.342-0.765-3.477-0.765c-1.947,0-3.176,0.881-3.176,2.271c0,3.407,7.348,1.715,7.348,6.536
		C139.642,18.912,138.228,20.558,135.052,20.558z"/>
	<path d="M146.292,20.558c-1.621,0-3.151-0.44-4.172-1.252l0.232-1.274c0.996,0.834,2.526,1.298,3.917,1.298
		c2.317,0,3.292-1.182,3.292-2.758c0-3.662-7.371-2.086-7.371-6.606c0-2.225,1.6-3.592,4.543-3.592c1.298,0,2.503,0.255,3.592,0.788
		l-0.139,1.229c-1.136-0.51-2.341-0.765-3.477-0.765c-1.947,0-3.176,0.881-3.176,2.271c0,3.407,7.348,1.715,7.348,6.536
		C150.882,18.912,149.468,20.558,146.292,20.558z"/>
	<path d="M153.362,12.979c0-4.288,1.83-6.605,5.446-6.605c3.083,0,5.238,1.877,5.238,6.304c0,0.208-0.023,0.51-0.046,0.695h-9.202
		c0.069,4.381,1.53,5.864,4.798,5.864c1.438,0,2.619-0.348,3.777-0.974l0.186,1.229c-1.182,0.672-2.503,1.066-4.102,1.066
		C155.101,20.558,153.362,18.263,153.362,12.979z M162.749,12.376c-0.047-3.454-1.669-4.751-3.94-4.751
		c-2.688,0-3.894,1.599-4.033,4.751H162.749z"/>
	<path d="M176.261,20.28v-9.225c0-2.341-1.298-3.337-3.615-3.337c-1.345,0-2.967,0.649-3.732,1.854V20.28h-1.391V6.628l0.997-0.093
		l0.255,1.646h0.069c0.927-1.136,2.503-1.808,4.149-1.808c2.896,0,4.658,1.506,4.658,4.659v9.248H176.261z"/>
</g>
</svg>
