<?xml version="1.0" encoding="utf-8"?>
<!-- Generator: Adobe Illustrator 16.0.0, SVG Export Plug-In . SVG Version: 6.00 Build 0)  -->
<!DOCTYPE svg PUBLIC "-//W3C//DTD SVG 1.1//EN" "http://www.w3.org/Graphics/SVG/1.1/DTD/svg11.dtd">
<svg version="1.1" id="Ebene_1" xmlns="http://www.w3.org/2000/svg" xmlns:xlink="http://www.w3.org/1999/xlink" x="0px" y="0px"
	 width="348.612px" height="78.906px" viewBox="0 0 348.612 78.906" enable-background="new 0 0 348.612 78.906"
	 xml:space="preserve">
<g>
	<path d="M15.388,20.511c0,7.523-3.83,9.882-9.848,9.882c-1.915,0-3.454-0.342-4.685-0.889l0.342-5.574
		c0.718,0.376,1.847,0.615,3.18,0.615c2.804,0,4.172-1.094,4.172-4.172V4.269h6.839V20.511z"/>
	<path d="M35.525,24.136l-0.137,5.779H18.872V4.269h16.071l0.137,5.881h-9.54v3.967h7.865v5.368H25.54v4.651H35.525z"/>
	<path d="M49.268,10.252v19.662h-6.805V10.252h-5.813l0.137-5.984h18.158l0.137,5.984H49.268z"/>
	<path d="M56.205,29.915v-4.343l8.172-12.994l1.505-2.257l-0.034-0.068H56.41l0.171-5.984h17.132v4.787l-7.899,12.583l-1.505,2.223
		l0.034,0.103h9.438l-0.103,5.95H56.205z"/>
	<path d="M87.694,10.252v19.662h-6.805V10.252h-5.813l0.137-5.984H93.37l0.137,5.984H87.694z"/>
	<path d="M112.514,29.915h-9.267V4.269h9.13c7.796,0,10.977,3.625,10.977,12.686C123.354,26.358,119.729,29.915,112.514,29.915z
		 M112.411,10.184h-2.496v13.883h2.496c2.941,0,3.933-0.889,3.933-7.181C116.344,11.21,115.42,10.184,112.411,10.184z"/>
	<path d="M126.426,4.269h6.873v25.646h-6.873V4.269z"/>
	<path d="M152.138,19.417l4.993,10.498h-7.728l-3.419-9.164h-2.257v9.164h-6.668V4.269h8.856c6.497,0,9.711,2.462,9.711,8.241
		C155.626,15.929,154.395,18.459,152.138,19.417z M146.052,9.808h-2.325v5.916h2.291c1.949,0,2.633-0.479,2.633-2.975
		C148.65,10.423,148.001,9.808,146.052,9.808z"/>
	<path d="M175.455,24.136l-0.137,5.779h-16.516V4.269h16.071l0.137,5.881h-9.54v3.967h7.865v5.368h-7.865v4.651H175.455z"/>
	<path d="M191.146,29.915l-4.822-10.43h-1.641v10.43h-6.668V4.269h6.668v9.917h1.778l4.753-9.917h7.488l-6.155,12.276l6.463,13.37
		H191.146z"/>
	<path d="M212.068,10.252v19.662h-6.805V10.252h-5.813l0.137-5.984h18.158l0.137,5.984H212.068z"/>
	<path d="M226.698,29.915v-4.343l8.173-12.994l1.504-2.257l-0.034-0.068h-9.438l0.171-5.984h17.132v4.787l-7.899,12.583
		l-1.504,2.223l0.034,0.103h9.438l-0.103,5.95H226.698z"/>
	<path d="M266.052,21.195c0,6.019-3.215,9.164-9.78,9.164s-9.882-3.146-9.882-9.164V4.269h6.702v16.79
		c0,2.291,0.889,3.317,3.18,3.317c2.325,0,3.112-0.958,3.112-3.317V4.269h6.668V21.195z"/>
	<path d="M276.648,4.269l4.514,12.959l0.855,2.633h0.103l0.854-2.599l4.582-12.994h7.387v25.646h-6.121V19.177l0.068-2.77
		l-0.103-0.034l-0.855,2.667l-3.795,10.874h-4.343l-3.762-10.84l-0.855-2.667l-0.068,0.034l0.034,2.77v10.703h-5.847V4.269H276.648z
		"/>
	<path d="M20.175,45.294l2.702,16.037l0.41,2.736h0.103l0.308-2.736l2.291-16.037h6.668L27.288,70.94h-8.001l-2.394-15.559
		l-0.342-2.77h-0.103l-0.376,2.77L13.712,70.94H5.71L0.342,45.294h6.976l2.257,16.174l0.342,2.736h0.103l0.376-2.736l2.667-16.174
		H20.175z"/>
	<path d="M51.388,65.162l-0.137,5.779H34.735V45.294h16.071l0.137,5.881h-9.54v3.967h7.865v5.368h-7.865v4.651H51.388z"/>
	<path d="M63.934,70.94h-9.985V45.294h10.053c5.505,0,8.309,2.564,8.309,6.634c0,2.701-1.231,4.445-3.146,5.369v0.068
		c2.565,0.854,3.933,2.838,3.933,6.018C73.098,68,70.329,70.94,63.934,70.94z M63.729,50.902h-3.317v4.514h3.386
		c1.539,0,2.086-0.582,2.086-2.325C65.883,51.415,65.302,50.902,63.729,50.902z M63.9,60.408h-3.488v5.061h3.625
		c1.675,0,2.291-0.547,2.291-2.564C66.328,61.126,65.78,60.408,63.9,60.408z"/>
	<path d="M76.034,45.294h6.873V70.94h-6.873V45.294z"/>
	<path d="M101.677,70.94l-7.66-11.832l-1.436-2.359l-0.068,0.034l0.034,2.77V70.94h-5.881V45.294h5.608l8.241,13.302l0.068-0.034
		l-0.068-2.736l0.034-10.532h5.882V70.94H101.677z"/>
	<path d="M123.147,66.461h-6.976l-0.992,4.479h-7.078l7.591-25.646h8.172l7.728,25.646h-7.454L123.147,66.461z M119.078,53.535
		l-1.642,7.352h4.48l-1.642-7.352l-0.513-2.735h-0.103L119.078,53.535z"/>
	<path d="M148.378,60.442l4.993,10.498h-7.728l-3.419-9.164h-2.257v9.164h-6.668V45.294h8.856c6.497,0,9.711,2.462,9.711,8.241
		C151.866,56.955,150.635,59.485,148.378,60.442z M142.292,50.834h-2.325v5.916h2.291c1.949,0,2.633-0.479,2.633-2.975
		C144.89,51.449,144.241,50.834,142.292,50.834z"/>
	<path d="M175.967,66.461h-6.976l-0.992,4.479h-7.078l7.591-25.646h8.172l7.728,25.646h-7.454L175.967,66.461z M171.897,53.535
		l-1.642,7.352h4.48l-1.642-7.352l-0.513-2.735h-0.103L171.897,53.535z"/>
	<path d="M201.129,70.94l-7.66-11.832l-1.436-2.359l-0.068,0.034l0.034,2.77V70.94h-5.881V45.294h5.608l8.241,13.302l0.068-0.034
		l-0.068-2.736L200,45.294h5.882V70.94H201.129z"/>
	<path d="M216.717,45.294l4.514,12.959l0.855,2.633h0.103l0.855-2.599l4.582-12.994h7.386V70.94h-6.121V60.203l0.068-2.77
		l-0.103-0.034l-0.854,2.667l-3.796,10.874h-4.343l-3.761-10.84l-0.855-2.667l-0.068,0.034l0.034,2.77V70.94h-5.847V45.294H216.717z
		"/>
	<path d="M255.146,65.162l-0.137,5.779h-16.516V45.294h16.071l0.137,5.881h-9.54v3.967h7.864v5.368h-7.864v4.651H255.146z"/>
	<path d="M273.163,64.991l-0.171,5.95h-15.285V45.294h6.736v19.696H273.163z"/>
	<path d="M284.615,70.94h-9.267V45.294h9.13c7.797,0,10.977,3.625,10.977,12.686C295.455,67.384,291.83,70.94,284.615,70.94z
		 M284.512,51.21h-2.496v13.883h2.496c2.94,0,3.933-0.889,3.933-7.181C288.445,52.236,287.521,51.21,284.512,51.21z"/>
	<path d="M314.906,65.162l-0.137,5.779h-16.516V45.294h16.071l0.137,5.881h-9.54v3.967h7.864v5.368h-7.864v4.651H314.906z"/>
	<path d="M332.479,70.94l-7.66-11.832l-1.437-2.359l-0.068,0.034l0.034,2.77V70.94h-5.881V45.294h5.607l8.241,13.302l0.068-0.034
		l-0.068-2.736l0.034-10.532h5.882V70.94H332.479z"/>
	<path d="M341.365,63.281l-0.957-17.986h6.736l-0.924,17.986H341.365z M343.895,71.351c-2.291,0-3.316-0.854-3.316-2.94
		c0-1.881,1.025-3.009,3.316-3.009c2.325,0,3.352,1.128,3.352,3.009C347.247,70.154,346.22,71.351,343.895,71.351z"/>
</g>
</svg>
