<?xml version="1.0" encoding="utf-8"?>
<!-- Generator: Adobe Illustrator 16.0.0, SVG Export Plug-In . SVG Version: 6.00 Build 0)  -->
<!DOCTYPE svg PUBLIC "-//W3C//DTD SVG 1.1//EN" "http://www.w3.org/Graphics/SVG/1.1/DTD/svg11.dtd">
<svg version="1.1" id="Ebene_1" xmlns="http://www.w3.org/2000/svg" xmlns:xlink="http://www.w3.org/1999/xlink" x="0px" y="0px"
	 width="232.579px" height="25.61px" viewBox="0 0 232.579 25.61" enable-background="new 0 0 232.579 25.61" xml:space="preserve">
<g>
	<path d="M13.304,20.28L7,11.866H4.103v8.414H2.573V2.896h1.529v7.603h2.92l5.98-7.603h1.9l-6.49,8.205l6.885,9.179H13.304z"/>
	<path d="M22.829,20.581c-3.986,0-5.771-1.993-5.771-7.116c0-5.076,1.809-7.092,5.771-7.092c4.01,0,5.702,2.017,5.702,7.092
		C28.531,18.588,26.839,20.581,22.829,20.581z M22.829,19.353c3.06,0,4.242-1.623,4.242-5.887c0-4.242-1.183-5.841-4.242-5.841
		c-3.082,0-4.311,1.599-4.311,5.841C18.519,17.753,19.747,19.353,22.829,19.353z"/>
	<path d="M35.414,20.558c-1.622,0-3.151-0.44-4.172-1.252l0.231-1.274c0.997,0.834,2.527,1.298,3.918,1.298
		c2.317,0,3.291-1.182,3.291-2.758c0-3.662-7.371-2.086-7.371-6.606c0-2.225,1.6-3.592,4.543-3.592c1.299,0,2.504,0.255,3.593,0.788
		l-0.14,1.229c-1.135-0.51-2.34-0.765-3.477-0.765c-1.947,0-3.175,0.881-3.175,2.271c0,3.407,7.347,1.715,7.347,6.536
		C40.003,18.912,38.59,20.558,35.414,20.558z"/>
	<path d="M45.357,7.74v9.248c0,1.646,0.857,2.295,2.226,2.295c0.394,0,0.881-0.07,1.158-0.186l0.116,1.113
		c-0.371,0.162-1.043,0.278-1.646,0.278c-2.133,0-3.269-1.112-3.269-3.454V7.74h-2.132V6.604h2.155l0.278-3.592l1.112-0.139v3.731
		h3.593V7.74H45.357z"/>
	<path d="M50.989,12.979c0-4.288,1.831-6.605,5.447-6.605c3.082,0,5.238,1.877,5.238,6.304c0,0.208-0.023,0.51-0.047,0.695h-9.201
		c0.068,4.381,1.529,5.864,4.797,5.864c1.438,0,2.619-0.348,3.778-0.974l0.186,1.229c-1.183,0.672-2.503,1.066-4.103,1.066
		C52.728,20.558,50.989,18.263,50.989,12.979z M60.376,12.376c-0.046-3.454-1.668-4.751-3.939-4.751
		c-2.689,0-3.895,1.599-4.033,4.751H60.376z"/>
	<path d="M73.888,20.28v-9.225c0-2.341-1.297-3.337-3.615-3.337c-1.344,0-2.967,0.649-3.731,1.854V20.28H65.15V6.628l0.997-0.093
		l0.254,1.646h0.07c0.927-1.136,2.503-1.808,4.148-1.808c2.897,0,4.658,1.506,4.658,4.659v9.248H73.888z"/>
	<path d="M79.96,20.28V1.83l1.391-0.093V20.28H79.96z"/>
	<path d="M91.178,20.581c-3.986,0-5.771-1.993-5.771-7.116c0-5.076,1.807-7.092,5.771-7.092c4.011,0,5.702,2.017,5.702,7.092
		C96.88,18.588,95.188,20.581,91.178,20.581z M91.178,19.353c3.06,0,4.241-1.623,4.241-5.887c0-4.242-1.182-5.841-4.241-5.841
		c-3.083,0-4.312,1.599-4.312,5.841C86.866,17.753,88.095,19.353,91.178,19.353z"/>
	<path d="M103.763,20.558c-1.622,0-3.152-0.44-4.172-1.252l0.232-1.274c0.996,0.834,2.525,1.298,3.916,1.298
		c2.318,0,3.292-1.182,3.292-2.758c0-3.662-7.371-2.086-7.371-6.606c0-2.225,1.6-3.592,4.543-3.592c1.298,0,2.503,0.255,3.593,0.788
		l-0.139,1.229c-1.137-0.51-2.342-0.765-3.477-0.765c-1.947,0-3.176,0.881-3.176,2.271c0,3.407,7.348,1.715,7.348,6.536
		C108.353,18.912,106.938,20.558,103.763,20.558z"/>
	<path d="M110.831,12.979c0-4.288,1.832-6.605,5.447-6.605c3.082,0,5.238,1.877,5.238,6.304c0,0.208-0.023,0.51-0.047,0.695h-9.201
		c0.069,4.381,1.529,5.864,4.798,5.864c1.437,0,2.619-0.348,3.778-0.974l0.186,1.229c-1.183,0.672-2.504,1.066-4.104,1.066
		C112.569,20.558,110.831,18.263,110.831,12.979z M120.219,12.376c-0.046-3.454-1.669-4.751-3.94-4.751
		c-2.689,0-3.895,1.599-4.033,4.751H120.219z"/>
	<path d="M139.153,20.28h-6.373V2.896h6.025c3.223,0,4.845,1.368,4.845,4.265c0,2.271-1.089,3.477-2.55,3.894v0.046
		c2.04,0.417,3.291,1.739,3.291,4.312C144.392,18.495,142.955,20.28,139.153,20.28z M139.085,11.843h-4.845v7.093h4.937
		c2.318,0,3.709-0.95,3.709-3.639C142.886,12.932,141.634,11.843,139.085,11.843z M138.76,4.264h-4.497v6.328h4.683
		c2.179,0,3.245-1.066,3.245-3.175C142.19,5.167,141.101,4.264,138.76,4.264z"/>
	<path d="M147.382,12.979c0-4.288,1.83-6.605,5.446-6.605c3.083,0,5.238,1.877,5.238,6.304c0,0.208-0.023,0.51-0.046,0.695h-9.202
		c0.069,4.381,1.53,5.864,4.798,5.864c1.438,0,2.619-0.348,3.777-0.974l0.186,1.229c-1.182,0.672-2.503,1.066-4.102,1.066
		C149.12,20.558,147.382,18.263,147.382,12.979z M156.769,12.376c-0.047-3.454-1.669-4.751-3.94-4.751
		c-2.688,0-3.894,1.599-4.033,4.751H156.769z"/>
	<path d="M161.542,20.28V6.674l1.137-0.093l0.045,1.53l0.047,1.877h0.047c0.787-2.132,2.387-3.569,4.449-3.569
		c0.465,0,0.904,0.046,1.299,0.162l-0.116,1.46c-0.394-0.139-0.812-0.185-1.251-0.185c-2.318,0-4.266,2.132-4.266,5.447v6.977
		H161.542z"/>
	<path d="M179.11,18.356l-0.068-0.023c-0.742,1.298-2.365,2.155-4.266,2.155c-2.479,0-4.195-1.229-4.195-4.288
		c0-2.596,1.6-4.08,4.938-4.08c1.229,0,2.48,0.255,3.407,0.603v-1.692c0-2.596-1.089-3.43-3.5-3.43c-1.414,0-2.688,0.255-3.87,0.857
		l-0.163-1.229c1.298-0.603,2.688-0.904,4.265-0.904c3.338,0,4.682,1.367,4.682,4.914v9.04h-1.065L179.11,18.356z M178.926,13.836
		c-0.348-0.255-1.554-0.649-3.198-0.649c-2.643,0-3.802,1.089-3.802,2.99c0,2.318,1.391,3.106,3.222,3.106
		c1.994,0,3.778-1.391,3.778-2.712V13.836z"/>
	<path d="M186.712,7.74v9.248c0,1.646,0.857,2.295,2.226,2.295c0.394,0,0.881-0.07,1.159-0.186l0.115,1.113
		c-0.371,0.162-1.043,0.278-1.645,0.278c-2.133,0-3.27-1.112-3.27-3.454V7.74h-2.132V6.604h2.155l0.279-3.592l1.111-0.139v3.731
		h3.594V7.74H186.712z"/>
	<path d="M203.261,15.969c0,2.874-1.645,4.589-5.075,4.589c-3.407,0-5.054-1.739-5.054-4.589V6.604h1.391v9.318
		c0,2.132,1.252,3.291,3.663,3.291c2.41,0,3.685-1.136,3.685-3.291V6.604h1.391V15.969z"/>
	<path d="M216.147,20.28v-9.225c0-2.341-1.298-3.337-3.615-3.337c-1.345,0-2.967,0.649-3.732,1.854V20.28h-1.391V6.628l0.997-0.093
		l0.255,1.646h0.069c0.927-1.136,2.503-1.808,4.149-1.808c2.896,0,4.658,1.506,4.658,4.659v9.248H216.147z"/>
	<path d="M224.027,14.068c-0.927,0.209-1.414,0.672-1.414,1.252c0,0.533,0.417,0.973,1.554,1.089l3.151,0.324
		c3.36,0.348,4.358,1.368,4.358,3.175c0,2.411-1.392,3.94-5.54,3.94c-3.593,0-5.1-1.437-5.1-3.616c0-1.043,0.533-2.063,1.507-2.805
		c-0.695-0.301-1.252-0.904-1.252-1.831c0-0.834,0.626-1.576,1.762-1.97c-0.973-0.533-1.669-1.553-1.669-3.245
		c0-2.573,1.298-4.01,4.612-4.01c1.183,0,2.434,0.231,3.338,0.95l2.202-0.997l0.324,0.718l-1.761,1.182
		c0.301,0.557,0.486,1.252,0.486,2.132c0,2.573-1.159,3.964-4.59,3.964C225.349,14.323,224.653,14.253,224.027,14.068z
		 M223.772,17.684c-0.974,0.625-1.483,1.553-1.483,2.387c0,1.623,1.112,2.596,3.802,2.596c3.383,0,4.264-1.043,4.264-2.573
		c0-1.182-0.602-1.831-3.244-2.062L223.772,17.684z M222.753,10.406c0,2.295,1.391,2.805,3.221,2.805
		c2.504,0,3.269-0.974,3.269-2.805c0-2.109-0.997-2.851-3.245-2.851C223.634,7.555,222.753,8.505,222.753,10.406z"/>
</g>
</svg>
