<?xml version="1.0" encoding="utf-8"?>
<!-- Generator: Adobe Illustrator 16.0.0, SVG Export Plug-In . SVG Version: 6.00 Build 0)  -->
<!DOCTYPE svg PUBLIC "-//W3C//DTD SVG 1.1//EN" "http://www.w3.org/Graphics/SVG/1.1/DTD/svg11.dtd">
<svg version="1.1" id="Ebene_1" xmlns="http://www.w3.org/2000/svg" xmlns:xlink="http://www.w3.org/1999/xlink" x="0px" y="0px"
	 width="345.519px" height="25.61px" viewBox="0 0 345.519 25.61" enable-background="new 0 0 345.519 25.61" xml:space="preserve">
<g>
	<path d="M6.281,20.604c-1.993,0-3.616-0.533-4.937-1.345l0.277-1.437c1.345,0.881,2.828,1.345,4.659,1.345
		c2.759,0,4.172-1.345,4.172-3.593c0-4.659-8.923-2.619-8.923-8.344c0-2.619,1.668-4.612,5.4-4.612c1.691,0,3.221,0.348,4.449,0.927
		l-0.277,1.367C9.781,4.356,8.507,4.032,7,4.032c-2.874,0-4.011,1.46-4.011,3.106c0,4.427,8.947,2.341,8.947,8.344
		C11.937,18.657,9.989,20.604,6.281,20.604z"/>
	<path d="M23.293,8.436c-0.857-0.417-1.924-0.718-3.013-0.718c-3.199,0-4.451,1.646-4.451,5.562c0,4.427,1.508,6.003,4.404,6.003
		c1.159,0,2.295-0.325,3.152-0.95l0.139,1.228c-0.811,0.603-2.132,1.02-3.546,1.02c-3.755,0-5.608-2.132-5.608-7.301
		c0-4.659,1.715-6.907,5.632-6.907c1.274,0,2.503,0.324,3.407,0.765L23.293,8.436z"/>
	<path d="M35.716,20.28v-9.248c0-2.109-1.136-3.314-3.57-3.314c-1.691,0-3.129,0.834-3.73,1.877V20.28h-1.414V1.853l1.414-0.116
		v4.497l-0.023,1.854l0.046,0.023c0.95-1.136,2.411-1.762,4.079-1.762c3.014,0,4.613,1.646,4.613,4.682v9.248H35.716z"/>
	<path d="M50.016,20.28v-9.225c0-2.341-1.298-3.337-3.616-3.337c-1.344,0-2.967,0.649-3.73,1.854V20.28h-1.391V6.628l0.996-0.093
		l0.255,1.646h0.069c0.928-1.136,2.504-1.808,4.148-1.808c2.898,0,4.659,1.506,4.659,4.659v9.248H50.016z"/>
	<path d="M54.674,12.979c0-4.288,1.831-6.605,5.446-6.605c3.083,0,5.238,1.877,5.238,6.304c0,0.208-0.023,0.51-0.046,0.695H56.11
		c0.07,4.381,1.53,5.864,4.799,5.864c1.437,0,2.619-0.348,3.777-0.974l0.186,1.229c-1.182,0.672-2.504,1.066-4.103,1.066
		C56.412,20.558,54.674,18.263,54.674,12.979z M64.062,12.376c-0.047-3.454-1.67-4.751-3.941-4.751
		c-2.688,0-3.894,1.599-4.033,4.751H64.062z"/>
	<path d="M69.368,20.28V1.83l1.391-0.093V20.28H69.368z"/>
	<path d="M76.228,20.28V1.83l1.391-0.093V20.28H76.228z"/>
	<path d="M102.72,20.512c-1.205-0.742-2.48-1.692-3.709-2.758c-1.32,1.599-3.082,2.805-5.377,2.805c-3.244,0-4.496-2.063-4.496-4.45
		c0-2.526,1.6-4.219,3.361-5.609c-0.975-1.53-1.554-2.99-1.554-4.125c0-2.109,1.159-3.755,3.917-3.755
		c2.342,0,3.57,1.205,3.57,2.897c0,2.086-1.855,3.477-4.195,5.215c1.205,1.669,2.827,3.454,4.589,5.053
		c0.857-1.344,1.437-2.874,1.669-4.195l1.205-0.023c-0.139,1.321-0.766,3.314-1.9,5.099c1.135,0.974,2.295,1.854,3.43,2.573
		L102.72,20.512z M98.015,16.896c-1.808-1.669-3.523-3.546-4.798-5.331c-1.46,1.205-2.665,2.573-2.665,4.473
		c0,1.994,1.367,3.152,3.291,3.152C95.466,19.19,96.902,18.24,98.015,16.896z M93.564,9.71c1.924-1.414,3.478-2.526,3.5-4.103
		c0-1.136-0.835-1.831-2.249-1.831c-1.459,0-2.549,0.95-2.549,2.596C92.267,7.254,92.753,8.413,93.564,9.71z"/>
	<path d="M112.245,12.979c0-4.288,1.83-6.605,5.446-6.605c3.083,0,5.238,1.877,5.238,6.304c0,0.208-0.023,0.51-0.046,0.695h-9.202
		c0.069,4.381,1.53,5.864,4.798,5.864c1.438,0,2.619-0.348,3.777-0.974l0.186,1.229c-1.182,0.672-2.503,1.066-4.102,1.066
		C113.983,20.558,112.245,18.263,112.245,12.979z M121.632,12.376c-0.047-3.454-1.669-4.751-3.94-4.751
		c-2.688,0-3.894,1.599-4.033,4.751H121.632z"/>
	<path d="M127.772,3.8c-0.695,0-1.089-0.232-1.089-0.974c0-0.626,0.394-0.974,1.089-0.974s1.09,0.348,1.09,0.974
		C128.862,3.499,128.468,3.8,127.772,3.8z M127.055,20.28V6.674l1.413-0.116V20.28H127.055z"/>
	<path d="M142.282,20.28v-9.225c0-2.341-1.299-3.337-3.616-3.337c-1.345,0-2.967,0.649-3.731,1.854V20.28h-1.391V6.628l0.996-0.093
		l0.256,1.646h0.068c0.928-1.136,2.504-1.808,4.149-1.808c2.897,0,4.659,1.506,4.659,4.659v9.248H142.282z"/>
	<path d="M148.726,20.28V7.717h-2.203V6.604h2.203V5.933c0-2.434,1.274-4.08,4.357-4.08c0.672,0,1.459,0.116,1.924,0.278
		l-0.117,0.997c-0.463-0.116-1.02-0.208-1.621-0.208c-2.18,0-3.13,1.136-3.13,3.036v0.649h3.848v1.113h-3.848V20.28H148.726z"/>
	<path d="M164.532,18.356l-0.07-0.023c-0.741,1.298-2.363,2.155-4.264,2.155c-2.48,0-4.195-1.229-4.195-4.288
		c0-2.596,1.599-4.08,4.937-4.08c1.229,0,2.479,0.255,3.407,0.603v-1.692c0-2.596-1.09-3.43-3.5-3.43
		c-1.414,0-2.688,0.255-3.871,0.857l-0.162-1.229c1.299-0.603,2.689-0.904,4.266-0.904c3.337,0,4.682,1.367,4.682,4.914v9.04h-1.066
		L164.532,18.356z M164.347,13.836c-0.348-0.255-1.553-0.649-3.199-0.649c-2.642,0-3.801,1.089-3.801,2.99
		c0,2.318,1.391,3.106,3.222,3.106c1.993,0,3.778-1.391,3.778-2.712V13.836z"/>
	<path d="M177.929,8.436c-0.857-0.417-1.924-0.718-3.014-0.718c-3.198,0-4.45,1.646-4.45,5.562c0,4.427,1.507,6.003,4.403,6.003
		c1.16,0,2.295-0.325,3.152-0.95l0.14,1.228c-0.812,0.603-2.132,1.02-3.546,1.02c-3.756,0-5.609-2.132-5.609-7.301
		c0-4.659,1.715-6.907,5.633-6.907c1.273,0,2.502,0.324,3.406,0.765L177.929,8.436z"/>
	<path d="M190.351,20.28v-9.248c0-2.109-1.135-3.314-3.569-3.314c-1.692,0-3.129,0.834-3.731,1.877V20.28h-1.414V1.853l1.414-0.116
		v4.497l-0.023,1.854l0.047,0.023c0.95-1.136,2.41-1.762,4.079-1.762c3.013,0,4.612,1.646,4.612,4.682v9.248H190.351z"/>
	<path d="M214.733,6.604l-5.471,13.675h-1.668l-5.494-13.675h1.6l4.057,10.639l0.648,1.761h0.07l0.625-1.761l4.057-10.639H214.733z"
		/>
	<path d="M222.497,20.581c-3.986,0-5.771-1.993-5.771-7.116c0-5.076,1.808-7.092,5.771-7.092c4.01,0,5.701,2.017,5.701,7.092
		C228.198,18.588,226.507,20.581,222.497,20.581z M222.497,19.353c3.059,0,4.241-1.623,4.241-5.887c0-4.242-1.183-5.841-4.241-5.841
		c-3.083,0-4.312,1.599-4.312,5.841C218.186,17.753,219.414,19.353,222.497,19.353z"/>
	<path d="M240.46,20.28v-9.225c0-2.341-1.299-3.337-3.617-3.337c-1.344,0-2.967,0.649-3.73,1.854V20.28h-1.391V6.628l0.996-0.093
		l0.255,1.646h0.069c0.928-1.136,2.504-1.808,4.148-1.808c2.898,0,4.66,1.506,4.66,4.659v9.248H240.46z"/>
	<path d="M252.487,20.28v-1.043l8.715-13.328l1.043-1.506l-0.023-0.046h-9.434l0.07-1.46h11.24v1.206l-8.645,13.165l-1.043,1.483
		l0.023,0.069h9.688l-0.068,1.46H252.487z"/>
	<path d="M277.333,15.969c0,2.874-1.646,4.589-5.076,4.589c-3.406,0-5.053-1.739-5.053-4.589V6.604h1.391v9.318
		c0,2.132,1.252,3.291,3.662,3.291s3.686-1.136,3.686-3.291V6.604h1.391V15.969z"/>
	<path d="M290.335,20.28v-9.248c0-2.109-1.135-3.314-3.568-3.314c-1.691,0-3.129,0.834-3.732,1.877V20.28h-1.414V1.853l1.414-0.116
		v4.497l-0.023,1.854l0.047,0.023c0.951-1.136,2.41-1.762,4.08-1.762c3.012,0,4.611,1.646,4.611,4.682v9.248H290.335z"/>
	<path d="M303.708,18.356l-0.068-0.023c-0.742,1.298-2.365,2.155-4.266,2.155c-2.48,0-4.195-1.229-4.195-4.288
		c0-2.596,1.6-4.08,4.938-4.08c1.229,0,2.48,0.255,3.406,0.603v-1.692c0-2.596-1.088-3.43-3.5-3.43
		c-1.412,0-2.688,0.255-3.869,0.857l-0.162-1.229c1.297-0.603,2.688-0.904,4.264-0.904c3.338,0,4.682,1.367,4.682,4.914v9.04h-1.066
		L303.708,18.356z M303.522,13.836c-0.348-0.255-1.553-0.649-3.197-0.649c-2.643,0-3.801,1.089-3.801,2.99
		c0,2.318,1.391,3.106,3.221,3.106c1.994,0,3.777-1.391,3.777-2.712V13.836z"/>
	<path d="M318.937,15.969c0,2.874-1.646,4.589-5.076,4.589c-3.408,0-5.053-1.739-5.053-4.589V6.604h1.391v9.318
		c0,2.132,1.25,3.291,3.662,3.291c2.41,0,3.686-1.136,3.686-3.291V6.604h1.391V15.969z"/>
	<path d="M326.491,20.558c-1.623,0-3.152-0.44-4.172-1.252l0.232-1.274c0.996,0.834,2.525,1.298,3.916,1.298
		c2.318,0,3.291-1.182,3.291-2.758c0-3.662-7.369-2.086-7.369-6.606c0-2.225,1.598-3.592,4.543-3.592
		c1.297,0,2.502,0.255,3.592,0.788l-0.139,1.229c-1.137-0.51-2.342-0.765-3.477-0.765c-1.947,0-3.176,0.881-3.176,2.271
		c0,3.407,7.348,1.715,7.348,6.536C331.081,18.912,329.667,20.558,326.491,20.558z"/>
	<path d="M333.56,12.979c0-4.288,1.832-6.605,5.447-6.605c3.082,0,5.238,1.877,5.238,6.304c0,0.208-0.023,0.51-0.047,0.695h-9.201
		c0.07,4.381,1.529,5.864,4.797,5.864c1.438,0,2.619-0.348,3.779-0.974l0.186,1.229c-1.182,0.672-2.504,1.066-4.104,1.066
		C335.298,20.558,333.56,18.263,333.56,12.979z M342.946,12.376c-0.045-3.454-1.668-4.751-3.939-4.751
		c-2.689,0-3.895,1.599-4.033,4.751H342.946z"/>
</g>
</svg>
