<?xml version="1.0" encoding="utf-8"?>
<!-- Generator: Adobe Illustrator 16.0.4, SVG Export Plug-In . SVG Version: 6.00 Build 0)  -->
<!DOCTYPE svg PUBLIC "-//W3C//DTD SVG 1.1//EN" "http://www.w3.org/Graphics/SVG/1.1/DTD/svg11.dtd">
<svg version="1.1" id="Ebene_1" xmlns="http://www.w3.org/2000/svg" xmlns:xlink="http://www.w3.org/1999/xlink" x="0px" y="0px"
	 width="181.287px" height="183.248px" viewBox="0 0 181.287 183.248" enable-background="new 0 0 181.287 183.248"
	 xml:space="preserve">
<g>
	<path d="M18.3,15.209c0,5.279-2.819,8.039-8.579,8.039s-8.67-2.76-8.67-8.039V0.359H6.93v14.729c0,2.01,0.78,2.909,2.791,2.909
		c2.039,0,2.729-0.84,2.729-2.909V0.359H18.3V15.209z"/>
	<path d="M34.319,22.858l-6.72-10.38l-1.26-2.07l-0.061,0.031l0.031,2.43v9.989h-5.16V0.359h4.92l7.229,11.67l0.061-0.03L33.299,9.6
		l0.031-9.24h5.159v22.499H34.319z"/>
	<path d="M47.43,23.248c-2.369,0-4.71-0.539-6.539-1.56l0.75-4.979c1.829,0.93,3.689,1.5,5.639,1.5c1.86,0,2.58-0.631,2.58-1.83
		c0-2.88-8.939-1.98-8.939-9.33c0-3.93,2.4-7.049,7.949-7.049c2.07,0,4.291,0.389,5.91,1.079l-0.66,4.89
		c-1.709-0.51-3.42-0.81-4.859-0.81c-2.221,0-2.7,0.66-2.7,1.62c0,2.91,8.94,1.92,8.94,9.27C55.5,20.488,52.5,23.248,47.43,23.248z"
		/>
	<path d="M72.209,17.789l-0.119,5.069H57.6V0.359h14.1l0.12,5.16h-8.37v3.479h6.9v4.71h-6.9v4.08H72.209z"/>
	<path d="M87.689,13.648l4.379,9.21h-6.779l-3-8.04H80.31v8.04h-5.851V0.359h7.771c5.7,0,8.52,2.16,8.52,7.229
		C90.749,10.589,89.669,12.809,87.689,13.648z M82.35,5.219h-2.04v5.189h2.01c1.71,0,2.31-0.42,2.31-2.609
		C84.629,5.76,84.059,5.219,82.35,5.219z"/>
	<path d="M108.148,17.789l-0.119,5.069h-14.49V0.359h14.1l0.12,5.16h-8.37v3.479h6.9v4.71h-6.9v4.08H108.148z"/>
	<path d="M14.49,45.648l4.379,9.21H12.09l-3-8.04H7.11v8.04H1.26V32.359H9.03c5.7,0,8.52,2.16,8.52,7.229
		C17.55,42.589,16.47,44.809,14.49,45.648z M9.15,37.219H7.11v5.189h2.01c1.71,0,2.31-0.42,2.31-2.609
		C11.43,37.76,10.859,37.219,9.15,37.219z"/>
	<path d="M34.949,49.789l-0.119,5.069H20.34V32.359h14.1l0.12,5.16h-8.37v3.479h6.9v4.71h-6.9v4.08H34.949z"/>
	<path d="M37.439,32.359h6.03v22.499h-6.03V32.359z"/>
	<path d="M59.938,54.858l-6.72-10.38l-1.26-2.07l-0.061,0.031l0.031,2.43v9.989h-5.16V32.359h4.92l7.229,11.67l0.061-0.03
		L58.918,41.6l0.031-9.24h5.159v22.499H59.938z"/>
	<path d="M67.409,32.359h6.03v22.499h-6.03V32.359z"/>
	<path d="M92.638,54.049c-1.56,0.75-4.11,1.229-6.419,1.229c-7.44,0-10.08-3.989-10.08-11.669c0-7.86,3.09-11.641,10.35-11.641
		c1.979,0,4.229,0.36,5.85,0.99l-0.54,5.01c-1.47-0.539-3.36-0.869-4.979-0.869c-3.689,0-4.53,1.379-4.53,6.449
		c0,5.34,0.87,6.51,3.78,6.51c0.449,0,0.93-0.029,1.35-0.12v-7.35h5.22V54.049z"/>
	<path d="M112.348,47.209c0,5.279-2.82,8.039-8.58,8.039s-8.67-2.76-8.67-8.039v-14.85h5.881v14.729c0,2.01,0.779,2.909,2.789,2.909
		c2.04,0,2.73-0.84,2.73-2.909V32.359h5.85V47.209z"/>
	<path d="M128.367,54.858l-6.72-10.38l-1.26-2.07l-0.06,0.031l0.029,2.43v9.989h-5.16V32.359h4.92l7.23,11.67l0.06-0.03l-0.06-2.399
		l0.029-9.24h5.16v22.499H128.367z"/>
	<path d="M151.497,54.049c-1.56,0.75-4.11,1.229-6.419,1.229c-7.44,0-10.08-3.989-10.08-11.669c0-7.86,3.09-11.641,10.35-11.641
		c1.979,0,4.229,0.36,5.85,0.99l-0.54,5.01c-1.47-0.539-3.36-0.869-4.979-0.869c-3.689,0-4.53,1.379-4.53,6.449
		c0,5.34,0.87,6.51,3.78,6.51c0.449,0,0.93-0.029,1.35-0.12v-7.35h5.22V54.049z"/>
	<path d="M160.047,55.248c-2.369,0-4.709-0.539-6.539-1.56l0.75-4.979c1.83,0.93,3.689,1.5,5.64,1.5c1.86,0,2.579-0.631,2.579-1.83
		c0-2.88-8.939-1.98-8.939-9.33c0-3.93,2.4-7.049,7.95-7.049c2.069,0,4.29,0.389,5.909,1.079l-0.659,4.89
		c-1.71-0.51-3.42-0.81-4.86-0.81c-2.22,0-2.699,0.66-2.699,1.62c0,2.91,8.939,1.92,8.939,9.27
		C168.117,52.488,165.117,55.248,160.047,55.248z"/>
	<path d="M178.167,41.659v3.899h-8.37v-3.899H178.167z"/>
	<path d="M11.07,69.609v17.249H5.1V69.609H0l0.121-5.25H16.05l0.12,5.25H11.07z"/>
	<path d="M32.58,81.789l-0.12,5.069H17.971V64.359h14.1l0.119,5.16H23.82v3.479h6.899v4.71H23.82v4.08H32.58z"/>
	<path d="M47.88,69.789c-0.99-0.359-2.34-0.6-3.75-0.6c-3.329,0-4.17,1.41-4.17,6.33c0,5.189,0.931,6.629,4.26,6.629
		c1.38,0,2.67-0.27,3.72-0.75l0.541,4.77c-1.351,0.66-3.391,1.08-5.131,1.08c-6.42,0-9.539-3.66-9.539-11.76
		c0-7.559,3.029-11.52,9.899-11.52c1.59,0,3.54,0.36,4.739,0.84L47.88,69.789z"/>
	<path d="M61.949,86.858v-8.819H56.49v8.819H50.64V64.359h5.851v8.43h5.459v-8.43h5.88v22.499H61.949z"/>
	<path d="M84.029,86.858l-6.721-10.38l-1.26-2.07l-0.06,0.031l0.03,2.43v9.989h-5.16V64.359h4.92l7.23,11.67l0.059-0.03L83.01,73.6
		l0.029-9.24h5.16v22.499H84.029z"/>
	<path d="M91.5,64.359h6.029v22.499H91.5V64.359z"/>
	<path d="M112.348,86.858l-4.229-9.149h-1.44v9.149h-5.851V64.359h5.851v8.699h1.56l4.17-8.699h6.57l-5.4,10.77l5.67,11.729H112.348
		z"/>
	<path d="M133.527,69.609v3.959h6.87l-0.03,4.98h-6.84v8.31h-5.879V64.359h14.068l0.091,5.25H133.527z"/>
	<path d="M160.827,79.209c0,5.279-2.819,8.039-8.579,8.039s-8.67-2.76-8.67-8.039v-14.85h5.879v14.729
		c0,2.01,0.78,2.909,2.791,2.909c2.039,0,2.729-0.84,2.729-2.909V64.359h5.851V79.209z M149.397,63.279c-1.47,0-2.22-0.57-2.22-2.01
		c0-1.35,0.75-2.07,2.22-2.07c1.53,0,2.22,0.721,2.22,2.07C151.617,62.59,150.928,63.279,149.397,63.279z M155.127,63.279
		c-1.47,0-2.22-0.57-2.22-2.01c0-1.35,0.75-2.07,2.22-2.07c1.53,0,2.221,0.721,2.221,2.07
		C157.348,62.59,156.657,63.279,155.127,63.279z"/>
	<path d="M176.906,77.648l4.381,9.21h-6.78l-2.999-8.04h-1.98v8.04h-5.85V64.359h7.77c5.699,0,8.52,2.16,8.52,7.229
		C179.967,74.589,178.887,76.809,176.906,77.648z M171.566,69.219h-2.039v5.189h2.01c1.71,0,2.311-0.42,2.311-2.609
		C173.848,69.76,173.277,69.219,171.566,69.219z"/>
	<path d="M10.08,119.248c-6.48,0-9.42-3.42-9.42-11.639C0.66,99.359,3.48,96,10.08,96s9.42,3.359,9.42,11.609
		C19.5,116.068,16.68,119.248,10.08,119.248z M10.051,101.249c-2.461,0-3.24,1.021-3.24,6.36c0,5.369,0.81,6.449,3.299,6.449
		c2.49,0,3.24-1.109,3.24-6.449C13.35,102.239,12.6,101.249,10.051,101.249z"/>
	<path d="M29.67,111.869h-1.859v6.989H21.96V96.359h7.71c6.24,0,8.729,2.43,8.729,7.92C38.399,109.139,35.97,111.869,29.67,111.869z
		 M29.67,101.249h-1.859v5.97h1.859c1.92,0,2.64-0.449,2.64-2.97C32.31,101.819,31.74,101.249,29.67,101.249z"/>
	<path d="M50.31,101.609v17.249h-5.97v-17.249h-5.1l0.12-5.25h15.929l0.121,5.25H50.31z"/>
	<path d="M57.45,96.359h6.03v22.499h-6.03V96.359z"/>
	<path d="M73.229,96.359l3.961,11.369l0.75,2.311h0.09l0.75-2.28l4.02-11.399h6.479v22.499h-5.37v-9.419l0.061-2.431l-0.09-0.03
		l-0.75,2.34l-3.33,9.54h-3.81l-3.3-9.51l-0.75-2.34l-0.061,0.03l0.03,2.43v9.39h-5.13V96.359H73.229z"/>
	<path d="M92.579,96.359h6.03v22.499h-6.03V96.359z"/>
	<path d="M116.518,113.789l-0.119,5.069h-14.49V96.359h14.1l0.12,5.16h-8.37v3.479h6.9v4.71h-6.9v4.08H116.518z"/>
	<path d="M131.998,109.648l4.379,9.21h-6.779l-3-8.04h-1.979v8.04h-5.851V96.359h7.771c5.7,0,8.52,2.16,8.52,7.229
		C135.058,106.589,133.978,108.809,131.998,109.648z M126.658,101.219h-2.04v5.189h2.01c1.71,0,2.31-0.42,2.31-2.609
		C128.938,101.76,128.367,101.219,126.658,101.219z"/>
	<path d="M147.357,101.609v17.249h-5.97v-17.249h-5.1l0.12-5.25h15.93l0.119,5.25H147.357z"/>
	<path d="M168.867,113.789l-0.119,5.069h-14.49V96.359h14.1l0.12,5.16h-8.37v3.479h6.9v4.71h-6.9v4.08H168.867z"/>
	<path d="M10.02,150.858H1.26v-22.499h8.82c4.83,0,7.289,2.25,7.289,5.82c0,2.369-1.08,3.899-2.76,4.709v0.061
		c2.25,0.75,3.45,2.49,3.45,5.279C18.06,148.278,15.63,150.858,10.02,150.858z M9.84,133.279H6.93v3.959H9.9
		c1.35,0,1.83-0.51,1.83-2.039C11.73,133.729,11.221,133.279,9.84,133.279z M9.99,141.619H6.93v4.439h3.18
		c1.471,0,2.011-0.48,2.011-2.25C12.12,142.248,11.641,141.619,9.99,141.619z"/>
	<path d="M35.01,145.789l-0.12,5.069H20.4v-22.499h14.1l0.119,5.16H26.25v3.479h6.899v4.71H26.25v4.08H35.01z"/>
	<path d="M47.069,133.609v17.249H41.1v-17.249H36l0.12-5.25h15.929l0.121,5.25H47.069z"/>
	<path d="M67.199,141.648l4.38,9.21h-6.78l-3-8.04H59.82v8.04H53.97v-22.499h7.771c5.699,0,8.52,2.16,8.52,7.229
		C70.26,138.589,69.18,140.809,67.199,141.648z M61.859,133.219H59.82v5.189h2.01c1.709,0,2.31-0.42,2.31-2.609
		C64.14,133.76,63.569,133.219,61.859,133.219z"/>
	<path d="M73.289,128.359h6.03v22.499h-6.03V128.359z"/>
	<path d="M97.229,145.789l-0.12,5.069H82.619v-22.499h14.1l0.119,5.16h-8.369v3.479h6.899v4.71h-6.899v4.08H97.229z"/>
	<path d="M108.238,150.858h-8.76v-22.499h8.82c4.829,0,7.289,2.25,7.289,5.82c0,2.369-1.08,3.899-2.76,4.709v0.061
		c2.25,0.75,3.449,2.49,3.449,5.279C116.277,148.278,113.848,150.858,108.238,150.858z M108.059,133.279h-2.91v3.959h2.97
		c1.351,0,1.83-0.51,1.83-2.039C109.948,133.729,109.438,133.279,108.059,133.279z M108.209,141.619h-3.061v4.439h3.18
		c1.471,0,2.01-0.48,2.01-2.25C110.338,142.248,109.858,141.619,108.209,141.619z"/>
	<path d="M124.498,151.248c-2.369,0-4.71-0.539-6.539-1.56l0.75-4.979c1.829,0.93,3.689,1.5,5.639,1.5c1.86,0,2.58-0.631,2.58-1.83
		c0-2.88-8.939-1.98-8.939-9.33c0-3.93,2.4-7.049,7.949-7.049c2.07,0,4.291,0.389,5.91,1.079l-0.66,4.89
		c-1.709-0.51-3.42-0.81-4.859-0.81c-2.221,0-2.7,0.66-2.7,1.62c0,2.91,8.94,1.92,8.94,9.27
		C132.568,148.488,129.568,151.248,124.498,151.248z"/>
	<path d="M142.617,137.659v3.899h-8.369v-3.899H142.617z"/>
	<path d="M8.971,175.869H7.11v6.989H1.26v-22.499h7.711c6.239,0,8.729,2.43,8.729,7.92C17.699,173.139,15.27,175.869,8.971,175.869z
		 M8.971,165.249H7.11v5.97h1.86c1.92,0,2.639-0.45,2.639-2.97C11.609,165.819,11.04,165.249,8.971,165.249z"/>
	<path d="M33.06,173.648l4.38,9.21H30.66l-3-8.04h-1.98v8.04h-5.85v-22.499h7.77c5.7,0,8.52,2.16,8.52,7.229
		C36.119,170.589,35.039,172.809,33.06,173.648z M27.72,165.219h-2.04v5.19h2.01c1.711,0,2.311-0.42,2.311-2.61
		C30,165.759,29.43,165.219,27.72,165.219z"/>
	<path d="M47.279,183.248c-6.48,0-9.42-3.42-9.42-11.64c0-8.249,2.82-11.608,9.42-11.608s9.42,3.359,9.42,11.608
		C56.699,180.068,53.879,183.248,47.279,183.248z M47.25,165.249c-2.461,0-3.24,1.021-3.24,6.359c0,5.37,0.81,6.45,3.299,6.45
		c2.49,0,3.24-1.11,3.24-6.45C50.549,166.239,49.799,165.249,47.25,165.249z"/>
	<path d="M58.049,182.858v-3.81l7.17-11.399l1.32-1.98l-0.029-0.06h-8.28l0.149-5.25h15.029v4.2l-6.93,11.039l-1.319,1.95l0.03,0.09
		h8.279l-0.09,5.22H58.049z"/>
	<path d="M90.418,177.789l-0.119,5.069h-14.49v-22.499h14.1l0.121,5.16h-8.37v3.479h6.899v4.71h-6.899v4.08H90.418z"/>
	<path d="M98.549,183.248c-2.369,0-4.71-0.54-6.539-1.56l0.75-4.979c1.829,0.93,3.689,1.5,5.639,1.5c1.86,0,2.58-0.631,2.58-1.83
		c0-2.88-8.939-1.98-8.939-9.33c0-3.93,2.4-7.049,7.949-7.049c2.07,0,4.291,0.39,5.91,1.079l-0.66,4.89
		c-1.709-0.51-3.42-0.81-4.859-0.81c-2.221,0-2.7,0.66-2.7,1.62c0,2.909,8.94,1.92,8.94,9.27
		C106.619,180.488,103.619,183.248,98.549,183.248z"/>
	<path d="M114.209,183.248c-2.369,0-4.709-0.54-6.539-1.56l0.75-4.979c1.83,0.93,3.689,1.5,5.64,1.5c1.86,0,2.579-0.631,2.579-1.83
		c0-2.88-8.939-1.98-8.939-9.33c0-3.93,2.4-7.049,7.95-7.049c2.069,0,4.29,0.39,5.909,1.079l-0.659,4.89
		c-1.71-0.51-3.42-0.81-4.86-0.81c-2.22,0-2.699,0.66-2.699,1.62c0,2.909,8.939,1.92,8.939,9.27
		C122.279,180.488,119.279,183.248,114.209,183.248z"/>
	<path d="M138.988,177.789l-0.119,5.069h-14.49v-22.499h14.1l0.121,5.16h-8.37v3.479h6.899v4.71h-6.899v4.08H138.988z"/>
	<path d="M143.639,183.219c-2.1,0-3.029-0.811-3.029-2.851c0-1.829,0.93-2.88,3.029-2.88c2.101,0,3,1.051,3,2.88
		C146.639,182.078,145.739,183.219,143.639,183.219z"/>
</g>
</svg>
