<?xml version="1.0" encoding="utf-8"?>
<!-- Generator: Adobe Illustrator 23.1.1, SVG Export Plug-In . SVG Version: 6.00 Build 0)  -->
<!DOCTYPE svg PUBLIC "-//W3C//DTD SVG 1.1//EN" "http://www.w3.org/Graphics/SVG/1.1/DTD/svg11.dtd" [
	<!ENTITY ns_extend "http://ns.adobe.com/Extensibility/1.0/">
	<!ENTITY ns_ai "http://ns.adobe.com/AdobeIllustrator/10.0/">
	<!ENTITY ns_graphs "http://ns.adobe.com/Graphs/1.0/">
	<!ENTITY ns_vars "http://ns.adobe.com/Variables/1.0/">
	<!ENTITY ns_imrep "http://ns.adobe.com/ImageReplacement/1.0/">
	<!ENTITY ns_sfw "http://ns.adobe.com/SaveForWeb/1.0/">
	<!ENTITY ns_custom "http://ns.adobe.com/GenericCustomNamespace/1.0/">
	<!ENTITY ns_adobe_xpath "http://ns.adobe.com/XPath/1.0/">
]>
<svg version="1.1" id="Ebene_1" xmlns:x="&ns_extend;" xmlns:i="&ns_ai;" xmlns:graph="&ns_graphs;"
	 xmlns="http://www.w3.org/2000/svg" xmlns:xlink="http://www.w3.org/1999/xlink" x="0px" y="0px" viewBox="0 0 83.97 46.93"
	 style="enable-background:new 0 0 83.97 46.93;" xml:space="preserve">
<style type="text/css">
	.st0{fill-rule:evenodd;clip-rule:evenodd;}
</style>
<metadata>
	<sfw  xmlns="&ns_sfw;">
		<slices></slices>
		<sliceSourceBounds  bottomLeftOrigin="true" height="29.25" width="68.22" x="5.94" y="-37.01"></sliceSourceBounds>
	</sfw>
</metadata>
<path class="st0" d="M72.16,10.4c-1.53,0-1.92,0.64-1.92,2.89c0,2.37,0.43,3.03,1.96,3.03c0.63,0,1.23-0.12,1.71-0.34l0.25,2.18
	c-0.62,0.3-1.56,0.49-2.36,0.49c-2.96,0-4.39-1.67-4.39-5.38c0-3.46,1.39-5.27,4.56-5.27c0.73,0,1.63,0.16,2.18,0.38l-0.26,2.28
	C73.43,10.51,72.81,10.4,72.16,10.4z M60.21,16.16h3.23l-0.06,2.32h-6.5V16.8c2.14-2.37,3.88-4.07,3.88-5.43
	c0-0.62-0.36-0.97-1.19-0.97c-0.79,0-1.5,0.36-2.18,0.84l-0.62-2.13c0.83-0.6,1.93-1.03,3.33-1.03c2.26,0,3.4,1.22,3.4,3.03
	c0,1.67-1.34,3.17-3.3,5.01L60.21,16.16z M51.57,31.47h-0.83v3.47h-2.5V24.28l2.5-0.11v5.31h0.83l1.26-2.93h2.69l-1.8,3.81
	l1.85,4.58h-2.75L51.57,31.47z M52.25,16.16h3.23l-0.06,2.32h-6.5V16.8c2.14-2.37,3.88-4.07,3.88-5.43c0-0.62-0.36-0.97-1.19-0.97
	c-0.79,0-1.51,0.36-2.18,0.84l-0.62-2.13c0.83-0.6,1.93-1.03,3.33-1.03c2.26,0,3.4,1.22,3.4,3.03c0,1.67-1.34,3.17-3.3,5.01
	L52.25,16.16z M41.88,20.07l4.25-12.32h2.15l-4.32,12.32H41.88z M41.67,14.91c0,2.3-1.13,3.7-3.74,3.7c-1.1,0-2.14-0.23-3-0.71
	l0.44-2.03c0.76,0.37,1.38,0.56,2.26,0.56c1.1,0,1.39-0.43,1.39-1.32c0-0.81-0.44-1.1-1.38-1.1c-0.54,0-1.2,0.08-1.71,0.26
	l-0.86-0.99l0.37-5.1h5.63l0.1,2.28h-3.6l-0.1,1.52c0.32-0.05,0.65-0.08,1.02-0.08C40.51,11.91,41.67,12.91,41.67,14.91z
	 M36.78,28.48c-0.86,0-1.37,0.14-2.11,0.43l-0.19-1.96c0.8-0.36,1.75-0.52,2.77-0.52c2.47,0,3.31,1.04,3.31,3.39v5.13h-1.92
	l-0.18-0.67l-0.04-0.01c-0.46,0.53-1.13,0.82-1.96,0.82c-1.52,0-2.49-0.92-2.49-2.81c0-1.56,1.08-2.65,2.82-2.65
	c0.54,0,0.94,0.05,1.3,0.16v-0.33C38.1,28.82,37.76,28.48,36.78,28.48z M38.08,31.42c-0.17-0.07-0.43-0.12-0.8-0.12
	c-0.65,0-0.94,0.29-0.94,0.93c0,0.65,0.3,0.89,0.8,0.89c0.5,0,0.94-0.3,0.94-0.77V31.42z M33.19,16.64v1.84h-2.44v-1.84h-4.09
	l-0.22-1.67l3.59-6.78h3.16v6.28h0.84l-0.06,2.17H33.19z M30.97,10.77l-1.85,3.7h1.71l0.1-2.58L31,10.78L30.97,10.77z M33.43,28.27
	c0,2.22-1.12,3.47-4.02,3.47h-0.86v3.2h-2.69V24.65h3.55C32.28,24.65,33.43,25.76,33.43,28.27z M28.55,29.61h0.86
	c0.88,0,1.21-0.21,1.21-1.36c0-1.11-0.26-1.37-1.21-1.37h-0.86V29.61z M19.89,18.48l-1.38-3.68H17.6v3.68h-2.69V8.19h3.58
	c2.62,0,3.92,0.99,3.92,3.31c0,1.37-0.5,2.39-1.41,2.77l2.02,4.21H19.89z M18.54,10.41H17.6v2.37h0.93c0.79,0,1.06-0.19,1.06-1.19
	C19.59,10.66,19.33,10.41,18.54,10.41z M17.02,27.13c0.52-0.45,1.23-0.71,1.97-0.71c1.9,0,2.97,1.06,2.97,4.31
	c0,2.88-1.17,4.33-3.01,4.33c-0.61,0-1.15-0.12-1.6-0.51l-0.04,0.01l0.03,1.11v1.33h-2.51V26.6l1.75-0.1L17.02,27.13z M17.34,32.47
	c0.19,0.33,0.5,0.56,0.94,0.56c0.68,0,1.09-0.36,1.09-2.36c0-1.73-0.28-2.11-1.06-2.11c-0.41,0-0.77,0.22-0.97,0.53V32.47z
	 M9.98,34.94H5.94V24.65H10c2.22,0,3.35,1.03,3.35,2.66c0,1.08-0.5,1.78-1.27,2.15v0.03c1.04,0.34,1.59,1.14,1.59,2.41
	C13.68,33.76,12.56,34.94,9.98,34.94z M9.89,26.9H8.55v1.81h1.37c0.62,0,0.84-0.23,0.84-0.93C10.76,27.1,10.53,26.9,9.89,26.9z
	 M9.96,30.71H8.55v2.03h1.46c0.68,0,0.93-0.22,0.93-1.03C10.94,31,10.72,30.71,9.96,30.71z M13.68,15.45c0,1.85-1.12,3.03-3.7,3.03
	H5.94V8.19H10c2.22,0,3.35,1.03,3.35,2.66c0,1.08-0.5,1.78-1.27,2.15v0.03C13.12,13.38,13.68,14.17,13.68,15.45z M9.89,10.44H8.55
	v1.81h1.37c0.62,0,0.84-0.23,0.84-0.93C10.76,10.65,10.53,10.44,9.89,10.44z M9.96,14.25H8.55v2.03h1.46c0.68,0,0.93-0.22,0.93-1.03
	C10.94,14.54,10.72,14.25,9.96,14.25z M45.16,26.42c0.63,0,1.37,0.14,1.84,0.33l-0.14,2.07c-0.36-0.11-0.77-0.19-1.13-0.19
	c-1.31,0-1.71,0.53-1.71,2.18c0,1.55,0.62,2.19,1.66,2.19c0.46,0,0.87-0.08,1.23-0.22l0.17,1.91c-0.45,0.26-1.12,0.41-1.93,0.41
	c-2.4,0-3.71-1.4-3.71-4.29C41.42,28,42.56,26.42,45.16,26.42z"/>
</svg>
