<?xml version="1.0" encoding="utf-8"?>
<!-- Generator: Adobe Illustrator 23.1.1, SVG Export Plug-In . SVG Version: 6.00 Build 0)  -->
<!DOCTYPE svg PUBLIC "-//W3C//DTD SVG 1.1//EN" "http://www.w3.org/Graphics/SVG/1.1/DTD/svg11.dtd" [
	<!ENTITY ns_extend "http://ns.adobe.com/Extensibility/1.0/">
	<!ENTITY ns_ai "http://ns.adobe.com/AdobeIllustrator/10.0/">
	<!ENTITY ns_graphs "http://ns.adobe.com/Graphs/1.0/">
	<!ENTITY ns_vars "http://ns.adobe.com/Variables/1.0/">
	<!ENTITY ns_imrep "http://ns.adobe.com/ImageReplacement/1.0/">
	<!ENTITY ns_sfw "http://ns.adobe.com/SaveForWeb/1.0/">
	<!ENTITY ns_custom "http://ns.adobe.com/GenericCustomNamespace/1.0/">
	<!ENTITY ns_adobe_xpath "http://ns.adobe.com/XPath/1.0/">
]>
<svg version="1.1" id="Ebene_1" xmlns:x="&ns_extend;" xmlns:i="&ns_ai;" xmlns:graph="&ns_graphs;"
	 xmlns="http://www.w3.org/2000/svg" xmlns:xlink="http://www.w3.org/1999/xlink" x="0px" y="0px" viewBox="0 0 152.79 46.93"
	 style="enable-background:new 0 0 152.79 46.93;" xml:space="preserve">
<style type="text/css">
	.st0{fill-rule:evenodd;clip-rule:evenodd;}
</style>
<metadata>
	<sfw  xmlns="&ns_sfw;">
		<slices></slices>
		<sliceSourceBounds  bottomLeftOrigin="true" height="37.76" width="135.24" x="5.48" y="-42.35"></sliceSourceBounds>
	</sfw>
</metadata>
<path class="st0" d="M137.49,11.18V22.1h-3.78V11.18h-3.23l0.08-3.32h10.09l0.08,3.32H137.49z M126.83,7.17
	c-0.93,0-1.41-0.36-1.41-1.27c0-0.85,0.47-1.31,1.41-1.31c0.97,0,1.41,0.46,1.41,1.31C128.24,6.73,127.8,7.17,126.83,7.17z
	 M123.21,7.17c-0.93,0-1.4-0.36-1.4-1.27c0-0.85,0.47-1.31,1.4-1.31c0.97,0,1.41,0.46,1.41,1.31
	C124.61,6.73,124.17,7.17,123.21,7.17z M122.77,7.85h4.54l4.29,14.25h-4.14l-0.55-2.49h-3.88l-0.55,2.49h-3.86h-0.07h-4.22
	l-1.9-5.09h-1.25v5.09h-3.7V7.85h4.92c3.61,0,5.4,1.37,5.4,4.58c0,1.9-0.68,3.31-1.94,3.84l2.73,5.74L122.77,7.85z M126.23,16.51
	l-0.91-4.08l-0.28-1.52h-0.06l-0.32,1.52l-0.91,4.08H126.23z M112.47,10.93h-1.29v3.29h1.27c1.08,0,1.46-0.27,1.46-1.65
	C113.91,11.27,113.55,10.93,112.47,10.93z M106.05,18.89l-0.08,3.21H96.8V7.85h8.93l0.08,3.27h-5.3v2.2h4.37v2.98h-4.37v2.58H106.05
	z M91.04,22.37c-4.71,0-6.38-2.53-6.38-7.39c0-4.98,1.96-7.37,6.55-7.37c1.25,0,2.68,0.23,3.7,0.63l-0.34,3.17
	c-0.93-0.34-2.13-0.55-3.15-0.55c-2.34,0-2.87,0.87-2.87,4.08c0,3.38,0.55,4.12,2.39,4.12c0.29,0,0.59-0.02,0.85-0.08v-4.65h3.31
	v7.26C94.12,22.06,92.5,22.37,91.04,22.37z M86.04,40.52c0,1.08-0.57,1.81-1.9,1.81c-1.33,0-1.92-0.51-1.92-1.81
	c0-1.16,0.59-1.82,1.92-1.82C85.47,38.7,86.04,39.36,86.04,40.52z M78.59,22.35c-1.5,0-2.98-0.34-4.14-0.99l0.47-3.15
	c1.16,0.59,2.34,0.95,3.57,0.95c1.18,0,1.63-0.4,1.63-1.16c0-1.82-5.66-1.25-5.66-5.91c0-2.49,1.52-4.47,5.03-4.47
	c1.31,0,2.72,0.25,3.74,0.68l-0.42,3.1c-1.08-0.32-2.17-0.51-3.08-0.51c-1.41,0-1.71,0.42-1.71,1.03c0,1.84,5.66,1.22,5.66,5.87
	C83.7,20.6,81.81,22.35,78.59,22.35z M66.04,15.53l-0.8-1.31l-0.04,0.02l0.02,1.54v6.33h-3.27V7.85h3.12l4.58,7.39l0.04-0.02
	l-0.04-1.52l0.02-5.85h3.27V22.1h-2.64L66.04,15.53z M54.43,22.35c-4.1,0-5.97-2.17-5.97-7.37c0-5.22,1.79-7.35,5.97-7.35
	c4.18,0,5.97,2.13,5.97,7.35C60.39,20.33,58.61,22.35,54.43,22.35z M54.41,10.95c-1.56,0-2.05,0.65-2.05,4.03
	c0,3.4,0.51,4.08,2.09,4.08s2.05-0.7,2.05-4.08C56.5,11.58,56.02,10.95,54.41,10.95z M42.93,7.85h3.82V22.1h-3.82V7.85z
	 M36.97,42.35c-3.65,0-5.49-1.75-5.49-5.09v-9.4h3.72v9.33c0,1.27,0.49,1.84,1.77,1.84c1.29,0,1.73-0.53,1.73-1.84v-9.33h3.7v9.4
	C42.4,40.6,40.61,42.35,36.97,42.35z M38.41,22.1h-3.78V11.18H31.4l0.08-3.32h10.09l0.08,3.32h-3.23V22.1z M26.55,39.61h-3.88
	l-0.55,2.49H18.2l4.22-14.25h4.54l4.29,14.25h-4.14L26.55,39.61z M24.96,32.43l-0.29-1.52h-0.06l-0.32,1.52l-0.91,4.08h2.49
	L24.96,32.43z M26.78,22.1l-2.68-5.79h-0.91v5.79h-3.7V7.85h3.7v5.51h0.99l2.64-5.51h4.16l-3.42,6.82l3.59,7.43H26.78z M13.84,19.61
	H9.97L9.42,22.1H5.48L9.7,7.85h4.54l4.29,14.25h-4.14L13.84,19.61z M12.25,12.43l-0.28-1.52h-0.06l-0.32,1.52l-0.91,4.08h2.49
	L12.25,12.43z M10.2,33.36h0.99l2.64-5.51h4.16l-3.42,6.82l3.59,7.43h-4.37l-2.68-5.79H10.2v5.79h-3.7V27.85h3.7V33.36z
	 M53.17,31.18h-5.24v2.51h4.35l-0.02,3.15h-4.33v5.26h-3.72V27.85h8.91L53.17,31.18z M63.43,31.12h-5.3v2.2h4.37v2.98h-4.37v2.58
	h5.55L63.6,42.1h-9.18V27.85h8.93L63.43,31.12z M72.8,35.24l0.04-0.02L72.8,33.7l0.02-5.85h3.27V42.1h-2.64l-4.25-6.57l-0.8-1.31
	l-0.04,0.02l0.02,1.54v6.33h-3.27V27.85h3.12L72.8,35.24z M79.55,38.7c1.33,0,1.9,0.66,1.9,1.82c0,1.08-0.57,1.81-1.9,1.81
	c-1.33,0-1.92-0.51-1.92-1.81C77.63,39.36,78.22,38.7,79.55,38.7z M88.65,38.7c1.33,0,1.9,0.66,1.9,1.82c0,1.08-0.57,1.81-1.9,1.81
	c-1.33,0-1.92-0.51-1.92-1.81C86.73,39.36,87.32,38.7,88.65,38.7z"/>
</svg>
