<?xml version="1.0" encoding="utf-8"?>
<!-- Generator: Adobe Illustrator 23.1.1, SVG Export Plug-In . SVG Version: 6.00 Build 0)  -->
<!DOCTYPE svg PUBLIC "-//W3C//DTD SVG 1.1//EN" "http://www.w3.org/Graphics/SVG/1.1/DTD/svg11.dtd" [
	<!ENTITY ns_extend "http://ns.adobe.com/Extensibility/1.0/">
	<!ENTITY ns_ai "http://ns.adobe.com/AdobeIllustrator/10.0/">
	<!ENTITY ns_graphs "http://ns.adobe.com/Graphs/1.0/">
	<!ENTITY ns_vars "http://ns.adobe.com/Variables/1.0/">
	<!ENTITY ns_imrep "http://ns.adobe.com/ImageReplacement/1.0/">
	<!ENTITY ns_sfw "http://ns.adobe.com/SaveForWeb/1.0/">
	<!ENTITY ns_custom "http://ns.adobe.com/GenericCustomNamespace/1.0/">
	<!ENTITY ns_adobe_xpath "http://ns.adobe.com/XPath/1.0/">
]>
<svg version="1.1" id="Ebene_1" xmlns:x="&ns_extend;" xmlns:i="&ns_ai;" xmlns:graph="&ns_graphs;"
	 xmlns="http://www.w3.org/2000/svg" xmlns:xlink="http://www.w3.org/1999/xlink" x="0px" y="0px" viewBox="0 0 180.52 64.56"
	 style="enable-background:new 0 0 180.52 64.56;" xml:space="preserve">
<style type="text/css">
	.st0{fill-rule:evenodd;clip-rule:evenodd;}
</style>
<metadata>
	<sfw  xmlns="&ns_sfw;">
		<slices></slices>
		<sliceSourceBounds  bottomLeftOrigin="true" height="54.74" width="169.02" x="4.85" y="-59.39"></sliceSourceBounds>
	</sfw>
</metadata>
<path class="st0" d="M168.57,13.26v-2.47h5.3v2.47H168.57z M162.4,19.39c-1.5,0-2.98-0.34-4.14-0.99l0.47-3.15
	c1.16,0.59,2.34,0.95,3.57,0.95c1.18,0,1.63-0.4,1.63-1.16c0-1.82-5.66-1.25-5.66-5.91c0-2.49,1.52-4.46,5.03-4.46
	c1.31,0,2.72,0.25,3.74,0.68l-0.42,3.1c-1.08-0.32-2.16-0.51-3.08-0.51c-1.41,0-1.71,0.42-1.71,1.03c0,1.84,5.66,1.22,5.66,5.87
	C167.51,17.64,165.61,19.39,162.4,19.39z M152.92,19.41c-4.71,0-6.38-2.53-6.38-7.39c0-4.98,1.96-7.37,6.55-7.37
	c1.25,0,2.68,0.23,3.7,0.63l-0.34,3.17c-0.93-0.34-2.13-0.55-3.15-0.55c-2.34,0-2.87,0.87-2.87,4.08c0,3.38,0.55,4.12,2.39,4.12
	c0.29,0,0.59-0.02,0.85-0.08v-4.65h3.31v7.26C155.99,19.11,154.38,19.41,152.92,19.41z M138.08,12.57l-0.8-1.31l-0.04,0.02
	l0.02,1.54v6.33h-3.27V4.9h3.12l4.58,7.39l0.04-0.02l-0.04-1.52l0.02-5.85h3.27v14.25h-2.64L138.08,12.57z M133.9,28.45
	c-1.08-0.32-2.17-0.51-3.08-0.51c-1.41,0-1.71,0.42-1.71,1.03c0,1.84,5.66,1.21,5.66,5.87c0,2.81-1.9,4.56-5.11,4.56
	c-1.5,0-2.98-0.34-4.14-0.99l0.47-3.15c1.16,0.59,2.34,0.95,3.57,0.95c1.18,0,1.63-0.4,1.63-1.16c0-1.82-5.66-1.25-5.66-5.91
	c0-2.49,1.52-4.47,5.03-4.47c1.31,0,2.72,0.25,3.74,0.68L133.9,28.45z M126.75,19.39c-3.65,0-5.49-1.75-5.49-5.09V4.9h3.72v9.33
	c0,1.27,0.49,1.84,1.77,1.84c1.29,0,1.73-0.53,1.73-1.84V4.9h3.7v9.4C132.19,17.64,130.4,19.39,126.75,19.39z M123.85,39.14h-3.82
	V24.9h3.82V39.14z M115.64,19.41c-4.71,0-6.38-2.53-6.38-7.39c0-4.98,1.96-7.37,6.55-7.37c1.25,0,2.68,0.23,3.71,0.63l-0.34,3.17
	c-0.93-0.34-2.13-0.55-3.15-0.55c-2.34,0-2.87,0.87-2.87,4.08c0,3.38,0.55,4.12,2.39,4.12c0.28,0,0.59-0.02,0.85-0.08v-4.65h3.31
	v7.26C118.72,19.11,117.1,19.41,115.64,19.41z M118.74,28.22h-3.23v10.92h-3.78V28.22h-3.23l0.08-3.32h10.09L118.74,28.22z
	 M103.73,4.9h3.82v14.25h-3.82V4.9z M94.74,12.57l-0.8-1.31l-0.04,0.02l0.02,1.54v6.33h-3.27V4.9h3.11l4.58,7.39l0.04-0.02
	l-0.04-1.52l0.02-5.85h3.27v14.25H99L94.74,12.57z M95.8,29.47c0,1.9-0.68,3.31-1.94,3.84l2.73,5.74l4.19-14.15h4.54l4.29,14.25
	h-4.14l-0.55-2.49h-3.88l-0.55,2.49h-3.86h-0.08h-4.22l-1.9-5.09h-1.25v5.09h-3.7V24.9h4.92C94.02,24.9,95.8,26.26,95.8,29.47z
	 M104.24,33.56l-0.91-4.09l-0.28-1.52h-0.06l-0.32,1.52l-0.91,4.09H104.24z M90.48,27.97h-1.29v3.29h1.27
	c1.08,0,1.46-0.27,1.46-1.65C91.93,28.32,91.57,27.97,90.48,27.97z M84.75,4.9h3.82v14.25h-3.82V4.9z M87.81,44.9h3.72v14.25h-3.72
	v-5.58h-3.46v5.58h-3.7V44.9h3.7v5.34h3.46V44.9z M79.73,39.41c-4.71,0-6.38-2.53-6.38-7.39c0-4.98,1.96-7.37,6.55-7.37
	c1.25,0,2.68,0.23,3.7,0.63l-0.34,3.17c-0.93-0.34-2.13-0.55-3.15-0.55c-2.34,0-2.87,0.87-2.87,4.08c0,3.38,0.55,4.12,2.39,4.12
	c0.29,0,0.59-0.02,0.85-0.08v-4.65h3.31v7.26C82.81,39.11,81.19,39.41,79.73,39.41z M83.17,15.93l-0.08,3.21h-9.18V4.9h8.93
	l0.08,3.27h-5.3v2.2h4.37v2.98h-4.37v2.58H83.17z M68.69,19.14l-1.9-5.09h-1.25v5.09h-3.71V4.9h4.92c3.61,0,5.4,1.37,5.4,4.58
	c0,1.9-0.68,3.31-1.94,3.84l2.77,5.83H68.69z M66.83,7.97h-1.29v3.29h1.27c1.08,0,1.46-0.27,1.46-1.65
	C68.27,8.32,67.91,7.97,66.83,7.97z M63.39,35.84h4.85l-0.1,3.31h-8.49V24.9h3.74V35.84z M58.22,35.93l-0.08,3.21h-9.18V24.9h8.93
	l0.08,3.27h-5.3v2.2h4.37v2.98h-4.37v2.58H58.22z M49.98,19.14h-5.15V4.9h5.07c4.33,0,6.1,2.01,6.1,7.05
	C56,17.17,53.99,19.14,49.98,19.14z M49.92,8.18h-1.39v7.71h1.39c1.63,0,2.18-0.49,2.18-3.99C52.1,8.75,51.59,8.18,49.92,8.18z
	 M35.99,12.57l-0.8-1.31l-0.04,0.02l0.02,1.54v6.33h-3.27V4.9h3.11l4.58,7.39l0.04-0.02l-0.04-1.52l0.02-5.85h3.27v14.25h-2.64
	L35.99,12.57z M24.67,19.39c-3.65,0-5.49-1.75-5.49-5.09V4.9h3.72v9.33c0,1.27,0.49,1.84,1.77,1.84c1.29,0,1.73-0.53,1.73-1.84V4.9
	h3.7v9.4C30.1,17.64,28.32,19.39,24.67,19.39z M15.87,19.37c-1.33,0-1.92-0.51-1.92-1.81c0-1.16,0.59-1.82,1.92-1.82
	s1.9,0.66,1.9,1.82C17.77,18.65,17.2,19.37,15.87,19.37z M11.37,19.37c-1.33,0-1.92-0.51-1.92-1.81c0-1.16,0.59-1.82,1.92-1.82
	s1.9,0.66,1.9,1.82C13.27,18.65,12.7,19.37,11.37,19.37z M12.32,33.56h0.06l0.47-1.44l2.55-7.22h4.1v14.25h-3.4v-5.97l0.04-1.54
	l-0.06-0.02l-0.48,1.48l-2.11,6.04h-2.41l-2.09-6.02l-0.48-1.48l-0.04,0.02L8.5,33.2v5.95H5.25V24.9h4.08l2.51,7.2L12.32,33.56z
	 M6.77,19.37c-1.33,0-1.92-0.51-1.92-1.81c0-1.16,0.59-1.82,1.92-1.82c1.33,0,1.9,0.66,1.9,1.82C8.67,18.65,8.1,19.37,6.77,19.37z
	 M16.42,51.94c0,5.22-2.01,7.2-6.02,7.2H5.25V44.9h5.07C14.66,44.9,16.42,46.91,16.42,51.94z M8.96,55.9h1.39
	c1.63,0,2.18-0.49,2.18-3.99c0-3.15-0.51-3.72-2.18-3.72H8.96V55.9z M21.59,24.9h3.82v14.25h-3.82V24.9z M25.2,44.9l4.29,14.25
	h-4.14l-0.55-2.49h-3.88l-0.55,2.49h-3.93l4.22-14.25H25.2z M24.12,53.56l-0.91-4.08l-0.28-1.52h-0.06l-0.32,1.52l-0.91,4.08H24.12z
	 M26.78,24.9h10.09l0.08,3.32h-3.23v10.92h-3.78V28.22H26.7L26.78,24.9z M35.31,48.26l-0.02-0.04h-5.24l0.09-3.33h9.52v2.66
	l-4.39,6.99l-0.84,1.23l0.02,0.06h5.24l-0.06,3.3h-9.71v-2.41l4.54-7.22L35.31,48.26z M37.67,24.9h10.09l0.08,3.32H44.6v10.92h-3.78
	V28.22h-3.23L37.67,24.9z M44.6,54.22c0,1.27,0.49,1.84,1.77,1.84c1.29,0,1.73-0.53,1.73-1.84V44.9h3.7v9.4
	c0,3.34-1.79,5.09-5.43,5.09c-3.65,0-5.49-1.75-5.49-5.09v-9.4h3.72V54.22z M66.89,48.16h-5.3v2.2h4.37v2.98h-4.37v2.58h5.55
	l-0.08,3.21h-9.18V44.9h8.93L66.89,48.16z M78.88,49.47c0,1.9-0.68,3.31-1.94,3.84l2.77,5.83h-4.29l-1.9-5.09h-1.25v5.09h-3.71V44.9
	h4.92C77.09,44.9,78.88,46.26,78.88,49.47z M72.26,51.26h1.27c1.08,0,1.46-0.27,1.46-1.65c0-1.29-0.36-1.63-1.44-1.63h-1.29V51.26z
	 M101.2,44.9l4.29,14.25h-4.14l-0.55-2.49h-3.88l-0.55,2.49h-3.93l4.22-14.25H101.2z M100.12,53.56l-0.91-4.08l-0.28-1.52h-0.06
	l-0.32,1.52l-0.91,4.08H100.12z M110.19,55.84h4.85l-0.1,3.3h-8.49V44.9h3.74V55.84z M113.89,44.9h10.09l0.08,3.33h-3.23v10.92
	h-3.78V48.22h-3.23L113.89,44.9z M134.2,48.16h-5.3v2.2h4.37v2.98h-4.37v2.58h5.55l-0.08,3.21h-9.18V44.9h8.93L134.2,48.16z
	 M143.57,52.29l0.04-0.02l-0.04-1.52l0.02-5.85h3.27v14.25h-2.64l-4.26-6.57l-0.8-1.31l-0.04,0.02l0.02,1.54v6.33h-3.27V44.9h3.12
	L143.57,52.29z M150.32,55.74c1.33,0,1.9,0.66,1.9,1.82c0,1.08-0.57,1.81-1.9,1.81s-1.92-0.51-1.92-1.81
	C148.4,56.41,148.99,55.74,150.32,55.74z"/>
</svg>
