<svg enable-background="new 0 0 128 35" viewBox="0 0 128 35" xmlns="http://www.w3.org/2000/svg"><path d="m0 0h128v35h-128z" fill="#238c96"/><g fill="#fff"><path d="m21.67 11.49 2.11 6.07.4 1.23h.05l.4-1.22 2.15-6.08h3.46v12h-2.87v-5.03l.03-1.3-.05-.02-.4 1.25-1.78 5.09h-2.03l-1.76-5.07-.4-1.25-.03.02.02 1.3v5.01h-2.74v-12z"/><path d="m39.82 20.79-.06 2.71h-7.73v-12h7.52l.06 2.75h-4.46v1.86h3.68v2.51h-3.68v2.18h4.67z"/><path d="m47.21 23.49v-4.71h-2.91v4.71h-3.12v-12h3.12v4.5h2.91v-4.5h3.14v12z"/><path d="m59.18 18.58 2.34 4.91h-3.62l-1.6-4.29h-1.06v4.29h-3.12v-12h4.14c3.04 0 4.55 1.15 4.55 3.86 0 1.6-.58 2.78-1.63 3.23zm-2.85-4.5h-1.09v2.77h1.07c.91 0 1.23-.22 1.23-1.39.01-1.09-.3-1.38-1.21-1.38z"/><path d="m66.34 11.49h3.22v12h-3.22z"/><path d="m78.51 23.49-3.58-5.54-.67-1.1-.03.02.02 1.3v5.33h-2.75v-12h2.62l3.86 6.23.03-.02-.03-1.28.02-4.93h2.75v12h-2.24z"/><path d="m85.66 14.29v2.11h3.67l-.02 2.66h-3.65v4.43h-3.14v-12h7.51l.05 2.8z"/><path d="m95.9 23.7c-3.46 0-5.03-1.82-5.03-6.21 0-4.4 1.51-6.19 5.03-6.19s5.03 1.79 5.03 6.19c-.01 4.52-1.51 6.21-5.03 6.21zm-.02-9.6c-1.31 0-1.73.54-1.73 3.39 0 2.87.43 3.44 1.76 3.44s1.73-.59 1.73-3.44c0-2.86-.4-3.39-1.76-3.39z"/><path d="m105.46 23.7c-1.26 0-2.51-.29-3.49-.83l.4-2.66c.98.5 1.97.8 3.01.8.99 0 1.38-.34 1.38-.98 0-1.54-4.77-1.06-4.77-4.98 0-2.1 1.28-3.76 4.24-3.76 1.11 0 2.29.21 3.15.58l-.35 2.61c-.91-.27-1.83-.43-2.59-.43-1.18 0-1.44.35-1.44.86 0 1.55 4.77 1.02 4.77 4.95 0 2.37-1.6 3.84-4.31 3.84z"/></g></svg>