<?xml version="1.0" encoding="utf-8"?>
<!-- Generator: Adobe Illustrator 23.1.1, SVG Export Plug-In . SVG Version: 6.00 Build 0)  -->
<svg version="1.1" id="Ebene_1" xmlns="http://www.w3.org/2000/svg" xmlns:xlink="http://www.w3.org/1999/xlink" x="0px" y="0px"
	 viewBox="0 0 518.94 372.04" style="enable-background:new 0 0 518.94 372.04;" xml:space="preserve">
<style type="text/css">
	.st0{fill-rule:evenodd;clip-rule:evenodd;}
</style>
<path class="st0" d="M473.03,74.88v-9.1h19.53v9.1H473.03z M447.34,97.49c-13.44,0-20.23-6.44-20.23-18.76V44.08h13.72v34.37
	c0,4.69,1.82,6.79,6.51,6.79c4.76,0,6.37-1.96,6.37-6.79V44.08h13.65v34.65C467.37,91.05,460.79,97.49,447.34,97.49z M422.36,84.75
	l-0.28,11.83h-33.81V44.08h32.9l0.28,12.04h-19.53v8.12h16.1v10.99h-16.1v9.52H422.36z M355.71,72.36l-2.94-4.83l-0.14,0.07
	l0.07,5.67v23.31h-12.04V44.08h11.48l16.87,27.23l0.14-0.07l-0.14-5.6l0.07-21.56h12.04v52.51h-9.73L355.71,72.36z M369.72,130.12
	h-19.53v8.12h16.1v10.99h-16.1v9.52h20.44l-0.28,11.83h-33.81v-52.51h32.9L369.72,130.12z M324.57,96.58h-13.93V56.33h-11.9
	l0.28-12.25h37.17l0.28,12.25h-11.9V96.58z M302.87,96.58h-31.29V44.08h13.79V84.4h17.85L302.87,96.58z M241.33,146.36l-2.94-4.83
	l-0.14,0.07l0.07,5.67v23.31h-12.04v-52.51h11.48l16.87,27.23l0.14-0.07l-0.14-5.6l0.07-21.56h12.04v52.51h-9.73L241.33,146.36z
	 M266.33,84.75l-0.28,11.83h-33.81V44.08h32.9l0.28,12.04h-19.53v8.12h16.1v10.99h-16.1v9.52H266.33z M200.6,96.58l-4.9-31.85
	l-0.7-5.67h-0.21l-0.77,5.67l-4.83,31.85h-16.38l-10.99-52.51h14.28l4.62,33.11l0.7,5.6h0.21l0.77-5.6l5.46-33.11h14.56l5.53,32.83
	l0.84,5.6H209l0.63-5.6l4.69-32.83h13.65l-10.99,52.51H200.6z M184.01,130.33h-11.9v40.25h-13.93v-40.25h-11.9l0.28-12.25h37.17
	L184.01,130.33z M143.69,84.75l-0.28,11.83H109.6V44.08h32.9l0.28,12.04h-19.53v8.12h16.1v10.99h-16.1v9.52H143.69z M87.83,44.08
	h14.07v52.51H87.83V44.08z M120.73,130.12H101.2v8.12h16.1v10.99h-16.1v9.52h20.44l-0.28,11.83H87.55v-52.51h32.9L120.73,130.12z
	 M59.34,96.58H40.37V44.08h18.69c15.96,0,22.47,7.42,22.47,25.97C81.53,89.3,74.11,96.58,59.34,96.58z M59.13,56.19h-5.11v28.42
	h5.11c6.02,0,8.05-1.82,8.05-14.7C67.18,58.29,65.29,56.19,59.13,56.19z M75.16,204.33h-11.9v40.25H49.33v-40.25h-11.9l0.28-12.25
	h37.17L75.16,204.33z M78.38,282.95c0,7-2.52,12.18-7.14,14.14l10.22,21.49H65.64l-7-18.76h-4.62v18.76H40.37v-52.51H58.5
	C71.8,266.08,78.38,271.12,78.38,282.95z M54.02,289.53h4.69c3.99,0,5.39-0.98,5.39-6.09c0-4.76-1.33-6.02-5.32-6.02h-4.76V289.53z
	 M118.07,278.12H98.54v8.12h16.1v10.99h-16.1v9.52h20.44l-0.28,11.83H84.89v-52.51h32.9L118.07,278.12z M80.48,118.08v52.51H66.76
	V150H54.02v20.58H40.37v-52.51h13.65v19.67h12.74v-19.67H80.48z M104.63,244.58l-7-18.76h-4.62v18.76H79.36v-52.51h18.13
	c13.3,0,19.88,5.04,19.88,16.87c0,7-2.52,12.18-7.14,14.14l10.22,21.49H104.63z M97.77,203.42h-4.76v12.11h4.69
	c3.99,0,5.39-0.98,5.39-6.09C103.09,204.68,101.76,203.42,97.77,203.42z M127.45,118.08h14.07v52.51h-14.07V118.08z M143.41,191.24
	c15.4,0,21.98,7.84,21.98,27.09c0,19.74-6.58,27.16-21.98,27.16c-15.12,0-21.98-7.98-21.98-27.16
	C121.43,199.08,128.01,191.24,143.41,191.24z M143.48,233.38c5.81,0,7.56-2.59,7.56-15.05c0-12.53-1.75-14.84-7.7-14.84
	c-5.74,0-7.56,2.38-7.56,14.84C135.78,230.86,137.67,233.38,143.48,233.38z M138.86,318.58h-14.07v-52.51h14.07V318.58z
	 M174.91,293.31l0.14-0.07l-0.14-5.6l0.07-21.56h12.04v52.51h-9.73l-15.68-24.22l-2.94-4.83l-0.14,0.07l0.07,5.67v23.31h-12.04
	v-52.51h11.48L174.91,293.31z M169.72,218.05c0-17.64,7.07-26.88,23.1-26.88c3.71,0,8.26,0.84,11.06,1.96l-1.33,11.62
	c-2.31-0.84-5.46-1.4-8.75-1.4c-7.77,0-9.73,3.29-9.73,14.77c0,12.11,2.17,15.47,9.94,15.47c3.22,0,6.23-0.63,8.68-1.75l1.26,11.13
	c-3.15,1.54-7.91,2.52-11.97,2.52C177.01,245.49,169.72,236.95,169.72,218.05z M208.79,318.58h-14.07v-52.51h14.07V318.58z
	 M204.51,118.08h14.07v52.51h-14.07V118.08z M222.64,212.38h3.64l9.73-20.3h15.33l-12.6,25.13l13.23,27.37h-16.1l-9.87-21.35h-3.36
	v21.35h-13.65v-52.51h13.65V212.38z M239.24,265.17c4.62,0,9.87,0.84,13.65,2.31l-1.26,11.69c-3.43-1.26-7.84-2.03-11.62-2.03
	c-8.61,0-10.57,3.22-10.57,15.05c0,12.46,2.03,15.19,8.82,15.19c1.05,0,2.17-0.07,3.15-0.28v-17.15h12.18v26.74
	c-3.64,1.75-9.59,2.87-14.98,2.87c-17.36,0-23.52-9.31-23.52-27.23C215.08,273.99,222.29,265.17,239.24,265.17z M289.01,204.12
	h-19.53v8.12h16.1v10.99h-16.1v9.52h20.44l-0.28,11.83h-33.81v-52.51h32.9L289.01,204.12z M273.04,300.45
	c0,4.69,1.82,6.79,6.51,6.79c4.76,0,6.37-1.96,6.37-6.79v-34.37h13.65v34.65c0,12.32-6.58,18.76-20.02,18.76
	s-20.23-6.44-20.23-18.76v-34.65h13.72V300.45z M308.6,170.58h-18.97v-52.51h18.69c15.96,0,22.47,7.42,22.47,25.97
	C330.8,163.3,323.38,170.58,308.6,170.58z M308.39,130.19h-5.11v28.42h5.11c6.02,0,8.05-1.82,8.05-14.7
	C316.44,132.29,314.55,130.19,308.39,130.19z M335.63,244.58h-9.73l-15.68-24.22l-2.94-4.83l-0.14,0.07l0.07,5.67v23.31h-12.04
	v-52.51h11.48l16.87,27.23l0.14-0.07l-0.14-5.6l0.07-21.56h12.04V244.58z M334.57,293.31l0.14-0.07l-0.14-5.6l0.07-21.56h12.04
	v52.51h-9.73l-15.68-24.22l-2.94-4.83l-0.14,0.07l0.07,5.67v23.31h-12.04v-52.51h11.48L334.57,293.31z M376.57,265.17
	c4.62,0,9.87,0.84,13.65,2.31l-1.26,11.69c-3.43-1.26-7.84-2.03-11.62-2.03c-8.61,0-10.57,3.22-10.57,15.05
	c0,12.46,2.03,15.19,8.82,15.19c1.05,0,2.17-0.07,3.15-0.28v-17.15h12.18v26.74c-3.64,1.75-9.59,2.87-14.98,2.87
	c-17.36,0-23.52-9.31-23.52-27.23C352.42,273.99,359.63,265.17,376.57,265.17z M402.75,306.05c4.9,0,7,2.45,7,6.72
	c0,3.99-2.1,6.65-7,6.65c-4.9,0-7.07-1.89-7.07-6.65C395.68,308.5,397.85,306.05,402.75,306.05z M396.73,244.58h-14.07v-52.51h14.07
	V244.58z M376.86,232.75l-0.28,11.83h-33.81v-52.51h32.9l0.28,12.04h-19.53v8.12h16.1v10.99h-16.1v9.52H376.86z M401.14,170.58
	l-7-18.76h-4.62v18.76h-13.65v-52.51H394c13.3,0,19.88,5.04,19.88,16.87c0,7-2.52,12.18-7.14,14.14l10.22,21.49H401.14z
	 M394.28,129.42h-4.76v12.11h4.69c3.99,0,5.39-0.98,5.39-6.09C399.6,130.68,398.27,129.42,394.28,129.42z M404.64,230.23
	c4.27,2.17,8.61,3.5,13.16,3.5c4.34,0,6.02-1.47,6.02-4.27c0-6.72-20.86-4.62-20.86-21.77c0-9.17,5.6-16.45,18.55-16.45
	c4.83,0,10.01,0.91,13.79,2.52l-1.54,11.41c-3.99-1.19-7.98-1.89-11.34-1.89c-5.18,0-6.3,1.54-6.3,3.78
	c0,6.79,20.86,4.48,20.86,21.63c0,10.36-7,16.8-18.83,16.8c-5.53,0-10.99-1.26-15.26-3.64L404.64,230.23z M460.43,222.88H440.9v-9.1
	h19.53V222.88z"/>
</svg>
