<?xml version="1.0" encoding="utf-8"?>
<!-- Generator: Adobe Illustrator 16.0.0, SVG Export Plug-In . SVG Version: 6.00 Build 0)  -->
<!DOCTYPE svg PUBLIC "-//W3C//DTD SVG 1.1//EN" "http://www.w3.org/Graphics/SVG/1.1/DTD/svg11.dtd">
<svg version="1.1" id="Ebene_1" xmlns="http://www.w3.org/2000/svg" xmlns:xlink="http://www.w3.org/1999/xlink" x="0px" y="0px"
	 width="114.5px" height="138.1px" viewBox="0 0 114.5 138.1" enable-background="new 0 0 114.5 138.1" xml:space="preserve">
<g>
	<g>
		<path fill="#1A1A18" d="M14.1,8.9c0-6.2-2.2-8.7-7.6-8.7H0.3v17.5h6.4C11.6,17.8,14.1,15.4,14.1,8.9z M4.9,13.8V4.3h1.7
			c2.1,0,2.7,0.7,2.7,4.6c0,4.3-0.7,4.9-2.7,4.9H4.9z M21,0.3h-4.7v17.5H21V0.3z M35,13.8h-6.9v-3.2h5.4V7h-5.4V4.3h6.6l-0.1-4H23.5
			v17.5h11.4L35,13.8z M46.4,14.7h4.8l0.7,3.1H57L51.7,0.3H46l-5.2,17.5h4.9L46.4,14.7z M48.4,5.9L48.8,4h0.1l0.4,1.9l1.1,5h-3.1
			L48.4,5.9z M68.8,13.7h-6V0.3h-4.6v17.5h10.5L68.8,13.7z M80.9,13.7h-6V0.3h-4.6v17.5h10.5L80.9,13.7z M93.9,13.8H87v-3.2h5.4V7
			H87V4.3h6.6l-0.1-4H82.4v17.5h11.4L93.9,13.8z M99.6,5.3c0-0.7,0.4-1.3,2.1-1.3c1.1,0,2.5,0.2,3.8,0.6l0.5-3.8
			c-1.3-0.5-3-0.8-4.6-0.8c-4.4,0-6.2,2.4-6.2,5.5c0,5.7,7,5,7,7.3c0,0.9-0.6,1.4-2,1.4c-1.5,0-3-0.4-4.4-1.2l-0.6,3.9
			c1.4,0.8,3.3,1.2,5.1,1.2c4,0,6.3-2.1,6.3-5.6C106.6,6.8,99.6,7.5,99.6,5.3z M107.9,7.5v3h6.6v-3H107.9z M4.9,38.7H6l3.3,7.1h5.4
			l-4.4-9.1l4.2-8.4H9.3l-3.3,6.8H4.9v-6.8H0.3v17.5h4.6V38.7z M18,25.9c0,1.1,0.6,1.6,1.7,1.6c1.2,0,1.7-0.5,1.7-1.6
			c0-1.1-0.5-1.6-1.7-1.6C18.6,24.3,18,24.8,18,25.9z M22,46.1c5.2,0,7.4-2.5,7.4-9.1c0-6.4-2.2-9-7.4-9s-7.4,2.6-7.4,9
			C14.6,43.5,16.9,46.1,22,46.1z M21.9,32.1c2,0,2.6,0.8,2.6,5c0,4.2-0.6,5-2.5,5c-2,0-2.6-0.8-2.6-5C19.4,32.9,20,32.1,21.9,32.1z
			 M24.2,27.5c1.2,0,1.7-0.5,1.7-1.6c0-1.1-0.5-1.6-1.7-1.6c-1.2,0-1.7,0.6-1.7,1.6C22.5,27,23.1,27.5,24.2,27.5z M31.3,45.8h4V38
			l0-1.9l0,0l1,1.6l5.3,8.1h3.3V28.3h-4l0,7.2l0,1.9l0,0l-5.7-9.1h-3.9V45.8z M60.9,45.8V28.3h-4l0,7.2l0,1.9l0,0l-5.7-9.1h-3.9
			v17.5h4V38l0-1.9l0,0l1,1.6l5.3,8.1H60.9z M74.4,32.3l-0.1-4H63.3v17.5h11.4l0.1-3.9h-6.9v-3.2h5.4V35h-5.4v-2.7H74.4z M81.1,39.6
			h1.6l2.4,6.3h5.3l-3.4-7.2c1.6-0.7,2.4-2.4,2.4-4.7c0-3.9-2.2-5.6-6.7-5.6h-6.1v17.5h4.6V39.6z M81.1,32.1h1.6
			c1.3,0,1.8,0.4,1.8,2c0,1.7-0.5,2-1.8,2h-1.6V32.1z M93.4,41.6c-1.6,0-2.4,0.8-2.4,2.2c0,1.6,0.7,2.2,2.4,2.2s2.4-0.9,2.4-2.2
			C95.7,42.5,95,41.6,93.4,41.6z M3.4,71.1c-1.3,0-2.3-0.3-3.2-0.9l-0.2,1c0.9,0.6,2,0.9,3.4,0.9c2.6,0,3.9-1.3,3.9-3.5
			c0-4.1-6.2-2.7-6.2-5.8c0-1.1,0.8-2.1,2.8-2.1c1,0,1.9,0.2,2.9,0.6L7,60.3c-0.9-0.4-1.9-0.6-3.1-0.6c-2.6,0-3.8,1.4-3.8,3.2
			c0,4,6.2,2.5,6.2,5.8C6.3,70.1,5.4,71.1,3.4,71.1z M13.2,63.2c0.8,0,1.5,0.2,2.1,0.5l0.1-0.9c-0.6-0.3-1.5-0.5-2.4-0.5
			c-2.7,0-3.9,1.6-3.9,4.8c0,3.6,1.3,5,3.9,5c1,0,1.9-0.3,2.5-0.7l-0.1-0.8c-0.6,0.4-1.4,0.7-2.2,0.7c-2,0-3.1-1.1-3.1-4.1
			C10.1,64.3,10.9,63.2,13.2,63.2z M24.9,71.8v-6.4c0-2.1-1.1-3.2-3.2-3.2c-1.2,0-2.2,0.4-2.8,1.2l0,0l0-1.3V59l-1,0.1v12.7h1v-7.4
			c0.4-0.7,1.4-1.3,2.6-1.3c1.7,0,2.5,0.8,2.5,2.3v6.4H24.9z M34.6,66.6c0-3.1-1.5-4.4-3.6-4.4c-2.5,0-3.8,1.6-3.8,4.6
			c0,3.6,1.2,5.2,4.2,5.2c1.1,0,2-0.3,2.9-0.7l-0.1-0.8c-0.8,0.4-1.6,0.7-2.6,0.7c-2.3,0-3.3-1-3.3-4h6.4
			C34.6,66.9,34.6,66.7,34.6,66.6z M28.2,66.4c0.1-2.2,0.9-3.3,2.8-3.3c1.6,0,2.7,0.9,2.7,3.3H28.2z M43.9,68.9v-6.5h-1v6.4
			c0,1.5-0.9,2.3-2.6,2.3s-2.5-0.8-2.5-2.3v-6.4h-1v6.5c0,2,1.1,3.2,3.5,3.2C42.7,72,43.9,70.8,43.9,68.9z M53.6,66.6
			c0-3.1-1.5-4.4-3.6-4.4c-2.5,0-3.8,1.6-3.8,4.6c0,3.6,1.2,5.2,4.2,5.2c1.1,0,2-0.3,2.9-0.7l-0.1-0.8c-0.8,0.4-1.6,0.7-2.6,0.7
			c-2.3,0-3.3-1-3.3-4h6.4C53.6,66.9,53.6,66.7,53.6,66.6z M47.1,66.4c0.1-2.2,0.9-3.3,2.8-3.3c1.6,0,2.7,0.9,2.7,3.3H47.1z
			 M56.9,64.7L56.9,64.7l-0.1-1.3l0-1.1L56,62.4v9.4h1V67c0-2.3,1.4-3.8,3-3.8c0.3,0,0.6,0,0.9,0.1l0.1-1c-0.3-0.1-0.6-0.1-0.9-0.1
			C58.6,62.3,57.5,63.3,56.9,64.7z M68.6,69.2c0-3.3-5.1-2.2-5.1-4.5c0-1,0.9-1.6,2.2-1.6c0.8,0,1.6,0.2,2.4,0.5l0.1-0.8
			c-0.8-0.4-1.6-0.5-2.5-0.5c-2,0-3.2,0.9-3.2,2.5c0,3.1,5.1,2,5.1,4.6c0,1.1-0.7,1.9-2.3,1.9c-1,0-2-0.3-2.7-0.9l-0.2,0.9
			c0.7,0.6,1.8,0.9,2.9,0.9C67.6,72,68.6,70.9,68.6,69.2z M76.3,70.5L76.3,70.5l0.2,1.3h0.7v-6.2c0-2.4-0.9-3.4-3.3-3.4
			c-1.1,0-2.1,0.2-3,0.6l0.1,0.8c0.8-0.4,1.7-0.6,2.7-0.6c1.7,0,2.4,0.6,2.4,2.4v1.2c-0.6-0.2-1.5-0.4-2.4-0.4c-2.3,0-3.4,1-3.4,2.8
			c0,2.1,1.2,3,2.9,3C74.7,72,75.8,71.4,76.3,70.5z M71.4,69c0-1.3,0.8-2.1,2.6-2.1c1.1,0,2,0.3,2.2,0.4v1.9c0,0.9-1.2,1.9-2.6,1.9
			C72.3,71.2,71.4,70.6,71.4,69z M86.9,68.9v-6.5h-1v6.4c0,1.5-0.9,2.3-2.6,2.3c-1.7,0-2.5-0.8-2.5-2.3v-6.4h-1v6.5
			c0,2,1.1,3.2,3.5,3.2C85.8,72,86.9,70.8,86.9,68.9z M96.7,62.2l-1.5,0.7c-0.6-0.5-1.5-0.7-2.3-0.7c-2.3,0-3.2,1-3.2,2.8
			c0,1.2,0.5,1.9,1.2,2.2c-0.8,0.3-1.2,0.8-1.2,1.4c0,0.6,0.4,1.1,0.9,1.3c-0.7,0.5-1,1.2-1,1.9c0,1.5,1,2.5,3.5,2.5
			c2.9,0,3.9-1.1,3.9-2.7c0-1.2-0.7-2-3-2.2l-2.2-0.2c-0.8-0.1-1.1-0.4-1.1-0.8c0-0.4,0.3-0.7,1-0.9c0.4,0.1,0.9,0.2,1.4,0.2
			c2.4,0,3.2-1,3.2-2.7c0-0.6-0.1-1.1-0.3-1.5l1.2-0.8L96.7,62.2z M91.3,70l2.3,0.2c1.8,0.2,2.3,0.6,2.3,1.4c0,1.1-0.6,1.8-3,1.8
			c-1.9,0-2.6-0.7-2.6-1.8C90.3,71.1,90.6,70.5,91.3,70z M92.8,67c-1.3,0-2.2-0.4-2.2-1.9c0-1.3,0.6-2,2.3-2c1.6,0,2.3,0.5,2.3,2
			C95.1,66.3,94.6,67,92.8,67z M98.4,66.8h4.1V66h-4.1V66.8z M1.6,86.5C2,85.7,3,85.2,3.9,85.2c1.2,0,2.2,0.6,2.2,2v6.6h1v-6.6
			c0-1.3,1-2,2.2-2c1.4,0,2.3,0.7,2.3,2.2v6.4h1v-6.4c0-2.2-1.2-3.2-3-3.2c-1.2,0-2.2,0.5-2.7,1.6h0c-0.4-1-1.3-1.6-2.6-1.6
			c-1,0-2,0.5-2.5,1.2h0l-0.2-1.2l-0.7,0.1v9.4h1V86.5z M21.6,93.9v-6.2c0-2.4-0.9-3.4-3.3-3.4c-1.1,0-2.1,0.2-3,0.6l0.1,0.8
			c0.8-0.4,1.7-0.6,2.7-0.6c1.7,0,2.4,0.6,2.4,2.4v1.2c-0.6-0.2-1.5-0.4-2.4-0.4c-2.3,0-3.4,1-3.4,2.8c0,2.1,1.2,3,2.9,3
			c1.3,0,2.5-0.6,3-1.5l0,0l0.1,1.3H21.6z M20.6,91.3c0,0.9-1.2,1.9-2.6,1.9c-1.3,0-2.2-0.5-2.2-2.1c0-1.3,0.8-2.1,2.6-2.1
			c1.1,0,2,0.3,2.2,0.4V91.3z M24.9,86.7c0-1,0.9-1.6,2.2-1.6c0.8,0,1.6,0.2,2.4,0.5l0.1-0.8c-0.8-0.4-1.6-0.5-2.5-0.5
			c-2,0-3.2,0.9-3.2,2.5c0,3.1,5.1,2,5.1,4.6c0,1.1-0.7,1.9-2.3,1.9c-1,0-2-0.3-2.7-0.9L24,93.2c0.7,0.6,1.8,0.9,2.9,0.9
			c2.2,0,3.2-1.1,3.2-2.8C30.1,87.9,24.9,89,24.9,86.7z M35.7,94.1c1,0,1.9-0.3,2.5-0.7l-0.1-0.8c-0.6,0.4-1.4,0.7-2.2,0.7
			c-2,0-3.1-1.1-3.1-4.1c0-2.7,0.9-3.8,3.1-3.8c0.8,0,1.5,0.2,2.1,0.5l0.1-0.9c-0.6-0.3-1.5-0.5-2.4-0.5c-2.7,0-3.9,1.6-3.9,4.8
			C31.8,92.6,33.1,94.1,35.7,94.1z M47.6,93.9v-6.4c0-2.1-1.1-3.2-3.2-3.2c-1.2,0-2.2,0.4-2.8,1.2l0,0l0-1.3v-3.1l-1,0.1v12.7h1
			v-7.4c0.4-0.7,1.4-1.3,2.6-1.3c1.7,0,2.5,0.8,2.5,2.3v6.4H47.6z M52.2,81.8c0-0.4-0.3-0.7-0.8-0.7s-0.8,0.2-0.8,0.7
			c0,0.5,0.3,0.7,0.8,0.7S52.2,82.3,52.2,81.8z M51,93.9h1v-9.5l-1,0.1V93.9z M62.5,93.9v-6.4c0-2.2-1.2-3.2-3.2-3.2
			c-1.1,0-2.2,0.5-2.9,1.2h0l-0.2-1.1l-0.7,0.1v9.4h1v-7.4c0.5-0.8,1.7-1.3,2.6-1.3c1.6,0,2.5,0.7,2.5,2.3v6.4H62.5z M72.2,88.6
			c0-3.1-1.5-4.4-3.6-4.4c-2.5,0-3.8,1.6-3.8,4.6c0,3.6,1.2,5.2,4.2,5.2c1.1,0,2-0.3,2.9-0.7l-0.1-0.8c-0.8,0.4-1.6,0.7-2.6,0.7
			c-2.3,0-3.3-1-3.3-4h6.4C72.2,89,72.2,88.8,72.2,88.6z M65.8,88.4c0.1-2.2,0.9-3.3,2.8-3.3c1.6,0,2.7,0.9,2.7,3.3H65.8z
			 M78.4,84.3c-1.1,0-2.2,0.5-2.9,1.2h0l-0.2-1.1l-0.7,0.1v9.4h1v-7.4c0.5-0.8,1.7-1.3,2.6-1.3c1.6,0,2.5,0.7,2.5,2.3v6.4h1v-6.4
			C81.7,85.3,80.5,84.3,78.4,84.3z M98.5,84.3c-1.2,0-2.2,0.5-2.7,1.6h0c-0.4-1-1.3-1.6-2.6-1.6c-1,0-2,0.5-2.5,1.2h0l-0.2-1.2
			l-0.7,0.1v9.4h1v-7.4c0.5-0.8,1.4-1.3,2.3-1.3c1.2,0,2.2,0.6,2.2,2v6.6h1v-6.6c0-1.3,1-2,2.2-2c1.4,0,2.3,0.7,2.3,2.2v6.4h1v-6.4
			C101.6,85.3,100.3,84.3,98.5,84.3z M104.9,93.9h1v-9.5l-1,0.1V93.9z M105.4,81.1c-0.5,0-0.8,0.2-0.8,0.7c0,0.5,0.3,0.7,0.8,0.7
			s0.8-0.2,0.8-0.7C106.2,81.4,105.9,81.1,105.4,81.1z M111,81.8l-0.8,0.1l-0.2,2.5h-1.5v0.8h1.5v6.4c0,1.6,0.8,2.4,2.3,2.4
			c0.4,0,0.9-0.1,1.1-0.2l-0.1-0.8c-0.2,0.1-0.5,0.1-0.8,0.1c-1,0-1.5-0.4-1.5-1.6v-6.4h2.5v-0.8H111V81.8z M1,115.9h1v-9.5l-1,0.1
			V115.9z M1.5,104.5c0.5,0,0.8-0.2,0.8-0.7c0-0.4-0.3-0.7-0.8-0.7s-0.8,0.2-0.8,0.7C0.8,104.3,1.1,104.5,1.5,104.5z M12.6,115.9
			v-6.4c0-2.2-1.2-3.2-3.2-3.2c-1.1,0-2.2,0.5-2.9,1.2h0l-0.2-1.1l-0.7,0.1v9.4h1v-7.4c0.5-0.8,1.7-1.3,2.6-1.3
			c1.6,0,2.5,0.7,2.5,2.3v6.4H12.6z M17.1,103.9l-0.8,0.1l-0.2,2.5h-1.5v0.8h1.5v6.4c0,1.6,0.8,2.4,2.3,2.4c0.4,0,0.9-0.1,1.1-0.2
			l-0.1-0.8c-0.2,0.1-0.5,0.1-0.8,0.1c-1,0-1.5-0.4-1.5-1.6v-6.4h2.5v-0.8h-2.5V103.9z M24.8,106.3c-2.5,0-3.8,1.6-3.8,4.6
			c0,3.6,1.2,5.2,4.2,5.2c1.1,0,2-0.3,2.9-0.7l-0.1-0.8c-0.8,0.4-1.6,0.7-2.6,0.7c-2.3,0-3.3-1-3.3-4h6.4c0-0.1,0-0.3,0-0.5
			C28.4,107.6,26.9,106.3,24.8,106.3z M22,110.4c0.1-2.2,0.9-3.3,2.8-3.3c1.6,0,2.7,0.9,2.7,3.3H22z M34.7,113.4l-2.2-0.2
			c-0.8-0.1-1.1-0.4-1.1-0.8c0-0.4,0.3-0.7,1-0.9c0.4,0.1,0.9,0.2,1.4,0.2c2.4,0,3.2-1,3.2-2.7c0-0.6-0.1-1.1-0.3-1.5l1.2-0.8
			l-0.2-0.5l-1.5,0.7c-0.6-0.5-1.5-0.7-2.3-0.7c-2.3,0-3.2,1-3.2,2.8c0,1.2,0.5,1.9,1.2,2.2c-0.8,0.3-1.2,0.8-1.2,1.4
			c0,0.6,0.4,1.1,0.9,1.3c-0.7,0.5-1,1.2-1,1.9c0,1.5,1,2.5,3.5,2.5c2.9,0,3.9-1.1,3.9-2.7C37.8,114.4,37.1,113.7,34.7,113.4z
			 M31.6,109.1c0-1.3,0.6-2,2.3-2c1.6,0,2.3,0.5,2.3,2c0,1.3-0.5,1.9-2.3,1.9C32.5,111,31.6,110.6,31.6,109.1z M33.9,117.5
			c-1.9,0-2.6-0.7-2.6-1.8c0-0.6,0.4-1.2,1-1.6l2.3,0.2c1.8,0.2,2.3,0.6,2.3,1.4C36.9,116.8,36.2,117.5,33.9,117.5z M44.8,106.4
			c-0.3-0.1-0.6-0.1-0.9-0.1c-1.4,0-2.5,1-3.1,2.5h0l0-1.3l0-1.1l-0.8,0.1v9.4h1v-4.8c0-2.3,1.4-3.8,3-3.8c0.3,0,0.6,0,0.9,0.1
			L44.8,106.4z M48.7,103.8c0-0.4-0.3-0.7-0.8-0.7c-0.5,0-0.8,0.2-0.8,0.7c0,0.5,0.3,0.7,0.8,0.7C48.4,104.5,48.7,104.3,48.7,103.8z
			 M47.4,115.9h1v-9.5l-1,0.1V115.9z M58.4,115.3l-0.1-0.8c-0.8,0.4-1.6,0.7-2.6,0.7c-2.3,0-3.3-1-3.3-4h6.4c0-0.1,0-0.3,0-0.5
			c0-3.1-1.5-4.4-3.6-4.4c-2.5,0-3.8,1.6-3.8,4.6c0,3.6,1.2,5.2,4.2,5.2C56.7,116.1,57.6,115.8,58.4,115.3z M55.1,107.1
			c1.6,0,2.7,0.9,2.7,3.3h-5.5C52.4,108.2,53.3,107.1,55.1,107.1z M66,107.4l0.1-1c-0.3-0.1-0.6-0.1-0.9-0.1c-1.4,0-2.5,1-3.1,2.5h0
			l0-1.3l0-1.1l-0.8,0.1v9.4h1v-4.8c0-2.3,1.4-3.8,3-3.8C65.4,107.3,65.7,107.3,66,107.4z M69.8,103.9L69,104l-0.2,2.5h-1.5v0.8h1.5
			v6.4c0,1.6,0.8,2.4,2.3,2.4c0.4,0,0.9-0.1,1.1-0.2l-0.1-0.8c-0.2,0.1-0.5,0.1-0.8,0.1c-1,0-1.5-0.4-1.5-1.6v-6.4h2.5v-0.8h-2.5
			V103.9z M80.7,114.5c-0.8,0.4-1.6,0.7-2.6,0.7c-2.3,0-3.3-1-3.3-4h6.4c0-0.1,0-0.3,0-0.5c0-3.1-1.5-4.4-3.6-4.4
			c-2.5,0-3.8,1.6-3.8,4.6c0,3.6,1.2,5.2,4.2,5.2c1.1,0,2-0.3,2.9-0.7L80.7,114.5z M77.5,107.1c1.6,0,2.7,0.9,2.7,3.3h-5.5
			C74.8,108.2,75.6,107.1,77.5,107.1z M84.5,111.1c0-2.3,1.4-3.8,3-3.8c0.3,0,0.6,0,0.9,0.1l0.1-1c-0.3-0.1-0.6-0.1-0.9-0.1
			c-1.4,0-2.5,1-3.1,2.5h0l0-1.3l0-1.1l-0.8,0.1v9.4h1V111.1z M9.4,125.9H8.1L4,131.1h-2v-5.2H0.9v12h1.1v-5.8h2l4.4,5.8h1.4
			l-4.8-6.3L9.4,125.9z M14.7,128.3c-2.5,0-3.8,1.6-3.8,4.6c0,3.6,1.2,5.2,4.2,5.2c1.1,0,2-0.3,2.9-0.7l-0.1-0.8
			c-0.8,0.4-1.6,0.7-2.6,0.7c-2.3,0-3.3-1-3.3-4h6.4c0-0.1,0-0.3,0-0.5C18.4,129.6,16.9,128.3,14.7,128.3z M11.9,132.4
			c0.1-2.2,0.9-3.3,2.8-3.3c1.6,0,2.7,0.9,2.7,3.3H11.9z M24.7,128.3c-1.2,0-2.2,0.4-2.8,1.2l0,0l0-1.3v-3.1l-1,0.1v12.7h1v-7.4
			c0.4-0.7,1.4-1.3,2.6-1.3c1.7,0,2.5,0.8,2.5,2.3v6.4h1v-6.4C27.9,129.4,26.8,128.3,24.7,128.3z M31.7,130.8L31.7,130.8l-0.1-1.3
			l0-1.1l-0.8,0.1v9.4h1v-4.8c0-2.3,1.4-3.8,3-3.8c0.3,0,0.6,0,0.9,0.1l0.1-1c-0.3-0.1-0.6-0.1-0.9-0.1
			C33.4,128.3,32.2,129.3,31.7,130.8z M38.5,128v0.5H37v0.8h1.5v8.7h1v-8.7h2.7v-0.8h-2.7V128c0-1.3,0.7-2.1,2.2-2.1
			c0.4,0,0.8,0.1,1.1,0.1l0.1-0.7c-0.3-0.1-0.9-0.2-1.3-0.2C39.4,125.2,38.5,126.3,38.5,128z M50.3,134.9c0,1.5-0.9,2.3-2.6,2.3
			c-1.7,0-2.5-0.8-2.5-2.3v-6.4h-1v6.5c0,2,1.1,3.2,3.5,3.2c2.4,0,3.5-1.2,3.5-3.2v-6.5h-1V134.9z M57.9,128.3
			c-1.1,0-2.2,0.5-2.9,1.2h0l-0.2-1.1l-0.7,0.1v9.4h1v-7.4c0.5-0.8,1.7-1.3,2.6-1.3c1.6,0,2.5,0.7,2.5,2.3v6.4h1v-6.4
			C61.2,129.3,59.9,128.3,57.9,128.3z M71.2,128.4H70l-3.3,3.9h-1.5v-7.3l-1,0.1v12.7h1v-4.7h1.5l3.5,4.7h1.2l-3.9-5.1L71.2,128.4z
			 M74.9,125.9l-0.8,0.1l-0.2,2.5h-1.5v0.8h1.5v6.4c0,1.6,0.8,2.4,2.3,2.4c0.4,0,0.9-0.1,1.1-0.2l-0.1-0.8c-0.2,0.1-0.5,0.1-0.8,0.1
			c-1,0-1.5-0.4-1.5-1.6v-6.4h2.5v-0.8h-2.5V125.9z M80,137.9h1v-9.5l-1,0.1V137.9z M80.5,125.2c-0.5,0-0.8,0.2-0.8,0.7
			c0,0.5,0.3,0.7,0.8,0.7c0.5,0,0.8-0.2,0.8-0.7C81.2,125.4,81,125.2,80.5,125.2z M87.9,128.3c-2.8,0-4,1.4-4,4.9
			c0,3.5,1.2,4.9,4,4.9c2.8,0,4-1.4,4-4.9C91.9,129.7,90.7,128.3,87.9,128.3z M87.9,137.3c-2.1,0-3-1.1-3-4.1c0-2.9,0.9-4,3-4
			c2.1,0,3,1.1,3,4C90.8,136.1,90,137.3,87.9,137.3z M98.1,128.3c-1.1,0-2.2,0.5-2.9,1.2h0l-0.2-1.1l-0.7,0.1v9.4h1v-7.4
			c0.5-0.8,1.7-1.3,2.6-1.3c1.6,0,2.5,0.7,2.5,2.3v6.4h1v-6.4C101.4,129.3,100.1,128.3,98.1,128.3z M104.7,136.6
			c-0.5,0-0.8,0.3-0.8,0.7c0,0.5,0.3,0.8,0.8,0.8c0.5,0,0.7-0.3,0.7-0.8C105.4,136.8,105.2,136.6,104.7,136.6z"/>
	</g>
</g>
</svg>
