<svg enable-background="new 0 0 643.8 600" viewBox="0 0 643.8 600" xmlns="http://www.w3.org/2000/svg"><text fill="#fff" font-family="ClanPro-NarrBlack" font-size="12.2353" transform="matrix(.9919 0 0 1 -430.8037 362.9277)">Mehr infos</text><path clip-rule="evenodd" d="m551.7 387.5h-14.1l-8.6-18.6h-3v18.6h-11.9v-45.9h11.9v17.7h3.2l8.5-17.7h13.4l-11 21.9zm-34.8-122.3h-13.9v-35.2h-8.7l.2-10.7h32.5l.2 10.7h-10.4v35.2zm-34.3-48.1c-3 0-4.5-1.2-4.5-4.1 0-2.8 1.5-4.2 4.5-4.2 3.1 0 4.5 1.5 4.5 4.2.1 2.7-1.3 4.1-4.5 4.1zm-11.6 0c-3 0-4.5-1.2-4.5-4.1 0-2.8 1.5-4.2 4.5-4.2 3.1 0 4.5 1.5 4.5 4.2s-1.4 4.1-4.5 4.1zm-1.4 2.2h14.6l13.8 45.9h-13.3l-1.8-8h-12.5l-1.8 8h-12.4-.2-13.6l-6.1-16.4h-4v16.4h-11.9v-45.9h15.8c11.6 0 17.4 4.4 17.4 14.7 0 6.1-2.2 10.6-6.2 12.4l8.8 18.5zm11.1 27.9-2.9-13.1-.9-4.9h-.2l-1 4.9-2.9 13.1zm-44.3-18h-4.2v10.6h4.1c3.5 0 4.7-.9 4.7-5.3.1-4.2-1.1-5.3-4.6-5.3zm-20.7 25.6-.2 10.3h-29.5v-45.9h28.7l.2 10.5h-17.1v7.1h14.2v9.6h-14.1v8.3h17.8zm-68.8-12.5c0-16 6.3-23.7 21.1-23.7 4 0 8.6.7 11.9 2l-1.1 10.2c-3-1.1-6.8-1.8-10.1-1.8-7.5 0-9.2 2.8-9.2 13.1 0 10.9 1.8 13.3 7.7 13.3.9 0 1.9-.1 2.8-.2v-15h10.6v23.4c-3.2 1.5-8.4 2.5-13.1 2.5-15.2-.1-20.6-8.2-20.6-23.8zm-3.1 9c0 9-6.1 14.7-16.4 14.7-4.8 0-9.6-1.1-13.3-3.2l1.5-10.1c3.7 1.9 7.5 3.1 11.5 3.1 3.8 0 5.3-1.3 5.3-3.7 0-5.9-18.2-4-18.2-19 0-8 4.9-14.4 16.2-14.4 4.2 0 8.7.8 12 2.2l-1.3 10c-3.5-1-7-1.7-9.9-1.7-4.5 0-5.5 1.3-5.5 3.3-.1 5.8 18.1 3.8 18.1 18.8zm-56.8-7.3-2.6-4.2-.1.1.1 5v20.4h-10.5v-45.9h10l14.7 23.8.1-.1-.1-4.9.1-18.8h10.5v45.9h-8.5zm-37.4 22c-13.2 0-19.2-7-19.2-23.7 0-16.8 5.7-23.7 19.2-23.7s19.2 6.8 19.2 23.7c0 17.2-5.7 23.7-19.2 23.7zm0-36.7c-5 0-6.6 2.1-6.6 13s1.7 13.1 6.7 13.1 6.6-2.3 6.6-13.1c0-11-1.5-13-6.7-13zm-.5-25.3h-12.2v-35.2h-10.4l.2-10.7h32.5l.2 10.7h-10.4v35.2zm-36.5 15.3h12.3v45.9h-12.3zm11.6-25.9-.2 10.6h-31.2v-7.8l14.6-23.2 2.7-4-.1-.1h-16.9l.3-10.7h30.6v8.6l-14 22.4-2.7 4 .1.2zm-43.8 10.6h-12.2v-35.2h-10.4l.2-10.7h32.5l.2 10.7h-10.4v35.2zm-24.6-10.3-.2 10.3h-29.6v-45.9h28.7l.2 10.5h-17.1v7.1h14.2v9.6h-14.1v8.3h17.9zm-35 71.5-1.8-8h-12.5l-1.8 8h-12.6l13.6-45.9h14.6l13.8 45.9zm-6.9-31.1-.9-4.9h-.2l-1 4.9-2.9 13.1h8zm-11.7-29.2c-3.4 0-6.2-.6-8.4-1.6l.6-10c1.3.7 3.3 1.1 5.7 1.1 5 0 7.5-2 7.5-7.5v-28.8h12.2v29c0 13.6-6.9 17.8-17.6 17.8zm21.2 136.7v28h3.7l-.2 9.7h-3.5v8.2h-10.8v-8.2h-18.1l-1-7.5 15.9-30.2zm-10.4 28 .4-11.5.3-5-.1-.1-8.2 16.5h7.6zm-5.9 69.5c3.8 0 5.3-1.3 5.3-3.7 0-5.9-18.2-4-18.2-19 0-8 4.9-14.4 16.2-14.4 4.2 0 8.7.8 12 2.2l-1.3 10c-3.5-1-7-1.7-9.9-1.7-4.5 0-5.5 1.3-5.5 3.3 0 5.9 18.2 3.9 18.2 18.9 0 9-6.1 14.7-16.4 14.7-4.8 0-9.6-1.1-13.3-3.2l1.5-10.1c3.6 1.9 7.4 3 11.4 3zm33.8 9.5h-12.3v-45.9h12.3zm-22-122.3-8.6-18.6h-2.9v18.6h-12v-45.9h11.9v17.7h3.2l8.5-17.7h13.4l-11 21.9 11.6 23.9h-14.1zm11.3 38.5c0-17.5 4.6-23.7 16.1-23.7 11.2 0 16.1 6.2 16.1 23.7 0 16.4-5.1 23.3-16.2 23.3-11.4 0-16-6.9-16-23.3zm16.1 13.4c3.2 0 4.6-1.6 4.6-13.6 0-11.9-1.4-13.3-4.6-13.3s-4.7 1.7-4.7 13.3c0 12.3 1.5 13.6 4.7 13.6zm20.2 23.8c3.2 0 7.2.7 9.7 1.7l-1.2 10.1c-2-.7-4.8-1.2-7.6-1.2-6.8 0-8.5 2.9-8.5 12.9 0 10.6 1.9 13.5 8.7 13.5 2.8 0 5.4-.6 7.6-1.5l1.1 9.7c-2.8 1.3-6.9 2.2-10.5 2.2-13.1 0-19.4-7.5-19.4-24 0-15.4 6.1-23.4 20.1-23.4zm26.1 17.9h11.1v-17.2h12v45.9h-12v-18h-11.1v18h-11.9v-45.9h11.9zm53-128.7h-16.9v8.1h14l-.1 10.1h-13.9v16.9h-12v-45.9h28.7zm-20.5 50.2c4 0 7.1.6 9.7 1.6l-2.1 9.4c-1.4-.5-3-.8-4.8-.8-5 0-7.7 1.8-9 6.1h12.5l-1.3 6.1h-12v2.2h11.4l-1.2 5.9h-9.5c1.3 5.1 4.5 6.8 9 6.8 2.1 0 4.3-.6 6.2-1.3l.8 8.6c-2.6 1.3-5.9 2.1-10.1 2.1-10.1 0-16.3-5.2-18.1-16.1h-4.5l.1-5.9h3.9v-2.2h-3.9l-.1-6.1h4.5c1.8-10.1 8.4-16.4 18.5-16.4zm-14.2-30.7c0 10.8-5.7 16.4-17.5 16.4-11.7 0-17.7-5.6-17.7-16.4v-30.3h12v30c0 4.1 1.6 5.9 5.7 5.9 4.2 0 5.6-1.7 5.6-5.9v-30h11.9zm-25-45.5v-35.2h-10.4l.2-10.7h32.5l.2 10.7h-10.4v35.2zm12.5 99.6c0 16.4-5.1 23.3-16.2 23.3-11.4 0-16-6.9-16-23.3 0-17.5 4.6-23.7 16.1-23.7 11.2 0 16.1 6.2 16.1 23.7zm-20.8-.1c0 12.3 1.5 13.6 4.7 13.6s4.6-1.6 4.6-13.6c0-11.9-1.4-13.3-4.6-13.3-3.2-.1-4.7 1.6-4.7 13.3zm-15.9-38.4-1.8-8h-12.5l-1.8 8h-12.6l13.6-45.9h14.6l13.8 45.9zm-6.9-31.1-.9-4.9h-.2l-1 4.9-2.9 13.1h8zm5.9-30-8.6-18.6h-2.9v18.6h-11.9v-45.9h11.9v17.7h3.2l8.5-17.7h13.4l-11 21.9 11.6 23.9h-14.2zm90.2 148.1h-17.1v7.1h14.1v9.6h-14.1v8.3h17.9l-.2 10.3h-29.5v-45.9h28.7zm28.5-97.3-.2 10.3h-29.5v-45.9h28.7l.2 10.5h-17.1v7.1h14.1v9.6h-14.1v8.3h17.9zm-7.3 24.8c3.2 0 7.2.7 9.7 1.7l-1.2 10.1c-2-.7-4.8-1.2-7.6-1.2-6.8 0-8.5 2.9-8.5 12.9 0 10.6 1.9 13.5 8.7 13.5 2.8 0 5.4-.6 7.6-1.5l1.1 9.7c-2.8 1.3-6.9 2.2-10.5 2.2-13.1 0-19.4-7.5-19.4-24 0-15.3 6.1-23.4 20.1-23.4zm17.3 76.7c0 6.1-2.2 10.6-6.2 12.4l8.9 18.8h-13.8l-6.1-16.4h-4v16.4h-11.9v-45.9h15.8c11.6 0 17.3 4.4 17.3 14.7zm-21.2 5.7h4.1c3.5 0 4.7-.9 4.7-5.3 0-4.2-1.2-5.3-4.6-5.3h-4.2zm44.2-35.7-1.8-8h-12.5l-1.8 8h-12.7l13.6-45.9h14.6l13.8 45.9zm-6.9-31.2-.9-4.9h-.2l-1 4.9-2.9 13.1h8zm3.3-75.8h10.5v45.9h-8.5l-13.7-21.2-2.6-4.2-.1.1.1 5v20.4h-10.5v-45.9h10l14.7 23.8.1-.1-.1-4.9zm11.1 146 .1-.1-.1-4.9.1-18.8h10.5v45.9h-8.5l-13.7-21.2-2.6-4.2-.1.1.1 5v20.4h-10.5v-45.9h10zm21.7 11.2c4.3 0 6.1 2.1 6.1 5.9 0 3.5-1.8 5.8-6.1 5.8s-6.2-1.7-6.2-5.8c0-3.8 1.9-5.9 6.2-5.9zm10.5-32.1 5.7 1.3.9-5.9h5.1l.8 5.9 5.6-1.3 1.8 5-5.4 2.6 3.1 5.2-3.9 2.9-4.5-4.4-4.6 4.5-4-2.8 3-5.4-5.4-2.6zm-24.5-50.4c0-8 4.9-14.4 16.2-14.4 4.2 0 8.7.8 12 2.2l-1.3 10c-3.5-1-7-1.7-9.9-1.7-4.5 0-5.5 1.3-5.5 3.3 0 5.9 18.2 3.9 18.2 18.9 0 9-6.1 14.7-16.4 14.7-4.8 0-9.6-1.1-13.3-3.2l1.5-10.1c3.7 1.9 7.5 3.1 11.5 3.1 3.8 0 5.3-1.3 5.3-3.7-.1-5.9-18.3-4.1-18.3-19.1zm46.5-74.7v30.3c0 10.8-5.7 16.4-17.5 16.4-11.7 0-17.7-5.6-17.7-16.4v-30.3h12v30c0 4.1 1.6 5.9 5.7 5.9 4.2 0 5.6-1.7 5.6-5.9v-30zm-12.5 107v-45.9h11.9v17.2h11.1v-17.2h12v45.9h-12v-18h-11.1v18zm43.1-107h10.5v45.9h-8.5l-13.7-21.2-2.6-4.2-.1.1.1 5v20.4h-10.5v-45.9h10l14.7 23.8.1-.1-.1-4.9zm30.9 73c0 4.8-2.2 7.9-5.6 9.6v.1c4.6 1.5 7 5.1 7 10.8 0 8.3-5 13.5-16.4 13.5h-17.9v-45.9h18c9.9 0 14.9 4.6 14.9 11.9zm-21.3 24.2h6.5c3 0 4.1-1 4.1-4.6 0-3.2-1-4.5-4.3-4.5h-6.2v9.1zm0-26.1v8.1h6.1c2.8 0 3.7-1 3.7-4.2 0-3-1-3.9-3.9-3.9zm23.7-25.3h-16.6v-45.9h16.3c13.9 0 19.6 6.5 19.6 22.7.1 16.9-6.4 23.2-19.3 23.2zm-.2-35.3h-4.5v24.8h4.5c5.3 0 7-1.6 7-12.8.1-10.1-1.6-12-7-12zm28.1 50.6 13.8 45.9h-13.3l-1.8-8h-12.5l-1.8 8h-12.7l13.6-45.9zm-3.5 27.9-2.9-13.1-.9-4.9h-.2l-1 4.9-2.9 13.1zm37.6-28.7c3.2 0 7.2.7 9.7 1.7l-1.2 10.1c-2-.7-4.8-1.2-7.6-1.2-6.8 0-8.5 2.9-8.5 12.9 0 10.6 1.9 13.5 8.7 13.5 2.8 0 5.4-.6 7.6-1.5l1.1 9.7c-2.8 1.3-6.9 2.2-10.5 2.2-13.1 0-19.4-7.5-19.4-24-.1-15.3 6.1-23.4 20.1-23.4z" fill-rule="evenodd"/></svg>