<?xml version="1.0" encoding="utf-8"?>
<!-- Generator: Adobe Illustrator 25.3.1, SVG Export Plug-In . SVG Version: 6.00 Build 0)  -->
<svg version="1.1" id="Ebene_1" xmlns="http://www.w3.org/2000/svg" xmlns:xlink="http://www.w3.org/1999/xlink" x="0px" y="0px"
	 viewBox="0 0 333.91 127.5" style="enable-background:new 0 0 333.91 127.5;" xml:space="preserve">
<style type="text/css">
	.st0{fill-rule:evenodd;clip-rule:evenodd;fill:#020204;}
</style>
<path class="st0" d="M311.67,70.71v-4.16h8.93v4.16H311.67z M301.27,81.36c-2.53,0-5.02-0.89-6.38-1.98l0.21-4.78
	c1.95,0.92,3.94,1.07,6.02,1.07c1.98,0,2.75-0.67,2.75-1.95c0-3.07-9.19-2.11-9.19-9.95c0-4.19,2.22-7.52,8.14-7.52
	c2.21,0,5.42,0.42,6.3,1.15l-0.7,5.22c-1.82,0-3.65-0.86-5.18-0.86c-2.37,0-2.39,0.7-2.39,1.73c0,3.1,9.05,2.05,9.05,9.89
	C309.87,78.92,306.67,81.36,301.27,81.36z M285.04,56.63h6.43v24h-6.43V56.63z M280.88,47.63h-6.37v-18.4h-5.44l0.13-5.6h16.99
	l0.49,5.6h-5.8V47.63z M260.47,23.63h6.43v24h-6.43V23.63z M263.54,80.63h-4.45l-7.17-11.07l-1.34-2.21l-0.06,0.03l0.03,2.59v10.66
	h-5.5v-24h5.94L258,69.68l0.06-0.32L258,66.49l0.03-9.86h5.5V80.63z M257.81,42.22l-0.13,5.41h-15.45v-24h15.04l0.13,5.5h-8.93v3.71
	h7.36v5.02h-7.36v4.35H257.81z M233.43,65.85h7.23v5.02h-7.23v4.35h9.21l-0.13,5.41h-15.46v-24h15.04l0.13,5.5h-8.79V65.85z
	 M232.73,38.22h-5.82v9.41h-6.24v-24h6.24v8.99h5.82v-8.99H239v24h-6.27V38.22z M219.25,68.12l6.18,12.51h-7.49l-4.51-9.76h-1.54
	v9.76h-6.24v-24h6.24v9.28h1.66l4.45-9.28h7.01L219.25,68.12z M208.47,48.36c-5.77,0-9.25-2.44-9.25-8.89V23.63h6.27v15.71
	c0,2.14,1.2,3.1,2.98,3.1c2.18,0,3.79-0.9,3.79-3.1V23.63h5.37v15.84C217.62,45.92,214.61,48.36,208.47,48.36z M203.6,57.11
	l-0.9,5.31c-1.06-0.13-2.5-0.64-4-0.64c-3.55,0-4.45,1.5-4.45,6.75c0,6.07,0.99,7.07,4.54,7.07c1.47,0,2.85-0.29,3.97-0.8l1.15,5.09
	c-2.02,0.7-4.19,1.47-6.05,1.47c-6.85,0-10.18-4.22-10.18-12.86c0-8.06,3.23-12.29,10.56-12.29
	C199.96,56.22,202.04,56.6,203.6,57.11z M197.05,42.22l-0.13,5.41h-15.46v-24h15.04l0.13,5.5h-8.93v3.71h7.36v5.02h-7.36v4.35
	H197.05z M175.67,81.36c-6.91,0-10.05-3.96-10.05-12.73c0-8.8,3.01-12.38,10.05-12.38c7.04,0,10.05,3.58,10.05,12.38
	C185.72,77.66,182.71,81.36,175.67,81.36z M175.64,61.85c-2.62,0-3.46,1.09-3.46,6.78c0,5.73,0.86,6.88,3.52,6.88
	c3.3,0,3.46-1.18,3.46-6.88C179.16,62.9,179,61.85,175.64,61.85z M166.58,36.56l-1.34-2.21l-0.06,0.03l0.03,2.59v10.66h-5.5v-24
	h5.25l7.71,13.05l0.06-0.32l-0.06-2.87l0.03-9.86h5.5v24h-4.45L166.58,36.56z M160.5,70.81l4.67,9.82h-7.23l-3.2-8.19h-2.11v8.19
	h-6.24v-24h8.29c6.08,0,9.09,2.3,9.09,7.71C163.76,67.54,162.61,69.91,160.5,70.81z M154.81,61.82h-2.18v5.53h2.14
	c1.82,0,2.46-0.45,2.46-2.78C157.24,62.39,156.63,61.82,154.81,61.82z M152.85,47.63h-6.88v-18.4h-5.44l0.13-5.6h16.99l0.13,5.6
	h-4.93V47.63z M142.42,47.63h-14.3v-24h6.3v18.89h8.16L142.42,47.63z M144.47,62.23h-5.44v18.4h-6.37v-18.4h-5.44l0.71-5.6h16.92
	L144.47,62.23z M125.72,42.22l-0.13,5.41h-15.46v-24h15.04l0.29,5.5h-8.28v3.71h6.55v5.02h-6.55v4.35H125.72z M118.39,64.34
	c0,3.2-1.15,5.57-3.26,6.46l4.67,9.82h-7.23l-2.46-8.19h-2.85v8.19h-6.24v-24h8.45C116.26,56.63,118.39,58.94,118.39,64.34z
	 M109.43,61.82h-2.18v5.53h2.14c1.82,0,2.46-0.45,2.46-2.78C111.86,62.39,111.25,61.82,109.43,61.82z M95.67,47.63l-2.24-14.02
	l-0.32-3.13h-0.1l-0.35,3.13l-2.21,14.02h-7.49l-5.02-24h6.53l2.11,15.14l0.32,2.56H87l0.95-2.56l1.9-15.14h6.66l2.53,15.01
	l0.38,2.56h0.1l0.29-2.56l2.14-15.01h6.24l-5.02,24H95.67z M70.26,80.63h-8.67v-24h8.54c7.3,0,10.27,3.5,10.27,11.87
	C80.41,77.3,77.01,80.63,70.26,80.63z M70.17,62.17h-2.34v12.99h2.34c2.75,0,3.68-0.83,3.68-6.72
	C73.85,63.13,72.98,62.17,70.17,62.17z M69.65,42.22l-0.13,5.41H54.07v-24h15.04l0.13,5.5h-8.68v3.71h7.12v5.02h-7.12v4.35H69.65z
	 M39.51,69.56l-1.34-2.21l-0.06,0.03l0.03,2.59v10.66h-5.5v-24h5.25l7.71,13.05l0.06-0.32l-0.06-2.87l0.03-9.86h5.5v24h-4.45
	L39.51,69.56z M44.12,23.63h6.43v24h-6.43V23.63z M31.1,47.63h-8.67v-24h8.54c7.3,0,10.27,3.5,10.27,11.87
	C41.24,44.3,37.85,47.63,31.1,47.63z M31,29.17h-2.34v12.99H31c2.75,0,3.68-0.83,3.68-6.72C34.68,30.13,33.82,29.17,31,29.17z
	 M29.11,56.63v24h-6.43v-24H29.11z M39.8,97.34c0,3.2-1.15,5.57-3.26,6.46l4.67,9.82h-7.23l-3.2-8.19h-2.11v8.19h-6.24v-24h8.29
	C36.79,89.63,39.8,91.94,39.8,97.34z M28.66,100.35h2.14c1.82,0,2.46-0.45,2.46-2.78c0-2.18-0.61-2.75-2.43-2.75h-2.18V100.35z
	 M57.94,95.14h-8.93v3.71h8.17v5.02h-8.17v4.35h10.01l-0.79,5.41H42.78v-24h15.04L57.94,95.14z M67.45,113.63h-6.43v-24h6.43V113.63
	z M83.93,102.68l0.06-0.32l-0.06-2.87l0.03-9.86h5.5v24h-4.45l-7.17-11.07l-1.34-2.21l-0.06,0.03l0.03,2.59v10.66h-5.5v-24h5.25
	L83.93,102.68z M98.61,75.22l-0.13,5.41H83.03v-24h15.04l0.13,5.5h-8.93v3.71h7.36v5.02h-7.36v4.35H98.61z M99.41,113.63h-6.43v-24
	h6.43V113.63z M113.77,89.22c1.67,0,4.07,0.38,5.8,1.06L119,95.62c-1.57-0.32-3.58-0.93-5.31-0.93c-3.94,0-4.83,1.47-4.83,6.88
	c0,5.7,0.93,6.94,4.03,6.94c1.21,0,0.99-0.03,1.81-0.13v-7.84h5.2v12.22c-1.66,0.8-4.38,1.92-6.85,1.92
	c-7.94,0-9.86-4.86-9.86-13.05C103.18,93.25,105.59,89.22,113.77,89.22z M128.79,105.34c0,2.14,0.83,3.1,2.98,3.1
	c2.18,0,2.91-0.9,2.91-3.1V89.63h6.24v15.84c0,6.45-3.01,8.89-9.15,8.89c-6.14,0-9.25-2.44-9.25-8.89V89.63h6.27V105.34z
	 M156.92,102.68l0.06-0.32l-0.06-2.87l0.03-9.86h5.5v24H158l-7.17-11.07l-1.34-2.21l-0.06,0.03l0.03,2.59v10.66h-5.5v-24h5.25
	L156.92,102.68z M176.12,89.22c2.11,0,4.51,0.38,6.89,1.06l-1.22,5.34c-1.57-0.32-3.58-0.93-5.31-0.93c-3.94,0-4.83,1.47-4.83,6.88
	c0,5.7,0.93,6.94,4.03,6.94c0.48,0,0.99-0.03,1.44-0.13v-7.84h5.57v12.22c-1.66,0.8-3.59,1.92-6.85,1.92
	c-7.94,0-10.75-4.86-10.75-13.05C165.08,93.25,169.17,89.22,176.12,89.22z M188.08,107.9c2.6,0,3.2,1.22,3.2,3.07
	c0,1.82-0.6,3.34-3.2,3.34c-2.24,0-3.23-1.16-3.23-3.34C184.85,109.12,185.84,107.9,188.08,107.9z M281.97,62.14h-8.93v3.71h7.36
	v5.02h-7.36v4.35h9.34l-0.13,5.41H266.8v-24h15.04L281.97,62.14z"/>
</svg>
