<?xml version="1.0" encoding="utf-8"?>
<!-- Generator: Adobe Illustrator 16.0.0, SVG Export Plug-In . SVG Version: 6.00 Build 0)  -->
<!DOCTYPE svg PUBLIC "-//W3C//DTD SVG 1.1//EN" "http://www.w3.org/Graphics/SVG/1.1/DTD/svg11.dtd">
<svg version="1.1" id="Ebene_1" xmlns="http://www.w3.org/2000/svg" xmlns:xlink="http://www.w3.org/1999/xlink" x="0px" y="0px"
	 width="162.7px" height="35.4px" viewBox="0 0 162.7 35.4" enable-background="new 0 0 162.7 35.4" xml:space="preserve">
<polygon fill="#1A1A18" points="162.814,17.7 152.615,0 0.114,0 10.914,17.7 0.114,35.4 152.615,35.4 "/>
<g>
	<path fill="#FFED00" d="M28.861,20.05c0,4.044-2.042,5.471-5.332,5.471c-1.11,0-2.002-0.237-2.695-0.595l0.178-2.715
		c0.456,0.277,1.149,0.476,2.002,0.476c1.744,0,2.656-0.773,2.656-2.696v-9.613h3.191V20.05z"/>
	<path fill="#FFED00" d="M39.463,22.428l-0.079,2.814h-9.157V10.377h8.88l0.059,2.854h-5.827v3.053h4.896V18.9h-4.896v3.528H39.463z
		"/>
	<path fill="#FFED00" d="M47.033,13.291v11.952h-3.151V13.291h-3.607l0.079-2.914h10.228l0.06,2.914H47.033z"/>
	<path fill="#FFED00" d="M51.471,25.243v-2.121l5.253-8.503l0.872-1.308l-0.04-0.04H51.61l0.099-2.894h9.534v2.339l-5.134,8.305
		l-0.852,1.288l0.02,0.06h6.006l-0.059,2.874H51.471z"/>
	<path fill="#FFED00" d="M68.991,13.291v11.952H65.84V13.291h-3.607l0.079-2.914h10.228l0.06,2.914H68.991z"/>
	<path fill="#FFED00" d="M82.387,10.377l3.053,8.583l0.515,1.506h0.06l0.496-1.506l3.072-8.583h3.469v14.866h-2.854V17.77
		l0.04-1.605l-0.06-0.02l-0.516,1.526l-2.695,7.572h-2.082l-2.676-7.552l-0.514-1.526l-0.04,0.02l0.02,1.605v7.453h-2.735V10.377
		H82.387z"/>
	<path fill="#FFED00" d="M94.614,10.377h3.191v14.866h-3.191V10.377z"/>
	<path fill="#FFED00" d="M109.023,22.428l-0.08,2.814h-9.157V10.377h8.88l0.06,2.854h-5.827v3.053h4.896V18.9h-4.896v3.528H109.023z
		"/>
	<path fill="#FFED00" d="M116.591,13.291v11.952h-3.151V13.291h-3.607l0.079-2.914h10.229l0.06,2.914H116.591z"/>
	<path fill="#FFED00" d="M130.941,22.428l-0.08,2.814h-9.157V10.377h8.88l0.06,2.854h-5.827v3.053h4.896V18.9h-4.896v3.528H130.941z
		"/>
	<path fill="#FFED00" d="M141.127,25.243l-5.095-8.047l-0.832-1.388l-0.04,0.02l0.021,1.605v7.81h-2.756V10.377h2.676l5.511,9.018
		l0.04-0.02l-0.04-1.585v-7.413h2.735v14.866H141.127z"/>
</g>
</svg>
