<?xml version="1.0" encoding="utf-8"?>
<!-- Generator: Adobe Illustrator 16.0.0, SVG Export Plug-In . SVG Version: 6.00 Build 0)  -->
<!DOCTYPE svg PUBLIC "-//W3C//DTD SVG 1.1//EN" "http://www.w3.org/Graphics/SVG/1.1/DTD/svg11.dtd">
<svg version="1.1" id="Ebene_1" xmlns="http://www.w3.org/2000/svg" xmlns:xlink="http://www.w3.org/1999/xlink" x="0px" y="0px"
	 width="127.196px" height="158.781px" viewBox="0 0 127.196 158.781" enable-background="new 0 0 127.196 158.781"
	 xml:space="preserve">
<g>
	<g>
		<path fill="#1A1A18" d="M9.454,22.72l-0.049-3.958l0.098-0.049l1.224,3.812l5.387,15.489h6.219l5.436-15.538l1.224-3.812
			l0.147,0.049l-0.098,3.958v15.342h8.765V1.368H27.229l-6.562,18.567l-1.224,3.713h-0.147l-1.224-3.762L11.608,1.368H1.08v36.646
			h8.374V22.72z M53.009,1.368h-9.843v36.646h9.843V1.368z M82.232,29.756H67.933v-6.646h11.263V15.44H67.933V9.772h13.662
			L81.4,1.368H58.385v36.646h23.651L82.232,29.756z M92.156,38.014h9.744V9.918h8.324l-0.195-8.551H84.027l-0.196,8.551h8.325
			V38.014z M115.054,9.088l-1.175,5.717l3.134,0.782c2.301-2.785,4.848-7.671,4.799-10.554c0-3.03-1.567-5.033-4.897-5.033
			c-3.427,0-4.749,2.101-4.749,4.739C112.166,6.743,113.683,8.355,115.054,9.088z M22.332,86.845l5.436-15.538l1.224-3.812
			l0.147,0.049l-0.098,3.958v15.343h8.765V50.199H27.229l-6.562,18.567l-1.224,3.713h-0.147l-1.224-3.762l-6.464-18.518H1.08v36.646
			h8.374V71.551l-0.049-3.958l0.098-0.048l1.224,3.811l5.387,15.489H22.332z M53.009,50.199h-9.843v36.646h9.843V50.199z
			 M72.977,87.48c2.84,0,6.17-0.684,8.373-1.759l-0.881-7.769c-1.714,0.782-3.819,1.222-6.072,1.222
			c-5.436,0-6.953-2.346-6.953-10.798c0-8.013,1.371-10.31,6.807-10.31c2.301,0,4.505,0.391,6.121,0.978l0.93-8.111
			c-1.958-0.782-5.142-1.368-7.736-1.368c-11.214,0-16.16,6.449-16.16,18.763C57.405,81.519,62.498,87.48,72.977,87.48z
			 M112.917,50.199h-9.598v13.729h-8.912V50.199h-9.549v36.646h9.549V72.479h8.912v14.366h9.598V50.199z M122.397,78.929
			c-3.281,0-4.75,1.612-4.75,4.3c0,2.98,1.469,4.202,4.75,4.202c3.33,0,4.799-1.71,4.799-4.202
			C127.196,80.542,125.727,78.929,122.397,78.929z M125.727,75.9l1.321-25.701h-9.646l1.371,25.701H125.727z M0.955,108.291
			l-0.014-1.135l0.028-0.014l0.407,1.064l3.242,7.898h0.702l3.242-7.94l0.407-1.064l0.042,0.015l-0.028,1.134v7.856H9.81v-10.503
			H8.729l-3.326,8.164l-0.393,1.05H4.968l-0.407-1.05l-3.326-8.164H0.141v10.503h0.814V108.291z M17.385,114.929l0.042,0.014
			l0.098,1.162h0.646v-5.462c0-2.143-0.814-2.969-2.835-2.969c-0.954,0-1.796,0.183-2.582,0.546l0.098,0.742
			c0.716-0.363,1.488-0.518,2.344-0.518c1.459,0,2.119,0.504,2.119,2.072v1.022c-0.562-0.21-1.319-0.364-2.063-0.364
			c-2.021,0-2.989,0.896-2.989,2.465c0,1.849,1.039,2.591,2.54,2.591C15.954,116.231,16.936,115.712,17.385,114.929z
			 M15.027,115.502c-1.109,0-1.951-0.476-1.951-1.876c0-1.148,0.702-1.807,2.301-1.807c0.997,0,1.727,0.238,1.937,0.393v1.652
			C17.315,114.663,16.234,115.502,15.027,115.502z M21.046,116.105l2.386-3.768l2.414,3.768h1.052l-2.807-4.229l2.708-4.033h-0.997
			l-2.315,3.613l-2.344-3.613h-1.039l2.765,4.062l-2.835,4.201H21.046z M30.194,107.814l-0.856,0.07v8.221h0.856V107.814z
			 M30.432,105.56c0-0.379-0.238-0.588-0.659-0.588c-0.421,0-0.66,0.209-0.66,0.588c0,0.447,0.238,0.588,0.66,0.588
			C30.194,106.148,30.432,105.966,30.432,105.56z M34.08,108.808h-0.042L33.87,107.8l-0.604,0.057v8.248h0.842v-6.47
			c0.393-0.673,1.235-1.106,2.021-1.106c1.024,0,1.881,0.49,1.881,1.778v5.798h0.842v-5.798c0-1.177,0.898-1.778,1.881-1.778
			c1.235,0,2.007,0.616,2.007,1.961v5.615h0.842v-5.63c0-1.891-1.081-2.759-2.653-2.759c-1.081,0-1.951,0.477-2.33,1.387h-0.042
			c-0.337-0.91-1.095-1.373-2.288-1.373C35.371,107.73,34.543,108.15,34.08,108.808z M48.644,111.175
			c-2.021,0-2.989,0.896-2.989,2.465c0,1.849,1.039,2.591,2.54,2.591c1.151,0,2.133-0.519,2.583-1.302l0.042,0.014l0.098,1.162
			h0.646v-5.462c0-2.143-0.814-2.969-2.835-2.969c-0.954,0-1.796,0.183-2.582,0.546l0.098,0.742
			c0.716-0.363,1.487-0.518,2.344-0.518c1.459,0,2.119,0.504,2.119,2.072v1.022C50.146,111.33,49.388,111.175,48.644,111.175z
			 M50.707,113.865c0,0.798-1.081,1.638-2.288,1.638c-1.109,0-1.951-0.476-1.951-1.876c0-1.148,0.702-1.807,2.301-1.807
			c0.997,0,1.727,0.238,1.937,0.393V113.865z M55.224,104.902l-0.842,0.057v11.146h0.842V104.902z M61.37,116.273
			c0.968,0,1.768-0.238,2.484-0.645l-0.112-0.742c-0.702,0.379-1.418,0.588-2.288,0.588c-1.979,0-2.863-0.896-2.905-3.543h5.571
			c0.015-0.111,0.028-0.293,0.028-0.42c0-2.674-1.305-3.809-3.171-3.809c-2.189,0-3.298,1.4-3.298,3.991
			C57.678,114.886,58.731,116.273,61.37,116.273z M60.977,108.458c1.375,0,2.357,0.784,2.386,2.871h-4.828
			C58.619,109.425,59.349,108.458,60.977,108.458z M76.354,110.293h-4.463v-3.796h5.306l-0.028-0.896h-6.203v10.503h0.926v-4.972
			h4.463V110.293z M79.412,116.105h0.842v-11.203l-0.842,0.057V116.105z M86.006,107.703c-2.189,0-3.298,1.4-3.298,3.991
			c0,3.192,1.052,4.579,3.69,4.579c0.969,0,1.769-0.238,2.484-0.645l-0.112-0.742c-0.702,0.379-1.418,0.588-2.288,0.588
			c-1.979,0-2.862-0.896-2.904-3.543h5.571c0.014-0.111,0.028-0.293,0.028-0.42C89.178,108.837,87.873,107.703,86.006,107.703z
			 M83.564,111.33c0.084-1.904,0.814-2.871,2.442-2.871c1.375,0,2.357,0.784,2.386,2.871H83.564z M97.316,116.105l-2.807-4.229
			l2.708-4.033h-0.996l-2.315,3.613l-2.344-3.613h-1.039l2.765,4.062l-2.835,4.201h1.011l2.386-3.768l2.414,3.768H97.316z
			 M99.755,116.105h0.856v-8.291l-0.856,0.07V116.105z M100.19,104.972c-0.421,0-0.659,0.209-0.659,0.588
			c0,0.447,0.238,0.588,0.659,0.588c0.422,0,0.66-0.182,0.66-0.588C100.85,105.181,100.612,104.972,100.19,104.972z
			 M107.024,111.679v-0.672h-3.551v0.672H107.024z M0.73,135.398l0.042-0.014c0.533,0.729,1.488,1.135,2.554,1.135
			c2.077,0,3.27-1.148,3.27-4.299c0-3.207-1.235-4.271-3.172-4.271c-1.038,0-1.964,0.378-2.554,1.078l-0.028-0.014l0.014-1.121
			v-2.744L0,125.204v11.161h0.562L0.73,135.398z M0.856,129.91c0.477-0.729,1.333-1.163,2.344-1.163
			c1.586,0,2.526,0.714,2.526,3.487c0,2.814-1.024,3.557-2.498,3.557c-1.193,0-2.007-0.574-2.372-1.204V129.91z M9.555,125.232
			c-0.421,0-0.66,0.21-0.66,0.588c0,0.448,0.238,0.588,0.66,0.588c0.421,0,0.66-0.182,0.66-0.588
			C10.215,125.442,9.976,125.232,9.555,125.232z M9.12,136.365h0.856v-8.29l-0.856,0.069V136.365z M13.371,136.365h0.842v-11.203
			l-0.842,0.057V136.365z M18.688,125.82c0-0.378-0.238-0.588-0.659-0.588c-0.421,0-0.66,0.21-0.66,0.588
			c0,0.448,0.238,0.588,0.66,0.588C18.45,126.408,18.688,126.226,18.688,125.82z M17.594,136.365h0.856v-8.29l-0.856,0.069V136.365z
			 M24.933,135.65c-0.168,0.07-0.463,0.113-0.702,0.113c-0.828,0-1.347-0.393-1.347-1.387v-5.588h2.175v-0.686h-2.175v-2.255
			l-0.674,0.084l-0.168,2.171h-1.305v0.686h1.292v5.615c0,1.415,0.688,2.087,1.979,2.087c0.365,0,0.772-0.069,0.997-0.168
			L24.933,135.65z M30.601,126.31c0.323,0,0.491-0.168,0.491-0.532c0-0.351-0.168-0.546-0.491-0.546s-0.491,0.21-0.491,0.546
			C30.11,126.169,30.278,126.31,30.601,126.31z M31.556,135.189l0.042,0.014l0.098,1.162h0.646v-5.461
			c0-2.143-0.814-2.969-2.835-2.969c-0.954,0-1.796,0.182-2.582,0.545l0.098,0.743c0.716-0.364,1.488-0.519,2.344-0.519
			c1.459,0,2.119,0.504,2.119,2.072v1.023c-0.562-0.211-1.319-0.365-2.063-0.365c-2.021,0-2.989,0.896-2.989,2.465
			c0,1.849,1.039,2.591,2.54,2.591C30.124,136.491,31.106,135.972,31.556,135.189z M29.198,135.763
			c-1.109,0-1.951-0.477-1.951-1.877c0-1.148,0.702-1.807,2.302-1.807c0.996,0,1.726,0.238,1.937,0.393v1.652
			C31.485,134.922,30.405,135.763,29.198,135.763z M28.51,125.232c-0.323,0-0.491,0.21-0.491,0.546c0,0.392,0.168,0.532,0.491,0.532
			s0.491-0.168,0.491-0.532C29.001,125.427,28.833,125.232,28.51,125.232z M38.248,135.65c-0.168,0.07-0.463,0.113-0.702,0.113
			c-0.828,0-1.347-0.393-1.347-1.387v-5.588h2.175v-0.686h-2.175v-2.255l-0.674,0.084l-0.168,2.171h-1.305v0.686h1.291v5.615
			c0,1.415,0.688,2.087,1.979,2.087c0.365,0,0.772-0.069,0.997-0.168L38.248,135.65z M54.229,130.75v5.615h0.842v-5.629
			c0-1.891-1.081-2.76-2.652-2.76c-1.081,0-1.951,0.477-2.33,1.387h-0.042c-0.337-0.91-1.095-1.372-2.288-1.372
			c-0.898,0-1.726,0.42-2.189,1.078h-0.042l-0.168-1.009l-0.604,0.057v8.248h0.842v-6.47c0.393-0.672,1.235-1.106,2.021-1.106
			c1.024,0,1.88,0.49,1.88,1.779v5.797h0.842v-5.797c0-1.177,0.898-1.779,1.88-1.779C53.458,128.789,54.229,129.405,54.229,130.75z
			 M58.408,125.232c-0.421,0-0.66,0.21-0.66,0.588c0,0.448,0.239,0.588,0.66,0.588s0.66-0.182,0.66-0.588
			C59.068,125.442,58.829,125.232,58.408,125.232z M57.973,136.365h0.856v-8.29l-0.856,0.069V136.365z M65.312,135.65
			c-0.169,0.07-0.463,0.113-0.702,0.113c-0.828,0-1.347-0.393-1.347-1.387v-5.588h2.175v-0.686h-2.175v-2.255l-0.673,0.084
			l-0.168,2.171h-1.305v0.686h1.291v5.615c0,1.415,0.688,2.087,1.979,2.087c0.365,0,0.772-0.069,0.997-0.168L65.312,135.65z
			 M79.511,125.862h-1.15l-3.621,4.593h-1.769v-4.593h-0.926v10.503h0.926v-5.084h1.755l3.817,5.084h1.207l-4.169-5.545
			L79.511,125.862z M84.07,127.935c-0.954,0-1.796,0.182-2.582,0.545l0.099,0.743c0.716-0.364,1.487-0.519,2.344-0.519
			c1.459,0,2.119,0.504,2.119,2.072v1.023c-0.562-0.211-1.319-0.365-2.063-0.365c-2.021,0-2.989,0.896-2.989,2.465
			c0,1.849,1.039,2.591,2.54,2.591c1.151,0,2.134-0.519,2.583-1.302l0.042,0.014l0.098,1.162h0.646v-5.461
			C86.905,128.761,86.091,127.935,84.07,127.935z M86.049,134.125c0,0.798-1.081,1.639-2.288,1.639c-1.108,0-1.95-0.477-1.95-1.877
			c0-1.148,0.701-1.807,2.301-1.807c0.997,0,1.727,0.238,1.938,0.393V134.125z M83.074,126.31c0.323,0,0.491-0.168,0.491-0.532
			c0-0.351-0.168-0.546-0.491-0.546s-0.491,0.21-0.491,0.546C82.583,126.169,82.75,126.31,83.074,126.31z M85.656,125.778
			c0-0.351-0.168-0.546-0.491-0.546c-0.322,0-0.491,0.21-0.491,0.546c0,0.392,0.169,0.532,0.491,0.532
			C85.488,126.31,85.656,126.142,85.656,125.778z M90.172,130.147h-0.027l-0.028-1.134l-0.028-0.925l-0.688,0.056v8.221h0.842
			v-4.215c0-2.003,1.18-3.291,2.583-3.291c0.267,0,0.519,0.027,0.758,0.111l0.069-0.882c-0.238-0.069-0.505-0.098-0.785-0.098
			C91.619,127.991,90.65,128.859,90.172,130.147z M98.339,135.763c-1.755,0-2.667-0.953-2.667-3.627
			c0-2.367,0.758-3.361,2.695-3.361c0.659,0,1.305,0.182,1.824,0.434l0.07-0.783c-0.548-0.267-1.291-0.463-2.063-0.463
			c-2.372,0-3.41,1.358-3.41,4.174c0,3.122,1.123,4.41,3.396,4.41c0.855,0,1.655-0.252,2.146-0.615l-0.084-0.742
			C99.729,135.566,99.041,135.763,98.339,135.763z M105.775,127.949c-1.01,0-1.895,0.378-2.47,1.064L103.277,129l0.015-1.121v-2.717
			l-0.856,0.07v11.133h0.856v-6.455c0.364-0.631,1.234-1.135,2.259-1.135c1.474,0,2.162,0.729,2.162,2.002v5.588h0.855v-5.588
			C108.568,128.943,107.6,127.949,105.775,127.949z M113.842,127.962c-2.189,0-3.298,1.4-3.298,3.991
			c0,3.192,1.053,4.579,3.69,4.579c0.969,0,1.769-0.238,2.484-0.645l-0.112-0.742c-0.701,0.379-1.417,0.589-2.287,0.589
			c-1.979,0-2.863-0.896-2.905-3.543h5.571c0.015-0.112,0.028-0.294,0.028-0.421C117.014,129.097,115.709,127.962,113.842,127.962z
			 M111.401,131.589c0.084-1.904,0.813-2.871,2.441-2.871c1.376,0,2.358,0.785,2.386,2.871H111.401z M119.889,130.147h-0.028
			l-0.028-1.134l-0.027-0.925l-0.688,0.056v8.221h0.843v-4.215c0-2.003,1.179-3.291,2.582-3.291c0.267,0,0.52,0.027,0.758,0.111
			l0.07-0.882c-0.239-0.069-0.506-0.098-0.786-0.098C121.334,127.991,120.366,128.859,119.889,130.147z M5.403,154.287l-0.393,1.05
			H4.968l-0.407-1.05l-3.326-8.164H0.141v10.502h0.814v-7.814l-0.014-1.134l0.028-0.014l0.407,1.063l3.242,7.898h0.702l3.242-7.939
			l0.407-1.064l0.042,0.014l-0.028,1.135v7.855H9.81v-10.502H8.729L5.403,154.287z M13.525,145.492c-0.421,0-0.659,0.21-0.659,0.588
			c0,0.448,0.238,0.588,0.659,0.588c0.421,0,0.66-0.182,0.66-0.588C14.185,145.702,13.947,145.492,13.525,145.492z M13.09,156.625
			h0.856v-8.29l-0.856,0.07V156.625z M19.784,148.222c-2.189,0-3.298,1.4-3.298,3.991c0,3.193,1.052,4.579,3.691,4.579
			c0.968,0,1.768-0.238,2.484-0.644l-0.112-0.742c-0.702,0.378-1.417,0.588-2.288,0.588c-1.979,0-2.863-0.896-2.905-3.543h5.571
			c0.014-0.112,0.028-0.294,0.028-0.42C22.956,149.357,21.65,148.222,19.784,148.222z M17.342,151.849
			c0.084-1.904,0.814-2.871,2.442-2.871c1.375,0,2.358,0.785,2.386,2.871H17.342z M26.279,146.108l-0.673,0.084l-0.168,2.171h-1.305
			v0.686h1.291v5.616c0,1.414,0.688,2.087,1.979,2.087c0.365,0,0.772-0.07,0.997-0.168l-0.07-0.673
			c-0.168,0.069-0.463,0.112-0.702,0.112c-0.828,0-1.348-0.393-1.348-1.387v-5.588h2.175v-0.686h-2.175V146.108z M36.256,148.195
			l-1.333,0.602c-0.547-0.434-1.306-0.574-2.021-0.574c-2.007,0-2.793,0.869-2.793,2.423c0,1.022,0.421,1.639,1.01,1.961
			c-0.688,0.237-1.066,0.687-1.066,1.19c0,0.56,0.337,0.924,0.758,1.105c-0.589,0.449-0.912,1.064-0.912,1.695
			c0,1.316,0.912,2.184,3.087,2.184c2.512,0,3.354-0.924,3.354-2.38c0-1.093-0.604-1.708-2.639-1.919l-1.909-0.195
			c-0.688-0.07-0.94-0.336-0.94-0.658c0-0.351,0.295-0.631,0.856-0.757c0.379,0.112,0.8,0.154,1.193,0.154
			c2.077,0,2.779-0.841,2.779-2.395c0-0.532-0.112-0.952-0.295-1.288l1.067-0.715L36.256,148.195z M31.555,155.056l2.021,0.211
			c1.6,0.14,1.965,0.531,1.965,1.246c0,0.924-0.533,1.555-2.582,1.555c-1.628,0-2.302-0.589-2.302-1.568
			C30.657,155.995,30.965,155.435,31.555,155.056z M32.888,152.353c-1.109,0-1.951-0.308-1.951-1.693
			c0-1.148,0.533-1.723,1.965-1.723c1.361,0,1.965,0.447,1.965,1.723C34.867,151.765,34.404,152.353,32.888,152.353z
			 M40.914,148.222c-2.189,0-3.298,1.4-3.298,3.991c0,3.193,1.053,4.579,3.691,4.579c0.968,0,1.769-0.238,2.484-0.644l-0.112-0.742
			c-0.702,0.378-1.417,0.588-2.288,0.588c-1.979,0-2.863-0.896-2.905-3.543h5.572c0.014-0.112,0.028-0.294,0.028-0.42
			C44.085,149.357,42.78,148.222,40.914,148.222z M38.472,151.849c0.084-1.904,0.814-2.871,2.442-2.871
			c1.375,0,2.358,0.785,2.386,2.871H38.472z M46.96,150.408h-0.028l-0.028-1.135l-0.028-0.924l-0.688,0.056v8.22h0.842v-4.215
			c0-2.002,1.179-3.291,2.583-3.291c0.267,0,0.519,0.028,0.758,0.112l0.07-0.882c-0.239-0.07-0.505-0.099-0.786-0.099
			C48.406,148.25,47.438,149.119,46.96,150.408z M55.829,146.57c0.323,0,0.491-0.168,0.491-0.531c0-0.351-0.168-0.547-0.491-0.547
			c-0.323,0-0.491,0.21-0.491,0.547C55.337,146.43,55.505,146.57,55.829,146.57z M54.734,148.195c-0.955,0-1.796,0.182-2.583,0.546
			l0.098,0.742c0.716-0.364,1.488-0.519,2.344-0.519c1.46,0,2.119,0.504,2.119,2.072v1.023c-0.561-0.211-1.319-0.365-2.063-0.365
			c-2.021,0-2.989,0.896-2.989,2.465c0,1.85,1.039,2.592,2.54,2.592c1.151,0,2.133-0.519,2.583-1.303l0.042,0.014l0.099,1.162h0.646
			v-5.461C57.569,149.021,56.755,148.195,54.734,148.195z M56.712,154.384c0,0.799-1.081,1.639-2.288,1.639
			c-1.108,0-1.951-0.477-1.951-1.877c0-1.148,0.702-1.807,2.302-1.807c0.997,0,1.726,0.238,1.937,0.393V154.384z M53.246,146.039
			c0,0.392,0.168,0.531,0.491,0.531s0.491-0.168,0.491-0.531c0-0.351-0.168-0.547-0.491-0.547S53.246,145.702,53.246,146.039z
			 M61.426,146.108l-0.673,0.084l-0.168,2.171h-1.305v0.686h1.291v5.616c0,1.414,0.688,2.087,1.979,2.087
			c0.365,0,0.771-0.07,0.996-0.168l-0.07-0.673c-0.168,0.069-0.463,0.112-0.702,0.112c-0.828,0-1.347-0.393-1.347-1.387v-5.588
			h2.175v-0.686h-2.175V146.108z M68.133,148.222c-2.189,0-3.299,1.4-3.299,3.991c0,3.193,1.053,4.579,3.691,4.579
			c0.969,0,1.769-0.238,2.484-0.644l-0.112-0.742c-0.702,0.378-1.418,0.588-2.288,0.588c-1.979,0-2.863-0.896-2.905-3.543h5.572
			c0.014-0.112,0.028-0.294,0.028-0.42C71.305,149.357,70,148.222,68.133,148.222z M65.691,151.849
			c0.084-1.904,0.814-2.871,2.442-2.871c1.375,0,2.357,0.785,2.386,2.871H65.691z M76.719,148.222c-0.996,0-1.95,0.406-2.512,1.093
			h-0.042l-0.154-0.995l-0.604,0.057v8.248h0.842v-6.47c0.463-0.728,1.445-1.12,2.26-1.12c1.403,0,2.189,0.602,2.189,2.017v5.573
			h0.842v-5.588C79.541,149.132,78.474,148.222,76.719,148.222z M82.429,155.462c-0.449,0-0.674,0.225-0.674,0.645
			c0,0.477,0.225,0.658,0.674,0.658c0.436,0,0.646-0.238,0.646-0.658S82.865,155.462,82.429,155.462z"/>
	</g>
</g>
</svg>
