<?xml version="1.0" encoding="utf-8"?>
<!-- Generator: Adobe Illustrator 16.0.0, SVG Export Plug-In . SVG Version: 6.00 Build 0)  -->
<!DOCTYPE svg PUBLIC "-//W3C//DTD SVG 1.1//EN" "http://www.w3.org/Graphics/SVG/1.1/DTD/svg11.dtd">
<svg version="1.1" id="Ebene_1" xmlns="http://www.w3.org/2000/svg" xmlns:xlink="http://www.w3.org/1999/xlink" x="0px" y="0px"
	 width="195.449px" height="153.451px" viewBox="-32.575 -25.676 195.449 153.451"
	 enable-background="new -32.575 -25.676 195.449 153.451" xml:space="preserve">
<g>
	<g>
		<path fill="#1A1A18" d="M-24.475-19.676c2.101,0,3,0.901,3,2.55c0,3.45-4.5,7.801-9.899,13.801v4.199h16.649l0.15-5.849h-8.4
			v-0.151c4.951-4.648,8.4-8.55,8.4-12.75c0-4.648-2.85-7.8-8.699-7.8c-3.451,0.151-6.301,1.201-8.4,2.851l1.65,5.399
			C-28.375-18.626-26.575-19.676-24.475-19.676z M-0.774-25.224h-7.051v26.25h7.051V-25.224z M8.375-10.676v-2.849l0,0l1.5,2.398
			l7.95,12.151h4.949v-26.25h-6v10.799v2.851l0,0L8.226-25.224H2.375v26.25h6V-10.676z M31.925-17.274v13.648h-3.15v4.651h13.201
			v-4.651h-3.15v-21.599h-3.9l-7.65,4.799l0.601,5.401L31.925-17.274z M49.326,1.476c2.4,0,3.6-1.352,3.6-3.301
			c0-2.101-1.05-3.301-3.6-3.301c-2.551,0-3.6,1.2-3.6,3.301C45.726,0.574,46.775,1.476,49.326,1.476z M49.326-12.176
			c2.4,0,3.6-1.349,3.6-3.299c0-2.101-1.05-3.3-3.6-3.3c-2.551,0-3.6,1.199-3.6,3.3C45.726-13.224,46.775-12.176,49.326-12.176z
			 M-24.924,32.374h1.65l4.949,10.651h8.25l-6.6-13.651l6.3-12.599h-7.8l-4.95,10.2h-1.8v-10.2h-6.9v26.25h6.9V32.374z
			 M8.976,37.175H-1.375v-4.801h8.101v-5.55h-8.101v-4.049h9.899l-0.149-6h-16.5v26.25H8.976V37.175z M18.576,16.776h-6.9v26.25h6.9
			V32.675h6.449v10.351h6.9v-26.25h-6.9v9.899h-6.449V16.776z M50.976,32.374c2.399-1.05,3.6-3.599,3.6-7.05
			c0-5.849-3.301-8.399-10.051-8.399h-9.149v26.25h6.899v-9.449h2.4l3.6,9.449h7.951L50.976,32.374z M44.675,28.476h-2.4v-6h2.4
			c1.95,0,2.7,0.599,2.7,3C47.375,28.026,46.775,28.476,44.675,28.476z M75.125,37.175h-10.35v-4.801h8.1v-5.55h-8.1v-4.049h9.901
			l-0.151-6H57.875v26.25h17.1L75.125,37.175z M83.826,31.324v-2.849l0,0l1.5,2.398l7.949,12.151h4.95v-26.25h-6v10.799v2.851l0,0
			l-8.549-13.649h-5.851v26.25h6V31.324z M-11.725,58.776h-6.899v17.25c0,2.399-0.75,3.45-3.149,3.45c-2.4,0-3.301-1.051-3.301-3.45
			v-17.25h-6.9v17.399c0,6.149,3.451,9.449,10.201,9.449s10.049-3.148,10.049-9.449V58.776z M-2.274,73.476v-2.852l0,0l1.5,2.401
			l7.949,12.149h4.95V58.776h-6v10.799v2.851l0,0l-8.7-13.649h-5.85v26.25h6v-11.55H-2.274z M15.576,58.776v26.25h9.6
			c7.5,0,11.25-3.601,11.25-13.351c0-9.301-3.3-13.051-11.4-13.051h-9.449V58.776z M29.076,71.824c0,6.451-1.051,7.351-4.051,7.351
			h-2.549v-14.25h2.549C28.175,64.925,29.076,65.976,29.076,71.824z M-25.975,108.425c0-1.051,0.601-1.949,3.15-1.949
			c1.65,0,3.75,0.3,5.7,0.898l0.75-5.699c-1.95-0.75-4.5-1.199-6.899-1.199c-6.451,0-9.301,3.599-9.301,8.25
			c0,8.55,10.5,7.5,10.5,10.949c0,1.351-0.9,2.101-3,2.101c-2.25,0-4.5-0.601-6.6-1.8l-0.9,5.849c2.1,1.201,4.95,1.8,7.65,1.8
			c6,0,9.449-3.148,9.449-8.398C-15.325,110.526-25.975,111.726-25.975,108.425z M-1.375,121.624c-3.899,0-4.95-1.648-4.95-7.8
			c0-5.7,1.051-7.349,4.95-7.349c1.649,0,3.3,0.3,4.351,0.75l0.6-5.852c-1.35-0.599-3.75-1.05-5.551-1.05
			c-8.1,0-11.699,4.651-11.699,13.5c0,9.451,3.6,13.8,11.25,13.8c2.1,0,4.5-0.449,6-1.199l-0.6-5.551
			C1.775,121.324,0.275,121.624-1.375,121.624z M19.476,110.675h-6.451v-9.899H6.125v26.25h6.899v-10.351h6.451v10.351h6.899
			v-26.101h-6.899V110.675z M36.875,116.374h8.101v-5.398h-8.101v-4.051h9.899l-0.149-6H29.976v26.25h17.1l0.15-5.851H36.875
			V116.374z M62.976,118.026c0,2.399-0.75,3.45-3.15,3.45s-3.301-1.051-3.301-3.45v-17.101h-6.899v17.399
			c0,6.151,3.45,9.451,10.2,9.451s10.049-3.151,10.049-9.451v-17.399h-6.898V118.026z M80.076,116.374h8.101v-5.398h-8.101v-4.051
			h9.899l-0.149-6H73.176v26.25h17.099l0.151-5.851H80.076V116.374z M112.176,109.324c0-5.849-3.302-8.399-10.052-8.399h-9.149
			v26.25h6.899v-9.449h2.4l3.6,9.449h7.951l-5.101-10.801C110.975,115.324,112.176,112.776,112.176,109.324z M102.275,112.624h-2.4
			v-6h2.552c1.948,0,2.698,0.602,2.698,3C104.975,112.175,104.375,112.624,102.275,112.624z M129.875,111.574v2.851l0,0
			l-8.549-13.649h-5.851v26.25h6v-11.55v-2.852l0,0l1.5,2.401l7.951,12.149h4.948v-26.25h-6V111.574z M142.326,120.874
			c-2.399,0-3.601,1.2-3.601,3.301c0,2.399,1.05,3.301,3.601,3.301c2.549,0,3.601-1.352,3.601-3.301
			C145.926,122.074,144.875,120.874,142.326,120.874z M159.275,120.874c-2.4,0-3.599,1.2-3.599,3.301
			c0,2.399,1.049,3.301,3.599,3.301c2.551,0,3.6-1.352,3.6-3.301C162.725,122.074,161.676,120.874,159.275,120.874z
			 M150.875,120.874c-2.399,0-3.6,1.2-3.6,3.301c0,2.399,1.051,3.301,3.6,3.301c2.4,0,3.601-1.352,3.601-3.301
			C154.475,122.074,153.426,120.874,150.875,120.874z"/>
	</g>
</g>
</svg>
