<svg enable-background="new 0 0 182.42 185.86" viewBox="0 0 182.42 185.86" xmlns="http://www.w3.org/2000/svg"><path clip-rule="evenodd" d="m147.87 145.75-.95-17.88h6.7l-.92 17.88zm-10 7.62-3.4-9.11h-1.6v9.11h-7.28v-25.5h8.81c6.46 0 9.66 2.45 9.66 8.19 0 3.89-1.22 5.91-3.47 6.87l4.96 10.44zm-3.33-19.99h-1.66v5.88h1.63c1.94 0 2.62-.48 2.62-2.96 0-2.31-.65-2.92-2.59-2.92zm-11.49 14.24-.14 5.75h-16.42v-25.5h15.98l.14 5.85h-9.49v3.94h7.82v5.34h-7.82v4.62zm-31.93 5.75-2.38-15.47-.34-2.75h-.1l-.37 2.75-2.35 15.47h-7.96l-5.34-25.5h7.53l1.65 16.08.34 2.72h.1l.37-2.72 2.65-16.08h7.07l2.69 15.94.41 2.72h.5l-.09-2.72 2.28-15.94h6.63l-5.34 25.5zm-6.32-68h-6.76v-19.55h-4.91l-.74-5.95h18.05l.14 5.95h-5.78zm-5.54-39.75-.14 5.74h-16.42v-25.5h15.98l.14 5.85h-9.49v3.94h7.82v5.35h-7.82v4.62zm-7.65 27c0 9.59-3.2 13.19-10.68 13.19-7.34 0-9.78-3.88-9.78-13.19 0-9.35 2.31-12.68 9.78-12.68s10.68 3.33 10.68 12.68zm-10.71-7.01c-2.79 0-3.06.96-3.06 7.01 0 6.08.31 7.31 3.13 7.31s3.67-1.26 3.67-7.31c0-6.09-.85-7.01-3.74-7.01zm-13.57-14.24-2.38-15.47-.34-2.75h-.1l-.37 2.75-2.35 15.47h-7.96l-5.34-25.5h6.94l2.24 16.08.34 2.72h.1l.37-2.72 2.65-16.08h7.58l2.17 15.94.41 2.72h.1l.31-2.72 2.3-15.94h6.63l-5.34 25.5zm-.68 42.5.14 5.95h-5.78v19.55h-6v-19.55h-6.55l.14-5.95zm1.26-21.92v12.86c-1.77.49-3.81 1.03-7.28 1.03-8.03 0-10.95-4.52-10.95-13.22 0-8.91 3.03-13.02 11.25-13.02 2.48 0 4.79.24 6.63.95l-.61 5.68c-1.67-.61-3.81-.99-5.64-.99-4.18 0-4.93 1.56-4.93 7.31 0 6.05 1.67 7.38 4.08 7.38.51 0 1.05-.03 1.53-.14v-7.84zm.61 64.89c0 5.51-2.75 8.93-9.89 8.93h-2.11v7.59h-6.63v-25.5h8.74c7.07.01 9.89 2.76 9.89 8.98zm-12 3.34h2.11c2.18 0 2.99-.51 2.99-3.37 0-2.75-.65-3.2-2.99-3.2h-2.11zm18.94-36.63h6.19v-9.68h6.66v25.5h-6.66v-10h-6.19v10h-6.63v-25.5h6.63zm5.47 24.39c7.48 0 10.68 3.33 10.68 12.68 0 9.59-3.2 13.19-10.68 13.19-7.34 0-9.78-3.87-9.78-13.19 0-9.35 2.3-12.68 9.78-12.68zm.04 19.99c2.82 0 3.67-1.26 3.67-7.31 0-6.09-.85-7.01-3.74-7.01-2.79 0-3.06.96-3.06 7.01 0 6.08.3 7.31 3.13 7.31zm26.89-48.21h-9.49v3.94h8.13v5.34h-8.13v4.62h9.93l.56 5.75h-17.11v-25.5h15.98zm62.53 48.14c2.31 0 3.33 1.12 3.33 2.99 0 1.73-1.02 2.92-3.33 2.92-2.28 0-3.3-.85-3.3-2.92 0-1.87 1.02-2.99 3.3-2.99z" fill="#020204" fill-rule="evenodd"/></svg>