<?xml version="1.0" encoding="utf-8"?>
<!-- Generator: Adobe Illustrator 23.1.1, SVG Export Plug-In . SVG Version: 6.00 Build 0)  -->
<svg version="1.1" id="Ebene_1" xmlns="http://www.w3.org/2000/svg" xmlns:xlink="http://www.w3.org/1999/xlink" x="0px" y="0px"
	 viewBox="0 0 816.28 222.48" style="enable-background:new 0 0 816.28 222.48;" xml:space="preserve">
<style type="text/css">
	.st0{fill-rule:evenodd;clip-rule:evenodd;}
</style>
<path class="st0" d="M782.54,92.74h-14.46l-6.4-17.15h-4.22v17.15h-12.48v-48h16.57c12.16,0,18.18,4.61,18.18,15.42
	c0,6.4-2.3,11.14-6.53,12.93L782.54,92.74z M761.81,55.1h-4.35v11.07h4.29c3.65,0,4.93-0.9,4.93-5.57
	C766.67,56.26,765.46,55.1,761.81,55.1z M740.17,163.5c-4.48,0-6.46-1.73-6.46-6.08c0-3.9,1.98-6.14,6.46-6.14s6.4,2.24,6.4,6.14
	C746.57,161.07,744.65,163.5,740.17,163.5z M740.18,81.92l-0.26,10.82h-30.91v-48h30.08l0.26,11.01h-17.85v7.42h14.72v10.05h-14.72
	v8.7H740.18z M683.47,92.74h-17.34v-48h17.09c14.59,0,20.54,6.78,20.54,23.74C703.76,86.08,696.98,92.74,683.47,92.74z
	 M683.28,55.81h-4.67v25.98h4.67c5.5,0,7.36-1.66,7.36-13.44C690.64,57.73,688.91,55.81,683.28,55.81z M677.97,139.57l-0.13-5.12
	l0.06-19.71h11.01v48h-8.89l-14.34-22.14l-2.69-4.42l-0.13,0.06l0.06,5.18v21.31h-11.01v-48h10.5l15.42,24.89L677.97,139.57z
	 M627.54,163.57c-12.29,0-18.5-5.89-18.5-17.15v-31.68h12.54v31.42c0,4.29,1.66,6.21,5.95,6.21c4.35,0,5.82-1.79,5.82-6.21v-31.42
	h12.48v31.68C645.84,157.68,639.82,163.57,627.54,163.57z M621.97,70.59l-2.69-4.42l-0.13,0.06l0.06,5.18v21.31h-11.01v-48h10.5
	l15.42,24.89l0.13-0.06l-0.13-5.12l0.06-19.71h11.01v48h-8.9L621.97,70.59z M590.1,163.63c-15.87,0-21.5-8.51-21.5-24.9
	c0-16.77,6.59-24.83,22.08-24.83c4.22,0,9.02,0.77,12.48,2.11L602,126.7c-3.14-1.15-7.17-1.86-10.62-1.86
	c-7.87,0-9.66,2.94-9.66,13.76c0,11.39,1.86,13.89,8.06,13.89c0.96,0,1.98-0.06,2.88-0.26v-15.68h11.14v24.45
	C600.46,162.61,595.02,163.63,590.1,163.63z M588.31,44.74h12.86v48h-12.86V44.74z M558.68,92.74h-12.74v-36.8h-10.88l0.26-11.2
	h33.98l0.26,11.2h-10.88V92.74z M542.93,162.74h-8.9l-14.34-22.14l-2.69-4.42l-0.13,0.06l0.06,5.18v21.31h-11.01v-48h10.5
	l15.42,24.89l0.13-0.06l-0.13-5.12l0.06-19.71h11.01V162.74z M517.85,44.74h12.86v48h-12.86V44.74z M512.53,81.92l-0.26,10.82
	h-30.91v-48h30.08l0.26,11.01h-17.86v7.42h14.72v10.05h-14.72v8.7H512.53z M480.72,151.92l-0.26,10.82h-30.91v-48h30.08l0.26,11.01
	h-17.86v7.42h14.72v10.05h-14.72v8.7H480.72z M462.36,73.92h-11.65v18.82h-12.48v-48h12.48v17.98h11.65V44.74h12.54v48h-12.54V73.92
	z M413.85,93.57c-12.29,0-18.49-5.89-18.49-17.15V44.74h12.54v31.42c0,4.29,1.66,6.21,5.95,6.21c4.35,0,5.82-1.79,5.82-6.21V44.74
	h12.48v31.68C432.15,87.68,426.13,93.57,413.85,93.57z M391,81.92l-0.26,10.82h-30.91v-48h30.08l0.26,11.01h-17.85v7.42h14.72v10.05
	h-14.72v8.7H391z M367.57,162.74h-12.86v-48h12.86V162.74z M330.07,70.59l-2.69-4.42l-0.13,0.06l0.06,5.18v21.31h-11.01v-48h10.5
	l15.42,24.89l0.13-0.06l-0.13-5.12l0.06-19.71h11.01v48h-8.89L330.07,70.59z M301.59,92.74h-12.74v-36.8h-10.88l0.26-11.2h33.98
	l0.26,11.2h-10.88V92.74z M281.75,92.74h-28.61v-48h12.61V81.6h16.32L281.75,92.74z M248.34,81.92l-0.26,10.82h-30.91v-48h30.08
	l0.26,11.01h-17.86v7.42h14.72v10.05h-14.72v8.7H248.34z M188.25,92.74l-4.48-29.12l-0.64-5.18h-0.19l-0.7,5.18l-4.42,29.12h-14.97
	l-10.05-48h13.06l4.22,30.27l0.64,5.12h0.19l0.7-5.12l4.99-30.27h13.31l5.06,30.01l0.77,5.12h0.19l0.58-5.12l4.29-30.01h12.48
	l-10.05,48H188.25z M135.96,163.57c-13.82,0-20.1-7.3-20.1-24.83c0-17.6,6.02-24.77,20.1-24.77s20.1,7.17,20.1,24.77
	C156.06,156.78,150.04,163.57,135.96,163.57z M135.9,125.17c-5.25,0-6.91,2.18-6.91,13.57c0,11.46,1.73,13.76,7.04,13.76
	s6.91-2.37,6.91-13.76C142.94,127.28,141.34,125.17,135.9,125.17z M136.22,81.92l-0.26,10.82h-30.91v-48h30.08l0.26,11.01h-17.86
	v7.42h14.72v10.05h-14.72v8.7H136.22z M105.63,143.09l9.34,19.65h-14.46l-6.4-17.15h-4.22v17.15H77.4v-48h16.58
	c12.16,0,18.18,4.61,18.18,15.42C112.15,136.56,109.85,141.3,105.63,143.09z M94.23,125.1h-4.35v11.07h4.29
	c3.65,0,4.93-0.9,4.93-5.57C99.1,126.26,97.88,125.1,94.23,125.1z M85.15,44.74h12.86v48H85.15V44.74z M59.1,92.74H41.76v-48h17.09
	c14.59,0,20.54,6.78,20.54,23.74C79.39,86.08,72.6,92.74,59.1,92.74z M58.91,55.81h-4.67v25.98h4.67c5.5,0,7.36-1.66,7.36-13.44
	C66.27,57.73,64.54,55.81,58.91,55.81z M73.56,125.94H62.68v36.8H49.95v-36.8H39.07l0.26-11.2h33.98L73.56,125.94z M181.14,113.91
	c3.39,0,7.55,0.77,10.11,1.79l-1.22,10.62c-2.11-0.77-4.99-1.28-8-1.28c-7.1,0-8.9,3.01-8.9,13.5c0,11.07,1.98,14.14,9.09,14.14
	c2.94,0,5.7-0.58,7.94-1.6l1.15,10.18c-2.88,1.41-7.23,2.3-10.94,2.3c-13.69,0-20.35-7.81-20.35-25.09
	C160.03,122.35,166.49,113.91,181.14,113.91z M208.41,133.3h3.33l8.9-18.56h14.02l-11.52,22.97l12.1,25.02H220.5l-9.02-19.52h-3.07
	v19.52h-12.48v-48h12.48V133.3z M269.08,125.74h-17.85v7.42h14.72v10.05h-14.72v8.7h18.69l-0.26,10.82h-30.91v-48h30.08
	L269.08,125.74z M300.63,139.63l0.13-0.06l-0.13-5.12l0.06-19.71h11.01v48h-8.9l-14.34-22.14l-2.69-4.42l-0.13,0.06l0.06,5.18v21.31
	h-11.01v-48h10.5L300.63,139.63z M348.57,125.74h-17.86v7.42h14.72v10.05h-14.72v8.7h18.69l-0.26,10.82h-30.91v-48h30.08
	L348.57,125.74z M386.84,152.82c3.97,0,5.5-1.34,5.5-3.9c0-6.14-19.07-4.22-19.07-19.9c0-8.38,5.12-15.04,16.96-15.04
	c4.42,0,9.15,0.83,12.61,2.3l-1.41,10.43c-3.65-1.09-7.29-1.73-10.37-1.73c-4.74,0-5.76,1.41-5.76,3.46
	c0,6.21,19.07,4.1,19.07,19.78c0,9.47-6.4,15.36-17.21,15.36c-5.06,0-10.05-1.15-13.95-3.33l1.6-10.62
	C378.71,151.6,382.68,152.82,386.84,152.82z M443.6,130.16c0,6.4-2.3,11.14-6.53,12.93l9.34,19.65h-14.46l-6.4-17.15h-4.22v17.15
	h-12.48v-48h16.58C437.59,114.74,443.6,119.34,443.6,130.16z M421.33,136.18h4.29c3.65,0,4.93-0.9,4.93-5.57
	c0-4.35-1.22-5.5-4.86-5.5h-4.35V136.18z M498.9,162.74h-12.86v-48h12.86V162.74z M562.83,162.74h-12.86v-48h12.86V162.74z
	 M716.24,113.91c4.22,0,9.02,0.77,12.48,2.11l-1.15,10.69c-3.14-1.15-7.17-1.86-10.62-1.86c-7.87,0-9.66,2.94-9.66,13.76
	c0,11.39,1.86,13.89,8.06,13.89c0.96,0,1.98-0.06,2.88-0.26v-15.68h11.14v24.45c-3.33,1.6-8.77,2.62-13.7,2.62
	c-15.87,0-21.5-8.51-21.5-24.9C694.16,121.97,700.75,113.91,716.24,113.91z"/>
</svg>
