<svg enable-background="new 0 0 154 136.8" viewBox="0 0 154 136.8" xmlns="http://www.w3.org/2000/svg"><path clip-rule="evenodd" d="m121.7 11.2v14.1h-4.9v-14.1h-4.2l.1-4.3h13l.1 4.3zm-13.7-5.2c-1.2 0-1.8-.5-1.8-1.6s.6-1.7 1.8-1.7 1.8.6 1.8 1.7-.6 1.6-1.8 1.6zm-4.7 0c-1.2 0-1.8-.5-1.8-1.6s.6-1.7 1.8-1.7 1.8.6 1.8 1.7-.6 1.6-1.8 1.6zm-.6.9h5.9l5.5 18.4h-5.3l-.7-3.2h-5l-.7 3.2h-5-5.5l-2.5-6.6h-1.6v6.6h-4.8v-18.4h6.3c4.7 0 7 1.8 7 5.9 0 2.5-.9 4.3-2.5 4.9l3.5 7.4zm4.5 11.2-1.2-5.3-.4-2h-.1l-.4 2-1.2 5.3zm-17.8-7.2h-1.7v4.2h1.6c1.4 0 1.9-.3 1.9-2.1.1-1.7-.4-2.1-1.8-2.1zm-1.3 25.8c0 1.9-.9 3.2-2.3 3.8 1.8.6 2.8 2 2.8 4.3 0 3.3-2 5.4-6.6 5.4h-7.2v-18.4h7.2c4.1.1 6.1 2 6.1 4.9zm-6.1-.8h-2.4v3.2h2.4c1.1 0 1.5-.4 1.5-1.7 0-1.1-.4-1.5-1.5-1.5zm.1 6.9h-2.5v3.6h2.6c1.2 0 1.6-.4 1.6-1.8 0-1.3-.4-1.8-1.7-1.8zm-.9-21.6-.1 4.1h-11.8v-18.4h11.5l.1 4.2h-6.8v2.8h5.6v3.8h-5.6v3.3zm-27.6-5.1c0-6.4 2.5-9.5 8.4-9.5 1.6 0 3.5.3 4.8.8l-.4 4.1c-1.2-.4-2.7-.7-4.1-.7-3 0-3.7 1.1-3.7 5.3 0 4.4.7 5.3 3.1 5.3.4 0 .8 0 1.1-.1v-6h4.3v9.4c-1.3.6-3.4 1-5.2 1-6.2 0-8.3-3.3-8.3-9.6zm-4.7 9.2h-4.9v-14.1h-4.2l.2-4.3h13l.1 4.3h-4.2zm-7.6 0h-10.9v-18.4h4.8v14.1h6.2zm-1.5 41.2v-2-7.5h4.2v18.4h-3.4l-5.5-8.5-1-1.7v2 8.2h-4.2v-18.4h4zm-16.7-19.4h-5l-.7 3.2h-5.1l5.5-18.3h5.9l5.5 18.4h-5.3zm-2-9.2-.4-2h-.1l-.4 2-1.2 5.2h3.2zm2-15.8h-5l-.7 3.2h-5.1l5.5-18.3h5.9l5.5 18.4h-5.3zm-2-9.2-.4-2h-.1l-.4 2-1.2 5.2h3.2zm-2.7 108.6c1.5 0 2.1-.5 2.1-1.5 0-2.4-7.3-1.6-7.3-7.6 0-3.2 2-5.8 6.5-5.8 1.7 0 3.5.3 4.8.9l-.5 4c-1.4-.4-2.8-.7-4-.7-1.8 0-2.2.5-2.2 1.3 0 2.4 7.3 1.6 7.3 7.6 0 3.6-2.4 5.9-6.6 5.9-1.9 0-3.8-.4-5.3-1.3l.6-4.1c1.5.9 3 1.3 4.6 1.3zm13.5 3.8h-4.9v-18.4h4.9zm-4.3-68.3v12.1c0 4.3-2.3 6.6-7 6.6s-7.1-2.2-7.1-6.6v-12.1h4.8v12c0 1.6.6 2.4 2.3 2.4s2.2-.7 2.2-2.4v-12zm16.5-12.1c0 3.3-2 5.4-6.6 5.4h-7.2v-18.4h7.2c3.9 0 6 1.8 6 4.7 0 1.9-.9 3.2-2.3 3.8 1.9.8 2.9 2.2 2.9 4.5zm-6.7-8.9h-2.4v3.2h2.4c1.1 0 1.5-.4 1.5-1.7.1-1.2-.4-1.5-1.5-1.5zm.1 6.8h-2.5v3.6h2.6c1.2 0 1.6-.4 1.6-1.8.1-1.3-.3-1.8-1.7-1.8zm-9.4 57.5h-5.5l-2.5-6.6h-1.6v6.6h-4.8v-18.4h6.3c4.7 0 7 1.8 7 5.9 0 2.4-.9 4.3-2.5 4.9l3.5 7.4 5.4-18.1h5.9l5.5 18.4h-5.3l-.7-3.2h-5l-.7 3.2zm-8-14.4h-1.7v4.2h1.6c1.4 0 1.9-.3 1.9-2.1.1-1.6-.4-2.1-1.8-2.1zm17.8 7.2-1.2-5.3-.4-2h-.1l-.4 2-1.2 5.3zm4.3 13.5c1.3 0 2.9.3 3.9.7l-.5 4.1c-.8-.3-1.9-.5-3.1-.5-2.7 0-3.4 1.2-3.4 5.2 0 4.2.8 5.4 3.5 5.4 1.1 0 2.2-.2 3-.6l.4 3.9c-1.1.5-2.8.9-4.2.9-5.2 0-7.8-3-7.8-9.6.1-6.2 2.6-10.4 8.2-9.5zm10.4 7.2h4.5v-6.9h4.8v18.4h-4.8v-7.2h-4.5v7.2h-4.8v-18.4h4.8zm23.4-2.7h-6.8v2.8h5.6v3.8h-5.6v3.3h7.2l-.1 4.1h-11.8v-18.4h11.5zm-15-45.1c0 6.7-2.6 9.3-7.8 9.3h-6.6v-18.4h6.5c5.6 0 7.9 2.6 7.9 9.1zm-7.9-4.8h-1.8v9.9h1.8c2.1 0 2.8-.6 2.8-5.1 0-4.1-.6-4.8-2.8-4.8zm6.6 33.7c0 3.3-2 5.4-6.6 5.4h-7.2v-18.4h7.2c3.9 0 6 1.8 6 4.7 0 1.9-.9 3.2-2.3 3.8 1.9.8 2.9 2.2 2.9 4.5zm-6.7-8.9h-2.4v3.2h2.4c1.1 0 1.5-.4 1.5-1.7.1-1.2-.4-1.5-1.5-1.5zm.1 6.8h-2.5v3.6h2.6c1.2 0 1.6-.4 1.6-1.8.1-1.3-.3-1.8-1.7-1.8zm5.9-52.5v9.4c-1.3.6-3.4 1-5.2 1-6.1 0-8.2-3.3-8.2-9.5 0-6.4 2.5-9.5 8.4-9.5 1.6 0 3.5.3 4.8.8l-.4 4.1c-1.2-.4-2.7-.7-4.1-.7-3 0-3.7 1.1-3.7 5.3 0 4.4.7 5.3 3.1 5.3.4 0 .8 0 1.1-.1v-6zm14.1 5.9-.1 4.1h-11.8v-18.4h11.5l.1 4.2h-6.8v2.8h5.6v3.8h-5.6v3.3zm-2.3 50.9h-5l-.7 3.2h-5.1l5.4-18.4h5.9l5.5 18.4h-5.3zm-2.1-9.3-.4-2h-.1l-.4 2-1.2 5.3h3.2zm10.9 12.5v-14.1h-4.2l.1-4.3h13l.1 4.3h-4.2v14.1zm11.8 12.5c0 2.5-.9 4.3-2.5 4.9l3.6 7.5h-5.5l-2.5-6.6h-1.6v6.6h-4.8v-18.4h6.3c4.7.1 7 1.9 7 6zm-8.5 2.3h1.6c1.4 0 1.9-.3 1.9-2.1 0-1.7-.5-2.1-1.9-2.1h-2.6zm19.6-68.9-.1 4.1h-11.8v-18.4h11.5l.1 4.2h-6.8v2.8h5.6v3.8h-5.6v3.3zm-13 35.7h13l.1 4.3h-4.2v14.1h-4.9v-14.1h-4.2zm14.1 34.5v-2-7.5h4.2v18.4h-3.4l-5.5-8.5-1-1.7v2 8.2h-4.2v-18.4h4zm5-66.1h-4.2v-18.4h4l5.9 9.5-.1-2v-7.5h4.2v18.4h-3.4l-5.5-8.5-1-1.7v2zm3.7 70.6c1.7 0 2.4.9 2.4 2.4 0 1.4-.7 2.3-2.4 2.3s-2.5-.7-2.5-2.3c.1-1.5.8-2.4 2.5-2.4zm4.3-12.9 2.3.5.3-2.4h2.1l.3 2.4 2.3-.5.7 2-2.2 1.1 1.2 2.1-1.5 1.2-1.8-1.8-1.9 1.8-1.6-1.1 1.2-2.2-2.2-1z" fill="#020204" fill-rule="evenodd"/></svg>