<svg enable-background="new 0 0 414.1 246.2" viewBox="0 0 414.1 246.2" xmlns="http://www.w3.org/2000/svg"><path clip-rule="evenodd" d="m359.3 67v-14.5h31v14.5zm-50.4 34.5v-83.4h21.9v64h28.4l-.6 19.3h-49.7zm-8.3-18.8-.4 18.8h-53.7v-83.4h52.3l.4 19.1h-31v12.9h25.6v17.5h-25.6v15.1zm-81.6 56.9h22.4v83.4h-22.4zm18.8-62.7c0 15-9 24.6-29.8 24.6h-32.5v-83.4h32.7c17.9 0 27 8.3 27 21.6 0 8.8-4 14.5-10.2 17.5v.2c8.3 2.7 12.8 9.2 12.8 19.5zm-30.5-40.6h-10.8v14.7h11c5 0 6.8-1.9 6.8-7.6 0-5.4-1.9-7.1-7-7.1zm.5 30.9h-11.3v16.5h11.8c5.5 0 7.5-1.8 7.5-8.3-.1-5.8-1.8-8.2-8-8.2zm-65.4 19.7h-22.7l-3.2 14.6h-23l24.7-83.4h26.6l25.1 83.4h-24.3zm-9.3-42-1.7-8.9h-.3l-1.9 8.9-5.3 23.9h14.6zm-65.4 56.6-15.7-33.9h-5.3v33.9h-21.7v-83.4h21.7v32.2h5.8l15.5-32.2h24.4l-20.2 39.9 21 43.5zm9.8 57.6h-30.7v14.7h25.5l-.1 18.5h-25.4v30.7h-21.8v-83.4h52.2zm67.7 7.3c0 11.1-4 19.3-11.3 22.5l16.2 34.1h-25.1l-11.1-29.8h-7.3v29.8h-21.8v-83.4h28.8c21.2 0 31.6 8.1 31.6 26.8zm-38.7 10.5h7.5c6.3 0 8.6-1.6 8.6-9.7 0-7.6-2.1-9.6-8.5-9.6h-7.6zm101.8-18.1h-31v12.9h25.6v17.5h-25.6v15.1h32.5l-.4 18.8h-53.7v-83.4h52.3z" fill="#fff" fill-rule="evenodd"/></svg>