<?xml version="1.0" encoding="utf-8"?>
<!-- Generator: Adobe Illustrator 23.1.1, SVG Export Plug-In . SVG Version: 6.00 Build 0)  -->
<!DOCTYPE svg PUBLIC "-//W3C//DTD SVG 1.1//EN" "http://www.w3.org/Graphics/SVG/1.1/DTD/svg11.dtd" [
	<!ENTITY ns_extend "http://ns.adobe.com/Extensibility/1.0/">
	<!ENTITY ns_ai "http://ns.adobe.com/AdobeIllustrator/10.0/">
	<!ENTITY ns_graphs "http://ns.adobe.com/Graphs/1.0/">
	<!ENTITY ns_vars "http://ns.adobe.com/Variables/1.0/">
	<!ENTITY ns_imrep "http://ns.adobe.com/ImageReplacement/1.0/">
	<!ENTITY ns_sfw "http://ns.adobe.com/SaveForWeb/1.0/">
	<!ENTITY ns_custom "http://ns.adobe.com/GenericCustomNamespace/1.0/">
	<!ENTITY ns_adobe_xpath "http://ns.adobe.com/XPath/1.0/">
]>
<svg version="1.1" id="Ebene_1" xmlns:x="&ns_extend;" xmlns:i="&ns_ai;" xmlns:graph="&ns_graphs;"
	 xmlns="http://www.w3.org/2000/svg" xmlns:xlink="http://www.w3.org/1999/xlink" x="0px" y="0px" viewBox="0 0 231 103"
	 style="enable-background:new 0 0 231 103;" xml:space="preserve">
<style type="text/css">
	.st0{fill-rule:evenodd;clip-rule:evenodd;fill:#FFFFFF;}
</style>
<metadata>
	<sfw  xmlns="&ns_sfw;">
		<slices></slices>
		<sliceSourceBounds  bottomLeftOrigin="true" height="83.8" width="210.2" x="9.5" y="-21.1"></sliceSourceBounds>
	</sfw>
</metadata>
<path class="st0" d="M217.1,26.2l-4.3-6.6l-0.8-1.3l0,0l0,1.5v6.3h-3.3V12h3.1l4.6,7.4l0,0l0-1.5l0-5.9h3.3v14.2H217.1z M207.4,23
	l-0.1,3.2h-9.2V12h8.9l0.1,3.3h-5.3v2.2h4.4v3h-4.4V23H207.4z M191.6,17.8h4.4l0,3.2h-4.3v5.3h-3.7V12h8.9l0.1,3.3h-5.2V17.8z
	 M180.6,26.5c-3.6,0-5.5-1.7-5.5-5.1V12h3.7v9.3c0,1.3,0.5,1.8,1.8,1.8c1.3,0,1.7-0.5,1.7-1.8V12h3.7v9.4
	C186.1,24.7,184.3,26.5,180.6,26.5z M170.2,23.8h-3.9l-0.6,2.5h-3.9l4.2-14.2h4.5l4.3,14.2h-4.1L170.2,23.8z M168.6,16.6l-0.3-1.5
	h-0.1l-0.3,1.5l-0.9,4.1h2.5L168.6,16.6z M157.5,26.2l-2.7-5.8h-0.9v5.8h-3.7V12h3.7v5.5h1l2.6-5.5h4.2l-3.4,6.8l3.6,7.4H157.5z
	 M154.5,33.8c1.3,0,2.7,0.2,3.7,0.7l-0.4,3.1c-1.1-0.3-2.2-0.5-3.1-0.5c-1.4,0-1.7,0.4-1.7,1c0,1.8,5.7,1.2,5.7,5.9
	c0,2.8-1.9,4.6-5.1,4.6c-1.5,0-3-0.3-4.1-1l0.5-3.2c1.2,0.6,2.3,0.9,3.6,0.9c1.2,0,1.6-0.4,1.6-1.2c0-1.8-5.7-1.3-5.7-5.9
	C149.5,35.7,151,33.8,154.5,33.8z M152.1,92.2h-2.6l-4.3-6.6l-0.8-1.3l0,0l0,1.5v6.3h-3.3V78h3.1l4.6,7.4l0,0l0-1.5l0-5.9h3.3V92.2z
	 M137.7,41.1c0-5,2-7.4,6.6-7.4c1.3,0,2.7,0.2,3.7,0.6l-0.3,3.2c-0.9-0.3-2.1-0.6-3.2-0.6c-2.3,0-2.9,0.9-2.9,4.1
	c0,3.4,0.6,4.1,2.4,4.1c0.3,0,0.6,0,0.9-0.1v-4.7h3.3v7.3c-1,0.5-2.6,0.8-4.1,0.8C139.4,48.5,137.7,46,137.7,41.1z M141.5,26.2h-3.8
	V15.3h-3.2l0.1-3.3h10.1l0.1,3.3h-3.2V26.2z M130.9,11.3c-0.9,0-1.4-0.4-1.4-1.3c0-0.9,0.5-1.3,1.4-1.3c1,0,1.4,0.5,1.4,1.3
	C132.3,10.9,131.8,11.3,130.9,11.3z M127.2,11.3c-0.9,0-1.4-0.4-1.4-1.3c0-0.9,0.5-1.3,1.4-1.3c1,0,1.4,0.5,1.4,1.3
	C128.6,10.9,128.2,11.3,127.2,11.3z M126.8,12h4.5l4.3,14.2h-4.1l-0.6-2.5h-3.9l-0.6,2.5h-3.9h-0.1h-4.2l-1.9-5.1h-1.3v5.1h-3.7V12
	h4.9c3.6,0,5.4,1.4,5.4,4.6c0,1.9-0.7,3.3-1.9,3.8l2.7,5.7L126.8,12z M130.3,20.7l-0.9-4.1l-0.3-1.5H129l-0.3,1.5l-0.9,4.1H130.3z
	 M116.5,15.1h-1.3v3.3h1.3c1.1,0,1.5-0.3,1.5-1.7C117.9,15.4,117.6,15.1,116.5,15.1z M100.5,41.1c0-5,2-7.4,6.6-7.4
	c1.3,0,2.7,0.2,3.7,0.6l-0.3,3.2c-0.9-0.3-2.1-0.6-3.2-0.6c-2.3,0-2.9,0.9-2.9,4.1c0,3.4,0.6,4.1,2.4,4.1c0.3,0,0.6,0,0.9-0.1v-4.7
	h3.3v7.3c-1,0.5-2.6,0.8-4.1,0.8C102.1,48.5,100.5,46,100.5,41.1z M110.1,23l-0.1,3.2h-9.2V12h8.9l0.1,3.3h-5.3v2.2h4.4v3h-4.4V23
	H110.1z M88.7,19.1c0-5,2-7.4,6.6-7.4c1.3,0,2.7,0.2,3.7,0.6l-0.3,3.2c-0.9-0.3-2.1-0.6-3.2-0.6c-2.3,0-2.9,0.9-2.9,4.1
	c0,3.4,0.6,4.1,2.4,4.1c0.3,0,0.6,0,0.9-0.1v-4.7h3.3v7.3c-1,0.5-2.6,0.8-4.1,0.8C90.4,26.5,88.7,24,88.7,19.1z M82.6,26.5
	c-1.5,0-3-0.3-4.1-1l0.5-3.2c1.2,0.6,2.3,0.9,3.6,0.9c1.2,0,1.6-0.4,1.6-1.2c0-1.8-5.7-1.3-5.7-5.9c0-2.5,1.5-4.5,5-4.5
	c1.3,0,2.7,0.2,3.7,0.7l-0.4,3.1c-1.1-0.3-2.2-0.5-3.1-0.5c-1.4,0-1.7,0.4-1.7,1c0,1.8,5.7,1.2,5.7,5.9
	C87.7,24.7,85.8,26.5,82.6,26.5z M70.1,19.7l-0.8-1.3l0,0l0,1.5v6.3H66V12h3.1l4.6,7.4l0,0l0-1.5l0-5.9H77v14.2h-2.6L70.1,19.7z
	 M74.1,37.3h-5.3v2.2h4.4v3h-4.4V45h5.5l-0.1,3.2h-9.2V34h8.9L74.1,37.3z M68.7,66.9h4.8l-0.1,3.3h-8.5V56h3.7V66.9z M58.5,26.5
	c-4.1,0-6-2.2-6-7.4c0-5.2,1.8-7.4,6-7.4c4.2,0,6,2.1,6,7.4C64.4,24.5,62.6,26.5,58.5,26.5z M58.4,15.1c-1.6,0-2.1,0.6-2.1,4
	c0,3.4,0.5,4.1,2.1,4.1s2.1-0.7,2.1-4.1C60.5,15.7,60,15.1,58.4,15.1z M47,12h3.8v14.2H47V12z M42.4,26.2h-3.8V15.3h-3.2l0.1-3.3
	h10.1l0.1,3.3h-3.2V26.2z M30.8,26.2l-2.7-5.8h-0.9v5.8h-3.7V12h3.7v5.5h1l2.6-5.5H35l-3.4,6.8l3.6,7.4H30.8z M30.8,41.4L30.8,41.4
	v-1.5l0-5.9h3.3v14.2h-2.6l-4.3-6.6l-0.8-1.3l0,0l0,1.5v6.3h-3.3V34h3.1L30.8,41.4z M17.9,23.8H14l-0.6,2.5H9.5L13.7,12h4.5
	l4.3,14.2h-4.1L17.9,23.8z M16.3,16.6L16,15.1h-0.1l-0.3,1.5l-0.9,4.1h2.5L16.3,16.6z M14.1,43.3c0,1.3,0.5,1.8,1.8,1.8
	c1.3,0,1.7-0.5,1.7-1.8V34h3.7v9.4c0,3.3-1.8,5.1-5.4,5.1c-3.6,0-5.5-1.7-5.5-5.1V34h3.7V43.3z M17.1,63.2l0.5,1.5h0.1l0.5-1.4
	l2.5-7.2h4.1v14.2h-3.4v-6l0-1.5l-0.1,0l-0.5,1.5l-2.1,6h-2.4l-2.1-6l-0.5-1.5l0,0l0,1.5v5.9h-3.2V56h4.1L17.1,63.2z M21.7,85
	c0,5.2-2,7.2-6,7.2h-5.1V78h5.1C19.9,78,21.7,80,21.7,85z M14.2,89h1.4c1.6,0,2.2-0.5,2.2-4c0-3.2-0.5-3.7-2.2-3.7h-1.4V89z
	 M26.9,56h3.8v14.2h-3.8V56z M30.5,78l4.3,14.2h-4.1l-0.6-2.5h-3.9l-0.6,2.5h-3.9L25.9,78H30.5z M29.4,86.7l-0.9-4.1l-0.3-1.5h-0.1
	l-0.3,1.5l-0.9,4.1H29.4z M32,56h10.1l0.1,3.3H39v10.9h-3.8V59.3H32L32,56z M40.6,81.4L40.6,81.4l-5.3,0l0.1-3.3h9.5v2.7l-4.4,7
	l-0.8,1.2l0,0.1H45l-0.1,3.3h-9.7v-2.4l4.5-7.2L40.6,81.4z M36,48.2V34h5.1c4.3,0,6.1,2,6.1,7c0,5.2-2,7.2-6,7.2H36z M43.3,41
	c0-3.2-0.5-3.7-2.2-3.7h-1.4V45h1.4C42.8,45,43.3,44.5,43.3,41z M42.9,56H53l0.1,3.3h-3.2v10.9h-3.8V59.3h-3.2L42.9,56z M49.9,87.3
	c0,1.3,0.5,1.8,1.8,1.8c1.3,0,1.7-0.5,1.7-1.8V78h3.7v9.4c0,3.3-1.8,5.1-5.4,5.1c-3.6,0-5.5-1.7-5.5-5.1V78h3.7V87.3z M63.5,67
	l-0.1,3.2h-9.2V56h8.9l0.1,3.3h-5.3v2.2h4.4v3h-4.4V67H63.5z M59.9,48.2L58,43.2h-1.3v5.1H53V34H58c3.6,0,5.4,1.4,5.4,4.6
	c0,1.9-0.7,3.3-1.9,3.8l2.8,5.8H59.9z M58,37.1h-1.3v3.3H58c1.1,0,1.5-0.3,1.5-1.7C59.5,37.4,59.1,37.1,58,37.1z M72.2,81.3h-5.3
	v2.2h4.4v3h-4.4V89h5.5l-0.1,3.2h-9.2V78h8.9L72.2,81.3z M84.1,82.6c0,1.9-0.7,3.3-1.9,3.8l2.8,5.8h-4.3l-1.9-5.1h-1.3v5.1h-3.7V78
	h4.9C82.4,78,84.1,79.4,84.1,82.6z M77.5,84.4h1.3c1.1,0,1.5-0.3,1.5-1.7c0-1.3-0.4-1.6-1.4-1.6h-1.3V84.4z M76,34h3.8v14.2H76V34z
	 M78.6,63.1c0-5,2-7.4,6.6-7.4c1.3,0,2.7,0.2,3.7,0.6l-0.3,3.2c-0.9-0.3-2.1-0.6-3.2-0.6c-2.3,0-2.9,0.9-2.9,4.1
	c0,3.4,0.6,4.1,2.4,4.1c0.3,0,0.6,0,0.9-0.1v-4.7h3.3v7.3c-1,0.5-2.6,0.8-4.1,0.8C80.3,70.5,78.6,68,78.6,63.1z M89.6,83.3h3.5V78
	h3.7v14.2h-3.7v-5.6h-3.5v5.6h-3.7V78h3.7V83.3z M89.6,34h3.3v14.2h-2.6l-4.3-6.6l-0.8-1.3l0,0l0,1.5v6.3h-3.3V34H85l4.6,7.4l0,0
	l0-1.5L89.6,34z M94.9,34h3.8v14.2h-3.8V34z M94.5,65.2v5.1h-3.7V56h4.9c3.6,0,5.4,1.4,5.4,4.6c0,1.9-0.7,3.3-1.9,3.8l2.7,5.7
	L106,56h4.5l4.3,14.2h-4.1l-0.6-2.5h-3.9l-0.6,2.5h-3.9h-0.1h-4.2l-1.9-5.1H94.5z M109.5,64.7l-0.9-4.1l-0.3-1.5h-0.1l-0.3,1.5
	l-0.9,4.1H109.5z M97.2,60.7c0-1.3-0.4-1.6-1.4-1.6h-1.3v3.3h1.3C96.8,62.4,97.2,62.1,97.2,60.7z M106.5,78l4.3,14.2h-4.1l-0.6-2.5
	h-3.9l-0.6,2.5h-3.9l4.2-14.2H106.5z M105.4,86.7l-0.9-4.1l-0.3-1.5h-0.1l-0.3,1.5l-0.9,4.1H105.4z M115.5,88.9h4.8l-0.1,3.3h-8.5
	V78h3.7V88.9z M124,59.3h-3.2v10.9H117V59.3h-3.2l0.1-3.3h10.1L124,59.3z M123.4,34v9.4c0,3.3-1.8,5.1-5.4,5.1
	c-3.6,0-5.5-1.7-5.5-5.1V34h3.7v9.3c0,1.3,0.5,1.8,1.8,1.8c1.3,0,1.7-0.5,1.7-1.8V34H123.4z M119.2,78h10.1l0.1,3.3h-3.2v10.9h-3.8
	V81.3h-3.2L119.2,78z M139.5,81.3h-5.3v2.2h4.4v3h-4.4V89h5.5l-0.1,3.2h-9.2V78h8.9L139.5,81.3z M129.1,70.2h-3.8V56h3.8V70.2z
	 M132.9,34h3.3v14.2h-2.6l-4.3-6.6l-0.8-1.3l0,0l0,1.5v6.3h-3.3V34h3.1l4.6,7.4l0,0l0-1.5L132.9,34z M134.9,70.5c-1.5,0-3-0.3-4.1-1
	l0.5-3.2c1.2,0.6,2.3,0.9,3.6,0.9c1.2,0,1.6-0.4,1.6-1.2c0-1.8-5.7-1.3-5.7-5.9c0-2.5,1.5-4.5,5-4.5c1.3,0,2.7,0.2,3.7,0.7l-0.4,3.1
	c-1.1-0.3-2.2-0.5-3.1-0.5c-1.4,0-1.7,0.4-1.7,1c0,1.8,5.7,1.2,5.7,5.9C140,68.7,138.1,70.5,134.9,70.5z M155.6,88.8
	c1.3,0,1.9,0.7,1.9,1.8c0,1.1-0.6,1.8-1.9,1.8c-1.3,0-1.9-0.5-1.9-1.8C153.7,89.5,154.3,88.8,155.6,88.8z M165.1,42.4h-5.3v-2.5h5.3
	V42.4z"/>
</svg>
