<svg enable-background="new 0 0 360.709 151.521" height="151.521" viewBox="0 0 360.709 151.521" width="360.709" xmlns="http://www.w3.org/2000/svg"><path d="m0 0h360.709v151.512h-360.709z" fill="none"/><path d="m38.624 90.003h283.464v22.9h-283.464z" fill="#ffed00"/><g fill="#fff"><path d="m149.275 52.572c0 3.654-1.442 4.582-4.994 4.582h-5.046v-8.804h5.097c3.708 0 4.943.976 4.943 4.222zm12.615-.465c0-8.598-6.024-12.77-17.352-12.77h-17.354v38.62h12.049v-12.718h4.996l6.539 12.719h14.211l-9.886-15.038c4.326-1.545 6.797-5.818 6.797-10.813z"/><path d="m258.959 68.43v-5.869h15.707v-8.444h-15.707v-5.15h19.002l-.206-9.629h-30.844v38.62h31.614l.207-9.528z"/><path d="m239.653 77.958v-38.62h-11.999v14.264h-12.82v-14.264h-12.048v38.62h12.048v-14.522h12.82v14.522z"/><path d="m197.182 40.213c-2.778-.926-6.744-1.596-10.402-1.596-14.827 0-21.419 7.672-21.419 19.875 0 13.182 7.004 20.186 20.39 20.186 3.967 0 8.291-.926 11.536-2.37l-1.288-8.856c-2.473.979-5.459 1.598-8.651 1.598-7.361 0-9.267-2.523-9.267-10.504 0-7.57 1.75-10.092 9.165-10.092 3.45 0 6.332.514 8.754 1.182z"/><path d="m306.383 52.572c0 3.654-1.44 4.582-4.994 4.582h-5.047v-8.804h5.098c3.708 0 4.943.976 4.943 4.222zm12.615-.465c0-8.598-6.023-12.77-17.352-12.77h-17.353v38.62h12.048v-12.718h4.996l6.537 12.719h14.211l-9.885-15.038c4.325-1.545 6.798-5.818 6.798-10.813z"/><path d="m105.065 62.51h-8.856l3.244-10.093 1.185-4.017h.155l1.133 4.017zm18.331 15.448-15.654-38.62h-13.953l-15.344 38.62h12.822l2.059-6.489h14.521l2.009 6.489z"/><path d="m79.509 39.326h8.969v8.191h-8.969z"/><path d="m113.121 39.326h8.969v8.191h-8.969z"/><path d="m63.854 39.338-9.32 14.469h-3.862v-14.469h-12.048v38.617h12.048v-15.083h3.708l9.37 15.083h14.677l-13.336-20.338 12.614-18.279z"/></g></svg>