<svg enable-background="new 0 0 227.85 77.5" viewBox="0 0 227.85 77.5" xmlns="http://www.w3.org/2000/svg"><path clip-rule="evenodd" d="m209.03 40.64-2.3-6.16h-1.07v6.16h-4.93v-17.25h5.96c4.37 0 7 1.66 7 5.54 0 2.3-1.3 4-2.81 4.64l3.93 7.06h-5.78zm-2.26-13.52h-1.11v3.98h1.09c1.31 0 1.77-.32 1.77-2 0-1.57-.44-1.98-1.75-1.98zm2.12 20.27-4.14 8.26 4.35 8.99h-5.29l-3.24-7.01h-1.1v7.01h-4.48v-17.25h4.48v6.67h1.2l3.2-6.67zm-16.93-6.45c-4.41 0-6.64-2.12-6.64-6.16v-11.39h4.51v11.29c0 1.54.6 2.23 2.14 2.23 1.56 0 2.09-.32 2.09-2.23v-11.29h4.48v11.38c0 4.05-2.16 6.17-6.58 6.17zm3.1-18.38c-2.02 0-2.59-.44-2.59-1.54 0-1.03.57-1.59 2.59-1.59.28 0 .81.55.81 1.59 0 1.01-.53 1.54-.81 1.54zm-5.28 0c-1.13 0-1.7-.44-1.7-1.54 0-1.03.58-1.59 1.7-1.59 1.17 0 1.7.55 1.7 1.59 0 1.01-.53 1.54-1.7 1.54zm-12.17 7.89h5.27l-.02 4.14h-5.24v6.05h-4.51v-17.25h10.79l.07 4.02h-6.35v3.04zm-1.75 28.23v-11.29h4.48v11.38c0 4.05-1.94 6.16-6.58 6.16-4.42 0-6.65-2.12-6.65-6.16v-11.38h4.51v11.29c0 1.54 1.22 2.23 2.14 2.23 1.57 0 2.1-.32 2.1-2.23zm-13.22-18.04h-4.58v-13.23h-3.91l.85-4.02h11.45l.09 4.02h-3.91v13.23zm2.75 12.29c0 2.3-.83 4-2.34 4.65l3.36 7.06h-4.74l-2.76-6.16h-1.52v6.16h-4.48v-17.25h5.96c5.04 0 6.52 1.66 6.52 5.54zm-8 2.16h1.54c2.08 0 1.77-.32 1.77-2 0-1.56-.44-1.98-1.75-1.98h-1.56zm-9.43-31.7h4.62v17.25h-4.62zm-4.23 41.25h-6.23v-17.25h6.14c5.24 0 7.38 2.44 7.38 8.53 0 6.45-2.44 8.72-7.29 8.72zm-.07-13.27h-1.68v9.34h1.68c1.98 0 2.64-.6 2.64-4.83.01-3.82-.62-4.51-2.64-4.51zm2.39-14.62-.09 3.89h-11.11v-17.25h10.81l.09 3.95h-6.42v2.67h5.29v3.61h-5.29v3.13zm-12.99-.11-.07 4h-11.04v-2.92l4.78-8.74 1.01-1.52-.02-.05h-6.35l.11-4.02h11.52v3.22l-5.31 8.46-1.01 1.49.02.07h6.36zm-7.02 20.4-.04-2.57.02-7.08h3.96v17.25h-3.2l-5.15-7.96-.97-1.59-.04.02.02 1.86v7.66h-3.96v-17.24h3.77l5.54 8.94zm-22.28 7.6v-17.25h10.81l.09 3.95h-5.67v2.67h4.54v3.61h-4.54v3.13h5.97l-.09 3.89zm11.2-27.89-.09 3.89h-11.11v-17.25h10.81l.09 3.95h-5.67v2.67h4.54v3.61h-4.54v3.13zm-16.49 27.89h-4.58v-13.23h-3.91l.09-4.02h12.21l.09 4.02h-3.91v13.23zm0-24h-4.58v-13.23h-3.91l.09-4.02h12.21l.09 4.02h-3.91v13.23zm-14.95 24.3c-1.82 0-3.61-.41-5.01-1.2l.57-3.82c1.4.71 2.83 1.15 4.32 1.15 1.42 0 1.98-.48 1.98-1.4 0-2.21-6.85-1.52-6.85-7.15 0-3.01 1.84-5.4 6.09-5.4 2.03 0 3.29.3 4.53.83l-.5 3.75c-1.31.22-2.62-.62-3.73-.62-1.16 0-2.07.51-2.07 1.96 0 1.51 6.85.75 6.85 6.39 0 3.39-2.3 5.51-6.18 5.51zm0-24c-1.82 0-3.61-.41-5.01-1.2l.57-3.82c1.4.71 2.83 1.15 4.32 1.15 1.42 0 1.98-.48 1.98-1.4 0-2.21-6.85-1.52-6.85-7.15 0-3.01 1.84-5.4 6.09-5.4 2.03 0 3.29.3 4.53.83l-.5 3.75c-1.31.22-2.62-.62-3.73-.62-1.16 0-2.07.51-2.07 1.96 0 1.51 6.85.75 6.85 6.39 0 3.39-2.3 5.51-6.18 5.51zm-11.17 16.94h-4.36v6.76h-4.48v-17.25h4.48v6.46h4.36v-6.46h4.34v17.25h-4.34zm0-24h-4.36v6.76h-4.48v-17.25h4.48v6.46h4.36v-6.46h4.34v17.25h-4.34zm-14.43 31.06c-4.92 0-7.31-2.81-7.31-9.01 0-5.79 2.32-8.83 7.91-8.83.89 0 2.39.28 3.31.64l-.44 3.82c-.76.13-1.79-.46-2.87-.46-2.55 0-3.2 1.08-3.2 4.85 0 3.98.71 5.08 3.27 5.08 1.06 0 2.05-.21 2.85-.57l.41 3.66c-1.03.49-1.76.82-3.93.82zm.67-27.91c1.06 0 2.05-.21 2.85-.58l.41 3.66c-1.03.51-1.76.83-3.93.83-4.92 0-7.31-2.81-7.31-9.01 0-5.79 2.32-8.83 7.91-8.83.89 0 2.39.28 3.31.64l-.44 3.82c-.76.13-1.79-.46-2.87-.46-2.55 0-3.2 1.08-3.2 4.85 0 3.97.71 5.08 3.27 5.08zm-16.63 27.91c-4.97 0-7.22-1.87-7.22-8.92 0-6.32 2.16-8.9 7.22-8.9s7.38 2.58 7.38 8.9c0 6.48-2.32 8.92-7.38 8.92zm-.03-13.8c-1.89 0-2.48.78-2.48 4.88 0 4.12.62 4.94 2.53 4.94s2.48-.85 2.48-4.94c0-4.12-.57-4.88-2.53-4.88zm3.94-6.12c0 1.01-.53 1.54-1.21 1.54-1.62 0-2.2-.44-2.2-1.54 0-1.03.57-1.59 2.2-1.59.68.01 1.21.56 1.21 1.59zm-4.4 0c0 1.01-.53 1.54-1.7 1.54-1.13 0-1.7-.44-1.7-1.54 0-1.03.58-1.59 1.7-1.59 1.17.01 1.7.56 1.7 1.59zm.49-4.08c-4.97 0-7.22-1.87-7.22-8.92 0-6.32 2.16-8.9 7.22-8.9s7.38 2.58 7.38 8.9c0 6.48-2.32 8.92-7.38 8.92zm-.03-13.8c-1.89 0-2.48.78-2.48 4.88 0 4.12.62 4.94 2.53 4.94s2.48-.85 2.48-4.94c0-4.12-.57-4.88-2.53-4.88zm2.73-4.58c-1.62 0-2.2-.44-2.2-1.54 0-1.03.57-1.59 2.2-1.59.68 0 1.21.55 1.21 1.59 0 1.01-.53 1.54-1.21 1.54zm-4.89 0c-1.13 0-1.7-.44-1.7-1.54 0-1.03.58-1.59 1.7-1.59 1.17 0 1.7.55 1.7 1.59 0 1.01-.53 1.54-1.7 1.54zm-11.41 35.32h-4.01v6.76h-4.66v-17.25h4.66v6.46h4.01v-6.46h4.51v17.25h-4.51zm0-24h-4.01v6.76h-4.66v-17.25h4.66v6.46h4.01v-6.46h4.51v17.25h-4.51zm161.3 13.21c1.22 0 2.71.28 3.63.64l-.44 3.82c-.76.13-1.79-.46-2.88-.46-2.55 0-3.2 1.08-3.2 4.85 0 3.98.71 5.08 3.26 5.08 1.06 0 2.05-.21 2.85-.57l.41 3.66c-1.03.51-2.6.83-3.93.83-4.92 0-7.31-2.81-7.31-9.01.02-5.8 2.34-8.84 7.61-8.84zm22.93 13.43c1.22 0 1.91 1.65 1.91 2.21 0 1.31-.69 2.18-1.91 2.18-2 0-2.71-.08-2.71-2.18 0-.56.71-2.21 2.71-2.21z" fill-rule="evenodd"/></svg>