<svg enable-background="new 0 0 248.31 63.86" viewBox="0 0 248.31 63.86" xmlns="http://www.w3.org/2000/svg"><path clip-rule="evenodd" d="m238.94 29.1h-5.29l-3.24-7.01h-1.1v7.01h-4.48v-17.25h4.48v6.67h1.2l3.2-6.67h5.04l-4.14 8.26zm-23.23.3c-4.97 0-7.22-1.87-7.22-8.92 0-6.32 2.16-8.9 7.22-8.9s7.22 2.57 7.22 8.9c0 6.48-2.16 8.92-7.22 8.92zm-.02-13.8c-1.89 0-2.38.78-2.38 4.88 0 4.12.52 4.94 2.43 4.94s2.61-.85 2.61-4.94c-.01-4.12-.71-4.88-2.66-4.88zm-15.85 13.8c-4.97 0-7.22-1.87-7.22-8.92 0-6.32 2.16-8.9 7.22-8.9s7.22 2.57 7.22 8.9c0 6.48-2.16 8.92-7.22 8.92zm-.02-13.8c-1.89 0-2.48.78-2.48 4.88 0 4.12.62 4.94 2.53 4.94s2.48-.85 2.48-4.94c0-4.12-.58-4.88-2.53-4.88zm-7.81 8.42c0 3.1-2.59 5.08-6.89 5.08h-6.71v-17.25h6.76c3.7 0 5.59 1.73 5.59 4.46 0 1.82-.83 2.99-2.12 3.61v.05c1.73.57 3.37 1.91 3.37 4.05zm-7.03-8.4h-2.23v3.04h2.28c1.03 0 1.4-.39 1.4-1.56 0-1.13-.39-1.48-1.45-1.48zm.12 6.4h-2.35v3.4h2.44c1.13 0 1.54-.37 1.54-1.63 0-1.29-.37-1.77-1.63-1.77zm-15.13-3.04h6.41v2.99h-6.41zm-1.06 6.23-.09 3.89h-11.11v-17.25h10.81l.09 3.95h-6.41v2.67h5.29v3.61h-5.29v3.13zm-18.86 28.16c-1.61 0-2.32-.08-2.32-2.18 0-.56.71-2.21 2.32-2.21s2.3 1.65 2.3 2.21c0 1.31-.69 2.18-2.3 2.18zm-5.31-23.97c-1.82 0-3.61-.41-5.01-1.2l1.41-3.82c.57.71 1.99 1.15 3.49 1.15 1.43 0 1.98-.48 1.98-1.4 0-2.21-6.85-1.52-6.85-7.15 0-3.01 1.84-5.4 6.09-5.4 1.59 0 3.29.3 4.53.83l-.51 3.75c-1.31.22-2.28-.62-3.72-.62-1.7 0-2.07.51-2.07 1.96 0 1.51 6.85.75 6.85 6.39-.01 3.39-2.31 5.51-6.19 5.51zm-11.66-17.55h4.62v17.25h-4.62zm8.8 32.95.05.71-.05-2.57.02-7.08h3.96v17.24h-3.2l-5.15-7.96-.96-1.59-.05.02.02 1.86v7.66h-3.96v-17.24h3.77zm-14.28-15.7h-4.58v-13.22h-3.91l.39-4.02h11.91l.09 4.02h-3.91v13.22zm-12.14 0-.67-3.01h-4.69l-.67 3.01h-4.67-.09-5.11l-1.76-6.16h-2.06v6.16h-3.96v-17.25h5.56c4.24 0 6.4 1.66 6.4 5.54 0 2.3-.83 4-2.35 4.64l3.3 6.94 5.07-17.13h6.11l4.58 17.25h-4.99zm-18.15-13.52h-1.56v3.98h2.29c.56 0 1.02-.32 1.02-2 0-1.57-.44-1.98-1.75-1.98zm15.55 1.81-.35-1.84h-.07l-.39 1.84-1.1 4.94h3.01zm-27.78 12.03c-6.49 0-8.52-3.06-8.52-8.94 0-6.03 2.37-8.92 7.93-8.92 1.52 0 3.24.28 4.48.76l-.41 3.84c-1.13-.01-2.58-.67-3.82-.67-2.83 0-2.8 1.06-2.8 4.94 0 4.09-.01 4.99 2.22 4.99.35 0 .71-.02 1.83-.09v-5.63h4.1v8.78c-2.07.57-4.03.94-5.01.94zm-5.04 6.16c5.06 0 7.71 2.58 7.71 8.9 0 6.48-2.65 8.92-7.71 8.92-4.97 0-7.22-1.87-7.22-8.92 0-6.33 2.16-8.9 7.22-8.9zm.02 13.84c1.91 0 2.48-.85 2.48-4.94 0-4.12-.57-4.88-2.53-4.88-1.89 0-2.48.78-2.48 4.88 0 4.11.62 4.94 2.53 4.94zm-18.33 3.68v-17.25h5.04v13.25h5.35l-.11 4zm4.83-24h-4.58v-13.22h-3.91l.09-4.02h12.21l.09 4.02h-3.91v13.22zm-9.36-4-.07 4h-11.75v-2.92l5.5-8.74 1.01-1.52-.02-.05h-6.35l.11-4.02h11.52v3.22l-5.31 8.46-1.01 1.49.02.07h6.35zm-5.27 10.75 1.82 10.78.28 1.84h.07l1.06-1.84.69-10.78h4.48l-3.62 17.25h-5.38l-1.61-10.46-.23-1.14h-.07l-.25 1.14-1.58 10.46h-5.39l-3.61-17.25h5.41l.8 11.2.23 1.51h.07l.25-1.51 1.79-11.2zm-11.22-6.75h-4.58v-13.22h-3.75l-.07-4.02h12.21l.09 4.02h-3.91v13.22zm-9.25-3.89-.09 3.89h-10.59v-17.25h10.29l.09 3.95h-6.42v2.67h5.29v3.61h-5.29v3.13zm-19.38 4.21c-2.08 0-3.12-.23-3.94-.6l.23-3.75c.48.25 1.24.41 2.14.41 1.89 0 2.81-.2 2.81-2.81v-10.82h4.6v11.66c0 4.32-2.58 5.91-5.84 5.91zm10.69 14.96c0 6.45-2.95 8.72-7.8 8.72h-6.23v-17.25h6.14c5.24 0 7.89 2.44 7.89 8.53zm-9.37 4.79h1.5c1.98 0 2.64-.6 2.64-4.83 0-3.82-.62-4.51-2.64-4.51h-1.5zm17.51-13.59c5.06 0 7.22 2.58 7.22 8.9 0 6.48-2.16 8.92-7.22 8.92-4.97 0-7.22-1.87-7.22-8.92 0-6.33 2.16-8.9 7.22-8.9zm.02 13.84c1.91 0 2.48-.85 2.48-4.94 0-4.12-.57-4.88-2.53-4.88-1.89 0-2.48.78-2.48 4.88 0 4.11.62 4.94 2.53 4.94zm66.96-13.57 5.2 17.25h-5.01l-.67-3.01h-4.69l-.67 3.01h-4.05l4.38-17.25zm-1.32 10.49-1.1-4.94-.35-1.84h-.07l-.39 1.84-1.1 4.94zm21.19-1.96c0 6.45-2.44 8.72-7.29 8.72h-5.95v-17.25h5.86c5.24 0 7.38 2.44 7.38 8.53zm-9.04 4.79h1.68c1.98 0 2.64-.6 2.64-4.83 0-3.82-.62-4.51-2.64-4.51h-1.68zm21.82-9.36h-6.41v2.67h5.29v3.61h-5.29v3.13h6.71l-.09 3.89h-11.11v-17.26h10.81z" fill-rule="evenodd"/></svg>