<svg enable-background="new 0 0 227.85 77.5" viewBox="0 0 227.85 77.5" xmlns="http://www.w3.org/2000/svg"><path clip-rule="evenodd" d="m170.52 17.86v-2.99h6.42v2.99zm.2 7.13h-5.29l-3.24-7.01h-1.1v7.01h-3.8v-17.25h3.8v6.67h1.2l3.2-6.67h5.04l-4.15 8.26zm-19.04-3.61c1.06 0 2.05-.21 3.25-.58l.02 3.66c-1.04.51-2.6.83-3.93.83-4.92 0-7.31-2.81-7.31-9.01 0-5.8 2.32-8.83 7.59-8.83 1.22 0 2.71.28 3.63.64l-.44 3.82c-.76.13-1.79-.46-2.12-.46-3.31 0-3.95 1.08-3.95 4.85-.01 3.97.71 5.08 3.26 5.08zm-16.28 3.91c-4.41 0-6.65-2.11-6.65-6.16v-11.39h4.51v11.29c0 1.54.6 2.23 2.14 2.23 1.56 0 2.09-.32 2.09-2.23v-11.29h4.48v11.38c0 4.05-2.16 6.17-6.57 6.17zm-12.56-.3-2.2-6.16h-1.62v6.16h-3.59v-17.25h5.06c4.37 0 6.53 1.66 6.53 5.54 0 2.3-.83 4-2.35 4.65l3.36 7.06zm-1.74-13.52h-2.08v3.98h1.85c1.01 0 1.47-.32 1.47-2-.01-1.57-.44-1.98-1.24-1.98zm-6.27 61.52h-5.2l-2.3-6.16h-1.52v6.16h-4.48v-17.25h5.96c4.37 0 6.53 1.66 6.53 5.54 0 2.3-.83 4-2.35 4.65zm-7.45-13.52h-1.56v3.98h1.54c1.31 0 1.77-.32 1.77-2 0-1.57-.44-1.98-1.75-1.98zm-1.29-16.64h-1.08v6.16h-4.92v-17.25h5.96c4.37 0 6.99 1.66 6.99 5.54 0 2.3-1.29 4-2.8 4.65l3.92 7.06h-5.76zm.05-7.36h-1.12v3.98h1.1c1.31 0 1.77-.32 1.77-2 0-1.57-.44-1.98-1.75-1.98zm-.78-10.48h-6.23v-17.25h6.14c5.24 0 7.38 2.44 7.38 8.53 0 6.45-2.44 8.72-7.29 8.72zm-.07-13.27h-.93v9.34h.93c1.98 0 2.64-.6 2.64-4.83 0-3.82-.62-4.51-2.64-4.51zm-6.92 33.38-.09 3.89h-11.11v-17.25h10.81l.09 3.95h-6.42v2.67h5.29v3.61h-5.29v3.13zm-4.53-20.11h-4.58v-13.22h-3.91l.09-4.02h12.21l.09 4.02h-3.91v13.22zm-21.37 15.37c0-6.03 2.37-8.92 7.93-8.92 1.52 0 3.24.28 4.48.76l-.41 3.84c-1.13-.01-2.58-.67-3.82-.67-2.83 0-3.47 1.06-3.47 4.94 0 4.09.67 4.99 2.9 4.99.35 0 .71-.02 1.03-.09v-5.63h4v8.78c-1.2.58-3.15.94-4.92.94-5.7.01-7.72-3.05-7.72-8.94zm12.6-20.59c0 3.4-2.3 5.52-6.18 5.52-1.82 0-3.61-.41-5.01-1.2l.58-3.82c1.4.71 2.83 1.15 4.32 1.15 1.42 0 1.98-.48 1.98-1.4 0-2.21-6.85-1.52-6.85-7.15 0-3.01 1.84-5.4 6.09-5.4 2.03 0 3.29.3 4.53.83l-.5 3.75c-1.31.22-2.62-.62-3.73-.62-1.16 0-2.07.51-2.07 1.96-.01 1.5 6.84.74 6.84 6.38zm-17.35-1.54h-4.36v6.76h-4.48v-17.25h4.48v6.46h4.36v-6.46h4.34v17.25h-4.34zm-13.77 3.15c1.06 0 2.05-.21 2.85-.58l.41 3.66c-1.03.51-1.76.83-3.93.83-4.92 0-7.31-2.81-7.31-9.01 0-5.8 2.32-8.83 7.91-8.83.89 0 2.39.28 3.31.64l-.44 3.82c-.76.13-1.79-.46-2.87-.46-2.55 0-3.2 1.08-3.2 4.85.01 3.97.72 5.08 3.27 5.08zm-16.62 3.91c-4.97 0-7.22-1.87-7.22-8.92 0-6.32 2.16-8.9 7.22-8.9s7.38 2.57 7.38 8.9c0 6.48-2.33 8.92-7.38 8.92zm-.03-13.8c-1.89 0-2.48.78-2.48 4.87 0 4.12.62 4.94 2.53 4.94s2.48-.85 2.48-4.94c0-4.11-.57-4.87-2.53-4.87zm2.73-4.58c-1.62 0-2.2-.44-2.2-1.54 0-1.03.58-1.59 2.2-1.59.68 0 1.21.55 1.21 1.59-.01 1.01-.53 1.54-1.21 1.54zm-4.89 0c-1.13 0-1.7-.44-1.7-1.54 0-1.03.57-1.59 1.7-1.59 1.17 0 1.7.55 1.7 1.59 0 1.01-.53 1.54-1.7 1.54zm6.02 28.79h-6.98v2.67h5.29v3.61h-5.29v3.13h6.72l-.09 3.89h-11.12v-17.26h10.81zm-8 17.67c0-1.03.58-1.59 1.7-1.59 1.17 0 2.05.55 2.05 1.59 0 1.01-.88 1.54-2.05 1.54-1.12 0-1.7-.43-1.7-1.54zm4.65 0c0-1.03.32-1.59 1.45-1.59 1.17 0 1.7.55 1.7 1.59 0 1.01-.53 1.54-1.7 1.54-1.13 0-1.45-.43-1.45-1.54zm2.02 2.37 5.2 17.25h-5.01l-.67-3.01h-4.69l-.67 3.01h-4.76l5.1-17.25zm-1.31 10.49-1.1-4.94-.34-1.84h-.08l.37 1.84-1.87 4.94zm-14.63 6.76-3.24-7.01h-.92v7.01h-4.66v-17.25h4.66v6.67h1.02l3.2-6.67h5.03l-4.14 8.26 4.35 8.99zm-2.83-30.16h-1.34v6.16h-4.66v-17.25h5.95c4.37 0 6.73 1.66 6.73 5.54 0 2.3-1.03 4-2.54 4.65l3.66 7.06h-5.5zm.05-7.36h-1.38v3.98h1.36c1.31 0 1.77-.32 1.77-2 0-1.57-.44-1.98-1.75-1.98zm2.62-17.24h-4.01v6.76h-4.66v-17.25h4.66v6.46h4.01v-6.46h4.51v17.25h-4.51zm19.07 13.51h4.62v17.25h-4.62zm15.87 29.54c0 2.3-.83 4-2.35 4.65l3.36 7.06h-5.2l-2.3-6.16h-1.52v6.16h-4.48v-17.25h5.96c4.37 0 6.53 1.66 6.53 5.54zm-8 2.16h1.54c1.31 0 1.77-.32 1.77-2 0-1.56-.32-1.98-1.75-1.98h-1.56zm8.62-31.7h3.95v17.25h-3.2l-5.15-7.96-.97-1.59-.05.02.02 1.86v7.66h-3.96v-17.24h3.77l5.54 8.94.05.71-.05-2.57zm6.49 0h4.62v17.25h-4.62zm2.4 23.7c.63 0 2.13.28 3.05.64l-.44 3.82c-.76.13-1.79-.46-2.88-.46-2.55 0-3.2 1.08-3.2 4.85 0 3.98.71 5.08 3.26 5.08 1.06 0 2.05-.21 2.85-.57l.41 3.66c-1.03.51-2.6.83-3.93.83-4.92 0-7.31-2.81-7.31-9.01.01-5.8 2.34-8.84 8.19-8.84zm9.21 6.76h4.63v-6.46h4.07v17.25h-4.07v-6.76h-4.63v6.76h-4.48v-17.25h4.48zm21.92-2.5h-6.42v2.67h5.29v3.61h-5.29v3.13h7.44l-.81 3.89h-11.11v-17.26h10.81zm18.49 9.17c1.61 0 2.3 1.65 2.3 2.21 0 1.31-.69 2.18-2.3 2.18s-2.32-.08-2.32-2.18c0-.56.71-2.21 2.32-2.21zm6.43-37.13 1.78 10.76.39 1.82h.07l.37-1.82 2.48-10.76h4.65l-5.1 17.25h-5.13l-5.08-17.25zm16.96-.27c5.06 0 7.22 2.58 7.22 8.9 0 6.48-2.16 8.92-7.22 8.92-4.97 0-7.22-1.87-7.22-8.92 0-6.33 2.16-8.9 7.22-8.9zm.02 13.84c1.91 0 2.48-.85 2.48-4.94 0-4.12-.57-4.88-2.53-4.88-1.89 0-2.48.78-2.48 4.88 0 4.11.63 4.94 2.53 4.94zm19.18-4.62-.73.71.73-2.57-.75-7.08h4.53v17.25h-3.77l-5.15-7.96-.97-1.59-.05.02.02 1.86v7.66h-3.96v-17.25h3.77z" fill-rule="evenodd"/></svg>