<?xml version="1.0" encoding="utf-8"?>
<!-- Generator: Adobe Illustrator 16.0.4, SVG Export Plug-In . SVG Version: 6.00 Build 0)  -->
<!DOCTYPE svg PUBLIC "-//W3C//DTD SVG 1.1//EN" "http://www.w3.org/Graphics/SVG/1.1/DTD/svg11.dtd">
<svg version="1.1" id="Ebene_1" xmlns="http://www.w3.org/2000/svg" xmlns:xlink="http://www.w3.org/1999/xlink" x="0px" y="0px"
	 width="155.261px" height="152.98px" viewBox="0 0 155.261 152.98" enable-background="new 0 0 155.261 152.98"
	 xml:space="preserve">
<g>
	<path d="M7.135,24.981c-2.527,0-5.023-0.576-6.976-1.664l0.8-5.312c1.952,0.992,3.936,1.6,6.016,1.6
		c1.984,0,2.752-0.672,2.752-1.952c0-3.072-9.535-2.112-9.535-9.951c0-4.192,2.56-7.52,8.479-7.52c2.208,0,4.575,0.416,6.304,1.152
		L14.271,6.55c-1.824-0.544-3.647-0.864-5.184-0.864c-2.368,0-2.88,0.704-2.88,1.728c0,3.104,9.535,2.048,9.535,9.887
		C15.742,22.037,12.543,24.981,7.135,24.981z"/>
	<path d="M29.758,20.373H23.23l-0.928,4.192H15.68l7.104-23.998h7.646l7.232,23.998h-6.977L29.758,20.373z M25.95,8.278
		l-1.536,6.879h4.192L27.07,8.278l-0.48-2.56h-0.096L25.95,8.278z"/>
	<path d="M56.445,16.406c0,5.631-3.008,8.575-9.15,8.575c-6.145,0-9.248-2.944-9.248-8.575V0.567h6.271v15.71
		c0,2.144,0.832,3.104,2.977,3.104c2.176,0,2.911-0.896,2.911-3.104V0.567h6.239V16.406z"/>
	<path d="M68.83,24.565h-9.344V0.567h9.408c5.151,0,7.775,2.399,7.775,6.208c0,2.528-1.152,4.16-2.944,5.023v0.064
		c2.399,0.8,3.681,2.656,3.681,5.632C77.406,21.813,74.814,24.565,68.83,24.565z M68.639,5.814h-3.104v4.224h3.168
		c1.44,0,1.952-0.544,1.952-2.176C70.654,6.294,70.109,5.814,68.639,5.814z M68.799,14.709h-3.265v4.736h3.392
		c1.568,0,2.145-0.512,2.145-2.4C71.07,15.382,70.559,14.709,68.799,14.709z"/>
	<path d="M95.485,19.157l-0.128,5.408H79.902V0.567h15.039l0.128,5.503h-8.927v3.712h7.358v5.023h-7.358v4.352H95.485z"/>
	<path d="M111.998,14.742l4.671,9.823h-7.231l-3.199-8.575h-2.112v8.575h-6.239V0.567h8.287c6.08,0,9.088,2.304,9.088,7.711
		C115.262,11.478,114.109,13.846,111.998,14.742z M106.302,5.75h-2.176v5.536h2.145c1.823,0,2.464-0.448,2.464-2.784
		C108.734,6.326,108.126,5.75,106.302,5.75z"/>
	<path d="M133.821,19.157l-0.128,5.408h-15.455V0.567h15.039l0.128,5.503h-8.928v3.712h7.359v5.023h-7.359v4.352H133.821z"/>
	<path d="M15.326,50.998l-0.16,5.567H0.863V32.567h6.304v18.431H15.326z"/>
	<path d="M26.334,56.981c-6.91,0-10.047-3.648-10.047-12.415c0-8.799,3.008-12.383,10.047-12.383c7.04,0,10.048,3.584,10.048,12.383
		C36.382,53.589,33.374,56.981,26.334,56.981z M23.295,31.415c-1.568,0-2.368-0.608-2.368-2.144c0-1.44,0.8-2.208,2.368-2.208
		c1.632,0,2.367,0.768,2.367,2.208C25.662,30.679,24.927,31.415,23.295,31.415z M26.303,37.782c-2.624,0-3.456,1.088-3.456,6.784
		c0,5.728,0.864,6.879,3.521,6.879c2.655,0,3.455-1.184,3.455-6.879C29.822,38.838,29.022,37.782,26.303,37.782z M29.406,31.415
		c-1.568,0-2.367-0.608-2.367-2.144c0-1.44,0.799-2.208,2.367-2.208c1.632,0,2.368,0.768,2.368,2.208
		C31.774,30.679,31.038,31.415,29.406,31.415z"/>
	<path d="M45.15,56.981c-2.527,0-5.023-0.576-6.976-1.664l0.8-5.312c1.952,0.992,3.936,1.6,6.016,1.6
		c1.984,0,2.752-0.672,2.752-1.952c0-3.072-9.535-2.112-9.535-9.951c0-4.192,2.56-7.52,8.479-7.52c2.208,0,4.575,0.416,6.304,1.152
		l-0.704,5.216c-1.824-0.544-3.647-0.864-5.184-0.864c-2.368,0-2.88,0.704-2.88,1.728c0,3.104,9.535,2.048,9.535,9.887
		C53.758,54.037,50.559,56.981,45.15,56.981z"/>
	<path d="M74.174,48.406c0,5.631-3.008,8.575-9.152,8.575c-6.143,0-9.247-2.944-9.247-8.575V32.567h6.271v15.71
		c0,2.144,0.832,3.104,2.976,3.104c2.176,0,2.912-0.896,2.912-3.104v-15.71h6.24V48.406z"/>
	<path d="M91.262,56.565l-7.168-11.071l-1.344-2.208l-0.064,0.032l0.032,2.592v10.655h-5.503V32.567h5.247l7.712,12.447l0.063-0.032
		l-0.063-2.56l0.031-9.855h5.504v23.998H91.262z"/>
	<path d="M115.934,55.701c-1.664,0.8-4.384,1.312-6.848,1.312c-7.936,0-10.751-4.255-10.751-12.447
		c0-8.383,3.296-12.415,11.039-12.415c2.111,0,4.512,0.384,6.239,1.056l-0.576,5.344c-1.567-0.576-3.583-0.928-5.312-0.928
		c-3.936,0-4.831,1.472-4.831,6.88c0,5.695,0.928,6.943,4.031,6.943c0.48,0,0.992-0.032,1.44-0.128v-7.839h5.567V55.701z"/>
	<path d="M134.364,51.157l-0.128,5.408h-15.455V32.567h15.039l0.128,5.503h-8.928v3.712h7.359v5.023h-7.359v4.352H134.364z"/>
	<path d="M150.812,56.565l-7.167-11.071l-1.344-2.208l-0.064,0.032l0.032,2.592v10.655h-5.504V32.567h5.248l7.711,12.447
		l0.064-0.032l-0.064-2.56l0.032-9.855h5.504v23.998H150.812z"/>
	<path d="M0,88.564v-4.063l7.646-12.159l1.408-2.112l-0.031-0.064H0.191l0.16-5.6h16.031v4.479L8.99,80.821l-1.407,2.08l0.032,0.096
		h8.831l-0.097,5.567H0z"/>
	<path d="M36.83,80.405c0,5.631-3.008,8.575-9.151,8.575s-9.247-2.944-9.247-8.575V64.566h6.271v15.71
		c0,2.144,0.832,3.104,2.976,3.104c2.176,0,2.911-0.896,2.911-3.104v-15.71h6.24V80.405z"/>
	<path d="M46.75,64.566l4.225,12.127l0.8,2.464h0.096l0.8-2.432l4.288-12.159h6.911v23.998h-5.728V78.517l0.064-2.592l-0.097-0.032
		l-0.799,2.496l-3.553,10.175h-4.063l-3.52-10.143l-0.8-2.496l-0.064,0.032l0.032,2.592v10.015h-5.472V64.566H46.75z"/>
	<path d="M13.15,120.564l-4.512-9.76H7.104v9.76h-6.24V96.566h6.24v9.279h1.663l4.448-9.279h7.007l-5.759,11.487l6.047,12.511H13.15
		z"/>
	<path d="M36.734,114.997l-0.16,5.567H22.271V96.566h6.303v18.431H36.734z"/>
	<path d="M54.365,115.157l-0.127,5.407H38.783V96.566h15.039l0.127,5.503h-8.927v3.712h7.359v5.023h-7.359v4.353H54.365z"/>
	<path d="M57.022,96.566h6.432v23.998h-6.432V96.566z"/>
	<path d="M81.021,120.564l-7.168-11.071l-1.344-2.208l-0.064,0.032l0.032,2.592v10.655h-5.503V96.566h5.247l7.712,12.447
		l0.063-0.032l-0.063-2.56l0.031-9.855h5.504v23.998H81.021z"/>
	<path d="M104.316,115.157l-0.128,5.407H88.734V96.566h15.038l0.128,5.503h-8.927v3.712h7.359v5.023h-7.359v4.353H104.316z"/>
	<path d="M120.765,120.564l-7.167-11.071l-1.345-2.208l-0.063,0.032l0.032,2.592v10.655h-5.504V96.566h5.248l7.711,12.447
		l0.064-0.032l-0.064-2.56l0.032-9.855h5.504v23.998H120.765z"/>
	<path d="M9.087,145.109H7.104v7.455h-6.24v-23.998h8.224c6.655,0,9.312,2.592,9.312,8.447
		C18.398,142.197,15.807,145.109,9.087,145.109z M9.087,133.782H7.104v6.367h1.983c2.048,0,2.815-0.48,2.815-3.168
		C11.902,134.39,11.295,133.782,9.087,133.782z"/>
	<path d="M34.781,142.741l4.672,9.823h-7.23l-3.2-8.575H26.91v8.575h-6.239v-23.998h8.288c6.079,0,9.087,2.304,9.087,7.711
		C38.046,139.478,36.894,141.846,34.781,142.741z M29.086,133.75H26.91v5.535h2.145c1.824,0,2.463-0.447,2.463-2.783
		C31.518,134.326,30.91,133.75,29.086,133.75z"/>
	<path d="M56.605,147.157l-0.128,5.407H41.022v-23.998h15.039l0.128,5.503h-8.928v3.712h7.359v5.023h-7.359v4.353H56.605z"/>
	<path d="M59.262,128.566h6.432v23.998h-6.432V128.566z"/>
	<path d="M75.485,152.98c-2.528,0-5.023-0.576-6.976-1.664l0.801-5.312c1.951,0.992,3.936,1.6,6.016,1.6
		c1.983,0,2.751-0.672,2.751-1.951c0-3.072-9.535-2.112-9.535-9.951c0-4.192,2.56-7.52,8.479-7.52c2.207,0,4.576,0.416,6.303,1.151
		l-0.703,5.216c-1.824-0.544-3.648-0.864-5.184-0.864c-2.368,0-2.88,0.704-2.88,1.729c0,3.104,9.535,2.048,9.535,9.887
		C84.093,150.037,80.893,152.98,75.485,152.98z"/>
	<path d="M88.638,152.948c-2.24,0-3.231-0.863-3.231-3.04c0-1.951,0.991-3.071,3.231-3.071c2.239,0,3.199,1.12,3.199,3.071
		C91.837,151.732,90.877,152.948,88.638,152.948z"/>
</g>
</svg>
