<?xml version="1.0" encoding="utf-8"?>
<!-- Generator: Adobe Illustrator 16.0.4, SVG Export Plug-In . SVG Version: 6.00 Build 0)  -->
<!DOCTYPE svg PUBLIC "-//W3C//DTD SVG 1.1//EN" "http://www.w3.org/Graphics/SVG/1.1/DTD/svg11.dtd">
<svg version="1.1" id="Ebene_1" xmlns="http://www.w3.org/2000/svg" xmlns:xlink="http://www.w3.org/1999/xlink" x="0px" y="0px"
	 width="96px" height="32px" viewBox="0 0 96 32" enable-background="new 0 0 96 32" xml:space="preserve">
<g>
	<rect fill="#238C96" width="96" height="32"/>
	<g>
		<path fill="#FFFFFF" d="M13.931,20.929v-1.522l2.866-4.558l0.528-0.792l-0.013-0.023h-3.31l0.06-2.1h6.009v1.68l-2.771,4.413
			l-0.528,0.779l0.012,0.036h3.311l-0.035,2.087H13.931z"/>
		<path fill="#FFFFFF" d="M27.738,17.871c0,2.11-1.128,3.214-3.431,3.214s-3.465-1.104-3.465-3.214v-5.938h2.35v5.889
			c0,0.804,0.312,1.164,1.115,1.164c0.816,0,1.092-0.336,1.092-1.164v-5.889h2.339V17.871z"/>
		<path fill="#FFFFFF" d="M34.171,17.247l1.752,3.682h-2.711l-1.199-3.214h-0.792v3.214h-2.339v-8.995h3.106
			c2.278,0,3.406,0.864,3.406,2.891C35.395,16.023,34.963,16.911,34.171,17.247z M32.036,13.877h-0.815v2.075h0.804
			c0.684,0,0.924-0.168,0.924-1.044C32.948,14.093,32.72,13.877,32.036,13.877z"/>
		<path fill="#FFFFFF" d="M43.854,19.357h-2.445l-0.349,1.571h-2.482l2.663-8.995h2.865l2.711,8.995h-2.614L43.854,19.357z
			 M42.428,14.824l-0.575,2.579h1.57l-0.575-2.579l-0.18-0.959h-0.036L42.428,14.824z"/>
		<path fill="#FFFFFF" d="M52.027,20.929l-1.691-3.658h-0.575v3.658h-2.339v-8.995h2.339v3.479h0.623l1.668-3.479h2.626
			l-2.159,4.306l2.268,4.689H52.027z"/>
		<path fill="#FFFFFF" d="M59.372,14.033v6.896h-2.387v-6.896h-2.039l0.047-2.1h6.369l0.048,2.1H59.372z"/>
		<path fill="#FFFFFF" d="M62.229,11.934h2.41v8.995h-2.41V11.934z"/>
		<path fill="#FFFFFF" d="M69.487,21.085c-2.59,0-3.766-1.367-3.766-4.653c0-3.299,1.127-4.642,3.766-4.642s3.766,1.343,3.766,4.642
			C73.253,19.813,72.126,21.085,69.487,21.085z M69.476,13.889c-0.984,0-1.295,0.408-1.295,2.543c0,2.146,0.323,2.578,1.318,2.578
			c0.996,0,1.295-0.443,1.295-2.578C70.794,14.284,70.495,13.889,69.476,13.889z"/>
		<path fill="#FFFFFF" d="M79.507,20.929l-2.688-4.149l-0.504-0.827l-0.023,0.012l0.012,0.972v3.993h-2.062v-8.995h1.967
			l2.891,4.666l0.023-0.013l-0.023-0.959l0.012-3.694h2.062v8.995H79.507z"/>
	</g>
</g>
</svg>
