<?xml version="1.0" encoding="utf-8"?>
<!-- Generator: Adobe Illustrator 16.0.4, SVG Export Plug-In . SVG Version: 6.00 Build 0)  -->
<!DOCTYPE svg PUBLIC "-//W3C//DTD SVG 1.1//EN" "http://www.w3.org/Graphics/SVG/1.1/DTD/svg11.dtd">
<svg version="1.1" id="Ebene_1" xmlns="http://www.w3.org/2000/svg" xmlns:xlink="http://www.w3.org/1999/xlink" x="0px" y="0px"
	 width="87.922px" height="120.005px" viewBox="0 0 87.922 120.005" enable-background="new 0 0 87.922 120.005"
	 xml:space="preserve">
<g>
	<path d="M7.235,7.603c0,3.521-1.793,4.626-4.61,4.626c-0.896,0-1.616-0.16-2.192-0.416l0.159-2.609
		C0.929,9.38,1.457,9.492,2.081,9.492c1.312,0,1.952-0.512,1.952-1.953V0h3.202V7.603z"/>
	<path d="M16.659,9.3l-0.063,2.705H8.864V0h7.522l0.064,2.753h-4.466V4.61h3.682v2.513h-3.682V9.3H16.659z"/>
	<path d="M23.09,2.801v9.204h-3.185V2.801h-2.722L17.248,0h8.5l0.063,2.801H23.09z"/>
	<path d="M26.336,12.005V9.972l3.826-6.083l0.704-1.057L30.85,2.801h-4.418L26.512,0h8.02v2.241l-3.697,5.891L30.13,9.172
		l0.017,0.048h4.417l-0.048,2.785H26.336z"/>
	<path d="M41.074,2.801v9.204H37.89V2.801h-2.722L35.232,0h8.5l0.063,2.801H41.074z"/>
	<path d="M8.035,20.897c-0.527-0.192-1.248-0.32-2-0.32c-1.777,0-2.226,0.752-2.226,3.377c0,2.769,0.497,3.537,2.272,3.537
		c0.736,0,1.426-0.144,1.985-0.4l0.288,2.545c-0.721,0.352-1.809,0.576-2.736,0.576c-3.426,0-5.091-1.953-5.091-6.274
		c0-4.034,1.616-6.146,5.282-6.146c0.848,0,1.889,0.192,2.529,0.448L8.035,20.897z"/>
	<path d="M15.875,27.908h-3.266l-0.465,2.097H8.832L12.385,18h3.826l3.617,12.005h-3.489L15.875,27.908z M13.97,21.857l-0.769,3.441
		h2.098l-0.769-3.441l-0.24-1.28h-0.048L13.97,21.857z"/>
	<path d="M23.793,30.213c-1.264,0-2.513-0.288-3.488-0.832l0.399-2.657c0.977,0.496,1.969,0.8,3.009,0.8
		c0.993,0,1.377-0.336,1.377-0.977c0-1.537-4.77-1.056-4.77-4.978c0-2.097,1.28-3.761,4.241-3.761c1.104,0,2.289,0.208,3.153,0.576
		l-0.352,2.609c-0.912-0.272-1.825-0.432-2.594-0.432c-1.184,0-1.44,0.352-1.44,0.864c0,1.553,4.771,1.024,4.771,4.946
		C28.1,28.74,26.498,30.213,23.793,30.213z"/>
	<path d="M35.25,30.005v-4.706h-2.913v4.706h-3.121V18h3.121v4.498h2.913V18h3.138v12.005H35.25z"/>
	<path d="M44.674,30.005H40V18h4.706c2.577,0,3.89,1.201,3.89,3.105c0,1.264-0.576,2.081-1.473,2.513v0.032
		c1.2,0.4,1.84,1.329,1.84,2.817C48.963,28.628,47.667,30.005,44.674,30.005z M44.578,20.625h-1.553v2.113h1.584
		c0.721,0,0.977-0.272,0.977-1.088C45.586,20.865,45.314,20.625,44.578,20.625z M44.658,25.075h-1.633v2.369h1.696
		c0.784,0,1.073-0.256,1.073-1.201C45.795,25.411,45.538,25.075,44.658,25.075z"/>
	<path d="M56.178,27.908h-3.265l-0.464,2.097h-3.314L52.689,18h3.825l3.617,12.005h-3.489L56.178,27.908z M54.273,21.857
		l-0.768,3.441h2.096l-0.768-3.441l-0.24-1.28h-0.048L54.273,21.857z"/>
	<path d="M67.666,20.897c-0.527-0.192-1.248-0.32-2-0.32c-1.777,0-2.226,0.752-2.226,3.377c0,2.769,0.497,3.537,2.272,3.537
		c0.736,0,1.426-0.144,1.985-0.4l0.288,2.545c-0.721,0.352-1.809,0.576-2.736,0.576c-3.426,0-5.091-1.953-5.091-6.274
		c0-4.034,1.616-6.146,5.282-6.146c0.848,0,1.889,0.192,2.529,0.448L67.666,20.897z"/>
	<path d="M75.282,30.005l-2.257-4.882h-0.769v4.882h-3.121V18h3.121v4.642h0.833L75.314,18h3.505l-2.881,5.747l3.025,6.258H75.282z"
		/>
	<path d="M5.522,48.005H0.849V36h4.706c2.576,0,3.889,1.201,3.889,3.105c0,1.264-0.576,2.081-1.472,2.513v0.032
		c1.2,0.4,1.841,1.329,1.841,2.817C9.812,46.628,8.516,48.005,5.522,48.005z M5.426,38.625H3.874v2.113h1.585
		c0.72,0,0.976-0.272,0.976-1.088C6.435,38.865,6.162,38.625,5.426,38.625z M5.506,43.075H3.874v2.369H5.57
		c0.785,0,1.072-0.256,1.072-1.201C6.643,43.411,6.387,43.075,5.506,43.075z"/>
	<path d="M18.852,45.3l-0.064,2.705h-7.73V36h7.523l0.063,2.753h-4.466v1.857h3.682v2.513h-3.682V45.3H18.852z"/>
	<path d="M20.177,36h3.218v12.005h-3.218V36z"/>
	<path d="M28.594,36l2.113,6.066l0.399,1.232h0.048l0.4-1.216L33.699,36h3.458v12.005h-2.865v-5.026l0.032-1.297l-0.049-0.016
		l-0.399,1.249l-1.776,5.09h-2.033l-1.761-5.074l-0.4-1.249l-0.032,0.016l0.016,1.296v5.01h-2.736V36H28.594z"/>
	<path d="M48.53,48.005l-2.257-4.882h-0.769v4.882h-3.121V36h3.121v4.642h0.833L48.562,36h3.505l-2.881,5.747l3.025,6.258H48.53z"/>
	<path d="M59.282,45.908h-3.265l-0.465,2.097h-3.313L55.793,36h3.826l3.617,12.005h-3.49L59.282,45.908z M57.377,39.857
		l-0.768,3.441h2.097l-0.769-3.441l-0.24-1.28h-0.048L57.377,39.857z"/>
	<path d="M72.628,43.923c0,2.817-1.505,4.29-4.578,4.29s-4.626-1.473-4.626-4.29V36h3.138v7.859c0,1.072,0.416,1.552,1.488,1.552
		c1.089,0,1.456-0.448,1.456-1.552V36h3.122V43.923z"/>
	<path d="M77.281,38.801v2.113h3.665l-0.017,2.657h-3.648v4.434h-3.138V36h7.507l0.049,2.801H77.281z"/>
	<path d="M8.644,63.3L8.58,66.005H0.849V54h7.522l0.064,2.753H3.97v1.857h3.682v2.513H3.97V63.3H8.644z"/>
	<path d="M9.969,54h3.217v12.005H9.969V54z"/>
	<path d="M21.971,66.005l-3.585-5.538l-0.673-1.104l-0.031,0.016l0.016,1.296v5.33h-2.753V54h2.625l3.857,6.227l0.032-0.016
		l-0.032-1.28L21.443,54h2.752v12.005H21.971z"/>
	<path d="M33.619,63.3l-0.064,2.705h-7.73V54h7.523l0.063,2.753h-4.466v1.857h3.682v2.513h-3.682V63.3H33.619z"/>
	<path d="M37.953,66.213c-1.264,0-2.513-0.288-3.488-0.832l0.399-2.657c0.977,0.496,1.969,0.8,3.009,0.8
		c0.993,0,1.377-0.336,1.377-0.977c0-1.537-4.77-1.056-4.77-4.978c0-2.097,1.28-3.761,4.241-3.761c1.104,0,2.289,0.208,3.153,0.576
		l-0.352,2.609c-0.912-0.272-1.825-0.432-2.594-0.432c-1.184,0-1.44,0.352-1.44,0.864c0,1.553,4.771,1.024,4.771,4.946
		C42.26,64.74,40.658,66.213,37.953,66.213z"/>
	<path d="M7.043,81.908H3.777l-0.464,2.097H0L3.554,72h3.825l3.617,12.005H7.508L7.043,81.908z M5.139,75.857L4.37,79.299h2.097
		l-0.768-3.441l-0.24-1.28H5.41L5.139,75.857z"/>
	<path d="M17.939,84.005l-2.258-4.882h-0.768v4.882h-3.121V72h3.121v4.642h0.832L17.971,72h3.506l-2.881,5.747l3.025,6.258H17.939z"
		/>
	<path d="M27.73,74.801v9.204h-3.186v-9.204h-2.721L21.888,72h8.499l0.064,2.801H27.73z"/>
	<path d="M31.536,72h3.218v12.005h-3.218V72z"/>
	<path d="M41.218,84.213c-3.458,0-5.026-1.825-5.026-6.21c0-4.402,1.505-6.194,5.026-6.194c3.521,0,5.026,1.792,5.026,6.194
		C46.244,82.516,44.738,84.213,41.218,84.213z M41.201,74.609c-1.312,0-1.729,0.544-1.729,3.394c0,2.865,0.432,3.441,1.761,3.441
		s1.729-0.592,1.729-3.441C42.963,75.137,42.562,74.609,41.201,74.609z"/>
	<path d="M54.578,84.005l-3.585-5.538l-0.673-1.104l-0.031,0.016l0.016,1.296v5.33h-2.753V72h2.625l3.857,6.227l0.032-0.016
		l-0.032-1.28L54.051,72h2.752v12.005H54.578z"/>
	<path d="M61.568,84.213c-1.264,0-2.513-0.288-3.488-0.832l0.399-2.657c0.977,0.496,1.969,0.8,3.009,0.8
		c0.993,0,1.377-0.336,1.377-0.977c0-1.537-4.77-1.056-4.77-4.978c0-2.097,1.28-3.761,4.241-3.761c1.104,0,2.289,0.208,3.153,0.576
		l-0.352,2.609c-0.912-0.272-1.825-0.432-2.594-0.432c-1.184,0-1.44,0.352-1.44,0.864c0,1.553,4.771,1.024,4.771,4.946
		C65.875,82.74,64.273,84.213,61.568,84.213z"/>
	<path d="M71.232,76.962v2.081h-4.465v-2.081H71.232z"/>
	<path d="M9.332,101.572c-0.832,0.4-2.193,0.656-3.426,0.656c-3.969,0-5.378-2.128-5.378-6.226c0-4.194,1.649-6.211,5.522-6.211
		c1.057,0,2.257,0.192,3.121,0.528l-0.288,2.673c-0.784-0.288-1.792-0.464-2.657-0.464c-1.969,0-2.417,0.736-2.417,3.441
		c0,2.849,0.464,3.473,2.017,3.473c0.24,0,0.496-0.016,0.721-0.063v-3.922h2.785V101.572z"/>
	<path d="M18.547,99.3l-0.063,2.705h-7.731V90h7.523l0.064,2.753h-4.467v1.857h3.682v2.513h-3.682V99.3H18.547z"/>
	<path d="M26.803,97.091l2.337,4.914h-3.617l-1.601-4.29h-1.057v4.29h-3.121V90h4.146c3.042,0,4.546,1.152,4.546,3.857
		C28.436,95.458,27.859,96.643,26.803,97.091z M23.953,92.593h-1.088v2.77h1.072c0.912,0,1.232-0.225,1.232-1.393
		C25.17,92.881,24.866,92.593,23.953,92.593z"/>
	<path d="M36.114,99.908H32.85l-0.465,2.097h-3.313L32.625,90h3.826l3.617,12.005h-3.49L36.114,99.908z M32.993,89.424
		c-0.784,0-1.185-0.304-1.185-1.072c0-0.721,0.4-1.104,1.185-1.104c0.816,0,1.185,0.384,1.185,1.104
		C34.178,89.056,33.81,89.424,32.993,89.424z M34.209,93.857l-0.768,3.441h2.097l-0.769-3.441l-0.24-1.28h-0.048L34.209,93.857z
		 M36.051,89.424c-0.785,0-1.186-0.304-1.186-1.072c0-0.721,0.4-1.104,1.186-1.104c0.816,0,1.184,0.384,1.184,1.104
		C37.234,89.056,36.867,89.424,36.051,89.424z"/>
	<path d="M45.025,92.801v9.204h-3.185v-9.204h-2.722L39.184,90h8.5l0.063,2.801H45.025z"/>
	<path d="M51.744,102.213c-1.264,0-2.513-0.288-3.488-0.832l0.399-2.657c0.977,0.496,1.969,0.8,3.009,0.8
		c0.993,0,1.377-0.336,1.377-0.976c0-1.537-4.77-1.057-4.77-4.979c0-2.097,1.28-3.762,4.241-3.762c1.104,0,2.289,0.208,3.153,0.576
		l-0.352,2.609c-0.912-0.272-1.825-0.432-2.594-0.432c-1.184,0-1.44,0.352-1.44,0.864c0,1.553,4.771,1.024,4.771,4.945
		C56.051,100.74,54.449,102.213,51.744,102.213z"/>
	<path d="M8.644,117.3l-0.063,2.705H0.849V108h7.522l0.064,2.753H3.97v1.857h3.682v2.513H3.97v2.177H8.644z"/>
	<path d="M16.899,115.091l2.337,4.914h-3.617l-1.601-4.29h-1.057v4.29H9.841V108h4.146c3.041,0,4.546,1.152,4.546,3.857
		C18.532,113.458,17.956,114.643,16.899,115.091z M14.051,110.593h-1.089v2.77h1.073c0.912,0,1.232-0.225,1.232-1.393
		C15.268,110.881,14.963,110.593,14.051,110.593z"/>
	<path d="M26.051,120.005v-4.706h-2.913v4.706h-3.121V108h3.121v4.498h2.913V108h3.138v12.005H26.051z"/>
	<path d="M36.995,117.908H33.73l-0.465,2.097h-3.313L33.506,108h3.826l3.617,12.005h-3.49L36.995,117.908z M35.09,111.857
		l-0.768,3.441h2.097l-0.769-3.441l-0.24-1.28h-0.048L35.09,111.857z"/>
	<path d="M48.979,117.22l-0.08,2.785h-7.155V108h3.154v9.22H48.979z"/>
	<path d="M53.858,110.801v9.204h-3.185v-9.204h-2.722L48.016,108h8.5l0.064,2.801H53.858z"/>
	<path d="M65.331,117.3l-0.063,2.705h-7.731V108h7.522l0.064,2.753h-4.466v1.857h3.682v2.513h-3.682v2.177H65.331z"/>
	<path d="M73.555,120.005l-3.585-5.538l-0.673-1.104l-0.031,0.016l0.016,1.297v5.33h-2.753V108h2.625l3.857,6.227l0.032-0.016
		l-0.032-1.281l0.017-4.93h2.752v12.005H73.555z"/>
	<path d="M78.688,120.197c-1.12,0-1.616-0.433-1.616-1.521c0-0.977,0.496-1.537,1.616-1.537s1.601,0.561,1.601,1.537
		C80.289,119.589,79.809,120.197,78.688,120.197z"/>
	<path d="M84.497,107.536l0.208,1.553l1.473-0.353l0.465,1.312l-1.426,0.688l0.816,1.36l-1.008,0.769l-1.185-1.152l-1.216,1.168
		l-1.041-0.736l0.784-1.408l-1.425-0.673l0.496-1.328l1.489,0.353l0.224-1.553H84.497z"/>
</g>
</svg>
