<?xml version="1.0" encoding="utf-8"?>
<!-- Generator: Adobe Illustrator 27.2.0, SVG Export Plug-In . SVG Version: 6.00 Build 0)  -->
<svg version="1.1" id="Ebene_1" xmlns="http://www.w3.org/2000/svg" xmlns:xlink="http://www.w3.org/1999/xlink" x="0px" y="0px"
	 viewBox="0 0 643.8 600" style="enable-background:new 0 0 643.8 600;" xml:space="preserve">
<style type="text/css">
	.st0{fill-rule:evenodd;clip-rule:evenodd;}
</style>
<text transform="matrix(0.9919 0 0 1 -430.8037 362.9277)" style="fill:#FFFFFF; font-family:'ClanPro-NarrBlack'; font-size:12.2353px;">Mehr infos</text>
<path class="st0" d="M568.8,409.3l-4.2-79.5h29.8l-4.1,79.5H568.8z M554.6,417.6l-0.6,25.5h-73V329.8h71l0.6,26h-42.2v17.5h34.8
	v23.7h-34.8v20.6H554.6z M470.5,408.9c0,22.4-15.1,36.3-40.6,36.3c-11.9,0-23.7-2.7-32.9-7.9l3.8-25.1c9.2,4.7,18.6,7.6,28.4,7.6
	c9.4,0,13-3.2,13-9.2c0-14.5-45-10-45-47c0-19.8,12.1-35.5,40-35.5c10.4,0,21.6,2,29.8,5.4l-3.3,24.6c-8.6-2.6-17.2-4.1-24.5-4.1
	c-11.2,0-13.6,3.3-13.6,8.2C425.4,376.8,470.5,371.8,470.5,408.9z M449.6,266.5l-0.6,25.5h-73V178.7h71l0.6,26h-42.2v17.5h34.8V246
	h-34.8v20.6H449.6z M324.3,225.1H359l-0.2,25.1h-34.5v41.9h-29.6V178.7h70.9l0.5,26.4h-41.7V225.1z M283.4,266.5l-0.6,25.5h-73
	V178.7h71l0.6,26h-42.2v17.5H274V246h-34.8v20.6H283.4z M162.8,178.7h30.4v113.3h-30.4V178.7z M116.3,408h-9.4v35.2H77.4V329.8h38.8
	c31.4,0,44,12.2,44,39.9C160.3,394.2,148,408,116.3,408z M116.3,354.5h-9.4v30.1h9.4c9.7,0,13.3-2.3,13.3-15
	C129.6,357.3,126.7,354.5,116.3,354.5z M126.9,292.1H96.8v-86.9H71.1l0.6-26.4H152l0.6,26.4h-25.7V292.1z M253,366.3
	c0,15.1-5.4,26.3-15.4,30.5l22.1,46.4h-34.2l-15.1-40.5h-10v40.5H171V329.8h39.1C238.8,329.8,253,340.7,253,366.3z M200.4,380.5
	h10.1c8.6,0,11.6-2.1,11.6-13.1c0-10.3-2.9-13-11.5-13h-10.3V380.5z M338.7,355.8h-42.2v17.5h34.8v23.7h-34.8v20.6h44.1l-0.6,25.5
	h-73V329.8h71L338.7,355.8z M383.6,443.2h-30.4V329.8h30.4V443.2z M580,418.7c10.3,0,14.8,5,14.8,13.3c0,7.7-4.5,13-14.8,13
	c-10.1,0-14.7-3.8-14.7-13C565.4,423.7,569.9,418.7,580,418.7z"/>
</svg>
