<svg enable-background="new 0 0 643.8 600" viewBox="0 0 643.8 600" xmlns="http://www.w3.org/2000/svg"><text fill="#fff" font-family="ClanPro-NarrBlack" font-size="12.2353" transform="matrix(.9919 0 0 1 -430.8037 362.9277)">Mehr infos</text><path clip-rule="evenodd" d="m602.2 235.4v33.2h-11.5v-33.2h-9.8l.2-10.1h30.6l.2 10.1zm-32.3-12.2c-2.8 0-4.3-1.1-4.3-3.9 0-2.6 1.4-4 4.3-4s4.3 1.4 4.3 4c-.1 2.6-1.4 3.9-4.3 3.9zm-11 0c-2.8 0-4.3-1.1-4.3-3.9 0-2.6 1.4-4 4.3-4s4.3 1.4 4.3 4c-.1 2.6-1.4 3.9-4.3 3.9zm-1.4 2.1h13.8l13 43.3h-12.6l-1.7-7.6h-11.8l-1.7 7.6h-11.5-.2-12.8l-5.8-15.5h-3.8v15.5h-11.2v-43.3h14.8c11 0 16.4 4.2 16.4 13.9 0 5.8-2.1 10-5.9 11.7l8.3 17.4zm10.5 26.3-2.8-12.4-.9-4.6h-.2l-1 4.6-2.8 12.4zm-41.7-17h-3.9v10h3.9c3.3 0 4.4-.8 4.4-5-.1-3.9-1.1-5-4.4-5zm-2.3 49.7-2 8.9c-1.3-.5-2.8-.7-4.6-.7-4.7 0-7.3 1.7-8.5 5.8h11.8l-1.2 5.7h-11.4v2.1h10.7l-1.2 5.5h-8.9c1.3 4.8 4.2 6.4 8.5 6.4 2 0 4-.6 5.9-1.3l.7 8.1c-2.5 1.3-5.6 2-9.6 2-9.6 0-15.3-4.9-17.1-15.2h-4.1l.1-5.5h3.7v-2.1h-3.8l-.1-5.7h4.3c1.8-9.5 8.1-15.4 17.6-15.4 3.9-.1 6.7.5 9.2 1.4zm-17.2-25.5-.2 9.7h-27.9v-43.3h27.1l.2 9.9h-16.1v6.7h13.3v9.1h-13.3v7.8h16.9zm-17.1 46c0 15.5-4.8 22-15.3 22-10.7 0-15.1-6.5-15.1-22 0-16.5 4.4-22.3 15.2-22.3 10.6 0 15.2 5.8 15.2 22.3zm-15.2-12.7c-3.1 0-4.4 1.6-4.4 12.6 0 11.6 1.4 12.8 4.4 12.8s4.3-1.5 4.3-12.8c.1-11.2-1.3-12.6-4.3-12.6zm-13.3-22.8c-14.3 0-19.4-7.7-19.4-22.4 0-15.1 5.9-22.4 19.9-22.4 3.8 0 8.1.7 11.2 1.9l-1 9.6c-2.8-1-6.5-1.7-9.6-1.7-7.1 0-8.7 2.7-8.7 12.4 0 10.3 1.7 12.5 7.3 12.5.9 0 1.8-.1 2.6-.2v-14.1h10v22c-3 1.5-7.9 2.4-12.3 2.4zm-5.5 35.5c0 15.5-4.8 22-15.3 22-10.7 0-15.1-6.5-15.1-22 0-16.5 4.4-22.3 15.2-22.3 10.6 0 15.2 5.8 15.2 22.3zm-15.1-12.7c-3.1 0-4.4 1.6-4.4 12.6 0 11.6 1.4 12.8 4.4 12.8s4.3-1.5 4.3-12.8c0-11.2-1.3-12.6-4.3-12.6zm-17.2-22.8c-4.6 0-9.1-1-12.6-3l1.4-9.6c3.5 1.8 7.1 2.9 10.8 2.9 3.6 0 5-1.2 5-3.5 0-5.5-17.2-3.8-17.2-17.9 0-7.6 4.6-13.6 15.3-13.6 4 0 8.2.7 11.4 2.1l-1.3 9.4c-3.3-1-6.6-1.6-9.3-1.6-4.3 0-5.2 1.3-5.2 3.1 0 5.6 17.2 3.7 17.2 17.8 0 8.6-5.7 13.9-15.5 13.9zm-38.1-20.7-2.4-4-.1.1.1 4.7v19.2h-9.9v-43.3h9.5l13.9 22.4.1-.1-.1-4.6.1-17.8h9.9v43.3h-8zm-35.3 20.7c-12.5 0-18.1-6.6-18.1-22.4 0-15.9 5.4-22.3 18.1-22.3s18.1 6.5 18.1 22.3c.1 16.3-5.4 22.4-18.1 22.4zm0-34.6c-4.7 0-6.2 2-6.2 12.2 0 10.3 1.6 12.4 6.3 12.4s6.2-2.1 6.2-12.4-1.4-12.2-6.3-12.2zm-34.8-9.4h11.6v43.3h-11.6zm-13.8 43.2h-11.5v-33.2h-9.8l.2-10.1h30.7l.2 10.1h-9.8zm-16.5 42.8v-28.3h11.2v28.6c0 10.2-5.4 15.5-16.5 15.5s-16.7-5.3-16.7-15.5v-28.6h11.3v28.3c0 3.9 1.5 5.6 5.4 5.6 4 0 5.3-1.6 5.3-5.6zm-18.8-42.8-8.1-17.6h-2.8v17.6h-11.2v-43.3h11.2v16.8h3l8-16.7h12.6l-10.3 20.7 10.9 22.6h-13.3zm-39.3-7.5h-11.8l-1.7 7.6h-11.9l12.8-43.3h13.8l13 43.3h-12.6zm-4.8-21.8-.9-4.6h-.1l-1 4.6-2.8 12.4h7.6zm-43.7 29.3h-11.5v-33.2h-9.8l.2-10.1h30.6l.2 10.1h-9.8v33.2zm-23.5-10-.2 10h-29.5v-7.3l13.8-21.9 2.5-3.8-.1-.1h-15.9l.3-10.1h28.9v8.1l-13.3 21.2-2.5 3.7.1.2zm-23.8 52.8v-28.3h11.2v28.6c0 10.2-5.4 15.5-16.5 15.5s-16.7-5.3-16.7-15.5v-28.6h11.3v28.3c0 3.9 1.5 5.6 5.4 5.6 4 0 5.3-1.6 5.3-5.6zm-17.6-42.8h-11.4v-33.2h-9.8l.2-10.1h30.6l.2 10.1h-9.8zm-23.2-9.7-.2 9.7h-27.8v-43.3h27.1l.2 9.9h-16.1v6.7h13.3v9.1h-13.3v7.8h16.8zm-50.5 10.5c-3.2 0-5.8-.6-7.9-1.5l.6-9.4c1.2.6 3.1 1 5.4 1 4.7 0 7-1.8 7-7v-27.2h11.5v27.4c0 12.8-6.5 16.7-16.6 16.7zm11.4 70.6c3.1 0 6.8.7 9.1 1.6l-1.1 9.6c-1.9-.7-4.5-1.2-7.2-1.2-6.4 0-8 2.7-8 12.2 0 10 1.8 12.7 8.2 12.7 2.7 0 5.1-.5 7.2-1.4l1 9.2c-2.6 1.3-6.5 2.1-9.9 2.1-12.3 0-18.3-7-18.3-22.6 0-14.6 5.8-22.2 19-22.2zm4.3-13.7-8.1-17.6h-2.8v17.6h-11.2v-43.2h11.2v16.7h3l8-16.7h12.6l-10.4 20.7 10.9 22.6h-13.2zm33.2 14.4 13 43.3h-12.5l-1.7-7.6h-11.7l-1.7 7.6h-12l12.8-43.3zm-3.3 26.3-2.8-12.4-.9-4.6h-.2l-1 4.6-2.8 12.4zm8.9-48.2h-11.8l-1.7 7.6h-11.9l12.8-43.3h13.8l13 43.3h-12.6zm-4.9-21.8-.9-4.6h-.2l-1 4.6-2.8 12.4h7.6zm26.4 78.1c3.6 0 5-1.2 5-3.5 0-5.5-17.2-3.8-17.2-17.9 0-7.6 4.6-13.6 15.3-13.6 4 0 8.2.7 11.4 2.1l-1.3 9.4c-3.3-1-6.6-1.6-9.3-1.6-4.3 0-5.2 1.3-5.2 3.1 0 5.6 17.2 3.7 17.2 17.8 0 8.5-5.8 13.8-15.5 13.8-4.6 0-9.1-1-12.6-3l1.4-9.6c3.5 1.9 7 3 10.8 3zm31.1-18.2h10.5v-16.2h11.3v43.3h-11.3v-17h-10.5v17h-11.2v-43.3h11.2zm12.3-30.6h-11.3v-43.2h27.1l.2 10.1h-15.9v7.6h13.2l-.1 9.6h-13.2zm46.3 25.6c0 4.6-2.1 7.5-5.3 9.1v.1c4.3 1.4 6.6 4.8 6.6 10.2 0 7.8-4.7 12.7-15.5 12.7h-16.8v-43.3h17c9.3 0 14 4.4 14 11.2zm-20.1 22.9h6.1c2.8 0 3.9-.9 3.9-4.3 0-3-.9-4.2-4.1-4.2h-5.9zm0-24.6v7.6h5.7c2.6 0 3.5-1 3.5-3.9 0-2.8-1-3.7-3.6-3.7zm21.6-33.6-.2 9.7h-27.9v-43.2h27.1l.2 9.9h-16.1v6.7h13.3v9.1h-13.3v7.8zm27.7-33.5h9.9v43.3h-8l-12.9-20-2.4-4-.1.1.1 4.7v19.2h-9.9v-43.3h9.5l13.9 22.4.1-.1-.1-4.6zm-.7 57.6 13 43.3h-12.6l-1.7-7.6h-11.6l-1.7 7.6h-11.9l12.8-43.3zm-3.3 26.3-2.8-12.4-.9-4.6h-.2l-1 4.6-2.8 12.4zm35.5-27c3.1 0 6.8.7 9.1 1.6l-1.1 9.6c-1.9-.7-4.5-1.2-7.2-1.2-6.4 0-8 2.7-8 12.2 0 10 1.8 12.7 8.2 12.7 2.7 0 5.1-.5 7.2-1.4l1 9.2c-2.6 1.3-6.5 2.1-9.9 2.1-12.3 0-18.3-7-18.3-22.6 0-14.6 5.8-22.2 19-22.2zm24.6 17.5h3l8-16.7h12.6l-10.3 20.6 10.9 22.6h-13.3l-8.1-17.6h-2.8v17.6h-11.2v-43.3h11.2zm20.9-55.1-.1.1.1 4.7v19.2h-9.9v-43.3h9.5l13.9 22.4.1-.1-.1-4.6.1-17.8h9.9v43.3h-8l-12.9-20zm30.4 72.7c3.6 0 5-1.2 5-3.5 0-5.5-17.2-3.8-17.2-17.9 0-7.6 4.6-13.6 15.3-13.6 4 0 8.2.7 11.4 2.1l-1.3 9.4c-3.3-1-6.6-1.6-9.3-1.6-4.3 0-5.2 1.3-5.2 3.1 0 5.6 17.2 3.7 17.2 17.8 0 8.5-5.8 13.8-15.5 13.8-4.6 0-9.1-1-12.6-3l1.4-9.6c3.5 1.9 7.1 3 10.8 3zm14.5-48.8h-15.6v-43.2h15.4c13.2 0 18.5 6.1 18.5 21.4 0 15.8-6.1 21.8-18.3 21.8zm-.2-33.3h-4.2v23.4h4.2c5 0 6.6-1.5 6.6-12.1.1-9.5-1.5-11.3-6.6-11.3zm17.6 91h-11.6v-43.3h11.6zm24.3-44c3.1 0 6.8.7 9.1 1.6l-1.1 9.6c-1.9-.7-4.5-1.2-7.2-1.2-6.4 0-8 2.7-8 12.2 0 10 1.8 12.7 8.2 12.7 2.7 0 5.1-.5 7.2-1.4l1 9.2c-2.6 1.3-6.5 2.1-9.9 2.1-12.3 0-18.3-7-18.3-22.6-.1-14.6 5.7-22.2 19-22.2zm-7.4-28.5 15-28.5h13.2v26.4h3.5l-.2 9.1h-3.3v7.7h-10.2v-7.7h-17.1zm18.3-2 .4-10.8.3-4.7-.1-.1-7.7 15.6zm13.6 47.4h10.5v-16.2h11.3v43.3h-11.3v-17h-10.5v17h-11.2v-43.3h11.2zm55-6.2h-16.1v6.7h13.3v9.1h-13.3v7.8h16.8l-.2 9.7h-27.9v-43.3h27.1zm36.4 3.9c0 5.8-2.1 10-5.9 11.7l8.4 17.7h-13l-5.8-15.5h-3.8v15.5h-11.2v-43.3h14.9c11 0 16.4 4.2 16.4 13.9zm-20.1 5.5h3.9c3.3 0 4.4-.8 4.4-5 0-3.9-1.1-5-4.4-5h-3.9zm48.8 3.1.1-.1-.1-4.6.1-17.8h9.9v43.3h-8l-12.9-20-2.4-4-.1.1.1 4.7v19.2h-9.9v-43.3h9.5zm20.5 10.5c4 0 5.8 2 5.8 5.5 0 3.3-1.7 5.5-5.8 5.5-4 0-5.8-1.6-5.8-5.5 0-3.5 1.8-5.5 5.8-5.5zm9.9-30.3 5.4 1.3.8-5.6h4.8l.7 5.6 5.3-1.3 1.7 4.7-5.1 2.5 2.9 4.9-3.6 2.8-4.3-4.2-4.4 4.2-3.7-2.7 2.8-5.1-5.1-2.4z" fill-rule="evenodd"/></svg>