<?xml version="1.0" encoding="utf-8"?>
<!-- Generator: Adobe Illustrator 16.0.0, SVG Export Plug-In . SVG Version: 6.00 Build 0)  -->
<!DOCTYPE svg PUBLIC "-//W3C//DTD SVG 1.1//EN" "http://www.w3.org/Graphics/SVG/1.1/DTD/svg11.dtd">
<svg version="1.1" id="Ebene_1" xmlns="http://www.w3.org/2000/svg" xmlns:xlink="http://www.w3.org/1999/xlink" x="0px" y="0px"
	 width="162.7px" height="35.4px" viewBox="0 0 162.7 35.4" enable-background="new 0 0 162.7 35.4" xml:space="preserve">
<polygon fill="#1A1A18" points="162.7,17.7 152.5,0 0,0 10.8,17.7 0,35.4 152.5,35.4 "/>
<g>
	<path fill="#FFED00" d="M31.4,10.1l3.1,8.6l0.5,1.5h0.1l0.5-1.5l3.1-8.6h3.5v15h-2.9v-7.5l0-1.6l-0.1,0l-0.5,1.5L36,25.1h-2.1
		l-2.7-7.6l-0.5-1.5l0,0l0,1.6v7.5h-2.8v-15H31.4z"/>
	<path fill="#FFED00" d="M54,22.2L54,25.1h-9.2v-15h8.9l0.1,2.9h-5.9V16h4.9v2.6h-4.9v3.6H54z"/>
	<path fill="#FFED00" d="M63.7,25.1v-6.2h-4.6v6.2h-3.1v-15h3.1v5.8h4.6v-5.8h3.1v15H63.7z"/>
	<path fill="#FFED00" d="M77.3,18.7l3.2,6.3h-3.6l-2.4-5.7h-1.8v5.7h-3.1v-15h4.9c3.5,0,5.2,1.4,5.2,4.6
		C79.5,16.8,78.7,18.3,77.3,18.7z M74.4,12.8h-1.8v4.1h1.8c1.4,0,1.9-0.4,1.9-2.1C76.3,13.3,75.8,12.8,74.4,12.8z"/>
	<path fill="#FFED00" d="M86.9,10.1h3.2v15h-3.2V10.1z"/>
	<path fill="#FFED00" d="M101.7,25.1L96.5,17l-0.8-1.4l0,0l0,1.6v7.9h-2.8v-15h2.7l5.5,9.1l0,0l0-1.6v-7.5h2.8v15H101.7z"/>
	<path fill="#FFED00" d="M109.6,13v3.3h4.9l0,2.8h-4.8v5.9h-3.1v-15h8.9l0,2.9H109.6z"/>
	<path fill="#FFED00" d="M122.6,25.3c-4.2,0-6-2.2-6-7.7s1.8-7.7,6-7.7s6,2.2,6,7.7C128.6,23.2,126.8,25.3,122.6,25.3z M122.6,12.8
		c-2,0-2.7,0.9-2.7,4.8c0,4,0.7,4.8,2.7,4.8c2,0,2.7-0.9,2.7-4.8C125.3,13.6,124.6,12.8,122.6,12.8z"/>
	<path fill="#FFED00" d="M134.2,25.3c-1.6,0-3-0.4-4.2-1.1l0.4-2.8c1.2,0.6,2.4,1,3.7,1c1.5,0,2.2-0.6,2.2-1.7
		c0-2.5-6.2-1.6-6.2-6.5c0-2.5,1.5-4.5,5-4.5c1.4,0,2.7,0.3,3.8,0.7l-0.4,2.7c-1.1-0.4-2.2-0.6-3.2-0.6c-1.7,0-2.2,0.6-2.2,1.5
		c0,2.4,6.2,1.5,6.2,6.4C139.3,23.6,137.5,25.3,134.2,25.3z"/>
</g>
</svg>
