<?xml version="1.0" encoding="utf-8"?>
<!-- Generator: Adobe Illustrator 16.0.0, SVG Export Plug-In . SVG Version: 6.00 Build 0)  -->
<!DOCTYPE svg PUBLIC "-//W3C//DTD SVG 1.0//EN" "http://www.w3.org/TR/2001/REC-SVG-20010904/DTD/svg10.dtd">
<svg version="1.0" id="Ebene_1" xmlns="http://www.w3.org/2000/svg" xmlns:xlink="http://www.w3.org/1999/xlink" x="0px" y="0px"
	 width="97.524px" height="19.798px" viewBox="0 0 97.524 19.798" enable-background="new 0 0 97.524 19.798" xml:space="preserve">
<g>
	<path d="M12.424,15.155l-0.102,4.312H0V0.332h11.991l0.102,4.389H4.975v2.959h5.867v4.006H4.975v3.47H12.424z"/>
	<path d="M14.545,0.332h5.127v19.135h-5.127V0.332z"/>
	<path d="M33.68,19.466l-5.715-8.827l-1.071-1.761l-0.052,0.025l0.026,2.067v8.496h-4.388V0.332h4.184l6.148,9.925l0.051-0.025
		L32.813,8.19l0.025-7.858h4.389v19.135H33.68z"/>
	<path d="M44.833,4.796v3.368h5.843l-0.025,4.235h-5.817v7.067h-5V0.332h11.965l0.077,4.465H44.833z"/>
	<path d="M62.235,16.124H57.03l-0.74,3.342h-5.281l5.664-19.135h6.098l5.766,19.135h-5.561L62.235,16.124z M59.199,6.48
		l-1.225,5.485h3.343L60.092,6.48l-0.383-2.041h-0.077L59.199,6.48z"/>
	<path d="M80.555,4.95c-0.842-0.306-1.99-0.51-3.188-0.51c-2.832,0-3.546,1.199-3.546,5.383c0,4.414,0.791,5.638,3.623,5.638
		c1.173,0,2.27-0.23,3.162-0.638l0.46,4.057c-1.147,0.562-2.883,0.918-4.362,0.918c-5.46,0-8.113-3.112-8.113-10.001
		C68.59,3.368,71.167,0,77.009,0c1.353,0,3.011,0.306,4.031,0.714L80.555,4.95z"/>
	<path d="M92.524,19.466v-7.501h-4.645v7.501h-4.975V0.332h4.975v7.169h4.645V0.332h5v19.135H92.524z"/>
</g>
</svg>
