<?xml version="1.0" encoding="utf-8"?>
<!-- Generator: Adobe Illustrator 16.0.0, SVG Export Plug-In . SVG Version: 6.00 Build 0)  -->
<!DOCTYPE svg PUBLIC "-//W3C//DTD SVG 1.0//EN" "http://www.w3.org/TR/2001/REC-SVG-20010904/DTD/svg10.dtd">
<svg version="1.0" id="Ebene_1" xmlns="http://www.w3.org/2000/svg" xmlns:xlink="http://www.w3.org/1999/xlink" x="0px" y="0px"
	 width="130.665px" height="119.933px" viewBox="0 0 130.665 119.933" enable-background="new 0 0 130.665 119.933"
	 xml:space="preserve">
<g>
	<path d="M20.175,4.27l2.702,16.037l0.41,2.735h0.102l0.309-2.735L25.988,4.27h6.668l-5.369,25.646h-8.001l-2.394-15.559
		l-0.342-2.771h-0.104l-0.375,2.771l-2.359,15.559H5.711L0.342,4.27h6.977l2.256,16.174l0.342,2.735h0.104l0.375-2.735L13.062,4.27
		H20.175z"/>
	<path d="M51.389,24.137l-0.137,5.778H34.735V4.27h16.071l0.137,5.881h-9.54v3.967h7.864v5.368h-7.864v4.651H51.389z"/>
	<path d="M79.764,28.992c-1.777,0.854-4.684,1.401-7.317,1.401c-8.479,0-11.489-4.548-11.489-13.302
		c0-8.959,3.521-13.268,11.797-13.268c2.258,0,4.822,0.41,6.668,1.129l-0.615,5.71c-1.676-0.615-3.83-0.991-5.676-0.991
		c-4.207,0-5.164,1.572-5.164,7.352c0,6.087,0.992,7.42,4.309,7.42c0.514,0,1.061-0.033,1.539-0.137V15.93h5.949V28.992z"/>
	<path d="M92.856,30.359c-7.386,0-10.737-3.898-10.737-13.268c0-9.403,3.215-13.233,10.737-13.233s10.737,3.83,10.737,13.233
		C103.594,26.734,100.379,30.359,92.856,30.359z M92.822,9.843c-2.805,0-3.693,1.163-3.693,7.249c0,6.121,0.924,7.352,3.762,7.352
		s3.693-1.265,3.693-7.352C96.584,10.971,95.729,9.843,92.822,9.843z"/>
	<path d="M116.856,10.253v19.662h-6.805V10.253h-5.813l0.137-5.983h18.158l0.137,5.983H116.856z"/>
	<path d="M12.926,51.279v19.662H6.121V51.279H0.308l0.137-5.984h18.157l0.137,5.984H12.926z"/>
	<path d="M33.678,70.941V60.888h-6.223v10.054h-6.668V45.295h6.668v9.608h6.223v-9.608h6.703v25.646H33.678z"/>
	<path d="M60.482,65.162l-0.137,5.779H43.829V45.295H59.9l0.137,5.881h-9.54v3.967h7.864v5.369h-7.864v4.65H60.482z"/>
	<path d="M10.532,104h-2.12v7.967H1.744V86.32h8.788c7.112,0,9.95,2.77,9.95,9.027C20.482,100.888,17.713,104,10.532,104z
		 M10.532,91.895h-2.12v6.805h2.12c2.188,0,3.009-0.514,3.009-3.385C13.541,92.544,12.892,91.895,10.532,91.895z"/>
	<path d="M32.959,112.411c-7.386,0-10.736-3.897-10.736-13.268c0-9.403,3.214-13.233,10.736-13.233
		c7.523,0,10.738,3.83,10.738,13.233C43.697,108.787,40.482,112.411,32.959,112.411z M32.926,91.895
		c-2.805,0-3.693,1.162-3.693,7.249c0,6.121,0.923,7.353,3.762,7.353c2.838,0,3.692-1.266,3.692-7.353
		C36.687,93.023,35.832,91.895,32.926,91.895z"/>
	<path d="M64.209,86.32l2.701,16.037l0.41,2.736h0.103l0.308-2.736l2.291-16.037h6.668l-5.368,25.646H63.32l-2.395-15.559
		l-0.342-2.77h-0.103l-0.376,2.77l-2.359,15.559h-8.002L44.375,86.32h6.977l2.257,16.174l0.342,2.736h0.103l0.377-2.736
		l2.666-16.174H64.209z"/>
	<path d="M95.422,106.188l-0.137,5.779H78.77V86.32h16.07l0.137,5.882h-9.539v3.967h7.864v5.368h-7.864v4.65H95.422z"/>
	<path d="M113.062,101.469l4.992,10.498h-7.728l-3.419-9.164h-2.258v9.164h-6.668V86.32h8.857c6.496,0,9.711,2.463,9.711,8.241
		C116.551,97.98,115.319,100.512,113.062,101.469z M106.977,91.86h-2.326v5.915h2.291c1.949,0,2.633-0.479,2.633-2.975
		C109.574,92.476,108.926,91.86,106.977,91.86z"/>
	<path d="M122.461,112.377c-2.393,0-3.453-0.923-3.453-3.248c0-2.086,1.061-3.283,3.453-3.283c2.395,0,3.42,1.197,3.42,3.283
		C125.881,111.078,124.855,112.377,122.461,112.377z"/>
</g>
</svg>
