<?xml version="1.0" encoding="utf-8"?>
<!-- Generator: Adobe Illustrator 16.0.4, SVG Export Plug-In . SVG Version: 6.00 Build 0)  -->
<!DOCTYPE svg PUBLIC "-//W3C//DTD SVG 1.1//EN" "http://www.w3.org/Graphics/SVG/1.1/DTD/svg11.dtd">
<svg version="1.1" id="Ebene_1" xmlns="http://www.w3.org/2000/svg" xmlns:xlink="http://www.w3.org/1999/xlink" x="0px" y="0px"
	 width="138.561px" height="84.389px" viewBox="0 0 138.561 84.389" enable-background="new 0 0 138.561 84.389"
	 xml:space="preserve">
<g>
	<path d="M6.803,7.795c0,3.521-1.793,4.626-4.61,4.626c-0.896,0-1.616-0.16-2.192-0.416l0.159-2.609
		c0.337,0.176,0.865,0.288,1.489,0.288c1.312,0,1.952-0.513,1.952-1.952V0.192h3.202V7.795z"/>
	<path d="M16.227,9.491l-0.063,2.705H8.432V0.192h7.522l0.064,2.752h-4.466v1.857h3.682v2.514h-3.682v2.176H16.227z"/>
	<path d="M22.657,2.993v9.203h-3.185V2.993h-2.722l0.064-2.801h8.5l0.063,2.801H22.657z"/>
	<path d="M25.903,12.196v-2.032l3.826-6.083l0.704-1.057l-0.017-0.031h-4.418l0.08-2.801h8.02v2.24l-3.697,5.891l-0.704,1.041
		l0.017,0.047h4.417l-0.048,2.785H25.903z"/>
	<path d="M40.642,2.993v9.203h-3.185V2.993h-2.722L34.8,0.192h8.5l0.063,2.801H40.642z"/>
	<path d="M52.594,12.196H47.92V0.192h4.706c2.576,0,3.889,1.2,3.889,3.105c0,1.264-0.576,2.08-1.472,2.512v0.033
		c1.2,0.399,1.841,1.328,1.841,2.816C56.884,10.82,55.587,12.196,52.594,12.196z M52.497,2.817h-1.552V4.93h1.585
		c0.72,0,0.976-0.272,0.976-1.089C53.506,3.058,53.233,2.817,52.497,2.817z M52.577,7.267h-1.632v2.369h1.696
		c0.785,0,1.072-0.256,1.072-1.201C53.714,7.603,53.458,7.267,52.577,7.267z"/>
	<path d="M58.256,0.192h3.218v12.004h-3.218V0.192z"/>
	<path d="M66.368,12.405c-1.264,0-2.513-0.289-3.488-0.832l0.399-2.658c0.977,0.496,1.969,0.801,3.009,0.801
		c0.993,0,1.377-0.336,1.377-0.977c0-1.537-4.77-1.057-4.77-4.979c0-2.096,1.28-3.761,4.241-3.761c1.104,0,2.289,0.208,3.153,0.576
		l-0.352,2.608c-0.912-0.271-1.825-0.432-2.594-0.432c-1.184,0-1.44,0.352-1.44,0.864c0,1.553,4.771,1.024,4.771,4.946
		C70.675,10.933,69.073,12.405,66.368,12.405z"/>
	<path d="M74.958,12.196v-2.032l3.826-6.083l0.704-1.057l-0.017-0.031h-4.418l0.08-2.801h8.02v2.24l-3.697,5.891l-0.704,1.041
		l0.017,0.047h4.417l-0.048,2.785H74.958z"/>
	<path d="M93.378,8.115c0,2.817-1.504,4.29-4.578,4.29c-3.072,0-4.625-1.473-4.625-4.29V0.192h3.137v7.859
		c0,1.072,0.416,1.552,1.488,1.552c1.089,0,1.457-0.448,1.457-1.552V0.192h3.121V8.115z"/>
	<path d="M101.903,12.356c-1.312,0-2.497-0.352-3.329-0.832l0.528-2.369c0.864,0.433,1.713,0.656,2.673,0.656
		c1.104,0,1.648-0.464,1.648-1.312c0-0.784-0.432-1.377-2.577-1.377v-2.16c2.065,0,2.497-0.465,2.497-1.281
		c0-0.623-0.416-0.992-1.473-0.992c-1.04,0-1.937,0.353-2.688,0.961l-0.688-2.4c0.896-0.705,2.225-1.186,3.617-1.186
		c2.593,0,4.098,1.281,4.098,3.41c0,1.088-0.496,1.953-1.44,2.48v0.032c1.072,0.464,1.665,1.329,1.665,2.593
		C106.434,10.884,105.009,12.356,101.903,12.356z"/>
	<path d="M111.52,12.356c-1.28,0-2.481-0.271-3.474-0.832l0.513-2.369c0.88,0.433,1.601,0.656,2.625,0.656
		c1.28,0,1.616-0.496,1.616-1.536c0-0.944-0.512-1.28-1.601-1.28c-0.624,0-1.393,0.096-1.984,0.304l-0.993-1.152l0.433-5.954h6.53
		l0.112,2.656h-4.178l-0.112,1.777c0.368-0.064,0.753-0.096,1.185-0.096c2.321,0,3.666,1.168,3.666,3.505
		C115.857,10.724,114.545,12.356,111.52,12.356z"/>
	<path d="M121.215,12.356c-2.977,0-4.178-1.809-4.178-6.098c0-4.578,1.217-6.195,4.21-6.195c2.93,0,4.21,1.617,4.21,6.195
		C125.457,10.548,124.129,12.356,121.215,12.356z M121.247,2.737c-0.848,0-1.232,0.432-1.232,3.489c0,3.218,0.385,3.554,1.232,3.554
		c0.833,0,1.201-0.416,1.201-3.554C122.448,3.104,122.08,2.737,121.247,2.737z"/>
	<path d="M136.832,8.115h-2.481c0.353,1.345,1.169,1.776,2.354,1.776c0.56,0,1.12-0.16,1.632-0.352l0.209,2.256
		c-0.688,0.354-1.553,0.545-2.657,0.545c-2.657,0-4.258-1.36-4.738-4.226h-1.185l0.017-1.536h1.024V6.003h-1.024l-0.017-1.586h1.185
		c0.513-2.641,2.241-4.273,4.882-4.273c1.057,0,1.857,0.16,2.529,0.416L138,3.024c-0.368-0.127-0.784-0.207-1.265-0.207
		c-1.296,0-2.017,0.48-2.353,1.6h3.281l-0.336,1.586h-3.153v0.576h2.978L136.832,8.115z"/>
	<path d="M7.603,21.089c-0.527-0.191-1.248-0.32-2-0.32c-1.777,0-2.226,0.753-2.226,3.378c0,2.769,0.497,3.537,2.272,3.537
		c0.736,0,1.426-0.144,1.985-0.399l0.288,2.545c-0.721,0.352-1.809,0.576-2.736,0.576c-3.426,0-5.091-1.953-5.091-6.275
		c0-4.033,1.616-6.146,5.282-6.146c0.848,0,1.889,0.192,2.529,0.449L7.603,21.089z"/>
	<path d="M15.442,28.101h-3.266l-0.465,2.096H8.399l3.553-12.004h3.826l3.617,12.004h-3.489L15.442,28.101z M13.537,22.05
		l-0.769,3.441h2.098l-0.769-3.441l-0.24-1.281H13.81L13.537,22.05z"/>
	<path d="M23.36,30.405c-1.264,0-2.513-0.289-3.488-0.832l0.399-2.658c0.977,0.496,1.969,0.801,3.009,0.801
		c0.993,0,1.377-0.336,1.377-0.977c0-1.537-4.77-1.057-4.77-4.979c0-2.096,1.28-3.761,4.241-3.761c1.104,0,2.289,0.208,3.153,0.576
		l-0.352,2.608c-0.912-0.271-1.825-0.432-2.594-0.432c-1.184,0-1.44,0.352-1.44,0.864c0,1.553,4.771,1.024,4.771,4.946
		C27.667,28.933,26.065,30.405,23.36,30.405z"/>
	<path d="M34.817,30.196v-4.705h-2.913v4.705h-3.121V18.192h3.121v4.498h2.913v-4.498h3.138v12.004H34.817z"/>
	<path d="M44.241,30.196h-4.674V18.192h4.706c2.577,0,3.89,1.2,3.89,3.105c0,1.264-0.576,2.08-1.473,2.512v0.033
		c1.2,0.399,1.84,1.328,1.84,2.816C48.53,28.82,47.234,30.196,44.241,30.196z M44.146,20.817h-1.553v2.112h1.584
		c0.721,0,0.977-0.272,0.977-1.089C45.153,21.058,44.882,20.817,44.146,20.817z M44.226,25.267h-1.633v2.369h1.696
		c0.784,0,1.073-0.256,1.073-1.201C45.362,25.603,45.105,25.267,44.226,25.267z"/>
	<path d="M55.745,28.101H52.48l-0.464,2.096h-3.314l3.555-12.004h3.825l3.617,12.004H56.21L55.745,28.101z M53.841,22.05
		l-0.768,3.441h2.096l-0.768-3.441l-0.24-1.281h-0.048L53.841,22.05z"/>
	<path d="M67.233,21.089c-0.527-0.191-1.248-0.32-2-0.32c-1.777,0-2.226,0.753-2.226,3.378c0,2.769,0.497,3.537,2.272,3.537
		c0.736,0,1.426-0.144,1.985-0.399l0.288,2.545c-0.721,0.352-1.809,0.576-2.736,0.576c-3.426,0-5.091-1.953-5.091-6.275
		c0-4.033,1.616-6.146,5.282-6.146c0.848,0,1.889,0.192,2.529,0.449L67.233,21.089z"/>
	<path d="M74.85,30.196l-2.257-4.881h-0.769v4.881h-3.121V18.192h3.121v4.642h0.833l2.225-4.642h3.505l-2.881,5.746l3.025,6.258
		H74.85z"/>
	<path d="M87.681,30.196h-4.674V18.192h4.706c2.577,0,3.89,1.2,3.89,3.105c0,1.264-0.576,2.08-1.473,2.512v0.033
		c1.2,0.399,1.841,1.328,1.841,2.816C91.971,28.82,90.674,30.196,87.681,30.196z M87.585,20.817h-1.553v2.112h1.584
		c0.721,0,0.977-0.272,0.977-1.089C88.593,21.058,88.321,20.817,87.585,20.817z M87.665,25.267h-1.633v2.369h1.696
		c0.784,0,1.073-0.256,1.073-1.201C88.802,25.603,88.545,25.267,87.665,25.267z"/>
	<path d="M101.01,27.491l-0.063,2.705h-7.731V18.192h7.523l0.063,2.752h-4.466v1.857h3.682v2.514h-3.682v2.176H101.01z"/>
	<path d="M102.335,18.192h3.218v12.004h-3.218V18.192z"/>
	<path d="M110.752,18.192l2.112,6.066l0.4,1.232h0.048l0.4-1.217l2.146-6.082h3.457v12.004h-2.865v-5.025l0.032-1.297l-0.048-0.016
		l-0.4,1.248l-1.777,5.09h-2.032l-1.761-5.074l-0.4-1.248l-0.032,0.016l0.017,1.297v5.01h-2.737V18.192H110.752z"/>
	<path d="M6.562,48.196l-2.257-4.881H3.537v4.881H0.416V36.192h3.121v4.642H4.37l2.225-4.642H10.1l-2.881,5.746l3.025,6.258H6.562z"
		/>
	<path d="M17.314,46.101H14.05l-0.465,2.096h-3.313l3.554-12.004h3.826l3.617,12.004h-3.49L17.314,46.101z M15.409,40.05
		l-0.768,3.441h2.097L15.97,40.05l-0.24-1.281h-0.048L15.409,40.05z"/>
	<path d="M30.66,44.115c0,2.817-1.505,4.29-4.578,4.29s-4.626-1.473-4.626-4.29v-7.923h3.138v7.859c0,1.072,0.416,1.552,1.488,1.552
		c1.089,0,1.456-0.448,1.456-1.552v-7.859h3.122V44.115z"/>
	<path d="M35.313,38.993v2.113h3.665l-0.017,2.656h-3.648v4.434h-3.138V36.192h7.507l0.049,2.801H35.313z"/>
	<path d="M52.179,45.491l-0.064,2.705h-7.73V36.192h7.523l0.063,2.752h-4.466v1.857h3.682v2.514h-3.682v2.176H52.179z"/>
	<path d="M53.504,36.192h3.218v12.004h-3.218V36.192z"/>
	<path d="M65.507,48.196l-3.586-5.537l-0.672-1.105l-0.033,0.017l0.017,1.296v5.33h-2.753V36.192h2.625l3.857,6.227l0.032-0.017
		l-0.032-1.28l0.016-4.93h2.754v12.004H65.507z"/>
	<path d="M77.154,45.491l-0.063,2.705h-7.731V36.192h7.522l0.064,2.752H72.48v1.857h3.682v2.514H72.48v2.176H77.154z"/>
	<path d="M81.489,48.405c-1.266,0-2.514-0.289-3.49-0.832l0.4-2.658c0.977,0.496,1.969,0.801,3.01,0.801
		c0.992,0,1.376-0.336,1.376-0.977c0-1.537-4.771-1.057-4.771-4.979c0-2.096,1.281-3.761,4.242-3.761
		c1.104,0,2.289,0.208,3.153,0.576l-0.353,2.608c-0.912-0.271-1.824-0.432-2.592-0.432c-1.186,0-1.441,0.352-1.441,0.864
		c0,1.553,4.77,1.024,4.77,4.946C85.794,46.933,84.194,48.405,81.489,48.405z"/>
	<path d="M6.61,64.101H3.345l-0.464,2.096h-3.313l3.554-12.004h3.825l3.617,12.004H7.075L6.61,64.101z M4.706,58.05l-0.769,3.441
		h2.097L5.267,58.05l-0.24-1.281H4.978L4.706,58.05z"/>
	<path d="M17.507,66.196l-2.258-4.881h-0.768v4.881H11.36V54.192h3.121v4.642h0.832l2.225-4.642h3.506l-2.881,5.746l3.025,6.258
		H17.507z"/>
	<path d="M27.298,56.993v9.203h-3.186v-9.203h-2.721l0.063-2.801h8.499l0.064,2.801H27.298z"/>
	<path d="M31.104,54.192h3.218v12.004h-3.218V54.192z"/>
	<path d="M40.785,66.405c-3.458,0-5.026-1.825-5.026-6.211c0-4.402,1.505-6.194,5.026-6.194c3.521,0,5.026,1.792,5.026,6.194
		C45.812,64.708,44.306,66.405,40.785,66.405z M40.769,56.801c-1.312,0-1.729,0.544-1.729,3.394c0,2.865,0.432,3.441,1.761,3.441
		s1.729-0.592,1.729-3.441C42.53,57.329,42.13,56.801,40.769,56.801z"/>
	<path d="M54.146,66.196l-3.585-5.537l-0.673-1.105l-0.031,0.017l0.016,1.296v5.33h-2.753V54.192h2.625l3.857,6.227l0.032-0.017
		l-0.032-1.28l0.017-4.93h2.752v12.004H54.146z"/>
	<path d="M61.136,66.405c-1.264,0-2.513-0.289-3.488-0.832l0.399-2.658c0.977,0.496,1.969,0.801,3.009,0.801
		c0.993,0,1.377-0.336,1.377-0.977c0-1.537-4.77-1.057-4.77-4.979c0-2.096,1.28-3.761,4.241-3.761c1.104,0,2.289,0.208,3.153,0.576
		l-0.352,2.608c-0.912-0.271-1.825-0.432-2.594-0.432c-1.184,0-1.44,0.352-1.44,0.864c0,1.553,4.771,1.024,4.771,4.946
		C65.442,64.933,63.841,66.405,61.136,66.405z"/>
	<path d="M75.042,65.765c-0.832,0.4-2.193,0.656-3.426,0.656c-3.969,0-5.378-2.129-5.378-6.227c0-4.193,1.649-6.211,5.522-6.211
		c1.057,0,2.257,0.192,3.121,0.529l-0.288,2.672c-0.784-0.287-1.792-0.463-2.657-0.463c-1.969,0-2.417,0.735-2.417,3.44
		c0,2.85,0.464,3.474,2.017,3.474c0.24,0,0.496-0.016,0.721-0.064v-3.922h2.785V65.765z"/>
	<path d="M84.257,63.491l-0.063,2.705h-7.731V54.192h7.523l0.064,2.752h-4.467v1.857h3.682v2.514h-3.682v2.176H84.257z"/>
	<path d="M92.513,61.282l2.337,4.914h-3.617l-1.601-4.289h-1.057v4.289h-3.121V54.192H89.6c3.041,0,4.546,1.152,4.546,3.857
		C94.146,59.649,93.569,60.835,92.513,61.282z M89.663,56.785h-1.088v2.769h1.072c0.913,0,1.232-0.224,1.232-1.393
		C90.88,57.073,90.576,56.785,89.663,56.785z"/>
	<path d="M101.824,64.101h-3.266l-0.464,2.096h-3.313l3.554-12.004h3.825l3.618,12.004h-3.49L101.824,64.101z M98.703,53.616
		c-0.784,0-1.185-0.305-1.185-1.072c0-0.721,0.4-1.105,1.185-1.105c0.816,0,1.185,0.385,1.185,1.105
		C99.888,53.247,99.52,53.616,98.703,53.616z M99.92,58.05l-0.769,3.441h2.097l-0.769-3.441l-0.24-1.281h-0.048L99.92,58.05z
		 M101.761,53.616c-0.785,0-1.185-0.305-1.185-1.072c0-0.721,0.399-1.105,1.185-1.105c0.815,0,1.184,0.385,1.184,1.105
		C102.944,53.247,102.576,53.616,101.761,53.616z"/>
	<path d="M110.736,56.993v9.203h-3.186v-9.203h-2.721l0.063-2.801h8.499l0.064,2.801H110.736z"/>
	<path d="M117.455,66.405c-1.264,0-2.513-0.289-3.489-0.832l0.4-2.658c0.977,0.496,1.969,0.801,3.01,0.801
		c0.992,0,1.376-0.336,1.376-0.977c0-1.537-4.77-1.057-4.77-4.979c0-2.096,1.28-3.761,4.241-3.761c1.104,0,2.289,0.208,3.153,0.576
		l-0.352,2.608c-0.913-0.271-1.825-0.432-2.594-0.432c-1.185,0-1.44,0.352-1.44,0.864c0,1.553,4.771,1.024,4.771,4.946
		C121.762,64.933,120.16,66.405,117.455,66.405z"/>
	<path d="M8.211,81.491l-0.063,2.705H0.416V72.192h7.522l0.064,2.752H3.537v1.857h3.682v2.514H3.537v2.176H8.211z"/>
	<path d="M16.467,79.282l2.337,4.914h-3.617l-1.601-4.289h-1.057v4.289H9.408V72.192h4.146c3.041,0,4.546,1.152,4.546,3.857
		C18.1,77.649,17.523,78.835,16.467,79.282z M13.618,74.785h-1.089v2.769h1.073c0.912,0,1.232-0.224,1.232-1.393
		C14.835,75.073,14.53,74.785,13.618,74.785z"/>
	<path d="M25.618,84.196v-4.705h-2.913v4.705h-3.121V72.192h3.121v4.498h2.913v-4.498h3.138v12.004H25.618z"/>
	<path d="M36.562,82.101h-3.265l-0.465,2.096H29.52l3.554-12.004h3.826l3.617,12.004h-3.49L36.562,82.101z M34.657,76.05
		l-0.768,3.441h2.097l-0.769-3.441l-0.24-1.281H34.93L34.657,76.05z"/>
	<path d="M48.547,81.411l-0.08,2.785h-7.155V72.192h3.154v9.219H48.547z"/>
	<path d="M53.426,74.993v9.203h-3.185v-9.203H47.52l0.063-2.801h8.5l0.064,2.801H53.426z"/>
	<path d="M64.898,81.491l-0.063,2.705h-7.731V72.192h7.522l0.064,2.752h-4.466v1.857h3.682v2.514h-3.682v2.176H64.898z"/>
	<path d="M73.122,84.196l-3.585-5.537l-0.673-1.105l-0.031,0.017l0.016,1.296v5.33h-2.753V72.192h2.625l3.857,6.227l0.032-0.017
		l-0.032-1.28l0.017-4.93h2.752v12.004H73.122z"/>
	<path d="M78.256,84.389c-1.12,0-1.616-0.433-1.616-1.521c0-0.977,0.496-1.537,1.616-1.537s1.601,0.561,1.601,1.537
		C79.856,83.78,79.376,84.389,78.256,84.389z"/>
</g>
</svg>
