<?xml version="1.0" encoding="utf-8"?>
<!-- Generator: Adobe Illustrator 16.0.0, SVG Export Plug-In . SVG Version: 6.00 Build 0)  -->
<!DOCTYPE svg PUBLIC "-//W3C//DTD SVG 1.1//EN" "http://www.w3.org/Graphics/SVG/1.1/DTD/svg11.dtd">
<svg version="1.1" id="Ebene_1" xmlns="http://www.w3.org/2000/svg" xmlns:xlink="http://www.w3.org/1999/xlink" x="0px" y="0px"
	 width="225.478px" height="72.104px" viewBox="0 0 225.478 72.104" enable-background="new 0 0 225.478 72.104"
	 xml:space="preserve">
<g>
	<path fill="#1A1A18" d="M8.923,16.043H4.786L4.198,18.7H0L4.502,3.491h4.847L13.932,18.7h-4.42L8.923,16.043z M6.51,8.378
		l-0.974,4.36h2.657L7.22,8.378L6.916,6.756H6.854L6.51,8.378z"/>
	<path fill="#1A1A18" d="M22.735,18.7l-2.859-6.185h-0.974V18.7h-3.954V3.491h3.954v5.881h1.055l2.819-5.881h4.44l-3.65,7.28
		l3.833,7.929H22.735z"/>
	<path fill="#1A1A18" d="M35.147,7.04V18.7h-4.035V7.04h-3.447l0.081-3.549h10.769l0.081,3.549H35.147z"/>
	<path fill="#1A1A18" d="M39.977,3.491h4.076V18.7h-4.076V3.491z"/>
	<path fill="#1A1A18" d="M52.246,18.964c-4.38,0-6.367-2.312-6.367-7.868c0-5.577,1.906-7.848,6.367-7.848
		c4.462,0,6.368,2.271,6.368,7.848C58.614,16.814,56.708,18.964,52.246,18.964z M52.226,6.796c-1.662,0-2.189,0.689-2.189,4.299
		c0,3.63,0.547,4.36,2.23,4.36c1.683,0,2.19-0.75,2.19-4.36C54.457,7.466,53.949,6.796,52.226,6.796z"/>
	<path fill="#1A1A18" d="M69.181,18.7l-4.542-7.017l-0.853-1.399l-0.04,0.02l0.021,1.643V18.7h-3.488V3.491h3.326l4.887,7.888
		l0.041-0.02l-0.041-1.623l0.021-6.246H72V18.7H69.181z"/>
	<path fill="#1A1A18" d="M78.045,18.964c-1.602,0-3.184-0.365-4.421-1.055l0.507-3.366c1.237,0.629,2.495,1.014,3.812,1.014
		c1.258,0,1.744-0.426,1.744-1.237c0-1.947-6.043-1.338-6.043-6.307c0-2.657,1.622-4.766,5.374-4.766
		c1.399,0,2.899,0.264,3.995,0.73l-0.446,3.306c-1.156-0.345-2.312-0.547-3.285-0.547c-1.501,0-1.825,0.446-1.825,1.095
		c0,1.967,6.043,1.298,6.043,6.266C83.5,17.098,81.472,18.964,78.045,18.964z"/>
	<path fill="#1A1A18" d="M95.67,18.153c-1.055,0.507-2.778,0.831-4.34,0.831c-5.029,0-6.813-2.697-6.813-7.888
		c0-5.313,2.089-7.868,6.996-7.868c1.338,0,2.859,0.243,3.954,0.669l-0.365,3.387c-0.993-0.365-2.271-0.588-3.366-0.588
		c-2.494,0-3.062,0.933-3.062,4.36c0,3.609,0.588,4.4,2.555,4.4c0.305,0,0.629-0.021,0.913-0.081v-4.968h3.528V18.153z"/>
	<path fill="#1A1A18" d="M107.352,15.273l-0.081,3.427h-9.795V3.491h9.531l0.081,3.488h-5.658v2.353h4.664v3.184h-4.664v2.758
		H107.352z"/>
	<path fill="#1A1A18" d="M117.818,12.475l2.96,6.226h-4.583l-2.027-5.435h-1.339V18.7h-3.954V3.491h5.252
		c3.854,0,5.76,1.46,5.76,4.887C119.887,10.406,119.156,11.907,117.818,12.475z M114.208,6.776h-1.379v3.508h1.359
		c1.155,0,1.562-0.284,1.562-1.765C115.75,7.141,115.364,6.776,114.208,6.776z"/>
	<path fill="#1A1A18" d="M129.622,16.043h-4.137l-0.588,2.657h-4.198l4.502-15.209h4.847l4.583,15.209h-4.42L129.622,16.043z
		 M125.668,2.761c-0.993,0-1.501-0.385-1.501-1.358c0-0.913,0.508-1.399,1.501-1.399c1.034,0,1.501,0.487,1.501,1.399
		C127.169,2.294,126.702,2.761,125.668,2.761z M127.209,8.378l-0.974,4.36h2.657l-0.974-4.36l-0.304-1.623h-0.062L127.209,8.378z
		 M129.541,2.761c-0.993,0-1.5-0.385-1.5-1.358c0-0.913,0.507-1.399,1.5-1.399c1.034,0,1.501,0.487,1.501,1.399
		C131.042,2.294,130.575,2.761,129.541,2.761z"/>
	<path fill="#1A1A18" d="M140.919,7.04V18.7h-4.035V7.04h-3.447l0.081-3.549h10.769l0.081,3.549H140.919z"/>
	<path fill="#1A1A18" d="M157.937,18.7l-2.859-6.185h-0.974V18.7h-3.954V3.491h3.954v5.881h1.055l2.819-5.881h4.44l-3.65,7.28
		l3.833,7.929H157.937z"/>
	<path fill="#1A1A18" d="M171.565,16.043h-4.137l-0.588,2.657h-4.198l4.502-15.209h4.847l4.583,15.209h-4.42L171.565,16.043z
		 M169.152,8.378l-0.974,4.36h2.657l-0.974-4.36l-0.304-1.623h-0.062L169.152,8.378z"/>
	<path fill="#1A1A18" d="M188.48,13.529c0,3.569-1.906,5.435-5.8,5.435s-5.86-1.866-5.86-5.435V3.491h3.975v9.957
		c0,1.359,0.527,1.967,1.886,1.967c1.379,0,1.846-0.568,1.846-1.967V3.491h3.954V13.529z"/>
	<path fill="#1A1A18" d="M194.384,7.04v2.677h4.644l-0.02,3.366h-4.624V18.7h-3.975V3.491h9.511l0.061,3.549H194.384z"/>
	<path fill="#1A1A18" d="M211.197,15.273l-0.081,3.427h-9.795V3.491h9.531l0.081,3.488h-5.658v2.353h4.664v3.184h-4.664v2.758
		H211.197z"/>
	<path fill="#1A1A18" d="M221.622,18.7l-4.542-7.017l-0.853-1.399l-0.04,0.02l0.021,1.643V18.7h-3.488V3.491h3.326l4.887,7.888
		l0.041-0.02l-0.041-1.623l0.021-6.246h3.488V18.7H221.622z"/>
	<path fill="#1A1A18" d="M12.594,37.868c0,3.569-1.906,5.435-5.8,5.435s-5.86-1.866-5.86-5.435V27.83h3.975v9.957
		c0,1.359,0.527,1.967,1.886,1.967c1.379,0,1.846-0.568,1.846-1.967V27.83h3.954V37.868z"/>
	<path fill="#1A1A18" d="M23.425,43.039l-4.542-7.017l-0.853-1.399l-0.04,0.02l0.021,1.643v6.753h-3.488V27.83h3.326l4.887,7.888
		l0.041-0.02l-0.041-1.623l0.021-6.246h3.488v15.209H23.425z"/>
	<path fill="#1A1A18" d="M33.811,43.039h-5.496V27.83h5.414c4.624,0,6.51,2.149,6.51,7.523
		C40.238,40.93,38.089,43.039,33.811,43.039z M33.749,31.338h-1.48v8.233h1.48c1.744,0,2.332-0.527,2.332-4.258
		C36.081,31.946,35.534,31.338,33.749,31.338z"/>
	<path fill="#1A1A18" d="M52.389,43.039h-5.922V27.83h5.962c3.265,0,4.928,1.521,4.928,3.934c0,1.602-0.729,2.636-1.865,3.184v0.041
		c1.521,0.507,2.332,1.683,2.332,3.569C57.823,41.295,56.181,43.039,52.389,43.039z M52.267,31.156H50.3v2.677h2.008
		c0.912,0,1.236-0.345,1.236-1.379C53.544,31.46,53.199,31.156,52.267,31.156z M52.368,36.793H50.3v3.001h2.149
		c0.993,0,1.358-0.325,1.358-1.521C53.808,37.219,53.483,36.793,52.368,36.793z"/>
	<path fill="#1A1A18" d="M59.569,27.83h4.076v15.209h-4.076V27.83z"/>
	<path fill="#1A1A18" d="M69.852,43.303c-1.602,0-3.184-0.365-4.421-1.055l0.507-3.366c1.237,0.629,2.495,1.014,3.812,1.014
		c1.258,0,1.744-0.426,1.744-1.237c0-1.947-6.043-1.338-6.043-6.307c0-2.657,1.622-4.766,5.374-4.766
		c1.399,0,2.899,0.264,3.995,0.73l-0.446,3.306c-1.156-0.345-2.312-0.547-3.285-0.547c-1.501,0-1.825,0.446-1.825,1.095
		c0,1.967,6.043,1.298,6.043,6.266C75.307,41.437,73.278,43.303,69.852,43.303z"/>
	<path fill="#1A1A18" d="M80.743,43.039v-2.575l4.847-7.706l0.893-1.338l-0.021-0.041h-5.597l0.102-3.549h10.159v2.839l-4.684,7.462
		L85.55,39.45l0.021,0.061h5.597l-0.061,3.528H80.743z"/>
	<path fill="#1A1A18" d="M104.087,37.868c0,3.569-1.906,5.435-5.8,5.435s-5.86-1.866-5.86-5.435V27.83h3.975v9.957
		c0,1.359,0.527,1.967,1.886,1.967c1.379,0,1.846-0.568,1.846-1.967V27.83h3.954V37.868z"/>
	<path fill="#1A1A18" d="M119.886,40.322v2.717h-3.589v-2.717h-6.003l-0.324-2.474l5.272-10.018h4.644v9.288h1.237l-0.081,3.204
		H119.886z M116.561,33.305l0.102-1.643l-0.041-0.021l-2.717,5.476h2.515L116.561,33.305z"/>
	<path fill="#1A1A18" d="M127.432,43.242c-3.771,0-5.292-2.292-5.292-7.726c0-5.8,1.541-7.848,5.333-7.848
		c3.711,0,5.333,2.048,5.333,7.848C132.806,40.95,131.123,43.242,127.432,43.242z M127.473,31.054c-1.075,0-1.562,0.547-1.562,4.421
		c0,4.076,0.486,4.502,1.562,4.502c1.055,0,1.521-0.527,1.521-4.502C128.993,31.521,128.527,31.054,127.473,31.054z"/>
	<path fill="#1A1A18" d="M139.378,43.242c-3.771,0-5.293-2.292-5.293-7.726c0-5.8,1.542-7.848,5.334-7.848
		c3.711,0,5.333,2.048,5.333,7.848C144.752,40.95,143.069,43.242,139.378,43.242z M139.419,31.054c-1.075,0-1.562,0.547-1.562,4.421
		c0,4.076,0.486,4.502,1.562,4.502c1.055,0,1.521-0.527,1.521-4.502C140.939,31.521,140.474,31.054,139.419,31.054z"/>
	<path fill="#1A1A18" d="M157.145,37.868h-3.143c0.446,1.703,1.48,2.251,2.98,2.251c0.71,0,1.42-0.203,2.068-0.446l0.264,2.859
		c-0.872,0.446-1.967,0.689-3.366,0.689c-3.366,0-5.394-1.724-6.002-5.354h-1.501l0.021-1.947h1.298v-0.73h-1.298l-0.021-2.007
		h1.501c0.648-3.346,2.839-5.415,6.185-5.415c1.339,0,2.353,0.203,3.204,0.527l-0.71,3.123c-0.466-0.163-0.993-0.264-1.602-0.264
		c-1.643,0-2.556,0.608-2.981,2.028h4.157l-0.426,2.007h-3.995v0.73h3.772L157.145,37.868z"/>
	<path fill="#1A1A18" d="M10.181,55.839c-0.669-0.244-1.582-0.406-2.535-0.406c-2.251,0-2.818,0.953-2.818,4.279
		c0,3.508,0.628,4.482,2.879,4.482c0.934,0,1.806-0.183,2.515-0.507l0.365,3.225c-0.912,0.446-2.291,0.73-3.468,0.73
		c-4.34,0-6.448-2.474-6.448-7.949c0-5.11,2.048-7.787,6.691-7.787c1.075,0,2.394,0.243,3.204,0.568L10.181,55.839z"/>
	<path fill="#1A1A18" d="M20.118,64.721h-4.137l-0.588,2.657h-4.198l4.502-15.209h4.847l4.583,15.209h-4.42L20.118,64.721z
		 M17.705,57.056l-0.974,4.36h2.657l-0.974-4.36l-0.304-1.623H18.05L17.705,57.056z"/>
	<path fill="#1A1A18" d="M30.159,67.642c-1.602,0-3.184-0.365-4.421-1.055l0.507-3.366c1.237,0.629,2.495,1.014,3.812,1.014
		c1.258,0,1.744-0.426,1.744-1.237c0-1.947-6.043-1.338-6.043-6.307c0-2.657,1.622-4.766,5.374-4.766
		c1.399,0,2.899,0.264,3.995,0.73l-0.446,3.306c-1.156-0.345-2.312-0.547-3.285-0.547c-1.501,0-1.825,0.446-1.825,1.095
		c0,1.967,6.043,1.298,6.043,6.266C35.614,65.776,33.587,67.642,30.159,67.642z"/>
	<path fill="#1A1A18" d="M44.681,67.378v-5.962h-3.691v5.962h-3.954V52.169h3.954v5.698h3.691v-5.698h3.975v15.209H44.681z"/>
	<path fill="#1A1A18" d="M56.627,67.378h-5.922V52.169h5.962c3.265,0,4.928,1.521,4.928,3.934c0,1.602-0.729,2.636-1.865,3.184
		v0.041c1.521,0.507,2.332,1.683,2.332,3.569C62.062,65.634,60.419,67.378,56.627,67.378z M56.505,55.495h-1.967v2.677h2.008
		c0.912,0,1.236-0.345,1.236-1.379C57.782,55.799,57.438,55.495,56.505,55.495z M56.606,61.132h-2.068v3.001h2.149
		c0.993,0,1.358-0.325,1.358-1.521C58.046,61.558,57.722,61.132,56.606,61.132z"/>
	<path fill="#1A1A18" d="M71.209,64.721h-4.137l-0.588,2.657h-4.198l4.502-15.209h4.847l4.583,15.209h-4.42L71.209,64.721z
		 M68.796,57.056l-0.974,4.36h2.657l-0.974-4.36l-0.304-1.623h-0.062L68.796,57.056z"/>
	<path fill="#1A1A18" d="M85.772,55.839c-0.669-0.244-1.582-0.406-2.535-0.406c-2.251,0-2.818,0.953-2.818,4.279
		c0,3.508,0.628,4.482,2.879,4.482c0.934,0,1.806-0.183,2.515-0.507l0.365,3.225c-0.912,0.446-2.291,0.73-3.468,0.73
		c-4.34,0-6.448-2.474-6.448-7.949c0-5.11,2.048-7.787,6.691-7.787c1.075,0,2.394,0.243,3.204,0.568L85.772,55.839z"/>
	<path fill="#1A1A18" d="M95.426,67.378l-2.859-6.185h-0.974v6.185h-3.954V52.169h3.954v5.881h1.055l2.819-5.881h4.44l-3.65,7.28
		l3.833,7.929H95.426z"/>
	<path fill="#1A1A18" d="M109.746,67.642c-1.602,0-3.184-0.365-4.421-1.055l0.507-3.366c1.237,0.629,2.495,1.014,3.812,1.014
		c1.258,0,1.744-0.426,1.744-1.237c0-1.947-6.043-1.338-6.043-6.307c0-2.657,1.622-4.766,5.374-4.766
		c1.399,0,2.899,0.264,3.995,0.73l-0.446,3.306c-1.156-0.345-2.312-0.547-3.285-0.547c-1.501,0-1.825,0.446-1.825,1.095
		c0,1.967,6.043,1.298,6.043,6.266C115.201,65.776,113.173,67.642,109.746,67.642z"/>
	<path fill="#1A1A18" d="M116.784,52.169h4.076v15.209h-4.076V52.169z"/>
	<path fill="#1A1A18" d="M132.197,55.839c-0.669-0.244-1.582-0.406-2.535-0.406c-2.251,0-2.818,0.953-2.818,4.279
		c0,3.508,0.628,4.482,2.879,4.482c0.934,0,1.806-0.183,2.515-0.507l0.365,3.225c-0.912,0.446-2.291,0.73-3.468,0.73
		c-4.34,0-6.448-2.474-6.448-7.949c0-5.11,2.048-7.787,6.691-7.787c1.075,0,2.394,0.243,3.204,0.568L132.197,55.839z"/>
	<path fill="#1A1A18" d="M141.71,67.378v-5.962h-3.691v5.962h-3.954V52.169h3.954v5.698h3.691v-5.698h3.975v15.209H141.71z"/>
	<path fill="#1A1A18" d="M157.61,63.951l-0.081,3.427h-9.795V52.169h9.531l0.081,3.488h-5.658v2.353h4.664v3.184h-4.664v2.758
		H157.61z"/>
	<path fill="#1A1A18" d="M168.077,61.152l2.96,6.226h-4.583l-2.027-5.435h-1.339v5.435h-3.954V52.169h5.252
		c3.854,0,5.76,1.46,5.76,4.887C170.146,59.084,169.415,60.584,168.077,61.152z M164.467,55.454h-1.379v3.508h1.359
		c1.155,0,1.562-0.284,1.562-1.765C166.009,55.819,165.623,55.454,164.467,55.454z"/>
	<path fill="#1A1A18" d="M180.936,67.378l-4.542-7.017l-0.852-1.399l-0.041,0.02l0.021,1.643v6.753h-3.488V52.169h3.326l4.887,7.888
		l0.041-0.02l-0.041-1.623l0.021-6.246h3.488v15.209H180.936z"/>
	<path fill="#1A1A18" d="M186.211,62.835l-0.568-10.667h3.995l-0.548,10.667H186.211z M187.711,67.621
		c-1.358,0-1.967-0.507-1.967-1.744c0-1.116,0.608-1.785,1.967-1.785c1.379,0,1.987,0.669,1.987,1.785
		C189.698,66.912,189.09,67.621,187.711,67.621z"/>
</g>
</svg>
