<?xml version="1.0" encoding="utf-8"?>
<!-- Generator: Adobe Illustrator 16.0.4, SVG Export Plug-In . SVG Version: 6.00 Build 0)  -->
<!DOCTYPE svg PUBLIC "-//W3C//DTD SVG 1.1//EN" "http://www.w3.org/Graphics/SVG/1.1/DTD/svg11.dtd">
<svg version="1.1" id="Ebene_1" xmlns="http://www.w3.org/2000/svg" xmlns:xlink="http://www.w3.org/1999/xlink" x="0px" y="0px"
	 width="260.996px" height="113.31px" viewBox="0 0 260.996 113.31" enable-background="new 0 0 260.996 113.31"
	 xml:space="preserve">
<g>
	<path d="M15.269,17.82l-0.119,5.069H0.659V0.391h14.1l0.121,5.16H6.51V9.03h6.899v4.71H6.51v4.08H15.269z"/>
	<path d="M30.688,22.89L23.97,12.51l-1.26-2.07l-0.061,0.031l0.03,2.43v9.989h-5.16V0.391h4.92l7.229,11.67l0.061-0.03l-0.061-2.399
		l0.03-9.24h5.159V22.89H30.688z"/>
	<path d="M47.729,5.641V22.89h-5.971V5.641h-5.1l0.121-5.25h15.929l0.12,5.25H47.729z"/>
	<path d="M62.759,22.89H54.63V0.391h8.01c6.84,0,9.629,3.18,9.629,11.129C72.269,19.77,69.089,22.89,62.759,22.89z M62.669,5.58
		h-2.189v12.18h2.189c2.58,0,3.45-0.779,3.45-6.3C66.119,6.48,65.31,5.58,62.669,5.58z"/>
	<path d="M89.339,17.82L89.22,22.89h-14.49V0.391h14.1l0.12,5.16h-8.37V9.03h6.9v4.71h-6.9v4.08H89.339z"/>
	<path d="M104.64,5.82c-0.99-0.359-2.34-0.6-3.75-0.6c-3.33,0-4.17,1.41-4.17,6.33c0,5.189,0.93,6.629,4.26,6.629
		c1.38,0,2.67-0.27,3.72-0.75l0.54,4.77c-1.35,0.66-3.391,1.08-5.13,1.08c-6.42,0-9.54-3.66-9.54-11.76
		c0-7.559,3.03-11.52,9.9-11.52c1.59,0,3.539,0.36,4.739,0.84L104.64,5.82z"/>
	<path d="M118.919,22.89l-4.23-9.149h-1.439v9.149h-5.85V0.391h5.85V9.09h1.56l4.17-8.699h6.569l-5.399,10.77l5.67,11.729H118.919z"
		/>
	<path d="M142.078,17.82l-0.12,5.069h-14.489V0.391h14.1l0.12,5.16h-8.369V9.03h6.898v4.71h-6.898v4.08H142.078z"/>
	<path d="M157.498,22.89l-6.72-10.38l-1.26-2.07l-0.061,0.031l0.031,2.43v9.989h-5.16V0.391h4.92l7.229,11.67l0.06-0.03l-0.06-2.399
		l0.03-9.24h5.159V22.89H157.498z"/>
	<path d="M177.358,23.279c-2.37,0-4.711-0.539-6.54-1.56l0.75-4.979c1.829,0.93,3.689,1.5,5.64,1.5c1.859,0,2.58-0.631,2.58-1.83
		c0-2.881-8.939-1.98-8.939-9.33c0-3.93,2.399-7.049,7.949-7.049c2.07,0,4.29,0.389,5.91,1.079L184.048,6
		c-1.71-0.51-3.42-0.81-4.859-0.81c-2.221,0-2.701,0.659-2.701,1.62c0,2.91,8.94,1.92,8.94,9.27
		C185.428,20.52,182.428,23.279,177.358,23.279z"/>
	<path d="M187.769,0.391h6.029V22.89h-6.029V0.391z"/>
	<path d="M211.706,17.82l-0.119,5.069h-14.49V0.391h14.1l0.121,5.16h-8.37V9.03h6.899v4.71h-6.899v4.08H211.706z"/>
	<path d="M17.699,45.24c0,5.279-2.819,8.039-8.579,8.039s-8.67-2.76-8.67-8.039v-14.85h5.879V45.12c0,2.01,0.78,2.909,2.791,2.909
		c2.039,0,2.729-0.84,2.729-2.909V30.391h5.85V45.24z"/>
	<path d="M33.719,52.89l-6.72-10.38l-1.26-2.07l-0.061,0.031l0.031,2.43v9.989h-5.16V30.391h4.92l7.229,11.67l0.06-0.03l-0.06-2.399
		l0.03-9.24h5.159V52.89H33.719z"/>
	<path d="M46.829,53.279c-2.37,0-4.71-0.539-6.539-1.56l0.75-4.979c1.829,0.93,3.689,1.5,5.639,1.5c1.86,0,2.58-0.631,2.58-1.83
		c0-2.881-8.939-1.98-8.939-9.33c0-3.93,2.4-7.049,7.949-7.049c2.07,0,4.291,0.389,5.91,1.079L53.519,36
		c-1.709-0.51-3.42-0.81-4.859-0.81c-2.221,0-2.7,0.659-2.7,1.62c0,2.91,8.94,1.92,8.94,9.27
		C54.899,50.52,51.899,53.279,46.829,53.279z"/>
	<path d="M71.608,47.82l-0.119,5.069h-14.49V30.391h14.1l0.12,5.16h-8.37v3.479h6.9v4.71h-6.9v4.08H71.608z"/>
	<path d="M87.089,43.68l4.379,9.21h-6.779l-3-8.04h-1.979v8.04h-5.851V30.391h7.771c5.7,0,8.52,2.16,8.52,7.229
		C90.148,40.62,89.068,42.84,87.089,43.68z M81.749,35.25h-2.04v5.189h2.01c1.71,0,2.31-0.42,2.31-2.609
		C84.028,35.791,83.458,35.25,81.749,35.25z"/>
	<path d="M107.548,47.82l-0.119,5.069h-14.49V30.391h14.1l0.12,5.16h-8.37v3.479h6.9v4.71h-6.9v4.08H107.548z"/>
	<path d="M129.777,43.68l4.38,9.21h-6.779l-3-8.04h-1.98v8.04h-5.85V30.391h7.77c5.7,0,8.52,2.16,8.52,7.229
		C132.837,40.62,131.757,42.84,129.777,43.68z M124.438,35.25h-2.04v5.189h2.01c1.711,0,2.311-0.42,2.311-2.609
		C126.718,35.791,126.147,35.25,124.438,35.25z"/>
	<path d="M143.997,53.279c-6.48,0-9.42-3.42-9.42-11.639c0-8.25,2.82-11.609,9.42-11.609s9.42,3.359,9.42,11.609
		C153.417,50.1,150.597,53.279,143.997,53.279z M143.967,35.28c-2.46,0-3.239,1.021-3.239,6.36c0,5.369,0.81,6.449,3.299,6.449
		c2.49,0,3.24-1.109,3.24-6.449C147.267,36.271,146.517,35.28,143.967,35.28z"/>
	<path d="M164.637,52.89h-8.76V30.391h8.819c4.83,0,7.29,2.25,7.29,5.82c0,2.369-1.08,3.899-2.76,4.709v0.061
		c2.25,0.75,3.45,2.49,3.45,5.279C172.677,50.31,170.247,52.89,164.637,52.89z M164.456,35.311h-2.909v3.959h2.97
		c1.35,0,1.83-0.51,1.83-2.039C166.347,35.76,165.837,35.311,164.456,35.311z M164.606,43.65h-3.06v4.439h3.18
		c1.47,0,2.011-0.48,2.011-2.25C166.737,44.279,166.257,43.65,164.606,43.65z"/>
	<path d="M191.876,45.24c0,5.279-2.819,8.039-8.579,8.039s-8.67-2.76-8.67-8.039v-14.85h5.88V45.12c0,2.01,0.779,2.909,2.79,2.909
		c2.04,0,2.729-0.84,2.729-2.909V30.391h5.85V45.24z"/>
	<path d="M200.397,53.279c-2.37,0-4.711-0.539-6.54-1.56l0.75-4.979c1.829,0.93,3.689,1.5,5.64,1.5c1.859,0,2.58-0.631,2.58-1.83
		c0-2.881-8.939-1.98-8.939-9.33c0-3.93,2.399-7.049,7.949-7.049c2.07,0,4.29,0.389,5.91,1.079l-0.66,4.89
		c-1.71-0.51-3.42-0.81-4.859-0.81c-2.221,0-2.701,0.659-2.701,1.62c0,2.91,8.94,1.92,8.94,9.27
		C208.467,50.52,205.467,53.279,200.397,53.279z"/>
	<path d="M219.896,35.641V52.89h-5.97V35.641h-5.1l0.12-5.25h15.929l0.121,5.25H219.896z"/>
	<path d="M241.406,47.82l-0.12,5.069h-14.489V30.391h14.1l0.12,5.16h-8.37v3.479h6.9v4.71h-6.9v4.08H241.406z"/>
	<path d="M256.826,52.89l-6.72-10.38l-1.26-2.07l-0.06,0.031l0.029,2.43v9.989h-5.159V30.391h4.92l7.229,11.67l0.06-0.03
		l-0.06-2.399l0.029-9.24h5.16V52.89H256.826z"/>
	<path d="M0.899,60.391h6.03V82.89h-6.03V60.391z"/>
	<path d="M23.398,82.89l-6.72-10.38l-1.26-2.07l-0.061,0.031l0.031,2.43v9.989h-5.16V60.391h4.92l7.229,11.67l0.06-0.03l-0.06-2.399
		l0.03-9.24h5.159V82.89H23.398z"/>
	<path d="M38.759,82.89h-8.13V60.391h8.01c6.84,0,9.63,3.18,9.63,11.129C48.269,79.77,45.089,82.89,38.759,82.89z M38.669,65.58
		h-2.189v12.18h2.189c2.58,0,3.449-0.779,3.449-6.3C42.118,66.48,41.309,65.58,38.669,65.58z"/>
	<path d="M67.769,75.24c0,5.279-2.82,8.039-8.58,8.039s-8.67-2.76-8.67-8.039v-14.85h5.881V75.12c0,2.01,0.779,2.909,2.789,2.909
		c2.04,0,2.73-0.84,2.73-2.909V60.391h5.85V75.24z"/>
	<path d="M76.289,83.279c-2.37,0-4.71-0.539-6.54-1.56l0.75-4.979c1.83,0.93,3.689,1.5,5.641,1.5c1.859,0,2.579-0.631,2.579-1.83
		c0-2.881-8.939-1.98-8.939-9.33c0-3.93,2.399-7.049,7.95-7.049c2.069,0,4.289,0.389,5.909,1.079L82.979,66
		c-1.711-0.51-3.42-0.81-4.86-0.81c-2.22,0-2.7,0.659-2.7,1.62c0,2.91,8.939,1.92,8.939,9.27
		C84.358,80.52,81.358,83.279,76.289,83.279z"/>
	<path d="M95.788,65.641V82.89h-5.969V65.641h-5.1l0.119-5.25h15.93l0.12,5.25H95.788z"/>
	<path d="M115.919,73.68l4.379,9.21h-6.779l-3-8.04h-1.979v8.04h-5.851V60.391h7.771c5.7,0,8.52,2.16,8.52,7.229
		C118.979,70.62,117.898,72.84,115.919,73.68z M110.579,65.25h-2.04v5.189h2.01c1.71,0,2.31-0.42,2.31-2.609
		C112.858,65.791,112.288,65.25,110.579,65.25z"/>
	<path d="M122.009,60.391h6.029V82.89h-6.029V60.391z"/>
	<path d="M145.947,77.82l-0.12,5.069h-14.489V60.391h14.1l0.12,5.16h-8.369v3.479h6.898v4.71h-6.898v4.08H145.947z"/>
	<path d="M155.698,69.689v3.9h-8.37v-3.9H155.698z"/>
	<path d="M6.54,113.279c-2.37,0-4.711-0.539-6.54-1.56l0.75-4.979c1.829,0.93,3.689,1.5,5.64,1.5c1.859,0,2.58-0.631,2.58-1.83
		c0-2.881-8.939-1.98-8.939-9.33c0-3.93,2.399-7.049,7.949-7.049c2.07,0,4.29,0.389,5.91,1.079L13.229,96
		c-1.71-0.51-3.42-0.81-4.859-0.81c-2.221,0-2.701,0.659-2.701,1.62c0,2.91,8.94,1.92,8.94,9.27
		C14.609,110.52,11.609,113.279,6.54,113.279z"/>
	<path d="M27.749,108.96H21.63l-0.87,3.93h-6.21l6.66-22.499h7.17l6.779,22.499h-6.54L27.749,108.96z M24.18,97.62l-1.44,6.45h3.93
		l-1.439-6.45l-0.45-2.399h-0.09L24.18,97.62z"/>
	<path d="M52.769,105.24c0,5.279-2.819,8.039-8.579,8.039s-8.67-2.76-8.67-8.039v-14.85h5.88v14.729c0,2.01,0.779,2.909,2.79,2.909
		c2.04,0,2.729-0.84,2.729-2.909V90.391h5.85V105.24z"/>
	<path d="M71.519,112.08c-1.561,0.75-4.109,1.229-6.42,1.229c-7.439,0-10.079-3.989-10.079-11.669c0-7.86,3.09-11.641,10.35-11.641
		c1.979,0,4.229,0.36,5.85,0.99L70.679,96c-1.47-0.539-3.359-0.869-4.98-0.869c-3.689,0-4.529,1.379-4.529,6.449
		c0,5.34,0.87,6.51,3.779,6.51c0.451,0,0.931-0.029,1.351-0.12v-7.35h5.22V112.08z"/>
	<path d="M88.798,107.82l-0.119,5.069h-14.49V90.391h14.1l0.121,5.16h-8.37v3.479h6.899v4.71h-6.899v4.08H88.798z"/>
	<path d="M104.278,103.68l4.38,9.21h-6.78l-2.999-8.04h-1.979v8.04h-5.851V90.391h7.771c5.699,0,8.52,2.16,8.52,7.229
		C107.339,100.62,106.259,102.84,104.278,103.68z M98.938,95.25h-2.039v5.189h2.01c1.709,0,2.31-0.42,2.31-2.609
		C101.219,95.791,100.648,95.25,98.938,95.25z"/>
	<path d="M112.528,113.25c-2.1,0-3.029-0.811-3.029-2.85c0-1.83,0.93-2.881,3.029-2.881s3,1.051,3,2.881
		C115.528,112.109,114.628,113.25,112.528,113.25z"/>
</g>
</svg>
