<?xml version="1.0" encoding="utf-8"?>
<!-- Generator: Adobe Illustrator 16.0.4, SVG Export Plug-In . SVG Version: 6.00 Build 0)  -->
<!DOCTYPE svg PUBLIC "-//W3C//DTD SVG 1.1//EN" "http://www.w3.org/Graphics/SVG/1.1/DTD/svg11.dtd">
<svg version="1.1" id="Ebene_1" xmlns="http://www.w3.org/2000/svg" xmlns:xlink="http://www.w3.org/1999/xlink" x="0px" y="0px"
	 width="193.605px" height="38.752px" viewBox="0 0 193.605 38.752" enable-background="new 0 0 193.605 38.752"
	 xml:space="preserve">
<g>
	<path d="M11.007,38.752c-3.95,0-7.851-0.9-10.9-2.6l1.25-8.3c3.05,1.55,6.15,2.5,9.4,2.5c3.101,0,4.3-1.05,4.3-3.05
		c0-4.8-14.9-3.3-14.9-15.551C0.156,5.201,4.156,0,13.407,0c3.45,0,7.15,0.65,9.851,1.8l-1.1,8.15
		c-2.851-0.85-5.701-1.35-8.102-1.35c-3.699,0-4.5,1.1-4.5,2.7c0,4.851,14.901,3.2,14.901,15.451
		C24.458,34.152,19.457,38.752,11.007,38.752z"/>
	<path d="M46.357,31.552H36.156l-1.449,6.55H24.355L35.457,0.6h11.95l11.301,37.502h-10.9L46.357,31.552z M40.407,12.651
		l-2.4,10.751h6.55l-2.399-10.751l-0.75-4h-0.15L40.407,12.651z"/>
	<path d="M88.058,25.352c0,8.801-4.7,13.401-14.301,13.401s-14.45-4.6-14.45-13.401V0.6h9.8v24.552c0,3.35,1.3,4.85,4.65,4.85
		c3.4,0,4.55-1.4,4.55-4.85V0.6h9.751V25.352z"/>
	<path d="M107.406,38.103h-14.6V0.6h14.7c8.051,0,12.151,3.75,12.151,9.701c0,3.95-1.801,6.5-4.601,7.851v0.1
		c3.75,1.25,5.75,4.15,5.75,8.8C120.808,33.802,116.758,38.103,107.406,38.103z M107.107,8.801h-4.851v6.601h4.95
		c2.25,0,3.05-0.85,3.05-3.4C110.257,9.551,109.407,8.801,107.107,8.801z M107.357,22.702h-5.101v7.4h5.3
		c2.45,0,3.351-0.8,3.351-3.75C110.907,23.751,110.107,22.702,107.357,22.702z"/>
	<path d="M149.057,29.652l-0.199,8.451h-24.152V0.6h23.502l0.199,8.601h-13.95v5.8h11.501v7.851h-11.501v6.8H149.057z"/>
	<path d="M174.856,22.751l7.3,15.351h-11.301l-5-13.401h-3.3v13.401h-9.751V0.6h12.951c9.5,0,14.201,3.601,14.201,12.051
		C179.957,17.651,178.156,21.352,174.856,22.751z M165.956,8.701h-3.4v8.65h3.351c2.85,0,3.85-0.7,3.85-4.35
		C169.756,9.601,168.807,8.701,165.956,8.701z"/>
	<path d="M188.604,38.703c-3.5,0-5.05-1.35-5.05-4.75c0-3.05,1.55-4.8,5.05-4.8c3.501,0,5.001,1.75,5.001,4.8
		C193.605,36.802,192.105,38.703,188.604,38.703z"/>
</g>
</svg>
