<?xml version="1.0" encoding="utf-8"?>
<!-- Generator: Adobe Illustrator 16.0.4, SVG Export Plug-In . SVG Version: 6.00 Build 0)  -->
<!DOCTYPE svg PUBLIC "-//W3C//DTD SVG 1.1//EN" "http://www.w3.org/Graphics/SVG/1.1/DTD/svg11.dtd">
<svg version="1.1" id="Ebene_1" xmlns="http://www.w3.org/2000/svg" xmlns:xlink="http://www.w3.org/1999/xlink" x="0px" y="0px"
	 width="173.554px" height="38.802px" viewBox="0 0 173.554 38.802" enable-background="new 0 0 173.554 38.802"
	 xml:space="preserve">
<g>
	<path d="M11.007,38.802c-3.95,0-7.851-0.9-10.9-2.6l1.25-8.3c3.05,1.55,6.15,2.5,9.4,2.5c3.101,0,4.3-1.05,4.3-3.05
		c0-4.8-14.9-3.3-14.9-15.551c0-6.55,4-11.751,13.251-11.751c3.45,0,7.15,0.65,9.851,1.8l-1.1,8.15
		c-2.851-0.85-5.701-1.35-8.102-1.35c-3.699,0-4.5,1.1-4.5,2.7c0,4.851,14.901,3.2,14.901,15.451
		C24.458,34.202,19.457,38.802,11.007,38.802z"/>
	<path d="M28.355,0.65h10.051v37.502H28.355V0.65z"/>
	<path d="M66.356,9.701c-1.649-0.6-3.9-1-6.251-1c-5.55,0-6.949,2.35-6.949,10.55c0,8.651,1.549,11.051,7.1,11.051
		c2.301,0,4.451-0.45,6.201-1.25l0.899,7.951c-2.25,1.1-5.65,1.8-8.55,1.8c-10.701,0-15.901-6.1-15.901-19.601
		C42.905,6.601,47.955,0,59.406,0c2.65,0,5.9,0.6,7.9,1.4L66.356,9.701z"/>
	<path d="M89.806,38.152V23.452h-9.101v14.701h-9.75V0.65h9.75v14.051h9.101V0.65h9.801v37.502H89.806z"/>
	<path d="M129.006,29.702l-0.2,8.451h-24.151V0.65h23.502l0.199,8.601h-13.951v5.8h11.501v7.851h-11.501v6.8H129.006z"/>
	<path d="M154.805,22.801l7.301,15.351h-11.301l-5-13.401h-3.301v13.401h-9.75V0.65h12.951c9.5,0,14.2,3.601,14.2,12.051
		C159.905,17.701,158.105,21.401,154.805,22.801z M145.904,8.75h-3.4v8.65h3.351c2.851,0,3.851-0.7,3.851-4.35
		C149.705,9.65,148.755,8.75,145.904,8.75z"/>
	<path d="M168.553,38.752c-3.5,0-5.05-1.35-5.05-4.75c0-3.05,1.55-4.8,5.05-4.8c3.501,0,5.001,1.75,5.001,4.8
		C173.554,36.852,172.054,38.752,168.553,38.752z"/>
</g>
</svg>
