<svg enable-background="new 0 0 167.9 165.1" viewBox="0 0 167.9 165.1" xmlns="http://www.w3.org/2000/svg"><path clip-rule="evenodd" d="m154.6 153c-2 0-2.9-.8-2.9-2.8 0-1.8.9-2.8 2.9-2.8s2.9 1 2.9 2.8c0 1.7-.9 2.8-2.9 2.8zm-9.3-116.9h-5.8v-16.8h-5l.1-5.1h15.5l.1 5.1h-5v16.8zm-16.3-22.9c-1.4 0-2.2-.6-2.2-2 0-1.3.7-2 2.2-2s2.2.7 2.2 2c-.1 1.3-.7 2-2.2 2zm-5.6 0c-1.4 0-2.2-.6-2.2-2 0-1.3.7-2 2.2-2s2.2.7 2.2 2-.7 2-2.2 2zm-.7 1h7l6.6 21.9h-6.4l-.8-3.8h-5.9l-.8 3.8h-5.9-.1-6.5l-2.9-7.8h-2v7.8h-5.7v-21.9h7.5c5.5 0 8.3 2.1 8.3 7 0 2.9-1 5.1-3 5.9l4.2 8.8zm5.3 13.3-1.4-6.3-.4-2.3h-.1l-.5 2.3-1.4 6.3zm-21.1-8.6h-2v5h2c1.7 0 2.2-.4 2.2-2.5.1-1.9-.5-2.5-2.2-2.5zm-1.5 30.1c0 2.3-1 3.8-2.7 4.6v.1c2.2.7 3.4 2.4 3.4 5.1 0 3.9-2.4 6.4-7.8 6.4h-8.5v-21.8h8.6c4.6 0 7 2.1 7 5.6zm-7.3-.9h-2.8v3.9h2.9c1.3 0 1.8-.5 1.8-2-.1-1.4-.6-1.9-1.9-1.9zm.1 8.1h-3v4.3h3.1c1.4 0 2-.5 2-2.2 0-1.5-.5-2.1-2.1-2.1zm-1.1-25.1-.1 5h-14.1v-21.9h13.7l.1 5h-8.1v3.4h6.7v4.6h-6.7v4h8.5zm-32.8-6c0-7.6 3-11.3 10.1-11.3 1.9 0 4.1.4 5.7 1l-.5 4.9c-1.4-.5-3.3-.8-4.8-.8-3.6 0-4.4 1.3-4.4 6.3 0 5.2.8 6.3 3.7 6.3.4 0 .9 0 1.3-.1v-7.1h5.1v11.1c-1.5.7-4 1.2-6.2 1.2-7.5-.1-10-4-10-11.5zm-5.5 11h-5.8v-16.8h-5l.1-5.1h15.5l.1 5.1h-5v16.8zm-9.1 0h-13v-21.9h5.7v16.8h7.4zm-1.8 47.7v-2.4-9h5v21.9h-4.1l-6.5-10.1-1.2-2h-.1v2.4 9.7h-5v-21.8h4.8zm-19.9 35.9h-5.9l-.8 3.8h-6l6.5-21.9h7l6.6 21.9h-6.4zm-2.4-11-.4-2.3h-.1l-.5 2.3-1.4 6.3h3.8zm7.7-36.2v14.4c0 5.1-2.7 7.8-8.3 7.8s-8.4-2.7-8.4-7.8v-14.4h5.7v14.3c0 2 .8 2.8 2.7 2.8 2 0 2.7-.8 2.7-2.8v-14.3zm-5.3-11.1h-5.9l-.8 3.8h-6l6.5-21.9h7l6.6 21.9h-6.4zm-2.4-11-.4-2.4h-.1l-.5 2.3-1.4 6.3h3.8zm2.4-18.2h-5.9l-.8 3.8h-6l6.5-21.9h7l6.6 21.9h-6.4zm-2.4-11-.4-2.3h-.1l-.5 2.3-1.4 6.3h3.8zm-3.1 126.4h7.4l-.1 5.1h-13v-21.9h5.7zm17.5-17.1c6.4 0 9.2 3.3 9.2 11.3 0 8.2-2.7 11.3-9.2 11.3-6.3 0-9.2-3.3-9.2-11.3 0-8.1 2.8-11.3 9.2-11.3zm0 17.5c2.4 0 3.1-1.1 3.1-6.3s-.7-6.2-3.2-6.2c-2.4 0-3.1 1-3.1 6.2s.8 6.3 3.2 6.3zm13-89.2c0 3.9-2.4 6.4-7.8 6.4h-8.5v-21.8h8.6c4.7 0 7.1 2.2 7.1 5.7 0 2.3-1 3.8-2.7 4.6v.1c2.2.6 3.3 2.3 3.3 5zm-8-10.7h-2.8v3.9h2.9c1.3 0 1.8-.5 1.8-2 0-1.4-.5-1.9-1.9-1.9zm.2 8.1h-3v4.3h3.1c1.4 0 2-.5 2-2.2 0-1.5-.5-2.1-2.1-2.1zm2.7 67.3-4.1-8.9h-1.4v8.9h-5.7v-21.9h5.7v8.5h1.5l4.1-8.5h6.4l-5.2 10.5 5.5 11.4zm9.1 24.6c1.8 0 2.5-.6 2.5-1.8 0-2.8-8.7-1.9-8.7-9.1 0-3.8 2.3-6.8 7.7-6.8 2 0 4.2.4 5.7 1l-.6 4.8c-1.7-.5-3.3-.8-4.7-.8-2.2 0-2.6.6-2.6 1.6 0 2.8 8.7 1.9 8.7 9 0 4.3-2.9 7-7.8 7-2.3 0-4.6-.5-6.4-1.5l.7-4.8c1.8.9 3.6 1.4 5.5 1.4zm15.7-.5h7.4l-.1 5.1h-13v-21.9h5.7zm21.8-11.8h-6.8v3.4h6.7v4.6h-6.7v4h8.5l-.1 4.9h-14.1v-21.9h13.7zm-2.4-52.3.7 2.2h.1l.7-2.2 3.9-11.1h6.3v21.9h-5.2v-9.2l.1-2.4h-.1l-.7 2.3-3.2 9.3h-3.7l-3.2-9.2-.8-2.3h-.1v2.4 9.1h-5v-21.8h6.3zm.2 18.2v14.4c0 5.1-2.7 7.8-8.3 7.8s-8.4-2.7-8.4-7.8v-14.4h5.7v14.3c0 2 .8 2.8 2.7 2.8 2 0 2.7-.8 2.7-2.8v-14.3zm-23.7 10.4 5.5 11.4h-6.7l-4.1-8.9h-1.4v8.9h-5.7v-21.9h5.7v8.5h1.5l4.1-8.5h6.4zm4.4-28.8c0 8-3.1 11-9.2 11h-7.9v-21.8h7.8c6.6 0 9.3 3.1 9.3 10.8zm-9.3-5.8h-2.1v11.8h2.1c2.5 0 3.4-.8 3.4-6.1 0-4.8-.8-5.7-3.4-5.7zm7-24.2v11.1c-1.5.7-4 1.2-6.2 1.2-7.2 0-9.8-3.9-9.8-11.3 0-7.6 3-11.3 10.1-11.3 1.9 0 4.1.3 5.7 1l-.5 4.9c-1.4-.5-3.3-.8-4.8-.8-3.6 0-4.4 1.3-4.4 6.3 0 5.2.8 6.3 3.7 6.3.4 0 .9 0 1.3-.1v-7.1h4.9zm16.8 7-.1 4.9h-14.1v-21.8h13.7l.1 5h-8.1v3.4h6.7v4.6h-6.7v4h8.5zm20 70.1c1.9 0 4.1.4 5.7 1l-.5 4.9c-1.4-.5-3.3-.8-4.8-.8-3.6 0-4.4 1.3-4.4 6.3 0 5.2.8 6.3 3.7 6.3.4 0 .9 0 1.3-.1v-7.1h5.1v11.1c-1.5.7-4 1.2-6.2 1.2-7.2 0-9.8-3.9-9.8-11.3-.2-7.8 2.8-11.5 9.9-11.5zm5.4-36h-5.9v-21.9h5.9zm9.6-34.1-.1 4.9h-14.1v-21.8h13.7l.1 5h-8.1v3.4h6.7v4.6h-6.7v4h8.5zm8 12.2.1 5.1h-5v16.8h-5.8v-16.8h-5l.1-5.1zm-.6 63.3h-8.1v3.4h6.7v4.6h-6.7v4h8.5l-.1 4.9h-14.2v-21.9h13.7zm-.2-82.7v2.4 9.7h-5v-21.8h4.8l7 11.3h.1l-.1-2.3v-9h5v21.9h-4.1l-6.4-10.2zm14.5 89v-2.4-9h5v21.9h-4.1l-6.5-10.1-1.2-2h-.1v2.4 9.7h-5v-21.9h4.8z" fill="#020204" fill-rule="evenodd"/></svg>