<?xml version="1.0" encoding="utf-8"?>
<!-- Generator: Adobe Illustrator 16.0.0, SVG Export Plug-In . SVG Version: 6.00 Build 0)  -->
<!DOCTYPE svg PUBLIC "-//W3C//DTD SVG 1.0//EN" "http://www.w3.org/TR/2001/REC-SVG-20010904/DTD/svg10.dtd">
<svg version="1.0" id="Ebene_1" xmlns="http://www.w3.org/2000/svg" xmlns:xlink="http://www.w3.org/1999/xlink" x="0px" y="0px"
	 width="76.651px" height="19.772px" viewBox="0 0 76.651 19.772" enable-background="new 0 0 76.651 19.772" xml:space="preserve">
<g>
	<path d="M7.45,19.44H0V0.306h7.5c4.107,0,6.2,1.914,6.2,4.95c0,2.016-0.918,3.317-2.347,4.005v0.051
		c1.914,0.638,2.934,2.118,2.934,4.49C14.287,17.246,12.22,19.44,7.45,19.44z M7.296,4.49H4.822v3.367h2.526
		c1.148,0,1.556-0.434,1.556-1.734C8.904,4.873,8.47,4.49,7.296,4.49z M7.424,11.583H4.822v3.776h2.704
		c1.25,0,1.709-0.408,1.709-1.914C9.235,12.118,8.827,11.583,7.424,11.583z"/>
	<path d="M28.705,15.129l-0.103,4.312H16.28V0.306h11.991l0.102,4.389h-7.118v2.959h5.868v4.006h-5.868v3.47H28.705z"/>
	<path d="M38.963,4.771v14.67h-5.077V4.771h-4.337l0.102-4.465h13.547L43.3,4.771H38.963z"/>
	<path d="M51.798,19.772c-5.511,0-8.011-2.908-8.011-9.899C43.788,2.857,46.186,0,51.798,0s8.011,2.857,8.011,9.873
		C59.81,17.068,57.411,19.772,51.798,19.772z M51.773,4.464c-2.092,0-2.755,0.868-2.755,5.409c0,4.567,0.689,5.485,2.806,5.485
		c2.118,0,2.756-0.944,2.756-5.485C54.58,5.307,53.941,4.464,51.773,4.464z"/>
	<path d="M73.105,19.44l-5.715-8.827l-1.072-1.761l-0.051,0.025l0.026,2.067v8.496h-4.388V0.306h4.184l6.148,9.925l0.051-0.025
		l-0.051-2.041l0.025-7.858h4.388V19.44H73.105z"/>
</g>
</svg>
