<?xml version="1.0" encoding="utf-8"?>
<!-- Generator: Adobe Illustrator 16.0.0, SVG Export Plug-In . SVG Version: 6.00 Build 0)  -->
<!DOCTYPE svg PUBLIC "-//W3C//DTD SVG 1.1//EN" "http://www.w3.org/Graphics/SVG/1.1/DTD/svg11.dtd">
<svg version="1.1" id="Ebene_1" xmlns="http://www.w3.org/2000/svg" xmlns:xlink="http://www.w3.org/1999/xlink" x="0px" y="0px"
	 width="181.195px" height="67.115px" viewBox="0 0 181.195 67.115" enable-background="new 0 0 181.195 67.115"
	 xml:space="preserve">
<g>
	<path d="M15.046,21.166H8.07l-0.992,4.479H0L7.592,0h8.172l7.729,25.646h-7.455L15.046,21.166z M10.977,8.24l-1.642,7.352h4.479
		L12.174,8.24L11.66,5.505h-0.102L10.977,8.24z"/>
	<path d="M35.182,25.646h-9.984V0H35.25c5.506,0,8.309,2.564,8.309,6.633c0,2.701-1.23,4.445-3.145,5.369v0.068
		c2.564,0.854,3.932,2.838,3.932,6.018C44.346,22.705,41.576,25.646,35.182,25.646z M34.977,5.607H31.66v4.514h3.385
		c1.539,0,2.086-0.582,2.086-2.325C37.131,6.12,36.549,5.607,34.977,5.607z M35.147,15.113H31.66v5.061h3.624
		c1.675,0,2.291-0.547,2.291-2.564C37.575,15.832,37.027,15.113,35.147,15.113z"/>
	<path d="M56.07,11.693v4.445h-9.541v-4.445H56.07z"/>
	<path d="M14.943,66.671l-4.822-10.43H8.48v10.43H1.812V41.025H8.48v9.916h1.777l4.754-9.916H22.5l-6.154,12.275l6.463,13.37H14.943
		z"/>
	<path d="M37.918,62.191h-6.977l-0.992,4.479h-7.078l7.592-25.646h8.172l7.729,25.646h-7.454L37.918,62.191z M31.25,39.793
		c-1.676,0-2.531-0.648-2.531-2.291c0-1.538,0.855-2.359,2.531-2.359c1.743,0,2.529,0.821,2.529,2.359
		C33.779,39.008,32.993,39.793,31.25,39.793z M33.848,49.266l-1.641,7.352h4.479l-1.642-7.352l-0.513-2.735H34.43L33.848,49.266z
		 M37.781,39.793c-1.676,0-2.531-0.648-2.531-2.291c0-1.538,0.855-2.359,2.531-2.359c1.743,0,2.529,0.821,2.529,2.359
		C40.311,39.008,39.524,39.793,37.781,39.793z"/>
	<path d="M63.148,56.173l4.992,10.498h-7.729l-3.419-9.164h-2.257v9.164h-6.668V41.025h8.856c6.497,0,9.712,2.461,9.712,8.24
		C66.637,52.686,65.404,55.216,63.148,56.173z M57.062,46.564h-2.325v5.916h2.291c1.949,0,2.633-0.479,2.633-2.976
		C59.66,47.18,59.011,46.564,57.062,46.564z"/>
	<path d="M84.652,47.214c-1.129-0.41-2.668-0.684-4.274-0.684c-3.796,0-4.753,1.606-4.753,7.215c0,5.916,1.06,7.558,4.855,7.558
		c1.572,0,3.043-0.309,4.24-0.855l0.615,5.438c-1.539,0.752-3.863,1.23-5.848,1.23c-7.317,0-10.873-4.172-10.873-13.404
		c0-8.617,3.453-13.131,11.283-13.131c1.812,0,4.035,0.41,5.403,0.957L84.652,47.214z"/>
	<path d="M100.686,66.671V56.617h-6.224v10.054h-6.668V41.025h6.668v9.607h6.224v-9.607h6.701v25.646H100.686z"/>
	<path d="M127.49,60.893l-0.137,5.778h-16.517V41.025h16.071l0.137,5.881h-9.54v3.967h7.864v5.368h-7.864v4.651H127.49z"/>
	<path d="M145.13,56.173l4.993,10.498h-7.729l-3.42-9.164h-2.256v9.164h-6.668V41.025h8.855c6.498,0,9.712,2.461,9.712,8.24
		C148.618,52.686,147.387,55.216,145.13,56.173z M139.043,46.564h-2.324v5.916h2.291c1.949,0,2.633-0.479,2.633-2.976
		C141.643,47.18,140.992,46.564,139.043,46.564z"/>
	<path d="M166.805,66.671l-7.66-11.831l-1.436-2.359l-0.068,0.033l0.034,2.771v11.387h-5.882V41.025h5.608l8.241,13.301l0.068-0.033
		l-0.068-2.736l0.033-10.531h5.883v25.646H166.805z"/>
	<path d="M177.776,67.081c-2.394,0-3.454-0.923-3.454-3.249c0-2.085,1.061-3.282,3.454-3.282s3.419,1.197,3.419,3.282
		C181.195,65.781,180.17,67.081,177.776,67.081z"/>
</g>
</svg>
