<?xml version="1.0" encoding="utf-8"?>
<!-- Generator: Adobe Illustrator 16.0.0, SVG Export Plug-In . SVG Version: 6.00 Build 0)  -->
<!DOCTYPE svg PUBLIC "-//W3C//DTD SVG 1.1//EN" "http://www.w3.org/Graphics/SVG/1.1/DTD/svg11.dtd">
<svg version="1.1" id="Ebene_1" xmlns="http://www.w3.org/2000/svg" xmlns:xlink="http://www.w3.org/1999/xlink" x="0px" y="0px"
	 width="238.473px" height="124.762px" viewBox="0 0 238.473 124.762" enable-background="new 0 0 238.473 124.762"
	 xml:space="preserve">
<g>
	<path fill="#1A1A18" d="M11.547,20.753H6.194l-0.761,3.438H0L5.826,4.508h6.272l5.932,19.684h-5.722L11.547,20.753z M8.424,10.833
		l-1.26,5.643h3.438l-1.26-5.643l-0.394-2.1H8.871L8.424,10.833z"/>
	<path fill="#1A1A18" d="M29.416,24.191l-3.7-8.005h-1.26v8.005h-5.118V4.508h5.118v7.611h1.364l3.648-7.611h5.748l-4.724,9.422
		l4.96,10.262H29.416z"/>
	<path fill="#1A1A18" d="M45.472,9.101v15.091H40.25V9.101h-4.461l0.105-4.593h13.936l0.105,4.593H45.472z"/>
	<path fill="#1A1A18" d="M51.715,4.508h5.275v19.684h-5.275V4.508z"/>
	<path fill="#1A1A18" d="M67.59,24.533c-5.669,0-8.241-2.992-8.241-10.183c0-7.218,2.467-10.157,8.241-10.157
		s8.241,2.939,8.241,10.157C75.831,21.75,73.364,24.533,67.59,24.533z M67.564,8.786c-2.152,0-2.834,0.892-2.834,5.564
		c0,4.698,0.708,5.643,2.887,5.643c2.178,0,2.834-0.971,2.834-5.643C70.451,9.651,69.795,8.786,67.564,8.786z"/>
	<path fill="#1A1A18" d="M89.5,24.191l-5.879-9.081L82.519,13.3l-0.052,0.026l0.026,2.125v8.74h-4.514V4.508h4.304l6.325,10.209
		l0.052-0.026l-0.052-2.1l0.026-8.083h4.514v19.684H89.5z"/>
	<path fill="#1A1A18" d="M100.964,24.533c-2.073,0-4.121-0.473-5.721-1.365l0.656-4.357c1.601,0.814,3.228,1.312,4.934,1.312
		c1.627,0,2.257-0.551,2.257-1.601c0-2.52-7.821-1.732-7.821-8.162c0-3.438,2.1-6.168,6.955-6.168c1.811,0,3.753,0.341,5.17,0.945
		l-0.577,4.278c-1.496-0.446-2.992-0.708-4.252-0.708c-1.942,0-2.362,0.577-2.362,1.417c0,2.546,7.821,1.68,7.821,8.11
		C108.024,22.118,105.399,24.533,100.964,24.533z"/>
	<path fill="#1A1A18" d="M123.767,23.483c-1.364,0.656-3.596,1.076-5.616,1.076c-6.509,0-8.818-3.49-8.818-10.209
		c0-6.876,2.704-10.183,9.055-10.183c1.731,0,3.7,0.315,5.117,0.866l-0.472,4.383c-1.286-0.473-2.939-0.761-4.357-0.761
		c-3.228,0-3.962,1.207-3.962,5.643c0,4.672,0.761,5.695,3.306,5.695c0.395,0,0.814-0.026,1.182-0.105v-6.43h4.566V23.483z"/>
	<path fill="#1A1A18" d="M138.879,19.756l-0.104,4.436h-12.677V4.508h12.336l0.104,4.514h-7.322v3.045h6.036v4.12h-6.036v3.569
		H138.879z"/>
	<path fill="#1A1A18" d="M152.418,16.134l3.831,8.057h-5.931l-2.625-7.034h-1.732v7.034h-5.117V4.508h6.797
		c4.987,0,7.454,1.89,7.454,6.325C155.095,13.457,154.149,15.399,152.418,16.134z M147.746,8.759h-1.785V13.3h1.759
		c1.496,0,2.021-0.368,2.021-2.283C149.74,9.231,149.242,8.759,147.746,8.759z"/>
	<path fill="#1A1A18" d="M167.688,20.753h-5.354l-0.761,3.438h-5.433l5.826-19.684h6.272l5.932,19.684h-5.722L167.688,20.753z
		 M162.569,3.562c-1.286,0-1.941-0.499-1.941-1.758c0-1.181,0.655-1.811,1.941-1.811c1.339,0,1.942,0.63,1.942,1.811
		C164.512,2.959,163.908,3.562,162.569,3.562z M164.564,10.833l-1.26,5.643h3.438l-1.26-5.643l-0.394-2.1h-0.078L164.564,10.833z
		 M167.582,3.562c-1.285,0-1.941-0.499-1.941-1.758c0-1.181,0.656-1.811,1.941-1.811c1.339,0,1.942,0.63,1.942,1.811
		C169.524,2.959,168.921,3.562,167.582,3.562z"/>
	<path fill="#1A1A18" d="M182.302,9.101v15.091h-5.223V9.101h-4.462l0.105-4.593h13.936l0.105,4.593H182.302z"/>
	<path fill="#1A1A18" d="M11.469,55.677l-3.701-8.005h-1.26v8.005H1.391V35.993h5.118v7.611h1.365l3.648-7.611h5.748l-4.724,9.422
		l4.96,10.262H11.469z"/>
	<path fill="#1A1A18" d="M29.101,52.239h-5.354l-0.761,3.438h-5.433l5.826-19.684h6.272l5.932,19.684h-5.722L29.101,52.239z
		 M25.978,42.318l-1.26,5.643h3.438l-1.26-5.643l-0.394-2.1h-0.079L25.978,42.318z"/>
	<path fill="#1A1A18" d="M50.984,48.985c0,4.619-2.467,7.034-7.506,7.034s-7.585-2.415-7.585-7.034V35.993h5.144V48.88
		c0,1.758,0.683,2.546,2.441,2.546c1.785,0,2.388-0.735,2.388-2.546V35.993h5.118V48.985z"/>
	<path fill="#1A1A18" d="M58.617,40.586v3.464h6.01l-0.026,4.356h-5.984v7.27h-5.144V35.993h12.309l0.079,4.593H58.617z"/>
	<path fill="#1A1A18" d="M80.371,51.242l-0.105,4.436H67.589V35.993h12.335l0.105,4.515h-7.323v3.044h6.037v4.121h-6.037v3.569
		H80.371z"/>
	<path fill="#1A1A18" d="M93.856,55.677l-5.879-9.081l-1.102-1.811l-0.052,0.026l0.026,2.126v8.74h-4.514V35.993h4.304l6.325,10.209
		l0.052-0.026l-0.052-2.1l0.026-8.084h4.514v19.684H93.856z"/>
	<path fill="#1A1A18" d="M120.986,48.985c0,4.619-2.467,7.034-7.505,7.034c-5.039,0-7.585-2.415-7.585-7.034V35.993h5.144V48.88
		c0,1.758,0.682,2.546,2.441,2.546c1.785,0,2.388-0.735,2.388-2.546V35.993h5.117V48.985z"/>
	<path fill="#1A1A18" d="M134.996,55.677l-5.879-9.081l-1.102-1.811l-0.053,0.026l0.026,2.126v8.74h-4.515V35.993h4.305
		l6.325,10.209l0.052-0.026l-0.052-2.1l0.026-8.084h4.514v19.684H134.996z"/>
	<path fill="#1A1A18" d="M148.429,55.677h-7.112V35.993h7.008c5.983,0,8.425,2.782,8.425,9.737
		C156.749,52.948,153.967,55.677,148.429,55.677z M148.351,40.534h-1.916v10.656h1.916c2.257,0,3.018-0.683,3.018-5.512
		C151.368,41.321,150.66,40.534,148.351,40.534z"/>
	<path fill="#1A1A18" d="M172.463,55.677H164.8V35.993h7.716c4.226,0,6.378,1.969,6.378,5.092c0,2.073-0.945,3.412-2.415,4.121
		v0.052c1.969,0.656,3.019,2.179,3.019,4.619C179.497,53.42,177.371,55.677,172.463,55.677z M172.306,40.298h-2.546v3.464h2.599
		c1.181,0,1.601-0.446,1.601-1.784C173.959,40.691,173.513,40.298,172.306,40.298z M172.437,47.594h-2.677v3.884h2.782
		c1.286,0,1.759-0.42,1.759-1.968C174.301,48.145,173.881,47.594,172.437,47.594z"/>
	<path fill="#1A1A18" d="M181.749,35.993h5.275v19.684h-5.275V35.993z"/>
	<path fill="#1A1A18" d="M195.053,56.019c-2.073,0-4.121-0.473-5.722-1.365l0.656-4.357c1.601,0.813,3.229,1.312,4.934,1.312
		c1.628,0,2.258-0.551,2.258-1.601c0-2.52-7.821-1.732-7.821-8.162c0-3.438,2.1-6.167,6.955-6.167c1.811,0,3.753,0.341,5.17,0.944
		l-0.577,4.278c-1.496-0.446-2.992-0.709-4.252-0.709c-1.942,0-2.362,0.578-2.362,1.417c0,2.546,7.821,1.68,7.821,8.11
		C202.112,53.604,199.488,56.019,195.053,56.019z"/>
	<path fill="#1A1A18" d="M0.682,87.163V83.83l6.272-9.973l1.155-1.732l-0.026-0.052H0.839l0.131-4.593H14.12v3.674l-6.062,9.658
		l-1.155,1.706l0.026,0.079h7.244l-0.079,4.566H0.682z"/>
	<path fill="#1A1A18" d="M30.886,80.471c0,4.619-2.467,7.034-7.506,7.034s-7.585-2.415-7.585-7.034V67.479h5.144v12.886
		c0,1.758,0.682,2.545,2.441,2.545c1.785,0,2.388-0.734,2.388-2.545V67.479h5.118V80.471z"/>
	<path fill="#1A1A18" d="M51.325,83.646v3.517h-4.646v-3.517h-7.769l-0.42-3.202l6.824-12.965h6.01V79.5h1.601l-0.105,4.147H51.325z
		 M47.02,74.565l0.131-2.126l-0.052-0.026L43.582,79.5h3.254L47.02,74.565z"/>
	<path fill="#1A1A18" d="M61.083,87.426c-4.882,0-6.85-2.966-6.85-10c0-7.506,1.995-10.157,6.902-10.157
		c4.803,0,6.903,2.65,6.903,10.157C68.039,84.46,65.86,87.426,61.083,87.426z M61.136,71.652c-1.391,0-2.021,0.708-2.021,5.721
		c0,5.275,0.63,5.827,2.021,5.827c1.365,0,1.968-0.683,1.968-5.827C63.104,72.256,62.5,71.652,61.136,71.652z"/>
	<path fill="#1A1A18" d="M76.538,87.426c-4.882,0-6.85-2.966-6.85-10c0-7.506,1.995-10.157,6.902-10.157
		c4.803,0,6.903,2.65,6.903,10.157C83.493,84.46,81.314,87.426,76.538,87.426z M76.59,71.652c-1.391,0-2.021,0.708-2.021,5.721
		c0,5.275,0.63,5.827,2.021,5.827c1.365,0,1.968-0.683,1.968-5.827C78.558,72.256,77.955,71.652,76.59,71.652z"/>
	<path fill="#1A1A18" d="M99.522,80.471h-4.068c0.577,2.205,1.916,2.913,3.858,2.913c0.918,0,1.837-0.263,2.677-0.577l0.341,3.7
		c-1.128,0.578-2.545,0.893-4.356,0.893c-4.356,0-6.981-2.231-7.769-6.929h-1.942l0.026-2.52h1.68v-0.945h-1.68l-0.026-2.598h1.942
		c0.84-4.331,3.674-7.008,8.005-7.008c1.732,0,3.044,0.263,4.146,0.683l-0.918,4.042c-0.604-0.21-1.286-0.341-2.073-0.341
		c-2.126,0-3.307,0.788-3.858,2.625h5.38l-0.551,2.598h-5.17v0.945h4.881L99.522,80.471z"/>
	<path fill="#1A1A18" d="M122.061,72.229c-0.866-0.315-2.047-0.525-3.28-0.525c-2.913,0-3.648,1.234-3.648,5.538
		c0,4.541,0.813,5.8,3.726,5.8c1.208,0,2.336-0.236,3.255-0.656l0.473,4.173c-1.182,0.577-2.966,0.945-4.488,0.945
		c-5.616,0-8.346-3.202-8.346-10.288c0-6.614,2.651-10.078,8.661-10.078c1.391,0,3.097,0.315,4.146,0.735L122.061,72.229z"/>
	<path fill="#1A1A18" d="M134.916,83.725h-5.354l-0.761,3.438h-5.433l5.826-19.684h6.272l5.932,19.684h-5.722L134.916,83.725z
		 M131.793,73.804l-1.26,5.643h3.438l-1.26-5.643l-0.394-2.1h-0.078L131.793,73.804z"/>
	<path fill="#1A1A18" d="M147.902,87.504c-2.073,0-4.121-0.473-5.722-1.365l0.656-4.357c1.601,0.814,3.229,1.312,4.934,1.312
		c1.628,0,2.258-0.551,2.258-1.601c0-2.52-7.821-1.732-7.821-8.162c0-3.438,2.1-6.168,6.955-6.168c1.811,0,3.753,0.341,5.17,0.945
		l-0.577,4.278c-1.496-0.446-2.992-0.708-4.252-0.708c-1.942,0-2.362,0.577-2.362,1.417c0,2.546,7.821,1.68,7.821,8.11
		C154.962,85.09,152.338,87.504,147.902,87.504z"/>
	<path fill="#1A1A18" d="M166.689,87.163v-7.716h-4.776v7.716h-5.118V67.479h5.118v7.375h4.776v-7.375h5.145v19.684H166.689z"/>
	<path fill="#1A1A18" d="M182.144,87.163h-7.664V67.479h7.717c4.225,0,6.377,1.968,6.377,5.091c0,2.073-0.944,3.412-2.414,4.121
		v0.052c1.968,0.656,3.018,2.178,3.018,4.619C189.177,84.906,187.051,87.163,182.144,87.163z M181.986,71.783h-2.546v3.465h2.598
		c1.182,0,1.602-0.446,1.602-1.785C183.64,72.177,183.193,71.783,181.986,71.783z M182.117,79.08h-2.677v3.884h2.781
		c1.286,0,1.759-0.42,1.759-1.968C183.98,79.631,183.561,79.08,182.117,79.08z"/>
	<path fill="#1A1A18" d="M201.009,83.725h-5.354l-0.761,3.438h-5.434l5.827-19.684h6.272l5.932,19.684h-5.722L201.009,83.725z
		 M197.886,73.804l-1.26,5.643h3.438l-1.26-5.643l-0.394-2.1h-0.079L197.886,73.804z"/>
	<path fill="#1A1A18" d="M219.849,72.229c-0.866-0.315-2.048-0.525-3.281-0.525c-2.913,0-3.647,1.234-3.647,5.538
		c0,4.541,0.813,5.8,3.727,5.8c1.207,0,2.336-0.236,3.254-0.656l0.473,4.173c-1.181,0.577-2.966,0.945-4.487,0.945
		c-5.617,0-8.347-3.202-8.347-10.288c0-6.614,2.651-10.078,8.661-10.078c1.391,0,3.097,0.315,4.146,0.735L219.849,72.229z"/>
	<path fill="#1A1A18" d="M232.337,87.163l-3.701-8.005h-1.26v8.005h-5.117V67.479h5.117v7.611h1.365l3.648-7.611h5.747l-4.724,9.422
		l4.96,10.262H232.337z"/>
	<path fill="#1A1A18" d="M6.535,118.99c-2.073,0-4.12-0.473-5.721-1.365l0.656-4.357c1.601,0.814,3.229,1.312,4.935,1.312
		c1.627,0,2.257-0.551,2.257-1.601c0-2.52-7.821-1.732-7.821-8.162c0-3.438,2.1-6.168,6.955-6.168c1.811,0,3.753,0.341,5.17,0.945
		l-0.578,4.278c-1.496-0.446-2.992-0.708-4.251-0.708c-1.942,0-2.362,0.577-2.362,1.417c0,2.546,7.821,1.68,7.821,8.11
		C13.595,116.575,10.97,118.99,6.535,118.99z"/>
	<path fill="#1A1A18" d="M15.638,98.965h5.275v19.684h-5.275V98.965z"/>
	<path fill="#1A1A18" d="M35.582,103.715c-0.866-0.315-2.047-0.525-3.281-0.525c-2.913,0-3.648,1.234-3.648,5.538
		c0,4.541,0.813,5.8,3.727,5.8c1.208,0,2.336-0.236,3.255-0.656l0.472,4.173c-1.181,0.577-2.966,0.945-4.488,0.945
		c-5.617,0-8.346-3.202-8.346-10.288c0-6.614,2.651-10.078,8.661-10.078c1.391,0,3.097,0.315,4.146,0.735L35.582,103.715z"/>
	<path fill="#1A1A18" d="M47.886,118.648v-7.716H43.11v7.716h-5.118V98.965h5.118v7.375h4.776v-7.375h5.144v19.684H47.886z"/>
	<path fill="#1A1A18" d="M68.458,114.213l-0.104,4.436H55.676V98.965h12.335l0.105,4.514h-7.322v3.045h6.036v4.12h-6.036v3.569
		H68.458z"/>
	<path fill="#1A1A18" d="M81.996,110.591l3.832,8.057h-5.931l-2.625-7.034H75.54v7.034h-5.118V98.965h6.797
		c4.987,0,7.454,1.89,7.454,6.325C84.673,107.914,83.728,109.856,81.996,110.591z M77.325,103.216H75.54v4.541h1.759
		c1.496,0,2.021-0.368,2.021-2.283C79.319,103.688,78.82,103.216,77.325,103.216z"/>
	<path fill="#1A1A18" d="M98.63,118.648l-5.879-9.081l-1.102-1.811l-0.052,0.026l0.026,2.125v8.74h-4.514V98.965h4.304l6.325,10.209
		l0.052-0.026l-0.052-2.1l0.026-8.083h4.514v19.684H98.63z"/>
	<path fill="#1A1A18" d="M105.45,112.77l-0.735-13.805h5.17l-0.708,13.805H105.45z M107.392,118.963
		c-1.758,0-2.546-0.656-2.546-2.257c0-1.443,0.788-2.31,2.546-2.31c1.785,0,2.572,0.866,2.572,2.31
		C109.963,118.045,109.176,118.963,107.392,118.963z"/>
</g>
</svg>
