<svg enable-background="new 0 0 643.8 600" viewBox="0 0 643.8 600" xmlns="http://www.w3.org/2000/svg"><text fill="#fff" font-family="ClanPro-NarrBlack" font-size="12.2353" transform="matrix(.9919 0 0 1 -430.8037 362.9279)">Mehr infos</text><path clip-rule="evenodd" d="m625.5 300.7h-13.5l-5.9-16h-3.9v16h-11.6v-44.8h15.4c11.3 0 16.9 4.3 16.9 14.4 0 6-2.1 10.4-6.1 12.1zm-19.3-35.1h-4v10.3h4c3.4 0 4.6-.8 4.6-5.2-.1-4-1.2-5.1-4.6-5.1zm-38.3 35.9c-11.4 0-17.2-5.5-17.2-16v-29.5h11.7v29.3c0 4 1.5 5.8 5.5 5.8s5.4-1.7 5.4-5.8v-29.3h11.6v29.5c0 10.5-5.6 16-17 16zm5.7-47.7c-2.9 0-4.4-1.1-4.4-4 0-2.7 1.5-4.1 4.4-4.1 3 0 4.4 1.4 4.4 4.1 0 2.6-1.3 4-4.4 4zm-11.3 0c-2.9 0-4.4-1.1-4.4-4 0-2.7 1.5-4.1 4.4-4.1 3 0 4.4 1.4 4.4 4.1 0 2.6-1.4 4-4.4 4zm-31.5 20.5h13.6l-.1 9.9h-13.6v16.5h-11.7v-44.8h28l.2 10.4h-16.4zm-28.8 78.1v8h-10.5v-8h-17.6l-1-7.3 15.5-29.5h13.6v27.4h3.6l-.2 9.4zm-9.6-25.5-8 16.1h7.4l.4-11.2.3-4.8zm-3.6-26.2-8.4-18.2h-2.9v18.2h-11.5v-44.8h11.6v17.3h3.1l8.3-17.3h13l-10.7 21.4 11.2 23.3h-13.7zm-35.5-9.4c2.7 0 5.3-.5 7.4-1.5l1.1 9.5c-2.7 1.3-6.7 2.1-10.2 2.1-12.7 0-18.9-7.3-18.9-23.4 0-15 6-22.9 19.6-22.9 3.2 0 7 .7 9.4 1.7l-1.1 9.9c-2-.7-4.6-1.2-7.4-1.2-6.6 0-8.3 2.8-8.3 12.6-.1 10.4 1.8 13.2 8.4 13.2zm-35.5 1.6h-12.1l-1.7 7.8h-12.3l13.2-44.8h14.2l13.4 44.8h-13zm-5-22.6-.9-4.8h-.2l-1 4.8-2.9 12.8h7.8zm-21.8 17.2c0 8.1-4.8 13.2-15.9 13.2h-17.4v-44.8h17.5c9.6 0 14.5 4.5 14.5 11.6 0 4.7-2.1 7.8-5.5 9.4v.1c4.4 1.5 6.8 5 6.8 10.5zm-16.3-21.8h-5.7v7.9h5.9c2.7 0 3.6-1 3.6-4.1 0-2.9-1-3.8-3.8-3.8zm.3 16.6h-6v8.8h6.3c2.9 0 4-1 4-4.5 0-3-1-4.3-4.3-4.3zm6.3 31.4-18.6 53.6h-9l18.3-53.6zm-44.3 47.3c-11.1 0-15.5-6.7-15.5-22.7 0-17.1 4.5-23.1 15.6-23.1 10.9 0 15.6 6 15.6 23.1.1 16-4.8 22.7-15.7 22.7zm.2-35.9c-3.1 0-4.6 1.6-4.6 13 0 12 1.4 13.3 4.6 13.3 3.1 0 4.5-1.6 4.5-13.3-.1-11.6-1.5-13-4.5-13zm2.9-41.9h-10.8v17.5h-11.6v-44.8h11.6v16.8h10.8v-16.8h11.7v44.8h-11.7zm-47.2 69.2h5.3v-23.2l-6.8 3.8-1.2-9.1 12.9-8.2h6.7v36.7h5.3v8h-22.2zm4.6-50.9c-4.7 0-9.3-1.1-13-3.1l1.5-9.9c3.6 1.9 7.3 3 11.2 3 3.7 0 5.1-1.3 5.1-3.6 0-5.7-17.7-3.9-17.7-18.6 0-7.8 4.8-14 15.8-14 4.1 0 8.5.8 11.7 2.1l-1.3 9.7c-3.4-1-6.8-1.6-9.6-1.6-4.4 0-5.4 1.3-5.4 3.2 0 5.8 17.7 3.8 17.7 18.4 0 8.9-6 14.4-16 14.4zm-12.1 76.6 5.5 1.3.8-5.8h5l.8 5.8 5.5-1.3 1.7 4.9-5.3 2.6 3 5.1-3.7 2.9-4.4-4.3-4.5 4.4-3.9-2.7 2.9-5.3-5.3-2.5zm-17.3-85.2h-12.1l-1.7 7.8h-12.3l13.2-44.8h14.2l13.4 44.8h-13zm-5-22.6-.9-4.8h-.2l-1 4.8-2.9 12.8h7.8zm-6.2 44.6c4.1 0 8.5.8 11.7 2.1l-1.3 9.7c-3.4-1-6.8-1.6-9.6-1.6-4.4 0-5.4 1.3-5.4 3.2 0 5.8 17.7 3.8 17.7 18.4 0 8.8-5.9 14.3-16 14.3-4.7 0-9.3-1.1-13-3.1l1.5-9.9c3.6 1.9 7.3 3 11.2 3 3.7 0 5.1-1.3 5.1-3.6 0-5.7-17.7-3.9-17.7-18.6.1-7.7 4.8-13.9 15.8-13.9zm-25.2-23.6c2.7 0 5.3-.5 7.4-1.5l1.1 9.5c-2.7 1.3-6.7 2.1-10.2 2.1-12.7 0-18.9-7.3-18.9-23.4 0-15 6-22.9 19.6-22.9 3.2 0 7 .7 9.4 1.7l-1.1 9.9c-2-.7-4.6-1.2-7.4-1.2-6.6 0-8.3 2.8-8.3 12.6-.1 10.4 1.8 13.2 8.4 13.2zm6.1 46.5c0 16.4-6.3 22.6-18.8 22.6h-16.1v-44.8h15.9c13.5 0 19 6.4 19 22.2zm-23.4 12.4h4.3c5.1 0 6.8-1.6 6.8-12.5 0-9.9-1.6-11.7-6.8-11.7h-4.3zm-29.2-7.3h-10.8v17.5h-11.6v-44.8h11.6v16.8h10.8v-16.8h11.7v44.8h-11.7zm0-42.2h-11.8v-34.3h-10.1l.2-10.4h31.5l.2 10.4h-10.1v34.3zm-24.2-10.4-.2 10.4h-30.4v-7.6l14.2-22.7 2.6-3.9-.1-.1h-16.4l.3-10.4h29.8v8.4l-13.7 22-2.6 3.9.1.2h16.4zm-42.7 10.4h-11.8v-34.3h-10.1l.2-10.4h31.6l.2 10.4h-10.1zm-23.9-10.1-.2 10.1h-28.7v-44.8h27.9l.2 10.3h-16.5v6.9h13.7v9.4h-13.7v8.1zm-42.6 69.8h-16.1v-44.8h15.9c13.6 0 19.1 6.3 19.1 22.1-.1 16.5-6.4 22.7-18.9 22.7zm-.2-34.4h-4.3v24.2h4.3c5.1 0 6.8-1.6 6.8-12.5.1-9.9-1.5-11.7-6.8-11.7zm-9.3-24.5c-3.3 0-6-.6-8.1-1.6l.6-9.7c1.2.7 3.2 1.1 5.5 1.1 4.9 0 7.3-1.9 7.3-7.3v-28.1h11.9v28.4c-.1 13.1-6.7 17.2-17.2 17.2zm4.7 109.4c3.7 0 5.1-1.3 5.1-3.6 0-5.7-17.7-3.9-17.7-18.6 0-7.8 4.8-14 15.8-14 4.1 0 8.5.8 11.7 2.1l-1.3 9.7c-3.4-1-6.8-1.6-9.6-1.6-4.4 0-5.4 1.3-5.4 3.2 0 5.8 17.7 3.8 17.7 18.4 0 8.8-5.9 14.3-16 14.3-4.7 0-9.3-1.1-13-3.1l1.5-9.9c3.7 1.9 7.4 3.1 11.2 3.1zm32.9 9.2h-11.9v-44.8h12v44.8zm24.6-69.8-.2 10.1h-28.8v-44.8h27.9l.2 10.3h-16.5v6.9h13.7v9.4h-13.7v8.1zm.4 24.3c3.2 0 7 .7 9.4 1.7l-1.1 9.9c-2-.7-4.6-1.2-7.4-1.2-6.6 0-8.3 2.8-8.3 12.6 0 10.3 1.8 13.2 8.4 13.2 2.7 0 5.3-.5 7.4-1.5l1.1 9.5c-2.7 1.3-6.7 2.1-10.2 2.1-12.7 0-18.9-7.3-18.9-23.4 0-15.1 6-22.9 19.6-22.9zm28.2-59h10.2v44.8h-8.3l-13.3-20.7-2.5-4.1-.1.1.1 4.8v19.9h-10.2v-44.8h9.8l14.3 23.2.1-.1-.2-4.7zm-2.9 76.5h10.8v-16.8h11.7v44.8h-11.7v-17.5h-10.8v17.5h-11.6v-44.8h11.6zm56.7-6.5h-16.6v6.9h13.7v9.4h-13.7v8.1h17.4l-.2 10.1h-28.7v-44.8h27.9zm37.5 4.1c0 6-2.1 10.4-6.1 12.1l8.7 18.3h-13.4l-5.9-16h-3.9v16h-11.6v-44.8h15.4c11.2 0 16.8 4.3 16.8 14.4zm-20.7 5.6h4c3.4 0 4.6-.8 4.6-5.2 0-4.1-1.1-5.1-4.5-5.1h-4v10.3zm50.3 3.3.1-.1-.1-4.8.1-18.4h10.2v44.8h-8.3l-13.3-20.7-2.5-4.1-.1.1.1 4.8v19.9h-10.2v-44.8h9.8zm21.1 10.8c4.2 0 5.9 2.1 5.9 5.7 0 3.4-1.8 5.7-5.9 5.7s-6-1.6-6-5.7c0-3.6 1.9-5.7 6-5.7zm120.8-84.1c-3.4 0-6.5 1.6-9.4 3.6l-2.7-9.3c3.6-2.6 8.3-4.5 14.3-4.5 9.8 0 14.6 5.3 14.6 13.2 0 7.3-5.8 13.8-14.2 21.8l.1.2h13.9l-.2 10.1h-28v-7.3c9.2-10.3 16.7-17.7 16.7-23.6 0-2.7-1.5-4.2-5.1-4.2zm37.3-10.1c10.9 0 15.6 6 15.6 23.1 0 16-4.9 22.7-15.8 22.7-11.1 0-15.5-6.7-15.5-22.7 0-17.1 4.6-23.1 15.7-23.1zm0 36.2c3.1 0 4.5-1.6 4.5-13.3 0-11.6-1.4-13-4.5-13-3.2 0-4.6 1.6-4.6 13 0 12 1.4 13.3 4.6 13.3zm36.3-9.5h-16.6v-7.8h16.6zm74.2-3.6 1.5 4.6h.2l1.5-4.5 8-22.7h12.8v44.8h-10.7v-18.7l.1-4.8-.2-.1-1.5 4.7-6.6 19h-7.6l-6.5-18.9-1.5-4.7-.1.1.1 4.8v18.7h-10.2v-44.8h12.8z" fill-rule="evenodd"/></svg>