<svg enable-background="new 0 0 203.7 63.6" viewBox="0 0 203.7 63.6" xmlns="http://www.w3.org/2000/svg"><path clip-rule="evenodd" d="m188.4 25.6c-2.4 0-2.9.7-2.9 1.7 0 3.1 9.5 2 9.5 9.9 0 4.7-3.2 7.7-8.6 7.7-2.5 0-5-.6-7-1.7l.8-5.3c1.9 1 3.9 1.6 6 1.6 2 0 2.7-.7 2.7-1.9 0-3.1-9.5-2.1-9.5-9.9 0-4.2 2.6-7.5 8.5-7.5 2.2 0 4.6.4 6.3 1.2l-.7 5.2c-1.7-.6-3.5-1-5.1-1zm-21.5 19.3c-6.9 0-10-3.6-10-12.4s3-12.4 10-12.4 10 3.6 10 12.4c0 9-3 12.4-10 12.4zm0-19.2c-2.6 0-3.5 1.1-3.5 6.8s.9 6.9 3.5 6.9c2.7 0 3.5-1.2 3.5-6.9s-.8-6.8-3.5-6.8zm-20.9 4.6h7.3v5.3h-7.3v8.9h-6.3v-24h15l.1 5.6h-8.8zm-21.9 3.1-1.3-2.2h-.1v2.6 10.6h-5.5v-24h5.2l7.7 12.4h.1l-.1-2.6v-9.8h5.5v24h-4.4zm-17.6-12.9h6.4v24h-6.4zm-17.9 24-3.2-8.6h-2.1v8.6h-6.2v-24h8.3c6.1 0 9.1 2.3 9.1 7.7 0 3.2-1.1 5.6-3.3 6.5l4.7 9.8zm-3.1-18.8h-2.2v5.5h2.1c1.8 0 2.5-.4 2.5-2.8 0-2.1-.6-2.7-2.4-2.7zm-18.7 9.4h-5.8v9.4h-6.2v-24h6.2v9h5.8v-9h6.3v24h-6.3zm-15.2 4-.1 5.4h-15.5v-24h15l.1 5.5h-8.9v3.7h7.3v5h-7.3v4.3h9.4zm-25.4-4.6.1-2.6h-.1l-.8 2.5-3.5 10.2h-4.1l-3.5-10.1-.8-2.5h-.1v2.6 10h-5.4v-24h6.9l4.2 12.1.8 2.5h.1l.8-2.4 4.3-12.1h6.9v24h-5.7v-10.2z" fill="#fefefe" fill-rule="evenodd"/></svg>