<svg enable-background="new 0 0 227.3 152.5" viewBox="0 0 227.3 152.5" xmlns="http://www.w3.org/2000/svg"><path clip-rule="evenodd" d="m204.2 71.7h-8.2v-22.5h8.1c6.9 0 9.7 3.2 9.7 11.1 0 8.3-3.2 11.4-9.6 11.4zm-.1-17.3h-2.2v12.2h2.2c2.6 0 3.5-.8 3.5-6.3 0-5-.8-5.9-3.5-5.9zm-22.2 7-1.3-2.1h-.1v2.4 10h-5.2v-22.5h5l7.3 11.7h.1l-.1-2.4v-9.2h5.2v22.5h-4.2zm-18 10.7c-5.8 0-8.7-2.8-8.7-8v-14.9h5.9v14.8c0 2 .8 2.9 2.8 2.9 2.1 0 2.8-.8 2.8-2.9v-14.8h5.9v14.8c-.1 5.4-2.9 8.1-8.7 8.1zm-14.5-33.4h-6v-17.2h-5.1l.1-5.2h16.1l.1 5.2h-5.1v17.2zm-17-23.5c-1.5 0-2.2-.6-2.2-2s.8-2.1 2.2-2.1c1.5 0 2.2.7 2.2 2.1.1 1.3-.6 2-2.2 2zm-5.8 0c-1.5 0-2.2-.6-2.2-2s.8-2.1 2.2-2.1c1.5 0 2.2.7 2.2 2.1.1 1.3-.6 2-2.2 2zm-.7 1h7.2l6.8 22.5h-6.6l-.9-3.9h-6.2l-.9 3.9h-6.1-.1-6.7l-3-8h-2v8h-5.9v-22.5h7.8c5.8 0 8.6 2.2 8.6 7.2 0 3-1.1 5.2-3.1 6.1l4.3 9.1zm5.5 13.7-1.5-6.5-.5-2.4h-.1l-.5 2.4-1.5 6.5zm-21.9-8.8h-2.1v5.2h2c1.7 0 2.3-.4 2.3-2.6.1-2.1-.4-2.6-2.2-2.6zm-1.6 34c0 2.4-1.1 3.9-2.8 4.7v.1c2.3.8 3.5 2.5 3.5 5.3 0 4.1-2.5 6.6-8.1 6.6h-8.8v-22.6h8.9c4.8 0 7.3 2.3 7.3 5.9zm-7.6-.9h-2.9v4h3c1.4 0 1.8-.5 1.8-2 0-1.6-.5-2-1.9-2zm.2 8.3h-3.1v4.4h3.2c1.5 0 2-.5 2-2.2 0-1.6-.5-2.2-2.1-2.2zm-1.2-28.8-.1 5.1h-14.6v-22.6h14.2l.1 5.2h-8.4v3.5h7v4.7h-7v4.1zm-34.1-6.2c0-7.9 3.1-11.6 10.4-11.6 2 0 4.3.4 5.9 1l-.5 5c-1.5-.5-3.4-.9-5-.9-3.7 0-4.6 1.4-4.6 6.5 0 5.3.9 6.5 3.8 6.5.5 0 .9 0 1.4-.1v-7.4h5.3v11.5c-1.6.8-4.1 1.2-6.5 1.2-7.5 0-10.2-4-10.2-11.7zm-5.7 11.2h-6v-17.2h-5.1l.1-5.2h16.1l.1 5.2h-5.1v17.2zm-9.4 0h-13.5v-22.5h6v17.3h7.7zm-22.5 29.1h-6.2l-.9 3.9h-6.3l6.8-22.5h7.2l6.8 22.5h-6.6zm-2.5-11.3-.5-2.4h-.1l-.5 2.4-1.5 6.5h4zm2.5-21.7h-6.2l-.9 3.9h-6.3l6.8-22.5h7.2l6.8 22.5h-6.6zm-2.5-11.3-.5-2.4h-.1l-.5 2.4-1.5 6.5h4zm1.3 70.1.8 2.3h.1l.8-2.3 4.1-11.4h6.5v22.5h-5.4v-9.4l.1-2.4h-.1l-.8 2.3-3.4 9.5h-3.8l-3.3-9.5-.8-2.3h-.1v2.4 9.4h-5.2v-22.5h6.5zm-4.5 38.9h7.7l-.2 5.2h-13.5v-22.5h6zm18.1-17.6c6.7 0 9.5 3.4 9.5 11.6 0 8.5-2.8 11.6-9.5 11.6-6.5 0-9.5-3.4-9.5-11.6 0-8.3 2.8-11.6 9.5-11.6zm0 18c2.5 0 3.3-1.1 3.3-6.5s-.8-6.4-3.3-6.4-3.3 1-3.3 6.4c0 5.5.8 6.5 3.3 6.5zm8-28.2h-6.1v-22.5h6.1zm5.6-39.6c0 4.1-2.5 6.6-8.1 6.6h-8.8v-22.5h8.9c4.9 0 7.4 2.2 7.4 5.8 0 2.4-1.1 3.9-2.8 4.7v.1c2.1.8 3.4 2.5 3.4 5.3zm-8.3-10.9h-2.9v4h3c1.4 0 1.8-.5 1.8-2 0-1.6-.5-2-1.9-2zm.1 8.3h-3.1v4.4h3.2c1.5 0 2-.5 2-2.2.1-1.6-.4-2.2-2.1-2.2zm20.9 19.7.1 5.2h-5.1v17.2h-6v-17.1h-5.1l.1-5.2h16zm-8.7 50.9c1.9 0 2.6-.6 2.6-1.8 0-2.9-9-2-9-9.3 0-3.9 2.4-7.1 8-7.1 2.1 0 4.3.4 6 1.1l-.7 4.9c-1.7-.5-3.5-.8-4.9-.8-2.2 0-2.7.7-2.7 1.6 0 2.9 9 1.9 9 9.3 0 4.4-3 7.2-8.1 7.2-2.4 0-4.8-.5-6.6-1.6l.8-5c1.8.9 3.7 1.5 5.6 1.5zm14.4-73.6v11.5c-1.6.8-4.1 1.2-6.5 1.2-7.5 0-10.2-4-10.2-11.7 0-7.9 3.1-11.6 10.4-11.6 2 0 4.3.4 5.9 1l-.5 5c-1.5-.5-3.4-.9-5-.9-3.7 0-4.6 1.4-4.6 6.5 0 5.3.9 6.5 3.8 6.5.5 0 .9 0 1.4-.1v-7.3h5.3zm2 73h7.7l-.2 5.2h-13.4v-22.5h6v17.3zm13.6-27.8-.9-3.9h-6.2l-.9 3.9h-6.3l6.7-22.5h7.2l6.8 22.5zm-3.4-15.2-.5-2.4h-.1l-.5 2.4-1.5 6.4h4zm5.2-22.8-.1 5.1h-14.7v-22.6h14.2l.1 5.2h-8.4v3.5h7v4.7h-7v4.1zm8.6 53.7h-8.4v3.5h7v4.7h-7v4.1h8.8l-.1 5.1h-14.6v-22.5h14.2zm12.1-5.6c2 0 4.3.4 5.9 1l-.5 5c-1.5-.5-3.4-.9-5-.9-3.7 0-4.6 1.4-4.6 6.4 0 5.3.9 6.5 3.8 6.5.5 0 .9 0 1.4-.1v-7.3h5.3v11.5c-1.6.8-4.1 1.2-6.5 1.2-7.5 0-10.2-4-10.2-11.7-.1-7.8 3.1-11.6 10.4-11.6zm23.2 5.6h-8.4v3.5h7v4.7h-7v4.1h8.8l-.1 5.1h-14.6v-22.5h14.2zm-37.6-15.7v-22.5h5.9v8.7h1.6l4.2-8.7h6.6l-5.4 10.8 5.7 11.7h-7l-4.3-9.1h-1.5v9.1zm30-38-.1 5.1h-14.6v-22.6h14.2l.1 5.2h-8.4v3.5h7v4.7h-7v4.1zm-2.4 28.9h-1.5v9.1h-5.8v-22.5h5.9v8.7h1.6l4.2-8.7h6.6l-5.5 10.8 5.7 11.7h-7zm17-46.4h5.2v22.5h-4.2l-6.8-10.4-1.3-2.1h-.1v2.4 10h-5.1v-22.4h5l7.3 11.7h.1l-.1-2.4zm1.6 47.8c0 2 .8 2.9 2.8 2.9 2.1 0 2.8-.8 2.8-2.9v-14.8h5.9v14.9c0 5.3-2.8 8-8.7 8s-8.7-2.8-8.7-8v-14.9h5.9zm6.3 29.9v-2.4-9.2h5.2v22.5h-4.2l-6.8-10.4-1.3-2.1h-.1v2.4 10h-5v-22.5h5zm10.8 5.5c2.1 0 3 1.1 3 2.9 0 1.7-.9 2.8-3 2.8s-3.1-.8-3.1-2.8c0-1.9 1-2.9 3.1-2.9z" fill="#020204" fill-rule="evenodd"/></svg>