<?xml version="1.0" encoding="utf-8"?>
<!-- Generator: Adobe Illustrator 23.1.1, SVG Export Plug-In . SVG Version: 6.00 Build 0)  -->
<svg version="1.1" id="Ebene_1" xmlns="http://www.w3.org/2000/svg" xmlns:xlink="http://www.w3.org/1999/xlink" x="0px" y="0px"
	 viewBox="0 0 317.8 124.8" style="enable-background:new 0 0 317.8 124.8;" xml:space="preserve">
<style type="text/css">
	.st0{fill-rule:evenodd;clip-rule:evenodd;}
</style>
<path class="st0" d="M248.6,42.9v-5.4h11.7v5.4H248.6z M229.7,41.4l-1.8-2.9l-0.1,0l0,3.4v13.9h-7.2V24.6h6.9l10.1,16.2l0.1,0
	l-0.1-3.3l0-12.8h7.2v31.3h-5.8L229.7,41.4z M217.5,48.8l-0.2,7h-20.3V24.6h19.7l0.2,7.2h-11.7v4.8h9.7v6.5h-9.7v5.7H217.5z
	 M197.1,70.5h7.2v31.3h-5.8l-9.4-14.4l-1.8-2.9l-0.1,0l0,3.4v13.9H180V70.5h6.9l10.1,16.2l0.1,0l-0.1-3.3L197.1,70.5z M177.5,41.4
	l-1.8-2.9l-0.1,0l0,3.4v13.9h-7.2V24.6h6.9l10.1,16.2l0.1,0l-0.1-3.3l0-12.8h7.2v31.3h-5.8L177.5,41.4z M176.1,70.5v20.6
	c0,7.3-3.9,11.2-12,11.2c-8.1,0-12.1-3.8-12.1-11.2V70.5h8.2v20.5c0,2.8,1.1,4,3.9,4c2.9,0,3.8-1.2,3.8-4V70.5H176.1z M149,41.4
	l-1.8-2.9l-0.1,0l0,3.4v13.9h-7.2V24.6h6.9L157,40.8l0.1,0l-0.1-3.3l0-12.8h7.2v31.3h-5.8L149,41.4z M147.3,78.3
	c-2.1-0.8-4.7-1.2-7-1.2c-5.2,0-6.3,1.9-6.3,9c0,7.4,1.2,9,5.3,9c0.6,0,1.3,0,1.9-0.2V84.7h7.3v15.9c-2.2,1-5.8,1.7-9,1.7
	c-10.4,0-14.1-5.5-14.1-16.2c0-10.9,4.3-16.2,14.5-16.2c2.8,0,5.9,0.5,8.2,1.4L147.3,78.3z M126.9,24.6h8.4v31.3h-8.4V24.6z
	 M114.6,55.8l-5.9-12.7h-2v12.7h-8.2V24.6h8.2v12.1h2.2l5.8-12.1h9.2l-7.6,15l7.9,16.3H114.6z M78.9,41.4l-1.8-2.9l-0.1,0l0,3.4
	v13.9h-7.2V24.6h6.9l10.1,16.2l0.1,0l-0.1-3.3l0-12.8h7.2v31.3h-5.8L78.9,41.4z M57.4,50.4h-8.6l-1.2,5.5h-8.7l9.3-31.3h10l9.5,31.3
	h-9.2L57.4,50.4z M53.9,34.6l-0.6-3.3h-0.1l-0.7,3.3l-2,9h5.5L53.9,34.6z M34.3,55.8h-8.4v-24h-7.1l0.2-7.3h22.3l0.2,7.3h-7.1V55.8z
	 M43.3,80.5c0,4.2-1.5,7.3-4.3,8.4l6.1,12.8h-9.5l-4.2-11.2h-2.8v11.2h-8.2V70.5h10.9C39.4,70.5,43.3,73.5,43.3,80.5z M28.7,84.4
	h2.8c2.4,0,3.2-0.6,3.2-3.6c0-2.8-0.8-3.6-3.2-3.6h-2.9V84.4z M67.2,77.6H55.4v4.8h9.7V89h-9.7v5.7h12.3l-0.2,7H47.3V70.5H67
	L67.2,77.6z M79.6,101.7h-8.4V70.5h8.4V101.7z M101.3,86.7L101.3,86.7v-3.4l0-12.8h7.2v31.3h-5.8l-9.4-14.4l-1.8-2.9l-0.1,0l0,3.4
	v13.9h-7.2V70.5h6.9L101.3,86.7z M121.6,101.7h-8.4V70.5h8.4V101.7z M222.3,69.9c2.8,0,5.9,0.5,8.2,1.4l-0.8,7
	c-2.1-0.8-4.7-1.2-7-1.2c-5.2,0-6.3,1.9-6.3,9c0,7.4,1.2,9,5.3,9c0.6,0,1.3,0,1.9-0.2V84.7h7.3v15.9c-2.2,1-5.8,1.7-9,1.7
	c-10.4,0-14.1-5.5-14.1-16.2C207.8,75.2,212.1,69.9,222.3,69.9z"/>
</svg>
