<?xml version="1.0" encoding="utf-8"?>
<!-- Generator: Adobe Illustrator 23.1.1, SVG Export Plug-In . SVG Version: 6.00 Build 0)  -->
<svg version="1.1" id="Ebene_1" xmlns="http://www.w3.org/2000/svg" xmlns:xlink="http://www.w3.org/1999/xlink" x="0px" y="0px"
	 viewBox="0 0 317.84 124.85" style="enable-background:new 0 0 317.84 124.85;" xml:space="preserve">
<style type="text/css">
	.st0{fill-rule:evenodd;clip-rule:evenodd;}
</style>
<path class="st0" d="M271.4,92.01c-1.12,0-1.68-0.45-1.68-1.63c0-1.04,0.56-1.59,1.68-1.59c1.08,0,1.61,0.56,1.61,1.59
	C273.01,91.42,272.48,92.01,271.4,92.01z M262.11,77.87c0-3.5-1.95-4.99-5.45-4.99c-2.02,0-4.47,0.97-5.62,2.77v16h-2.1v-20.4
	l1.5-0.14l0.38,2.46h0.1c1.4-1.7,3.77-2.7,6.25-2.7c4.36,0,7.02,2.25,7.02,6.96v13.82h-2.1V77.87z M229.78,81.34
	c0.1,6.55,2.31,8.76,7.23,8.76c2.16,0,3.94-0.52,5.69-1.45l0.28,1.84c-1.78,1.01-3.77,1.59-6.18,1.59c-6.57,0-9.18-3.43-9.18-11.33
	c0-6.41,2.76-9.87,8.2-9.87c4.64,0,7.89,2.81,7.89,9.42c0,0.31-0.03,0.76-0.07,1.04H229.78z M235.82,72.75
	c-4.05,0-5.87,2.39-6.08,7.1h12.01C241.69,74.69,239.24,72.75,235.82,72.75z M231.46,45.17c0,2.46,1.29,3.43,3.35,3.43
	c0.59,0,1.33-0.1,1.75-0.28l0.17,1.66c-0.56,0.24-1.57,0.42-2.48,0.42c-3.21,0-4.92-1.66-4.92-5.16V31.35h-3.21v-1.7h3.25l0.42-5.37
	l1.68-0.21v5.58h5.41v1.7h-5.41V45.17z M216.97,92.08c-2.44,0-4.75-0.66-6.28-1.87l0.35-1.91c1.5,1.25,3.81,1.94,5.9,1.94
	c3.49,0,4.96-1.77,4.96-4.12c0-5.47-11.1-3.12-11.1-9.87c0-3.33,2.41-5.37,6.84-5.37c1.95,0,3.77,0.38,5.41,1.18l-0.21,1.84
	c-1.71-0.76-3.53-1.14-5.24-1.14c-2.93,0-4.78,1.32-4.78,3.39c0,5.09,11.07,2.56,11.07,9.77C223.88,89.62,221.75,92.08,216.97,92.08
	z M217.88,45.17c0,2.46,1.29,3.43,3.35,3.43c0.59,0,1.33-0.1,1.75-0.28l0.18,1.66c-0.56,0.24-1.57,0.42-2.48,0.42
	c-3.21,0-4.92-1.66-4.92-5.16V31.35h-3.21v-1.7h3.25l0.42-5.37l1.68-0.21v5.58h5.41v1.7h-5.41V45.17z M206.42,47.21l-0.1-0.03
	c-1.12,1.94-3.56,3.22-6.42,3.22c-3.74,0-6.32-1.84-6.32-6.41c0-3.88,2.41-6.1,7.44-6.1c1.85,0,3.74,0.38,5.13,0.9v-2.53
	c0-3.88-1.64-5.13-5.27-5.13c-2.13,0-4.05,0.38-5.83,1.28l-0.24-1.84c1.95-0.9,4.05-1.35,6.42-1.35c5.03,0,7.05,2.04,7.05,7.34
	v13.51h-1.61L206.42,47.21z M206.15,40.46c-0.52-0.38-2.34-0.97-4.82-0.97c-3.98,0-5.73,1.63-5.73,4.47c0,3.46,2.09,4.64,4.85,4.64
	c3,0,5.69-2.08,5.69-4.05V40.46z M184.74,45.17c0,2.46,1.29,3.43,3.35,3.43c0.59,0,1.33-0.1,1.75-0.28l0.17,1.66
	c-0.56,0.24-1.57,0.42-2.48,0.42c-3.21,0-4.92-1.66-4.92-5.16V31.35h-3.21v-1.7h3.25l0.42-5.37l1.68-0.21v5.58h5.41v1.7h-5.41V45.17
	z M188.69,78.15v13.51h-1.61l-0.24-2.88l-0.1-0.03c-1.12,1.94-3.56,3.22-6.42,3.22c-3.74,0-6.32-1.84-6.32-6.41
	c0-3.88,2.41-6.1,7.44-6.1c1.85,0,3.74,0.38,5.13,0.9v-2.53c0-3.88-1.64-5.13-5.27-5.13c-2.13,0-4.05,0.38-5.83,1.28l-0.24-1.84
	c1.95-0.9,4.05-1.35,6.42-1.35C186.66,70.81,188.69,72.85,188.69,78.15z M181.74,81.06c-3.98,0-5.73,1.63-5.73,4.47
	c0,3.46,2.09,4.64,4.85,4.64c3,0,5.69-2.08,5.69-4.05v-4.09C186.03,81.65,184.22,81.06,181.74,81.06z M169.76,50.5
	c-2.44,0-4.75-0.66-6.28-1.87l0.35-1.9c1.5,1.25,3.81,1.94,5.9,1.94c3.49,0,4.96-1.77,4.96-4.12c0-5.47-11.1-3.12-11.1-9.87
	c0-3.33,2.41-5.37,6.84-5.37c1.95,0,3.77,0.38,5.41,1.18l-0.21,1.84c-1.71-0.76-3.53-1.14-5.24-1.14c-2.93,0-4.78,1.32-4.78,3.39
	c0,5.09,11.07,2.56,11.07,9.77C176.68,48.04,174.55,50.5,169.76,50.5z M145.22,77.87c0-3.5-1.96-4.99-5.45-4.99
	c-2.02,0-4.47,0.97-5.62,2.77v16h-2.09v-20.4l1.5-0.14l0.39,2.46h0.1c1.4-1.7,3.77-2.7,6.25-2.7c4.36,0,7.02,2.25,7.02,6.96v13.82
	h-2.09V77.87z M145.12,36.3c0-3.5-1.95-4.99-5.45-4.99c-2.02,0-4.47,0.97-5.62,2.77v16.01h-2.09V29.68l1.5-0.14l0.38,2.46h0.1
	c1.4-1.7,3.77-2.7,6.25-2.7c4.36,0,7.02,2.25,7.02,6.96v13.82h-2.09V36.3z M112.89,81.34c0.11,6.55,2.31,8.76,7.23,8.76
	c2.16,0,3.94-0.52,5.69-1.45l0.28,1.84c-1.78,1.01-3.77,1.59-6.18,1.59c-6.56,0-9.18-3.43-9.18-11.33c0-6.41,2.76-9.87,8.2-9.87
	c4.64,0,7.89,2.81,7.89,9.42c0,0.31-0.03,0.76-0.07,1.04H112.89z M118.93,72.75c-4.05,0-5.86,2.39-6.08,7.1h12.01
	C124.8,74.69,122.35,72.75,118.93,72.75z M112.79,39.76c0.1,6.55,2.3,8.76,7.23,8.76c2.16,0,3.94-0.52,5.69-1.46l0.28,1.84
	c-1.78,1.01-3.77,1.59-6.18,1.59c-6.56,0-9.18-3.43-9.18-11.33c0-6.41,2.76-9.87,8.2-9.87c4.64,0,7.89,2.81,7.89,9.42
	c0,0.31-0.03,0.76-0.07,1.04H112.79z M118.82,31.17c-4.05,0-5.86,2.39-6.07,7.1h12.01C124.69,33.11,122.25,31.17,118.82,31.17z
	 M103.67,77.84c0-3.15-1.71-4.95-5.38-4.95c-2.55,0-4.71,1.25-5.62,2.81v15.97h-2.13V64.12l2.13-0.17v6.72l-0.03,2.77l0.07,0.03
	c1.43-1.7,3.63-2.63,6.15-2.63c4.54,0,6.95,2.46,6.95,7v13.82h-2.13V77.84z M103.57,36.26c0-3.15-1.71-4.95-5.38-4.95
	c-2.55,0-4.71,1.25-5.62,2.81v15.97h-2.13V22.55l2.13-0.17v6.72l-0.03,2.77l0.07,0.03c1.43-1.7,3.63-2.63,6.15-2.63
	c4.54,0,6.95,2.46,6.95,7v13.82h-2.13V36.26z M79.97,92.11c-5.66,0-8.45-3.19-8.45-10.91c0-6.96,2.58-10.32,8.48-10.32
	c1.92,0,3.77,0.49,5.13,1.14l-0.17,1.94c-1.29-0.62-2.9-1.07-4.54-1.07c-4.82,0-6.7,2.46-6.7,8.31c0,6.62,2.27,8.97,6.63,8.97
	c1.75,0,3.46-0.49,4.75-1.42l0.21,1.84C84.08,91.49,82.09,92.11,79.97,92.11z M80.24,48.6c1.75,0,3.46-0.49,4.75-1.42l0.21,1.84
	c-1.22,0.9-3.21,1.52-5.34,1.52c-5.66,0-8.45-3.19-8.45-10.91c0-6.96,2.58-10.32,8.48-10.32c1.92,0,3.77,0.49,5.13,1.14l-0.17,1.94
	c-1.29-0.62-2.9-1.07-4.54-1.07c-4.82,0-6.7,2.46-6.7,8.31C73.61,46.24,75.88,48.6,80.24,48.6z M64.78,88.79l-0.1-0.03
	c-1.12,1.94-3.56,3.22-6.42,3.22c-3.74,0-6.32-1.84-6.32-6.41c0-3.88,2.41-6.1,7.44-6.1c1.85,0,3.74,0.38,5.13,0.9v-2.53
	c0-3.88-1.64-5.13-5.27-5.13c-2.13,0-4.05,0.38-5.83,1.28l-0.24-1.84c1.96-0.9,4.05-1.35,6.42-1.35c5.03,0,7.05,2.04,7.05,7.34
	v13.51h-1.61L64.78,88.79z M64.5,82.03c-0.52-0.38-2.34-0.97-4.82-0.97c-3.98,0-5.73,1.63-5.73,4.47c0,3.46,2.09,4.64,4.85,4.64
	c3,0,5.69-2.08,5.69-4.05V82.03z M64.67,47.21l-0.1-0.03c-1.12,1.94-3.56,3.22-6.42,3.22c-3.74,0-6.32-1.84-6.32-6.41
	c0-3.88,2.41-6.1,7.44-6.1c1.85,0,3.74,0.38,5.13,0.9v-2.53c0-3.88-1.64-5.13-5.27-5.13c-2.13,0-4.05,0.38-5.83,1.28l-0.25-1.84
	c1.96-0.9,4.05-1.35,6.42-1.35c5.03,0,7.05,2.04,7.05,7.34v13.51h-1.61L64.67,47.21z M64.39,40.46c-0.52-0.38-2.34-0.97-4.82-0.97
	c-3.98,0-5.73,1.63-5.73,4.47c0,3.46,2.09,4.64,4.85,4.64c3,0,5.69-2.08,5.69-4.05V40.46z M44.67,77.77c0-3.33-1.92-4.85-4.99-4.85
	c-2.44,0-4.68,1.49-4.68,4.4v14.34H32.9V77.32c0-3.19-2.13-4.4-4.68-4.4c-1.95,0-4.05,1.07-5.03,2.74v16h-2.1v-20.4l1.5-0.14
	l0.42,2.49h0.1c1.15-1.63,3.21-2.67,5.45-2.67c2.97,0,4.85,1.14,5.69,3.4h0.1c0.94-2.25,3.11-3.43,5.79-3.43
	c3.91,0,6.6,2.15,6.6,6.82v13.93h-2.09V77.77z M43.65,30.65l0.07-2.81l-0.1-0.03l-1.01,2.63l-8.07,19.64H32.8l-8.07-19.54
	l-1.01-2.63l-0.07,0.03l0.03,2.81v19.33h-2.02V24.11h2.72l8.28,20.2l1.01,2.6h0.1l0.98-2.6l8.27-20.2h2.69v25.98h-2.06V30.65z
	 M167.64,91.66h-2.1V64.08l2.1-0.14V91.66z M200,90.24c3.49,0,4.96-1.77,4.96-4.12c0-5.47-11.1-3.12-11.1-9.87
	c0-3.33,2.41-5.37,6.84-5.37c1.95,0,3.77,0.38,5.41,1.18l-0.21,1.84c-1.71-0.76-3.53-1.14-5.24-1.14c-2.93,0-4.78,1.32-4.78,3.39
	c0,5.09,11.07,2.56,11.07,9.77c0,3.71-2.13,6.17-6.91,6.17c-2.44,0-4.75-0.66-6.28-1.87l0.35-1.91
	C195.6,89.55,197.9,90.24,200,90.24z"/>
</svg>
