<svg enable-background="new 0 0 359.1 75.4" viewBox="0 0 359.1 75.4" xmlns="http://www.w3.org/2000/svg"><path clip-rule="evenodd" d="m329.4 17.4v17.2h-6v-17.2h-5.1l.1-5.2h15.9l.1 5.2zm-16.9-6.3c-1.5 0-2.2-.6-2.2-2 0-1.3.8-2.1 2.2-2.1 1.5 0 2.2.7 2.2 2.1 0 1.3-.7 2-2.2 2zm-5.7 0c-1.5 0-2.2-.6-2.2-2 0-1.3.8-2.1 2.2-2.1 1.5 0 2.2.7 2.2 2.1 0 1.3-.7 2-2.2 2zm-.7 1.1h7.2l6.8 22.5h-6.5l-.9-3.9h-6.1l-.9 3.9h-6.1-.1-6.7l-3-8h-2v8h-5.9v-22.5h7.8c5.7 0 8.5 2.2 8.5 7.2 0 3-1.1 5.2-3.1 6.1l4.3 9.1zm5.5 13.6-1.4-6.4-.5-2.4h-.1l-.5 2.4-1.4 6.4zm-21.8-8.8h-2v5.2h2c1.7 0 2.3-.4 2.3-2.6 0-2-.6-2.6-2.3-2.6zm-10.1 12.6-.1 5.1h-14.5v-22.5h14.1l.1 5.2h-8.4v3.5h6.9v4.7h-6.9v4.1h8.8zm-23.7 5.5c-7.4 0-10.1-4-10.1-11.7 0-7.9 3.1-11.6 10.4-11.6 2 0 4.2.4 5.9 1l-.5 5c-1.5-.5-4.3-.9-5-.9-3.7 0-4.5 1.4-4.5 6.4 0 5.3.9 6.5 3.8 6.5.4 0 .9 0 1.4-.1v-7.3h5.2v11.5c-1.8.7-4.3 1.2-6.6 1.2zm-21 0c-5.8 0-8.7-2.8-8.7-8v-14.9h5.9v14.7c0 2 .8 2.9 2.8 2.9s2.7-.8 2.7-2.9v-14.7h5.9v14.8c0 5.3-2.8 8.1-8.6 8.1zm-17-.4-4.2-9.1h-1.4v9.1h-5.9v-22.5h5.9v8.7h1.6l4.2-8.7h6.6l-5.4 10.8 5.7 11.7zm-20.1 0-4.2-9.1h-1.4v9.1h-5.9v-22.5h5.9v8.7h1.6l4.2-8.7h6.6l-5.4 10.8 5.7 11.7zm-20.4-4h-6.1l-.9 3.9h-6.2l6.7-22.5h7.2l6.8 22.5h-6.5zm-2.6-11.3-.4-2.4h-.1l-.5 2.4-1.4 6.4h3.9zm-8.7 37.4-.1-2.4v-9.2h5.2v22.5h-4.2l-6.7-10.4-1.3-2.1h-.1v2.4 10h-5v-22.4h4.9zm-17.4-35.4h6.9v5h-6.8v8.3h-5.9v-22.5h14l.1 5.2h-8.3zm-17.3 13.7c-5.8 0-8.7-2.8-8.7-8v-14.9h5.9v14.7c0 2 .8 2.9 2.8 2.9s2.7-.8 2.7-2.9v-14.7h5.9v14.8c0 5.3-2.8 8.1-8.6 8.1zm-16.4-4.4h-6.1l-.9 3.9h-6.2l6.7-22.5h7.2l6.8 22.5h-6.5zm-2.6-11.3-.5-2.4-.5 2.4-1.4 6.4h3.9zm-22.7 15.3h-6v-17.3h-5.1l.1-5.2h15.9l.1 5.2h-5.1v17.3zm-12.2-5.3-.1 5.2h-15.4v-3.8l7.2-11.4 1.3-2v-.1h-8.3l.2-5.2h15v4.2l-6.9 11-1.3 1.9v.1h8.3zm-21.6 5.3h-6v-17.3h-5l.1-5.2h15.9l.1 5.2h-5.1zm-10.5 24.1.8-2.3 4-11.4h6.5v22.5h-5.4v-9.4l.1-2.4h-.1l-.8 2.3-3.3 9.5h-3.8l-3.3-9.5-.8-2.3h-.1v2.4 9.4h-5.1v-22.4h6.5l4 11.4zm-1.5-29.2-.1 5.1h-14.6v-22.5h14.1l.1 5.2h-8.4v3.5h6.9v4.7h-6.9v4.1h8.9zm-26.4 5.5c-1.7 0-3-.3-4.1-.8l.3-4.9c.6.3 1.6.5 2.8.5 2.5 0 3.7-1 3.7-3.7v-14h6v14.2c0 6.6-3.4 8.7-8.7 8.7zm2.4 24.8c0 2 .8 2.9 2.8 2.9s2.7-.8 2.7-2.9v-14.7h5.9v14.8c0 5.3-2.8 8-8.6 8s-8.7-2.8-8.7-8v-14.8h5.9zm45.5 3.1c1.9 0 2.6-.6 2.6-1.8 0-2.9-8.9-2-8.9-9.3 0-3.9 2.4-7 8-7 2.1 0 4.3.4 5.9 1.1l-.7 4.9c-1.7-.5-3.4-.8-4.9-.8-2.2 0-2.7.7-2.7 1.6 0 2.9 8.9 1.9 8.9 9.3 0 4.4-3 7.2-8.1 7.2-2.4 0-4.7-.5-6.5-1.6l.8-5c1.8.8 3.7 1.4 5.6 1.4zm24.7-17.8.1 5.2h-5.1v17.2h-6v-17.2h-5.1l.1-5.2zm16.1 5.1h-8.4v3.5h6.9v4.7h-6.9v4.1h8.8l-.1 5.1h-14.5v-22.5h14.1zm8.9 17.4h-6v-22.5h6zm13.1-22.9c2 0 4.2.4 5.9 1l-.5 5c-1.5-.5-3.4-.9-5-.9-3.7 0-4.5 1.4-4.5 6.4 0 5.3.9 6.5 3.8 6.5.5 0 .9 0 1.4-.1v-7.3h5.2v11.5c-1.6.8-4.1 1.2-6.4 1.2-7.4 0-10.1-4-10.1-11.7-.2-7.8 2.9-11.6 10.2-11.6zm23 5.5h-8.3v3.5h6.9v4.7h-6.9v4.1h8.8l-.1 5.1h-14.5v-22.5h14.1zm25.5.3c2.1 0 3 1 3 2.9 0 1.7-.9 2.8-3 2.8s-3-.8-3-2.8c0-1.9.9-2.9 3-2.9zm0 11.7c2.1 0 3 1 3 2.9 0 1.7-.9 2.8-3 2.8s-3-.8-3-2.8c0-1.9.9-2.9 3-2.9z" fill="#020204" fill-rule="evenodd"/></svg>