<?xml version="1.0" encoding="utf-8"?>
<!-- Generator: Adobe Illustrator 16.0.0, SVG Export Plug-In . SVG Version: 6.00 Build 0)  -->
<!DOCTYPE svg PUBLIC "-//W3C//DTD SVG 1.1//EN" "http://www.w3.org/Graphics/SVG/1.1/DTD/svg11.dtd">
<svg version="1.1" id="Ebene_1" xmlns="http://www.w3.org/2000/svg" xmlns:xlink="http://www.w3.org/1999/xlink" x="0px" y="0px"
	 width="86.088px" height="27.766px" viewBox="0 0 86.088 27.766" enable-background="new 0 0 86.088 27.766" xml:space="preserve">
<g id="Text">
	<g>
		<path fill="#FFFFFF" d="M4.248,4.877c0,2.199-1.12,2.889-2.879,2.889c-0.56,0-1.01-0.1-1.369-0.26l0.1-1.629
			c0.21,0.109,0.54,0.18,0.93,0.18c0.819,0,1.219-0.32,1.219-1.219V0.13h2L4.248,4.877L4.248,4.877z"/>
		<path fill="#FFFFFF" d="M10.137,5.937l-0.04,1.689H5.27V0.13h4.697l0.04,1.719H7.219v1.159h2.299v1.569H7.219v1.358L10.137,5.937
			L10.137,5.937z"/>
		<path fill="#FFFFFF" d="M14.158,1.879v5.747h-1.989V1.879H10.47l0.04-1.749h5.307l0.041,1.749H14.158z"/>
		<path fill="#FFFFFF" d="M16.189,7.626V6.356l2.389-3.798l0.439-0.66l-0.01-0.02H16.25l0.049-1.749h5.008v1.398l-2.309,3.679
			l-0.439,0.648l0.01,0.03h2.758l-0.029,1.739h-5.109V7.626z"/>
		<path fill="#FFFFFF" d="M25.397,1.879v5.747h-1.989V1.879h-1.699L21.75,0.13h5.307l0.04,1.749H25.397z"/>
		<path fill="#FFFFFF" d="M32.098,0.13l1.32,3.788l0.249,0.77h0.03l0.25-0.759l1.339-3.798h2.159v7.496h-1.789v-3.14l0.02-0.81
			l-0.029-0.01l-0.25,0.779l-1.109,3.179h-1.27l-1.1-3.168l-0.25-0.779l-0.02,0.01l0.01,0.811v3.128h-1.709V0.13H32.098z"/>
		<path fill="#FFFFFF" d="M38.549,0.13h2.01v7.496h-2.01V0.13z"/>
		<path fill="#FFFFFF" d="M44.929,1.879v5.747h-1.99V1.879H41.24l0.04-1.749h5.307l0.041,1.749H44.929z"/>
		<path fill="#FFFFFF" d="M50.369,6.287h0.889V2.399l-1.139,0.629l-0.2-1.519l2.169-1.369h1.129v6.146h0.89v1.339H50.37
			L50.369,6.287L50.369,6.287z"/>
		<path fill="#FFFFFF" d="M59.956,6.287v1.339h-1.77V6.287h-2.959l-0.16-1.22l2.601-4.938h2.288v4.578h0.609l-0.041,1.579H59.956z
			 M58.315,2.829l0.052-0.811l-0.021-0.01l-1.34,2.698h1.239L58.315,2.829z"/>
		<path fill="#FFFFFF" d="M66.776,1.879v5.747h-1.989V1.879h-1.699l0.041-1.749h5.308l0.039,1.749H66.776z"/>
		<path fill="#FFFFFF" d="M72.286,6.317h-2.038l-0.291,1.31H67.89l2.219-7.496h2.389l2.259,7.496h-2.179L72.286,6.317z
			 M71.099,2.539l-0.48,2.148h1.309l-0.479-2.148l-0.15-0.8h-0.029L71.099,2.539z"/>
		<path fill="#FFFFFF" d="M80.274,7.356c-0.52,0.25-1.369,0.41-2.139,0.41c-2.479,0-3.357-1.33-3.357-3.888
			C74.778,1.259,75.81,0,78.228,0c0.66,0,1.408,0.12,1.948,0.33l-0.18,1.669c-0.49-0.181-1.119-0.29-1.66-0.29
			c-1.229,0-1.508,0.46-1.508,2.148c0,1.779,0.289,2.169,1.259,2.169c0.148,0,0.311-0.01,0.45-0.04V3.538h1.737V7.356L80.274,7.356z
			"/>
		<path fill="#FFFFFF" d="M86.035,5.937l-0.039,1.689h-4.828V0.13h4.697l0.04,1.719h-2.788v1.159h2.299v1.569h-2.299v1.358
			L86.035,5.937L86.035,5.937z"/>
		<path fill="#FFFFFF" d="M5.557,17.356c-0.52,0.25-1.369,0.41-2.139,0.41c-2.479,0-3.357-1.33-3.357-3.888
			C0.061,11.259,1.09,10,3.508,10c0.66,0,1.409,0.12,1.949,0.33l-0.18,1.669c-0.49-0.181-1.119-0.29-1.66-0.29
			c-1.229,0-1.508,0.46-1.508,2.148c0,1.779,0.289,2.169,1.259,2.169c0.149,0,0.31-0.01,0.45-0.04v-2.448h1.738L5.557,17.356
			L5.557,17.356z"/>
		<path fill="#FFFFFF" d="M11.316,15.937l-0.039,1.689H6.449V10.13h4.697l0.041,1.719H8.398v1.159h2.299v1.569H8.398v1.358
			L11.316,15.937L11.316,15.937z"/>
		<path fill="#FFFFFF" d="M16.588,15.887l-0.051,1.739H12.07V10.13h1.969v5.757H16.588z"/>
		<path fill="#FFFFFF" d="M19.938,17.626H17.23V10.13h2.669c2.278,0,3.208,1.06,3.208,3.708
			C23.106,16.586,22.047,17.626,19.938,17.626z M19.908,11.859h-0.73v4.059h0.73c0.859,0,1.148-0.261,1.148-2.1
			C21.057,12.159,20.787,11.859,19.908,11.859z"/>
		<path fill="#FFFFFF" d="M26.578,13.229v1.299h-2.789v-1.299H26.578z"/>
		<path fill="#FFFFFF" d="M26.89,17.626v-1.271l2.389-3.798l0.44-0.66l-0.011-0.02h-2.759L27,10.13h5.007v1.398l-2.309,3.679
			l-0.44,0.648l0.011,0.03h2.759l-0.03,1.739L26.89,17.626L26.89,17.626z"/>
		<path fill="#FFFFFF" d="M38.396,15.077c0,1.759-0.939,2.679-2.858,2.679s-2.888-0.919-2.888-2.679V10.13h1.958v4.908
			c0,0.669,0.261,0.969,0.93,0.969c0.68,0,0.909-0.28,0.909-0.969V10.13h1.949V15.077z"/>
		<path fill="#FFFFFF" d="M43.758,14.558l1.459,3.068h-2.26l-0.999-2.68h-0.659v2.68H39.35V10.13h2.588
			c1.899,0,2.838,0.72,2.838,2.409C44.776,13.538,44.417,14.278,43.758,14.558z M41.979,11.749h-0.68v1.729h0.67
			c0.568,0,0.77-0.14,0.77-0.869C42.738,11.929,42.548,11.749,41.979,11.749z"/>
		<path fill="#FFFFFF" d="M51.276,15.077c0,1.759-0.939,2.679-2.858,2.679s-2.89-0.919-2.89-2.679V10.13h1.959v4.908
			c0,0.669,0.261,0.969,0.931,0.969c0.681,0,0.91-0.28,0.91-0.969V10.13h1.948V15.077z M47.47,9.771c-0.49,0-0.74-0.189-0.74-0.67
			c0-0.45,0.25-0.688,0.74-0.688c0.51,0,0.738,0.239,0.738,0.688C48.208,9.541,47.979,9.771,47.47,9.771z M49.377,9.771
			c-0.489,0-0.739-0.189-0.739-0.67c0-0.45,0.25-0.688,0.739-0.688c0.511,0,0.74,0.239,0.74,0.688
			C50.117,9.541,49.888,9.771,49.377,9.771z"/>
		<path fill="#FFFFFF" d="M56.717,11.939c-0.329-0.12-0.778-0.2-1.249-0.2c-1.109,0-1.39,0.471-1.39,2.109
			c0,1.729,0.312,2.208,1.42,2.208c0.459,0,0.89-0.09,1.237-0.25l0.182,1.589c-0.45,0.22-1.13,0.36-1.709,0.36
			c-2.141,0-3.18-1.219-3.18-3.918c0-2.52,1.011-3.838,3.3-3.838c0.528,0,1.18,0.12,1.577,0.279L56.717,11.939z"/>
		<path fill="#FFFFFF" d="M61.478,17.626l-1.408-3.048h-0.48v3.048H57.64V10.13h1.949v2.897h0.52l1.391-2.897h2.188l-1.799,3.588
			l1.889,3.908H61.478z"/>
		<path fill="#FFFFFF" d="M66.478,13.229v1.299H63.69v-1.299H66.478z"/>
		<path fill="#FFFFFF" d="M5.557,27.356c-0.52,0.25-1.369,0.41-2.139,0.41c-2.479,0-3.357-1.33-3.357-3.888
			C0.061,21.259,1.09,20,3.508,20c0.66,0,1.409,0.12,1.949,0.33l-0.18,1.669c-0.49-0.181-1.119-0.29-1.66-0.29
			c-1.229,0-1.508,0.46-1.508,2.148c0,1.779,0.289,2.169,1.259,2.169c0.149,0,0.31-0.01,0.45-0.04v-2.448h1.738L5.557,27.356
			L5.557,27.356z"/>
		<path fill="#FFFFFF" d="M10.317,26.317H8.279l-0.291,1.31H5.92l2.219-7.496h2.389l2.259,7.496h-2.179L10.317,26.317z
			 M9.129,22.539l-0.48,2.148h1.309l-0.479-2.148l-0.15-0.8h-0.03L9.129,22.539z"/>
		<path fill="#FFFFFF" d="M17.697,24.558l1.459,3.068h-2.259l-0.999-2.68h-0.66v2.68h-1.949V20.13h2.589
			c1.899,0,2.839,0.72,2.839,2.409C18.717,23.538,18.357,24.278,17.697,24.558z M15.918,21.749h-0.68v1.729h0.67
			c0.569,0,0.77-0.14,0.77-0.869C16.678,21.929,16.488,21.749,15.918,21.749z"/>
		<path fill="#FFFFFF" d="M23.518,26.317h-2.039l-0.29,1.31H19.12l2.219-7.496h2.389l2.26,7.496h-2.18L23.518,26.317z
			 M22.328,22.539l-0.48,2.148h1.31l-0.479-2.148l-0.15-0.8H22.5L22.328,22.539z"/>
		<path fill="#FFFFFF" d="M30.877,27.626l-2.238-3.458l-0.42-0.69l-0.021,0.01l0.011,0.811v3.328h-1.72V20.13h1.64l2.408,3.888
			l0.02-0.01l-0.02-0.799l0.01-3.079h1.719v7.496H30.877z"/>
		<path fill="#FFFFFF" d="M36.557,21.879v5.747h-1.988v-5.747H32.87l0.04-1.749h5.308l0.039,1.749H36.557z"/>
		<path fill="#FFFFFF" d="M38.939,20.13h2.009v7.496h-2.009V20.13z"/>
		<path fill="#FFFFFF" d="M46.916,25.937l-0.04,1.689h-4.827V20.13h4.697l0.04,1.719h-2.788v1.159h2.299v1.569h-2.299v1.358
			L46.916,25.937L46.916,25.937z"/>
		<path fill="#FFFFFF" d="M53.188,21.879v5.747h-1.989v-5.747H49.5l0.04-1.749h5.307l0.041,1.749H53.188z"/>
		<path fill="#FFFFFF" d="M60.354,25.937l-0.039,1.689h-4.828V20.13h4.697l0.041,1.719h-2.789v1.159h2.299v1.569h-2.299v1.358
			L60.354,25.937L60.354,25.937z"/>
		<path fill="#FFFFFF" d="M63.067,27.756c-0.789,0-1.569-0.18-2.18-0.521l0.25-1.658c0.609,0.31,1.229,0.5,1.879,0.5
			c0.621,0,0.859-0.209,0.859-0.609c0-0.959-2.979-0.66-2.979-3.108c0-1.309,0.801-2.349,2.647-2.349c0.69,0,1.431,0.13,1.97,0.36
			L65.295,22c-0.569-0.17-1.14-0.271-1.619-0.271c-0.739,0-0.899,0.221-0.899,0.54c0,0.969,2.979,0.641,2.979,3.088
			C65.756,26.836,64.757,27.756,63.067,27.756z"/>
		<path fill="#FFFFFF" d="M69.565,21.879v5.747h-1.987v-5.747h-1.699l0.04-1.749h5.309l0.039,1.749H69.565z"/>
		<path fill="#FFFFFF" d="M76.735,25.937l-0.041,1.689h-4.825V20.13h4.696l0.039,1.719h-2.787v1.159h2.299v1.569h-2.299v1.358
			L76.735,25.937L76.735,25.937z"/>
		<path fill="#FFFFFF" d="M81.877,27.626l-2.239-3.458l-0.42-0.69l-0.021,0.01l0.012,0.811v3.328h-1.721V20.13h1.641l2.409,3.888
			l0.021-0.01l-0.021-0.799l0.01-3.079h1.72v7.496H81.877z"/>
		<path fill="#FFFFFF" d="M85.088,27.746c-0.698,0-1.01-0.271-1.01-0.95c0-0.61,0.312-0.959,1.01-0.959c0.699,0,1,0.35,1,0.959
			C86.088,27.366,85.787,27.746,85.088,27.746z"/>
	</g>
</g>
<g id="Screens">
</g>
</svg>
