<?xml version="1.0" encoding="utf-8"?>
<!-- Generator: Adobe Illustrator 16.0.0, SVG Export Plug-In . SVG Version: 6.00 Build 0)  -->
<!DOCTYPE svg PUBLIC "-//W3C//DTD SVG 1.1//EN" "http://www.w3.org/Graphics/SVG/1.1/DTD/svg11.dtd">
<svg version="1.1" id="Ebene_1" xmlns="http://www.w3.org/2000/svg" xmlns:xlink="http://www.w3.org/1999/xlink" x="0px" y="0px"
	 width="77.165px" height="27.625px" viewBox="0 0 77.165 27.625" enable-background="new 0 0 77.165 27.625" xml:space="preserve">
<g id="Text">
	<g>
		<path fill="#FFFFFF" d="M2.708,7.496H0V0h2.668c2.279,0,3.209,1.06,3.209,3.708C5.877,6.457,4.816,7.496,2.708,7.496z
			 M2.678,1.729h-0.73v4.058h0.729c0.859,0,1.149-0.26,1.149-2.099C3.827,2.029,3.558,1.729,2.678,1.729z"/>
		<path fill="#FFFFFF" d="M6.779,0h2.01v7.496h-2.01V0L6.779,0z"/>
		<path fill="#FFFFFF" d="M14.756,5.807l-0.039,1.689H9.889V0h4.697l0.041,1.72h-2.789v1.159h2.299v1.569h-2.299v1.358L14.756,5.807
			L14.756,5.807z"/>
		<path fill="#FFFFFF" d="M21.627,6.187h-2.039l-0.289,1.31H17.23L19.448,0h2.389l2.259,7.496h-2.179L21.627,6.187z M20.438,2.409
			l-0.479,2.148h1.31l-0.48-2.148l-0.149-0.8h-0.03L20.438,2.409z"/>
		<path fill="#FFFFFF" d="M28.438,7.496l-1.41-3.048h-0.479v3.048H24.6V0h1.948v2.898h0.521L28.457,0h2.189l-1.8,3.588l1.89,3.908
			H28.438z"/>
		<path fill="#FFFFFF" d="M35.127,7.496l-1.409-3.048h-0.479v3.048H31.29V0h1.949v2.898h0.52L35.146,0h2.189l-1.799,3.588
			l1.889,3.908H35.127z"/>
		<path fill="#FFFFFF" d="M43.656,4.947c0,1.759-0.938,2.679-2.858,2.679c-1.918,0-2.888-0.92-2.888-2.679V0h1.958v4.907
			c0,0.67,0.26,0.97,0.93,0.97c0.68,0,0.91-0.28,0.91-0.97V0h1.948V4.947z"/>
		<path fill="#FFFFFF" d="M47.258,3.099v1.299h-2.789V3.099H47.258z"/>
		<path fill="#FFFFFF" d="M2.568,15.167h-0.62v2.33H0V10h2.568c2.078,0,2.908,0.81,2.908,2.639
			C5.477,14.258,4.667,15.167,2.568,15.167z M2.568,11.629h-0.62v1.989h0.62c0.639,0,0.879-0.149,0.879-0.989
			C3.447,11.819,3.258,11.629,2.568,11.629z"/>
		<path fill="#FFFFFF" d="M10.707,15.756l-0.051,1.74H6.189V10h1.969v5.756H10.707z"/>
		<path fill="#FFFFFF" d="M15.217,16.187h-2.039l-0.289,1.31H10.82L13.038,10h2.389l2.259,7.497h-2.179L15.217,16.187z
			 M14.027,12.409l-0.479,2.148h1.31l-0.48-2.148l-0.149-0.8h-0.03L14.027,12.409z"/>
		<path fill="#FFFFFF" d="M20.787,11.749v5.748h-1.988v-5.748H17.1L17.14,10h5.308l0.039,1.749H20.787z"/>
		<path fill="#FFFFFF" d="M26.518,11.749v5.748h-1.989v-5.748H22.83L22.869,10h5.307l0.041,1.749H26.518z"/>
		<path fill="#FFFFFF" d="M30.777,11.749v1.319h2.289l-0.01,1.659h-2.279v2.77h-1.959V10h4.688l0.03,1.749H30.777z"/>
		<path fill="#FFFFFF" d="M37.078,17.625c-2.16,0-3.139-1.14-3.139-3.877c0-2.748,0.939-3.868,3.139-3.868
			c2.198,0,3.137,1.12,3.137,3.868C40.215,16.566,39.276,17.625,37.078,17.625z M37.067,11.629c-0.819,0-1.079,0.34-1.079,2.119
			c0,1.79,0.27,2.149,1.1,2.149c0.829,0,1.079-0.37,1.079-2.149C38.167,11.959,37.917,11.629,37.067,11.629z"/>
		<path fill="#FFFFFF" d="M45.447,14.428l1.459,3.068h-2.26l-0.999-2.68h-0.659v2.68H41.04V10h2.588c1.898,0,2.838,0.72,2.838,2.409
			C46.465,13.408,46.106,14.147,45.447,14.428z M43.668,11.619h-0.681v1.729h0.671c0.567,0,0.77-0.141,0.77-0.87
			C44.428,11.799,44.237,11.619,43.668,11.619z"/>
		<path fill="#FFFFFF" d="M49.547,10l1.32,3.788l0.25,0.77h0.028l0.25-0.76L52.736,10h2.158v7.497h-1.789v-3.14l0.021-0.81
			l-0.029-0.01l-0.25,0.779l-1.109,3.179h-1.27l-1.1-3.168l-0.25-0.78l-0.021,0.011l0.01,0.81v3.129h-1.709V10H49.547z"/>
		<path fill="#FFFFFF" d="M64.286,10l-2.22,7.497h-2.229L57.629,10h2.147l1.05,4.678l0.17,0.789h0.03l0.159-0.789L62.266,10H64.286z
			"/>
		<path fill="#FFFFFF" d="M67.427,17.625c-2.159,0-3.138-1.14-3.138-3.877c0-2.748,0.938-3.868,3.138-3.868
			c2.198,0,3.138,1.12,3.138,3.868C70.564,16.566,69.625,17.625,67.427,17.625z M67.417,11.629c-0.818,0-1.078,0.34-1.078,2.119
			c0,1.79,0.27,2.149,1.099,2.149s1.079-0.37,1.079-2.149C68.516,11.959,68.266,11.629,67.417,11.629z"/>
		<path fill="#FFFFFF" d="M75.775,17.497l-2.237-3.458l-0.42-0.689l-0.021,0.01l0.01,0.81v3.328h-1.719V10h1.639l2.408,3.888
			l0.021-0.01l-0.021-0.8L75.445,10h1.72v7.497H75.775z"/>
		<path fill="#FFFFFF" d="M3.838,27.497l-1.41-3.049h-0.48v3.049H0V20h1.948v2.897h0.521L3.857,20h2.189l-1.8,3.588l1.89,3.908
			H3.838z"/>
		<path fill="#FFFFFF" d="M10.557,26.187H8.519l-0.29,1.31H6.16L8.379,20h2.389l2.258,7.496h-2.178L10.557,26.187z M8.608,19.641
			c-0.489,0-0.739-0.189-0.739-0.67c0-0.449,0.25-0.689,0.739-0.689c0.51,0,0.739,0.24,0.739,0.689
			C9.348,19.411,9.118,19.641,8.608,19.641z M9.368,22.409l-0.479,2.148h1.309l-0.479-2.148l-0.149-0.8H9.537L9.368,22.409z
			 M10.518,19.641c-0.49,0-0.74-0.189-0.74-0.67c0-0.449,0.25-0.689,0.74-0.689c0.51,0,0.739,0.24,0.739,0.689
			C11.257,19.411,11.027,19.641,10.518,19.641z"/>
		<path fill="#FFFFFF" d="M17.938,24.428l1.459,3.068h-2.26l-0.999-2.68h-0.659v2.68H13.53V20h2.588c1.899,0,2.839,0.72,2.839,2.408
			C18.956,23.409,18.597,24.147,17.938,24.428z M16.158,21.62h-0.68v1.729h0.67c0.568,0,0.77-0.141,0.77-0.87
			C16.918,21.799,16.728,21.62,16.158,21.62z"/>
		<path fill="#FFFFFF" d="M24.227,21.81c-0.33-0.12-0.779-0.2-1.249-0.2c-1.109,0-1.39,0.471-1.39,2.108
			c0,1.729,0.311,2.209,1.42,2.209c0.459,0,0.889-0.091,1.238-0.25l0.181,1.59c-0.45,0.22-1.13,0.358-1.709,0.358
			c-2.14,0-3.179-1.22-3.179-3.918c0-2.519,1.01-3.838,3.299-3.838c0.529,0,1.18,0.12,1.578,0.28L24.227,21.81z"/>
		<path fill="#FFFFFF" d="M28.917,27.497v-2.938h-1.819v2.938h-1.949V20h1.949v2.809h1.819V20h1.958v7.496H28.917z"/>
		<path fill="#FFFFFF" d="M36.756,25.807l-0.039,1.689h-4.828V20h4.697l0.041,1.72h-2.789v1.159h2.299v1.568h-2.299v1.358
			L36.756,25.807L36.756,25.807z"/>
		<path fill="#FFFFFF" d="M41.917,24.428l1.459,3.068h-2.258l-1-2.68h-0.66v2.68h-1.949V20h2.589c1.898,0,2.838,0.72,2.838,2.408
			C42.936,23.409,42.577,24.147,41.917,24.428z M40.137,21.62h-0.68v1.729h0.67c0.569,0,0.77-0.141,0.77-0.87
			C40.896,21.799,40.708,21.62,40.137,21.62z"/>
		<path fill="#FFFFFF" d="M44.668,27.616c-0.699,0-1.01-0.271-1.01-0.949c0-0.609,0.311-0.959,1.01-0.959s1,0.35,1,0.959
			C45.668,27.236,45.368,27.616,44.668,27.616z"/>
	</g>
</g>
<g id="Screens">
</g>
</svg>
