<?xml version="1.0" encoding="utf-8"?>
<!-- Generator: Adobe Illustrator 16.0.0, SVG Export Plug-In . SVG Version: 6.00 Build 0)  -->
<!DOCTYPE svg PUBLIC "-//W3C//DTD SVG 1.1//EN" "http://www.w3.org/Graphics/SVG/1.1/DTD/svg11.dtd">
<svg version="1.1" id="Ebene_1" xmlns="http://www.w3.org/2000/svg" xmlns:xlink="http://www.w3.org/1999/xlink" x="0px" y="0px"
	 width="58.027px" height="27.746px" viewBox="0 0 58.027 27.746" enable-background="new 0 0 58.027 27.746" xml:space="preserve">
<g id="Text">
	<g>
		<path fill="#FFFFFF" d="M3.238,7.616H0.529V0.12h2.669c2.278,0,3.208,1.06,3.208,3.708C6.406,6.577,5.348,7.616,3.238,7.616z
			 M3.209,1.85H2.479v4.058h0.729c0.859,0,1.148-0.26,1.148-2.099C4.357,2.149,4.088,1.85,3.209,1.85z"/>
		<path fill="#FFFFFF" d="M10.817,6.307H8.779l-0.291,1.31H6.42l2.22-7.497h2.389l2.259,7.496h-2.179L10.817,6.307z M9.629,2.529
			L9.149,4.677h1.309L9.979,2.529l-0.15-0.8h-0.03L9.629,2.529z"/>
		<path fill="#FFFFFF" d="M15.769,7.746c-0.79,0-1.569-0.18-2.18-0.52l0.25-1.659c0.609,0.31,1.229,0.5,1.88,0.5
			c0.618,0,0.858-0.21,0.858-0.61c0-0.959-2.979-0.659-2.979-3.108C13.6,1.04,14.399,0,16.248,0c0.689,0,1.431,0.13,1.969,0.36
			l-0.22,1.629c-0.568-0.17-1.14-0.27-1.619-0.27c-0.738,0-0.898,0.22-0.898,0.539c0,0.97,2.979,0.64,2.979,3.089
			C18.457,6.826,17.457,7.746,15.769,7.746z"/>
		<path fill="#FFFFFF" d="M25.797,7.616l-2.237-3.458l-0.42-0.689l-0.021,0.01l0.01,0.81v3.328H21.41V0.12h1.639l2.408,3.888
			l0.021-0.01l-0.021-0.8l0.01-3.078h1.721v7.496H25.797z"/>
		<path fill="#FFFFFF" d="M33.076,5.927l-0.039,1.689h-4.828V0.12h4.697l0.041,1.72h-2.789v1.159h2.299v1.569h-2.299v1.358
			L33.076,5.927L33.076,5.927z"/>
		<path fill="#FFFFFF" d="M39.506,5.067c0,1.759-0.938,2.679-2.856,2.679c-1.92,0-2.889-0.92-2.889-2.679V0.12h1.959v4.907
			c0,0.67,0.26,0.97,0.93,0.97c0.68,0,0.909-0.28,0.909-0.97V0.12h1.947V5.067z"/>
		<path fill="#FFFFFF" d="M45.326,5.927l-0.039,1.689h-4.828V0.12h4.697l0.041,1.72h-2.789v1.159h2.299v1.569h-2.299v1.358
			L45.326,5.927L45.326,5.927z"/>
		<path fill="#FFFFFF" d="M4.397,16.307H2.359l-0.291,1.311H0l2.22-7.496h2.389l2.259,7.496H4.688L4.397,16.307z M3.209,12.529
			l-0.479,2.149h1.309l-0.479-2.149l-0.15-0.8h-0.03L3.209,12.529z"/>
		<path fill="#FFFFFF" d="M11.207,17.616l-1.408-3.048H9.319v3.048h-1.95V10.12h1.949v2.898h0.52l1.391-2.898h2.188l-1.799,3.588
			l1.889,3.908H11.207z"/>
		<path fill="#FFFFFF" d="M17.897,17.616l-1.409-3.048h-0.48v3.048H14.06V10.12h1.947v2.898h0.521l1.39-2.898h2.188l-1.799,3.588
			l1.89,3.908H17.897z"/>
		<path fill="#FFFFFF" d="M26.426,15.066c0,1.76-0.938,2.68-2.856,2.68c-1.92,0-2.889-0.92-2.889-2.68V10.12h1.959v4.907
			c0,0.67,0.26,0.97,0.93,0.97c0.68,0,0.909-0.28,0.909-0.97V10.12h1.947V15.066z"/>
		<path fill="#FFFFFF" d="M30.027,13.219v1.298h-2.788v-1.298H30.027z"/>
		<path fill="#FFFFFF" d="M6.207,25.066c0,1.76-0.938,2.68-2.858,2.68c-1.918,0-2.889-0.92-2.889-2.68V20.12h1.958v4.907
			c0,0.67,0.262,0.97,0.931,0.97c0.68,0,0.909-0.28,0.909-0.97V20.12h1.949V25.066z"/>
		<path fill="#FFFFFF" d="M11.547,27.616l-2.237-3.458l-0.42-0.689l-0.021,0.01l0.01,0.811v3.328H7.16V20.12h1.639l2.408,3.888
			l0.021-0.01l-0.021-0.801l0.01-3.077h1.721v7.496H11.547z"/>
		<path fill="#FFFFFF" d="M14.039,20.12h2.01v7.496h-2.01V20.12z"/>
		<path fill="#FFFFFF" d="M23.266,20.12l-2.22,7.496h-2.229l-2.209-7.496h2.147l1.052,4.678l0.17,0.789h0.028l0.16-0.789
			l1.079-4.678H23.266z"/>
		<path fill="#FFFFFF" d="M28.617,25.928l-0.041,1.688H23.75V20.12h4.697l0.039,1.72h-2.788v1.159h2.299v1.569h-2.299v1.357h2.919
			V25.928z"/>
		<path fill="#FFFFFF" d="M33.777,24.548l1.459,3.068h-2.26l-0.999-2.679h-0.659v2.679h-1.949V20.12h2.588
			c1.899,0,2.839,0.72,2.839,2.409C34.796,23.527,34.437,24.268,33.777,24.548z M31.998,21.738h-0.68v1.73h0.67
			c0.568,0,0.77-0.142,0.77-0.871C32.758,21.919,32.567,21.738,31.998,21.738z"/>
		<path fill="#FFFFFF" d="M37.688,27.746c-0.789,0-1.568-0.18-2.179-0.52l0.249-1.66c0.61,0.311,1.229,0.5,1.88,0.5
			c0.619,0,0.859-0.209,0.859-0.609c0-0.959-2.979-0.659-2.979-3.107c0-1.31,0.799-2.35,2.647-2.35c0.689,0,1.43,0.13,1.97,0.359
			l-0.222,1.629c-0.567-0.17-1.139-0.27-1.619-0.27c-0.737,0-0.897,0.221-0.897,0.539c0,0.971,2.979,0.641,2.979,3.09
			C40.377,26.826,39.377,27.746,37.688,27.746z"/>
		<path fill="#FFFFFF" d="M46.756,25.066c0,1.76-0.938,2.68-2.857,2.68s-2.889-0.92-2.889-2.68V20.12h1.96v4.907
			c0,0.67,0.26,0.97,0.929,0.97c0.68,0,0.909-0.28,0.909-0.97V20.12h1.948V25.066z"/>
		<path fill="#FFFFFF" d="M49.857,20.12l1.32,3.788l0.248,0.77h0.03l0.25-0.76l1.339-3.798h2.159v7.496h-1.789v-3.14l0.021-0.81
			l-0.029-0.011l-0.25,0.779l-1.109,3.18h-1.27l-1.1-3.168l-0.25-0.78l-0.021,0.011l0.01,0.811v3.128h-1.709V20.12H49.857z"/>
		<path fill="#FFFFFF" d="M57.028,27.736c-0.699,0-1.009-0.271-1.009-0.949c0-0.609,0.31-0.96,1.009-0.96
			c0.7,0,0.999,0.351,0.999,0.96C58.027,27.355,57.729,27.736,57.028,27.736z"/>
	</g>
</g>
<g id="Screens">
</g>
</svg>
