<svg enable-background="new 0 0 643.8 600" viewBox="0 0 643.8 600" xmlns="http://www.w3.org/2000/svg"><text fill="#fff" font-family="ClanPro-NarrBlack" font-size="12.2353" transform="matrix(.9919 0 0 1 -430.8037 362.9277)">Mehr infos</text><path clip-rule="evenodd" d="m600.7 329.1 2 3.3-2.5 1.9-2.9-2.8-3 2.8-2.5-1.8 1.9-3.4-3.5-1.6 1.2-3.2 3.6.9.5-3.8h3.3l.5 3.8 3.6-.9 1.1 3.2zm-15.9 23.1c-2.7 0-3.9-1.1-3.9-3.7 0-2.4 1.2-3.7 3.9-3.7s3.9 1.4 3.9 3.7c0 2.2-1.2 3.7-3.9 3.7zm-15.1-53-1.6-2.7h-.1v3.2 13h-6.7v-29.2h6.4l9.4 15.2h.1l-.1-3.1v-12h6.7v29.2h-5.4zm-11.4 6.9-.2 6.6h-18.8v-29.2h18.3l.2 6.7h-10.8v4.5h9v6.1h-9v5.3zm-32.3-10.7h8.9v6.5h-8.9v10.8h-7.6v-29.2h18.3l.1 6.8h-10.8zm-22.5 17.8c-7.5 0-11.3-3.6-11.3-10.4v-19.3h7.6v19.1c0 2.6 1 3.8 3.6 3.8 2.7 0 3.5-1.1 3.5-3.8v-19.1h7.6v19.3c.2 6.8-3.5 10.4-11 10.4zm-21.3-5.6h-8l-1.1 5.1h-8.1l8.7-29.2h9.3l8.8 29.2h-8.5zm-3.3-14.7-.6-3.1h-.1l-.7 3.1-1.9 8.4h5.1zm-22.9 19.8-5.5-11.9h-1.9v11.9h-7.6v-29.2h7.6v11.3h2l5.4-11.3h8.5l-7 14 7.4 15.2zm-11.8 17c-2.2-.7-4.4-1.1-6.3-1.1-2.9 0-3.5.9-3.5 2.1 0 3.8 11.6 2.5 11.6 12 0 5.8-3.9 9.4-10.5 9.4-3.1 0-6.1-.7-8.5-2l1-6.5c2.4 1.2 4.8 1.9 7.3 1.9 2.4 0 3.4-.8 3.4-2.4 0-3.7-11.6-2.6-11.6-12.1 0-5.1 3.1-9.2 10.3-9.2 2.7 0 5.6.5 7.7 1.4zm-20.9-17h-7.8v-22.4h-6.6l.2-6.8h20.7l.2 6.8h-6.6v22.4zm-21.9-30.6c-1.9 0-2.9-.7-2.9-2.6 0-1.8 1-2.7 2.9-2.7 2 0 2.9.9 2.9 2.7 0 1.7-.9 2.6-2.9 2.6zm-7.4 0c-1.9 0-2.9-.7-2.9-2.6 0-1.8 1-2.7 2.9-2.7 2 0 2.9.9 2.9 2.7 0 1.7-.9 2.6-2.9 2.6zm-.9 1.4h9.3l8.8 29.2h-8.5l-1.1-5.1h-8l-1.1 5.1h-7.9-.2-8.7l-3.9-10.4h-2.6v10.4h-7.6v-29.2h10.1c7.4 0 11.1 2.8 11.1 9.4 0 3.9-1.4 6.8-4 7.9l5.6 11.8zm7.1 17.8-1.9-8.4-.6-3.1h-.1l-.7 3.1-1.9 8.4zm-28.2-11.5h-2.7v6.7h2.6c2.2 0 3-.5 3-3.4 0-2.6-.7-3.3-2.9-3.3zm-13.2 16.3-.2 6.6h-18.8v-29.2h18.3l.2 6.7h-10.9v4.5h9v6.1h-9v5.3zm-30.8 7.2c-9.7 0-13.1-5.2-13.1-15.2 0-10.2 4-15.1 13.4-15.1 2.6 0 5.5.5 7.6 1.3l-.7 6.5c-1.9-.7-4.4-1.1-6.5-1.1-4.8 0-5.9 1.8-5.9 8.4 0 6.9 1.1 8.5 4.9 8.5.6 0 1.2 0 1.8-.2v-9.5h6.8v14.9c-2 .8-5.3 1.5-8.3 1.5zm-25.5-.1c-3.1 0-6.1-.7-8.5-2l1-6.5c2.4 1.2 4.8 1.9 7.3 1.9 2.4 0 3.4-.8 3.4-2.4 0-3.7-11.6-2.6-11.6-12.1 0-5.1 3.1-9.2 10.3-9.2 2.7 0 5.6.5 7.7 1.4l-.9 6.4c-2.2-.7-4.4-1.1-6.3-1.1-2.9 0-3.5.9-3.5 2.1 0 3.8 11.6 2.5 11.6 12 0 5.9-3.9 9.5-10.5 9.5zm-20 39c-3.1 0-6.1-.7-8.5-2l1-6.5c2.4 1.2 4.8 1.9 7.3 1.9 2.4 0 3.4-.8 3.4-2.4 0-3.7-11.6-2.6-11.6-12.1 0-5.1 3.1-9.2 10.3-9.2 2.7 0 5.6.5 7.7 1.4l-.9 6.4c-2.2-.7-4.4-1.1-6.3-1.1-2.9 0-3.5.9-3.5 2.1 0 3.8 11.6 2.5 11.6 12 0 5.9-3.9 9.5-10.5 9.5zm-5.8-53-1.6-2.7h-.1v3.2 13h-6.7v-29.2h6.4l9.4 15.2h.1l-.1-3.1v-12h6.7v29.2h-5.4zm-23.8 14c-8.4 0-12.2-4.4-12.2-15.1s3.7-15.1 12.2-15.1c8.6 0 12.2 4.4 12.2 15.1 0 11-3.6 15.1-12.2 15.1zm0-23.4c-3.2 0-4.2 1.3-4.2 8.3s1.1 8.4 4.3 8.4 4.2-1.4 4.2-8.4c-.1-7-1-8.3-4.3-8.3zm-8 33.2-.7 6.5c-1.3-.5-3-.8-4.9-.8-4.3 0-5.4 1.8-5.4 8.2 0 6.7 1.2 8.6 5.5 8.6 1.8 0 3.5-.4 4.8-1l.7 6.2c-1.8.9-4.4 1.4-6.7 1.4-8.3 0-12.4-4.8-12.4-15.3 0-9.8 3.9-15 12.9-15 2.1.2 4.6.6 6.2 1.2zm-15.6-39.5h7.8v29.2h-7.8zm-9.3 29.2h-7.8v-22.4h-6.6l.2-6.8h20.7l.2 6.8h-6.7zm-23.8 0-5.5-11.9h-1.9v11.9h-7.6v-29.2h7.6v11.3h2l5.4-11.3h8.5l-7 14 7.4 15.2zm-4.5 24.5c0 10.4-3.2 14.9-10.3 14.9-7.2 0-10.2-4.4-10.2-14.9 0-11.1 3-15.1 10.3-15.1 7.1 0 10.2 4 10.2 15.1zm-13.2 0c0 7.8.9 8.7 3 8.7 2 0 2.9-1 2.9-8.7 0-7.6-.9-8.5-2.9-8.5-2.1 0-3 1-3 8.5zm-8.9-29.6h-8l-1.1 5.1h-8.1l8.7-29.2h9.3l8.8 29.2h-8.5zm-3.2-14.7-.6-3.1h-.1l-.7 3.1-1.9 8.4h5.1zm-7.9 29.2c7.1 0 10.3 3.9 10.3 15.1 0 10.4-3.2 14.9-10.3 14.9-7.2 0-10.2-4.4-10.2-14.9 0-11.1 2.9-15.1 10.2-15.1zm0 23.7c2 0 2.9-1 2.9-8.7 0-7.6-.9-8.5-2.9-8.5-2.1 0-3 1.1-3 8.5 0 7.9 1 8.7 3 8.7zm-14.5.7v5.2h-6.9v-5.2h-11.5l-.6-4.8 10.1-19.3h8.9v17.9h2.4l-.2 6.2zm-6.3-16.7-5.2 10.5h4.8l.3-7.3zm-.9-17.1h-7.8v-22.4h-6.6l.2-6.8h20.7l.2 6.8h-6.6v22.4zm-15.8-6.8-.1 6.8h-19.9v-5l9.3-14.8 1.7-2.6v-.1h-10.8l.2-6.8h19.5v5.5l-9 14.3-1.7 2.5v.1h10.8zm-28 6.8h-7.8v-22.4h-6.6l.2-6.8h20.7l.2 6.8h-6.7zm-15.7-6.6-.2 6.6h-18.7v-29.2h18.3l.2 6.7h-10.9v4.5h9v6.1h-9v5.3zm-34.1 7.2c-2.2 0-3.9-.4-5.3-1l.4-6.4c.8.4 2.1.7 3.6.7 3.2 0 4.8-1.2 4.8-4.8v-18.4h7.8v18.6c-.1 8.6-4.5 11.3-11.3 11.3zm3 28.3c0 2.6 1 3.8 3.6 3.8 2.7 0 3.5-1.1 3.5-3.8v-19.1h7.7v19.3c0 6.9-3.7 10.4-11.1 10.4s-11.3-3.6-11.3-10.4v-19.3h7.6zm34.3-4v-3.2-12h6.7v29.2h-5.4l-8.7-13.5-1.6-2.7h-.1v3.2 13h-6.7v-29.2h6.4zm33.6-.7c0 10.7-4.1 14.8-12.4 14.8h-10.5v-29.2h10.4c8.9 0 12.5 4.1 12.5 14.4zm-15.3 8.1h2.8c3.4 0 4.5-1 4.5-8.2 0-6.5-1.1-7.6-4.5-7.6h-2.8zm95.2-8.4v-3.9h2.9c1.2-6.4 5.5-10.4 11.9-10.4 2.6 0 4.5.4 6.2 1l-1.4 6c-.9-.3-1.9-.5-3.1-.5-3.2 0-4.9 1.2-5.7 3.9h8l-.8 3.9h-7.7v1.4h7.2l-.8 3.7h-6c.9 3.3 2.8 4.3 5.7 4.3 1.4 0 2.7-.4 4-.9l.5 5.5c-1.7.9-3.8 1.3-6.5 1.3-6.5 0-10.4-3.3-11.5-10.3h-2.9v-3.7h2.5v-1.4h-2.5zm70.1-14.1 8.8 29.2h-8.5l-1.1-5.1h-8l-1.1 5.1h-8.1l8.7-29.2zm-2.2 17.7-1.9-8.4-.6-3.1h-.1l-.7 3.1-1.9 8.4zm41.5-6.8h7.1v-11h7.6v29.2h-7.6v-11.5h-7.1v11.5h-7.6v-29.2h7.6zm39.6-3.4c0 3.1-1.4 5.1-3.6 6.1v.1c2.9 1 4.5 3.2 4.5 6.9 0 5.3-3.2 8.6-10.4 8.6h-11.5v-29.2h11.5c6.3 0 9.5 2.9 9.5 7.5zm-13.6 15.5h4.1c1.9 0 2.6-.6 2.6-2.9 0-2-.6-2.8-2.8-2.8h-4v5.7zm0-16.6v5.1h3.9c1.8 0 2.4-.7 2.4-2.7 0-1.9-.7-2.5-2.5-2.5h-3.8zm32.9-6.4 8.8 29.2h-8.5l-1.1-5.1h-8l-1.1 5.1h-8.1l8.7-29.2zm-2.3 17.7-1.9-8.4-.6-3.1h-.1l-.7 3.1-1.9 8.4zm24-18.2c2.1 0 4.6.5 6.2 1.1l-.7 6.5c-1.3-.5-3-.8-4.9-.8-4.3 0-5.4 1.8-5.4 8.2 0 6.7 1.2 8.6 5.5 8.6 1.8 0 3.5-.4 4.8-1l.7 6.2c-1.8.9-4.4 1.4-6.7 1.4-8.3 0-12.4-4.8-12.4-15.3 0-9.8 4-14.9 12.9-14.9zm16.6 11.8h2l5.4-11.3h8.5l-7 14 7.4 15.2h-9l-5.5-11.9h-1.9v11.9h-7.5v-29.2h7.6zm56.3 17.9h-7.9v-29.2h7.8v29.2zm16.3-29.7c2.1 0 4.6.5 6.2 1.1l-.7 6.5c-1.3-.5-3-.8-4.9-.8-4.3 0-5.4 1.8-5.4 8.2 0 6.7 1.2 8.6 5.5 8.6 1.8 0 3.5-.4 4.8-1l.7 6.2c-1.8.9-4.4 1.4-6.7 1.4-8.3 0-12.4-4.8-12.4-15.3.1-9.8 4-14.9 12.9-14.9zm16.6 11.4h7.1v-11h7.6v29.2h-7.6v-11.5h-7.1v11.5h-7.6v-29.2h7.6zm37.2-4.2h-10.9v4.5h9v6.1h-9v5.3h11.4l-.2 6.6h-18.8v-29.2h18.3zm24.6 2.7c0 3.9-1.4 6.8-4 7.9l5.7 12h-8.8l-3.9-10.4h-2.6v10.4h-7.6v-29.2h10.1c7.4-.1 11.1 2.7 11.1 9.3zm-13.6 3.6h2.6c2.2 0 3-.5 3-3.4 0-2.7-.7-3.4-3-3.4h-2.6zm33 2.1v-3.2-12h6.7v29.2h-5.4l-8.7-13.5-1.6-2.7h-.1v3.2 13h-6.7v-29.2h6.4z" fill-rule="evenodd"/></svg>