<svg enable-background="new 0 0 248.31 121.44" viewBox="0 0 248.31 121.44" xmlns="http://www.w3.org/2000/svg"><path clip-rule="evenodd" d="m210.69 101.49c-1.91 0-2.76-.43-2.76-2.59 0-1.66.85-2.62 2.76-2.62s2.73.95 2.73 2.62c0 1.55-.82 2.59-2.73 2.59zm-14.89-8.97-1.15-2.67-.05.03.03 2.21v9.08h-4.7v-20.46h4.48l7.08 10.61-.44-.03.44-2.18.27-8.4h3.96v20.45h-3.8zm-2.65-55.05c0 3.36-2.73 5.87-7.35 5.87-2.16 0-4.29-.49-5.95-1.42l.68-4.53c1.66.85 3.36 1.72 5.13 1.72 1.69 0 3.09-.92 3.09-2.01 0-2.62-8.88-1.8-8.88-8.48 0-3.57 2.18-6.41 7.24-6.41 2.47 0 4.68.35 5.38.98l-.6 4.44c-1.56-.46-3.11-.74-4.42-.74-2.02 0-1.76.6-1.76 1.47.01 2.65 7.44 1.75 7.44 9.11zm-20.96-14.94h5.26v20.45h-5.26zm-6.73 20.46h-4.61v-15.68h-5.46l.11-4.77h15.02l-.41 4.77h-4.64v15.68zm-14.42 0-.79-3.57h-5.57l-.79 3.57h-5.54-.11-6.06l-2.73-7.31h-1.8v7.31h-5.33v-20.46h7.07c5.19 0 7.76 1.96 7.76 6.57 0 2.73-.98 4.75-2.79 5.51l3.92 8.23 6.02-20.31h6.53l6.7 20.45h-6.49zm-21.54-16.04h-1.86v4.72h1.83c2.36 0 2.1-.38 2.1-2.37 0-1.86-.52-2.35-2.07-2.35zm18.64 2.16-.59-2.18h-.08l.11 2.18-1.89 5.86h3.58zm-33.63 42.96-3.85-7.98h-1.31v7.98h-4.6v-20.45h4.6v7.91h1.42l3.8-7.91h5.98l-4.92 9.79 5.16 10.66zm-9.64-38.96c0-7.49 2.81-10.93 9.42-10.93 1.8 0 3.85.33 5.33.9l-.49 4.55c-1.34-.49-3.06-.79-4.53-.79-3.36 0-4.12 1.25-4.12 5.86 0 4.85.79 5.92 3.44 5.92.41 0 .85-.03 1.23-.11v-6.68h4.75v10.42c-1.42.68-3.74 1.12-5.84 1.12-6.79 0-9.19-3.45-9.19-10.26zm-11.75 59.41-.8-2.67-.41.03.13 2.21v9.08h-4.8v-20.46h4.48l6.58 10.61.06-.03-.06-2.18.03-8.4h5.58v20.45h-4.68zm.09-20.09c-5.9 0-8.57-3.11-8.57-10.58 0-7.5 2.57-10.55 8.57-10.55 6.01 0 8.58 3.05 8.58 10.55-.01 7.69-2.58 10.58-8.58 10.58zm-.03-16.36c-2.24 0-2.95.93-2.95 5.78 0 5.77.99 5.86 3 5.86 2.27 0 2.95-1.01 2.95-5.86 0-4.88-.68-5.78-3-5.78zm.24-13.08h-5.87v-15.68h-4.64l.84-4.77h13.77l.11 4.77h-4.21zm-11.55-4.75-.08 4.74h-13.95v-3.46l6.53-10.36 1.2-1.8-.03-.06h-6.99l-.41-4.77h13.68v3.82l-6.31 10.03-1.2 1.77.03.08h7.53zm-19.58 4.75h-5.44v-15.68h-4.64l.11-4.77h14.5l.11 4.77h-4.64zm-10.98-4.61-.11 4.61h-12.5v-20.46h12.15l.29 4.69h-7.8v3.16h6.28v4.28h-6.28v3.71h7.97zm-13.68 29.09-.11 4.61h-13.19v-20.46h12.84l.11 4.69h-7.62v3.16h6.38v4.61h-6.38v3.38h7.97zm-10.27-24.1c-1.53 0-2.76-.27-3.74-.71l.27-4.44c.57.3 1.48.49 2.54.49 2.24 0 3.33-.87 3.33-3.33v-12.85h5.46v12.95c.01 6.01-3.05 7.89-7.86 7.89zm13.03 47.46c0 7.5-2.9 10.33-8.66 10.33h-7.4v-20.45h7.29c6.23 0 8.77 2.89 8.77 10.12zm-10.73 5.67h1.99c2.91 0 3.14-.07 3.14-5.25 0-5-.74-5.82-3.14-5.82h-1.99zm9.23-36.42h7.62v3.55h-7.62zm11.77 20.3c6.01 0 8.58 3.05 8.58 10.55 0 7.69-2.57 10.58-8.58 10.58-5.9 0-8.57-3.11-8.57-10.58-.01-7.49 2.56-10.55 8.57-10.55zm.03 17.14c2.39 0 2.95-1.09 2.95-6.58 0-4.88-.56-5.78-3-5.78-2.24 0-2.95.93-2.95 5.78-.01 5.76.73 6.58 3 6.58zm13.51-31.47c0 4.57-1.73 6.03-7.32 6.03h-7.97v-20.46h8.13c4.3 0 6.54 2.05 6.54 5.29 0 2.15-.98 3.54-2.51 4.28v.05c2.04.69 3.13 2.27 3.13 4.81zm-7.48-9.96h-2.65v3.6h2.7c1.82 0 1.67-.46 1.67-1.85 0-1.34-.11-1.75-1.72-1.75zm.14 7.59h-2.78v4.04h3.16c1.08 0 1.57-.44 1.57-2.04-.01-1.43-.45-2-1.95-2zm17.5 8.75c-5.9 0-8.58-3.11-8.58-10.58 0-7.5 2.57-10.55 8.58-10.55s8.57 3.05 8.57 10.55c.01 7.69-2.56 10.58-8.57 10.58zm-.02-16.36c-2.24 0-2.95.93-2.95 5.78 0 5.77.74 5.86 3 5.86 2.27 0 2.95-1.01 2.95-5.86 0-4.88-.68-5.78-3-5.78zm-7.19 37.54.27 2.82h.08l.3-2.82 2.13-12.9h5.68l2.16 12.79.33 2.18h.08l.25-2.18 1.83-12.79h5.32l-4.29 20.45h-6.39l-1.38-12.09-.8-2.52h-.08l-.3 2.52-1.88 12.09h-6.39l-4.29-20.45h5.57zm44.05 2.81h6.96l.68 4.75h-13.03v-20.46h5.38v15.71zm16.36-16.04c6.01 0 8.57 3.05 8.57 10.55 0 7.69-2.57 10.58-8.57 10.58-5.9 0-8.15-3.11-8.15-10.58 0-7.49 2.14-10.55 8.15-10.55zm.03 17.14c2.27 0 2.95-1.09 2.95-6.58 0-4.88-.68-5.78-3-5.78-2.24 0-2.95.93-2.95 5.78-.01 5.76.73 6.58 3 6.58zm21.16-16.81 6.17 20.45h-5.67l-1.08-3.57h-5.57l-.79 3.57h-5.65l6.06-20.45zm-1.55 12.44-1.31-5.86-.41-2.18h-.08l-.46 2.18-1.31 5.86zm25.15-2.32c0 7.5-2.9 10.33-8.66 10.33h-7.4v-20.45h7.29c6.23 0 8.77 2.89 8.77 10.12zm-10.74 5.67h1.99c2.51 0 3.14-.07 3.14-5.25 0-5-.09-5.82-3.14-5.82h-1.99zm25.92-11.1h-7.62v3.16h6.28v4.28h-6.28v3.71h7.97l-.11 4.61h-13.19v-20.45h12.83z" fill-rule="evenodd"/></svg>