<svg enable-background="new 0 0 248.31 121.44" viewBox="0 0 248.31 121.44" xmlns="http://www.w3.org/2000/svg"><path clip-rule="evenodd" d="m228.88 32.35v-3.84h8.32v3.84zm.27 9.16h-6.85l-4.2-9.01h-1.43v9.01h-5.81v-22.16h5.81v8.57h1.55l4.14-8.57h6.53l-5.37 10.61zm-24.68-4.63c1.37 0 2.65-.27 3.7-.74l.54 4.7c-1.34.65-3.37 1.06-5.1 1.06-6.38 0-9.48-3.6-9.48-11.58 0-7.45 3.01-11.35 10.23-11.35 1.18 0 3.12.36 4.31.83l-.57 5.26c-.98-.7-2.32-.94-3.73-.94-3.31 0-4.14 1.39-4.14 6.24.01 5.1.93 6.52 4.24 6.52zm-21.1 5.02c-5.72 0-8.61-2.72-8.61-7.92v-14.63h5.84v14.51c0 1.98.78 3.45 2.77 3.45 2.03 0 2.71-1.41 2.71-3.45v-14.51h5.81v14.63c0 5.2-2.8 7.92-8.52 7.92zm-16.27-.39-2.98-7.92h-1.97v7.92h-5.81v-22.16h7.72c5.66 0 8.47 2.13 8.47 7.12 0 2.95-1.07 5.14-3.04 5.97l4.35 9.07zm-2.92-17.37h-2.03v5.11h2c1.7 0 2.29-.41 2.29-2.4 0-2.09-.56-2.71-2.26-2.71zm-7.45 83.37h-6.11l-2.8-7.92h-2.78v7.92h-5.81v-22.16h7.99c5.39 0 8.19 2.13 8.19 7.12 0 2.96-1.07 5.14-3.04 5.97zm-9.66-17.37h-2.03v5.11h2c1.7 0 2.29-.41 2.29-2.4 0-2.09-.56-2.71-2.26-2.71zm-1.67-23.54h-1.97v7.92h-5.81v-22.17h7.72c6.41 0 8.47 2.13 8.47 7.12 0 2.95-1.07 5.14-3.04 5.97l4.35 9.07h-6.74zm.06-9.46h-2.03v5.11h2c1.7 0 2.29-.41 2.29-2.4 0-2.09-.56-2.71-2.26-2.71zm-1.01-15.63h-8.08v-22.16h7.96c6.79 0 9.57 3.13 9.57 10.96-.01 8.13-3.16 11.2-9.45 11.2zm-.09-17.04h-2.17v12h2.17c2.66 0 3.43-.49 3.43-6.2-.01-4.92-.27-5.8-3.43-5.8zm-8.97 45.05-.12 4.99h-14.4v-22.16h14.01l.83 5.08h-9.03v3.43h6.86v4.64h-6.86v4.02zm-5.87-28.01h-5.93v-16.99h-5.07l.12-5.17h15.83l.12 5.17h-5.07zm-27.69 21.92c0-7.47 3.07-11.46 10.28-11.46 1.97 0 4.2.35 6.01.98l-.73 4.93c-.97-.53-3.34-.86-4.95-.86-3.67 0-4.35 1.36-4.35 6.35 0 5.26.71 6.41 3.6 6.41.45 0 .92.83 1.34.48v-7.83h5.19v11.77c-1.55.25-4.08.72-6.38.72-7.39.01-10.01-3.92-10.01-11.49zm16.33-28.62c0 4.37-2.98 7.09-8.02 7.09-2.35 0-4.68-.53-6.5-1.54l.75-4.9c1.82.92 3.67 1.48 6.27 1.48 1.18 0 1.9-.62 1.9-1.8 0-2.84-8.88-1.95-8.88-9.19 0-3.87 2.38-6.94 7.9-6.94 2.06 0 4.26.38 5.87 1.06l-.66 4.82c-1.7-.5-3.4-.8-4.46-.8-2.57 0-3.05 1.27-3.05 1.72 0 2.73 8.88 1.76 8.88 9zm-22.71-1.98h-5.42v8.69h-5.81v-22.17h5.81v8.3h5.42v-8.3h5.84v22.16h-5.84zm-17.61 4.05c1.37 0 2.65-.27 3.7-.74l.54 4.7c-1.34.65-3.37 1.06-4.62 1.06-6.85 0-9.95-3.6-9.95-11.58 0-7.45 3.01-11.35 9.84-11.35 1.58 0 3.52.36 4.71.83l-.57 5.26c-.98-.7-2.32-.94-3.73-.94-3.31 0-4.14 1.39-4.14 6.24-.02 5.1.91 6.52 4.22 6.52zm-21.55 5.02c-6.44 0-9.26-3.37-9.26-11.47 0-8.12 2.7-11.43 9.26-11.43s9.36 3.31 9.36 11.43c0 8.34-2.8 11.47-9.36 11.47zm-.03-17.73c-2.44 0-3.22 1-3.22 6.26 0 5.83.81 6.35 3.28 6.35s3.22-.81 3.22-6.35c0-5.29-.75-6.26-3.28-6.26zm2.89-5.88c-1.46 0-1.98.03-1.98-1.98 0-1.33.52-2.04 1.98-2.04 1.52 0 2.21.71 2.21 2.04 0 1.3-.69 1.98-2.21 1.98zm-5.69 0c-.76 0-2.2.03-2.2-1.98 0-1.33 1.45-2.04 2.2-2.04 2.04 0 2.21.71 2.21 2.04-.01 1.3-.17 1.98-2.21 1.98zm7.06 39.15h-8.32v3.43h6.85v4.64h-6.85v4.02h8.7l-.12 4.99h-14.4v-22.17h14.02zm-9.63 24.87c0-1.33.74-2.04 2.21-2.04 1.52 0 2.21.71 2.21 2.04 0 1.3-.68 1.98-2.21 1.98-1.46 0-2.21.03-2.21-1.98zm5.7 0c0-1.33.74-2.04 2.2-2.04 1.52 0 2.92.71 2.92 2.04 0 1.3-1.4 1.98-2.92 1.98-1.46 0-2.2.03-2.2-1.98zm2.95 3.04 6.74 22.16h-6.5l-.86-3.87h-6.08l-.43 3.87h-6.6l6.62-22.16zm-1.7 13.48-1.43-6.35-.07-2.36h-.47l-.51 2.36-1.3 6.35zm-18.96 8.68-4.2-9.01h-1.43v9.01h-5.81v-22.16h5.81v8.57h1.55l4.36-8.57h6.31l-5.36 10.61 5.63 11.55zm-3.66-40.91h-1.97v7.92h-5.81v-22.17h7.72c5.66 0 8.47 2.13 8.47 7.12 0 2.95-1.07 5.14-3.04 5.97l4.49 9.07h-6.88zm.06-9.46h-2.03v5.11h2c1.95 0 2.3-.41 2.3-2.4-.01-2.09-.06-2.71-2.27-2.71zm3.4-24.31h-5.42v8.69h-5.81v-22.17h5.81v8.3h5.42v-8.3h5.84v22.16h-5.84zm24.7 19.52h5.99v22.16h-5.99zm20.81 40.12c0 2.96-1.32 5.14-3.28 5.97l4.35 9.07h-6.74l-2.98-7.92h-1.97v7.92h-5.81v-22.16h7.72c5.67 0 8.71 2.13 8.71 7.12zm-10.62 2.78h2c1.7 0 2.29-.41 2.29-2.4 0-2.09-.57-2.71-2.26-2.71h-2.03zm11.18-42.9h5.13v22.16h-4.14l-6.68-10.22-1.25-2.04-.06.03.03 2.5v9.73h-5.13v-22.16h4.89l7.18 11.49.06-.03-.06-2.36zm8.4 0h5.99v22.16h-5.99zm2.36 32.62c1.58 0 3.52.36 4.71.83l-.57 5.26c-.98-.71-2.33-.94-2.93-.94-4.1 0-4.94 1.39-4.94 6.24 0 5.11.92 6.53 5.11 6.53.5 0 1.78-.27 2.82-.74l.54 4.7c-1.34.65-3.37 1.06-5.1 1.06-6.38 0-9.48-3.61-9.48-11.58 0-7.46 3.01-11.36 9.84-11.36zm12.7 8.69h5.42v-8.3h5.84v22.16h-5.84v-8.69h-5.42v8.69h-5.81v-22.17h5.81zm28.4-3.22h-8.32v3.43h6.85v4.64h-6.85v4.02h9.39l-.8 4.99h-14.4v-22.17h14.01zm23.96 11.79c2.09 0 2.98 1.03 2.98 2.84 0 2.43-.89 2.81-2.98 2.81s-3.01-.8-3.01-2.81c0-1.81.92-2.84 3.01-2.84zm7.51-49.88 3.13 13.83.51 2.33h.09l.48-2.33 3.22-13.83h6.02l-6.62 22.16h-6.65l-6.59-22.16zm22.8-.35c6.56 0 9.36 3.31 9.36 11.43 0 8.33-2.8 11.46-9.36 11.46-6.44 0-9.36-3.37-9.36-11.46 0-8.12 2.8-11.43 9.36-11.43zm.03 17.79c2.47 0 3.22-.81 3.22-6.35 0-5.29-.74-6.26-3.28-6.26-2.44 0-3.22 1.01-3.22 6.26 0 5.82.8 6.35 3.28 6.35zm23.84-5.94.06-.03-.06-2.36.03-9.1h5.13v22.16h-4.14l-6.68-10.22-1.25-2.04-.06.03.03 2.5v9.73h-5.13v-22.17h4.89z" fill-rule="evenodd"/></svg>