<svg xmlns="http://www.w3.org/2000/svg" viewBox="0 0 138.28 33.65"><g id="_2in1_02" data-name="2in1 02"><path d="M4.9,11.13l0,.06H9.37L9.29,14.4H.34V12.08c3-3.28,5.34-5.64,5.34-7.52,0-.86-.49-1.35-1.63-1.35A5.23,5.23,0,0,0,1,4.37L.19,1.42A7.64,7.64,0,0,1,4.77,0C7.88,0,9.44,1.69,9.44,4.2,9.44,6.52,7.6,8.59,4.9,11.13Z"/><path d="M11.48.15h3.81V14.4H11.48Z"/><path d="M25.72,14.4,21.47,7.83l-.8-1.31,0,0,0,1.53V14.4H17.38V.15H20.5l4.58,7.39,0,0,0-1.52,0-5.85h3.26V14.4Z"/><path d="M32,11.85h1.69V4.46l-2.17,1.2-.38-2.89L35.26.17h2.15V11.85H39.1V14.4H32Z"/><path d="M43,7.22c-1.33,0-1.92-.51-1.92-1.81S41.69,3.59,43,3.59s1.89.66,1.89,1.82A1.66,1.66,0,0,1,43,7.22Zm0,7.41c-1.33,0-1.92-.52-1.92-1.81S41.69,11,43,11s1.89.66,1.89,1.82A1.66,1.66,0,0,1,43,14.63Z"/><path d="M58,14.4,55.36,8.61h-.91V14.4h-3.7V.15h3.7V5.66h1L58.08.15h4.16L58.82,7l3.59,7.43Z"/><path d="M72.71,11.19l-.08,3.21H63.46V.15h8.93l.07,3.27h-5.3v2.2h4.37v3H67.16v2.58Z"/><path d="M81.3,14.4V8.81H77.84V14.4h-3.7V.15h3.7V5.49H81.3V.15H85V14.4Z"/><path d="M95.32,8.57l2.77,5.83H93.8L91.9,9.31H90.65V14.4H86.94V.15h4.92c3.61,0,5.4,1.37,5.4,4.58C97.26,6.63,96.57,8,95.32,8.57ZM91.94,3.23H90.65V6.52h1.27c1.08,0,1.46-.27,1.46-1.66S93,3.23,91.94,3.23Z"/><path d="M108.28,11.19l-.08,3.21H99V.15H108L108,3.42h-5.3v2.2h4.37v3h-4.37v2.58Z"/><path d="M118,14.4l-4.25-6.57L113,6.52l0,0,0,1.53V14.4H109.7V.15h3.12l4.58,7.39,0,0,0-1.52,0-5.85h3.26V14.4Z"/><path d="M10.92,28.56c0,3.34-1.78,5.09-5.43,5.09S0,31.9,0,28.56V19.15H3.72v9.33c0,1.27.5,1.84,1.77,1.84s1.73-.53,1.73-1.84V19.15h3.7Z"/><path d="M21.07,33.4l-4.26-6.57L16,25.52l0,0,0,1.53V33.4H12.73V19.15h3.12l4.57,7.39,0,0,0-1.52,0-5.85h3.27V33.4Z"/><path d="M30.8,33.4H25.65V19.15h5.07c4.33,0,6.1,2,6.1,7.05C36.82,31.42,34.81,33.4,30.8,33.4Zm-.06-11H29.35v7.71h1.39c1.63,0,2.19-.49,2.19-4C32.93,23,32.41,22.44,30.74,22.44Z"/><path d="M46.38,33.65a8.73,8.73,0,0,1-4.14-1l.47-3.16a7.86,7.86,0,0,0,3.57,1c1.18,0,1.64-.4,1.64-1.16,0-1.83-5.66-1.26-5.66-5.91,0-2.49,1.52-4.47,5-4.47a10,10,0,0,1,3.74.69l-.42,3.09a11.24,11.24,0,0,0-3.07-.51c-1.41,0-1.71.42-1.71,1,0,1.84,5.66,1.21,5.66,5.87C51.49,31.9,49.59,33.65,46.38,33.65Z"/><path d="M61.35,22.59A7.19,7.19,0,0,0,59,22.21c-2.1,0-2.64.89-2.64,4,0,3.28.59,4.2,2.7,4.2a5.65,5.65,0,0,0,2.36-.48l.34,3a8.06,8.06,0,0,1-3.25.69c-4.06,0-6-2.32-6-7.45,0-4.79,1.92-7.29,6.27-7.29a8.92,8.92,0,0,1,3,.53Z"/><path d="M70.26,33.4V27.81H66.8V33.4H63.1V19.15h3.7v5.34h3.46V19.15H74V33.4Z"/><path d="M85.16,30.19l-.08,3.21H75.9V19.15h8.93l.08,3.27h-5.3v2.2H84v3H79.61v2.58Z"/><path d="M97.37,28.56c0,3.34-1.78,5.09-5.43,5.09s-5.49-1.75-5.49-5.09V19.15h3.72v9.33c0,1.27.5,1.84,1.77,1.84s1.73-.53,1.73-1.84V19.15h3.7Z"/><path d="M108.43,30.19l-.08,3.21H99.18V19.15h8.93l.07,3.27h-5.3v2.2h4.37v3h-4.37v2.58Z"/><path d="M118.23,27.57,121,33.4h-4.3l-1.9-5.09h-1.25V33.4h-3.7V19.15h4.92c3.61,0,5.39,1.37,5.39,4.58C120.17,25.63,119.49,27,118.23,27.57Zm-3.38-5.34h-1.29v3.29h1.27c1.09,0,1.47-.27,1.47-1.66S115.94,22.23,114.85,22.23Z"/><path d="M130.28,33.4,126,26.83l-.8-1.31,0,0,0,1.53V33.4h-3.27V19.15h3.12l4.57,7.39,0,0,0-1.52,0-5.85h3.27V33.4Z"/><path d="M136.38,33.63c-1.33,0-1.92-.52-1.92-1.81s.59-1.82,1.92-1.82,1.9.66,1.9,1.82A1.66,1.66,0,0,1,136.38,33.63Z"/></g></svg>