<?xml version="1.0" encoding="utf-8"?>
<!-- Generator: Adobe Illustrator 27.1.1, SVG Export Plug-In . SVG Version: 6.00 Build 0)  -->
<svg version="1.1" id="Ebene_1" xmlns="http://www.w3.org/2000/svg" xmlns:xlink="http://www.w3.org/1999/xlink" x="0px" y="0px"
	 viewBox="0 0 643.8 600" style="enable-background:new 0 0 643.8 600;" xml:space="preserve">
<style type="text/css">
	.st0{fill-rule:evenodd;clip-rule:evenodd;}
</style>
<text transform="matrix(0.9919 0 0 1 -430.8037 362.9277)" style="fill:#FFFFFF; font-family:'ClanPro-NarrBlack'; font-size:12.2353px;">Mehr infos</text>
<path class="st0" d="M503.4,309.8l-0.7-13.7h5.1l-0.7,13.7H503.4z M500.9,311.2l-0.1,4.4h-12.6v-19.5h12.2l0.1,4.5h-7.3v3h6v4.1h-6
	v3.5H500.9z M479.5,315.9c-2.1,0-4.1-0.5-5.7-1.4l0.7-4.3c1.6,0.8,3.2,1.3,4.9,1.3c1.6,0,2.2-0.5,2.2-1.6c0-2.5-7.7-1.7-7.7-8.1
	c0-3.4,2.1-6.1,6.9-6.1c1.8,0,3.7,0.3,5.1,0.9l-0.6,4.2c-1.5-0.4-3-0.7-4.2-0.7c-1.9,0-2.3,0.6-2.3,1.4c0,2.5,7.7,1.7,7.7,8
	C486.5,313.5,483.9,315.9,479.5,315.9z M466.3,296.1h5.2v19.5h-5.2V296.1z M464.1,311.2l-0.1,4.4h-12.6v-19.5h12.2l0.1,4.5h-7.3v3h6
	v4.1h-6v3.5H464.1z M444.3,315.6l-2.6-7H440v7h-5.1v-19.5h6.7c4.9,0,7.4,1.9,7.4,6.3c0,2.6-0.9,4.5-2.7,5.3l3.8,8H444.3z
	 M441.8,300.3H440v4.5h1.7c1.5,0,2-0.4,2-2.3C443.7,300.8,443.2,300.3,441.8,300.3z M425.5,309.5h-1.6v6.1h-5.1v-19.5h6.7
	c5.4,0,7.6,2.1,7.6,6.9C433.1,307.2,431,309.5,425.5,309.5z M425.5,300.3h-1.6v5.2h1.6c1.7,0,2.3-0.4,2.3-2.6
	C427.8,300.8,427.3,300.3,425.5,300.3z M411,311.2l-0.1,4.4h-12.6v-19.5h12.2l0.1,4.5h-7.3v3h6v4.1h-6v3.5H411z M389.5,304.1h6
	l0,4.3h-5.9v7.2h-5.1v-19.5h12.2l0.1,4.6h-7.2V304.1z M382.4,311.2l-0.1,4.4h-12.6v-19.5H382l0.1,4.5h-7.3v3h6v4.1h-6v3.5H382.4z
	 M361.7,296.1h5.2v19.5h-5.2V296.1z M355.5,315.6h-5.2v-14.9h-4.4l0.1-4.6h13.8l0.1,4.6h-4.4V315.6z M334.8,318.9l0.6-3
	c-0.7-0.4-1.5-1.2-1.5-2.3c0-1.4,0.7-2.5,2.5-2.5c1.8,0,2.6,1.1,2.6,2.7c0,1.5-1.3,4.1-2.5,5.6L334.8,318.9z M327.1,315.6l-3.7-7.9
	h-1.2v7.9h-5.1v-19.5h5.1v7.5h1.4l3.6-7.5h5.7l-4.7,9.3l4.9,10.2H327.1z M311.5,311.5c1.2,0,2.3-0.2,3.2-0.6l0.5,4.1
	c-1.2,0.6-2.9,0.9-4.4,0.9c-5.6,0-8.3-3.2-8.3-10.2c0-6.6,2.6-10,8.6-10c1.4,0,3.1,0.3,4.1,0.7l-0.5,4.3c-0.9-0.3-2-0.5-3.2-0.5
	c-2.9,0-3.6,1.2-3.6,5.5C307.8,310.3,308.6,311.5,311.5,311.5z M293.1,315.9c-5,0-7.5-2.4-7.5-7v-12.9h5.1v12.8
	c0,1.7,0.7,2.5,2.4,2.5c1.8,0,1.5-0.7,1.5-2.5v-12.8h6V309C300.5,313.5,298.1,315.9,293.1,315.9z M278.9,315.6l-2.6-7h-1.7v7h-5.1
	v-19.5h6.7c4.9,0,7.4,1.9,7.4,6.3c0,2.6-0.9,4.5-2.7,5.3l3.8,8H278.9z M276.4,300.3h-1.8v4.5h1.7c1.5,0,2-0.4,2-2.3
	C278.3,300.8,277.8,300.3,276.4,300.3z M259.1,315.6h-7v-19.5h6.9c5.9,0,8.3,2.8,8.3,9.6C267.4,312.9,264.6,315.6,259.1,315.6z
	 M259.1,300.6h-1.9v10.6h1.9c2.2,0,3-0.7,3-5.5C262.1,301.4,261.4,300.6,259.1,300.6z M239.1,315.6l-2.6-7h-1.7v7h-5.1v-19.5h6.7
	c4.9,0,7.4,1.9,7.4,6.3c0,2.6-0.9,4.5-2.7,5.3l3.8,8H239.1z M236.6,300.3h-1.8v4.5h1.7c1.5,0,2-0.4,2-2.3
	C238.5,300.8,238,300.3,236.6,300.3z M227.8,311.2l-0.1,4.4h-12.6v-19.5h12.2l0.1,4.5h-7.3v3h6v4.1h-6v3.5H227.8z M207.4,307.9h-4.7
	v7.6h-5.1v-19.5h5.1v7.3h4.7v-7.3h5.1v19.5h-5.1V307.9z M187.3,315.9c-5.6,0-8.2-3-8.2-10.1c0-7.1,2.4-10.1,8.2-10.1
	s8.2,2.9,8.2,10.1C195.4,313.2,193,315.9,187.3,315.9z M187.3,300.3c-2.1,0-2.8,0.9-2.8,5.5c0,4.7,0.7,5.6,2.9,5.6s2.8-1,2.8-5.6
	C190.1,301.2,189.5,300.3,187.3,300.3z M171.9,307.9h-4.7v7.6h-5.1v-19.5h5.1v7.3h4.7v-7.3h5.1v19.5h-5.1V307.9z M505.3,311.4
	c1.8,0,2.5,0.9,2.5,2.3c0,1.3-0.8,2.2-2.5,2.2c-1.7,0-2.5-0.6-2.5-2.2C502.8,312.2,503.6,311.4,505.3,311.4z"/>
</svg>
