<svg enable-background="new 0 0 542.1 279.5" viewBox="0 0 542.1 279.5" xmlns="http://www.w3.org/2000/svg"><text fill="#fff" font-family="ClanPro-NarrBlack" font-size="12.2353" transform="matrix(.9919 0 0 1 -481.6271 193.3322)">Mehr infos</text><g clip-rule="evenodd" fill-rule="evenodd"><path d="m96.6 93.2h348.8v108.5h-348.8z" fill="#238c96"/><path d="m386.2 138.2c-3.1 0-3.8.9-3.8 2.3 0 4.1 12.6 2.7 12.6 13.2 0 6.3-4.2 10.2-11.4 10.2-3.3 0-6.6-.8-9.2-2.2l1.1-7.1c2.6 1.3 5.2 2.1 8 2.1 2.6 0 3.6-.9 3.6-2.6 0-4.1-12.6-2.8-12.6-13.3 0-5.6 3.4-10 11.2-10 2.9 0 6.1.6 8.3 1.5l-.9 7c-2.4-.6-4.9-1.1-6.9-1.1zm-28.5 25.8c-9.1 0-13.3-4.9-13.3-16.6s4-16.5 13.3-16.5 13.3 4.8 13.3 16.5c0 12-4 16.6-13.3 16.6zm-.1-25.6c-3.5 0-4.6 1.5-4.6 9 0 7.6 1.1 9.2 4.7 9.2 3.5 0 4.6-1.6 4.6-9.2s-1.1-9-4.7-9zm-27.6 6.1h9.7v7.1h-9.7v11.8h-8.3v-32h19.9l.1 7.5h-11.7zm-29.1 4.1-1.8-2.9h-.1v3.5 14.2h-7.3v-32h6.9l10.2 16.6h.1l-.1-3.4v-13.1h7.3v32h-5.9zm-23.3-17.2h8.5v32h-8.5zm-23.6 32-4.2-11.4h-2.8v11.4h-8.3v-32h11c8 0 12 3.1 12 10.3 0 4.3-1.5 7.4-4.3 8.6l6.2 13.1zm-4.2-25.1h-2.9v7.4h2.8c2.4 0 3.3-.6 3.3-3.7 0-2.9-.8-3.7-3.2-3.7zm-24.8 12.6h-7.7v12.6h-8.3v-32h8.3v12h7.7v-12h8.3v32h-8.3zm-20.2 5.3-.2 7.2h-20.4v-32h19.9l.2 7.3h-11.8v5h9.7v6.7h-9.7v5.8zm-33.5-6.2.1-3.5h-.1l-1.1 3.3-4.7 13.6h-5.4l-4.7-13.5-1.1-3.3h-.1v3.5 13.4h-7.2v-32h9.1l5.6 16.2 1.1 3.3h.1l1.1-3.2 5.7-16.2h9.1v32h-7.6v-13.6z" fill="#fff"/></g></svg>