<?xml version="1.0" encoding="utf-8"?>
<!-- Generator: Adobe Illustrator 26.0.3, SVG Export Plug-In . SVG Version: 6.00 Build 0)  -->
<svg version="1.1" id="Ebene_1" xmlns="http://www.w3.org/2000/svg" xmlns:xlink="http://www.w3.org/1999/xlink" x="0px" y="0px"
	 viewBox="0 0 728 90" style="enable-background:new 0 0 728 90;" xml:space="preserve">
<g>
	<path d="M168.42,23.79c-0.96-0.35-2.26-0.58-3.63-0.58c-3.22,0-4.03,1.36-4.03,6.12c0,5.02,0.9,6.41,4.12,6.41
		c1.33,0,2.58-0.26,3.6-0.73l0.52,4.61c-1.31,0.64-3.28,1.04-4.96,1.04c-6.21,0-9.22-3.54-9.22-11.37c0-7.31,2.93-11.14,9.57-11.14
		c1.54,0,3.42,0.35,4.58,0.81L168.42,23.79z"/>
	<path d="M182.62,36.5h-5.92l-0.84,3.8h-6l6.44-21.76h6.93l6.56,21.76h-6.32L182.62,36.5z M179.17,25.53l-1.39,6.24h3.8l-1.39-6.24
		l-0.44-2.32h-0.09L179.17,25.53z"/>
	<path d="M196.98,40.68c-2.29,0-4.55-0.52-6.32-1.51l0.73-4.81c1.77,0.9,3.57,1.45,5.45,1.45c1.8,0,2.5-0.61,2.5-1.77
		c0-2.78-8.64-1.91-8.64-9.02c0-3.8,2.32-6.82,7.69-6.82c2,0,4.15,0.38,5.71,1.04l-0.64,4.73c-1.65-0.49-3.31-0.78-4.7-0.78
		c-2.15,0-2.61,0.64-2.61,1.57c0,2.81,8.64,1.86,8.64,8.96C204.78,38.01,201.88,40.68,196.98,40.68z"/>
	<path d="M217.74,40.3v-8.53h-5.28v8.53h-5.66V18.54h5.66v8.15h5.28v-8.15h5.69V40.3H217.74z"/>
	<path d="M234.82,40.3h-8.47V18.54h8.53c4.67,0,7.05,2.18,7.05,5.63c0,2.29-1.04,3.77-2.67,4.55v0.06c2.17,0.73,3.34,2.41,3.34,5.1
		C242.6,37.8,240.25,40.3,234.82,40.3z M234.65,23.3h-2.81v3.83h2.87c1.31,0,1.77-0.49,1.77-1.97
		C236.48,23.74,235.98,23.3,234.65,23.3z M234.79,31.37h-2.96v4.29h3.07c1.42,0,1.94-0.46,1.94-2.18
		C236.85,31.97,236.39,31.37,234.79,31.37z"/>
	<path d="M255.67,36.5h-5.92l-0.84,3.8h-6l6.44-21.76h6.93l6.56,21.76h-6.32L255.67,36.5z M252.22,25.53l-1.39,6.24h3.8l-1.39-6.24
		l-0.44-2.32h-0.09L252.22,25.53z"/>
	<path d="M276.5,23.79c-0.96-0.35-2.26-0.58-3.63-0.58c-3.22,0-4.03,1.36-4.03,6.12c0,5.02,0.9,6.41,4.12,6.41
		c1.33,0,2.58-0.26,3.6-0.73l0.52,4.61c-1.31,0.64-3.28,1.04-4.96,1.04c-6.21,0-9.22-3.54-9.22-11.37c0-7.31,2.93-11.14,9.57-11.14
		c1.54,0,3.42,0.35,4.58,0.81L276.5,23.79z"/>
	<path d="M290.3,40.3l-4.09-8.85h-1.39v8.85h-5.66V18.54h5.66v8.41h1.51l4.03-8.41h6.35l-5.22,10.41l5.48,11.34H290.3z"/>
	<path d="M313.56,40.3h-8.47V18.54h8.53c4.67,0,7.05,2.18,7.05,5.63c0,2.29-1.04,3.77-2.67,4.55v0.06c2.17,0.73,3.34,2.41,3.34,5.1
		C321.33,37.8,318.98,40.3,313.56,40.3z M313.38,23.3h-2.81v3.83h2.87c1.31,0,1.77-0.49,1.77-1.97
		C315.21,23.74,314.72,23.3,313.38,23.3z M313.53,31.37h-2.96v4.29h3.07c1.42,0,1.94-0.46,1.94-2.18
		C315.59,31.97,315.12,31.37,313.53,31.37z"/>
	<path d="M323.82,18.54h5.83V40.3h-5.83V18.54z"/>
	<path d="M338.52,40.68c-2.29,0-4.55-0.52-6.32-1.51l0.73-4.81c1.77,0.9,3.57,1.45,5.45,1.45c1.8,0,2.5-0.61,2.5-1.77
		c0-2.78-8.64-1.91-8.64-9.02c0-3.8,2.32-6.82,7.69-6.82c2,0,4.15,0.38,5.71,1.04l-0.64,4.73c-1.65-0.49-3.31-0.78-4.7-0.78
		c-2.15,0-2.61,0.64-2.61,1.57c0,2.81,8.64,1.86,8.64,8.96C346.33,38.01,343.43,40.68,338.52,40.68z"/>
	<path d="M354.1,40.3v-3.68l6.93-11.02l1.28-1.91l-0.03-0.06h-8.01l0.15-5.08h14.53v4.06l-6.7,10.67l-1.28,1.89l0.03,0.09H369
		l-0.09,5.05H354.1z"/>
	<path d="M387.48,32.9c0,5.11-2.73,7.77-8.3,7.77s-8.38-2.67-8.38-7.77V18.54h5.69v14.24c0,1.94,0.75,2.81,2.7,2.81
		c1.97,0,2.64-0.81,2.64-2.81V18.54h5.66V32.9z"/>
	<path d="M254.33,64.4l-0.12,4.9h-14.01V47.54h13.63l0.12,4.99h-8.09v3.36h6.67v4.55h-6.67v3.94H254.33z"/>
	<path d="M269.3,60.39l4.24,8.91h-6.56l-2.9-7.77h-1.91v7.77h-5.66V47.54h7.51c5.51,0,8.24,2.09,8.24,6.99
		C272.26,57.44,271.21,59.58,269.3,60.39z M264.14,52.24h-1.97v5.02h1.94c1.65,0,2.23-0.41,2.23-2.52
		C266.34,52.76,265.79,52.24,264.14,52.24z"/>
	<path d="M285.89,69.3v-8.53h-5.28v8.53h-5.66V47.54h5.66v8.15h5.28v-8.15h5.69V69.3H285.89z"/>
	<path d="M305.72,65.5h-5.92l-0.84,3.8h-6l6.44-21.75h6.93l6.56,21.75h-6.32L305.72,65.5z M302.27,54.53l-1.39,6.24h3.8l-1.39-6.24
		l-0.44-2.32h-0.09L302.27,54.53z"/>
	<path d="M327.44,64.25l-0.15,5.05h-12.97V47.54h5.71v16.71H327.44z"/>
	<path d="M336.29,52.62V69.3h-5.77V52.62h-4.93l0.12-5.08h15.4l0.12,5.08H336.29z"/>
	<path d="M357.08,64.4l-0.12,4.9h-14.01V47.54h13.63l0.12,4.99h-8.09v3.36h6.67v4.55h-6.67v3.94H357.08z"/>
	<path d="M371.99,69.3l-6.5-10.04l-1.22-2l-0.06,0.03l0.03,2.35v9.66h-4.99V47.54h4.76L371,58.83l0.06-0.03L371,56.48l0.03-8.93
		h4.99V69.3H371.99z"/>
	<path d="M381.29,69.65c-2.03,0-2.93-0.78-2.93-2.76c0-1.77,0.9-2.79,2.93-2.79s2.9,1.02,2.9,2.79
		C384.19,68.54,383.32,69.65,381.29,69.65z"/>
</g>
</svg>
