<?xml version="1.0" encoding="utf-8"?>
<!-- Generator: Adobe Illustrator 26.0.3, SVG Export Plug-In . SVG Version: 6.00 Build 0)  -->
<svg version="1.1" id="Ebene_1" xmlns="http://www.w3.org/2000/svg" xmlns:xlink="http://www.w3.org/1999/xlink" x="0px" y="0px"
	 viewBox="0 0 728 90" style="enable-background:new 0 0 728 90;" xml:space="preserve">
<style type="text/css">
	.st0{fill:#FFFFFF;}
</style>
<g>
	<path class="st0" d="M164.04,41.85h-7.3V23.1h7.35c4.02,0,6.07,1.87,6.07,4.85c0,1.97-0.9,3.25-2.3,3.92v0.05
		c1.87,0.62,2.87,2.07,2.87,4.4C170.74,39.7,168.72,41.85,164.04,41.85z M163.89,27.2h-2.42v3.3h2.47c1.12,0,1.52-0.42,1.52-1.7
		C165.47,27.58,165.04,27.2,163.89,27.2z M164.02,34.15h-2.55v3.7h2.65c1.23,0,1.67-0.4,1.67-1.87
		C165.79,34.67,165.39,34.15,164.02,34.15z"/>
	<path class="st0" d="M184.86,37.62l-0.1,4.22h-12.07V23.1h11.75l0.1,4.3h-6.97v2.9h5.75v3.92h-5.75v3.4
		C177.57,37.62,184.86,37.62,184.86,37.62z"/>
	<path class="st0" d="M186.94,23.1h5.02v18.75h-5.02V23.1z"/>
	<path class="st0" d="M200.09,23.1l3.3,9.47l0.62,1.92h0.08l0.62-1.9l3.35-9.5h5.4v18.75h-4.47V34l0.05-2.02l-0.07-0.02l-0.62,1.95
		l-2.77,7.95h-3.17l-2.75-7.92l-0.62-1.95L198.97,32l0.03,2.02v7.82h-4.27V23.1H200.09z"/>
	<path class="st0" d="M231.24,41.85l-3.52-7.62h-1.2v7.62h-4.87V23.1h4.87v7.25h1.3l3.47-7.25h5.47l-4.5,8.97l4.72,9.77
		L231.24,41.85L231.24,41.85z"/>
	<path class="st0" d="M248.04,38.57h-5.1l-0.72,3.27h-5.17l5.55-18.75h5.97l5.65,18.75h-5.45L248.04,38.57z M245.06,29.13l-1.2,5.37
		h3.27l-1.2-5.37l-0.38-2h-0.08L245.06,29.13z"/>
	<path class="st0" d="M268.89,35.47c0,4.4-2.35,6.7-7.15,6.7s-7.22-2.3-7.22-6.7V23.1h4.9v12.27c0,1.67,0.65,2.42,2.33,2.42
		c1.7,0,2.27-0.7,2.27-2.42V23.1h4.87L268.89,35.47L268.89,35.47z"/>
	<path class="st0" d="M276.17,27.48v3.3h5.72l-0.03,4.15h-5.7v6.92h-4.9V23.1h11.72l0.08,4.37L276.17,27.48L276.17,27.48z"/>
	<path class="st0" d="M302.51,37.62l-0.1,4.22h-12.07V23.1h11.75l0.1,4.3h-6.97v2.9h5.75v3.92h-5.75v3.4
		C295.22,37.62,302.51,37.62,302.51,37.62z"/>
	<path class="st0" d="M304.59,23.1h5.02v18.75h-5.02V23.1z"/>
	<path class="st0" d="M323.34,41.85l-5.6-8.65l-1.05-1.72l-0.05,0.02l0.02,2.02v8.32h-4.3V23.1h4.1l6.02,9.72l0.05-0.02l-0.05-2
		l0.02-7.7h4.3v18.75H323.34z"/>
	<path class="st0" d="M341.54,37.62l-0.1,4.22h-12.07V23.1h11.75l0.1,4.3h-6.97v2.9H340v3.92h-5.75v3.4
		C334.25,37.62,341.54,37.62,341.54,37.62z"/>
	<path class="st0" d="M348.32,42.17c-1.97,0-3.92-0.45-5.45-1.3l0.62-4.15c1.52,0.77,3.07,1.25,4.7,1.25c1.55,0,2.15-0.52,2.15-1.52
		c0-2.4-7.45-1.65-7.45-7.77c0-3.27,2-5.87,6.62-5.87c1.72,0,3.57,0.33,4.92,0.9l-0.55,4.07c-1.42-0.42-2.85-0.67-4.05-0.67
		c-1.85,0-2.25,0.55-2.25,1.35c0,2.42,7.45,1.6,7.45,7.72C355.04,39.87,352.54,42.17,348.32,42.17z"/>
	<path class="st0" d="M372.09,38.57h-5.1l-0.72,3.27h-5.17l5.55-18.75h5.97l5.65,18.75h-5.45L372.09,38.57z M369.11,29.13l-1.2,5.37
		h3.27l-1.2-5.37l-0.38-2h-0.07L369.11,29.13z"/>
	<path class="st0" d="M389.11,41.85l-3.52-7.62h-1.2v7.62h-4.87V23.1h4.87v7.25h1.3l3.47-7.25h5.47l-4.5,8.97l4.72,9.77
		L389.11,41.85L389.11,41.85z"/>
	<path class="st0" d="M404.41,27.48v14.37h-4.97V27.48h-4.25l0.1-4.37h13.27l0.1,4.37H404.41z"/>
	<path class="st0" d="M410.37,23.1h5.02v18.75h-5.02V23.1z"/>
	<path class="st0" d="M425.49,42.17c-5.4,0-7.85-2.85-7.85-9.7c0-6.87,2.35-9.67,7.85-9.67s7.85,2.8,7.85,9.67
		C433.34,39.52,430.99,42.17,425.49,42.17z M425.46,27.18c-2.05,0-2.7,0.85-2.7,5.3c0,4.47,0.67,5.37,2.75,5.37s2.7-0.92,2.7-5.37
		C428.21,28,427.59,27.18,425.46,27.18z"/>
	<path class="st0" d="M446.36,41.85l-5.6-8.65l-1.05-1.72l-0.05,0.02l0.02,2.02v8.32h-4.3V23.1h4.1l6.02,9.72l0.05-0.02l-0.05-2
		l0.02-7.7h4.3v18.75H446.36z"/>
	<path class="st0" d="M457.29,42.17c-1.97,0-3.92-0.45-5.45-1.3l0.62-4.15c1.52,0.77,3.07,1.25,4.7,1.25c1.55,0,2.15-0.52,2.15-1.52
		c0-2.4-7.45-1.65-7.45-7.77c0-3.27,2-5.87,6.62-5.87c1.72,0,3.57,0.33,4.92,0.9l-0.55,4.07c-1.42-0.42-2.85-0.67-4.05-0.67
		c-1.85,0-2.25,0.55-2.25,1.35c0,2.42,7.45,1.6,7.45,7.72C464.01,39.87,461.51,42.17,457.29,42.17z"/>
	<path class="st0" d="M472.39,30.85v3.25h-6.97v-3.25C465.42,30.85,472.39,30.85,472.39,30.85z"/>
	<path class="st0" d="M169.99,66.17c-1.3,0.62-3.42,1.02-5.35,1.02c-6.2,0-8.4-3.32-8.4-9.72c0-6.55,2.58-9.7,8.62-9.7
		c1.65,0,3.52,0.3,4.87,0.82l-0.45,4.17c-1.22-0.45-2.8-0.72-4.15-0.72c-3.07,0-3.77,1.15-3.77,5.37c0,4.45,0.72,5.42,3.15,5.42
		c0.38,0,0.77-0.03,1.12-0.1v-6.12h4.35v9.56H169.99z"/>
	<path class="st0" d="M184.39,62.62l-0.1,4.22h-12.07V48.1h11.75l0.1,4.3h-6.97v2.9h5.75v3.92h-5.75v3.4
		C177.1,62.62,184.39,62.62,184.39,62.62z"/>
	<path class="st0" d="M197.29,59.17l3.65,7.67h-5.65l-2.5-6.7h-1.65v6.7h-4.87V48.1h6.47c4.75,0,7.1,1.8,7.1,6.02
		C199.84,56.63,198.94,58.48,197.29,59.17z M192.84,52.15h-1.7v4.32h1.67c1.42,0,1.92-0.35,1.92-2.17
		C194.74,52.6,194.27,52.15,192.84,52.15z"/>
	<path class="st0" d="M211.84,63.57h-5.1l-0.72,3.27h-5.17l5.55-18.75h5.97l5.65,18.75h-5.45L211.84,63.57z M206.97,47.2
		c-1.22,0-1.85-0.48-1.85-1.67c0-1.12,0.62-1.72,1.85-1.72c1.28,0,1.85,0.6,1.85,1.72C208.82,46.63,208.24,47.2,206.97,47.2z
		 M208.87,54.13l-1.2,5.37h3.27l-1.2-5.37l-0.38-2h-0.08L208.87,54.13z M211.74,47.2c-1.22,0-1.85-0.48-1.85-1.67
		c0-1.12,0.62-1.72,1.85-1.72c1.27,0,1.85,0.6,1.85,1.72C213.59,46.63,213.02,47.2,211.74,47.2z"/>
	<path class="st0" d="M225.77,52.48v14.37h-4.97V52.48h-4.25l0.1-4.37h13.27l0.1,4.37H225.77z"/>
	<path class="st0" d="M236.27,67.17c-1.97,0-3.92-0.45-5.45-1.3l0.62-4.15c1.52,0.77,3.07,1.25,4.7,1.25c1.55,0,2.15-0.53,2.15-1.52
		c0-2.4-7.45-1.65-7.45-7.77c0-3.27,2-5.87,6.62-5.87c1.72,0,3.57,0.33,4.92,0.9l-0.55,4.07c-1.42-0.42-2.85-0.67-4.05-0.67
		c-1.85,0-2.25,0.55-2.25,1.35c0,2.42,7.45,1.6,7.45,7.72C242.99,64.87,240.49,67.17,236.27,67.17z"/>
	<path class="st0" d="M262.54,62.62l-0.1,4.22h-12.07V48.1h11.75l0.1,4.3h-6.97v2.9H261v3.92h-5.75v3.4
		C255.25,62.62,262.54,62.62,262.54,62.62z"/>
	<path class="st0" d="M275.44,59.17l3.65,7.67h-5.65l-2.5-6.7h-1.65v6.7h-4.87V48.1h6.47c4.75,0,7.1,1.8,7.1,6.02
		C277.99,56.63,277.09,58.48,275.44,59.17z M270.99,52.15h-1.7v4.32h1.67c1.42,0,1.92-0.35,1.92-2.17
		C272.89,52.6,272.42,52.15,270.99,52.15z"/>
	<path class="st0" d="M289.74,66.85V59.5h-4.55v7.35h-4.87V48.1h4.87v7.02h4.55V48.1h4.9v18.75H289.74z"/>
	<path class="st0" d="M306.84,63.57h-5.1l-0.72,3.27h-5.17l5.55-18.75h5.97l5.65,18.75h-5.45L306.84,63.57z M303.86,54.13l-1.2,5.37
		h3.27l-1.2-5.37l-0.38-2h-0.07L303.86,54.13z"/>
	<path class="st0" d="M325.56,62.5l-0.12,4.35h-11.17V48.1h4.92v14.4H325.56z"/>
	<path class="st0" d="M333.19,52.48v14.37h-4.97V52.48h-4.25l0.1-4.37h13.27l0.1,4.37H333.19z"/>
	<path class="st0" d="M351.11,62.62l-0.1,4.22h-12.07V48.1h11.75l0.1,4.3h-6.97v2.9h5.75v3.92h-5.75v3.4
		C343.82,62.62,351.11,62.62,351.11,62.62z"/>
	<path class="st0" d="M363.96,66.85l-5.6-8.65l-1.05-1.72l-0.05,0.03l0.02,2.02v8.32h-4.3V48.1h4.1l6.02,9.72l0.05-0.02l-0.05-2
		l0.02-7.7h4.3v18.75H363.96z"/>
	<path class="st0" d="M371.99,67.15c-1.75,0-2.52-0.67-2.52-2.38c0-1.52,0.77-2.4,2.52-2.4s2.5,0.88,2.5,2.4
		C374.49,66.2,373.74,67.15,371.99,67.15z"/>
	<path class="st0" d="M381.06,47.38l0.32,2.42l2.3-0.55l0.72,2.05l-2.22,1.08l1.28,2.12l-1.58,1.2l-1.85-1.8l-1.9,1.83l-1.62-1.15
		l1.22-2.2l-2.22-1.05l0.77-2.07l2.33,0.55l0.35-2.42h2.1V47.38z"/>
</g>
<g>
	<path class="st0" d="M611.6,71.62l0.07,1.04l1-0.26l0.2,0.61l-0.98,0.38l0.6,0.89l-0.45,0.36l-0.72-0.82l-0.75,0.83l-0.47-0.35
		l0.6-0.91l-0.98-0.38l0.21-0.61l1,0.26l0.09-1.04H611.6z"/>
	<path class="st0" d="M617.07,77.86h-2.64l-0.44,1.63h-1.36l2.36-7.5h1.57l2.39,7.5h-1.44L617.07,77.86z M615.56,73.77l-0.82,2.95
		h2.03l-0.79-2.95l-0.19-0.79h-0.03L615.56,73.77z"/>
	<path class="st0" d="M620.95,75.74h0.76l1.33-2.28h1.33l-1.62,2.75l1.68,3.28h-1.34l-1.37-2.72h-0.77v2.72h-1.19v-7.86l1.19-0.07
		V75.74z"/>
	<path class="st0" d="M626.67,74.41v3.45c0,0.52,0.26,0.72,0.72,0.72c0.15,0,0.34-0.03,0.44-0.07l0.07,0.92
		c-0.17,0.09-0.52,0.15-0.86,0.15c-1.04,0-1.56-0.6-1.56-1.69v-3.48h-0.67v-0.95h0.72l0.21-1.4l0.93-0.1v1.5h1.29v0.95
		C627.96,74.41,626.67,74.41,626.67,74.41z"/>
	<path class="st0" d="M629.66,72.66c-0.48,0-0.72-0.15-0.72-0.57c0-0.38,0.24-0.59,0.72-0.59s0.7,0.2,0.7,0.59
		C630.36,72.47,630.14,72.66,629.66,72.66z M629.04,79.49V73.5l1.22-0.06v6.05C630.26,79.49,629.04,79.49,629.04,79.49z"/>
	<path class="st0" d="M633.95,79.62c-1.69,0-2.46-0.83-2.46-3.12s0.77-3.14,2.46-3.14c1.7,0,2.44,0.85,2.44,3.14
		C636.38,78.79,635.65,79.62,633.95,79.62z M633.95,78.6c0.88,0,1.2-0.45,1.2-2.1s-0.32-2.1-1.2-2.1c-0.89,0-1.23,0.44-1.23,2.1
		C632.72,78.15,633.07,78.6,633.95,78.6z"/>
	<path class="st0" d="M640.7,79.49v-4.02c0-0.72-0.36-1.01-1.02-1.01c-0.4,0-0.85,0.2-1.06,0.53v4.5h-1.19v-6l0.86-0.06l0.18,0.54
		c0.4-0.39,0.96-0.61,1.55-0.61c1.15,0,1.87,0.71,1.87,2.1v4.03H640.7z"/>
	<path class="st0" d="M644.61,79.61c-0.65,0-1.24-0.14-1.68-0.42l0.12-1.05c0.43,0.28,1.05,0.43,1.54,0.43
		c0.67,0,0.96-0.32,0.96-0.79c0-1.16-2.65-0.61-2.65-2.65c0-1.04,0.68-1.76,2.03-1.76c0.54,0,1.06,0.11,1.5,0.31l-0.09,1.03
		c-0.45-0.19-1-0.29-1.41-0.29c-0.57,0-0.89,0.25-0.89,0.65c0,1.1,2.61,0.54,2.61,2.61C646.65,78.87,646.04,79.61,644.61,79.61z"/>
	<path class="st0" d="M650.17,79.61c-0.65,0-1.18-0.26-1.49-0.66l-0.03,0.01l-0.17,0.53h-0.79v-7.86l1.19-0.07v1.55l-0.02,0.8
		l0.03,0.02c0.38-0.37,0.89-0.56,1.42-0.56c1.27,0,2.07,0.8,2.07,3.09C652.37,78.74,651.54,79.61,650.17,79.61z M649.97,74.45
		c-0.47,0-0.87,0.22-1.09,0.58v2.96c0.18,0.32,0.55,0.6,1.1,0.6c0.73,0,1.17-0.37,1.17-2.11C651.15,74.77,650.73,74.45,649.97,74.45
		z"/>
	<path class="st0" d="M653.14,76.36c0-1.96,0.76-2.99,2.36-2.99c1.37,0,2.23,0.82,2.23,2.77c0,0.2-0.02,0.43-0.04,0.61h-3.32
		c0.05,1.34,0.53,1.76,1.59,1.76c0.53,0,1-0.11,1.46-0.31l0.13,1.01c-0.45,0.24-1.05,0.39-1.74,0.39
		C653.94,79.6,653.14,78.58,653.14,76.36z M656.62,75.91c-0.01-1.12-0.44-1.5-1.11-1.5c-0.79,0-1.11,0.42-1.16,1.5H656.62z"/>
	<path class="st0" d="M662.24,79.49l-0.13-0.54l-0.03-0.01c-0.33,0.43-0.82,0.67-1.51,0.67c-1.43,0-2.1-0.95-2.1-3.16
		c0-2.07,0.68-3.09,2.08-3.09c0.54,0,1.05,0.19,1.42,0.57l0.02-0.01l-0.02-0.8v-1.49l1.19-0.07v7.93
		C663.16,79.49,662.24,79.49,662.24,79.49z M661.97,75.01c-0.19-0.32-0.59-0.53-1.07-0.53c-0.88,0-1.2,0.49-1.2,2.02
		c0,1.61,0.29,2.08,1.19,2.08c0.61,0,0.94-0.31,1.08-0.59V75.01z"/>
	<path class="st0" d="M665.3,72.66c-0.48,0-0.72-0.15-0.72-0.57c0-0.38,0.24-0.59,0.72-0.59s0.7,0.2,0.7,0.59
		C666,72.47,665.78,72.66,665.3,72.66z M664.68,79.49V73.5l1.22-0.06v6.05C665.9,79.49,664.68,79.49,664.68,79.49z"/>
	<path class="st0" d="M670.67,79.49v-4.02c0-0.72-0.36-1.01-1.02-1.01c-0.4,0-0.85,0.2-1.06,0.53v4.5h-1.19v-6l0.86-0.06l0.18,0.54
		c0.4-0.39,0.96-0.61,1.55-0.61c1.15,0,1.87,0.71,1.87,2.1v4.03H670.67z"/>
	<path class="st0" d="M674.35,76.91c-0.18,0.08-0.28,0.21-0.28,0.36c0,0.18,0.13,0.3,0.43,0.33l1.29,0.12
		c1.29,0.12,1.78,0.59,1.78,1.49c0,1.14-0.7,1.85-2.45,1.85c-1.54,0-2.2-0.64-2.2-1.56c0-0.39,0.17-0.77,0.5-1.05
		c-0.27-0.17-0.47-0.45-0.47-0.85c0-0.39,0.23-0.76,0.7-0.99c-0.39-0.27-0.64-0.72-0.64-1.42c0-1.11,0.58-1.82,2.05-1.82
		c0.48,0,0.97,0.08,1.35,0.33l0.95-0.36l0.27,0.6l-0.64,0.51c0.07,0.21,0.11,0.45,0.11,0.74c0,1.17-0.59,1.79-2.03,1.79
		C674.82,76.98,674.58,76.96,674.35,76.91z M674.3,78.66c-0.24,0.19-0.35,0.45-0.35,0.67c0,0.51,0.34,0.78,1.15,0.78
		c1.1,0,1.38-0.29,1.38-0.73c0-0.35-0.18-0.53-0.91-0.6L674.3,78.66z M674.19,75.21c0,0.72,0.35,0.9,0.86,0.9
		c0.69,0,0.9-0.26,0.9-0.9c0-0.68-0.26-0.9-0.88-0.9C674.42,74.31,674.19,74.59,674.19,75.21z"/>
	<path class="st0" d="M682.79,77.51c0,1.38-0.73,2.09-2.23,2.09c-1.51,0-2.23-0.74-2.23-2.09v-4.05h1.19v4.03c0,0.67,0.34,1,1.04,1
		c0.69,0,1.04-0.32,1.04-1v-4.03h1.19V77.51z"/>
	<path class="st0" d="M687.31,79.49v-4.02c0-0.72-0.36-1.01-1.02-1.01c-0.4,0-0.85,0.2-1.06,0.53v4.5h-1.19v-6l0.86-0.06l0.18,0.54
		c0.4-0.39,0.96-0.61,1.55-0.61c1.15,0,1.87,0.71,1.87,2.1v4.03H687.31z"/>
	<path class="st0" d="M690.99,76.91c-0.18,0.08-0.28,0.21-0.28,0.36c0,0.18,0.13,0.3,0.43,0.33l1.29,0.12
		c1.29,0.12,1.78,0.59,1.78,1.49c0,1.14-0.7,1.85-2.45,1.85c-1.54,0-2.2-0.64-2.2-1.56c0-0.39,0.17-0.77,0.5-1.05
		c-0.27-0.17-0.47-0.45-0.47-0.85c0-0.39,0.23-0.76,0.7-0.99c-0.39-0.27-0.64-0.72-0.64-1.42c0-1.11,0.58-1.82,2.05-1.82
		c0.48,0,0.97,0.08,1.35,0.33l0.95-0.36l0.27,0.6l-0.64,0.51c0.07,0.21,0.11,0.45,0.11,0.74c0,1.17-0.59,1.79-2.03,1.79
		C691.46,76.98,691.22,76.96,690.99,76.91z M690.94,78.66c-0.24,0.19-0.35,0.45-0.35,0.67c0,0.51,0.34,0.78,1.15,0.78
		c1.1,0,1.38-0.29,1.38-0.73c0-0.35-0.18-0.53-0.91-0.6L690.94,78.66z M690.83,75.21c0,0.72,0.35,0.9,0.86,0.9
		c0.69,0,0.9-0.26,0.9-0.9c0-0.68-0.26-0.9-0.88-0.9C691.06,74.31,690.83,74.59,690.83,75.21z"/>
	<path class="st0" d="M694.7,76.36c0-1.96,0.76-2.99,2.36-2.99c1.37,0,2.23,0.82,2.23,2.77c0,0.2-0.02,0.43-0.04,0.61h-3.32
		c0.05,1.34,0.53,1.76,1.59,1.76c0.53,0,1-0.11,1.46-0.31l0.13,1.01c-0.45,0.24-1.05,0.39-1.74,0.39
		C695.5,79.6,694.7,78.58,694.7,76.36z M698.17,75.91c-0.01-1.12-0.44-1.5-1.11-1.5c-0.79,0-1.11,0.42-1.16,1.5H698.17z"/>
	<path class="st0" d="M703.58,79.49v-4.02c0-0.72-0.36-1.01-1.02-1.01c-0.4,0-0.85,0.2-1.06,0.53v4.5h-1.19v-6l0.86-0.06l0.18,0.54
		c0.4-0.39,0.96-0.61,1.55-0.61c1.15,0,1.87,0.71,1.87,2.1v4.03H703.58z"/>
</g>
</svg>
