<?xml version="1.0" encoding="utf-8"?>
<!-- Generator: Adobe Illustrator 27.2.0, SVG Export Plug-In . SVG Version: 6.00 Build 0)  -->
<svg version="1.1" id="Ebene_1" xmlns="http://www.w3.org/2000/svg" xmlns:xlink="http://www.w3.org/1999/xlink" x="0px" y="0px"
	 viewBox="0 0 209.93 90.63" style="enable-background:new 0 0 209.93 90.63;" xml:space="preserve">
<style type="text/css">
	.st0{fill:#FFFFFF;}
	.st1{fill:#238C96;}
</style>
<g>
	<path d="M6.5,18.29H0v-18h6.41c5.47,0,7.7,2.54,7.7,8.91C14.11,15.79,11.57,18.29,6.5,18.29z M6.43,4.44H4.68v9.75h1.75
		c2.06,0,2.76-0.62,2.76-5.04C9.19,5.16,8.54,4.44,6.43,4.44z"/>
	<path d="M16.27,0.29h4.82v18h-4.82V0.29z"/>
	<path d="M35.42,14.23l-0.1,4.06H23.74v-18h11.28l0.1,4.13h-6.7V7.2h5.52v3.77h-5.52v3.26H35.42z"/>
	<path d="M48.79,12.7H47.3v5.59h-4.68v-18h6.17c4.99,0,6.98,1.94,6.98,6.34C55.78,10.51,53.83,12.7,48.79,12.7z M48.79,4.2H47.3
		v4.78h1.49c1.54,0,2.11-0.36,2.11-2.38C50.9,4.66,50.45,4.2,48.79,4.2z"/>
	<path d="M65.4,15.15h-4.9l-0.7,3.14h-4.97l5.33-18h5.74l5.42,18H66.1L65.4,15.15z M62.54,6.07l-1.15,5.16h3.14l-1.15-5.16
		l-0.36-1.92h-0.07L62.54,6.07z"/>
	<path d="M77.28,18.6c-1.9,0-3.77-0.43-5.23-1.25l0.6-3.98c1.46,0.74,2.95,1.2,4.51,1.2c1.49,0,2.06-0.5,2.06-1.46
		c0-2.3-7.15-1.58-7.15-7.46C72.07,2.5,73.99,0,78.43,0c1.66,0,3.43,0.31,4.73,0.86l-0.53,3.91c-1.37-0.41-2.74-0.65-3.89-0.65
		c-1.78,0-2.16,0.53-2.16,1.3c0,2.33,7.15,1.54,7.15,7.42C83.74,16.39,81.34,18.6,77.28,18.6z"/>
	<path d="M89.81,18.6c-1.9,0-3.77-0.43-5.23-1.25l0.6-3.98c1.46,0.74,2.95,1.2,4.51,1.2c1.49,0,2.06-0.5,2.06-1.46
		c0-2.3-7.15-1.58-7.15-7.46C84.6,2.5,86.52,0,90.96,0c1.66,0,3.43,0.31,4.73,0.86l-0.53,3.91c-1.37-0.41-2.74-0.65-3.89-0.65
		c-1.78,0-2.16,0.53-2.16,1.3c0,2.33,7.15,1.54,7.15,7.42C96.26,16.39,93.86,18.6,89.81,18.6z"/>
	<path d="M109.63,14.23l-0.1,4.06H97.94v-18h11.28l0.1,4.13h-6.7V7.2h5.52v3.77h-5.52v3.26H109.63z"/>
	<path d="M121.97,18.29l-5.38-8.3l-1.01-1.66l-0.05,0.02l0.02,1.94v7.99h-4.13v-18h3.94l5.78,9.34l0.05-0.02l-0.05-1.92l0.02-7.39
		h4.13v18H121.97z"/>
	<path d="M134.25,18.29h-6.5v-18h6.41c5.47,0,7.7,2.54,7.7,8.91C141.86,15.79,139.32,18.29,134.25,18.29z M134.18,4.44h-1.75v9.75
		h1.75c2.06,0,2.76-0.62,2.76-5.04C136.94,5.16,136.3,4.44,134.18,4.44z"/>
	<path d="M155.52,14.23l-0.1,4.06h-11.59v-18h11.28l0.1,4.13h-6.7V7.2h5.52v3.77h-5.52v3.26H155.52z"/>
	<path d="M11.69,38.23l-0.1,4.06H0v-18h11.28l0.1,4.13h-6.7v2.78h5.52v3.77H4.68v3.26H11.69z"/>
	<path d="M24.07,34.92l3.5,7.37h-5.42l-2.4-6.43h-1.58v6.43h-4.68v-18h6.22c4.56,0,6.82,1.73,6.82,5.78
		C26.52,32.47,25.66,34.25,24.07,34.92z M19.8,28.18h-1.63v4.15h1.61c1.37,0,1.85-0.34,1.85-2.09
		C21.62,28.61,21.17,28.18,19.8,28.18z"/>
	<path d="M41.11,41.64c-1.25,0.6-3.29,0.98-5.14,0.98c-5.95,0-8.06-3.19-8.06-9.34c0-6.29,2.47-9.31,8.28-9.31
		c1.58,0,3.38,0.29,4.68,0.79l-0.43,4.01c-1.18-0.43-2.69-0.7-3.98-0.7c-2.95,0-3.62,1.1-3.62,5.16c0,4.27,0.7,5.21,3.02,5.21
		c0.36,0,0.74-0.02,1.08-0.1v-5.88h4.18V41.64z"/>
	<path d="M52.54,39.15h-4.9l-0.7,3.14h-4.97l5.33-18h5.74l5.42,18h-5.23L52.54,39.15z M47.86,23.42c-1.18,0-1.78-0.46-1.78-1.61
		c0-1.08,0.6-1.66,1.78-1.66c1.22,0,1.78,0.58,1.78,1.66C49.63,22.87,49.08,23.42,47.86,23.42z M49.68,30.07l-1.15,5.16h3.14
		l-1.15-5.16l-0.36-1.92h-0.07L49.68,30.07z M52.44,23.42c-1.18,0-1.78-0.46-1.78-1.61c0-1.08,0.6-1.66,1.78-1.66
		c1.22,0,1.78,0.58,1.78,1.66C54.22,22.87,53.66,23.42,52.44,23.42z"/>
	<path d="M70.2,42.29l-5.38-8.3l-1.01-1.66l-0.05,0.02l0.02,1.94v7.99h-4.13v-18h3.94l5.78,9.34l0.05-0.02l-0.05-1.92l0.02-7.39
		h4.13v18H70.2z"/>
	<path d="M75.33,42.29v-3.05l5.74-9.12l1.06-1.58l-0.02-0.05h-6.62l0.12-4.2h12.03v3.36l-5.54,8.83l-1.06,1.56l0.02,0.07h6.62
		l-0.07,4.18H75.33z"/>
	<path d="M102.96,36.17c0,4.22-2.26,6.43-6.86,6.43s-6.94-2.21-6.94-6.43V24.29h4.7v11.79c0,1.61,0.62,2.33,2.23,2.33
		c1.63,0,2.18-0.67,2.18-2.33V24.29h4.68V36.17z"/>
	<path d="M115.78,42.29l-5.38-8.3l-1.01-1.66l-0.05,0.02l0.02,1.94v7.99h-4.13v-18h3.94l5.78,9.34l0.05-0.02l-0.05-1.92l0.02-7.39
		h4.13v18H115.78z"/>
	<path d="M134.28,41.64c-1.25,0.6-3.29,0.98-5.14,0.98c-5.95,0-8.06-3.19-8.06-9.34c0-6.29,2.47-9.31,8.28-9.31
		c1.58,0,3.38,0.29,4.68,0.79l-0.43,4.01c-1.18-0.43-2.69-0.7-3.98-0.7c-2.95,0-3.62,1.1-3.62,5.16c0,4.27,0.7,5.21,3.02,5.21
		c0.36,0,0.74-0.02,1.08-0.1v-5.88h4.18V41.64z"/>
	<path d="M4.7,52.49v3.17h5.5l-0.02,3.98H4.7v6.65H0v-18h11.26l0.07,4.2H4.7z"/>
	<path d="M26.54,60.17c0,4.22-2.26,6.43-6.86,6.43s-6.94-2.21-6.94-6.43V48.29h4.7v11.79c0,1.61,0.62,2.33,2.23,2.33
		c1.63,0,2.18-0.67,2.18-2.33V48.29h4.68V60.17z M17.4,47.42c-1.18,0-1.78-0.46-1.78-1.61c0-1.08,0.6-1.66,1.78-1.66
		c1.22,0,1.78,0.58,1.78,1.66C19.18,46.87,18.62,47.42,17.4,47.42z M21.98,47.42c-1.18,0-1.78-0.46-1.78-1.61
		c0-1.08,0.6-1.66,1.78-1.66c1.22,0,1.78,0.58,1.78,1.66C23.76,46.87,23.21,47.42,21.98,47.42z"/>
	<path d="M39.41,58.92l3.5,7.37h-5.42l-2.4-6.43H33.5v6.43h-4.68v-18h6.22c4.56,0,6.82,1.73,6.82,5.78
		C41.86,56.47,40.99,58.25,39.41,58.92z M35.14,52.18H33.5v4.15h1.61c1.37,0,1.85-0.34,1.85-2.09
		C36.96,52.61,36.5,52.18,35.14,52.18z"/>
	<path d="M49.68,48.29h4.82v18h-4.82V48.29z"/>
	<path d="M66.19,66.29v-7.06h-4.37v7.06h-4.68v-18h4.68v6.75h4.37v-6.75h4.7v18H66.19z"/>
	<path d="M83.9,58.92l3.5,7.37h-5.42l-2.4-6.43H78v6.43h-4.68v-18h6.22c4.56,0,6.82,1.73,6.82,5.78
		C86.35,56.47,85.49,58.25,83.9,58.92z M79.63,52.18H78v4.15h1.61c1.37,0,1.85-0.34,1.85-2.09C81.46,52.61,81,52.18,79.63,52.18z"/>
	<path d="M100.27,62.23l-0.1,4.06H88.58v-18h11.28l0.1,4.13h-6.7v2.78h5.52v3.77h-5.52v3.26H100.27z"/>
	<path d="M112.61,66.29l-5.38-8.3l-1.01-1.66l-0.05,0.02l0.02,1.94v7.99h-4.13v-18h3.94l5.78,9.34l0.05-0.02l-0.05-1.92l0.02-7.39
		h4.13v18H112.61z"/>
	<path d="M0.19,72.29h4.82v18H0.19V72.29z"/>
	<path d="M18.19,90.29l-5.38-8.3l-1.01-1.66l-0.05,0.02l0.02,1.94v7.99H7.66v-18h3.94l5.78,9.34l0.05-0.02l-0.05-1.92l0.02-7.39
		h4.13v18H18.19z"/>
	<path d="M30.48,90.29h-6.5v-18h6.41c5.47,0,7.7,2.54,7.7,8.91C38.09,87.79,35.54,90.29,30.48,90.29z M30.41,76.44h-1.75v9.75h1.75
		c2.06,0,2.76-0.62,2.76-5.04C33.17,77.16,32.52,76.44,30.41,76.44z"/>
	<path d="M53.69,84.17c0,4.22-2.26,6.43-6.86,6.43s-6.94-2.21-6.94-6.43V72.29h4.7v11.79c0,1.61,0.62,2.33,2.23,2.33
		c1.63,0,2.18-0.67,2.18-2.33V72.29h4.68V84.17z"/>
	<path d="M60.5,90.6c-1.9,0-3.77-0.43-5.23-1.25l0.6-3.98c1.46,0.74,2.95,1.2,4.51,1.2c1.49,0,2.06-0.5,2.06-1.46
		c0-2.3-7.15-1.58-7.15-7.46c0-3.14,1.92-5.64,6.36-5.64c1.66,0,3.43,0.31,4.73,0.86l-0.53,3.91c-1.37-0.41-2.74-0.65-3.89-0.65
		c-1.78,0-2.16,0.53-2.16,1.3c0,2.33,7.15,1.54,7.15,7.42C66.96,88.39,64.56,90.6,60.5,90.6z"/>
	<path d="M76.1,76.49v13.8h-4.78v-13.8h-4.08l0.1-4.2h12.75l0.1,4.2H76.1z"/>
	<path d="M92.21,82.92l3.5,7.37h-5.42l-2.4-6.43H86.3v6.43h-4.68v-18h6.22c4.56,0,6.82,1.73,6.82,5.78
		C94.66,80.47,93.79,82.25,92.21,82.92z M87.94,76.18H86.3v4.15h1.61c1.37,0,1.85-0.34,1.85-2.09
		C89.76,76.61,89.3,76.18,87.94,76.18z"/>
	<path d="M97.08,72.29h4.82v18h-4.82V72.29z"/>
	<path d="M116.23,86.23l-0.1,4.06h-11.59v-18h11.28l0.1,4.13h-6.7v2.78h5.52v3.77h-5.52v3.26H116.23z"/>
	<path d="M122.74,90.6c-1.9,0-3.77-0.43-5.23-1.25l0.6-3.98c1.46,0.74,2.95,1.2,4.51,1.2c1.49,0,2.06-0.5,2.06-1.46
		c0-2.3-7.15-1.58-7.15-7.46c0-3.14,1.92-5.64,6.36-5.64c1.66,0,3.43,0.31,4.73,0.86l-0.53,3.91c-1.37-0.41-2.74-0.65-3.89-0.65
		c-1.78,0-2.16,0.53-2.16,1.3c0,2.33,7.15,1.54,7.15,7.42C129.19,88.39,126.79,90.6,122.74,90.6z"/>
	<path d="M139.7,87.15h-4.9l-0.7,3.14h-4.97l5.33-18h5.74l5.42,18h-5.23L139.7,87.15z M136.85,78.07l-1.15,5.16h3.14l-1.15-5.16
		l-0.36-1.92h-0.07L136.85,78.07z"/>
	<path d="M159.72,84.17c0,4.22-2.26,6.43-6.86,6.43s-6.94-2.21-6.94-6.43V72.29h4.7v11.79c0,1.61,0.62,2.33,2.23,2.33
		c1.63,0,2.18-0.67,2.18-2.33V72.29h4.68V84.17z"/>
	<path d="M174.72,89.64c-1.25,0.6-3.29,0.98-5.14,0.98c-5.95,0-8.06-3.19-8.06-9.34c0-6.29,2.47-9.31,8.28-9.31
		c1.58,0,3.38,0.29,4.68,0.79l-0.43,4.01c-1.18-0.43-2.69-0.7-3.98-0.7c-2.95,0-3.62,1.1-3.62,5.16c0,4.27,0.7,5.21,3.02,5.21
		c0.36,0,0.74-0.02,1.08-0.1v-5.88h4.18V89.64z"/>
	<path d="M188.54,86.23l-0.1,4.06h-11.59v-18h11.28l0.1,4.13h-6.7v2.78h5.52v3.77h-5.52v3.26H188.54z"/>
	<path d="M200.93,82.92l3.5,7.37h-5.42l-2.4-6.43h-1.58v6.43h-4.68v-18h6.22c4.56,0,6.82,1.73,6.82,5.78
		C203.38,80.47,202.51,82.25,200.93,82.92z M196.65,76.18h-1.63v4.15h1.61c1.37,0,1.85-0.34,1.85-2.09
		C198.48,76.61,198.02,76.18,196.65,76.18z"/>
	<path d="M207.53,90.58c-1.68,0-2.42-0.65-2.42-2.28c0-1.46,0.74-2.3,2.42-2.3c1.68,0,2.4,0.84,2.4,2.3
		C209.93,89.67,209.21,90.58,207.53,90.58z"/>
</g>
</svg>
