<?xml version="1.0" encoding="utf-8"?>
<!-- Generator: Adobe Illustrator 16.0.4, SVG Export Plug-In . SVG Version: 6.00 Build 0)  -->
<!DOCTYPE svg PUBLIC "-//W3C//DTD SVG 1.1//EN" "http://www.w3.org/Graphics/SVG/1.1/DTD/svg11.dtd">
<svg version="1.1" id="Ebene_1" xmlns="http://www.w3.org/2000/svg" xmlns:xlink="http://www.w3.org/1999/xlink" x="0px" y="0px"
	 width="136.029px" height="28.958px" viewBox="0 0 136.029 28.958" enable-background="new 0 0 136.029 28.958"
	 xml:space="preserve">
<g>
	<path fill="#FFFFFF" d="M0,24.382v-4.063L7.648,8.16l1.407-2.112L9.023,5.984H0.192l0.16-5.6h16.03v4.479L8.992,16.639l-1.408,2.08
		l0.031,0.096h8.832l-0.096,5.567H0z"/>
	<path fill="#FFFFFF" d="M36.831,16.223c0,5.631-3.008,8.575-9.151,8.575s-9.248-2.944-9.248-8.575V0.384h6.272v15.71
		c0,2.144,0.831,3.104,2.976,3.104c2.176,0,2.912-0.896,2.912-3.104V0.384h6.239V16.223z"/>
	<path fill="#FFFFFF" d="M59.135,24.382v-9.407h-5.823v9.407h-6.239V0.384h6.239v8.991h5.823V0.384h6.271v23.998H59.135z"/>
	<path fill="#FFFFFF" d="M84.223,18.975l-0.128,5.408H68.64V0.384h15.039l0.128,5.503h-8.928V9.6h7.359v5.023h-7.359v4.352H84.223z"
		/>
	<path fill="#FFFFFF" d="M86.879,0.384h6.433v23.998h-6.433V0.384z"/>
	<path fill="#FFFFFF" d="M103.103,24.798c-2.527,0-5.023-0.576-6.976-1.664l0.8-5.312c1.952,0.992,3.937,1.6,6.016,1.6
		c1.984,0,2.752-0.672,2.752-1.952c0-3.072-9.535-2.112-9.535-9.951c0-4.192,2.56-7.52,8.479-7.52c2.208,0,4.575,0.416,6.304,1.152
		l-0.704,5.216c-1.824-0.544-3.647-0.864-5.184-0.864c-2.368,0-2.88,0.704-2.88,1.728c0,3.104,9.535,2.048,9.535,9.887
		C111.71,21.854,108.51,24.798,103.103,24.798z"/>
	<path fill="#FFFFFF" d="M119.806,24.798c-2.527,0-5.023-0.576-6.976-1.664l0.8-5.312c1.952,0.992,3.937,1.6,6.016,1.6
		c1.984,0,2.752-0.672,2.752-1.952c0-3.072-9.535-2.112-9.535-9.951c0-4.192,2.56-7.52,8.479-7.52c2.208,0,4.575,0.416,6.304,1.152
		l-0.704,5.216c-1.824-0.544-3.647-0.864-5.184-0.864c-2.368,0-2.88,0.704-2.88,1.728c0,3.104,9.535,2.048,9.535,9.887
		C128.413,21.854,125.213,24.798,119.806,24.798z"/>
	<path fill="#FFFFFF" d="M136.029,22.046c0,1.888-1.632,5.088-3.136,6.912l-2.048-0.512l0.768-3.744
		c-0.896-0.48-1.888-1.536-1.888-2.848c0-1.728,0.864-3.104,3.104-3.104C135.005,18.751,136.029,20.062,136.029,22.046z"/>
</g>
</svg>
