<?xml version="1.0" encoding="utf-8"?>
<!-- Generator: Adobe Illustrator 16.0.0, SVG Export Plug-In . SVG Version: 6.00 Build 0)  -->
<!DOCTYPE svg PUBLIC "-//W3C//DTD SVG 1.1//EN" "http://www.w3.org/Graphics/SVG/1.1/DTD/svg11.dtd">
<svg version="1.1" id="Ebene_1" xmlns="http://www.w3.org/2000/svg" xmlns:xlink="http://www.w3.org/1999/xlink" x="0px" y="0px"
	 width="350px" height="18.9px" viewBox="0 0 350 18.9" enable-background="new 0 0 350 18.9" xml:space="preserve">
<g>
	<g>
		<path fill="#1A1A18" d="M11.8,5.5c0-3.2-2-5.4-6-5.4C3.4,0.1,1.5,0.9,0,2l1.1,3.8c1.2-0.9,2.4-1.5,3.8-1.5C6.4,4.2,7,4.9,7,6
			c0,2.4-3,5.4-6.8,9.7v3h11.4l0.1-4.1H6l0-0.1C9.4,11.1,11.8,8.5,11.8,5.5z M16.3,18.6h4.9V0.3h-4.9V18.6z M33.2,7.8l0,1.9l0,0
			l-5.8-9.5h-4v18.3h4.2v-8.1l0-2l0,0l1,1.7l5.4,8.4h3.4V0.3h-4.2L33.2,7.8z M48.4,0.3h-2.7l-5.3,3.3l0.5,3.7l2.8-1.5v9.5h-2.2v3.3
			h9.1v-3.3h-2.2V0.3z M55.5,4.7c-1.7,0-2.4,0.9-2.4,2.3c0,1.7,0.8,2.3,2.4,2.3s2.4-0.9,2.4-2.3C57.9,5.6,57.2,4.7,55.5,4.7z
			 M55.5,14.2c-1.7,0-2.4,0.9-2.4,2.3c0,1.7,0.8,2.3,2.4,2.3s2.4-0.9,2.4-2.3C57.9,15.1,57.2,14.2,55.5,14.2z M80,0.3h-5.3l-3.4,7.1
			h-1.3V0.3h-4.7v18.3h4.7v-7.4h1.2l3.4,7.4h5.6l-4.6-9.5L80,0.3z M86.3,11.2h5.6V7.3h-5.6V4.5H93l-0.1-4.2H81.6v18.3h11.7l0.1-4.1
			h-7.1V11.2z M104.3,7.2h-4.4V0.3h-4.7v18.3h4.7v-7.2h4.4v7.2h4.7V0.3h-4.7V7.2z M124.6,6.2c0-4.1-2.3-5.9-6.9-5.9h-6.3v18.3h4.7
			v-6.5h1.6l2.4,6.5h5.5l-3.5-7.5C123.8,10.4,124.6,8.6,124.6,6.2z M117.8,8.5h-1.6V4.3h1.6c1.4,0,1.8,0.4,1.8,2.1
			C119.7,8.1,119.2,8.5,117.8,8.5z M131.6,11.2h5.6V7.3h-5.6V4.5h6.8l-0.1-4.2h-11.4v18.3h11.7l0.1-4.1h-7.1V11.2z M150.3,7.8l0,1.9
			l0,0l-5.8-9.5h-4v18.3h4.2v-8.1l0-2l0,0l1,1.7l5.4,8.4h3.4V0.3h-4.2L150.3,7.8z M171.4,12.3c0,1.7-0.6,2.4-2.2,2.4
			c-1.6,0-2.2-0.7-2.2-2.4v-12h-4.7v12.1c0,4.3,2.3,6.5,7,6.5c4.6,0,6.9-2.2,6.9-6.5V0.3h-4.7V12.3z M188.2,7.8l0,1.9l0,0l-5.8-9.5
			h-4v18.3h4.2v-8.1l0-2l0,0l1,1.7l5.4,8.4h3.4V0.3h-4.2L188.2,7.8z M201.4,0.3h-6.5v18.3h6.6c5.1,0,7.7-2.5,7.7-9.2
			C209.1,2.9,206.9,0.3,201.4,0.3z M201.4,14.4h-1.8V4.5h1.8c2.1,0,2.8,0.7,2.8,4.8C204.2,13.8,203.5,14.4,201.4,14.4z M220.6,5.5
			c0-0.8,0.4-1.3,2.2-1.3c1.2,0,2.5,0.2,3.9,0.7l0.5-4c-1.3-0.6-3.1-0.9-4.8-0.9C218,0,216,2.6,216,5.8c0,6,7.2,5.2,7.2,7.6
			c0,1-0.6,1.5-2.1,1.5c-1.6,0-3.1-0.5-4.6-1.2l-0.6,4c1.5,0.8,3.4,1.3,5.3,1.3c4.1,0,6.5-2.2,6.5-5.8
			C227.8,7.1,220.6,7.9,220.6,5.5z M237.4,14.8c-2.7,0-3.4-1.2-3.4-5.4c0-4,0.7-5.1,3.4-5.1c1.1,0,2.2,0.2,3,0.5l0.5-4
			c-1-0.4-2.5-0.7-3.8-0.7c-5.5,0-8,3.2-8,9.4c0,6.6,2.5,9.6,7.7,9.6c1.4,0,3.1-0.3,4.1-0.9l-0.4-3.9
			C239.6,14.5,238.5,14.8,237.4,14.8z M251.7,7.2h-4.4V0.3h-4.7v18.3h4.7v-7.2h4.4v7.2h4.7V0.3h-4.7V7.2z M263.6,11.2h5.6V7.3h-5.6
			V4.5h6.8l-0.1-4.2h-11.4v18.3h11.7l0.1-4.1h-7.1V11.2z M281.5,12.3c0,1.7-0.6,2.4-2.2,2.4c-1.6,0-2.2-0.7-2.2-2.4v-12h-4.7v12.1
			c0,4.3,2.3,6.5,7,6.5c4.6,0,6.9-2.2,6.9-6.5V0.3h-4.7V12.3z M293.3,11.2h5.6V7.3h-5.6V4.5h6.8l-0.1-4.2h-11.4v18.3h11.7l0.1-4.1
			h-7.1V11.2z M315.3,6.2c0-4.1-2.3-5.9-6.9-5.9h-6.3v18.3h4.7v-6.5h1.6l2.4,6.5h5.5l-3.5-7.5C314.4,10.4,315.3,8.6,315.3,6.2z
			 M308.5,8.5h-1.6V4.3h1.6c1.4,0,1.8,0.4,1.8,2.1C310.4,8.1,309.9,8.5,308.5,8.5z M327.4,7.8l0,1.9l0,0l-5.8-9.5h-4v18.3h4.2v-8.1
			l0-2l0,0l1,1.7l5.4,8.4h3.4V0.3h-4.2L327.4,7.8z M341.8,14.2c-1.7,0-2.4,0.9-2.4,2.3c0,1.7,0.8,2.3,2.4,2.3s2.4-0.9,2.4-2.3
			C344.2,15.1,343.5,14.2,341.8,14.2z M347.5,14.2c-1.7,0-2.4,0.9-2.4,2.3c0,1.7,0.8,2.3,2.4,2.3c1.7,0,2.4-0.9,2.4-2.3
			C350,15.1,349.2,14.2,347.5,14.2z M336,14.2c-1.7,0-2.4,0.9-2.4,2.3c0,1.7,0.8,2.3,2.4,2.3s2.4-0.9,2.4-2.3
			C338.4,15.1,337.6,14.2,336,14.2z"/>
	</g>
</g>
</svg>
