<svg enable-background="new 0 0 177.2 157.2" viewBox="0 0 177.2 157.2" xmlns="http://www.w3.org/2000/svg"><path clip-rule="evenodd" d="m154.8 63.2v-4.4h9.4v4.4zm-1.9 2.7c0 5-3.4 8.1-9.1 8.1-2.7 0-5.3-.6-7.3-1.8l.8-5.6c2.1 1 4.1 1.7 6.3 1.7 2.1 0 2.9-.7 2.9-2.1 0-3.2-10-2.2-10-10.5 0-4.4 2.7-7.9 8.9-7.9 2.3 0 4.8.4 6.6 1.2l-.7 5.5c-1.9-.6-3.8-.9-5.5-.9-2.5 0-3 .7-3 1.8.1 3.4 10.1 2.3 10.1 10.5zm-31.3-4-1.4-2.3h-.1v2.7 11.2h-5.8v-25.2h5.5l8.1 13.1h.1l-.1-2.7v-10.4h5.8v25.3h-4.7zm-20.6 12.1c-7.3 0-10.6-3.8-10.6-13.1s3.2-13 10.6-13 10.6 3.8 10.6 13c0 9.6-3.2 13.1-10.6 13.1zm0-20.2c-2.8 0-3.6 1.1-3.6 7.1s.9 7.2 3.7 7.2 3.6-1.2 3.6-7.2-.8-7.1-3.7-7.1zm-.3-13.9h-6.7v-19.3h-5.7l.1-5.9h17.9l.1 5.9h-5.7zm-8.1 38.6c0 1.5-.8 2.3-2.5 2.3-1.6 0-2.5-.6-2.5-2.3 0-1.5.8-2.3 2.5-2.3 1.8 0 2.5.8 2.5 2.3zm-11.9-30.2h6.8v25.3h-6.8zm6.3-14.2-.1 5.9h-17.2v-4.3l8-12.8 1.5-2.2v-.1h-9.3l.2-5.9h16.9v4.7l-7.8 12.4-1.5 2.2v.1zm-24.1 5.8h-6.7v-19.3h-5.7l.1-5.9h17.9l.1 5.9h-5.7zm-13.6-5.7-.1 5.7h-16.3v-25.2h15.8l.1 5.8h-9.4v3.9h7.7v5.3h-7.7v4.6h9.9zm-19.2 39.4-1-4.4h-6.9l-1 4.4h-7l7.5-25.3h8l7.6 25.3zm-3.8-17.1-.5-2.7h-.1l-.6 2.7-1.6 7.2h4.4zm-6.5-16.1c-1.9 0-3.4-.3-4.6-.9l.3-5.5c.7.4 1.8.6 3.1.6 2.8 0 4.1-1.1 4.1-4.1v-15.8h6.7v16c.1 7.4-3.7 9.7-9.6 9.7zm2.7 95.3c2.1 0 2.9-.7 2.9-2.1 0-3.2-10-2.2-10-10.5 0-4.4 2.7-7.9 8.9-7.9 2.3 0 4.8.4 6.6 1.2l-.7 5.5c-1.9-.6-3.8-.9-5.5-.9-2.5 0-3 .7-3 1.8 0 3.3 10 2.2 10 10.4 0 5-3.4 8.1-9.1 8.1-2.7 0-5.3-.6-7.3-1.7l.8-5.6c2.1 1.1 4.2 1.7 6.4 1.7zm11.4-42.2v12.9c-1.8.8-4.6 1.4-7.2 1.4-8.3 0-11.3-4.5-11.3-13.1 0-8.8 3.5-13.1 11.6-13.1 2.2 0 4.7.4 6.6 1.1l-.6 5.6c-1.7-.6-3.8-1-5.6-1-4.1 0-5.1 1.5-5.1 7.2 0 6 1 7.3 4.2 7.3.5 0 1 0 1.5-.1v-8.2zm7.2 47.4h-6.8v-25.3h6.8zm14.2-25.6c1.8 0 4 .4 5.3.9l-.6 5.6c-1.1-.4-2.6-.7-4.2-.7-3.7 0-4.7 1.6-4.7 7.1 0 5.8 1 7.4 4.8 7.4 1.5 0 3-.3 4.2-.8l.6 5.4c-1.5.7-3.8 1.2-5.8 1.2-7.2 0-10.7-4.1-10.7-13.2 0-8.5 3.4-12.9 11.1-12.9zm-2-13.7-.1 5.7h-16.3v-25.3h15.8l.1 5.8h-9.4v3.9h7.7v5.3h-7.7v4.6zm-1.3-28-4.7-10.3h-1.6v10.3h-6.6v-25.3h6.6v9.8h1.8l4.7-9.8h7.4l-6.1 12.1 6.4 13.2zm13.9 0v-19.4h-5.7l.1-5.9h17.9l.1 5.9h-5.7v19.4zm15.3 4.9c0-1.5.8-2.3 2.5-2.3s2.5.8 2.5 2.3-.8 2.3-2.5 2.3c-1.6 0-2.5-.6-2.5-2.3zm-25.4 28.8v-25.3h8.7c6.4 0 9.6 2.4 9.6 8.1 0 3.4-1.2 5.9-3.4 6.8l4.8 10.2 7.4-25.1h8l7.6 25.3h-7.3l-1-4.4h-6.9l-1 4.4h-6.8-.1-7.4l-3.4-9h-2.2v9zm33.3-9.9-1.6-7.2-.5-2.8h-.1l-.6 2.7-1.6 7.2h4.4zm-24.4-4.1c1.9 0 2.6-.5 2.6-2.9 0-2.3-.6-2.9-2.6-2.9h-2.3v5.8zm4.9 31.8h6.1v-9.5h6.6v25.3h-6.6v-9.9h-6.1v9.9h-6.6v-25.3h6.6zm32.1-3.6h-9.4v3.9h7.7v5.3h-7.7v4.6h9.8l-.1 5.7h-16.3v-25.3h15.8zm-4.9-39.5h17.9l.1 5.9h-5.8v19.4h-6.7v-19.4h-5.7zm26.2 41.8c0 3.4-1.2 5.9-3.4 6.8l4.9 10.3h-7.6l-3.4-9h-2.2v9h-6.6v-25.3h8.7c6.4.1 9.6 2.5 9.6 8.2zm-11.8 3.2h2.3c1.9 0 2.6-.5 2.6-2.9 0-2.3-.6-2.9-2.6-2.9h-2.3zm22-25.4-.1 5.7h-16.3v-25.3h15.8l.1 5.8h-9.4v3.9h7.7v5.3h-7.7v4.6zm6.5 27.2v-2.7-10.4h5.8v25.3h-4.7l-7.5-11.6-1.4-2.3h-.1v2.7 11.2h-5.8v-25.3h5.5zm14.7 4.6h-4.8l-.9-17.7h6.6zm-2.3 2.1c2.3 0 3.3 1.1 3.3 3 0 1.7-1 2.9-3.3 2.9s-3.3-.8-3.3-2.9c.1-1.9 1.1-3 3.3-3z" fill="#020204" fill-rule="evenodd"/></svg>