<svg enable-background="new 0 0 359 78.8" viewBox="0 0 359 78.8" xmlns="http://www.w3.org/2000/svg"><path clip-rule="evenodd" d="m332.6 46.8v-9.2c0-2.3-1.3-3.3-3.6-3.3-1.3 0-2.9.6-3.7 1.8v10.6h-1.4v-13.4l1-.1.3 1.6h.1c.9-1.1 2.5-1.8 4.1-1.8 2.9 0 4.6 1.5 4.6 4.6v9.2zm-21.3-6.8c.1 4.4 1.5 5.8 4.8 5.8 1.4 0 2.6-.3 3.8-1l.1 1.2c-1.2.7-2.5 1.1-4.1 1.1-4.3 0-6.1-2.3-6.1-7.5 0-4.3 1.8-6.6 5.4-6.6 3.1 0 5.2 1.9 5.2 6.3v.7zm3.9-5.7c-2.7 0-3.9 1.6-4 4.7h7.9c0-3.5-1.6-4.7-3.9-4.7zm-11 9.3c0 1.6.9 2.3 2.2 2.3.4 0 .9-.1 1.2-.2l.1 1.1c-.4.2-1 .3-1.6.3-2.1 0-3.2-1.1-3.2-3.4v-9.2h-2.1v-1.1h2.1l.3-3.6 1.1-.1v3.7h3.6v1.1h-3.6v9.1zm-8.5-15.1 1.4-.1v18.4h-1.4zm-13.2 11.5c.1 4.4 1.5 5.8 4.8 5.8 1.4 0 2.6-.3 3.8-1l.2 1.2c-1.2.7-2.5 1.1-4.1 1.1-4.3 0-6.1-2.3-6.1-7.5 0-4.3 1.8-6.6 5.4-6.6 3.1 0 5.2 1.9 5.2 6.3v.7zm4-5.7c-2.7 0-3.9 1.6-4 4.7h7.9c0-3.5-1.6-4.7-3.9-4.7zm-8.6 2.7c0 2.6-1.2 3.9-4.6 3.9-.6 0-1.3-.1-2-.3-.9.2-1.4.7-1.4 1.2s.4 1 1.5 1.1l3.1.3c3.3.3 4.3 1.4 4.3 3.2 0 2.4-1.4 3.9-5.5 3.9-3.6 0-5.1-1.4-5.1-3.6 0-1 .5-2.1 1.5-2.8-.7-.3-1.2-.9-1.2-1.8 0-.8.6-1.6 1.8-2-1-.5-1.7-1.5-1.7-3.2 0-2.6 1.3-4 4.6-4 1.2 0 2.4.2 3.3.9l2.2-1 .3.7-1.8 1.2c.6.7.7 1.4.7 2.3zm-8.2 9.6c0 1.6 1.1 2.6 3.8 2.6 3.4 0 4.2-1 4.2-2.6 0-1.2-.6-1.8-3.2-2l-3.3-.3c-1 .6-1.5 1.5-1.5 2.3zm3.7-12.4c-2.3 0-3.2.9-3.2 2.8 0 2.3 1.4 2.8 3.2 2.8 2.5 0 3.2-1 3.2-2.8 0-2.1-1-2.8-3.2-2.8zm-17.2 3.5c0-2.3-1.3-3.3-3.6-3.3-1.3 0-2.9.6-3.7 1.8v10.6h-1.4v-13.5l1-.1.3 1.6h.1c.9-1.1 2.5-1.8 4.1-1.8 2.9 0 4.6 1.5 4.6 4.6v9.2h-1.4zm-21.3 2.3c.1 4.4 1.5 5.8 4.8 5.8 1.4 0 2.6-.3 3.8-1l.2 1.2c-1.2.7-2.5 1.1-4.1 1.1-4.3 0-6.1-2.3-6.1-7.5 0-4.3 1.8-6.6 5.4-6.6 3.1 0 5.2 1.9 5.2 6.3v.7zm4-5.7c-2.7 0-3.9 1.6-4 4.7h7.9c0-3.5-1.6-4.7-3.9-4.7zm-8.6 2.7c0 2.6-1.2 3.9-4.6 3.9-.6 0-1.3-.1-2-.3-.9.2-1.4.7-1.4 1.2s.4 1 1.5 1.1l3.1.3c3.3.3 4.3 1.4 4.3 3.2 0 2.4-1.4 3.9-5.5 3.9-3.6 0-5.1-1.4-5.1-3.6 0-1 .5-2.1 1.5-2.8-.7-.3-1.2-.9-1.2-1.8 0-.8.6-1.6 1.8-2-1-.5-1.7-1.5-1.7-3.2 0-2.6 1.3-4 4.6-4 1.2 0 2.4.2 3.3.9l2.2-1 .3.7-1.8 1.2c.5.7.7 1.4.7 2.3zm-8.2 9.6c0 1.6 1.1 2.6 3.8 2.6 3.4 0 4.2-1 4.2-2.6 0-1.2-.6-1.8-3.2-2l-3.3-.3c-1 .6-1.5 1.5-1.5 2.3zm3.6-12.4c-2.3 0-3.2.9-3.2 2.8 0 2.3 1.4 2.8 3.2 2.8 2.5 0 3.2-1 3.2-2.8.1-2.1-.9-2.8-3.2-2.8zm-9.7 3.5c0-2.3-1.3-3.3-3.6-3.3-1.3 0-2.9.6-3.7 1.8v10.6h-1.4v-13.5l1-.1.3 1.6h.1c.9-1.1 2.5-1.8 4.1-1.8 2.9 0 4.6 1.5 4.6 4.6v9.2h-1.4zm-17.9 9.4c-3.4 0-5-1.7-5-4.6v-9.3h1.4v9.3c0 2.1 1.2 3.3 3.6 3.3s3.7-1.1 3.7-3.3v-9.3h1.4v9.3c0 2.9-1.7 4.6-5.1 4.6zm-8.9-10.1c0 2.6-1.2 3.9-4.6 3.9-.6 0-1.3-.1-2-.3-.9.2-1.4.7-1.4 1.2s.4 1 1.5 1.1l3.1.3c3.3.3 4.3 1.4 4.3 3.2 0 2.4-1.4 3.9-5.5 3.9-3.6 0-5.1-1.4-5.1-3.6 0-1 .5-2.1 1.5-2.8-.7-.3-1.2-.9-1.2-1.8 0-.8.6-1.6 1.8-2-1-.5-1.7-1.5-1.7-3.2 0-2.6 1.3-4 4.6-4 1.2 0 2.4.2 3.3.9l2.2-1 .3.7-1.8 1.2c.5.7.7 1.4.7 2.3zm-8.2 9.6c0 1.6 1.1 2.6 3.8 2.6 3.4 0 4.2-1 4.2-2.6 0-1.2-.6-1.8-3.2-2l-3.3-.3c-1 .6-1.5 1.5-1.5 2.3zm3.7-12.4c-2.3 0-3.2.9-3.2 2.8 0 2.3 1.4 2.8 3.2 2.8 2.5 0 3.2-1 3.2-2.8 0-2.1-1-2.8-3.2-2.8zm-9.8 3.5c0-2.3-1.3-3.3-3.6-3.3-1.3 0-2.9.6-3.7 1.8v10.6h-1.4v-13.5l1-.1.3 1.6h.1c.9-1.1 2.5-1.8 4.1-1.8 2.9 0 4.6 1.5 4.6 4.6v9.2h-1.4zm-14.4-7.2c-.7 0-1.1-.2-1.1-1 0-.6.4-1 1.1-1s1.1.3 1.1 1c-.1.7-.5 1-1.1 1zm-7.1 14.7c-.9 1.2-2.4 1.9-4.3 1.9-3.8 0-5.3-2.2-5.3-7.1 0-4.7 1.6-7 5.3-7 1.7 0 3.2.6 4.1 1.8v-1.8-4.4l1.4-.1v18.4h-1.1zm-.1-9c-.7-1.1-2.1-1.9-3.8-1.9-3 0-4.2 1.7-4.2 5.7 0 4.2 1.1 5.8 4.2 5.8 2.3 0 3.4-1.1 3.8-2zm-21.2 3.8c.1 4.4 1.5 5.8 4.8 5.8 1.4 0 2.6-.3 3.8-1l.2 1.2c-1.2.7-2.5 1.1-4.1 1.1-4.3 0-6.1-2.3-6.1-7.5 0-4.3 1.8-6.6 5.4-6.6 3.1 0 5.2 1.9 5.2 6.3v.7zm4-5.7c-2.7 0-3.9 1.6-4 4.7h7.9c-.1-3.5-1.7-4.7-3.9-4.7zm-13.4 12.8c-1.8 0-3.3-.7-4.2-1.9h-.1l-.3 1.6h-.9v-18.3l1.4-.1v4.5 1.8c1-1.2 2.5-1.8 4.2-1.8 3.2 0 5.2 1.8 5.2 7 0 5.3-1.9 7.2-5.3 7.2zm-.2-12.8c-1.7 0-3.1.7-3.8 1.9v7.7c.6 1 1.9 2 3.9 2 2.4 0 4.1-1.2 4.1-5.8-.1-4.6-1.6-5.8-4.2-5.8zm-13.3 12.8c-1.6 0-3.1-.4-4.1-1.2l.2-1.3c1 .8 2.5 1.3 3.9 1.3 2.3 0 3.3-1.2 3.3-2.7 0-3.6-7.3-2.1-7.3-6.6 0-2.2 1.6-3.6 4.5-3.6 1.3 0 2.5.3 3.6.8l-.3 1.2c-1.1-.5-2.3-.8-3.5-.8-1.9 0-3.2.9-3.2 2.3 0 3.4 7.3 1.7 7.3 6.5.1 2.5-1.3 4.1-4.4 4.1zm-8.9-9.4c0-2.3-1.3-3.3-3.6-3.3-1.3 0-2.9.6-3.7 1.8v10.6h-1.4v-13.5l1-.1.3 1.6h.1c.9-1.1 2.5-1.8 4.1-1.8 2.9 0 4.6 1.5 4.6 4.6v9.2h-1.4zm-17.9 9.4c-4 0-5.7-2-5.7-7.1 0-5 1.8-7 5.7-7 4 0 5.7 2 5.7 7 0 5.1-1.7 7.1-5.7 7.1zm0-12.8c-3.1 0-4.3 1.6-4.3 5.8 0 4.3 1.2 5.8 4.3 5.8 3 0 4.2-1.6 4.2-5.8.1-4.3-1.1-5.8-4.2-5.8zm-10.5-3.8c-.7 0-1.1-.2-1.1-1 0-.6.4-1 1.1-1s1.1.3 1.1 1c-.1.7-.5 1-1.1 1zm-8.1 13.1c0 1.6.9 2.3 2.2 2.3.4 0 .9-.1 1.2-.2l.1 1.1c-.4.2-1 .3-1.6.3-2.1 0-3.2-1.1-3.2-3.4v-9.2h-2.1v-1.1h2.1l.3-3.6 1.1-.1v3.7h3.6v1.1h-3.6v9.1zm-6.7 3.2-5-6.7h-2.2v6.7h-1.4v-18.3l1.4-.1v10.5h2.2l4.7-5.6h1.8l-5.3 6.2 5.5 7.4h-1.7zm-14.8-4.5h-8.3l-1.6 4.6h-1.6l6.6-17.3h1.8l6.6 17.3h-1.7zm-3.5-9.8-.6-1.8h-.1l-.6 1.8-3.1 8.5h7.3zm-9.4 1.9-.6.5-1.7-2.3-1.8 2.3-.6-.5 1.7-2.3-2.6-.8.3-.8 2.6.7.1-2.7h.8l.1 2.7 2.6-.7.3.8-2.6.8zm43.1 12.4h-1.4v-13.5l1.4-.1zm88.6 0h-1.4v-13.5l1.4-.1z" fill="#020204" fill-rule="evenodd"/></svg>