<svg enable-background="new 0 0 359.1 75.4" viewBox="0 0 359.1 75.4" xmlns="http://www.w3.org/2000/svg"><path clip-rule="evenodd" d="m338 50.5 1.5 2.5-1.9 1.4-2.2-2.2-2.3 2.2-2-1.4 1.5-2.6-2.7-1.3.9-2.5 2.8.7.4-2.9h2.5l.4 2.9 2.8-.7.9 2.5zm-12.3 17.7c-2.1 0-3-.8-3-2.8 0-1.8.9-2.9 3-2.9s3 1 3 2.9c0 1.7-.9 2.8-3 2.8zm-16.3-10.7-1.3-2.1h-.1v2.4 10h-5.2v-22.4h4.9l7.2 11.7h.1l-.1-2.4v-9.2h5.2v22.5h-4.2zm-14.8 10.4-3-8h-2v8h-5.9v-22.5h7.8c5.7 0 8.5 2.2 8.5 7.2 0 3-1.1 5.2-3.1 6.1l4.4 9.2zm-2.9-17.7h-2v5.2h2c1.7 0 2.3-.4 2.3-2.6 0-2-.6-2.6-2.3-2.6zm-7.9-25.7-1.3-2.1h-.1v2.4 10h-5.2v-22.4h4.9l7.2 11.7h.1l-.1-2.4v-9.2h5.2v22.5h-4.2zm-8.7 5.3-.1 5.1h-14.5v-22.5h14.1l.1 5.2h-8.4v3.4h6.9v4.7h-6.9v4.1zm-17-1.6c0 4-2.4 6.6-8 6.6h-8.8v-22.4h8.8c4.8 0 7.3 2.2 7.3 5.8 0 2.4-1.1 3.9-2.8 4.7v.1c2.3.7 3.5 2.4 3.5 5.2zm-8.2-10.9h-2.9v4h3c1.4 0 1.8-.5 1.8-2 0-1.6-.5-2-1.9-2zm.1 8.3h-3v4.4h3.2c1.5 0 2-.5 2-2.2 0-1.6-.5-2.2-2.2-2.2zm-5.5 20.2-.6 5c-1-.4-2.3-.6-3.8-.6-3.3 0-4.2 1.4-4.2 6.3 0 5.2.9 6.6 4.3 6.6 1.4 0 2.7-.3 3.7-.8l.5 4.8c-1.3.7-3.4 1.1-5.1 1.1-6.4 0-9.5-3.7-9.5-11.8 0-7.6 3-11.5 9.9-11.5 1.7.1 3.6.4 4.8.9zm-5.5-16-.1 5.1h-14.5v-22.5h14.1l.1 5.2h-8.4v3.4h6.9v4.7h-6.9v4.1zm-23.7 5.5c-7.4 0-10.1-4-10.1-11.7 0-7.9 3.1-11.6 10.4-11.6 2 0 4.2.4 5.9 1l-.5 5c-1.5-.5-3.4-.9-5-.9-3.7 0-4.5 1.4-4.5 6.4 0 5.3.9 6.5 3.8 6.5.5 0 .9 0 1.4-.1v-7.3h5.2v11.4c-1.7.8-4.3 1.3-6.6 1.3zm-3.2 9.7c2.1 0 4.3.4 5.9 1.1l-.7 4.9c-1.7-.5-3.4-.8-4.9-.8-2.2 0-2.7.7-2.7 1.6 0 2.9 8.9 1.9 8.9 9.3 0 4.4-3 7.2-8.1 7.2-2.4 0-4.7-.5-6.5-1.6l.8-5c1.8.9 3.7 1.5 5.6 1.5s2.6-.6 2.6-1.8c0-2.9-8.9-2-8.9-9.3.1-4 2.5-7.1 8-7.1zm-8.6-16.8c0 4-2.4 6.6-8 6.6h-8.8v-22.4h8.8c4.8 0 7.3 2.2 7.3 5.8 0 2.4-1.1 3.9-2.8 4.7v.1c2.3.7 3.5 2.4 3.5 5.2zm-8.2-10.9h-2.9v4h3c1.4 0 1.8-.5 1.8-2 0-1.6-.5-2-1.9-2zm.1 8.3h-3.1v4.4h3.2c1.5 0 2-.5 2-2.2.1-1.6-.4-2.2-2.1-2.2zm-17.6 5.3h-6.1l-.9 3.9h-6.2l6.7-22.5h7.2l6.8 22.5h-6.5zm-2.6-11.3-.4-2.4h-.1l-.5 2.4-1.4 6.4h3.9zm3.9 31h-5.1v17.2h-6v-17.2h-5.1l.1-5.2h15.9zm-21 17.3-.9-3.9h-6.1l-.9 3.9h-6.2l6.7-22.5h7.2l6.8 22.5zm-3.4-15.3-.4-2.4h-.1l-.5 2.4-1.4 6.4h3.9zm-2.2-17.7h-6v-17.3h-5.1l.1-5.2h15.9l.1 5.2h-5.1v17.3zm-16.9-23.6c-1.5 0-2.2-.6-2.2-2 0-1.3.8-2.1 2.2-2.1 1.5 0 2.2.7 2.2 2.1.1 1.3-.6 2-2.2 2zm-5.7 0c-1.5 0-2.2-.6-2.2-2 0-1.3.7-2.1 2.2-2.1s2.2.7 2.2 2.1c0 1.3-.7 2-2.2 2zm-.7 1.1h7.2l6.8 22.5h-6.5l-.9-3.9h-6.1l-.9 3.9h-6.1-.1-6.7l-3-8h-2v8h-5.9v-22.5h7.8c5.7 0 8.5 2.2 8.5 7.2 0 3-1.1 5.2-3.1 6.1l4.3 9.1zm5.5 13.6-1.4-6.4-.4-2.4h-.1l-.5 2.4-1.4 6.4zm-21.8-8.8h-2v5.2h2c1.7 0 2.3-.4 2.3-2.6 0-2-.5-2.6-2.3-2.6zm-1.5 28.2h7.2l6.8 22.5h-6.5l-.9-3.9h-6.1l-.9 3.9h-6.1-.1-6.7l-3-8h-2v8h-5.9v-22.5h7.8c5.7 0 8.5 2.2 8.5 7.2 0 3-1.1 5.2-3.1 6.1l4.3 9.1zm5.5 13.6-1.4-6.4-.4-2.4h-.1l-.5 2.4-1.4 6.4zm-21.8-8.8h-2v5.2h2c1.7 0 2.3-.4 2.3-2.6 0-2-.5-2.6-2.3-2.6zm7.7-20.4-.1 5.1h-14.5v-22.5h14.1l.1 5.2h-8.4v3.4h6.9v4.7h-6.9v4.1zm-23.7 5.5c-7.4 0-10.1-4-10.1-11.7 0-7.9 3.1-11.6 10.4-11.6 2 0 4.2.4 5.9 1l-.5 5c-1.5-.5-3.4-.9-5-.9-3.7 0-4.5 1.4-4.5 6.4 0 5.3.9 6.5 3.8 6.5.4 0 .9 0 1.3-.1v-7.3h5.2v11.4c-1.7.8-4.2 1.3-6.5 1.3zm-15.8-.4h-6v-17.3h-5.1l.1-5.2h15.9l.1 5.2h-5.1v17.3zm-9.3 0h-13.4v-22.5h5.9v17.3h7.7zm-1.9 22.1v-2.4-9.2h5.2v22.5h-4.2l-6.7-10.4-1.3-2.1h-.1v2.4 10h-5v-22.4h4.9zm-20.4-26.1h-6.1l-.9 3.9h-6.2l6.7-22.5h7.2l6.8 22.5h-6.5zm-2.5-11.3-.5-2.4h-.1l-.5 2.4-1.4 6.4h3.9zm-3.5 40.5c0 2 .8 2.9 2.8 2.9s2.7-.8 2.7-2.9v-14.7h5.9v14.8c0 5.3-2.8 8-8.6 8s-8.7-2.8-8.7-8v-14.8h5.9zm52.3-3.6c0 8.2-3.2 11.4-9.5 11.4h-8.1v-22.5h8c6.8 0 9.6 3.1 9.6 11.1zm-11.8 6.2h2.2c2.6 0 3.5-.8 3.5-6.3 0-5-.8-5.9-3.5-5.9h-2.2zm76.8-11.5c0 2.4-1.1 3.9-2.8 4.7v.1c2.3.8 3.5 2.5 3.5 5.3 0 4-2.4 6.6-8 6.6h-8.8v-22.5h8.8c4.8 0 7.3 2.2 7.3 5.8zm-10.4 11.9h3.2c1.5 0 2-.5 2-2.2 0-1.6-.5-2.2-2.1-2.2h-3.1zm0-12.8v4h3c1.4 0 1.8-.5 1.8-2s-.5-1.9-1.9-1.9h-2.9zm63.5-4.9.1 5.2h-5.1v17.2h-6v-17.2h-5.1l.1-5.2zm31.1 22.5h-6v-22.5h6zm25.4-14.1h5.5v-8.4h5.9v22.5h-6v-8.9h-5.5v8.8h-5.9v-22.4h5.9v8.4zm28.6-3.3h-8.4v3.5h6.9v4.7h-6.9v4.1h8.8l-.1 5.1h-14.5v-22.5h14z" fill="#020204" fill-rule="evenodd"/></svg>