<?xml version="1.0" encoding="utf-8"?>
<!-- Generator: Adobe Illustrator 27.2.0, SVG Export Plug-In . SVG Version: 6.00 Build 0)  -->
<svg version="1.1" id="Ebene_1" xmlns="http://www.w3.org/2000/svg" xmlns:xlink="http://www.w3.org/1999/xlink" x="0px" y="0px"
	 viewBox="0 0 643.8 600" style="enable-background:new 0 0 643.8 600;" xml:space="preserve">
<style type="text/css">
	.st0{fill:#020203;}
	.st1{fill-rule:evenodd;clip-rule:evenodd;fill:#FFED00;}
</style>
<polygon class="st0" points="91.9,482.2 464.4,481.8 616.3,481.7 616.4,421.4 570.2,348.8 616.4,277.6 616.5,217 91.5,217 
	9.5,350.8 9.5,350.9 "/>
<path class="st1" d="M521,317.8c-3.7-1.3-7.8-2.1-12.6-2.1c-13,0-20.1,4.8-23.5,16h32.8l-3.4,15.8h-31.5v5.8h29.7l-3.2,15.3h-24.8
	c3.5,13.4,11.7,17.7,23.5,17.7c5.6,0,11.2-1.6,16.3-3.5l2.1,22.5c-6.9,3.5-15.5,5.4-26.5,5.4c-26.5,0-42.5-13.6-47.3-42.2h-11.8
	l0.2-15.3h10.2v-5.8h-10.2l-0.2-15.8h11.8c5.1-26.4,22.4-42.7,48.8-42.7c10.6,0,18.5,1.6,25.3,4.2L521,317.8z M353.3,411
	c-29.7,0-41.7-18.1-41.7-60.9c0-45.7,12.2-61.9,42-61.9c29.3,0,42,16.1,42,61.9C395.7,392.9,382.4,411,353.3,411z M353.6,314.9
	c-8.5,0-12.3,4.3-12.3,34.9c0,32.1,3.8,35.5,12.3,35.5c8.3,0,12-4.2,12-35.5C365.6,318.6,361.9,314.9,353.6,314.9z M299.7,367.8
	c0,26.9-13.1,43.2-43.3,43.2c-12.8,0-24.8-2.7-34.7-8.3l5.1-23.7c8.8,4.3,16,6.6,26.2,6.6c12.8,0,16.1-5,16.1-15.4
	c0-9.4-5.1-12.8-16-12.8c-6.2,0-13.9,1-19.8,3l-9.9-11.5l4.3-59.5H293l1.1,26.5h-41.7l-1.1,17.7c3.7-0.6,7.5-1,11.8-1
	C286.3,332.8,299.7,344.5,299.7,367.8z M205.6,373.3c0,23-14.2,37.7-45.2,37.7c-13.1,0-24.9-3.5-33.3-8.3l5.3-23.7
	c8.6,4.3,17.1,6.6,26.7,6.6c11,0,16.5-4.6,16.5-13.1c0-7.8-4.3-13.7-25.7-13.7v-21.6c20.6,0,24.9-4.6,24.9-12.8
	c0-6.2-4.2-9.9-14.7-9.9c-10.4,0-19.3,3.5-26.9,9.6l-6.9-24c9-7,22.2-11.8,36.1-11.8c25.9,0,40.9,12.8,40.9,34.1
	c0,10.9-5,19.5-14.4,24.8v0.3C199.7,352,205.6,360.6,205.6,373.3z"/>
</svg>
