<?xml version="1.0" encoding="utf-8"?>
<!-- Generator: Adobe Illustrator 27.2.0, SVG Export Plug-In . SVG Version: 6.00 Build 0)  -->
<svg version="1.1" id="Ebene_1" xmlns="http://www.w3.org/2000/svg" xmlns:xlink="http://www.w3.org/1999/xlink" x="0px" y="0px"
	 viewBox="0 0 643.8 600" style="enable-background:new 0 0 643.8 600;" xml:space="preserve">
<style type="text/css">
	.st0{fill-rule:evenodd;clip-rule:evenodd;}
</style>
<text transform="matrix(0.9919 0 0 1 -430.8037 362.9277)" style="fill:#FFFFFF; font-family:'ClanPro-NarrBlack'; font-size:12.2353px;">Mehr infos</text>
<path class="st0" d="M545.8,392.1c-5.3,0-6.4,1.6-6.4,3.8c0,6.9,21.2,4.6,21.2,22c0,10.5-7.1,17.1-19.2,17.1
	c-5.6,0-11.2-1.3-15.5-3.7l1.8-11.8c4.3,2.2,8.8,3.6,13.4,3.6c4.4,0,6.1-1.5,6.1-4.3c0-6.8-21.2-4.7-21.2-22.2
	c0-9.3,5.7-16.7,18.9-16.7c4.9,0,10.2,0.9,14,2.6l-1.6,11.6C553.3,392.8,549.3,392.1,545.8,392.1z M502.2,424.6v9.5h-12.6v-9.5
	h-21.1l-1.1-8.7l18.5-35.2h16.3v32.6h4.3l-0.3,11.3H502.2z M490.8,394.1l-9.5,19.2h8.8l0.5-13.4l0.4-5.8L490.8,394.1z M443.4,402.8
	h19.9v9.3h-19.9V402.8z M427.2,291.7l-10-21.7h-3.4v21.7h-13.9v-53.4h13.9v20.7h3.7l9.9-20.7H443l-12.8,25.6l13.5,27.8H427.2z
	 M378.4,422.1h16.7l-0.3,12h-33.6v-8.7c11-12.3,20-21.2,20-28.2c0-3.2-1.9-5.1-6.1-5.1c-4.1,0-7.8,1.9-11.3,4.3l-3.2-11
	c4.3-3.1,10-5.3,17.2-5.3c11.7,0,17.5,6.3,17.5,15.7c0,8.7-6.9,16.5-17,26L378.4,422.1z M384.6,280.5c3.3,0,6.3-0.6,8.8-1.8
	l1.3,11.3c-3.2,1.6-8,2.6-12.2,2.6c-15.2,0-22.7-8.7-22.7-27.9c0-18,7.2-27.4,23.5-27.4c3.8,0,8.4,0.9,11.3,2l-1.4,11.8
	c-2.3-0.9-5.6-1.4-8.9-1.4c-7.9,0-9.9,3.3-9.9,15C374.5,277.1,376.7,280.5,384.6,280.5z M342.1,282.3h-14.5l-2.1,9.3h-14.7
	l15.8-53.4h17l16.1,53.4h-15.5L342.1,282.3z M336.2,255.4l-1.1-5.7h-0.2l-1.2,5.7l-3.4,15.3h9.3L336.2,255.4z M310,275.9
	c0,9.6-5.8,15.7-19.1,15.7h-20.8v-53.4h20.9c11.5,0,17.3,5.3,17.3,13.8c0,5.6-2.6,9.3-6.5,11.2v0.1C307.2,265.2,310,269.3,310,275.9
	z M290.5,249.9h-6.9v9.4h7c3.2,0,4.3-1.2,4.3-4.8C295,251,293.8,249.9,290.5,249.9z M290.8,269.7h-7.3v10.5h7.5
	c3.5,0,4.8-1.1,4.8-5.3C295.9,271.2,294.8,269.7,290.8,269.7z M274.9,220.4h-14.2v-41h-12.1l0.3-12.5h37.8l0.3,12.5h-12.1V220.4z
	 M245.9,208l-0.2,12.4h-36.4v-9l17-27.1l3.1-4.7l-0.1-0.1h-19.7l0.4-12.5h35.7v10l-16.5,26.2l-3.1,4.6l0.1,0.2H245.9z M194.8,220.4
	h-14.2v-41h-12.1l0.3-12.5h37.8l0.3,12.5h-12.1V220.4z M166.2,208.4l-0.3,12h-34.4V167h33.5l0.3,12.2h-19.9v8.3h16.4v11.2h-16.4v9.7
	H166.2z M164.2,238.2l16.1,53.4h-15.5l-2.1-9.3h-14.5l-2.1,9.3h-14.7l15.8-53.4H164.2z M160.1,270.7l-3.4-15.3l-1.1-5.7h-0.2
	l-1.2,5.7l-3.4,15.3H160.1z M109.7,331.4H126l-0.1,11.8h-16.2v19.7h-14v-53.4h33.4l0.2,12.5h-19.7V331.4z M119.1,280.5
	c3.3,0,6.3-0.6,8.8-1.8l1.3,11.3c-3.2,1.6-8,2.6-12.2,2.6c-15.2,0-22.7-8.7-22.7-27.9c0-18,7.2-27.4,23.5-27.4c3.8,0,8.4,0.9,11.3,2
	l-1.4,11.8c-2.3-0.9-5.6-1.4-8.9-1.4c-7.9,0-9.9,3.3-9.9,15C109,277.1,111.2,280.5,119.1,280.5z M103.7,221.4c-4,0-7.2-0.7-9.8-1.9
	l0.7-11.6c1.5,0.8,3.8,1.3,6.6,1.3c5.8,0,8.7-2.3,8.7-8.7V167h14.2v33.8C124.2,216.5,116.2,221.4,103.7,221.4z M109.4,494.4
	c4.4,0,6.1-1.5,6.1-4.3c0-6.8-21.2-4.7-21.2-22.2c0-9.3,5.7-16.7,18.9-16.7c4.9,0,10.2,0.9,14,2.6l-1.6,11.6
	c-4.1-1.2-8.1-1.9-11.5-1.9c-5.3,0-6.4,1.6-6.4,3.8c0,6.9,21.2,4.6,21.2,22c0,10.5-7.1,17.1-19.2,17.1c-5.6,0-11.2-1.3-15.5-3.7
	l1.8-11.8C100.3,493,104.8,494.4,109.4,494.4z M148.8,505.4h-14.3V452h14.3V505.4z M178.7,451.1c3.8,0,8.4,0.9,11.3,2l-1.4,11.8
	c-2.4-0.9-5.6-1.4-8.9-1.4c-7.9,0-9.9,3.3-9.9,15c0,12.3,2.2,15.7,10.1,15.7c3.3,0,6.3-0.6,8.8-1.8l1.3,11.3
	c-3.2,1.6-8.1,2.6-12.2,2.6c-15.2,0-22.7-8.7-22.7-27.9C155.2,460.5,162.4,451.1,178.7,451.1z M209.1,472h13v-20h14v53.4h-14v-20.9
	h-13v20.9h-13.9V452h13.9V472z M224.4,418c0,10.5-7.1,17.1-19.2,17.1c-5.6,0-11.2-1.3-15.5-3.7l1.8-11.8c4.3,2.2,8.8,3.6,13.4,3.6
	c4.4,0,6.1-1.5,6.1-4.3c0-6.8-21.2-4.7-21.2-22.2c0-9.3,5.7-16.7,18.9-16.7c4.9,0,10.2,0.9,14,2.6l-1.6,11.6
	c-4.1-1.2-8.1-1.9-11.5-1.9c-5.3,0-6.4,1.6-6.4,3.8C203.1,402.9,224.4,400.5,224.4,418z M185.7,407.2c0,19.6-7.6,27-22.6,27h-19.3
	v-53.4h19C179.1,380.7,185.7,388.3,185.7,407.2z M162.9,393.1h-5.2V422h5.2c6.1,0,8.2-1.9,8.2-15
	C171.1,395.2,169.2,393.1,162.9,393.1z M136.6,380.7v53.4h-14v-20.9h-13v20.9H95.8v-53.4h13.9v20h13v-20H136.6z M142.2,302.2
	c0-3.2,1.8-4.9,5.3-4.9c3.6,0,5.3,1.7,5.3,4.9c0,3.1-1.6,4.8-5.3,4.8C143.9,306.9,142.2,305.6,142.2,302.2z M155.8,302.2
	c0-3.2,1.8-4.9,5.3-4.9c3.6,0,5.3,1.7,5.3,4.9c0,3.1-1.6,4.8-5.3,4.8C157.5,306.9,155.8,305.6,155.8,302.2z M174.6,344.7
	c0,12.5-6.7,19.1-20.4,19.1s-20.6-6.5-20.6-19.1v-35.3h14v35c0,4.8,1.9,6.9,6.6,6.9c4.8,0,6.5-2,6.5-6.9v-35h13.9V344.7z
	 M217.1,275.5c0,10.5-7.1,17.1-19.2,17.1c-5.6,0-11.2-1.3-15.5-3.7l1.8-11.8c4.3,2.2,8.8,3.6,13.4,3.6c4.4,0,6.1-1.5,6.1-4.3
	c0-6.8-21.2-4.7-21.2-22.2c0-9.3,5.7-16.7,18.9-16.7c4.9,0,10.2,0.9,14,2.6l-1.6,11.6c-4.1-1.2-8.1-1.9-11.5-1.9
	c-5.3,0-6.4,1.6-6.4,3.8C195.9,260.4,217.1,258,217.1,275.5z M207.1,362.9l-7.1-19.1h-4.7v19.1h-13.9v-53.4h18.4
	c13.5,0,20.2,5.1,20.2,17.2c0,7.1-2.6,12.4-7.3,14.4l10.4,21.9H207.1z M200.1,321h-4.8v12.3h4.8c4.1,0,5.5-1,5.5-6.2
	C205.5,322.3,204.1,321,200.1,321z M222.1,291.7v-53.4H236v20h13v-20h14v53.4h-14v-20.9h-13v20.9H222.1z M284.6,335.9
	c0,19.6-7.5,27-22.6,27h-19.3v-53.4h19C277.9,309.5,284.6,317,284.6,335.9z M256.6,350.7h5.2c6.1,0,8.2-1.9,8.2-15
	c0-11.8-1.9-14-8.2-14h-5.2V350.7z M276.9,464.2h-19.9v8.3h16.4v11.2h-16.4v9.7h20.8l-0.3,12h-34.4V452h33.5L276.9,464.2z
	 M250,401.4l-1.4-10.8l15.5-9.8h8v43.8h6.3v9.5h-26.6v-9.5h6.3v-27.7L250,401.4z M321.9,469.2c0,7.1-2.6,12.4-7.3,14.4l10.4,21.9
	h-16.1l-7.1-19.1h-4.7v19.1h-13.9V452h18.4C315.2,452,321.9,457.1,321.9,469.2z M297.1,475.8h4.8c4.1,0,5.5-1,5.5-6.2
	c0-4.8-1.4-6.1-5.4-6.1h-4.8V475.8z M302.4,391.8c-4.6,0-8.6,1.6-12,4.3l-3.1-10.7c4-3.1,9.9-5.3,16.1-5.3
	c11.5,0,18.2,5.7,18.2,15.2c0,4.8-2.2,8.7-6.4,11v0.1c4.8,2.1,7.4,5.9,7.4,11.5c0,10.3-6.3,16.8-20.2,16.8c-5.8,0-11.1-1.6-14.8-3.7
	l2.3-10.5c3.8,1.9,7.6,2.9,11.9,2.9c4.9,0,7.3-2.1,7.3-5.8c0-3.5-1.9-6.1-11.5-6.1V402c9.2,0,11.1-2.1,11.1-5.7
	C308.9,393.5,307.1,391.8,302.4,391.8z M325.1,350.9l-0.3,12h-34.4v-53.4h33.5l0.3,12.2h-19.9v8.3h16.4v11.2h-16.4v9.7H325.1z
	 M324.6,442.4l21.9-64h11.1l-22.3,64H324.6z M359.4,309.5h12.2v53.4h-9.9l-16-24.6l-3-4.9l-0.1,0.1l0.1,5.8v23.7h-12.3v-53.4h11.7
	l17.2,27.7l0.1-0.1l-0.1-5.7L359.4,309.5z M357.4,479.7l0.1-0.1l-0.1-5.7l0.1-21.9h12.2v53.4h-9.9l-16-24.6l-3-4.9l-0.1,0.1l0.1,5.8
	v23.7h-12.3V452h11.7L357.4,479.7z M382.7,492.7c5,0,7.1,2.5,7.1,6.8c0,4.1-2.1,6.8-7.1,6.8s-7.2-1.9-7.2-6.8
	C375.5,495.2,377.7,492.7,382.7,492.7z M394.9,455.3l6.6,1.6l1-6.9h6l0.9,6.9l6.6-1.6l2.1,5.8l-6.3,3.1l3.6,6.1l-4.5,3.4l-5.3-5.1
	l-5.4,5.2l-4.6-3.3l3.5-6.3l-6.3-3L394.9,455.3z M401.1,407.7c0-20.4,5.4-27.6,18.7-27.6c13,0,18.7,7.2,18.7,27.6
	c0,19.1-5.9,27.1-18.9,27.1C406.4,434.9,401.1,426.8,401.1,407.7z M419.8,423.4c3.7,0,5.3-1.9,5.3-15.8c0-13.9-1.6-15.5-5.3-15.5
	c-3.8,0-5.5,1.9-5.5,15.5C414.3,421.9,416,423.4,419.8,423.4z"/>
</svg>
