<?xml version="1.0" encoding="utf-8"?>
<!-- Generator: Adobe Illustrator 25.3.1, SVG Export Plug-In . SVG Version: 6.00 Build 0)  -->
<svg version="1.1" id="Ebene_1" xmlns="http://www.w3.org/2000/svg" xmlns:xlink="http://www.w3.org/1999/xlink" x="0px" y="0px"
	 viewBox="0 0 295.28 129.01" style="enable-background:new 0 0 295.28 129.01;" xml:space="preserve">
<style type="text/css">
	.st0{fill-rule:evenodd;clip-rule:evenodd;fill:#020204;}
</style>
<path class="st0" d="M277.74,26.03v18.4h-6.37v-18.4h-5.44l0.13-5.6h16.99l0.13,5.6H277.74z M257.32,20.43h6.43v24h-6.43V20.43z
	 M260.39,78.42h-4.45l-7.17-11.07l-1.34-2.21l-0.06,0.03l0.03,2.59v10.65h-5.5v-24h5.25l7.71,13.06l0.06-0.32l-0.06-2.88l0.03-9.85
	h5.5V78.42z M254.66,39.02l0.3,5.41h-15.89v-24h15.04l0.13,5.5h-8.93v3.71h7.36v5.02h-7.36v4.35H254.66z M230.15,63.64h7.57v5.02
	h-7.57v4.35h10.04l-0.82,5.41h-15.46v-24h15.04l0.13,5.5h-8.93V63.64z M230.38,35.02h-6.62v9.41h-6.01v-24h6.01v8.99h6.62v-8.99
	h5.47v24h-5.47V35.02z M216.1,65.91l6.05,12.51h-7.36l-4.51-9.76h-1.54v9.76h-6.1v-24h6.1v9.28h1.66l4.45-9.28h7.01L216.1,65.91z
	 M205.32,45.16c-6.14,0-9.25-2.44-9.25-8.89V20.43h6.27v15.71c0,2.14,0.83,3.1,2.98,3.1c3.07,0,2.91-0.9,2.91-3.1V20.43h6.24v15.84
	C214.47,42.72,211.46,45.16,205.32,45.16z M200.21,60.22c-1.56-0.13-3.14-0.64-4-0.64c-4.2,0-5.1,1.5-5.1,6.75
	c0,6.08,0.99,7.07,4.54,7.07c1.47,0,2.99-0.29,3.97-0.8l0.58,5.09c-1.44,0.7-2.75,1.47-5.47,1.47c-6.85,0-9.59-4.22-9.59-12.86
	c0-8.06,2.65-12.29,9.97-12.29c1.7,0,3.78,0.38,5.06,0.9L200.21,60.22z M193.9,39.02l-0.13,5.41h-15.46v-24h15.04l0.13,5.5h-8.34
	v3.71h6.78v5.02h-6.78v4.35H193.9z M172.81,79.16c-7.2,0-10.34-3.96-10.34-12.73c0-8.8,3.01-12.38,10.34-12.38
	c7.4,0,10.48,3.58,10.48,12.38C183.29,75.45,180.21,79.16,172.81,79.16z M172.49,59.64c-2.62,0-3.46,1.09-3.46,6.78
	c0,5.73,0.86,6.88,4.1,6.88c2.08,0,2.88-1.18,2.88-6.88C176.01,60.7,175.21,59.64,172.49,59.64z M163.43,33.35l-1.34-2.21
	l-0.06,0.03l0.03,2.59v10.66h-4.91v-24h4.65l7.94,13.06l0.64-0.32l-0.64-2.88l0.32-9.85h4.99v24h-4.45L163.43,33.35z M157.35,68.6
	l4.67,9.82h-7.23l-3.2-8.18h-2.11v8.18h-6.24v-24h8.66c5.71,0,8.72,2.3,8.72,7.71C160.62,65.34,159.46,67.71,157.35,68.6z
	 M151.66,59.61h-2.18v5.54h2.14c1.82,0,2.46-0.45,2.46-2.78C154.09,60.19,153.48,59.61,151.66,59.61z M149.19,44.42h-6.37v-18.4
	h-5.44l0.36-5.6h16.91l-0.02,5.6h-5.44V44.42z M139.27,44.42h-14.3v-24h6.3v18.9h8.16L139.27,44.42z M141.32,60.03h-5.44v18.4h-6.14
	v-18.4h-5.66l0.13-5.6h16.99L141.32,60.03z M123.3,39.02l-0.86,5.41h-15.45v-24h15.04l0.13,5.5h-8.93v3.71h8.24v5.02h-8.24v4.35
	H123.3z M115.24,62.14c0,3.2-1.15,5.57-3.26,6.46l4.67,9.82h-7.23l-3.2-8.18h-2.11v8.18h-6.24v-24h8.29
	C112.23,54.43,115.24,56.73,115.24,62.14z M106.28,59.61h-2.18v5.54h2.14c1.82,0,2.46-0.45,2.46-2.78
	C108.71,60.19,108.11,59.61,106.28,59.61z M92.82,44.42l-2.54-14.02l-0.32-3.13h-0.1l-0.12,3.13l-2.44,14.02h-7.49l-5.02-24h6.53
	l2.11,15.13l0.32,2.56h0.1l0.35-2.56l2.5-15.13h6.65l2.53,15.01l0.38,2.56h0.1l0.29-2.56l2.14-15.01h6.24l-5.02,24H92.82z
	 M67.11,78.42h-8.67v-24h8.54c7.29,0,10.27,3.51,10.27,11.87C77.26,75.1,73.87,78.42,67.11,78.42z M67.02,59.96h-2.34v12.99h2.34
	c2.75,0,3.68-0.83,3.68-6.72C70.7,60.92,69.83,59.96,67.02,59.96z M66.67,39.02l-0.29,5.41H50.92v-24h15.04l0.13,5.5h-8.93v3.71
	h7.66v5.02h-7.66v4.35H66.67z M36.36,67.35l-1.34-2.21l-0.06,0.03l0.03,2.59v10.65h-5.5v-24h5.25l7.71,13.06l0.23-0.32l-0.23-2.88
	l0.03-9.85h5.5v24h-4.07L36.36,67.35z M40.97,20.43h6.43v24h-6.43V20.43z M27.95,44.42h-8.67v-24h8.54c7.3,0,10.27,3.51,10.27,11.87
	C38.09,41.1,34.7,44.42,27.95,44.42z M27.85,25.96h-2.09v12.99h2.09c2.75,0,4.07-0.83,4.07-6.72
	C31.92,26.92,30.67,25.96,27.85,25.96z M25.96,54.43v24h-6.03v-24H25.96z M34.44,93.93h-8.68v3.71h7.12v5.02h-7.12v4.35h9.1
	l-0.13,5.41H19.28v-24h15.04L34.44,93.93z M43.95,112.42h-6.19v-24h6.19V112.42z M54.4,107.46c1.83,0,1.93-0.67,1.93-1.95
	c0-3.07-9.53-2.11-9.53-9.95c0-4.19,2.56-7.52,8.48-7.52c2.21,0,4.58,0.42,7.11,1.15l-1.51,5.21c-1.82,0-3.65-0.86-5.18-0.86
	c-2.37,0-2.88,0.7-2.88,1.73c0,3.1,9.53,2.05,9.53,9.89c0,5.55-3.2,7.99-8.61,7.99c-2.53,0-5.02-0.89-6.98-1.98l1.48-4.77
	C49.76,107.33,51.6,107.46,54.4,107.46z M81.96,96.14c0,3.2-1.15,5.57-3.26,6.46l4.67,9.82h-7.23l-3.2-8.18h-2.11v8.18h-5.35v-24
	h7.4C78.95,88.43,81.96,90.73,81.96,96.14z M70.83,99.15h2.14c1.82,0,2.46-0.45,2.46-2.78c0-2.18-0.61-2.75-2.43-2.75h-2.18V99.15z
	 M95.46,73.02l-0.13,5.41H79.88v-24h15.04l0.13,5.5h-8.93v3.71h7.36v5.02h-7.36v4.35H95.46z M100.1,93.93h-8.93v3.71h7.8v5.02h-7.8
	v4.35h9.64l-0.43,5.41H84.94v-24h15.04L100.1,93.93z M109.61,112.42h-6.43v-24h6.43V112.42z M126.09,101.49l0.06-0.32l-0.06-2.88
	l0.03-9.85h5.5v24h-4.45l-7.17-11.07l-1.34-2.21l-0.06,0.03l0.03,2.59v10.66h-5.5v-24h5.25L126.09,101.49z M142.38,112.42h-7.23v-24
	h7.23V112.42z M156.29,88.01c1.32,0,3.72,0.38,5.45,1.06l-0.58,5.34c-1.57-0.32-2.79-0.93-5.31-0.93c-3.94,0-4.83,1.47-4.83,6.88
	c0,5.7,0.93,6.94,4.03,6.94c0.84,0,0.99-0.03,1.44-0.13v-7.84h5.57v12.22c-1.66,0.8-4.38,1.92-6.85,1.92
	c-7.93,0-10.75-4.86-10.75-13.05C144.46,92.04,147.75,88.01,156.29,88.01z M170.95,104.14c0,2.14,0.83,3.1,2.98,3.1
	c2.18,0,2.91-0.9,2.91-3.1V88.43h6.24v15.84c0,6.45-3.01,8.89-9.15,8.89c-6.14,0-9.25-2.44-9.25-8.89V88.43h6.27V104.14z
	 M199.08,101.49l0.06-0.32l-0.06-2.88l0.03-9.85h5.5v24h-4.45L193,101.35l-1.34-2.21l-0.06,0.03l0.03,2.59v10.66h-5.5v-24h5.25
	L199.08,101.49z M218.28,88.01c2.11,0,4.51,0.38,6.52,1.06l-0.85,5.34c-1.57-0.32-3.58-0.93-5.31-0.93c-3.94,0-4.83,1.47-4.83,6.88
	c0,5.7,0.93,6.94,4.03,6.94c0.48,0,0.99-0.03,1.44-0.13v-7.84h5.57v12.22c-1.66,0.8-4.38,1.92-6.85,1.92
	c-7.94,0-10.75-4.86-10.75-13.05C207.24,92.04,210.97,88.01,218.28,88.01z M230.25,106.7c2.24,0,3.2,1.22,3.2,3.07
	c0,1.82-0.96,3.34-3.2,3.34c-2.24,0-3.23-1.16-3.23-3.34C227.02,107.92,228.01,106.7,230.25,106.7z M272.13,68.51h-8.93v-4.16h8.93
	V68.51z"/>
</svg>
