<?xml version="1.0" encoding="utf-8"?>
<!-- Generator: Adobe Illustrator 16.0.4, SVG Export Plug-In . SVG Version: 6.00 Build 0)  -->
<!DOCTYPE svg PUBLIC "-//W3C//DTD SVG 1.1//EN" "http://www.w3.org/Graphics/SVG/1.1/DTD/svg11.dtd">
<svg version="1.1" id="Ebene_1" xmlns="http://www.w3.org/2000/svg" xmlns:xlink="http://www.w3.org/1999/xlink" x="0px" y="0px"
	 width="127.152px" height="31.293px" viewBox="0 0 127.152 31.293" enable-background="new 0 0 127.152 31.293"
	 xml:space="preserve">
<g>
	<g>
		<rect fill="#248C96" width="127.152" height="31.293"/>
	</g>
	<g>
		<path fill="#FFFFFF" d="M16.01,16.916c0,2.81-1.432,3.691-3.678,3.691c-0.715,0-1.291-0.128-1.75-0.333l0.129-2.08
			c0.268,0.14,0.688,0.229,1.186,0.229c1.049,0,1.559-0.409,1.559-1.558v-6.015h2.555V16.916z"/>
		<path fill="#FFFFFF" d="M23.533,18.27l-0.051,2.159h-6.168v-9.577h6.002l0.051,2.196h-3.562v1.48h2.938v2.005h-2.938v1.736H23.533
			z"/>
		<path fill="#FFFFFF" d="M28.672,13.086v7.343h-2.541v-7.343h-2.172l0.051-2.234h6.781l0.051,2.234H28.672z"/>
		<path fill="#FFFFFF" d="M31.268,20.429v-1.622l3.051-4.852l0.562-0.844l-0.014-0.025h-3.523l0.064-2.234h6.396v1.787l-2.949,4.699
			l-0.562,0.83l0.014,0.038h3.523l-0.037,2.223H31.268z"/>
		<path fill="#FFFFFF" d="M43.031,13.086v7.343H40.49v-7.343h-2.17l0.051-2.234h6.779l0.051,2.234H43.031z"/>
		<path fill="#FFFFFF" d="M54.619,18.206l-0.064,2.223h-5.707v-9.577h2.514v7.354H54.619z"/>
		<path fill="#FFFFFF" d="M59.014,20.595c-2.758,0-4.01-1.456-4.01-4.955c0-3.512,1.201-4.941,4.01-4.941
			c2.811,0,4.01,1.43,4.01,4.941C63.023,19.241,61.824,20.595,59.014,20.595z M59.002,12.933c-1.047,0-1.379,0.434-1.379,2.707
			c0,2.286,0.344,2.745,1.404,2.745s1.379-0.473,1.379-2.745C60.406,13.354,60.088,12.933,59.002,12.933z"/>
		<path fill="#FFFFFF" d="M66.527,20.595c-1.008,0-2.004-0.23-2.783-0.664l0.318-2.12c0.779,0.396,1.572,0.638,2.4,0.638
			c0.793,0,1.1-0.268,1.1-0.777c0-1.227-3.807-0.845-3.807-3.972c0-1.673,1.023-3.001,3.385-3.001c0.881,0,1.826,0.166,2.516,0.46
			l-0.281,2.081c-0.729-0.217-1.455-0.345-2.068-0.345c-0.945,0-1.148,0.28-1.148,0.69c0,1.237,3.805,0.817,3.805,3.944
			C69.963,19.42,68.686,20.595,66.527,20.595z"/>
		<path fill="#FFFFFF" d="M73.197,20.595c-1.01,0-2.004-0.23-2.783-0.664l0.318-2.12c0.779,0.396,1.57,0.638,2.4,0.638
			c0.793,0,1.098-0.268,1.098-0.777c0-1.227-3.805-0.845-3.805-3.972c0-1.673,1.021-3.001,3.385-3.001
			c0.881,0,1.826,0.166,2.516,0.46l-0.281,2.081c-0.729-0.217-1.455-0.345-2.068-0.345c-0.945,0-1.15,0.28-1.15,0.69
			c0,1.237,3.807,0.817,3.807,3.944C76.633,19.42,75.355,20.595,73.197,20.595z"/>
		<path fill="#FFFFFF" d="M82.229,18.755h-2.605l-0.369,1.674h-2.645l2.836-9.577h3.051l2.887,9.577H82.6L82.229,18.755z
			 M80.709,13.929l-0.613,2.746h1.672l-0.611-2.746l-0.191-1.021h-0.039L80.709,13.929z"/>
		<path fill="#FFFFFF" d="M92.883,17.172c0,2.248-1.201,3.423-3.652,3.423s-3.689-1.175-3.689-3.423v-6.32h2.502v6.27
			c0,0.855,0.332,1.238,1.188,1.238c0.869,0,1.162-0.357,1.162-1.238v-6.27h2.49V17.172z"/>
		<path fill="#FFFFFF" d="M100.869,20.083c-0.664,0.32-1.75,0.524-2.732,0.524c-3.168,0-4.291-1.699-4.291-4.968
			c0-3.346,1.314-4.954,4.404-4.954c0.844,0,1.801,0.153,2.49,0.42l-0.229,2.134c-0.627-0.23-1.432-0.37-2.119-0.37
			c-1.572,0-1.93,0.587-1.93,2.745c0,2.272,0.371,2.771,1.609,2.771c0.191,0,0.395-0.013,0.574-0.051v-3.128h2.223V20.083z"/>
		<path fill="#FFFFFF" d="M108.229,18.27l-0.053,2.159h-6.166v-9.577h6l0.051,2.196H104.5v1.48h2.936v2.005H104.5v1.736H108.229z"/>
		<path fill="#FFFFFF" d="M114.795,20.429l-2.859-4.419l-0.537-0.88l-0.025,0.013l0.012,1.033v4.253h-2.195v-9.577h2.094
			l3.078,4.967l0.025-0.013l-0.025-1.021l0.012-3.933h2.197v9.577H114.795z"/>
	</g>
</g>
</svg>
