<svg xmlns="http://www.w3.org/2000/svg" viewBox="0 0 264.86 14.63"><g id="_2in1_04" data-name="2in1 04"><path d="M4.71,11.13l0,.06H9.18L9.1,14.4H.15V12.08c3-3.28,5.34-5.64,5.34-7.52,0-.86-.49-1.35-1.63-1.35a5.23,5.23,0,0,0-3,1.16L0,1.42A7.64,7.64,0,0,1,4.58,0C7.69,0,9.25,1.69,9.25,4.2,9.25,6.52,7.41,8.59,4.71,11.13Z"/><path d="M11.29.15H15.1V14.4H11.29Z"/><path d="M25.53,14.4,21.28,7.83l-.8-1.31,0,0,0,1.53V14.4H17.19V.15h3.12l4.58,7.39,0,0,0-1.52,0-5.85h3.26V14.4Z"/><path d="M31.81,11.85H33.5V4.46l-2.17,1.2L31,2.77,35.07.17h2.15V11.85h1.69V14.4h-7.1Z"/><path d="M42.83,7.22c-1.33,0-1.92-.51-1.92-1.81s.59-1.82,1.92-1.82,1.89.66,1.89,1.82A1.66,1.66,0,0,1,42.83,7.22Zm0,7.41c-1.33,0-1.92-.52-1.92-1.81S41.5,11,42.83,11s1.89.66,1.89,1.82A1.66,1.66,0,0,1,42.83,14.63Z"/><path d="M57.85,14.4,55.17,8.61h-.91V14.4h-3.7V.15h3.7V5.66h1L57.89.15h4.16L58.63,7l3.59,7.43Z"/><path d="M72.52,11.19l-.08,3.21H63.27V.15H72.2l.07,3.27H67v2.2h4.37v3H67v2.58Z"/><path d="M81.11,14.4V8.81H77.65V14.4H74V.15h3.7V5.49h3.46V.15h3.72V14.4Z"/><path d="M95.13,8.57,97.9,14.4H93.61l-1.9-5.09H90.46V14.4H86.75V.15h4.92c3.61,0,5.4,1.37,5.4,4.58C97.07,6.63,96.38,8,95.13,8.57ZM91.75,3.23H90.46V6.52h1.27c1.08,0,1.46-.27,1.46-1.66S92.83,3.23,91.75,3.23Z"/><path d="M108.09,11.19,108,14.4H98.84V.15h8.93l.07,3.27h-5.3v2.2h4.37v3h-4.37v2.58Z"/><path d="M117.85,14.4,113.6,7.83l-.8-1.31,0,0,0,1.53V14.4h-3.27V.15h3.12l4.58,7.39,0,0,0-1.52,0-5.85h3.26V14.4Z"/><path d="M137.5,9.56c0,3.34-1.79,5.09-5.43,5.09s-5.49-1.75-5.49-5.09V.15h3.72V9.48c0,1.27.49,1.84,1.77,1.84s1.72-.53,1.72-1.84V.15h3.71Z"/><path d="M147.65,14.4l-4.26-6.57-.8-1.31,0,0V14.4h-3.26V.15h3.11L147,7.54l0,0L147,6l0-5.85h3.27V14.4Z"/><path d="M157.37,14.4h-5.14V.15h5.07c4.33,0,6.1,2,6.1,7.05C163.4,12.42,161.38,14.4,157.37,14.4Zm-.05-11h-1.39v7.71h1.39c1.63,0,2.18-.49,2.18-4C159.5,4,159,3.44,157.32,3.44Z"/><path d="M173,14.65a8.73,8.73,0,0,1-4.14-1l.48-3.16a7.82,7.82,0,0,0,3.57,1c1.18,0,1.63-.4,1.63-1.16,0-1.83-5.66-1.26-5.66-5.91,0-2.49,1.52-4.47,5-4.47a10,10,0,0,1,3.74.69l-.42,3.09a11.31,11.31,0,0,0-3.08-.51c-1.4,0-1.71.42-1.71,1,0,1.84,5.66,1.21,5.66,5.87C178.06,12.9,176.16,14.65,173,14.65Z"/><path d="M187.93,3.59a7.24,7.24,0,0,0-2.38-.38c-2.11,0-2.64.89-2.64,4,0,3.28.59,4.2,2.7,4.2a5.6,5.6,0,0,0,2.35-.48l.35,3a8.06,8.06,0,0,1-3.25.69c-4.07,0-6-2.32-6-7.45,0-4.79,1.91-7.29,6.26-7.29a9,9,0,0,1,3,.53Z"/><path d="M196.84,14.4V8.81h-3.46V14.4h-3.71V.15h3.71V5.49h3.46V.15h3.72V14.4Z"/><path d="M211.73,11.19l-.07,3.21h-9.18V.15h8.93l.07,3.27h-5.3v2.2h4.37v3h-4.37v2.58Z"/><path d="M224,9.56c0,3.34-1.79,5.09-5.43,5.09S213,12.9,213,9.56V.15h3.73V9.48c0,1.27.49,1.84,1.77,1.84s1.72-.53,1.72-1.84V.15H224Z"/><path d="M235,11.19l-.08,3.21h-9.18V.15h8.93l.08,3.27h-5.3v2.2h4.37v3h-4.37v2.58Z"/><path d="M244.81,8.57l2.77,5.83h-4.29l-1.9-5.09h-1.25V14.4h-3.71V.15h4.92c3.61,0,5.4,1.37,5.4,4.58C246.75,6.63,246.06,8,244.81,8.57Zm-3.38-5.34h-1.29V6.52h1.27c1.08,0,1.46-.27,1.46-1.66S242.51,3.23,241.43,3.23Z"/><path d="M256.86,14.4,252.6,7.83l-.8-1.31,0,0V14.4h-3.26V.15h3.11l4.58,7.39,0,0,0-1.52,0-5.85h3.27V14.4Z"/><path d="M263,14.63c-1.33,0-1.92-.52-1.92-1.81S261.63,11,263,11s1.9.66,1.9,1.82A1.66,1.66,0,0,1,263,14.63Z"/></g></svg>