<svg viewBox="0 0 75 25" xmlns="http://www.w3.org/2000/svg"><path d="m0 0h75v25h-75z" fill="#238c96"/><g fill="#fff"><path d="m10 8.62 1.36 3.92.26.79.26-.78 1.38-3.93h2.23v7.75h-1.85v-3.25-.83l-.26.8-1.14 3.29h-1.32l-1.14-3.29-.26-.8v4.07h-1.77v-7.74z"/><path d="m21.72 14.62v1.75h-5v-7.75h4.85v1.78h-2.86v1.2h2.37v1.62h-2.37v1.4z"/><path d="m26.54 16.37v-3h-1.88v3h-2v-7.75h2v2.9h1.88v-2.9h2v7.75z"/><path d="m34.31 13.2 1.51 3.17h-2.33l-1-2.77h-.68v2.77h-2v-7.75h2.67c2 0 2.93.75 2.93 2.49a2.1 2.1 0 0 1 -1.1 2.09zm-1.84-2.9h-.7v1.78h.69c.59 0 .8-.14.8-.9s-.2-.88-.79-.88z"/><path d="m39 8.62h2.07v7.75h-2.07z"/><path d="m46.93 16.37-2.31-3.58-.43-.71v4.28h-1.79v-7.74h1.69l2.49 4v-.83-3.17h1.78v7.75z"/><path d="m51.6 10.43v1.36h2.4v1.72h-2.4v2.86h-2v-7.75h4.84v1.81z"/><path d="m58.25 16.5c-2.23 0-3.24-1.18-3.24-4s1-4 3.24-4 3.24 1.16 3.24 4-.97 4-3.24 4zm0-6.19c-.84 0-1.11.35-1.11 2.18s.28 2.22 1.13 2.22 1.12-.38 1.12-2.22-.27-2.18-1.15-2.18z"/><path d="m64.47 16.5a4.74 4.74 0 0 1 -2.25-.5l.26-1.71a4.27 4.27 0 0 0 1.94.52c.64 0 .89-.22.89-.63 0-1-3.08-.69-3.08-3.21 0-1.36.83-2.43 2.74-2.43a5.4 5.4 0 0 1 2 .37l-.22 1.68a6.3 6.3 0 0 0 -1.68-.27c-.76 0-.92.22-.92.55 0 1 3.07.66 3.07 3.19.03 1.49-1 2.44-2.75 2.44z"/></g></svg>