<?xml version="1.0" encoding="utf-8"?>
<!-- Generator: Adobe Illustrator 16.0.4, SVG Export Plug-In . SVG Version: 6.00 Build 0)  -->
<!DOCTYPE svg PUBLIC "-//W3C//DTD SVG 1.1//EN" "http://www.w3.org/Graphics/SVG/1.1/DTD/svg11.dtd">
<svg version="1.1" id="Ebene_1" xmlns="http://www.w3.org/2000/svg" xmlns:xlink="http://www.w3.org/1999/xlink" x="0px" y="0px"
	 width="416.665px" height="53.309px" viewBox="0 0 416.665 53.309" enable-background="new 0 0 416.665 53.309"
	 xml:space="preserve">
<g>
	<path d="M14.609,17.819l-0.12,5.07H0V0.39h14.1l0.119,5.16H5.85v3.48h6.899v4.71H5.85v4.08H14.609z"/>
	<path d="M30.029,22.889L23.309,12.51l-1.26-2.07l-0.06,0.03l0.03,2.43v9.99h-5.16V0.39h4.92l7.229,11.669l0.06-0.03l-0.06-2.4
		l0.03-9.24h5.16v22.499H30.029z"/>
	<path d="M47.068,5.64v17.25H41.1V5.64H36l0.119-5.25h15.93l0.12,5.25H47.068z"/>
	<path d="M62.1,22.889h-8.131V0.39h8.01c6.84,0,9.631,3.18,9.631,11.129C71.609,19.769,68.429,22.889,62.1,22.889z M62.01,5.58
		h-2.19v12.179h2.19c2.579,0,3.449-0.78,3.449-6.3C65.459,6.48,64.648,5.58,62.01,5.58z"/>
	<path d="M88.679,17.819l-0.12,5.07H74.069V0.39h14.1l0.12,5.16H79.92v3.48h6.898v4.71H79.92v4.08H88.679z"/>
	<path d="M103.979,5.82c-0.99-0.36-2.34-0.6-3.75-0.6c-3.329,0-4.17,1.41-4.17,6.33c0,5.189,0.931,6.629,4.26,6.629
		c1.381,0,2.67-0.27,3.721-0.75l0.54,4.77c-1.351,0.66-3.39,1.08-5.13,1.08c-6.42,0-9.539-3.66-9.539-11.76
		C89.91,3.96,92.939,0,99.809,0c1.59,0,3.541,0.36,4.74,0.84L103.979,5.82z"/>
	<path d="M118.258,22.889l-4.229-9.149h-1.44v9.149h-5.851V0.39h5.851v8.7h1.56l4.17-8.7h6.57l-5.4,10.77l5.67,11.729H118.258z"/>
	<path d="M141.418,17.819l-0.119,5.07h-14.49V0.39h14.1l0.12,5.16h-8.37v3.48h6.9v4.71h-6.9v4.08H141.418z"/>
	<path d="M156.838,22.889l-6.72-10.379l-1.26-2.07l-0.06,0.03l0.029,2.43v9.99h-5.16V0.39h4.92l7.23,11.669l0.06-0.03l-0.06-2.4
		l0.029-9.24h5.16v22.499H156.838z"/>
	<path d="M176.697,23.279c-2.369,0-4.709-0.54-6.539-1.56l0.75-4.98c1.83,0.93,3.689,1.5,5.64,1.5c1.86,0,2.58-0.63,2.58-1.83
		c0-2.88-8.94-1.98-8.94-9.33c0-3.93,2.4-7.049,7.95-7.049c2.069,0,4.29,0.39,5.909,1.08L183.388,6c-1.71-0.51-3.42-0.81-4.86-0.81
		c-2.22,0-2.699,0.66-2.699,1.62c0,2.91,8.939,1.92,8.939,9.27C184.768,20.519,181.768,23.279,176.697,23.279z"/>
	<path d="M187.107,0.39h6.03v22.499h-6.03V0.39z"/>
	<path d="M211.047,17.819l-0.12,5.07h-14.489V0.39h14.1l0.119,5.16h-8.369v3.48h6.899v4.71h-6.899v4.08H211.047z"/>
	<path d="M237.086,15.239c0,5.28-2.82,8.04-8.58,8.04s-8.67-2.76-8.67-8.04V0.39h5.881V15.12c0,2.01,0.779,2.91,2.789,2.91
		c2.04,0,2.73-0.84,2.73-2.91V0.39h5.85V15.239z"/>
	<path d="M253.105,22.889l-6.72-10.379l-1.26-2.07l-0.06,0.03l0.029,2.43v9.99h-5.159V0.39h4.92l7.229,11.669l0.06-0.03l-0.06-2.4
		l0.029-9.24h5.16v22.499H253.105z"/>
	<path d="M266.216,23.279c-2.37,0-4.71-0.54-6.54-1.56l0.75-4.98c1.83,0.93,3.689,1.5,5.64,1.5c1.859,0,2.58-0.63,2.58-1.83
		c0-2.88-8.939-1.98-8.939-9.33c0-3.93,2.399-7.049,7.949-7.049c2.07,0,4.29,0.39,5.91,1.08L272.905,6
		c-1.71-0.51-3.42-0.81-4.86-0.81c-2.22,0-2.699,0.66-2.699,1.62c0,2.91,8.939,1.92,8.939,9.27
		C274.285,20.519,271.285,23.279,266.216,23.279z"/>
	<path d="M290.995,17.819l-0.12,5.07h-14.489V0.39h14.099l0.12,5.16h-8.369v3.48h6.899v4.71h-6.899v4.08H290.995z"/>
	<path d="M306.476,13.68l4.38,9.209h-6.78l-3-8.04h-1.979v8.04h-5.85V0.39h7.77c5.699,0,8.52,2.16,8.52,7.229
		C309.535,10.62,308.455,12.839,306.476,13.68z M301.136,5.25h-2.04v5.189h2.01c1.71,0,2.31-0.42,2.31-2.61
		C303.415,5.79,302.846,5.25,301.136,5.25z"/>
	<path d="M326.936,17.819l-0.12,5.07h-14.489V0.39h14.099l0.12,5.16h-8.369v3.48h6.899v4.71h-6.899v4.08H326.936z"/>
	<path d="M13.229,43.68l4.381,9.209h-6.78l-3-8.04H5.85v8.04H0V30.39h7.77c5.699,0,8.52,2.16,8.52,7.229
		C16.289,40.62,15.209,42.839,13.229,43.68z M7.889,35.25H5.85v5.189h2.01c1.71,0,2.311-0.42,2.311-2.61
		C10.17,35.79,9.6,35.25,7.889,35.25z"/>
	<path d="M27.449,53.279c-6.48,0-9.42-3.42-9.42-11.64c0-8.25,2.82-11.609,9.42-11.609s9.419,3.36,9.419,11.609
		C36.868,50.099,34.049,53.279,27.449,53.279z M27.419,35.28c-2.46,0-3.24,1.02-3.24,6.36c0,5.37,0.81,6.45,3.3,6.45
		s3.24-1.11,3.24-6.45C30.719,36.27,29.969,35.28,27.419,35.28z"/>
	<path d="M48.088,52.889h-8.76V30.39h8.82c4.83,0,7.289,2.25,7.289,5.82c0,2.37-1.079,3.9-2.76,4.709v0.06
		c2.25,0.75,3.45,2.49,3.45,5.28C56.128,50.309,53.698,52.889,48.088,52.889z M47.908,35.31h-2.91v3.959h2.971
		c1.35,0,1.83-0.51,1.83-2.04C49.799,35.76,49.289,35.31,47.908,35.31z M48.059,43.649h-3.061v4.44h3.18
		c1.471,0,2.011-0.48,2.011-2.25C50.188,44.279,49.709,43.649,48.059,43.649z"/>
	<path d="M75.328,45.239c0,5.28-2.82,8.04-8.58,8.04s-8.67-2.76-8.67-8.04V30.39h5.881V45.12c0,2.01,0.779,2.91,2.789,2.91
		c2.04,0,2.73-0.84,2.73-2.91V30.39h5.85V45.239z"/>
	<path d="M83.849,53.279c-2.37,0-4.71-0.54-6.54-1.56l0.75-4.98c1.83,0.93,3.689,1.5,5.641,1.5c1.859,0,2.579-0.63,2.579-1.83
		c0-2.88-8.939-1.98-8.939-9.33c0-3.93,2.399-7.049,7.95-7.049c2.069,0,4.289,0.39,5.909,1.08L90.539,36
		c-1.711-0.51-3.42-0.81-4.86-0.81c-2.22,0-2.7,0.66-2.7,1.62c0,2.91,8.939,1.92,8.939,9.27
		C91.918,50.519,88.918,53.279,83.849,53.279z"/>
	<path d="M103.348,35.64v17.25h-5.969V35.64h-5.1l0.119-5.25h15.93l0.12,5.25H103.348z"/>
	<path d="M124.857,47.819l-0.119,5.07h-14.49V30.39h14.1l0.121,5.16h-8.37v3.48h6.899v4.71h-6.899v4.08H124.857z"/>
	<path d="M140.277,52.889l-6.719-10.379l-1.26-2.07l-0.061,0.03l0.03,2.43v9.99h-5.16V30.39h4.92l7.229,11.669l0.061-0.03
		l-0.061-2.4l0.03-9.24h5.159v22.499H140.277z"/>
	<path d="M154.498,30.39h6.029v22.499h-6.029V30.39z"/>
	<path d="M176.996,52.889l-6.719-10.379l-1.26-2.07l-0.061,0.03l0.03,2.43v9.99h-5.16V30.39h4.92l7.229,11.669l0.061-0.03
		l-0.061-2.4l0.03-9.24h5.159v22.499H176.996z"/>
	<path d="M192.357,52.889h-8.131V30.39h8.01c6.84,0,9.631,3.18,9.631,11.129C201.867,49.769,198.687,52.889,192.357,52.889z
		 M192.268,35.58h-2.19v12.179h2.19c2.579,0,3.449-0.78,3.449-6.3C195.717,36.48,194.906,35.58,192.268,35.58z"/>
	<path d="M221.367,45.239c0,5.28-2.82,8.04-8.58,8.04s-8.67-2.76-8.67-8.04V30.39h5.88V45.12c0,2.01,0.78,2.91,2.79,2.91
		c2.039,0,2.729-0.84,2.729-2.91V30.39h5.851V45.239z"/>
	<path d="M229.888,53.279c-2.37,0-4.71-0.54-6.54-1.56l0.75-4.98c1.83,0.93,3.689,1.5,5.64,1.5c1.859,0,2.58-0.63,2.58-1.83
		c0-2.88-8.94-1.98-8.94-9.33c0-3.93,2.4-7.049,7.95-7.049c2.07,0,4.29,0.39,5.91,1.08l-0.66,4.89c-1.71-0.51-3.42-0.81-4.86-0.81
		c-2.22,0-2.699,0.66-2.699,1.62c0,2.91,8.939,1.92,8.939,9.27C237.957,50.519,234.957,53.279,229.888,53.279z"/>
	<path d="M249.387,35.64v17.25h-5.97V35.64h-5.101l0.12-5.25h15.93l0.12,5.25H249.387z"/>
	<path d="M269.517,43.68l4.38,9.209h-6.78l-3-8.04h-1.979v8.04h-5.85V30.39h7.77c5.699,0,8.52,2.16,8.52,7.229
		C272.576,40.62,271.496,42.839,269.517,43.68z M264.177,35.25h-2.04v5.189h2.01c1.71,0,2.31-0.42,2.31-2.61
		C266.456,35.79,265.887,35.25,264.177,35.25z"/>
	<path d="M275.605,30.39h6.03v22.499h-6.03V30.39z"/>
	<path d="M299.545,47.819l-0.12,5.07h-14.489V30.39h14.099l0.12,5.16h-8.369v3.48h6.899v4.71h-6.899v4.08H299.545z"/>
	<path d="M307.676,53.279c-2.37,0-4.71-0.54-6.54-1.56l0.75-4.98c1.83,0.93,3.689,1.5,5.64,1.5c1.86,0,2.58-0.63,2.58-1.83
		c0-2.88-8.939-1.98-8.939-9.33c0-3.93,2.399-7.049,7.949-7.049c2.07,0,4.29,0.39,5.91,1.08l-0.66,4.89
		c-1.71-0.51-3.42-0.81-4.86-0.81c-2.22,0-2.699,0.66-2.699,1.62c0,2.91,8.939,1.92,8.939,9.27
		C315.745,50.519,312.745,53.279,307.676,53.279z"/>
	<path d="M328.886,48.959h-6.12l-0.87,3.93h-6.209l6.659-22.499h7.17l6.779,22.499h-6.539L328.886,48.959z M325.315,37.62
		l-1.439,6.45h3.93l-1.44-6.45l-0.449-2.4h-0.091L325.315,37.62z"/>
	<path d="M353.904,45.239c0,5.28-2.82,8.04-8.58,8.04s-8.669-2.76-8.669-8.04V30.39h5.879V45.12c0,2.01,0.78,2.91,2.79,2.91
		c2.04,0,2.73-0.84,2.73-2.91V30.39h5.85V45.239z"/>
	<path d="M372.655,52.079c-1.561,0.75-4.11,1.23-6.42,1.23c-7.439,0-10.08-3.99-10.08-11.669c0-7.86,3.09-11.64,10.35-11.64
		c1.98,0,4.23,0.36,5.85,0.99l-0.54,5.01c-1.47-0.54-3.359-0.87-4.979-0.87c-3.689,0-4.529,1.38-4.529,6.45
		c0,5.34,0.869,6.51,3.779,6.51c0.45,0,0.93-0.03,1.351-0.12v-7.35h5.22V52.079z"/>
	<path d="M389.934,47.819l-0.12,5.07h-14.489V30.39h14.099l0.12,5.16h-8.369v3.48h6.899v4.71h-6.899v4.08H389.934z"/>
	<path d="M405.415,43.68l4.38,9.209h-6.78l-3-8.04h-1.979v8.04h-5.85V30.39h7.77c5.699,0,8.52,2.16,8.52,7.229
		C408.475,40.62,407.395,42.839,405.415,43.68z M400.075,35.25h-2.04v5.189h2.01c1.71,0,2.31-0.42,2.31-2.61
		C402.354,35.79,401.785,35.25,400.075,35.25z"/>
	<path d="M413.665,53.249c-2.1,0-3.029-0.81-3.029-2.85c0-1.83,0.93-2.88,3.029-2.88s3,1.05,3,2.88
		C416.665,52.109,415.765,53.249,413.665,53.249z"/>
</g>
</svg>
