<?xml version="1.0" encoding="utf-8"?>
<!-- Generator: Adobe Illustrator 23.1.1, SVG Export Plug-In . SVG Version: 6.00 Build 0)  -->
<!DOCTYPE svg PUBLIC "-//W3C//DTD SVG 1.1//EN" "http://www.w3.org/Graphics/SVG/1.1/DTD/svg11.dtd" [
	<!ENTITY ns_extend "http://ns.adobe.com/Extensibility/1.0/">
	<!ENTITY ns_ai "http://ns.adobe.com/AdobeIllustrator/10.0/">
	<!ENTITY ns_graphs "http://ns.adobe.com/Graphs/1.0/">
	<!ENTITY ns_vars "http://ns.adobe.com/Variables/1.0/">
	<!ENTITY ns_imrep "http://ns.adobe.com/ImageReplacement/1.0/">
	<!ENTITY ns_sfw "http://ns.adobe.com/SaveForWeb/1.0/">
	<!ENTITY ns_custom "http://ns.adobe.com/GenericCustomNamespace/1.0/">
	<!ENTITY ns_adobe_xpath "http://ns.adobe.com/XPath/1.0/">
]>
<svg version="1.1" id="Ebene_1" xmlns:x="&ns_extend;" xmlns:i="&ns_ai;" xmlns:graph="&ns_graphs;"
	 xmlns="http://www.w3.org/2000/svg" xmlns:xlink="http://www.w3.org/1999/xlink" x="0px" y="0px" viewBox="0 0 154.31 28.34"
	 style="enable-background:new 0 0 154.31 28.34;" xml:space="preserve">
<style type="text/css">
	.st0{fill-rule:evenodd;clip-rule:evenodd;}
</style>
<metadata>
	<sfw  xmlns="&ns_sfw;">
		<slices></slices>
		<sliceSourceBounds  bottomLeftOrigin="true" height="13.48" width="127.92" x="13.2" y="-21.16"></sliceSourceBounds>
	</sfw>
</metadata>
<path class="st0" d="M141.12,18.99h-2.88l-1.32-3.64h-0.87v3.64h-2.62V7.8l2.62-0.12v5.57h0.87l1.32-3.08h2.83l-1.88,4L141.12,18.99
	z M130.72,16.95c0.48,0,0.91-0.09,1.29-0.23l0.17,2c-0.48,0.27-1.17,0.43-2.03,0.43c-2.52,0-3.9-1.47-3.9-4.51
	c0-2.95,1.19-4.61,3.93-4.61c0.67,0,1.43,0.14,1.93,0.35l-0.14,2.17c-0.38-0.11-0.81-0.2-1.19-0.2c-1.38,0-1.8,0.56-1.8,2.29
	C128.98,16.28,129.64,16.95,130.72,16.95z M123.16,18.28l-0.04-0.01c-0.48,0.56-1.19,0.86-2.06,0.86c-1.59,0-2.61-0.97-2.61-2.95
	c0-1.64,1.13-2.78,2.96-2.78c0.56,0,0.99,0.06,1.36,0.17v-0.35c0-0.66-0.35-1.02-1.38-1.02c-0.9,0-1.44,0.14-2.22,0.45l-0.2-2.06
	c0.84-0.37,1.84-0.55,2.91-0.55c2.6,0,3.48,1.09,3.48,3.56v5.39h-2.02L123.16,18.28z M122.75,15.3c-0.17-0.07-0.45-0.13-0.84-0.13
	c-0.68,0-0.99,0.3-0.99,0.98c0,0.68,0.32,0.94,0.84,0.94c0.52,0,0.99-0.32,0.99-0.81V15.3z M113.65,15.63h-0.9v3.35h-2.83V8.18h3.73
	c3.01,0,4.22,1.17,4.22,3.8C117.86,14.32,116.69,15.63,113.65,15.63z M113.65,10.53h-0.9v2.86h0.9c0.93,0,1.28-0.22,1.28-1.43
	C114.92,10.81,114.65,10.53,113.65,10.53z M102.66,19.12c-0.64,0-1.2-0.13-1.68-0.53l-0.04,0.01l0.03,1.17v1.4h-2.64V10.23l1.84-0.1
	l0.46,0.66c0.55-0.48,1.29-0.75,2.07-0.75c2,0,3.12,1.11,3.12,4.52C105.82,17.59,104.59,19.12,102.66,19.12z M101.98,12.29
	c-0.43,0-0.81,0.23-1.01,0.56v3.54c0.2,0.34,0.52,0.59,0.99,0.59c0.71,0,1.15-0.37,1.15-2.48C103.1,12.69,102.81,12.29,101.98,12.29
	z M97.12,15.8c0,1.94-1.17,3.18-3.88,3.18h-4.23V8.18h4.26c2.33,0,3.52,1.08,3.52,2.79c0,1.14-0.52,1.87-1.33,2.26v0.03
	C96.54,13.63,97.12,14.46,97.12,15.8z M93.15,10.55h-1.41v1.9h1.44c0.65,0,0.88-0.24,0.88-0.98C94.07,10.76,93.82,10.55,93.15,10.55
	z M93.22,14.55h-1.48v2.13h1.54c0.71,0,0.97-0.23,0.97-1.08C94.25,14.85,94.02,14.55,93.22,14.55z M82.77,16.72
	c0.67,0,1.29-0.13,1.8-0.36l0.26,2.29c-0.65,0.32-1.64,0.52-2.48,0.52c-3.1,0-4.61-1.76-4.61-5.64C77.74,9.9,79.2,8,82.52,8
	c0.77,0,1.71,0.17,2.29,0.4l-0.28,2.39c-0.48-0.17-1.13-0.29-1.81-0.29c-1.61,0-2.01,0.68-2.01,3.04
	C80.71,16.03,81.16,16.72,82.77,16.72z M70.18,16.55h3.39l-0.06,2.43h-6.83v-1.76c2.25-2.49,4.07-4.28,4.07-5.7
	c0-0.65-0.38-1.02-1.25-1.02c-0.83,0-1.58,0.37-2.29,0.88l-0.65-2.23c0.87-0.63,2.03-1.08,3.49-1.08c2.38,0,3.57,1.28,3.57,3.18
	c0,1.76-1.41,3.33-3.46,5.26L70.18,16.55z M61.81,16.55h3.39l-0.06,2.43h-6.83v-1.76c2.25-2.49,4.07-4.28,4.07-5.7
	c0-0.65-0.38-1.02-1.25-1.02c-0.83,0-1.58,0.37-2.29,0.88L58.2,9.15c0.87-0.63,2.03-1.08,3.49-1.08c2.38,0,3.57,1.28,3.57,3.18
	c0,1.76-1.41,3.33-3.47,5.26L61.81,16.55z M50.93,20.66l4.47-12.93h2.26l-4.54,12.93H50.93z M47.39,12.09c2.1,0,3.32,1.05,3.32,3.15
	c0,2.42-1.19,3.89-3.93,3.89c-1.16,0-2.25-0.25-3.15-0.75l0.46-2.13c0.8,0.39,1.45,0.59,2.38,0.59c1.16,0,1.46-0.45,1.46-1.38
	c0-0.85-0.46-1.15-1.45-1.15c-0.56,0-1.26,0.09-1.8,0.27l-0.9-1.04l0.39-5.36h5.91l0.1,2.39h-3.78l-0.1,1.6
	C46.65,12.12,47,12.09,47.39,12.09z M41.81,17.06v1.93h-2.56v-1.93h-4.29l-0.23-1.76l3.77-7.11h3.32v6.6h0.89l-0.06,2.27H41.81z
	 M39.47,10.89l-1.94,3.89h1.8l0.1-2.71l0.07-1.17L39.47,10.89z M27.84,18.99l-1.45-3.86h-0.96v3.86h-2.83V8.18h3.75
	c2.76,0,4.12,1.04,4.12,3.47c0,1.44-0.52,2.51-1.48,2.91l2.12,4.42H27.84z M26.42,10.52h-0.99v2.49h0.97c0.83,0,1.12-0.2,1.12-1.25
	C27.52,10.78,27.25,10.52,26.42,10.52z M21.31,15.8c0,1.94-1.18,3.18-3.89,3.18H13.2V8.18h4.26c2.33,0,3.52,1.08,3.52,2.79
	c0,1.14-0.52,1.87-1.33,2.26v0.03C20.73,13.63,21.31,14.46,21.31,15.8z M17.34,10.55h-1.41v1.9h1.44c0.65,0,0.88-0.24,0.88-0.98
	C18.25,10.76,18.01,10.55,17.34,10.55z M17.41,14.55h-1.48v2.13h1.54c0.71,0,0.97-0.23,0.97-1.08
	C18.44,14.85,18.21,14.55,17.41,14.55z"/>
</svg>
