<?xml version="1.0" encoding="utf-8"?>
<!-- Generator: Adobe Illustrator 23.1.1, SVG Export Plug-In . SVG Version: 6.00 Build 0)  -->
<!DOCTYPE svg PUBLIC "-//W3C//DTD SVG 1.1//EN" "http://www.w3.org/Graphics/SVG/1.1/DTD/svg11.dtd" [
	<!ENTITY ns_extend "http://ns.adobe.com/Extensibility/1.0/">
	<!ENTITY ns_ai "http://ns.adobe.com/AdobeIllustrator/10.0/">
	<!ENTITY ns_graphs "http://ns.adobe.com/Graphs/1.0/">
	<!ENTITY ns_vars "http://ns.adobe.com/Variables/1.0/">
	<!ENTITY ns_imrep "http://ns.adobe.com/ImageReplacement/1.0/">
	<!ENTITY ns_sfw "http://ns.adobe.com/SaveForWeb/1.0/">
	<!ENTITY ns_custom "http://ns.adobe.com/GenericCustomNamespace/1.0/">
	<!ENTITY ns_adobe_xpath "http://ns.adobe.com/XPath/1.0/">
]>
<svg version="1.1" id="Ebene_1" xmlns:x="&ns_extend;" xmlns:i="&ns_ai;" xmlns:graph="&ns_graphs;"
	 xmlns="http://www.w3.org/2000/svg" xmlns:xlink="http://www.w3.org/1999/xlink" x="0px" y="0px" viewBox="0 0 92.24 45.59"
	 style="enable-background:new 0 0 92.24 45.59;" xml:space="preserve">
<style type="text/css">
	.st0{fill-rule:evenodd;clip-rule:evenodd;fill:#FFED00;}
</style>
<metadata>
	<sfw  xmlns="&ns_sfw;">
		<slices></slices>
		<sliceSourceBounds  bottomLeftOrigin="true" height="33.24" width="77.67" x="7.61" y="-38.46"></sliceSourceBounds>
	</sfw>
</metadata>
<path class="st0" d="M84.49,37.12c-0.56,0-0.79-0.21-0.79-0.76c0-0.48,0.24-0.75,0.79-0.75c0.55,0,0.78,0.27,0.78,0.75
	C85.27,36.84,85.04,37.12,84.49,37.12z M77.68,22.81c-1.84,0-3.02-0.27-4.17-0.8l0.6-3.52c0.99,0.41,1.96,0.64,3.15,0.64
	c2.14,0,2.95-1.05,3.2-3.32l-0.05-0.05c-0.76,0.43-1.66,0.62-2.67,0.62c-3.32,0-5.09-2.04-5.09-5.26c0-3.73,1.93-5.9,5.92-5.9
	c3.94,0,6.17,2.45,6.17,8.21C84.75,20.09,82.4,22.81,77.68,22.81z M78.51,8.86c-1.06,0-1.61,0.53-1.61,2.06
	c0,1.44,0.44,2.08,1.73,2.08c0.85,0,1.5-0.34,1.77-0.94C80.37,9.48,79.68,8.86,78.51,8.86z M74.25,31.72l-1.2,5.3h-1.67l-0.6-3.17
	l-0.12-0.71h-0.03l-0.12,0.71l-0.62,3.17h-1.67l-1.28-5.3h1.37l0.64,3.45l0.12,0.7h0.03l0.11-0.7l0.69-3.45h1.43l0.71,3.47
	l0.13,0.69h0.03l0.11-0.7l0.6-3.46H74.25z M64.08,22.81c-1.84,0-3.02-0.27-4.17-0.8l0.6-3.52c0.99,0.41,1.96,0.64,3.15,0.64
	c2.14,0,2.95-1.05,3.2-3.32l-0.05-0.05c-0.76,0.43-1.66,0.62-2.67,0.62c-3.32,0-5.09-2.04-5.09-5.26c0-3.73,1.93-5.9,5.92-5.9
	c3.94,0,6.17,2.45,6.17,8.21C71.14,20.09,68.8,22.81,64.08,22.81z M64.9,8.86c-1.06,0-1.61,0.53-1.61,2.06
	c0,1.44,0.44,2.08,1.73,2.08c0.85,0,1.5-0.34,1.77-0.94C66.77,9.48,66.08,8.86,64.9,8.86z M50.47,22.81c-1.84,0-3.02-0.27-4.17-0.8
	l0.6-3.52c0.99,0.41,1.96,0.64,3.15,0.64c2.14,0,2.95-1.05,3.2-3.32l-0.05-0.05c-0.76,0.43-1.66,0.62-2.67,0.62
	c-3.31,0-5.09-2.04-5.09-5.26c0-3.73,1.93-5.9,5.92-5.9c3.94,0,6.17,2.45,6.17,8.21C57.54,20.09,55.19,22.81,50.47,22.81z
	 M51.3,8.86c-1.06,0-1.61,0.53-1.61,2.06c0,1.44,0.44,2.08,1.73,2.08c0.85,0,1.5-0.34,1.77-0.94C53.17,9.48,52.48,8.86,51.3,8.86z
	 M41.73,22.86c-1.61,0-2.33-0.62-2.33-2.17c0-1.4,0.71-2.2,2.33-2.2c1.61,0,2.3,0.8,2.3,2.2C44.04,21.99,43.35,22.86,41.73,22.86z
	 M37.71,17.41c0,3.29-2.05,5.4-6.52,5.4c-1.89,0-3.59-0.5-4.79-1.19l0.76-3.39c1.24,0.62,2.46,0.94,3.84,0.94
	c1.59,0,2.37-0.66,2.37-1.88c0-1.12-0.62-1.97-3.71-1.97v-3.09c2.97,0,3.59-0.66,3.59-1.83c0-0.89-0.6-1.42-2.12-1.42
	c-1.5,0-2.79,0.5-3.87,1.37l-0.99-3.43c1.29-1.01,3.2-1.69,5.2-1.69c3.73,0,5.89,1.83,5.89,4.87c0,1.55-0.71,2.79-2.07,3.54v0.05
	C36.86,14.37,37.71,15.61,37.71,17.41z M28.25,31.92l-0.11,1.11c-0.44-0.18-1.03-0.27-1.43-0.27c-0.45,0-0.7,0.18-0.7,0.45
	c0,0.8,2.44,0.32,2.44,2.15c0,1.06-0.59,1.77-2.03,1.77c-0.64,0-1.22-0.12-1.67-0.37l0.14-1.12c0.44,0.25,1.07,0.38,1.52,0.38
	c0.55,0,0.78-0.22,0.78-0.53c0-0.85-2.47-0.36-2.47-2.21c0-0.95,0.65-1.64,2.02-1.64C27.28,31.63,27.8,31.74,28.25,31.92z
	 M23.13,31.15c-0.53,0-0.78-0.15-0.78-0.58c0-0.38,0.26-0.59,0.78-0.59c0.54,0,0.77,0.2,0.77,0.59
	C23.9,30.96,23.66,31.15,23.13,31.15z M18.14,34.73c0.07,0.88,0.5,1.22,1.42,1.22c0.5,0,0.97-0.09,1.43-0.26l0.15,1.09
	c-0.45,0.2-1.06,0.34-1.74,0.34c-1.84,0-2.66-0.96-2.66-2.82c0-1.69,0.75-2.68,2.35-2.68c1.36,0,2.2,0.79,2.2,2.47
	c0,0.2-0.01,0.45-0.03,0.64H18.14z M19.09,32.75c-0.66,0-0.91,0.31-0.98,1.08h1.92C20.02,33.05,19.67,32.75,19.09,32.75z
	 M16.92,11.17c-1.59,0-2.47,0.59-2.88,1.95h4.02l-0.41,1.93h-3.86v0.7h3.65l-0.39,1.87H14c0.43,1.64,1.43,2.16,2.88,2.16
	c0.69,0,1.37-0.19,2-0.43l0.26,2.75c-0.84,0.43-1.9,0.66-3.25,0.66c-3.25,0-5.21-1.66-5.8-5.14H8.63l0.02-1.87H9.9v-0.7H8.64
	l-0.02-1.93h1.45c0.63-3.21,2.74-5.2,5.98-5.2c1.29,0,2.27,0.19,3.1,0.51l-0.69,3C18.01,11.27,17.5,11.17,16.92,11.17z M12.55,32.71
	c0,1.38-0.74,2.18-2.58,2.18H9.09v2.13H7.61v-6.56h2.37C11.81,30.46,12.55,31.18,12.55,32.71z M9.09,33.71h0.88
	c0.73,0,1.05-0.18,1.05-1.01c0-0.79-0.28-1.01-1.05-1.01H9.09V33.71z M14.41,32.59h0.03c0.33-0.64,0.85-0.95,1.46-0.95
	c0.24,0,0.44,0.03,0.58,0.08l-0.09,1.34c-0.17-0.05-0.37-0.09-0.58-0.09c-0.71,0-1.24,0.52-1.24,1.4v2.66H13.2v-5.26l1.09-0.05
	L14.41,32.59z M23.82,37.02h-1.4v-5.26l1.4-0.06V37.02z M31.55,31.62c1.37,0,2.2,0.79,2.2,2.47c0,0.2-0.01,0.45-0.03,0.64h-3.11
	c0.07,0.88,0.5,1.22,1.42,1.22c0.5,0,0.97-0.09,1.43-0.26l0.15,1.09c-0.45,0.2-1.07,0.34-1.74,0.34c-1.84,0-2.66-0.96-2.66-2.82
	C29.2,32.61,29.95,31.62,31.55,31.62z M32.5,33.83c-0.02-0.78-0.37-1.08-0.94-1.08c-0.66,0-0.92,0.31-0.98,1.08H32.5z M39.2,32.87
	l-0.01-0.02h-2.3l0.04-1.13h3.84v0.94l-1.95,2.66l-0.42,0.54l0.01,0.03h2.45l-0.03,1.13h-4v-0.95l1.95-2.65L39.2,32.87z
	 M44.11,32.87l-0.01-0.02h-2.3l0.04-1.13h3.84v0.94l-1.95,2.66l-0.42,0.54l0.01,0.03h2.45l-0.03,1.13h-4v-0.95l1.96-2.65
	L44.11,32.87z M46.68,35.43c0-0.35,0.2-0.7,0.64-0.91c-0.35-0.25-0.58-0.65-0.58-1.25c0-0.96,0.56-1.64,2.04-1.64
	c0.46,0,0.95,0.07,1.33,0.29l0.91-0.29l0.28,0.65l-0.56,0.44c0.05,0.16,0.08,0.35,0.08,0.56c0,1.02-0.58,1.62-2.03,1.62
	c-0.23,0-0.46-0.02-0.67-0.05c-0.11,0.06-0.19,0.16-0.19,0.25c0,0.13,0.12,0.23,0.35,0.24l1.27,0.07c1.25,0.07,1.73,0.53,1.73,1.35
	c0,1.06-0.71,1.71-2.45,1.71c-1.53,0-2.17-0.59-2.17-1.4c0-0.31,0.14-0.62,0.41-0.86C46.86,36.04,46.68,35.79,46.68,35.43z
	 M48.77,33.95c0.57,0,0.74-0.18,0.74-0.66s-0.2-0.65-0.7-0.65c-0.53,0-0.71,0.19-0.71,0.65C48.09,33.82,48.36,33.95,48.77,33.95z
	 M48.81,37.44c1,0,1.25-0.19,1.25-0.49c0-0.25-0.14-0.36-0.74-0.4l-1.27-0.09c-0.14,0.13-0.22,0.29-0.22,0.43
	C47.83,37.26,48.11,37.44,48.81,37.44z M53.6,37.02h-1.38v-6.81l1.38-0.06V37.02z M55.4,35.61c0.55,0,0.78,0.27,0.78,0.75
	c0,0.47-0.23,0.76-0.78,0.76c-0.56,0-0.79-0.21-0.79-0.76C54.61,35.88,54.84,35.61,55.4,35.61z M62.54,34.29l0.25,0.66h0.03
	l0.25-0.66l1.54-3.83h1.64v6.56h-1.36v-3.34l0.02-0.71l-0.03-0.01l-0.25,0.67l-1.36,3.39h-0.99l-1.35-3.38l-0.25-0.66l-0.02,0.01
	l0.01,0.71v3.33h-1.31v-6.56h1.64L62.54,34.29z M76.98,35.87c0.72,0,1.04-0.26,1.04-0.72c0-1.03-3.04-0.59-3.04-2.79
	c0-1.11,0.72-2.01,2.39-2.01c0.64,0,1.34,0.13,1.85,0.34l-0.18,1.24c-0.54-0.17-1.09-0.28-1.59-0.28c-0.82,0-1.04,0.28-1.04,0.63
	c0,1.02,3.04,0.55,3.04,2.77c0,1.29-0.91,2.09-2.45,2.09c-0.77,0-1.47-0.18-2.04-0.49l0.19-1.27
	C75.73,35.69,76.33,35.87,76.98,35.87z M80.61,30.52l1.07-0.1v1.3h1.19v1.01h-1.19v2.71c0,0.41,0.21,0.59,0.63,0.59
	c0.14,0,0.32-0.03,0.42-0.06l0.08,0.99c-0.18,0.08-0.54,0.15-0.92,0.15c-1.07,0-1.58-0.61-1.58-1.62v-2.75h-0.6v-1.01h0.66
	L80.61,30.52z"/>
</svg>
