<svg enable-background="new 0 0 643.8 600" viewBox="0 0 643.8 600" xmlns="http://www.w3.org/2000/svg"><path d="m91.9 482.2 372.5-.4 151.9-.1.1-60.3-46.2-72.6 46.2-71.2.1-60.6h-525l-82 133.8v.1z" fill="#020203"/><path clip-rule="evenodd" d="m519.6 317.9c-3.7-1.3-7.8-2.1-12.6-2.1-12.9 0-20.1 4.8-23.4 15.9h32.7l-3.3 15.8h-31.4v5.7h29.6l-3.2 15.3h-24.7c3.5 13.4 11.6 17.7 23.4 17.7 5.6 0 11.2-1.6 16.3-3.5l2.1 22.5c-6.9 3.5-15.5 5.4-26.4 5.4-26.4 0-42.4-13.5-47.2-42.1h-11.8l.2-15.3h10.1v-5.7h-10.2l-.2-15.8h11.8c5.1-26.3 22.3-42.5 48.6-42.5 10.5 0 18.5 1.6 25.2 4.1zm-167.1 92.9c-29.6 0-41.6-18-41.6-60.7 0-45.6 12.1-61.7 41.9-61.7 29.2 0 41.9 16.1 41.9 61.7 0 42.7-13.2 60.7-42.2 60.7zm.3-95.8c-8.4 0-12.3 4.3-12.3 34.7 0 32 3.8 35.4 12.3 35.4 8.3 0 11.9-4.1 11.9-35.4.1-31-3.6-34.7-11.9-34.7zm-94.1 95.8c-29.6 0-41.6-18-41.6-60.7 0-45.6 12.1-61.7 41.9-61.7 29.2 0 41.9 16.1 41.9 61.7 0 42.7-13.2 60.7-42.2 60.7zm.3-95.8c-8.4 0-12.3 4.3-12.3 34.7 0 32 3.8 35.4 12.3 35.4 8.3 0 11.9-4.1 11.9-35.4 0-31-3.6-34.7-11.9-34.7zm-53.7 58.2c0 22.9-14.2 37.6-45.1 37.6-13.1 0-24.9-3.5-33.1-8.3l5.3-23.6c8.6 4.3 17 6.5 26.6 6.5 11 0 16.4-4.6 16.4-13.1 0-7.8-4.3-13.7-25.6-13.7v-21.5c20.5 0 24.8-4.6 24.8-12.7 0-6.2-4.1-9.9-14.7-9.9-10.4 0-19.3 3.5-26.8 9.6l-6.9-23.9c8.9-7 22.1-11.8 36-11.8 25.8 0 40.8 12.7 40.8 33.9 0 10.8-4.9 19.4-14.3 24.7v.3c10.7 4.7 16.6 13.3 16.6 25.9z" fill="#ffed00" fill-rule="evenodd"/></svg>