<svg enable-background="new 0 0 643.8 600" viewBox="0 0 643.8 600" xmlns="http://www.w3.org/2000/svg"><path d="m91.9 482.2 372.5-.4 151.9-.1.1-60.3-46.2-72.6 46.2-71.2.1-60.6h-525l-82 133.8v.1z" fill="#020203"/><path clip-rule="evenodd" d="m521 317.8c-3.7-1.3-7.8-2.1-12.6-2.1-13 0-20.1 4.8-23.5 16h32.8l-3.4 15.8h-31.5v5.8h29.7l-3.2 15.3h-24.8c3.5 13.4 11.7 17.7 23.5 17.7 5.6 0 11.2-1.6 16.3-3.5l2.1 22.5c-6.9 3.5-15.5 5.4-26.5 5.4-26.5 0-42.5-13.6-47.3-42.2h-11.8l.2-15.3h10.2v-5.8h-10.2l-.2-15.8h11.8c5.1-26.4 22.4-42.7 48.8-42.7 10.6 0 18.5 1.6 25.3 4.2zm-167.7 93.2c-29.7 0-41.7-18.1-41.7-60.9 0-45.7 12.2-61.9 42-61.9 29.3 0 42 16.1 42 61.9.1 42.8-13.2 60.9-42.3 60.9zm.3-96.1c-8.5 0-12.3 4.3-12.3 34.9 0 32.1 3.8 35.5 12.3 35.5 8.3 0 12-4.2 12-35.5 0-31.2-3.7-34.9-12-34.9zm-53.9 52.9c0 26.9-13.1 43.2-43.3 43.2-12.8 0-24.8-2.7-34.7-8.3l5.1-23.7c8.8 4.3 16 6.6 26.2 6.6 12.8 0 16.1-5 16.1-15.4 0-9.4-5.1-12.8-16-12.8-6.2 0-13.9 1-19.8 3l-9.9-11.5 4.3-59.5h65.3l1.1 26.5h-41.7l-1.1 17.7c3.7-.6 7.5-1 11.8-1 23.2.2 36.6 11.9 36.6 35.2zm-94.1 5.5c0 23-14.2 37.7-45.2 37.7-13.1 0-24.9-3.5-33.3-8.3l5.3-23.7c8.6 4.3 17.1 6.6 26.7 6.6 11 0 16.5-4.6 16.5-13.1 0-7.8-4.3-13.7-25.7-13.7v-21.6c20.6 0 24.9-4.6 24.9-12.8 0-6.2-4.2-9.9-14.7-9.9-10.4 0-19.3 3.5-26.9 9.6l-6.9-24c9-7 22.2-11.8 36.1-11.8 25.9 0 40.9 12.8 40.9 34.1 0 10.9-5 19.5-14.4 24.8v.3c10.8 4.5 16.7 13.1 16.7 25.8z" fill="#ffed00" fill-rule="evenodd"/></svg>