<svg enable-background="new 0 0 643.8 600" viewBox="0 0 643.8 600" xmlns="http://www.w3.org/2000/svg"><text fill="#fff" font-family="ClanPro-NarrBlack" font-size="12.2353" transform="matrix(.9919 0 0 1 -430.8037 362.9277)">Mehr infos</text><path clip-rule="evenodd" d="m597.9 345.6h-19.3l-11.9-25.6h-4v25.6h-16.4v-63h16.4v24.4h4.4l11.7-24.3h18.4l-15.2 30.1zm-69.6-13.1c3.9 0 7.5-.8 10.4-2.1l1.5 13.3c-3.8 1.8-9.5 3-14.4 3-18 0-26.7-10.2-26.7-32.9 0-21.2 8.5-32.2 27.7-32.2 4.4 0 9.9 1 13.3 2.4l-1.6 13.9c-2.8-1-6.5-1.7-10.5-1.7-9.3 0-11.7 3.9-11.7 17.7.1 14.5 2.7 18.6 12 18.6zm-59.4 14.2c-16.1 0-24.3-7.7-24.3-22.5v-41.6h16.5v41.2c0 5.6 2.2 8.1 7.8 8.1 5.7 0 7.6-2.4 7.6-8.1v-41.2h16.4v41.6c0 14.8-7.9 22.5-24 22.5zm-45.8-1.1-8.4-22.5h-5.5v22.5h-16.4v-63h21.7c16 0 23.8 6 23.8 20.2 0 8.4-3 14.6-8.6 17l12.3 25.8zm-8.3-49.3h-5.7v14.5h5.6c4.8 0 6.5-1.2 6.5-7.3 0-5.7-1.6-7.2-6.4-7.2zm-55.5 49.3h-22.7v-63h22.4c19.1 0 26.9 8.9 26.9 31.1 0 23.2-8.9 31.9-26.6 31.9zm-.3-48.4h-6.1v34.1h6.1c7.2 0 9.7-2.2 9.7-17.6 0-14-2.3-16.5-9.7-16.5zm-64.5 48.4-8.4-22.5h-5.5v22.5h-16.4v-63h21.8c16 0 23.8 6 23.8 20.2 0 8.4-3 14.6-8.6 17l12.3 25.8zm-8.2-49.3h-5.7v14.5h5.6c4.8 0 6.5-1.2 6.5-7.3 0-5.7-1.6-7.2-6.4-7.2zm-28.4 35.2-.3 14.2h-40.6v-63h39.5l.3 14.4h-23.4v9.7h19.3v13.2h-19.3v11.4h24.5zm-65.8-10.5h-15.3v24.7h-16.4v-63h16.4v23.6h15.3v-23.6h16.5v63h-16.5zm-64.9 25.7c-18.1 0-26.4-9.6-26.4-32.6 0-23.1 7.9-32.5 26.4-32.5s26.4 9.4 26.4 32.5c0 23.7-7.9 32.6-26.4 32.6zm-.1-50.3c-6.9 0-9.1 2.9-9.1 17.8 0 15 2.3 18.1 9.2 18.1 7 0 9.1-3.1 9.1-18.1.1-15.1-2-17.8-9.2-17.8zm-49.5 24.6h-15.3v24.7h-16.4v-63h16.4v23.6h15.3v-23.6h16.4v63h-16.4z" fill-rule="evenodd"/></svg>