<svg enable-background="new 0 0 643.8 600" viewBox="0 0 643.8 600" xmlns="http://www.w3.org/2000/svg"><text fill="#fff" font-family="ClanPro-NarrBlack" font-size="12.2353" transform="matrix(.9919 0 0 1 -430.8037 362.9277)">Mehr infos</text><path clip-rule="evenodd" d="m579.9 323.8-2.5-46h17.2l-2.4 46zm-8.2 4.8-.4 14.8h-42.3v-65.6h41.1l.4 15.1h-24.4v10.1h20.1v13.7h-20.1v11.9zm-72.3 16c-6.9 0-13.7-1.6-19.1-4.5l2.2-14.5c5.3 2.7 10.8 4.4 16.5 4.4 5.4 0 7.5-1.8 7.5-5.3 0-8.4-26.1-5.8-26.1-27.2 0-11.5 7-20.6 23.2-20.6 6 0 12.5 1.1 17.2 3.2l-1.9 14.3c-5-1.5-10-2.4-14.2-2.4-6.5 0-7.9 1.9-7.9 4.7 0 8.5 26.1 5.6 26.1 27 .1 12.8-8.7 20.9-23.5 20.9zm-44.4-66.8h17.6v65.6h-17.6zm-7.2 50.8-.4 14.8h-42.3v-65.6h41.1l.4 15.1h-24.4v10.1h20.1v13.7h-20.1v11.9zm-66.7 14.8-8.8-23.5h-5.8v23.5h-17.1v-65.6h22.7c16.6 0 24.9 6.3 24.9 21.1 0 8.8-3.2 15.2-8.9 17.7l12.8 26.9h-19.8zm-8.6-51.4h-6v15.1h5.9c5 0 6.7-1.2 6.7-7.6.1-6-1.6-7.5-6.6-7.5zm-54.7 31h-5.4v20.4h-17.1v-65.6h22.5c18.2 0 25.5 7.1 25.5 23.1 0 14.2-7.1 22.1-25.5 22.1zm0-30.9h-5.4v17.4h5.4c5.6 0 7.7-1.3 7.7-8.7 0-7.1-1.7-8.7-7.7-8.7zm-48.7 36.5-.4 14.8h-42.3v-65.6h41.1l.4 15.1h-24.4v10.1h20.1v13.7h-20.1v11.9zm-72.6-23.9h20l-.1 14.5h-20v24.2h-17.2v-65.6h41l.3 15.3h-24.2v11.6zm-23.7 23.9-.4 14.8h-42.3v-65.6h41.1l.4 15.1h-24.4v10.1h20.1v13.7h-20.1v11.9zm-69.8-50.8h17.6v65.6h-17.6zm-20.9 65.6h-17.4v-50.3h-14.9l.4-15.3h46.5l.4 15.3h-15zm504.3-14.2c6 0 8.6 2.9 8.6 7.7 0 4.5-2.6 7.5-8.6 7.5-5.9 0-8.5-2.2-8.5-7.5 0-4.8 2.6-7.7 8.5-7.7z" fill-rule="evenodd"/></svg>