<?xml version="1.0" encoding="utf-8"?>
<!-- Generator: Adobe Illustrator 23.1.1, SVG Export Plug-In . SVG Version: 6.00 Build 0)  -->
<svg version="1.1" id="Ebene_1" xmlns="http://www.w3.org/2000/svg" xmlns:xlink="http://www.w3.org/1999/xlink" x="0px" y="0px"
	 viewBox="0 0 425.2 425.2" style="enable-background:new 0 0 425.2 425.2;" xml:space="preserve">
<style type="text/css">
	.st0{fill-rule:evenodd;clip-rule:evenodd;fill:#020204;}
</style>
<path class="st0" d="M366.65,79.22v-7.59h16.42v7.59H366.65z M340.11,77.12l-2.47-4.03l-0.12,0.06l0.06,4.73v19.44h-10.12V53.53
	h9.65l14.18,22.71l0.12-0.06l-0.12-4.67l0.06-17.98h10.12v43.79h-8.18L340.11,77.12z M323.04,87.45l-0.24,9.87h-28.42V53.53h27.66
	l0.23,10.04h-16.42v6.77h13.54v9.17h-13.54v7.94H323.04z M294.44,124.67h10.12v43.79h-8.18l-13.18-20.2l-2.47-4.03l-0.12,0.06
	l0.06,4.73v19.44h-10.12v-43.79h9.65l14.18,22.71l0.12-0.06l-0.12-4.67L294.44,124.67z M267.02,77.12l-2.47-4.03l-0.12,0.06
	l0.06,4.73v19.44h-10.12V53.53h9.65l14.18,22.71l0.12-0.06l-0.12-4.67l0.06-17.98h10.12v43.79h-8.18L267.02,77.12z M264.96,124.67
	v28.9c0,10.28-5.53,15.65-16.83,15.65c-11.3,0-17.01-5.37-17.01-15.65v-28.9h11.53v28.67c0,3.91,1.53,5.66,5.47,5.66
	c4,0,5.35-1.63,5.35-5.66v-28.67H264.96z M227,77.12l-2.47-4.03l-0.12,0.06l0.06,4.73v19.44h-10.12V53.53H224l14.18,22.71l0.12-0.06
	l-0.12-4.67l0.06-17.98h10.12v43.79h-8.18L227,77.12z M224.65,135.59c-2.88-1.05-6.59-1.69-9.77-1.69c-7.24,0-8.89,2.69-8.89,12.55
	c0,10.39,1.71,12.67,7.41,12.67c0.88,0,1.83-0.06,2.65-0.23v-14.31h10.24v22.31c-3.06,1.46-8.06,2.39-12.59,2.39
	c-14.59,0-19.77-7.77-19.77-22.71c0-15.3,6.06-22.66,20.3-22.66c3.88,0,8.3,0.7,11.48,1.93L224.65,135.59z M196.05,53.53h11.83
	v43.79h-11.83V53.53z M178.81,97.32l-8.3-17.81h-2.83v17.81h-11.48V53.53h11.48v16.93h3.06l8.18-16.93h12.89l-10.59,20.96
	l11.12,22.83H178.81z M128.85,77.12l-2.47-4.03l-0.12,0.06l0.06,4.73v19.44h-10.12V53.53h9.65l14.18,22.71l0.12-0.06l-0.12-4.67
	l0.06-17.98h10.12v43.79h-8.18L128.85,77.12z M98.72,89.67h-12L85,97.32H72.82l13.06-43.79h14.06l13.3,43.79h-12.83L98.72,89.67z
	 M93.77,67.6l-0.88-4.67h-0.18l-1,4.67l-2.83,12.55h7.71L93.77,67.6z M66.29,97.32H54.58V63.75h-10l0.24-10.22h31.25l0.24,10.22
	H66.29V97.32z M79,138.75c0,5.84-2.12,10.16-6,11.8l8.59,17.93h-13.3l-5.88-15.65h-3.88v15.65H47.05v-43.79h15.24
	C73.47,124.67,79,128.88,79,138.75z M58.52,144.23h3.94c3.36,0,4.53-0.82,4.53-5.08c0-3.97-1.12-5.02-4.47-5.02h-4V144.23z
	 M112.37,134.72H95.95v6.77h13.54v9.17H95.95v7.94h17.18l-0.24,9.87H84.48v-43.79h27.66L112.37,134.72z M129.85,168.47h-11.83
	v-43.79h11.83V168.47z M160.15,147.39l0.12-0.06l-0.12-4.67l0.06-17.98h10.12v43.79h-8.18l-13.18-20.2l-2.47-4.03l-0.12,0.06
	l0.06,4.73v19.44h-10.12v-43.79h9.65L160.15,147.39z M188.63,168.47h-11.83v-43.79h11.83V168.47z M329.69,123.91
	c3.88,0,8.3,0.7,11.48,1.93l-1.06,9.75c-2.88-1.05-6.59-1.69-9.77-1.69c-7.24,0-8.89,2.69-8.89,12.55c0,10.39,1.71,12.67,7.41,12.67
	c0.88,0,1.83-0.06,2.65-0.23v-14.31h10.24v22.31c-3.06,1.46-8.06,2.39-12.59,2.39c-14.59,0-19.77-7.77-19.77-22.71
	C309.39,131.27,315.45,123.91,329.69,123.91z"/>
</svg>
