<?xml version="1.0" encoding="utf-8"?>
<!-- Generator: Adobe Illustrator 23.1.1, SVG Export Plug-In . SVG Version: 6.00 Build 0)  -->
<svg version="1.1" id="Ebene_1" xmlns="http://www.w3.org/2000/svg" xmlns:xlink="http://www.w3.org/1999/xlink" x="0px" y="0px"
	 viewBox="0 0 425.2 65.41" style="enable-background:new 0 0 425.2 65.41;" xml:space="preserve">
<style type="text/css">
	.st0{fill-rule:evenodd;clip-rule:evenodd;fill:#FFEC03;}
</style>
<path class="st0" d="M302.57,54.97h-13.37l-5.92-15.74h-3.9v15.74h-11.54V10.92h15.33c11.24,0,16.81,4.23,16.81,14.15
	c0,5.87-2.13,10.22-6.04,11.86L302.57,54.97z M283.39,20.44h-4.02V30.6h3.96c3.37,0,4.56-0.82,4.56-5.11
	C287.89,21.49,286.77,20.44,283.39,20.44z M263.39,45.04l-0.24,9.92h-28.58V10.92h27.82l0.24,10.1h-16.51v6.81h13.61v9.22h-13.61
	v7.99H263.39z M204.03,54.97V10.92h11.66v33.83h15.09l-0.3,10.22H204.03z M199.41,41.99c0,7.93-4.8,12.98-15.86,12.98h-17.28V10.92
	h17.4c9.53,0,14.38,4.4,14.38,11.39c0,4.64-2.13,7.63-5.45,9.22v0.12C197.04,33.12,199.41,36.53,199.41,41.99z M183.2,20.55h-5.74
	v7.75h5.86c2.66,0,3.61-1,3.61-3.99C186.92,21.43,185.92,20.55,183.2,20.55z M183.49,36.88h-6.04v8.69h6.27
	c2.9,0,3.96-0.94,3.96-4.4C187.69,38.11,186.75,36.88,183.49,36.88z M147.86,10.92h11.9v44.05h-11.9V10.92z M130.94,54.97
	l-4.26-10.63l-1.66-4.46h-0.18l-1.66,4.46l-4.2,10.63h-13.2l10.65-22.73L105.9,10.92h13.55l3.73,9.05l1.72,4.4h0.18l1.71-4.4
	l3.85-9.05h13.02l-10.66,20.97l10.89,23.08H130.94z M103.89,45.04l-0.24,9.92H75.07V10.92h27.82l0.24,10.1H86.61v6.81h13.61v9.22
	H86.61v7.99H103.89z M44.53,54.97V10.92h11.66v33.83h15.09l-0.3,10.22H44.53z M24.29,28.95h13.55l-0.06,9.75H24.29v16.27h-11.6
	V10.92h27.76l0.18,10.28H24.29V28.95z"/>
</svg>
