<?xml version="1.0" encoding="utf-8"?>
<!-- Generator: Adobe Illustrator 23.1.1, SVG Export Plug-In . SVG Version: 6.00 Build 0)  -->
<svg version="1.1" id="Ebene_1" xmlns="http://www.w3.org/2000/svg" xmlns:xlink="http://www.w3.org/1999/xlink" x="0px" y="0px"
	 viewBox="0 0 311.81 311.81" style="enable-background:new 0 0 311.81 311.81;" xml:space="preserve">
<style type="text/css">
	.st0{fill:none;stroke:#FFED00;stroke-width:6;}
	.st1{clip-path:url(#SVGID_2_);fill:#020204;}
	.st2{clip-path:url(#SVGID_2_);fill:none;stroke:#FFED00;stroke-width:6;}
	.st3{fill:#FFED00;}
</style>
<polyline class="st0" points="81.94,181.54 81.94,206.34 239.69,206.34 239.69,165.26 217.15,139.87 186.04,139.87 "/>
<polyline class="st0" points="239.97,171.25 207.74,171.25 207.74,139.87 "/>
<g>
	<defs>
		<rect id="SVGID_1_" width="311.81" height="311.81"/>
	</defs>
	<clipPath id="SVGID_2_">
		<use xlink:href="#SVGID_1_"  style="overflow:visible;"/>
	</clipPath>
	<path class="st1" d="M214.87,219.81c-6.34,0-11.48-5.14-11.48-11.48c0-6.34,5.14-11.48,11.48-11.48c6.34,0,11.48,5.14,11.48,11.48
		C226.35,214.68,221.21,219.81,214.87,219.81"/>
	
		<ellipse transform="matrix(0.1602 -0.9871 0.9871 0.1602 -25.1947 387.061)" class="st2" cx="214.87" cy="208.34" rx="11.48" ry="11.48"/>
	<path class="st1" d="M139.13,219.81c-6.34,0-11.48-5.14-11.48-11.48c0-6.34,5.14-11.48,11.48-11.48c6.34,0,11.48,5.14,11.48,11.48
		C150.61,214.68,145.47,219.81,139.13,219.81"/>
	<circle class="st2" cx="139.13" cy="208.34" r="11.48"/>
	<path class="st1" d="M107.33,219.81c-6.34,0-11.48-5.14-11.48-11.48c0-6.34,5.14-11.48,11.48-11.48c6.34,0,11.48,5.14,11.48,11.48
		C118.8,214.68,113.66,219.81,107.33,219.81"/>
	<circle class="st2" cx="107.33" cy="208.34" r="11.48"/>
	<path class="st2" d="M72.12,159.17c0-13.55,9.46-24.53,21.13-24.53h79.23c11.67,0,21.14,10.98,21.14,24.53
		c0,13.55-9.46,24.53-21.14,24.53H93.26C81.59,183.7,72.12,172.72,72.12,159.17z"/>
</g>
<g>
	<path class="st3" d="M138.74,164.23h-5.66c0.8,3.07,2.67,4.06,5.37,4.06c1.28,0,2.56-0.37,3.73-0.8l0.48,5.15
		c-1.57,0.8-3.54,1.24-6.07,1.24c-6.07,0-9.72-3.11-10.82-9.65h-2.7l0.04-3.51h2.34v-1.32h-2.34l-0.04-3.62h2.7
		c1.17-6.03,5.12-9.76,11.15-9.76c2.41,0,4.24,0.37,5.77,0.95l-1.28,5.63c-0.84-0.29-1.79-0.48-2.89-0.48c-2.96,0-4.6,1.1-5.37,3.65
		h7.49l-0.77,3.62h-7.2v1.32h6.8L138.74,164.23z"/>
</g>
</svg>
