<?xml version="1.0" encoding="utf-8"?>
<!-- Generator: Adobe Illustrator 23.1.1, SVG Export Plug-In . SVG Version: 6.00 Build 0)  -->
<svg version="1.1" id="Ebene_1" xmlns="http://www.w3.org/2000/svg" xmlns:xlink="http://www.w3.org/1999/xlink" x="0px" y="0px"
	 viewBox="0 0 425.2 425.2" style="enable-background:new 0 0 425.2 425.2;" xml:space="preserve">
<style type="text/css">
	.st0{fill-rule:evenodd;clip-rule:evenodd;fill:#020204;}
</style>
<path class="st0" d="M391.03,145.66c-1.63,0-2.45-0.66-2.45-2.38c0-1.52,0.82-2.33,2.45-2.33c1.58,0,2.35,0.81,2.35,2.33
	C393.38,144.8,392.61,145.66,391.03,145.66z M377.45,125c0-5.11-2.86-7.29-7.96-7.29c-2.96,0-6.53,1.42-8.22,4.05v23.4h-3.06v-29.83
	l2.19-0.2l0.56,3.6h0.15c2.04-2.48,5.51-3.95,9.13-3.95c6.38,0,10.26,3.29,10.26,10.18v20.21h-3.06V125z M330.2,130.07
	c0.16,9.57,3.37,12.81,10.56,12.81c3.16,0,5.77-0.76,8.32-2.13l0.41,2.68c-2.6,1.47-5.51,2.33-9.03,2.33
	c-9.59,0-13.42-5.01-13.42-16.56c0-9.37,4.03-14.43,11.99-14.43c6.79,0,11.53,4.1,11.53,13.77c0,0.46-0.05,1.11-0.1,1.52H330.2z
	 M339.03,117.51c-5.92,0-8.57,3.49-8.88,10.38h17.56C347.6,120.34,344.03,117.51,339.03,117.51z M332.65,77.2
	c0,3.6,1.89,5.01,4.9,5.01c0.87,0,1.94-0.15,2.55-0.41l0.25,2.43c-0.82,0.35-2.29,0.61-3.62,0.61c-4.7,0-7.2-2.43-7.2-7.55V57h-4.69
	v-2.48h4.74l0.61-7.85l2.45-0.3v8.15h7.91V57h-7.91V77.2z M311.47,145.77c-3.57,0-6.94-0.96-9.19-2.73l0.51-2.79
	c2.2,1.82,5.56,2.84,8.62,2.84c5.11,0,7.25-2.58,7.25-6.03c0-8-16.23-4.56-16.23-14.43c0-4.86,3.52-7.85,10-7.85
	c2.86,0,5.51,0.56,7.91,1.72l-0.31,2.68c-2.5-1.11-5.15-1.67-7.65-1.67c-4.29,0-6.99,1.92-6.99,4.96c0,7.44,16.18,3.75,16.18,14.28
	C321.57,142.17,318.46,145.77,311.47,145.77z M312.79,77.2c0,3.6,1.89,5.01,4.9,5.01c0.87,0,1.94-0.15,2.55-0.41l0.26,2.43
	c-0.82,0.35-2.3,0.61-3.62,0.61c-4.69,0-7.2-2.43-7.2-7.55V57h-4.69v-2.48h4.75l0.61-7.85l2.45-0.3v8.15h7.91V57h-7.91V77.2z
	 M296.06,80.19l-0.15-0.05c-1.63,2.84-5.21,4.71-9.39,4.71c-5.46,0-9.24-2.68-9.24-9.37c0-5.67,3.52-8.91,10.87-8.91
	c2.7,0,5.46,0.56,7.5,1.32v-3.7c0-5.67-2.4-7.49-7.71-7.49c-3.11,0-5.92,0.56-8.52,1.87l-0.35-2.68c2.86-1.32,5.92-1.97,9.39-1.97
	c7.35,0,10.31,2.99,10.31,10.74v19.75h-2.35L296.06,80.19z M295.65,70.31c-0.77-0.56-3.42-1.42-7.04-1.42
	c-5.82,0-8.37,2.38-8.37,6.53c0,5.06,3.06,6.79,7.1,6.79c4.39,0,8.32-3.04,8.32-5.92V70.31z M264.36,77.2c0,3.6,1.89,5.01,4.9,5.01
	c0.87,0,1.94-0.15,2.55-0.41l0.25,2.43c-0.82,0.35-2.29,0.61-3.62,0.61c-4.7,0-7.2-2.43-7.2-7.55V57h-4.69v-2.48h4.74l0.61-7.85
	l2.45-0.3v8.15h7.91V57h-7.91V77.2z M270.13,125.41v19.75h-2.35l-0.36-4.2l-0.16-0.05c-1.63,2.84-5.2,4.71-9.39,4.71
	c-5.46,0-9.24-2.68-9.24-9.37c0-5.67,3.52-8.91,10.87-8.91c2.71,0,5.46,0.56,7.5,1.32v-3.7c0-5.67-2.4-7.49-7.71-7.49
	c-3.11,0-5.92,0.56-8.52,1.87l-0.36-2.68c2.86-1.32,5.92-1.97,9.39-1.97C267.17,114.67,270.13,117.66,270.13,125.41z M259.97,129.66
	c-5.82,0-8.37,2.38-8.37,6.53c0,5.06,3.06,6.79,7.09,6.79c4.39,0,8.32-3.04,8.32-5.92v-5.98
	C266.25,130.52,263.6,129.66,259.97,129.66z M242.47,85c-3.57,0-6.94-0.96-9.19-2.73l0.51-2.79c2.19,1.82,5.56,2.84,8.62,2.84
	c5.1,0,7.24-2.58,7.24-6.03c0-8-16.23-4.56-16.23-14.43c0-4.86,3.52-7.85,10-7.85c2.86,0,5.51,0.56,7.91,1.72l-0.31,2.68
	c-2.5-1.11-5.16-1.67-7.66-1.67c-4.29,0-6.99,1.92-6.99,4.96c0,7.44,16.18,3.75,16.18,14.28C252.58,81.4,249.46,85,242.47,85z
	 M206.59,125c0-5.11-2.86-7.29-7.96-7.29c-2.96,0-6.53,1.42-8.22,4.05v23.4h-3.06v-29.83l2.19-0.2l0.56,3.6h0.15
	c2.04-2.48,5.51-3.95,9.13-3.95c6.38,0,10.26,3.29,10.26,10.18v20.21h-3.06V125z M206.44,64.24c0-5.11-2.86-7.29-7.96-7.29
	c-2.96,0-6.53,1.42-8.22,4.05v23.4h-3.06V54.56l2.19-0.2l0.56,3.6h0.16c2.04-2.48,5.51-3.95,9.13-3.95
	c6.38,0,10.26,3.29,10.26,10.18v20.21h-3.06V64.24z M159.33,130.07c0.16,9.57,3.37,12.81,10.56,12.81c3.16,0,5.77-0.76,8.32-2.13
	l0.41,2.68c-2.6,1.47-5.51,2.33-9.03,2.33c-9.59,0-13.42-5.01-13.42-16.56c0-9.37,4.03-14.43,11.99-14.43
	c6.79,0,11.53,4.1,11.53,13.77c0,0.46-0.05,1.11-0.1,1.52H159.33z M168.16,117.51c-5.92,0-8.57,3.49-8.88,10.38h17.56
	C176.74,120.34,173.16,117.51,168.16,117.51z M159.18,69.3c0.16,9.57,3.37,12.81,10.56,12.81c3.16,0,5.77-0.76,8.32-2.13l0.41,2.68
	c-2.6,1.47-5.51,2.33-9.03,2.33c-9.59,0-13.42-5.01-13.42-16.56c0-9.37,4.03-14.43,12-14.43c6.79,0,11.53,4.1,11.53,13.77
	c0,0.46-0.05,1.11-0.1,1.52H159.18z M168.01,56.74c-5.92,0-8.57,3.49-8.88,10.38h17.56C176.58,59.58,173.01,56.74,168.01,56.74z
	 M145.86,124.95c0-4.61-2.5-7.24-7.86-7.24c-3.73,0-6.89,1.82-8.22,4.1v23.34h-3.11V104.9l3.11-0.25v9.82l-0.05,4.05l0.1,0.05
	c2.09-2.48,5.31-3.85,8.98-3.85c6.63,0,10.16,3.6,10.16,10.23v20.21h-3.11V124.95z M145.71,64.19c0-4.61-2.5-7.24-7.86-7.24
	c-3.73,0-6.89,1.82-8.22,4.1v23.34h-3.11V44.13l3.11-0.25v9.82l-0.05,4.05l0.1,0.05c2.09-2.48,5.31-3.85,8.98-3.85
	c6.63,0,10.16,3.6,10.16,10.23v20.21h-3.11V64.19z M111.21,145.82c-8.27,0-12.35-4.66-12.35-15.95c0-10.18,3.78-15.09,12.4-15.09
	c2.81,0,5.51,0.71,7.5,1.67l-0.26,2.84c-1.89-0.91-4.23-1.57-6.63-1.57c-7.04,0-9.8,3.6-9.8,12.15c0,9.67,3.32,13.12,9.7,13.12
	c2.55,0,5.05-0.71,6.94-2.08l0.31,2.68C117.23,144.9,114.32,145.82,111.21,145.82z M111.62,82.21c2.55,0,5.05-0.71,6.94-2.08
	l0.3,2.68c-1.79,1.32-4.69,2.23-7.81,2.23c-8.27,0-12.35-4.66-12.35-15.95c0-10.18,3.78-15.09,12.4-15.09c2.8,0,5.51,0.71,7.5,1.67
	l-0.26,2.84c-1.89-0.91-4.23-1.57-6.63-1.57c-7.04,0-9.8,3.6-9.8,12.15C101.92,78.77,105.24,82.21,111.62,82.21z M89.01,140.95
	l-0.15-0.05c-1.63,2.84-5.21,4.71-9.39,4.71c-5.46,0-9.24-2.68-9.24-9.37c0-5.67,3.52-8.91,10.87-8.91c2.71,0,5.46,0.56,7.5,1.32
	v-3.7c0-5.67-2.4-7.49-7.71-7.49c-3.11,0-5.92,0.56-8.52,1.87l-0.36-2.68c2.86-1.32,5.92-1.97,9.39-1.97
	c7.35,0,10.31,2.99,10.31,10.74v19.75h-2.35L89.01,140.95z M88.6,131.08c-0.77-0.56-3.42-1.42-7.04-1.42
	c-5.82,0-8.37,2.38-8.37,6.53c0,5.06,3.06,6.79,7.09,6.79c4.39,0,8.32-3.04,8.32-5.92V131.08z M88.86,80.19l-0.15-0.05
	c-1.63,2.84-5.21,4.71-9.39,4.71c-5.46,0-9.24-2.68-9.24-9.37c0-5.67,3.52-8.91,10.87-8.91c2.7,0,5.46,0.56,7.5,1.32v-3.7
	c0-5.67-2.4-7.49-7.71-7.49c-3.11,0-5.92,0.56-8.52,1.87l-0.35-2.68c2.86-1.32,5.92-1.97,9.39-1.97c7.35,0,10.31,2.99,10.31,10.74
	v19.75h-2.35L88.86,80.19z M88.45,70.31c-0.77-0.56-3.42-1.42-7.04-1.42c-5.82,0-8.37,2.38-8.37,6.53c0,5.06,3.06,6.79,7.1,6.79
	c4.39,0,8.32-3.04,8.32-5.92V70.31z M59.61,124.85c0-4.86-2.8-7.09-7.3-7.09c-3.57,0-6.84,2.18-6.84,6.43v20.96h-3.06v-20.96
	c0-4.66-3.11-6.43-6.84-6.43c-2.86,0-5.92,1.57-7.35,4v23.4h-3.06v-29.83l2.2-0.2l0.61,3.65h0.15c1.69-2.38,4.7-3.9,7.96-3.9
	c4.34,0,7.09,1.67,8.32,4.96h0.16c1.38-3.29,4.54-5.01,8.47-5.01c5.72,0,9.65,3.14,9.65,9.98v20.36h-3.06V124.85z M58.13,55.98
	l0.1-4.1l-0.15-0.05l-1.48,3.85L44.81,84.39h-2.55L30.47,55.83l-1.48-3.85l-0.1,0.05l0.05,4.1v28.26h-2.96V46.41h3.98l12.09,29.52
	l1.48,3.8h0.15l1.43-3.8l12.09-29.52h3.93v37.98h-3.01V55.98z M239.36,145.16h-3.06v-40.31l3.06-0.2V145.16z M286.67,143.08
	c5.1,0,7.24-2.58,7.24-6.03c0-8-16.23-4.56-16.23-14.43c0-4.86,3.52-7.85,10-7.85c2.86,0,5.51,0.56,7.91,1.72l-0.31,2.68
	c-2.5-1.11-5.16-1.67-7.66-1.67c-4.29,0-6.99,1.92-6.99,4.96c0,7.44,16.18,3.75,16.18,14.28c0,5.42-3.11,9.01-10.11,9.01
	c-3.57,0-6.94-0.96-9.19-2.73l0.51-2.79C280.23,142.07,283.6,143.08,286.67,143.08z"/>
</svg>
