<?xml version="1.0" encoding="utf-8"?>
<!-- Generator: Adobe Illustrator 23.1.1, SVG Export Plug-In . SVG Version: 6.00 Build 0)  -->
<!DOCTYPE svg PUBLIC "-//W3C//DTD SVG 1.1//EN" "http://www.w3.org/Graphics/SVG/1.1/DTD/svg11.dtd" [
	<!ENTITY ns_extend "http://ns.adobe.com/Extensibility/1.0/">
	<!ENTITY ns_ai "http://ns.adobe.com/AdobeIllustrator/10.0/">
	<!ENTITY ns_graphs "http://ns.adobe.com/Graphs/1.0/">
	<!ENTITY ns_vars "http://ns.adobe.com/Variables/1.0/">
	<!ENTITY ns_imrep "http://ns.adobe.com/ImageReplacement/1.0/">
	<!ENTITY ns_sfw "http://ns.adobe.com/SaveForWeb/1.0/">
	<!ENTITY ns_custom "http://ns.adobe.com/GenericCustomNamespace/1.0/">
	<!ENTITY ns_adobe_xpath "http://ns.adobe.com/XPath/1.0/">
]>
<svg version="1.1" id="Ebene_1" xmlns:x="&ns_extend;" xmlns:i="&ns_ai;" xmlns:graph="&ns_graphs;"
	 xmlns="http://www.w3.org/2000/svg" xmlns:xlink="http://www.w3.org/1999/xlink" x="0px" y="0px" viewBox="0 0 154.04 94.98"
	 style="enable-background:new 0 0 154.04 94.98;" xml:space="preserve">
<style type="text/css">
	.st0{fill-rule:evenodd;clip-rule:evenodd;}
</style>
<metadata>
	<sfw  xmlns="&ns_sfw;">
		<slices></slices>
		<sliceSourceBounds  bottomLeftOrigin="true" height="79.33" width="138.9" x="5.02" y="-47.71"></sliceSourceBounds>
	</sfw>
</metadata>
<path class="st0" d="M138.3,57.09v-2.61h5.61v2.61H138.3z M125.74,55.78c0-5.27,2.07-7.8,6.94-7.8c1.33,0,2.84,0.24,3.92,0.66
	L136.24,52c-0.99-0.36-2.25-0.58-3.34-0.58c-2.47,0-3.04,0.92-3.04,4.32c0,3.58,0.58,4.36,2.53,4.36c0.3,0,0.63-0.02,0.9-0.08V55.1
	h3.5v7.68c-1.05,0.51-2.76,0.82-4.3,0.82C127.51,63.6,125.74,60.92,125.74,55.78z M118.49,63.58c-3.86,0-5.81-1.85-5.81-5.39v-9.95
	h3.94v9.87c0,1.35,0.52,1.95,1.87,1.95c1.37,0,1.83-0.56,1.83-1.95v-9.87h3.92v9.95C124.23,61.73,122.34,63.58,118.49,63.58z
	 M107.47,60.68h-4.1l-0.58,2.64h-4.16l4.46-15.07h4.81l4.54,15.07h-4.38L107.47,60.68z M105.78,53.09l-0.3-1.61h-0.06l-0.34,1.61
	l-0.96,4.32h2.63L105.78,53.09z M98.67,58.75c0,2.97-2.01,4.82-5.41,4.82c-1.58,0-3.15-0.36-4.38-1.05l0.51-3.34
	c1.23,0.62,2.47,1,3.78,1c1.25,0,1.73-0.42,1.73-1.23c0-1.93-5.99-1.33-5.99-6.25c0-2.64,1.61-4.73,5.33-4.73
	c1.39,0,2.88,0.26,3.96,0.72L97.75,52c-1.14-0.34-2.29-0.54-3.26-0.54c-1.49,0-1.81,0.44-1.81,1.09
	C92.68,54.49,98.67,53.83,98.67,58.75z M94.13,42.07h-4V30.51h-3.42l0.08-3.52h10.68l0.08,3.52h-3.42L94.13,42.07L94.13,42.07z
	 M81.83,42.07l-2.84-6.13h-0.96v6.13H74.1V26.99h3.92v5.83h1.05l2.8-5.83h4.4l-3.62,7.22l3.8,7.86H81.83z M77.07,17.43l-0.08,3.4
	h-9.71V5.75h9.45L76.8,9.2h-5.61v2.33h4.62v3.16h-4.62v2.73C71.19,17.43,77.07,17.43,77.07,17.43z M61.75,20.83l-2.01-5.39h-1.33
	v5.39h-3.92V5.75h5.21c3.82,0,5.71,1.45,5.71,4.85c0,2.01-0.72,3.5-2.05,4.06l2.93,6.17H61.75z M59.78,9.01h-1.37v3.47h1.35
	c1.15,0,1.55-0.28,1.55-1.75C61.31,9.37,60.92,9.01,59.78,9.01z M60.08,32.3c0,3.26-1.63,5.09-5.85,5.09h-1.25v4.69h-3.92V26.99
	h5.17C58.41,26.99,60.08,28.62,60.08,32.3z M54.23,30.27h-1.25v4h1.25c1.29,0,1.77-0.3,1.77-1.99C56,30.66,55.62,30.27,54.23,30.27z
	 M52.99,17.43l-0.08,3.4H43.2V5.75h9.45l0.08,3.46h-5.61v2.33h4.62v3.16h-4.62v2.73L52.99,17.43L52.99,17.43z M47.02,42.07h-3.6
	v-6.31l0.04-1.63l-0.06-0.02l-0.51,1.57l-2.23,6.39h-2.56l-2.21-6.37l-0.5-1.57l-0.04,0.02l0.02,1.63v6.29h-3.43V26.99h4.32
	l2.65,7.62l0.51,1.55h0.06l0.51-1.53L42.69,27h4.34L47.02,42.07L47.02,42.07z M41.79,16.26c0,2.97-2.01,4.82-5.41,4.82
	c-1.59,0-3.16-0.36-4.38-1.05l0.51-3.34c1.23,0.62,2.47,1,3.78,1c1.25,0,1.73-0.42,1.73-1.22c0-1.93-5.99-1.33-5.99-6.25
	c0-2.64,1.61-4.73,5.33-4.73c1.39,0,2.87,0.26,3.96,0.72l-0.44,3.28c-1.15-0.34-2.29-0.54-3.26-0.54c-1.49,0-1.81,0.44-1.81,1.09
	C35.8,12,41.79,11.34,41.79,16.26z M34.66,48.24h3.94v15.07h-3.94V57.4H31v5.91h-3.92V48.24H31v5.65h3.66V48.24z M23.1,13.87
	l-0.84-1.39l-0.04,0.02l0.02,1.63v6.7h-3.46V5.75h3.3l4.85,7.82l0.04-0.02l-0.04-1.61l0.02-6.19h3.46v15.07H27.6L23.1,13.87z
	 M23.98,26.75c4.42,0,6.31,2.25,6.31,7.78c0,5.67-1.89,7.8-6.31,7.8c-4.34,0-6.31-2.29-6.31-7.8C17.67,29,19.56,26.75,23.98,26.75z
	 M24.01,38.86c1.67,0,2.17-0.74,2.17-4.32c0-3.59-0.51-4.26-2.21-4.26c-1.65,0-2.17,0.68-2.17,4.26
	C21.8,38.13,22.33,38.86,24.01,38.86z M17.8,42.07h-4.62l-2.84-6.13H9.37v6.13H5.45V26.99h3.92v5.83h1.05l2.8-5.83h4.4L14,34.21
	L17.8,42.07z M11.12,21.08c-3.86,0-5.81-1.85-5.81-5.39V5.75h3.94v9.87c0,1.35,0.52,1.95,1.87,1.95c1.37,0,1.83-0.56,1.83-1.95V5.75
	h3.92v9.95C16.87,19.23,14.98,21.08,11.12,21.08z M5.03,52.72c0-2.64,1.61-4.73,5.33-4.73c1.39,0,2.88,0.26,3.96,0.72L13.88,52
	c-1.15-0.34-2.29-0.54-3.26-0.54c-1.49,0-1.81,0.44-1.81,1.09c0,1.95,5.99,1.29,5.99,6.21c0,2.97-2.01,4.82-5.41,4.82
	c-1.59,0-3.16-0.36-4.38-1.05l0.51-3.34c1.23,0.62,2.47,1,3.78,1c1.25,0,1.73-0.42,1.73-1.23C11.02,57.05,5.03,57.65,5.03,52.72z
	 M12.43,77.11l0.51,1.55h0.06l0.51-1.53l2.69-7.64h4.34v15.07h-3.59v-6.31l0.04-1.63l-0.06-0.02l-0.51,1.57l-2.23,6.39h-2.55
	l-2.21-6.37l-0.51-1.57l-0.04,0.02l0.02,1.63v6.29H5.45V69.49h4.32L12.43,77.11z M22.78,60.16c0.92,0,1.79-0.18,2.49-0.51l0.36,3.2
	c-0.91,0.44-2.27,0.72-3.44,0.72c-4.3,0-6.39-2.45-6.39-7.88c0-5.06,2.03-7.72,6.63-7.72c1.07,0,2.37,0.24,3.18,0.56l-0.38,3.34
	c-0.66-0.24-1.57-0.4-2.52-0.4c-2.23,0-2.8,0.95-2.8,4.24C19.92,59.2,20.55,60.16,22.78,60.16z M30.78,69.49l4.54,15.07h-4.38
	l-0.59-2.64h-4.09l-0.58,2.64h-4.16l4.46-15.07H30.78z M29.63,78.66l-0.96-4.32l-0.3-1.61h-0.06l-0.34,1.61L27,78.66H29.63z
	 M40.21,81.45c1.25,0,1.73-0.42,1.73-1.22c0-1.93-5.99-1.33-5.99-6.25c0-2.64,1.61-4.73,5.33-4.73c1.39,0,2.88,0.26,3.96,0.72
	l-0.44,3.28c-1.14-0.34-2.29-0.54-3.26-0.54c-1.49,0-1.81,0.44-1.81,1.09c0,1.95,5.99,1.29,5.99,6.21c0,2.97-2.01,4.82-5.41,4.82
	c-1.58,0-3.15-0.36-4.38-1.05l0.51-3.34C37.65,81.07,38.9,81.45,40.21,81.45z M50.42,59.92l-0.08,3.4h-9.71V48.24h9.45l0.08,3.46
	h-5.61v2.33h4.62v3.16h-4.62v2.73H50.42z M53.35,69.23c1.07,0,2.37,0.24,3.18,0.56l-0.38,3.34c-0.66-0.24-1.57-0.4-2.52-0.4
	c-2.23,0-2.79,0.95-2.79,4.24c0,3.48,0.62,4.44,2.85,4.44c0.92,0,1.79-0.18,2.49-0.51l0.36,3.2c-0.91,0.44-2.27,0.72-3.44,0.72
	c-4.3,0-6.39-2.45-6.39-7.88C46.72,71.88,48.74,69.23,53.35,69.23z M51.78,58.19v-9.95h3.94v9.87c0,1.35,0.52,1.95,1.87,1.95
	c1.37,0,1.83-0.56,1.83-1.95v-9.87h3.92v9.95c0,3.54-1.89,5.39-5.75,5.39C53.73,63.58,51.78,61.73,51.78,58.19z M61.91,75.14h3.66
	v-5.65h3.94v15.07h-3.94v-5.91h-3.66v5.91H58V69.49h3.92V75.14z M64.04,39.44l-0.59,2.64H59.3L63.76,27h4.81l4.54,15.07h-4.38
	l-0.58-2.64H64.04z M66.45,31.84l-0.3-1.61h-0.06l-0.34,1.61l-0.96,4.32h2.63L66.45,31.84z M75.03,59.92l-0.08,3.4h-9.7V48.24h9.45
	l0.08,3.46h-5.61v2.33h4.62v3.16h-4.62v2.73H75.03z M75.74,84.57H71.7V69.49h4.04V84.57z M87.45,53.09c0,2.01-0.72,3.5-2.05,4.06
	l2.93,6.17H83.8l-2.01-5.39h-1.33v5.39h-3.92V48.24h5.21C85.56,48.24,87.45,49.69,87.45,53.09z M80.46,54.98h1.35
	c1.14,0,1.54-0.28,1.54-1.75c0-1.37-0.38-1.73-1.53-1.73h-1.37V54.98z M86.09,77.31l0.04-0.02l-0.04-1.61l0.02-6.19h3.46v15.07h-2.8
	l-4.5-6.95l-0.84-1.39l-0.04,0.02l0.02,1.63v6.7h-3.46V69.49h3.3L86.09,77.31z M101.14,72.95h-5.61v2.33h4.62v3.16h-4.62v2.73h5.87
	l-0.08,3.4h-9.71V69.5h9.45L101.14,72.95z M111.05,77.31l0.04-0.02l-0.04-1.61l0.02-6.19h3.46v15.07h-2.8l-4.5-6.95l-0.84-1.39
	l-0.04,0.02l0.02,1.63v6.7h-3.46V69.49h3.3L111.05,77.31z M118.19,80.97c1.41,0,2.01,0.71,2.01,1.93c0,1.14-0.6,1.91-2.01,1.91
	c-1.41,0-2.03-0.55-2.03-1.91C116.15,81.67,116.78,80.97,118.19,80.97z"/>
</svg>
