<?xml version="1.0" encoding="utf-8"?>
<!-- Generator: Adobe Illustrator 23.1.1, SVG Export Plug-In . SVG Version: 6.00 Build 0)  -->
<!DOCTYPE svg PUBLIC "-//W3C//DTD SVG 1.1//EN" "http://www.w3.org/Graphics/SVG/1.1/DTD/svg11.dtd" [
	<!ENTITY ns_extend "http://ns.adobe.com/Extensibility/1.0/">
	<!ENTITY ns_ai "http://ns.adobe.com/AdobeIllustrator/10.0/">
	<!ENTITY ns_graphs "http://ns.adobe.com/Graphs/1.0/">
	<!ENTITY ns_vars "http://ns.adobe.com/Variables/1.0/">
	<!ENTITY ns_imrep "http://ns.adobe.com/ImageReplacement/1.0/">
	<!ENTITY ns_sfw "http://ns.adobe.com/SaveForWeb/1.0/">
	<!ENTITY ns_custom "http://ns.adobe.com/GenericCustomNamespace/1.0/">
	<!ENTITY ns_adobe_xpath "http://ns.adobe.com/XPath/1.0/">
]>
<svg version="1.1" id="Ebene_1" xmlns:x="&ns_extend;" xmlns:i="&ns_ai;" xmlns:graph="&ns_graphs;"
	 xmlns="http://www.w3.org/2000/svg" xmlns:xlink="http://www.w3.org/1999/xlink" x="0px" y="0px" viewBox="0 0 88.86 37.12"
	 style="enable-background:new 0 0 88.86 37.12;" xml:space="preserve">
<style type="text/css">
	.st0{fill-rule:evenodd;clip-rule:evenodd;}
</style>
<metadata>
	<sfw  xmlns="&ns_sfw;">
		<slices></slices>
		<sliceSourceBounds  bottomLeftOrigin="true" height="23.79" width="78.14" x="3.88" y="8.1"></sliceSourceBounds>
	</sfw>
</metadata>
<path class="st0" d="M77.91,15.13h-3.52V5.4h3.46c2.96,0,4.16,1.37,4.16,4.81C82.01,13.78,80.64,15.13,77.91,15.13z M77.87,7.64
	h-0.95v5.26h0.95c1.12,0,1.49-0.34,1.49-2.72C79.36,8.03,79.01,7.64,77.87,7.64z M68.36,10.64l-0.54-0.9l-0.03,0.01l0.01,1.05v4.32
	h-2.23V5.4h2.13l3.13,5.05l0.03-0.01L70.83,9.4l0.01-3.99h2.23v9.73h-1.8L68.36,10.64z M67.72,19.37l-0.23,2.17
	c-0.64-0.23-1.45-0.37-2.15-0.37c-1.6,0-1.96,0.6-1.96,2.79c0,2.31,0.37,2.82,1.63,2.82c0.19,0,0.4-0.01,0.59-0.05v-3.19h2.26v4.95
	c-0.67,0.33-1.77,0.53-2.78,0.53c-3.22,0-4.36-1.73-4.36-5.05c0-3.4,1.34-5.03,4.48-5.03C66.05,18.94,67.02,19.09,67.72,19.37z
	 M60.63,15.29c-2.49,0-3.75-1.19-3.75-3.48V5.4h2.54v6.37c0,0.87,0.34,1.26,1.21,1.26c0.88,0,1.18-0.36,1.18-1.26V5.4h2.53v6.42
	C64.34,14.1,63.12,15.29,60.63,15.29z M53.86,28.84h-2.58v-7.46h-2.2l0.05-2.27h6.89l0.05,2.27h-2.2V28.84z M50.13,15.31
	c-3.22,0-4.36-1.73-4.36-5.05c0-3.4,1.34-5.03,4.48-5.03c0.86,0,1.83,0.16,2.53,0.43l-0.23,2.17c-0.63-0.23-1.45-0.37-2.15-0.37
	c-1.6,0-1.96,0.6-1.96,2.79c0,2.31,0.37,2.82,1.63,2.82c0.2,0,0.4-0.01,0.59-0.05V9.82h2.26v4.95
	C52.23,15.1,51.13,15.31,50.13,15.31z M48.2,28.84h-2.6v-9.73h2.6V28.84z M42,5.4h2.61v9.73H42V5.4z M36.72,15.13H33.2V5.4h3.46
	c2.96,0,4.16,1.37,4.16,4.81C40.83,13.78,39.46,15.13,36.72,15.13z M36.68,7.64h-0.95v5.26h0.95c1.12,0,1.49-0.34,1.49-2.72
	C38.17,8.03,37.82,7.64,36.68,7.64z M36.98,19.42l-0.29,2.12c-0.74-0.22-1.48-0.35-2.1-0.35c-0.96,0-1.17,0.29-1.17,0.7
	c0,1.26,3.86,0.83,3.86,4.01c0,1.92-1.3,3.11-3.49,3.11c-1.02,0-2.04-0.23-2.83-0.67l0.33-2.15c0.79,0.4,1.6,0.65,2.44,0.65
	c0.8,0,1.12-0.27,1.12-0.79c0-1.24-3.86-0.86-3.86-4.03c0-1.7,1.04-3.05,3.44-3.05C35.32,18.95,36.28,19.12,36.98,19.42z
	 M27.18,10.64l-0.54-0.9l-0.03,0.01l0.01,1.05v4.32h-2.23V5.4h2.13l3.13,5.05l0.03-0.01L29.64,9.4l0.01-3.99h2.23v9.73h-1.8
	L27.18,10.64z M23.6,26.64l-0.05,2.19h-6.27v-9.73h6.09l0.05,2.23h-3.62v1.5h2.98v2.04h-2.98v1.76H23.6z M23.42,12.93l-0.05,2.19
	H17.1V5.4h6.1l0.05,2.23h-3.62v1.5h2.98v2.04h-2.98v1.76H23.42z M11.24,15.13l-0.91-5.9L10.2,8.18h-0.04l-0.14,1.05l-0.89,5.9H6.09
	L4.06,5.4H6.7l0.86,6.14l0.13,1.04h0.04l0.14-1.04L8.88,5.4h2.7l1.03,6.08l0.16,1.04h0.04l0.11-1.04l0.87-6.08h2.53l-2.04,9.73
	H11.24z M8.04,25.18l0.22,1.02h0.04l0.21-1.02l1.4-6.07h2.62l-2.88,9.73H6.75l-2.87-9.73h2.79L8.04,25.18z M15.86,28.84h-2.61v-9.73
	h2.61V28.84z M27.12,26.58h3.31l-0.06,2.26h-5.8v-9.73h2.56V26.58z M44.35,21.34h-3.62v1.5h2.98v2.04h-2.98v1.76h3.79l-0.05,2.19
	H38.2v-9.73h6.09L44.35,21.34z M59.55,28.84h-2.61v-9.73h2.61V28.84z M70.05,21.45c0.91,0,1.3,0.45,1.3,1.24
	c0,0.74-0.39,1.23-1.3,1.23s-1.31-0.35-1.31-1.23C68.74,21.91,69.14,21.45,70.05,21.45z M70.05,26.51c0.91,0,1.3,0.45,1.3,1.24
	c0,0.74-0.39,1.23-1.3,1.23s-1.31-0.35-1.31-1.23C68.74,26.97,69.14,26.51,70.05,26.51z"/>
</svg>
