<?xml version="1.0" encoding="utf-8"?>
<!-- Generator: Adobe Illustrator 23.1.1, SVG Export Plug-In . SVG Version: 6.00 Build 0)  -->
<!DOCTYPE svg PUBLIC "-//W3C//DTD SVG 1.1//EN" "http://www.w3.org/Graphics/SVG/1.1/DTD/svg11.dtd" [
	<!ENTITY ns_extend "http://ns.adobe.com/Extensibility/1.0/">
	<!ENTITY ns_ai "http://ns.adobe.com/AdobeIllustrator/10.0/">
	<!ENTITY ns_graphs "http://ns.adobe.com/Graphs/1.0/">
	<!ENTITY ns_vars "http://ns.adobe.com/Variables/1.0/">
	<!ENTITY ns_imrep "http://ns.adobe.com/ImageReplacement/1.0/">
	<!ENTITY ns_sfw "http://ns.adobe.com/SaveForWeb/1.0/">
	<!ENTITY ns_custom "http://ns.adobe.com/GenericCustomNamespace/1.0/">
	<!ENTITY ns_adobe_xpath "http://ns.adobe.com/XPath/1.0/">
]>
<svg version="1.1" id="Ebene_1" xmlns:x="&ns_extend;" xmlns:i="&ns_ai;" xmlns:graph="&ns_graphs;"
	 xmlns="http://www.w3.org/2000/svg" xmlns:xlink="http://www.w3.org/1999/xlink" x="0px" y="0px" viewBox="0 0 206 119.3"
	 style="enable-background:new 0 0 206 119.3;" xml:space="preserve">
<style type="text/css">
	.st0{fill-rule:evenodd;clip-rule:evenodd;}
</style>
<metadata>
	<sfw  xmlns="&ns_sfw;">
		<slices></slices>
		<sliceSourceBounds  bottomLeftOrigin="true" height="86.5" width="161.4" x="15.4" y="103.8"></sliceSourceBounds>
	</sfw>
</metadata>
<path class="st0" d="M173.6,53.1l-5.2-8l-1-1.6l0,0l0,1.9v7.7h-4V35.8h3.8l5.5,8.9l0,0l0-1.8l0-7.1h4v17.2H173.6z M162.5,22.1
	l-1-1.6l0,0l0,1.9v7.7h-4V12.8h3.8l5.5,8.9l0,0l0-1.8l0-7.1h4v17.2h-3.2L162.5,22.1z M155.8,26.2l-0.1,3.9h-11.1V12.8h10.8l0.1,4
	h-6.4v2.7h5.3v3.6h-5.3v3.1H155.8z M135.5,30.1h-6.2V12.8h6.1c5.2,0,7.4,2.4,7.4,8.5C142.8,27.7,140.3,30.1,135.5,30.1z M135.4,16.8
	h-1.7v9.3h1.7c2,0,2.6-0.6,2.6-4.8C138,17.5,137.4,16.8,135.4,16.8z M118.8,30.1h-4.6V16.8h-3.9l0.1-4h12.2l0.1,4h-3.9V30.1z
	 M104.1,12.8h4.6v17.2h-4.6V12.8z M97.5,22.8l0-1.9l-0.1,0l-0.6,1.8l-2.6,7.3h-2.9l-2.5-7.3L88.3,21l0,0l0,1.9v7.2h-3.9V12.8h4.9
	l3,8.7l0.6,1.8h0.1l0.6-1.7l3.1-8.7h5v17.2h-4.1V22.8z M86.1,53.1h-3.2l-5.2-8l-1-1.6l0,0l0,1.9v7.7h-4V35.8h3.8l5.5,8.9l0,0l0-1.8
	l0-7.1h4V53.1z M73.9,30.1h-4.6V16.8h-3.9l0.1-4h12.2l0.1,4h-3.9V30.1z M64.5,26.1l-0.1,4H52.7v-2.9l5.5-8.7l1-1.5l0,0h-6.3l0.1-4
	h11.5V16l-5.3,8.5l-1,1.5l0,0.1H64.5z M53.2,35.8h4.5v11.4c0,4-2.2,6.2-6.6,6.2s-6.6-2.1-6.6-6.2V35.8h4.5v11.3
	c0,1.5,0.6,2.2,2.1,2.2c1.6,0,2.1-0.6,2.1-2.2V35.8z M48,30.1h-4.6V16.8h-3.9l0.1-4h12.2l0.1,4H48V30.1z M38.8,26.2l-0.1,3.9H27.6
	V12.8h10.8l0.1,4H32v2.7h5.3v3.6H32v3.1H38.8z M29.3,53.1h-3.2l-5.2-8l-1-1.6l0,0l0,1.9v7.7h-4V35.8h3.8l5.5,8.9l0,0l0-1.8l0-7.1h4
	V53.1z M18.6,30.4c-1.3,0-2.3-0.2-3.1-0.6l0.2-3.7c0.5,0.3,1.2,0.4,2.1,0.4c1.9,0,2.8-0.7,2.8-2.8V12.8h4.6v10.9
	C25.2,28.8,22.6,30.4,18.6,30.4z M20.5,65.3h4.2v-6.5h4.5v17.2h-4.5v-6.8h-4.2v6.8H16V58.8h4.5V65.3z M20.5,88.3h4.2v-6.5h4.5v17.2
	h-4.5v-6.8h-4.2v6.8H16V81.8h4.5V88.3z M42.4,62.8H36v2.7h5.3v3.6H36v3.1h6.7l-0.1,3.9H31.5V58.8h10.8L42.4,62.8z M42.4,85.8H36v2.7
	h5.3v3.6H36v3.1h6.7l-0.1,3.9H31.5V81.8h10.8L42.4,85.8z M31.7,35.8h10.8l0.1,4h-6.4v2.7h5.3v3.6h-5.3v3.1h6.7l-0.1,3.9H31.7V35.8z
	 M57.1,64.9c0,3.7-1.9,5.8-6.7,5.8h-1.4v5.4h-4.5V58.8h5.9C55.2,58.8,57.1,60.7,57.1,64.9z M48.9,67.1h1.4c1.5,0,2-0.3,2-2.3
	c0-1.9-0.4-2.3-2-2.3h-1.4V67.1z M57.1,87.9c0,3.7-1.9,5.8-6.7,5.8h-1.4v5.4h-4.5V81.8h5.9C55.2,81.8,57.1,83.7,57.1,87.9z
	 M48.9,90.1h1.4c1.5,0,2-0.3,2-2.3c0-1.9-0.4-2.3-2-2.3h-1.4V90.1z M67,76.1l-0.7-3h-4.7l-0.7,3h-4.8l5.1-17.2h5.5L72,76.1H67z
	 M64.4,64.4L64,62.5h-0.1l-0.4,1.8l-1.1,4.9h3L64.4,64.4z M71,49.2L71,53.1H59.8V35.8h10.8l0.1,4h-6.4v2.7h5.3v3.6h-5.3v3.1H71z
	 M66.8,81.8L72,99.1h-5l-0.7-3h-4.7l-0.7,3h-4.8l5.1-17.2H66.8z M65.5,92.3l-1.1-4.9L64,85.5h-0.1l-0.4,1.8l-1.1,4.9H65.5z
	 M86.9,58.8V73h2v3.1h-8.6V73h2V64l-2.6,1.4L79.3,62l5-3.2H86.9z M86.9,81.8V96h2v3.1h-8.6V96h2V87l-2.6,1.4L79.3,85l5-3.2H86.9z
	 M102.4,81.8v10.5h1.4l-0.1,3.6h-1.3v3.1h-4.1V96h-6.8l-0.4-2.8l6-11.4H102.4z M98.5,92.4l0.2-4.3l0.1-1.9l0,0l-3.1,6.2H98.5z
	 M104.4,39.8h-6.3v3h5.3l0,3.8h-5.2v6.4h-4.5V35.8h10.8L104.4,39.8z M96.7,62.4c-1.5,0-2.8,0.5-3.9,1.4l-1-3.4
	c1.3-1,3.2-1.7,5.2-1.7c3.7,0,5.9,1.8,5.9,4.9c0,1.6-0.7,2.8-2.1,3.6v0c1.5,0.7,2.4,1.9,2.4,3.7c0,3.3-2,5.4-6.5,5.4
	c-1.9,0-3.6-0.5-4.8-1.2l0.8-3.4c1.2,0.6,2.5,0.9,3.8,0.9c1.6,0,2.4-0.7,2.4-1.9c0-1.1-0.6-2-3.7-2v-3.1c3,0,3.6-0.7,3.6-1.8
	C98.8,62.9,98.2,62.4,96.7,62.4z M107.2,95c1.6,0,2.3,0.8,2.3,2.2c0,1.3-0.7,2.2-2.3,2.2c-1.6,0-2.3-0.6-2.3-2.2
	C104.9,95.8,105.6,95,107.2,95z M106.1,35.8h4.6v17.2h-4.6V35.8z M114.9,70.1c0,1.5,0.6,2.2,2.1,2.2c1.6,0,2.1-0.6,2.1-2.2V58.8h4.5
	v11.4c0,4-2.2,6.2-6.6,6.2c-4.4,0-6.6-2.1-6.6-6.2V58.8h4.5V70.1z M111.2,82.9l2.1,0.5l0.3-2.2h1.9l0.3,2.2l2.1-0.5l0.7,1.9l-2,1
	l1.2,2l-1.4,1.1l-1.7-1.7l-1.7,1.7l-1.5-1.1l1.1-2l-2-1L111.2,82.9z M113.3,53.1V35.8h4.5v13.2h5.9l-0.1,4H113.3z M126.1,53.1V39.8
	h-3.9l0.1-4h12.2l0.1,4h-3.9v13.2H126.1z M135.1,67.8L135.1,67.8v-1.9l0-7.1h4v17.2h-3.2l-5.2-8l-1-1.6l0,0l0,1.9v7.7h-4V58.8h3.8
	L135.1,67.8z M147.2,49.2l-0.1,3.9H136V35.8h10.8l0.1,4h-6.4v2.7h5.3v3.6h-5.3v3.1H147.2z M155,67.4c0,6.3-2.4,8.7-7.3,8.7h-6.2
	V58.8h6.1C152.8,58.8,155,61.3,155,67.4z M145.9,72.1h1.7c2,0,2.6-0.6,2.6-4.8c0-3.8-0.6-4.5-2.6-4.5h-1.7V72.1z M153.4,46.9v6.2
	h-4.5V35.8h6c4.4,0,6.5,1.7,6.5,5.5c0,2.3-0.8,4-2.3,4.6l3.4,7.1h-5.2l-2.3-6.2H153.4z M156.7,41.5c0-1.6-0.4-2-1.7-2h-1.6v4h1.5
	C156.3,43.5,156.7,43.2,156.7,41.5z"/>
</svg>
