<?xml version="1.0" encoding="utf-8"?>
<!-- Generator: Adobe Illustrator 16.0.0, SVG Export Plug-In . SVG Version: 6.00 Build 0)  -->
<!DOCTYPE svg PUBLIC "-//W3C//DTD SVG 1.1//EN" "http://www.w3.org/Graphics/SVG/1.1/DTD/svg11.dtd">
<svg version="1.1" id="Ebene_1" xmlns="http://www.w3.org/2000/svg" xmlns:xlink="http://www.w3.org/1999/xlink" x="0px" y="0px"
	 width="162.699px" height="35.4px" viewBox="0 0 162.699 35.4" enable-background="new 0 0 162.699 35.4" xml:space="preserve">
<g>
	<polygon fill="#1A1A18" points="162.699,17.7 152.5,0 0,0 10.8,17.7 0,35.4 152.5,35.4 	"/>
	<g>
		<path fill="#FFED00" d="M30.376,24.018h-4.443V10.949h4.391c3.834,0,5.42,1.812,5.42,6.465
			C35.743,22.223,33.966,24.018,30.376,24.018z M30.341,13.476h-1.672v8.033h1.672c1.812,0,2.527-0.592,2.527-4.112
			C32.868,14.138,32.206,13.476,30.341,13.476z"/>
		<path fill="#FFED00" d="M42.38,24.245c-3.642,0-5.245-1.934-5.245-6.761c0-4.827,1.534-6.744,5.245-6.744
			c3.712,0,5.245,1.917,5.245,6.744C47.625,22.415,46.092,24.245,42.38,24.245z M42.38,13.284c-1.76,0-2.369,0.75-2.369,4.2
			c0,3.468,0.609,4.234,2.387,4.234c1.761,0,2.353-0.784,2.353-4.234C44.75,14.016,44.158,13.284,42.38,13.284z"/>
		<path fill="#FFED00" d="M57.747,10.949l1.655,8.939l0.244,1.394h0.053l0.191-1.394l1.429-8.939h2.736l-2.754,13.069h-3.293
			l-1.551-8.782l-0.209-1.412h-0.053l-0.227,1.412l-1.498,8.782h-3.294l-2.771-13.069h2.841l1.429,8.957l0.209,1.394h0.052
			l0.227-1.394l1.655-8.957H57.747z"/>
		<path fill="#FFED00" d="M73.235,24.018l-4.479-7.075l-0.731-1.22l-0.035,0.017l0.018,1.412v6.866h-2.422V10.949h2.353l4.844,7.929
			l0.035-0.018l-0.035-1.394v-6.518h2.405v13.069H73.235z"/>
		<path fill="#FFED00" d="M85.013,21.474l-0.069,2.544H77.45V10.949h2.753v10.525H85.013z"/>
		<path fill="#FFED00" d="M91.006,24.245c-3.643,0-5.245-1.934-5.245-6.761c0-4.827,1.533-6.744,5.245-6.744
			c3.711,0,5.245,1.917,5.245,6.744C96.251,22.415,94.717,24.245,91.006,24.245z M91.006,13.284c-1.76,0-2.37,0.75-2.37,4.2
			c0,3.468,0.61,4.234,2.388,4.234c1.76,0,2.352-0.784,2.352-4.234C93.375,14.016,92.783,13.284,91.006,13.284z"/>
		<path fill="#FFED00" d="M104.352,21.439h-4.183l-0.645,2.579h-2.893l4.008-13.069h3.346l4.061,13.069h-3.05L104.352,21.439z
			 M101.93,14.504l-1.15,4.548h2.979l-1.15-4.548l-0.296-1.394h-0.052L101.93,14.504z"/>
		<path fill="#FFED00" d="M113.707,24.018h-4.443V10.949h4.391c3.834,0,5.42,1.812,5.42,6.465
			C119.074,22.223,117.297,24.018,113.707,24.018z M113.672,13.476h-1.673v8.033h1.673c1.812,0,2.527-0.592,2.527-4.112
			C116.199,14.138,115.537,13.476,113.672,13.476z"/>
		<path fill="#FFED00" d="M129.021,21.543l-0.069,2.475h-8.051V10.949h7.807l0.052,2.509h-5.123v2.684h4.305v2.3h-4.305v3.102
			H129.021z"/>
		<path fill="#FFED00" d="M138.324,24.018l-4.479-7.075l-0.731-1.22l-0.035,0.017l0.018,1.412v6.866h-2.422V10.949h2.353
			l4.844,7.929l0.035-0.018l-0.035-1.394v-6.518h2.405v13.069H138.324z"/>
	</g>
</g>
</svg>
