<svg viewBox="0 0 134.74609 9.54492" xmlns="http://www.w3.org/2000/svg"><path d="m1.62891.0498.03027 1.16993 1.10937-.31055.12012.36035-1.12012.34961.71973.97949-.2793.22949-.75-.97949-.77929.97949-.28028-.21972.7295-.98926-1.12891-.34961.12988-.36035 1.11912.31055.0303-1.16993z"/><path d="m8.06738 6.02637h-3.60838l-.71 1.97949h-.709l2.8477-7.49609h.7803l2.84762 7.49609h-.73925zm-2.05957-4.25782-1.3291 3.669h3.17871l-1.30957-3.669-.25-.76955h-.03027z"/><path d="m11.38867 4.54785h.93945l2.05958-2.44922h.7793l-2.28907 2.69922 2.38867 3.208h-.76953l-2.169-2.919h-.93945v2.919h-.60932v-7.95605l.60937-.04z"/><path d="m17.419 2.59863v3.98731a.8611.8611 0 0 0 .959.99023 1.50312 1.50312 0 0 0 .5-.08008l.0498.4795a2.00514 2.00514 0 0 1 -.709.12011c-.91992 0-1.41016-.47949-1.41016-1.48925v-4.00782h-.91894v-.49023h.92969l.12006-1.54883.47955-.05957v1.6084h1.54882v.49023z"/><path d="m20.90918.89941c-.2998 0-.46973-.09961-.46973-.41992 0-.26953.16993-.41992.46973-.41992s.46973.15039.46973.41992c0 .29004-.16991.41992-.46973.41992zm-.30957 7.10645v-5.86719l.60937-.0498v5.917z"/><path d="m25.50781 8.13574c-1.71875 0-2.48828-.85937-2.48828-3.06836 0-2.18847.7793-3.05859 2.48828-3.05859 1.72949 0 2.459.87012 2.459 3.05859-.00001 2.20899-.72951 3.06836-2.459 3.06836zm0-.53027c1.31934 0 1.8291-.69922 1.8291-2.53809 0-1.8291-.50976-2.51855-1.8291-2.51855-1.3291 0-1.8584.68945-1.8584 2.51855 0 1.84862.5293 2.53809 1.8584 2.53809z"/><path d="m33.25684 8.00586v-3.97852c0-1.00879-.55957-1.43847-1.5586-1.43847a1.97458 1.97458 0 0 0 -1.60937.79883v4.61816h-.59961v-5.88672l.42969-.04.11035.709h.02929a2.3249 2.3249 0 0 1 1.78907-.7793 1.80358 1.80358 0 0 1 2.00879 2.00879v3.98823z"/><path d="m37.11816 8.126a2.94033 2.94033 0 0 1 -1.79882-.54l.10058-.54981a2.74584 2.74584 0 0 0 1.68848.55957c1 0 1.41992-.50976 1.41992-1.18945 0-1.5791-3.17871-.89941-3.17871-2.84863 0-.959.68945-1.54883 1.959-1.54883a3.48772 3.48772 0 0 1 1.54883.33984l-.05957.53028a3.68539 3.68539 0 0 0 -1.499-.33008c-.83985 0-1.36914.37988-1.36914.97949 0 1.46875 3.168.73926 3.168 2.81836-.00007 1.06926-.60945 1.77926-1.97957 1.77926z"/><path d="m42.97754 8.11523a2.2107 2.2107 0 0 1 -1.81836-.80957l-.03027.01075-.12012.68945h-.39941v-7.96586l.60937-.04v1.959l-.00977.79981.01954.00976a2.33061 2.33061 0 0 1 1.81933-.76957c1.37891 0 2.25879.75977 2.25879 3.04786 0 2.24904-.84964 3.06837-2.3291 3.06837zm-.08984-5.54687a1.9416 1.9416 0 0 0 -1.669.83008v3.33789a1.89118 1.89118 0 0 0 1.68945.85937c1.04883 0 1.7793-.52929 1.7793-2.53808.00005-1.9795-.66987-2.48926-1.79975-2.48926z"/><path d="m46.44922 4.85742c0-1.84863.79-2.84863 2.34863-2.84863 1.3291 0 2.25879.80957 2.25879 2.71875a2.89778 2.89778 0 0 1 -.01953.2998h-3.96777c.02929 1.88868.65918 2.52832 2.06836 2.52832a3.28152 3.28152 0 0 0 1.6289-.41992l.08008.53028a3.47077 3.47077 0 0 1 -1.76856.46c-1.8789-.00002-2.6289-.99028-2.6289-3.2686zm4.04785-.25976c-.01953-1.48926-.71973-2.04883-1.69922-2.04883-1.15918 0-1.67871.68945-1.73926 2.04883z"/><path d="m56.417 8.00586-.09961-.68945-.03027-.01075a2.08519 2.08519 0 0 1 -1.82912.82034c-1.63867 0-2.27832-.96-2.27832-3.06836 0-2.0293.67969-3.04883 2.28808-3.04883a2.28217 2.28217 0 0 1 1.79883.76953l.02051-.00977-.02051-.7998v-1.9092l.61041-.0498v7.99609zm-.1504-4.60742a1.85969 1.85969 0 0 0 -1.64844-.80957c-1.31933 0-1.81933.71972-1.81933 2.48828 0 1.81933.46 2.52832 1.80957 2.52832a1.73311 1.73311 0 0 0 1.6582-.85938z"/><path d="m59.38867.89941c-.2998 0-.46972-.09961-.46972-.41992 0-.26953.16992-.41992.46972-.41992s.46973.15043.46973.41992c0 .29004-.16992.41992-.46973.41992zm-.30957 7.10645v-5.86719l.60938-.0498v5.917z"/><path d="m65.64648 8.00586v-3.97852c0-1.00879-.55957-1.43847-1.55859-1.43847a1.97457 1.97457 0 0 0 -1.60937.79883v4.61816h-.59961v-5.88672l.42968-.04.11036.709h.02929a2.32489 2.32489 0 0 1 1.78906-.7793 1.80358 1.80358 0 0 1 2.00879 2.00879v3.98823z"/><path d="m69.04883 5.32715c-.40039.08984-.61035.29-.61035.54 0 .22949.18066.41894.66992.46972l1.35937.13965c1.44922.14942 1.87891.58985 1.87891 1.36914 0 1.03907-.59961 1.69922-2.38867 1.69922-1.54883 0-2.19922-.62012-2.19922-1.55957a1.53452 1.53452 0 0 1 .65039-1.209.83679.83679 0 0 1 -.54-.79c0-.35938.26953-.67969.75977-.84961a1.46539 1.46539 0 0 1 -.71973-1.39844c0-1.10937.55957-1.72949 1.98926-1.72949a2.31091 2.31091 0 0 1 1.43847.41016l.9502-.42969.13965.30957-.75977.50976a1.8941 1.8941 0 0 1 .21.91895c0 1.10937-.5 1.71-1.97851 1.71a3.04335 3.04335 0 0 1 -.84969-.11037zm-.11035 1.55859a1.28008 1.28008 0 0 0 -.63965 1.03026c0 .69921.47949 1.11914 1.63965 1.11914 1.459 0 1.83886-.4502 1.83886-1.10938 0-.50976-.25976-.79-1.39941-.88965zm-.43948-3.13769c0 .98925.59961 1.209 1.38868 1.209 1.08007 0 1.40918-.41992 1.40918-1.209 0-.90918-.42969-1.2295-1.39844-1.2295-1.01951 0-1.39942.41016-1.39942 1.2295z"/><path d="m77.93652 6.14648c0 1.23926-.71 1.9795-2.18847 1.9795-1.46973 0-2.17969-.75-2.17969-1.9795v-4.03808h.60064v4.0186c0 .91895.53906 1.41895 1.5791 1.41895 1.03906 0 1.58886-.49024 1.58886-1.41895v-4.0186h.59961z"/><path d="m83.49707 8.00586v-3.97852c0-1.00879-.55957-1.43847-1.55957-1.43847a1.97278 1.97278 0 0 0 -1.6084.79883v4.61816h-.59961v-5.88672l.42969-.04.10937.709h.03028a2.32191 2.32191 0 0 1 1.78906-.7793 1.804 1.804 0 0 1 2.00879 2.00879v3.98823z"/><path d="m86.89844 5.32715c-.40039.08984-.61035.29-.61035.54 0 .22949.18066.41894.66992.46972l1.35937.13965c1.44922.14942 1.87891.58985 1.87891 1.36914 0 1.03907-.59961 1.69922-2.38867 1.69922-1.54883 0-2.19922-.62012-2.19922-1.55957a1.53452 1.53452 0 0 1 .65039-1.209.83677.83677 0 0 1 -.54-.79c0-.35938.26953-.67969.75977-.84961a1.46539 1.46539 0 0 1 -.71973-1.39844c0-1.10937.55957-1.72949 1.98926-1.72949a2.31091 2.31091 0 0 1 1.43847.41016l.9502-.42969.13965.30957-.75977.50976a1.89421 1.89421 0 0 1 .21.91895c0 1.10937-.5 1.71-1.97851 1.71a3.04335 3.04335 0 0 1 -.84969-.11037zm-.11035 1.55859a1.28008 1.28008 0 0 0 -.63965 1.03026c0 .69921.47949 1.11914 1.63965 1.11914 1.459 0 1.83886-.4502 1.83886-1.10938 0-.50976-.25976-.79-1.39941-.88965zm-.43946-3.13769c0 .98925.59961 1.209 1.38867 1.209 1.08008 0 1.40918-.41992 1.40918-1.209 0-.90918-.42968-1.2295-1.39843-1.2295-1.01953 0-1.39942.41016-1.39942 1.2295z"/><path d="m91.10938 4.85742c0-1.84863.78906-2.84863 2.34863-2.84863 1.3291 0 2.25879.80957 2.25879 2.71875a2.89359 2.89359 0 0 1 -.02051.2998h-3.96777c.03027 1.88868.66015 2.52832 2.06933 2.52832a3.287 3.287 0 0 0 1.62891-.41992l.08008.53028a3.47446 3.47446 0 0 1 -1.76954.46c-1.8789-.00002-2.62792-.99028-2.62792-3.2686zm4.04785-.25976c-.02051-1.48926-.71973-2.04883-1.69923-2.04883-1.15918 0-1.67969.68945-1.73926 2.04883z"/><path d="m100.98633 8.00586v-3.97852c0-1.00879-.55957-1.43847-1.5586-1.43847a1.97459 1.97459 0 0 0 -1.60937.79883v4.61816h-.59961v-5.88672l.42969-.04.11035.709h.0293a2.32488 2.32488 0 0 1 1.78906-.7793 1.80358 1.80358 0 0 1 2.00879 2.00879v3.98823z"/><path d="m107.58789 5.32715c-.39941.08984-.60937.29-.60937.54 0 .22949.17968.41894.66992.46972l1.3584.13965c1.44921.14942 1.87988.58985 1.87988 1.36914 0 1.03907-.60059 1.69922-2.38867 1.69922-1.54981 0-2.19922-.62012-2.19922-1.55957a1.53338 1.53338 0 0 1 .64941-1.209.836.836 0 0 1 -.53906-.79c0-.35938.26953-.67969.75879-.84961a1.46712 1.46712 0 0 1 -.71973-1.39844c0-1.10937.56055-1.72949 1.98926-1.72949a2.31378 2.31378 0 0 1 1.4395.41023l.94922-.42969.13965.30957-.75879.50976a1.89421 1.89421 0 0 1 .21.91895c0 1.10937-.5 1.71-1.97949 1.71a3.05279 3.05279 0 0 1 -.8497-.11044zm-.10937 1.55859a1.28008 1.28008 0 0 0 -.63965 1.03028c0 .69921.47949 1.11914 1.63867 1.11914 1.459 0 1.83887-.4502 1.83887-1.10938 0-.50976-.25977-.79-1.39942-.88965zm-.44043-3.13769c0 .98925.59961 1.209 1.38964 1.209 1.07911 0 1.40918-.41992 1.40918-1.209 0-.90918-.42968-1.2295-1.39941-1.2295-1.0195 0-1.39941.41016-1.39941 1.2295z"/><path d="m111.79883 4.85742c0-1.84863.79-2.84863 2.34863-2.84863 1.3291 0 2.25879.80957 2.25879 2.71875a2.90056 2.90056 0 0 1 -.01953.2998h-3.96772c.02929 1.88868.65917 2.52832 2.06835 2.52832a3.28153 3.28153 0 0 0 1.62891-.41992l.08008.53028a3.47077 3.47077 0 0 1 -1.76856.46c-1.87895-.00002-2.62895-.99028-2.62895-3.2686zm4.04785-.25976c-.01953-1.48926-.71973-2.04883-1.69922-2.04883-1.15918 0-1.67871.68945-1.73926 2.04883z"/><path d="m118.13867 8.00586v-7.95606l.59961-.04v7.99606z"/><path d="m121.83789 2.59863v3.98731a.86177.86177 0 0 0 .96.99023 1.49292 1.49292 0 0 0 .499-.08008l.05078.4795a2.01106 2.01106 0 0 1 -.71.12011c-.91993 0-1.40918-.47949-1.40918-1.48925v-4.00782h-.91993v-.49023h.92969l.12015-1.54883.47949-.05957v1.6084h1.54981v.49023z"/><path d="m124.26855 4.85742c0-1.84863.79-2.84863 2.34864-2.84863 1.3291 0 2.25879.80957 2.25879 2.71875a2.90056 2.90056 0 0 1 -.01953.2998h-3.96778c.0293 1.88868.65918 2.52832 2.06836 2.52832a3.28156 3.28156 0 0 0 1.62891-.41992l.08008.53028a3.4708 3.4708 0 0 1 -1.76856.46c-1.87891-.00002-2.62891-.99028-2.62891-3.2686zm4.04786-.25976c-.01953-1.48926-.71973-2.04883-1.69922-2.04883-1.15918 0-1.67871.68945-1.73926 2.04883z"/><path d="m134.14648 8.00586v-3.97852c0-1.00879-.55957-1.43847-1.55957-1.43847a1.97276 1.97276 0 0 0 -1.60839.79883v4.61816h-.59961v-5.88672l.42968-.04.10938.709h.03027a2.32193 2.32193 0 0 1 1.78906-.7793 1.804 1.804 0 0 1 2.00879 2.00879v3.98823z"/></svg>