<?xml version="1.0" encoding="utf-8"?>
<!-- Generator: Adobe Illustrator 27.2.0, SVG Export Plug-In . SVG Version: 6.00 Build 0)  -->
<svg version="1.1" id="Ebene_1" xmlns="http://www.w3.org/2000/svg" xmlns:xlink="http://www.w3.org/1999/xlink" x="0px" y="0px"
	 viewBox="0 0 276.84 42.63" style="enable-background:new 0 0 276.84 42.63;" xml:space="preserve">
<style type="text/css">
	.st0{fill:#FFFFFF;}
	.st1{fill:#238C96;}
</style>
<g>
	<path d="M10.2,11.69c0,5.28-2.69,6.94-6.91,6.94C1.94,18.63,0.86,18.39,0,18l0.24-3.91c0.5,0.26,1.3,0.43,2.23,0.43
		c1.97,0,2.93-0.77,2.93-2.93V0.29h4.8V11.69z"/>
	<path d="M24.34,14.23l-0.1,4.06H12.65v-18h11.28l0.1,4.13h-6.7V7.2h5.52v3.77h-5.52v3.26H24.34z"/>
	<path d="M33.98,4.49v13.8h-4.78V4.49h-4.08l0.1-4.2h12.75l0.1,4.2H33.98z"/>
	<path d="M38.86,18.29v-3.05l5.74-9.12l1.06-1.58l-0.02-0.05H39l0.12-4.2h12.03v3.36l-5.54,8.83l-1.06,1.56l0.02,0.07h6.62
		l-0.07,4.18H38.86z"/>
	<path d="M60.96,4.49v13.8h-4.78V4.49H52.1l0.1-4.2h12.75l0.1,4.2H60.96z"/>
	<path d="M82.42,18.29l-5.38-8.3l-1.01-1.66l-0.05,0.02l0.02,1.94v7.99h-4.13v-18h3.94l5.78,9.34l0.05-0.02L81.6,7.68l0.02-7.39
		h4.13v18H82.42z"/>
	<path d="M99.89,14.23l-0.1,4.06H88.2v-18h11.28l0.1,4.13h-6.7V7.2h5.52v3.77h-5.52v3.26H99.89z"/>
	<path d="M115.32,12.17c0,4.22-2.26,6.43-6.86,6.43s-6.94-2.21-6.94-6.43V0.29h4.7v11.79c0,1.61,0.62,2.33,2.23,2.33
		c1.63,0,2.18-0.67,2.18-2.33V0.29h4.68V12.17z"/>
	<path d="M129.29,14.23l-0.1,4.06H117.6v-18h11.28l0.1,4.13h-6.7V7.2h5.52v3.77h-5.52v3.26H129.29z"/>
	<path d="M141.62,18.29l-5.38-8.3l-1.01-1.66l-0.05,0.02l0.02,1.94v7.99h-4.13v-18h3.94l5.78,9.34l0.05-0.02l-0.05-1.92l0.02-7.39
		h4.13v18H141.62z"/>
	<path d="M153,0.29h4.82v18H153V0.29z"/>
	<path d="M171,18.29l-5.38-8.3l-1.01-1.66l-0.05,0.02l0.02,1.94v7.99h-4.13v-18h3.94l5.78,9.34l0.05-0.02l-0.05-1.92l0.02-7.39h4.13
		v18H171z"/>
	<path d="M183.29,18.29h-6.5v-18h6.41c5.47,0,7.7,2.54,7.7,8.9C190.89,15.79,188.35,18.29,183.29,18.29z M183.21,4.44h-1.75v9.74
		h1.75c2.06,0,2.76-0.62,2.76-5.04C185.97,5.16,185.33,4.44,183.21,4.44z"/>
	<path d="M206.49,12.17c0,4.22-2.26,6.43-6.86,6.43s-6.94-2.21-6.94-6.43V0.29h4.7v11.79c0,1.61,0.62,2.33,2.23,2.33
		c1.63,0,2.18-0.67,2.18-2.33V0.29h4.68V12.17z"/>
	<path d="M213.31,18.6c-1.9,0-3.77-0.43-5.23-1.25l0.6-3.98c1.46,0.74,2.95,1.2,4.51,1.2c1.49,0,2.06-0.5,2.06-1.46
		c0-2.3-7.15-1.58-7.15-7.46c0-3.14,1.92-5.64,6.36-5.64c1.66,0,3.43,0.31,4.73,0.86l-0.53,3.91c-1.37-0.41-2.74-0.65-3.89-0.65
		c-1.78,0-2.16,0.53-2.16,1.3c0,2.33,7.15,1.54,7.15,7.42C219.77,16.39,217.37,18.6,213.31,18.6z"/>
	<path d="M228.91,4.49v13.8h-4.78V4.49h-4.08l0.1-4.2h12.75l0.1,4.2H228.91z"/>
	<path d="M245.01,10.92l3.5,7.37h-5.42l-2.4-6.43h-1.58v6.43h-4.68v-18h6.22c4.56,0,6.82,1.73,6.82,5.78
		C247.46,8.47,246.6,10.25,245.01,10.92z M240.74,4.18h-1.63v4.15h1.61c1.37,0,1.85-0.34,1.85-2.09
		C242.57,4.61,242.11,4.18,240.74,4.18z"/>
	<path d="M249.88,0.29h4.82v18h-4.82V0.29z"/>
	<path d="M269.04,14.23l-0.1,4.06h-11.59v-18h11.28l0.1,4.13h-6.7V7.2h5.52v3.77h-5.52v3.26H269.04z"/>
	<path d="M276.84,8.5v3.12h-6.7V8.5H276.84z"/>
	<path d="M5.33,42.6c-1.9,0-3.77-0.43-5.23-1.25l0.6-3.98c1.46,0.74,2.95,1.2,4.51,1.2c1.49,0,2.06-0.5,2.06-1.46
		c0-2.3-7.15-1.58-7.15-7.46C0.12,26.5,2.04,24,6.48,24c1.66,0,3.43,0.31,4.73,0.86l-0.53,3.91c-1.37-0.41-2.74-0.65-3.89-0.65
		c-1.78,0-2.16,0.53-2.16,1.3c0,2.33,7.15,1.54,7.15,7.42C11.79,40.39,9.38,42.6,5.33,42.6z"/>
	<path d="M22.3,39.15h-4.9l-0.7,3.14h-4.97l5.33-18h5.74l5.42,18h-5.23L22.3,39.15z M19.44,30.07l-1.15,5.16h3.14l-1.15-5.16
		l-0.36-1.92h-0.07L19.44,30.07z"/>
	<path d="M42.31,36.17c0,4.22-2.26,6.43-6.86,6.43s-6.94-2.21-6.94-6.43V24.29h4.7v11.79c0,1.61,0.62,2.33,2.23,2.33
		c1.63,0,2.18-0.67,2.18-2.33V24.29h4.68V36.17z"/>
	<path d="M57.31,41.64c-1.25,0.6-3.29,0.98-5.14,0.98c-5.95,0-8.06-3.19-8.06-9.34c0-6.29,2.47-9.31,8.28-9.31
		c1.58,0,3.38,0.29,4.68,0.79l-0.43,4.01c-1.18-0.43-2.69-0.7-3.98-0.7c-2.95,0-3.62,1.1-3.62,5.16c0,4.27,0.7,5.21,3.02,5.21
		c0.36,0,0.74-0.02,1.08-0.1v-5.88h4.18V41.64z"/>
	<path d="M71.14,38.23l-0.1,4.06H59.45v-18h11.28l0.1,4.13h-6.7v2.78h5.52v3.77h-5.52v3.26H71.14z"/>
	<path d="M83.52,34.92l3.5,7.37H81.6l-2.4-6.43h-1.58v6.43h-4.68v-18h6.22c4.56,0,6.82,1.73,6.82,5.78
		C85.97,32.47,85.1,34.25,83.52,34.92z M79.25,28.18h-1.63v4.15h1.61c1.37,0,1.85-0.34,1.85-2.09
		C81.07,28.61,80.62,28.18,79.25,28.18z"/>
	<path d="M102.82,42.29l-3.38-7.32h-1.15v7.32H93.6v-18h4.68v6.96h1.25l3.34-6.96h5.26l-4.32,8.62l4.54,9.38H102.82z"/>
	<path d="M118.94,39.15h-4.9l-0.7,3.14h-4.97l5.33-18h5.74l5.42,18h-5.23L118.94,39.15z M116.09,30.07l-1.15,5.16h3.14l-1.15-5.16
		l-0.36-1.92h-0.07L116.09,30.07z"/>
	<path d="M138.96,36.17c0,4.22-2.26,6.43-6.86,6.43s-6.94-2.21-6.94-6.43V24.29h4.7v11.79c0,1.61,0.62,2.33,2.23,2.33
		c1.63,0,2.18-0.67,2.18-2.33V24.29h4.68V36.17z"/>
	<path d="M145.94,28.49v3.17h5.5l-0.02,3.98h-5.47v6.65h-4.7v-18h11.26l0.07,4.2H145.94z"/>
	<path d="M165.84,38.23l-0.1,4.06h-11.59v-18h11.28l0.1,4.13h-6.7v2.78h5.52v3.77h-5.52v3.26H165.84z"/>
	<path d="M178.18,42.29l-5.38-8.3l-1.01-1.66l-0.05,0.02l0.02,1.94v7.99h-4.13v-18h3.94l5.78,9.34l0.05-0.02l-0.05-1.92l0.02-7.39
		h4.13v18H178.18z"/>
	<path d="M202.99,36.17c0,4.22-2.26,6.43-6.86,6.43s-6.94-2.21-6.94-6.43V24.29h4.7v11.79c0,1.61,0.62,2.33,2.23,2.33
		c1.63,0,2.18-0.67,2.18-2.33V24.29h4.68V36.17z"/>
	<path d="M215.81,42.29l-5.38-8.3l-1.01-1.66l-0.05,0.02l0.02,1.94v7.99h-4.13v-18h3.94l5.78,9.34l0.05-0.02l-0.05-1.92l0.02-7.39
		h4.13v18H215.81z"/>
	<path d="M228.09,42.29h-6.5v-18H228c5.47,0,7.7,2.54,7.7,8.9C235.7,39.79,233.16,42.29,228.09,42.29z M228.02,28.44h-1.75v9.74
		h1.75c2.06,0,2.76-0.62,2.76-5.04C230.78,29.16,230.13,28.44,228.02,28.44z"/>
</g>
</svg>
