<?xml version="1.0" encoding="utf-8"?>
<!-- Generator: Adobe Illustrator 27.2.0, SVG Export Plug-In . SVG Version: 6.00 Build 0)  -->
<svg version="1.1" id="Ebene_1" xmlns="http://www.w3.org/2000/svg" xmlns:xlink="http://www.w3.org/1999/xlink" x="0px" y="0px"
	 viewBox="0 0 360.14 18.65" style="enable-background:new 0 0 360.14 18.65;" xml:space="preserve">
<style type="text/css">
	.st0{fill:#FFFFFF;}
	.st1{fill:#238C96;}
</style>
<g>
	<path d="M5.23,18.63c-1.9,0-3.77-0.43-5.23-1.25l0.6-3.98c1.46,0.74,2.95,1.2,4.51,1.2c1.49,0,2.06-0.5,2.06-1.46
		c0-2.3-7.15-1.58-7.15-7.46c0-3.14,1.92-5.64,6.36-5.64c1.66,0,3.43,0.31,4.73,0.86L10.58,4.8C9.22,4.39,7.85,4.15,6.7,4.15
		c-1.78,0-2.16,0.53-2.16,1.3c0,2.33,7.15,1.54,7.15,7.42C11.69,16.42,9.29,18.63,5.23,18.63z"/>
	<path d="M22.2,15.17h-4.9l-0.7,3.14h-4.97l5.33-18h5.74l5.42,18H22.9L22.2,15.17z M19.34,6.1l-1.15,5.16h3.14L20.18,6.1l-0.36-1.92
		h-0.07L19.34,6.1z"/>
	<path d="M42.22,12.19c0,4.22-2.26,6.43-6.86,6.43s-6.94-2.21-6.94-6.43V0.31h4.7V12.1c0,1.61,0.62,2.33,2.23,2.33
		c1.63,0,2.18-0.67,2.18-2.33V0.31h4.68V12.19z"/>
	<path d="M57.22,17.67c-1.25,0.6-3.29,0.98-5.14,0.98c-5.95,0-8.06-3.19-8.06-9.34C44.02,3.02,46.49,0,52.3,0
		c1.58,0,3.38,0.29,4.68,0.79L56.54,4.8c-1.18-0.43-2.69-0.7-3.98-0.7c-2.95,0-3.62,1.1-3.62,5.16c0,4.27,0.7,5.21,3.02,5.21
		c0.36,0,0.74-0.02,1.08-0.1V8.5h4.18V17.67z"/>
	<path d="M64.06,18.63c-1.9,0-3.77-0.43-5.23-1.25l0.6-3.98c1.46,0.74,2.95,1.2,4.51,1.2c1.49,0,2.06-0.5,2.06-1.46
		c0-2.3-7.15-1.58-7.15-7.46c0-3.14,1.92-5.64,6.36-5.64c1.66,0,3.43,0.31,4.73,0.86L69.41,4.8c-1.37-0.41-2.74-0.65-3.89-0.65
		c-1.78,0-2.16,0.53-2.16,1.3c0,2.33,7.15,1.54,7.15,7.42C70.51,16.42,68.11,18.63,64.06,18.63z"/>
	<path d="M79.66,4.51v13.8h-4.78V4.51H70.8l0.1-4.2h12.75l0.1,4.2H79.66z"/>
	<path d="M92.88,15.17h-4.9l-0.7,3.14h-4.97l5.33-18h5.74l5.42,18h-5.23L92.88,15.17z M90.02,6.1l-1.15,5.16h3.14L90.86,6.1
		L90.5,4.18h-0.07L90.02,6.1z"/>
	<path d="M110.59,10.94l3.5,7.37h-5.42l-2.4-6.43h-1.58v6.43h-4.68v-18h6.22c4.56,0,6.82,1.73,6.82,5.78
		C113.04,8.5,112.18,10.27,110.59,10.94z M106.32,4.2h-1.63v4.15h1.61c1.37,0,1.85-0.34,1.85-2.09
		C108.14,4.63,107.69,4.2,106.32,4.2z"/>
	<path d="M124.49,18.31l-3.38-7.32h-1.15v7.32h-4.68v-18h4.68v6.96h1.25l3.34-6.96h5.26l-4.32,8.62l4.54,9.38H124.49z"/>
	<path d="M143.02,14.26l-0.1,4.06h-11.59v-18h11.28l0.1,4.13h-6.7v2.78h5.52v3.77h-5.52v3.26H143.02z"/>
	<path d="M150.41,0.31h4.82v18h-4.82V0.31z"/>
	<path d="M168.41,18.31l-5.38-8.3l-1.01-1.66l-0.05,0.02l0.02,1.94v7.99h-4.13v-18h3.94l5.78,9.34l0.05-0.02l-0.05-1.92l0.02-7.39
		h4.13v18H168.41z"/>
	<path d="M180.69,18.31h-6.5v-18h6.41c5.47,0,7.7,2.54,7.7,8.9C188.3,15.82,185.76,18.31,180.69,18.31z M180.62,4.46h-1.75v9.74
		h1.75c2.06,0,2.76-0.62,2.76-5.04C183.38,5.18,182.73,4.46,180.62,4.46z"/>
	<path d="M203.9,12.19c0,4.22-2.26,6.43-6.86,6.43s-6.94-2.21-6.94-6.43V0.31h4.7V12.1c0,1.61,0.62,2.33,2.23,2.33
		c1.63,0,2.18-0.67,2.18-2.33V0.31h4.68V12.19z"/>
	<path d="M210.72,18.63c-1.9,0-3.77-0.43-5.23-1.25l0.6-3.98c1.46,0.74,2.95,1.2,4.51,1.2c1.49,0,2.06-0.5,2.06-1.46
		c0-2.3-7.15-1.58-7.15-7.46c0-3.14,1.92-5.64,6.36-5.64c1.66,0,3.43,0.31,4.73,0.86l-0.53,3.91c-1.37-0.41-2.74-0.65-3.89-0.65
		c-1.78,0-2.16,0.53-2.16,1.3c0,2.33,7.15,1.54,7.15,7.42C217.17,16.42,214.77,18.63,210.72,18.63z"/>
	<path d="M226.32,4.51v13.8h-4.78V4.51h-4.08l0.1-4.2h12.75l0.1,4.2H226.32z"/>
	<path d="M242.42,10.94l3.5,7.37h-5.42l-2.4-6.43h-1.58v6.43h-4.68v-18h6.22c4.56,0,6.82,1.73,6.82,5.78
		C244.87,8.5,244.01,10.27,242.42,10.94z M238.15,4.2h-1.63v4.15h1.61c1.37,0,1.85-0.34,1.85-2.09
		C239.97,4.63,239.52,4.2,238.15,4.2z"/>
	<path d="M247.29,0.31h4.82v18h-4.82V0.31z"/>
	<path d="M266.45,14.26l-0.1,4.06h-11.59v-18h11.28l0.1,4.13h-6.7v2.78h5.52v3.77h-5.52v3.26H266.45z"/>
	<path d="M272.95,18.63c-1.9,0-3.77-0.43-5.23-1.25l0.6-3.98c1.46,0.74,2.95,1.2,4.51,1.2c1.49,0,2.06-0.5,2.06-1.46
		c0-2.3-7.15-1.58-7.15-7.46c0-3.14,1.92-5.64,6.36-5.64c1.66,0,3.43,0.31,4.73,0.86L278.3,4.8c-1.37-0.41-2.74-0.65-3.89-0.65
		c-1.78,0-2.16,0.53-2.16,1.3c0,2.33,7.15,1.54,7.15,7.42C279.41,16.42,277.01,18.63,272.95,18.63z"/>
	<path d="M289.92,15.17h-4.9l-0.7,3.14h-4.97l5.33-18h5.74l5.42,18h-5.23L289.92,15.17z M287.06,6.1l-1.15,5.16h3.14L287.9,6.1
		l-0.36-1.92h-0.07L287.06,6.1z"/>
	<path d="M309.93,12.19c0,4.22-2.26,6.43-6.86,6.43s-6.94-2.21-6.94-6.43V0.31h4.7V12.1c0,1.61,0.62,2.33,2.23,2.33
		c1.63,0,2.18-0.67,2.18-2.33V0.31h4.68V12.19z"/>
	<path d="M324.93,17.67c-1.25,0.6-3.29,0.98-5.14,0.98c-5.95,0-8.06-3.19-8.06-9.34c0-6.29,2.47-9.31,8.28-9.31
		c1.58,0,3.38,0.29,4.68,0.79l-0.43,4.01c-1.18-0.43-2.69-0.7-3.98-0.7c-2.95,0-3.62,1.1-3.62,5.16c0,4.27,0.7,5.21,3.02,5.21
		c0.36,0,0.74-0.02,1.08-0.1V8.5h4.18V17.67z"/>
	<path d="M338.76,14.26l-0.1,4.06h-11.59v-18h11.28l0.1,4.13h-6.7v2.78h5.52v3.77h-5.52v3.26H338.76z"/>
	<path d="M351.14,10.94l3.5,7.37h-5.42l-2.4-6.43h-1.58v6.43h-4.68v-18h6.22c4.56,0,6.82,1.73,6.82,5.78
		C353.59,8.5,352.72,10.27,351.14,10.94z M346.87,4.2h-1.63v4.15h1.61c1.37,0,1.85-0.34,1.85-2.09
		C348.69,4.63,348.24,4.2,346.87,4.2z"/>
	<path d="M357.74,18.6c-1.68,0-2.42-0.65-2.42-2.28c0-1.46,0.74-2.3,2.42-2.3c1.68,0,2.4,0.84,2.4,2.3
		C360.14,17.69,359.42,18.6,357.74,18.6z"/>
</g>
</svg>
