<?xml version="1.0" encoding="utf-8"?>
<!-- Generator: Adobe Illustrator 27.2.0, SVG Export Plug-In . SVG Version: 6.00 Build 0)  -->
<svg version="1.1" id="Ebene_1" xmlns="http://www.w3.org/2000/svg" xmlns:xlink="http://www.w3.org/1999/xlink" x="0px" y="0px"
	 viewBox="0 0 332.1 36.87" style="enable-background:new 0 0 332.1 36.87;" xml:space="preserve">
<style type="text/css">
	.st0{fill:#FFFFFF;}
	.st1{fill:#238C96;}
</style>
<g>
	<path d="M115.67,9.78l2.92,6.14h-4.52l-2-5.36h-1.32v5.36h-3.9v-15h5.18c3.8,0,5.68,1.44,5.68,4.82
		C117.71,7.74,116.99,9.22,115.67,9.78z M112.1,4.16h-1.36v3.46h1.34c1.14,0,1.54-0.28,1.54-1.74
		C113.63,4.52,113.25,4.16,112.1,4.16z"/>
	<path d="M127.31,13.3h-4.08l-0.58,2.62h-4.14l4.44-15h4.78l4.52,15h-4.36L127.31,13.3z M124.93,5.74l-0.96,4.3h2.62l-0.96-4.3
		l-0.3-1.6h-0.06L124.93,5.74z"/>
	<path d="M139.08,15.93h-5.84v-15h5.88c3.22,0,4.86,1.5,4.86,3.88c0,1.58-0.72,2.6-1.84,3.14v0.04c1.5,0.5,2.3,1.66,2.3,3.52
		C144.45,14.2,142.83,15.93,139.08,15.93z M138.96,4.2h-1.94v2.64H139c0.9,0,1.22-0.34,1.22-1.36C140.23,4.5,139.89,4.2,138.96,4.2z
		 M139.06,9.76h-2.04v2.96h2.12c0.98,0,1.34-0.32,1.34-1.5C140.48,10.18,140.17,9.76,139.06,9.76z"/>
	<path d="M153.47,13.3h-4.08l-0.58,2.62h-4.14l4.44-15h4.78l4.52,15h-4.36L153.47,13.3z M151.08,5.74l-0.96,4.3h2.62l-0.96-4.3
		l-0.3-1.6h-0.06L151.08,5.74z"/>
	<path d="M164.6,4.42v11.5h-3.98V4.42h-3.4l0.08-3.5h10.62l0.08,3.5H164.6z"/>
	<path d="M176.06,4.42v11.5h-3.98V4.42h-3.4l0.08-3.5h10.62l0.08,3.5H176.06z"/>
	<path d="M192.9,13.3h-4.08l-0.58,2.62h-4.14l4.44-15h4.78l4.52,15h-4.36L192.9,13.3z M190.52,5.74l-0.96,4.3h2.62l-0.96-4.3
		l-0.3-1.6h-0.06L190.52,5.74z"/>
	<path d="M209.59,10.82c0,3.52-1.88,5.36-5.72,5.36s-5.78-1.84-5.78-5.36v-9.9H202v9.82c0,1.34,0.52,1.94,1.86,1.94
		c1.36,0,1.82-0.56,1.82-1.94V0.92h3.9V10.82z"/>
	<path d="M215.4,4.42v2.64h4.58l-0.02,3.32h-4.56v5.54h-3.92v-15h9.38l0.06,3.5H215.4z"/>
	<path d="M231.88,11.26h-1.24v4.66h-3.9v-15h5.14c4.16,0,5.82,1.62,5.82,5.28C237.7,9.44,236.08,11.26,231.88,11.26z M231.88,4.18
		h-1.24v3.98h1.24c1.28,0,1.76-0.3,1.76-1.98C233.64,4.56,233.26,4.18,231.88,4.18z"/>
	<path d="M245.72,13.3h-4.08l-0.58,2.62h-4.14l4.44-15h4.78l4.52,15h-4.36L245.72,13.3z M243.34,5.74l-0.96,4.3H245l-0.96-4.3
		l-0.3-1.6h-0.06L243.34,5.74z"/>
	<path d="M255.62,16.19c-1.58,0-3.14-0.36-4.36-1.04l0.5-3.32c1.22,0.62,2.46,1,3.76,1c1.24,0,1.72-0.42,1.72-1.22
		c0-1.92-5.96-1.32-5.96-6.22c0-2.62,1.6-4.7,5.3-4.7c1.38,0,2.86,0.26,3.94,0.72l-0.44,3.26c-1.14-0.34-2.28-0.54-3.24-0.54
		c-1.48,0-1.8,0.44-1.8,1.08c0,1.94,5.96,1.28,5.96,6.18C261,14.34,259,16.19,255.62,16.19z"/>
	<path d="M266.06,16.19c-1.58,0-3.14-0.36-4.36-1.04l0.5-3.32c1.22,0.62,2.46,1,3.76,1c1.24,0,1.72-0.42,1.72-1.22
		c0-1.92-5.96-1.32-5.96-6.22c0-2.62,1.6-4.7,5.3-4.7c1.38,0,2.86,0.26,3.94,0.72l-0.44,3.26c-1.14-0.34-2.28-0.54-3.24-0.54
		c-1.48,0-1.8,0.44-1.8,1.08c0,1.94,5.96,1.28,5.96,6.18C271.44,14.34,269.44,16.19,266.06,16.19z"/>
	<path d="M282.58,12.54l-0.08,3.38h-9.66v-15h9.4l0.08,3.44h-5.58v2.32h4.6v3.14h-4.6v2.72H282.58z"/>
	<path d="M292.86,15.93L288.38,9l-0.84-1.38l-0.04,0.02l0.02,1.62v6.66h-3.44v-15h3.28l4.82,7.78l0.04-0.02l-0.04-1.6l0.02-6.16
		h3.44v15H292.86z"/>
	<path d="M303.1,15.93h-5.42v-15h5.34c4.56,0,6.42,2.12,6.42,7.42C309.44,13.84,307.32,15.93,303.1,15.93z M303.04,4.38h-1.46v8.12
		h1.46c1.72,0,2.3-0.52,2.3-4.2C305.34,4.98,304.8,4.38,303.04,4.38z"/>
	<path d="M320.82,12.54l-0.08,3.38h-9.66v-15h9.4l0.08,3.44h-5.58v2.32h4.6v3.14h-4.6v2.72H320.82z"/>
	<path d="M326.24,16.19c-1.58,0-3.14-0.36-4.36-1.04l0.5-3.32c1.22,0.62,2.46,1,3.76,1c1.24,0,1.72-0.42,1.72-1.22
		c0-1.92-5.96-1.32-5.96-6.22c0-2.62,1.6-4.7,5.3-4.7c1.38,0,2.86,0.26,3.94,0.72l-0.44,3.26c-1.14-0.34-2.28-0.54-3.24-0.54
		c-1.48,0-1.8,0.44-1.8,1.08c0,1.94,5.96,1.28,5.96,6.18C331.62,14.34,329.62,16.19,326.24,16.19z"/>
	<path d="M106.3,35.93v-2.54l4.78-7.6l0.88-1.32l-0.02-0.04h-5.52l0.1-3.5h10.02v2.8l-4.62,7.36l-0.88,1.3l0.02,0.06h5.52
		l-0.06,3.48H106.3z"/>
	<path d="M129.33,30.82c0,3.52-1.88,5.36-5.72,5.36s-5.78-1.84-5.78-5.36v-9.9h3.92v9.82c0,1.34,0.52,1.94,1.86,1.94
		c1.36,0,1.82-0.56,1.82-1.94v-9.82h3.9V30.82z"/>
	<path d="M137.06,35.93h-5.84v-15h5.88c3.22,0,4.86,1.5,4.86,3.88c0,1.58-0.72,2.6-1.84,3.14v0.04c1.5,0.5,2.3,1.66,2.3,3.52
		C142.43,34.2,140.81,35.93,137.06,35.93z M136.94,24.2h-1.94v2.64h1.98c0.9,0,1.22-0.34,1.22-1.36
		C138.21,24.5,137.87,24.2,136.94,24.2z M137.05,29.76h-2.04v2.96h2.12c0.98,0,1.34-0.32,1.34-1.5
		C138.47,30.18,138.15,29.76,137.05,29.76z"/>
	<path d="M153.73,32.54l-0.08,3.38h-9.66v-15h9.4l0.08,3.44h-5.58v2.32h4.6v3.14h-4.6v2.72H153.73z"/>
	<path d="M162.77,35.93v-5.88h-3.64v5.88h-3.9v-15h3.9v5.62h3.64v-5.62h3.92v15H162.77z"/>
	<path d="M174.58,36.19c-4.32,0-6.28-2.28-6.28-7.76c0-5.5,1.88-7.74,6.28-7.74c4.4,0,6.28,2.24,6.28,7.74
		C180.87,34.06,178.99,36.19,174.58,36.19z M172.68,20.2c-0.98,0-1.48-0.38-1.48-1.34c0-0.9,0.5-1.38,1.48-1.38
		c1.02,0,1.48,0.48,1.48,1.38C174.16,19.74,173.7,20.2,172.68,20.2z M174.56,24.18c-1.64,0-2.16,0.68-2.16,4.24
		c0,3.58,0.54,4.3,2.2,4.3s2.16-0.74,2.16-4.3C176.77,24.84,176.27,24.18,174.56,24.18z M176.51,20.2c-0.98,0-1.48-0.38-1.48-1.34
		c0-0.9,0.5-1.38,1.48-1.38c1.02,0,1.48,0.48,1.48,1.38C177.99,19.74,177.53,20.2,176.51,20.2z"/>
	<path d="M191.33,29.78l2.92,6.14h-4.52l-2-5.36h-1.32v5.36h-3.9v-15h5.18c3.8,0,5.68,1.44,5.68,4.82
		C193.37,27.74,192.65,29.22,191.33,29.78z M187.76,24.16h-1.36v3.46h1.34c1.14,0,1.54-0.28,1.54-1.74
		C189.28,24.52,188.9,24.16,187.76,24.16z"/>
	<path d="M209.47,32.54l-0.08,3.38h-9.66v-15h9.4l0.08,3.44h-5.58v2.32h4.6v3.14h-4.6v2.72H209.47z"/>
	<path d="M219.78,29.78l2.92,6.14h-4.52l-2-5.36h-1.32v5.36h-3.9v-15h5.18c3.8,0,5.68,1.44,5.68,4.82
		C221.82,27.74,221.1,29.22,219.78,29.78z M216.22,24.16h-1.36v3.46h1.34c1.14,0,1.54-0.28,1.54-1.74
		C217.74,24.52,217.36,24.16,216.22,24.16z"/>
	<path d="M231.22,35.93v-5.88h-3.64v5.88h-3.9v-15h3.9v5.62h3.64v-5.62h3.92v15H231.22z"/>
	<path d="M244.9,33.3h-4.08l-0.58,2.62h-4.14l4.44-15h4.78l4.52,15h-4.36L244.9,33.3z M242.52,25.74l-0.96,4.3h2.62l-0.96-4.3
		l-0.3-1.6h-0.06L242.52,25.74z"/>
	<path d="M259.88,32.44l-0.1,3.48h-8.94v-15h3.94v11.52H259.88z"/>
	<path d="M265.98,24.42v11.5H262v-11.5h-3.4l0.08-3.5h10.62l0.08,3.5H265.98z"/>
	<path d="M280.32,32.54l-0.08,3.38h-9.66v-15h9.4l0.08,3.44h-5.58v2.32h4.6v3.14h-4.6v2.72H280.32z"/>
	<path d="M290.6,35.93L286.12,29l-0.84-1.38l-0.04,0.02l0.02,1.62v6.66h-3.44v-15h3.28l4.82,7.78l0.04-0.02l-0.04-1.6l0.02-6.16
		h3.44v15H290.6z"/>
	<path d="M297.02,36.17c-1.4,0-2.02-0.54-2.02-1.9c0-1.22,0.62-1.92,2.02-1.92s2,0.7,2,1.92C299.02,35.41,298.42,36.17,297.02,36.17
		z"/>
	<path d="M304.28,20.34l0.26,1.94l1.84-0.44l0.58,1.64l-1.78,0.86l1.02,1.7L304.94,27l-1.48-1.44l-1.52,1.46l-1.3-0.92l0.98-1.76
		l-1.78-0.84l0.62-1.66l1.86,0.44l0.28-1.94H304.28z"/>
</g>
<g>
	<path d="M11.9,28.13l0.05,0.14h11.23l-0.19,8.11H0.38v-5.86c7.44-8.3,13.49-14.26,13.49-19.01c0-2.16-1.25-3.41-4.13-3.41
		c-2.74,0-5.23,1.25-7.58,2.93L0,3.6C2.88,1.49,6.72,0,11.57,0c7.87,0,11.81,4.27,11.81,10.61C23.38,16.47,18.72,21.7,11.9,28.13z"
		/>
	<path d="M38.93,36.87c-3.84,0-7.44-0.82-10.42-2.5l1.54-7.1c2.64,1.3,4.8,1.97,7.87,1.97c3.84,0,4.85-1.49,4.85-4.61
		c0-2.83-1.54-3.84-4.8-3.84c-1.87,0-4.18,0.29-5.95,0.91l-2.98-3.46l1.3-17.86h19.59l0.34,7.97H37.73l-0.34,5.33
		c1.1-0.19,2.26-0.29,3.55-0.29c6.96,0,10.99,3.5,10.99,10.51C51.94,31.97,48,36.87,38.93,36.87z"/>
	<path d="M66.1,16.61c-5.09,0-7.39-2.88-7.39-8.3c0-5.76,2.3-8.3,7.44-8.3c4.8,0,7.44,2.35,7.44,8.3
		C73.58,13.83,70.85,16.61,66.1,16.61z M86.69,6.77l-19.44,27.6l-4.94-3.94l19.49-27.6L86.69,6.77z M66.14,5.33
		c-1.1,0-1.63,0.58-1.63,2.98c0,2.35,0.53,2.93,1.63,2.93c1.1,0,1.63-0.53,1.63-2.93C67.78,5.9,67.2,5.33,66.14,5.33z M83.38,36.87
		c-5.09,0-7.39-2.88-7.39-8.26c0-5.76,2.3-8.45,7.44-8.45c4.85,0,7.44,2.5,7.44,8.45C90.87,34.08,88.18,36.87,83.38,36.87z
		 M83.42,25.78c-1.1,0-1.63,0.53-1.63,2.83s0.53,2.83,1.63,2.83c1.1,0,1.68-0.48,1.68-2.83C85.11,26.31,84.53,25.78,83.42,25.78z"/>
</g>
</svg>
