<svg enable-background="new 0 0 517.4 124.6" viewBox="0 0 517.4 124.6" xmlns="http://www.w3.org/2000/svg"><path clip-rule="evenodd" d="m467.7 91.5v-67.5h18.1v67.5zm-7.4-15.2-.4 15.2h-43.5v-67.5h42.3l.4 15.5h-25.1v10.4h20.7v14.1h-20.7v12.2h26.3zm-68.7 15.2-9-24.1h-5.9v24.1h-17.6v-67.5h23.3c17.1 0 25.6 6.5 25.6 21.7 0 9-3.2 15.7-9.2 18.2l13.2 27.6zm-8.8-52.9h-6.1v15.6h6c5.1 0 6.9-1.3 6.9-7.8 0-6.2-1.7-7.8-6.8-7.8zm-54.5 13h20.6l-.1 14.9h-20.5v24.9h-17.7v-67.4h42.2l.3 15.7h-24.9v11.9zm-64.1 39.9v-67.5h17.7v51.8h23l-.4 15.7zm-6.8-15.2-.4 15.2h-43.5v-67.5h42.3l.4 15.5h-25.1v10.4h20.7v14.1h-20.7v12.2h26.3zm-50.9-4.7c0 12.1-7.3 19.9-24.1 19.9h-26.3v-67.5h26.5c14.5 0 21.9 6.7 21.9 17.5 0 7.1-3.2 11.7-8.3 14.1v.2c6.7 2.2 10.3 7.5 10.3 15.8zm-24.6-32.8h-8.7v11.9h8.9c4.1 0 5.5-1.5 5.5-6.1-.1-4.5-1.6-5.8-5.7-5.8zm.4 25h-9.2v13.3h9.5c4.4 0 6-1.4 6-6.7.1-4.7-1.3-6.6-6.3-6.6zm-53 15.9h-18.3l-2.6 11.8h-18.7l20-67.5h21.5l20.4 67.5h-19.6zm-7.5-34-1.4-7.2h-.3l-1.5 7.2-4.3 19.3h11.8zm-53 45.8-12.7-27.4h-4.3v27.4h-17.6v-67.5h17.6v26.1h4.7l12.5-26.1h19.7l-16.2 32.3 17 35.2z" fill="#fff" fill-rule="evenodd"/></svg>