<?xml version="1.0" encoding="utf-8"?>
<!-- Generator: Adobe Illustrator 16.0.4, SVG Export Plug-In . SVG Version: 6.00 Build 0)  -->
<!DOCTYPE svg PUBLIC "-//W3C//DTD SVG 1.1//EN" "http://www.w3.org/Graphics/SVG/1.1/DTD/svg11.dtd">
<svg version="1.1" id="Ebene_1" xmlns="http://www.w3.org/2000/svg" xmlns:xlink="http://www.w3.org/1999/xlink" x="0px" y="0px"
	 width="148.156px" height="88.798px" viewBox="0 0 148.156 88.798" enable-background="new 0 0 148.156 88.798"
	 xml:space="preserve">
<g>
	<path fill="#FFFFFF" d="M0,24.382v-4.063L7.647,8.16l1.407-2.112L9.023,5.984H0.191l0.16-5.6h16.031v4.479L8.991,16.639
		l-1.407,2.08l0.031,0.096h8.832l-0.097,5.567H0z"/>
	<path fill="#FFFFFF" d="M36.83,16.223c0,5.631-3.008,8.575-9.15,8.575c-6.145,0-9.248-2.944-9.248-8.575V0.384h6.271v15.71
		c0,2.144,0.832,3.104,2.977,3.104c2.176,0,2.911-0.896,2.911-3.104V0.384h6.239V16.223z"/>
	<path fill="#FFFFFF" d="M59.135,24.382v-9.407h-5.824v9.407h-6.239V0.384h6.239v8.991h5.824V0.384h6.271v23.998H59.135z"/>
	<path fill="#FFFFFF" d="M84.223,18.975l-0.129,5.408H68.639V0.384h15.039l0.129,5.503h-8.928V9.6h7.359v5.023h-7.359v4.352H84.223z
		"/>
	<path fill="#FFFFFF" d="M86.879,0.384h6.432v23.998h-6.432V0.384z"/>
	<path fill="#FFFFFF" d="M103.103,24.798c-2.527,0-5.023-0.576-6.976-1.664l0.8-5.312c1.952,0.992,3.937,1.6,6.016,1.6
		c1.984,0,2.752-0.672,2.752-1.952c0-3.072-9.535-2.112-9.535-9.951c0-4.192,2.56-7.52,8.479-7.52c2.208,0,4.575,0.416,6.304,1.152
		l-0.704,5.216c-1.824-0.544-3.647-0.864-5.184-0.864c-2.368,0-2.88,0.704-2.88,1.728c0,3.104,9.535,2.048,9.535,9.887
		C111.71,21.854,108.51,24.798,103.103,24.798z"/>
	<path fill="#FFFFFF" d="M119.806,24.798c-2.527,0-5.023-0.576-6.976-1.664l0.8-5.312c1.952,0.992,3.937,1.6,6.016,1.6
		c1.984,0,2.752-0.672,2.752-1.952c0-3.072-9.535-2.112-9.535-9.951c0-4.192,2.56-7.52,8.479-7.52c2.208,0,4.575,0.416,6.304,1.152
		l-0.704,5.216c-1.824-0.544-3.647-0.864-5.184-0.864c-2.368,0-2.88,0.704-2.88,1.728c0,3.104,9.535,2.048,9.535,9.887
		C128.413,21.854,125.213,24.798,119.806,24.798z"/>
	<path fill="#FFFFFF" d="M136.029,22.046c0,1.888-1.632,5.088-3.136,6.912l-2.048-0.512l0.768-3.744
		c-0.896-0.48-1.888-1.536-1.888-2.848c0-1.728,0.864-3.104,3.104-3.104C135.005,18.751,136.029,20.062,136.029,22.046z"/>
	<path fill="#FFFFFF" d="M19.039,48.223c0,5.631-3.008,8.575-9.152,8.575c-6.143,0-9.247-2.944-9.247-8.575V32.384h6.271v15.71
		c0,2.144,0.832,3.104,2.976,3.104c2.176,0,2.912-0.896,2.912-3.104v-15.71h6.24V48.223z"/>
	<path fill="#FFFFFF" d="M28.959,32.384l4.224,12.127l0.8,2.464h0.096l0.801-2.432l4.287-12.159h6.912v23.998H40.35V46.335
		l0.064-2.592l-0.096-0.032l-0.8,2.496l-3.552,10.175h-4.064l-3.52-10.143l-0.8-2.496l-0.063,0.032l0.031,2.592v10.015H22.08V32.384
		H28.959z"/>
	<path fill="#FFFFFF" d="M73.789,32.384l2.528,15.007l0.384,2.56h0.096l0.289-2.56l2.144-15.007h6.239l-5.023,23.998h-7.487
		l-2.24-14.559l-0.319-2.592h-0.096l-0.353,2.592l-2.208,14.559h-7.487L55.23,32.384h6.528l2.112,15.135l0.319,2.56h0.097
		l0.352-2.56l2.496-15.135H73.789z"/>
	<path fill="#FFFFFF" d="M98.302,52.19h-6.527l-0.928,4.192h-6.624l7.104-23.998h7.647l7.231,23.998H99.23L98.302,52.19z
		 M94.494,40.096l-1.536,6.879h4.192l-1.536-6.879l-0.479-2.56h-0.097L94.494,40.096z"/>
	<path fill="#FFFFFF" d="M119.87,56.382v-9.407h-5.824v9.407h-6.239V32.384h6.239v8.991h5.824v-8.991h6.271v23.998H119.87z"/>
	<path fill="#FFFFFF" d="M143.485,46.559l4.671,9.823h-7.231l-3.199-8.575h-2.112v8.575h-6.239V32.384h8.287
		c6.08,0,9.088,2.304,9.088,7.711C146.749,43.295,145.597,45.663,143.485,46.559z M137.789,37.568h-2.176v5.536h2.145
		c1.823,0,2.464-0.448,2.464-2.784C140.222,38.144,139.613,37.568,137.789,37.568z"/>
	<path fill="#FFFFFF" d="M0,88.382v-4.063l7.647-12.159l1.407-2.112l-0.031-0.064H0.191l0.16-5.6h16.031v4.479L8.991,80.638
		l-1.407,2.08l0.031,0.096h8.832l-0.097,5.567H0z"/>
	<path fill="#FFFFFF" d="M36.83,80.223c0,5.631-3.008,8.575-9.15,8.575c-6.145,0-9.248-2.944-9.248-8.575V64.384h6.271v15.71
		c0,2.144,0.832,3.104,2.977,3.104c2.176,0,2.911-0.896,2.911-3.104v-15.71h6.239V80.223z"/>
	<path fill="#FFFFFF" d="M53.343,88.798c-2.528,0-5.023-0.576-6.976-1.664l0.801-5.312c1.951,0.992,3.936,1.6,6.016,1.6
		c1.983,0,2.751-0.672,2.751-1.952c0-3.072-9.535-2.112-9.535-9.951c0-4.192,2.56-7.52,8.479-7.52c2.207,0,4.576,0.416,6.303,1.152
		l-0.703,5.216c-1.824-0.544-3.648-0.864-5.184-0.864c-2.368,0-2.88,0.704-2.88,1.728c0,3.104,9.535,2.048,9.535,9.887
		C61.95,85.854,58.75,88.798,53.343,88.798z"/>
	<path fill="#FFFFFF" d="M79.773,82.974l-0.127,5.408H64.191V64.384H79.23l0.127,5.503h-8.927v3.712h7.359v5.023h-7.359v4.352
		H79.773z"/>
	<path fill="#FFFFFF" d="M82.431,64.384h6.432v23.998h-6.432V64.384z"/>
	<path fill="#FFFFFF" d="M106.429,88.382l-7.167-11.071l-1.344-2.208l-0.064,0.032l0.032,2.592v10.655h-5.504V64.384h5.248
		l7.711,12.447l0.064-0.032l-0.064-2.56l0.032-9.855h5.504v23.998H106.429z"/>
	<path fill="#FFFFFF" d="M116.701,88.766c-2.239,0-3.231-0.863-3.231-3.04c0-1.952,0.992-3.072,3.231-3.072
		c2.24,0,3.2,1.12,3.2,3.072C119.901,87.55,118.941,88.766,116.701,88.766z"/>
</g>
</svg>
