<?xml version="1.0" encoding="utf-8"?>
<!-- Generator: Adobe Illustrator 16.0.0, SVG Export Plug-In . SVG Version: 6.00 Build 0)  -->
<!DOCTYPE svg PUBLIC "-//W3C//DTD SVG 1.1//EN" "http://www.w3.org/Graphics/SVG/1.1/DTD/svg11.dtd">
<svg version="1.1" id="Ebene_1" xmlns="http://www.w3.org/2000/svg" xmlns:xlink="http://www.w3.org/1999/xlink" x="0px" y="0px"
	 width="333.5px" height="108.4px" viewBox="0 0 333.5 108.4" enable-background="new 0 0 333.5 108.4" xml:space="preserve">
<g>
	<g>
		<path fill="#1A1A18" d="M23.3,20.7c0-10.1-3.6-14.1-12.4-14.1H0.7v28.6h10.4C19.3,35.1,23.3,31.2,23.3,20.7z M8.2,28.6V13.1H11
			c3.4,0,4.4,1.1,4.4,7.5c0,7-1.1,8-4.4,8H8.2z M34.5,6.6h-7.7v28.6h7.7V6.6z M57.5,28.7H46.3v-5.2h8.9v-6h-8.9v-4.4H57l-0.2-6.6
			H38.8v28.6h18.6L57.5,28.7z M76.1,30.1H84l1.1,5h8.4L84.8,6.6h-9.2L67,35.1h8L76.1,30.1z M79.4,15.7l0.7-3h0.1l0.6,3l1.8,8.2h-5
			L79.4,15.7z M112.8,28.5H103v-22h-7.6v28.6h17.2L112.8,28.5z M132.7,28.5h-9.8v-22h-7.6v28.6h17.2L132.7,28.5z M153.9,28.7h-11.2
			v-5.2h8.9v-6h-8.9v-4.4h10.7l-0.2-6.6h-18.1v28.6h18.6L153.9,28.7z M164.1,29.2c-2.5,0-4.9-0.7-7.2-1.9l-1,6.3
			c2.3,1.3,5.4,2,8.4,2c6.5,0,10.4-3.5,10.4-9.1c0-9.3-11.5-8.1-11.5-11.8c0-1.2,0.6-2.1,3.5-2.1c1.8,0,4,0.4,6.2,1l0.8-6.2
			c-2.1-0.9-4.9-1.4-7.6-1.4c-7.1,0-10.2,4-10.2,9c0,9.3,11.5,8.2,11.5,11.9C167.4,28.4,166.5,29.2,164.1,29.2z M200.7,6.6h-8.4
			l-5.4,11.1h-2V6.6h-7.5v28.6h7.5V23.5h1.8l5.4,11.6h8.9l-7.3-14.9L200.7,6.6z M212.9,35.6c8.5,0,12.1-4,12.1-14.8
			c0-10.5-3.6-14.8-12.1-14.8c-8.5,0-12.1,4.3-12.1,14.8C200.8,31.3,204.6,35.6,212.9,35.6z M212.8,12.8c3.3,0,4.2,1.3,4.2,8.1
			c0,6.8-1,8.2-4.2,8.2s-4.2-1.4-4.2-8.2C208.7,14.1,209.7,12.8,212.8,12.8z M216.6,5.2c2,0,2.8-0.9,2.8-2.6c0-1.7-0.9-2.6-2.8-2.6
			c-1.9,0-2.8,0.9-2.8,2.6C213.7,4.5,214.7,5.2,216.6,5.2z M209.2,5.2c2,0,2.8-0.9,2.8-2.6c0-1.7-0.9-2.6-2.8-2.6
			c-1.9,0-2.8,0.9-2.8,2.6C206.4,4.5,207.3,5.2,209.2,5.2z M236.4,22l8.6,13.2h5.4V6.6h-6.6l0,11.7l0.1,3l-0.1,0l-9.3-14.8h-6.3
			v28.6h6.6V22.4l0-3.1l0.1,0L236.4,22z M260.9,22.4l0-3.1l0.1,0l1.6,2.6l8.6,13.2h5.4V6.6h-6.6l0,11.7l0.1,3l-0.1,0l-9.3-14.8h-6.3
			v28.6h6.6V22.4z M288,23.5h8.9v-6H288v-4.4h10.7l-0.2-6.6h-18.1v28.6h18.6l0.2-6.4H288V23.5z M323,15.7c0-6.4-3.6-9.2-10.9-9.2
			h-10v28.6h7.5V24.9h2.5l3.9,10.2h8.7l-5.6-11.7C321.6,22.4,323,19.6,323,15.7z M312.2,19.3h-2.6v-6.6h2.6c2.2,0,2.9,0.7,2.9,3.3
			C315.2,18.8,314.4,19.3,312.2,19.3z M329.7,28.3c-2.7,0-3.9,1.3-3.9,3.7c0,2.6,1.2,3.6,3.9,3.6s3.9-1.4,3.9-3.6
			C333.5,29.7,332.4,28.3,329.7,28.3z M10,70.9c0-5.6-8.5-3.7-8.5-7.8c0-1.5,1.1-2.9,3.8-2.9c1.4,0,2.6,0.3,3.9,0.8l0.3-1.3
			c-1.2-0.5-2.6-0.9-4.2-0.9c-3.5,0-5.1,1.9-5.1,4.3c0,5.4,8.4,3.5,8.4,7.8c0,2.1-1.3,3.4-3.9,3.4c-1.7,0-3.1-0.4-4.4-1.3L0,74.4
			c1.2,0.8,2.8,1.3,4.7,1.3C8.2,75.7,10,73.9,10,70.9z M20.8,73.5c-0.8,0.6-1.9,0.9-3,0.9c-2.7,0-4.2-1.5-4.2-5.6
			c0-3.7,1.2-5.2,4.2-5.2c1,0,2,0.3,2.8,0.7l0.1-1.2c-0.9-0.4-2-0.7-3.2-0.7c-3.7,0-5.3,2.1-5.3,6.5c0,4.8,1.8,6.8,5.3,6.8
			c1.3,0,2.6-0.4,3.4-1L20.8,73.5z M25.6,65.4c0.6-1,1.9-1.8,3.5-1.8c2.3,0,3.4,1.1,3.4,3.1v8.7h1.3v-8.7c0-2.8-1.5-4.4-4.4-4.4
			c-1.6,0-3,0.6-3.9,1.6l0,0l0-1.7V58l-1.3,0.1v17.3h1.3V65.4z M46.6,74.6l-0.2-1.2c-1.1,0.6-2.2,0.9-3.6,0.9
			c-3.1,0-4.5-1.4-4.5-5.5H47c0-0.2,0-0.5,0-0.7c0-4.1-2-5.9-5-5.9c-3.4,0-5.2,2.2-5.2,6.2c0,4.9,1.6,7.1,5.8,7.1
			C44.2,75.6,45.5,75.3,46.6,74.6z M42.1,63.5c2.1,0,3.7,1.2,3.7,4.4h-7.5C38.4,65,39.6,63.5,42.1,63.5z M54.9,74.4
			c-2.3,0-3.5-1.1-3.5-3.1v-8.7h-1.3v8.8c0,2.7,1.6,4.3,4.8,4.3c3.2,0,4.8-1.6,4.8-4.3v-8.8h-1.3v8.7C58.4,73.3,57.2,74.4,54.9,74.4
			z M72.2,73.5c-1.1,0.6-2.2,0.9-3.6,0.9c-3.1,0-4.5-1.4-4.5-5.5h8.7c0-0.2,0-0.5,0-0.7c0-4.1-2-5.9-5-5.9c-3.4,0-5.2,2.2-5.2,6.2
			c0,4.9,1.6,7.1,5.8,7.1c1.5,0,2.8-0.4,3.9-1L72.2,73.5z M67.9,63.5c2.1,0,3.7,1.2,3.7,4.4h-7.5C64.2,65,65.4,63.5,67.9,63.5z
			 M77.4,65.7L77.4,65.7L77.3,64l0-1.4l-1.1,0.1v12.7h1.3v-6.5c0-3.1,1.8-5.1,4-5.1c0.4,0,0.8,0,1.2,0.2l0.1-1.4
			c-0.4-0.1-0.8-0.2-1.2-0.2C79.6,62.4,78.1,63.7,77.4,65.7z M88.9,74.5c-1.3,0-2.8-0.4-3.7-1.2L85,74.5c1,0.8,2.4,1.2,3.9,1.2
			c3,0,4.3-1.5,4.3-3.9c0-4.5-6.9-2.9-6.9-6.1c0-1.3,1.2-2.1,3-2.1c1.1,0,2.2,0.2,3.3,0.7l0.1-1.2c-1-0.5-2.2-0.7-3.4-0.7
			c-2.8,0-4.3,1.3-4.3,3.4c0,4.2,7,2.8,7,6.2C92,73.4,91.1,74.5,88.9,74.5z M103.7,73.5L103.7,73.5l0.2,1.8h1v-8.5
			c0-3.3-1.3-4.6-4.4-4.6c-1.5,0-2.8,0.3-4,0.8l0.2,1.2c1.1-0.6,2.3-0.8,3.7-0.8c2.3,0,3.3,0.8,3.3,3.2v1.6
			c-0.9-0.3-2.1-0.6-3.2-0.6c-3.2,0-4.7,1.4-4.7,3.8c0,2.9,1.6,4,4,4C101.5,75.6,103,74.8,103.7,73.5z M100.1,74.4
			c-1.7,0-3-0.7-3-2.9c0-1.8,1.1-2.8,3.6-2.8c1.6,0,2.7,0.4,3,0.6v2.6C103.6,73.1,101.9,74.4,100.1,74.4z M118.2,71.3v-8.8h-1.3v8.7
			c0,2-1.2,3.1-3.5,3.1c-2.3,0-3.5-1.1-3.5-3.1v-8.7h-1.3v8.8c0,2.7,1.6,4.3,4.8,4.3C116.7,75.6,118.2,74,118.2,71.3z M131.6,75
			c0-1.7-0.9-2.6-4.1-3l-3-0.3c-1.1-0.1-1.5-0.5-1.5-1c0-0.5,0.5-1,1.3-1.2c0.6,0.2,1.2,0.2,1.9,0.2c3.2,0,4.3-1.3,4.3-3.7
			c0-0.8-0.2-1.5-0.5-2l1.7-1.1l-0.3-0.7l-2.1,0.9c-0.9-0.7-2-0.9-3.2-0.9c-3.1,0-4.4,1.3-4.4,3.8c0,1.6,0.7,2.5,1.6,3
			c-1.1,0.4-1.7,1.1-1.7,1.8c0,0.9,0.5,1.4,1.2,1.7c-0.9,0.7-1.4,1.6-1.4,2.6c0,2,1.4,3.4,4.8,3.4C130.3,78.7,131.6,77.3,131.6,75z
			 M123.1,66.1c0-1.8,0.8-2.7,3.1-2.7c2.1,0,3.1,0.7,3.1,2.7c0,1.7-0.7,2.6-3.1,2.6C124.5,68.8,123.1,68.3,123.1,66.1z M126.3,77.6
			c-2.5,0-3.6-0.9-3.6-2.4c0-0.8,0.5-1.7,1.4-2.2l3.2,0.3c2.5,0.2,3.1,0.8,3.1,1.9C130.3,76.6,129.5,77.6,126.3,77.6z M149.3,66.7
			v8.7h1.3v-8.7c0-2.9-1.7-4.3-4.1-4.3c-1.7,0-3,0.7-3.6,2.1h-0.1c-0.5-1.4-1.7-2.1-3.6-2.1c-1.4,0-2.7,0.7-3.4,1.7h-0.1l-0.3-1.6
			l-0.9,0.1v12.8h1.3v-10c0.6-1,1.9-1.7,3.2-1.7c1.6,0,2.9,0.8,2.9,2.8v9h1.3v-9c0-1.8,1.4-2.8,2.9-2.8
			C148.1,63.6,149.3,64.6,149.3,66.7z M161.9,73.5L161.9,73.5l0.2,1.8h1v-8.5c0-3.3-1.3-4.6-4.4-4.6c-1.5,0-2.8,0.3-4,0.8l0.2,1.2
			c1.1-0.6,2.3-0.8,3.7-0.8c2.3,0,3.3,0.8,3.3,3.2v1.6c-0.9-0.3-2.1-0.6-3.2-0.6c-3.2,0-4.7,1.4-4.7,3.8c0,2.9,1.6,4,4,4
			C159.7,75.6,161.2,74.8,161.9,73.5z M155.2,71.5c0-1.8,1.1-2.8,3.6-2.8c1.6,0,2.7,0.4,3,0.6v2.6c0,1.2-1.7,2.5-3.6,2.5
			C156.5,74.4,155.2,73.7,155.2,71.5z M174.6,71.8c0-4.5-6.9-2.9-6.9-6.1c0-1.3,1.2-2.1,3-2.1c1.1,0,2.2,0.2,3.3,0.7l0.1-1.2
			c-1-0.5-2.2-0.7-3.4-0.7c-2.8,0-4.3,1.3-4.3,3.4c0,4.2,7,2.8,7,6.2c0,1.5-0.9,2.6-3.1,2.6c-1.3,0-2.8-0.4-3.7-1.2l-0.2,1.2
			c1,0.8,2.4,1.2,3.9,1.2C173.2,75.6,174.6,74.1,174.6,71.8z M185.6,74.7l-0.1-1.1c-0.8,0.6-1.9,0.9-3,0.9c-2.7,0-4.2-1.5-4.2-5.6
			c0-3.7,1.2-5.2,4.2-5.2c1,0,2,0.3,2.8,0.7l0.1-1.2c-0.9-0.4-2-0.7-3.2-0.7c-3.7,0-5.3,2.1-5.3,6.5c0,4.8,1.8,6.8,5.3,6.8
			C183.6,75.7,184.8,75.3,185.6,74.7z M190.2,58l-1.3,0.1v17.3h1.3v-10c0.6-1,1.9-1.8,3.5-1.8c2.3,0,3.4,1.1,3.4,3.1v8.7h1.3v-8.7
			c0-2.8-1.5-4.4-4.4-4.4c-1.6,0-3,0.6-3.9,1.6l0,0l0-1.7V58z M204.3,62.5l-1.3,0.1v12.7h1.3V62.5z M204.7,59c0-0.6-0.4-0.9-1-0.9
			s-1,0.3-1,0.9c0,0.7,0.4,0.9,1,0.9S204.7,59.7,204.7,59z M217.4,75.4h1.3v-8.7c0-3-1.7-4.4-4.4-4.4c-1.6,0-3,0.6-3.9,1.7h-0.1
			l-0.2-1.5l-0.9,0.1v12.8h1.3v-10c0.7-1.1,2.3-1.7,3.5-1.7c2.2,0,3.4,0.9,3.4,3.1V75.4z M231.3,73.5c-1.1,0.6-2.2,0.9-3.6,0.9
			c-3.1,0-4.5-1.4-4.5-5.5h8.7c0-0.2,0-0.5,0-0.7c0-4.1-2-5.9-5-5.9c-3.4,0-5.2,2.2-5.2,6.2c0,4.9,1.6,7.1,5.8,7.1
			c1.5,0,2.8-0.4,3.9-1L231.3,73.5z M227,63.5c2.1,0,3.7,1.2,3.7,4.4h-7.5C223.3,65,224.4,63.5,227,63.5z M244.8,75.4v-8.7
			c0-3-1.7-4.4-4.4-4.4c-1.6,0-3,0.6-3.9,1.7h-0.1l-0.2-1.5l-0.9,0.1v12.8h1.3v-10c0.7-1.1,2.3-1.7,3.5-1.7c2.2,0,3.4,0.9,3.4,3.1
			v8.6H244.8z M271.8,75.4v-8.7c0-2.9-1.7-4.3-4.1-4.3c-1.7,0-3,0.7-3.6,2.1H264c-0.5-1.4-1.7-2.1-3.6-2.1c-1.4,0-2.7,0.7-3.4,1.7
			h-0.1l-0.3-1.6l-0.9,0.1v12.8h1.3v-10c0.6-1,1.9-1.7,3.2-1.7c1.6,0,2.9,0.8,2.9,2.8v9h1.3v-9c0-1.8,1.4-2.8,2.9-2.8
			c1.9,0,3.1,1,3.1,3v8.7H271.8z M276.4,75.4h1.3V62.5l-1.3,0.1V75.4z M277.1,58.1c-0.7,0-1,0.3-1,0.9c0,0.7,0.4,0.9,1,0.9
			s1-0.3,1-0.9C278.1,58.4,277.7,58.1,277.1,58.1z M284.6,59.1l-1.1,0.1l-0.3,3.4h-2v1.1h2v8.7c0,2.2,1.1,3.2,3.1,3.2
			c0.6,0,1.2-0.1,1.6-0.3l-0.1-1c-0.3,0.1-0.7,0.2-1.1,0.2c-1.3,0-2.1-0.6-2.1-2.1v-8.7h3.4v-1.1h-3.4V59.1z M1.4,105h1.3V92.2
			l-1.3,0.1V105z M2.1,87.8c-0.7,0-1,0.3-1,0.9c0,0.7,0.4,0.9,1,0.9s1-0.3,1-0.9C3.1,88.1,2.8,87.8,2.1,87.8z M12.7,92
			c-1.6,0-3,0.6-3.9,1.7H8.7l-0.2-1.5l-0.9,0.1V105h1.3V95c0.7-1.1,2.3-1.7,3.5-1.7c2.2,0,3.4,0.9,3.4,3.1v8.6h1.3v-8.7
			C17.1,93.4,15.5,92,12.7,92z M23.2,88.7l-1.1,0.1l-0.3,3.4h-2v1.1h2v8.7c0,2.2,1.1,3.2,3.1,3.2c0.6,0,1.2-0.1,1.6-0.3l-0.1-1
			c-0.3,0.1-0.7,0.2-1.1,0.2c-1.3,0-2.1-0.6-2.1-2.1v-8.7h3.4v-1.1h-3.4V88.7z M33.7,92c-3.4,0-5.2,2.2-5.2,6.2
			c0,4.9,1.6,7.1,5.8,7.1c1.5,0,2.8-0.4,3.9-1l-0.2-1.1c-1.1,0.6-2.2,0.9-3.6,0.9c-3.1,0-4.5-1.4-4.5-5.5h8.7c0-0.2,0-0.5,0-0.7
			C38.6,93.7,36.6,92,33.7,92z M29.9,97.6c0.1-3,1.3-4.4,3.8-4.4c2.1,0,3.7,1.2,3.7,4.4H29.9z M51.2,91.9l-2.1,0.9
			c-0.9-0.7-2-0.9-3.2-0.9c-3.1,0-4.4,1.3-4.4,3.8c0,1.6,0.7,2.5,1.6,3c-1.1,0.4-1.7,1.1-1.7,1.8c0,0.9,0.5,1.4,1.2,1.7
			c-0.9,0.7-1.4,1.6-1.4,2.6c0,2,1.4,3.4,4.8,3.4c3.9,0,5.2-1.4,5.2-3.7c0-1.7-0.9-2.6-4.1-3l-3-0.3c-1.1-0.1-1.5-0.5-1.5-1
			c0-0.5,0.5-1,1.3-1.2c0.6,0.2,1.2,0.2,1.9,0.2c3.2,0,4.3-1.3,4.3-3.7c0-0.8-0.2-1.5-0.5-2l1.7-1.1L51.2,91.9z M43.9,102.6l3.2,0.3
			c2.5,0.2,3.1,0.8,3.1,1.9c0,1.4-0.8,2.4-4,2.4c-2.5,0-3.6-0.9-3.6-2.4C42.5,104,43,103.2,43.9,102.6z M46,98.4c-1.7,0-3-0.5-3-2.6
			c0-1.8,0.8-2.7,3.1-2.7c2.1,0,3.1,0.7,3.1,2.7C49.1,97.5,48.3,98.4,46,98.4z M55.5,95.4L55.5,95.4l-0.1-1.8l0-1.4l-1.1,0.1V105
			h1.3v-6.5c0-3.1,1.8-5.1,4-5.1c0.4,0,0.8,0,1.2,0.2l0.1-1.4c-0.4-0.1-0.8-0.2-1.2-0.2C57.8,92,56.3,93.4,55.5,95.4z M65.2,87.8
			c-0.7,0-1,0.3-1,0.9c0,0.7,0.4,0.9,1,0.9c0.7,0,1-0.3,1-0.9C66.2,88.1,65.8,87.8,65.2,87.8z M64.5,105h1.3V92.2l-1.3,0.1V105z
			 M75,92c-3.4,0-5.2,2.2-5.2,6.2c0,4.9,1.6,7.1,5.8,7.1c1.5,0,2.8-0.4,3.9-1l-0.2-1.1c-1.1,0.6-2.2,0.9-3.6,0.9
			c-3.1,0-4.5-1.4-4.5-5.5h8.7c0-0.2,0-0.5,0-0.7C79.9,93.7,77.9,92,75,92z M71.1,97.6c0.1-3,1.3-4.4,3.8-4.4c2.1,0,3.7,1.2,3.7,4.4
			H71.1z M84.4,95.4L84.4,95.4l-0.1-1.8l0-1.4l-1.1,0.1V105h1.3v-6.5c0-3.1,1.8-5.1,4-5.1c0.4,0,0.8,0,1.2,0.2l0.1-1.4
			c-0.4-0.1-0.8-0.2-1.2-0.2C86.7,92,85.2,93.4,84.4,95.4z M94.9,88.7l-1.1,0.1l-0.3,3.4h-2v1.1h2v8.7c0,2.2,1.1,3.2,3.1,3.2
			c0.6,0,1.2-0.1,1.6-0.3l-0.1-1c-0.3,0.1-0.7,0.2-1.1,0.2c-1.3,0-2.1-0.6-2.1-2.1v-8.7h3.4v-1.1h-3.4V88.7z M105.4,92
			c-3.4,0-5.2,2.2-5.2,6.2c0,4.9,1.6,7.1,5.8,7.1c1.5,0,2.8-0.4,3.9-1l-0.2-1.1c-1.1,0.6-2.2,0.9-3.6,0.9c-3.1,0-4.5-1.4-4.5-5.5
			h8.7c0-0.2,0-0.5,0-0.7C110.3,93.7,108.3,92,105.4,92z M101.6,97.6c0.1-3,1.3-4.4,3.8-4.4c2.1,0,3.7,1.2,3.7,4.4H101.6z
			 M114.8,95.4L114.8,95.4l-0.1-1.8l0-1.4l-1.1,0.1V105h1.3v-6.5c0-3.1,1.8-5.1,4-5.1c0.4,0,0.8,0,1.2,0.2l0.1-1.4
			c-0.4-0.1-0.8-0.2-1.2-0.2C117.1,92,115.6,93.4,114.8,95.4z M142.2,88.7h-1.8l-5.7,7.1H132v-7.1h-1.4V105h1.4v-7.9h2.7l6,7.9h1.9
			l-6.5-8.6L142.2,88.7z M149.4,92c-3.4,0-5.2,2.2-5.2,6.2c0,4.9,1.6,7.1,5.8,7.1c1.5,0,2.8-0.4,3.9-1l-0.2-1.1
			c-1.1,0.6-2.2,0.9-3.6,0.9c-3.1,0-4.5-1.4-4.5-5.5h8.7c0-0.2,0-0.5,0-0.7C154.4,93.7,152.4,92,149.4,92z M145.6,97.6
			c0.1-3,1.3-4.4,3.8-4.4c2.1,0,3.7,1.2,3.7,4.4H145.6z M163,92c-1.6,0-3,0.6-3.9,1.6l0,0l0-1.7v-4.2l-1.3,0.1V105h1.3V95
			c0.6-1,1.9-1.8,3.5-1.8c2.3,0,3.4,1.1,3.4,3.1v8.7h1.3v-8.7C167.4,93.5,165.9,92,163,92z M172.5,95.4L172.5,95.4l-0.1-1.8l0-1.4
			l-1.1,0.1V105h1.3v-6.5c0-3.1,1.8-5.1,4-5.1c0.4,0,0.8,0,1.2,0.2l0.1-1.4c-0.4-0.1-0.8-0.2-1.2-0.2
			C174.8,92,173.3,93.4,172.5,95.4z M181.8,91.6v0.6h-2.1v1h2.1V105h1.3V93.2h3.6v-1h-3.6v-0.6c0-1.8,0.9-2.8,3-2.8
			c0.6,0,1.1,0.1,1.5,0.2l0.1-0.9c-0.4-0.2-1.2-0.3-1.8-0.3C183,87.8,181.8,89.3,181.8,91.6z M197.8,100.9c0,2-1.2,3.1-3.5,3.1
			c-2.3,0-3.5-1.1-3.5-3.1v-8.7h-1.3v8.8c0,2.7,1.6,4.3,4.8,4.3c3.2,0,4.8-1.6,4.8-4.3v-8.8h-1.3V100.9z M208.2,92
			c-1.6,0-3,0.6-3.9,1.7h-0.1l-0.2-1.5l-0.9,0.1V105h1.3V95c0.7-1.1,2.3-1.7,3.5-1.7c2.2,0,3.4,0.9,3.4,3.1v8.6h1.3v-8.7
			C212.6,93.4,210.9,92,208.2,92z M226.3,92.2h-1.7l-4.5,5.3H218v-9.9l-1.3,0.1V105h1.3v-6.3h2.1l4.8,6.3h1.7l-5.2-7L226.3,92.2z
			 M231.2,88.7l-1.1,0.1l-0.3,3.4h-2v1.1h2v8.7c0,2.2,1.1,3.2,3.1,3.2c0.6,0,1.2-0.1,1.6-0.3l-0.1-1c-0.3,0.1-0.7,0.2-1.1,0.2
			c-1.3,0-2.1-0.6-2.1-2.1v-8.7h3.4v-1.1h-3.4V88.7z M238.8,87.8c-0.7,0-1,0.3-1,0.9c0,0.7,0.4,0.9,1,0.9s1-0.3,1-0.9
			C239.9,88.1,239.5,87.8,238.8,87.8z M238.2,105h1.3V92.2l-1.3,0.1V105z M248.9,92c-3.7,0-5.5,1.9-5.5,6.6c0,4.8,1.7,6.7,5.5,6.7
			c3.8,0,5.4-1.9,5.4-6.7C254.3,93.9,252.7,92,248.9,92z M248.9,104.1c-2.9,0-4.1-1.5-4.1-5.5c0-4,1.2-5.5,4.1-5.5
			c2.9,0,4,1.5,4,5.5C252.9,102.6,251.8,104.1,248.9,104.1z M262.8,92c-1.6,0-3,0.6-3.9,1.7h-0.1l-0.2-1.5l-0.9,0.1V105h1.3V95
			c0.7-1.1,2.3-1.7,3.5-1.7c2.2,0,3.4,0.9,3.4,3.1v8.6h1.3v-8.7C267.2,93.4,265.6,92,262.8,92z M271.8,103.2c-0.7,0-1.1,0.3-1.1,1
			c0,0.7,0.4,1,1.1,1c0.7,0,1-0.4,1-1C272.8,103.6,272.4,103.2,271.8,103.2z"/>
	</g>
</g>
</svg>
