<?xml version="1.0" encoding="utf-8"?>
<!-- Generator: Adobe Illustrator 16.0.0, SVG Export Plug-In . SVG Version: 6.00 Build 0)  -->
<!DOCTYPE svg PUBLIC "-//W3C//DTD SVG 1.1//EN" "http://www.w3.org/Graphics/SVG/1.1/DTD/svg11.dtd">
<svg version="1.1" id="Ebene_1" xmlns="http://www.w3.org/2000/svg" xmlns:xlink="http://www.w3.org/1999/xlink" x="0px" y="0px"
	 width="32.105px" height="37.986px" viewBox="0 0 32.105 37.986" enable-background="new 0 0 32.105 37.986" xml:space="preserve">
<g id="Text">
	<g>
		<path fill="#1A1A18" d="M1.641,1.154v0.87h1.51L3.144,3.118H1.641v1.825H0.349V0H3.44L3.46,1.154H1.641z"/>
		<path fill="#1A1A18" d="M6.875,3.797L6.842,4.944H3.896V0h1.298v3.797H6.875z"/>
		<path fill="#1A1A18" d="M10.506,3.83L10.48,4.944H7.296V0h3.099l0.026,1.135H8.582v0.764h1.516v1.035H8.582V3.83H10.506z"/>
		<path fill="#1A1A18" d="M13.75,2.354l1.213,2.591h-1.444l-0.475-1.192L12.859,3.25h-0.02l-0.186,0.501l-0.468,1.192h-1.471
			l1.188-2.551L10.73,0h1.511l0.414,1.016l0.191,0.494h0.021l0.19-0.494L13.486,0h1.449L13.75,2.354z"/>
		<path fill="#1A1A18" d="M15.403,0h1.325v4.943h-1.325V0z"/>
		<path fill="#1A1A18" d="M19.378,4.944h-1.925V0h1.938c1.062,0,1.603,0.495,1.603,1.278c0,0.521-0.237,0.857-0.606,1.035v0.014
			c0.494,0.165,0.758,0.548,0.758,1.159C21.145,4.377,20.611,4.944,19.378,4.944z M19.339,1.082h-0.64v0.869h0.651
			c0.297,0,0.402-0.111,0.402-0.447C19.754,1.181,19.642,1.082,19.339,1.082z M19.371,2.914h-0.672V3.89h0.698
			c0.322,0,0.441-0.104,0.441-0.494C19.84,3.053,19.734,2.914,19.371,2.914z"/>
		<path fill="#1A1A18" d="M24.869,3.83l-0.026,1.113h-3.184V0h3.098l0.026,1.135h-1.84v0.764h1.518v1.035h-1.518V3.83H24.869z"/>
		<path fill="#1A1A18" d="M28.343,3.797L28.31,4.944h-2.946V0h1.3v3.797H28.343z"/>
		<path fill="#1A1A18" d="M3.256,9.513l0.963,2.023h-1.49L2.069,9.77H1.635v1.768H0.349V6.592h1.708
			c1.252,0,1.871,0.475,1.871,1.589C3.928,8.84,3.691,9.328,3.256,9.513z M2.082,7.66H1.635v1.141h0.441
			c0.375,0,0.508-0.093,0.508-0.574C2.584,7.779,2.458,7.66,2.082,7.66z"/>
		<path fill="#1A1A18" d="M7.751,10.422l-0.026,1.114H4.541V6.592h3.098l0.026,1.135H5.826V8.49h1.516v1.035H5.826v0.896
			L7.751,10.422L7.751,10.422z"/>
		<path fill="#1A1A18" d="M8.298,6.592h1.325v4.944H8.298V6.592z"/>
		<path fill="#1A1A18" d="M13.242,11.536l-1.478-2.28l-0.277-0.455l-0.014,0.006l0.007,0.534v2.195h-1.134V6.592h1.081l1.589,2.563
			l0.014-0.006l-0.014-0.526l0.007-2.031h1.135v4.944H13.242z"/>
		<path fill="#1A1A18" d="M14.883,6.592h1.325v4.944h-1.325V6.592z"/>
		<path fill="#1A1A18" d="M20.427,11.358c-0.343,0.165-0.903,0.271-1.411,0.271c-1.635,0-2.215-0.877-2.215-2.564
			c0-1.728,0.68-2.558,2.274-2.558c0.435,0,0.93,0.079,1.284,0.218l-0.117,1.102c-0.323-0.119-0.738-0.191-1.096-0.191
			c-0.811,0-0.995,0.304-0.995,1.417c0,1.174,0.191,1.431,0.83,1.431c0.101,0,0.205-0.007,0.297-0.025V8.84h1.147L20.427,11.358
			L20.427,11.358z"/>
		<path fill="#1A1A18" d="M24.223,10.422l-0.025,1.114h-3.185V6.592h3.099l0.026,1.135h-1.839V8.49h1.516v1.035h-1.516v0.896
			L24.223,10.422L24.223,10.422z"/>
		<path fill="#1A1A18" d="M27.611,11.536l-1.477-2.28l-0.277-0.455l-0.014,0.006l0.007,0.534v2.195h-1.134V6.592h1.081l1.589,2.563
			L27.4,9.15l-0.014-0.526l0.007-2.031h1.134v4.944H27.611z"/>
		<path fill="#1A1A18" d="M1.766,13.184l0.871,2.498l0.164,0.508h0.02l0.165-0.502l0.885-2.504h1.424v4.943H4.114v-2.07l0.014-0.533
			l-0.021-0.007l-0.165,0.515L3.21,18.127H2.373l-0.727-2.09l-0.165-0.515L1.47,15.529l0.007,0.534v2.063H0.349v-4.943L1.766,13.184
			L1.766,13.184z"/>
		<path fill="#1A1A18" d="M6.018,13.184h1.324v4.943H6.018V13.184z"/>
		<path fill="#1A1A18" d="M10.223,14.337v3.79H8.911v-3.79H7.79l0.025-1.153h3.5l0.027,1.153H10.223z"/>
		<path fill="#1A1A18" d="M15.773,17.264h-1.346l-0.19,0.863h-1.363l1.463-4.943h1.575l1.489,4.943h-1.438L15.773,17.264z
			 M14.988,14.771l-0.315,1.418h0.863l-0.316-1.418l-0.099-0.526H15.1L14.988,14.771z"/>
		<path fill="#1A1A18" d="M20.262,18.127l-0.93-2.011h-0.316v2.011H17.73v-4.943h1.285v1.911h0.343l0.916-1.911h1.444L20.53,15.55
			l1.246,2.577H20.262z"/>
		<path fill="#1A1A18" d="M24.671,18.127l-0.929-2.011h-0.316v2.011H22.14v-4.943h1.286v1.911h0.342l0.917-1.911h1.443l-1.188,2.366
			l1.246,2.577H24.671z"/>
		<path fill="#1A1A18" d="M30.294,16.446c0,1.16-0.62,1.768-1.886,1.768c-1.267,0-1.904-0.606-1.904-1.768v-3.263h1.291v3.236
			c0,0.44,0.172,0.639,0.613,0.639c0.447,0,0.6-0.184,0.6-0.639v-3.236h1.286V16.446z"/>
		<path fill="#1A1A18" d="M31.447,15.635c-0.462,0-0.666-0.178-0.666-0.626c0-0.401,0.204-0.633,0.666-0.633s0.659,0.23,0.659,0.633
			C32.106,15.385,31.908,15.635,31.447,15.635z M31.447,18.206c-0.462,0-0.666-0.179-0.666-0.626c0-0.402,0.204-0.634,0.666-0.634
			s0.659,0.23,0.659,0.634C32.106,17.955,31.908,18.206,31.447,18.206z"/>
		<path fill="#1A1A18" d="M2.9,23.855H1.555l-0.189,0.863H0l1.463-4.943h1.575l1.489,4.943H3.091L2.9,23.855z M2.115,21.363
			l-0.316,1.418h0.863l-0.316-1.418l-0.099-0.526H2.227L2.115,21.363z"/>
		<path fill="#1A1A18" d="M7.389,24.719l-0.93-2.011H6.143v2.011H4.857v-4.943h1.285v1.911h0.343l0.916-1.911h1.444l-1.188,2.366
			l1.245,2.577H7.389z"/>
		<path fill="#1A1A18" d="M11.422,20.929v3.79H10.11v-3.79H8.99l0.025-1.153h3.5l0.026,1.153H11.422z"/>
		<path fill="#1A1A18" d="M12.991,19.775h1.324v4.943h-1.324V19.775z"/>
		<path fill="#1A1A18" d="M16.979,24.805c-1.424,0-2.069-0.752-2.069-2.558c0-1.813,0.619-2.553,2.069-2.553
			s2.069,0.738,2.069,2.553C19.049,24.105,18.43,24.805,16.979,24.805z M16.973,20.85c-0.541,0-0.712,0.224-0.712,1.397
			c0,1.18,0.178,1.417,0.726,1.417s0.711-0.244,0.711-1.417C17.697,21.066,17.533,20.85,16.973,20.85z"/>
		<path fill="#1A1A18" d="M22.482,24.719l-1.477-2.281l-0.276-0.454l-0.013,0.008l0.006,0.532v2.195h-1.134v-4.943h1.081
			l1.589,2.563l0.013-0.007l-0.013-0.527l0.007-2.029h1.134v4.943H22.482z"/>
		<path fill="#1A1A18" d="M25.363,24.805c-0.521,0-1.034-0.119-1.438-0.343l0.165-1.095c0.402,0.204,0.811,0.329,1.239,0.329
			c0.407,0,0.565-0.139,0.565-0.401c0-0.633-1.964-0.437-1.964-2.05c0-0.864,0.527-1.551,1.747-1.551
			c0.455,0,0.942,0.086,1.299,0.238l-0.146,1.074c-0.376-0.112-0.751-0.178-1.067-0.178c-0.488,0-0.594,0.145-0.594,0.354
			c0,0.64,1.965,0.422,1.965,2.037C27.137,24.198,26.477,24.805,25.363,24.805z"/>
		<path fill="#1A1A18" d="M29.344,21.818v0.857h-1.839v-0.857H29.344z"/>
		<path fill="#1A1A18" d="M3.843,31.133c-0.343,0.164-0.903,0.27-1.411,0.27c-1.635,0-2.215-0.876-2.215-2.562
			c0-1.729,0.68-2.558,2.274-2.558c0.435,0,0.93,0.078,1.284,0.217L3.658,27.6c-0.323-0.119-0.738-0.19-1.096-0.19
			c-0.811,0-0.995,0.303-0.995,1.417c0,1.174,0.191,1.431,0.83,1.431c0.101,0,0.205-0.007,0.297-0.026v-1.614h1.147L3.843,31.133
			L3.843,31.133z"/>
		<path fill="#1A1A18" d="M7.639,30.196L7.614,31.31H4.429v-4.942h3.099L7.554,27.5H5.715v0.766H7.23V29.3H5.715v0.896H7.639z"/>
		<path fill="#1A1A18" d="M11.041,29.287l0.962,2.022h-1.489l-0.66-1.767H9.419v1.767H8.134v-4.942h1.707
			c1.253,0,1.872,0.475,1.872,1.588C11.713,28.614,11.476,29.103,11.041,29.287z M9.867,27.435H9.419v1.142h0.44
			c0.376,0,0.509-0.094,0.509-0.573C10.368,27.553,10.243,27.435,9.867,27.435z"/>
		<path fill="#1A1A18" d="M14.877,30.447h-1.347l-0.189,0.863h-1.364l1.463-4.942h1.575l1.49,4.942h-1.438L14.877,30.447z
			 M13.591,26.129c-0.323,0-0.487-0.125-0.487-0.441c0-0.297,0.164-0.455,0.487-0.455c0.337,0,0.488,0.158,0.488,0.455
			C14.079,25.978,13.928,26.129,13.591,26.129z M14.092,27.955l-0.316,1.418h0.863l-0.316-1.418l-0.099-0.527h-0.02L14.092,27.955z
			 M14.85,26.129c-0.322,0-0.487-0.125-0.487-0.441c0-0.297,0.165-0.455,0.487-0.455c0.337,0,0.488,0.158,0.488,0.455
			C15.338,25.978,15.187,26.129,14.85,26.129z"/>
		<path fill="#1A1A18" d="M18.548,27.521v3.79h-1.312v-3.79h-1.12l0.025-1.152h3.501l0.025,1.152H18.548z"/>
		<path fill="#1A1A18" d="M23.273,30.196l-0.024,1.114h-3.186v-4.942h3.1l0.025,1.133H21.35v0.766h1.517V29.3H21.35v0.896H23.273z"
			/>
		<path fill="#1A1A18" d="M1.641,37.987c-0.521,0-1.035-0.118-1.437-0.343l0.165-1.095c0.4,0.204,0.811,0.33,1.237,0.33
			c0.409,0,0.567-0.14,0.567-0.402c0-0.633-1.964-0.435-1.964-2.05c0-0.863,0.526-1.549,1.746-1.549
			c0.455,0,0.942,0.085,1.299,0.235L3.111,34.19c-0.376-0.111-0.752-0.179-1.067-0.179c-0.488,0-0.594,0.146-0.594,0.356
			c0,0.64,1.965,0.422,1.965,2.036C3.414,37.381,2.755,37.987,1.641,37.987z"/>
		<path fill="#1A1A18" d="M3.928,32.957h1.325v4.943H3.928V32.957z"/>
		<path fill="#1A1A18" d="M8.938,34.15c-0.218-0.079-0.514-0.132-0.824-0.132c-0.73,0-0.916,0.311-0.916,1.393
			c0,1.14,0.204,1.456,0.937,1.456c0.304,0,0.587-0.061,0.818-0.165L9.07,37.75c-0.297,0.145-0.744,0.236-1.127,0.236
			c-1.41,0-2.097-0.805-2.097-2.584c0-1.66,0.666-2.53,2.176-2.53c0.351,0,0.777,0.079,1.041,0.185L8.938,34.15z"/>
		<path fill="#1A1A18" d="M12.029,37.901v-1.938h-1.199v1.938H9.544v-4.943h1.285v1.853h1.199v-1.853h1.291v4.943H12.029z"/>
		<path fill="#1A1A18" d="M17.197,36.787l-0.026,1.113h-3.185v-4.943h3.1l0.025,1.135h-1.84v0.764h1.518v1.035h-1.518v0.896H17.197z
			"/>
		<path fill="#1A1A18" d="M20.598,35.878l0.963,2.022h-1.49l-0.658-1.767h-0.436v1.767H17.69v-4.943h1.708
			c1.252,0,1.871,0.475,1.871,1.589C21.27,35.205,21.033,35.693,20.598,35.878z M19.424,34.025h-0.447v1.142h0.441
			c0.375,0,0.508-0.094,0.508-0.574C19.926,34.145,19.8,34.025,19.424,34.025z"/>
		<path fill="#1A1A18" d="M24.777,37.901L23.3,35.621l-0.277-0.455l-0.014,0.006l0.007,0.534v2.194h-1.134v-4.943h1.081l1.589,2.563
			l0.014-0.006l-0.014-0.527l0.007-2.03h1.134v4.943H24.777z"/>
		<path fill="#1A1A18" d="M26.49,36.425l-0.186-3.468h1.299l-0.179,3.468H26.49z M26.979,37.98c-0.441,0-0.64-0.165-0.64-0.565
			c0-0.363,0.197-0.58,0.64-0.58c0.447,0,0.646,0.217,0.646,0.58C27.624,37.75,27.426,37.98,26.979,37.98z"/>
	</g>
</g>
<g id="Screens">
</g>
</svg>
