<svg enable-background="new 0 0 320.5 66.4" viewBox="0 0 320.5 66.4" xmlns="http://www.w3.org/2000/svg"><path clip-rule="evenodd" d="m306.6 55.6c-1.7 0-2.5-.7-2.5-2.4 0-1.5.8-2.4 2.5-2.4 1.8 0 2.5.9 2.5 2.4s-.8 2.4-2.5 2.4zm-13.7-8.9-1-1.7h-.1v2 8.3h-4.3v-18.7h4.1l6 9.7v-2-7.7h4.3v18.7h-3.5zm-7.2 4.4-.1 4.2h-12.1v-18.7h11.7l.1 4.3h-7v2.9h5.7v3.9h-5.7v3.4zm-19.8 4.6c-6.2 0-8.4-3.3-8.4-9.7 0-6.5 2.6-9.7 8.6-9.7 1.6 0 3.5.3 4.9.8l-.4 4.2c-1.2-.4-2.8-.7-4.1-.7-3.1 0-3.8 1.1-3.8 5.4 0 4.4.7 5.4 3.1 5.4.4 0 .8 0 1.1-.1v-6.1h4.3v9.5c-1.2.6-3.4 1-5.3 1zm-9.4-4.6-.1 4.2h-12.1v-18.7h11.7l.1 4.3h-7v2.9h5.7v3.9h-5.7v3.4zm-25.1 4.2v-18.7h4.9v14.4h6.4l-.1 4.3zm-1-33.6-1-1.7h-.1v2 8.3h-4.3v-18.7h4.1l6 9.7h.1l-.1-2v-7.7h4.3v18.7h-3.4zm-1.3 15.5-.6 4.1c-1.4-.4-2.8-.7-4-.7-1.8 0-2.2.5-2.2 1.3 0 2.4 7.4 1.6 7.4 7.7 0 3.7-2.5 6-6.7 6-2 0-3.9-.5-5.4-1.3l.6-4.1c1.5.8 3.1 1.2 4.7 1.2 1.5 0 2.1-.5 2.1-1.5 0-2.4-7.4-1.6-7.4-7.8 0-3.3 2-5.9 6.6-5.9 1.7.1 3.5.4 4.9 1zm-5.9-11.1-.1 4.2h-12.1v-18.7h11.7l.1 4.3h-7v2.9h5.7v3.9h-5.7v3.4zm-14.9 29.5c-5.4 0-7.8-2.8-7.8-9.7s2.3-9.7 7.8-9.7 7.8 2.8 7.8 9.7c0 7.1-2.4 9.7-7.8 9.7zm-.1-15c-2 0-2.7.8-2.7 5.3s.7 5.4 2.7 5.4c2.1 0 2.7-.9 2.7-5.4.1-4.4-.5-5.3-2.7-5.3zm.8-15.8c0 3.4-2 5.5-6.7 5.5h-7.3v-18.7h7.3c4 0 6.1 1.9 6.1 4.8 0 2-.9 3.2-2.3 3.9 1.9.7 2.9 2.2 2.9 4.5zm-6.8-9.1h-2.4v3.3h2.5c1.1 0 1.5-.4 1.5-1.7s-.4-1.6-1.6-1.6zm.1 6.9h-2.5v3.7h2.6c1.2 0 1.7-.4 1.7-1.9 0-1.3-.4-1.8-1.8-1.8zm-2.8 32.7h-11.2v-18.7h4.9v14.4h6.4zm-6.3-29.2-.1 4.2h-12.1v-18.7h11.7l.1 4.3h-7v2.9h5.7v3.9h-5.7v3.4zm-20 29.5c-4.8 0-7.2-2.3-7.2-6.7v-12.3h4.9v12.3c0 1.7.6 2.4 2.3 2.4s2.3-.7 2.3-2.4v-12.3h4.9v12.4c-.1 4.3-2.4 6.6-7.2 6.6zm.2-24.9c-6.2 0-8.4-3.3-8.4-9.7 0-6.5 2.6-9.7 8.6-9.7 1.6 0 3.5.3 4.9.8l-.4 4.2c-1.2-.4-2.8-.7-4.1-.7-3.1 0-3.8 1.1-3.8 5.4 0 4.4.7 5.4 3.2 5.4.4 0 .8 0 1.1-.1v-6.1h4.3v9.5c-1.3.6-3.4 1-5.4 1zm-14.4 24.6-3.5-7.6h-1.2v7.6h-4.9v-18.7h4.9v7.2h1.3l3.5-7.2h5.5l-4.5 9 4.7 9.8h-5.8zm4.6-30.5c0 3.4-2 5.5-6.7 5.5h-7.3v-18.7h7.3c4 0 6.1 1.9 6.1 4.8 0 2-.9 3.2-2.3 3.9 1.9.7 2.9 2.2 2.9 4.5zm-6.9-9.1h-2.4v3.3h2.5c1.1 0 1.5-.4 1.5-1.7s-.4-1.6-1.6-1.6zm.2 6.9h-2.5v3.7h2.6c1.2 0 1.7-.4 1.7-1.9-.1-1.3-.5-1.8-1.8-1.8zm-14.7 4.4h-5.1l-.7 3.3h-5.2l5.5-18.7h6l5.6 18.7h-5.4zm-2.1-9.4-.4-2h-.1l-.4 2-1.2 5.4h3.3zm-14.1 37.7-.7-3.3h-5.1l-.7 3.3h-5.2l5.5-18.7h6l5.6 18.7zm-2.8-12.7-.4-2h-.1l-.4 2-1.2 5.4h3.3zm-2.1-12.3h-5v-14.4h-4.2l.1-4.4h13.3l.1 4.4h-4.2v14.4zm-14-19.6c-1.2 0-1.8-.5-1.8-1.7 0-1.1.6-1.7 1.8-1.7 1.3 0 1.8.6 1.8 1.7s-.5 1.7-1.8 1.7zm-4.8 0c-1.2 0-1.8-.5-1.8-1.7 0-1.1.6-1.7 1.8-1.7 1.3 0 1.8.6 1.8 1.7.1 1.1-.5 1.7-1.8 1.7zm-.6.9h6l5.6 18.7h-5.4l-.7-3.3h-5.1l-.7 3.3h-5.1-.1-5.6l-2.5-6.7h-1.6v6.7h-4.9v-18.7h6.5c4.7 0 7.1 1.8 7.1 6 0 2.5-.9 4.3-2.5 5l3.6 7.5zm4.6 11.4-1.2-5.4-.4-2h-.1l-.4 2-1.2 5.4zm-18.1-7.4h-1.7v4.3h1.7c1.4 0 1.9-.3 1.9-2.2 0-1.6-.5-2.1-1.9-2.1zm-2.7 39.7h-4.5v-7.8-2h-.1l-.6 2-2.8 7.9h-3.2l-2.7-7.9-.6-2h-.1v2 7.8h-4.3v-18.7h5.4l3.3 9.5.6 1.9h.1l.6-1.9 3.3-9.5h5.4v18.7zm-5.8-29.2-.1 4.2h-12v-18.7h11.7l.1 4.3h-7v2.9h5.7v3.9h-5.7v3.4zm-19.7 4.6c-6.2 0-8.4-3.3-8.4-9.7 0-6.5 2.6-9.7 8.6-9.7 1.7 0 3.5.3 4.9.8l-.5 4.2c-1.2-.4-2.8-.7-4.1-.7-3.1 0-3.8 1.1-3.8 5.4 0 4.4.7 5.4 3.1 5.4.4 0 .8 0 1.1-.1v-6.1h4.3v9.5c-1.2.6-3.3 1-5.2 1zm-13.1-.4h-5v-14.4h-4.2l.1-4.4h13.2l.1 4.4h-4.2zm-7.8 0h-11.2v-18.7h4.9v14.4h6.4zm-1.6 16v-2-7.7h4.3v18.7h-3.5l-5.6-8.6-1-1.7v2 8.3h-4.3v-18.7h4.1zm-17-19.3h-5.1l-.7 3.3h-5.2l5.5-18.7h6l5.6 18.7h-5.4zm-2.1-9.4-.4-2-.4 2-1.3 5.4h3.3zm-2.8 31.2c0 1.7.6 2.4 2.3 2.4s2.3-.7 2.3-2.4v-12.2h4.8v12.4c0 4.4-2.3 6.7-7.1 6.7s-7.2-2.3-7.2-6.7v-12.4h4.9zm43.5-3c0 6.9-2.7 9.5-7.9 9.5h-6.8v-18.7h6.7c5.7 0 8 2.6 8 9.2zm-9.8 5.2h1.8c2.1 0 2.9-.6 2.9-5.2 0-4.1-.7-4.9-2.9-4.9h-1.8zm44 4.3h-5v-18.7h5zm15.1-18.7.1 4.4h-4.2v14.4h-5v-14.5h-4.3l.1-4.4h13.3zm29.2 7.2h1.3l3.5-7.2h5.5l-4.5 9 4.7 9.8h-5.7l-3.5-7.6h-1.2v7.6h-4.9v-18.8h4.9v7.2z" fill="#020204" fill-rule="evenodd"/></svg>