<?xml version="1.0" encoding="utf-8"?>
<!-- Generator: Adobe Illustrator 22.1.0, SVG Export Plug-In . SVG Version: 6.00 Build 0)  -->
<svg version="1.1" id="Ebene_1" xmlns="http://www.w3.org/2000/svg" xmlns:xlink="http://www.w3.org/1999/xlink" x="0px" y="0px"
	 viewBox="0 0 275.9 55.9" style="enable-background:new 0 0 275.9 55.9;" xml:space="preserve">
<path d="M261.8,46.6c-0.5,0-0.8-0.2-0.8-0.8c0-0.5,0.3-0.7,0.8-0.7c0.5,0,0.7,0.3,0.7,0.7C262.5,46.3,262.3,46.6,261.8,46.6z
	 M257.3,45.3L257.3,45.3c-0.6,0.9-1.7,1.3-3,1.3c-2.7,0-3.7-1.6-3.7-5c0-3.3,1.1-4.9,3.7-4.9c1.2,0,2.2,0.4,2.9,1.2l0,0l0-1.3v-3.1
	l1-0.1v12.9h-0.7L257.3,45.3z M257.2,38.9c-0.5-0.8-1.5-1.3-2.7-1.3c-2.1,0-3,1.2-3,4c0,2.9,0.7,4.1,2.9,4.1c1.6,0,2.4-0.8,2.7-1.4
	V38.9z M246.8,33.5l1-0.1v12.9h-1V33.5z M243.6,23c0,1.1,0.6,1.6,1.6,1.6c0.3,0,0.6,0,0.8-0.1l0.1,0.8c-0.3,0.1-0.7,0.2-1.2,0.2
	c-1.5,0-2.3-0.8-2.3-2.4v-6.5h-1.5v-0.8h1.5l0.2-2.5l0.8-0.1v2.6h2.5v0.8h-2.5V23z M243.9,41.6h-6.4c0,3.1,1.1,4.1,3.4,4.1
	c1,0,1.8-0.2,2.6-0.7l0.1,0.9c-0.8,0.5-1.8,0.7-2.9,0.7c-3.1,0-4.3-1.6-4.3-5.3c0-3,1.3-4.6,3.8-4.6c2.2,0,3.7,1.3,3.7,4.4
	C244,41.2,243.9,41.4,243.9,41.6z M240.3,37.6c-1.9,0-2.7,1.1-2.8,3.3h5.6C243,38.5,241.9,37.6,240.3,37.6z M239,18.4
	c0,1.8-0.8,2.8-3.2,2.8c-0.5,0-0.9,0-1.4-0.2c-0.6,0.1-1,0.5-1,0.9c0,0.4,0.3,0.7,1.1,0.8l2.2,0.2c2.4,0.2,3.1,1,3.1,2.2
	c0,1.7-1,2.7-3.9,2.7c-2.5,0-3.6-1-3.6-2.5c0-0.7,0.4-1.4,1.1-2c-0.5-0.2-0.9-0.6-0.9-1.3c0-0.6,0.4-1.1,1.2-1.4
	c-0.7-0.4-1.2-1.1-1.2-2.3c0-1.8,0.9-2.8,3.2-2.8c0.8,0,1.7,0.2,2.3,0.7l1.5-0.7l0.2,0.5l-1.2,0.8C238.9,17.3,239,17.8,239,18.4z
	 M233.2,25.1c0,1.1,0.8,1.8,2.7,1.8c2.4,0,3-0.7,3-1.8c0-0.8-0.4-1.3-2.3-1.4l-2.3-0.2C233.5,23.9,233.2,24.6,233.2,25.1z
	 M235.8,16.4c-1.7,0-2.3,0.7-2.3,2c0,1.6,1,2,2.3,2c1.8,0,2.3-0.7,2.3-2C238,16.9,237.3,16.4,235.8,16.4z M234.6,33.5
	c0.5,0,1,0.1,1.3,0.2l-0.1,0.7c-0.3-0.1-0.7-0.1-1.1-0.1c-1.5,0-2.2,0.8-2.2,2.1v0.5h2.7v0.8h-2.7v8.8h-1v-8.8H230v-0.8h1.5v-0.5
	C231.5,34.7,232.4,33.5,234.6,33.5z M229.6,16.6c-1.6,0-3,1.5-3,3.8v4.9h-1v-9.5l0.8-0.1l0,1.1l0,1.3h0c0.6-1.5,1.7-2.5,3.1-2.5
	c0.3,0,0.6,0,0.9,0.1l-0.1,1C230.2,16.7,229.9,16.6,229.6,16.6z M228,46.4h-1v-6.5c0-1.6-0.9-2.3-2.3-2.3c-1.1,0-2.2,0.7-2.2,2.1
	v6.7h-1v-6.7c0-1.5-1-2.1-2.2-2.1c-0.9,0-1.9,0.5-2.3,1.3v7.5h-1v-9.5l0.7-0.1l0.2,1.2h0c0.5-0.8,1.5-1.2,2.5-1.2
	c1.4,0,2.3,0.5,2.6,1.6h0c0.4-1.1,1.4-1.6,2.7-1.6c1.8,0,3.1,1,3.1,3.2V46.4z M219.2,25.5c-2.8,0-4-1.4-4-5c0-3.5,1.3-4.9,4-4.9
	c2.8,0,4,1.4,4,4.9C223.2,24.1,222,25.5,219.2,25.5z M219.2,16.5c-2.2,0-3,1.1-3,4.1c0,3,0.9,4.1,3,4.1c2.1,0,3-1.1,3-4.1
	C222.2,17.6,221.3,16.5,219.2,16.5z M210.2,25.5c-1.1,0-2.2-0.3-2.9-0.9l0.2-0.9c0.7,0.6,1.8,0.9,2.7,0.9c1.6,0,2.3-0.8,2.3-1.9
	c0-2.6-5.2-1.5-5.2-4.6c0-1.6,1.1-2.5,3.2-2.5c0.9,0,1.8,0.2,2.5,0.6l-0.1,0.9c-0.8-0.4-1.6-0.5-2.4-0.5c-1.4,0-2.2,0.6-2.2,1.6
	c0,2.4,5.1,1.2,5.1,4.6C213.4,24.3,212.4,25.5,210.2,25.5z M209.6,45.7c1.7,0,2.6-0.8,2.6-2.3v-6.5h1v6.5c0,2-1.2,3.2-3.6,3.2
	c-2.4,0-3.5-1.2-3.5-3.2v-6.5h1v6.5C207,44.8,207.9,45.7,209.6,45.7z M200.6,46.6c-1.1,0-2.2-0.3-2.9-0.9l0.2-0.9
	c0.7,0.6,1.8,0.9,2.7,0.9c1.6,0,2.3-0.8,2.3-1.9c0-2.6-5.2-1.5-5.2-4.6c0-1.6,1.1-2.5,3.2-2.5c0.9,0,1.8,0.2,2.5,0.6l-0.1,0.9
	c-0.8-0.4-1.6-0.5-2.4-0.5c-1.4,0-2.2,0.6-2.2,1.6c0,2.4,5.1,1.2,5.1,4.6C203.9,45.4,202.9,46.6,200.6,46.6z M195.8,25.5
	c-3,0-4.3-1.7-4.3-6.2c0-4.6,1.2-6.2,4.3-6.2c3,0,4.2,1.6,4.2,6.2C200,23.8,198.8,25.5,195.8,25.5z M195.8,14
	c-2.2,0-3.3,1.1-3.3,5.2c0,4.2,1,5.3,3.3,5.3c2.2,0,3.2-1.1,3.2-5.3C199,15,198,14,195.8,14z M192.8,34.4l0.8-0.1v2.6h2.5v0.8h-2.5
	v6.4c0,1.1,0.6,1.6,1.6,1.6c0.3,0,0.6,0,0.8-0.1l0.1,0.8c-0.3,0.1-0.7,0.2-1.2,0.2c-1.5,0-2.3-0.8-2.3-2.4v-6.5h-1.5v-0.8h1.5
	L192.8,34.4z M185.2,25.5c-3,0-4.3-1.7-4.3-6.2c0-4.6,1.2-6.2,4.3-6.2c3,0,4.2,1.6,4.2,6.2C189.4,23.8,188.1,25.5,185.2,25.5z
	 M185.2,14c-2.2,0-3.3,1.1-3.3,5.2c0,4.2,1,5.3,3.3,5.3c2.2,0,3.2-1.1,3.2-5.3C188.4,15,187.4,14,185.2,14z M184.6,41.1
	c0,0.1,0,0.4,0,0.5h-6.4c0,3.1,1.1,4.1,3.4,4.1c1,0,1.8-0.2,2.6-0.7l0.1,0.9c-0.8,0.5-1.8,0.7-2.9,0.7c-3.1,0-4.3-1.6-4.3-5.3
	c0-3,1.3-4.6,3.8-4.6C183.1,36.7,184.6,38,184.6,41.1z M180.9,37.6c-1.9,0-2.7,1.1-2.8,3.3h5.6C183.6,38.5,182.5,37.6,180.9,37.6z
	 M172.3,24.4h2.4v-8.6l0-1.3l0,0l-2.8,1.9l-0.1-0.9l3.4-2.4h0.6v11.3h2.3v0.8h-5.7V24.4z M175.2,41.6c0,3.6-1.4,5-3.8,5
	c-1.2,0-2.3-0.5-3-1.3l0,0l-0.2,1.1h-0.6V33.5l1-0.1v3.2l0,1.3l0,0c0.7-0.8,1.8-1.2,3-1.2C173.8,36.7,175.2,37.9,175.2,41.6z
	 M171.3,37.6c-1.2,0-2.2,0.5-2.7,1.3v5.4c0.4,0.7,1.4,1.4,2.7,1.4c1.7,0,2.9-0.9,2.9-4.1C174.2,38.4,173.2,37.6,171.3,37.6z
	 M164.4,37.7c-1.6,0-3,1.5-3,3.8v4.9h-1v-9.5l0.8-0.1l0,1.1l0,1.3h0c0.6-1.5,1.7-2.5,3.1-2.5c0.3,0,0.6,0,0.9,0.1l-0.1,1
	C165,37.8,164.7,37.7,164.4,37.7z M157.3,18.6h5.2v1h-5.2v5.7h-1.1V13.2h7.2l0,1h-6.1V18.6z M151.6,22.1h-5.9l-1.2,3.2h-1.2
	l4.6-12.1h1.3l4.6,12.1h-1.2L151.6,22.1z M149.2,15.2l-0.4-1.2h0l-0.4,1.2l-2.2,5.9h5.2L149.2,15.2z M138.3,46.6
	c-1.1,0-2.2-0.3-2.9-0.9l0.2-0.9c0.7,0.6,1.8,0.9,2.7,0.9c1.6,0,2.3-0.8,2.3-1.9c0-2.6-5.2-1.5-5.2-4.6c0-1.6,1.1-2.5,3.2-2.5
	c0.9,0,1.8,0.2,2.5,0.6l-0.1,0.9c-0.8-0.4-1.6-0.5-2.4-0.5c-1.4,0-2.2,0.6-2.2,1.6c0,2.4,5.1,1.2,5.1,4.6
	C141.5,45.4,140.6,46.6,138.3,46.6z M136.3,16.6c-1.6,0-3,1.5-3,3.8v4.9h-1v-9.5l0.8-0.1l0,1.1l0,1.3h0c0.6-1.5,1.7-2.5,3.1-2.5
	c0.3,0,0.6,0,0.9,0.1l-0.1,1C136.9,16.7,136.6,16.6,136.3,16.6z M133.5,41.6h-6.4c0,3.1,1.1,4.1,3.4,4.1c1,0,1.8-0.2,2.6-0.7
	l0.1,0.9c-0.8,0.5-1.8,0.7-2.9,0.7c-3.1,0-4.3-1.6-4.3-5.3c0-3,1.3-4.6,3.8-4.6c2.2,0,3.7,1.3,3.7,4.4
	C133.5,41.2,133.5,41.4,133.5,41.6z M129.9,37.6c-1.9,0-2.7,1.1-2.8,3.3h5.6C132.6,38.5,131.5,37.6,129.9,37.6z M123.4,20.5
	c0,3.1,1.1,4.1,3.4,4.1c1,0,1.8-0.2,2.6-0.7l0.1,0.9c-0.8,0.5-1.8,0.7-2.9,0.7c-3.1,0-4.3-1.6-4.3-5.3c0-3,1.3-4.6,3.8-4.6
	c2.2,0,3.7,1.3,3.7,4.4c0,0.1,0,0.4,0,0.5H123.4z M126.2,16.5c-1.9,0-2.7,1.1-2.8,3.3h5.6C128.9,17.4,127.8,16.5,126.2,16.5z
	 M120.2,18.4c0,1.8-0.8,2.8-3.2,2.8c-0.5,0-0.9,0-1.4-0.2c-0.7,0.1-1,0.5-1,0.9c0,0.4,0.3,0.7,1.1,0.8l2.2,0.2
	c2.4,0.2,3.1,1,3.1,2.2c0,1.7-1,2.7-3.9,2.7c-2.5,0-3.6-1-3.6-2.5c0-0.7,0.4-1.4,1.1-2c-0.5-0.2-0.9-0.6-0.9-1.3
	c0-0.6,0.4-1.1,1.2-1.4c-0.7-0.4-1.2-1.1-1.2-2.3c0-1.8,0.9-2.8,3.2-2.8c0.8,0,1.7,0.2,2.3,0.7l1.5-0.7l0.2,0.5l-1.2,0.8
	C120,17.3,120.2,17.8,120.2,18.4z M114.3,25.1c0,1.1,0.8,1.8,2.7,1.8c2.4,0,3-0.7,3-1.8c0-0.8-0.4-1.3-2.3-1.4l-2.3-0.2
	C114.7,23.9,114.3,24.6,114.3,25.1z M116.9,16.4c-1.7,0-2.3,0.7-2.3,2c0,1.6,1,2,2.3,2c1.8,0,2.3-0.7,2.3-2
	C119.2,16.9,118.5,16.4,116.9,16.4z M113.6,46.4h-1V40c0-1.6-0.9-2.3-2.5-2.3c-0.9,0-2.1,0.5-2.6,1.3v7.5h-1v-9.5l0.7-0.1l0.2,1.1h0
	c0.6-0.8,1.8-1.3,2.9-1.3c2,0,3.3,1.1,3.3,3.2V46.4z M110.4,25.3h-1v-9.5l1-0.1V25.3z M109.9,13.8c-0.5,0-0.8-0.2-0.8-0.7
	c0-0.4,0.3-0.7,0.8-0.7c0.5,0,0.8,0.2,0.8,0.7C110.6,13.6,110.4,13.8,109.9,13.8z M105,18.9c0-1.6-0.9-2.3-2.5-2.3
	c-0.9,0-2.1,0.5-2.6,1.3v7.5h-1v-9.5l0.7-0.1l0.2,1.1h0c0.6-0.8,1.8-1.3,2.9-1.3c2,0,3.3,1.1,3.3,3.2v6.4h-1V18.9z M100.1,45.7
	c1.7,0,2.6-0.8,2.6-2.3v-6.5h1v6.5c0,2-1.2,3.2-3.6,3.2c-2.4,0-3.5-1.2-3.5-3.2v-6.5h1v6.5C97.5,44.8,98.4,45.7,100.1,45.7z
	 M94.9,13.8c-0.5,0-0.8-0.2-0.8-0.7c0-0.4,0.3-0.7,0.8-0.7s0.8,0.2,0.8,0.7C95.6,13.6,95.4,13.8,94.9,13.8z M91.5,37.6
	c-1.4,0-2.2,0.6-2.2,1.6c0,2.4,5.1,1.2,5.1,4.6c0,1.7-1,2.9-3.2,2.9c-1.1,0-2.2-0.3-2.9-0.9l0.2-0.9c0.7,0.6,1.8,0.9,2.7,0.9
	c1.6,0,2.3-0.8,2.3-1.9c0-2.6-5.2-1.5-5.2-4.6c0-1.6,1.1-2.5,3.2-2.5c0.9,0,1.8,0.2,2.5,0.6l-0.1,0.9C93.1,37.7,92.3,37.6,91.5,37.6
	z M85,20.5c0,3.1,1.1,4.1,3.4,4.1c1,0,1.8-0.2,2.6-0.7l0.1,0.9c-0.8,0.5-1.8,0.7-2.9,0.7c-3.1,0-4.3-1.6-4.3-5.3
	c0-3,1.3-4.6,3.8-4.6c2.2,0,3.7,1.3,3.7,4.4c0,0.1,0,0.4,0,0.5H85z M87.8,16.5c-1.9,0-2.7,1.1-2.8,3.3h5.6
	C90.5,17.4,89.4,16.5,87.8,16.5z M86.3,41.6h-6.4c0,3.1,1.1,4.1,3.4,4.1c1,0,1.8-0.2,2.6-0.7l0.1,0.9c-0.8,0.5-1.8,0.7-2.9,0.7
	c-3.1,0-4.3-1.6-4.3-5.3c0-3,1.3-4.6,3.8-4.6c2.2,0,3.7,1.3,3.7,4.4C86.4,41.2,86.4,41.4,86.3,41.6z M82.7,37.6
	c-1.9,0-2.7,1.1-2.8,3.3h5.6C85.4,38.5,84.3,37.6,82.7,37.6z M81.7,16.6c-1.6,0-3,1.5-3,3.8v4.9h-1v-9.5l0.8-0.1l0,1.1l0,1.3h0
	c0.6-1.5,1.7-2.5,3.1-2.5c0.3,0,0.6,0,0.9,0.1l-0.1,1C82.3,16.7,82,16.6,81.7,16.6z M76.7,39.5c0,1.8-0.8,2.8-3.2,2.8
	c-0.5,0-0.9,0-1.4-0.2c-0.6,0.1-1,0.5-1,0.9c0,0.4,0.3,0.7,1.1,0.8l2.2,0.2c2.4,0.2,3.1,1,3.1,2.2c0,1.7-1,2.7-3.9,2.7
	c-2.5,0-3.6-1-3.6-2.5c0-0.7,0.4-1.4,1.1-2c-0.5-0.2-0.9-0.6-0.9-1.3c0-0.6,0.4-1.1,1.2-1.4c-0.7-0.4-1.2-1.1-1.2-2.3
	c0-1.8,0.9-2.8,3.2-2.8c0.8,0,1.7,0.2,2.3,0.7l1.5-0.7l0.2,0.5L76.3,38C76.5,38.4,76.7,38.9,76.7,39.5z M70.8,46.2
	c0,1.1,0.8,1.8,2.7,1.8c2.4,0,3-0.7,3-1.8c0-0.8-0.4-1.3-2.3-1.4l-2.3-0.2C71.2,45,70.8,45.7,70.8,46.2z M73.4,37.5
	c-1.7,0-2.3,0.7-2.3,2c0,1.6,1,2,2.3,2c1.8,0,2.3-0.7,2.3-2C75.7,38,75,37.5,73.4,37.5z M73.1,23c0,1.1,0.6,1.6,1.6,1.6
	c0.3,0,0.6,0,0.8-0.1l0.1,0.8c-0.3,0.1-0.7,0.2-1.2,0.2c-1.5,0-2.3-0.8-2.3-2.4v-6.5h-1.5v-0.8h1.5l0.2-2.5l0.8-0.1v2.6h2.5v0.8
	h-2.5V23z M68.7,13.2c-1.5,0-2.2,0.8-2.2,2.1v0.5h2.7v0.8h-2.7v8.8h-1v-8.8H64v-0.8h1.5v-0.5c0-1.7,0.9-2.8,3.1-2.8
	c0.5,0,1,0.1,1.3,0.2l-0.1,0.7C69.6,13.2,69.2,13.2,68.7,13.2z M61.3,40c0-1.6-0.9-2.3-2.5-2.3c-0.9,0-2.1,0.5-2.6,1.3v7.5h-1v-9.5
	l0.7-0.1l0.2,1.1h0c0.6-0.8,1.8-1.3,2.9-1.3c2,0,3.3,1.1,3.3,3.2v6.4h-1V40z M58.5,25.5c-2.4,0-3.5-1.2-3.5-3.2v-6.5h1v6.5
	c0,1.5,0.9,2.3,2.6,2.3s2.6-0.8,2.6-2.3v-6.5h1v6.5C62,24.3,60.9,25.5,58.5,25.5z M46.1,25.3V13.2h1.1v11.1h6l0,1H46.1z M47.8,41.6
	h-6.4c0,3.1,1.1,4.1,3.4,4.1c1,0,1.8-0.2,2.6-0.7l0.1,0.9c-0.8,0.5-1.8,0.7-2.9,0.7c-3.1,0-4.3-1.6-4.3-5.3c0-3,1.3-4.6,3.8-4.6
	c2.2,0,3.7,1.3,3.7,4.4C47.8,41.2,47.8,41.4,47.8,41.6z M44.1,37.6c-1.9,0-2.7,1.1-2.8,3.3h5.6C46.8,38.5,45.7,37.6,44.1,37.6z
	 M37.5,16.6c-1.6,0-3,1.5-3,3.8v4.9h-1v-9.5l0.8-0.1l0,1.1l0,1.3h0c0.6-1.5,1.7-2.5,3.1-2.5c0.3,0,0.6,0,0.9,0.1l-0.1,1
	C38.1,16.7,37.9,16.6,37.5,16.6z M32.6,37.7c-1.6,0-3,1.5-3,3.8v4.9h-1v-9.5l0.8-0.1l0,1.1l0,1.3h0c0.6-1.5,1.7-2.5,3.1-2.5
	c0.3,0,0.6,0,0.9,0.1l-0.1,1C33.2,37.8,32.9,37.7,32.6,37.7z M24.7,20.5c0,3.1,1.1,4.1,3.4,4.1c1,0,1.8-0.2,2.6-0.7l0.1,0.9
	c-0.8,0.5-1.8,0.7-2.9,0.7c-3.1,0-4.3-1.6-4.3-5.3c0-3,1.3-4.6,3.8-4.6c2.2,0,3.7,1.3,3.7,4.4c0,0.1,0,0.4,0,0.5H24.7z M27.5,16.5
	c-1.9,0-2.7,1.1-2.8,3.3h5.6C30.2,17.4,29.1,16.5,27.5,16.5z M23.4,34.8c-0.4,0-0.6-0.2-0.6-0.6c0-0.4,0.2-0.6,0.6-0.6
	c0.4,0,0.6,0.2,0.6,0.6C24,34.6,23.8,34.8,23.4,34.8z M24.8,36.9h1v6.5c0,2-1.2,3.2-3.6,3.2c-2.4,0-3.5-1.2-3.5-3.2v-6.5h1v6.5
	c0,1.5,0.9,2.3,2.6,2.3c1.7,0,2.6-0.8,2.6-2.3V36.9z M21.5,34.2c0,0.4-0.2,0.6-0.6,0.6c-0.4,0-0.6-0.2-0.6-0.6
	c0-0.4,0.2-0.6,0.6-0.6C21.4,33.5,21.5,33.8,21.5,34.2z M16.5,25.3h-4V13.2h4c3.6,0,5.1,1.7,5.1,6C21.6,23.6,20,25.3,16.5,25.3z
	 M16.5,14.2h-2.9v10.1h2.9c2.7,0,4-1.1,4-5.1C20.5,15.3,19.3,14.2,16.5,14.2z M12.9,36.4c0-1.7,0.9-2.8,3.1-2.8c0.5,0,1,0.1,1.3,0.2
	l-0.1,0.7c-0.3-0.1-0.7-0.1-1.1-0.1c-1.5,0-2.2,0.8-2.2,2.1v0.5h2.7v0.8h-2.7v8.8h-1v-8.8h-1.5v-0.8h1.5V36.4z M51.2,33.5
	c0.5,0,0.8,0.2,0.8,0.7c0,0.5-0.3,0.7-0.8,0.7s-0.8-0.2-0.8-0.7C50.4,33.8,50.7,33.5,51.2,33.5z M51.7,46.4h-1v-9.5l1-0.1V46.4z
	 M95.4,25.3h-1v-9.5l1-0.1V25.3z M119.7,36.7c1.2,0,2.2,0.4,2.9,1.2l0,0l0-1.3v-3.1l1-0.1v12.9h-0.7l-0.2-1.1l0,0
	c-0.6,0.9-1.6,1.3-3,1.3c-2.7,0-3.7-1.6-3.7-5C115.9,38.3,117,36.7,119.7,36.7z M119.9,45.7c1.6,0,2.4-0.8,2.7-1.4v-5.4
	c-0.5-0.8-1.5-1.3-2.7-1.3c-2.1,0-3,1.2-3,4C116.9,44.6,117.7,45.7,119.9,45.7z M153.9,34.3l4.6,12.1h-1.2l-1.2-3.2h-5.9l-1.2,3.2
	H148l4.6-12.1H153.9z M155.8,42.2l-2.1-5.9l-0.4-1.2h0l-0.4,1.2l-2.2,5.9H155.8z M188,33.5c0.5,0,0.8,0.2,0.8,0.7
	c0,0.5-0.3,0.7-0.8,0.7s-0.8-0.2-0.8-0.7C187.2,33.8,187.5,33.5,188,33.5z M188.5,46.4h-1v-9.5l1-0.1V46.4z"/>
</svg>
