<svg enable-background="new 0 0 25.94 30.11" viewBox="0 0 25.94 30.11" xmlns="http://www.w3.org/2000/svg" xmlns:xlink="http://www.w3.org/1999/xlink"><clipPath id="a"><path d="m0 0h25.94v30.11h-25.94z"/></clipPath><path clip-path="url(#a)" d="m3.93 22.07c-.47.12-.98.08-1.45-.14-1.08-.5-1.53-1.77-1.02-2.84l4.21-8.76c.52-1.07 1.81-1.53 2.89-1.02 1.08.5 1.53 1.77 1.02 2.84l-4.21 8.75c-.29.61-.83 1.02-1.44 1.17"/><path clip-path="url(#a)" d="m12.39 5.38c-.25.06-.52.08-.79.05l-9.71-1.17c-1.19-.15-2.02-1.21-1.87-2.38s1.23-2 2.42-1.86l9.71 1.17c1.18.14 2.02 1.21 1.87 2.38-.12.9-.79 1.6-1.63 1.81"/><path clip-path="url(#a)" d="m7.31 30.05c-1.03.26-2.12-.27-2.52-1.28-.44-1.09.11-2.33 1.22-2.77l9.11-3.61c1.1-.44 2.36.09 2.8 1.18s-.11 2.34-1.22 2.78l-9.11 3.61c-.09.04-.18.07-.28.09"/><path clip-path="url(#a)" d="m24.3 23.64c-.56.14-1.16.06-1.68-.26l-8.25-5.16c-1.01-.63-1.3-1.95-.66-2.95.65-1 1.98-1.29 2.98-.67l8.25 5.16c1.01.63 1.3 1.95.66 2.94-.31.49-.78.81-1.3.94"/></svg>