<?xml version="1.0" encoding="utf-8"?>
<!-- Generator: Adobe Illustrator 27.2.0, SVG Export Plug-In . SVG Version: 6.00 Build 0)  -->
<svg version="1.1" id="Ebene_1" xmlns="http://www.w3.org/2000/svg" xmlns:xlink="http://www.w3.org/1999/xlink" x="0px" y="0px"
	 viewBox="0 0 156.05 114.63" style="enable-background:new 0 0 156.05 114.63;" xml:space="preserve">
<style type="text/css">
	.st0{fill:#FFFFFF;}
	.st1{fill:#238C96;}
</style>
<g>
	<path d="M7.03,18.29h-6.5v-18h6.41c5.47,0,7.7,2.54,7.7,8.9C14.64,15.79,12.1,18.29,7.03,18.29z M6.96,4.44H5.21v9.74h1.75
		c2.06,0,2.76-0.62,2.76-5.04C9.72,5.16,9.07,4.44,6.96,4.44z"/>
	<path d="M16.8,0.29h4.82v18H16.8V0.29z"/>
	<path d="M35.95,14.23l-0.1,4.06H24.26v-18h11.28l0.1,4.13h-6.7V7.2h5.52v3.77h-5.52v3.26H35.95z"/>
	<path d="M49.32,12.7h-1.49v5.59h-4.68v-18h6.17c4.99,0,6.98,1.94,6.98,6.34C56.3,10.51,54.36,12.7,49.32,12.7z M49.32,4.2h-1.49
		v4.78h1.49c1.54,0,2.11-0.36,2.11-2.38C51.43,4.66,50.98,4.2,49.32,4.2z"/>
	<path d="M65.93,15.15h-4.9l-0.7,3.14h-4.97l5.33-18h5.74l5.42,18h-5.23L65.93,15.15z M63.07,6.07l-1.15,5.16h3.14l-1.15-5.16
		l-0.36-1.92h-0.07L63.07,6.07z"/>
	<path d="M77.81,18.6c-1.9,0-3.77-0.43-5.23-1.25l0.6-3.98c1.46,0.74,2.95,1.2,4.51,1.2c1.49,0,2.06-0.5,2.06-1.46
		c0-2.3-7.15-1.58-7.15-7.46C72.6,2.5,74.52,0,78.96,0c1.66,0,3.43,0.31,4.73,0.86l-0.53,3.91c-1.37-0.41-2.74-0.65-3.89-0.65
		c-1.78,0-2.16,0.53-2.16,1.3c0,2.33,7.15,1.54,7.15,7.42C84.26,16.39,81.86,18.6,77.81,18.6z"/>
	<path d="M90.34,18.6c-1.9,0-3.77-0.43-5.23-1.25l0.6-3.98c1.46,0.74,2.95,1.2,4.51,1.2c1.49,0,2.06-0.5,2.06-1.46
		c0-2.3-7.15-1.58-7.15-7.46C85.13,2.5,87.05,0,91.49,0c1.66,0,3.43,0.31,4.73,0.86l-0.53,3.91c-1.37-0.41-2.74-0.65-3.89-0.65
		c-1.78,0-2.16,0.53-2.16,1.3c0,2.33,7.15,1.54,7.15,7.42C96.79,16.39,94.39,18.6,90.34,18.6z"/>
	<path d="M110.16,14.23l-0.1,4.06H98.47v-18h11.28l0.1,4.13h-6.7V7.2h5.52v3.77h-5.52v3.26H110.16z"/>
	<path d="M122.5,18.29l-5.38-8.3l-1.01-1.66l-0.05,0.02l0.02,1.94v7.99h-4.13v-18h3.94l5.78,9.34l0.05-0.02l-0.05-1.92l0.02-7.39
		h4.13v18H122.5z"/>
	<path d="M134.78,18.29h-6.5v-18h6.41c5.47,0,7.7,2.54,7.7,8.9C142.39,15.79,139.85,18.29,134.78,18.29z M134.71,4.44h-1.75v9.74
		h1.75c2.06,0,2.76-0.62,2.76-5.04C137.47,5.16,136.82,4.44,134.71,4.44z"/>
	<path d="M156.05,14.23l-0.1,4.06h-11.59v-18h11.28l0.1,4.13h-6.7V7.2h5.52v3.77h-5.52v3.26H156.05z"/>
	<path d="M12.22,38.23l-0.1,4.06H0.53v-18h11.28l0.1,4.13h-6.7v2.78h5.52v3.77H5.21v3.26H12.22z"/>
	<path d="M24.6,34.92l3.5,7.37h-5.42l-2.4-6.43H18.7v6.43h-4.68v-18h6.22c4.56,0,6.82,1.73,6.82,5.78
		C27.05,32.47,26.18,34.25,24.6,34.92z M20.33,28.18H18.7v4.15h1.61c1.37,0,1.85-0.34,1.85-2.09C22.15,28.61,21.7,28.18,20.33,28.18
		z"/>
	<path d="M41.64,41.64c-1.25,0.6-3.29,0.98-5.14,0.98c-5.95,0-8.06-3.19-8.06-9.34c0-6.29,2.47-9.31,8.28-9.31
		c1.58,0,3.38,0.29,4.68,0.79l-0.43,4.01c-1.18-0.43-2.69-0.7-3.98-0.7c-2.95,0-3.62,1.1-3.62,5.16c0,4.27,0.7,5.21,3.02,5.21
		c0.36,0,0.74-0.02,1.08-0.1v-5.88h4.18V41.64z"/>
	<path d="M53.06,39.15h-4.9l-0.7,3.14H42.5l5.33-18h5.74l5.42,18h-5.23L53.06,39.15z M48.38,23.42c-1.18,0-1.78-0.46-1.78-1.61
		c0-1.08,0.6-1.66,1.78-1.66c1.22,0,1.78,0.58,1.78,1.66C50.16,22.87,49.61,23.42,48.38,23.42z M50.21,30.07l-1.15,5.16h3.14
		l-1.15-5.16l-0.36-1.92h-0.07L50.21,30.07z M52.97,23.42c-1.18,0-1.78-0.46-1.78-1.61c0-1.08,0.6-1.66,1.78-1.66
		c1.22,0,1.78,0.58,1.78,1.66C54.74,22.87,54.19,23.42,52.97,23.42z"/>
	<path d="M70.73,42.29l-5.38-8.3l-1.01-1.66l-0.05,0.02l0.02,1.94v7.99h-4.13v-18h3.94l5.78,9.34l0.05-0.02l-0.05-1.92l0.02-7.39
		h4.13v18H70.73z"/>
	<path d="M75.86,42.29v-3.05l5.74-9.12l1.06-1.58l-0.02-0.05h-6.62l0.12-4.2h12.03v3.36l-5.54,8.83l-1.06,1.56l0.02,0.07h6.62
		l-0.07,4.18H75.86z"/>
	<path d="M103.49,36.17c0,4.22-2.26,6.43-6.86,6.43s-6.94-2.21-6.94-6.43V24.29h4.7v11.79c0,1.61,0.62,2.33,2.23,2.33
		c1.63,0,2.18-0.67,2.18-2.33V24.29h4.68V36.17z"/>
	<path d="M116.3,42.29l-5.38-8.3l-1.01-1.66l-0.05,0.02l0.02,1.94v7.99h-4.13v-18h3.94l5.78,9.34l0.05-0.02l-0.05-1.92l0.02-7.39
		h4.13v18H116.3z"/>
	<path d="M134.81,41.64c-1.25,0.6-3.29,0.98-5.14,0.98c-5.95,0-8.06-3.19-8.06-9.34c0-6.29,2.47-9.31,8.28-9.31
		c1.58,0,3.38,0.29,4.68,0.79l-0.43,4.01c-1.18-0.43-2.69-0.7-3.98-0.7c-2.95,0-3.62,1.1-3.62,5.16c0,4.27,0.7,5.21,3.02,5.21
		c0.36,0,0.74-0.02,1.08-0.1v-5.88h4.18V41.64z"/>
	<path d="M5.23,52.49v3.17h5.5l-0.02,3.98H5.23v6.65h-4.7v-18h11.26l0.07,4.2H5.23z"/>
	<path d="M27.07,60.17c0,4.22-2.26,6.43-6.86,6.43s-6.94-2.21-6.94-6.43V48.29h4.7v11.79c0,1.61,0.62,2.33,2.23,2.33
		c1.63,0,2.18-0.67,2.18-2.33V48.29h4.68V60.17z M17.93,47.42c-1.18,0-1.78-0.46-1.78-1.61c0-1.08,0.6-1.66,1.78-1.66
		c1.22,0,1.78,0.58,1.78,1.66C19.7,46.87,19.15,47.42,17.93,47.42z M22.51,47.42c-1.18,0-1.78-0.46-1.78-1.61
		c0-1.08,0.6-1.66,1.78-1.66c1.22,0,1.78,0.58,1.78,1.66C24.29,46.87,23.74,47.42,22.51,47.42z"/>
	<path d="M39.94,58.92l3.5,7.37h-5.42l-2.4-6.43h-1.58v6.43h-4.68v-18h6.22c4.56,0,6.82,1.73,6.82,5.78
		C42.38,56.47,41.52,58.25,39.94,58.92z M35.66,52.18h-1.63v4.15h1.61c1.37,0,1.85-0.34,1.85-2.09
		C37.49,52.61,37.03,52.18,35.66,52.18z"/>
	<path d="M50.21,48.29h4.82v18h-4.82V48.29z"/>
	<path d="M66.72,66.29v-7.06h-4.37v7.06h-4.68v-18h4.68v6.74h4.37v-6.74h4.7v18H66.72z"/>
	<path d="M84.43,58.92l3.5,7.37h-5.42l-2.4-6.43h-1.58v6.43h-4.68v-18h6.22c4.56,0,6.82,1.73,6.82,5.78
		C86.88,56.47,86.02,58.25,84.43,58.92z M80.16,52.18h-1.63v4.15h1.61c1.37,0,1.85-0.34,1.85-2.09
		C81.98,52.61,81.53,52.18,80.16,52.18z"/>
	<path d="M100.8,62.23l-0.1,4.06H89.11v-18h11.28l0.1,4.13h-6.7v2.78h5.52v3.77h-5.52v3.26H100.8z"/>
	<path d="M113.14,66.29l-5.38-8.3l-1.01-1.66l-0.05,0.02l0.02,1.94v7.99h-4.13v-18h3.94l5.78,9.34l0.05-0.02l-0.05-1.92l0.02-7.39
		h4.13v18H113.14z"/>
	<path d="M0.72,72.29h4.82v18H0.72V72.29z"/>
	<path d="M18.72,90.29l-5.38-8.3l-1.01-1.66l-0.05,0.02l0.02,1.94v7.99H8.18v-18h3.94l5.78,9.34l0.05-0.02l-0.05-1.92l0.02-7.39
		h4.13v18H18.72z"/>
	<path d="M31.01,90.29h-6.5v-18h6.41c5.47,0,7.7,2.54,7.7,8.9C38.62,87.79,36.07,90.29,31.01,90.29z M30.94,76.44h-1.75v9.74h1.75
		c2.06,0,2.76-0.62,2.76-5.04C33.7,77.16,33.05,76.44,30.94,76.44z"/>
	<path d="M54.22,84.17c0,4.22-2.26,6.43-6.86,6.43s-6.94-2.21-6.94-6.43V72.29h4.7v11.79c0,1.61,0.62,2.33,2.23,2.33
		c1.63,0,2.18-0.67,2.18-2.33V72.29h4.68V84.17z"/>
	<path d="M61.03,90.6c-1.9,0-3.77-0.43-5.23-1.25l0.6-3.98c1.46,0.74,2.95,1.2,4.51,1.2c1.49,0,2.06-0.5,2.06-1.46
		c0-2.3-7.15-1.58-7.15-7.46c0-3.14,1.92-5.64,6.36-5.64c1.66,0,3.43,0.31,4.73,0.86l-0.53,3.91c-1.37-0.41-2.74-0.65-3.89-0.65
		c-1.78,0-2.16,0.53-2.16,1.3c0,2.33,7.15,1.54,7.15,7.42C67.49,88.39,65.09,90.6,61.03,90.6z"/>
	<path d="M76.63,76.49v13.8h-4.78v-13.8h-4.08l0.1-4.2h12.75l0.1,4.2H76.63z"/>
	<path d="M92.74,82.92l3.5,7.37h-5.42l-2.4-6.43h-1.58v6.43h-4.68v-18h6.22c4.56,0,6.82,1.73,6.82,5.78
		C95.18,80.47,94.32,82.25,92.74,82.92z M88.46,76.18h-1.63v4.15h1.61c1.37,0,1.85-0.34,1.85-2.09
		C90.29,76.61,89.83,76.18,88.46,76.18z"/>
	<path d="M97.61,72.29h4.82v18h-4.82V72.29z"/>
	<path d="M116.76,86.23l-0.1,4.06h-11.59v-18h11.28l0.1,4.13h-6.7v2.78h5.52v3.77h-5.52v3.26H116.76z"/>
	<path d="M124.56,80.5v3.12h-6.7V80.5H124.56z"/>
	<path d="M5.23,114.6c-1.9,0-3.77-0.43-5.23-1.25l0.6-3.98c1.46,0.74,2.95,1.2,4.51,1.2c1.49,0,2.06-0.5,2.06-1.46
		c0-2.3-7.15-1.58-7.15-7.46C0.02,98.5,1.94,96,6.38,96c1.66,0,3.43,0.31,4.73,0.86l-0.53,3.91c-1.37-0.41-2.74-0.65-3.89-0.65
		c-1.78,0-2.16,0.53-2.16,1.3c0,2.33,7.15,1.54,7.15,7.42C11.69,112.39,9.29,114.6,5.23,114.6z"/>
	<path d="M22.2,111.15h-4.9l-0.7,3.14h-4.97l5.33-18h5.74l5.42,18H22.9L22.2,111.15z M19.34,102.07l-1.15,5.16h3.14l-1.15-5.16
		l-0.36-1.92h-0.07L19.34,102.07z"/>
	<path d="M42.22,108.17c0,4.22-2.26,6.43-6.86,6.43s-6.94-2.21-6.94-6.43V96.29h4.7v11.79c0,1.61,0.62,2.33,2.23,2.33
		c1.63,0,2.18-0.67,2.18-2.33V96.29h4.68V108.17z"/>
	<path d="M57.22,113.64c-1.25,0.6-3.29,0.98-5.14,0.98c-5.95,0-8.06-3.19-8.06-9.34c0-6.29,2.47-9.31,8.28-9.31
		c1.58,0,3.38,0.29,4.68,0.79l-0.43,4.01c-1.18-0.43-2.69-0.7-3.98-0.7c-2.95,0-3.62,1.1-3.62,5.16c0,4.27,0.7,5.21,3.02,5.21
		c0.36,0,0.74-0.02,1.08-0.1v-5.88h4.18V113.64z"/>
	<path d="M71.04,110.23l-0.1,4.06H59.35v-18h11.28l0.1,4.13h-6.7v2.78h5.52v3.77h-5.52v3.26H71.04z"/>
	<path d="M83.42,106.92l3.5,7.37H81.5l-2.4-6.43h-1.58v6.43h-4.68v-18h6.22c4.56,0,6.82,1.73,6.82,5.78
		C85.87,104.47,85.01,106.25,83.42,106.92z M79.15,100.18h-1.63v4.15h1.61c1.37,0,1.85-0.34,1.85-2.09
		C80.98,100.61,80.52,100.18,79.15,100.18z"/>
	<path d="M90.02,114.58c-1.68,0-2.42-0.65-2.42-2.28c0-1.46,0.74-2.3,2.42-2.3c1.68,0,2.4,0.84,2.4,2.3
		C92.42,113.67,91.7,114.58,90.02,114.58z"/>
</g>
</svg>
