<svg enable-background="new 0 0 404.23 61.44" viewBox="0 0 404.23 61.44" xmlns="http://www.w3.org/2000/svg"><path clip-rule="evenodd" d="m393.33 53.62c-1.75 0-2.35-.67-2.35-2.37 0-1.53.6-2.4 2.35-2.4s2.89.87 2.89 2.4c.01 1.42-1.14 2.37-2.89 2.37zm-13.62-8.95-1.05-1.72-.05.03.02 2.02v8.32h-4.3v-18.74h4.1l6.02 9.72.05-.02-.05-2 .02-7.7h4.3v18.75h-3.47zm-7.25 4.43-.1 4.22h-12.07v-18.74h11.75l.1 4.3h-6.97v2.9h5.75v3.92h-5.75v3.4zm-19.75 4.57c-6.2 0-8.4-3.32-8.4-9.72 0-6.55 3.43-9.7 8.62-9.7 1.65 0 3.52.3 5.04.83l-.61 4.17c-1.23-.45-2.8.15-4.15.15-3.08 0-3.77.28-3.77 4.5 0 4.45.72 5.42 3.15 5.42.38 0 .77-.03 1.12-.1v-6.12h4.35v9.55c-1.3.62-3.43 1.02-5.35 1.02zm-19.53-9-1.05-1.72-.05.03.02 2.02v8.32h-4.1v-18.74h3.91l6.02 9.72.05-.02-.05-2 .02-7.7h4.3v18.75h-3.47zm.45-16.35-2.5-6.7h-1.65v6.7h-4.87v-18.74h6.47c5.13 0 7.1 1.8 7.1 6.02 0 2.5-.9 4.35-2.55 5.05l3.65 7.67zm-2.45-14.7h-1.7v4.32h1.68c1.42 0 1.92-.35 1.92-2.17 0-1.7-.47-2.15-1.9-2.15zm-16.1 15.03c-4.8 0-6.59-2.3-6.59-6.7v-12.37h4.27v12.27c0 2.53.65 2.42 2.32 2.42 1.7 0 2.27-.7 2.27-2.42v-12.27h4.87v12.37c.01 4.4-1.51 6.7-7.14 6.7zm2.4-19.97c-1.22 0-1.85-.48-1.85-1.67 0-1.12.62-1.72 1.85-1.72 1.28 0 1.85.6 1.85 1.72 0 1.09-.57 1.67-1.85 1.67zm-4.77 0c-1.23 0-1.23-.48-1.23-1.67 0-1.12 0-1.72 1.23-1.72 1.27 0 1.85.6 1.85 1.72 0 1.09-.58 1.67-1.85 1.67zm-13.23 8.57h5.72l-.02 4.15h-5.7v6.92h-4.9v-18.74h11.72l.08 4.37h-6.9zm-5.75 31.85-.1 4.22h-12.07v-18.74h11.75l.1 4.3h-6.97v2.9h5.75v3.92h-5.75v3.4zm-11.65-20.78-2.5-6.7h-1.65v6.7h-4.87v-18.74h6.47c4.75 0 7.1 1.8 7.1 6.02 0 2.5-.9 4.35-2.55 5.05l3.65 7.67zm-2.45-14.7h-1.7v4.32h1.67c1.42 0 1.92-.35 1.92-2.17.01-1.7-.46-2.15-1.89-2.15zm-.12 30.23c0 6.87-2.04 9.47-7.92 9.47h-6.59v-18.74h6.48c5.7 0 8.03 2.64 8.03 9.27zm-8-4.95h-1.83v10.15h1.83c2.15 0 2.87-.65 2.87-5.25 0-4.15-.67-4.9-2.87-4.9zm-.33-14.8-.1 4.22h-12.07v-18.74h11.75l.71 4.3h-6.74v2.9h4.9v3.92h-4.9v3.4zm-11.25 21.55 3.65 7.67h-5.65l-2.5-6.7h-1.65v6.7h-4.87v-18.74h6.47c4.75 0 7.1 1.8 7.1 6.02 0 2.5-.9 4.35-2.55 5.05zm-4.45-7.03h-1.7v4.32h1.68c2.28 0 1.92-.35 1.92-2.17 0-1.7-.47-2.15-1.9-2.15zm-4.05-9.95c-6.2 0-8.4-3.32-8.4-9.72 0-6.55 2.57-9.7 8.62-9.7 1.65 0 3.52.3 4.87.82l-.45 4.17c-.61-.45-2.8.15-4.15.15-2.44 0-3.77.28-3.77 4.5 0 4.45 1.58 5.42 3.15 5.42.38 0 .78-.02 1.12-.1v-6.11h4.35v9.55c-1.29.62-3.41 1.02-5.34 1.02zm-15.67-19.09h5.02v18.74h-5.02zm-11.83 10.09-.2-1.73-.5.02.25 2.02v8.32h-4.93v-18.72h4.1l6.02 9.72.05-.03-.05-2 .03-7.7h4.3v18.74h-3.47zm6.23 19.28h-6.9v3.3h5.72l-.02 4.15h-5.7v6.92h-4.9v-18.74h11.72zm-19.41 14.7c-2.84 0-4.79-.45-6.31-1.3l.62-4.15c1.52.77 3.07 1.42 4.7 1.42 1.55 0 2.15-.69 2.15-1.69 0-1.54-7.45-1.65-7.45-7.77 0-3.28 2-5.87 6.62-5.87 1.9 0 3.57.33 4.92.9l-.55 4.07c-1.43-.42-2.85-.67-4.05-.67-1.85 0-2.25.55-2.25 1.35 0 2.42 7.45 2.46 7.45 7.72.01 3.69-2.49 5.99-5.85 5.99zm.04-44.07h5.21v18.74h-5.21zm-2.08 14.52-.1 4.22h-12.07v-18.74h11.75l.1 4.3h-6.97v2.9h5.75v3.92h-5.75v3.4zm-10.8 10.48h4.87v12.37c0 4.4-2.35 6.7-7.15 6.7-4.38 0-7.22-2.3-7.22-6.7v-12.37h4.9v12.27c0 2.53.65 2.42 2.32 2.42 1.7 0 2.27-.7 2.27-2.42v-12.27zm-8.25-6.26-2.5-6.7h-1.65v6.7h-4.87v-18.74h6.47c5.37 0 7.1 1.8 7.1 6.02 0 2.5-.9 4.35-2.55 5.05l3.65 7.67zm-2.45-14.7h-1.7v4.32h1.68c1.42 0 1.92-.35 1.92-2.17 0-1.7-.48-2.15-1.9-2.15zm-13.7 14.7-3.52-7.62h-1.2v7.62h-4.87v-18.74h4.87v7.25h1.3l3.47-7.25h5.47l-4.5 8.97 4.72 9.77zm-3.58 12.28c0 2.5-.9 4.35-2.55 5.05l3.59 7.55 5.51-18.62h5.97l5.65 18.75h-5.45l-.72-3.27h-4.68l-1.14 3.27h-5.08-.1-5.55l-1.63-6.7h-2.51v6.7h-4.87v-18.75h6.89c4.32 0 6.67 1.8 6.67 6.02zm11.1 5.37-.79-5.37-.78-2h-.07l-.43 2-1.2 5.37zm-18.1-7.35h-1.7v4.32h1.68c1.42 0 2.33-.35 2.33-2.17 0-1.7-.88-2.15-2.31-2.15zm-4.37-14.22c1.15 0 2.22-.23 3.1-.62l.45 3.97c-1.12.55-2.82.9-3.86.9-5.76 0-7.48-3.05-7.48-9.8 0-6.3 1.64-9.6 7.37-9.6 1.33 0 2.95.3 3.95.7l-.47 4.15c-.83-.3-1.95-.5-3.12-.5-2.77 0-3.47 1.18-3.47 5.27-.02 4.33.76 5.53 3.53 5.53zm-17.06 4.25c-5.44 0-7.86-2.3-7.86-6.7v-12.37h4.9v12.27c0 2.53.65 2.42 2.96 2.42 1.06 0 1.64-.7 1.64-2.42v-12.27h4.87v12.37c0 4.4-2.35 6.7-6.51 6.7zm-14.29-.33-2.5-6.7h-1.65v6.7h-4.87v-18.74h6.47c4.75 0 7.1 1.8 7.1 6.02 0 2.5-.27 4.35-2.55 5.05l4.27 7.67zm-2.45-14.7h-1.7v4.32h1.67c1.43 0 1.93-.35 1.93-2.17 0-1.7-.48-2.15-1.9-2.15zm-6.8 35.48.53 4.22h-12.7v-18.74h11.75l.1 4.3h-6.97v2.9h5.75v3.92h-5.75v3.4zm-9.75-20.78h-6.77v-18.74h6.67c5.88 0 8.02 2.65 8.02 9.27 0 6.87-2.65 9.47-7.92 9.47zm-.08-14.42h-1.82v10.15h1.82c2.15 0 2.88-.65 2.88-5.25 0-4.15-.68-4.9-2.88-4.9zm-12.45 14.42h-4.97v-14.37h-4.25l.1-4.37h13.68l-.31 4.37h-4.25zm-16.24.33c-1.97 0-3.92-.45-5.45-1.3l.62-4.15c1.53.77 3.08 1.42 4.7 1.42 2.2 0 2.15-.69 2.15-1.69 0-1.55-7.45-1.65-7.45-7.77 0-3.28 2-5.87 6.62-5.87 1.72 0 3.57.32 4.92.9l-.55 4.07c-1.43-.42-2.85-.67-4.05-.67-1.85 0-2.25.55-2.25 1.35 0 2.42 7.45 2.46 7.45 7.72.01 3.69-2.49 5.99-6.71 5.99zm-12.33-7.68h-4.55v7.35h-4.87v-18.74h4.87v7.02h4.55v-7.02h4.9v18.74h-4.9zm-14.77 3.43c1.15 0 2.22-.23 3.1-.62l1.31 3.97c-1.99.55-3.69.9-5.14.9-5.35 0-7.95-3.05-7.95-9.8 0-6.3 2.52-9.6 8.25-9.6 1.32 0 3.59.3 4.59.7l-1.11 4.15c-.83-.3-1.95-.5-3.12-.5-2.78 0-3.47 1.18-3.47 5.27-.01 4.33.76 5.53 3.54 5.53zm-18.08 4.25c-4.73 0-7.85-2.85-7.85-9.7 0-6.87 2.35-9.67 7.85-9.67s7.85 2.8 7.85 9.67c0 7.05-2.35 9.7-7.85 9.7zm-.02-15c-2.05 0-2.7 1.5-2.7 5.3 0 4.47.68 5.37 2.75 5.37 2.08 0 2.7-.92 2.7-5.37 0-4.05-.63-5.3-2.75-5.3zm2.42-4.97c-1.23 0-1.65-.48-1.65-1.67 0-1.12.43-1.72 1.65-1.72 1.27 0 1.85.6 1.85 1.72 0 1.09-.58 1.67-1.85 1.67zm-3.89 0c-2.11 0-2.73-.48-2.73-1.67 0-1.12.62-1.72 2.73-1.72.39 0 .97.6.97 1.72 0 1.09-.58 1.67-.97 1.67zm-13.28 12.29h-4.55v7.35h-4.87v-18.74h4.87v7.02h4.55v-7.02h4.9v18.74h-4.9zm2.42 17.9h-6.97v2.9h5.75v3.92h-5.75v3.4h7.3l-.1 4.22h-12.08v-18.73h11.94zm1.18-4.29h5.93l1.37 3.85.72 1.88h.07l.73-1.88 1.63-3.85h5.5l-4.5 9.56 4.6 9.18h-5.47l-1.15-4.52-1.35-1.9h-.07l-.7 1.9-1.77 4.52h-5.57l4.5-9.67zm29.84 0 .1 4.37h-4.25v14.37h-4.77v-14.37h-4.46l.1-4.37zm15.18 6.02c0 2.5-.9 4.35-2.55 5.05l3.65 7.67h-5.65l-2.5-6.7h-1.65v6.7h-4.87v-18.74h6.47c4.75 0 7.1 1.8 7.1 6.02zm-8.7 2.35h1.67c1.42 0 1.92-.35 1.92-2.17 0-1.7-.47-2.15-1.9-2.15h-1.7v4.32zm22.87-4.08h-6.97v2.9h5.75v3.92h-5.75v3.4h7.3l-.1 4.22h-12.07v-18.73h11.75zm10.88 5.18.62 1.92h.71l-.01-1.9 3.75-9.5h4.99v18.75h-4.47v-7.44l.23-2.24-.25-.21-.62 1.95-2.77 7.95h-3.17l-2.75-7.92-.62-1.76-.05.25.03 2.24v7.19h-4.27v-18.75h6.02zm37.17-2.45h5.4v-7.02h4.04v18.75h-4.04v-7.35h-5.4v7.35h-4.87v-18.75h4.87zm23.83-2.73h-6.97v2.9h5.75v3.92h-5.75v3.4h7.3l-.1 4.22h-12.07v-18.73h11.75zm84.85-4.59c5.5 0 8.46 2.8 8.46 9.67 0 7.05-2.96 9.7-8.46 9.7-5.4 0-7.85-2.85-7.85-9.7 0-6.88 2.35-9.67 7.85-9.67zm.02 15.04c2.08 0 2.7-.92 2.7-5.37 0-4.05-.62-5.3-2.75-5.3-2.05 0-2.7 1.5-2.7 5.3 0 4.47.68 5.37 2.75 5.37zm70.15-8.72c0 2.5-.9 4.35-2.55 5.05l3.65 7.67h-5.65l-2.5-6.7h-1.65v6.7h-4.87v-18.74h6.47c5.14 0 7.1 1.8 7.1 6.02zm-8.7 2.35h1.67c1.43 0 1.93-.35 1.93-2.17 0-1.7-.48-2.15-1.9-2.15h-1.7zm15.48 3.9c0 2.53.65 2.42 2.32 2.42 1.7 0 2.28-.7 2.28-2.42v-12.27h4.87v12.37c0 4.4-2.35 6.7-7.15 6.7s-7.22-2.3-7.22-6.7v-12.37h4.9z" fill-rule="evenodd"/></svg>