<svg enable-background="new 0 0 321.79 47.95" viewBox="0 0 321.79 47.95" xmlns="http://www.w3.org/2000/svg"><path clip-rule="evenodd" d="m303.61 30.53-.87-16.31h6.11l-.84 16.31zm-8.43 6.94-3.79-8.31h-2.05v8.31h-6.05v-23.25h8.03c5.89 0 8.81 2.23 8.81 7.47 0 3.1-1.12 5.4-3.16 6.26l5.27 9.52zm-3.39-18.23h-2.44v5.6h2.67c1.17 0 1.79-.67 1.79-2.93 0-2.11-.59-2.67-2.02-2.67zm-10.81 12.99-.12 5.24h-14.98v-23.25h14.87l-.17 5.33h-8.65v3.6h7.13v4.87h-7.13v4.22h9.05zm-29.11 5.24-2.17-14.11-.31-2.51h-.09l-.34 2.51-2.14 14.11h-7.26l-4.87-23.25h6.33l2.05 14.67.31 2.48h.53l-.1-2.48 2.42-14.67h6.45l2.45 14.54 1.08 2.48h-.62l.28-2.48 2.08-14.54h6.05l-4.87 23.25zm-27.53.41c-6.7 0-9.74-3.54-9.74-12.03 0-8.53 2.91-12 9.74-12 6.82 0 9.74 3.47 9.74 12 0 8.83-2.92 12.03-9.74 12.03zm-.03-18.61c-2.54 0-3.35 1.05-3.35 6.57 0 5.55.84 6.67 3.41 6.67s3.35-1.15 3.35-6.67c0-5.54-.77-6.57-3.41-6.57zm-20.3 10.98h-1.92v7.22h-6.05v-23.25h7.97c6.77 0 9.02 2.51 9.02 8.19 0 5.02-1.63 7.84-9.02 7.84zm0-10.98h-1.92v6.17h1.92c1.98 0 2.73-.47 2.73-3.07-.01-2.51-.6-3.1-2.73-3.1zm-17.27 12.96-.12 5.24h-14.98v-23.25h14.57l.12 5.33h-8.65v3.6h7.13v4.87h-7.13v4.22h9.06zm-24.15-3.87h-5.8v9.11h-6.05v-23.25h6.05v8.71h5.8v-8.71h6.77v23.25h-6.77zm-18.97 9.11h-5.9v-17.24h-5.54l.12-6.01h16.46l.12 6.01h-5.27v17.24zm-24.24 0h-6.17v-17.24h-5.27l.12-6.01h16.47l.12 6.01h-5.27zm-21.76.41c-6.7 0-9.74-3.54-9.74-12.03 0-8.53 2.91-12 9.74-12 6.98 0 9.74 3.47 9.74 12-.01 8.83-2.76 12.03-9.74 12.03zm-.04-18.61c-2.54 0-3.35 1.05-3.35 6.57 0 5.55.84 6.67 3.41 6.67s3.35-1.15 3.35-6.67c0-5.54-.77-6.57-3.41-6.57zm-18.47 18.64c-7.59 0-10.42-4.12-10.42-12.06 0-8.12 3.19-12.03 10.7-12.03 2.19 0 4.37.37 6.18 1.02l-.69 5.18c-1.52-.56-3.47-.9-5.15-.9-3.81 0-4.68 1.43-4.68 6.67 0 5.52.9 6.73 3.91 6.73.46 0 .96-.03 1.39-.12v-7.6h5.39v12.35c-1.61.26-3.54.76-6.63.76zm-19.1-5.68-.12 5.24h-14.98v-23.25h15.19l-.49 5.33h-8.65v3.6h7.13v4.87h-7.13v4.22h9.05zm-29.1 5.24-2.17-14.11.28-2.51h-.69l-.34 2.51-2.14 14.11h-7.25l-4.87-23.25h6.32l2.05 14.67.31 2.48h.85l-.41-2.48 2.42-14.67h6.45l2.45 14.54.37 2.48h.09l.28-2.48 2.08-14.54h6.05l-4.87 23.25zm274.99-5.02c2.11 0 3.04 1.02 3.04 2.73 0 1.58-.93 2.67-3.04 2.67-2.08 0-3.01-.78-3.01-2.67 0-1.7.93-2.73 3.01-2.73z" fill-rule="evenodd"/></svg>