<?xml version="1.0" encoding="utf-8"?>
<!-- Generator: Adobe Illustrator 23.1.1, SVG Export Plug-In . SVG Version: 6.00 Build 0)  -->
<svg version="1.1" id="Ebene_1" xmlns="http://www.w3.org/2000/svg" xmlns:xlink="http://www.w3.org/1999/xlink" x="0px" y="0px"
	 viewBox="0 0 425.2 425.2" style="enable-background:new 0 0 425.2 425.2;" xml:space="preserve">
<style type="text/css">
	.st0{fill-rule:evenodd;clip-rule:evenodd;fill:#020204;}
</style>
<path class="st0" d="M375.01,211.49v27.1c-3.69,1.77-9.72,2.91-15.19,2.91c-17.6,0-23.85-9.44-23.85-27.6
	c0-18.59,7.31-27.52,24.48-27.52c4.69,0,10.01,0.85,13.84,2.34l-1.28,11.84c-3.48-1.28-7.95-2.06-11.78-2.06
	c-8.73,0-10.72,3.26-10.72,15.25c0,12.63,2.06,15.39,8.94,15.39c1.06,0,2.2-0.07,3.19-0.28v-17.38H375.01z M304.39,215.96l-2.98-4.9
	l-0.14,0.07l0.07,5.75v23.62h-12.21v-53.2h11.64l17.11,27.6l0.14-0.07l-0.14-5.68l0.07-21.85h12.21v53.2h-9.87L304.39,215.96z
	 M262.08,241.43c-13.63,0-20.51-6.53-20.51-19.01V187.3h13.91v34.83c0,4.75,1.84,6.88,6.6,6.88c4.82,0,6.46-1.99,6.46-6.88V187.3
	h13.84v35.11C282.38,234.9,275.71,241.43,262.08,241.43z M225.88,124.15h19.8v9.22h-19.8V124.15z M233.75,200.56
	c-3.48-1.28-7.95-2.06-11.78-2.06c-8.73,0-10.72,3.26-10.72,15.25c0,12.63,2.06,15.39,8.94,15.39c1.06,0,2.2-0.07,3.19-0.28v-17.38
	h12.35v27.1c-3.69,1.77-9.72,2.91-15.19,2.91c-17.6,0-23.85-9.44-23.85-27.6c0-18.59,7.31-27.52,24.48-27.52
	c4.69,0,10.01,0.85,13.84,2.34L233.75,200.56z M193.87,130.82l-2.98-4.9l-0.14,0.07l0.07,5.75v23.62h-12.21v-53.2h11.64l17.1,27.6
	l0.14-0.07l-0.14-5.68l0.07-21.85h12.21v53.2h-9.87L193.87,130.82z M194.15,39.01h19.8v9.22h-19.8V39.01z M194.78,70.23h-16.32
	l-10.01-21.64h-3.41v21.64h-13.84v-53.2h13.84v20.57h3.69l9.87-20.57h15.54l-12.77,25.47L194.78,70.23z M118.2,45.68l-2.98-4.9
	l-0.14,0.07l0.07,5.75v23.62h-12.21v-53.2h11.64l17.1,27.6l0.14-0.07l-0.14-5.68l0.07-21.85h12.21v53.2h-9.87L118.2,45.68z
	 M119.33,129.68l-0.14-5.68l0.07-21.85h12.21v53.2h-9.87l-15.9-24.54l-2.98-4.9l-0.14,0.07l0.07,5.75v23.62H90.44v-53.2h11.64
	l17.1,27.6L119.33,129.68z M81.86,60.93H67.37l-2.06,9.29H50.62l15.76-53.2h16.96l16.04,53.2H83.91L81.86,60.93z M75.89,34.12
	l-1.06-5.68h-0.21l-1.21,5.68L70,49.37h9.3L75.89,34.12z M42.74,70.23H28.62V29.43H16.55l0.28-12.41h37.68l0.28,12.41H42.74V70.23z
	 M34.37,102.16v53.2H20.1v-53.2H34.37z M58.07,204.39c0,7.09-2.55,12.35-7.24,14.33l10.36,21.78H45.16l-7.1-19.01h-4.69v19.01H19.53
	v-53.2h18.38C51.4,187.3,58.07,192.41,58.07,204.39z M33.37,211.06h4.76c4.04,0,5.46-0.99,5.46-6.17c0-4.82-1.35-6.1-5.39-6.1h-4.83
	V211.06z M70.99,102.16H83.2v53.2h-9.87l-15.9-24.54l-2.98-4.9L54.31,126l0.07,5.75v23.62H42.18v-53.2h11.64l17.11,27.6l0.14-0.07
	l-0.14-5.68L70.99,102.16z M98.32,199.5h-19.8v8.23h16.33v11.14H78.52v9.65h20.72l-0.28,11.99H64.68v-53.2h33.36L98.32,199.5z
	 M119.4,240.5h-14.26v-53.2h14.26V240.5z M155.96,214.89l0.14-0.07l-0.14-5.68l0.07-21.85h12.21v53.2h-9.87l-15.9-24.54l-2.98-4.9
	l-0.14,0.07l0.07,5.75v23.62h-12.21v-53.2h11.64L155.96,214.89z M138.71,102.16h33.36l0.28,12.2h-19.8v8.23h16.33v11.14h-16.33v9.65
	h20.73l-0.29,11.99h-34.28V102.16z M190.31,240.5h-14.26v-53.2h14.26V240.5z"/>
</svg>
