<?xml version="1.0" encoding="utf-8"?>
<!-- Generator: Adobe Illustrator 23.1.1, SVG Export Plug-In . SVG Version: 6.00 Build 0)  -->
<svg version="1.1" id="Ebene_1" xmlns="http://www.w3.org/2000/svg" xmlns:xlink="http://www.w3.org/1999/xlink" x="0px" y="0px"
	 viewBox="0 0 311.81 311.81" style="enable-background:new 0 0 311.81 311.81;" xml:space="preserve">
<style type="text/css">
	.st0{fill:#020204;}
	.st1{fill:none;stroke:#FFED00;stroke-width:3.427;}
	.st2{clip-path:url(#SVGID_2_);fill:#020204;}
	.st3{clip-path:url(#SVGID_2_);fill:none;stroke:#FFED00;stroke-width:3.427;}
	.st4{fill:none;stroke:#FFED00;stroke-width:4.569;}
	.st5{clip-path:url(#SVGID_4_);fill:#020204;}
	.st6{clip-path:url(#SVGID_4_);fill:none;stroke:#FFED00;stroke-width:4.569;}
	.st7{fill:none;stroke:#FFED00;stroke-width:6.093;}
	.st8{clip-path:url(#SVGID_6_);fill:#020204;}
	.st9{clip-path:url(#SVGID_6_);fill:none;stroke:#FFED00;stroke-width:6.093;}
</style>
<polyline class="st0" points="192.88,162.47 192.88,176.55 282.41,176.55 282.41,153.24 269.62,138.83 251.96,138.83 "/>
<polyline class="st1" points="192.88,162.47 192.88,176.55 282.41,176.55 282.41,153.24 269.62,138.83 251.96,138.83 "/>
<polyline class="st0" points="282.58,156.64 264.28,156.64 264.28,138.83 "/>
<polyline class="st1" points="282.58,156.64 264.28,156.64 264.28,138.83 "/>
<g>
	<defs>
		<rect id="SVGID_1_" width="311.81" height="311.81"/>
	</defs>
	<clipPath id="SVGID_2_">
		<use xlink:href="#SVGID_1_"  style="overflow:visible;"/>
	</clipPath>
	<path class="st2" d="M268.33,184.2c-3.6,0-6.52-2.92-6.52-6.51c0-3.6,2.92-6.51,6.52-6.51c3.6,0,6.51,2.92,6.51,6.51
		C274.84,181.28,271.93,184.2,268.33,184.2"/>
	<path class="st3" d="M268.33,184.2c-3.6,0-6.52-2.92-6.52-6.51c0-3.6,2.92-6.51,6.52-6.51c3.6,0,6.51,2.92,6.51,6.51
		C274.84,181.28,271.93,184.2,268.33,184.2z"/>
	<path class="st3" d="M225.34,184.2c-3.6,0-6.52-2.92-6.52-6.51c0-3.6,2.92-6.51,6.52-6.51c3.6,0,6.51,2.92,6.51,6.51
		C231.85,181.28,228.94,184.2,225.34,184.2z"/>
	<path class="st3" d="M207.29,184.2c-3.6,0-6.52-2.92-6.52-6.51c0-3.6,2.92-6.51,6.52-6.51c3.6,0,6.51,2.92,6.51,6.51
		C213.8,181.28,210.88,184.2,207.29,184.2z"/>
	<path class="st2" d="M187.31,149.78c0-7.69,5.37-13.92,12-13.92h44.97c6.62,0,12,6.23,12,13.92c0,7.69-5.37,13.93-12,13.93H199.3
		C192.68,163.7,187.31,157.47,187.31,149.78"/>
	<path class="st3" d="M187.31,149.78c0-7.69,5.37-13.92,12-13.92h44.97c6.62,0,12,6.23,12,13.92c0,7.69-5.37,13.93-12,13.93H199.3
		C192.68,163.7,187.31,157.47,187.31,149.78z"/>
</g>
<polyline class="st0" points="129.61,175.26 129.61,194.03 249,194.03 249,162.94 231.94,143.73 208.4,143.73 "/>
<polyline class="st4" points="129.61,175.26 129.61,194.03 249,194.03 249,162.94 231.94,143.73 208.4,143.73 "/>
<polyline class="st0" points="249.21,167.47 224.82,167.47 224.82,143.73 "/>
<polyline class="st4" points="249.21,167.47 224.82,167.47 224.82,143.73 "/>
<g>
	<defs>
		<rect id="SVGID_3_" width="311.81" height="311.81"/>
	</defs>
	<clipPath id="SVGID_4_">
		<use xlink:href="#SVGID_3_"  style="overflow:visible;"/>
	</clipPath>
	<path class="st5" d="M230.22,204.22c-4.8,0-8.69-3.89-8.69-8.69c0-4.8,3.89-8.69,8.69-8.69c4.8,0,8.69,3.89,8.69,8.69
		C238.9,200.33,235.01,204.22,230.22,204.22"/>
	<circle class="st6" cx="230.22" cy="195.54" r="8.69"/>
	<circle class="st6" cx="172.9" cy="195.54" r="8.69"/>
	<circle class="st6" cx="148.83" cy="195.54" r="8.69"/>
	<path class="st5" d="M122.19,158.33c0-10.25,7.16-18.57,15.99-18.57h59.96c8.83,0,15.99,8.31,15.99,18.57
		c0,10.25-7.16,18.57-15.99,18.57h-59.96C129.35,176.89,122.19,168.58,122.19,158.33"/>
	<path class="st6" d="M122.19,158.33c0-10.25,7.16-18.57,15.99-18.57h59.96c8.83,0,15.99,8.31,15.99,18.57
		c0,10.25-7.16,18.57-15.99,18.57h-59.96C129.35,176.89,122.19,168.58,122.19,158.33z"/>
</g>
<polyline class="st0" points="41.3,191.66 41.3,216.69 200.47,216.69 200.47,175.24 177.73,149.62 146.34,149.62 "/>
<polyline class="st7" points="41.3,191.66 41.3,216.69 200.47,216.69 200.47,175.24 177.73,149.62 146.34,149.62 "/>
<polyline class="st0" points="200.76,181.28 168.23,181.28 168.23,149.62 "/>
<polyline class="st7" points="200.76,181.28 168.23,181.28 168.23,149.62 "/>
<g>
	<defs>
		<rect id="SVGID_5_" width="311.81" height="311.81"/>
	</defs>
	<clipPath id="SVGID_6_">
		<use xlink:href="#SVGID_5_"  style="overflow:visible;"/>
	</clipPath>
	<path class="st8" d="M175.43,230.28c-6.4,0-11.58-5.18-11.58-11.58c0-6.4,5.19-11.58,11.58-11.58c6.4,0,11.58,5.18,11.58,11.58
		C187.01,225.1,181.83,230.28,175.43,230.28"/>
	<path class="st9" d="M175.43,230.28c-6.4,0-11.58-5.18-11.58-11.58c0-6.4,5.19-11.58,11.58-11.58c6.4,0,11.58,5.18,11.58,11.58
		C187.01,225.1,181.83,230.28,175.43,230.28z"/>
	<path class="st8" d="M99.01,230.28c-6.4,0-11.58-5.18-11.58-11.58c0-6.4,5.19-11.58,11.58-11.58c6.4,0,11.58,5.18,11.58,11.58
		C110.59,225.1,105.4,230.28,99.01,230.28"/>
	<path class="st9" d="M99.01,230.28c-6.4,0-11.58-5.18-11.58-11.58c0-6.4,5.19-11.58,11.58-11.58c6.4,0,11.58,5.18,11.58,11.58
		C110.59,225.1,105.4,230.28,99.01,230.28z"/>
	<path class="st8" d="M66.91,230.28c-6.4,0-11.58-5.18-11.58-11.58c0-6.4,5.19-11.58,11.58-11.58s11.58,5.18,11.58,11.58
		C78.5,225.1,73.31,230.28,66.91,230.28"/>
	<path class="st9" d="M66.91,230.28c-6.4,0-11.58-5.18-11.58-11.58c0-6.4,5.19-11.58,11.58-11.58s11.58,5.18,11.58,11.58
		C78.5,225.1,73.31,230.28,66.91,230.28z"/>
	<path class="st8" d="M31.39,169.09c0-13.67,9.55-24.75,21.33-24.75h79.95c11.78,0,21.33,11.08,21.33,24.75
		c0,13.67-9.55,24.76-21.33,24.76H52.72C40.94,193.85,31.39,182.76,31.39,169.09"/>
	<path class="st9" d="M31.39,169.09c0-13.67,9.55-24.75,21.33-24.75h79.95c11.78,0,21.33,11.08,21.33,24.75
		c0,13.67-9.55,24.76-21.33,24.76H52.72C40.94,193.85,31.39,182.76,31.39,169.09z"/>
</g>
</svg>
