<?xml version="1.0" encoding="utf-8"?>
<!-- Generator: Adobe Illustrator 23.1.1, SVG Export Plug-In . SVG Version: 6.00 Build 0)  -->
<svg version="1.1" id="Ebene_1" xmlns="http://www.w3.org/2000/svg" xmlns:xlink="http://www.w3.org/1999/xlink" x="0px" y="0px"
	 viewBox="0 0 425.2 425.2" style="enable-background:new 0 0 425.2 425.2;" xml:space="preserve">
<style type="text/css">
	.st0{fill-rule:evenodd;clip-rule:evenodd;fill:#020204;}
</style>
<path class="st0" d="M375.45,144.19v-23.27c0-5.91-3.27-8.42-9.1-8.42c-3.39,0-7.47,1.64-9.4,4.68v27.02h-3.5v-34.44l2.51-0.23
	l0.64,4.15h0.18c2.33-2.86,6.3-4.56,10.44-4.56c7.29,0,11.73,3.8,11.73,11.75v23.33H375.45z M321.42,126.77
	c0.18,11.05,3.85,14.79,12.08,14.79c3.62,0,6.59-0.88,9.51-2.46l0.47,3.1c-2.98,1.7-6.3,2.69-10.33,2.69
	c-10.97,0-15.35-5.79-15.35-19.12c0-10.82,4.61-16.67,13.71-16.67c7.76,0,13.19,4.74,13.19,15.91c0,0.53-0.06,1.29-0.12,1.75H321.42
	z M331.51,112.27c-6.77,0-9.8,4.03-10.15,11.99h20.07C341.32,115.54,337.23,112.27,331.51,112.27z M306.02,120.86
	c0-5.32-2.86-8.36-8.98-8.36c-4.26,0-7.88,2.1-9.39,4.74v26.96h-3.56V97.71l3.56-0.29v11.34l-0.06,4.68l0.12,0.06
	c2.39-2.86,6.07-4.44,10.27-4.44c7.59,0,11.61,4.15,11.61,11.81v23.33h-3.56V120.86z M267.05,141.67c2.92,0,5.78-0.82,7.94-2.4
	l0.35,3.1c-2.04,1.52-5.37,2.58-8.93,2.58c-9.45,0-14.12-5.38-14.12-18.42c0-11.75,4.32-17.42,14.18-17.42
	c3.21,0,6.3,0.82,8.58,1.93l-0.29,3.27c-2.16-1.05-4.84-1.81-7.59-1.81c-8.05,0-11.21,4.15-11.21,14.03
	C255.96,137.7,259.75,141.67,267.05,141.67z M241.02,139.34l-0.18-0.06c-1.87,3.27-5.95,5.44-10.73,5.44
	c-6.24,0-10.56-3.1-10.56-10.82c0-6.55,4.03-10.29,12.43-10.29c3.09,0,6.24,0.64,8.58,1.52v-4.27c0-6.55-2.74-8.66-8.81-8.66
	c-3.56,0-6.77,0.64-9.74,2.16l-0.41-3.1c3.27-1.52,6.77-2.28,10.74-2.28c8.4,0,11.79,3.45,11.79,12.4v22.8h-2.69L241.02,139.34z
	 M240.56,127.94c-0.88-0.64-3.91-1.64-8.05-1.64c-6.65,0-9.57,2.75-9.57,7.54c0,5.85,3.5,7.83,8.11,7.83c5.02,0,9.51-3.51,9.51-6.84
	V127.94z M228.02,43.9c0-5.91-3.27-8.42-9.1-8.42c-3.39,0-7.47,1.64-9.4,4.68v27.02h-3.5V32.73l2.51-0.23l0.64,4.15h0.17
	c2.33-2.86,6.3-4.56,10.45-4.56c7.29,0,11.73,3.8,11.73,11.75v23.33h-3.5V43.9z M210.92,120.69v23.5h-3.5v-23.45
	c0-5.62-3.21-8.19-8.35-8.19c-4.08,0-7.82,2.51-7.82,7.43v24.21h-3.5v-24.21c0-5.38-3.56-7.43-7.82-7.43c-3.27,0-6.77,1.81-8.4,4.62
	v27.02h-3.5v-34.44l2.51-0.23l0.7,4.21h0.18c1.93-2.75,5.37-4.5,9.11-4.5c4.96,0,8.11,1.93,9.51,5.73h0.18
	c1.57-3.8,5.19-5.79,9.69-5.79C206.43,109.17,210.92,112.79,210.92,120.69z M173.99,49.75c0.18,11.05,3.85,14.79,12.08,14.79
	c3.62,0,6.59-0.88,9.51-2.46l0.47,3.1c-2.98,1.7-6.3,2.69-10.33,2.69c-10.97,0-15.35-5.79-15.35-19.12
	c0-10.82,4.61-16.66,13.71-16.66c7.76,0,13.19,4.74,13.19,15.91c0,0.53-0.06,1.29-0.12,1.75H173.99z M184.08,35.24
	c-6.77,0-9.8,4.03-10.15,11.99H194C193.89,38.52,189.8,35.24,184.08,35.24z M175.27,186.13c7.29,0,11.73,3.8,11.73,11.75v23.33h-3.5
	v-23.27c0-5.91-3.27-8.42-9.1-8.42c-3.38,0-7.47,1.64-9.39,4.68v27.02h-3.5v-34.44l2.51-0.23l0.64,4.15h0.18
	C167.16,187.83,171.13,186.13,175.27,186.13z M158.59,43.84c0-5.32-2.86-8.36-8.98-8.36c-4.26,0-7.88,2.1-9.39,4.74v26.96h-3.56
	V20.69l3.56-0.29v11.34l-0.06,4.68l0.12,0.06c2.39-2.86,6.07-4.44,10.27-4.44c7.59,0,11.61,4.15,11.61,11.81v23.33h-3.56V43.84z
	 M141.49,112.56h-9.04v23.33c0,4.15,2.16,5.79,5.6,5.79c0.99,0,2.22-0.18,2.92-0.47l0.29,2.81c-0.94,0.41-2.63,0.71-4.14,0.71
	c-5.37,0-8.23-2.81-8.23-8.71v-23.45h-5.37v-2.86h5.43l0.7-9.06l2.8-0.35v9.41h9.04V112.56z M119.62,64.65
	c2.92,0,5.78-0.82,7.93-2.4l0.35,3.1c-2.04,1.52-5.37,2.58-8.93,2.58c-9.45,0-14.12-5.38-14.12-18.42
	c0-11.75,4.32-17.42,14.18-17.42c3.21,0,6.3,0.82,8.58,1.93l-0.29,3.27c-2.16-1.05-4.84-1.81-7.59-1.81
	c-8.05,0-11.2,4.15-11.2,14.03C108.53,60.68,112.32,64.65,119.62,64.65z M106.95,100.63l2.8-0.35v9.41h9.04v2.86h-9.04v23.33
	c0,4.15,2.16,5.79,5.6,5.79c0.99,0,2.22-0.18,2.92-0.47l0.29,2.81c-0.93,0.41-2.62,0.71-4.14,0.71c-5.37,0-8.22-2.81-8.22-8.71
	v-23.45h-5.37v-2.86h5.43L106.95,100.63z M97.73,195.19c0-5.61,4.03-9.06,11.44-9.06c3.27,0,6.3,0.64,9.04,1.99l-0.35,3.1
	c-2.86-1.29-5.89-1.93-8.75-1.93c-4.9,0-7.99,2.22-7.99,5.73c0,8.6,18.5,4.33,18.5,16.49c0,6.26-3.56,10.41-11.55,10.41
	c-4.08,0-7.94-1.11-10.5-3.16l0.58-3.22c2.51,2.1,6.36,3.27,9.86,3.27c5.84,0,8.28-2.98,8.28-6.96
	C116.29,202.62,97.73,206.6,97.73,195.19z M93.59,62.31l-0.18-0.06c-1.87,3.27-5.95,5.44-10.73,5.44c-6.24,0-10.56-3.1-10.56-10.82
	c0-6.55,4.03-10.29,12.43-10.29c3.09,0,6.24,0.64,8.58,1.52v-4.27c0-6.55-2.74-8.66-8.81-8.66c-3.56,0-6.77,0.64-9.74,2.16
	l-0.41-3.1c3.27-1.52,6.77-2.28,10.74-2.28c8.4,0,11.79,3.45,11.79,12.4v22.8H94L93.59,62.31z M93.13,50.91
	c-0.87-0.64-3.91-1.64-8.05-1.64c-6.65,0-9.57,2.75-9.57,7.54c0,5.85,3.5,7.83,8.11,7.83c5.02,0,9.51-3.51,9.51-6.84V50.91z
	 M81.34,112.21c-3.56,0-6.77,0.64-9.74,2.16l-0.41-3.1c3.27-1.52,6.77-2.28,10.73-2.28c8.4,0,11.79,3.45,11.79,12.4v22.8h-2.68
	l-0.41-4.86l-0.18-0.06c-1.87,3.27-5.95,5.44-10.73,5.44c-6.24,0-10.56-3.1-10.56-10.82c0-6.55,4.03-10.29,12.43-10.29
	c3.09,0,6.24,0.64,8.58,1.52v-4.27C90.15,114.31,87.41,112.21,81.34,112.21z M82.1,126.3c-6.65,0-9.57,2.75-9.57,7.54
	c0,5.85,3.5,7.83,8.11,7.83c5.02,0,9.51-3.51,9.51-6.84v-6.9C89.28,127.29,86.24,126.3,82.1,126.3z M54.38,135.89
	c0,4.15,2.16,5.79,5.6,5.79c0.99,0,2.21-0.18,2.92-0.47l0.29,2.81c-0.94,0.41-2.63,0.71-4.14,0.71c-5.37,0-8.23-2.81-8.23-8.71
	v-23.45h-5.37v-2.86h5.43l0.7-9.06l2.8-0.35v9.41h9.05v2.86h-9.05V135.89z M58.47,34.37l0.12-4.74l-0.18-0.06l-1.69,4.44
	L43.24,67.17h-2.92L26.85,34.19l-1.7-4.44l-0.12,0.06l0.06,4.74v32.63h-3.38V23.32h4.55L40.09,57.4l1.69,4.38h0.18l1.63-4.38
	l13.83-34.09h4.49v43.85h-3.45V34.37z M19.03,118.17c0-5.61,4.02-9.06,11.44-9.06c3.27,0,6.3,0.64,9.04,1.99l-0.35,3.1
	c-2.86-1.29-5.89-1.93-8.75-1.93c-4.9,0-7.99,2.22-7.99,5.73c0,8.6,18.5,4.33,18.5,16.49c0,6.26-3.56,10.41-11.55,10.41
	c-4.08,0-7.94-1.11-10.5-3.16l0.58-3.22c2.51,2.1,6.36,3.27,9.86,3.27c5.84,0,8.29-2.98,8.29-6.96
	C37.58,125.6,19.03,129.57,19.03,118.17z M25.62,221.21h-3.5v-46.54l3.5-0.23V221.21z M48.67,200.63c3.09,0,6.24,0.64,8.58,1.52
	v-4.27c0-6.55-2.74-8.66-8.81-8.66c-3.56,0-6.77,0.64-9.74,2.16l-0.41-3.1c3.27-1.52,6.77-2.28,10.73-2.28
	c8.4,0,11.79,3.45,11.79,12.4v22.8h-2.68l-0.41-4.86l-0.18-0.06c-1.87,3.27-5.95,5.44-10.74,5.44c-6.24,0-10.56-3.1-10.56-10.82
	C36.24,204.37,40.27,200.63,48.67,200.63z M47.73,218.7c5.02,0,9.51-3.51,9.51-6.84v-6.9c-0.87-0.64-3.91-1.64-8.05-1.64
	c-6.65,0-9.57,2.75-9.57,7.54C39.62,216.71,43.12,218.7,47.73,218.7z M79.71,218.81c5.84,0,8.29-2.98,8.29-6.96
	c0-9.24-18.56-5.26-18.56-16.66c0-5.61,4.03-9.06,11.44-9.06c3.27,0,6.3,0.64,9.04,1.99l-0.35,3.1c-2.86-1.29-5.89-1.93-8.75-1.93
	c-4.9,0-7.99,2.22-7.99,5.73c0,8.6,18.5,4.33,18.5,16.49c0,6.26-3.56,10.41-11.55,10.41c-4.08,0-7.94-1.11-10.5-3.16l0.58-3.22
	C72.35,217.64,76.2,218.81,79.71,218.81z M139.57,186.13c7.76,0,13.19,4.74,13.19,15.9c0,0.53-0.05,1.29-0.11,1.75h-23.17
	c0.18,11.05,3.85,14.79,12.08,14.79c3.62,0,6.6-0.88,9.51-2.46l0.47,3.1c-2.97,1.7-6.3,2.69-10.33,2.69
	c-10.97,0-15.35-5.79-15.35-19.12C125.85,191.98,130.46,186.13,139.57,186.13z M149.49,201.28c-0.12-8.71-4.2-11.99-9.92-11.99
	c-6.77,0-9.8,4.03-10.15,11.99H149.49z M199.02,216.36c1.81,0,2.69,0.94,2.69,2.69c0,1.75-0.88,2.75-2.69,2.75
	c-1.87,0-2.8-0.76-2.8-2.75C196.21,217.29,197.15,216.36,199.02,216.36z"/>
</svg>
