<?xml version="1.0" encoding="utf-8"?>
<!-- Generator: Adobe Illustrator 16.0.0, SVG Export Plug-In . SVG Version: 6.00 Build 0)  -->
<!DOCTYPE svg PUBLIC "-//W3C//DTD SVG 1.1//EN" "http://www.w3.org/Graphics/SVG/1.1/DTD/svg11.dtd">
<svg version="1.1" id="Ebene_1" xmlns="http://www.w3.org/2000/svg" xmlns:xlink="http://www.w3.org/1999/xlink" x="0px" y="0px"
	 width="119.3px" height="62.1px" viewBox="0 0 119.3 62.1" enable-background="new 0 0 119.3 62.1" xml:space="preserve">
<g>
	<g>
		<path fill="#1A1A18" d="M4.6,3.3c1.2,0,1.7,0.5,1.7,1.4c0,1.9-2.5,4.4-5.6,7.8v2.4h9.4l0.1-3.3H5.5l0-0.1c2.8-2.6,4.8-4.8,4.8-7.2
			C10.2,1.8,8.6,0,5.3,0c-2,0-3.6,0.6-4.8,1.5l0.9,3C2.4,3.8,3.4,3.3,4.6,3.3z M18,0.2h-4v14.8h4V0.2z M23.3,8.4l0-1.6l0,0l0.8,1.4
			l4.5,6.8h2.8V0.2h-3.4l0,6.1l0,1.6l0,0l-4.8-7.7h-3.3v14.8h3.4V8.4z M36.6,4.6v7.7h-1.8v2.6h7.5v-2.6h-1.8V0.2h-2.3l-4.3,2.7
			l0.4,3L36.6,4.6z M46.4,7.5c1.4,0,2-0.7,2-1.9c0-1.2-0.6-1.9-2-1.9c-1.4,0-2,0.7-2,1.9C44.4,6.9,45,7.5,46.4,7.5z M46.4,15.1
			c1.4,0,2-0.7,2-1.9c0-1.2-0.6-1.9-2-1.9c-1.4,0-2,0.7-2,1.9C44.4,14.6,45,15.1,46.4,15.1z M4.3,32.5h1l2.8,6h4.6l-3.8-7.7l3.6-7.1
			H8.2l-2.8,5.7h-1v-5.7H0.4v14.8h3.9V32.5z M23.6,35.2h-5.8v-2.7h4.6v-3.1h-4.6v-2.3h5.6l-0.1-3.4h-9.4v14.8h9.7L23.6,35.2z
			 M29,23.8h-3.9v14.8H29v-5.8h3.6v5.8h3.9V23.8h-3.9v5.5H29V23.8z M47.4,32.5c1.3-0.6,2-2,2-4c0-3.3-1.9-4.7-5.7-4.7h-5.2v14.8h3.9
			v-5.3h1.3l2,5.3h4.5L47.4,32.5z M43.8,30.4h-1.3v-3.4h1.4c1.1,0,1.5,0.4,1.5,1.7C45.3,30.1,44.9,30.4,43.8,30.4z M61,35.2h-5.8
			v-2.7h4.6v-3.1h-4.6v-2.3h5.6l-0.1-3.4h-9.4v14.8H61L61,35.2z M66,32l0-1.6l0,0l0.8,1.4l4.5,6.8h2.8V23.8h-3.4l0,6.1l0,1.6l0,0
			l-4.8-7.7h-3.3v14.8H66V32z M86.3,38.8c3.8,0,5.7-1.8,5.7-5.3v-9.7h-3.9v9.7c0,1.4-0.5,1.9-1.8,1.9c-1.3,0-1.9-0.6-1.9-1.9v-9.7
			h-3.9v9.7C80.5,37,82.5,38.8,86.3,38.8z M97.4,32l0-1.6l0,0l0.8,1.4l4.5,6.8h2.8V23.8H102l0,6.1l0,1.6l0,0l-4.8-7.7h-3.3v14.8h3.4
			V32z M112.9,23.8h-5.3v14.8h5.4c4.2,0,6.3-2,6.3-7.5C119.3,25.8,117.4,23.8,112.9,23.8z M112.9,35.2h-1.5v-8h1.5
			c1.8,0,2.3,0.6,2.3,3.9C115.2,34.6,114.6,35.2,112.9,35.2z M3.8,51.6c0-0.6,0.3-1.1,1.8-1.1c1,0,2.1,0.2,3.2,0.5l0.4-3.2
			c-1.1-0.5-2.6-0.7-3.9-0.7c-3.7,0-5.3,2-5.3,4.6c0,4.8,6,4.2,6,6.1c0,0.8-0.5,1.2-1.7,1.2c-1.3,0-2.5-0.4-3.8-1L0,61.4
			c1.2,0.7,2.8,1,4.4,1c3.4,0,5.4-1.8,5.4-4.7C9.7,52.8,3.8,53.5,3.8,51.6z M17.7,59c-2.2,0-2.8-0.9-2.8-4.3c0-3.2,0.6-4.2,2.8-4.2
			c0.9,0,1.8,0.2,2.5,0.4l0.4-3.3c-0.8-0.3-2.1-0.6-3.2-0.6c-4.6,0-6.6,2.6-6.6,7.6c0,5.3,2.1,7.7,6.4,7.7c1.2,0,2.5-0.3,3.4-0.7
			l-0.4-3.1C19.5,58.9,18.6,59,17.7,59z M29.5,52.9h-3.6v-5.5H22v14.8h3.9v-5.8h3.6v5.8h3.9V47.4h-3.9V52.9z M39.4,56.1H44V53h-4.6
			v-2.3h5.6l-0.1-3.4h-9.4v14.8h9.7l0.1-3.3h-5.8V56.1z M54.2,57c0,1.4-0.5,1.9-1.8,1.9c-1.3,0-1.9-0.6-1.9-1.9v-9.7h-3.9v9.7
			c0,3.5,1.9,5.3,5.8,5.3s5.7-1.8,5.7-5.3v-9.7h-3.9V57z M63.9,56.1h4.6V53h-4.6v-2.3h5.6l-0.1-3.4H60v14.8h9.7l0.1-3.3h-5.8V56.1z
			 M82.1,52.1c0-3.3-1.9-4.7-5.7-4.7h-5.2v14.8h3.9v-5.3h1.3l2,5.3H83l-2.9-6C81.4,55.5,82.1,54.1,82.1,52.1z M76.5,54h-1.3v-3.4
			h1.4c1.1,0,1.5,0.4,1.5,1.7C78,53.7,77.6,54,76.5,54z M92.1,53.4l0,1.6l0,0l-4.8-7.7H84v14.8h3.4v-6.5l0-1.6l0,0l0.8,1.4l4.5,6.8
			h2.8V47.4h-3.4L92.1,53.4z M99.2,58.6c-1.4,0-2,0.7-2,1.9c0,1.3,0.6,1.9,2,1.9c1.4,0,2-0.7,2-1.9C101.2,59.3,100.6,58.6,99.2,58.6
			z M104,58.6c-1.4,0-2,0.7-2,1.9c0,1.3,0.6,1.9,2,1.9c1.4,0,2-0.7,2-1.9C106,59.3,105.4,58.6,104,58.6z M108.8,58.6
			c-1.4,0-2,0.7-2,1.9c0,1.3,0.6,1.9,2,1.9s2-0.7,2-1.9C110.8,59.3,110.2,58.6,108.8,58.6z"/>
	</g>
</g>
</svg>
