<?xml version="1.0" encoding="utf-8"?>
<!-- Generator: Adobe Illustrator 23.1.1, SVG Export Plug-In . SVG Version: 6.00 Build 0)  -->
<!DOCTYPE svg PUBLIC "-//W3C//DTD SVG 1.1//EN" "http://www.w3.org/Graphics/SVG/1.1/DTD/svg11.dtd" [
	<!ENTITY ns_extend "http://ns.adobe.com/Extensibility/1.0/">
	<!ENTITY ns_ai "http://ns.adobe.com/AdobeIllustrator/10.0/">
	<!ENTITY ns_graphs "http://ns.adobe.com/Graphs/1.0/">
	<!ENTITY ns_vars "http://ns.adobe.com/Variables/1.0/">
	<!ENTITY ns_imrep "http://ns.adobe.com/ImageReplacement/1.0/">
	<!ENTITY ns_sfw "http://ns.adobe.com/SaveForWeb/1.0/">
	<!ENTITY ns_custom "http://ns.adobe.com/GenericCustomNamespace/1.0/">
	<!ENTITY ns_adobe_xpath "http://ns.adobe.com/XPath/1.0/">
]>
<svg version="1.1" id="Ebene_1" xmlns:x="&ns_extend;" xmlns:i="&ns_ai;" xmlns:graph="&ns_graphs;"
	 xmlns="http://www.w3.org/2000/svg" xmlns:xlink="http://www.w3.org/1999/xlink" x="0px" y="0px" viewBox="0 0 154.31 28.34"
	 style="enable-background:new 0 0 154.31 28.34;" xml:space="preserve">
<style type="text/css">
	.st0{fill-rule:evenodd;clip-rule:evenodd;}
</style>
<metadata>
	<sfw  xmlns="&ns_sfw;">
		<slices></slices>
		<sliceSourceBounds  bottomLeftOrigin="true" height="13.48" width="128.44" x="12.93" y="-20.91"></sliceSourceBounds>
	</sfw>
</metadata>
<path class="st0" d="M141.38,18.74h-2.89l-1.32-3.64h-0.87v3.64h-2.62V7.55l2.62-0.12v5.57h0.87l1.32-3.08h2.83l-1.89,4
	L141.38,18.74z M130.98,16.71c0.48,0,0.91-0.09,1.29-0.23l0.17,2c-0.48,0.27-1.17,0.43-2.03,0.43c-2.52,0-3.9-1.47-3.9-4.51
	c0-2.95,1.19-4.61,3.93-4.61c0.67,0,1.44,0.14,1.93,0.35l-0.15,2.17c-0.38-0.11-0.81-0.2-1.19-0.2c-1.38,0-1.8,0.56-1.8,2.29
	C129.25,16.03,129.9,16.71,130.98,16.71z M123.42,18.03l-0.04-0.01c-0.48,0.56-1.19,0.86-2.06,0.86c-1.59,0-2.61-0.97-2.61-2.95
	c0-1.64,1.13-2.78,2.96-2.78c0.56,0,0.99,0.06,1.36,0.17v-0.35c0-0.66-0.35-1.02-1.38-1.02c-0.9,0-1.44,0.14-2.22,0.45l-0.2-2.06
	c0.84-0.37,1.84-0.55,2.91-0.55c2.6,0,3.48,1.09,3.48,3.56v5.39h-2.01L123.42,18.03z M123.01,15.05c-0.17-0.07-0.45-0.13-0.84-0.13
	c-0.68,0-0.99,0.3-0.99,0.98c0,0.68,0.32,0.94,0.84,0.94c0.52,0,0.99-0.32,0.99-0.81V15.05z M113.91,15.38h-0.9v3.35h-2.83V7.94
	h3.72c3.02,0,4.22,1.17,4.22,3.8C118.12,14.07,116.95,15.38,113.91,15.38z M113.91,10.28h-0.9v2.86h0.9c0.93,0,1.28-0.22,1.28-1.43
	C115.18,10.56,114.91,10.28,113.91,10.28z M102.93,18.87c-0.64,0-1.2-0.13-1.68-0.53l-0.04,0.01l0.03,1.17v1.4h-2.64V9.98l1.84-0.1
	l0.46,0.66c0.55-0.48,1.29-0.75,2.07-0.75c2,0,3.12,1.11,3.12,4.52C106.09,17.34,104.85,18.87,102.93,18.87z M102.24,12.04
	c-0.44,0-0.81,0.23-1.02,0.56v3.54c0.2,0.34,0.52,0.59,0.99,0.59c0.71,0,1.15-0.37,1.15-2.48
	C103.36,12.44,103.07,12.04,102.24,12.04z M97.38,15.55c0,1.94-1.17,3.18-3.89,3.18h-4.23V7.94h4.26c2.33,0,3.52,1.08,3.52,2.79
	c0,1.14-0.52,1.87-1.33,2.26v0.03C96.8,13.38,97.38,14.22,97.38,15.55z M93.41,10.3h-1.41v1.9h1.44c0.65,0,0.88-0.24,0.88-0.98
	C94.33,10.51,94.08,10.3,93.41,10.3z M93.49,14.3h-1.48v2.13h1.54c0.71,0,0.97-0.23,0.97-1.08C94.51,14.6,94.28,14.3,93.49,14.3z
	 M83.03,16.48c0.67,0,1.29-0.13,1.8-0.36l0.26,2.29c-0.65,0.32-1.64,0.52-2.48,0.52c-3.1,0-4.61-1.76-4.61-5.64
	c0-3.63,1.46-5.53,4.78-5.53c0.77,0,1.71,0.17,2.29,0.4l-0.28,2.39c-0.48-0.17-1.13-0.29-1.81-0.29c-1.61,0-2.01,0.68-2.01,3.04
	C80.97,15.79,81.42,16.48,83.03,16.48z M70.66,11.84c2.1,0,3.32,1.05,3.32,3.15c0,2.42-1.19,3.89-3.93,3.89
	c-1.16,0-2.25-0.25-3.15-0.75L67.37,16c0.8,0.39,1.45,0.59,2.38,0.59c1.16,0,1.46-0.45,1.46-1.38c0-0.85-0.46-1.15-1.45-1.15
	c-0.57,0-1.26,0.09-1.8,0.27l-0.9-1.04l0.39-5.36h5.91l0.1,2.39h-3.78l-0.1,1.6C69.92,11.87,70.26,11.84,70.66,11.84z M62.07,16.3
	h3.39l-0.06,2.43h-6.83v-1.76c2.25-2.49,4.07-4.28,4.07-5.7c0-0.65-0.38-1.02-1.25-1.02c-0.83,0-1.58,0.37-2.29,0.88L58.46,8.9
	c0.87-0.63,2.03-1.08,3.49-1.08c2.38,0,3.57,1.28,3.57,3.18c0,1.76-1.41,3.33-3.46,5.26L62.07,16.3z M51.19,20.41l4.47-12.93h2.26
	l-4.54,12.93H51.19z M50.97,15.48c0,2.07-1.29,3.4-4.1,3.4c-1.19,0-2.26-0.32-3.01-0.75L44.33,16c0.78,0.39,1.55,0.59,2.42,0.59
	c1,0,1.49-0.42,1.49-1.18c0-0.71-0.39-1.24-2.33-1.24v-1.94c1.87,0,2.26-0.42,2.26-1.15c0-0.56-0.38-0.89-1.33-0.89
	c-0.94,0-1.75,0.32-2.44,0.86l-0.62-2.16c0.81-0.63,2.01-1.07,3.28-1.07c2.35,0,3.71,1.15,3.71,3.07c0,0.98-0.45,1.76-1.3,2.23v0.03
	C50.43,13.57,50.97,14.35,50.97,15.48z M42.07,16.81v1.93H39.5v-1.93h-4.29l-0.23-1.76l3.77-7.11h3.32v6.6h0.88l-0.06,2.27H42.07z
	 M39.74,10.64l-1.94,3.89h1.8l0.1-2.71l0.07-1.17L39.74,10.64z M26.27,18.74h-3.93V7.94h3.87c3.31,0,4.65,1.53,4.65,5.34
	C30.87,17.24,29.33,18.74,26.27,18.74z M26.23,10.43h-1.06v5.85h1.06c1.25,0,1.67-0.37,1.67-3.02
	C27.9,10.86,27.51,10.43,26.23,10.43z M21.05,15.55c0,1.94-1.17,3.18-3.89,3.18h-4.23V7.94h4.26c2.33,0,3.52,1.08,3.52,2.79
	c0,1.14-0.52,1.87-1.33,2.26v0.03C20.47,13.38,21.05,14.22,21.05,15.55z M17.08,10.3h-1.41v1.9h1.44c0.65,0,0.88-0.24,0.88-0.98
	C17.99,10.51,17.75,10.3,17.08,10.3z M17.15,14.3h-1.48v2.13h1.54c0.71,0,0.97-0.23,0.97-1.08C18.18,14.6,17.95,14.3,17.15,14.3z"/>
</svg>
