<?xml version="1.0" encoding="utf-8"?>
<!-- Generator: Adobe Illustrator 23.1.1, SVG Export Plug-In . SVG Version: 6.00 Build 0)  -->
<!DOCTYPE svg PUBLIC "-//W3C//DTD SVG 1.1//EN" "http://www.w3.org/Graphics/SVG/1.1/DTD/svg11.dtd" [
	<!ENTITY ns_extend "http://ns.adobe.com/Extensibility/1.0/">
	<!ENTITY ns_ai "http://ns.adobe.com/AdobeIllustrator/10.0/">
	<!ENTITY ns_graphs "http://ns.adobe.com/Graphs/1.0/">
	<!ENTITY ns_vars "http://ns.adobe.com/Variables/1.0/">
	<!ENTITY ns_imrep "http://ns.adobe.com/ImageReplacement/1.0/">
	<!ENTITY ns_sfw "http://ns.adobe.com/SaveForWeb/1.0/">
	<!ENTITY ns_custom "http://ns.adobe.com/GenericCustomNamespace/1.0/">
	<!ENTITY ns_adobe_xpath "http://ns.adobe.com/XPath/1.0/">
]>
<svg version="1.1" id="Ebene_1" xmlns:x="&ns_extend;" xmlns:i="&ns_ai;" xmlns:graph="&ns_graphs;"
	 xmlns="http://www.w3.org/2000/svg" xmlns:xlink="http://www.w3.org/1999/xlink" x="0px" y="0px" viewBox="0 0 232.49 67.9"
	 style="enable-background:new 0 0 232.49 67.9;" xml:space="preserve">
<style type="text/css">
	.st0{fill-rule:evenodd;clip-rule:evenodd;}
</style>
<metadata>
	<sfw  xmlns="&ns_sfw;">
		<slices></slices>
		<sliceSourceBounds  bottomLeftOrigin="true" height="56.11" width="208.89" x="6.24" y="-58.5"></sliceSourceBounds>
	</sfw>
</metadata>
<path class="st0" d="M212.64,18.95l-4.02-6.22l-0.75-1.24l-0.04,0.02l0.02,1.46v5.98h-3.09V5.47h2.95l4.33,6.99l0.04-0.02
	l-0.04-1.44l0.02-5.53h3.09v13.47H212.64z M208.04,38.6h-8.03V25.12h3.54v10.35h4.58L208.04,38.6z M203.4,15.91l-0.07,3.04h-8.68
	V5.47h8.44l0.07,3.09h-5.01v2.08h4.13v2.82h-4.13v2.44H203.4z M188.51,10.99h4.11l-0.02,2.98h-4.1v4.98h-3.52V5.47h8.43l0.05,3.14
	h-4.96V10.99z M178.14,19.18c-3.45,0-5.19-1.65-5.19-4.81V5.47h3.52v8.82c0,1.2,0.47,1.74,1.67,1.74c1.22,0,1.63-0.5,1.63-1.74V5.47
	h3.5v8.89C183.28,17.53,181.59,19.18,178.14,19.18z M168.3,16.59h-3.66l-0.52,2.35h-3.72l3.99-13.47h4.29l4.06,13.47h-3.92
	L168.3,16.59z M166.79,9.8l-0.27-1.44h-0.05l-0.31,1.44l-0.86,3.86h2.35L166.79,9.8z M156.23,18.95l-2.53-5.48h-0.86v5.48h-3.5V5.47
	h3.5v5.21h0.93l2.5-5.21h3.93l-3.23,6.45l3.4,7.02H156.23z M154.81,31.93l0.45,1.38h0.05l0.45-1.37l2.41-6.83h3.88V38.6h-3.22v-5.64
	l0.04-1.46l-0.05-0.02l-0.45,1.4l-1.99,5.71h-2.28l-1.98-5.69l-0.45-1.4l-0.04,0.02l0.02,1.46v5.62h-3.07V25.12h3.86L154.81,31.93z
	 M151.79,44.77v13.47h-3.52v-5.28H145v5.28h-3.5V44.77h3.5v5.05h3.27v-5.05H151.79z M142.48,38.83c-1.42,0-2.82-0.32-3.92-0.93
	l0.45-2.98c1.1,0.56,2.21,0.9,3.38,0.9c1.11,0,1.54-0.38,1.54-1.1c0-1.72-5.35-1.19-5.35-5.59c0-2.35,1.44-4.22,4.76-4.22
	c1.24,0,2.57,0.23,3.54,0.65l-0.4,2.93c-1.02-0.31-2.05-0.49-2.91-0.49c-1.33,0-1.62,0.4-1.62,0.97c0,1.74,5.35,1.15,5.35,5.55
	C147.32,37.18,145.52,38.83,142.48,38.83z M143.94,15.91l-0.07,3.04h-8.68V5.47h8.44l0.07,3.09h-5.01v2.08h4.13v2.82h-4.13v2.44
	H143.94z M131.06,18.95h-3.58V8.62h-3.05l0.07-3.14h9.54l0.07,3.14h-3.05V18.95z M120.98,4.83c-0.88,0-1.33-0.34-1.33-1.2
	c0-0.81,0.45-1.24,1.33-1.24c0.92,0,1.33,0.43,1.33,1.24C122.31,4.41,121.9,4.83,120.98,4.83z M117.55,4.83
	c-0.88,0-1.33-0.34-1.33-1.2c0-0.81,0.45-1.24,1.33-1.24c0.92,0,1.33,0.43,1.33,1.24C118.88,4.41,118.47,4.83,117.55,4.83z
	 M117.14,5.47h4.29l4.06,13.47h-3.92l-0.52-2.35h-3.66l-0.52,2.35h-3.65h-0.07h-3.99l-1.8-4.81h-1.19v4.81h-3.5V5.47h4.65
	c3.41,0,5.1,1.29,5.1,4.33c0,1.8-0.65,3.13-1.83,3.63l2.58,5.42L117.14,5.47z M120.41,13.67l-0.86-3.86l-0.27-1.44h-0.05l-0.31,1.44
	l-0.86,3.86H120.41z M107.4,8.38h-1.22v3.11h1.2c1.02,0,1.38-0.25,1.38-1.56C108.76,8.71,108.42,8.38,107.4,8.38z M98.27,38.85
	c-4.46,0-6.04-2.39-6.04-6.99c0-4.71,1.85-6.97,6.2-6.97c1.19,0,2.53,0.22,3.5,0.59l-0.32,3c-0.88-0.32-2.01-0.52-2.98-0.52
	c-2.21,0-2.71,0.83-2.71,3.86c0,3.2,0.52,3.9,2.26,3.9c0.27,0,0.56-0.02,0.81-0.07v-4.4h3.13v6.86
	C101.18,38.56,99.66,38.85,98.27,38.85z M101.33,15.91l-0.07,3.04h-8.68V5.47h8.44l0.07,3.09h-5.01v2.08h4.13v2.82h-4.13v2.44
	H101.33z M87.14,19.2c-4.46,0-6.04-2.39-6.04-6.99c0-4.71,1.85-6.97,6.2-6.97c1.19,0,2.53,0.22,3.5,0.59l-0.32,3
	c-0.88-0.32-2.01-0.52-2.98-0.52c-2.21,0-2.71,0.83-2.71,3.86c0,3.2,0.52,3.9,2.26,3.9c0.27,0,0.56-0.02,0.81-0.07v-4.4h3.13v6.86
	C90.05,18.91,88.52,19.2,87.14,19.2z M75.37,19.18c-1.42,0-2.82-0.32-3.92-0.93l0.45-2.98c1.1,0.56,2.21,0.9,3.38,0.9
	c1.11,0,1.54-0.38,1.54-1.1c0-1.72-5.35-1.19-5.35-5.59c0-2.35,1.44-4.22,4.76-4.22c1.24,0,2.57,0.23,3.54,0.65l-0.4,2.93
	c-1.02-0.31-2.05-0.49-2.91-0.49c-1.33,0-1.62,0.4-1.62,0.97c0,1.74,5.35,1.15,5.35,5.55C80.2,17.53,78.4,19.18,75.37,19.18z
	 M63.49,12.73l-0.75-1.24l-0.04,0.02l0.02,1.46v5.98h-3.09V5.47h2.95l4.33,6.99l0.04-0.02l-0.04-1.44l0.02-5.53h3.09v13.47h-2.5
	L63.49,12.73z M67.34,28.21h-5.01v2.08h4.13v2.82h-4.13v2.44h5.25L67.5,38.6h-8.68V25.12h8.44L67.34,28.21z M52.52,19.18
	c-3.88,0-5.64-2.05-5.64-6.97c0-4.94,1.69-6.95,5.64-6.95s5.64,2.01,5.64,6.95C58.16,17.28,56.47,19.18,52.52,19.18z M52.5,8.4
	c-1.47,0-1.94,0.61-1.94,3.81c0,3.22,0.49,3.86,1.98,3.86s1.94-0.66,1.94-3.86C54.48,9,54.03,8.4,52.5,8.4z M41.65,5.47h3.61v13.47
	h-3.61V5.47z M37.37,18.95H33.8V8.62h-3.05l0.07-3.14h9.54l0.07,3.14h-3.05V18.95z M26.38,18.95l-2.53-5.48h-0.86v5.48h-3.5V5.47
	h3.5v5.21h0.93l2.5-5.21h3.93l-3.23,6.45l3.4,7.02H26.38z M26.38,32.11l0.04-0.02l-0.04-1.44l0.02-5.53h3.09V38.6h-2.5l-4.02-6.22
	l-0.75-1.24l-0.04,0.02l0.02,1.46v5.98H19.1V25.12h2.95L26.38,32.11z M14.15,16.59h-3.66l-0.52,2.35H6.24l3.99-13.47h4.29
	l4.06,13.47h-3.92L14.15,16.59z M12.64,9.8l-0.27-1.44h-0.05L12.01,9.8l-0.86,3.86h2.35L12.64,9.8z M13.03,44.54
	c1.19,0,2.53,0.22,3.5,0.59l-0.32,3c-0.88-0.32-2.01-0.52-2.98-0.52c-2.21,0-2.71,0.83-2.71,3.86c0,3.2,0.52,3.9,2.26,3.9
	c0.27,0,0.56-0.02,0.81-0.07v-4.4h3.13v6.86c-0.93,0.45-2.46,0.74-3.84,0.74c-4.45,0-6.04-2.39-6.04-6.99
	C6.83,46.8,8.68,44.54,13.03,44.54z M17.4,25.12v8.89c0,3.16-1.69,4.81-5.14,4.81c-3.45,0-5.19-1.65-5.19-4.81v-8.89h3.52v8.82
	c0,1.2,0.47,1.74,1.67,1.74c1.22,0,1.63-0.5,1.63-1.74v-8.82H17.4z M28.07,49.1c0,1.8-0.65,3.13-1.83,3.63l2.58,5.42l3.96-13.38
	h4.29l4.06,13.47h-3.92l-0.52-2.35h-3.66l-0.52,2.35h-3.65h-0.07H24.8L23,53.43h-1.19v4.81h-3.5V44.77h4.65
	C26.38,44.77,28.07,46.07,28.07,49.1z M36.04,52.96l-0.86-3.86l-0.27-1.44h-0.05l-0.31,1.44l-0.86,3.86H36.04z M21.82,50.79h1.2
	c1.02,0,1.38-0.25,1.38-1.56c0-1.22-0.34-1.54-1.37-1.54h-1.22V50.79z M36.19,38.6h-4.87V25.12h4.8c4.1,0,5.77,1.9,5.77,6.66
	C41.88,36.73,39.98,38.6,36.19,38.6z M36.13,28.23h-1.31v7.29h1.31c1.54,0,2.07-0.47,2.07-3.77C38.2,28.77,37.72,28.23,36.13,28.23z
	 M40.14,44.77h9.54l0.07,3.14H46.7v10.33h-3.58V47.92h-3.05L40.14,44.77z M47.4,38.6V25.12h4.65c3.41,0,5.1,1.29,5.1,4.33
	c0,1.8-0.65,3.13-1.83,3.63l2.62,5.52h-4.06l-1.8-4.81H50.9v4.81H47.4z M52.11,31.14c1.02,0,1.38-0.25,1.38-1.56
	c0-1.22-0.34-1.54-1.37-1.54H50.9v3.11H52.11z M54.58,58.25h-3.61V44.77h3.61V58.25z M59.99,55.46c1.11,0,1.54-0.38,1.54-1.1
	c0-1.72-5.35-1.19-5.35-5.59c0-2.35,1.44-4.22,4.76-4.22c1.24,0,2.57,0.23,3.54,0.65l-0.4,2.93c-1.02-0.31-2.05-0.49-2.91-0.49
	c-1.33,0-1.62,0.4-1.62,0.97c0,1.74,5.35,1.15,5.35,5.55c0,2.66-1.8,4.31-4.83,4.31c-1.42,0-2.82-0.32-3.92-0.93l0.45-2.98
	C57.71,55.12,58.82,55.46,59.99,55.46z M72.67,38.6h-3.61V25.12h3.61V38.6z M80.78,51.44c0,4.94-1.9,6.81-5.69,6.81h-4.87V44.77h4.8
	C79.11,44.77,80.78,46.68,80.78,51.44z M73.72,55.17h1.31c1.54,0,2.07-0.47,2.07-3.77c0-2.98-0.49-3.52-2.07-3.52h-1.31V55.17z
	 M81.94,25.12h3.09V38.6h-2.5l-4.02-6.22l-0.75-1.24l-0.04,0.02l0.02,1.46v5.98h-3.09V25.12h2.95l4.33,6.99l0.04-0.02l-0.04-1.44
	L81.94,25.12z M87.01,25.12h3.61V38.6h-3.61V25.12z M89.08,44.77l4.06,13.47h-3.92l-0.52-2.35h-3.66l-0.52,2.35h-3.72l3.99-13.47
	H89.08z M88.05,52.96l-0.86-3.86l-0.27-1.44h-0.05l-0.31,1.44l-0.86,3.86H88.05z M98.63,47.95l-0.02-0.04h-4.96l0.09-3.14h9v2.51
	L98.6,53.9l-0.79,1.17l0.02,0.05h4.96l-0.05,3.13h-9.18v-2.28l4.29-6.83L98.63,47.95z M107.11,33.94c0,1.2,0.47,1.74,1.67,1.74
	c1.22,0,1.63-0.5,1.63-1.74v-8.82h3.5v8.89c0,3.16-1.69,4.81-5.14,4.81c-3.45,0-5.19-1.65-5.19-4.81v-8.89h3.52V33.94z
	 M107.42,53.59c0,1.2,0.47,1.74,1.67,1.74c1.22,0,1.63-0.5,1.63-1.74v-8.82h3.5v8.89c0,3.16-1.69,4.81-5.14,4.81
	c-3.45,0-5.19-1.65-5.19-4.81v-8.89h3.52V53.59z M122.9,32.11l0.04-0.02l-0.04-1.44l0.02-5.53h3.09V38.6h-2.5l-4.02-6.22l-0.75-1.24
	l-0.04,0.02l0.02,1.46v5.98h-3.09V25.12h2.95L122.9,32.11z M128.49,47.86h-5.01v2.08h4.13v2.82h-4.13v2.44h5.25l-0.07,3.04h-8.68
	V44.77h8.44L128.49,47.86z M137.36,31.25v6.86c-0.93,0.45-2.46,0.74-3.84,0.74c-4.46,0-6.04-2.39-6.04-6.99
	c0-4.71,1.85-6.97,6.2-6.97c1.19,0,2.53,0.22,3.5,0.59l-0.32,3c-0.88-0.32-2.01-0.52-2.98-0.52c-2.21,0-2.71,0.83-2.71,3.86
	c0,3.2,0.52,3.9,2.26,3.9c0.27,0,0.56-0.02,0.81-0.07v-4.4H137.36z M139.83,49.1c0,1.8-0.65,3.13-1.83,3.63l2.62,5.52h-4.06
	l-1.8-4.81h-1.19v4.81h-3.5V44.77h4.65C138.14,44.77,139.83,46.07,139.83,49.1z M133.57,50.79h1.2c1.02,0,1.38-0.25,1.38-1.56
	c0-1.22-0.34-1.54-1.37-1.54h-1.22V50.79z M160.93,44.77l4.06,13.47h-3.92l-0.52-2.35h-3.66l-0.52,2.35h-3.72l3.99-13.47H160.93z
	 M159.91,52.96l-0.86-3.86l-0.27-1.44h-0.05l-0.31,1.44l-0.86,3.86H159.91z M164.02,25.12h3.61V38.6h-3.61V25.12z M169.43,55.12
	h4.58l-0.09,3.13h-8.03V44.77h3.54V55.12z M171.91,38.6V28.27h-3.05l0.07-3.14h9.54l0.07,3.14h-3.05V38.6H171.91z M172.93,44.77
	h9.54l0.07,3.14h-3.05v10.33h-3.58V47.92h-3.05L172.93,44.77z M182.2,38.6V28.27h-3.05l0.07-3.14h9.54l0.07,3.14h-3.05V38.6H182.2z
	 M192.14,47.86h-5.01v2.08h4.13v2.82h-4.13v2.44h5.25l-0.07,3.04h-8.68V44.77h8.44L192.14,47.86z M198.66,35.56l-0.07,3.04h-8.68
	V25.12h8.44l0.07,3.09h-5.01v2.08h4.13v2.82h-4.13v2.44H198.66z M201,51.76l0.04-0.02L201,50.31l0.02-5.53h3.09v13.47h-2.5
	l-4.02-6.22l-0.75-1.24l-0.04,0.02l0.02,1.46v5.98h-3.09V44.77h2.95L201,51.76z M207.37,55.03c1.26,0,1.8,0.63,1.8,1.72
	c0,1.02-0.54,1.71-1.8,1.71c-1.26,0-1.81-0.49-1.81-1.71C205.56,55.66,206.12,55.03,207.37,55.03z"/>
</svg>
