<svg enable-background="new 0 0 280.5 101.4" viewBox="0 0 280.5 101.4" xmlns="http://www.w3.org/2000/svg"><path clip-rule="evenodd" d="m251.7 45.8v16.1h-5.6v-16.1h-4.8l.1-4.9h14.9l.1 4.9zm-17.8-4.9h5.6v21h-5.6zm-1.9 49.4c-2 0-2.8-.8-2.8-2.7 0-1.7.9-2.7 2.8-2.7s2.8 1 2.8 2.7c0 1.6-.9 2.7-2.8 2.7zm-6.2-37.1.1-2.3h-.1l-.7 2.2-3.1 8.9h-3.6l-3.1-8.9-.7-2.2h-.1v2.3 8.8h-4.8v-21h6l3.7 10.6.7 2.2h.1l.7-2.1 3.8-10.6h6v21h-5v-8.9zm-17.2 32-.1 4.7h-13.5v-21h13.2l.1 4.8h-7.8v3.3h6.4v4.4h-6.4v3.8zm-16.3-23.3h-7.6v-21h7.5c6.4 0 9 3 9 10.4 0 7.7-3 10.6-8.9 10.6zm-.1-16.1h-2v11.4h2c2.4 0 3.2-.7 3.2-5.9.1-4.7-.7-5.5-3.2-5.5zm0 23.7-.5 4.7c-1.4-.5-3.1-.8-4.6-.8-3.4 0-4.2 1.3-4.2 6 0 5 .8 6.1 3.5 6.1.4 0 .9 0 1.3-.1v-6.9h4.9v10.7c-1.5.7-3.8 1.1-6 1.1-6.9 0-9.4-3.7-9.4-10.9 0-7.3 2.9-10.9 9.7-10.9 1.7.1 3.8.4 5.3 1zm-20.5-17.2-1.2-1.9h-.1v2.3 9.3h-4.8v-21h4.6l6.7 10.9h.1l-.1-2.2v-8.6h4.8v21h-3.7zm-16.7 10c-5.4 0-8.1-2.6-8.1-7.5v-13.9h5.5v13.7c0 1.9.7 2.7 2.6 2.7s2.5-.8 2.5-2.7v-13.7h5.5v13.9c0 4.9-2.6 7.5-8 7.5zm6.7-33.1-.1 4.7h-13.5v-21h13.2l.1 4.8h-7.8v3.3h6.4v4.4h-6.4v3.8zm-20.1 4.7h-5.6v-16.1h-4.8l.1-4.9h14.9l.1 4.9h-4.8v16.1zm-15.7-22c-1.4 0-2.1-.5-2.1-1.9 0-1.3.7-1.9 2.1-1.9s2.1.7 2.1 1.9c0 1.3-.7 1.9-2.1 1.9zm-5.3 0c-1.4 0-2.1-.5-2.1-1.9 0-1.3.7-1.9 2.1-1.9s2.1.7 2.1 1.9c-.1 1.3-.7 1.9-2.1 1.9zm-.7 1h6.7l6.3 21h-6.1l-.8-3.7h-5.7l-.8 3.7h-5.7-.1-6.2l-2.8-7.5h-1.8v7.5h-5.5v-21h7.3c5.3 0 8 2 8 6.7 0 2.8-1 4.9-2.9 5.7l4 8.4zm5.1 12.8-1.3-6-.4-2.2h-.1l-.5 2.2-1.3 6zm-20.3-8.2h-1.9v4.8h1.9c1.6 0 2.2-.4 2.2-2.4 0-1.9-.6-2.4-2.2-2.4zm-1.5 28.9c0 2.2-1 3.6-2.6 4.4v.1c2.1.7 3.2 2.3 3.2 4.9 0 3.8-2.3 6.2-7.5 6.2h-8.2v-21h8.2c4.6-.1 6.9 2 6.9 5.4zm-7-.9h-2.7v3.7h2.8c1.3 0 1.7-.5 1.7-1.9 0-1.3-.5-1.8-1.8-1.8zm.1 7.8h-2.9v4.1h3c1.4 0 1.9-.4 1.9-2.1 0-1.4-.4-2-2-2zm-1-24.1-.1 4.7h-13.6v-21h13.2l.1 4.8h-7.8v3.3h6.4v4.4h-6.4v3.8zm-22.1 5.1c-6.9 0-9.4-3.7-9.4-10.9 0-7.3 2.9-10.9 9.7-10.9 1.8 0 3.9.3 5.5.9l-.5 4.7c-1.4-.5-3.1-.8-4.6-.8-3.4 0-4.2 1.3-4.2 6 0 5 .8 6.1 3.5 6.1.4 0 .9 0 1.3-.1v-6.9h4.9v10.7c-1.7.8-4.1 1.2-6.2 1.2zm-14.7-.4h-5.6v-16.1h-4.8l.1-4.9h14.9l.1 4.9h-4.8v16.1zm-8.7 0h-12.5v-21h5.5v16.1h7.1zm-20.9 52.4h-5.7l-.8 3.7h-5.8l6.2-21h6.7l6.3 21h-6.1zm-2.3-10.6-.4-2.2h-.1l-.5 2.2-1.3 6h3.7zm2.3-17.4h-5.7l-.8 3.7h-5.8l6.2-21h6.7l6.3 21h-6.1zm-2.3-10.6-.4-2.2h-.1l-.5 2.2-1.3 6h3.7zm2.3-17.4h-5.7l-.8 3.7h-5.8l6.2-21h6.7l6.3 21h-6.1zm-2.3-10.6-.4-2.2h-.1l-.5 2.2-1.3 6h3.7zm25.7 26.7c0 2.2-1 3.6-2.6 4.4v.1c2.1.7 3.2 2.3 3.2 4.9 0 3.8-2.3 6.2-7.5 6.2h-8.2v-21h8.2c4.6-.1 6.9 2 6.9 5.4zm-9.7 11.1h3c1.4 0 1.9-.4 1.9-2.1 0-1.5-.4-2-2-2h-2.9zm0-12v3.7h2.8c1.3 0 1.7-.5 1.7-1.9s-.5-1.8-1.8-1.8zm.1 31.6h1.5l3.9-8.1h6.1l-5 10.1 5.3 10.9h-6.5l-3.9-8.5h-1.3v8.5h-5.5v-21h5.5v8.1zm21.5-36.5c1.8 0 3.9.3 5.5.9l-.5 4.7c-1.4-.5-3.1-.8-4.6-.8-3.4 0-4.2 1.3-4.2 6 0 5 .8 6.1 3.5 6.1.4 0 .9 0 1.3-.1v-6.9h4.8v10.7c-1.5.7-3.8 1.1-6 1.1-6.9 0-9.4-3.7-9.4-10.9 0-7.3 2.9-10.8 9.6-10.8zm-2.7 36.5h1.5l3.9-8.1h6.1l-5 10.1 5.3 10.9h-6.4l-3.9-8.5h-1.3v8.5h-5.7v-21h5.5zm24.6-19.9-.1 4.7h-13.5v-21h13.2l.1 4.8h-7.8v3.3h6.4v4.4h-6.4v3.8zm-6.1 25.5c0 1.9.7 2.7 2.6 2.7s2.5-.8 2.5-2.7v-13.8h5.5v13.9c0 4.9-2.6 7.5-8 7.5s-8.1-2.6-8.1-7.5v-13.9h5.5zm25.1 2.4h7.1l-.1 4.9h-12.5v-21h5.5zm14.6-27.9-.1 4.7h-13.5v-21h13.2l.1 4.8h-7.8v3.3h6.4v4.4h-6.4v3.8zm2.2 11.4c6.2 0 8.8 3.1 8.8 10.8 0 7.9-2.6 10.9-8.8 10.9-6 0-8.8-3.2-8.8-10.9s2.6-10.8 8.8-10.8zm0 16.9c2.3 0 3-1 3-6s-.7-5.9-3.1-5.9c-2.3 0-3 1-3 5.9 0 5 .8 6 3.1 6zm11.3-44.6h4.8v21h-3.9l-6.3-9.7-1.2-1.9h-.1v2.3 9.3h-4.8v-21h4.6l6.7 10.9h.1l-.1-2.2zm5 44.7c1.7 0 2.4-.6 2.4-1.7 0-2.7-8.3-1.8-8.3-8.7 0-3.7 2.2-6.6 7.4-6.6 1.9 0 4 .4 5.5 1l-.6 4.6c-1.6-.5-3.2-.8-4.5-.8-2.1 0-2.5.6-2.5 1.5 0 2.7 8.3 1.8 8.3 8.7 0 4.1-2.8 6.7-7.5 6.7-2.2 0-4.4-.5-6.1-1.5l.7-4.6c1.6.9 3.4 1.4 5.2 1.4zm15.1-.5h7.1l-.1 4.9h-12.5v-21h5.5zm22.3-11.3h-7.8v3.2h6.4v4.4h-6.4v3.8h8.2l-.1 4.7h-13.5v-21h13.2zm46.4 6v-2.3-8.6h4.8v21h-3.8l-6.3-9.7-1.2-1.9h-.1v2.3 9.3h-4.8v-21h4.6z" fill="#020204" fill-rule="evenodd"/></svg>