<?xml version="1.0" encoding="utf-8"?>
<!-- Generator: Adobe Illustrator 23.1.1, SVG Export Plug-In . SVG Version: 6.00 Build 0)  -->
<svg version="1.1" id="Ebene_1" xmlns="http://www.w3.org/2000/svg" xmlns:xlink="http://www.w3.org/1999/xlink" x="0px" y="0px"
	 viewBox="0 0 300.35 375.58" style="enable-background:new 0 0 300.35 375.58;" xml:space="preserve">
<style type="text/css">
	.st0{fill-rule:evenodd;clip-rule:evenodd;}
</style>
<path class="st0" d="M244.44,208.4v-7.02h15.06v7.02H244.44z M237.58,33.38h15.06v7.02h-15.06V33.38z M231.15,57.13h-10.74V26.09
	h-9.18l0.22-9.45h28.67l0.22,9.45h-9.18V57.13z M214.41,57.13h-24.13V16.64h10.63v31.1h13.77L214.41,57.13z M186.22,48.01
	l-0.21,9.12h-26.08V16.64h25.37l0.22,9.29h-15.06v6.26h12.42v8.48h-12.42v7.34H186.22z M135.52,57.13l-3.78-24.56l-0.54-4.37h-0.16
	l-0.59,4.37l-3.72,24.56h-12.63l-8.48-40.49h11.01l3.56,25.54l0.54,4.32h0.16l0.59-4.32l4.21-25.54h11.23l4.27,25.32l0.65,4.32H142
	l0.48-4.32l3.62-25.32h10.53l-8.48,40.49H135.52z M109.65,72.64v26.72c0,9.5-5.07,14.47-15.44,14.47c-10.37,0-15.6-4.97-15.6-14.47
	V72.64h10.58v26.51c0,3.62,1.4,5.24,5.02,5.24c3.67,0,4.91-1.51,4.91-5.24V72.64H109.65z M91.62,48.01l-0.22,9.12H65.32V16.64H90.7
	l0.22,9.29H75.85v6.26h12.42v8.48H75.85v7.34H91.62z M48.53,16.64h10.85v40.49H48.53V16.64z M26.55,57.13H11.92V16.64h14.41
	c12.31,0,17.33,5.72,17.33,20.03C43.66,51.52,37.94,57.13,26.55,57.13z M26.39,25.98h-3.94V47.9h3.94c4.64,0,6.21-1.4,6.21-11.34
	C32.6,27.6,31.14,25.98,26.39,25.98z M38.75,194.09h-9.18v31.04H18.83v-31.04H9.65l0.22-9.45h28.67L38.75,194.09z M38.21,272.01
	l-0.22,9.12H11.92v-40.49h25.37l0.22,9.29H22.45v6.26h12.42v8.48H22.45v7.34H38.21z M29.47,295.94c3.56,0,7.61,0.65,10.53,1.78
	l-0.97,9.02c-2.64-0.97-6.05-1.57-8.96-1.57c-6.64,0-8.15,2.48-8.15,11.61c0,9.61,1.56,11.71,6.8,11.71c0.81,0,1.67-0.05,2.43-0.22
	v-13.23h9.39v20.62c-2.81,1.35-7.4,2.21-11.55,2.21c-13.39,0-18.14-7.18-18.14-21C10.84,302.75,16.4,295.94,29.47,295.94z
	 M23.2,169.13H12.35v-40.49H23.2V169.13z M33.84,72.64h9.29v40.49h-7.5L23.53,94.45l-2.27-3.72l-0.11,0.05l0.05,4.37v17.98h-9.29
	V72.64h8.85l13.01,21l0.11-0.05l-0.11-4.32L33.84,72.64z M38.38,146.78l0.05,4.37v17.98h-9.29v-40.49H38l13.01,21l0.11-0.05
	l-0.11-4.32l0.05-16.63h9.28v40.49h-7.5l-12.09-18.68l-2.27-3.72L38.38,146.78z M71.31,197.66c0,5.4-1.94,9.39-5.51,10.9l7.88,16.57
	h-12.2l-5.4-14.47h-3.56v14.47H42v-40.49h13.98C66.24,184.64,71.31,188.53,71.31,197.66z M52.52,202.73h3.62
	c3.08,0,4.16-0.76,4.16-4.7c0-3.67-1.03-4.64-4.1-4.64h-3.67V202.73z M53.55,281.13H42.7v-40.49h10.85V281.13z M55.55,323.15
	c0,3.62,1.4,5.24,5.02,5.24c3.67,0,4.91-1.51,4.91-5.24v-26.51h10.53v26.72c0,9.5-5.07,14.47-15.44,14.47
	c-10.37,0-15.6-4.97-15.6-14.47v-26.72h10.58V323.15z M103.01,317.65l0.11-0.05l-0.11-4.32l0.05-16.63h9.29v40.49h-7.5l-12.09-18.68
	l-2.27-3.72l-0.11,0.05l0.05,4.37v17.98h-9.29v-40.49H90L103.01,317.65z M135.41,295.94c3.56,0,7.61,0.65,10.53,1.78l-0.97,9.02
	c-2.65-0.97-6.05-1.57-8.96-1.57c-6.64,0-8.15,2.48-8.15,11.61c0,9.61,1.57,11.71,6.8,11.71c0.81,0,1.67-0.05,2.43-0.22v-13.23h9.39
	v20.62c-2.81,1.35-7.4,2.21-11.55,2.21c-13.39,0-18.14-7.18-18.14-21C116.79,302.75,122.35,295.94,135.41,295.94z M122.73,240.64
	h25.37l0.22,9.29h-15.06v6.26h12.42v8.48h-12.42v7.34h15.76l-0.22,9.12h-26.07V240.64z M155.61,327.47c3.78,0,5.4,1.89,5.4,5.18
	c0,3.08-1.62,5.13-5.4,5.13c-3.78,0-5.45-1.46-5.45-5.13C150.16,329.36,151.83,327.47,155.61,327.47z M153.51,240.64h10.85v40.49
	h-10.85V240.64z M173.86,141.66c0,5.4-1.94,9.39-5.51,10.9l7.88,16.57h-12.2l-5.4-14.47h-3.56v14.47h-10.53v-40.49h13.98
	C168.78,128.64,173.86,132.53,173.86,141.66z M155.07,146.73h3.62c3.08,0,4.16-0.76,4.16-4.7c0-3.67-1.02-4.64-4.1-4.64h-3.67
	V146.73z M142,225.13v-40.49h10.53v15.66h2.81l7.5-15.66h11.82l-9.72,19.38l10.2,21.11h-12.42l-7.61-16.47h-2.59v16.47H142z
	 M139.78,137.93h-15.06v6.26h12.42v8.48h-12.42v7.34h15.76l-0.21,9.12h-26.08v-40.49h25.37L139.78,137.93z M129.53,183.94
	c2.86,0,6.37,0.65,8.53,1.51l-1.03,8.96c-1.78-0.65-4.21-1.08-6.75-1.08c-5.99,0-7.5,2.54-7.5,11.39c0,9.34,1.67,11.93,7.67,11.93
	c2.48,0,4.8-0.49,6.69-1.35l0.97,8.58c-2.43,1.19-6.1,1.94-9.23,1.94c-11.55,0-17.17-6.59-17.17-21.16
	C111.71,191.07,117.16,183.94,129.53,183.94z M117.7,253.66c0,5.4-1.94,9.39-5.51,10.9l7.88,16.57h-12.2l-5.4-14.47h-3.56v14.47
	H88.38v-40.49h13.98C112.62,240.64,117.7,244.53,117.7,253.66z M102.58,249.39h-3.67v9.34h3.62c3.08,0,4.16-0.76,4.16-4.7
	C106.68,250.36,105.66,249.39,102.58,249.39z M109.76,148.67c0,14.85-5.72,20.46-17.11,20.46H78.01v-40.49h14.41
	C104.74,128.64,109.76,134.37,109.76,148.67z M88.54,159.9h3.94c4.64,0,6.21-1.4,6.21-11.34c0-8.96-1.46-10.58-6.21-10.58h-3.94
	V159.9z M58.36,252.68c0-7.07,4.32-12.69,14.31-12.69c3.72,0,7.72,0.7,10.63,1.94l-1.19,8.8c-3.08-0.92-6.15-1.46-8.74-1.46
	c-4,0-4.86,1.19-4.86,2.92c0,5.24,16.09,3.45,16.09,16.68c0,7.99-5.4,12.96-14.52,12.96c-4.26,0-8.48-0.97-11.77-2.81l1.35-8.96
	c3.29,1.67,6.64,2.7,10.15,2.7c3.35,0,4.64-1.13,4.64-3.29C74.45,264.29,58.36,265.91,58.36,252.68z M91.4,184
	c11.88,0,16.95,6.05,16.95,20.89c0,15.22-5.07,20.95-16.95,20.95c-11.66,0-16.95-6.15-16.95-20.95C74.45,190.04,79.53,184,91.4,184z
	 M91.46,216.5c4.48,0,5.83-2,5.83-11.61c0-9.66-1.35-11.45-5.94-11.45c-4.43,0-5.83,1.84-5.83,11.45
	C85.52,214.55,86.98,216.5,91.46,216.5z M74.93,104.01l-0.22,9.12H48.64V72.64h25.37l0.22,9.29H59.17v6.26h12.42v8.48H59.17v7.34
	H74.93z M145.72,72.64v40.49h-10.58V97.26h-9.83v15.87h-10.53V72.64h10.53v15.17h9.83V72.64H145.72z M177.48,104.01l-0.22,9.12
	h-26.08V72.64h25.37l0.22,9.29h-15.06v6.26h12.42v8.48h-12.42v7.34H177.48z M192.16,261.65l0.11-0.05l-0.11-4.32l0.05-16.63h9.29
	v40.49H194l-12.09-18.68l-2.27-3.72l-0.11,0.05l0.05,4.37v17.98h-9.29v-40.49h8.85L192.16,261.65z M192.82,72.64v40.49h-10.85V72.64
	H192.82z M178.13,184.64h25.37l0.22,9.29h-15.06v6.26h12.42v8.48h-12.42v7.34h15.76l-0.22,9.12h-26.08V184.64z M196.71,72.64h28.67
	l0.22,9.45h-9.18v31.04h-10.74V82.09h-9.18L196.71,72.64z M218.3,281.13h-10.85v-40.49h10.85V281.13z M217.71,202.78l0.05,4.37
	v17.98h-9.29v-40.49h8.85l13.01,21l0.11-0.05l-0.11-4.32l0.05-16.63h9.29v40.49h-7.5l-12.09-18.68l-2.27-3.72L217.71,202.78z
	 M238.55,264.4h-15.06v-7.02h15.06V264.4z"/>
</svg>
