<?xml version="1.0" encoding="utf-8"?>
<!-- Generator: Adobe Illustrator 23.1.1, SVG Export Plug-In . SVG Version: 6.00 Build 0)  -->
<!DOCTYPE svg PUBLIC "-//W3C//DTD SVG 1.1//EN" "http://www.w3.org/Graphics/SVG/1.1/DTD/svg11.dtd" [
	<!ENTITY ns_extend "http://ns.adobe.com/Extensibility/1.0/">
	<!ENTITY ns_ai "http://ns.adobe.com/AdobeIllustrator/10.0/">
	<!ENTITY ns_graphs "http://ns.adobe.com/Graphs/1.0/">
	<!ENTITY ns_vars "http://ns.adobe.com/Variables/1.0/">
	<!ENTITY ns_imrep "http://ns.adobe.com/ImageReplacement/1.0/">
	<!ENTITY ns_sfw "http://ns.adobe.com/SaveForWeb/1.0/">
	<!ENTITY ns_custom "http://ns.adobe.com/GenericCustomNamespace/1.0/">
	<!ENTITY ns_adobe_xpath "http://ns.adobe.com/XPath/1.0/">
]>
<svg version="1.1" id="Ebene_1" xmlns:x="&ns_extend;" xmlns:i="&ns_ai;" xmlns:graph="&ns_graphs;"
	 xmlns="http://www.w3.org/2000/svg" xmlns:xlink="http://www.w3.org/1999/xlink" x="0px" y="0px" viewBox="0 0 245.68 60.76"
	 style="enable-background:new 0 0 245.68 60.76;" xml:space="preserve">
<style type="text/css">
	.st0{fill-rule:evenodd;clip-rule:evenodd;}
</style>
<metadata>
	<sfw  xmlns="&ns_sfw;">
		<slices></slices>
		<sliceSourceBounds  bottomLeftOrigin="true" height="54.33" width="196.47" x="5.63" y="-57.16"></sliceSourceBounds>
	</sfw>
</metadata>
<path class="st0" d="M200.36,57.13c-1.22,0-1.76-0.47-1.76-1.65c0-1.06,0.54-1.67,1.76-1.67c1.22,0,1.74,0.61,1.74,1.67
	C202.1,56.47,201.58,57.13,200.36,57.13z M193.23,37.89V24.85h3.43v10.02h4.44L201,37.89H193.23z M191.78,12.85l-0.73-1.2
	l-0.03,0.02l0.02,1.41v5.79h-2.99V5.83h2.85l4.19,6.77l0.03-0.02l-0.03-1.39l0.02-5.36h2.99v13.04h-2.42L191.78,12.85z
	 M186.74,15.93l-0.07,2.94h-8.4V5.83h8.17l0.07,2.99h-4.85v2.02h4v2.73h-4v2.37H186.74z M172.32,11.17h3.98l-0.02,2.89h-3.97v4.82
	h-3.41V5.83h8.16l0.05,3.04h-4.8V11.17z M162.29,19.1c-3.34,0-5.03-1.6-5.03-4.66V5.83h3.41v8.54c0,1.17,0.45,1.69,1.62,1.69
	c1.18,0,1.58-0.49,1.58-1.69V5.83h3.39v8.61C167.26,17.5,165.62,19.1,162.29,19.1z M152.75,16.59h-3.55l-0.5,2.28h-3.6l3.86-13.04
	h4.16l3.93,13.04h-3.79L152.75,16.59z M151.29,10.02l-0.26-1.39h-0.05l-0.3,1.39l-0.83,3.74h2.28L151.29,10.02z M141.07,18.87
	l-2.45-5.3h-0.83v5.3h-3.39V5.83h3.39v5.04h0.9l2.42-5.04h3.81l-3.13,6.24l3.29,6.8H141.07z M138.37,24.64
	c1.2,0,2.49,0.23,3.43,0.63l-0.38,2.83c-0.99-0.3-1.98-0.47-2.82-0.47c-1.29,0-1.57,0.38-1.57,0.94c0,1.69,5.18,1.11,5.18,5.37
	c0,2.57-1.74,4.17-4.68,4.17c-1.37,0-2.73-0.31-3.79-0.9l0.43-2.89c1.06,0.54,2.14,0.87,3.27,0.87c1.08,0,1.5-0.37,1.5-1.06
	c0-1.67-5.18-1.15-5.18-5.41C133.76,26.45,135.15,24.64,138.37,24.64z M128.86,38.14c-4.31,0-5.84-2.31-5.84-6.77
	c0-4.56,1.79-6.75,6-6.75c1.15,0,2.45,0.21,3.39,0.57l-0.31,2.9c-0.85-0.31-1.95-0.5-2.89-0.5c-2.14,0-2.63,0.8-2.63,3.74
	c0,3.1,0.5,3.77,2.19,3.77c0.26,0,0.54-0.02,0.78-0.07v-4.26h3.03v6.64C131.67,37.86,130.2,38.14,128.86,38.14z M126.47,18.87h-3.46
	v-10h-2.96l0.07-3.04h9.24l0.07,3.04h-2.96V18.87z M116.72,5.2c-0.85,0-1.29-0.33-1.29-1.17c0-0.78,0.43-1.2,1.29-1.2
	c0.89,0,1.29,0.42,1.29,1.2C118,4.8,117.6,5.2,116.72,5.2z M113.39,5.2c-0.85,0-1.29-0.33-1.29-1.17c0-0.78,0.43-1.2,1.29-1.2
	c0.89,0,1.29,0.42,1.29,1.2C114.68,4.8,114.28,5.2,113.39,5.2z M112.99,5.83h4.16l3.93,13.04h-3.79l-0.5-2.28h-3.55l-0.5,2.28h-3.53
	h-0.07h-3.86l-1.74-4.66h-1.15v4.66h-3.39V5.83h4.5c3.3,0,4.94,1.25,4.94,4.19c0,1.74-0.63,3.03-1.77,3.51l2.5,5.25L112.99,5.83z
	 M116.16,13.76l-0.83-3.74l-0.26-1.39h-0.05l-0.3,1.39l-0.83,3.74H116.16z M103.57,8.64h-1.18v3.01h1.16c0.99,0,1.34-0.24,1.34-1.51
	C104.89,8.96,104.56,8.64,103.57,8.64z M94.73,38.14c-4.31,0-5.84-2.31-5.84-6.77c0-4.56,1.79-6.75,6-6.75
	c1.15,0,2.45,0.21,3.39,0.57l-0.31,2.9c-0.85-0.31-1.95-0.5-2.89-0.5c-2.14,0-2.63,0.8-2.63,3.74c0,3.1,0.5,3.77,2.19,3.77
	c0.26,0,0.54-0.02,0.78-0.07v-4.26h3.03v6.64C97.55,37.86,96.07,38.14,94.73,38.14z M97.69,15.93l-0.07,2.94h-8.4V5.83h8.17
	l0.07,2.99h-4.85v2.02h4v2.73h-4v2.37H97.69z M83.95,19.11c-4.31,0-5.84-2.31-5.84-6.77c0-4.56,1.79-6.75,6-6.75
	c1.15,0,2.45,0.21,3.39,0.57l-0.31,2.9c-0.85-0.31-1.95-0.5-2.89-0.5c-2.14,0-2.63,0.8-2.63,3.74c0,3.1,0.5,3.77,2.19,3.77
	c0.26,0,0.54-0.02,0.78-0.07v-4.26h3.03v6.64C86.77,18.84,85.29,19.11,83.95,19.11z M72.56,19.1c-1.37,0-2.73-0.31-3.79-0.9
	l0.43-2.89c1.06,0.54,2.14,0.87,3.27,0.87c1.08,0,1.5-0.37,1.5-1.06c0-1.67-5.18-1.15-5.18-5.41c0-2.28,1.39-4.09,4.61-4.09
	c1.2,0,2.49,0.23,3.43,0.63l-0.38,2.83c-0.99-0.3-1.98-0.47-2.82-0.47c-1.29,0-1.56,0.38-1.56,0.94c0,1.69,5.18,1.11,5.18,5.37
	C77.23,17.5,75.49,19.1,72.56,19.1z M61.06,12.85l-0.73-1.2l-0.03,0.02l0.02,1.41v5.79h-2.99V5.83h2.85l4.19,6.77l0.03-0.02
	l-0.03-1.39l0.02-5.36h2.99v13.04h-2.42L61.06,12.85z M64.78,27.84h-4.85v2.02h4v2.73h-4v2.37h5.08l-0.07,2.94h-8.4V24.85h8.17
	L64.78,27.84z M50.43,19.1c-3.76,0-5.46-1.98-5.46-6.75c0-4.78,1.63-6.73,5.46-6.73s5.46,1.95,5.46,6.73
	C55.89,17.25,54.26,19.1,50.43,19.1z M50.41,8.66c-1.43,0-1.88,0.59-1.88,3.69c0,3.11,0.47,3.74,1.91,3.74s1.88-0.64,1.88-3.74
	C52.33,9.23,51.89,8.66,50.41,8.66z M39.91,5.83h3.5v13.04h-3.5V5.83z M35.77,18.87h-3.46v-10h-2.96l0.07-3.04h9.24l0.07,3.04h-2.96
	V18.87z M25.13,18.87l-2.45-5.3h-0.83v5.3h-3.39V5.83h3.39v5.04h0.9l2.42-5.04h3.81l-3.13,6.24l3.29,6.8H25.13z M25.13,31.62
	l0.03-0.02l-0.03-1.39l0.02-5.36h2.99v13.04h-2.42l-3.9-6.02l-0.73-1.2l-0.03,0.02l0.02,1.41v5.79h-2.99V24.85h2.85L25.13,31.62z
	 M13.28,16.59H9.73l-0.5,2.28h-3.6L9.49,5.83h4.16l3.93,13.04h-3.79L13.28,16.59z M11.82,10.02l-0.26-1.39h-0.05l-0.3,1.39
	l-0.83,3.74h2.28L11.82,10.02z M12.2,43.65c1.15,0,2.45,0.21,3.39,0.57l-0.31,2.9c-0.85-0.31-1.95-0.5-2.89-0.5
	c-2.14,0-2.63,0.8-2.63,3.74c0,3.1,0.5,3.77,2.19,3.77c0.26,0,0.54-0.02,0.78-0.07V49.8h3.03v6.64c-0.9,0.43-2.38,0.71-3.72,0.71
	c-4.31,0-5.84-2.31-5.84-6.77C6.2,45.84,7.99,43.65,12.2,43.65z M16.43,24.85v8.61c0,3.06-1.63,4.66-4.97,4.66
	c-3.34,0-5.03-1.6-5.03-4.66v-8.61h3.41v8.54c0,1.17,0.45,1.69,1.62,1.69c1.18,0,1.58-0.49,1.58-1.69v-8.54H16.43z M26.76,48.07
	c0,1.74-0.63,3.03-1.77,3.51l2.5,5.25l3.83-12.95h4.16l3.93,13.04h-3.79l-0.5-2.28h-3.55l-0.5,2.28h-3.53h-0.07h-3.86l-1.74-4.66
	h-1.15v4.66h-3.39V43.87h4.5C25.13,43.87,26.76,45.13,26.76,48.07z M34.48,51.8l-0.83-3.74l-0.26-1.39h-0.05l-0.3,1.39L32.2,51.8
	H34.48z M20.71,49.7h1.17c0.99,0,1.34-0.24,1.34-1.51c0-1.18-0.33-1.5-1.32-1.5h-1.18V49.7z M34.62,37.89h-4.71V24.85h4.64
	c3.97,0,5.58,1.84,5.58,6.45C40.14,36.09,38.29,37.89,34.62,37.89z M34.57,27.86H33.3v7.06h1.27c1.5,0,2-0.45,2-3.65
	C36.57,28.38,36.1,27.86,34.57,27.86z M38.45,43.87h9.24l0.07,3.04H44.8v10h-3.46v-10h-2.96L38.45,43.87z M45.48,37.89V24.85h4.5
	c3.3,0,4.94,1.25,4.94,4.19c0,1.74-0.63,3.03-1.77,3.51l2.54,5.34h-3.93l-1.74-4.66h-1.15v4.66H45.48z M50.03,30.68
	c0.99,0,1.34-0.24,1.34-1.51c0-1.18-0.33-1.5-1.32-1.5h-1.18v3.01H50.03z M52.43,56.92h-3.5V43.87h3.5V56.92z M57.67,54.22
	c1.08,0,1.5-0.37,1.5-1.06c0-1.67-5.18-1.15-5.18-5.41c0-2.28,1.39-4.09,4.61-4.09c1.2,0,2.49,0.23,3.43,0.63l-0.38,2.83
	c-0.99-0.3-1.98-0.47-2.82-0.47c-1.29,0-1.57,0.38-1.57,0.94c0,1.69,5.18,1.11,5.18,5.37c0,2.57-1.74,4.17-4.68,4.17
	c-1.37,0-2.73-0.31-3.79-0.9l0.43-2.89C55.46,53.89,56.54,54.22,57.67,54.22z M69.95,37.89h-3.5V24.85h3.5V37.89z M77.79,50.33
	c0,4.78-1.84,6.59-5.51,6.59h-4.71V43.87h4.64C76.17,43.87,77.79,45.72,77.79,50.33z M70.96,53.94h1.27c1.5,0,2-0.45,2-3.65
	c0-2.89-0.47-3.41-2-3.41h-1.27V53.94z M78.92,24.85h2.99v13.04H79.5l-3.9-6.02l-0.73-1.2l-0.03,0.02l0.02,1.41v5.79h-2.99V24.85
	h2.85l4.19,6.77l0.03-0.02l-0.03-1.39L78.92,24.85z M83.83,24.85h3.5v13.04h-3.5V24.85z M85.83,43.87l3.93,13.04h-3.79l-0.5-2.28
	h-3.55l-0.5,2.28h-3.6l3.86-13.04H85.83z M84.83,51.8L84,48.07l-0.26-1.39h-0.05l-0.3,1.39l-0.83,3.74H84.83z M95.08,46.95
	l-0.02-0.03h-4.8l0.09-3.04h8.71v2.43l-4.02,6.4l-0.77,1.13l0.02,0.05h4.8l-0.05,3.03h-8.89v-2.21l4.16-6.61L95.08,46.95z
	 M103.29,33.39c0,1.17,0.45,1.69,1.62,1.69c1.18,0,1.58-0.49,1.58-1.69v-8.54h3.39v8.61c0,3.06-1.63,4.66-4.97,4.66
	c-3.34,0-5.03-1.6-5.03-4.66v-8.61h3.41V33.39z M103.58,52.41c0,1.17,0.45,1.69,1.62,1.69c1.18,0,1.58-0.49,1.58-1.69v-8.54h3.39
	v8.61c0,3.06-1.63,4.66-4.97,4.66c-3.34,0-5.03-1.6-5.03-4.66v-8.61h3.41V52.41z M118.58,31.62l0.03-0.02l-0.03-1.39l0.02-5.36h2.99
	v13.04h-2.42l-3.9-6.02l-0.73-1.2l-0.03,0.02l0.02,1.41v5.79h-2.99V24.85h2.85L118.58,31.62z M123.99,46.86h-4.85v2.02h4v2.73h-4
	v2.37h5.08l-0.07,2.94h-8.4V43.87h8.17L123.99,46.86z M134.96,48.07c0,1.74-0.63,3.03-1.77,3.51l2.54,5.34h-3.93l-1.74-4.66h-1.15
	v4.66h-3.39V43.87h4.5C133.33,43.87,134.96,45.13,134.96,48.07z M128.91,49.7h1.17c0.99,0,1.34-0.24,1.34-1.51
	c0-1.18-0.33-1.5-1.32-1.5h-1.18V49.7z M139.97,48.76h3.17v-4.89h3.41v13.04h-3.41V51.8h-3.17v5.11h-3.39V43.87h3.39V48.76z
	 M146.39,31.04l0.02,1.41v5.44h-2.97V24.85h3.74l2.3,6.59l0.43,1.34h0.05l0.43-1.32l2.33-6.61h3.76v13.04h-3.11v-5.46l0.03-1.41
	l-0.05-0.02l-0.43,1.36l-1.93,5.53h-2.21l-1.91-5.51l-0.43-1.36L146.39,31.04z M155.4,43.87l3.93,13.04h-3.79l-0.5-2.28h-3.55
	l-0.5,2.28h-3.6l3.86-13.04H155.4z M154.41,51.8l-0.83-3.74l-0.26-1.39h-0.05l-0.3,1.39l-0.83,3.74H154.41z M158.39,24.85h3.5v13.04
	h-3.5V24.85z M163.62,53.89h4.44l-0.09,3.03h-7.77V43.87h3.43V53.89z M166.03,37.89v-10h-2.96l0.07-3.04h9.24l0.07,3.04h-2.96v10
	H166.03z M167.02,43.87h9.24l0.07,3.04h-2.96v10h-3.46v-10h-2.96L167.02,43.87z M175.99,37.89v-10h-2.96l0.07-3.04h9.24l0.07,3.04
	h-2.96v10H175.99z M185.61,46.86h-4.85v2.02h4v2.73h-4v2.37h5.08l-0.07,2.94h-8.4V43.87h8.17L185.61,46.86z M191.92,34.95
	l-0.07,2.94h-8.4V24.85h8.17l0.07,2.99h-4.85v2.02h4v2.73h-4v2.37H191.92z M194.18,50.64l0.03-0.02l-0.03-1.39l0.02-5.36h2.99v13.04
	h-2.42l-3.9-6.02l-0.73-1.2l-0.03,0.02l0.02,1.41v5.79h-2.99V43.87h2.85L194.18,50.64z"/>
</svg>
