<?xml version="1.0" encoding="utf-8"?>
<!-- Generator: Adobe Illustrator 23.1.1, SVG Export Plug-In . SVG Version: 6.00 Build 0)  -->
<!DOCTYPE svg PUBLIC "-//W3C//DTD SVG 1.1//EN" "http://www.w3.org/Graphics/SVG/1.1/DTD/svg11.dtd" [
	<!ENTITY ns_extend "http://ns.adobe.com/Extensibility/1.0/">
	<!ENTITY ns_ai "http://ns.adobe.com/AdobeIllustrator/10.0/">
	<!ENTITY ns_graphs "http://ns.adobe.com/Graphs/1.0/">
	<!ENTITY ns_vars "http://ns.adobe.com/Variables/1.0/">
	<!ENTITY ns_imrep "http://ns.adobe.com/ImageReplacement/1.0/">
	<!ENTITY ns_sfw "http://ns.adobe.com/SaveForWeb/1.0/">
	<!ENTITY ns_custom "http://ns.adobe.com/GenericCustomNamespace/1.0/">
	<!ENTITY ns_adobe_xpath "http://ns.adobe.com/XPath/1.0/">
]>
<svg version="1.1" id="Ebene_1" xmlns:x="&ns_extend;" xmlns:i="&ns_ai;" xmlns:graph="&ns_graphs;"
	 xmlns="http://www.w3.org/2000/svg" xmlns:xlink="http://www.w3.org/1999/xlink" x="0px" y="0px" viewBox="0 0 245.68 60.76"
	 style="enable-background:new 0 0 245.68 60.76;" xml:space="preserve">
<style type="text/css">
	.st0{fill-rule:evenodd;clip-rule:evenodd;}
</style>
<metadata>
	<sfw  xmlns="&ns_sfw;">
		<slices></slices>
		<sliceSourceBounds  bottomLeftOrigin="true" height="50.3" width="232.55" x="5.26" y="-54.8"></sliceSourceBounds>
	</sfw>
</metadata>
<path class="st0" d="M234.95,54.77c-2.01,0-2.89-0.77-2.89-2.69c0-1.73,0.89-2.72,2.89-2.72s2.87,0.99,2.87,2.72
	C237.81,53.69,236.95,54.77,234.95,54.77z M217.87,54.43V33.18h5.65V49.5h7.31l-0.14,4.93H217.87z M215.72,49.64l-0.11,4.79h-13.84
	V33.18h13.47l0.11,4.87h-7.99v3.29h6.59v4.45h-6.59v3.85H215.72z M197.64,26.46c-2.26,0-4.5-0.51-6.25-1.47l0.72-4.7
	c1.75,0.88,3.52,1.42,5.39,1.42c1.78,0,2.46-0.6,2.46-1.73c0-2.72-8.54-1.87-8.54-8.81c0-3.71,2.29-6.66,7.59-6.66
	c1.98,0,4.1,0.37,5.65,1.02l-0.63,4.62c-1.63-0.48-3.27-0.77-4.64-0.77c-2.12,0-2.58,0.62-2.58,1.53c0,2.75,8.54,1.81,8.54,8.76
	C205.35,23.85,202.48,26.46,197.64,26.46z M182.25,47.82h-1.78v6.6h-5.59V33.18h7.36c5.96,0,8.34,2.3,8.34,7.48
	C190.59,45.25,188.27,47.82,182.25,47.82z M182.25,37.79h-1.78v5.64h1.78c1.83,0,2.52-0.43,2.52-2.81
	C184.78,38.33,184.23,37.79,182.25,37.79z M189.88,21.3l-0.11,4.79h-13.84V4.84h13.47l0.11,4.87h-7.99V13h6.59v4.45h-6.59v3.85
	H189.88z M169.33,26.09h-5.7V9.8h-4.87l0.11-4.96h15.21l0.11,4.96h-4.87V26.09z M151.79,26.09l-4.04-8.64h-1.38v8.64h-5.59V4.84
	h5.59v8.22h1.49l3.98-8.22h6.28l-5.16,10.17l5.42,11.08H151.79z M151.68,44.2l0.06-0.03l-0.06-2.27l0.03-8.73h4.93v21.25h-3.98
	l-6.42-9.8l-1.2-1.96l-0.06,0.03l0.03,2.3v9.44h-4.93V33.18h4.7L151.68,44.2z M138.64,21.3l-0.11,4.79h-13.84V4.84h13.47l0.11,4.87
	h-7.99V13h6.59v4.45h-6.59v3.85H138.64z M137.55,38.05h-7.99v3.29h6.59v4.45h-6.59v3.85h8.37l-0.11,4.79h-13.84V33.18h13.47
	L137.55,38.05z M114.89,13.54h6.56l-0.03,4.7h-6.53v7.85h-5.62V4.84h13.44l0.09,4.96h-7.91V13.54z M101.39,26.09l-2.87-7.59h-1.89
	v7.59h-5.59V4.84h7.42c5.44,0,8.14,2.04,8.14,6.83c0,2.83-1.03,4.93-2.92,5.72l4.18,8.7H101.39z M98.59,9.43h-1.95v4.9h1.92
	c1.63,0,2.21-0.4,2.21-2.47C100.76,9.94,100.22,9.43,98.59,9.43z M96.64,54.43h-5.13v-8.9l0.06-2.3l-0.09-0.03l-0.72,2.21
	l-3.18,9.01h-3.64l-3.15-8.98l-0.72-2.21l-0.06,0.03l0.03,2.3v8.87h-4.9V33.18h6.16l3.78,10.74l0.72,2.18h0.09l0.72-2.15l3.84-10.77
	h6.19V54.43z M88.9,21.3l-0.11,4.79H74.95V4.84h13.47l0.11,4.87h-7.99V13h6.59v4.45h-6.59v3.85H88.9z M66.64,50.71h-5.85l-0.83,3.71
	h-5.93l6.36-21.25h6.85l6.48,21.25h-6.25L66.64,50.71z M64.23,40l-0.43-2.27h-0.09L63.23,40l-1.38,6.09h3.75L64.23,40z M64.57,19.49
	H62.8v6.6h-5.59V4.84h7.36c5.96,0,8.34,2.3,8.34,7.48C72.91,16.91,70.59,19.49,64.57,19.49z M64.57,9.46H62.8v5.64h1.78
	c1.83,0,2.52-0.43,2.52-2.81C67.1,10,66.55,9.46,64.57,9.46z M46.38,54.8c-2.26,0-4.5-0.51-6.25-1.47l0.72-4.7
	c1.75,0.88,3.52,1.42,5.39,1.42c1.78,0,2.46-0.6,2.46-1.73c0-2.72-8.54-1.87-8.54-8.81c0-3.71,2.29-6.66,7.59-6.66
	c1.98,0,4.1,0.37,5.65,1.02l-0.63,4.62c-1.63-0.48-3.27-0.77-4.64-0.77c-2.12,0-2.58,0.62-2.58,1.53c0,2.75,8.54,1.81,8.54,8.76
	C54.09,52.19,51.22,54.8,46.38,54.8z M37.44,16.29l-1.2-1.96l-0.06,0.03l0.03,2.3v9.44h-4.93V4.84h4.7l6.91,11.02l0.06-0.03
	l-0.06-2.27l0.03-8.73h4.93v21.25h-3.98L37.44,16.29z M32.65,33.18h5.59V47.2c0,4.99-2.69,7.59-8.19,7.59s-8.28-2.61-8.28-7.59
	V33.18h5.62v13.91c0,1.9,0.74,2.75,2.66,2.75c1.95,0,2.61-0.79,2.61-2.75V33.18z M22.37,4.84h5.76v21.25h-5.76V4.84z M5.26,54.43
	v-3.6l6.85-10.77l1.26-1.87l-0.03-0.06H5.43l0.14-4.96h14.36v3.97l-6.62,10.43l-1.26,1.84l0.03,0.09h7.91l-0.09,4.93H5.26z
	 M19.99,21.3l-0.11,4.79H6.04V4.84H19.5l0.11,4.87h-7.99V13h6.59v4.45h-6.59v3.85H19.99z M109.5,43.91l0.72,2.18h0.09l0.72-2.15
	l3.84-10.77h6.19v21.25h-5.13v-8.9l0.06-2.3l-0.09-0.03l-0.72,2.21L112,54.43h-3.64l-3.15-8.98l-0.72-2.21l-0.06,0.03l0.03,2.3v8.87
	h-4.9V33.18h6.16L109.5,43.91z M165.03,50.03c1.78,0,2.46-0.6,2.46-1.73c0-2.72-8.54-1.87-8.54-8.81c0-3.71,2.29-6.66,7.59-6.66
	c1.98,0,4.1,0.37,5.65,1.02l-0.63,4.62c-1.63-0.48-3.27-0.77-4.64-0.77c-2.12,0-2.58,0.62-2.58,1.53c0,2.75,8.54,1.81,8.54,8.76
	c0,4.19-2.87,6.8-7.71,6.8c-2.26,0-4.5-0.51-6.25-1.47l0.72-4.7C161.39,49.5,163.17,50.03,165.03,50.03z M198.62,54.43h-5.76V33.18
	h5.76V54.43z"/>
</svg>
