<?xml version="1.0" encoding="utf-8"?>
<!-- Generator: Adobe Illustrator 23.1.1, SVG Export Plug-In . SVG Version: 6.00 Build 0)  -->
<svg version="1.1" xmlns="http://www.w3.org/2000/svg" xmlns:xlink="http://www.w3.org/1999/xlink" x="0px" y="0px"
	 viewBox="0 0 128 54" style="enable-background:new 0 0 128 54;" xml:space="preserve">
<style type="text/css">
	.st0{fill:none;}
</style>
<g id="Boundingbox">
	<rect x="0" class="st0" width="128" height="54"/>
</g>
<g id="Logo">
	<g>
		<rect id="Grafik" x="14" y="32" width="100" height="8"/>
		<g id="Wortmarke">
			<path d="M53.04,19.05c0,1.29-0.51,1.62-1.76,1.62h-1.78v-3.11h1.8C52.6,17.55,53.04,17.9,53.04,19.05L53.04,19.05z M57.49,18.88
				c0-3.03-2.12-4.5-6.12-4.5h-6.12V28h4.25v-4.49h1.76L53.56,28h5.01l-3.49-5.3C56.61,22.15,57.49,20.64,57.49,18.88L57.49,18.88z"
				/>
			<polygon points="91.73,24.64 91.73,22.57 97.27,22.57 97.27,19.59 91.73,19.59 91.73,17.77 98.43,17.77 98.36,14.38 87.48,14.38 
				87.48,28 98.63,28 98.71,24.64 			"/>
			<polygon points="84.92,28 84.92,14.38 80.69,14.38 80.69,19.41 76.16,19.41 76.16,14.38 71.91,14.38 71.91,28 76.16,28 
				76.16,22.88 80.69,22.88 80.69,28 			"/>
			<path d="M69.94,14.68c-0.98-0.33-2.38-0.56-3.67-0.56c-5.23,0-7.56,2.71-7.56,7.01c0,4.65,2.47,7.12,7.19,7.12
				c1.4,0,2.92-0.33,4.07-0.84l-0.45-3.12c-0.87,0.34-1.93,0.56-3.05,0.56c-2.6,0-3.27-0.89-3.27-3.71c0-2.67,0.62-3.56,3.23-3.56
				c1.22,0,2.23,0.18,3.09,0.42L69.94,14.68z"/>
			<path d="M108.46,19.05c0,1.29-0.51,1.62-1.76,1.62h-1.78v-3.11h1.8C108.02,17.55,108.46,17.9,108.46,19.05L108.46,19.05z
				 M112.91,18.88c0-3.03-2.12-4.5-6.12-4.5h-6.12V28h4.25v-4.49h1.76l2.31,4.49H114l-3.49-5.3
				C112.04,22.15,112.91,20.64,112.91,18.88L112.91,18.88z"/>
			<path d="M37.44,22.55h-3.12l1.14-3.56l0.42-1.42h0.05l0.4,1.42L37.44,22.55z M43.91,28l-5.52-13.62h-4.92L28.05,28h4.52
				l0.73-2.29h5.12L39.13,28H43.91z"/>
			<rect x="28.42" y="14.37" width="3.16" height="2.89"/>
			<rect x="40.28" y="14.37" width="3.16" height="2.89"/>
			<polygon points="22.9,14.38 19.61,19.48 18.25,19.48 18.25,14.38 14,14.38 14,28 18.25,28 18.25,22.68 19.56,22.68 22.86,28 
				28.04,28 23.34,20.82 27.79,14.38 			"/>
		</g>
	</g>
</g>
</svg>
