<?xml version="1.0" encoding="utf-8"?>
<!-- Generator: Adobe Illustrator 23.1.1, SVG Export Plug-In . SVG Version: 6.00 Build 0)  -->
<!DOCTYPE svg PUBLIC "-//W3C//DTD SVG 1.1//EN" "http://www.w3.org/Graphics/SVG/1.1/DTD/svg11.dtd" [
	<!ENTITY ns_extend "http://ns.adobe.com/Extensibility/1.0/">
	<!ENTITY ns_ai "http://ns.adobe.com/AdobeIllustrator/10.0/">
	<!ENTITY ns_graphs "http://ns.adobe.com/Graphs/1.0/">
	<!ENTITY ns_vars "http://ns.adobe.com/Variables/1.0/">
	<!ENTITY ns_imrep "http://ns.adobe.com/ImageReplacement/1.0/">
	<!ENTITY ns_sfw "http://ns.adobe.com/SaveForWeb/1.0/">
	<!ENTITY ns_custom "http://ns.adobe.com/GenericCustomNamespace/1.0/">
	<!ENTITY ns_adobe_xpath "http://ns.adobe.com/XPath/1.0/">
]>
<svg version="1.1" id="Ebene_1" xmlns:x="&ns_extend;" xmlns:i="&ns_ai;" xmlns:graph="&ns_graphs;"
	 xmlns="http://www.w3.org/2000/svg" xmlns:xlink="http://www.w3.org/1999/xlink" x="0px" y="0px" viewBox="0 0 88.86 69.04"
	 style="enable-background:new 0 0 88.86 69.04;" xml:space="preserve">
<style type="text/css">
	.st0{fill-rule:evenodd;clip-rule:evenodd;}
</style>
<metadata>
	<sfw  xmlns="&ns_sfw;">
		<slices></slices>
		<sliceSourceBounds  bottomLeftOrigin="true" height="59.97" width="79.6" x="4.99" y="-27.15"></sliceSourceBounds>
	</sfw>
</metadata>
<path class="st0" d="M78.04,30.05v-9.94h-6.08v9.94h-6.51V4.7h6.51v9.5h6.08V4.7h6.55v25.35H78.04z M63.11,22.38
	c0,5-3.34,8.12-8.98,8.12c-2.64,0-5.24-0.61-7.28-1.76l0.83-5.61c2.04,1.05,4.11,1.69,6.28,1.69c2.07,0,2.87-0.71,2.87-2.06
	c0-3.24-9.96-2.23-9.96-10.51c0-4.43,2.67-7.94,8.85-7.94c2.3,0,4.78,0.44,6.58,1.22l-0.73,5.51c-1.9-0.58-3.81-0.91-5.41-0.91
	c-2.47,0-3.01,0.75-3.01,1.82C53.16,15.21,63.11,14.1,63.11,22.38z M35.08,30.49c-6.41,0-9.65-3.11-9.65-9.06V4.7h6.55v16.6
	c0,2.26,0.87,3.28,3.11,3.28c2.27,0,3.04-0.95,3.04-3.28V4.7h6.51v16.73C44.64,27.38,41.5,30.49,35.08,30.49z M13.58,22.18H11.5
	v7.88H4.99V4.7h8.58c6.95,0,9.72,2.74,9.72,8.92C23.29,19.1,20.59,22.18,13.58,22.18z M13.58,10.21H11.5v6.73h2.07
	c2.14,0,2.94-0.51,2.94-3.35C16.51,10.85,15.88,10.21,13.58,10.21z M11.97,63.86H5.26V38.5h6.71L11.97,63.86L11.97,63.86z
	 M32.11,38.5l0.13,5.92h-5.68v19.44h-6.65V44.42h-5.68l0.13-5.92C14.38,38.5,32.11,38.5,32.11,38.5z M34.02,57.81
	c2.34,0,3.34,1.18,3.34,3.24c0,1.93-1,3.21-3.34,3.21c-2.34,0-3.38-0.91-3.38-3.21C30.64,58.99,31.68,57.81,34.02,57.81z"/>
</svg>
