<?xml version="1.0" encoding="utf-8"?>
<!-- Generator: Adobe Illustrator 23.1.1, SVG Export Plug-In . SVG Version: 6.00 Build 0)  -->
<!DOCTYPE svg PUBLIC "-//W3C//DTD SVG 1.1//EN" "http://www.w3.org/Graphics/SVG/1.1/DTD/svg11.dtd" [
	<!ENTITY ns_extend "http://ns.adobe.com/Extensibility/1.0/">
	<!ENTITY ns_ai "http://ns.adobe.com/AdobeIllustrator/10.0/">
	<!ENTITY ns_graphs "http://ns.adobe.com/Graphs/1.0/">
	<!ENTITY ns_vars "http://ns.adobe.com/Variables/1.0/">
	<!ENTITY ns_imrep "http://ns.adobe.com/ImageReplacement/1.0/">
	<!ENTITY ns_sfw "http://ns.adobe.com/SaveForWeb/1.0/">
	<!ENTITY ns_custom "http://ns.adobe.com/GenericCustomNamespace/1.0/">
	<!ENTITY ns_adobe_xpath "http://ns.adobe.com/XPath/1.0/">
]>
<svg version="1.1" id="Ebene_1" xmlns:x="&ns_extend;" xmlns:i="&ns_ai;" xmlns:graph="&ns_graphs;"
	 xmlns="http://www.w3.org/2000/svg" xmlns:xlink="http://www.w3.org/1999/xlink" x="0px" y="0px" viewBox="0 0 397.5 118.3"
	 style="enable-background:new 0 0 397.5 118.3;" xml:space="preserve">
<style type="text/css">
	.st0{fill-rule:evenodd;clip-rule:evenodd;}
</style>
<metadata>
	<sfw  xmlns="&ns_sfw;">
		<slices></slices>
		<sliceSourceBounds  bottomLeftOrigin="true" height="94.8" width="348.1" x="-125.9" y="95.2"></sliceSourceBounds>
	</sfw>
</metadata>
<path class="st0" d="M380.3,38.9L372.6,27l-1.4-2.4l-0.1,0l0,2.8v11.4h-5.9V13.2h5.6l8.3,13.4l0.1,0l-0.1-2.7l0-10.6h5.9v25.8H380.3
	z M362.7,33.1l-0.1,5.8h-16.6V13.2h16.2l0.1,5.9h-9.6v4h7.9v5.4h-7.9v4.7H362.7z M351.5,60.8l-0.1-2.7l0-10.6h5.9v25.8h-4.8
	l-7.7-11.9l-1.4-2.4l-0.1,0l0,2.8v11.4h-5.9V47.5h5.6L351.5,60.8L351.5,60.8z M332.8,39.4c-6.6,0-9.9-3.2-9.9-9.2v-17h6.7V30
	c0,2.3,0.9,3.3,3.2,3.3c2.3,0,3.1-1,3.1-3.3V13.2h6.7v17C342.7,36.2,339.4,39.4,332.8,39.4z M324.5,67.7c2.3,0,3.1-1,3.1-3.3V47.5
	h6.7v17c0,6-3.2,9.2-9.8,9.2c-6.6,0-9.9-3.2-9.9-9.2v-17h6.7v16.9C321.3,66.7,322.2,67.7,324.5,67.7z M320.6,33.1l-0.1,5.8h-16.6
	V13.2H320l0.1,5.9h-9.6v4h7.9v5.4h-7.9v4.7H320.6z M303.8,65.5c0,4.9-3.1,8.1-9.7,8.1c-2.8,0-5.4-0.8-7.1-1.8l1.1-5.1
	c1.9,0.9,3.7,1.4,5.7,1.4c2.4,0,3.5-1,3.5-2.8c0-1.7-0.9-3-5.5-3v-4.6c4.4,0,5.4-1,5.4-2.7c0-1.3-0.9-2.1-3.2-2.1
	c-2.2,0-4.2,0.8-5.8,2.1l-1.5-5.1c1.9-1.5,4.8-2.5,7.8-2.5c5.6,0,8.8,2.7,8.8,7.3c0,2.3-1.1,4.2-3.1,5.3v0.1
	C302.6,60.9,303.8,62.8,303.8,65.5z M287.9,27l-1.4-2.4l-0.1,0l0,2.8v11.4h-5.9V13.2h5.6l8.3,13.4l0.1,0l-0.1-2.7l0-10.6h5.9v25.8
	h-4.8L287.9,27z M282.5,73.3h-12.9v-4.6h3.1V55.3l-3.9,2.2l-0.7-5.2l7.5-4.7h3.9v21.1h3.1V73.3z M256.8,27l-1.4-2.4l-0.1,0l0,2.8
	v11.4h-5.9V13.2h5.6l8.3,13.4l0.1,0l-0.1-2.7l0-10.6h5.9v25.8h-4.8L256.8,27z M249.6,73.3l-1-4.5h-7l-1,4.5h-7.1l7.6-25.8h8.2
	l7.8,25.8H249.6z M245.7,55.8l-0.5-2.7h-0.1l-0.6,2.7l-1.6,7.4h4.5L245.7,55.8z M246.8,33.1l-0.1,5.8h-16.6V13.2h16.2l0.1,5.9h-9.6
	v4h7.9v5.4h-7.9v4.7H246.8z M224.8,65.3h-2.1v8H216V47.5h8.8c7.1,0,10,2.8,10,9.1C234.8,62.1,232.1,65.3,224.8,65.3z M224.8,53.1
	h-2.1v6.8h2.1c2.2,0,3-0.5,3-3.4C227.9,53.8,227.2,53.1,224.8,53.1z M216.3,38.9H207V13.2h9.2c7.8,0,11,3.6,11,12.7
	C227.2,35.3,223.6,38.9,216.3,38.9z M216.2,19.1h-2.5V33h2.5c3,0,4-0.9,4-7.2C220.2,20.1,219.3,19.1,216.2,19.1z M191.4,38.9h-6.8
	V19.2h-5.8l0.1-6h18.2l0.1,6h-5.8V38.9z M169.5,13.2h6.9v25.8h-6.9V13.2z M166.9,103v4.6h-6.1V103h-10.2l-0.6-4.2l8.9-17h7.9v15.7
	h2.1l-0.1,5.4H166.9z M161.4,88.3l-4.6,9.3h4.3l0.2-6.5L161.4,88.3L161.4,88.3z M159.5,28.1l0.1-2.8l-0.1,0l-0.9,2.7l-3.8,10.9h-4.4
	L146.7,28l-0.9-2.7l-0.1,0l0,2.8v10.7h-5.9V13.2h7.4l4.5,13l0.9,2.6h0.1l0.9-2.6l4.6-13h7.4v25.8h-6.2V28.1z M140.7,73.3H133
	l-3.4-9.2h-2.3v9.2h-6.7V47.5h8.9c6.5,0,9.8,2.5,9.8,8.3c0,3.4-1.2,6-3.5,6.9L140.7,73.3z M129.6,53.1h-2.3V59h2.3
	c2,0,2.6-0.5,2.6-3C132.2,53.7,131.6,53.1,129.6,53.1z M124.3,38.9h-6.8V19.2h-5.8l0.1-6H130l0.1,6h-5.8V38.9z M110.3,32.9l-0.1,6
	H92.6v-4.4l8.2-13l1.5-2.3l0-0.1h-9.5l0.2-6h17.2V18l-7.9,12.6l-1.5,2.2l0,0.1H110.3z M85.7,38.9h-6.8V19.2H73l0.1-6h18.2l0.1,6
	h-5.8V38.9z M71.8,33.1l-0.1,5.8H55.1V13.2h16.2l0.1,5.9h-9.6v4h7.9v5.4h-7.9v4.7H71.8z M44.6,58h7.9l0,5.7h-7.8v9.5h-6.7V47.5H54
	l0.1,6h-9.5V58z M41.7,39.4c-1.9,0-3.5-0.3-4.7-0.9l0.3-5.6c0.7,0.4,1.9,0.6,3.2,0.6c2.8,0,4.2-1.1,4.2-4.2V13.2h6.9v16.3
	C51.6,37,47.7,39.4,41.7,39.4z M44.6,91.5h6.3v-9.6h6.7v25.8h-6.7V97.5h-6.3v10.1h-6.7V81.8h6.7V91.5z M56.6,47.5h6.9v25.8h-6.9
	V47.5z M77.3,87.8h-9.6v4h7.9v5.4h-7.9v4.7h10l-0.1,5.8H61V81.8h16.2L77.3,87.8z M67.3,73.3V47.5h6.8v19.8h8.8l-0.2,6H67.3z
	 M99.1,47.5l0.1,6h-5.8v19.7h-6.8V53.5h-5.8l0.1-6H99.1z M99.2,90.9c0,5.6-2.8,8.7-10,8.7h-2.1v8h-6.7V81.8h8.8
	C96.3,81.8,99.2,84.6,99.2,90.9z M87.1,94.3h2.1c2.2,0,3-0.5,3-3.4c0-2.8-0.7-3.4-3-3.4h-2.1V94.3z M118,67.5l-0.1,5.8h-16.6V47.5
	h16.2l0.1,5.9H108v4h7.9v5.4H108v4.7H118z M113.7,81.8l7.8,25.8H114l-1-4.5h-7l-1,4.5h-7.1l7.6-25.8H113.7z M111.7,97.5l-1.7-7.4
	l-0.5-2.7h-0.1l-0.6,2.7l-1.7,7.4H111.7z M143.8,81.9V103h3.1v4.6H134V103h3.1V89.6l-3.9,2.2l-0.7-5.2l7.5-4.7H143.8z M148.3,73.3
	h-5.9V47.5h5.6l8.3,13.4l0.1,0l-0.1-2.7l0-10.6h5.9v25.8h-4.8l-7.7-11.9l-1.4-2.4l-0.1,0l0,2.8V73.3z M174.1,101.5
	c2.4,0,3.4,1.2,3.4,3.3c0,2-1,3.3-3.4,3.3c-2.4,0-3.5-0.9-3.5-3.3C170.7,102.7,171.7,101.5,174.1,101.5z M180.1,83.4l3.2,0.8
	l0.5-3.3h2.9l0.4,3.3l3.2-0.8l1,2.8l-3.1,1.5l1.8,2.9l-2.2,1.6l-2.5-2.5l-2.6,2.5l-2.2-1.6l1.7-3l-3.1-1.4L180.1,83.4z M193.2,47.5
	v25.8h-6.7V63.2h-6.3v10.1h-6.7V47.5h6.7v9.6h6.3v-9.6H193.2z M213,53.4h-9.6v4h7.9v5.4h-7.9v4.7h10l-0.1,5.8h-16.6V47.5h16.2
	L213,53.4z M381.1,60.2c0,9.4-3.6,13-10.9,13h-9.3V47.5h9.2C377.9,47.5,381.1,51.1,381.1,60.2z M367.6,67.4h2.5c3,0,4-0.9,4-7.2
	c0-5.7-0.9-6.7-4-6.7h-2.5V67.4z"/>
</svg>
