<?xml version="1.0" encoding="utf-8"?>
<!-- Generator: Adobe Illustrator 16.0.4, SVG Export Plug-In . SVG Version: 6.00 Build 0)  -->
<!DOCTYPE svg PUBLIC "-//W3C//DTD SVG 1.1//EN" "http://www.w3.org/Graphics/SVG/1.1/DTD/svg11.dtd">
<svg version="1.1" id="Ebene_1" xmlns="http://www.w3.org/2000/svg" xmlns:xlink="http://www.w3.org/1999/xlink" x="0px" y="0px"
	 width="168.321px" height="66.389px" viewBox="0 0 168.321 66.389" enable-background="new 0 0 168.321 66.389"
	 xml:space="preserve">
<g>
	<path d="M7.235,7.795c0,3.521-1.793,4.626-4.61,4.626c-0.896,0-1.616-0.16-2.192-0.416l0.159-2.609
		c0.337,0.177,0.865,0.288,1.489,0.288c1.312,0,1.952-0.512,1.952-1.953V0.191h3.202V7.795z"/>
	<path d="M16.659,9.492l-0.063,2.705H8.864V0.191h7.522l0.064,2.754h-4.466v1.856h3.682v2.513h-3.682v2.178H16.659z"/>
	<path d="M23.09,2.993v9.204h-3.185V2.993h-2.722l0.064-2.802h8.5l0.063,2.802H23.09z"/>
	<path d="M26.336,12.197v-2.033l3.826-6.082l0.704-1.057L30.85,2.993h-4.418l0.08-2.802h8.02v2.241l-3.697,5.891l-0.704,1.04
		l0.017,0.049h4.417l-0.048,2.785H26.336z"/>
	<path d="M41.074,2.993v9.204H37.89V2.993h-2.722l0.064-2.802h8.5l0.063,2.802H41.074z"/>
	<path d="M53.026,12.197h-4.674V0.191h4.706c2.576,0,3.889,1.201,3.889,3.105c0,1.265-0.576,2.081-1.472,2.514v0.031
		c1.2,0.4,1.841,1.329,1.841,2.817C57.316,10.82,56.02,12.197,53.026,12.197z M52.93,2.816h-1.552V4.93h1.585
		c0.72,0,0.976-0.271,0.976-1.088C53.938,3.057,53.666,2.816,52.93,2.816z M53.01,7.267h-1.632v2.369h1.696
		c0.785,0,1.072-0.257,1.072-1.2C54.146,7.604,53.891,7.267,53.01,7.267z"/>
	<path d="M58.688,0.191h3.218v12.006h-3.218V0.191z"/>
	<path d="M66.801,12.404c-1.264,0-2.513-0.287-3.488-0.832l0.399-2.656c0.977,0.496,1.969,0.8,3.009,0.8
		c0.993,0,1.377-0.337,1.377-0.977c0-1.536-4.77-1.056-4.77-4.978c0-2.098,1.28-3.762,4.241-3.762c1.104,0,2.289,0.208,3.153,0.576
		l-0.352,2.609c-0.912-0.272-1.825-0.433-2.594-0.433c-1.184,0-1.44,0.353-1.44,0.864c0,1.553,4.771,1.024,4.771,4.946
		C71.107,10.932,69.506,12.404,66.801,12.404z"/>
	<path d="M75.391,12.197v-2.033l3.826-6.082l0.704-1.057l-0.017-0.032h-4.418l0.08-2.802h8.02v2.241l-3.697,5.891l-0.704,1.04
		l0.017,0.049h4.417l-0.048,2.785H75.391z"/>
	<path d="M93.811,8.115c0,2.816-1.504,4.289-4.578,4.289c-3.072,0-4.625-1.473-4.625-4.289V0.191h3.137v7.859
		c0,1.072,0.416,1.553,1.488,1.553c1.089,0,1.457-0.447,1.457-1.553V0.191h3.121V8.115z"/>
	<path d="M102.336,12.357c-1.312,0-2.497-0.353-3.329-0.833l0.528-2.368c0.864,0.432,1.713,0.656,2.673,0.656
		c1.104,0,1.648-0.465,1.648-1.312c0-0.785-0.432-1.377-2.577-1.377V4.962c2.065,0,2.497-0.464,2.497-1.28
		c0-0.625-0.416-0.992-1.473-0.992c-1.04,0-1.937,0.352-2.688,0.96l-0.688-2.401c0.896-0.704,2.225-1.184,3.617-1.184
		c2.593,0,4.098,1.279,4.098,3.408c0,1.089-0.496,1.953-1.44,2.481v0.032c1.072,0.465,1.665,1.328,1.665,2.593
		C106.866,10.885,105.441,12.357,102.336,12.357z"/>
	<path d="M111.952,12.357c-1.28,0-2.481-0.272-3.474-0.833l0.513-2.368c0.88,0.432,1.601,0.656,2.625,0.656
		c1.28,0,1.616-0.497,1.616-1.537c0-0.945-0.512-1.281-1.601-1.281c-0.624,0-1.393,0.097-1.984,0.305l-0.993-1.152l0.433-5.955h6.53
		l0.112,2.658h-4.178l-0.112,1.775c0.368-0.063,0.753-0.096,1.185-0.096c2.321,0,3.666,1.169,3.666,3.506
		C116.29,10.725,114.978,12.357,111.952,12.357z"/>
	<path d="M121.647,12.357c-2.977,0-4.178-1.809-4.178-6.1c0-4.577,1.217-6.193,4.21-6.193c2.93,0,4.21,1.616,4.21,6.193
		C125.89,10.549,124.562,12.357,121.647,12.357z M121.68,2.736c-0.848,0-1.232,0.433-1.232,3.49c0,3.217,0.385,3.553,1.232,3.553
		c0.833,0,1.201-0.416,1.201-3.553C122.881,3.105,122.513,2.736,121.68,2.736z"/>
	<path d="M137.265,8.115h-2.481c0.353,1.344,1.169,1.777,2.354,1.777c0.56,0,1.12-0.16,1.632-0.354l0.209,2.258
		c-0.688,0.352-1.553,0.544-2.657,0.544c-2.657,0-4.258-1.36-4.738-4.226h-1.185l0.017-1.537h1.024V6.002h-1.024l-0.017-1.584h1.185
		c0.513-2.642,2.241-4.273,4.882-4.273c1.057,0,1.857,0.16,2.529,0.416l-0.561,2.465c-0.368-0.129-0.784-0.209-1.265-0.209
		c-1.296,0-2.017,0.48-2.353,1.602h3.281l-0.336,1.584h-3.153v0.576h2.978L137.265,8.115z"/>
	<path d="M8.035,21.089c-0.527-0.192-1.248-0.319-2-0.319c-1.777,0-2.226,0.752-2.226,3.377c0,2.77,0.497,3.537,2.272,3.537
		c0.736,0,1.426-0.145,1.985-0.4l0.288,2.545c-0.721,0.353-1.809,0.576-2.736,0.576c-3.426,0-5.091-1.952-5.091-6.273
		c0-4.034,1.616-6.146,5.282-6.146c0.848,0,1.889,0.191,2.529,0.447L8.035,21.089z"/>
	<path d="M15.875,28.1h-3.266l-0.465,2.098H8.832l3.553-12.006h3.826l3.617,12.006h-3.489L15.875,28.1z M13.97,22.049l-0.769,3.441
		h2.098l-0.769-3.441l-0.24-1.279h-0.048L13.97,22.049z"/>
	<path d="M23.793,30.404c-1.264,0-2.513-0.287-3.488-0.832l0.399-2.656c0.977,0.496,1.969,0.8,3.009,0.8
		c0.993,0,1.377-0.337,1.377-0.977c0-1.536-4.77-1.056-4.77-4.978c0-2.098,1.28-3.762,4.241-3.762c1.104,0,2.289,0.208,3.153,0.576
		l-0.352,2.609c-0.912-0.272-1.825-0.433-2.594-0.433c-1.184,0-1.44,0.353-1.44,0.864c0,1.553,4.771,1.024,4.771,4.946
		C28.1,28.932,26.498,30.404,23.793,30.404z"/>
	<path d="M35.25,30.197V25.49h-2.913v4.707h-3.121V18.191h3.121v4.498h2.913v-4.498h3.138v12.006H35.25z"/>
	<path d="M44.674,30.197H40V18.191h4.706c2.577,0,3.89,1.201,3.89,3.105c0,1.265-0.576,2.081-1.473,2.514v0.031
		c1.2,0.4,1.84,1.329,1.84,2.817C48.963,28.82,47.667,30.197,44.674,30.197z M44.578,20.816h-1.553v2.113h1.584
		c0.721,0,0.977-0.271,0.977-1.088C45.586,21.057,45.314,20.816,44.578,20.816z M44.658,25.267h-1.633v2.369h1.696
		c0.784,0,1.073-0.257,1.073-1.2C45.795,25.604,45.538,25.267,44.658,25.267z"/>
	<path d="M56.178,28.1h-3.265l-0.464,2.098h-3.314l3.555-12.006h3.825l3.617,12.006h-3.489L56.178,28.1z M54.273,22.049
		l-0.768,3.441h2.096l-0.768-3.441l-0.24-1.279h-0.048L54.273,22.049z"/>
	<path d="M67.666,21.089c-0.527-0.192-1.248-0.319-2-0.319c-1.777,0-2.226,0.752-2.226,3.377c0,2.77,0.497,3.537,2.272,3.537
		c0.736,0,1.426-0.145,1.985-0.4l0.288,2.545c-0.721,0.353-1.809,0.576-2.736,0.576c-3.426,0-5.091-1.952-5.091-6.273
		c0-4.034,1.616-6.146,5.282-6.146c0.848,0,1.889,0.191,2.529,0.447L67.666,21.089z"/>
	<path d="M75.282,30.197l-2.257-4.883h-0.769v4.883h-3.121V18.191h3.121v4.643h0.833l2.225-4.643h3.505l-2.881,5.747l3.025,6.259
		H75.282z"/>
	<path d="M88.113,30.197h-4.674V18.191h4.706c2.577,0,3.89,1.201,3.89,3.105c0,1.265-0.576,2.081-1.473,2.514v0.031
		c1.2,0.4,1.841,1.329,1.841,2.817C92.403,28.82,91.106,30.197,88.113,30.197z M88.018,20.816h-1.553v2.113h1.584
		c0.721,0,0.977-0.271,0.977-1.088C89.025,21.057,88.754,20.816,88.018,20.816z M88.098,25.267h-1.633v2.369h1.696
		c0.784,0,1.073-0.257,1.073-1.2C89.234,25.604,88.978,25.267,88.098,25.267z"/>
	<path d="M101.442,27.492l-0.063,2.705h-7.731V18.191h7.523l0.063,2.754h-4.466v1.856h3.682v2.513h-3.682v2.178H101.442z"/>
	<path d="M102.768,18.191h3.218v12.006h-3.218V18.191z"/>
	<path d="M111.185,18.191l2.112,6.066l0.4,1.232h0.048l0.4-1.216l2.146-6.083h3.457v12.006h-2.865v-5.026l0.032-1.297l-0.048-0.016
		l-0.4,1.249l-1.777,5.09h-2.032l-1.761-5.074l-0.4-1.249l-0.032,0.017l0.017,1.296v5.011h-2.737V18.191H111.185z"/>
	<path d="M131.121,30.197l-2.257-4.883h-0.769v4.883h-3.121V18.191h3.121v4.643h0.832l2.226-4.643h3.505l-2.881,5.747l3.025,6.259
		H131.121z"/>
	<path d="M141.873,28.1h-3.266l-0.464,2.098h-3.313l3.554-12.006h3.825l3.618,12.006h-3.49L141.873,28.1z M139.969,22.049
		L139.2,25.49h2.097l-0.769-3.441l-0.24-1.279h-0.048L139.969,22.049z"/>
	<path d="M155.219,26.115c0,2.816-1.505,4.289-4.578,4.289s-4.626-1.473-4.626-4.289v-7.924h3.138v7.859
		c0,1.072,0.416,1.553,1.488,1.553c1.089,0,1.457-0.447,1.457-1.553v-7.859h3.121V26.115z"/>
	<path d="M159.871,20.993v2.112h3.666l-0.016,2.658h-3.65v4.434h-3.137V18.191h7.507l0.048,2.802H159.871z"/>
	<path d="M8.644,45.492L8.58,48.197H0.849V36.191h7.522l0.064,2.754H3.97v1.856h3.682v2.513H3.97v2.178H8.644z"/>
	<path d="M9.969,36.191h3.217v12.006H9.969V36.191z"/>
	<path d="M21.971,48.197l-3.585-5.539l-0.673-1.104l-0.031,0.016l0.016,1.297v5.33h-2.753V36.191h2.625l3.857,6.227l0.032-0.016
		l-0.032-1.28l0.017-4.931h2.752v12.006H21.971z"/>
	<path d="M33.619,45.492l-0.064,2.705h-7.73V36.191h7.523l0.063,2.754h-4.466v1.856h3.682v2.513h-3.682v2.178H33.619z"/>
	<path d="M37.953,48.404c-1.264,0-2.513-0.287-3.488-0.832l0.399-2.656c0.977,0.496,1.969,0.8,3.009,0.8
		c0.993,0,1.377-0.337,1.377-0.977c0-1.536-4.77-1.056-4.77-4.978c0-2.098,1.28-3.762,4.241-3.762c1.104,0,2.289,0.208,3.153,0.576
		l-0.352,2.609c-0.912-0.272-1.825-0.433-2.594-0.433c-1.184,0-1.44,0.353-1.44,0.864c0,1.553,4.771,1.024,4.771,4.946
		C42.26,46.932,40.658,48.404,37.953,48.404z"/>
	<path d="M53.17,46.1h-3.266l-0.464,2.098h-3.313l3.554-12.006h3.825l3.617,12.006h-3.488L53.17,46.1z M51.266,40.049l-0.769,3.441
		h2.097l-0.768-3.441l-0.24-1.279h-0.049L51.266,40.049z"/>
	<path d="M64.066,48.197l-2.258-4.883h-0.768v4.883H57.92V36.191h3.121v4.643h0.832l2.225-4.643h3.506l-2.881,5.747l3.025,6.259
		H64.066z"/>
	<path d="M73.857,38.993v9.204h-3.186v-9.204h-2.721l0.063-2.802h8.499l0.064,2.802H73.857z"/>
	<path d="M77.663,36.191h3.218v12.006h-3.218V36.191z"/>
	<path d="M87.345,48.404c-3.458,0-5.026-1.824-5.026-6.21c0-4.401,1.505-6.194,5.026-6.194s5.025,1.793,5.025,6.194
		C92.37,46.708,90.866,48.404,87.345,48.404z M87.328,38.801c-1.312,0-1.729,0.545-1.729,3.394c0,2.865,0.432,3.441,1.761,3.441
		s1.729-0.593,1.729-3.441C89.09,39.329,88.689,38.801,87.328,38.801z"/>
	<path d="M100.705,48.197l-3.585-5.539l-0.672-1.104l-0.032,0.016l0.016,1.297v5.33h-2.753V36.191h2.625l3.857,6.227l0.032-0.016
		l-0.032-1.28l0.017-4.931h2.753v12.006H100.705z"/>
	<path d="M107.695,48.404c-1.264,0-2.513-0.287-3.489-0.832l0.4-2.656c0.977,0.496,1.969,0.8,3.01,0.8
		c0.992,0,1.376-0.337,1.376-0.977c0-1.536-4.77-1.056-4.77-4.978c0-2.098,1.28-3.762,4.241-3.762c1.104,0,2.289,0.208,3.153,0.576
		l-0.352,2.609c-0.913-0.272-1.825-0.433-2.594-0.433c-1.185,0-1.44,0.353-1.44,0.864c0,1.553,4.771,1.024,4.771,4.946
		C112.002,46.932,110.401,48.404,107.695,48.404z"/>
	<path d="M121.602,47.765c-0.832,0.399-2.193,0.656-3.426,0.656c-3.97,0-5.378-2.129-5.378-6.227c0-4.194,1.648-6.21,5.522-6.21
		c1.057,0,2.257,0.191,3.121,0.527l-0.288,2.674c-0.784-0.289-1.793-0.465-2.657-0.465c-1.969,0-2.417,0.736-2.417,3.441
		c0,2.85,0.465,3.474,2.017,3.474c0.24,0,0.497-0.017,0.721-0.063V41.65h2.785V47.765z"/>
	<path d="M130.817,45.492l-0.063,2.705h-7.731V36.191h7.523l0.063,2.754h-4.466v1.856h3.682v2.513h-3.682v2.178H130.817z"/>
	<path d="M139.073,43.283l2.337,4.914h-3.617l-1.601-4.29h-1.057v4.29h-3.121V36.191h4.146c3.041,0,4.546,1.152,4.546,3.857
		C140.706,41.65,140.13,42.834,139.073,43.283z M136.225,38.785h-1.089v2.77h1.072c0.913,0,1.232-0.225,1.232-1.393
		C137.44,39.073,137.137,38.785,136.225,38.785z"/>
	<path d="M148.385,46.1h-3.266l-0.464,2.098h-3.313l3.554-12.006h3.825l3.618,12.006h-3.49L148.385,46.1z M145.264,35.615
		c-0.784,0-1.185-0.304-1.185-1.072c0-0.721,0.4-1.104,1.185-1.104c0.816,0,1.185,0.383,1.185,1.104
		C146.448,35.248,146.08,35.615,145.264,35.615z M146.48,40.049l-0.769,3.441h2.097l-0.769-3.441l-0.24-1.279h-0.048L146.48,40.049z
		 M148.321,35.615c-0.785,0-1.185-0.304-1.185-1.072c0-0.721,0.399-1.104,1.185-1.104c0.815,0,1.184,0.383,1.184,1.104
		C149.505,35.248,149.137,35.615,148.321,35.615z"/>
	<path d="M157.296,38.993v9.204h-3.186v-9.204h-2.721l0.063-2.802h8.499l0.064,2.802H157.296z"/>
	<path d="M164.015,48.404c-1.264,0-2.513-0.287-3.489-0.832l0.4-2.656c0.977,0.496,1.969,0.8,3.01,0.8
		c0.992,0,1.376-0.337,1.376-0.977c0-1.536-4.77-1.056-4.77-4.978c0-2.098,1.28-3.762,4.241-3.762c1.104,0,2.289,0.208,3.153,0.576
		l-0.352,2.609c-0.913-0.272-1.825-0.433-2.594-0.433c-1.185,0-1.44,0.353-1.44,0.864c0,1.553,4.771,1.024,4.771,4.946
		C168.321,46.932,166.72,48.404,164.015,48.404z"/>
	<path d="M8.644,63.492L8.58,66.197H0.849V54.191h7.522l0.064,2.754H3.97v1.856h3.682v2.513H3.97v2.178H8.644z"/>
	<path d="M16.899,61.283l2.337,4.914h-3.617l-1.601-4.29h-1.057v4.29H9.841V54.191h4.146c3.041,0,4.546,1.152,4.546,3.857
		C18.532,59.65,17.956,60.834,16.899,61.283z M14.051,56.785h-1.089v2.77h1.073c0.912,0,1.232-0.225,1.232-1.393
		C15.268,57.073,14.963,56.785,14.051,56.785z"/>
	<path d="M26.051,66.197V61.49h-2.913v4.707h-3.121V54.191h3.121v4.498h2.913v-4.498h3.138v12.006H26.051z"/>
	<path d="M36.995,64.1H33.73l-0.465,2.098h-3.313l3.554-12.006h3.826l3.617,12.006h-3.49L36.995,64.1z M35.09,58.049l-0.768,3.441
		h2.097l-0.769-3.441l-0.24-1.279h-0.048L35.09,58.049z"/>
	<path d="M48.979,63.412l-0.08,2.785h-7.155V54.191h3.154v9.221H48.979z"/>
	<path d="M53.858,56.993v9.204h-3.185v-9.204h-2.722l0.063-2.802h8.5l0.064,2.802H53.858z"/>
	<path d="M65.331,63.492l-0.063,2.705h-7.731V54.191h7.522l0.064,2.754h-4.466v1.856h3.682v2.513h-3.682v2.178H65.331z"/>
	<path d="M73.555,66.197l-3.585-5.539l-0.673-1.104l-0.031,0.016l0.016,1.297v5.33h-2.753V54.191h2.625l3.857,6.227l0.032-0.016
		l-0.032-1.28l0.017-4.931h2.752v12.006H73.555z"/>
	<path d="M78.688,66.389c-1.12,0-1.616-0.432-1.616-1.521c0-0.976,0.496-1.536,1.616-1.536s1.601,0.561,1.601,1.536
		C80.289,65.781,79.809,66.389,78.688,66.389z"/>
</g>
</svg>
