<?xml version="1.0" encoding="utf-8"?>
<!-- Generator: Adobe Illustrator 16.0.4, SVG Export Plug-In . SVG Version: 6.00 Build 0)  -->
<!DOCTYPE svg PUBLIC "-//W3C//DTD SVG 1.1//EN" "http://www.w3.org/Graphics/SVG/1.1/DTD/svg11.dtd">
<svg version="1.1" id="Ebene_1" xmlns="http://www.w3.org/2000/svg" xmlns:xlink="http://www.w3.org/1999/xlink" x="0px" y="0px"
	 width="286.669px" height="32.965px" viewBox="0 0 286.669 32.965" enable-background="new 0 0 286.669 32.965"
	 xml:space="preserve">
<g>
	<path fill="#FFFFFF" d="M6.803,10.355c0,3.521-1.793,4.626-4.61,4.626c-0.896,0-1.616-0.16-2.192-0.416l0.159-2.609
		c0.337,0.177,0.865,0.288,1.489,0.288c1.312,0,1.952-0.512,1.952-1.953V2.752h3.202V10.355z"/>
	<path fill="#FFFFFF" d="M16.227,12.053l-0.063,2.705H8.432V2.752h7.522l0.064,2.754h-4.466v1.856h3.682v2.513h-3.682v2.178H16.227z
		"/>
	<path fill="#FFFFFF" d="M22.657,5.554v9.204h-3.185V5.554h-2.722l0.064-2.802h8.5l0.063,2.802H22.657z"/>
	<path fill="#FFFFFF" d="M25.903,14.758v-2.033l3.826-6.082l0.704-1.057l-0.017-0.032h-4.418l0.08-2.802h8.02v2.241l-3.697,5.891
		l-0.704,1.04l0.017,0.049h4.417l-0.048,2.785H25.903z"/>
	<path fill="#FFFFFF" d="M40.642,5.554v9.204h-3.185V5.554h-2.722L34.8,2.752h8.5l0.063,2.802H40.642z"/>
	<path fill="#FFFFFF" d="M54.114,12.66h-3.266l-0.464,2.098h-3.313l3.554-12.006h3.825l3.617,12.006h-3.488L54.114,12.66z
		 M52.21,6.609l-0.769,3.441h2.097l-0.768-3.441L52.53,5.33h-0.049L52.21,6.609z"/>
	<path fill="#FFFFFF" d="M65.01,14.758l-2.257-4.883h-0.769v4.883h-3.121V2.752h3.121v4.643h0.833l2.225-4.643h3.505l-2.881,5.747
		l3.025,6.259H65.01z"/>
	<path fill="#FFFFFF" d="M74.802,5.554v9.204h-3.186V5.554h-2.721l0.063-2.802h8.499l0.064,2.802H74.802z"/>
	<path fill="#FFFFFF" d="M78.607,2.752h3.218v12.006h-3.218V2.752z"/>
	<path fill="#FFFFFF" d="M88.289,14.965c-3.458,0-5.026-1.824-5.026-6.21c0-4.401,1.505-6.194,5.026-6.194s5.025,1.793,5.025,6.194
		C93.314,13.269,91.811,14.965,88.289,14.965z M88.272,5.361c-1.312,0-1.729,0.545-1.729,3.394c0,2.865,0.432,3.441,1.761,3.441
		s1.729-0.593,1.729-3.441C90.033,5.89,89.634,5.361,88.272,5.361z"/>
	<path fill="#FFFFFF" d="M101.649,14.758l-3.585-5.539l-0.672-1.104L97.36,8.131l0.016,1.297v5.33h-2.753V2.752h2.625l3.857,6.227
		l0.032-0.016l-0.032-1.28l0.017-4.931h2.753v12.006H101.649z"/>
	<path fill="#FFFFFF" d="M108.64,14.965c-1.264,0-2.513-0.287-3.489-0.832l0.4-2.656c0.977,0.496,1.969,0.8,3.01,0.8
		c0.992,0,1.376-0.337,1.376-0.977c0-1.536-4.77-1.056-4.77-4.978c0-2.098,1.28-3.762,4.241-3.762c1.104,0,2.289,0.208,3.153,0.576
		l-0.352,2.609c-0.913-0.272-1.825-0.433-2.594-0.433c-1.185,0-1.44,0.353-1.44,0.864c0,1.553,4.771,1.024,4.771,4.946
		C112.946,13.492,111.346,14.965,108.64,14.965z"/>
	<path fill="#FFFFFF" d="M122.546,14.325c-0.832,0.399-2.193,0.656-3.426,0.656c-3.97,0-5.378-2.129-5.378-6.227
		c0-4.194,1.648-6.21,5.522-6.21c1.057,0,2.257,0.191,3.121,0.527l-0.288,2.674c-0.784-0.289-1.793-0.465-2.657-0.465
		c-1.969,0-2.417,0.736-2.417,3.441c0,2.85,0.465,3.474,2.017,3.474c0.24,0,0.497-0.017,0.721-0.063V8.211h2.785V14.325z"/>
	<path fill="#FFFFFF" d="M131.761,12.053l-0.063,2.705h-7.731V2.752h7.523l0.063,2.754h-4.466v1.856h3.682v2.513h-3.682v2.178
		H131.761z"/>
	<path fill="#FFFFFF" d="M140.017,9.844l2.337,4.914h-3.617l-1.601-4.29h-1.057v4.29h-3.121V2.752h4.146
		c3.041,0,4.546,1.152,4.546,3.857C141.649,8.211,141.073,9.395,140.017,9.844z M137.168,5.346h-1.089v2.77h1.072
		c0.913,0,1.232-0.225,1.232-1.393C138.384,5.634,138.08,5.346,137.168,5.346z"/>
	<path fill="#FFFFFF" d="M149.328,12.66h-3.266l-0.464,2.098h-3.313l3.554-12.006h3.825l3.618,12.006h-3.49L149.328,12.66z
		 M146.207,2.176c-0.784,0-1.185-0.304-1.185-1.072c0-0.721,0.4-1.104,1.185-1.104c0.816,0,1.185,0.383,1.185,1.104
		C147.392,1.809,147.023,2.176,146.207,2.176z M147.424,6.609l-0.769,3.441h2.097l-0.769-3.441l-0.24-1.279h-0.048L147.424,6.609z
		 M149.265,2.176c-0.785,0-1.185-0.304-1.185-1.072c0-0.721,0.399-1.104,1.185-1.104c0.815,0,1.184,0.383,1.184,1.104
		C150.448,1.809,150.08,2.176,149.265,2.176z"/>
	<path fill="#FFFFFF" d="M158.239,5.554v9.204h-3.186V5.554h-2.721l0.063-2.802h8.5l0.063,2.802H158.239z"/>
	<path fill="#FFFFFF" d="M171.663,14.758l-2.257-4.883h-0.769v4.883h-3.121V2.752h3.121v4.643h0.832l2.226-4.643h3.505l-2.881,5.747
		l3.025,6.259H171.663z"/>
	<path fill="#FFFFFF" d="M182.415,12.66h-3.266l-0.464,2.098h-3.313l3.554-12.006h3.825l3.618,12.006h-3.49L182.415,12.66z
		 M180.511,6.609l-0.769,3.441h2.097l-0.769-3.441l-0.24-1.279h-0.048L180.511,6.609z"/>
	<path fill="#FFFFFF" d="M195.762,10.676c0,2.816-1.505,4.289-4.578,4.289s-4.626-1.473-4.626-4.289V2.752h3.138v7.859
		c0,1.072,0.416,1.553,1.488,1.553c1.089,0,1.457-0.447,1.457-1.553V2.752h3.121V10.676z"/>
	<path fill="#FFFFFF" d="M200.414,5.554v2.112h3.666l-0.016,2.658h-3.65v4.434h-3.137V2.752h7.507l0.048,2.802H200.414z"/>
	<path fill="#FFFFFF" d="M213.68,12.053l-0.063,2.705h-7.731V2.752h7.523l0.063,2.754h-4.466v1.856h3.682v2.513h-3.682v2.178H213.68
		z"/>
	<path fill="#FFFFFF" d="M221.903,14.758l-3.585-5.539l-0.672-1.104l-0.032,0.016l0.016,1.297v5.33h-2.753V2.752h2.625l3.857,6.227
		l0.032-0.016l-0.032-1.28l0.017-4.931h2.753v12.006H221.903z"/>
	<path fill="#FFFFFF" d="M9.508,28.676c0,2.816-1.505,4.289-4.578,4.289s-4.626-1.473-4.626-4.289v-7.924h3.138v7.859
		c0,1.072,0.416,1.553,1.488,1.553c1.089,0,1.456-0.447,1.456-1.553v-7.859h3.122V28.676z"/>
	<path fill="#FFFFFF" d="M18.051,32.758l-3.585-5.539l-0.673-1.104l-0.032,0.016l0.016,1.297v5.33h-2.752V20.752h2.625l3.857,6.227
		l0.031-0.016l-0.031-1.28l0.016-4.931h2.753v12.006H18.051z"/>
	<path fill="#FFFFFF" d="M26.241,32.758h-4.338V20.752h4.273c3.65,0,5.139,1.697,5.139,5.939
		C31.315,31.093,29.618,32.758,26.241,32.758z M26.193,23.521h-1.169v6.498h1.169c1.376,0,1.841-0.416,1.841-3.361
		C28.034,24.002,27.603,23.521,26.193,23.521z"/>
	<path fill="#FFFFFF" d="M40.897,32.758h-4.674V20.752h4.706c2.577,0,3.89,1.201,3.89,3.105c0,1.265-0.576,2.081-1.473,2.514v0.031
		c1.2,0.4,1.84,1.329,1.84,2.817C45.187,31.381,43.891,32.758,40.897,32.758z M40.802,23.377h-1.553v2.113h1.584
		c0.721,0,0.977-0.271,0.977-1.088C41.81,23.617,41.538,23.377,40.802,23.377z M40.882,27.827h-1.633v2.369h1.696
		c0.784,0,1.073-0.257,1.073-1.2C42.019,28.164,41.762,27.827,40.882,27.827z"/>
	<path fill="#FFFFFF" d="M46.56,20.752h3.217v12.006H46.56V20.752z"/>
	<path fill="#FFFFFF" d="M54.673,32.965c-1.266,0-2.514-0.287-3.49-0.832l0.4-2.656c0.977,0.496,1.969,0.8,3.01,0.8
		c0.992,0,1.376-0.337,1.376-0.977c0-1.536-4.771-1.056-4.771-4.978c0-2.098,1.281-3.762,4.242-3.762
		c1.104,0,2.289,0.208,3.153,0.576l-0.353,2.609c-0.912-0.272-1.824-0.433-2.592-0.433c-1.186,0-1.441,0.353-1.441,0.864
		c0,1.553,4.77,1.024,4.77,4.946C58.978,31.492,57.378,32.965,54.673,32.965z"/>
	<path fill="#FFFFFF" d="M63.263,32.758v-2.033l3.824-6.082l0.705-1.057l-0.016-0.032h-4.418l0.08-2.802h8.02v2.241l-3.698,5.891
		l-0.704,1.04l0.016,0.049h4.418l-0.048,2.785H63.263z"/>
	<path fill="#FFFFFF" d="M81.683,28.676c0,2.816-1.505,4.289-4.578,4.289s-4.626-1.473-4.626-4.289v-7.924h3.138v7.859
		c0,1.072,0.416,1.553,1.488,1.553c1.088,0,1.457-0.447,1.457-1.553v-7.859h3.121V28.676z"/>
	<path fill="#FFFFFF" d="M90.208,32.918c-1.312,0-2.497-0.353-3.329-0.833l0.528-2.368c0.864,0.432,1.713,0.656,2.673,0.656
		c1.104,0,1.648-0.465,1.648-1.312c0-0.785-0.432-1.377-2.577-1.377v-2.161c2.065,0,2.497-0.464,2.497-1.28
		c0-0.625-0.416-0.992-1.473-0.992c-1.04,0-1.937,0.352-2.688,0.96l-0.688-2.401c0.896-0.704,2.225-1.184,3.617-1.184
		c2.593,0,4.098,1.279,4.098,3.408c0,1.089-0.496,1.953-1.44,2.481v0.032c1.072,0.465,1.665,1.328,1.665,2.593
		C94.738,31.445,93.313,32.918,90.208,32.918z"/>
	<path fill="#FFFFFF" d="M99.824,32.918c-1.28,0-2.481-0.272-3.474-0.833l0.513-2.368c0.88,0.432,1.601,0.656,2.625,0.656
		c1.28,0,1.616-0.497,1.616-1.537c0-0.945-0.512-1.281-1.601-1.281c-0.624,0-1.393,0.097-1.984,0.305l-0.993-1.152l0.433-5.955h6.53
		l0.112,2.658h-4.178l-0.112,1.775c0.368-0.063,0.753-0.096,1.185-0.096c2.321,0,3.666,1.169,3.666,3.506
		C104.162,31.285,102.85,32.918,99.824,32.918z"/>
	<path fill="#FFFFFF" d="M109.52,32.918c-2.977,0-4.178-1.809-4.178-6.1c0-4.577,1.217-6.193,4.21-6.193
		c2.93,0,4.21,1.616,4.21,6.193C113.762,31.109,112.434,32.918,109.52,32.918z M109.552,23.297c-0.848,0-1.232,0.433-1.232,3.49
		c0,3.217,0.385,3.553,1.232,3.553c0.833,0,1.201-0.416,1.201-3.553C110.753,23.666,110.385,23.297,109.552,23.297z"/>
	<path fill="#FFFFFF" d="M125.137,28.676h-2.481c0.353,1.344,1.169,1.777,2.354,1.777c0.56,0,1.12-0.16,1.632-0.354l0.209,2.258
		c-0.688,0.352-1.553,0.544-2.657,0.544c-2.657,0-4.258-1.36-4.738-4.226h-1.185l0.017-1.537h1.024v-0.576h-1.024l-0.017-1.584
		h1.185c0.513-2.642,2.241-4.273,4.882-4.273c1.057,0,1.857,0.16,2.529,0.416l-0.561,2.465c-0.368-0.129-0.784-0.209-1.265-0.209
		c-1.296,0-2.017,0.48-2.353,1.602h3.281l-0.336,1.584h-3.153v0.576h2.978L125.137,28.676z"/>
	<path fill="#FFFFFF" d="M138.88,23.649c-0.528-0.192-1.248-0.319-2.001-0.319c-1.776,0-2.225,0.752-2.225,3.377
		c0,2.77,0.496,3.537,2.273,3.537c0.736,0,1.424-0.145,1.984-0.4l0.288,2.545c-0.72,0.353-1.809,0.576-2.737,0.576
		c-3.425,0-5.09-1.952-5.09-6.273c0-4.034,1.617-6.146,5.282-6.146c0.849,0,1.889,0.191,2.529,0.447L138.88,23.649z"/>
	<path fill="#FFFFFF" d="M146.719,30.66h-3.266l-0.464,2.098h-3.313l3.554-12.006h3.825l3.618,12.006h-3.49L146.719,30.66z
		 M144.814,24.609l-0.769,3.441h2.097l-0.769-3.441l-0.24-1.279h-0.048L144.814,24.609z"/>
	<path fill="#FFFFFF" d="M154.637,32.965c-1.264,0-2.513-0.287-3.489-0.832l0.4-2.656c0.977,0.496,1.969,0.8,3.01,0.8
		c0.992,0,1.376-0.337,1.376-0.977c0-1.536-4.77-1.056-4.77-4.978c0-2.098,1.28-3.762,4.241-3.762c1.104,0,2.289,0.208,3.153,0.576
		l-0.352,2.609c-0.913-0.272-1.825-0.433-2.594-0.433c-1.185,0-1.44,0.353-1.44,0.864c0,1.553,4.771,1.024,4.771,4.946
		C158.943,31.492,157.342,32.965,154.637,32.965z"/>
	<path fill="#FFFFFF" d="M166.093,32.758v-4.707h-2.913v4.707h-3.121V20.752h3.121v4.498h2.913v-4.498h3.138v12.006H166.093z"/>
	<path fill="#FFFFFF" d="M175.518,32.758h-4.674V20.752h4.706c2.577,0,3.89,1.201,3.89,3.105c0,1.265-0.576,2.081-1.473,2.514v0.031
		c1.2,0.4,1.841,1.329,1.841,2.817C179.808,31.381,178.511,32.758,175.518,32.758z M175.422,23.377h-1.553v2.113h1.584
		c0.721,0,0.977-0.271,0.977-1.088C176.43,23.617,176.158,23.377,175.422,23.377z M175.502,27.827h-1.633v2.369h1.696
		c0.784,0,1.072-0.257,1.072-1.2C176.638,28.164,176.382,27.827,175.502,27.827z"/>
	<path fill="#FFFFFF" d="M187.021,30.66h-3.266l-0.464,2.098h-3.313l3.554-12.006h3.825l3.618,12.006h-3.49L187.021,30.66z
		 M185.117,24.609l-0.769,3.441h2.097l-0.769-3.441l-0.24-1.279h-0.048L185.117,24.609z"/>
	<path fill="#FFFFFF" d="M198.511,23.649c-0.528-0.192-1.248-0.319-2.001-0.319c-1.776,0-2.225,0.752-2.225,3.377
		c0,2.77,0.496,3.537,2.273,3.537c0.736,0,1.424-0.145,1.984-0.4l0.288,2.545c-0.72,0.353-1.809,0.576-2.737,0.576
		c-3.425,0-5.09-1.952-5.09-6.273c0-4.034,1.617-6.146,5.282-6.146c0.849,0,1.889,0.191,2.529,0.447L198.511,23.649z"/>
	<path fill="#FFFFFF" d="M206.127,32.758l-2.257-4.883h-0.769v4.883h-3.121V20.752h3.121v4.643h0.832l2.226-4.643h3.505
		l-2.881,5.747l3.025,6.259H206.127z"/>
	<path fill="#FFFFFF" d="M217.42,32.965c-1.264,0-2.513-0.287-3.489-0.832l0.4-2.656c0.977,0.496,1.969,0.8,3.01,0.8
		c0.992,0,1.376-0.337,1.376-0.977c0-1.536-4.77-1.056-4.77-4.978c0-2.098,1.28-3.762,4.241-3.762c1.104,0,2.289,0.208,3.153,0.576
		l-0.352,2.609c-0.913-0.272-1.825-0.433-2.594-0.433c-1.185,0-1.44,0.353-1.44,0.864c0,1.553,4.771,1.024,4.771,4.946
		C221.727,31.492,220.125,32.965,217.42,32.965z"/>
	<path fill="#FFFFFF" d="M222.972,20.752h3.218v12.006h-3.218V20.752z"/>
	<path fill="#FFFFFF" d="M235.134,23.649c-0.528-0.192-1.248-0.319-2.001-0.319c-1.776,0-2.225,0.752-2.225,3.377
		c0,2.77,0.496,3.537,2.273,3.537c0.736,0,1.424-0.145,1.984-0.4l0.288,2.545c-0.72,0.353-1.809,0.576-2.737,0.576
		c-3.425,0-5.09-1.952-5.09-6.273c0-4.034,1.617-6.146,5.282-6.146c0.849,0,1.889,0.191,2.529,0.447L235.134,23.649z"/>
	<path fill="#FFFFFF" d="M242.638,32.758v-4.707h-2.913v4.707h-3.121V20.752h3.121v4.498h2.913v-4.498h3.138v12.006H242.638z"/>
	<path fill="#FFFFFF" d="M255.182,30.053l-0.063,2.705h-7.731V20.752h7.523l0.063,2.754h-4.466v1.856h3.682v2.513h-3.682v2.178
		H255.182z"/>
	<path fill="#FFFFFF" d="M263.438,27.844l2.337,4.914h-3.617l-1.601-4.29H259.5v4.29h-3.121V20.752h4.146
		c3.041,0,4.546,1.152,4.546,3.857C265.07,26.211,264.494,27.395,263.438,27.844z M260.589,23.346H259.5v2.77h1.072
		c0.913,0,1.232-0.225,1.232-1.393C261.805,23.634,261.501,23.346,260.589,23.346z"/>
	<path fill="#FFFFFF" d="M273.581,32.758l-3.585-5.539l-0.672-1.104l-0.032,0.016l0.016,1.297v5.33h-2.753V20.752h2.625l3.857,6.227
		l0.032-0.016l-0.032-1.28l0.017-4.931h2.753v12.006H273.581z"/>
	<path fill="#FFFFFF" d="M278.716,32.949c-1.12,0-1.616-0.432-1.616-1.521c0-0.976,0.496-1.536,1.616-1.536
		c1.121,0,1.601,0.561,1.601,1.536C280.316,32.342,279.837,32.949,278.716,32.949z"/>
	<path fill="#FFFFFF" d="M284.524,20.288l0.208,1.553l1.473-0.353l0.464,1.312l-1.425,0.689l0.816,1.359l-1.008,0.77l-1.185-1.153
		l-1.217,1.169l-1.04-0.736l0.784-1.408l-1.425-0.673l0.496-1.329l1.488,0.353l0.225-1.553H284.524z"/>
</g>
</svg>
