<?xml version="1.0" encoding="utf-8"?>
<!-- Generator: Adobe Illustrator 16.0.4, SVG Export Plug-In . SVG Version: 6.00 Build 0)  -->
<!DOCTYPE svg PUBLIC "-//W3C//DTD SVG 1.1//EN" "http://www.w3.org/Graphics/SVG/1.1/DTD/svg11.dtd">
<svg version="1.1" id="Ebene_1" xmlns="http://www.w3.org/2000/svg" xmlns:xlink="http://www.w3.org/1999/xlink" x="0px" y="0px"
	 width="275.966px" height="56.798px" viewBox="0 0 275.966 56.798" enable-background="new 0 0 275.966 56.798"
	 xml:space="preserve">
<g>
	<path fill="#FFFFFF" d="M0,24.382v-4.062l7.648-12.16l1.407-2.111L9.023,5.983H0.192l0.16-5.6h16.03v4.48L8.992,16.639l-1.408,2.08
		l0.031,0.097h8.832l-0.096,5.566H0z"/>
	<path fill="#FFFFFF" d="M36.831,16.224c0,5.631-3.008,8.574-9.151,8.574s-9.248-2.943-9.248-8.574V0.384h6.272v15.711
		c0,2.145,0.831,3.104,2.976,3.104c2.176,0,2.912-0.896,2.912-3.104V0.384h6.239V16.224z"/>
	<path fill="#FFFFFF" d="M59.135,24.382v-9.406h-5.823v9.406h-6.239V0.384h6.239v8.992h5.823V0.384h6.271v23.998H59.135z"/>
	<path fill="#FFFFFF" d="M84.223,18.975l-0.128,5.407H68.64V0.384h15.039l0.128,5.504h-8.928V9.6h7.359v5.023h-7.359v4.352H84.223z"
		/>
	<path fill="#FFFFFF" d="M86.879,0.384h6.433v23.998h-6.433V0.384z"/>
	<path fill="#FFFFFF" d="M103.103,24.798c-2.527,0-5.023-0.576-6.976-1.664l0.8-5.311c1.952,0.992,3.937,1.6,6.016,1.6
		c1.984,0,2.752-0.672,2.752-1.952c0-3.071-9.535-2.112-9.535-9.951c0-4.192,2.56-7.52,8.479-7.52c2.208,0,4.575,0.416,6.304,1.151
		l-0.704,5.217c-1.824-0.545-3.647-0.864-5.184-0.864c-2.368,0-2.88,0.704-2.88,1.728c0,3.104,9.535,2.048,9.535,9.887
		C111.71,21.854,108.51,24.798,103.103,24.798z"/>
	<path fill="#FFFFFF" d="M119.806,24.798c-2.527,0-5.023-0.576-6.976-1.664l0.8-5.311c1.952,0.992,3.937,1.6,6.016,1.6
		c1.984,0,2.752-0.672,2.752-1.952c0-3.071-9.535-2.112-9.535-9.951c0-4.192,2.56-7.52,8.479-7.52c2.208,0,4.575,0.416,6.304,1.151
		l-0.704,5.217c-1.824-0.545-3.647-0.864-5.184-0.864c-2.368,0-2.88,0.704-2.88,1.728c0,3.104,9.535,2.048,9.535,9.887
		C128.413,21.854,125.213,24.798,119.806,24.798z"/>
	<path fill="#FFFFFF" d="M136.029,22.046c0,1.889-1.632,5.088-3.136,6.912l-2.048-0.512l0.768-3.744
		c-0.896-0.48-1.888-1.535-1.888-2.848c0-1.729,0.864-3.104,3.104-3.104C135.005,18.751,136.029,20.062,136.029,22.046z"/>
	<path fill="#FFFFFF" d="M19.039,48.224c0,5.631-3.008,8.574-9.151,8.574s-9.247-2.943-9.247-8.574v-15.84h6.271v15.711
		c0,2.145,0.832,3.104,2.976,3.104c2.176,0,2.911-0.896,2.911-3.104V32.384h6.24V48.224z"/>
	<path fill="#FFFFFF" d="M28.959,32.384l4.225,12.127l0.8,2.465h0.096l0.8-2.433l4.288-12.159h6.911v23.998h-5.728V46.335
		l0.064-2.592l-0.097-0.031l-0.799,2.495l-3.553,10.175h-4.063l-3.52-10.143l-0.8-2.496l-0.064,0.032l0.032,2.592v10.015H22.08
		V32.384H28.959z"/>
	<path fill="#FFFFFF" d="M73.79,32.384l2.528,15.008l0.384,2.559h0.096l0.288-2.559l2.145-15.008h6.238l-5.023,23.998h-7.486
		l-2.24-14.559l-0.32-2.592h-0.096l-0.352,2.592l-2.209,14.559h-7.486l-5.024-23.998h6.528l2.111,15.135l0.32,2.561h0.096
		l0.352-2.561l2.496-15.135H73.79z"/>
	<path fill="#FFFFFF" d="M98.303,52.19h-6.527l-0.929,4.191h-6.623l7.104-23.998h7.647l7.231,23.998H99.23L98.303,52.19z
		 M94.495,40.096l-1.536,6.88h4.191l-1.535-6.88l-0.48-2.56h-0.096L94.495,40.096z"/>
	<path fill="#FFFFFF" d="M119.871,56.382v-9.406h-5.824v9.406h-6.239V32.384h6.239v8.992h5.824v-8.992h6.271v23.998H119.871z"/>
	<path fill="#FFFFFF" d="M143.487,46.56l4.671,9.822h-7.231l-3.199-8.574h-2.112v8.574h-6.239V32.384h8.287
		c6.08,0,9.088,2.305,9.088,7.712C146.751,43.296,145.599,45.663,143.487,46.56z M137.791,37.567h-2.176v5.536h2.145
		c1.823,0,2.464-0.448,2.464-2.784C140.224,38.144,139.615,37.567,137.791,37.567z"/>
	<path fill="#FFFFFF" d="M156.062,56.382v-4.062l7.647-12.16l1.408-2.111l-0.032-0.064h-8.831l0.16-5.6h16.03v4.48l-7.391,11.774
		l-1.408,2.08l0.032,0.097h8.831l-0.096,5.566H156.062z"/>
	<path fill="#FFFFFF" d="M192.895,48.224c0,5.631-3.008,8.574-9.151,8.574s-9.247-2.943-9.247-8.574v-15.84h6.271v15.711
		c0,2.145,0.832,3.104,2.976,3.104c2.176,0,2.912-0.896,2.912-3.104V32.384h6.239V48.224z"/>
	<path fill="#FFFFFF" d="M209.407,56.798c-2.527,0-5.023-0.576-6.976-1.664l0.8-5.311c1.952,0.992,3.937,1.6,6.016,1.6
		c1.984,0,2.752-0.672,2.752-1.952c0-3.071-9.535-2.112-9.535-9.951c0-4.192,2.56-7.52,8.479-7.52c2.208,0,4.575,0.416,6.304,1.151
		l-0.704,5.217c-1.824-0.545-3.647-0.864-5.184-0.864c-2.368,0-2.88,0.704-2.88,1.728c0,3.104,9.535,2.048,9.535,9.887
		C218.015,53.854,214.814,56.798,209.407,56.798z"/>
	<path fill="#FFFFFF" d="M235.838,50.975l-0.128,5.407h-15.455V32.384h15.039l0.128,5.504h-8.928V41.6h7.359v5.023h-7.359v4.352
		H235.838z"/>
	<path fill="#FFFFFF" d="M238.495,32.384h6.432v23.998h-6.432V32.384z"/>
	<path fill="#FFFFFF" d="M262.493,56.382l-7.167-11.07l-1.344-2.208l-0.064,0.032l0.032,2.592v10.654h-5.504V32.384h5.248
		l7.711,12.447l0.064-0.031l-0.064-2.561l0.032-9.855h5.504v23.998H262.493z"/>
	<path fill="#FFFFFF" d="M272.766,56.767c-2.239,0-3.231-0.864-3.231-3.04c0-1.952,0.992-3.071,3.231-3.071
		c2.24,0,3.2,1.119,3.2,3.071C275.966,55.55,275.006,56.767,272.766,56.767z"/>
</g>
</svg>
