<?xml version="1.0" encoding="utf-8"?>
<!-- Generator: Adobe Illustrator 16.0.0, SVG Export Plug-In . SVG Version: 6.00 Build 0)  -->
<!DOCTYPE svg PUBLIC "-//W3C//DTD SVG 1.1//EN" "http://www.w3.org/Graphics/SVG/1.1/DTD/svg11.dtd">
<svg version="1.1" id="Ebene_1" xmlns="http://www.w3.org/2000/svg" xmlns:xlink="http://www.w3.org/1999/xlink" x="0px" y="0px"
	 width="745.998px" height="115.8px" viewBox="-1253.498 55 745.998 115.8" enable-background="new -1253.498 55 745.998 115.8"
	 xml:space="preserve">
<g>
	<path d="M-1224.782,91.302l-0.213,9.021h-25.78V60.291h25.086l0.213,9.18h-14.892v6.192h12.276v8.38h-12.276v7.259H-1224.782z"/>
	<path d="M-1197.351,100.322l-11.956-18.468l-2.242-3.683l-0.107,0.053l0.054,4.324v17.773h-9.181V60.291h8.753l12.864,20.763
		l0.106-0.054l-0.106-4.27l0.053-16.439h9.181v40.031H-1197.351z"/>
	<path d="M-1167.038,69.631v30.691h-10.622V69.631h-9.074l0.213-9.34h28.342l0.213,9.34H-1167.038z"/>
	<path d="M-1140.3,100.322h-14.465V60.291h14.251c12.17,0,17.134,5.658,17.134,19.803
		C-1123.38,94.771-1129.038,100.322-1140.3,100.322z M-1140.46,69.525h-3.896v21.67h3.896c4.59,0,6.138-1.389,6.138-11.209
		C-1134.322,71.126-1135.763,69.525-1140.46,69.525z"/>
	<path d="M-1093.013,91.302l-0.213,9.021h-25.78V60.291h25.086l0.213,9.18h-14.892v6.192h12.276v8.38h-12.276v7.259H-1093.013z"/>
	<path d="M-1065.794,69.951c-1.761-0.641-4.163-1.066-6.672-1.066c-5.924,0-7.419,2.508-7.419,11.262
		c0,9.234,1.654,11.796,7.579,11.796c2.456,0,4.75-0.48,6.619-1.335l0.961,8.487c-2.402,1.175-6.032,1.921-9.127,1.921
		c-11.422,0-16.973-6.512-16.973-20.922c0-13.451,5.391-20.496,17.614-20.496c2.829,0,6.298,0.64,8.433,1.494L-1065.794,69.951z"/>
	<path d="M-1040.392,100.322l-7.526-16.279h-2.562v16.279h-10.408V60.291h10.408V75.77h2.775l7.419-15.479h11.689l-9.607,19.162
		l10.088,20.869H-1040.392z"/>
	<path d="M-999.19,91.302l-0.213,9.021h-25.78V60.291h25.086l0.213,9.18h-14.892v6.192h12.276v8.38h-12.276v7.259H-999.19z"/>
	<path d="M-971.758,100.322l-11.956-18.468l-2.242-3.683l-0.107,0.053l0.054,4.324v17.773h-9.181V60.291h8.753l12.863,20.763
		l0.107-0.054l-0.107-4.27l0.054-16.439h9.181v40.031H-971.758z"/>
	<path d="M-936.43,101.016c-4.217,0-8.38-0.961-11.636-2.775l1.334-8.859c3.256,1.654,6.565,2.668,10.035,2.668
		c3.309,0,4.59-1.121,4.59-3.256c0-5.124-15.906-3.522-15.906-16.6c0-6.992,4.27-12.543,14.145-12.543
		c3.683,0,7.633,0.693,10.515,1.922l-1.174,8.699c-3.042-0.906-6.085-1.44-8.647-1.44c-3.95,0-4.804,1.174-4.804,2.882
		c0,5.178,15.906,3.416,15.906,16.493C-922.072,96.105-927.409,101.016-936.43,101.016z"/>
	<path d="M-917.912,60.291h10.729v40.031h-10.729V60.291z"/>
	<path d="M-875.321,91.302l-0.213,9.021h-25.78V60.291h25.086l0.213,9.18h-14.892v6.192h12.276v8.38h-12.276v7.259H-875.321z"/>
	<path d="M-828.997,86.711c0,9.395-5.017,14.305-15.265,14.305s-15.425-4.91-15.425-14.305v-26.42h10.461v26.207
		c0,3.576,1.388,5.178,4.964,5.178c3.629,0,4.857-1.494,4.857-5.178V60.291h10.408V86.711z"/>
	<path d="M-800.498,100.322l-11.956-18.468l-2.242-3.683l-0.107,0.053l0.054,4.324v17.773h-9.181V60.291h8.753l12.863,20.763
		l0.107-0.054l-0.107-4.27l0.054-16.439h9.181v40.031H-800.498z"/>
	<path d="M-777.177,101.016c-4.217,0-8.38-0.961-11.636-2.775l1.334-8.859c3.256,1.654,6.565,2.668,10.035,2.668
		c3.309,0,4.59-1.121,4.59-3.256c0-5.124-15.906-3.522-15.906-16.6c0-6.992,4.27-12.543,14.145-12.543
		c3.683,0,7.633,0.693,10.515,1.922l-1.174,8.699c-3.042-0.906-6.085-1.44-8.647-1.44c-3.95,0-4.804,1.174-4.804,2.882
		c0,5.178,15.906,3.416,15.906,16.493C-762.819,96.105-768.156,101.016-777.177,101.016z"/>
	<path d="M-733.092,91.302l-0.213,9.021h-25.78V60.291H-734l0.213,9.18h-14.892v6.192h12.276v8.38h-12.276v7.259H-733.092z"/>
	<path d="M-705.554,83.936l7.792,16.387h-12.062l-5.337-14.305h-3.523v14.305h-10.408V60.291h13.824
		c10.141,0,15.159,3.843,15.159,12.863C-700.109,78.492-702.031,82.441-705.554,83.936z M-715.055,68.938h-3.629v9.234h3.576
		c3.042,0,4.11-0.748,4.11-4.645C-710.998,69.898-712.012,68.938-715.055,68.938z"/>
	<path d="M-669.156,91.302l-0.213,9.021h-25.78V60.291h25.086l0.213,9.18h-14.892v6.192h12.276v8.38h-12.276v7.259H-669.156z"/>
	<path d="M-1227.237,147.936l7.792,16.387h-12.062l-5.337-14.305h-3.523v14.305h-10.408v-40.031h13.824
		c10.141,0,15.159,3.843,15.159,12.863C-1221.793,142.492-1223.715,146.441-1227.237,147.936z M-1236.738,132.938h-3.629v9.234
		h3.576c3.042,0,4.11-0.748,4.11-4.645C-1232.682,133.898-1233.696,132.938-1236.738,132.938z"/>
	<path d="M-1201.941,165.016c-11.529,0-16.76-6.084-16.76-20.709c0-14.678,5.017-20.656,16.76-20.656s16.76,5.979,16.76,20.656
		C-1185.182,159.358-1190.199,165.016-1201.941,165.016z M-1201.995,132.991c-4.376,0-5.764,1.814-5.764,11.315
		c0,9.555,1.441,11.476,5.871,11.476s5.765-1.976,5.765-11.476C-1196.124,134.752-1197.458,132.991-1201.995,132.991z"/>
	<path d="M-1165.224,164.322h-15.585v-40.031h15.692c8.593,0,12.97,4.003,12.97,10.354c0,4.217-1.921,6.938-4.911,8.38v0.107
		c4.003,1.334,6.138,4.43,6.138,9.394C-1150.919,159.732-1155.243,164.322-1165.224,164.322z M-1165.544,133.045h-5.177v7.045h5.284
		c2.402,0,3.256-0.907,3.256-3.629C-1162.182,133.846-1163.089,133.045-1165.544,133.045z M-1165.277,147.883h-5.444v7.899h5.658
		c2.615,0,3.576-0.854,3.576-4.003C-1161.488,149.004-1162.342,147.883-1165.277,147.883z"/>
	<path d="M-1116.763,150.711c0,9.395-5.017,14.305-15.265,14.305s-15.425-4.91-15.425-14.305v-26.42h10.461v26.207
		c0,3.576,1.388,5.178,4.964,5.178c3.629,0,4.857-1.494,4.857-5.178v-26.207h10.408V150.711z"/>
	<path d="M-1101.608,165.016c-4.216,0-8.38-0.961-11.636-2.775l1.334-8.859c3.256,1.654,6.565,2.668,10.035,2.668
		c3.309,0,4.59-1.121,4.59-3.256c0-5.124-15.906-3.522-15.906-16.6c0-6.992,4.27-12.543,14.145-12.543
		c3.683,0,7.633,0.693,10.515,1.922l-1.174,8.699c-3.042-0.906-6.085-1.44-8.647-1.44c-3.95,0-4.804,1.174-4.804,2.882
		c0,5.178,15.906,3.416,15.906,16.493C-1087.25,160.105-1092.587,165.016-1101.608,165.016z"/>
	<path d="M-1066.917,133.631v30.691h-10.622v-30.691h-9.074l0.213-9.34h28.342l0.213,9.34H-1066.917z"/>
	<path d="M-1028.65,155.302l-0.213,9.021h-25.78v-40.031h25.086l0.213,9.18h-14.892v6.192h12.276v8.38h-12.276v7.259H-1028.65z"/>
	<path d="M-1001.219,164.322l-11.956-18.468l-2.242-3.683l-0.107,0.053l0.054,4.324v17.773h-9.181v-40.031h8.753l12.864,20.763
		l0.106-0.054l-0.106-4.27l0.053-16.439h9.181v40.031H-1001.219z"/>
	<path d="M-975.925,124.291h10.729v40.031h-10.729V124.291z"/>
	<path d="M-935.896,164.322l-11.956-18.468l-2.242-3.683l-0.107,0.053l0.054,4.324v17.773h-9.181v-40.031h8.753l12.864,20.763
		l0.106-0.054l-0.106-4.27l0.053-16.439h9.181v40.031H-935.896z"/>
	<path d="M-908.571,164.322h-14.465v-40.031h14.251c12.17,0,17.134,5.658,17.134,19.803
		C-891.651,158.771-897.309,164.322-908.571,164.322z M-908.731,133.525h-3.896v21.67h3.896c4.59,0,6.138-1.389,6.138-11.209
		C-902.593,135.126-904.035,133.525-908.731,133.525z"/>
	<path d="M-856.961,150.711c0,9.395-5.017,14.305-15.265,14.305s-15.425-4.91-15.425-14.305v-26.42h10.461v26.207
		c0,3.576,1.388,5.178,4.964,5.178c3.629,0,4.857-1.494,4.857-5.178v-26.207h10.408V150.711z"/>
	<path d="M-841.806,165.016c-4.216,0-8.38-0.961-11.636-2.775l1.334-8.859c3.256,1.654,6.565,2.668,10.035,2.668
		c3.309,0,4.59-1.121,4.59-3.256c0-5.124-15.906-3.522-15.906-16.6c0-6.992,4.27-12.543,14.145-12.543
		c3.683,0,7.633,0.693,10.515,1.922l-1.174,8.699c-3.042-0.906-6.085-1.44-8.647-1.44c-3.95,0-4.804,1.174-4.804,2.882
		c0,5.178,15.906,3.416,15.906,16.493C-827.448,160.105-832.786,165.016-841.806,165.016z"/>
	<path d="M-807.115,133.631v30.691h-10.622v-30.691h-9.074l0.213-9.34h28.342l0.213,9.34H-807.115z"/>
	<path d="M-771.304,147.936l7.792,16.387h-12.062l-5.337-14.305h-3.523v14.305h-10.408v-40.031h13.824
		c10.141,0,15.159,3.843,15.159,12.863C-765.859,142.492-767.781,146.441-771.304,147.936z M-780.805,132.938h-3.629v9.234h3.576
		c3.042,0,4.11-0.748,4.11-4.645C-776.748,133.898-777.762,132.938-780.805,132.938z"/>
	<path d="M-760.473,124.291h10.729v40.031h-10.729V124.291z"/>
	<path d="M-717.882,155.302l-0.213,9.021h-25.78v-40.031h25.086l0.213,9.18h-14.892v6.192h12.276v8.38h-12.276v7.259H-717.882z"/>
	<path d="M-703.42,165.016c-4.216,0-8.38-0.961-11.636-2.775l1.334-8.859c3.256,1.654,6.565,2.668,10.035,2.668
		c3.309,0,4.59-1.121,4.59-3.256c0-5.124-15.906-3.522-15.906-16.6c0-6.992,4.27-12.543,14.145-12.543
		c3.683,0,7.633,0.693,10.515,1.922l-1.174,8.699c-3.042-0.906-6.085-1.44-8.647-1.44c-3.95,0-4.804,1.174-4.804,2.882
		c0,5.178,15.906,3.416,15.906,16.493C-689.062,160.105-694.4,165.016-703.42,165.016z"/>
	<path d="M-665.687,157.33h-10.889l-1.548,6.992h-11.049l11.85-40.031h12.756l12.063,40.031h-11.636L-665.687,157.33z
		 M-672.039,137.154l-2.562,11.476h6.992l-2.562-11.476l-0.801-4.27h-0.16L-672.039,137.154z"/>
	<path d="M-621.176,150.711c0,9.395-5.017,14.305-15.265,14.305s-15.425-4.91-15.425-14.305v-26.42h10.461v26.207
		c0,3.576,1.388,5.178,4.964,5.178c3.629,0,4.857-1.494,4.857-5.178v-26.207h10.408V150.711z"/>
	<path d="M-587.82,162.881c-2.776,1.334-7.312,2.188-11.422,2.188c-13.237,0-17.934-7.099-17.934-20.763
		c0-13.984,5.498-20.709,18.415-20.709c3.522,0,7.526,0.64,10.408,1.761l-0.96,8.913c-2.615-0.961-5.978-1.547-8.86-1.547
		c-6.565,0-8.06,2.455-8.06,11.475c0,9.502,1.548,11.583,6.725,11.583c0.801,0,1.655-0.054,2.402-0.214v-13.076h9.288V162.881z"/>
	<path d="M-557.08,155.302l-0.213,9.021h-25.78v-40.031h25.086l0.213,9.18h-14.892v6.192h12.276v8.38h-12.276v7.259H-557.08z"/>
	<path d="M-529.542,147.936l7.792,16.387h-12.062l-5.338-14.305h-3.522v14.305h-10.408v-40.031h13.824
		c10.141,0,15.159,3.843,15.159,12.863C-524.097,142.492-526.019,146.441-529.542,147.936z M-539.042,132.938h-3.629v9.234h3.576
		c3.042,0,4.11-0.748,4.11-4.645C-534.986,133.898-536,132.938-539.042,132.938z"/>
	<path d="M-514.867,164.963c-3.736,0-5.391-1.441-5.391-5.07c0-3.256,1.655-5.125,5.391-5.125s5.337,1.869,5.337,5.125
		C-509.53,162.935-511.131,164.963-514.867,164.963z"/>
</g>
</svg>
