<?xml version="1.0" encoding="utf-8"?>
<!-- Generator: Adobe Illustrator 23.1.1, SVG Export Plug-In . SVG Version: 6.00 Build 0)  -->
<svg version="1.1" id="Ebene_1" xmlns="http://www.w3.org/2000/svg" xmlns:xlink="http://www.w3.org/1999/xlink" x="0px" y="0px"
	 viewBox="0 0 326 109.2" style="enable-background:new 0 0 326 109.2;" xml:space="preserve">
<style type="text/css">
	.st0{fill-rule:evenodd;clip-rule:evenodd;fill:#FFFFFF;}
</style>
<path class="st0" d="M295.4,77.7c-4.3,0-6.3-1.7-6.3-5.9c0-3.8,1.9-6,6.3-6c4.4,0,6.2,2.2,6.2,6C301.6,75.4,299.7,77.7,295.4,77.7z
	 M273.3,77l-6.2-16.6H263V77h-12.1V30.4H267c11.8,0,17.6,4.5,17.6,15c0,6.2-2.2,10.8-6.3,12.5l9.1,19.1C287.4,77,273.3,77,273.3,77z
	 M267.3,40.5H263v10.7h4.2c3.5,0,4.8-0.9,4.8-5.4C272,41.6,270.8,40.5,267.3,40.5z M246.3,66.5L246,77h-30V30.4h29.2l0.2,10.7h-17.3
	v7.2h14.3v9.7h-14.3v8.4L246.3,66.5L246.3,66.5z M201.8,77h-12.4V41.3h-10.6l0.2-10.9h32.9l0.2,10.9h-10.6L201.8,77L201.8,77z
	 M161.4,77.8c-4.9,0-9.7-1.1-13.5-3.2l1.6-10.3c3.8,1.9,7.6,3.1,11.7,3.1c3.9,0,5.3-1.3,5.3-3.8c0-6-18.5-4.1-18.5-19.3
	c0-8.1,5-14.6,16.4-14.6c4.3,0,8.9,0.8,12.2,2.2L175.3,42c-3.5-1-7.1-1.7-10.1-1.7c-4.6,0-5.6,1.4-5.6,3.3c0,6,18.5,4,18.5,19.2
	C178.1,72.1,171.9,77.8,161.4,77.8z M130.7,68.9h-12.7l-1.8,8.1h-12.8l13.8-46.5H132L146,77h-13.5L130.7,68.9z M125.5,45.4l-0.9-5
	h-0.2l-1.1,5l-3,13.3h8.1L125.5,45.4z M74.7,77V30.4h12.2v35.8h15.8L102.4,77C102.4,77,74.7,77,74.7,77z M69.8,63.3
	c0,8.4-5,13.7-16.6,13.7H35.1V30.4h18.2c10,0,15.1,4.6,15.1,12c0,4.9-2.2,8.1-5.7,9.7v0.1C67.3,53.9,69.8,57.5,69.8,63.3z
	 M52.8,40.6h-6v8.2H53c2.8,0,3.8-1.1,3.8-4.2C56.7,41.5,55.7,40.6,52.8,40.6z M53.1,57.9h-6.3v9.2h6.6c3,0,4.2-1,4.2-4.7
	C57.5,59.2,56.5,57.9,53.1,57.9z"/>
</svg>
