<?xml version="1.0" encoding="utf-8"?>
<!-- Generator: Adobe Illustrator 23.1.1, SVG Export Plug-In . SVG Version: 6.00 Build 0)  -->
<svg version="1.1" id="Ebene_1" xmlns="http://www.w3.org/2000/svg" xmlns:xlink="http://www.w3.org/1999/xlink" x="0px" y="0px"
	 viewBox="0 0 221.59 53.45" style="enable-background:new 0 0 221.59 53.45;" xml:space="preserve">
<style type="text/css">
	.st0{fill-rule:evenodd;clip-rule:evenodd;}
</style>
<path class="st0" d="M200.18,38.07l-5.82-9l-1.09-1.79l-0.05,0.03l0.03,2.11v8.66h-4.47v-19.5h4.27l6.27,10.12l0.05-0.03l-0.05-2.08
	l0.03-8.01h4.47v19.5h-3.64V38.07z M186.17,33.68l-0.1,4.39H173.5v-19.5h12.22l0.1,4.47h-7.25v3.02h5.98v4.08h-5.98v3.54H186.17z
	 M164.98,38.44c-6.45,0-8.74-3.46-8.74-10.11c0-6.81,2.68-10.09,8.97-10.09c1.72,0,3.67,0.31,5.07,0.86l-0.47,4.34
	c-1.27-0.47-2.91-0.75-4.32-0.75c-3.2,0-3.93,1.2-3.93,5.59c0,4.63,0.75,5.64,3.28,5.64c0.39,0,0.81-0.03,1.17-0.1v-6.37h4.52v9.93
	C169.19,38.02,166.98,38.44,164.98,38.44z M148.02,18.57h5.23v19.5h-5.23V18.57z M135.08,29.08l-1.09-1.79l-0.05,0.03l0.03,2.11
	v8.66h-4.47v-19.5h4.26l6.27,10.12l0.05-0.03l-0.05-2.08l0.03-8.01h4.47v19.5h-3.61L135.08,29.08z M120.75,18.57h5.23v19.5h-5.23
	V18.57z M117.94,33.68l-0.1,4.39h-12.56v-19.5h12.22l0.1,4.47h-7.25v3.02h5.98v4.08h-5.98v3.54H117.94z M97.48,38.07l-2.6-6.97
	h-1.72v6.97h-5.07v-19.5h6.74c4.94,0,7.38,1.87,7.38,6.27c0,2.6-0.94,4.52-2.65,5.25l3.8,7.98H97.48z M94.93,22.78h-1.77v4.5h1.74
	c1.48,0,2-0.36,2-2.26C96.91,23.25,96.42,22.78,94.93,22.78z M67.53,38.07v-19.5h5.12v14.98h6.63l-0.13,4.52H67.53z M56.58,38.41
	c-5.62,0-8.16-2.96-8.16-10.09c0-7.15,2.44-10.06,8.16-10.06s8.16,2.91,8.16,10.06C64.75,35.66,62.3,38.41,56.58,38.41z
	 M56.56,22.81c-2.13,0-2.81,0.88-2.81,5.51c0,4.65,0.7,5.59,2.86,5.59s2.81-0.96,2.81-5.59C59.42,23.67,58.77,22.81,56.56,22.81z
	 M37.99,38.41c-5.62,0-8.16-2.96-8.16-10.09c0-7.15,2.44-10.06,8.16-10.06s8.16,2.91,8.16,10.06
	C46.16,35.66,43.71,38.41,37.99,38.41z M37.97,22.81c-2.13,0-2.81,0.88-2.81,5.51c0,4.65,0.7,5.59,2.86,5.59s2.81-0.96,2.81-5.59
	C40.83,23.67,40.18,22.81,37.97,22.81z M24.66,33.99c1.2,0,2.31-0.23,3.22-0.65l0.47,4.13c-1.17,0.57-2.94,0.94-4.45,0.94
	c-5.56,0-8.27-3.17-8.27-10.19c0-6.55,2.63-9.99,8.58-9.99c1.38,0,3.07,0.31,4.11,0.73l-0.49,4.32c-0.86-0.31-2.03-0.52-3.25-0.52
	c-2.89,0-3.61,1.22-3.61,5.49C20.96,32.74,21.77,33.99,24.66,33.99z"/>
</svg>
