<?xml version="1.0" encoding="utf-8"?>
<!-- Generator: Adobe Illustrator 23.1.1, SVG Export Plug-In . SVG Version: 6.00 Build 0)  -->
<svg version="1.1" id="Ebene_1" xmlns="http://www.w3.org/2000/svg" xmlns:xlink="http://www.w3.org/1999/xlink" x="0px" y="0px"
	 viewBox="0 0 149 82.7" style="enable-background:new 0 0 149 82.7;" xml:space="preserve">
<style type="text/css">
	.st0{fill-rule:evenodd;clip-rule:evenodd;fill:#FFFFFF;}
</style>
<path class="st0" d="M109.5,71.7l-4-1l1.5-7.3c-1.7-0.9-3.7-3-3.7-5.5c0-3.3,1.7-6,6-6c4.2,0,6.2,2.5,6.2,6.4
	C115.6,62,112.4,68.2,109.5,71.7z M100,52.4l-0.2,10.5h-30V16.3H99L99.2,27H81.9v7.2h14.3v9.7H81.9v8.4L100,52.4L100,52.4z
	 M56.5,53.1c2.8,0,5.5-0.6,7.7-1.5l1.1,9.9c-2.8,1.4-7,2.2-10.6,2.2C41.5,63.7,35,56.1,35,39.3c0-15.6,6.3-23.8,20.5-23.8
	c3.3,0,7.3,0.7,9.8,1.7l-1.2,10.3c-2-0.8-4.8-1.2-7.8-1.2c-6.9,0-8.6,2.9-8.6,13.1C47.7,50.1,49.6,53.1,56.5,53.1z M16.9,16.3h12.5
	v46.6H16.9V16.3z"/>
</svg>
