<?xml version="1.0" encoding="utf-8"?>
<!-- Generator: Adobe Illustrator 23.1.1, SVG Export Plug-In . SVG Version: 6.00 Build 0)  -->
<svg version="1.1" id="Ebene_1" xmlns="http://www.w3.org/2000/svg" xmlns:xlink="http://www.w3.org/1999/xlink" x="0px" y="0px"
	 viewBox="0 0 343.72 246.37" style="enable-background:new 0 0 343.72 246.37;" xml:space="preserve">
<style type="text/css">
	.st0{fill-rule:evenodd;clip-rule:evenodd;fill:#FFFFFF;}
</style>
<path class="st0" d="M304.91,55.31v-5.72h12.27v5.72H304.91z M288.76,69.52c-8.45,0-12.71-4.05-12.71-11.79V35.95h8.62v21.6
	c0,2.95,1.14,4.27,4.09,4.27c2.99,0,4-1.23,4-4.27v-21.6h8.58v21.78C301.34,65.47,297.2,69.52,288.76,69.52z M273.05,61.51
	l-0.18,7.44h-21.25V35.95h20.68l0.18,7.57H260.2v5.1h10.12v6.91H260.2v5.98H273.05z M231.16,53.73l-1.85-3.04l-0.09,0.04l0.04,3.56
	v14.65h-7.57V35.95h7.21l10.6,17.11l0.09-0.04l-0.09-3.52l0.04-13.55h7.57v32.99h-6.12L231.16,53.73z M239.96,91.52h-12.27v5.1
	h10.12v6.91h-10.12v5.98h12.85l-0.18,7.44h-21.25V83.95h20.68L239.96,91.52z M211.58,68.95h-8.75v-25.3h-7.48l0.18-7.7h23.36
	l0.18,7.7h-7.48V68.95z M197.94,68.95h-19.67V35.95h8.67v25.34h11.22L197.94,68.95z M159.27,101.73l-1.85-3.04l-0.09,0.04l0.04,3.56
	v14.65h-7.57V83.95h7.21l10.6,17.11l0.09-0.04l-0.09-3.52l0.04-13.55h7.57v32.99h-6.12L159.27,101.73z M174.97,61.51l-0.18,7.44
	h-21.25V35.95h20.68l0.18,7.57h-12.27v5.1h10.12v6.91h-10.12v5.98H174.97z M133.66,68.95l-3.08-20.02l-0.44-3.56h-0.13l-0.48,3.56
	l-3.04,20.02h-10.29l-6.91-32.99h8.97l2.9,20.81l0.44,3.52h0.13l0.48-3.52l3.43-20.81h9.15l3.48,20.63l0.53,3.52h0.13l0.4-3.52
	l2.95-20.63h8.58l-6.91,32.99H133.66z M123.23,91.65h-7.48v25.3H107v-25.3h-7.48l0.18-7.7h23.36L123.23,91.65z M97.89,61.51
	l-0.18,7.44H76.46V35.95h20.68l0.18,7.57H85.04v5.1h10.12v6.91H85.04v5.98H97.89z M62.78,35.95h8.84v32.99h-8.84V35.95z
	 M83.45,91.52H71.18v5.1H81.3v6.91H71.18v5.98h12.85l-0.18,7.44H62.6V83.95h20.68L83.45,91.52z M44.87,68.95H32.95V35.95h11.75
	c10.03,0,14.12,4.66,14.12,16.32C58.81,64.37,54.15,68.95,44.87,68.95z M44.74,43.56h-3.21v17.86h3.21c3.78,0,5.06-1.14,5.06-9.24
	C49.8,44.88,48.61,43.56,44.74,43.56z M54.81,139.65h-7.48v25.3h-8.75v-25.3H31.1l0.18-7.7h23.36L54.81,139.65z M56.83,190.56
	c0,4.4-1.58,7.65-4.49,8.89l6.42,13.51h-9.94l-4.4-11.79h-2.9v11.79h-8.58v-32.99h11.39C52.7,179.95,56.83,183.12,56.83,190.56z
	 M41.53,194.69h2.95c2.51,0,3.39-0.62,3.39-3.83c0-2.99-0.84-3.78-3.34-3.78h-2.99V194.69z M81.78,187.52H69.51v5.1h10.12v6.91
	H69.51v5.98h12.85l-0.18,7.44H60.93v-32.99h20.68L81.78,187.52z M58.15,83.95v32.99h-8.62v-12.93h-8.01v12.93h-8.58V83.95h8.58
	v12.36h8.01V83.95H58.15z M73.34,164.95l-4.4-11.79h-2.9v11.79h-8.58v-32.99h11.39c8.36,0,12.49,3.17,12.49,10.6
	c0,4.4-1.58,7.65-4.49,8.89l6.42,13.51H73.34z M69.02,139.08h-2.99v7.61h2.95c2.51,0,3.39-0.62,3.39-3.83
	C72.37,139.87,71.53,139.08,69.02,139.08z M87.68,83.95h8.84v32.99h-8.84V83.95z M97.71,131.43c9.68,0,13.81,4.93,13.81,17.02
	c0,12.41-4.13,17.07-13.81,17.07c-9.5,0-13.81-5.02-13.81-17.07C83.9,136.35,88.03,131.43,97.71,131.43z M97.76,157.91
	c3.65,0,4.75-1.63,4.75-9.46c0-7.87-1.1-9.33-4.84-9.33c-3.61,0-4.75,1.5-4.75,9.33C92.92,156.32,94.1,157.91,97.76,157.91z
	 M94.85,212.95h-8.84v-32.99h8.84V212.95z M117.51,197.07l0.09-0.04l-0.09-3.52l0.04-13.55h7.57v32.99h-6.11l-9.85-15.22l-1.85-3.04
	l-0.09,0.04l0.04,3.56v14.65h-7.57v-32.99h7.21L117.51,197.07z M114.26,148.27c0-11.09,4.44-16.89,14.52-16.89
	c2.33,0,5.19,0.53,6.95,1.23l-0.84,7.3c-1.45-0.53-3.43-0.88-5.5-0.88c-4.88,0-6.11,2.07-6.11,9.28c0,7.61,1.36,9.72,6.25,9.72
	c2.02,0,3.92-0.4,5.46-1.1l0.79,7c-1.98,0.97-4.97,1.58-7.52,1.58C118.83,165.52,114.26,160.15,114.26,148.27z M138.81,212.95h-8.84
	v-32.99h8.84V212.95z M136.12,83.95h8.84v32.99h-8.84V83.95z M147.52,144.71h2.29l6.12-12.76h9.63l-7.92,15.79l8.32,17.2h-10.12
	l-6.2-13.42h-2.11v13.42h-8.58v-32.99h8.58V144.71z M157.95,179.38c2.9,0,6.2,0.53,8.58,1.45l-0.79,7.35
	c-2.16-0.79-4.93-1.28-7.3-1.28c-5.41,0-6.64,2.02-6.64,9.46c0,7.83,1.28,9.55,5.54,9.55c0.66,0,1.36-0.04,1.98-0.18v-10.78h7.65
	v16.81c-2.29,1.1-6.03,1.8-9.41,1.8c-10.91,0-14.78-5.85-14.78-17.11C142.77,184.92,147.3,179.38,157.95,179.38z M189.23,139.52
	h-12.27v5.1h10.12v6.91h-10.12v5.98h12.85l-0.18,7.44h-21.25v-32.99h20.68L189.23,139.52z M179.2,201.55c0,2.95,1.14,4.27,4.09,4.27
	c2.99,0,4-1.23,4-4.27v-21.6h8.58v21.78c0,7.74-4.13,11.79-12.58,11.79c-8.45,0-12.71-4.05-12.71-11.79v-21.78h8.62V201.55z
	 M201.55,116.95h-11.92V83.95h11.75c10.03,0,14.12,4.66,14.12,16.32C215.49,112.37,210.83,116.95,201.55,116.95z M201.42,91.56
	h-3.21v17.86h3.21c3.78,0,5.06-1.14,5.06-9.24C206.48,92.88,205.29,91.56,201.42,91.56z M218.53,164.95h-6.12l-9.85-15.22
	l-1.85-3.04l-0.09,0.04l0.04,3.56v14.65h-7.57v-32.99h7.21l10.6,17.11l0.09-0.04l-0.09-3.52l0.04-13.55h7.57V164.95z M217.87,197.07
	l0.09-0.04l-0.09-3.52l0.04-13.55h7.57v32.99h-6.11l-9.85-15.22l-1.85-3.04l-0.09,0.04l0.04,3.56v14.65h-7.57v-32.99h7.21
	L217.87,197.07z M244.27,179.38c2.9,0,6.2,0.53,8.58,1.45l-0.79,7.35c-2.15-0.79-4.93-1.28-7.3-1.28c-5.41,0-6.64,2.02-6.64,9.46
	c0,7.83,1.28,9.55,5.54,9.55c0.66,0,1.36-0.04,1.98-0.18v-10.78h7.65v16.81c-2.29,1.1-6.03,1.8-9.41,1.8
	c-10.91,0-14.78-5.85-14.78-17.11C229.1,184.92,233.63,179.38,244.27,179.38z M260.73,205.07c3.08,0,4.4,1.54,4.4,4.22
	c0,2.51-1.32,4.18-4.4,4.18s-4.44-1.19-4.44-4.18C256.29,206.61,257.65,205.07,260.73,205.07z M256.95,164.95h-8.84v-32.99h8.84
	V164.95z M244.45,157.51l-0.18,7.44h-21.25v-32.99h20.68l0.18,7.57H231.6v5.1h10.12v6.91H231.6v5.98H244.45z M259.72,116.95
	l-4.4-11.79h-2.9v11.79h-8.58V83.95h11.39c8.36,0,12.49,3.17,12.49,10.6c0,4.4-1.58,7.65-4.49,8.89l6.42,13.51H259.72z
	 M255.41,91.08h-2.99v7.61h2.95c2.51,0,3.39-0.62,3.39-3.83C258.75,91.87,257.91,91.08,255.41,91.08z M261.92,155.93
	c2.68,1.36,5.41,2.2,8.27,2.2c2.73,0,3.78-0.92,3.78-2.68c0-4.22-13.11-2.9-13.11-13.68c0-5.76,3.52-10.34,11.66-10.34
	c3.04,0,6.29,0.57,8.67,1.58l-0.97,7.17c-2.51-0.75-5.02-1.19-7.13-1.19c-3.25,0-3.96,0.97-3.96,2.38c0,4.27,13.11,2.82,13.11,13.59
	c0,6.51-4.4,10.56-11.83,10.56c-3.48,0-6.91-0.79-9.59-2.29L261.92,155.93z M296.98,151.31h-12.27v-5.72h12.27V151.31z"/>
</svg>
