<?xml version="1.0" encoding="utf-8"?>
<!-- Generator: Adobe Illustrator 16.0.4, SVG Export Plug-In . SVG Version: 6.00 Build 0)  -->
<!DOCTYPE svg PUBLIC "-//W3C//DTD SVG 1.1//EN" "http://www.w3.org/Graphics/SVG/1.1/DTD/svg11.dtd">
<svg version="1.1" id="Ebene_1" xmlns="http://www.w3.org/2000/svg" xmlns:xlink="http://www.w3.org/1999/xlink" x="0px" y="0px"
	 width="300.121px" height="61.918px" viewBox="0 0 300.121 61.918" enable-background="new 0 0 300.121 61.918"
	 xml:space="preserve">
<g>
	<path d="M7.135,29.918c-2.527,0-5.023-0.576-6.976-1.664l0.8-5.312c1.952,0.992,3.936,1.601,6.016,1.601
		c1.984,0,2.752-0.672,2.752-1.953c0-3.071-9.535-2.111-9.535-9.951c0-4.191,2.56-7.52,8.479-7.52c2.208,0,4.575,0.416,6.304,1.152
		l-0.704,5.216c-1.824-0.544-3.647-0.864-5.184-0.864c-2.368,0-2.88,0.704-2.88,1.729c0,3.104,9.535,2.047,9.535,9.887
		C15.742,26.975,12.543,29.918,7.135,29.918z"/>
	<path d="M29.758,25.311H23.23l-0.928,4.191H15.68l7.104-23.998h7.646l7.232,23.998h-6.977L29.758,25.311z M25.95,13.215
		l-1.536,6.88h4.192l-1.536-6.88l-0.48-2.56h-0.096L25.95,13.215z"/>
	<path d="M56.445,21.343c0,5.632-3.008,8.575-9.15,8.575c-6.145,0-9.248-2.943-9.248-8.575V5.504h6.271v15.711
		c0,2.144,0.832,3.104,2.977,3.104c2.176,0,2.911-0.896,2.911-3.104V5.504h6.239V21.343z"/>
	<path d="M68.83,29.502h-9.344V5.504h9.408c5.151,0,7.775,2.399,7.775,6.207c0,2.528-1.152,4.16-2.944,5.023v0.064
		c2.399,0.8,3.681,2.656,3.681,5.632C77.406,26.75,74.814,29.502,68.83,29.502z M68.639,10.752h-3.104v4.223h3.168
		c1.44,0,1.952-0.543,1.952-2.176C70.654,11.231,70.109,10.752,68.639,10.752z M68.799,19.646h-3.265v4.736h3.392
		c1.568,0,2.145-0.512,2.145-2.4C71.07,20.318,70.559,19.646,68.799,19.646z"/>
	<path d="M95.485,24.094l-0.128,5.408H79.902V5.504h15.039l0.128,5.504h-8.927v3.711h7.358v5.023h-7.358v4.352H95.485z"/>
	<path d="M111.998,19.679l4.671,9.823h-7.231l-3.199-8.575h-2.112v8.575h-6.239V5.504h8.287c6.08,0,9.088,2.304,9.088,7.711
		C115.262,16.415,114.109,18.783,111.998,19.679z M106.302,10.688h-2.176v5.535h2.145c1.823,0,2.464-0.447,2.464-2.783
		C108.734,11.264,108.126,10.688,106.302,10.688z"/>
	<path d="M133.821,24.094l-0.128,5.408h-15.455V5.504h15.039l0.128,5.504h-8.928v3.711h7.359v5.023h-7.359v4.352H133.821z"/>
	<path d="M157.885,23.935l-0.16,5.567h-14.303V5.504h6.304v18.431H157.885z"/>
	<path d="M168.894,29.918c-6.911,0-10.047-3.648-10.047-12.415c0-8.8,3.008-12.384,10.047-12.384c7.04,0,10.048,3.584,10.048,12.384
		C178.941,26.526,175.934,29.918,168.894,29.918z M165.854,4.352c-1.567,0-2.367-0.607-2.367-2.144c0-1.44,0.8-2.208,2.367-2.208
		c1.632,0,2.368,0.768,2.368,2.208C168.222,3.615,167.485,4.352,165.854,4.352z M168.861,10.719c-2.623,0-3.455,1.088-3.455,6.784
		c0,5.728,0.863,6.88,3.52,6.88c2.655,0,3.456-1.185,3.456-6.88C172.382,11.775,171.581,10.719,168.861,10.719z M171.966,4.352
		c-1.568,0-2.368-0.607-2.368-2.144c0-1.44,0.8-2.208,2.368-2.208c1.632,0,2.367,0.768,2.367,2.208
		C174.333,3.615,173.598,4.352,171.966,4.352z"/>
	<path d="M187.709,29.918c-2.527,0-5.023-0.576-6.976-1.664l0.8-5.312c1.952,0.992,3.937,1.601,6.016,1.601
		c1.984,0,2.752-0.672,2.752-1.953c0-3.071-9.535-2.111-9.535-9.951c0-4.191,2.56-7.52,8.479-7.52c2.208,0,4.575,0.416,6.304,1.152
		l-0.704,5.216c-1.824-0.544-3.647-0.864-5.184-0.864c-2.368,0-2.88,0.704-2.88,1.729c0,3.104,9.535,2.047,9.535,9.887
		C196.316,26.975,193.116,29.918,187.709,29.918z"/>
	<path d="M216.731,21.343c0,5.632-3.008,8.575-9.151,8.575s-9.247-2.943-9.247-8.575V5.504h6.271v15.711
		c0,2.144,0.832,3.104,2.976,3.104c2.176,0,2.912-0.896,2.912-3.104V5.504h6.239V21.343z"/>
	<path d="M233.82,29.502l-7.167-11.071l-1.344-2.208l-0.064,0.032l0.032,2.592v10.655h-5.504V5.504h5.248l7.711,12.447l0.064-0.032
		l-0.064-2.56l0.032-9.855h5.504v23.998H233.82z"/>
	<path d="M258.492,28.639c-1.664,0.799-4.384,1.311-6.848,1.311c-7.936,0-10.751-4.255-10.751-12.446
		c0-8.384,3.296-12.415,11.039-12.415c2.111,0,4.512,0.384,6.239,1.056l-0.576,5.344c-1.567-0.576-3.583-0.929-5.312-0.929
		c-3.936,0-4.831,1.473-4.831,6.881c0,5.695,0.928,6.943,4.031,6.943c0.48,0,0.992-0.033,1.44-0.129v-7.839h5.567V28.639z"/>
	<path d="M276.923,24.094l-0.128,5.408H261.34V5.504h15.039l0.128,5.504h-8.928v3.711h7.359v5.023h-7.359v4.352H276.923z"/>
	<path d="M293.371,29.502l-7.167-11.071l-1.344-2.208l-0.064,0.032l0.032,2.592v10.655h-5.504V5.504h5.248l7.711,12.447l0.064-0.032
		l-0.064-2.56l0.032-9.855h5.504v23.998H293.371z"/>
	<path d="M0,61.502v-4.063l7.646-12.159l1.408-2.111l-0.031-0.064H0.191l0.16-5.6h16.031v4.479L8.99,53.758l-1.407,2.08l0.032,0.097
		h8.831l-0.097,5.567H0z"/>
	<path d="M36.83,53.343c0,5.632-3.008,8.575-9.151,8.575s-9.247-2.943-9.247-8.575V37.504h6.271v15.711
		c0,2.144,0.832,3.104,2.976,3.104c2.176,0,2.911-0.896,2.911-3.104V37.504h6.24V53.343z"/>
	<path d="M46.75,37.504l4.225,12.127l0.8,2.464h0.096l0.8-2.433l4.288-12.158h6.911v23.998h-5.728V51.455l0.064-2.592l-0.097-0.032
		l-0.799,2.495l-3.553,10.176h-4.063l-3.52-10.143l-0.8-2.496l-0.064,0.031l0.032,2.592v10.016h-5.472V37.504H46.75z"/>
	<path d="M86.621,61.502l-4.512-9.76h-1.535v9.76h-6.24V37.504h6.24v9.279h1.664l4.447-9.279h7.008l-5.76,11.486l6.048,12.512
		H86.621z"/>
	<path d="M110.205,55.935l-0.16,5.567H95.742V37.504h6.304v18.431H110.205z"/>
	<path d="M127.837,56.094l-0.128,5.408h-15.455V37.504h15.039l0.128,5.504h-8.928v3.711h7.359v5.023h-7.359v4.352H127.837z"/>
	<path d="M130.494,37.504h6.432v23.998h-6.432V37.504z"/>
	<path d="M154.492,61.502l-7.167-11.071l-1.344-2.208l-0.064,0.032l0.032,2.592v10.655h-5.504V37.504h5.248l7.711,12.447
		l0.064-0.032l-0.064-2.56l0.032-9.855h5.504v23.998H154.492z"/>
	<path d="M177.788,56.094l-0.128,5.408h-15.455V37.504h15.039l0.128,5.504h-8.928v3.711h7.359v5.023h-7.359v4.352H177.788z"/>
	<path d="M194.236,61.502l-7.167-11.071l-1.344-2.208l-0.064,0.032l0.032,2.592v10.655h-5.504V37.504h5.248l7.711,12.447
		l0.064-0.032l-0.064-2.56l0.032-9.855h5.504v23.998H194.236z"/>
	<path d="M217.372,54.047h-1.984v7.455h-6.239V37.504h8.224c6.655,0,9.312,2.592,9.312,8.447
		C226.684,51.135,224.092,54.047,217.372,54.047z M217.372,42.719h-1.984v6.368h1.984c2.048,0,2.815-0.479,2.815-3.168
		C220.188,43.327,219.58,42.719,217.372,42.719z"/>
	<path d="M243.066,51.679l4.671,9.823h-7.231l-3.199-8.575h-2.112v8.575h-6.239V37.504h8.287c6.08,0,9.088,2.304,9.088,7.711
		C246.33,48.415,245.178,50.783,243.066,51.679z M237.37,42.688h-2.176v5.535h2.145c1.823,0,2.464-0.447,2.464-2.783
		C239.803,43.264,239.194,42.688,237.37,42.688z"/>
	<path d="M264.89,56.094l-0.128,5.408h-15.455V37.504h15.039l0.128,5.504h-8.928v3.711h7.359v5.023h-7.359v4.352H264.89z"/>
	<path d="M267.547,37.504h6.432v23.998h-6.432V37.504z"/>
	<path d="M283.77,61.918c-2.527,0-5.023-0.576-6.976-1.664l0.8-5.312c1.952,0.992,3.937,1.601,6.016,1.601
		c1.984,0,2.752-0.672,2.752-1.953c0-3.071-9.535-2.111-9.535-9.951c0-4.191,2.56-7.52,8.479-7.52c2.208,0,4.575,0.416,6.304,1.152
		l-0.704,5.216c-1.824-0.544-3.647-0.864-5.184-0.864c-2.368,0-2.88,0.704-2.88,1.729c0,3.104,9.535,2.047,9.535,9.887
		C292.377,58.975,289.177,61.918,283.77,61.918z"/>
	<path d="M296.921,61.886c-2.239,0-3.231-0.864-3.231-3.04c0-1.951,0.992-3.071,3.231-3.071c2.24,0,3.2,1.12,3.2,3.071
		C300.121,60.67,299.161,61.886,296.921,61.886z"/>
</g>
</svg>
