<?xml version="1.0" encoding="utf-8"?>
<!-- Generator: Adobe Illustrator 16.0.4, SVG Export Plug-In . SVG Version: 6.00 Build 0)  -->
<!DOCTYPE svg PUBLIC "-//W3C//DTD SVG 1.1//EN" "http://www.w3.org/Graphics/SVG/1.1/DTD/svg11.dtd">
<svg version="1.1" id="Ebene_1" xmlns="http://www.w3.org/2000/svg" xmlns:xlink="http://www.w3.org/1999/xlink" x="0px" y="0px"
	 width="260.109px" height="30.437px" viewBox="0 0 260.109 30.437" enable-background="new 0 0 260.109 30.437"
	 xml:space="preserve">
<g>
	<path d="M9.489,7.811c0,3.521-1.793,4.626-4.61,4.626c-0.896,0-1.616-0.16-2.192-0.416l0.159-2.609
		c0.337,0.177,0.865,0.288,1.489,0.288c1.312,0,1.952-0.512,1.952-1.953V0.207h3.202V7.811z"/>
	<path d="M18.913,9.508l-0.063,2.705h-7.731V0.207h7.522l0.064,2.754h-4.466v1.856h3.682V7.33h-3.682v2.178H18.913z"/>
	<path d="M25.344,3.009v9.204h-3.185V3.009h-2.722l0.064-2.802h8.5l0.063,2.802H25.344z"/>
	<path d="M28.59,12.213V10.18l3.826-6.082l0.704-1.057l-0.017-0.032h-4.418l0.08-2.802h8.02v2.241l-3.697,5.891l-0.704,1.04
		L32.4,9.428h4.417l-0.048,2.785H28.59z"/>
	<path d="M43.328,3.009v9.204h-3.185V3.009h-2.722l0.064-2.802h8.5l0.063,2.802H43.328z"/>
	<path d="M57.793,3.104c-0.527-0.192-1.248-0.319-2-0.319c-1.777,0-2.226,0.752-2.226,3.377c0,2.77,0.497,3.537,2.272,3.537
		c0.736,0,1.426-0.145,1.985-0.4l0.288,2.545c-0.721,0.353-1.809,0.576-2.736,0.576c-3.426,0-5.091-1.952-5.091-6.273
		C50.286,2.112,51.902,0,55.568,0c0.848,0,1.889,0.191,2.529,0.447L57.793,3.104z"/>
	<path d="M65.632,10.115h-3.265l-0.465,2.098h-3.313l3.554-12.006h3.826l3.617,12.006h-3.49L65.632,10.115z M63.727,4.064
		l-0.768,3.441h2.097l-0.769-3.441l-0.24-1.279h-0.048L63.727,4.064z"/>
	<path d="M73.551,12.42c-1.265,0-2.514-0.287-3.489-0.832l0.399-2.656c0.977,0.496,1.969,0.8,3.01,0.8
		c0.992,0,1.377-0.337,1.377-0.977c0-1.536-4.771-1.056-4.771-4.978c0-2.098,1.28-3.762,4.241-3.762
		c1.105,0,2.289,0.208,3.154,0.576L77.12,3.201c-0.912-0.272-1.825-0.433-2.593-0.433c-1.185,0-1.441,0.353-1.441,0.864
		c0,1.553,4.771,1.024,4.771,4.946C77.856,10.947,76.256,12.42,73.551,12.42z"/>
	<path d="M85.008,12.213V7.506h-2.914v4.707h-3.121V0.207h3.121v4.498h2.914V0.207h3.137v12.006H85.008z"/>
	<path d="M94.431,12.213h-4.673V0.207h4.705c2.577,0,3.89,1.201,3.89,3.105c0,1.265-0.576,2.081-1.473,2.514v0.031
		c1.201,0.4,1.841,1.329,1.841,2.817C98.721,10.836,97.425,12.213,94.431,12.213z M94.335,2.832h-1.553v2.113h1.585
		c0.72,0,0.977-0.271,0.977-1.088C95.344,3.072,95.071,2.832,94.335,2.832z M94.415,7.282h-1.633v2.369h1.697
		c0.784,0,1.072-0.257,1.072-1.2C95.552,7.619,95.296,7.282,94.415,7.282z"/>
	<path d="M105.936,10.115h-3.266l-0.464,2.098h-3.313l3.554-12.006h3.825l3.618,12.006h-3.49L105.936,10.115z M104.031,4.064
		l-0.769,3.441h2.097l-0.769-3.441l-0.24-1.279h-0.048L104.031,4.064z"/>
	<path d="M117.424,3.104c-0.528-0.192-1.248-0.319-2.001-0.319c-1.776,0-2.225,0.752-2.225,3.377c0,2.77,0.496,3.537,2.273,3.537
		c0.736,0,1.424-0.145,1.984-0.4l0.288,2.545c-0.72,0.353-1.809,0.576-2.737,0.576c-3.425,0-5.09-1.952-5.09-6.273
		c0-4.034,1.617-6.146,5.282-6.146c0.849,0,1.889,0.191,2.529,0.447L117.424,3.104z"/>
	<path d="M125.04,12.213l-2.257-4.883h-0.769v4.883h-3.121V0.207h3.121V4.85h0.832l2.226-4.643h3.505l-2.881,5.747l3.025,6.259
		H125.04z"/>
	<path d="M137.87,12.213h-4.674V0.207h4.706c2.577,0,3.89,1.201,3.89,3.105c0,1.265-0.576,2.081-1.473,2.514v0.031
		c1.2,0.4,1.841,1.329,1.841,2.817C142.16,10.836,140.863,12.213,137.87,12.213z M137.774,2.832h-1.553v2.113h1.584
		c0.721,0,0.977-0.271,0.977-1.088C138.782,3.072,138.511,2.832,137.774,2.832z M137.854,7.282h-1.633v2.369h1.696
		c0.784,0,1.072-0.257,1.072-1.2C138.99,7.619,138.734,7.282,137.854,7.282z"/>
	<path d="M151.2,9.508l-0.063,2.705h-7.731V0.207h7.523l0.063,2.754h-4.466v1.856h3.682V7.33h-3.682v2.178H151.2z"/>
	<path d="M152.525,0.207h3.218v12.006h-3.218V0.207z"/>
	<path d="M160.942,0.207l2.112,6.066l0.4,1.232h0.048l0.4-1.216l2.146-6.083h3.457v12.006h-2.865V7.187l0.032-1.297l-0.048-0.016
		l-0.4,1.249l-1.777,5.09h-2.032l-1.761-5.074l-0.4-1.249l-0.032,0.017l0.017,1.296v5.011h-2.737V0.207H160.942z"/>
	<path d="M180.878,12.213l-2.257-4.883h-0.769v4.883h-3.121V0.207h3.121V4.85h0.832l2.226-4.643h3.505l-2.881,5.747l3.025,6.259
		H180.878z"/>
	<path d="M191.631,10.115h-3.266l-0.464,2.098h-3.313l3.554-12.006h3.825l3.618,12.006h-3.49L191.631,10.115z M189.727,4.064
		l-0.769,3.441h2.097l-0.769-3.441l-0.24-1.279h-0.048L189.727,4.064z"/>
	<path d="M204.976,8.131c0,2.816-1.505,4.289-4.578,4.289s-4.626-1.473-4.626-4.289V0.207h3.138v7.859
		c0,1.072,0.416,1.553,1.488,1.553c1.089,0,1.457-0.447,1.457-1.553V0.207h3.121V8.131z"/>
	<path d="M209.628,3.009v2.112h3.666l-0.016,2.658h-3.65v4.434h-3.137V0.207h7.507l0.048,2.802H209.628z"/>
	<path d="M226.493,9.508l-0.063,2.705h-7.731V0.207h7.523l0.063,2.754h-4.466v1.856h3.682V7.33h-3.682v2.178H226.493z"/>
	<path d="M227.818,0.207h3.218v12.006h-3.218V0.207z"/>
	<path d="M239.82,12.213l-3.585-5.539l-0.672-1.104l-0.032,0.016l0.016,1.297v5.33h-2.753V0.207h2.625l3.857,6.227l0.032-0.016
		l-0.032-1.28l0.017-4.931h2.753v12.006H239.82z"/>
	<path d="M251.469,9.508l-0.063,2.705h-7.731V0.207h7.523l0.063,2.754h-4.466v1.856h3.682V7.33h-3.682v2.178H251.469z"/>
	<path d="M255.803,12.42c-1.264,0-2.513-0.287-3.489-0.832l0.4-2.656c0.977,0.496,1.969,0.8,3.01,0.8
		c0.992,0,1.376-0.337,1.376-0.977c0-1.536-4.77-1.056-4.77-4.978c0-2.098,1.28-3.762,4.241-3.762c1.104,0,2.289,0.208,3.153,0.576
		l-0.352,2.609c-0.913-0.272-1.825-0.433-2.594-0.433c-1.185,0-1.44,0.353-1.44,0.864c0,1.553,4.771,1.024,4.771,4.946
		C260.109,10.947,258.509,12.42,255.803,12.42z"/>
	<path d="M9.297,28.115H6.031l-0.464,2.098H2.254l3.554-12.006h3.825l3.617,12.006H9.762L9.297,28.115z M7.393,22.064l-0.769,3.441
		h2.097l-0.768-3.441l-0.24-1.279H7.664L7.393,22.064z"/>
	<path d="M20.193,30.213l-2.258-4.883h-0.768v4.883h-3.121V18.207h3.121v4.643H18l2.225-4.643h3.506l-2.881,5.747l3.025,6.259
		H20.193z"/>
	<path d="M29.984,21.009v9.204h-3.186v-9.204h-2.721l0.063-2.802h8.499l0.064,2.802H29.984z"/>
	<path d="M33.79,18.207h3.218v12.006H33.79V18.207z"/>
	<path d="M43.472,30.42c-3.458,0-5.026-1.824-5.026-6.21c0-4.401,1.505-6.194,5.026-6.194c3.521,0,5.026,1.793,5.026,6.194
		C48.498,28.724,46.992,30.42,43.472,30.42z M43.455,20.816c-1.312,0-1.729,0.545-1.729,3.394c0,2.865,0.432,3.441,1.761,3.441
		s1.729-0.593,1.729-3.441C45.217,21.345,44.816,20.816,43.455,20.816z"/>
	<path d="M56.832,30.213l-3.585-5.539l-0.673-1.104l-0.031,0.016l0.016,1.297v5.33h-2.753V18.207h2.625l3.857,6.227l0.032-0.016
		l-0.032-1.28l0.017-4.931h2.752v12.006H56.832z"/>
	<path d="M63.822,30.42c-1.264,0-2.513-0.287-3.488-0.832l0.399-2.656c0.977,0.496,1.969,0.8,3.009,0.8
		c0.993,0,1.377-0.337,1.377-0.977c0-1.536-4.77-1.056-4.77-4.978c0-2.098,1.28-3.762,4.241-3.762c1.104,0,2.289,0.208,3.153,0.576
		l-0.352,2.609c-0.912-0.272-1.825-0.433-2.594-0.433c-1.184,0-1.44,0.353-1.44,0.864c0,1.553,4.771,1.024,4.771,4.946
		C68.129,28.947,66.527,30.42,63.822,30.42z"/>
	<path d="M77.729,29.78c-0.832,0.399-2.193,0.656-3.426,0.656c-3.969,0-5.378-2.129-5.378-6.227c0-4.194,1.649-6.21,5.522-6.21
		c1.057,0,2.257,0.191,3.121,0.527l-0.288,2.674c-0.784-0.289-1.792-0.465-2.657-0.465c-1.969,0-2.417,0.736-2.417,3.441
		c0,2.85,0.464,3.474,2.017,3.474c0.24,0,0.496-0.017,0.721-0.063v-3.922h2.785V29.78z"/>
	<path d="M86.943,27.508l-0.063,2.705h-7.731V18.207h7.523l0.064,2.754H82.27v1.856h3.682v2.513H82.27v2.178H86.943z"/>
	<path d="M95.199,25.299l2.337,4.914h-3.617l-1.601-4.29h-1.057v4.29h-3.121V18.207h4.146c3.041,0,4.546,1.152,4.546,3.857
		C96.832,23.666,96.256,24.85,95.199,25.299z M92.35,20.801h-1.088v2.77h1.072c0.913,0,1.232-0.225,1.232-1.393
		C93.566,21.089,93.263,20.801,92.35,20.801z"/>
	<path d="M104.511,28.115h-3.266l-0.464,2.098h-3.313l3.554-12.006h3.825l3.618,12.006h-3.49L104.511,28.115z M101.39,17.631
		c-0.784,0-1.185-0.304-1.185-1.072c0-0.721,0.4-1.104,1.185-1.104c0.816,0,1.185,0.383,1.185,1.104
		C102.574,17.264,102.206,17.631,101.39,17.631z M102.606,22.064l-0.769,3.441h2.097l-0.769-3.441l-0.24-1.279h-0.048
		L102.606,22.064z M104.447,17.631c-0.785,0-1.185-0.304-1.185-1.072c0-0.721,0.399-1.104,1.185-1.104
		c0.815,0,1.184,0.383,1.184,1.104C105.631,17.264,105.263,17.631,104.447,17.631z"/>
	<path d="M113.423,21.009v9.204h-3.186v-9.204h-2.721l0.063-2.802h8.499l0.064,2.802H113.423z"/>
	<path d="M120.142,30.42c-1.264,0-2.513-0.287-3.489-0.832l0.4-2.656c0.977,0.496,1.969,0.8,3.01,0.8
		c0.992,0,1.376-0.337,1.376-0.977c0-1.536-4.77-1.056-4.77-4.978c0-2.098,1.28-3.762,4.241-3.762c1.104,0,2.289,0.208,3.153,0.576
		l-0.352,2.609c-0.913-0.272-1.825-0.433-2.594-0.433c-1.185,0-1.44,0.353-1.44,0.864c0,1.553,4.771,1.024,4.771,4.946
		C124.448,28.947,122.847,30.42,120.142,30.42z"/>
	<path d="M136.959,27.508l-0.063,2.705h-7.731V18.207h7.523l0.063,2.754h-4.466v1.856h3.682v2.513h-3.682v2.178H136.959z"/>
	<path d="M145.215,25.299l2.337,4.914h-3.617l-1.601-4.29h-1.057v4.29h-3.121V18.207h4.146c3.041,0,4.546,1.152,4.546,3.857
		C146.848,23.666,146.271,24.85,145.215,25.299z M142.366,20.801h-1.089v2.77h1.072c0.913,0,1.232-0.225,1.232-1.393
		C143.582,21.089,143.278,20.801,142.366,20.801z"/>
	<path d="M154.366,30.213v-4.707h-2.913v4.707h-3.121V18.207h3.121v4.498h2.913v-4.498h3.138v12.006H154.366z"/>
	<path d="M165.311,28.115h-3.266l-0.464,2.098h-3.313l3.554-12.006h3.825l3.618,12.006h-3.49L165.311,28.115z M163.406,22.064
		l-0.769,3.441h2.097l-0.769-3.441l-0.24-1.279h-0.048L163.406,22.064z"/>
	<path d="M177.294,27.428l-0.079,2.785h-7.155V18.207h3.153v9.221H177.294z"/>
	<path d="M182.174,21.009v9.204h-3.186v-9.204h-2.721l0.063-2.802h8.5l0.063,2.802H182.174z"/>
	<path d="M193.646,27.508l-0.063,2.705h-7.731V18.207h7.523l0.063,2.754h-4.466v1.856h3.682v2.513h-3.682v2.178H193.646z"/>
	<path d="M201.87,30.213l-3.585-5.539l-0.673-1.104l-0.031,0.016l0.016,1.297v5.33h-2.753V18.207h2.625l3.857,6.227l0.032-0.016
		l-0.032-1.28l0.017-4.931h2.753v12.006H201.87z"/>
	<path d="M207.004,30.404c-1.12,0-1.616-0.432-1.616-1.521c0-0.976,0.496-1.536,1.616-1.536c1.121,0,1.601,0.561,1.601,1.536
		C208.604,29.797,208.125,30.404,207.004,30.404z"/>
	<path d="M212.813,17.743l0.208,1.553l1.473-0.353l0.464,1.312l-1.425,0.689l0.816,1.359l-1.008,0.77l-1.185-1.153l-1.217,1.169
		l-1.04-0.736l0.784-1.408l-1.425-0.673l0.496-1.329l1.488,0.353l0.225-1.553H212.813z"/>
</g>
</svg>
