<?xml version="1.0" encoding="utf-8"?>
<!-- Generator: Adobe Illustrator 26.2.0, SVG Export Plug-In . SVG Version: 6.00 Build 0)  -->
<svg version="1.1" id="Ebene_1" xmlns="http://www.w3.org/2000/svg" xmlns:xlink="http://www.w3.org/1999/xlink" x="0px" y="0px"
	 viewBox="0 0 800 250" style="enable-background:new 0 0 800 250;" xml:space="preserve">
<style type="text/css">
	.st0{fill:#FFFFFF;}
</style>
<g>
	<path class="st0" d="M635,229.9l0.1,1.1l1.1-0.3l0.2,0.7l-1.1,0.4l0.7,1l-0.5,0.4l-0.8-0.9l-0.8,0.9l-0.5-0.4l0.7-1l-1.1-0.4
		l0.2-0.7l1.1,0.3l0.1-1.1H635L635,229.9z"/>
	<path class="st0" d="M641.1,236.8h-2.9l-0.5,1.8h-1.5l2.6-8.2h1.7l2.6,8.2h-1.6L641.1,236.8z M639.4,232.3l-0.9,3.2h2.2l-0.9-3.2
		l-0.2-0.9l0,0L639.4,232.3z"/>
	<path class="st0" d="M645.3,234.4h0.8l1.5-2.5h1.5l-1.8,3l1.8,3.6h-1.5l-1.5-3h-0.8v3H644v-8.6l1.3-0.1V234.4L645.3,234.4z"/>
	<path class="st0" d="M651.6,233v3.8c0,0.6,0.3,0.8,0.8,0.8c0.2,0,0.4,0,0.5-0.1l0.1,1c-0.2,0.1-0.6,0.2-1,0.2
		c-1.1,0-1.7-0.7-1.7-1.9V233h-0.7v-1h0.8l0.2-1.5l1-0.1v1.6h1.4v1H651.6L651.6,233z"/>
	<path class="st0" d="M654.9,231.1c-0.5,0-0.8-0.2-0.8-0.6c0-0.4,0.3-0.6,0.8-0.6s0.8,0.2,0.8,0.6
		C655.7,230.8,655.4,231.1,654.9,231.1z M654.2,238.6V232l1.3-0.1v6.7L654.2,238.6L654.2,238.6z"/>
	<path class="st0" d="M659.6,238.7c-1.9,0-2.7-0.9-2.7-3.4s0.8-3.4,2.7-3.4s2.7,0.9,2.7,3.4S661.5,238.7,659.6,238.7z M659.6,237.6
		c1,0,1.3-0.5,1.3-2.3s-0.3-2.3-1.3-2.3s-1.3,0.5-1.3,2.3S658.7,237.6,659.6,237.6z"/>
	<path class="st0" d="M667.1,238.6v-4.4c0-0.8-0.4-1.1-1.1-1.1c-0.4,0-0.9,0.2-1.2,0.6v4.9h-1.3V232l1-0.1l0.2,0.6
		c0.4-0.4,1.1-0.7,1.7-0.7c1.3,0,2.1,0.8,2.1,2.3v4.4L667.1,238.6L667.1,238.6z"/>
	<path class="st0" d="M671.4,238.7c-0.7,0-1.4-0.1-1.8-0.5l0.1-1.2c0.5,0.3,1.2,0.5,1.7,0.5c0.7,0,1.1-0.4,1.1-0.9
		c0-1.3-2.9-0.7-2.9-2.9c0-1.1,0.8-1.9,2.2-1.9c0.6,0,1.2,0.1,1.7,0.3l-0.1,1.1c-0.5-0.2-1.1-0.3-1.5-0.3c-0.6,0-1,0.3-1,0.7
		c0,1.2,2.9,0.6,2.9,2.9C673.6,237.9,672.9,238.7,671.4,238.7z"/>
	<path class="st0" d="M677.5,238.7c-0.7,0-1.3-0.3-1.6-0.7l0,0l-0.2,0.6h-0.9V230l1.3-0.1v1.7v0.9l0,0c0.4-0.4,1-0.6,1.6-0.6
		c1.4,0,2.3,0.9,2.3,3.4C679.9,237.7,679,238.7,677.5,238.7z M677.2,233c-0.5,0-1,0.2-1.2,0.6v3.3c0.2,0.4,0.6,0.7,1.2,0.7
		c0.8,0,1.3-0.4,1.3-2.3S678.1,233,677.2,233z"/>
	<path class="st0" d="M680.7,235.1c0-2.2,0.8-3.3,2.6-3.3c1.5,0,2.5,0.9,2.5,3.1c0,0.2,0,0.5,0,0.7h-3.7c0,1.5,0.6,1.9,1.8,1.9
		c0.6,0,1.1-0.1,1.6-0.3l0.1,1.1c-0.5,0.3-1.2,0.4-1.9,0.4C681.6,238.7,680.7,237.6,680.7,235.1z M684.6,234.6
		c0-1.2-0.5-1.6-1.2-1.6c-0.9,0-1.2,0.5-1.3,1.6H684.6z"/>
	<path class="st0" d="M690.8,238.6l-0.1-0.6l0,0c-0.4,0.5-0.9,0.7-1.7,0.7c-1.6,0-2.3-1-2.3-3.5c0-2.3,0.8-3.4,2.3-3.4
		c0.6,0,1.2,0.2,1.6,0.6l0,0v-0.9v-1.6l1.3-0.1v8.7L690.8,238.6L690.8,238.6z M690.5,233.6c-0.2-0.4-0.7-0.6-1.2-0.6
		c-1,0-1.3,0.5-1.3,2.2c0,1.8,0.3,2.3,1.3,2.3c0.7,0,1-0.3,1.2-0.6V233.6z"/>
	<path class="st0" d="M694.1,231.1c-0.5,0-0.8-0.2-0.8-0.6c0-0.4,0.3-0.6,0.8-0.6s0.8,0.2,0.8,0.6
		C694.9,230.8,694.7,231.1,694.1,231.1z M693.4,238.6V232l1.3-0.1v6.7L693.4,238.6L693.4,238.6z"/>
	<path class="st0" d="M700,238.6v-4.4c0-0.8-0.4-1.1-1.1-1.1c-0.4,0-0.9,0.2-1.2,0.6v4.9h-1.3V232l1-0.1l0.2,0.6
		c0.4-0.4,1.1-0.7,1.7-0.7c1.3,0,2.1,0.8,2.1,2.3v4.4L700,238.6L700,238.6z"/>
	<path class="st0" d="M704.1,235.7c-0.2,0.1-0.3,0.2-0.3,0.4s0.1,0.3,0.5,0.4l1.4,0.1c1.4,0.1,2,0.6,2,1.6c0,1.2-0.8,2-2.7,2
		c-1.7,0-2.4-0.7-2.4-1.7c0-0.4,0.2-0.9,0.5-1.2c-0.3-0.2-0.5-0.5-0.5-0.9s0.2-0.8,0.8-1.1c-0.4-0.3-0.7-0.8-0.7-1.6
		c0-1.2,0.6-2,2.3-2c0.5,0,1.1,0.1,1.5,0.4l1-0.4l0.3,0.7L707,233c0.1,0.2,0.1,0.5,0.1,0.8c0,1.3-0.7,2-2.2,2
		C704.6,235.8,704.3,235.8,704.1,235.7z M704,237.7c-0.3,0.2-0.4,0.5-0.4,0.7c0,0.6,0.4,0.9,1.3,0.9c1.2,0,1.5-0.3,1.5-0.8
		c0-0.4-0.2-0.6-1-0.7L704,237.7z M703.9,233.9c0,0.8,0.4,1,1,1c0.8,0,1-0.3,1-1c0-0.8-0.3-1-1-1S703.9,233.2,703.9,233.9z"/>
	<path class="st0" d="M713.4,236.4c0,1.5-0.8,2.3-2.5,2.3s-2.5-0.8-2.5-2.3v-4.5h1.3v4.4c0,0.7,0.4,1.1,1.1,1.1
		c0.8,0,1.1-0.4,1.1-1.1v-4.4h1.3v4.5H713.4z"/>
	<path class="st0" d="M718.3,238.6v-4.4c0-0.8-0.4-1.1-1.1-1.1c-0.4,0-0.9,0.2-1.2,0.6v4.9h-1.3V232l1-0.1l0.2,0.6
		c0.4-0.4,1.1-0.7,1.7-0.7c1.3,0,2.1,0.8,2.1,2.3v4.4L718.3,238.6L718.3,238.6z"/>
	<path class="st0" d="M722.4,235.7c-0.2,0.1-0.3,0.2-0.3,0.4s0.1,0.3,0.5,0.4l1.4,0.1c1.4,0.1,2,0.6,2,1.6c0,1.2-0.8,2-2.7,2
		c-1.7,0-2.4-0.7-2.4-1.7c0-0.4,0.2-0.9,0.5-1.2c-0.3-0.2-0.5-0.5-0.5-0.9s0.2-0.8,0.8-1.1c-0.4-0.3-0.7-0.8-0.7-1.6
		c0-1.2,0.6-2,2.3-2c0.5,0,1.1,0.1,1.5,0.4l1-0.4l0.3,0.7l-0.7,0.6c0.1,0.2,0.1,0.5,0.1,0.8c0,1.3-0.7,2-2.2,2
		C722.9,235.8,722.6,235.8,722.4,235.7z M722.3,237.7c-0.3,0.2-0.4,0.5-0.4,0.7c0,0.6,0.4,0.9,1.3,0.9c1.2,0,1.5-0.3,1.5-0.8
		c0-0.4-0.2-0.6-1-0.7L722.3,237.7z M722.2,233.9c0,0.8,0.4,1,1,1c0.8,0,1-0.3,1-1c0-0.8-0.3-1-1-1S722.2,233.2,722.2,233.9z"/>
	<path class="st0" d="M726.5,235.1c0-2.2,0.8-3.3,2.6-3.3c1.5,0,2.5,0.9,2.5,3.1c0,0.2,0,0.5,0,0.7h-3.7c0,1.5,0.6,1.9,1.8,1.9
		c0.6,0,1.1-0.1,1.6-0.3l0.1,1.1c-0.5,0.3-1.2,0.4-1.9,0.4C727.3,238.7,726.5,237.6,726.5,235.1z M730.3,234.6
		c0-1.2-0.5-1.6-1.2-1.6c-0.9,0-1.2,0.5-1.3,1.6H730.3z"/>
	<path class="st0" d="M736.2,238.6v-4.4c0-0.8-0.4-1.1-1.1-1.1c-0.4,0-0.9,0.2-1.2,0.6v4.9h-1.3V232l1-0.1l0.2,0.6
		c0.4-0.4,1.1-0.7,1.7-0.7c1.3,0,2.1,0.8,2.1,2.3v4.4L736.2,238.6L736.2,238.6z"/>
	<path class="st0" d="M743.1,235.7c-0.2,0.1-0.3,0.2-0.3,0.4s0.1,0.3,0.5,0.4l1.4,0.1c1.4,0.1,2,0.6,2,1.6c0,1.2-0.8,2-2.7,2
		c-1.7,0-2.4-0.7-2.4-1.7c0-0.4,0.2-0.9,0.5-1.2c-0.3-0.2-0.5-0.5-0.5-0.9s0.2-0.8,0.8-1.1c-0.4-0.3-0.7-0.8-0.7-1.6
		c0-1.2,0.6-2,2.2-2c0.5,0,1.1,0.1,1.5,0.4l1-0.4l0.3,0.7L746,233c0.1,0.2,0.1,0.5,0.1,0.8c0,1.3-0.7,2-2.2,2
		C743.6,235.8,743.3,235.8,743.1,235.7z M743,237.7c-0.3,0.2-0.4,0.5-0.4,0.7c0,0.6,0.4,0.9,1.3,0.9c1.2,0,1.5-0.3,1.5-0.8
		c0-0.4-0.2-0.6-1-0.7L743,237.7z M742.9,233.9c0,0.8,0.4,1,1,1c0.8,0,1-0.3,1-1c0-0.8-0.3-1-1-1S742.9,233.2,742.9,233.9z"/>
	<path class="st0" d="M747.2,235.1c0-2.2,0.8-3.3,2.6-3.3c1.5,0,2.5,0.9,2.5,3.1c0,0.2,0,0.5,0,0.7h-3.7c0,1.5,0.6,1.9,1.8,1.9
		c0.6,0,1.1-0.1,1.6-0.3l0.1,1.1c-0.5,0.3-1.2,0.4-1.9,0.4C748.1,238.7,747.2,237.6,747.2,235.1z M751,234.6c0-1.2-0.5-1.6-1.2-1.6
		c-0.9,0-1.2,0.5-1.3,1.6H751z"/>
	<path class="st0" d="M753.5,238.6V230l1.3-0.1v8.7L753.5,238.6L753.5,238.6z"/>
	<path class="st0" d="M758,233v3.8c0,0.6,0.3,0.8,0.8,0.8c0.2,0,0.4,0,0.5-0.1l0.1,1c-0.2,0.1-0.6,0.2-1,0.2c-1.1,0-1.7-0.7-1.7-1.9
		V233H756v-1h0.8l0.2-1.5l1-0.1v1.6h1.4v1H758L758,233z"/>
	<path class="st0" d="M760,235.1c0-2.2,0.8-3.3,2.6-3.3c1.5,0,2.5,0.9,2.5,3.1c0,0.2,0,0.5,0,0.7h-3.7c0,1.5,0.6,1.9,1.8,1.9
		c0.6,0,1.1-0.1,1.6-0.3l0.1,1.1c-0.5,0.3-1.2,0.4-1.9,0.4C760.8,238.7,760,237.6,760,235.1z M763.8,234.6c0-1.2-0.5-1.6-1.2-1.6
		c-0.9,0-1.2,0.5-1.3,1.6H763.8z"/>
	<path class="st0" d="M769.7,238.6v-4.4c0-0.8-0.4-1.1-1.1-1.1c-0.4,0-0.9,0.2-1.2,0.6v4.9h-1.3V232l1-0.1l0.2,0.6
		c0.4-0.4,1.1-0.7,1.7-0.7c1.3,0,2.1,0.8,2.1,2.3v4.4L769.7,238.6L769.7,238.6z"/>
</g>
<g>
	<path class="st0" d="M257.4,121.9h-9.9V96.4h10c5.5,0,8.3,2.5,8.3,6.6c0,2.7-1.2,4.4-3.1,5.3v0.1c2.5,0.8,3.9,2.8,3.9,6
		C266.5,119,263.7,121.9,257.4,121.9z M257.1,102h-3.3v4.5h3.4c1.5,0,2.1-0.6,2.1-2.3C259.3,102.5,258.7,102,257.1,102z
		 M257.3,111.4h-3.5v5h3.6c1.7,0,2.3-0.5,2.3-2.6C259.7,112.2,259.2,111.4,257.3,111.4z"/>
	<path class="st0" d="M285.7,116.2l-0.1,5.8h-16.4V96.4h16l0.1,5.8h-9.5v3.9h7.8v5.3h-7.8v4.6h9.9V116.2z"/>
	<path class="st0" d="M288.5,96.4h6.8v25.5h-6.8V96.4z"/>
	<path class="st0" d="M306.4,96.4l4.5,12.9l0.9,2.6h0.1l0.9-2.6l4.6-12.9h7.4v25.5h-6.1v-10.7l0.1-2.8h-0.1l-0.9,2.7l-3.8,10.8h-4.3
		l-3.7-10.8l-0.9-2.7H305v2.8v10.7h-5.8V96.4H306.4z"/>
	<path class="st0" d="M348.8,121.9l-4.8-10.4h-1.6v10.4h-6.6V96.4h6.6v9.9h1.8l4.7-9.9h7.5l-6.1,12.2l6.4,13.3H348.8z"/>
	<path class="st0" d="M371.6,117.5h-6.9l-1,4.5h-7l7.5-25.5h8.1L380,122h-7.4L371.6,117.5z M367.6,104.6l-1.6,7.3h4.5l-1.6-7.3
		l-0.5-2.7h-0.1L367.6,104.6z"/>
	<path class="st0" d="M400,113.2c0,6-3.2,9.1-9.7,9.1s-9.8-3.1-9.8-9.1V96.4h6.7v16.7c0,2.3,0.9,3.3,3.2,3.3c2.3,0,3.1-0.9,3.1-3.3
		V96.4h6.6v16.8H400z"/>
	<path class="st0" d="M409.9,102.4v4.5h7.8v5.7h-7.8v9.4h-6.7V96.4h16l0.1,5.9C419.3,102.4,409.9,102.4,409.9,102.4z"/>
	<path class="st0" d="M445.7,116.2l-0.1,5.8h-16.4V96.4h16l0.1,5.8h-9.5v3.9h7.8v5.3h-7.8v4.6h9.9V116.2z"/>
	<path class="st0" d="M448.6,96.4h6.8v25.5h-6.8V96.4z"/>
	<path class="st0" d="M474.1,121.9l-7.6-11.8l-1.4-2.3H465v2.8v11.3h-5.9V96.4h5.6l8.2,13.2h0.1l-0.1-2.7V96.4h5.9v25.5H474.1z"/>
	<path class="st0" d="M498.8,116.2l-0.1,5.8h-16.4V96.4h16l0.1,5.8h-9.5v3.9h7.8v5.3h-7.8v4.6h9.9V116.2z"/>
	<path class="st0" d="M508,122.4c-2.7,0-5.3-0.6-7.4-1.8l0.9-5.7c2.1,1.1,4.2,1.7,6.4,1.7c2.1,0,2.9-0.7,2.9-2.1
		c0-3.3-10.1-2.2-10.1-10.6c0-4.5,2.7-8,9-8c2.3,0,4.9,0.4,6.7,1.2l-0.8,5.5c-1.9-0.6-3.9-0.9-5.5-0.9c-2.5,0-3.1,0.8-3.1,1.8
		c0,3.3,10.1,2.2,10.1,10.5C517.2,119.2,513.8,122.4,508,122.4z"/>
	<path class="st0" d="M260.6,151.5h-6.9l-1,4.5h-7l7.6-25.5h8.1l7.7,25.5h-7.4L260.6,151.5z M256.5,138.6l-1.6,7.3h4.5l-1.6-7.3
		l-0.5-2.7h-0.1L256.5,138.6z"/>
	<path class="st0" d="M283.8,155.9l-4.8-10.4h-1.6v10.4h-6.6v-25.5h6.6v9.9h1.8l4.7-9.9h7.5l-6.1,12.2l6.4,13.3H283.8z"/>
	<path class="st0" d="M304.6,136.4V156h-6.8v-19.6H292l0.1-5.9h18.1l0.1,5.9H304.6z"/>
	<path class="st0" d="M312.7,130.4h6.8v25.5h-6.8V130.4z"/>
	<path class="st0" d="M333.2,156.4c-7.4,0-10.7-3.9-10.7-13.2s3.2-13.2,10.7-13.2s10.7,3.8,10.7,13.2
		C343.9,152.8,340.7,156.4,333.2,156.4z M333.2,136c-2.8,0-3.7,1.2-3.7,7.2c0,6.1,0.9,7.3,3.7,7.3c2.8,0,3.7-1.3,3.7-7.3
		C336.9,137.1,336.1,136,333.2,136z"/>
	<path class="st0" d="M361.6,155.9l-7.6-11.8l-1.4-2.3h-0.1v2.8v11.3h-5.9v-25.5h5.6l8.2,13.2h0.1l-0.1-2.7v-10.5h5.9v25.5H361.6z"
		/>
	<path class="st0" d="M376.5,156.4c-2.7,0-5.3-0.6-7.4-1.8l0.9-5.7c2.1,1.1,4.2,1.7,6.4,1.7c2.1,0,2.9-0.7,2.9-2.1
		c0-3.3-10.1-2.2-10.1-10.6c0-4.5,2.7-8,9-8c2.4,0,4.9,0.4,6.7,1.2l-0.8,5.5c-1.9-0.6-3.9-0.9-5.5-0.9c-2.5,0-3.1,0.8-3.1,1.8
		c0,3.3,10.1,2.2,10.1,10.5C385.6,153.2,382.2,156.4,376.5,156.4z"/>
	<path class="st0" d="M406,155c-1.8,0.9-4.7,1.4-7.3,1.4c-8.4,0-11.4-4.5-11.4-13.2c0-8.9,3.5-13.2,11.7-13.2c2.2,0,4.8,0.4,6.6,1.1
		l-0.6,5.7c-1.7-0.6-3.8-1-5.6-1c-4.2,0-5.1,1.6-5.1,7.3c0,6.1,1,7.4,4.3,7.4c0.5,0,1,0,1.5-0.1V142h5.9V155L406,155z"/>
	<path class="st0" d="M425.6,150.2l-0.1,5.8h-16.4v-25.5h16l0.1,5.9h-9.5v3.9h7.8v5.3h-7.8v4.6H425.6L425.6,150.2z"/>
	<path class="st0" d="M443.2,145.5l5,10.4h-7.7l-3.4-9.1h-2.2v9.1h-6.6v-25.5h8.8c6.5,0,9.7,2.4,9.7,8.2
		C446.7,142,445.4,144.5,443.2,145.5z M437.1,135.9h-2.3v5.9h2.3c1.9,0,2.6-0.5,2.6-3C439.7,136.5,439.1,135.9,437.1,135.9z"/>
	<path class="st0" d="M463,151.5h-7l-1,4.5h-7l7.5-25.5h8.1l7.7,25.5H464L463,151.5z M456.4,129.2c-1.7,0-2.5-0.6-2.5-2.3
		c0-1.5,0.9-2.3,2.5-2.3c1.7,0,2.5,0.8,2.5,2.3S458.1,129.2,456.4,129.2z M458.9,138.6l-1.6,7.3h4.5l-1.6-7.3l-0.5-2.7h-0.1
		L458.9,138.6z M462.9,129.2c-1.7,0-2.5-0.6-2.5-2.3c0-1.5,0.9-2.3,2.5-2.3c1.7,0,2.5,0.8,2.5,2.3S464.6,129.2,462.9,129.2z"/>
	<path class="st0" d="M481.9,136.4V156h-6.8v-19.6h-5.8l0.1-5.9h18.1l0.1,5.9H481.9z"/>
	<path class="st0" d="M496.2,156.4c-2.7,0-5.3-0.6-7.4-1.8l0.9-5.7c2.1,1.1,4.2,1.7,6.4,1.7c2.1,0,2.9-0.7,2.9-2.1
		c0-3.3-10.1-2.2-10.1-10.6c0-4.5,2.7-8,9-8c2.4,0,4.9,0.4,6.7,1.2l-0.8,5.5c-1.9-0.6-3.9-0.9-5.5-0.9c-2.5,0-3.1,0.8-3.1,1.8
		c0,3.3,10.1,2.2,10.1,10.5C505.4,153.2,502,156.4,496.2,156.4z"/>
	<path class="st0" d="M511.2,156.7c-2.4,0-3.4-0.9-3.4-3.2c0-2.1,1-3.3,3.4-3.3c2.4,0,3.4,1.2,3.4,3.3
		C514.6,155.4,513.6,156.7,511.2,156.7z"/>
	<path class="st0" d="M523.6,129.8l0.4,3.3l3.1-0.8l1,2.8l-3,1.5l1.7,2.9l-2.1,1.6l-2.5-2.4l-2.6,2.5l-2.2-1.6l1.7-3l-3-1.4l1-2.8
		l3.2,0.8l0.5-3.3C520.7,129.8,523.6,129.8,523.6,129.8z"/>
</g>
</svg>
