<svg viewBox="0 0 113.26 52.65" xmlns="http://www.w3.org/2000/svg"><path d="m5.19 11.13v.06h4.46l-.08 3.21h-8.94v-2.32c2.94-3.28 5.37-5.64 5.37-7.52 0-.85-.5-1.35-1.64-1.35a5.27 5.27 0 0 0 -3 1.16l-.88-2.95a7.58 7.58 0 0 1 4.57-1.42c3.12 0 4.68 1.69 4.68 4.2 0 2.32-1.85 4.39-4.54 6.93z"/><path d="m11.76.15h3.82v14.25h-3.82z"/><path d="m26 14.4-4.25-6.57-.75-1.31v1.53 6.35h-3.33v-14.25h3.12l4.57 7.39v-1.52-5.85h3.27v14.23z"/><path d="m32.28 11.85h1.72v-7.39l-2.16 1.2-.38-2.89 4.09-2.6h2.14v11.68h1.7v2.55h-7.11z"/><path d="m43.3 7.22c-1.33 0-1.92-.51-1.92-1.81s.62-1.82 1.92-1.82 1.9.67 1.9 1.82a1.66 1.66 0 0 1 -1.9 1.81zm0 7.41c-1.33 0-1.92-.51-1.92-1.81s.62-1.82 1.92-1.82 1.9.67 1.9 1.82a1.66 1.66 0 0 1 -1.9 1.81z"/><path d="m7.71 33.4-2.71-5.79h-.88v5.79h-3.7v-14.25h3.7v5.51h1l2.64-5.51h4.16l-3.43 6.85 3.59 7.43z"/><path d="m22.38 30.19-.08 3.21h-9.17v-14.25h8.93l.07 3.27h-5.3v2.2h4.37v3h-4.37v2.58z"/><path d="m31 33.4v-5.58h-3.49v5.58h-3.7v-14.25h3.7v5.34h3.49v-5.34h3.72v14.25z"/><path d="m45 27.57 2.77 5.83h-4.3l-1.9-5.09h-1.25v5.09h-3.71v-14.25h4.92c3.61 0 5.4 1.37 5.4 4.58 0 1.9-.69 3.27-1.93 3.84zm-3.38-5.34h-1.3v3.29h1.27c1.08 0 1.46-.27 1.46-1.66s-.36-1.63-1.44-1.63z"/><path d="m58 30.19-.08 3.21h-9.22v-14.25h8.92l.08 3.27h-5.3v2.2h4.37v3h-4.37v2.58z"/><path d="m67.71 33.4-4.25-6.57-.8-1.31v1.53 6.35h-3.29v-14.25h3.12l4.58 7.39v-1.52-5.85h3.26v14.23z"/><path d="m87.36 28.56c0 3.34-1.79 5.09-5.43 5.09s-5.49-1.75-5.49-5.09v-9.41h3.72v9.33c0 1.27.49 1.84 1.77 1.84s1.72-.53 1.72-1.84v-9.33h3.71z"/><path d="m97.51 33.4-4.26-6.57-.8-1.31v7.88h-3.28v-14.25h3.11l4.58 7.39v-1.52-5.85h3.27v14.23z"/><path d="m107.23 33.4h-5.14v-14.25h5.07c4.33 0 6.1 2 6.1 7.05 0 5.22-2.02 7.2-6.03 7.2zm0-11h-1.39v7.71h1.39c1.63 0 2.18-.49 2.18-4-.05-3.11-.56-3.67-2.23-3.67z"/><path d="m4.14 52.65a8.73 8.73 0 0 1 -4.14-1l.48-3.15a7.9 7.9 0 0 0 3.57 1c1.17 0 1.63-.4 1.63-1.16 0-1.87-5.68-1.34-5.68-5.95 0-2.49 1.52-4.47 5-4.47a10.1 10.1 0 0 1 3.75.69l-.42 3.1a11 11 0 0 0 -3.08-.52c-1.41 0-1.71.42-1.71 1 0 1.84 5.66 1.21 5.66 5.87.05 2.84-1.85 4.59-5.06 4.59z"/><path d="m19.11 41.59a7.13 7.13 0 0 0 -2.37-.38c-2.11 0-2.64.89-2.64 4 0 3.29.59 4.2 2.69 4.2a5.61 5.61 0 0 0 2.36-.48l.34 3a8 8 0 0 1 -3.25.69c-4.06 0-6-2.32-6-7.45 0-4.79 1.92-7.29 6.27-7.29a8.92 8.92 0 0 1 3 .53z"/><path d="m28 52.4v-5.58h-3.43v5.58h-3.71v-14.25h3.71v5.34h3.43v-5.34h3.73v14.25z"/><path d="m42.92 49.19-.08 3.21h-9.17v-14.25h8.93l.07 3.27h-5.3v2.2h4.37v3h-4.37v2.58z"/><path d="m55.14 47.56c0 3.34-1.79 5.09-5.44 5.09s-5.49-1.75-5.49-5.09v-9.41h3.73v9.33c0 1.27.49 1.84 1.76 1.84s1.73-.53 1.73-1.84v-9.33h3.71z"/><path d="m66.19 49.19-.07 3.21h-9.18v-14.25h8.93l.13 3.27h-5.3v2.2h4.3v3h-4.35v2.58z"/><path d="m76 46.57 2.77 5.83h-4.29l-1.9-5.09h-1.26v5.09h-3.7v-14.25h4.92c3.61 0 5.4 1.37 5.4 4.58 0 1.9-.69 3.27-1.94 3.84zm-3.38-5.34h-1.3v3.29h1.28c1.08 0 1.46-.27 1.46-1.66s-.36-1.63-1.44-1.63z"/><path d="m88 52.4-4.25-6.57-.75-1.31v1.53 6.35h-3.3v-14.25h3.12l4.58 7.39v-1.52-5.85h3.26v14.23z"/><path d="m94.14 52.63c-1.33 0-1.91-.51-1.91-1.81s.58-1.82 1.91-1.82 1.9.67 1.9 1.82a1.66 1.66 0 0 1 -1.9 1.81z"/></svg>