<svg enable-background="new 0 0 109 55.48" viewBox="0 0 109 55.48" xmlns="http://www.w3.org/2000/svg"><path clip-rule="evenodd" d="m88.7 32.93h-2.99l-1.83-3.97h-.62v3.97h-2.53v-9.75h2.53v3.77h.68l1.81-3.77h3.7l-3.19 4.67zm-13.46.17c-2.81 0-4.08-1.48-4.08-5.04 0-3.57 1.22-5.03 4.08-5.03s4.08 1.46 4.08 5.03c0 3.66-1.22 5.04-4.08 5.04zm-.01-6.97c-1.07 0-1.4-.4-1.4 1.92 0 2.33.35 2.8 1.43 2.8s1.4-.48 1.4-2.8-.33-1.92-1.43-1.92zm-9.28 6.97c-2.81 0-4.08-1.48-4.08-5.04 0-3.57 1.22-5.03 4.08-5.03s4.08 1.46 4.08 5.03c0 3.66-1.22 5.04-4.08 5.04zm-.02-6.97c-1.07 0-1-.4-1 1.92 0 2.33-.05 2.8 1.03 2.8s1.4-.48 1.4-2.8-.32-1.92-1.43-1.92zm-5.14 3.93c0 1.75-1.05 2.87-3.48 2.87h-3.61v-9.75h3.63c2.09 0 3.36.98 3.36 2.52 0 1.03-.67 1.69-1.39 2.04v.03c.97.32 1.49 1.08 1.49 2.29zm-3.57-4.75h-1.26v1.72h1.29c.58 0 .79-.22.79-.88 0-.64-.22-.84-.82-.84zm.07 3.61h-1.33v1.92h1.38c.64 0 .87-.21.87-.97 0-.67-.21-.95-.92-.95zm-8.88-1.32h3.63v1.29h-3.63zm-.62 3.13-.35 2.2h-6.28v-9.75h6.11l.05 2.24h-3.63v1.51h2.99v2.04h-2.99v1.77h4.1zm-13.86-1.88.03-1.05-.04-.01-.33 1.01-1.44 4.13h-1.54l-1.54-4.12-.33-1.01-.03.01.01 1.05v4.07h-2.02v-9.75h2.61l1.72 4.93.33 1h.04l.33-.99 1.74-4.94h2.81v9.75h-2.33v-4.08zm-12.7 4.25c-2.5 0-3.76-1.2-3.76-3.48v-6.44h2.55v6.38c0 .87.34 1.26 1.21 1.26.88 0 1.18-.36 1.18-1.26v-6.38h2.54v6.44c0 2.28-1.23 3.48-3.72 3.48zm-4.89-2.43-.04 2.26h-6.64v-.99l3.11-5.6.57-.86-.01-.03h-3.59l.06-2.28h6.51v1.83l-3 4.78-.57.85.01.04z" fill="#fefefe" fill-rule="evenodd"/></svg>