<svg enable-background="new 0 0 420.57 102.32" viewBox="0 0 420.57 102.32" xmlns="http://www.w3.org/2000/svg"><path clip-rule="evenodd" d="m377.83 48.79h-6.79l-3-8.04h-1.98v8.04h-5.86v-22.5h7.78c5.71 0 8.53 2.16 8.53 7.23 0 3-1.08 5.22-3.06 6.06zm-9.73-17.64h-2.04v5.19h2.01c1.71 0 2.31.19 2.31-2.61.01-2.04-.56-2.58-2.28-2.58zm-10.14 12.57-.12 5.07h-13.68v-22.5h13.29l.12 5.16h-8.38v4.18h6.9v4.01h-6.9v4.08zm-23.72 5.49c-7.45 0-10.09-3.99-10.09-11.67 0-7.86 3.09-11.21 10.36-11.21 1.98 0 4.23-.07 5.85.9l-.54 5.1c-1.47-.97-3.36-1.3-4.98-1.3-3.69 0-3.98 1.38-3.98 6.45 0 5.34.32 6.51 3.23 6.51.45 0 .93-.03 1.35.03v-7.5h5.22v11.46c-1.56.75-4.11 1.23-6.42 1.23zm-18.83-22.92h6.03v22.5h-6.03zm-14.2 12.12-1.26-2.07-.06.03.03 2.43v9.99h-5.16v-22.5h4.92l7.24 11.67.06.66-.06-3.09.03-9.24h5.16v22.5h-4.17zm-15.79-12.12h6.03v22.5h-6.03zm-2.49 17.43-.12 5.07h-13.92v-22.5h13.53l.12 5.16h-8.38v4.18h6.9v4.01h-6.9v4.08zm-22.88 5.07-3-8.04h-1.98v8.04h-5.85v-22.5h7.78c5.7 0 8.53 2.16 8.53 7.23 0 3-1.08 5.22-3.06 6.06l4.38 9.21zm-2.94-17.64h-2.04v5.19h2.01c1.71 0 2.31.19 2.31-2.61 0-2.04-.57-2.58-2.28-2.58zm-10.92 50c-2.96 0-3.32-.81-3.32-2.85 0-1.83.36-2.88 3.32-2.88 1.25 0 3.02 1.05 3.02 2.88 0 1.71-1.77 2.85-3.02 2.85zm-5.53-32.36-4.23-9.15h-1.44v9.15h-5.86v-22.5h5.86v8.7h1.56l4.17-8.7h7l-5.83 10.77 5.67 11.73zm-17.96-4.71c1.38 0 2.67-.27 3.72-.75l.54 4.77c-1.35.66-3.39 1.08-5.13 1.08-6.43 0-9.18-3.66-9.18-11.76 0-6.77 3.32-11.09 9.54-11.09 1.59 0 3.54-.07 4.74.41l-.57 4.98c-.99-.36-2.34-.6-3.75-.6-3.01 0-4.17 1.41-4.17 6.33 0 5.19.93 6.63 4.26 6.63zm-21.25 5.1c-5.76 0-8.68-2.76-8.68-8.04v-14.85h5.89v14.73c0 2.01.78 3.6 2.79 3.6 2.04 0 2.73-1.53 2.73-3.6v-14.73h5.85v14.85c0 5.28-2.82 8.04-8.58 8.04zm-3.4 9.11h5.88v22.5h-5.88v-8.82h-5.46v8.82h-5.85v-22.5h5.85v8.43h5.46zm-13-9.5-3-8.04h-1.98v8.04h-5.85v-22.5h7.78c5.71 0 8.53 2.16 8.53 7.23 0 3-1.08 5.22-3.06 6.06l4.38 9.21zm-2.94-17.64h-2.04v5.19h2.01c1.71 0 2.31.19 2.31-2.61 0-2.04-.57-2.58-2.28-2.58zm-19.88 17.64h-8.14v-22.5h8.02c6.85 0 9.64 3.18 9.64 11.13 0 8.25-3.18 11.37-9.52 11.37zm-.09-17.31h-2.19v12.18h2.19c2.58 0 3.45-.54 3.45-6.3.01-4.98-.8-5.88-3.45-5.88zm-14.95 17.31h-5.97v-17.25h-5.1l.12-5.25h15.94l.6 5.25h-5.58v17.25zm-19.51.39c-1.81 0-4.71-.54-6.54-1.56l.75-4.98c1.83.93 3.69 1.5 5.64 1.5 1.86 0 2.58-.63 2.58-1.83 0-2.88-8.95-1.98-8.95-9.33 0-3.93 2.4-6.35 7.96-6.35 2.07 0 4.29-.31 5.91.38l-.66 5.32c-1.71-.94-3.42-1.24-4.86-1.24-1.82 0-2.7.66-2.7 1.62 0 2.91 8.95 1.92 8.95 9.27-.01 4.44-3.01 7.2-8.08 7.2zm-14.8-9.21h-5.46v8.82h-5.85v-22.5h5.85v8.43h5.46v-8.43h5.88v22.5h-5.88zm-22.37 30.44-.86-2.07-.46.03.03 2.43v9.99h-5.16v-22.5h4.92l7.24 11.67.32.66-.32-3.09.03-9.24h5.16v22.5h-4.17zm4.62-26.33c1.38 0 2.67-.27 3.72-.75l.54 4.77c-1.35.66-3.39 1.08-4.97 1.08-6.59 0-9.71-3.66-9.71-11.76 0-6.77 3.03-11.09 9.91-11.09 1.59 0 3.54-.07 4.74.41l-.57 4.98c-.99-.36-2.34-.6-3.75-.6-3.33 0-4.17 1.41-4.17 6.33 0 5.19.93 6.63 4.26 6.63zm-21.7 5.1c-6.48 0-9.43-3.42-9.43-11.64 0-8.25 2.82-10.91 9.43-10.91s9.43 2.66 9.43 10.91c-.01 8.46-2.83 11.64-9.43 11.64zm-.03-18c-2.46 0-3.24 1.02-3.24 6.36 0 5.88.81 6.45 3.3 6.45s3.24-.87 3.24-6.45c0-5.37-.75-6.36-3.3-6.36zm3.48-5.97c-2.05 0-2.8-.57-2.8-2.01 0-1.35.75-2.07 2.8-2.07.96 0 1.65.72 1.65 2.07 0 1.32-.69 2.01-1.65 2.01zm-6.31 0c-1.47 0-2.22-.57-2.22-2.01 0-1.35.75-2.07 2.22-2.07 1.53 0 2.22.72 2.22 2.07 0 1.32-.69 2.01-2.22 2.01zm1.59 33.43c6.6 0 9.43 2.66 9.43 10.91 0 8.46-2.82 11.64-9.43 11.64-6.49 0-9.43-3.42-9.43-11.64.01-8.26 2.83-10.91 9.43-10.91zm.03 17.35c2.49 0 3.24-.87 3.24-6.45 0-5.37-.75-6.36-3.3-6.36-2.46 0-3.24 1.02-3.24 6.36 0 5.89.81 6.45 3.3 6.45zm-22.81 4.8-6.64-22.5h6.46l3.15 14.04.51 2.37h.09l.48-2.37 3.24-14.04h6.06l-6.67 22.5zm6.3-40.82h-5.46v8.82h-5.85v-22.5h5.85v8.43h5.46v-8.43h5.88v22.5h-5.88zm61.4 27.02h1.56l4.17-8.7h6.58l-5.4 10.77 5.67 11.73h-6.91l-4.23-9.15h-1.44v9.15h-5.85v-22.5h5.85zm17.77-11.79c0-1.35.75-2.07 2.22-2.07 1.53 0 2.7.72 2.7 2.07 0 1.32-1.17 2.01-2.7 2.01-1.47 0-2.22-.57-2.22-2.01zm7.96 2.01c-.62 0-2.22-.57-2.22-2.01 0-1.35 1.6-2.07 2.22-2.07 2.4 0 2.22.72 2.22 2.07 0 1.32.17 2.01-2.22 2.01zm.75 1.08 6.78 22.5h-6.54l-.87-3.24h-6.12l-.87 3.24h-6.21l6.66-22.5zm-1.71 13.68-1.44-6.45-.45-2.4h-.09l-.51 2.4-1.44 6.45zm26.3-6.45c0 3-1.08 5.22-3.06 6.06l4.38 9.21h-6.78l-3-8.04h-1.98v8.04h-5.85v-22.5h7.78c6.43 0 8.51 2.16 8.51 7.23zm-10.45 2.82h2.01c1.71 0 2.31.19 2.31-2.61 0-2.04-.57-2.58-2.28-2.58h-2.04zm22.1-10c1.59 0 4.41-.07 4.74.41l-.57 4.98c-.99-.36-2.34-.6-3.75-.6-3.33 0-4.17 1.41-4.17 6.33 0 5.19.93 6.63 4.84 6.63.81 0 2.1-.27 3.15-.75l.54 4.77c-1.35.66-3.39 1.08-5.13 1.08-6.43 0-9.55-3.66-9.55-11.76-.01-6.77 3.02-11.09 9.9-11.09zm41.4 5.11h-8.38v4.18h6.91v4.01h-6.91v4.08h8.77l-.12 5.07h-14.5v-22.5h14.11zm18.94 2.07c0 3-1.08 5.22-3.06 6.06l4.38 9.21h-6.78l-3-8.04h-1.98v8.04h-5.85v-22.5h7.78c6.39 0 8.51 2.16 8.51 7.23zm-10.44 2.82h2.01c1.71 0 2.31.19 2.31-2.61 0-2.04-.57-2.58-2.28-2.58h-2.04z" fill="#020204" fill-rule="evenodd"/></svg>