<svg enable-background="new 0 0 420.57 102.32" viewBox="0 0 420.57 102.32" xmlns="http://www.w3.org/2000/svg"><path clip-rule="evenodd" d="m347.76 46.21h-6.9l-4.23-9.15h-1.06v9.15h-6.23v-22.5h6.23v8.7h1.18l4.17-8.7h6.58l-5.4 10.77zm-30.33.39c-6.49 0-9.43-3.42-9.43-11.64 0-8.25 2.82-10.91 9.43-10.91s9.43 2.66 9.43 10.91c0 8.46-2.82 11.64-9.43 11.64zm-.03-18c-2.46 0-3.02 1.02-3.02 6.36 0 5.88.59 6.45 3.08 6.45s3.24-.87 3.24-6.45c0-5.37-.75-6.36-3.3-6.36zm-20.68 18c-5.61 0-9.43-3.42-9.43-11.64 0-8.25 2.82-10.91 9.43-10.91s10.32 2.66 10.32 10.91c-.01 8.46-3.72 11.64-10.32 11.64zm-.03-18c-1.65 0-3.24 1.02-3.24 6.36 0 5.88.81 6.45 3.3 6.45s3.24-.87 3.24-6.45c0-5.37-.75-6.36-3.3-6.36zm-11.14 10.98c0 4.05-2.43 6.63-8.05 6.63h-8.77v-22.5h8.83c4.83 0 7.3 2.25 7.3 5.82 0 2.37-1.08 3.9-2.76 4.71v.3c2.25.51 3.45 2.25 3.45 5.04zm-8.23-10.95h-2.91v3.96h2.97c1.35 0 2.53-.51 2.53-2.04 0-1.47-1.21-1.92-2.59-1.92zm.15 8.34h-3.06v4.44h3.18c1.47 0 2.01-.48 2.01-2.25 0-1.56-.48-2.19-2.13-2.19zm-19.75-3.96h8.38v3.9h-8.38zm-1.39 8.13.6 5.07h-15.22v-22.5h14.11l.12 5.16h-8.38v4.18h6.9v4.01h-6.9v4.08zm-9.66 37.07h-4.17l-6.73-10.38-1.26-2.07-.06.03.03 2.43v9.99h-5.16v-22.5h4.92l7.24 11.67.06.66-.06-3.09.03-9.24h5.16zm-21.89-31.61c-2.37 0-4.71-.54-6.54-1.56l.75-4.98c1.83.93 3.69 1.5 5.64 1.5 1.86 0 3.28-.63 3.28-1.83 0-2.88-9.65-1.98-9.65-9.33 0-3.93 2.4-6.35 8.75-6.35 1.28 0 3.5-.31 5.32.38l-.86 5.32c-1.71-.94-3.42-1.24-4.86-1.24-2.22 0-2.7.66-2.7 1.62 0 2.91 8.95 1.92 8.95 9.27 0 4.44-3.01 7.2-8.08 7.2zm-15.22-22.89h6.04v22.5h-6.04zm-7.15 22.5h-5.97v-17.25h-5.1l.12-5.25h15.94l.12 5.25h-5.1v17.25zm-15.85 0-.87-3.24h-6.12l-.87 3.24h-6.1-.12-6.66l-3-8.04h-1.98v8.04h-5.85v-22.5h7.77c5.71 0 8.53 2.16 8.53 7.23 0 3-.5 5.22-2.32 6.06l3.57 9.06 6.72-22.34h7.08l6.78 22.5h-6.56zm-23.69-17.64h-2.04v5.19h2.01c1.71 0 2.49.19 2.49-2.61 0-2.04-.75-2.58-2.46-2.58zm20.6 2.37-.76-2.4h-.09l-.51 2.4-1.44 6.45h3.93zm-37.59 15.69c-7.44 0-10.09-3.99-10.09-11.67 0-7.86 3.09-11.21 10.5-11.21 1.84 0 4.09-.07 5.71.9l-.54 5.1c-1.47-.97-3.36-1.3-4.98-1.3-3.69 0-4.53 1.38-4.53 6.45 0 5.34.87 6.51 3.78 6.51.86 0 .93-.03 1.35.03v-7.5h5.22v11.46c-1.56.75-3.6 1.23-6.42 1.23zm-23 21.2-1.26-2.07-.06.03.03 2.43v9.99h-5.16v-22.5h4.92l7.24 11.67.06.66-.06-3.09.03-9.24h5.16v22.5h-4.17zm-.15-21.62h-5.97v-17.25h-5.1l.12-5.25h15.94l.12 5.25h-5.1v17.25zm-12.22-5.22-.09 5.22h-15.34v-3.81l7.18-11.4 1.32-1.98-.03-.06h-8.29l.15-5.25h15.04v4.2l-6.93 11.04-.76 1.95.3.09zm-6.87 14.72 2.37 14.07.36 2.4h.09l.27-2.4 2.01-14.07h5.85l-4.71 22.5h-7.03l-2.1-13.65-.3-2.43h-.09l-.33 2.43-2.07 13.65h-7.03l-3.9-22.5h5.32l1.98 14.19.3 2.64h.09l.33-2.64 2.34-14.19zm-14.65-9.5h-5.98v-17.25h-5.1l.12-5.25h15.94l.12 5.25h-5.1zm-12.07-5.07-.12 5.07h-14.5v-22.5h14.11l.12 5.16h-8.24v4.18h6.77v4.01h-6.77v4.08zm-26.33 5.49c-1.68 0-3.03.21-4.11-.78l.3-4.89c.63.48 1.62.54 2.79.54 2.46 0 4.51-.96 4.51-3.66v-14.13h6.04v14.25c-.01 6.6-4.25 8.67-9.53 8.67zm14.32 20.21c0 8.25-3.18 11.37-9.52 11.37h-8.14v-22.5h8.02c6.84 0 9.64 3.18 9.64 11.13zm-11.8 6.24h2.19c2.58 0 3.45-.54 3.45-6.3 0-4.98-.81-5.88-3.45-5.88h-2.19zm23.64-17.02c6.05 0 8.87 2.66 8.87 10.91 0 8.46-2.82 11.64-8.87 11.64-7.04 0-9.99-3.42-9.99-11.64.01-8.26 2.83-10.91 9.99-10.91zm.3 17.35c1.66 0 2.41-.87 2.41-6.45 0-5.37-.75-6.36-3.01-6.36-2.75 0-3.53 1.02-3.53 6.36 0 5.89.81 6.45 4.13 6.45zm65.71-.42h7.66l-.15 5.22h-13.42v-22.5h5.91zm17.98-16.93c6.6 0 9.74 2.66 9.74 10.91 0 8.46-3.14 11.64-9.74 11.64-6.49 0-9.43-3.42-9.43-11.64.01-8.26 3.12-10.91 9.43-10.91zm.03 17.35c2.49 0 3.24-.87 3.24-6.45 0-5.37-.75-6.36-3.3-6.36-2.46 0-3.24 1.02-3.24 6.36 0 5.89.81 6.45 3.3 6.45zm23.27-17.7 6.78 22.5h-6.54l-.87-3.24h-6.12l-.87 3.24h-5.62l6.07-22.5zm-1.71 13.68-1.44-6.45-.45-2.4h-.09l-.51 2.4-1.44 6.45zm27.65-2.55c0 8.25-3.18 11.37-9.52 11.37h-8.14v-22.5h8.02c7.33 0 9.64 3.18 9.64 11.13zm-11.38 6.24h1.77c2.58 0 3.45-.54 3.45-6.3 0-4.98-.81-5.88-3.45-5.88h-1.77zm28.07-12.21h-8.38v4.18h7.52v4.01h-7.52v4.08h8.77l-.12 5.07h-14.5v-22.5h14.11zm25.46 11.97c2.1 0 3.2 1.05 3.2 2.88 0 1.71-1.1 2.85-3.2 2.85s-3.03-.81-3.03-2.85c0-1.83.93-2.88 3.03-2.88z" fill="#020204" fill-rule="evenodd"/></svg>