<svg enable-background="new 0 0 420.57 102.32" viewBox="0 0 420.57 102.32" xmlns="http://www.w3.org/2000/svg"><path clip-rule="evenodd" d="m397.47 73.68-1.04-19.46h7.3l-1 19.46zm-11.26 8.29-5-11.28h-2v11.28h-6.99v-27.75h6.99v10.73h1.93l5.15-10.73h8.11l-6.66 13.28 7 14.47zm-22.14-5.81c1.7 0 3.3-.33 4.59-.93l.67 5.88c-1.67.81-4.18 1.33-6.07 1.33-8.18 0-12.04-4.51-12.04-14.5 0-8.56 3.74-14.21 12.22-14.21 1.96 0 4.37.44 5.85 1.04l-.7 6.14c-1.22-.44-2.89-.74-4.63-.74-4.11 0-5.15 1.74-5.15 7.81 0 6.4 1.15 8.18 5.26 8.18zm-26.22 6.29c-7.11 0-10.7-3.4-10.7-9.92v-18.31h7.26v18.17c0 2.48.96 3.59 3.44 3.59 2.52 0 3.37-1.04 3.37-3.59v-18.17h7.22v18.31c0 6.51-3.48 9.92-10.59 9.92zm-20.22-.48-3.7-9.92h-2.44v9.92h-7.22v-27.75h9.59c7.04 0 10.52 2.66 10.52 8.92 0 3.7-.66 6.77-3.78 8.13l5.74 10.7zm-3.27-21.76h-2.87v7.09h2.68c1.91 0 2.65-1.21 2.65-3.91 0-2.51-.7-3.18-2.46-3.18zm-24.87 21.76h-10.04v-27.75h9.89c8.44 0 11.89 3.92 11.89 13.73 0 10.17-3.92 14.02-11.74 14.02zm-.11-20.61h-2.7v14.27h2.7c3.18 0 4.26-.96 4.26-7.77 0-6.13-1-6.5-4.26-6.5zm-35.47 7.8-1.56-1.86-.07-.66.04 3v12.32h-6.37v-27.74h6.55l8.45 15.07.53-.37-.53-2.6.16-12.1h6.24v27.75h-5.15zm-10.33-25.19h-7.37v-21.28h-6.29l1-6.47h18.81l.15 6.47h-6.29v21.28zm-23.63-27.75h7.44v27.75h-7.44zm-3.07 21.49-.15 6.25h-17.88v-27.74h17.4l.15 6.78h-10.33v3.88h8.52v5.81h-8.52v5.03h10.81zm-16.07 23.42c-2.11-.63-4.22-1-6-1-2.74 0-3.33.81-3.33 2 0 3.59 11.04 2.37 11.04 11.73 0 5.18-3.7 8.58-9.96 8.58-2.93 0-5.81-.67-8.07-1.92l.93-6.14c2.26 1.15 4.55 1.85 6.96 1.85 2.3 0 3.18-.78 3.18-2.26 0-3.55-11.04-2.44-11.04-11.51 0-4.07 2.96-8.69 9.81-8.69 2.56 0 5.29.48 7.29 1.33zm-4.85-23.6-.11 6.44h-18.92v-4.7l8.85-14.06 1.63-2.44-.04-.07h-10.22l.18-6.47h18.55v5.18l-8.55 13.62-1.63 2.4.04.11h10.22zm-14.41 16.69v27.75h-7.26v-10.88h-6.74v10.88h-7.22v-27.75h7.22v11.11h6.74v-11.11zm-14.73-16.51-.15 6.25h-17.88v-27.74h17.4l.15 6.78h-9.99v3.88h8.17v5.81h-8.17v5.03h10.47zm-26.55 6.26h-7.37v-21.28h-6.3l.15-6.47h19.66l.15 6.47h-6.29zm-11.07 3.88c1.89 0 2.74.89 2.74 2.55 0 1.63-.85 2.48-2.74 2.48-1.82 0-2.74-.7-2.74-2.48 0-1.66.92-2.55 2.74-2.55zm-13-3.4c-2.93 0-5.81-.67-8.07-1.92l1.69-6.14c1.49 1.15 3.79 1.85 6.61 1.85 1.88 0 2.77-.78 2.77-2.26 0-3.55-11.04-2.44-11.04-11.51 0-4.07 2.96-8.69 10.7-8.69 1.66 0 4.4.48 6.4 1.33l-.82 6.03c-2.11-.63-4.22-1-6-1-2.74 0-3.33.81-3.33 2 0 3.59 11.03 2.37 11.03 11.73.02 5.17-3.68 8.58-9.94 8.58zm-18.26-11.36h-6.74v10.88h-7.08v-27.75h7.08v11.11h6.74v-11.11h7.26v27.75h-7.26zm-21.04 5.07c.87 0 2.46-.33 3.75-.92l.67 5.88c-1.67.81-4.18 1.33-6.16 1.33-7.24 0-11.95-4.51-11.95-14.5 0-8.56 3.74-14.21 12.22-14.21 1.96 0 4.37.44 5.85 1.04l-.7 6.14c-1.22-.44-2.89-.74-4.63-.74-4.11 0-5.15 1.74-5.15 7.81 0 6.39 1.15 8.17 6.1 8.17zm-27.61 6.29c-8 0-11.63-4.22-11.63-14.36 0-10.17 3.48-14.32 11.63-14.32s11.63 4.14 11.63 14.32c-.01 10.43-3.49 14.36-11.63 14.36zm-.04-22.2c-3.04 0-4 1.26-4 7.84 0 6.62 1 7.95 4.07 7.95s4-1.37 4-7.95c0-6.62-.92-7.84-4.07-7.84zm3.59-7.37c-1.27 0-2.74-.7-2.74-2.48 0-1.66 1.47-2.55 2.74-2.55 1.89 0 2.74.89 2.74 2.55 0 1.63-.85 2.48-2.74 2.48zm-7.07 0c-1.81 0-2.17-.7-2.17-2.48 0-1.66.36-2.55 2.17-2.55 1.89 0 2.74.89 2.74 2.55 0 1.63-.85 2.48-2.74 2.48zm-5.48 32.97c1.89 0 3.31.89 3.31 2.55 0 1.63-1.42 2.48-3.31 2.48-1.82 0-2.74-.7-2.74-2.48 0-1.66.92-2.55 2.74-2.55zm-12.89-14.76h-6.74v10.88h-7.22v-27.75h7.22v11.11h6.74v-11.11h7.26v27.75h-7.26zm3.52 27.6h-10.22v5.25h8.48l-.04 5.77h-8.44v10.25h-7.26v-27.74h17.37zm13.7-10.29c0-1.66.93-2.55 2.74-2.55 1.89 0 2.74.89 2.74 2.55 0 1.63-.85 2.48-2.74 2.48-1.81 0-2.74-.7-2.74-2.48zm-4.26 21.98c0 2.48.96 3.59 3.44 3.59 2.52 0 3.37-1.04 3.37-3.59v-18.16h7.22v18.31c0 6.51-3.48 9.92-10.59 9.92s-10.7-3.4-10.7-9.92v-18.31h7.26zm38.16-9.25c0 3.7-1.83 6.77-4.27 8.13l5.41 10.7h-8.37l-3.7-9.92h-2.44v9.92h-7.22v-27.74h9.59c7.02 0 11 2.66 11 8.91zm-13.38 4.17h2.48c2.11 0 2.85-1.21 2.85-3.91 0-2.52-.7-3.18-2.81-3.18h-2.52zm32.34-1.98h6.28v-11.1h7.69v27.75h-7.69v-10.88h-6.28v10.88h-7.68v-27.75h7.68zm21.9-14.92c0-1.66.93-2.55 2.74-2.55 2.29 0 2.74.89 2.74 2.55 0 1.63-.45 2.48-2.74 2.48-1.81 0-2.74-.7-2.74-2.48zm6.26 3.37c8.15 0 11.63 4.14 11.63 14.32 0 10.43-3.48 14.36-11.63 14.36-8 0-11.2-4.22-11.2-14.36 0-10.17 3.05-14.32 11.2-14.32zm.04 22.28c3.07 0 4-1.37 4-7.96 0-6.62-.93-7.84-4.07-7.84-3.04 0-4 1.26-4 7.84-.01 6.62.99 7.96 4.07 7.96zm26.1-22.32c1.96 0 4.37.44 5.85 1.04l-.7 6.14c-1.22-.44-2.21-.74-4.63-.74-4.11 0-5.15 1.74-5.15 7.81 0 6.4 1.15 8.18 5.26 8.18 1.7 0 3.29-.33 4.92-.93l.33 5.88c-1.33.81-4.18 1.33-6.33 1.33-7.92 0-11.77-4.51-11.77-14.5 0-8.56 3.74-14.21 12.22-14.21zm70.99.49.15 6.48h-6.29v21.27h-7.37v-21.28h-6.29l.15-6.48h19.65zm19.92 6.77h-10.33v3.88h8.52v5.81h-8.52v5.03h10.81l.35 6.25h-18.38v-27.74h17.4zm157.52 14.98c2.52 0 3.63 1.22 3.63 3.26 0 1.89-1.11 3.18-3.63 3.18-2.48 0-3.59-.93-3.59-3.18 0-2.04 1.11-3.26 3.59-3.26z" fill="#020204" fill-rule="evenodd"/></svg>