<?xml version="1.0" encoding="UTF-8"?><svg id="Ebene_1" xmlns="http://www.w3.org/2000/svg" viewBox="0 0 250.25 91.46"><path d="m14.07,15.72c0,7.28-3.71,9.56-9.53,9.56-1.85,0-3.34-.33-4.53-.86l.33-5.39c.7.36,1.79.6,3.08.6,2.71,0,4.04-1.06,4.04-4.04V0h6.62v15.72Z"/><path d="m33.56,19.23l-.13,5.59h-15.99V0h15.56l.13,5.69h-9.23v3.84h7.61v5.2h-7.61v4.5h9.66Z"/><path d="m46.86,5.79v19.03h-6.59V5.79h-5.63l.13-5.79h17.57l.13,5.79h-5.63Z"/><path d="m53.57,24.82v-4.2l7.91-12.58,1.46-2.18-.03-.07h-9.13l.17-5.79h16.58v4.63l-7.64,12.18-1.46,2.15.03.1h9.13l-.1,5.76h-16.91Z"/><path d="m84.05,5.79v19.03h-6.59V5.79h-5.63l.13-5.79h17.57l.13,5.79h-5.63Z"/><path d="m113.63,24.82l-7.41-11.45-1.39-2.28-.07.03.03,2.68v11.02h-5.69V0h5.43l7.98,12.87.07-.03-.07-2.65.03-10.19h5.69v24.82h-4.6Z"/><path d="m137.72,19.23l-.13,5.59h-15.99V0h15.56l.13,5.69h-9.23v3.84h7.61v5.2h-7.61v4.5h9.66Z"/><path d="m159,16.38c0,5.83-3.11,8.87-9.46,8.87s-9.57-3.04-9.57-8.87V0h6.49v16.25c0,2.22.86,3.21,3.08,3.21s3.01-.93,3.01-3.21V0h6.45v16.38Z"/><path d="m178.25,19.23l-.13,5.59h-15.99V0h15.56l.13,5.69h-9.23v3.84h7.61v5.2h-7.61v4.5h9.66Z"/><path d="m195.26,24.82l-7.41-11.45-1.39-2.28-.07.03.03,2.68v11.02h-5.69V0h5.43l7.98,12.87.07-.03-.07-2.65.03-10.19h5.69v24.82h-4.6Z"/><path d="m1.13,33.09h6.65v24.82H1.13v-24.82Z"/><path d="m25.94,57.91l-7.41-11.45-1.39-2.28-.07.03.03,2.68v11.02h-5.69v-24.82h5.43l7.98,12.87.07-.03-.07-2.65.03-10.19h5.69v24.82h-4.6Z"/><path d="m42.89,57.91h-8.97v-24.82h8.84c7.55,0,10.62,3.51,10.62,12.28s-3.51,12.54-10.49,12.54Zm-.1-19.1h-2.42v13.44h2.42c2.85,0,3.81-.86,3.81-6.95,0-5.49-.89-6.49-3.81-6.49Z"/><path d="m74.88,49.47c0,5.83-3.11,8.87-9.46,8.87s-9.57-3.04-9.57-8.87v-16.38h6.49v16.25c0,2.22.86,3.21,3.08,3.21s3.01-.93,3.01-3.21v-16.25h6.45v16.38Z"/><path d="m84.28,58.34c-2.61,0-5.2-.6-7.21-1.72l.83-5.49c2.02,1.03,4.07,1.66,6.22,1.66s2.85-.7,2.85-2.02c0-3.18-9.86-2.18-9.86-10.29,0-4.34,2.65-7.78,8.77-7.78,2.28,0,4.73.43,6.52,1.19l-.73,5.4c-1.89-.56-3.77-.89-5.36-.89-2.45,0-2.98.73-2.98,1.79,0,3.21,9.86,2.12,9.86,10.23,0,4.9-3.31,7.94-8.9,7.94Z"/><path d="m105.79,38.88v19.03h-6.59v-19.03h-5.63l.13-5.79h17.57l.13,5.79h-5.63Z"/><path d="m127.99,47.75l4.83,10.16h-7.48l-3.31-8.87h-2.18v8.87h-6.45v-24.82h8.57c6.29,0,9.4,2.38,9.4,7.98,0,3.31-1.19,5.76-3.38,6.69Zm-5.89-9.3h-2.25v5.73h2.22c1.89,0,2.55-.46,2.55-2.88,0-2.25-.63-2.85-2.51-2.85Z"/><path d="m134.71,33.09h6.65v24.82h-6.65v-24.82Z"/><path d="m161.11,52.32l-.13,5.59h-15.99v-24.82h15.56l.13,5.69h-9.23v3.84h7.61v5.2h-7.61v4.5h9.66Z"/><path d="m171.86,43.35v4.3h-9.23v-4.3h9.23Z"/><path d="m7.35,91.43c-2.61,0-5.2-.6-7.21-1.72l.83-5.49c2.02,1.03,4.07,1.66,6.22,1.66s2.85-.7,2.85-2.02c0-3.18-9.86-2.18-9.86-10.29,0-4.34,2.65-7.78,8.77-7.78,2.28,0,4.73.43,6.52,1.19l-.73,5.4c-1.89-.56-3.77-.89-5.36-.89-2.45,0-2.98.73-2.98,1.79,0,3.21,9.86,2.12,9.86,10.23,0,4.9-3.31,7.94-8.9,7.94Z"/><path d="m30.74,86.66h-6.75l-.96,4.34h-6.85l7.35-24.82h7.91l7.48,24.82h-7.21l-.96-4.34Zm-3.94-12.51l-1.59,7.12h4.34l-1.59-7.12-.5-2.65h-.1l-.56,2.65Z"/><path d="m58.34,82.56c0,5.83-3.11,8.87-9.46,8.87s-9.57-3.04-9.57-8.87v-16.38h6.49v16.25c0,2.22.86,3.21,3.08,3.21s3.01-.93,3.01-3.21v-16.25h6.45v16.38Z"/><path d="m79.02,90.11c-1.72.83-4.53,1.36-7.08,1.36-8.21,0-11.12-4.4-11.12-12.87s3.41-12.84,11.42-12.84c2.18,0,4.67.4,6.45,1.09l-.6,5.53c-1.62-.6-3.71-.96-5.49-.96-4.07,0-5,1.52-5,7.12,0,5.89.96,7.18,4.17,7.18.5,0,1.03-.03,1.49-.13v-8.11h5.76v12.64Z"/><path d="m98.08,85.41l-.13,5.59h-15.99v-24.82h15.56l.13,5.69h-9.23v3.84h7.61v5.2h-7.61v4.5h9.66Z"/><path d="m115.15,80.84l4.83,10.16h-7.48l-3.31-8.87h-2.18v8.87h-6.45v-24.82h8.57c6.29,0,9.4,2.38,9.4,7.98,0,3.31-1.19,5.76-3.38,6.69Zm-5.89-9.3h-2.25v5.73h2.22c1.89,0,2.55-.46,2.55-2.88,0-2.25-.63-2.85-2.51-2.85Z"/><path d="m141.75,91l-4.67-10.09h-1.59v10.09h-6.45v-24.82h6.45v9.6h1.72l4.6-9.6h7.25l-5.96,11.88,6.25,12.94h-7.61Z"/><path d="m163.99,86.66h-6.75l-.96,4.34h-6.85l7.35-24.82h7.91l7.48,24.82h-7.21l-.96-4.34Zm-3.94-12.51l-1.59,7.12h4.34l-1.59-7.12-.5-2.65h-.1l-.56,2.65Z"/><path d="m191.59,82.56c0,5.83-3.11,8.87-9.46,8.87s-9.57-3.04-9.57-8.87v-16.38h6.49v16.25c0,2.22.86,3.21,3.08,3.21s3.01-.93,3.01-3.21v-16.25h6.45v16.38Z"/><path d="m201.21,71.97v4.37h7.58l-.03,5.49h-7.55v9.17h-6.49v-24.82h15.52l.1,5.79h-9.13Z"/><path d="m228.65,85.41l-.13,5.59h-15.99v-24.82h15.56l.13,5.69h-9.23v3.84h7.61v5.2h-7.61v4.5h9.66Z"/><path d="m245.65,91l-7.41-11.45-1.39-2.28-.07.03.03,2.68v11.02h-5.69v-24.82h5.43l7.98,12.87.07-.03-.07-2.65.03-10.19h5.69v24.82h-4.6Z"/></svg>