<?xml version="1.0" encoding="utf-8"?>
<!-- Generator: Adobe Illustrator 27.2.0, SVG Export Plug-In . SVG Version: 6.00 Build 0)  -->
<svg version="1.1" id="Ebene_1" xmlns="http://www.w3.org/2000/svg" xmlns:xlink="http://www.w3.org/1999/xlink" x="0px" y="0px"
	 viewBox="0 0 254.57 75.24" style="enable-background:new 0 0 254.57 75.24;" xml:space="preserve">
<style type="text/css">
	.st0{fill:#FFFFFF;}
	.st1{fill:#238C96;}
</style>
<g>
	<g>
		<path d="M14.96,12.88c0,4.58-2.45,6.97-7.44,6.97S0,17.45,0,12.88V0h5.1v12.77c0,1.74,0.68,2.52,2.42,2.52
			c1.77,0,2.37-0.73,2.37-2.52V0h5.07V12.88z"/>
		<path d="M28.84,19.51l-5.83-9l-1.09-1.79l-0.05,0.03l0.03,2.11v8.66h-4.47V0h4.27l6.27,10.12l0.05-0.03l-0.05-2.08L27.99,0h4.47
			v19.51H28.84z"/>
		<path d="M42.16,19.51h-7.05V0h6.95c5.93,0,8.35,2.76,8.35,9.65C50.4,16.8,47.65,19.51,42.16,19.51z M42.08,4.5h-1.9v10.56h1.9
			c2.24,0,2.99-0.68,2.99-5.46C45.07,5.28,44.37,4.5,42.08,4.5z"/>
	</g>
	<g>
		<path d="M18.45,63.6l0.06,0.19h14.98L33.23,74.6H3.09V66.8c9.92-11.07,17.98-19.01,17.98-25.34c0-2.88-1.66-4.54-5.5-4.54
			c-3.65,0-6.98,1.66-10.11,3.9l-2.88-9.92c3.84-2.82,8.96-4.8,15.42-4.8c10.5,0,15.74,5.7,15.74,14.14
			C33.74,48.05,27.53,55.02,18.45,63.6z"/>
		<path d="M54.48,75.24c-5.12,0-9.92-1.09-13.89-3.33l2.05-9.47c3.52,1.73,6.4,2.62,10.5,2.62c5.12,0,6.46-1.98,6.46-6.14
			c0-3.78-2.05-5.12-6.4-5.12c-2.5,0-5.57,0.38-7.94,1.22l-3.97-4.61l1.73-23.81h26.11l0.45,10.62h-16.7l-0.45,7.1
			c1.47-0.26,3.01-0.38,4.74-0.38c9.28,0,14.65,4.67,14.65,14.02C71.82,68.72,66.57,75.24,54.48,75.24z"/>
		<path d="M90.7,48.24c-6.78,0-9.86-3.84-9.86-11.07c0-7.68,3.07-11.07,9.92-11.07c6.4,0,9.92,3.14,9.92,11.07
			C100.69,44.53,97.04,48.24,90.7,48.24z M118.16,35.12l-25.92,36.8l-6.59-5.25l25.98-36.8L118.16,35.12z M90.77,33.2
			c-1.47,0-2.18,0.77-2.18,3.97c0,3.14,0.7,3.9,2.18,3.9s2.18-0.7,2.18-3.9C92.94,33.97,92.17,33.2,90.77,33.2z M113.74,75.24
			c-6.78,0-9.86-3.84-9.86-11.01c0-7.68,3.07-11.26,9.92-11.26c6.46,0,9.92,3.33,9.92,11.26C123.72,71.53,120.14,75.24,113.74,75.24
			z M113.8,60.46c-1.47,0-2.18,0.7-2.18,3.78s0.7,3.78,2.18,3.78c1.47,0,2.24-0.64,2.24-3.78C116.04,61.16,115.28,60.46,113.8,60.46
			z"/>
	</g>
	<g>
		<path d="M149.31,8.86l2.92,6.14h-4.52l-2-5.36h-1.32V15h-3.9V0h5.18c3.8,0,5.68,1.44,5.68,4.82
			C151.35,6.82,150.63,8.3,149.31,8.86z M145.75,3.24h-1.36V6.7h1.34c1.14,0,1.54-0.28,1.54-1.74
			C147.27,3.6,146.89,3.24,145.75,3.24z"/>
		<path d="M160.95,12.38h-4.08L156.29,15h-4.14l4.44-15h4.78l4.52,15h-4.36L160.95,12.38z M158.57,4.82l-0.96,4.3h2.62l-0.96-4.3
			l-0.3-1.6h-0.06L158.57,4.82z"/>
		<path d="M172.73,15h-5.84V0h5.88c3.22,0,4.86,1.5,4.86,3.88c0,1.58-0.72,2.6-1.84,3.14v0.04c1.5,0.5,2.3,1.66,2.3,3.52
			C178.09,13.28,176.47,15,172.73,15z M172.61,3.28h-1.94v2.64h1.98c0.9,0,1.22-0.34,1.22-1.36C173.87,3.58,173.53,3.28,172.61,3.28
			z M172.71,8.84h-2.04v2.96h2.12c0.98,0,1.34-0.32,1.34-1.5C174.13,9.26,173.81,8.84,172.71,8.84z"/>
		<path d="M187.11,12.38h-4.08L182.45,15h-4.14l4.44-15h4.78l4.52,15h-4.36L187.11,12.38z M184.73,4.82l-0.96,4.3h2.62l-0.96-4.3
			l-0.3-1.6h-0.06L184.73,4.82z"/>
		<path d="M198.25,3.5V15h-3.98V3.5h-3.4l0.08-3.5h10.62l0.08,3.5H198.25z"/>
		<path d="M209.71,3.5V15h-3.98V3.5h-3.4l0.08-3.5h10.62l0.08,3.5H209.71z"/>
		<path d="M226.55,12.38h-4.08L221.89,15h-4.14l4.44-15h4.78l4.52,15h-4.36L226.55,12.38z M224.17,4.82l-0.96,4.3h2.62l-0.96-4.3
			l-0.3-1.6h-0.06L224.17,4.82z"/>
		<path d="M243.23,9.9c0,3.52-1.88,5.36-5.72,5.36s-5.78-1.84-5.78-5.36V0h3.92v9.82c0,1.34,0.52,1.94,1.86,1.94
			c1.36,0,1.82-0.56,1.82-1.94V0h3.9V9.9z"/>
		<path d="M249.05,3.5v2.64h4.58l-0.02,3.32h-4.56V15h-3.92V0h9.38l0.06,3.5H249.05z"/>
		<path d="M145.63,30.34h-1.24V35h-3.9V20h5.14c4.16,0,5.82,1.62,5.82,5.28C151.45,28.52,149.83,30.34,145.63,30.34z M145.63,23.26
			h-1.24v3.98h1.24c1.28,0,1.76-0.3,1.76-1.98C147.39,23.64,147.01,23.26,145.63,23.26z"/>
		<path d="M159.47,32.38h-4.08L154.81,35h-4.14l4.44-15h4.78l4.52,15h-4.36L159.47,32.38z M157.09,24.82l-0.96,4.3h2.62l-0.96-4.3
			l-0.3-1.6h-0.06L157.09,24.82z"/>
		<path d="M169.37,35.26c-1.58,0-3.14-0.36-4.36-1.04l0.5-3.32c1.22,0.62,2.46,1,3.76,1c1.24,0,1.72-0.42,1.72-1.22
			c0-1.92-5.96-1.32-5.96-6.22c0-2.62,1.6-4.7,5.3-4.7c1.38,0,2.86,0.26,3.94,0.72l-0.44,3.26c-1.14-0.34-2.28-0.54-3.24-0.54
			c-1.48,0-1.8,0.44-1.8,1.08c0,1.94,5.96,1.28,5.96,6.18C174.75,33.42,172.75,35.26,169.37,35.26z"/>
		<path d="M179.81,35.26c-1.58,0-3.14-0.36-4.36-1.04l0.5-3.32c1.22,0.62,2.46,1,3.76,1c1.24,0,1.72-0.42,1.72-1.22
			c0-1.92-5.96-1.32-5.96-6.22c0-2.62,1.6-4.7,5.3-4.7c1.38,0,2.86,0.26,3.94,0.72l-0.44,3.26c-1.14-0.34-2.28-0.54-3.24-0.54
			c-1.48,0-1.8,0.44-1.8,1.08c0,1.94,5.96,1.28,5.96,6.18C185.19,33.42,183.19,35.26,179.81,35.26z"/>
		<path d="M196.33,31.62L196.25,35h-9.66V20h9.4l0.08,3.44h-5.58v2.32h4.6v3.14h-4.6v2.72H196.33z"/>
		<path d="M206.61,35l-4.48-6.92l-0.84-1.38l-0.04,0.02l0.02,1.62V35h-3.44V20h3.28l4.82,7.78l0.04-0.02l-0.04-1.6l0.02-6.16h3.44
			v15H206.61z"/>
		<path d="M216.85,35h-5.42V20h5.34c4.56,0,6.42,2.12,6.42,7.42C223.19,32.92,221.07,35,216.85,35z M216.79,23.46h-1.46v8.12h1.46
			c1.72,0,2.3-0.52,2.3-4.2C219.09,24.06,218.55,23.46,216.79,23.46z"/>
		<path d="M234.57,31.62L234.49,35h-9.66V20h9.4l0.08,3.44h-5.58v2.32h4.6v3.14h-4.6v2.72H234.57z"/>
		<path d="M239.99,35.26c-1.58,0-3.14-0.36-4.36-1.04l0.5-3.32c1.22,0.62,2.46,1,3.76,1c1.24,0,1.72-0.42,1.72-1.22
			c0-1.92-5.96-1.32-5.96-6.22c0-2.62,1.6-4.7,5.3-4.7c1.38,0,2.86,0.26,3.94,0.72l-0.44,3.26c-1.14-0.34-2.28-0.54-3.24-0.54
			c-1.48,0-1.8,0.44-1.8,1.08c0,1.94,5.96,1.28,5.96,6.18C245.37,33.42,243.37,35.26,239.99,35.26z"/>
		<path d="M139.95,55v-2.54l4.78-7.6l0.88-1.32l-0.02-0.04h-5.52l0.1-3.5h10.02v2.8l-4.62,7.36l-0.88,1.3l0.02,0.06h5.52L150.17,55
			H139.95z"/>
		<path d="M162.97,49.9c0,3.52-1.88,5.36-5.72,5.36s-5.78-1.84-5.78-5.36V40h3.92v9.82c0,1.34,0.52,1.94,1.86,1.94
			c1.36,0,1.82-0.56,1.82-1.94V40h3.9V49.9z"/>
		<path d="M170.71,55h-5.84V40h5.88c3.22,0,4.86,1.5,4.86,3.88c0,1.58-0.72,2.6-1.84,3.14v0.04c1.5,0.5,2.3,1.66,2.3,3.52
			C176.07,53.28,174.45,55,170.71,55z M170.59,43.28h-1.94v2.64h1.98c0.9,0,1.22-0.34,1.22-1.36
			C171.85,43.58,171.51,43.28,170.59,43.28z M170.69,48.84h-2.04v2.96h2.12c0.98,0,1.34-0.32,1.34-1.5
			C172.11,49.26,171.79,48.84,170.69,48.84z"/>
		<path d="M187.37,51.62L187.29,55h-9.66V40h9.4l0.08,3.44h-5.58v2.32h4.6v3.14h-4.6v2.72H187.37z"/>
		<path d="M196.41,55v-5.88h-3.64V55h-3.9V40h3.9v5.62h3.64V40h3.92v15H196.41z"/>
		<path d="M208.23,55.26c-4.32,0-6.28-2.28-6.28-7.76c0-5.5,1.88-7.74,6.28-7.74c4.4,0,6.28,2.24,6.28,7.74
			C214.51,53.14,212.63,55.26,208.23,55.26z M206.33,39.28c-0.98,0-1.48-0.38-1.48-1.34c0-0.9,0.5-1.38,1.48-1.38
			c1.02,0,1.48,0.48,1.48,1.38C207.81,38.82,207.35,39.28,206.33,39.28z M208.21,43.26c-1.64,0-2.16,0.68-2.16,4.24
			c0,3.58,0.54,4.3,2.2,4.3c1.66,0,2.16-0.74,2.16-4.3C210.41,43.92,209.91,43.26,208.21,43.26z M210.15,39.28
			c-0.98,0-1.48-0.38-1.48-1.34c0-0.9,0.5-1.38,1.48-1.38c1.02,0,1.48,0.48,1.48,1.38C211.63,38.82,211.17,39.28,210.15,39.28z"/>
		<path d="M224.97,48.86l2.92,6.14h-4.52l-2-5.36h-1.32V55h-3.9V40h5.18c3.8,0,5.68,1.44,5.68,4.82
			C227.01,46.82,226.29,48.3,224.97,48.86z M221.41,43.24h-1.36v3.46h1.34c1.14,0,1.54-0.28,1.54-1.74
			C222.93,43.6,222.55,43.24,221.41,43.24z"/>
		<path d="M150.23,71.62L150.15,75h-9.66V60h9.4l0.08,3.44h-5.58v2.32h4.6v3.14h-4.6v2.72H150.23z"/>
		<path d="M160.55,68.86l2.92,6.14h-4.52l-2-5.36h-1.32V75h-3.9V60h5.18c3.8,0,5.68,1.44,5.68,4.82
			C162.59,66.82,161.87,68.3,160.55,68.86z M156.99,63.24h-1.36v3.46h1.34c1.14,0,1.54-0.28,1.54-1.74
			C158.51,63.6,158.13,63.24,156.99,63.24z"/>
		<path d="M171.99,75v-5.88h-3.64V75h-3.9V60h3.9v5.62h3.64V60h3.92v15H171.99z"/>
		<path d="M185.67,72.38h-4.08L181.01,75h-4.14l4.44-15h4.78l4.52,15h-4.36L185.67,72.38z M183.29,64.82l-0.96,4.3h2.62l-0.96-4.3
			l-0.3-1.6h-0.06L183.29,64.82z"/>
		<path d="M200.65,71.52l-0.1,3.48h-8.94V60h3.94v11.52H200.65z"/>
		<path d="M206.75,63.5V75h-3.98V63.5h-3.4l0.08-3.5h10.62l0.08,3.5H206.75z"/>
		<path d="M221.09,71.62L221.01,75h-9.66V60h9.4l0.08,3.44h-5.58v2.32h4.6v3.14h-4.6v2.72H221.09z"/>
		<path d="M231.37,75l-4.48-6.92l-0.84-1.38l-0.04,0.02l0.02,1.62V75h-3.44V60h3.28l4.82,7.78l0.04-0.02l-0.04-1.6l0.02-6.16h3.44
			v15H231.37z"/>
		<path d="M237.79,75.24c-1.4,0-2.02-0.54-2.02-1.9c0-1.22,0.62-1.92,2.02-1.92s2,0.7,2,1.92
			C239.79,74.48,239.19,75.24,237.79,75.24z"/>
		<path d="M245.05,59.42l0.26,1.94l1.84-0.44l0.58,1.64l-1.78,0.86l1.02,1.7l-1.26,0.96l-1.48-1.44l-1.52,1.46l-1.3-0.92l0.98-1.76
			l-1.78-0.84l0.62-1.66l1.86,0.44l0.28-1.94H245.05z"/>
	</g>
</g>
</svg>
