<?xml version="1.0" encoding="UTF-8"?><svg id="Ebene_1" xmlns="http://www.w3.org/2000/svg" viewBox="0 0 341.99 70.72"><path d="m8.5,29.76c-3.08,0-6.12-.7-8.5-2.03l.98-6.47c2.38,1.21,4.8,1.95,7.33,1.95s3.35-.82,3.35-2.38C11.66,17.08.04,18.25.04,8.7.04,3.59,3.16-.47,10.38-.47,13.07-.47,15.95.04,18.06.94l-.86,6.36c-2.22-.66-4.45-1.05-6.32-1.05-2.89,0-3.51.86-3.51,2.11,0,3.78,11.62,2.5,11.62,12.05,0,5.77-3.9,9.36-10.49,9.36Z"/><path d="m36.08,24.14h-7.96l-1.13,5.11h-8.07L27.57,0h9.32l8.81,29.25h-8.5l-1.13-5.11Zm-4.64-14.74l-1.87,8.38h5.11l-1.87-8.38-.58-3.12h-.12l-.66,3.12Z"/><path d="m68.6,19.31c0,6.86-3.67,10.45-11.15,10.45s-11.27-3.59-11.27-10.45V0h7.64v19.15c0,2.61,1.01,3.78,3.63,3.78s3.55-1.09,3.55-3.78V0h7.6v19.31Z"/><path d="m92.98,28.2c-2.03.97-5.34,1.6-8.35,1.6-9.67,0-13.1-5.19-13.1-15.17S75.54-.51,84.98-.51c2.57,0,5.5.47,7.6,1.29l-.7,6.51c-1.91-.7-4.37-1.13-6.47-1.13-4.8,0-5.89,1.79-5.89,8.39,0,6.94,1.13,8.46,4.91,8.46.58,0,1.21-.04,1.76-.16v-9.55h6.79v14.9Z"/><path d="m104.09,29.76c-3.08,0-6.12-.7-8.5-2.03l.98-6.47c2.38,1.21,4.8,1.95,7.33,1.95s3.35-.82,3.35-2.38c0-3.74-11.62-2.57-11.62-12.13,0-5.11,3.12-9.17,10.34-9.17,2.69,0,5.58.51,7.68,1.4l-.86,6.36c-2.22-.66-4.45-1.05-6.32-1.05-2.89,0-3.51.86-3.51,2.11,0,3.78,11.62,2.5,11.62,12.05,0,5.77-3.9,9.36-10.49,9.36Z"/><path d="m129.44,6.83v22.43h-7.76V6.83h-6.63l.16-6.83h20.71l.16,6.83h-6.63Z"/><path d="m150.93,24.14h-7.96l-1.13,5.11h-8.07L142.43,0h9.32l8.81,29.25h-8.5l-1.13-5.11Zm-4.64-14.74l-1.87,8.38h5.11l-1.87-8.38-.58-3.12h-.12l-.66,3.12Z"/><path d="m179.71,17.28l5.69,11.97h-8.81l-3.9-10.45h-2.57v10.45h-7.61V0h10.1c7.41,0,11.08,2.81,11.08,9.4,0,3.9-1.4,6.79-3.98,7.88Zm-6.94-10.96h-2.65v6.75h2.61c2.22,0,3-.55,3-3.39,0-2.65-.74-3.35-2.96-3.35Z"/><path d="m202.29,29.25l-5.5-11.9h-1.87v11.9h-7.61V0h7.61v11.31h2.03l5.42-11.31h8.54l-7.02,14,7.37,15.25h-8.97Z"/><path d="m232.4,22.66l-.16,6.59h-18.84V0h18.33l.16,6.71h-10.88v4.52h8.97v6.12h-8.97v5.3h11.39Z"/><path d="m1.17,41h7.84v29.25H1.17v-29.25Z"/><path d="m30.42,70.25l-8.74-13.49-1.64-2.69-.08.04.04,3.16v12.99h-6.71v-29.25h6.4l9.4,15.17.08-.04-.08-3.12.04-12.01h6.71v29.25h-5.42Z"/><path d="m50.39,70.25h-10.57v-29.25h10.41c8.89,0,12.52,4.13,12.52,14.47s-4.13,14.78-12.36,14.78Zm-.12-22.5h-2.85v15.83h2.85c3.35,0,4.49-1.01,4.49-8.19,0-6.47-1.05-7.64-4.49-7.64Z"/><path d="m88.1,60.31c0,6.86-3.67,10.45-11.15,10.45s-11.27-3.59-11.27-10.45v-19.31h7.64v19.15c0,2.61,1.01,3.78,3.63,3.78s3.55-1.09,3.55-3.78v-19.15h7.61v19.31Z"/><path d="m99.18,70.76c-3.08,0-6.12-.7-8.5-2.03l.98-6.47c2.38,1.21,4.8,1.95,7.33,1.95s3.35-.82,3.35-2.38c0-3.74-11.62-2.57-11.62-12.13,0-5.11,3.12-9.17,10.34-9.17,2.69,0,5.58.51,7.68,1.4l-.86,6.36c-2.22-.66-4.45-1.05-6.32-1.05-2.89,0-3.51.86-3.51,2.11,0,3.78,11.62,2.5,11.62,12.05,0,5.77-3.9,9.36-10.49,9.36Z"/><path d="m124.53,47.83v22.43h-7.76v-22.43h-6.63l.16-6.83h20.71l.16,6.83h-6.63Z"/><path d="m150.7,58.28l5.69,11.97h-8.81l-3.9-10.45h-2.57v10.45h-7.61v-29.25h10.1c7.41,0,11.08,2.81,11.08,9.4,0,3.9-1.4,6.79-3.98,7.88Zm-6.94-10.96h-2.65v6.75h2.61c2.22,0,3-.55,3-3.39,0-2.65-.74-3.35-2.96-3.35Z"/><path d="m158.61,41h7.84v29.25h-7.84v-29.25Z"/><path d="m189.73,63.66l-.16,6.59h-18.84v-29.25h18.33l.16,6.71h-10.88v4.52h8.97v6.12h-8.97v5.3h11.39Z"/><path d="m200.3,70.76c-3.08,0-6.12-.7-8.5-2.03l.98-6.47c2.38,1.21,4.8,1.95,7.33,1.95s3.35-.82,3.35-2.38c0-3.74-11.62-2.57-11.62-12.13,0-5.11,3.12-9.17,10.34-9.17,2.69,0,5.58.51,7.68,1.4l-.86,6.36c-2.22-.66-4.45-1.05-6.32-1.05-2.89,0-3.51.86-3.51,2.11,0,3.78,11.62,2.5,11.62,12.05,0,5.77-3.9,9.36-10.49,9.36Z"/><path d="m227.88,65.14h-7.96l-1.13,5.11h-8.07l8.66-29.25h9.32l8.81,29.25h-8.5l-1.13-5.11Zm-4.64-14.74l-1.87,8.38h5.11l-1.87-8.38-.58-3.12h-.12l-.66,3.12Z"/><path d="m260.4,60.31c0,6.86-3.67,10.45-11.15,10.45s-11.27-3.59-11.27-10.45v-19.31h7.64v19.15c0,2.61,1.01,3.78,3.63,3.78s3.55-1.09,3.55-3.78v-19.15h7.61v19.31Z"/><path d="m284.78,69.2c-2.03.97-5.34,1.6-8.35,1.6-9.67,0-13.1-5.19-13.1-15.17s4.02-15.13,13.46-15.13c2.57,0,5.5.47,7.61,1.29l-.7,6.51c-1.91-.7-4.37-1.13-6.47-1.13-4.8,0-5.89,1.79-5.89,8.39,0,6.94,1.13,8.46,4.91,8.46.58,0,1.21-.04,1.76-.16v-9.55h6.79v14.9Z"/><path d="m307.24,63.66l-.16,6.59h-18.84v-29.25h18.33l.16,6.71h-10.88v4.52h8.97v6.12h-8.97v5.3h11.39Z"/><path d="m327.36,58.28l5.69,11.97h-8.81l-3.9-10.45h-2.57v10.45h-7.61v-29.25h10.1c7.41,0,11.08,2.81,11.08,9.4,0,3.9-1.4,6.79-3.98,7.88Zm-6.94-10.96h-2.65v6.75h2.61c2.22,0,3-.55,3-3.39,0-2.65-.74-3.35-2.96-3.35Z"/><path d="m338.09,70.72c-2.73,0-3.94-1.05-3.94-3.71,0-2.38,1.21-3.74,3.94-3.74s3.9,1.37,3.9,3.74c0,2.22-1.17,3.71-3.9,3.71Z"/></svg>