<svg enable-background="new 0 0 248.31 121.44" viewBox="0 0 248.31 121.44" xmlns="http://www.w3.org/2000/svg"><path clip-rule="evenodd" d="m220.96 74.39-6.13-10.22-1.8-2.04-.06.03.03 2.5v9.73h-5.13v-22.16h4.89l7.18 11.49.06-.03-.06-2.36.03-9.1h5.13v22.16zm-14.99-33h-5.93v-16.99h-5.07l.12-5.17h15.83l.12 5.17h-5.07zm-19.01-22.16h5.99v22.16h-5.99zm-2.48 17.17-.12 4.99h-14.4v-22.16h14.01l.12 5.08h-8.32v3.43h6.86v4.64h-6.86v4.02zm-16.83-.15-.09 5.14h-15.23v-2.86l7.12-12.12 1.31-1.95-.03-.06h-8.23l.15-5.17h14.93v4.14l-6.88 10.87-1.31 1.92.03.09zm-11.6 15.98v22.16h-5.84v-8.69h-5.42v8.69h-5.81v-22.16h5.81v8.3h5.42v-8.3zm-11.86-15.83-.12 4.99h-14.4v-22.16h14.01l.12 5.08h-8.32v3.43h6.85v4.64h-6.85v4.02zm-21.37 4.99h-5.93v-16.99h-5.07l.12-5.17h15.83l.12 5.17h-5.07zm-8.91 5.76c1.52 0 2.21.71 2.21 2.04 0 1.3-.68 1.98-2.21 1.98-1.46 0-2.21.03-2.21-1.98 0-1.33.75-2.04 2.21-2.04zm-2.44-12.47c0 4.37-2.98 7.09-8.02 7.09-2.35 0-4.68-.53-6.5-1.54l.75-4.9c1.82.92 3.67 1.48 6.27 1.48 1.18 0 1.9-.62 1.9-1.8 0-2.84-8.88-1.95-8.88-9.19 0-3.87 2.38-6.94 7.9-6.94 2.06 0 4.26.38 5.87 1.06l-.66 4.82c-1.7-.5-3.4-.8-4.46-.8-2.57 0-3.05 1.27-3.05 1.72-.01 2.74 8.88 1.76 8.88 9zm-22.71-1.98h-5.42v8.69h-5.81v-22.16h5.81v8.3h5.42v-8.3h5.84v22.16h-5.84zm-21.01 75.08c-5.72 0-8.61-2.72-8.61-7.92v-14.63h5.84v14.51c0 1.98.78 3.45 2.77 3.45 2.03 0 2.71-1.41 2.71-3.45v-14.51h6.21v14.63c0 5.2-3.2 7.92-8.92 7.92zm3.39-71.03c1.37 0 2.65-.27 3.7-.74l.54 4.7c-1.34.65-3.37 1.06-4.62 1.06-6.85 0-9.95-3.6-9.95-11.58 0-7.45 3.01-11.35 9.84-11.35 1.58 0 3.52.35 4.71.83l-.57 5.26c-.98-.7-2.32-.94-3.73-.94-3.31 0-4.14 1.39-4.14 6.24-.01 5.1.91 6.52 4.22 6.52zm-21.54 5.03c-6.44 0-9.26-3.37-9.26-11.47 0-8.12 2.7-11.43 9.26-11.43s9.36 3.31 9.36 11.43c-.01 8.33-2.81 11.47-9.36 11.47zm-.03-17.73c-2.44 0-3.22 1-3.22 6.26 0 5.83.81 6.35 3.28 6.35s3.22-.81 3.22-6.35c-.01-5.29-.75-6.26-3.28-6.26zm2.89-5.88c-1.46 0-1.98.03-1.98-1.98 0-1.33.52-2.04 1.98-2.04 1.52 0 2.21.71 2.21 2.04-.01 1.3-.69 1.98-2.21 1.98zm-5.7 0c-.76 0-2.21.03-2.21-1.98 0-1.33 1.45-2.04 2.21-2.04 2.04 0 2.21.71 2.21 2.04 0 1.3-.16 1.98-2.21 1.98zm-4.41 28.98c1.52 0 2.21.71 2.21 2.04 0 1.3-.69 1.98-2.21 1.98-1.46 0-2.21.03-2.21-1.98.01-1.33.75-2.04 2.21-2.04zm-10.37-14.45h-5.42v8.69h-5.81v-22.16h5.81v8.3h5.42v-8.3h5.84v22.16h-5.84zm2.83 24.7h-8.23v3.9h6.83l-.03 4.9h-6.8v8.19h-5.84v-22.16h13.98zm3.87 38.79c0 8.13-3.56 11.2-9.85 11.2h-8.08v-22.16h7.96c6.79 0 9.97 3.13 9.97 10.96zm-12.12 6.15h2.18c3.2 0 3.43-.49 3.43-6.21 0-4.9-.81-5.79-3.43-5.79h-2.18zm19.28-53.15c0-1.33.75-2.04 2.21-2.04 1.52 0 2.44.71 2.44 2.04 0 1.3-.92 1.98-2.44 1.98-1.46 0-2.21.03-2.21-1.98zm-9.27 3.04h5.84v14.51c0 1.98.78 3.45 2.77 3.45 2.03 0 2.71-1.41 2.71-3.45v-14.51h5.81v14.63c0 5.2-2.8 7.92-8.52 7.92s-8.61-2.72-8.61-7.92zm19.97 22.16v-22.16h8.02c5.37 0 8.17 2.13 8.17 7.12 0 2.95-1.07 5.14-3.04 5.97l4.35 9.07h-6.08l-2.81-7.92h-2.79v7.92zm7.81-12.26c1.7 0 2.29-.41 2.29-2.4 0-2.09-.57-2.71-2.26-2.71h-2.03v5.11zm-7.45 30.22c0 2.96-1.07 5.14-3.04 5.97l4.35 9.07h-6.74l-2.98-7.92h-1.97v7.92h-5.81v-22.16h7.72c5.67 0 8.47 2.13 8.47 7.12zm-10.37 2.78h2c1.7 0 2.29-.41 2.29-2.4 0-2.09-.33-2.71-2.26-2.71h-2.03zm41.81-10.28c1.58 0 3.52.36 4.71.83l-.57 5.26c-.98-.71-2.33-.94-3.73-.94-3.31 0-4.14 1.39-4.14 6.24 0 5.11.92 6.53 4.23 6.53 1.37 0 2.65-.27 3.7-.74l.54 4.7c-1.34.65-3.37 1.06-5.1 1.06-6.38 0-9.48-3.61-9.48-11.58 0-7.46 3.01-11.36 9.84-11.36zm-.33-10.46h-5.81v-22.16h5.81v8.3h5.42v-8.3h6.31v22.16h-6.31v-8.69h-5.42zm13.03 19.41h1.55l4.14-8.57h6.8l-5.64 10.61 5.63 11.55h-6.85l-4.2-9.01h-1.43v9.01h-5.81v-22.16h5.81zm4.97-44.61c0-1.33.74-2.04 2.21-2.04 1.52 0 2.21.71 2.21 2.04 0 1.3-.68 1.98-2.21 1.98-1.46 0-2.21.03-2.21-1.98zm14.4 14.12c0 8.33-2.8 11.46-9.36 11.46-6.44 0-9.36-3.37-9.36-11.46 0-8.12 2.8-11.43 9.36-11.43s9.36 3.31 9.36 11.43zm-12.61 0c0 5.83.8 6.35 3.28 6.35 2.47 0 3.87-.81 3.87-6.35 0-5.29-1.39-6.26-3.93-6.26-2.45 0-3.22 1-3.22 6.26zm12.16 37.46h-4.23l-.83-15.54h5.87zm-2.03 2.42c2.03 0 2.92.75 2.92 2.01 0 1.51-.89 2.54-2.92 2.54-2 0-2.89-.74-2.89-2.54 0-1.26.9-2.01 2.89-2.01zm14.16-51.34c1.58 0 3.52.35 4.71.83l.13 5.26c-1.46-.7-3.02-.94-4.42-.94-3.31 0-4.14 1.39-4.14 6.23 0 5.11 1.48 6.53 4.23 6.53 1.37 0 2.87-.27 4.3-.74l-.07 4.7c-1.34.65-3.37 1.06-5.1 1.06-6.38 0-9.23-3.6-9.23-11.58.01-7.45 3.12-11.35 9.59-11.35zm32.66 17.96c1.85 0 3.38-.62 3.38-1.8 0-2.84-9.7-1.95-9.7-9.19 0-3.87 2.38-6.94 7.9-6.94 2.06 0 4.26.38 5.87 1.06l-.65 4.82c-1.7-.5-3.4-.8-4.83-.8-2.21 0-2.68 1.27-2.68 1.72 0 2.74 8.88 1.76 8.88 9 0 4.37-2.98 7.09-8.02 7.09-2.35 0-4.68-.53-6.5-1.54l.74-4.91c1.83.93 3.68 1.49 5.61 1.49zm24.47-17.58.12 5.17h-4.63v16.99h-6.37v-16.99h-4.61l-.34-5.17zm16.32 5.08h-8.6v3.43h6.86v4.64h-6.86v4.02h8.7l-.12 4.99h-14.4v-22.16h14.01z" fill-rule="evenodd"/></svg>