<svg enable-background="new 0 0 248.31 121.44" viewBox="0 0 248.31 121.44" xmlns="http://www.w3.org/2000/svg"><path clip-rule="evenodd" d="m227.83 71.6h-6.85l-4.2-9.01h-1.43v9.01h-5.51v-22.16h5.51v8.57h1.55l4.14-8.57h7.11l-5.95 10.61zm-30.1.38c-6.44 0-9.36-3.37-9.36-11.46 0-8.12 2.8-11.43 9.36-11.43s9.36 3.31 9.36 11.43c0 8.33-2.8 11.46-9.36 11.46zm-.03-17.72c-2.44 0-3.22 1.01-3.22 6.26 0 5.83.8 6.35 3.28 6.35 2.47 0 3.22-.81 3.22-6.35 0-5.29-.75-6.26-3.28-6.26zm-20.53 17.72c-6.44 0-9.36-3.37-9.36-11.46 0-8.12 2.8-11.43 9.36-11.43s9.6 3.31 9.6 11.43c0 8.33-3.05 11.46-9.6 11.46zm-.03-17.72c-2.44 0-3.22 1.01-3.22 6.26 0 5.83.8 6.35 3.28 6.35 2.47 0 3.22-.81 3.22-6.35 0-5.29-.75-6.26-3.28-6.26zm-11.06 10.81c0 3.99-2.41 6.53-7.99 6.53h-8.7v-22.16h8.76c4.8 0 7.24 2.22 7.24 5.73 0 2.33-1.07 3.84-2.74 5.2v-.5c2.24.74 3.43 2.45 3.43 5.2zm-8.17-10.78h-2.89v3.9h2.95c1.34 0 1.82-.5 1.82-2.01 0-1.45-.5-1.89-1.88-1.89zm.15 8.21h-3.04v4.37h3.16c1.46 0 2-.47 2-2.22 0-1.53-.48-2.15-2.12-2.15zm-19.61-3.9h8.32v3.84h-8.32zm-1.37 8.01-.12 4.99h-13.78v-22.16h14.09l-.57 5.08h-8.32v3.43h6.85v4.64h-6.85v4.02zm-6.4 15.48c6.56 0 9.36 3.31 9.36 11.43 0 8.33-2.8 11.46-9.36 11.46-6.44 0-9.36-3.37-9.36-11.46 0-8.13 2.8-11.43 9.36-11.43zm.03 17.78c2.47 0 3.22-.81 3.22-6.35 0-5.29-.74-6.26-3.28-6.26-2.44 0-3.22 1-3.22 6.26 0 5.83.8 6.35 3.28 6.35zm-23.76 4.73v-22.16h5.87v17.02h7.6l-.15 5.14zm6.83-39.71c0 4.37-2.98 7.09-8.02 7.09-2.36 0-4.68-.53-6.5-1.54l.75-4.91c1.82.92 3.67 1.48 5.6 1.48 1.85 0 2.56-.62 2.56-1.8 0-2.84-8.88-1.95-8.88-9.19 0-3.87 2.39-6.94 7.9-6.94 2.06 0 4.26.38 5.87 1.06l-.66 4.82c-1.7-.5-3.4-.8-4.13-.8-2.91 0-3.39 1.27-3.39 1.72.01 2.75 8.9 1.77 8.9 9.01zm-9.87 39.71h-4.14l-6.68-10.22-1.25-2.04-.06.03.03 2.5v9.73h-5.13v-22.16h5.55l6.52 11.49.06-.03-.06-2.36.03-9.1h5.13zm-7.27-33h-5.99v-22.16h5.99zm-3.7-33h-5.93v-16.99h-5.07l.12-5.17h15.83l.12 5.17h-5.07zm-12.12-5.14-.09 5.14h-15.23v-2.86l7.12-12.12 1.31-1.95-.03-.06h-8.23l.15-5.17h14.93v4.14l-6.89 10.87-.77 1.92.29.09zm-21.37 5.14h-5.8v-16.99h-5.2l.73-5.17h15.21l.25 5.17h-5.19zm-11.98-4.99-.12 4.99h-14.4v-22.16h14.01l.12 5.08h-8.32v3.43h6.85v4.64h-6.85v4.02zm-26.14 5.4c-1.67 0-3.01-.3-4.08-.77l.68-4.82c.24.92 1.22.53 2.39.53 2.44 0 3.64-.95 3.64-3.6v-13.91h5.96v14.03c-.01 6.51-2.68 8.54-8.59 8.54zm6.38 10.05c1.97 0 4.2.35 5.97.98l-.7 4.93c-1.27-.53-3.34-.86-4.95-.86-3.67 0-4.19 1.36-4.19 6.35 0 5.26.56 6.41 3.45 6.41.45 0 .92.83 1.34.48v-7.83h5.19v11.77c-1.55.25-4.08.72-6.38.72-7.39 0-10.02-3.93-10.02-11.49 0-7.47 3.07-11.46 10.29-11.46zm8.24 44.34c0 8.13-3.56 11.2-9.85 11.2h-8.08v-22.16h7.96c6.79 0 9.97 3.13 9.97 10.96zm-12.12 6.15h2.18c3.2 0 3.43-.49 3.43-6.21 0-4.9-.81-5.79-3.43-5.79h-2.18zm28.82-42.99c0 2.95-.36 5.14-3.04 5.97l4.28 8.91 6.57-22h7.87l5.99 22.16h-6.5l-.86-3.87h-6.08l-.86 3.87h-6.05-.12-6.62l-2.98-7.92h-1.97v7.92h-5.81v-22.16h7.72c5.66 0 8.46 2.13 8.46 7.12zm13.23 6.35-1.43-6.35-.45-2.36h-.09l-.51 2.36-1.43 6.35zm-23.6-3.57h2c1.7 0 2.94-.41 2.94-2.4 0-2.09-1.22-2.71-2.91-2.71h-2.03zm4.47 22.75c6.56 0 9.36 3.31 9.36 11.43 0 8.33-2.8 11.46-9.36 11.46-6.44 0-9.36-3.37-9.36-11.46 0-8.13 2.8-11.43 9.36-11.43zm.03 17.78c2.47 0 3.22-.81 3.22-6.35 0-5.29-.74-6.26-3.28-6.26-2.44 0-3.02 1-3.02 6.26 0 5.83.61 6.35 3.08 6.35zm30.85-28.27v-16.99h-4.54l-.41-5.17h16.32l-.38 5.17h-4.55v16.99zm-12.88 24.82.3 2.64h.09l.33-2.64 2.33-13.98h6.2l2.36 13.86.36 2.36h.09l.27-2.36 2-13.86h5.81l-4.68 22.16h-6.98l-2.09-13.44-.3-2.27h-.09l-.33 2.27-2.06 13.44h-6.98l-4.68-22.16h6.08zm89.05-13.98 7.1 22.16h-6.86l-.86-3.87h-6.08l-.86 3.87h-6.17l6.62-22.16zm-1.7 13.47-1.43-6.35-.45-2.36h-.09l-.51 2.36-1.43 6.35zm27.94-2.51c0 8.13-3.65 11.2-9.93 11.2h-8.08v-22.16h7.96c6.79 0 10.05 3.13 10.05 10.96zm-12.2 6.15h2.18c3.27 0 3.43-.49 3.43-6.21 0-4.9-.8-5.79-3.43-5.79h-2.18zm28.28-12.03h-8.31v3.43h6.85v4.64h-6.85v4.02h8.81l-.23 4.99h-14.39v-22.16h14zm14.7 6.41.06-.03-.06-2.36.03-9.1h5.13v22.16h-4.14l-6.68-10.22-1.25-2.04-.06.03.03 2.5v9.73h-5.13v-22.16h4.89zm10.58 5.38c2.09 0 2.98 1.03 2.98 2.84 0 2.43-.89 2.81-2.98 2.81s-3.01-.8-3.01-2.81c0-1.8.92-2.84 3.01-2.84z" fill-rule="evenodd"/></svg>