<?xml version="1.0" encoding="utf-8"?>
<!-- Generator: Adobe Illustrator 16.0.0, SVG Export Plug-In . SVG Version: 6.00 Build 0)  -->
<!DOCTYPE svg PUBLIC "-//W3C//DTD SVG 1.1//EN" "http://www.w3.org/Graphics/SVG/1.1/DTD/svg11.dtd">
<svg version="1.1" id="Ebene_1" xmlns="http://www.w3.org/2000/svg" xmlns:xlink="http://www.w3.org/1999/xlink" x="0px" y="0px"
	 width="174.343px" height="62.972px" viewBox="0 0 174.343 62.972" enable-background="new 0 0 174.343 62.972"
	 xml:space="preserve">
<g>
	<g>
		<path fill="#1A1A18" d="M13.328,13.104l-0.814,2.441h-0.098l-0.814-2.473L7.305,0.898h-7v24.089h5.567V14.935L5.84,12.333
			l0.065-0.032l0.813,2.506L10.3,24.987h4.135l3.614-10.214l0.814-2.505l0.098,0.032l-0.065,2.602v10.085h5.828V0.898h-7.033
			L13.328,13.104z M34.847,0.898h-6.544v24.089h6.544V0.898z M54.282,19.56h-9.507v-4.368h7.488v-5.043h-7.488V6.424h9.084
			l-0.13-5.525H38.427v24.089h15.726L54.282,19.56z M67.369,24.987V6.52h5.535l-0.13-5.621H55.485l-0.13,5.621h5.535v18.468H67.369z
			 M76.125,5.974l-0.781,3.758l2.083,0.514c1.53-1.831,3.223-5.042,3.191-6.938C80.618,1.316,79.576,0,77.362,0
			c-2.279,0-3.158,1.381-3.158,3.115C74.204,4.432,75.213,5.492,76.125,5.974z M108.193,14.773l0.813-2.505l0.098,0.032
			l-0.065,2.602v10.085h5.828V0.898h-7.032l-4.362,12.205l-0.814,2.441h-0.098l-0.814-2.473L97.449,0.898h-7v24.089h5.566V14.935
			l-0.032-2.602l0.065-0.032l0.814,2.506l3.581,10.181h4.135L108.193,14.773z M118.446,24.987h6.544V0.898h-6.544V24.987z
			 M143.254,19.143c-1.14,0.514-2.539,0.803-4.037,0.803c-3.614,0-4.623-1.542-4.623-7.099c0-5.267,0.911-6.776,4.525-6.776
			c1.53,0,2.995,0.257,4.069,0.643l0.619-5.332c-1.303-0.514-3.419-0.899-5.145-0.899c-7.455,0-10.744,4.239-10.744,12.333
			c0,8.672,3.387,12.59,10.354,12.59c1.889,0,4.103-0.449,5.567-1.156L143.254,19.143z M158.457,9.924h-5.926V0.898h-6.349v24.089
			h6.349v-9.442h5.926v9.442h6.381V0.898h-6.381V9.924z M173.366,17.793l0.879-16.895h-6.414l0.912,16.895H173.366z M171.152,19.784
			c-2.182,0-3.158,1.06-3.158,2.827c0,1.959,0.977,2.762,3.158,2.762c2.214,0,3.19-1.125,3.19-2.762
			C174.343,20.844,173.366,19.784,171.152,19.784z M7.693,45.06h0.72v-9.034h-0.94l-2.894,7.022l-0.342,0.903H4.201l-0.354-0.903
			l-2.894-7.022H0v9.034h0.708v-6.722l-0.012-0.977L0.72,37.35l0.354,0.916l2.82,6.794h0.611l2.821-6.83l0.354-0.915l0.037,0.012
			l-0.024,0.976V45.06z M15.688,45.06v-4.698c0-1.843-0.708-2.554-2.466-2.554c-0.831,0-1.563,0.157-2.247,0.47l0.085,0.639
			c0.623-0.313,1.294-0.445,2.039-0.445c1.27,0,1.844,0.434,1.844,1.782v0.88c-0.489-0.182-1.148-0.313-1.795-0.313
			c-1.758,0-2.601,0.771-2.601,2.12c0,1.59,0.903,2.229,2.21,2.229c1.001,0,1.856-0.445,2.247-1.121l0.037,0.013l0.085,1H15.688z
			 M14.944,43.132c0,0.687-0.94,1.409-1.991,1.409c-0.964,0-1.697-0.409-1.697-1.613c0-0.988,0.611-1.555,2.002-1.555
			c0.867,0,1.502,0.205,1.686,0.338V43.132z M18.19,45.06l2.076-3.241l2.1,3.241h0.916l-2.442-3.638l2.357-3.47H22.33l-2.015,3.108
			l-2.04-3.108h-0.903l2.406,3.493l-2.467,3.614H18.19z M25.784,35.482c-0.366,0-0.574,0.182-0.574,0.506
			c0,0.387,0.208,0.506,0.574,0.506s0.574-0.156,0.574-0.506C26.357,35.664,26.15,35.482,25.784,35.482z M25.405,45.06h0.745v-7.132
			l-0.745,0.061V45.06z M33.684,45.06v-4.987c0-1.012,0.781-1.529,1.636-1.529c1.074,0,1.746,0.529,1.746,1.686v4.831h0.732v-4.843
			c0-1.626-0.94-2.373-2.308-2.373c-0.94,0-1.697,0.41-2.027,1.193h-0.037c-0.293-0.783-0.952-1.182-1.99-1.182
			c-0.781,0-1.502,0.361-1.905,0.928h-0.037l-0.146-0.867l-0.525,0.049v7.095h0.733v-5.565c0.342-0.578,1.075-0.951,1.758-0.951
			c0.892,0,1.636,0.422,1.636,1.529v4.987H33.684z M42.277,37.808c-0.831,0-1.563,0.157-2.247,0.47l0.085,0.639
			c0.623-0.313,1.294-0.445,2.04-0.445c1.27,0,1.844,0.434,1.844,1.782v0.88c-0.488-0.182-1.148-0.313-1.795-0.313
			c-1.758,0-2.601,0.771-2.601,2.12c0,1.59,0.904,2.229,2.21,2.229c1.001,0,1.856-0.445,2.247-1.121l0.037,0.013l0.085,1h0.562
			v-4.698C44.744,38.519,44.036,37.808,42.277,37.808z M43.999,43.132c0,0.687-0.94,1.409-1.99,1.409
			c-0.965,0-1.697-0.409-1.697-1.613c0-0.988,0.61-1.555,2.002-1.555c0.867,0,1.502,0.205,1.685,0.338V43.132z M47.197,45.06h0.732
			v-9.637l-0.732,0.048V45.06z M53.277,45.203c0.842,0,1.539-0.204,2.161-0.553l-0.098-0.639c-0.61,0.324-1.233,0.506-1.99,0.506
			c-1.722,0-2.491-0.771-2.528-3.048h4.848c0.012-0.097,0.024-0.253,0.024-0.361c0-2.301-1.135-3.276-2.759-3.276
			c-1.905,0-2.87,1.205-2.87,3.434C50.065,44.012,50.981,45.203,53.277,45.203z M52.935,38.482c1.196,0,2.051,0.674,2.076,2.469
			H50.81C50.883,39.313,51.519,38.482,52.935,38.482z M67.048,36.796l-0.024-0.771h-5.397v9.034h0.806v-4.276h3.883v-0.723h-3.883
			v-3.265H67.048z M69.708,45.06v-9.637l-0.733,0.048v9.589H69.708z M77.12,44.012c-0.611,0.324-1.233,0.506-1.99,0.506
			c-1.722,0-2.491-0.771-2.528-3.048h4.848c0.012-0.097,0.024-0.253,0.024-0.361c0-2.301-1.136-3.276-2.76-3.276
			c-1.905,0-2.87,1.205-2.87,3.434c0,2.746,0.916,3.938,3.212,3.938c0.842,0,1.539-0.204,2.161-0.553L77.12,44.012z M74.714,38.482
			c1.197,0,2.052,0.674,2.076,2.469h-4.201C72.663,39.313,73.297,38.482,74.714,38.482z M78.645,37.952l2.405,3.493l-2.466,3.614
			h0.879l2.076-3.241l2.1,3.241h0.916l-2.442-3.638l2.357-3.47h-0.867l-2.015,3.108l-2.039-3.108H78.645z M86.678,45.06h0.745
			v-7.132l-0.745,0.061V45.06z M87.056,36.494c0.366,0,0.574-0.156,0.574-0.506c0-0.324-0.208-0.506-0.574-0.506
			s-0.574,0.182-0.574,0.506C86.482,36.375,86.69,36.494,87.056,36.494z M93.148,37.82c-0.903,0-1.709,0.324-2.223,0.928
			l-0.023-0.013l0.012-0.964V35.41l-0.745,0.049v9.601h0.489l0.146-0.831l0.036-0.012c0.464,0.626,1.294,0.975,2.222,0.975
			c1.809,0,2.846-0.987,2.846-3.697C95.908,38.735,94.834,37.82,93.148,37.82z M92.978,44.565c-1.038,0-1.746-0.494-2.063-1.036
			v-4.023c0.415-0.626,1.16-1,2.039-1c1.38,0,2.198,0.615,2.198,3C95.151,43.928,94.26,44.565,92.978,44.565z M98.85,37.928
			l-0.745,0.061v7.071h0.745V37.928z M98.482,35.482c-0.365,0-0.573,0.182-0.573,0.506c0,0.387,0.208,0.506,0.573,0.506
			c0.367,0,0.574-0.156,0.574-0.506C99.057,35.664,98.85,35.482,98.482,35.482z M102.536,35.423l-0.732,0.048v9.589h0.732V35.423z
			 M105.479,45.06h0.744v-7.132l-0.744,0.061V45.06z M105.856,35.482c-0.366,0-0.573,0.182-0.573,0.506
			c0,0.387,0.207,0.506,0.573,0.506s0.574-0.156,0.574-0.506C106.431,35.664,106.223,35.482,105.856,35.482z M111.974,38.543v-0.591
			h-1.893v-1.939l-0.587,0.073l-0.146,1.866h-1.135v0.591h1.123v4.83c0,1.217,0.598,1.795,1.722,1.795
			c0.317,0,0.672-0.061,0.867-0.145l-0.062-0.578c-0.146,0.061-0.402,0.096-0.61,0.096c-0.72,0-1.172-0.337-1.172-1.192v-4.806
			H111.974z M116.796,36.41c0.28,0,0.427-0.145,0.427-0.457c0-0.302-0.146-0.471-0.427-0.471s-0.427,0.182-0.427,0.471
			C116.369,36.29,116.516,36.41,116.796,36.41z M114.549,35.953c0,0.337,0.146,0.457,0.428,0.457s0.428-0.145,0.428-0.457
			c0-0.302-0.146-0.471-0.428-0.471S114.549,35.664,114.549,35.953z M117.626,44.047l0.036,0.013l0.086,1h0.562v-4.698
			c0-1.843-0.709-2.554-2.467-2.554c-0.83,0-1.563,0.157-2.247,0.47l0.085,0.639c0.623-0.313,1.295-0.445,2.039-0.445
			c1.271,0,1.844,0.434,1.844,1.782v0.88c-0.488-0.182-1.147-0.313-1.795-0.313c-1.758,0-2.601,0.771-2.601,2.12
			c0,1.59,0.903,2.229,2.21,2.229C116.381,45.168,117.235,44.723,117.626,44.047z M113.877,42.928c0-0.988,0.611-1.555,2.003-1.555
			c0.867,0,1.502,0.205,1.685,0.338v1.421c0,0.687-0.939,1.409-1.99,1.409C114.609,44.541,113.877,44.132,113.877,42.928z
			 M121.666,36.013l-0.586,0.073l-0.146,1.866h-1.136v0.591h1.124v4.83c0,1.217,0.598,1.795,1.721,1.795
			c0.318,0,0.672-0.061,0.867-0.145l-0.061-0.578c-0.146,0.061-0.402,0.096-0.61,0.096c-0.721,0-1.173-0.337-1.173-1.192v-4.806
			h1.893v-0.591h-1.893V36.013z M135.78,37.844c-0.94,0-1.697,0.41-2.027,1.193h-0.036c-0.293-0.783-0.953-1.182-1.99-1.182
			c-0.782,0-1.502,0.361-1.905,0.928h-0.037l-0.146-0.867l-0.524,0.049v7.095h0.732v-5.565c0.342-0.578,1.074-0.951,1.759-0.951
			c0.891,0,1.636,0.422,1.636,1.529v4.987h0.732v-4.987c0-1.012,0.782-1.529,1.637-1.529c1.074,0,1.746,0.529,1.746,1.686v4.831
			h0.732v-4.843C138.088,38.591,137.147,37.844,135.78,37.844z M140.613,45.06h0.745v-7.132l-0.745,0.061V45.06z M140.991,35.482
			c-0.366,0-0.573,0.182-0.573,0.506c0,0.387,0.207,0.506,0.573,0.506c0.367,0,0.574-0.156,0.574-0.506
			C141.565,35.664,141.358,35.482,140.991,35.482z M145.216,36.013l-0.586,0.073l-0.146,1.866h-1.136v0.591h1.123v4.83
			c0,1.217,0.599,1.795,1.722,1.795c0.317,0,0.672-0.061,0.867-0.145l-0.062-0.578c-0.146,0.061-0.402,0.096-0.61,0.096
			c-0.72,0-1.172-0.337-1.172-1.192v-4.806h1.893v-0.591h-1.893V36.013z M6.496,52.082H5.495l-3.151,3.951H0.806v-3.951H0v9.035
			h0.806v-4.373h1.526l3.322,4.373h1.05l-3.626-4.771L6.496,52.082z M10.463,53.865c-0.831,0-1.563,0.156-2.247,0.47l0.086,0.639
			c0.623-0.313,1.294-0.446,2.039-0.446c1.27,0,1.844,0.434,1.844,1.783v0.879c-0.488-0.18-1.148-0.312-1.795-0.312
			c-1.758,0-2.601,0.771-2.601,2.12c0,1.59,0.904,2.228,2.21,2.228c1.001,0,1.856-0.445,2.247-1.119l0.037,0.012l0.085,1h0.562
			v-4.698C12.93,54.576,12.221,53.865,10.463,53.865z M12.185,59.189c0,0.687-0.94,1.41-1.99,1.41c-0.965,0-1.697-0.41-1.697-1.615
			c0-0.987,0.61-1.554,2.002-1.554c0.867,0,1.502,0.205,1.685,0.337V59.189z M11.843,52.01c0-0.301-0.146-0.469-0.427-0.469
			s-0.428,0.18-0.428,0.469c0,0.338,0.147,0.458,0.428,0.458S11.843,52.323,11.843,52.01z M10.023,52.01
			c0-0.301-0.146-0.469-0.428-0.469c-0.281,0-0.427,0.18-0.427,0.469c0,0.338,0.146,0.458,0.427,0.458
			C9.877,52.468,10.023,52.323,10.023,52.01z M15.773,55.769h-0.024l-0.024-0.976L15.7,53.998l-0.598,0.048v7.071h0.732v-3.626
			c0-1.723,1.026-2.831,2.247-2.831c0.232,0,0.452,0.024,0.659,0.097l0.061-0.759c-0.208-0.061-0.439-0.084-0.684-0.084
			C17.031,53.914,16.188,54.66,15.773,55.769z M22.878,60.6c-1.526,0-2.32-0.82-2.32-3.121c0-2.035,0.659-2.891,2.344-2.891
			c0.574,0,1.136,0.156,1.588,0.373l0.061-0.674c-0.477-0.229-1.124-0.398-1.795-0.398c-2.063,0-2.967,1.169-2.967,3.59
			c0,2.687,0.977,3.795,2.955,3.795c0.745,0,1.441-0.217,1.869-0.529l-0.073-0.639C24.087,60.43,23.489,60.6,22.878,60.6z
			 M29.349,53.877c-0.879,0-1.648,0.326-2.149,0.916l-0.024-0.012l0.012-0.965V51.48l-0.745,0.061v9.576h0.745v-5.554
			c0.318-0.542,1.075-0.976,1.966-0.976c1.282,0,1.88,0.627,1.88,1.723v4.807h0.745v-4.807
			C31.779,54.732,30.937,53.877,29.349,53.877z M36.369,53.889c-1.905,0-2.87,1.205-2.87,3.434c0,2.746,0.916,3.939,3.211,3.939
			c0.843,0,1.539-0.205,2.162-0.555l-0.098-0.639c-0.61,0.326-1.233,0.506-1.99,0.506c-1.722,0-2.491-0.771-2.528-3.047h4.848
			c0.012-0.097,0.024-0.253,0.024-0.361C39.128,54.865,37.993,53.889,36.369,53.889z M34.244,57.01
			c0.073-1.639,0.708-2.47,2.125-2.47c1.197,0,2.051,0.675,2.076,2.47H34.244z M41.63,55.769h-0.024l-0.024-0.976l-0.024-0.795
			l-0.598,0.048v7.071h0.732v-3.626c0-1.723,1.026-2.831,2.247-2.831c0.232,0,0.452,0.024,0.66,0.097l0.061-0.759
			c-0.208-0.061-0.439-0.084-0.684-0.084C42.888,53.914,42.045,54.66,41.63,55.769z M54.974,59.105l-0.342,0.903h-0.037
			l-0.354-0.903l-2.894-7.023h-0.953v9.035h0.708v-6.722l-0.012-0.976l0.024-0.012l0.354,0.915l2.821,6.794h0.61l2.821-6.83
			l0.354-0.916l0.036,0.012l-0.024,0.977v6.758h0.721v-9.035h-0.94L54.974,59.105z M61.664,61.117h0.745v-7.131l-0.745,0.06V61.117z
			 M62.042,51.541c-0.366,0-0.574,0.18-0.574,0.506c0,0.385,0.208,0.506,0.574,0.506s0.574-0.157,0.574-0.506
			C62.616,51.721,62.408,51.541,62.042,51.541z M67.487,53.889c-1.905,0-2.87,1.205-2.87,3.434c0,2.746,0.916,3.939,3.211,3.939
			c0.843,0,1.539-0.205,2.161-0.555l-0.098-0.639c-0.61,0.326-1.233,0.506-1.99,0.506c-1.722,0-2.491-0.771-2.528-3.047h4.848
			c0.012-0.097,0.024-0.253,0.024-0.361C70.247,54.865,69.111,53.889,67.487,53.889z M65.362,57.01
			c0.073-1.639,0.708-2.47,2.125-2.47c1.196,0,2.051,0.675,2.076,2.47H65.362z M73.139,52.07l-0.586,0.072l-0.146,1.867h-1.136v0.59
			h1.124v4.831c0,1.216,0.598,1.794,1.722,1.794c0.317,0,0.671-0.06,0.867-0.145l-0.061-0.578c-0.147,0.061-0.403,0.098-0.611,0.098
			c-0.72,0-1.172-0.338-1.172-1.193V54.6h1.893v-0.59h-1.893V52.07z M81.82,53.865l-1.16,0.518
			c-0.476-0.373-1.136-0.494-1.758-0.494c-1.746,0-2.43,0.748-2.43,2.084c0,0.88,0.367,1.41,0.879,1.688
			c-0.598,0.205-0.928,0.59-0.928,1.023c0,0.482,0.293,0.795,0.66,0.951c-0.513,0.386-0.794,0.916-0.794,1.458
			c0,1.132,0.794,1.879,2.687,1.879c2.186,0,2.918-0.795,2.918-2.048c0-0.939-0.525-1.469-2.295-1.65l-1.661-0.168
			c-0.598-0.061-0.818-0.289-0.818-0.566c0-0.301,0.256-0.542,0.745-0.65c0.33,0.096,0.696,0.133,1.038,0.133
			c1.807,0,2.418-0.723,2.418-2.061c0-0.457-0.098-0.818-0.257-1.107l0.928-0.615L81.82,53.865z M77.729,59.768l1.758,0.181
			c1.392,0.12,1.71,0.458,1.71,1.072c0,0.795-0.464,1.337-2.247,1.337c-1.417,0-2.002-0.506-2.002-1.35
			C76.948,60.574,77.217,60.093,77.729,59.768z M78.89,57.443c-0.965,0-1.697-0.266-1.697-1.458c0-0.987,0.464-1.481,1.709-1.481
			c1.185,0,1.709,0.385,1.709,1.481C80.611,56.938,80.208,57.443,78.89,57.443z M85.873,53.889c-1.905,0-2.869,1.205-2.869,3.434
			c0,2.746,0.916,3.939,3.211,3.939c0.842,0,1.539-0.205,2.161-0.555l-0.098-0.639c-0.61,0.326-1.233,0.506-1.99,0.506
			c-1.722,0-2.491-0.771-2.528-3.047h4.847c0.013-0.097,0.025-0.253,0.025-0.361C88.633,54.865,87.497,53.889,85.873,53.889z
			 M83.748,57.01c0.073-1.639,0.708-2.47,2.125-2.47c1.197,0,2.052,0.675,2.076,2.47H83.748z M91.135,55.769h-0.025l-0.023-0.976
			l-0.025-0.795l-0.598,0.048v7.071h0.732v-3.626c0-1.723,1.025-2.831,2.246-2.831c0.232,0,0.453,0.024,0.66,0.097l0.061-0.759
			c-0.207-0.061-0.439-0.084-0.684-0.084C92.392,53.914,91.549,54.66,91.135,55.769z M98.851,52.468c0.28,0,0.427-0.145,0.427-0.458
			c0-0.301-0.146-0.469-0.427-0.469c-0.281,0-0.428,0.18-0.428,0.469C98.423,52.348,98.569,52.468,98.851,52.468z M97.898,53.865
			c-0.831,0-1.563,0.156-2.247,0.47l0.085,0.639c0.623-0.313,1.295-0.446,2.039-0.446c1.271,0,1.844,0.434,1.844,1.783v0.879
			c-0.488-0.18-1.147-0.312-1.795-0.312c-1.758,0-2.601,0.771-2.601,2.12c0,1.59,0.903,2.228,2.21,2.228
			c1.002,0,1.856-0.445,2.247-1.119l0.036,0.012l0.086,1h0.562v-4.698C100.365,54.576,99.656,53.865,97.898,53.865z M99.619,59.189
			c0,0.687-0.939,1.41-1.99,1.41c-0.965,0-1.697-0.41-1.697-1.615c0-0.987,0.611-1.554,2.003-1.554c0.867,0,1.502,0.205,1.685,0.337
			V59.189z M97.459,52.01c0-0.301-0.146-0.469-0.428-0.469s-0.428,0.18-0.428,0.469c0,0.338,0.146,0.458,0.428,0.458
			S97.459,52.323,97.459,52.01z M103.721,52.07l-0.586,0.072l-0.146,1.867h-1.136v0.59h1.124v4.831c0,1.216,0.598,1.794,1.721,1.794
			c0.318,0,0.672-0.06,0.867-0.145l-0.061-0.578c-0.146,0.061-0.403,0.098-0.611,0.098c-0.72,0-1.172-0.338-1.172-1.193V54.6h1.893
			v-0.59h-1.893V52.07z M109.557,53.889c-1.904,0-2.869,1.205-2.869,3.434c0,2.746,0.916,3.939,3.211,3.939
			c0.843,0,1.539-0.205,2.162-0.555l-0.098-0.639c-0.611,0.326-1.234,0.506-1.99,0.506c-1.723,0-2.492-0.771-2.528-3.047h4.848
			c0.013-0.097,0.024-0.253,0.024-0.361C112.316,54.865,111.182,53.889,109.557,53.889z M107.432,57.01
			c0.074-1.639,0.709-2.47,2.125-2.47c1.197,0,2.052,0.675,2.076,2.47H107.432z M117.028,53.889c-0.866,0-1.697,0.35-2.186,0.94
			h-0.036l-0.135-0.855l-0.525,0.048v7.096h0.732v-5.565c0.403-0.626,1.258-0.964,1.967-0.964c1.221,0,1.904,0.518,1.904,1.734
			v4.795h0.732v-4.807C119.482,54.672,118.555,53.889,117.028,53.889z M121.996,60.117c-0.391,0-0.586,0.193-0.586,0.554
			c0,0.409,0.195,0.566,0.586,0.566c0.379,0,0.562-0.204,0.562-0.566C122.559,60.311,122.375,60.117,121.996,60.117z"/>
	</g>
</g>
</svg>
