<?xml version="1.0" encoding="UTF-8"?><svg id="Ebene_1" xmlns="http://www.w3.org/2000/svg" viewBox="0 0 153.15 104.51"><path d="m8.78,7.65c0,2.72-1.45,4.14-4.42,4.14S-.11,10.37-.11,7.65V0h3.03v7.59c0,1.04.4,1.5,1.44,1.5s1.41-.43,1.41-1.5V0h3.01v7.65Z"/><path d="m17.03,11.59l-3.46-5.35-.65-1.07-.03.02.02,1.25v5.15h-2.66V0h2.54l3.73,6.01.03-.02-.03-1.24V0h2.67v11.59h-2.15Z"/><path d="m24.95,11.59h-4.19V0h4.13c3.52,0,4.96,1.64,4.96,5.73s-1.64,5.86-4.9,5.86Zm-.05-8.92h-1.13v6.28h1.13c1.33,0,1.78-.4,1.78-3.25,0-2.57-.42-3.03-1.78-3.03Z"/><path d="m14.15,46.36l.05.15h11.57l-.2,8.36H2.28v-6.03c7.67-8.56,13.9-14.69,13.9-19.58,0-2.23-1.29-3.51-4.25-3.51s-5.39,1.29-7.81,3.02l-2.22-7.67c2.97-2.18,6.92-3.71,11.92-3.71,8.11,0,12.17,4.4,12.17,10.93,0,6.03-4.8,11.42-11.82,18.05Z"/><path d="m41.99,55.36c-3.96,0-7.67-.84-10.73-2.57l1.58-7.32c2.72,1.33,4.95,2.03,8.11,2.03,3.96,0,5-1.53,5-4.75,0-2.92-1.58-3.96-4.95-3.96-1.93,0-4.3.3-6.13.94l-3.07-3.56,1.33-18.4h20.18l.35,8.21h-12.91l-.35,5.49c1.14-.2,2.32-.3,3.66-.3,7.17,0,11.32,3.61,11.32,10.83,0,8.31-4.05,13.35-13.4,13.35Z"/><path d="m69.99,34.49c-5.24,0-7.62-2.97-7.62-8.56,0-5.93,2.37-8.56,7.67-8.56,4.95,0,7.67,2.42,7.67,8.56,0,5.69-2.82,8.56-7.71,8.56Zm21.22-10.14l-20.03,28.44-5.09-4.06,20.08-28.44,5.04,4.06Zm-21.17-1.48c-1.14,0-1.68.59-1.68,3.07s.54,3.02,1.68,3.02,1.68-.54,1.68-3.02-.59-3.07-1.68-3.07Zm17.75,32.49c-5.24,0-7.62-2.97-7.62-8.51,0-5.93,2.37-8.7,7.67-8.7,5,0,7.67,2.57,7.67,8.7,0,5.64-2.77,8.51-7.71,8.51Zm.05-11.42c-1.14,0-1.68.54-1.68,2.92s.54,2.92,1.68,2.92,1.73-.49,1.73-2.92-.59-2.92-1.73-2.92Z"/><path d="m6.82,68.67l2.26,4.75h-3.49l-1.55-4.14h-1.02v4.14H0v-11.59h4c2.94,0,4.39,1.11,4.39,3.73,0,1.55-.56,2.69-1.58,3.12Zm-2.75-4.34h-1.05v2.67h1.04c.88,0,1.19-.22,1.19-1.34,0-1.05-.29-1.33-1.17-1.33Z"/><path d="m15.81,71.39h-3.15l-.45,2.02h-3.2l3.43-11.59h3.69l3.49,11.59h-3.37l-.45-2.02Zm-1.84-5.84l-.74,3.32h2.03l-.74-3.32-.23-1.24h-.05l-.26,1.24Z"/><path d="m24.92,73.42h-4.51v-11.59h4.54c2.49,0,3.76,1.16,3.76,3,0,1.22-.56,2.01-1.42,2.43v.03c1.16.39,1.78,1.28,1.78,2.72,0,2.09-1.25,3.42-4.14,3.42Zm-.09-9.06h-1.5v2.04h1.53c.7,0,.94-.26.94-1.05s-.26-.99-.97-.99Zm.08,4.3h-1.58v2.29h1.64c.76,0,1.04-.25,1.04-1.16,0-.8-.25-1.13-1.1-1.13Z"/><path d="m36.03,71.39h-3.15l-.45,2.02h-3.2l3.43-11.59h3.69l3.49,11.59h-3.37l-.45-2.02Zm-1.84-5.84l-.74,3.32h2.03l-.74-3.32-.23-1.24h-.05l-.26,1.24Z"/><path d="m44.64,64.53v8.89h-3.08v-8.89h-2.63l.06-2.71h8.21l.06,2.71h-2.63Z"/><path d="m53.49,64.53v8.89h-3.08v-8.89h-2.63l.06-2.71h8.21l.06,2.71h-2.63Z"/><path d="m66.51,71.39h-3.15l-.45,2.02h-3.2l3.43-11.59h3.69l3.49,11.59h-3.37l-.45-2.02Zm-1.84-5.84l-.74,3.32h2.03l-.74-3.32-.23-1.24h-.05l-.26,1.24Z"/><path d="m79.4,69.48c0,2.72-1.45,4.14-4.42,4.14s-4.47-1.42-4.47-4.14v-7.65h3.03v7.59c0,1.04.4,1.5,1.44,1.5s1.41-.43,1.41-1.5v-7.59h3.01v7.65Z"/><path d="m83.9,64.53v2.04h3.54l-.02,2.57h-3.52v4.28h-3.03v-11.59h7.25l.05,2.71h-4.27Z"/><path d="m3.97,85.27h-.96v3.6H0v-11.59h3.97c3.21,0,4.5,1.25,4.5,4.08,0,2.5-1.25,3.91-4.5,3.91Zm0-5.47h-.96v3.08h.96c.99,0,1.36-.23,1.36-1.53s-.29-1.55-1.36-1.55Z"/><path d="m14.67,86.85h-3.15l-.45,2.02h-3.2l3.43-11.59h3.69l3.49,11.59h-3.37l-.45-2.02Zm-1.84-5.84l-.74,3.32h2.03l-.74-3.32-.23-1.24h-.05l-.26,1.24Z"/><path d="m22.32,89.07c-1.22,0-2.43-.28-3.37-.8l.39-2.57c.94.48,1.9.77,2.91.77s1.33-.32,1.33-.94c0-1.48-4.61-1.02-4.61-4.81,0-2.02,1.24-3.63,4.1-3.63,1.07,0,2.21.2,3.04.56l-.34,2.52c-.88-.26-1.76-.42-2.5-.42-1.14,0-1.39.34-1.39.83,0,1.5,4.61.99,4.61,4.78,0,2.29-1.55,3.71-4.16,3.71Z"/><path d="m30.39,89.07c-1.22,0-2.43-.28-3.37-.8l.39-2.57c.94.48,1.9.77,2.91.77s1.33-.32,1.33-.94c0-1.48-4.61-1.02-4.61-4.81,0-2.02,1.24-3.63,4.1-3.63,1.07,0,2.21.2,3.04.56l-.34,2.52c-.88-.26-1.76-.42-2.5-.42-1.14,0-1.39.34-1.39.83,0,1.5,4.61.99,4.61,4.78,0,2.29-1.55,3.71-4.16,3.71Z"/><path d="m43.15,86.26l-.06,2.61h-7.47v-11.59h7.26l.06,2.66h-4.31v1.79h3.55v2.43h-3.55v2.1h4.51Z"/><path d="m51.1,88.87l-3.46-5.35-.65-1.07-.03.02.02,1.25v5.15h-2.66v-11.59h2.54l3.73,6.01.03-.02-.03-1.24v-4.76h2.67v11.59h-2.15Z"/><path d="m59.01,88.87h-4.19v-11.59h4.13c3.52,0,4.96,1.64,4.96,5.73s-1.64,5.86-4.9,5.86Zm-.05-8.92h-1.13v6.28h1.13c1.33,0,1.78-.4,1.78-3.25,0-2.57-.42-3.03-1.78-3.03Z"/><path d="m72.71,86.26l-.06,2.61h-7.47v-11.59h7.26l.06,2.66h-4.31v1.79h3.55v2.43h-3.55v2.1h4.51Z"/><path d="m76.89,89.07c-1.22,0-2.43-.28-3.37-.8l.39-2.57c.94.48,1.9.77,2.91.77s1.33-.32,1.33-.94c0-1.48-4.61-1.02-4.61-4.81,0-2.02,1.24-3.63,4.1-3.63,1.07,0,2.21.2,3.04.56l-.34,2.52c-.88-.26-1.76-.42-2.5-.42-1.14,0-1.39.34-1.39.83,0,1.5,4.61.99,4.61,4.78,0,2.29-1.55,3.71-4.16,3.71Z"/><path d="m85.19,88.87v-1.96l3.69-5.87.68-1.02-.02-.03h-4.27l.08-2.71h7.74v2.16l-3.57,5.69-.68,1,.02.05h4.27l-.05,2.69h-7.9Z"/><path d="m102.98,84.93c0,2.72-1.45,4.14-4.42,4.14s-4.47-1.42-4.47-4.14v-7.65h3.03v7.59c0,1.04.4,1.5,1.44,1.5s1.41-.43,1.41-1.5v-7.59h3.01v7.65Z"/><path d="m108.96,88.87h-4.51v-11.59h4.54c2.49,0,3.76,1.16,3.76,3,0,1.22-.56,2.01-1.42,2.43v.03c1.16.39,1.78,1.28,1.78,2.72,0,2.09-1.25,3.42-4.14,3.42Zm-.09-9.06h-1.5v2.04h1.53c.7,0,.94-.26.94-1.05s-.26-.99-.97-.99Zm.08,4.3h-1.58v2.29h1.64c.76,0,1.04-.25,1.04-1.16,0-.8-.25-1.13-1.1-1.13Z"/><path d="m121.84,86.26l-.06,2.61h-7.47v-11.59h7.26l.06,2.66h-4.31v1.79h3.55v2.43h-3.55v2.1h4.51Z"/><path d="m128.83,88.87v-4.54h-2.81v4.54h-3.01v-11.59h3.01v4.34h2.81v-4.34h3.03v11.59h-3.03Z"/><path d="m137.96,89.07c-3.34,0-4.85-1.76-4.85-6s1.45-5.98,4.85-5.98,4.85,1.73,4.85,5.98-1.45,6-4.85,6Zm-1.47-12.35c-.76,0-1.14-.29-1.14-1.04,0-.7.39-1.07,1.14-1.07s1.14.37,1.14,1.07-.36,1.04-1.14,1.04Zm1.45,3.08c-1.27,0-1.67.53-1.67,3.28s.42,3.32,1.7,3.32,1.67-.57,1.67-3.32-.39-3.28-1.7-3.28Zm1.5-3.08c-.76,0-1.14-.29-1.14-1.04,0-.7.39-1.07,1.14-1.07s1.14.37,1.14,1.07-.36,1.04-1.14,1.04Z"/><path d="m150.9,84.13l2.26,4.75h-3.49l-1.55-4.14h-1.02v4.14h-3.01v-11.59h4c2.94,0,4.39,1.11,4.39,3.73,0,1.55-.56,2.69-1.58,3.12Zm-2.75-4.34h-1.05v2.67h1.04c.88,0,1.19-.22,1.19-1.34,0-1.05-.29-1.33-1.17-1.33Z"/><path d="m7.53,101.72l-.06,2.61H0v-11.59h7.26l.06,2.66H3.01v1.79h3.55v2.43h-3.55v2.1h4.51Z"/><path d="m15.5,99.58l2.26,4.75h-3.49l-1.55-4.14h-1.02v4.14h-3.01v-11.59h4c2.94,0,4.39,1.11,4.39,3.73,0,1.55-.56,2.69-1.58,3.12Zm-2.75-4.34h-1.05v2.67h1.04c.88,0,1.19-.22,1.19-1.34,0-1.05-.29-1.33-1.17-1.33Z"/><path d="m24.34,104.33v-4.54h-2.81v4.54h-3.01v-11.59h3.01v4.34h2.81v-4.34h3.03v11.59h-3.03Z"/><path d="m34.92,102.3h-3.15l-.45,2.02h-3.2l3.43-11.59h3.69l3.49,11.59h-3.37l-.45-2.02Zm-1.84-5.84l-.74,3.32h2.03l-.74-3.32-.23-1.24h-.05l-.26,1.24Z"/><path d="m46.49,101.64l-.08,2.69h-6.91v-11.59h3.04v8.9h3.94Z"/><path d="m51.21,95.44v8.89h-3.08v-8.89h-2.63l.06-2.71h8.21l.06,2.71h-2.63Z"/><path d="m62.29,101.72l-.06,2.61h-7.47v-11.59h7.26l.06,2.66h-4.31v1.79h3.55v2.43h-3.55v2.1h4.51Z"/><path d="m70.23,104.33l-3.46-5.35-.65-1.07-.03.02.02,1.25v5.15h-2.66v-11.59h2.54l3.73,6.01.03-.02-.03-1.24v-4.76h2.67v11.59h-2.15Z"/><path d="m75.19,104.51c-1.08,0-1.56-.42-1.56-1.47,0-.94.48-1.48,1.56-1.48s1.55.54,1.55,1.48c0,.88-.46,1.47-1.55,1.47Z"/><path d="m80.8,92.29l.2,1.5,1.42-.34.45,1.27-1.38.66.79,1.31-.97.74-1.14-1.11-1.17,1.13-1-.71.76-1.36-1.38-.65.48-1.28,1.44.34.22-1.5h1.3Z"/></svg>