<svg enable-background="new 0 0 101.41 47.36" viewBox="0 0 101.41 47.36" xmlns="http://www.w3.org/2000/svg"><path clip-rule="evenodd" d="m75.2 22.6h-.11v3.03h-3.23v-9.75h3.34c2.7 0 3.78 1.3 3.78 3.43.01 2.11-1.04 3.29-3.78 3.29zm0-3.76h-.11v1.75h.11c.83 0 1.39-.19 1.39-1.29 0-1.05-.49-.46-1.39-.46zm-8.61 6.96c-2.5 0-3.76-1.2-3.76-3.48v-6.43h3.04v6.38c0 .87-.16 1.26.71 1.26.89 0 1.18-.36 1.18-1.26v-6.38h2.53v6.43c.01 2.29-1.21 3.48-3.7 3.48zm-10.82-.17-1.3-3.48h-.86v3.48h-2.53v-9.75h3.37c2.47 0 3.69.94 3.69 3.13 0 1.3-.47 2.26-1.33 2.63l1.9 3.99zm-1.27-6.92h-.88v1.53h.87c.74 0 1-.18 1-1.13-.01-.89-.25-.4-.99-.4zm-4.72 4.73-.05 2.2h-6.28v-9.75h6.11l.05 2.24h-3.63v1.51h2.99v2.04h-2.99v1.77h3.8zm-12.53 2.19-.78-5.91-.26-1.05h-.04l-.14 1.05-.9 5.91h-3.04l-2.04-9.75h2.65l.86 6.15.13 1.04h.04l.14-1.04 1.01-6.15h2.7l1.03 6.74.16.4h.04l.12-.4.87-6.74h3.23l-2.73 9.75zm-11.38.17c-3.3 0-4.58-1.48-4.58-5.04 0-3.58 1.22-5.03 4.58-5.03 2.36 0 3.59 1.46 3.59 5.03 0 3.66-1.22 5.04-3.59 5.04zm-.13-6.96c-1.44 0-1.78-.39-1.78 1.92 0 2.33.35 2.8 2.04 2.8.47 0 .79-.48.79-2.8 0-2.33-.32-1.92-1.05-1.92zm-9.22 3.76h-.81v3.03h-2.53v-9.75h3.34c2.7 0 3.78 1.3 3.78 3.43.01 2.11-1.05 3.29-3.78 3.29zm0-3.76h-.81v1.75h.81c1.14 0 1.14-.19 1.14-1.29.01-1.05.65-.46-1.14-.46z" fill="#fefefe" fill-rule="evenodd"/></svg>