<svg enable-background="new 0 0 248.31 177.5" viewBox="0 0 248.31 177.5" xmlns="http://www.w3.org/2000/svg"><path clip-rule="evenodd" d="m232.42 56.3 4.35 9.07h-6.74l-2.98-7.92h-1.97v7.92h-5.81v-22.16h7.73c5.66 0 8.46 2.13 8.46 7.12 0 2.95-1.07 5.14-3.04 5.97zm-5.3-8.3h-2.03v5.11h2c1.7 0 2.29-.41 2.29-2.4 0-2.09-.56-2.71-2.26-2.71zm-20.09 106.15-1.25-2.04-.06.03.03 2.5v9.73h-5.13v-22.16h4.89l7.18 11.49.06-.03-.06-2.36.03-9.1h5.13v22.16h-4.14zm10.01-93.77-.12 4.99h-14.4v-22.16h14.01l.12 5.08h-8.32v3.43h7.17v4.64h-7.17v4.02zm-33.56-6.09c0-7.47 3.07-11.46 10.28-11.46 1.97 0 4.2.35 5.81.98l-.54 4.93c-1.46-.53-3.34-.86-4.95-.86-3.67 0-4.5 1.36-4.5 6.35 0 5.26.86 6.41 3.75 6.41.45 0 .92.83 1.34.48v-7.83h5.19v11.77c-1.55.25-4.08.72-6.38.72-7.37 0-10-3.93-10-11.49zm-8.67-11.08h5.99v22.16h-5.99zm-14.09 11.94-1.25-2.04-.06.03.03 2.5v9.73h-5.13v-22.16h5.2l6.87 11.49.06-.03-.06-2.36.03-9.1h5.13v22.16h-4.14zm-15.68-11.94h5.99v22.16h-5.99zm-2.74 46.09 4.35 9.07h-6.74l-2.98-7.92h-1.97v7.92h-5.81v-22.16h7.72c5.66 0 8.46 2.13 8.46 7.12.01 2.95-1.07 5.14-3.03 5.97zm-5.31-8.3h-2.03v5.11h2c1.7 0 3.17-.41 3.17-2.4 0-2.09-1.44-2.71-3.14-2.71zm5.58-20.62-.12 4.99h-14.4v-22.16h14.01l.28 5.08h-8.48v3.43h6.86v4.64h-6.86v4.02zm-22.27-41.01h8.32v3.84h-8.32zm-3.54 13h-5.93v-16.99h-5.07l.12-5.17h15.83l.12 5.17h-5.07zm-11.36-6.71c0 4.37-2.98 7.09-8.02 7.09-2.35 0-4.68-.53-6.5-1.54l.75-4.9c1.82.92 3.67 1.48 6.27 1.48 1.18 0 1.9-.62 1.9-1.8 0-2.84-8.88-1.95-8.88-9.19 0-3.87 2.38-6.94 7.9-6.94 2.06 0 4.26.38 5.87 1.06l-.66 4.82c-1.7-.5-3.4-.8-4.46-.8-2.57 0-3.05 1.27-3.05 1.72 0 2.74 8.88 1.76 8.88 9zm-10.43 26.12h1.55l4.14-8.57h6.8l-5.64 10.61 5.63 11.55h-6.85l-4.2-9.01h-1.43v9.01h-5.81v-22.16h5.81zm-12.28-28.1h-5.42v8.69h-5.81v-22.16h5.81v8.3h5.42v-8.3h5.84v22.16h-5.84zm-21.01 42.07c-5.72 0-8.61-2.72-8.61-7.92v-14.62h5.84v14.51c0 1.98.77 3.45 2.77 3.45 2.03 0 2.71-1.41 2.71-3.45v-14.51h6.21v14.63c0 5.19-3.2 7.91-8.92 7.91zm3.4-38.02c1.37 0 2.65-.27 3.7-.74l.54 4.7c-1.34.65-3.37 1.06-4.62 1.06-6.85 0-9.95-3.61-9.95-11.58 0-7.45 3.01-11.35 9.84-11.35 1.58 0 3.52.36 4.71.83l-.57 5.26c-.98-.7-2.32-.94-3.73-.94-3.31 0-4.14 1.39-4.14 6.24-.01 5.1.91 6.52 4.22 6.52zm-21.55 5.02c-6.44 0-9.26-3.37-9.26-11.47 0-8.12 2.7-11.43 9.26-11.43s9.36 3.31 9.36 11.43c0 8.34-2.8 11.47-9.36 11.47zm-.03-17.73c-2.44 0-3.22 1.01-3.22 6.26 0 5.83.81 6.35 3.28 6.35s3.22-.81 3.22-6.35c0-5.28-.75-6.26-3.28-6.26zm2.89-5.88c-1.46 0-1.98.03-1.98-1.98 0-1.33.52-2.04 1.98-2.04 1.52 0 2.21.71 2.21 2.04 0 1.31-.69 1.98-2.21 1.98zm-5.69 0c-.76 0-2.2.03-2.2-1.98 0-1.33 1.45-2.04 2.2-2.04 2.04 0 2.21.71 2.21 2.04-.01 1.31-.17 1.98-2.21 1.98zm-4.41 61.99c1.52 0 2.21.71 2.21 2.04 0 1.3-.69 1.98-2.21 1.98-1.46 0-2.2.03-2.2-1.98-.01-1.33.74-2.04 2.2-2.04zm-13.53-5.76h-8.08v-22.16h7.96c6.8 0 9.97 3.13 9.97 10.96 0 8.13-3.56 11.2-9.85 11.2zm-.09-17.05h-2.17v12h2.17c3.2 0 3.43-.49 3.43-6.2 0-4.91-.81-5.8-3.43-5.8zm3.25-24.64h-5.42v8.69h-5.81v-22.16h5.81v8.3h5.42v-8.3h5.84v22.16h-5.84zm2.83 57.7h-8.23v3.9h6.83l-.03 4.9h-6.8v8.18h-5.84v-22.15h13.98zm-8.26 36.13h5.42v-8.3h5.84v22.16h-5.84v-8.69h-5.42v8.69h-5.81v-22.16h5.81zm8.26 29.87h-8.23v3.9h6.83l-.03 4.91h-6.8v8.18h-5.84v-22.16h13.98zm10.55-5.53c6.56 0 9.36 3.31 9.36 11.43 0 8.33-2.8 11.46-9.36 11.46-6.44 0-9.36-3.37-9.36-11.46 0-8.12 2.8-11.43 9.36-11.43zm.03 17.79c2.47 0 3.22-.81 3.22-6.35 0-5.29-.75-6.26-3.28-6.26-2.44 0-3.22 1-3.22 6.26 0 5.83.8 6.35 3.28 6.35zm-4.56-50.43h14.01l.12 5.08h-8.32v3.43h6.85v4.64h-6.85v4.02h8.7l.18 4.99h-14.69zm5-36.04c0-1.33.75-2.04 2.21-2.04 1.52 0 2.44.71 2.44 2.04 0 1.3-.92 1.98-2.44 1.98-1.46-.01-2.21.03-2.21-1.98zm7.87 17.66c0 5.2-2.8 7.92-8.52 7.92s-8.61-2.72-8.61-7.92v-14.62h5.84v14.51c0 1.98.77 3.45 2.77 3.45 2.03 0 2.71-1.41 2.71-3.45v-14.51h5.81zm-2.23-25.46-2.98-7.92h-1.97v7.92h-5.81v-22.16h7.72c5.66 0 8.47 2.13 8.47 7.12 0 2.95-1.07 5.14-3.04 5.97l4.35 9.07zm-2.92-17.37h-2.03v5.11h2c1.7 0 2.29-.41 2.29-2.4 0-2.09-.33-2.71-2.26-2.71zm24.17 35.33c0 2.96-1.07 5.14-3.04 5.97l4.35 9.07h-6.08l-2.81-7.92h-2.79v7.92h-5.81v-22.16h8.02c5.36 0 8.16 2.13 8.16 7.12zm-10.37 2.78h2c1.7 0 2.29-.41 2.29-2.4 0-2.09-.57-2.71-2.26-2.71h-2.03zm10.99 63.22c0 2.96-.62 5.14-2.29 5.97l3.61 9.07h-6.74l-2.98-7.92h-1.97v7.92h-5.81v-22.16h7.72c5.66 0 8.46 2.13 8.46 7.12zm-10.37 2.78h2c1.7 0 2.68-.41 2.68-2.4 0-2.09-.95-2.71-2.65-2.71h-2.03zm2.39-28.66h-1.97v7.92h-5.81v-22.16h8.4c4.98 0 7.78 2.13 7.78 7.12 0 2.96-1.07 5.14-3.04 5.97l4.28 8.92 6.57-22h7.12l6.74 22.16h-6.5l-.86-3.87h-6.08l-.86 3.87h-6.05-.12-6.61zm.06-9.45h-2.03v5.11h2c1.7 0 2.29-.41 2.29-2.4 0-2.09-.57-2.71-2.26-2.71zm21.57 8.68-1.43-6.35-.45-2.36h-.09l-.51 2.36-1.43 6.35zm6.65 30.49c0 8.13-3.16 11.2-9.45 11.2h-8.08v-22.16h7.96c6.8 0 9.57 3.13 9.57 10.96zm-11.71 6.15h2.18c2.56 0 3.43-.49 3.43-6.21 0-4.9-.81-5.79-3.43-5.79h-2.18zm6.91-98.59c1.37 0 2.65-.27 3.7-.74l.54 4.7c-1.34.65-3.37 1.06-5.1 1.06-6.38 0-9.48-3.6-9.48-11.58 0-7.45 3.01-11.35 9.84-11.35 1.58 0 3.52.35 4.71.83l-.57 5.26c-.98-.7-2.33-.94-3.73-.94-3.31 0-4.14 1.39-4.14 6.23 0 5.11.92 6.53 4.23 6.53zm7.87 32.65-.12 4.99h-14.4v-22.16h14.01l.12 5.08h-8.32v3.43h6.85v4.64h-6.85v4.02zm4.92 30.34c0 1.98.78 3.45 2.77 3.45 2.03 0 2.71-1.41 2.71-3.45v-14.51h5.81v14.63c0 5.2-2.8 7.92-8.52 7.92s-8.61-2.72-8.61-7.92v-14.63h5.84zm8.58 23.57h-8.31v3.43h6.85v4.64h-6.85v4.02h8.7l-.12 4.99h-14.4v-22.16h14.01zm18.81 2.04c0 2.96-1.07 5.14-3.04 5.97l4.35 9.07h-6.74l-2.98-7.92h-1.97v7.92h-5.81v-22.16h7.72c5.66 0 8.47 2.13 8.47 7.12zm-10.38 2.78h2c1.7 0 2.29-.41 2.29-2.4 0-2.09-.57-2.71-2.26-2.71h-2.03zm14.79-70.73h-5.07v16.99h-5.93v-16.99h-5.07l.12-5.17h16.61zm-4.03 43.28c0 4.37-2.98 7.09-8.02 7.09-2.36 0-4.68-.53-6.5-1.54l.75-4.9c1.82.92 4.38 1.48 5.76 1.48 1.69 0 2.41-.62 2.41-1.8 0-2.84-8.88-1.95-8.88-9.19 0-3.87 3.12-6.94 7.9-6.94 2.06 0 4.26.38 5.87 1.06l-.66 4.82c-1.7-.5-3.4-.8-4.83-.8-2.21 0-2.68 1.27-2.68 1.72 0 2.74 8.88 1.76 8.88 9zm-24.85-48.45 1.88 4.55 1.48 2.22h-.52l1.06-2.22 1.74-4.55h6.56l-5.36 10.55 5.49 11.61h-6.53l-2.15-5.35-.83-2.25h.25l-1.18 2.25-1.32 5.35h-7.46l5.36-11.43-5.31-10.73zm21.37-10.84-2.98-7.92h-1.97v7.92h-5.81v-22.16h7.72c5.66 0 8.47 2.13 8.47 7.12 0 2.95-.65 5.14-2.32 5.97l3.63 9.07zm-2.92-17.37h-2.03v5.11h2c1.7 0 2.65-.41 2.65-2.4 0-2.09-.93-2.71-2.62-2.71zm16.39 74.21h-8.32v-3.84h8.32zm-2.3 34.51c0 1.98.78 3.45 2.77 3.45 2.03 0 2.71-1.41 2.71-3.45v-14.51h5.81v14.63c0 5.2-2.8 7.92-8.52 7.92s-8.34-2.72-8.34-7.92v-14.63h5.57zm26.82-3.02-.56-.03.56-2.36.3-9.1h4.24v22.16h-3.4l-7.41-10.22-1.25-2.04.79.03-.82 2.5v9.73h-5.13v-22.16h4.89zm-9.74-77.49h14.01l.79 5.08h-8.99v3.43h6.86v4.64h-6.86v4.02h8.7l-.12 4.99h-14.4v-22.16zm27 65.61c1.97 0 4.2.35 5.81.97l-.54 4.93c-1.46-.53-3.34-.86-4.95-.86-3.67 0-4.5 1.36-4.5 6.35 0 5.26.86 6.41 3.76 6.41.45 0 .92.83 1.34.48v-7.83h5.74v11.77c-2.1.25-4.63.73-6.93.73-7.39 0-10.01-3.93-10.01-11.49 0-7.46 3.07-11.46 10.28-11.46zm5.99-52.85-3.31 9.4h-3.79l-3.27-9.37-.74-2.31-.06.03.03 2.39v9.25h-5.1v-22.15h6.41l4.29 11.2.39 2.28h.09l.75-2.25 3.99-11.23h6.9v22.16h-5.79v-9.28l.06-2.39-.09-.03zm23.66 4.41-.12 4.99h-13.6v-22.16h14.08l-.75 5.08h-8.32v3.43h6.85v4.64h-6.85v4.02zm-6.76 53.91h-8.32v3.43h6.85v4.64h-6.85v4.02h8.7l-.12 4.99h-14.4v-22.16h14.01zm25.27 11.79c2.09 0 3.81 1.03 3.81 2.84 0 2.43-1.72 2.81-3.81 2.81-1.86 0-3.01-.8-3.01-2.81 0-1.81 1.15-2.84 3.01-2.84z" fill-rule="evenodd"/></svg>