<?xml version="1.0" encoding="utf-8"?>
<!-- Generator: Adobe Illustrator 23.1.1, SVG Export Plug-In . SVG Version: 6.00 Build 0)  -->
<!DOCTYPE svg PUBLIC "-//W3C//DTD SVG 1.1//EN" "http://www.w3.org/Graphics/SVG/1.1/DTD/svg11.dtd" [
	<!ENTITY ns_extend "http://ns.adobe.com/Extensibility/1.0/">
	<!ENTITY ns_ai "http://ns.adobe.com/AdobeIllustrator/10.0/">
	<!ENTITY ns_graphs "http://ns.adobe.com/Graphs/1.0/">
	<!ENTITY ns_vars "http://ns.adobe.com/Variables/1.0/">
	<!ENTITY ns_imrep "http://ns.adobe.com/ImageReplacement/1.0/">
	<!ENTITY ns_sfw "http://ns.adobe.com/SaveForWeb/1.0/">
	<!ENTITY ns_custom "http://ns.adobe.com/GenericCustomNamespace/1.0/">
	<!ENTITY ns_adobe_xpath "http://ns.adobe.com/XPath/1.0/">
]>
<svg version="1.1" id="Ebene_1" xmlns:x="&ns_extend;" xmlns:i="&ns_ai;" xmlns:graph="&ns_graphs;"
	 xmlns="http://www.w3.org/2000/svg" xmlns:xlink="http://www.w3.org/1999/xlink" x="0px" y="0px" viewBox="0 0 397.5 118.3"
	 style="enable-background:new 0 0 397.5 118.3;" xml:space="preserve">
<style type="text/css">
	.st0{fill-rule:evenodd;clip-rule:evenodd;}
</style>
<metadata>
	<sfw  xmlns="&ns_sfw;">
		<slices></slices>
		<sliceSourceBounds  bottomLeftOrigin="true" height="95.4" width="352.6" x="-140.4" y="94.7"></sliceSourceBounds>
	</sfw>
</metadata>
<path class="st0" d="M371.6,108.4c-2.4,0-3.5-0.9-3.5-3.3c0-2.1,1.1-3.3,3.5-3.3c2.4,0,3.4,1.2,3.4,3.3
	C375,107,374,108.4,371.6,108.4z M356.9,108.3c-6.4,0-9-3.9-9-13.1c0-9.8,2.6-13.3,9-13.3c6.3,0,9,3.5,9,13.3
	C366,104.4,363.2,108.3,356.9,108.3z M357,87.6c-1.8,0-2.6,0.9-2.6,7.5c0,6.9,0.8,7.6,2.6,7.6c1.8,0,2.6-0.9,2.6-7.6
	C359.6,88.4,358.8,87.6,357,87.6z M336.7,108.3c-6.4,0-9-3.9-9-13.1c0-9.8,2.6-13.3,9-13.3c6.3,0,9,3.5,9,13.3
	C345.8,104.4,342.9,108.3,336.7,108.3z M336.8,87.6c-1.8,0-2.6,0.9-2.6,7.5c0,6.9,0.8,7.6,2.6,7.6c1.8,0,2.6-0.9,2.6-7.6
	C339.3,88.4,338.5,87.6,336.8,87.6z M315.3,24.2h9.6v4.5h-9.6V24.2z M304.2,39.7c-2.7,0-5.4-0.6-7.5-1.8l0.9-5.7
	c2.1,1.1,4.2,1.7,6.5,1.7c2.1,0,3-0.7,3-2.1c0-3.3-10.2-2.3-10.2-10.7c0-4.5,2.7-8.1,9.1-8.1c2.4,0,4.9,0.4,6.8,1.2l-0.8,5.6
	c-2-0.6-3.9-0.9-5.6-0.9c-2.5,0-3.1,0.8-3.1,1.9c0,3.3,10.2,2.2,10.2,10.6C313.4,36.5,310,39.7,304.2,39.7z M289.7,39.3h-6.8V19.5
	h-5.8l0.1-6h18.2l0.1,6h-5.8V39.3z M267.8,13.5h6.9v25.8h-6.9V13.5z M265,33.5l-0.1,5.8h-16.6V13.5h16.2l0.1,5.9h-9.6v4h7.9v5.4
	h-7.9v4.7H265z M245.5,31.7c0,4.6-2.8,7.6-9.2,7.6h-10V13.5h10.1c5.5,0,8.3,2.6,8.3,6.7c0,2.7-1.2,4.5-3.2,5.4v0.1
	C244.2,26.5,245.5,28.5,245.5,31.7z M236.1,19.1h-3.3v4.5h3.4c1.5,0,2.1-0.6,2.1-2.3C238.3,19.7,237.7,19.1,236.1,19.1z M236.3,28.7
	h-3.5v5.1h3.6c1.7,0,2.3-0.5,2.3-2.6C238.7,29.4,238.2,28.7,236.3,28.7z M241.9,53.8h-9.6v4h7.9v5.4h-7.9v4.7h10l-0.1,5.8h-16.6
	V47.8h16.2L241.9,53.8z M216.9,39.3l-3.4-9.2h-2.3v9.2h-6.7V13.5h8.9c6.5,0,9.8,2.5,9.8,8.3c0,3.4-1.2,6-3.5,6.9l5,10.5H216.9z
	 M213.5,19.1h-2.3V25h2.3c2,0,2.6-0.5,2.6-3C216.1,19.7,215.4,19.1,213.5,19.1z M194.2,34.8h-7l-1,4.5h-7.1l7.6-25.8h8.2l7.8,25.8
	h-7.5L194.2,34.8z M191.4,21.8l-0.5-2.7h-0.1l-0.6,2.7l-1.7,7.4h4.5L191.4,21.8z M192.8,53.9h-5.8v19.7h-6.8V53.9h-5.8l0.1-6h18.2
	L192.8,53.9z M161.3,96.1l-1.4-2.4l-0.1,0l0,2.8v11.4h-5.9V82.2h5.6l8.3,13.4l0.1,0l-0.1-2.7l0-10.6h5.9v25.8H169L161.3,96.1z
	 M165,47.8h6.9v25.8H165V47.8z M161.6,39.7c-2.7,0-5.4-0.6-7.5-1.8l0.9-5.7c2.1,1.1,4.2,1.7,6.5,1.7c2.1,0,3-0.7,3-2.1
	c0-3.3-10.2-2.3-10.2-10.7c0-4.5,2.7-8.1,9.1-8.1c2.4,0,4.9,0.4,6.8,1.2l-0.8,5.6c-2-0.6-3.9-0.9-5.6-0.9c-2.5,0-3.1,0.8-3.1,1.9
	c0,3.3,10.2,2.2,10.2,10.6C170.8,36.5,167.4,39.7,161.6,39.7z M161.2,73.6h-6.2V62.8l0.1-2.8l-0.1,0l-0.9,2.7l-3.8,10.9H146
	l-3.8-10.9l-0.9-2.7l-0.1,0l0,2.8v10.7h-5.9V47.8h7.4l4.5,13l0.9,2.6h0.1l0.9-2.6l4.6-13h7.4V73.6z M152.2,33.5l-0.1,5.8h-16.6V13.5
	h16.2l0.1,5.9h-9.6v4h7.9v5.4h-7.9v4.7H152.2z M126.1,39.3l-3.4-9.2h-2.3v9.2h-6.7V13.5h8.9c6.5,0,9.8,2.5,9.8,8.3
	c0,3.4-1.2,6-3.5,6.9l5,10.5H126.1z M122.7,19.1h-2.3V25h2.3c2,0,2.6-0.5,2.6-3C125.3,19.7,124.6,19.1,122.7,19.1z M111.1,33.5
	l-0.1,5.8H94.3V13.5h16.2l0.1,5.9H101v4h7.9v5.4H101v4.7H111.1z M100.7,73.6h-6.2V62.8l0.1-2.8l-0.1,0l-0.9,2.7l-3.8,10.9h-4.4
	l-3.8-10.9L80.8,60l-0.1,0l0,2.8v10.7h-5.9V47.8h7.4l4.5,13l0.9,2.6h0.1l0.9-2.6l4.6-13h7.4V73.6z M84.1,29.2h-6.3v10.1h-6.7V13.5
	h6.7v9.6h6.3v-9.6h6.7v25.8h-6.7V29.2z M64.2,47.8h6.9v25.8h-6.9V47.8z M63.8,33.9c1.6,0,3.1-0.3,4.3-0.9l0.6,5.5
	c-1.5,0.8-3.9,1.2-5.9,1.2c-7.4,0-10.9-4.2-10.9-13.5c0-8.7,3.5-13.2,11.3-13.2c1.8,0,4.1,0.4,5.4,1L68,19.7
	c-1.1-0.4-2.7-0.7-4.3-0.7c-3.8,0-4.8,1.6-4.8,7.2C58.9,32.2,60,33.9,63.8,33.9z M41.9,13.5h6.9v25.8h-6.9V13.5z M30,39.7
	c-2.7,0-5.4-0.6-7.5-1.8l0.9-5.7c2.1,1.1,4.2,1.7,6.5,1.7c2.1,0,3-0.7,3-2.1c0-3.3-10.2-2.3-10.2-10.7c0-4.5,2.7-8.1,9.1-8.1
	c2.4,0,4.9,0.4,6.8,1.2l-0.8,5.6c-2-0.6-3.9-0.9-5.6-0.9c-2.5,0-3.1,0.8-3.1,1.9c0,3.3,10.2,2.2,10.2,10.6
	C39.2,36.5,35.8,39.7,30,39.7z M29.9,57.8h1.8l4.8-10H44l-6.2,12.3l6.5,13.4h-7.9l-4.8-10.5h-1.6v10.5h-6.7V47.8h6.7V57.8z M30,102
	h8.8l-0.2,6H23.2V82.2H30V102z M47.2,99c0,2.3,0.9,3.3,3.2,3.3c2.3,0,3.1-1,3.1-3.3V82.2h6.7v17c0,6-3.2,9.2-9.8,9.2
	s-9.9-3.2-9.9-9.2v-17h6.7V99z M46.2,47.8H53v19.8h8.8l-0.2,6H46.2V47.8z M79.7,88.2h-9.5v4.5h7.9l0,5.7h-7.8v9.5h-6.7V82.2h16.1
	L79.7,88.2z M99.6,82.2l0.1,6h-5.8v19.7H87V88.2h-5.8l0.1-6H99.6z M120.4,90.5c0,3.4-1.2,6-3.5,6.9l5,10.5h-7.8l-3.4-9.2h-2.3v9.2
	h-6.7V82.2h8.9C117.2,82.2,120.4,84.7,120.4,90.5z M108.5,93.7h2.3c2,0,2.6-0.5,2.6-3c0-2.3-0.7-3-2.6-3h-2.3V93.7z M117.5,69.1h-7
	l-1,4.5h-7.1l7.6-25.8h8.2l7.8,25.8h-7.5L117.5,69.1z M114.6,56.1l-0.5-2.7H114l-0.6,2.7l-1.6,7.4h4.5L114.6,56.1z M139.9,88.1h-9.6
	v4h7.9v5.4h-7.9v4.7h10l-0.1,5.8h-16.6V82.2h16.2L139.9,88.1z M150.1,107.9h-6.9V82.2h6.9V107.9z M184.4,107.9h-6.9V82.2h6.9V107.9z
	 M199.4,81.7c2.3,0,4.8,0.4,6.7,1.1l-0.6,5.7c-1.7-0.6-3.8-1-5.7-1c-4.2,0-5.2,1.6-5.2,7.4c0,6.1,1,7.5,4.3,7.5c0.5,0,1.1,0,1.5-0.1
	v-8.4h6V107c-1.8,0.9-4.7,1.4-7.4,1.4c-8.5,0-11.5-4.6-11.5-13.4C187.5,86.1,191.1,81.7,199.4,81.7z M202.6,73.6V47.8h9.2
	c7.8,0,11,3.6,11,12.7c0,9.4-3.6,13-10.9,13H202.6z M215.7,60.5c0-5.7-0.9-6.7-4-6.7h-2.5v13.9h2.5
	C214.7,67.7,215.7,66.8,215.7,60.5z M225.8,88.1h-9.6v4h7.9v5.4h-7.9v4.7h10l-0.1,5.8h-16.6V82.2h16.2L225.8,88.1z M247.5,90.5
	c0,3.4-1.2,6-3.5,6.9l5,10.5h-7.8l-3.4-9.2h-2.3v9.2h-6.7V82.2h8.9C244.2,82.2,247.5,84.7,247.5,90.5z M235.5,93.7h2.3
	c2,0,2.6-0.5,2.6-3c0-2.3-0.7-3-2.6-3h-2.3V93.7z M250.8,73.6h-5.9V47.8h7.4l4.5,13l0.9,2.6h0.1l0.9-2.6l4.6-13h7.4v25.8h-6.2V62.8
	l0.1-2.8l-0.1,0l-0.9,2.7l-3.8,10.9h-4.4l-3.8-10.9l-0.9-2.7l-0.1,0l0,2.8V73.6z M272.4,82.2l7.8,25.8h-7.5l-1-4.5h-7l-1,4.5h-7.1
	l7.6-25.8H272.4z M270.5,97.8l-1.6-7.4l-0.5-2.7h-0.1l-0.6,2.7l-1.6,7.4H270.5z M298.1,88.2h-9.5v4.5h7.9l0,5.7h-7.8v9.5h-6.7V82.2
	H298L298.1,88.2z M321,82.2v21.1h3.1v4.6h-12.9v-4.6h3.1V90l-3.9,2.2l-0.7-5.2l7.5-4.7H321z"/>
</svg>
