<?xml version="1.0" encoding="utf-8"?>
<!-- Generator: Adobe Illustrator 23.1.1, SVG Export Plug-In . SVG Version: 6.00 Build 0)  -->
<!DOCTYPE svg PUBLIC "-//W3C//DTD SVG 1.1//EN" "http://www.w3.org/Graphics/SVG/1.1/DTD/svg11.dtd" [
	<!ENTITY ns_extend "http://ns.adobe.com/Extensibility/1.0/">
	<!ENTITY ns_ai "http://ns.adobe.com/AdobeIllustrator/10.0/">
	<!ENTITY ns_graphs "http://ns.adobe.com/Graphs/1.0/">
	<!ENTITY ns_vars "http://ns.adobe.com/Variables/1.0/">
	<!ENTITY ns_imrep "http://ns.adobe.com/ImageReplacement/1.0/">
	<!ENTITY ns_sfw "http://ns.adobe.com/SaveForWeb/1.0/">
	<!ENTITY ns_custom "http://ns.adobe.com/GenericCustomNamespace/1.0/">
	<!ENTITY ns_adobe_xpath "http://ns.adobe.com/XPath/1.0/">
]>
<svg version="1.1" id="Ebene_1" xmlns:x="&ns_extend;" xmlns:i="&ns_ai;" xmlns:graph="&ns_graphs;"
	 xmlns="http://www.w3.org/2000/svg" xmlns:xlink="http://www.w3.org/1999/xlink" x="0px" y="0px" viewBox="0 0 112.24 139.38"
	 style="enable-background:new 0 0 112.24 139.38;" xml:space="preserve">
<style type="text/css">
	.st0{fill-rule:evenodd;clip-rule:evenodd;}
</style>
<metadata>
	<sfw  xmlns="&ns_sfw;">
		<slices></slices>
		<sliceSourceBounds  bottomLeftOrigin="true" height="51.17" width="76.11" x="13.44" y="-60.69"></sliceSourceBounds>
	</sfw>
</metadata>
<path class="st0" d="M87.85,60.68c-1.19,0-1.72-0.46-1.72-1.62c0-1.04,0.53-1.63,1.72-1.63s1.7,0.6,1.7,1.63
	C89.55,60.03,89.04,60.68,87.85,60.68z M84.38,14.99h4.74v2.21h-4.74V14.99z M85.52,59.06c0,0.97-0.51,1.62-1.7,1.62
	s-1.72-0.46-1.72-1.62c0-1.04,0.53-1.63,1.72-1.63S85.52,58.03,85.52,59.06z M83.43,18.61c0,2.52-1.7,4.08-4.57,4.08
	c-1.34,0-2.67-0.31-3.7-0.88l0.42-2.82c1.04,0.53,2.09,0.85,3.19,0.85c1.05,0,1.46-0.36,1.46-1.04c0-1.63-5.07-1.12-5.07-5.29
	c0-2.23,1.36-3.99,4.5-3.99c1.17,0,2.43,0.22,3.35,0.61l-0.37,2.77c-0.97-0.29-1.94-0.46-2.75-0.46c-1.26,0-1.53,0.37-1.53,0.92
	C78.36,15.01,83.43,14.45,83.43,18.61z M67.62,16.59l-0.71-1.17l-0.03,0.02l0.02,1.38v5.66h-2.92V9.72h2.79l4.1,6.61l0.03-0.02
	l-0.03-1.36l0.02-5.24h2.92v12.75h-2.36L67.62,16.59z M57.23,22.69c-3.67,0-5.34-1.94-5.34-6.6c0-4.67,1.6-6.58,5.34-6.58
	c3.74,0,5.34,1.9,5.34,6.58C62.57,20.89,60.97,22.69,57.23,22.69z M57.21,12.5c-1.39,0-1.84,0.58-1.84,3.6
	c0,3.04,0.46,3.66,1.87,3.66c1.41,0,1.84-0.63,1.84-3.66C59.08,13.06,58.66,12.5,57.21,12.5z M53,26.97c0,0.75-0.39,1.14-1.26,1.14
	c-0.83,0-1.26-0.32-1.26-1.14c0-0.76,0.42-1.17,1.26-1.17C52.6,25.8,53,26.21,53,26.97z M46.94,9.72h3.42v12.75h-3.42V9.72z
	 M42.9,22.47h-3.38V12.7h-2.89l0.07-2.97h9.03l0.07,2.97H42.9V22.47z M32.49,22.47l-2.4-5.19h-0.82v5.19h-3.31V9.72h3.31v4.93h0.88
	l2.36-4.93h3.72l-3.06,6.1l3.21,6.65H32.49z M20.92,20.25h-3.47l-0.49,2.23h-3.52l3.77-12.75h4.06l3.84,12.75h-3.71L20.92,20.25z
	 M19.49,13.82l-0.25-1.36h-0.05l-0.29,1.36l-0.82,3.65h2.23L19.49,13.82z M19.86,28.5c1.12,0,2.4,0.2,3.32,0.56l-0.31,2.84
	c-0.83-0.31-1.9-0.49-2.82-0.49c-2.09,0-2.57,0.78-2.57,3.65c0,3.03,0.49,3.69,2.14,3.69c0.26,0,0.53-0.02,0.77-0.07v-4.17h2.96
	v6.49c-0.88,0.42-2.33,0.7-3.64,0.7c-4.22,0-5.71-2.26-5.71-6.61C14,30.65,15.75,28.5,19.86,28.5z M17.65,52.65h0.88l2.36-4.93h3.72
	l-3.06,6.1l3.21,6.65h-3.91l-2.4-5.18h-0.82v5.18h-3.31V47.72h3.31V52.65z M33.14,38.6l-0.07,2.87h-8.21V28.72h7.99l0.07,2.92h-4.74
	v1.97h3.91v2.67h-3.91v2.31H33.14z M32.65,47.72l3.84,12.75h-3.71l-0.49-2.23h-3.47l-0.49,2.23h-3.52l3.77-12.75H32.65z
	 M31.68,55.48l-0.82-3.65l-0.25-1.36h-0.05l-0.29,1.36l-0.82,3.65H31.68z M40.03,56.07c0,1.14,0.44,1.65,1.58,1.65
	c1.16,0,1.55-0.48,1.55-1.65v-8.35h3.31v8.41c0,2.99-1.6,4.56-4.86,4.56c-3.26,0-4.91-1.56-4.91-4.56v-8.41h3.33V56.07z
	 M47.23,26.97c0-0.76,0.42-1.17,1.26-1.17c0.87,0,1.26,0.41,1.26,1.17c0,0.75-0.39,1.14-1.26,1.14
	C47.66,28.11,47.23,27.79,47.23,26.97z M44.33,41.47h-3.77l-1.7-4.56h-1.12v4.56h-3.31V28.72h4.4c3.23,0,4.83,1.22,4.83,4.1
	c0,1.7-0.61,2.96-1.73,3.43l2.44,5.13l3.75-12.66h4.06L56,41.47H52.3l-0.49-2.23h-3.47l-0.49,2.23h-3.45H44.33z M38.89,31.48h-1.16
	v2.94h1.14c0.97,0,1.31-0.24,1.31-1.48C40.18,31.78,39.86,31.48,38.89,31.48z M51.19,36.48l-0.82-3.65l-0.25-1.36h-0.05l-0.29,1.36
	l-0.82,3.65H51.19z M56.11,50.7h-4.69v2.24h3.89l-0.02,2.82h-3.88v4.71h-3.33V47.72h7.97L56.11,50.7z M57.89,41.47V31.7H55
	l0.07-2.97h9.03l0.07,2.97h-2.89v9.77H57.89z M65.29,50.65h-4.74v1.97h3.91v2.67h-3.91v2.31h4.96l-0.07,2.87h-8.21V47.72h7.99
	L65.29,50.65z M73.67,54.34l0.03-0.02l-0.03-1.36l0.02-5.24h2.92v12.75h-2.36l-3.81-5.88l-0.71-1.17l-0.03,0.02l0.02,1.38v5.66
	h-2.92V47.72h2.79L73.67,54.34z M79.7,57.43c1.19,0,1.7,0.6,1.7,1.63c0,0.97-0.51,1.62-1.7,1.62c-1.19,0-1.72-0.46-1.72-1.62
	C77.99,58.03,78.51,57.43,79.7,57.43z"/>
</svg>
