<?xml version="1.0" encoding="utf-8"?>
<!-- Generator: Adobe Illustrator 23.1.1, SVG Export Plug-In . SVG Version: 6.00 Build 0)  -->
<!DOCTYPE svg PUBLIC "-//W3C//DTD SVG 1.1//EN" "http://www.w3.org/Graphics/SVG/1.1/DTD/svg11.dtd" [
	<!ENTITY ns_extend "http://ns.adobe.com/Extensibility/1.0/">
	<!ENTITY ns_ai "http://ns.adobe.com/AdobeIllustrator/10.0/">
	<!ENTITY ns_graphs "http://ns.adobe.com/Graphs/1.0/">
	<!ENTITY ns_vars "http://ns.adobe.com/Variables/1.0/">
	<!ENTITY ns_imrep "http://ns.adobe.com/ImageReplacement/1.0/">
	<!ENTITY ns_sfw "http://ns.adobe.com/SaveForWeb/1.0/">
	<!ENTITY ns_custom "http://ns.adobe.com/GenericCustomNamespace/1.0/">
	<!ENTITY ns_adobe_xpath "http://ns.adobe.com/XPath/1.0/">
]>
<svg version="1.1" id="Ebene_1" xmlns:x="&ns_extend;" xmlns:i="&ns_ai;" xmlns:graph="&ns_graphs;"
	 xmlns="http://www.w3.org/2000/svg" xmlns:xlink="http://www.w3.org/1999/xlink" x="0px" y="0px" viewBox="0 0 199.86 37.12"
	 style="enable-background:new 0 0 199.86 37.12;" xml:space="preserve">
<style type="text/css">
	.st0{fill-rule:evenodd;clip-rule:evenodd;}
</style>
<metadata>
	<sfw  xmlns="&ns_sfw;">
		<slices></slices>
		<sliceSourceBounds  bottomLeftOrigin="true" height="12.32" width="181.84" x="6.16" y="16.98"></sliceSourceBounds>
	</sfw>
</metadata>
<path class="st0" d="M186.41,13.92c-1.11,0-1.6-0.43-1.6-1.51c0-0.97,0.49-1.52,1.6-1.52s1.59,0.56,1.59,1.52
	C188,13.32,187.52,13.92,186.41,13.92z M180.34,20.14c-3.93,0-5.33-2.11-5.33-6.17c0-4.15,1.63-6.15,5.47-6.15
	c1.05,0,2.24,0.19,3.09,0.52l-0.29,2.65c-0.78-0.29-1.78-0.46-2.63-0.46c-1.95,0-2.39,0.73-2.39,3.41c0,2.82,0.46,3.44,2,3.44
	c0.24,0,0.49-0.02,0.71-0.06v-3.88h2.76v6.06C182.91,19.89,181.56,20.14,180.34,20.14z M170.4,8.03h3.19v11.89h-3.19V8.03z
	 M166.62,19.92h-3.16V10.8h-2.7l0.06-2.77h8.42l0.06,2.77h-2.7V19.92z M156.51,8.03h3.19v11.89h-3.19V8.03z M155.19,17.24
	l-0.06,2.68h-7.66V8.03h7.45l0.06,2.73h-4.42v1.84h3.65v2.49h-3.65v2.16H155.19z M142.09,20.12c-1.25,0-2.49-0.29-3.46-0.82
	l0.4-2.63c0.97,0.49,1.95,0.79,2.98,0.79c0.98,0,1.36-0.33,1.36-0.97c0-1.52-4.73-1.05-4.73-4.93c0-2.08,1.27-3.73,4.2-3.73
	c1.09,0,2.27,0.21,3.12,0.57l-0.35,2.58c-0.9-0.27-1.81-0.43-2.57-0.43c-1.17,0-1.43,0.35-1.43,0.86c0,1.54,4.73,1.01,4.73,4.9
	C146.36,18.67,144.77,20.12,142.09,20.12z M130.8,19.92V8.03h3.12v9.13h4.04l-0.08,2.76H130.8z M129.61,17.24l-0.06,2.68h-7.66V8.03
	h7.45l0.06,2.73h-4.42v1.84h3.65v2.49h-3.65v2.16H129.61z M116.96,8.03h3.19v11.89h-3.19V8.03z M109.01,19.92l-3.5-11.89h3.41
	l1.67,7.42l0.27,1.25h0.05l0.25-1.25l1.71-7.42h3.2l-3.52,11.89H109.01z M96.47,19.92h-4.3V8.03h4.23c3.61,0,5.09,1.68,5.09,5.88
	C101.49,18.27,99.81,19.92,96.47,19.92z M96.42,10.77h-1.16v6.44h1.16c1.36,0,1.82-0.41,1.82-3.33
	C98.24,11.25,97.82,10.77,96.42,10.77z M84.8,14.43l-0.67-1.09l-0.03,0.02l0.02,1.28v5.28h-2.73V8.03h2.6l3.82,6.17l0.03-0.02
	l-0.03-1.27l0.02-4.88h2.73v11.89h-2.2L84.8,14.43z M75.34,20.12c-3.04,0-4.58-1.46-4.58-4.25V8.03h3.11v7.78
	c0,1.06,0.41,1.54,1.47,1.54c1.08,0,1.44-0.44,1.44-1.54V8.03h3.09v7.85C79.88,18.67,78.39,20.12,75.34,20.12z M62.5,20.14
	c-3.93,0-5.33-2.11-5.33-6.17c0-4.15,1.63-6.15,5.47-6.15c1.05,0,2.24,0.19,3.09,0.52l-0.28,2.65c-0.78-0.29-1.78-0.46-2.63-0.46
	c-1.95,0-2.39,0.73-2.39,3.41c0,2.82,0.46,3.44,2,3.44c0.24,0,0.49-0.02,0.71-0.06v-3.88h2.76v6.06
	C65.07,19.89,63.72,20.14,62.5,20.14z M52.56,8.03h3.19v11.89h-3.19V8.03z M46.1,19.92h-4.3V8.03h4.23c3.61,0,5.09,1.68,5.09,5.88
	C51.13,18.27,49.45,19.92,46.1,19.92z M46.06,10.77H44.9v6.44h1.16c1.36,0,1.82-0.41,1.82-3.33C47.88,11.25,47.45,10.77,46.06,10.77
	z M34.43,14.43l-0.67-1.09l-0.03,0.02l0.02,1.28v5.28h-2.73V8.03h2.6l3.82,6.17l0.03-0.02l-0.03-1.27l0.02-4.88h2.73v11.89h-2.2
	L34.43,14.43z M29.83,17.24l-0.06,2.68h-7.66V8.03h7.45l0.06,2.73H25.2v1.84h3.65v2.49H25.2v2.16H29.83z M14.94,19.92l-1.11-7.21
	l-0.16-1.28h-0.05l-0.17,1.28l-1.09,7.21H8.65L6.16,8.03h3.24l1.05,7.5l0.16,1.27h0.05l0.17-1.27l1.24-7.5h3.3l1.25,7.44l0.19,1.27
	h0.05l0.14-1.27l1.06-7.44h3.09l-2.49,11.89H14.94z M186.41,17.08c1.11,0,1.59,0.56,1.59,1.52c0,0.9-0.48,1.51-1.59,1.51
	s-1.6-0.43-1.6-1.51C184.81,17.63,185.3,17.08,186.41,17.08z"/>
</svg>
