<svg enable-background="new 0 0 203.7 63.6" viewBox="0 0 203.7 63.6" xmlns="http://www.w3.org/2000/svg"><path clip-rule="evenodd" d="m185.2 21.6v-3.2h7v3.2zm-9.8 24.1-1-1.7h-.1v2 8.3h-4.3v-18.7h4.1l6 9.7h.1l-.1-2v-7.7h4.3v18.7h-3.4zm1.6-16.1c-2 0-3.9-.5-5.4-1.3l.6-4.1c1.5.8 3.1 1.2 4.7 1.2 1.5 0 2.1-.5 2.1-1.5 0-2.4-7.4-1.6-7.4-7.8 0-3.3 2-5.9 6.6-5.9 1.7 0 3.6.3 4.9.9l-.6 4.1c-1.4-.4-2.8-.7-4-.7-1.8 0-2.2.5-2.2 1.3 0 2.4 7.4 1.6 7.4 7.7.1 3.8-2.4 6.1-6.7 6.1zm-16.5-8.9-1-1.7h-.1v2 8.3h-4.3v-18.7h4.1l6 9.7h.1l-.1-2v-7.7h4.3v18.7h-3.5zm7.2 20.9c0 2.5-.9 4.3-2.5 5l3.6 7.7h-5.6l-2.5-6.7h-1.7v6.7h-4.9v-18.7h6.5c4.7 0 7.1 1.8 7.1 6zm-8.7 2.3h1.7c1.4 0 1.9-.3 1.9-2.2 0-1.7-.5-2.1-1.9-2.1h-1.7zm-13.8-14.3c-5.4 0-7.8-2.8-7.8-9.7s2.4-9.7 7.8-9.7c5.5 0 7.8 2.8 7.8 9.7.1 7.1-2.3 9.7-7.8 9.7zm0-15c-2.1 0-2.7.8-2.7 5.3s.7 5.4 2.8 5.4 2.7-.9 2.7-5.4c0-4.4-.7-5.3-2.8-5.3zm-15.1-4h5v18.7h-5zm-5.9 18.7h-5v-14.4h-4.2l.1-4.4h13.3l.1 4.4h-4.2v14.4zm-15.3 0-3.5-7.6h-1.2v7.6h-4.9v-18.7h4.9v7.2h1.3l3.5-7.2h5.5l-4.5 9 4.7 9.8h-5.8zm-10.1 10.9c-1.4-.4-2.8-.7-4-.7-1.8 0-2.2.5-2.2 1.3 0 2.4 7.4 1.6 7.4 7.7 0 3.7-2.5 6-6.7 6-2 0-3.9-.5-5.4-1.3l.6-4.1c1.5.8 3.1 1.2 4.7 1.2s2.2-.5 2.2-1.5c0-2.4-7.4-1.6-7.4-7.8 0-3.3 2-5.9 6.6-5.9 1.7 0 3.6.3 4.9.9zm-7-14.2h-5.1l-.7 3.3h-5.2l5.5-18.7h6l5.7 18.7h-5.4zm-2.1-9.4-.4-2h-.1l-.4 2-1.1 5.4h3.3zm-18.9 12.7h-5v-14.4h-4.2l.1-4.4h13.3l.1 4.4h-4.2v14.4zm-7.9 2c1.3 0 1.8.6 1.8 1.7s-.6 1.7-1.8 1.7-1.8-.5-1.8-1.7c0-1.1.6-1.7 1.8-1.7zm-2.3-6.3-.1 4.3h-12.7v-3.2l6-9.5 1.1-1.6v-.1h-6.9l.1-4.4h12.5v3.5l-5.8 9.2-1.1 1.6v.1h6.9zm-4.3 8c0-1.1.6-1.7 1.9-1.7s1.8.6 1.8 1.7-.6 1.7-1.8 1.7c-1.3 0-1.9-.5-1.9-1.7zm-7.8 13.6 3.6 7.5 5.5-18.6h6l5.6 18.7h-5.4l-.8-3.2h-5.1l-.7 3.3h-5.1-.1-5.6l-2.4-6.7h-1.7v6.7h-4.9v-18.7h6.5c4.7 0 7.1 1.8 7.1 6 0 2.5-.9 4.3-2.5 5zm13.6.4-1.2-5.4-.4-2h-.1l-.4 2-1.1 5.4zm-18.1-7.4h-1.7v4.3h1.7c1.4 0 1.9-.3 1.9-2.2 0-1.6-.4-2.1-1.9-2.1zm-1.3-10.3h-5v-14.4h-4.2l.1-4.4h13.3l.1 4.4h-4.2v14.4zm-10.1-4.2-.1 4.2h-12v-18.7h11.7l.1 4.3h-7v2.9h5.7v3.9h-5.7v3.4zm-12.1 15.1c-1.2-.4-2.8-.7-4.1-.7-3.1 0-3.8 1.1-3.8 5.4 0 4.4.7 5.4 3.1 5.4.4 0 .8 0 1.1-.1v-6.1h4.3v9.5c-1.3.6-3.4 1-5.3 1-6.2 0-8.4-3.3-8.4-9.7 0-6.5 2.6-9.7 8.6-9.7 1.6 0 3.5.3 4.9.8zm-9.8-10.5c-1.4 0-2.5-.2-3.4-.6l.2-4.1c.5.3 1.3.5 2.3.5 2.1 0 3-.8 3-3v-11.9h5v11.9c.1 5.4-2.7 7.2-7.1 7.2zm24.6 10.2h-7v2.9h5.7v3.9h-5.7v3.4h7.3l-.1 4.2h-12.1v-18.7h11.7zm32.5-4.3h13.3l.1 4.4h-4.2v14.4h-5v-14.5h-4.2zm39.1 18.7h-5v-18.7h5zm10.5-19.1c1.3 0 2.9.3 3.9.7l-.5 4.1c-.8-.3-1.9-.5-3.1-.5-2.8 0-3.5 1.2-3.5 5.3 0 4.3.8 5.5 3.5 5.5 1.2 0 2.2-.2 3.1-.6l.5 4c-1.1.5-2.8.9-4.3.9-5.3 0-7.9-3-7.9-9.8.1-6.3 2.6-9.6 8.3-9.6zm10.7 7.4h4.5v-7h4.9v18.7h-4.9v-7.3h-4.5v7.3h-4.9v-18.7h4.9zm23.8-2.7h-7v2.9h5.7v3.9h-5.7v3.4h7.3l-.1 4.2h-12.1v-18.7h11.7zm39.1 8.8h-3.5l-.7-13.1h4.9zm-1.7 1.6c1.7 0 2.4.8 2.4 2.2 0 1.3-.8 2.2-2.4 2.2-1.7 0-2.4-.6-2.4-2.2 0-1.4.8-2.2 2.4-2.2z" fill="#020204" fill-rule="evenodd"/></svg>