<svg xmlns="http://www.w3.org/2000/svg" viewBox="0 0 217.31 31.97"><g id="kehrfunktion_01" data-name="kehrfunktion 01"><path d="M3.93,14A8.24,8.24,0,0,1,0,13l.45-3a7.44,7.44,0,0,0,3.39.9c1.11,0,1.54-.38,1.54-1.1C5.38,8.12,0,8.66,0,4.25,0,1.89,1.46,0,4.79,0A9.51,9.51,0,0,1,8.34.67L7.94,3.6A10.45,10.45,0,0,0,5,3.12c-1.33,0-1.62.39-1.62,1,0,1.74,5.37,1.15,5.37,5.56C8.77,12.32,7,14,3.93,14Z"/><path d="M18.11,3.49a7,7,0,0,0-2.25-.36c-2,0-2.5.85-2.5,3.8,0,3.12.56,4,2.55,4a5.43,5.43,0,0,0,2.24-.45l.32,2.86a7.56,7.56,0,0,1-3.08.65c-3.85,0-5.72-2.19-5.72-7.06C9.67,2.38,11.49,0,15.61,0a8.82,8.82,0,0,1,2.84.5Z"/><path d="M26.55,13.74V8.44H23.28v5.3H19.76V.23h3.52V5.29h3.27V.23h3.53V13.74Z"/><path d="M40.67,10.7l-.08,3H31.9V.23h8.46l.07,3.1h-5V5.42h4.14V8.25H35.41V10.7Z"/><path d="M52.24,9.15c0,3.17-1.69,4.82-5.15,4.82s-5.2-1.65-5.2-4.82V.23h3.53V9.07c0,1.21.46,1.75,1.67,1.75s1.64-.5,1.64-1.75V.23h3.51Z"/><path d="M62.71,10.7l-.07,3H54V.23h8.46l.07,3.1h-5V5.42H61.6V8.25H57.46V10.7Z"/><path d="M72,8.21l2.63,5.53H70.56l-1.8-4.83H67.57v4.83H64.06V.23h4.66c3.43,0,5.12,1.3,5.12,4.34C73.84,6.37,73.19,7.71,72,8.21ZM68.8,3.15H67.57V6.27h1.21c1,0,1.39-.26,1.39-1.57S69.82,3.15,68.8,3.15Z"/><path d="M79,14A8.26,8.26,0,0,1,75.11,13l.45-3A7.44,7.44,0,0,0,79,11c1.11,0,1.55-.38,1.55-1.1,0-1.73-5.37-1.19-5.37-5.6C75.13,1.89,76.57,0,79.9,0a9.44,9.44,0,0,1,3.55.65l-.4,2.93a10.39,10.39,0,0,0-2.91-.48c-1.34,0-1.62.39-1.62,1,0,1.74,5.36,1.15,5.36,5.56C83.88,12.32,82.08,14,79,14Z"/><path d="M91.77,11.38H88.09l-.52,2.36H83.84l4-13.51h4.3l4.07,13.51H92.29ZM89.62,4.57l-.86,3.87h2.36l-.87-3.87L90,3.13h0Z"/><path d="M106.78,9.15c0,3.17-1.69,4.82-5.15,4.82s-5.2-1.65-5.2-4.82V.23H100V9.07c0,1.21.46,1.75,1.67,1.75s1.64-.5,1.64-1.75V.23h3.51Z"/><path d="M118,13.25a9.82,9.82,0,0,1-3.85.74c-4.47,0-6.05-2.39-6.05-7s1.85-7,6.21-7a10.59,10.59,0,0,1,3.51.59l-.33,3a9.28,9.28,0,0,0-3-.52c-2.22,0-2.72.83-2.72,3.87,0,3.21.52,3.91,2.26,3.91a4.39,4.39,0,0,0,.82-.07V6.37H118Z"/><path d="M123.5.23l2.38,6.83.45,1.38h0l.45-1.36L129.24.23h3.89V13.74h-3.22V8.08l0-1.45-.05,0L129.44,8l-2,5.73h-2.28l-2-5.71-.45-1.4h0l0,1.46v5.64h-3.08V.23Z"/><path d="M141.93,11.38h-3.67l-.52,2.36H134L138,.23h4.3l4.07,13.51h-3.93Zm-2.14-6.81-.87,3.87h2.36l-.86-3.87-.27-1.44h-.06Z"/><path d="M150.84,14a8.2,8.2,0,0,1-3.92-.93l.45-3a7.36,7.36,0,0,0,3.38.9c1.12,0,1.55-.38,1.55-1.1,0-1.73-5.37-1.19-5.37-5.6,0-2.36,1.44-4.23,4.77-4.23a9.44,9.44,0,0,1,3.55.65l-.39,2.93a10.51,10.51,0,0,0-2.92-.48c-1.33,0-1.62.39-1.62,1,0,1.74,5.36,1.15,5.36,5.56C155.68,12.32,153.88,14,150.84,14Z"/><path d="M165,3.49a7.09,7.09,0,0,0-2.26-.36c-2,0-2.5.85-2.5,3.8,0,3.12.56,4,2.56,4a5.38,5.38,0,0,0,2.23-.45l.32,2.86a7.52,7.52,0,0,1-3.07.65c-3.86,0-5.73-2.19-5.73-7.06,0-4.53,1.82-6.91,5.94-6.91a8.84,8.84,0,0,1,2.85.5Z"/><path d="M173.47,13.74V8.44h-3.28v5.3h-3.51V.23h3.51V5.29h3.28V.23H177V13.74Z"/><path d="M179,.23h3.61V13.74H179Z"/><path d="M192.46,13.74l-4-6.23-.75-1.24h0l0,1.46v6h-3.1V.23h2.95l4.34,7,0,0,0-1.44,0-5.55H195V13.74Z"/><path d="M205.56,10.7l-.07,3h-8.7V.23h8.46l.08,3.1h-5V5.42h4.14V8.25H200.3V10.7Z"/><path d="M214.81,13.74l-4-6.23L210,6.27h0v7.46h-3.09V.23h3l4.34,7,0,0,0-1.44,0-5.55h3.09V13.74Z"/><path d="M4.27,18.23l2.37,6.83.45,1.38h.06l.45-1.36L10,18.23H13.9V31.74H10.68V26.08l0-1.45-.05,0L10.21,26l-2,5.73H5.92L3.94,26l-.45-1.4h0l0,1.46v5.64H.4V18.23Z"/><path d="M15.88,18.23H19.5V31.74H15.88Z"/><path d="M27.36,21.38V31.74H23.78V21.38H20.72l.07-3.15h9.56l.07,3.15Z"/><path d="M42.46,31.74l-2.54-5.49h-.86v5.49H35.55V18.23h3.51v5.23H40l2.5-5.23h3.94L43.2,24.7l3.41,7Z"/><path d="M56.36,28.7l-.07,3h-8.7V18.23h8.46l.08,3.1h-5v2.09h4.14v2.83H51.1V28.7Z"/><path d="M64.5,31.74v-5.3H61.22v5.3H57.71V18.23h3.51v5.06H64.5V18.23H68V31.74Z"/><path d="M77.78,26.21l2.63,5.53H76.34l-1.8-4.83H73.35v4.83H69.84V18.23H74.5c3.42,0,5.12,1.3,5.12,4.34C79.62,24.37,79,25.71,77.78,26.21Zm-3.2-5.06H73.35v3.12h1.21c1,0,1.38-.26,1.38-1.57S75.6,21.15,74.58,21.15Z"/><path d="M84.82,21.38v2.38h4.12l0,3h-4.1v5H81.29V18.23h8.44l.06,3.15Z"/><path d="M101.2,27.15c0,3.17-1.69,4.82-5.15,4.82s-5.21-1.65-5.21-4.82V18.23h3.53v8.84c0,1.21.47,1.75,1.68,1.75s1.64-.5,1.64-1.75V18.23h3.51Z"/><path d="M110.81,31.74l-4-6.23L106,24.27h0l0,1.46v6h-3.09V18.23h3l4.34,7,0,0,0-1.44,0-5.55h3.09V31.74Z"/><path d="M122.06,31.74l-2.54-5.49h-.86v5.49h-3.52V18.23h3.52v5.23h.93l2.5-5.23h4L122.8,24.7l3.4,7Z"/><path d="M133.07,21.38V31.74h-3.58V21.38h-3.06l.07-3.15h9.56l.08,3.15Z"/><path d="M137.36,18.23H141V31.74h-3.62Z"/><path d="M148.25,32c-3.89,0-5.66-2-5.66-7s1.7-7,5.66-7,5.65,2,5.65,7S152.21,32,148.25,32Zm0-10.8c-1.48,0-1.94.61-1.94,3.82s.48,3.87,2,3.87,1.94-.67,1.94-3.87S149.76,21.17,148.23,21.17Z"/><path d="M163.28,31.74l-4-6.23-.76-1.24h0l0,1.46v6h-3.1V18.23h3l4.34,7,0,0,0-1.44V18.23h3.1V31.74Z"/><path d="M169.05,32c-1.26,0-1.81-.48-1.81-1.71s.55-1.73,1.81-1.73,1.81.64,1.81,1.73A1.58,1.58,0,0,1,169.05,32Z"/></g></svg>