<?xml version="1.0" encoding="utf-8"?>
<!-- Generator: Adobe Illustrator 22.1.0, SVG Export Plug-In . SVG Version: 6.00 Build 0)  -->
<svg version="1.1" id="Ebene_1" xmlns="http://www.w3.org/2000/svg" xmlns:xlink="http://www.w3.org/1999/xlink" x="0px" y="0px"
	 viewBox="0 0 381 186.8" style="enable-background:new 0 0 381 186.8;" xml:space="preserve">
<path d="M377.6,114.5h-12.7l-5.6-15h-3.7v15h-11v-42h14.6c10.7,0,16,4,16,13.5c0,5.6-2,9.7-5.7,11.3L377.6,114.5z M359.4,81.6h-3.8
	v9.7h3.8c3.2,0,4.3-0.8,4.3-4.9C363.6,82.6,362.6,81.6,359.4,81.6z M340.4,105.1l-0.2,9.5H313v-42h26.4l0.2,9.6H324v6.5h12.9v8.8
	H324v7.6H340.4z M277.1,93.5c0-14.7,5.8-21.7,19.4-21.7c3.7,0,7.9,0.7,11,1.8l-1,9.4c-2.8-1-6.3-1.6-9.3-1.6c-6.9,0-8.5,2.6-8.5,12
	c0,10,1.6,12.2,7.1,12.2c0.8,0,1.7-0.1,2.5-0.2V91.6h9.8V113c-2.9,1.4-7.7,2.3-12,2.3C282,115.3,277.1,107.9,277.1,93.5z
	 M260.7,72.5H272v42h-11.3V72.5z M260.5,37.9l-0.2,9.5h-27.2v-42h26.4l0.2,9.6H244v6.5H257v8.8H244v7.6H260.5z M244.9,94.3l-0.1-4.5
	l0.1-17.3h9.7v42h-7.8l-12.6-19.4l-2.4-3.9l-0.1,0.1l0.1,4.5v18.7h-9.7v-42h9.2l13.5,21.8L244.9,94.3z M211.7,48.1
	c-10.8,0-16.2-5.2-16.2-15V5.3h11v27.5c0,3.8,1.5,5.4,5.2,5.4c3.8,0,5.1-1.6,5.1-5.4V5.3h11v27.7C227.7,42.9,222.5,48.1,211.7,48.1z
	 M191.6,37.9l-0.2,9.5h-27.2v-42h26.4l0.2,9.6h-15.7v6.5h12.9v8.8h-12.9v7.6H191.6z M161.6,97.3l8.2,17.2h-12.7l-5.6-15h-3.7v15h-11
	v-42h14.6c10.7,0,16,4,16,13.5C167.3,91.6,165.3,95.8,161.6,97.3z M151.6,81.6h-3.8v9.7h3.8c3.2,0,4.3-0.8,4.3-4.9
	C155.9,82.6,154.8,81.6,151.6,81.6z M138.1,28l-2.4-3.9l-0.1,0.1l0.1,4.5v18.7H126v-42h9.2l13.5,21.8l0.1-0.1l-0.1-4.5l0.1-17.3h9.7
	v42h-7.8L138.1,28z M97.9,47.3l-5.6-15h-3.7v15h-11v-42h14.6c10.7,0,16,4,16,13.5c0,5.6-2,9.7-5.7,11.3l8.2,17.2H97.9z M92.4,14.4
	h-3.8v9.7h3.8c3.2,0,4.3-0.8,4.3-4.9C96.7,15.4,95.6,14.4,92.4,14.4z M100.8,82.3H85.3v7.4h12.9L98.1,99H85.3v15.5h-11v-42h26.4
	L100.8,82.3z M73.4,37.9l-0.2,9.5H46v-42h26.4l0.2,9.6H57v6.5h12.9v8.8H57v7.6H73.4z M23.6,47.3H8.4v-42h15c12.8,0,18,5.9,18,20.8
	C41.4,41.5,35.5,47.3,23.6,47.3z M23.5,15h-4.1v22.7h4.1c4.8,0,6.5-1.5,6.5-11.8C29.9,16.7,28.4,15,23.5,15z M8.4,72.5h11.1v32.3
	h14.3l-0.3,9.7H8.4V72.5z M31.3,139.7l12.7,42H31.8l-1.6-7.3H18.7l-1.6,7.3H5.4l12.5-42H31.3z M28.1,165.3l-2.7-12l-0.8-4.5h-0.2
	l-1,4.5l-2.7,12H28.1z M36.6,72.5h11V100c0,3.8,1.5,5.4,5.2,5.4c3.8,0,5.1-1.6,5.1-5.4V72.5h11v27.7c0,9.9-5.3,15-16.1,15
	s-16.2-5.2-16.2-15V72.5z M73.4,149.5H57.9v7.4h12.9l-0.1,9.3H57.9v15.5h-11v-42h26.4L73.4,149.5z M110.7,139.8v34.4h5v7.5h-21v-7.5
	h5v-21.8l-6.4,3.5l-1.1-8.5l12.2-7.7H110.7z M112.7,114.5V82.3h-9.6l0.2-9.8h29.9l0.2,9.8h-9.6v32.2H112.7z M136.5,139.3
	c10.3,0,14.8,5.7,14.8,21.7c0,15-4.7,21.3-14.9,21.3c-10.5,0-14.7-6.3-14.7-21.3C121.7,144.9,126,139.3,136.5,139.3z M136.5,173.3
	c2.9,0,4.2-1.5,4.2-12.4c0-10.9-1.3-12.2-4.2-12.2c-3,0-4.3,1.5-4.3,12.2C132.2,172.1,133.6,173.3,136.5,173.3z M169.6,139.3
	c10.3,0,14.8,5.7,14.8,21.7c0,15-4.7,21.3-14.9,21.3c-10.5,0-14.7-6.3-14.7-21.3C154.8,144.9,159.1,139.3,169.6,139.3z M169.6,173.3
	c2.9,0,4.2-1.5,4.2-12.4c0-10.9-1.3-12.2-4.2-12.2c-3,0-4.3,1.5-4.3,12.2C165.3,172.1,166.7,173.3,169.6,173.3z M193.5,171.7
	c3.9,0,5.6,2,5.6,5.4c0,3.2-1.7,5.3-5.6,5.3s-5.7-1.5-5.7-5.3C187.8,173.7,189.6,171.7,193.5,171.7z M172.5,72.5H199l0.2,9.6h-15.7
	v6.5h12.9v8.8h-12.9v7.6h16.4l-0.2,9.5h-27.2V72.5z M215.9,114.5h-11.3v-42h11.3V114.5z"/>
</svg>
