<?xml version="1.0" encoding="utf-8"?>
<!-- Generator: Adobe Illustrator 22.1.0, SVG Export Plug-In . SVG Version: 6.00 Build 0)  -->
<svg version="1.1" id="Ebene_1" xmlns="http://www.w3.org/2000/svg" xmlns:xlink="http://www.w3.org/1999/xlink" x="0px" y="0px"
	 viewBox="0 0 406.3 194.4" style="enable-background:new 0 0 406.3 194.4;" xml:space="preserve">
<path d="M394.3,58.1l-3.6-0.9l1.3-6.6c-1.6-0.8-3.3-2.7-3.3-5c0-3,1.5-5.4,5.5-5.4c3.8,0,5.6,2.3,5.6,5.8
	C399.8,49.3,397,54.9,394.3,58.1z M385.7,40.6l-0.2,9.5h-27.2v-42h26.4l0.2,9.6h-15.7v6.5h12.9V33h-12.9v7.6H385.7z M342.6,32.5
	l0.1-4.5l-0.2-0.1l-1.4,4.4l-6.2,17.8h-7.1l-6.2-17.8l-1.4-4.4L320,28l0.1,4.5v17.5h-9.6v-42h12.1l7.4,21.2l1.4,4.3h0.2l1.4-4.3
	l7.5-21.3h12.1v42h-10.1V32.5z M293,8.1h11.3v42H293V8.1z M288.3,40.6l-0.2,9.5H261v-42h26.4l0.2,9.6h-15.7v6.5h12.9V33h-12.9v7.6
	H288.3z M244.9,50.1L237,33h-2.7v17.1h-11v-42h11v16.2h2.9l7.8-16.2h12.3l-10.1,20.1l10.6,21.9H244.9z M197.8,50.1h-11.2V17.9H177
	l0.2-9.8h29.8l0.2,9.8h-9.6V50.1z M177.2,50.1h-12.7l-5.6-15h-3.7v15h-11v-42h14.6c10.7,0,16,4,16,13.5c0,5.6-2,9.7-5.7,11.3
	L177.2,50.1z M159,17.1h-3.8v9.7h3.8c3.2,0,4.3-0.8,4.3-4.9C163.3,18.2,162.2,17.1,159,17.1z M140,40.6l-0.2,9.5h-27.2v-42h26.4
	l0.2,9.6h-15.7v6.5h12.9V33h-12.9v7.6H140z M99.7,50.1H88.5V17.9H79l0.2-9.8h29.8l0.2,9.8h-9.6V50.1z M82.3,50.1H57.2v-42h11.1v32.3
	h14.3L82.3,50.1z M39.7,8.1H51v42H39.7V8.1z M20,25.3h12.9l-0.1,9.3H20v15.5H9v-42h26.4l0.2,9.8H20V25.3z M31.9,75.3l12.7,42H32.4
	l-1.6-7.3H19.3l-1.6,7.3H6l12.5-42H31.9z M28.7,100.8l-2.7-12l-0.8-4.5H25l-1,4.5l-2.7,12H28.7z M19.6,170c0,3.8,1.5,5.4,5.2,5.4
	c3.8,0,5.1-1.6,5.1-5.4v-27.5h11v27.7c0,9.9-5.3,15-16.1,15s-16.2-5.2-16.2-15v-27.7h11V170z M47.5,75.3h11.1v32.3h14.3l-0.3,9.7
	H47.5V75.3z M69,164.3l0.1-0.1l-0.1-4.5l0.1-17.3h9.7v42H71l-12.6-19.4l-2.4-3.9l-0.1,0.1l0.1,4.5v18.7h-9.7v-42h9.2L69,164.3z
	 M76.5,75.3h11.1v32.3h14.3l-0.3,9.7H76.5V75.3z M117.5,163.3c0,15.4-6,21.2-17.8,21.2H84.5v-42h15
	C112.3,142.5,117.5,148.4,117.5,163.3z M95.5,174.9h4.1c4.8,0,6.5-1.5,6.5-11.8c0-9.3-1.5-11-6.5-11h-4.1V174.9z M105.5,75.3h26.4
	l0.2,9.6h-15.7v6.5h12.9v8.8h-12.9v7.6h16.4l-0.2,9.5h-27.2V75.3z M153.1,141.7c3.7,0,7.9,0.7,11,1.8l-1,9.4c-2.8-1-6.3-1.6-9.3-1.6
	c-6.9,0-8.5,2.6-8.5,12c0,10,1.6,12.2,7.1,12.2c0.8,0,1.7-0.1,2.5-0.2v-13.7h9.8V183c-2.9,1.4-7.7,2.3-12,2.3
	c-13.9,0-18.9-7.4-18.9-21.8C133.7,148.8,139.5,141.7,153.1,141.7z M157.3,117.3l-5.6-15H148v15h-11v-42h14.6c10.7,0,16,4,16,13.5
	c0,5.6-2,9.7-5.7,11.3l8.2,17.2H157.3z M151.8,84.3H148V94h3.8c3.2,0,4.3-0.8,4.3-4.9C156.1,85.4,155,84.3,151.8,84.3z M196.2,152.1
	h-15.7v6.5h12.9v8.8h-12.9v7.6H197l-0.2,9.5h-27.2v-42H196L196.2,152.1z M201.7,94.4v21.4c-2.9,1.4-7.7,2.3-12,2.3
	c-13.9,0-18.9-7.4-18.9-21.8c0-14.7,5.8-21.7,19.4-21.7c3.7,0,7.9,0.7,11,1.8l-1,9.4c-2.8-1-6.3-1.6-9.3-1.6c-6.9,0-8.5,2.6-8.5,12
	c0,10,1.6,12.2,7.1,12.2c0.8,0,1.7-0.1,2.5-0.2V94.4H201.7z M234.1,107.8l-0.2,9.5h-27.2v-42h26.4l0.2,9.6h-15.7v6.5h12.9v8.8h-12.9
	v7.6H234.1z M231.7,156c0,5.6-2,9.7-5.7,11.3l8.2,17.2h-12.7l-5.6-15h-3.7v15h-11v-42h14.6C226.4,142.5,231.7,146.5,231.7,156z
	 M212.1,161.2h3.8c3.2,0,4.3-0.8,4.3-4.9c0-3.8-1.1-4.8-4.3-4.8h-3.8V161.2z M246.9,170c0,3.8,1.5,5.4,5.2,5.4
	c3.8,0,5.1-1.6,5.1-5.4v-27.5h11v27.7c0,9.9-5.3,15-16.1,15c-10.8,0-16.2-5.2-16.2-15v-27.7h11V170z M261.7,136.7
	c0,2.5-1.3,3.8-4.2,3.8c-2.8,0-4.2-1.1-4.2-3.8c0-2.5,1.4-3.9,4.2-3.9C260.4,132.8,261.7,134.2,261.7,136.7z M251,136.7
	c0,2.5-1.3,3.8-4.2,3.8c-2.8,0-4.2-1.1-4.2-3.8c0-2.5,1.4-3.9,4.2-3.9C249.7,132.8,251,134.2,251,136.7z M261.1,75.3h9.7v42H263
	l-12.6-19.4L248,94l-0.1,0.1l0.1,4.5v18.7h-9.7v-42h9.2l13.5,21.8l0.1-0.1l-0.1-4.5L261.1,75.3z M291,141.7c3,0,6.6,0.7,8.9,1.6
	l-1.1,9.3c-1.9-0.7-4.4-1.1-7-1.1c-6.2,0-7.8,2.6-7.8,11.8c0,9.7,1.7,12.4,8,12.4c2.6,0,5-0.5,7-1.4l1,8.9c-2.5,1.2-6.4,2-9.6,2
	c-12,0-17.9-6.8-17.9-22C272.4,149.1,278.1,141.7,291,141.7z M276.5,75.3h26.4l0.2,9.6h-15.7v6.5h12.9v8.8h-12.9v7.6h16.4l-0.2,9.5
	h-27.2V75.3z M314.9,158.2h10.2v-15.7h11v42h-11V168h-10.2v16.5h-11v-42h11V158.2z M368.5,152.1h-15.7v6.5h12.9v8.8h-12.9v7.6h16.4
	l-0.2,9.5h-27.2v-42h26.4L368.5,152.1z M377.9,174.5c3.9,0,5.6,2,5.6,5.4c0,3.2-1.7,5.3-5.6,5.3c-3.9,0-5.7-1.5-5.7-5.3
	C372.2,176.4,374,174.5,377.9,174.5z"/>
</svg>
