<?xml version="1.0" encoding="utf-8"?>
<!-- Generator: Adobe Illustrator 22.1.0, SVG Export Plug-In . SVG Version: 6.00 Build 0)  -->
<svg version="1.1" id="Ebene_1" xmlns="http://www.w3.org/2000/svg" xmlns:xlink="http://www.w3.org/1999/xlink" x="0px" y="0px"
	 viewBox="0 0 494.4 128.7" style="enable-background:new 0 0 494.4 128.7;" xml:space="preserve">
<path d="M477.9,21.9c-4.2,0-5.1,1.2-5.1,3c0,5.4,16.8,3.6,16.8,17.3c0,8.3-5.6,13.4-15.1,13.4c-4.4,0-8.8-1-12.3-2.9l1.4-9.3
	c3.4,1.7,6.9,2.8,10.6,2.8c3.5,0,4.8-1.2,4.8-3.4c0-5.4-16.8-3.7-16.8-17.4c0-7.3,4.5-13.2,14.9-13.2c3.9,0,8,0.7,11.1,2l-1.2,9.1
	C483.8,22.5,480.6,21.9,477.9,21.9z M459.2,45.5L459,55h-27.2v-42h26.4l0.2,9.6h-15.7v6.5h12.9v8.8h-12.9v7.6H459.2z M409.4,55
	h-15.2v-42h15c12.8,0,18,5.9,18,20.8C427.2,49.1,421.3,55,409.4,55z M409.2,22.6h-4.1v22.7h4.1c4.8,0,6.5-1.5,6.5-11.8
	C415.7,24.3,414.2,22.6,409.2,22.6z M368,35.6l-2.4-3.9l-0.1,0.1l0.1,4.5V55H356v-42h9.2l13.5,21.8l0.1-0.1l-0.1-4.5l0.1-17.3h9.7
	v42h-7.8L368,35.6z M343.2,104.6l0.1-4.5l-0.2-0.1l-1.4,4.4l-6.2,17.8h-7.1l-6.2-17.8l-1.4-4.4l-0.1,0.1l0.1,4.5v17.5h-9.6v-42h12.1
	l7.4,21.2l1.4,4.3h0.2l1.4-4.3l7.5-21.3h12.1v42h-10.1V104.6z M334.5,55.7c-10.8,0-16.2-5.2-16.2-15V12.9h11v27.5
	c0,3.8,1.5,5.4,5.2,5.4c3.8,0,5.1-1.6,5.1-5.4V12.9h11v27.7C350.6,50.5,345.3,55.7,334.5,55.7z M299.6,55.7c-4.4,0-8.8-1-12.3-2.9
	l1.4-9.3c3.4,1.7,6.9,2.8,10.6,2.8c3.5,0,4.8-1.2,4.8-3.4c0-5.4-16.8-3.7-16.8-17.4c0-7.3,4.5-13.2,14.9-13.2c3.9,0,8,0.7,11.1,2
	l-1.2,9.1c-3.2-1-6.4-1.5-9.1-1.5c-4.2,0-5.1,1.2-5.1,3c0,5.4,16.8,3.6,16.8,17.3C314.8,50.5,309.1,55.7,299.6,55.7z M284.4,45.5
	l-0.2,9.5H257v-42h26.4l0.2,9.6H268v6.5h12.9v8.8H268v7.6H284.4z M240,55.7c-13.9,0-18.9-7.5-18.9-21.8c0-14.7,5.8-21.7,19.4-21.7
	c3.7,0,7.9,0.7,11,1.8l-1,9.4c-2.8-1-6.3-1.6-9.3-1.6c-6.9,0-8.5,2.6-8.5,12c0,10,1.6,12.2,7.1,12.2c0.8,0,1.7-0.1,2.5-0.2V32h9.8
	v21.4C249.1,54.8,244.3,55.7,240,55.7z M220.1,90.6c-3.2-1-6.4-1.5-9.1-1.5c-4.2,0-5.1,1.2-5.1,3c0,5.4,16.8,3.6,16.8,17.3
	c0,8.3-5.6,13.4-15.1,13.4c-4.4,0-8.8-1-12.3-2.9l1.4-9.3c3.4,1.7,6.9,2.8,10.6,2.8c3.5,0,4.8-1.2,4.8-3.4c0-5.4-16.8-3.7-16.8-17.4
	c0-7.3,4.5-13.2,14.9-13.2c3.9,0,8,0.7,11.1,2L220.1,90.6z M183.5,35.6l-2.4-3.9l-0.1,0.1l0.1,4.5V55h-9.7v-42h9.2l13.5,21.8
	l0.1-0.1l-0.1-4.5l0.1-17.3h9.7v42h-7.8L183.5,35.6z M153.9,12.9h11.3v42h-11.3V12.9z M149.3,45.5L149,55h-27.2v-42h26.4l0.2,9.6
	h-15.7v6.5h12.9v8.8h-12.9v7.6H149.3z M142.7,89.8H127v6.5h12.9v8.8H127v7.6h16.4l-0.2,9.5H116v-42h26.4L142.7,89.8z M111.7,109.8
	c0,7.6-4.6,12.4-15.1,12.4H80.2v-42h16.5c9.1,0,13.7,4.2,13.7,10.9c0,4.4-2,7.3-5.2,8.8v0.1C109.4,101.3,111.7,104.6,111.7,109.8z
	 M96.3,89.3h-5.5v7.4h5.6c2.5,0,3.4-1,3.4-3.8C99.8,90.2,98.8,89.3,96.3,89.3z M96.5,104.9h-5.7v8.3h6c2.8,0,3.8-0.9,3.8-4.2
	C100.5,106.1,99.6,104.9,96.5,104.9z M93.8,55l-5.6-15h-3.7v15h-11v-42h14.6c10.7,0,16,4,16,13.5c0,5.6-2,9.7-5.7,11.3l8.2,17.2
	H93.8z M88.3,22h-3.8v9.7h3.8c3.2,0,4.3-0.8,4.3-4.9C92.6,23,91.5,22,88.3,22z M52.1,55.7c-10.8,0-16.2-5.2-16.2-15V12.9h11v27.5
	c0,3.8,1.5,5.4,5.2,5.4c3.8,0,5.1-1.6,5.1-5.4V12.9h11v27.7C68.2,50.5,62.9,55.7,52.1,55.7z M57.5,10.9c-2.8,0-4.2-1.1-4.2-3.8
	c0-2.5,1.4-3.9,4.2-3.9c2.9,0,4.2,1.3,4.2,3.9C61.6,9.6,60.4,10.9,57.5,10.9z M46.7,10.9c-2.8,0-4.2-1.1-4.2-3.8
	c0-2.5,1.4-3.9,4.2-3.9c2.9,0,4.2,1.3,4.2,3.9C50.9,9.6,49.6,10.9,46.7,10.9z M17,30.1h12.9l-0.1,9.3H17V55H6v-42h26.4l0.2,9.8H17
	V30.1z M28.9,80.1l12.7,42H29.4l-1.6-7.3H16.3l-1.6,7.3H3l12.5-42H28.9z M25.7,105.7l-2.7-12l-0.8-4.5H22l-1,4.5l-2.7,12H25.7z
	 M75,93.6c0,5.6-2,9.7-5.7,11.3l8.2,17.2H64.7l-5.6-15h-3.7v15h-11v-42H59C69.7,80.1,75,84.2,75,93.6z M55.4,98.9h3.8
	c3.2,0,4.3-0.8,4.3-4.9c0-3.8-1.1-4.8-4.3-4.8h-3.8V98.9z M159.4,122.2h-11.3v-42h11.3V122.2z M193.3,80.1l0.2,9.8h-9.6v32.2h-11.2
	V90h-9.6l0.2-9.8H193.3z M237.5,96.4h2.9l7.8-16.2h12.3l-10.1,20.1l10.6,21.9h-12.9l-7.9-17.1h-2.7v17.1h-11v-42h11V96.4z
	 M275.3,112.4h14.3l-0.3,9.7h-25.1v-42h11.1V112.4z M304.9,122.2h-11.3v-42h11.3V122.2z M381.9,80.1l12.7,42h-12.3l-1.6-7.3h-11.5
	l-1.6,7.3H356l12.5-42H381.9z M378.7,105.7l-2.7-12l-0.8-4.5H375l-1,4.5l-2.7,12H378.7z M401.9,112.1c3.9,0,5.6,2,5.6,5.4
	c0,3.2-1.7,5.3-5.6,5.3s-5.7-1.5-5.7-5.3C396.2,114.1,398,112.1,401.9,112.1z"/>
</svg>
