<?xml version="1.0" encoding="utf-8"?>
<!-- Generator: Adobe Illustrator 22.1.0, SVG Export Plug-In . SVG Version: 6.00 Build 0)  -->
<svg version="1.1" id="Ebene_1" xmlns="http://www.w3.org/2000/svg" xmlns:xlink="http://www.w3.org/1999/xlink" x="0px" y="0px"
	 viewBox="0 0 518.7 203" style="enable-background:new 0 0 518.7 203;" xml:space="preserve">
<path d="M497.4,24v55.3h-19.2V24h-16.4l0.4-16.8h51.3l0.4,16.8H497.4z M431.1,36.7h22.1l-0.1,16h-22v26.6h-18.9V7.2h45.3l0.3,16.8
	h-26.6V36.7z M432.6,140.1c0,10.3-5.8,17.5-14.7,22.8l-0.6,10.3H404l-1-16.4c6.9-4,11.7-8,11.7-13.7c0-3.3-2.3-5.4-6.8-5.4
	c-4.5,0-8.5,1.6-11.5,4.3l-6-13.8c4.4-3.8,12.2-6.3,20.3-6.3C425.3,121.8,432.6,129,432.6,140.1z M375.4,80.6
	c-18.5,0-27.9-8.8-27.9-25.8V7.2h18.9v47.2c0,6.4,2.5,9.3,9,9.3c6.6,0,8.8-2.7,8.8-9.3V7.2H403v47.6C403,71.7,393.9,80.6,375.4,80.6
	z M389.2,158.6c0,27.1-9.1,37.3-30.3,37.3c-20.9,0-30.3-11-30.3-37.3c0-26.4,9.1-37.2,30.3-37.2S389.2,132.2,389.2,158.6z
	 M348.3,158.6c0,17.2,2.6,20.7,10.6,20.7s10.4-3.6,10.4-20.7c0-17.2-2.4-20.4-10.6-20.4C350.9,138.3,348.3,141.5,348.3,158.6z
	 M299,79.3V7.2h19v55.4h24.6l-0.5,16.7H299z M322.9,145.8c0,9.6-3.5,16.7-9.8,19.4l14.1,29.5h-21.8l-9.7-25.8h-6.4v25.8h-18.8v-72.1
	h25C313.9,122.6,322.9,129.5,322.9,145.8z M295.9,138.2h-6.6v16.6h6.5c5.5,0,7.4-1.3,7.4-8.4C303.2,139.9,301.4,138.2,295.9,138.2z
	 M270,63.1l-0.4,16.2H223V7.2h45.4l0.4,16.5h-26.9v11.2H264V50h-22.2v13.1H270z M231.7,112.7c0,4.2-2.2,6.4-7.1,6.4
	c-4.7,0-7.1-1.8-7.1-6.4c0-4.3,2.4-6.6,7.1-6.6C229.5,106.1,231.7,108.4,231.7,112.7z M195.5,79.3L181.9,50h-4.6v29.3h-18.8V7.2
	h18.8v27.9h5l13.4-27.9h21.1l-17.4,34.5l18.2,37.6H195.5z M137.7,64.2c4.4,0,8.6-0.9,12-2.4l1.7,15.3c-4.3,2.1-10.9,3.5-16.5,3.5
	c-20.7,0-30.7-11.7-30.7-37.7c0-24.2,9.8-36.9,31.9-36.9c5.1,0,11.4,1.2,15.3,2.7l-1.8,16c-3.2-1.2-7.5-1.9-12.1-1.9
	c-10.7,0-13.4,4.5-13.4,20.3C124,59.6,127,64.2,137.7,64.2z M76.1,7.2h19.4v72.1H76.1V7.2z M77.7,166.4l2.4-7.3L93,122.6h20.9v72.1
	H96.6v-30.2l0.2-7.8l-0.3-0.1l-2.4,7.5l-10.7,30.6H71.1l-10.6-30.5l-2.4-7.5l-0.2,0.1l0.1,7.8v30.1H41.5v-72.1h20.8L75,159l2.4,7.4
	H77.7z M36.8,79.3H10.7V7.2h25.8c22,0,31,10.2,31,35.7C67.4,69.3,57.2,79.3,36.8,79.3z M36.6,23.8h-7v39h7c8.3,0,11.1-2.5,11.1-20.2
	C47.7,26.7,45,23.8,36.6,23.8z M30.9,194.7H11.4v-72.1h19.4V194.7z M197.3,141.2c0,7.6-3.5,12.5-8.9,15.1v0.2
	c7.2,2.4,11.1,8,11.1,16.9c0,13-7.8,21.2-25.9,21.2h-28.2v-72.1h28.4C189.4,122.6,197.3,129.8,197.3,141.2z M163.7,179.3H174
	c4.7,0,6.5-1.5,6.5-7.2c0-5-1.5-7-6.9-7h-9.8V179.3z M163.7,138.4v12.7h9.6c4.3,0,5.9-1.6,5.9-6.5c0-4.7-1.6-6.2-6.1-6.2H163.7z
	 M235.9,112.7c0-4.3,2.4-6.6,7.1-6.6c4.9,0,7.1,2.3,7.1,6.6c0,4.2-2.2,6.4-7.1,6.4C238.3,119.1,235.9,117.3,235.9,112.7z
	 M224.7,169.8c0,6.4,2.5,9.3,9,9.3c6.6,0,8.8-2.7,8.8-9.3v-47.2h18.8v47.6c0,16.9-9.1,25.8-27.6,25.8s-27.9-8.8-27.9-25.8v-47.6
	h18.9V169.8z M410.5,179.1c6.6,0,9.5,3.2,9.5,8.5c0,4.9-2.9,8.3-9.5,8.3c-6.5,0-9.5-2.4-9.5-8.3
	C401.1,182.3,404.1,179.1,410.5,179.1z"/>
</svg>
