<?xml version="1.0" encoding="utf-8"?>
<!-- Generator: Adobe Illustrator 22.1.0, SVG Export Plug-In . SVG Version: 6.00 Build 0)  -->
<svg version="1.1" xmlns="http://www.w3.org/2000/svg" xmlns:xlink="http://www.w3.org/1999/xlink" x="0px" y="0px"
	 viewBox="0 0 128 69" style="enable-background:new 0 0 128 69;" xml:space="preserve">
<style type="text/css">
	.st0{fill:none;}
	.st1{fill:#FFF000;}
</style>
<g id="Boundingbox">
	<rect x="0" y="0" class="st0" width="128" height="69"/>
</g>
<g id="Logo">
	<g>
		<path d="M100.8,55.1c-1.6,0-2.4-0.9-2.4-2.8c0-1.6,0.7-2.4,2.1-2.4c1.3,0,2,0.8,2,2.3c0,0.1,0,0.3,0,0.4l0,0h-3.2
			c0,1.2,0.5,1.7,1.6,1.7c0.5,0,0.9-0.1,1.4-0.3l0,0l0.1,0.7l0,0C101.9,55,101.3,55.1,100.8,55.1z M99.2,52h2.5
			c0-0.9-0.4-1.3-1.2-1.3C99.7,50.7,99.3,51.1,99.2,52z"/>
		<path d="M96.5,55.1c-1.5,0-2.2-0.9-2.2-2.6c0-1.7,0.7-2.5,2.2-2.5c0.4,0,0.9,0.1,1.2,0.2l0,0v0l-0.1,0.7l0,0
			c-0.3-0.1-0.7-0.2-1-0.2c-1.1,0-1.5,0.5-1.5,1.8c0,1.3,0.4,1.9,1.4,1.9c0.4,0,0.8-0.1,1.1-0.3l0,0l0,0l0.1,0.7l0,0
			C97.4,55,97,55.1,96.5,55.1z"/>
		<path d="M93.3,55h-0.8v-3.3c0-0.7-0.4-1-1.1-1c-0.4,0-0.9,0.2-1.1,0.5V55h-0.9v-5.1l0,0l0.6,0l0,0l0.1,0.5
			c0.3-0.4,0.9-0.6,1.5-0.6c1.1,0,1.7,0.6,1.7,1.8V55z"/>
		<path d="M86.5,55.1c-1.6,0-2.4-0.9-2.4-2.8c0-1.6,0.7-2.4,2.1-2.4c1.3,0,2,0.8,2,2.3c0,0.1,0,0.3,0,0.4l0,0H85
			c0,1.2,0.5,1.7,1.6,1.7c0.5,0,0.9-0.1,1.4-0.3l0,0l0,0l0.1,0.7l0,0C87.6,55,87.1,55.1,86.5,55.1z M85,52h2.5
			c0-0.9-0.4-1.3-1.2-1.3C85.4,50.7,85,51.1,85,52z"/>
		<path d="M81.7,55h-0.9v-5l0.7,0l0.1,1c0.3-0.7,0.9-1.1,1.5-1.1c0.2,0,0.4,0,0.5,0.1l0,0v0l-0.1,0.8l0,0c-0.1,0-0.3-0.1-0.5-0.1
			c-0.8,0-1.4,0.7-1.4,1.7V55z"/>
		<path d="M78,55.1c-1.6,0-2.4-0.9-2.4-2.8c0-1.6,0.7-2.4,2.1-2.4c1.3,0,2,0.8,2,2.3c0,0.1,0,0.2,0,0.4l0,0h-3.2
			c0,1.2,0.5,1.7,1.6,1.7c0.5,0,0.9-0.1,1.4-0.3l0,0l0,0l0.1,0.7l0,0C79.1,55,78.5,55.1,78,55.1z M76.4,52h2.5
			c0-0.9-0.4-1.3-1.2-1.3C76.9,50.7,76.5,51.1,76.4,52z"/>
		<path d="M70.5,55h-0.9v-4.4h-0.7v-0.7h0.7v-0.2c0-0.6,0.2-1.5,1.7-1.5c0.3,0,0.6,0,0.8,0.1l0,0L72,48.9l0,0
			c-0.2,0-0.4-0.1-0.5-0.1c-0.6,0-1,0.3-1,0.9v0.2h1.3v0.7h-1.3V55z"/>
		<path d="M73.8,55h-0.9v-4.4h-0.7v-0.7h0.7v-0.2c0-0.6,0.2-1.5,1.7-1.5c0.3,0,0.6,0,0.8,0.1l0,0l-0.1,0.6l0,0
			c-0.2,0-0.4-0.1-0.5-0.1c-0.6,0-1,0.3-1,0.9v0.2h1.3v0.7h-1.3V55z"/>
		<path d="M67.7,55h-0.9v-5l0.9,0V55z M67.3,49.1c-0.4,0-0.5-0.1-0.5-0.5c0-0.2,0.1-0.5,0.5-0.5c0.4,0,0.5,0.2,0.5,0.5
			C67.8,49,67.6,49.1,67.3,49.1z"/>
		<path d="M63,55.1c-1.4,0-2-0.8-2-2.6c0-1.8,0.6-2.6,2-2.6c0.6,0,1.1,0.2,1.4,0.5l0-0.6v-1.4l0,0l0.8-0.1V55h-0.7l-0.1-0.5
			C64.2,54.9,63.7,55.1,63,55.1z M63.2,50.6c-1,0-1.3,0.5-1.3,1.9c0,1.4,0.3,1.9,1.3,1.9c0.8,0,1.1-0.4,1.2-0.6v-2.6
			C64.2,50.8,63.7,50.6,63.2,50.6z"/>
		<path d="M57.9,55h-0.7l-0.1-0.7c-0.3,0.4-0.9,0.7-1.5,0.7c-1,0-1.6-0.6-1.6-1.6c0-1,0.7-1.6,1.8-1.6c0.5,0,0.9,0.1,1.1,0.2v-0.5
			c0-0.8-0.3-1-1.1-1c-0.5,0-1,0.1-1.4,0.3l0,0l-0.1-0.7l0,0c0.5-0.2,1-0.3,1.6-0.3c1.3,0,1.8,0.6,1.8,1.9V55z M56.1,52.5
			c-0.8,0-1.2,0.3-1.2,0.9c0,0.6,0.3,0.9,1,0.9c0.6,0,1.2-0.4,1.2-0.7v-0.9C57,52.6,56.6,52.5,56.1,52.5z"/>
		<path d="M49.3,55.1c-0.6,0-1.2-0.2-1.6-0.4l0,0l0.1-0.7l0,0c0.3,0.3,0.9,0.4,1.4,0.4c0.7,0,1-0.3,1-0.8c0-0.5-0.5-0.6-1.1-0.8
			c-0.7-0.2-1.5-0.5-1.5-1.4c0-0.9,0.7-1.4,1.8-1.4c0.5,0,1,0.1,1.4,0.3l0,0l-0.1,0.7l0,0c-0.4-0.2-0.9-0.3-1.3-0.3
			c-0.6,0-1,0.2-1,0.6c0,0.4,0.5,0.6,1,0.8c0.7,0.2,1.5,0.5,1.5,1.5C51.1,54.5,50.5,55.1,49.3,55.1z"/>
		<path d="M45.1,55.1c-1.6,0-2.4-0.9-2.4-2.8c0-1.6,0.7-2.4,2.1-2.4c1.3,0,2,0.8,2,2.3c0,0.1,0,0.3,0,0.4l0,0h-3.2
			c0,1.2,0.5,1.7,1.6,1.7c0.5,0,0.9-0.1,1.4-0.3l0,0l0.1,0.7l0,0C46.2,55,45.7,55.1,45.1,55.1z M43.6,52h2.5c0-0.9-0.4-1.3-1.2-1.3
			C44,50.7,43.7,51.1,43.6,52z"/>
		<path d="M42.4,55h-1l0,0l-1.5-2.4h-0.7V55h-0.8v-6.7l0,0l0.8-0.1v3.7h0.7l1.5-2h1l0,0l-1.7,2.3L42.4,55z"/>
		<path d="M36.9,55h-0.7l-0.1-0.7c-0.3,0.4-0.9,0.7-1.5,0.7c-1,0-1.6-0.6-1.6-1.6c0-1,0.6-1.6,1.8-1.6c0.5,0,0.9,0.1,1.1,0.2v-0.5
			c0-0.8-0.3-1-1.1-1c-0.5,0-1,0.1-1.4,0.3l0,0l-0.1-0.7l0,0c0.5-0.2,1-0.3,1.6-0.3c1.3,0,1.8,0.6,1.8,1.9V55z M35.1,52.5
			c-0.8,0-1.2,0.3-1.2,0.9c0,0.6,0.3,0.9,1,0.9c0.6,0,1.2-0.4,1.2-0.7v-0.9C35.9,52.6,35.5,52.5,35.1,52.5z"/>
		<path d="M32,55h-0.8v-3.3c0-0.6-0.4-1-1-1c-0.4,0-1,0.2-1,0.9V55h-0.8v-3.4c0-0.8-0.6-0.9-1-0.9c-0.4,0-0.8,0.2-1,0.5V55h-0.9v-5
			l0,0l0.6,0l0.1,0.5c0.3-0.4,0.8-0.6,1.3-0.6c0.7,0,1.1,0.2,1.4,0.8c0.3-0.5,0.8-0.8,1.4-0.8c1.1,0,1.7,0.6,1.7,1.8V55z"/>
	</g>
	<rect id="_x3C_Pfad_x3E_" x="14" y="32" class="st1" width="100" height="8"/>
	<g id="_x3C_Gruppe_x3E_">
		<path d="M53,19c0,1.3-0.5,1.6-1.8,1.6h-1.8v-3.1h1.8C52.6,17.6,53,17.9,53,19L53,19z M57.5,18.9c0-3-2.1-4.5-6.1-4.5h-6.1V28h4.3
			v-4.5h1.8l2.3,4.5h5l-3.5-5.3C56.6,22.2,57.5,20.6,57.5,18.9L57.5,18.9z"/>
		<polygon points="91.7,24.6 91.7,22.6 97.3,22.6 97.3,19.6 91.7,19.6 91.7,17.8 98.4,17.8 98.4,14.4 87.5,14.4 87.5,28 98.6,28 
			98.7,24.6 		"/>
		<polygon points="84.9,28 84.9,14.4 80.7,14.4 80.7,19.4 76.2,19.4 76.2,14.4 71.9,14.4 71.9,28 76.2,28 76.2,22.9 80.7,22.9 
			80.7,28 		"/>
		<path d="M69.9,14.7c-1-0.3-2.4-0.6-3.7-0.6c-5.2,0-7.6,2.7-7.6,7c0,4.7,2.5,7.1,7.2,7.1c1.4,0,2.9-0.3,4.1-0.8l-0.5-3.1
			c-0.9,0.3-1.9,0.6-3.1,0.6c-2.6,0-3.3-0.9-3.3-3.7c0-2.7,0.6-3.6,3.2-3.6c1.2,0,2.2,0.2,3.1,0.4L69.9,14.7z"/>
		<path d="M108.5,19c0,1.3-0.5,1.6-1.8,1.6h-1.8v-3.1h1.8C108,17.6,108.5,17.9,108.5,19L108.5,19z M112.9,18.9c0-3-2.1-4.5-6.1-4.5
			h-6.1V28h4.3v-4.5h1.8L109,28h5l-3.5-5.3C112,22.2,112.9,20.6,112.9,18.9L112.9,18.9z"/>
		<path d="M37.4,22.6h-3.1l1.1-3.6l0.4-1.4h0.1l0.4,1.4L37.4,22.6z M43.9,28l-5.5-13.6h-4.9L28,28h4.5l0.7-2.3h5.1l0.7,2.3H43.9z"/>
		<rect x="28.4" y="14.4" width="3.2" height="2.9"/>
		<rect x="40.3" y="14.4" width="3.2" height="2.9"/>
		<polygon points="22.9,14.4 19.6,19.5 18.3,19.5 18.3,14.4 14,14.4 14,28 18.3,28 18.3,22.7 19.6,22.7 22.9,28 28,28 23.3,20.8 
			27.8,14.4 		"/>
	</g>
</g>
</svg>
