<svg enable-background="new 0 0 643.8 600" viewBox="0 0 643.8 600" xmlns="http://www.w3.org/2000/svg"><text fill="#fff" font-family="ClanPro-NarrBlack" font-size="12.2353" transform="matrix(.9919 0 0 1 -430.8037 362.9277)">Mehr infos</text><path clip-rule="evenodd" d="m510.7 473.9h-17.2l-10.5-22.8h-3.6v22.8h-14.6v-56h14.6v21.7h3.9l10.4-21.7h16.3l-13.4 26.8zm-35.7-118.5c-6.1 0-9.4 2.2-11 7.5h15.3l-1.6 7.4h-14.7v2.7h13.9l-1.5 7.2h-11.6c1.6 6.3 5.5 8.3 11 8.3 2.6 0 5.2-.7 7.6-1.6l1 10.5c-3.2 1.6-7.2 2.5-12.4 2.5-12.4 0-19.9-6.3-22.1-19.7h-5.5l.1-7.2h4.8v-2.7h-4.8l-.1-7.4h5.5c2.4-12.3 10.5-19.9 22.8-19.9 4.9 0 8.7.7 11.8 1.9l-2.6 11.5c-1.8-.6-3.7-1-5.9-1zm-21.2-213.1h20.8v9.7h-20.8zm-4.2 15.9c0 11.1-7.5 17.9-20.1 17.9-5.9 0-11.7-1.3-16.3-3.9l1.9-12.4c4.6 2.3 9.2 3.7 14 3.7 4.6 0 6.4-1.6 6.4-4.6 0-7.2-22.3-4.9-22.3-23.2 0-9.8 6-17.5 19.8-17.5 5.2 0 10.7 1 14.7 2.7l-1.6 12.2c-4.3-1.3-8.5-2-12.1-2-5.5 0-6.7 1.6-6.7 4 .1 7.3 22.3 4.8 22.3 23.1zm-69.4-8.8-3.1-5.2-.1.1.1 6v24.9h-12.8v-56h12.2l18 29.1.1-.1-.1-6 .1-23h12.8v56h-10.4zm-45.6 26.8c-16.1 0-23.5-8.5-23.5-29s7-28.9 23.5-28.9c16.4 0 23.5 8.4 23.5 28.9-.1 21.1-7.1 29-23.5 29zm-.1-44.8c-6.1 0-8.1 2.5-8.1 15.8 0 13.4 2 16.1 8.2 16.1s8.1-2.8 8.1-16.1c0-13.4-1.9-15.8-8.2-15.8zm-.6-30.9h-14.9v-42.9h-12.7l.3-13.1h39.7l.3 13.1h-12.7zm-17.9 85.7c0 3.3-1.7 5-5.5 5-3.7 0-5.5-1.4-5.5-5 0-3.4 1.9-5.2 5.5-5.2 3.8 0 5.5 1.8 5.5 5.2zm-26.6-67h15v56h-15zm14.1-31.7-.2 13h-38.2v-9.5l17.9-28.3 3.3-4.9-.1-.1h-20.6l.4-13.1h37.4v10.4l-17.3 27.5-3.3 4.9.1.2h20.6zm-53.5 13h-14.9v-42.9h-12.7l.3-13.1h39.7l.3 13.1h-12.7zm-30-12.6-.3 12.6h-36.1v-56h35.1l.3 12.8h-20.8v8.7h17.2v11.7h-17.2v10.2zm-42.8 87.3-2.2-9.8h-15.2l-2.2 9.8h-15.5l16.6-56h17.8l16.9 56zm-8.4-38-1.1-6h-.2l-1.3 6-3.6 16.1h9.8zm-14.3-35.6c-4.2 0-7.5-.7-10.2-1.9l.7-12.2c1.6.8 4 1.3 6.9 1.3 6.1 0 9.1-2.4 9.1-9.1v-35.2h15v35.5c0 16.4-8.4 21.6-21.5 21.6zm5.9 435.4c4.6 0 6.4-1.6 6.4-4.6 0-7.2-22.3-4.9-22.3-23.2 0-9.8 6-17.5 19.8-17.5 5.2 0 10.7 1 14.7 2.7l-1.6 12.2c-4.3-1.3-8.5-2-12.1-2-5.5 0-6.7 1.6-6.7 4 0 7.2 22.3 4.8 22.3 23.1 0 11.1-7.5 17.9-20.1 17.9-5.9 0-11.7-1.3-16.3-3.9l1.9-12.4c4.6 2.3 9.2 3.7 14 3.7zm10.2-74.8c3.4 0 6.6-.7 9.3-1.9l1.3 11.9c-3.4 1.6-8.4 2.7-12.8 2.7-16 0-23.7-9.1-23.7-29.3 0-18.8 7.5-28.7 24.6-28.7 4 0 8.8.9 11.8 2.1l-1.4 12.4c-2.5-.9-5.8-1.5-9.3-1.5-8.3 0-10.4 3.5-10.4 15.8 0 12.9 2.3 16.5 10.6 16.5zm18-119v37c0 13.1-7 20-21.4 20-14.3 0-21.6-6.9-21.6-20v-37h14.6v36.7c0 5 1.9 7.2 6.9 7.2 5.1 0 6.8-2.1 6.8-7.2v-36.7zm-2.8-123.9v28.5c-3.9 1.9-10.2 3.1-16 3.1-18.5 0-25.1-9.9-25.1-29.1 0-19.6 7.7-29 25.8-29 4.9 0 10.5.9 14.6 2.5l-1.3 12.5c-3.7-1.3-8.4-2.2-12.4-2.2-9.2 0-11.3 3.4-11.3 16.1 0 13.3 2.2 16.2 9.4 16.2 1.1 0 2.3-.1 3.4-.3v-18.3zm-10.9 105.2-10.5-22.8h-3.6v22.8h-14.6v-56h14.6v21.7h3.9l10.4-21.7h16.4l-13.4 26.8 14.1 29.2zm43 93.4 16.9 56h-16.3l-2.2-9.8h-15.2l-2.2 9.8h-15.5l16.6-56zm-4.3 34-3.6-16.1-1.1-6h-.2l-1.3 6-3.6 16.1zm-11.9 96.6h-15v-56h15zm31.4-56.9c4 0 8.8.9 11.8 2.1l-1.4 12.4c-2.5-.9-5.8-1.5-9.3-1.5-8.3 0-10.4 3.5-10.4 15.8 0 12.9 2.3 16.5 10.6 16.5 3.4 0 6.6-.7 9.3-1.9l1.3 11.9c-3.4 1.6-8.4 2.7-12.8 2.7-16 0-23.7-9.1-23.7-29.3 0-18.9 7.5-28.7 24.6-28.7zm31.8 21.9h13.6v-21h14.6v56h-14.6v-22h-13.6v22h-14.6v-56h14.6zm71.2-8.1h-20.8v8.7h17.2v11.7h-17.2v10.2h21.7l-.3 12.6h-36.1v-56h35.1zm47.1 5.1c0 7.5-2.7 13-7.6 15.1l10.9 22.9h-16.9l-7.5-20h-4.9v20h-14.6v-56h19.4c14.2 0 21.2 5.4 21.2 18zm-26 7.1h5c4.3 0 5.8-1 5.8-6.5 0-5.1-1.4-6.4-5.7-6.4h-5.1zm30.9-99.7h17.9l16.9 56h-16.3l-2.2-9.8h-15.2l-2.2 9.8h-15.5zm13.6 34-3.6-16.1-1.1-6h-.2l-1.3 6-3.6 16.1zm18.7 69.7.1-.1-.1-6 .1-23h12.8v56h-10.4l-16.7-25.8-3.1-5.2-.1.1.1 6v24.9h-12.8v-56h12.2zm26.5 13.6c5.2 0 7.5 2.6 7.5 7.2 0 4.3-2.2 7.1-7.5 7.1-5.2 0-7.5-2-7.5-7.1-.1-4.6 2.2-7.2 7.5-7.2zm-7.8-163.7c0 20-6.2 28.5-19.8 28.5-13.9 0-19.5-8.4-19.5-28.5 0-21.4 5.7-28.9 19.6-28.9 13.7 0 19.7 7.5 19.7 28.9zm-19.6-16.4c-4 0-5.7 2-5.7 16.3 0 15 1.8 16.6 5.7 16.6s5.6-1.9 5.6-16.6c0-14.6-1.7-16.3-5.6-16.3zm-24.4 16.4c0 20-6.2 28.5-19.8 28.5-13.9 0-19.5-8.4-19.5-28.5 0-21.4 5.7-28.9 19.6-28.9 13.8 0 19.7 7.5 19.7 28.9zm-25.4-.2c0 15 1.8 16.6 5.8 16.6 3.9 0 5.6-1.9 5.6-16.6 0-14.6-1.7-16.3-5.6-16.3-4 .1-5.8 2.1-5.8 16.3zm-5-177.4.3 13.1h-12.7v42.9h-14.9v-42.9h-12.7l.3-13.1zm-136.9 12.8h-20.8v8.7h17.2v11.7h-17.2v10.2h21.8l-.3 12.6h-36.1v-56h35.1zm-19 61.8h17.8l16.9 56h-16.3l-2.2-9.8h-15.2l-2.2 9.8h-15.5zm13.5 34.1-3.6-16.1-1.1-6h-.2l-1.3 6-3.6 16.1zm51 154.3c0 11.1-7.5 17.9-20.1 17.9-5.9 0-11.7-1.3-16.3-3.9l1.9-12.4c4.6 2.3 9.2 3.7 14 3.7 4.6 0 6.4-1.6 6.4-4.6 0-7.2-22.3-4.9-22.3-23.2 0-9.8 6-17.5 19.8-17.5 5.2 0 10.7 1 14.7 2.7l-1.6 12.2c-4.3-1.3-8.5-2-12.1-2-5.5 0-6.7 1.6-6.7 4 .1 7.3 22.3 4.8 22.3 23.1zm14-188.4v37c0 13.1-7 20-21.4 20-14.3 0-21.6-6.9-21.6-20v-37h14.7v36.7c0 5 1.9 7.2 6.9 7.2 5.1 0 6.8-2.1 6.8-7.2v-36.7zm-40.8 130.7v-56h19.9c17 0 24 7.9 24 27.7 0 20.5-7.9 28.3-23.7 28.3zm28.6-28.4c0-12.4-2-14.6-8.6-14.6h-5.5v30.3h5.5c6.4-.1 8.6-2 8.6-15.7zm19.3-46.3v-56h35l.2 13.1h-20.6v9.9h17.1l-.1 12.4h-17v20.7h-14.6zm16.7 55.6 19.4-36.9h17.1v34.2h4.6l-.3 11.8h-4.3v10h-13.2v-10h-22.1zm23.7-2.7.5-14 .4-6.1-.1-.1-10 20.2zm35.9 80c0 10.1-6 16.5-20 16.5h-21.8v-56h22c12 0 18.1 5.6 18.1 14.5 0 5.9-2.7 9.7-6.9 11.7v.1c5.6 1.9 8.6 6.2 8.6 13.2zm-20.4-27.3h-7.3v9.9h7.4c3.4 0 4.6-1.3 4.6-5.1 0-3.7-1.3-4.8-4.7-4.8zm.3 20.8h-7.6v11.1h7.9c3.7 0 5-1.2 5-5.6 0-4-1.2-5.5-5.3-5.5zm-72 23v-56h14.6v21h13.6v-21h14.6v56h-14.6v-22h-13.6v22zm-70.1-74.7h-12.8v-56h12.2l18 29.1.1-.1-.1-6 .1-23h12.8v56h-10.4l-16.7-25.8-3.1-5.2-.1.1.1 6v24.9zm17.4-224-10.5-22.8h-3.6v22.8h-14.6v-56h14.6v21.7h3.9l10.4-21.7h16.4l-13.5 26.8 14.1 29.2zm30.9 0v-42.9h-12.7l.3-13.1h39.6l.3 13.1h-12.7v42.9zm33.9 11c0-3.4 1.9-5.2 5.5-5.2 3.8 0 5.5 1.8 5.5 5.2 0 3.3-1.7 5-5.5 5-3.7 0-5.5-1.5-5.5-5zm38.5 63.7h-16.3l-2.2-9.8h-15.2l-2.2 9.8h-15.2-.3-16.6l-7.5-20h-4.9v20h-14.6v-56h19.3c14.2 0 21.2 5.4 21.2 18 0 7.5-2.7 13-7.6 15.1l10.7 22.5 16.5-55.6h17.8zm-75.2-43.9h-5.1v12.9h5c4.3 0 5.7-1 5.7-6.5.1-5.1-1.3-6.4-5.6-6.4zm50.5 5.9-1.1-6h-.2l-1.3 6-3.6 16.1h9.8zm66.4 100-.3 12.6h-36.1v-56h35.1l.3 12.8h-20.8v8.7h17.2v11.7h-17.2v10.2zm36-43.4h12.8v56h-10.4l-16.7-25.8-3.1-5.2-.2.1.1 6v24.9h-12.8v-56h12.2l18 29.1.1-.1-.1-6zm42 193.7c3.4 0 6.6-.7 9.3-1.9l1.3 11.9c-3.4 1.6-8.4 2.7-12.8 2.7-16 0-23.7-9.1-23.7-29.3 0-18.8 7.5-28.7 24.6-28.7 4 0 8.8.9 11.8 2.1l-1.4 12.4c-2.5-.9-5.8-1.5-9.3-1.5-8.3 0-10.4 3.5-10.4 15.8 0 12.9 2.3 16.5 10.6 16.5zm10.8 33.8 6.9 1.6 1-7.2h6.3l1 7.2 6.9-1.6 2.2 6.1-6.6 3.2 3.8 6.4-4.7 3.6-5.5-5.4-5.7 5.5-4.9-3.4 3.7-6.6-6.6-3.1z" fill-rule="evenodd"/></svg>