<?xml version="1.0" encoding="utf-8"?>
<!-- Generator: Adobe Illustrator 16.0.0, SVG Export Plug-In . SVG Version: 6.00 Build 0)  -->
<!DOCTYPE svg PUBLIC "-//W3C//DTD SVG 1.1//EN" "http://www.w3.org/Graphics/SVG/1.1/DTD/svg11.dtd">
<svg version="1.1" id="Ebene_1" xmlns="http://www.w3.org/2000/svg" xmlns:xlink="http://www.w3.org/1999/xlink" x="0px" y="0px"
	 width="599.642px" height="32.994px" viewBox="1.344 -12.39 599.642 32.994" enable-background="new 1.344 -12.39 599.642 32.994"
	 xml:space="preserve">
<g>
	<path d="M9.978,20.604c-3.485,0-6.324-0.933-8.634-2.352l0.485-2.512c2.352,1.54,4.946,2.352,8.148,2.352
		c4.824,0,7.295-2.352,7.295-6.283c0-8.147-15.604-4.58-15.604-14.593c0-4.58,2.917-8.064,9.444-8.064
		c2.956,0,5.632,0.608,7.778,1.621l-0.483,2.391c-2.309-0.974-4.538-1.539-7.173-1.539c-5.026,0-7.014,2.553-7.014,5.431
		c0,7.741,15.646,4.093,15.646,14.591C19.869,17.2,16.462,20.604,9.978,20.604z"/>
	<path d="M39.727-0.675c-1.498-0.729-3.364-1.255-5.269-1.255c-5.594,0-7.784,2.879-7.784,9.727c0,7.741,2.637,10.498,7.702,10.498
		c2.027,0,4.013-0.569,5.511-1.662l0.244,2.146c-1.419,1.056-3.728,1.785-6.201,1.785c-6.566,0-9.807-3.729-9.807-12.768
		c0-8.147,2.999-12.079,9.848-12.079c2.229,0,4.377,0.567,5.958,1.337L39.727-0.675z"/>
	<path d="M61.451,20.038V3.866c0-3.688-1.986-5.796-6.242-5.796c-2.958,0-5.472,1.458-6.523,3.282v18.686h-2.473v-32.225
		l2.473-0.203v7.864l-0.04,3.243l0.08,0.039c1.662-1.986,4.217-3.081,7.133-3.081c5.271,0,8.066,2.879,8.066,8.188v16.171h-2.475
		V20.038z"/>
	<path d="M86.459,20.038V3.906c0-4.094-2.271-5.835-6.324-5.835c-2.35,0-5.188,1.136-6.523,3.243v18.725H71.18V-3.836l1.742-0.162
		l0.446,2.877h0.122c1.622-1.986,4.378-3.161,7.252-3.161c5.069,0,8.148,2.633,8.148,8.147v16.172H86.459z"/>
	<path d="M94.603,7.27c0-7.499,3.202-11.55,9.524-11.55c5.391,0,9.16,3.283,9.16,11.024c0,0.364-0.041,0.891-0.08,1.216H97.115
		c0.123,7.661,2.676,10.253,8.392,10.253c2.514,0,4.58-0.608,6.605-1.703l0.324,2.15c-2.066,1.175-4.378,1.863-7.174,1.863
		C97.643,20.524,94.603,16.51,94.603,7.27z M111.022,6.216c-0.082-6.041-2.92-8.308-6.893-8.308c-4.7,0-6.809,2.795-7.053,8.308
		H111.022z"/>
	<path d="M120.3,20.038v-32.264l2.432-0.164v32.428H120.3z"/>
	<path d="M132.297,20.038v-32.264l2.432-0.164v32.428H132.297z"/>
	<path d="M178.625,20.444c-2.107-1.298-4.338-2.96-6.488-4.823c-2.307,2.796-5.388,4.905-9.403,4.905
		c-5.671,0-7.861-3.607-7.861-7.783c0-4.416,2.797-7.377,5.876-9.808c-1.704-2.676-2.717-5.229-2.717-7.213
		c0-3.688,2.027-6.566,6.85-6.566c4.095,0,6.244,2.107,6.244,5.065c0,3.647-3.245,6.081-7.336,9.119
		c2.107,2.918,4.944,6.041,8.024,8.838c1.5-2.352,2.514-5.026,2.918-7.337L176.84,4.8c-0.242,2.311-1.339,5.796-3.323,8.918
		c1.986,1.703,4.015,3.241,5.999,4.5L178.625,20.444z M170.396,14.119c-3.163-2.918-6.161-6.201-8.392-9.322
		c-2.553,2.107-4.661,4.5-4.661,7.823c0,3.488,2.391,5.511,5.755,5.511C165.938,18.131,168.449,16.471,170.396,14.119z
		 M162.613,1.554c3.364-2.473,6.082-4.418,6.121-7.176c0-1.986-1.46-3.202-3.933-3.202c-2.551,0-4.457,1.662-4.457,4.541
		C160.344-2.741,161.194-0.714,162.613,1.554z"/>
	<path d="M195.28,7.27c0-7.499,3.2-11.55,9.524-11.55c5.391,0,9.16,3.283,9.16,11.024c0,0.364-0.041,0.891-0.082,1.216h-16.091
		c0.12,7.661,2.675,10.253,8.391,10.253c2.514,0,4.58-0.608,6.604-1.703l0.326,2.15c-2.068,1.175-4.377,1.863-7.174,1.863
		C198.32,20.524,195.28,16.51,195.28,7.27z M211.695,6.216c-0.082-6.041-2.919-8.308-6.89-8.308c-4.701,0-6.811,2.795-7.053,8.308
		H211.695z"/>
	<path d="M222.433-8.781c-1.216,0-1.904-0.406-1.904-1.703c0-1.095,0.688-1.704,1.904-1.704c1.214,0,1.905,0.609,1.905,1.704
		C224.339-9.307,223.649-8.781,222.433-8.781z M221.179,20.038V-3.756l2.47-0.203v23.997H221.179z"/>
	<path d="M247.806,20.038V3.906c0-4.094-2.271-5.835-6.323-5.835c-2.352,0-5.188,1.136-6.523,3.243v18.725h-2.434V-3.836
		l1.741-0.162l0.448,2.877h0.119c1.622-1.986,4.379-3.161,7.256-3.161c5.065,0,8.146,2.633,8.146,8.147v16.172H247.806z"/>
	<path d="M259.076,20.038v-21.97h-3.853v-1.947h3.853v-1.173c0-4.256,2.228-7.135,7.618-7.135c1.175,0,2.552,0.204,3.364,0.487
		l-0.203,1.744c-0.811-0.203-1.784-0.364-2.835-0.364c-3.813,0-5.473,1.986-5.473,5.31v1.134h6.729v1.947h-6.729v21.968H259.076z"/>
	<path d="M286.716,16.672l-0.123-0.039c-1.294,2.27-4.131,3.768-7.455,3.768c-4.338,0-7.337-2.148-7.337-7.497
		c0-4.541,2.797-7.135,8.635-7.135c2.147,0,4.334,0.445,5.958,1.054V3.865c0-4.541-1.907-6-6.121-6c-2.473,0-4.701,0.446-6.77,1.5
		l-0.283-2.15c2.271-1.054,4.701-1.58,7.46-1.58c5.835,0,8.188,2.389,8.188,8.593v15.807h-1.865L286.716,16.672z M286.393,8.769
		c-0.609-0.446-2.717-1.136-5.595-1.136c-4.621,0-6.646,1.904-6.646,5.229c0,4.054,2.432,5.433,5.634,5.433
		c3.485,0,6.607-2.434,6.607-4.744V8.769z"/>
	<path d="M310.144-0.675c-1.499-0.729-3.366-1.255-5.271-1.255c-5.593,0-7.782,2.879-7.782,9.727c0,7.741,2.637,10.498,7.7,10.498
		c2.028,0,4.013-0.569,5.513-1.662l0.244,2.146c-1.419,1.056-3.729,1.785-6.201,1.785c-6.567,0-9.809-3.729-9.809-12.768
		c0-8.147,3-12.079,9.852-12.079c2.226,0,4.375,0.567,5.955,1.337L310.144-0.675z"/>
	<path d="M331.867,20.038V3.866c0-3.688-1.986-5.796-6.242-5.796c-2.959,0-5.471,1.458-6.524,3.282v18.686h-2.472v-32.225
		l2.472-0.203v7.864l-0.04,3.243l0.082,0.039c1.662-1.986,4.215-3.081,7.134-3.081c5.269,0,8.065,2.879,8.065,8.188v16.171h-2.475
		V20.038z"/>
	<path d="M374.505-3.879l-9.567,23.914h-2.918l-9.606-23.914h2.797l7.095,18.606l1.134,3.079h0.123l1.093-3.079l7.094-18.606
		H374.505z"/>
	<path d="M388.081,20.565c-6.971,0-10.091-3.485-10.091-12.444c0-8.877,3.161-12.402,10.091-12.402c7.012,0,9.97,3.526,9.97,12.402
		C398.051,17.079,395.093,20.565,388.081,20.565z M388.081,18.416c5.351,0,7.417-2.838,7.417-10.294
		c0-7.418-2.068-10.214-7.417-10.214c-5.392,0-7.54,2.795-7.54,10.214C380.543,15.618,382.689,18.416,388.081,18.416z"/>
	<path d="M419.493,20.038V3.906c0-4.094-2.271-5.835-6.325-5.835c-2.35,0-5.188,1.136-6.522,3.243v18.725h-2.432V-3.836l1.74-0.162
		l0.447,2.877h0.12c1.624-1.986,4.378-3.161,7.254-3.161c5.067,0,8.149,2.633,8.149,8.147v16.172H419.493z"/>
	<path d="M440.525,20.038v-1.825l15.24-23.306l1.824-2.635l-0.039-0.08h-16.499l0.123-2.553h19.656v2.109L445.712,14.77
		l-1.823,2.595l0.041,0.119h16.94l-0.119,2.555H440.525z"/>
	<path d="M483.974,12.499c0,5.026-2.878,8.025-8.877,8.025c-5.955,0-8.836-3.042-8.836-8.025V-3.879h2.432v16.295
		c0,3.728,2.191,5.755,6.404,5.755c4.215,0,6.446-1.986,6.446-5.755V-3.879h2.432L483.974,12.499L483.974,12.499z"/>
	<path d="M506.711,20.038V3.866c0-3.688-1.984-5.796-6.238-5.796c-2.958,0-5.472,1.458-6.527,3.282v18.686h-2.473v-32.225
		l2.473-0.203v7.864l-0.041,3.243l0.084,0.039c1.662-1.986,4.213-3.081,7.135-3.081c5.267,0,8.062,2.879,8.062,8.188v16.171h-2.475
		V20.038z"/>
	<path d="M530.096,16.672l-0.117-0.039c-1.298,2.27-4.137,3.768-7.462,3.768c-4.336,0-7.334-2.148-7.334-7.497
		c0-4.541,2.797-7.135,8.634-7.135c2.15,0,4.338,0.445,5.957,1.054V3.865c0-4.541-1.902-6-6.121-6c-2.469,0-4.701,0.446-6.766,1.5
		l-0.283-2.15c2.268-1.054,4.701-1.58,7.456-1.58c5.838,0,8.188,2.389,8.188,8.593v15.807h-1.865L530.096,16.672z M529.772,8.769
		c-0.609-0.446-2.717-1.136-5.591-1.136c-4.621,0-6.646,1.904-6.646,5.229c0,4.054,2.432,5.433,5.632,5.433
		c3.487,0,6.605-2.434,6.605-4.744V8.769L529.772,8.769z"/>
	<path d="M556.729,12.499c0,5.026-2.88,8.025-8.877,8.025c-5.96,0-8.836-3.042-8.836-8.025V-3.879h2.432v16.295
		c0,3.728,2.186,5.755,6.404,5.755c4.215,0,6.445-1.986,6.445-5.755V-3.879h2.433L556.729,12.499L556.729,12.499z"/>
	<path d="M569.938,20.524c-2.838,0-5.513-0.769-7.296-2.189l0.405-2.227c1.742,1.458,4.416,2.27,6.849,2.27
		c4.054,0,5.755-2.068,5.755-4.823c0-6.404-12.886-3.649-12.886-11.553c0-3.89,2.795-6.281,7.945-6.281
		c2.268,0,4.375,0.446,6.281,1.378l-0.245,2.148c-1.987-0.892-4.095-1.337-6.079-1.337c-3.405,0-5.554,1.541-5.554,3.971
		c0,5.958,12.849,2.999,12.849,11.43C577.965,17.646,575.492,20.524,569.938,20.524z"/>
	<path d="M582.301,7.27c0-7.499,3.204-11.55,9.524-11.55c5.39,0,9.16,3.283,9.16,11.024c0,0.364-0.039,0.891-0.082,1.216h-16.091
		c0.123,7.661,2.675,10.253,8.389,10.253c2.516,0,4.58-0.608,6.609-1.703l0.324,2.15c-2.066,1.175-4.379,1.863-7.176,1.863
		C585.339,20.524,582.301,16.51,582.301,7.27z M598.714,6.216c-0.078-6.041-2.917-8.308-6.889-8.308
		c-4.702,0-6.811,2.795-7.052,8.308H598.714z"/>
</g>
</svg>
