<?xml version="1.0" encoding="utf-8"?>
<!-- Generator: Adobe Illustrator 16.0.0, SVG Export Plug-In . SVG Version: 6.00 Build 0)  -->
<!DOCTYPE svg PUBLIC "-//W3C//DTD SVG 1.1//EN" "http://www.w3.org/Graphics/SVG/1.1/DTD/svg11.dtd">
<svg version="1.1" id="Ebene_1" xmlns="http://www.w3.org/2000/svg" xmlns:xlink="http://www.w3.org/1999/xlink" x="0px" y="0px"
	 width="551.498px" height="53.184px" viewBox="2.573 -29.336 551.498 53.184"
	 enable-background="new 2.573 -29.336 551.498 53.184" xml:space="preserve">
<g>
	<path d="M28.384,15.268L13.221-4.971H6.253v20.239h-3.68v-41.815H6.25v18.289h7.023l14.383-18.289h4.57L16.617-6.812l16.56,22.08
		H28.384z"/>
	<path d="M51.294,15.99c-9.588,0-13.881-4.794-13.881-17.116c0-12.209,4.351-17.058,13.881-17.058
		c9.645,0,13.715,4.851,13.715,17.058C65.009,11.197,60.939,15.99,51.294,15.99z M51.294,13.036c7.36,0,10.202-3.904,10.202-14.159
		c0-10.204-2.845-14.049-10.202-14.049c-7.413,0-10.37,3.845-10.37,14.049C40.927,9.188,43.881,13.036,51.294,13.036z"/>
	<path d="M81.564,15.935c-3.901,0-7.579-1.058-10.035-3.012l0.556-3.063c2.398,2.006,6.078,3.122,9.424,3.122
		c5.573,0,7.916-2.844,7.916-6.633c0-8.808-17.729-5.02-17.729-15.89c0-5.351,3.849-8.639,10.927-8.639
		c3.124,0,6.022,0.613,8.642,1.896l-0.336,2.955c-2.73-1.226-5.629-1.839-8.363-1.839c-4.684,0-7.637,2.119-7.637,5.461
		c0,8.195,17.672,4.125,17.672,15.722C92.602,11.977,89.203,15.935,81.564,15.935z"/>
	<path d="M105.48-14.895V7.347c0,3.96,2.061,5.522,5.354,5.522c0.948,0,2.119-0.169,2.786-0.449l0.278,2.677
		c-0.893,0.391-2.509,0.667-3.959,0.667c-5.13,0-7.863-2.673-7.863-8.305v-22.354h-5.127v-2.734h5.183l0.669-8.639l2.674-0.333
		v8.973h8.643v2.734H105.48z"/>
	<path d="M119.027-2.295c0-10.314,4.403-15.886,13.102-15.886c7.413,0,12.598,4.515,12.598,15.162c0,0.5-0.055,1.226-0.112,1.672
		h-22.131c0.164,10.537,3.678,14.103,11.538,14.103c3.459,0,6.299-0.836,9.087-2.342l0.447,2.957
		c-2.846,1.616-6.02,2.563-9.868,2.563C123.209,15.935,119.027,10.414,119.027-2.295z M141.605-3.745
		c-0.11-8.308-4.012-11.427-9.475-11.427c-6.468,0-9.368,3.845-9.701,11.427H141.605z"/>
	<path d="M174.105,15.268v-22.19c0-5.63-3.12-8.026-8.695-8.026c-3.232,0-7.136,1.562-8.974,4.46v25.756h-3.349V-17.57l2.398-0.224
		l0.61,3.958h0.169c2.229-2.731,6.021-4.348,9.978-4.348c6.968,0,11.203,3.622,11.203,11.207v22.245H174.105z"/>
	<path d="M188.709,15.268v-44.378l3.346-0.225v44.604H188.709z"/>
	<path d="M215.693,15.99c-9.589,0-13.881-4.794-13.881-17.116c0-12.209,4.346-17.058,13.88-17.058
		c9.647,0,13.715,4.851,13.715,17.058C229.407,11.197,225.337,15.99,215.693,15.99z M215.693,13.036c7.358,0,10.2-3.904,10.2-14.159
		c0-10.204-2.844-14.049-10.2-14.049c-7.416,0-10.372,3.845-10.372,14.049C205.321,9.188,208.277,13.036,215.693,13.036z"/>
	<path d="M245.963,15.935c-3.902,0-7.583-1.058-10.036-3.012l0.56-3.063c2.395,2.006,6.072,3.122,9.419,3.122
		c5.575,0,7.918-2.844,7.918-6.633c0-8.808-17.729-5.02-17.729-15.89c0-5.351,3.848-8.639,10.927-8.639
		c3.122,0,6.021,0.613,8.642,1.896l-0.333,2.955c-2.735-1.226-5.634-1.839-8.363-1.839c-4.685,0-7.64,2.119-7.64,5.461
		C239.327-1.513,257-5.584,257,6.013C257.002,11.977,253.599,15.935,245.963,15.935z"/>
	<path d="M262.963-2.295c0-10.314,4.406-15.886,13.101-15.886c7.413,0,12.6,4.515,12.6,15.162c0,0.5-0.057,1.226-0.112,1.672
		h-22.132c0.166,10.537,3.678,14.103,11.54,14.103c3.455,0,6.3-0.836,9.088-2.342l0.446,2.957c-2.845,1.616-6.022,2.563-9.87,2.563
		C267.143,15.935,262.963,10.414,262.963-2.295z M285.544-3.745c-0.112-8.308-4.017-11.427-9.478-11.427
		c-6.468,0-9.369,3.845-9.7,11.427H285.544z"/>
	<path d="M331.084,15.268h-15.328v-41.815h14.492c7.752,0,11.653,3.291,11.653,10.26c0,5.461-2.619,8.362-6.134,9.365v0.11
		c4.907,1.003,7.916,4.184,7.916,10.373C343.687,10.973,340.231,15.268,331.084,15.268z M330.92-5.027h-11.65v17.06h11.871
		c5.576,0,8.921-2.286,8.921-8.752C340.062-2.408,337.051-5.027,330.92-5.027z M330.141-23.257h-10.817v15.221h11.263
		c5.243,0,7.806-2.565,7.806-7.637C338.39-21.084,335.771-23.257,330.141-23.257z"/>
	<path d="M350.876-2.295c0-10.314,4.402-15.886,13.103-15.886c7.413,0,12.597,4.515,12.597,15.162c0,0.5-0.054,1.226-0.11,1.672
		h-22.134c0.167,10.537,3.681,14.103,11.54,14.103c3.461,0,6.301-0.836,9.086-2.342l0.446,2.957
		c-2.842,1.616-6.018,2.563-9.865,2.563C355.058,15.935,350.876,10.414,350.876-2.295z M373.457-3.745
		c-0.112-8.308-4.015-11.427-9.478-11.427c-6.465,0-9.365,3.845-9.701,11.427H373.457z"/>
	<path d="M384.936,15.268V-17.46l2.736-0.223l0.107,3.678l0.113,4.515h0.112c1.894-5.128,5.743-8.583,10.702-8.583
		c1.118,0,2.173,0.11,3.124,0.39l-0.279,3.511c-0.947-0.336-1.952-0.446-3.007-0.446c-5.576,0-10.263,5.128-10.263,13.103v16.783
		H384.936z"/>
	<path d="M427.193,10.638l-0.165-0.054c-1.785,3.122-5.688,5.181-10.26,5.181c-5.961,0-10.091-2.955-10.091-10.311
		c0-6.246,3.85-9.814,11.878-9.814c2.958,0,5.965,0.613,8.195,1.449v-4.068c0-6.246-2.621-8.251-8.418-8.251
		c-3.401,0-6.467,0.613-9.309,2.062l-0.393-2.957c3.122-1.449,6.465-2.173,10.26-2.173c8.029,0,11.261,3.286,11.261,11.82v21.742
		h-2.562L427.193,10.638z M426.75-0.233c-0.836-0.613-3.739-1.562-7.692-1.562c-6.358,0-9.145,2.619-9.145,7.192
		c0,5.576,3.345,7.472,7.749,7.472c4.797,0,9.088-3.348,9.088-6.525V-0.233z"/>
	<path d="M445.476-14.895V7.347c0,3.96,2.062,5.522,5.355,5.522c0.949,0,2.119-0.169,2.788-0.449l0.275,2.677
		c-0.893,0.391-2.509,0.667-3.956,0.667c-5.13,0-7.864-2.673-7.864-8.305v-22.354h-5.13v-2.734h5.185l0.672-8.639l2.67-0.333v8.973
		h8.646v2.734H445.476z"/>
	<path d="M485.281,4.897c0,6.913-3.955,11.038-12.205,11.038c-8.195,0-12.157-4.184-12.157-11.038v-22.526h3.347V4.784
		c0,5.127,3.012,7.916,8.811,7.916c5.798,0,8.865-2.732,8.865-7.916v-22.414h3.345V4.897H485.281z"/>
	<path d="M516.277,15.268v-22.19c0-5.63-3.122-8.026-8.695-8.026c-3.234,0-7.136,1.562-8.978,4.46v25.756h-3.345V-17.57l2.4-0.224
		l0.61,3.958h0.167c2.229-2.731,6.021-4.348,9.98-4.348c6.965,0,11.204,3.622,11.204,11.207v22.245H516.277z"/>
	<path d="M535.23,0.323c-2.229,0.503-3.401,1.619-3.401,3.012c0,1.282,1.004,2.342,3.737,2.621l7.58,0.777
		c8.083,0.839,10.483,3.291,10.483,7.639c0,5.797-3.35,9.476-13.328,9.476c-8.639,0-12.266-3.455-12.266-8.698
		c0-2.508,1.282-4.96,3.627-6.746C529.99,7.68,528.651,6.229,528.651,4c0-2.006,1.504-3.791,4.237-4.738
		c-2.339-1.283-4.017-3.735-4.017-7.806c0-6.189,3.124-9.645,11.097-9.645c2.845,0,5.854,0.555,8.028,2.283l5.295-2.396l0.779,1.726
		l-4.235,2.842c0.724,1.341,1.168,3.011,1.168,5.127c0,6.189-2.786,9.535-11.04,9.535C538.411,0.939,536.736,0.77,535.23,0.323z
		 M534.618,9.022c-2.345,1.503-3.566,3.735-3.566,5.74c0,3.904,2.674,6.246,9.143,6.246c8.139,0,10.258-2.509,10.258-6.189
		c0-2.842-1.449-4.404-7.804-4.958L534.618,9.022z M532.165-8.482c0,5.52,3.348,6.746,7.749,6.746c6.022,0,7.862-2.345,7.862-6.746
		c0-5.074-2.396-6.859-7.803-6.859C534.284-15.341,532.165-13.056,532.165-8.482z"/>
</g>
</svg>
