<?xml version="1.0" encoding="UTF-8"?><svg id="Ebene_1" xmlns="http://www.w3.org/2000/svg" viewBox="0 0 150.98 94.07"><path d="m10.61,11.87c0,5.5-2.8,7.22-7.2,7.22-1.4,0-2.52-.25-3.42-.65l.25-4.07c.52.27,1.35.45,2.32.45,2.05,0,3.05-.8,3.05-3.05V0h5v11.87Z"/><path d="m25.33,14.52l-.1,4.22h-12.07V0h11.75l.1,4.3h-6.97v2.9h5.75v3.92h-5.75v3.4h7.3Z"/><path d="m35.38,4.37v14.37h-4.97V4.37h-4.25l.1-4.37h13.27l.1,4.37h-4.25Z"/><path d="m40.46,18.75v-3.17l5.97-9.5,1.1-1.65-.02-.05h-6.9l.12-4.37h12.52v3.5l-5.77,9.2-1.1,1.62.03.07h6.9l-.07,4.35h-12.77Z"/><path d="m63.48,4.37v14.37h-4.97V4.37h-4.25l.1-4.37h13.27l.1,4.37h-4.25Z"/><path d="m85.83,18.75l-5.6-8.65-1.05-1.72-.05.02.02,2.02v8.32h-4.3V0h4.1l6.02,9.72.05-.02-.05-2,.02-7.7h4.3v18.75h-3.47Z"/><path d="m104.03,14.52l-.1,4.22h-12.07V0h11.75l.1,4.3h-6.97v2.9h5.75v3.92h-5.75v3.4h7.3Z"/><path d="m120.11,12.37c0,4.4-2.35,6.7-7.15,6.7s-7.22-2.3-7.22-6.7V0h4.9v12.27c0,1.67.65,2.42,2.32,2.42s2.27-.7,2.27-2.42V0h4.87v12.37Z"/><path d="m134.66,14.52l-.1,4.22h-12.07V0h11.75l.1,4.3h-6.97v2.9h5.75v3.92h-5.75v3.4h7.3Z"/><path d="m147.51,18.75l-5.6-8.65-1.05-1.72-.05.02.02,2.02v8.32h-4.3V0h4.1l6.02,9.72.05-.02-.05-2,.02-7.7h4.3v18.75h-3.47Z"/><path d="m.84,25h5.02v18.75H.84v-18.75Z"/><path d="m19.58,43.75l-5.6-8.65-1.05-1.72-.05.02.02,2.02v8.32h-4.3v-18.75h4.1l6.02,9.72.05-.02-.05-2,.02-7.7h4.3v18.75h-3.47Z"/><path d="m32.38,43.75h-6.77v-18.75h6.67c5.7,0,8.02,2.65,8.02,9.27s-2.65,9.47-7.92,9.47Zm-.08-14.42h-1.82v10.15h1.82c2.15,0,2.88-.65,2.88-5.25,0-4.15-.67-4.9-2.88-4.9Z"/><path d="m56.56,37.37c0,4.4-2.35,6.7-7.15,6.7s-7.22-2.3-7.22-6.7v-12.37h4.9v12.27c0,1.67.65,2.42,2.32,2.42s2.27-.7,2.27-2.42v-12.27h4.87v12.37Z"/><path d="m63.66,44.07c-1.97,0-3.92-.45-5.45-1.3l.62-4.15c1.52.77,3.07,1.25,4.7,1.25s2.15-.52,2.15-1.52c0-2.4-7.45-1.65-7.45-7.77,0-3.27,2-5.87,6.62-5.87,1.72,0,3.57.33,4.92.9l-.55,4.07c-1.42-.42-2.85-.67-4.05-.67-1.85,0-2.25.55-2.25,1.35,0,2.42,7.45,1.6,7.45,7.72,0,3.7-2.5,6-6.72,6Z"/><path d="m79.91,29.37v14.37h-4.97v-14.37h-4.25l.1-4.37h13.27l.1,4.37h-4.25Z"/><path d="m96.68,36.07l3.65,7.67h-5.65l-2.5-6.7h-1.65v6.7h-4.87v-18.75h6.47c4.75,0,7.1,1.8,7.1,6.02,0,2.5-.9,4.35-2.55,5.05Zm-4.45-7.02h-1.7v4.32h1.67c1.42,0,1.92-.35,1.92-2.17,0-1.7-.48-2.15-1.9-2.15Z"/><path d="m101.76,25h5.02v18.75h-5.02v-18.75Z"/><path d="m121.71,39.52l-.1,4.22h-12.07v-18.75h11.75l.1,4.3h-6.97v2.9h5.75v3.92h-5.75v3.4h7.3Z"/><path d="m129.83,32.75v3.25h-6.97v-3.25h6.97Z"/><path d="m5.54,69.07c-1.97,0-3.92-.45-5.45-1.3l.62-4.15c1.52.77,3.07,1.25,4.7,1.25s2.15-.52,2.15-1.52c0-2.4-7.45-1.65-7.45-7.77,0-3.27,2-5.87,6.62-5.87,1.72,0,3.57.33,4.92.9l-.55,4.07c-1.42-.42-2.85-.67-4.05-.67-1.85,0-2.25.55-2.25,1.35,0,2.42,7.45,1.6,7.45,7.72,0,3.7-2.5,6-6.72,6Z"/><path d="m23.21,65.47h-5.1l-.72,3.27h-5.17l5.55-18.75h5.97l5.65,18.75h-5.45l-.72-3.27Zm-2.97-9.45l-1.2,5.37h3.27l-1.2-5.37-.38-2h-.07l-.43,2Z"/><path d="m44.06,62.37c0,4.4-2.35,6.7-7.15,6.7s-7.22-2.3-7.22-6.7v-12.37h4.9v12.27c0,1.67.65,2.42,2.32,2.42s2.27-.7,2.27-2.42v-12.27h4.87v12.37Z"/><path d="m59.68,68.07c-1.3.62-3.42,1.02-5.35,1.02-6.2,0-8.4-3.32-8.4-9.72s2.58-9.7,8.62-9.7c1.65,0,3.52.3,4.87.82l-.45,4.17c-1.22-.45-2.8-.72-4.15-.72-3.07,0-3.77,1.15-3.77,5.37,0,4.45.72,5.42,3.15,5.42.38,0,.77-.02,1.12-.1v-6.12h4.35v9.55Z"/><path d="m74.08,64.52l-.1,4.22h-12.07v-18.75h11.75l.1,4.3h-6.97v2.9h5.75v3.92h-5.75v3.4h7.3Z"/><path d="m86.98,61.07l3.65,7.67h-5.65l-2.5-6.7h-1.65v6.7h-4.87v-18.75h6.47c4.75,0,7.1,1.8,7.1,6.02,0,2.5-.9,4.35-2.55,5.05Zm-4.45-7.02h-1.7v4.32h1.67c1.42,0,1.92-.35,1.92-2.17,0-1.7-.48-2.15-1.9-2.15Z"/><path d="m10.23,93.75l-3.52-7.62h-1.2v7.62H.64v-18.75h4.87v7.25h1.3l3.47-7.25h5.47l-4.5,8.97,4.72,9.77h-5.75Z"/><path d="m27.03,90.47h-5.1l-.72,3.27h-5.17l5.55-18.75h5.97l5.65,18.75h-5.45l-.72-3.27Zm-2.97-9.45l-1.2,5.37h3.27l-1.2-5.37-.38-2h-.08l-.42,2Z"/><path d="m47.88,87.37c0,4.4-2.35,6.7-7.15,6.7s-7.22-2.3-7.22-6.7v-12.37h4.9v12.27c0,1.67.65,2.42,2.33,2.42s2.27-.7,2.27-2.42v-12.27h4.87v12.37Z"/><path d="m55.16,79.37v3.3h5.72l-.03,4.15h-5.7v6.92h-4.9v-18.75h11.72l.08,4.37h-6.9Z"/><path d="m75.88,89.52l-.1,4.22h-12.07v-18.75h11.75l.1,4.3h-6.97v2.9h5.75v3.92h-5.75v3.4h7.3Z"/><path d="m88.73,93.75l-5.6-8.65-1.05-1.72-.05.02.02,2.02v8.32h-4.3v-18.75h4.1l6.02,9.72.05-.02-.05-2,.02-7.7h4.3v18.75h-3.47Z"/><path d="m114.58,87.37c0,4.4-2.35,6.7-7.15,6.7s-7.22-2.3-7.22-6.7v-12.37h4.9v12.27c0,1.67.65,2.42,2.33,2.42s2.27-.7,2.27-2.42v-12.27h4.87v12.37Z"/><path d="m127.93,93.75l-5.6-8.65-1.05-1.72-.05.02.02,2.02v8.32h-4.3v-18.75h4.1l6.02,9.72.05-.02-.05-2,.02-7.7h4.3v18.75h-3.47Z"/><path d="m140.73,93.75h-6.77v-18.75h6.67c5.7,0,8.02,2.65,8.02,9.27s-2.65,9.47-7.92,9.47Zm-.08-14.42h-1.82v10.15h1.82c2.15,0,2.88-.65,2.88-5.25,0-4.15-.67-4.9-2.88-4.9Z"/></svg>