<?xml version="1.0" encoding="UTF-8"?><svg id="Ebene_1" xmlns="http://www.w3.org/2000/svg" viewBox="0 0 200.11 80.97"><path d="m15.78,31.56l.05.16h12.6l-.22,9.1H2.86v-6.57c8.35-9.32,15.13-15.99,15.13-21.32,0-2.42-1.4-3.82-4.63-3.82s-5.87,1.4-8.51,3.29L2.43,4.04C5.66,1.67,9.97,0,15.41,0c8.83,0,13.25,4.79,13.25,11.9,0,6.57-5.22,12.44-12.87,19.65Z"/><path d="m46.1,41.36c-4.31,0-8.35-.92-11.69-2.8l1.72-7.97c2.96,1.45,5.38,2.21,8.83,2.21,4.31,0,5.44-1.67,5.44-5.17,0-3.18-1.72-4.31-5.38-4.31-2.1,0-4.68.32-6.68,1.02l-3.34-3.88L36.46.43h21.97l.38,8.94h-14.05l-.38,5.98c1.24-.22,2.53-.32,3.98-.32,7.81,0,12.33,3.93,12.33,11.79,0,9.05-4.42,14.54-14.59,14.54Z"/><path d="m76.57,18.63c-5.71,0-8.29-3.23-8.29-9.32,0-6.46,2.58-9.32,8.35-9.32,5.38,0,8.35,2.64,8.35,9.32,0,6.19-3.07,9.32-8.4,9.32Zm23.1-11.04l-21.81,30.96-5.55-4.42L94.18,3.18l5.49,4.42Zm-23.05-1.62c-1.24,0-1.83.65-1.83,3.34s.59,3.29,1.83,3.29,1.83-.59,1.83-3.29-.65-3.34-1.83-3.34Zm19.33,35.38c-5.71,0-8.29-3.23-8.29-9.26,0-6.46,2.58-9.48,8.35-9.48,5.44,0,8.35,2.8,8.35,9.48,0,6.14-3.02,9.26-8.4,9.26Zm.05-12.44c-1.24,0-1.83.59-1.83,3.18s.59,3.18,1.83,3.18,1.88-.54,1.88-3.18-.65-3.18-1.88-3.18Z"/><path d="m9.33,54.64l2.91,6.12h-4.51l-1.99-5.34h-1.32v5.34H.54v-14.96h5.17c3.79,0,5.66,1.44,5.66,4.81,0,1.99-.72,3.47-2.03,4.03Zm-3.55-5.6h-1.36v3.45h1.34c1.14,0,1.54-.28,1.54-1.74,0-1.36-.38-1.71-1.52-1.71Z"/><path d="m20.94,58.15h-4.07l-.58,2.61h-4.13l4.43-14.96h4.77l4.51,14.96h-4.35l-.58-2.61Zm-2.37-7.54l-.96,4.29h2.61l-.96-4.29-.3-1.6h-.06l-.34,1.6Z"/><path d="m32.69,60.76h-5.82v-14.96h5.86c3.21,0,4.85,1.5,4.85,3.87,0,1.58-.72,2.59-1.83,3.13v.04c1.5.5,2.29,1.66,2.29,3.51,0,2.69-1.62,4.41-5.35,4.41Zm-.12-11.69h-1.93v2.63h1.97c.9,0,1.22-.34,1.22-1.36s-.34-1.28-1.26-1.28Zm.1,5.54h-2.03v2.95h2.11c.98,0,1.34-.32,1.34-1.5,0-1.04-.32-1.46-1.42-1.46Z"/><path d="m47.03,58.15h-4.07l-.58,2.61h-4.13l4.43-14.96h4.77l4.51,14.96h-4.35l-.58-2.61Zm-2.37-7.54l-.96,4.29h2.61l-.96-4.29-.3-1.6h-.06l-.34,1.6Z"/><path d="m58.14,49.29v11.47h-3.97v-11.47h-3.39l.08-3.49h10.59l.08,3.49h-3.39Z"/><path d="m69.57,49.29v11.47h-3.97v-11.47h-3.39l.08-3.49h10.59l.08,3.49h-3.39Z"/><path d="m86.36,58.15h-4.07l-.58,2.61h-4.13l4.43-14.96h4.77l4.51,14.96h-4.35l-.58-2.61Zm-2.37-7.54l-.96,4.29h2.61l-.96-4.29-.3-1.6h-.06l-.34,1.6Z"/><path d="m103,55.68c0,3.51-1.87,5.34-5.7,5.34s-5.76-1.83-5.76-5.34v-9.87h3.91v9.79c0,1.34.52,1.93,1.86,1.93s1.81-.56,1.81-1.93v-9.79h3.89v9.87Z"/><path d="m108.8,49.29v2.63h4.57l-.02,3.31h-4.55v5.52h-3.91v-14.96h9.35l.06,3.49h-5.5Z"/><path d="m0,80.71v-2.53l4.77-7.58.88-1.32-.02-.04H.12l.1-3.49h9.99v2.79l-4.61,7.34-.88,1.3.02.06h5.5l-.06,3.47H0Z"/><path d="m22.96,75.62c0,3.51-1.88,5.34-5.7,5.34s-5.76-1.83-5.76-5.34v-9.87h3.91v9.79c0,1.34.52,1.93,1.85,1.93s1.82-.56,1.82-1.93v-9.79h3.89v9.87Z"/><path d="m30.68,80.71h-5.82v-14.96h5.86c3.21,0,4.85,1.5,4.85,3.87,0,1.58-.72,2.59-1.84,3.13v.04c1.5.5,2.29,1.66,2.29,3.51,0,2.69-1.62,4.41-5.35,4.41Zm-.12-11.69h-1.94v2.63h1.97c.9,0,1.22-.34,1.22-1.36s-.34-1.28-1.26-1.28Zm.1,5.54h-2.04v2.95h2.12c.98,0,1.34-.32,1.34-1.5,0-1.04-.32-1.46-1.42-1.46Z"/><path d="m47.29,77.34l-.08,3.37h-9.63v-14.96h9.37l.08,3.43h-5.56v2.31h4.59v3.13h-4.59v2.71h5.82Z"/><path d="m56.3,80.71v-5.86h-3.63v5.86h-3.89v-14.96h3.89v5.6h3.63v-5.6h3.91v14.96h-3.91Z"/><path d="m68.09,80.97c-4.31,0-6.26-2.27-6.26-7.74s1.87-7.72,6.26-7.72,6.26,2.23,6.26,7.72-1.88,7.74-6.26,7.74Zm-1.89-15.93c-.98,0-1.48-.38-1.48-1.34,0-.9.5-1.38,1.48-1.38s1.47.48,1.47,1.38-.46,1.34-1.47,1.34Zm1.87,3.97c-1.64,0-2.15.68-2.15,4.23s.54,4.29,2.19,4.29,2.15-.74,2.15-4.29-.5-4.23-2.19-4.23Zm1.93-3.97c-.98,0-1.48-.38-1.48-1.34,0-.9.5-1.38,1.48-1.38s1.48.48,1.48,1.38-.46,1.34-1.48,1.34Z"/><path d="m84.79,74.59l2.91,6.12h-4.51l-1.99-5.34h-1.32v5.34h-3.89v-14.96h5.17c3.79,0,5.66,1.44,5.66,4.81,0,1.99-.72,3.47-2.03,4.03Zm-3.55-5.6h-1.36v3.45h1.34c1.14,0,1.54-.28,1.54-1.74,0-1.36-.38-1.71-1.52-1.71Z"/><path d="m102.88,77.34l-.08,3.37h-9.63v-14.96h9.37l.08,3.43h-5.56v2.31h4.59v3.13h-4.59v2.71h5.82Z"/><path d="m113.17,74.59l2.91,6.12h-4.51l-2-5.34h-1.32v5.34h-3.89v-14.96h5.17c3.79,0,5.66,1.44,5.66,4.81,0,1.99-.72,3.47-2.03,4.03Zm-3.55-5.6h-1.36v3.45h1.34c1.14,0,1.54-.28,1.54-1.74,0-1.36-.38-1.71-1.52-1.71Z"/><path d="m124.58,80.71v-5.86h-3.63v5.86h-3.89v-14.96h3.89v5.6h3.63v-5.6h3.91v14.96h-3.91Z"/><path d="m138.22,78.1h-4.07l-.58,2.61h-4.13l4.43-14.96h4.77l4.51,14.96h-4.35l-.58-2.61Zm-2.37-7.54l-.96,4.29h2.61l-.96-4.29-.3-1.6h-.06l-.34,1.6Z"/><path d="m153.16,77.24l-.1,3.47h-8.92v-14.96h3.93v11.49h5.08Z"/><path d="m159.24,69.24v11.47h-3.97v-11.47h-3.39l.08-3.49h10.59l.08,3.49h-3.39Z"/><path d="m173.54,77.34l-.08,3.37h-9.63v-14.96h9.37l.08,3.43h-5.56v2.31h4.59v3.13h-4.59v2.71h5.82Z"/><path d="m183.79,80.71l-4.47-6.9-.84-1.38-.04.02.02,1.62v6.64h-3.43v-14.96h3.27l4.81,7.76.04-.02-.04-1.6.02-6.14h3.43v14.96h-2.77Z"/><path d="m190.2,80.95c-1.39,0-2.01-.54-2.01-1.89,0-1.22.62-1.91,2.01-1.91s1.99.7,1.99,1.91c0,1.14-.6,1.89-1.99,1.89Z"/><path d="m197.44,65.17l.26,1.93,1.83-.44.58,1.64-1.77.86,1.02,1.7-1.26.96-1.47-1.44-1.52,1.46-1.3-.92.98-1.76-1.78-.84.62-1.66,1.86.44.28-1.93h1.68Z"/></svg>