<?xml version="1.0" encoding="utf-8"?>
<!-- Generator: Adobe Illustrator 23.1.1, SVG Export Plug-In . SVG Version: 6.00 Build 0)  -->
<!DOCTYPE svg PUBLIC "-//W3C//DTD SVG 1.1//EN" "http://www.w3.org/Graphics/SVG/1.1/DTD/svg11.dtd" [
	<!ENTITY ns_extend "http://ns.adobe.com/Extensibility/1.0/">
	<!ENTITY ns_ai "http://ns.adobe.com/AdobeIllustrator/10.0/">
	<!ENTITY ns_graphs "http://ns.adobe.com/Graphs/1.0/">
	<!ENTITY ns_vars "http://ns.adobe.com/Variables/1.0/">
	<!ENTITY ns_imrep "http://ns.adobe.com/ImageReplacement/1.0/">
	<!ENTITY ns_sfw "http://ns.adobe.com/SaveForWeb/1.0/">
	<!ENTITY ns_custom "http://ns.adobe.com/GenericCustomNamespace/1.0/">
	<!ENTITY ns_adobe_xpath "http://ns.adobe.com/XPath/1.0/">
]>
<svg version="1.1" id="Ebene_1" xmlns:x="&ns_extend;" xmlns:i="&ns_ai;" xmlns:graph="&ns_graphs;"
	 xmlns="http://www.w3.org/2000/svg" xmlns:xlink="http://www.w3.org/1999/xlink" x="0px" y="0px" viewBox="0 0 235.44 75.82"
	 style="enable-background:new 0 0 235.44 75.82;" xml:space="preserve">
<style type="text/css">
	.st0{fill-rule:evenodd;clip-rule:evenodd;}
</style>
<metadata>
	<sfw  xmlns="&ns_sfw;">
		<slices></slices>
		<sliceSourceBounds  bottomLeftOrigin="true" height="55.9" width="197.36" x="19.04" y="9.04"></sliceSourceBounds>
	</sfw>
</metadata>
<path class="st0" d="M216.4,35.37h-6.74l-2.98-7.92h-1.97v7.92h-5.81V13.21h7.72c5.66,0,8.46,2.13,8.46,7.12
	c0,2.95-1.07,5.14-3.04,5.97L216.4,35.37z M206.74,18h-2.03v5.11h2c1.7,0,2.29-0.41,2.29-2.57C209,18.53,208.44,18,206.74,18z
	 M196.67,30.38l-0.12,4.99h-14.4V13.21h14.01l0.12,5.08h-8.32v3.43h6.85v4.64h-6.85v4.02H196.67z M173.12,35.79
	c-7.39,0-10.01-3.93-10.01-11.49c0-7.74,3.07-11.46,10.28-11.46c1.97,0,4.2,0.35,5.81,0.97l-0.54,4.93
	c-1.46-0.53-3.34-0.86-4.95-0.86c-3.67,0-4.5,1.36-4.5,6.35c0,5.26,0.86,6.41,3.76,6.41c0.45,0,0.92-0.03,1.34-0.12v-7.24h5.19
	v11.29C177.95,35.31,175.42,35.79,173.12,35.79z M154.43,13.21h5.99v22.16h-5.99V13.21z M140.34,25.15l-1.25-2.04l-0.06,0.03
	l0.03,2.39v9.84h-5.13V13.21h4.89L146,24.71l0.06-0.03L146,22.31l0.03-9.1h5.13v22.16h-4.14L140.34,25.15z M124.66,13.21h5.99v22.16
	h-5.99V13.21z M122.19,30.38l-0.12,4.99h-14.4V13.21h14.01l0.12,5.08h-8.32v3.43h6.85v4.64h-6.85v4.02H122.19z M99.48,35.37
	l-2.98-7.92h-1.97v7.92h-5.81V13.21h7.72c5.66,0,8.46,2.13,8.46,7.12c0,2.95-1.07,5.14-3.04,5.97l4.35,9.07H99.48z M96.56,18h-2.03
	v5.11h2c1.7,0,2.29-0.41,2.29-2.57C98.82,18.53,98.26,18,96.56,18z M96.41,57.41c0,7.92-2.47,11.26-7.9,11.26
	c-5.54,0-7.78-3.34-7.78-11.26c0-8.45,2.27-11.43,7.84-11.43C94.03,45.98,96.41,48.96,96.41,57.41z M88.57,50.91
	c-1.58,0-2.29,0.8-2.29,6.44c0,5.94,0.72,6.56,2.29,6.56c1.55,0,2.24-0.77,2.24-6.56C90.81,51.59,90.12,50.91,88.57,50.91z
	 M81.87,35.37h-5.93V18.38h-5.07l0.12-5.17h15.83l0.12,5.17h-5.07V35.37z M61.39,22.28h6.83l-0.03,4.91h-6.8v8.18h-5.84V13.21h13.98
	l0.09,5.17h-8.23V22.28z M46.85,55.28h6.83l-0.03,4.9h-6.8v8.18H41V46.21h13.98l0.09,5.17h-8.23V55.28z M44.19,35.76
	c-5.72,0-8.61-2.72-8.61-7.92V13.21h5.84v14.51c0,1.98,0.77,2.87,2.77,2.87c2.03,0,2.71-0.83,2.71-2.87V13.21h5.81v14.63
	C52.72,33.04,49.92,35.76,44.19,35.76z M20.62,35.37V13.21h5.87v17.02h7.6l-0.15,5.14H20.62z M32.78,46.21l6.74,22.16h-6.5
	l-0.86-3.87h-6.08l-0.86,3.87h-6.17l6.62-22.16H32.78z M31.08,59.69l-1.43-6.35l-0.45-2.36h-0.09l-0.51,2.36l-1.43,6.35H31.08z
	 M74.89,46.24v18.17h2.65v3.96H66.4v-3.96h2.65V52.92l-3.4,1.86l-0.6-4.49l6.47-4.05H74.89z M106.12,45.98
	c5.46,0,7.84,2.98,7.84,11.43c0,7.92-2.47,11.26-7.9,11.26c-5.54,0-7.78-3.34-7.78-11.26C98.29,48.96,100.55,45.98,106.12,45.98z
	 M106.12,63.91c1.55,0,2.24-0.77,2.24-6.56c0-5.76-0.69-6.44-2.24-6.44c-1.58,0-2.29,0.8-2.29,6.44
	C103.83,63.29,104.54,63.91,106.12,63.91z M118.79,63.08c2.09,0,2.98,1.03,2.98,2.84c0,1.68-0.89,2.81-2.98,2.81
	s-3.01-0.8-3.01-2.81C115.78,64.12,116.7,63.08,118.79,63.08z"/>
</svg>
