<svg enable-background="new 0 0 42.54 44.13" viewBox="0 0 42.54 44.13" xmlns="http://www.w3.org/2000/svg" xmlns:xlink="http://www.w3.org/1999/xlink"><clipPath id="a"><path d="m0 0h42.54v44.13h-42.54z"/></clipPath><path clip-path="url(#a)" d="m21.52 39.27c-9.17.09-16.79-7.68-16.86-17.13-.06-9.46 7.42-17.23 16.67-17.3 9.06-.07 16.68 7.7 16.67 17.12.01 10.34-8.1 17.23-16.48 17.31m21.02-15.36c-2.74-2.37-3.33-4.66-.82-8.51-3.93-1.11-5.03-3.76-4.07-7.52-3.74.35-5.79-1.17-6.44-5.38-3.44 2-6.12 1.07-8.07-2.49-2.47 3.35-5.2 3.45-8.13.96-1.11 3.68-3.19 5.18-7.35 4.26-.54 5.71-.54 5.71-5.22 6.61.56 1.51 1.28 2.87.76 4.72-.53 1.88-1.82 2.63-3.2 3.57 1.08 1.25 2.38 2.05 2.54 3.98.16 1.91-.76 3.14-1.65 4.53 1.55.68 2.92 1.07 3.81 2.75s.64 3.14.24 4.9c3.94-.47 6.08 1.31 6.47 5.35 1.59-.7 2.88-1.25 4.62-.78 1.87.5 2.47 1.98 3.54 3.29 1.08-1.32 2.06-2.32 3.84-2.62 1.89-.32 2.89.88 4.32 1.65.62-1.55 1.04-2.97 2.62-3.89 1.63-.95 3.08-.61 4.75-.33.12-1.69-.18-3.19 1.05-4.67 1.29-1.55 2.79-1.06 4.38-1.4-2.46-3.81-1.34-6.7 2.01-8.98"/><path clip-path="url(#a)" d="m13.63 23.06c0 1.1-.86 1.99-1.92 1.99s-1.92-.89-1.92-1.99.86-1.99 1.92-1.99 1.92.89 1.92 1.99"/><path clip-path="url(#a)" d="m26.43 31.63c0 1.37-1.07 2.47-2.39 2.47s-2.39-1.11-2.39-2.47c0-1.37 1.07-2.47 2.39-2.47s2.39 1.1 2.39 2.47"/><path clip-path="url(#a)" d="m27.66 12.95c0 .58-.45 1.05-1.01 1.05s-1.01-.47-1.01-1.05.45-1.05 1.01-1.05 1.01.47 1.01 1.05"/></svg>