<?xml version="1.0" encoding="utf-8"?>
<!-- Generator: Adobe Illustrator 16.0.0, SVG Export Plug-In . SVG Version: 6.00 Build 0)  -->
<!DOCTYPE svg PUBLIC "-//W3C//DTD SVG 1.1//EN" "http://www.w3.org/Graphics/SVG/1.1/DTD/svg11.dtd">
<svg version="1.1" id="Ebene_1" xmlns="http://www.w3.org/2000/svg" xmlns:xlink="http://www.w3.org/1999/xlink" x="0px" y="0px"
	 width="389.629px" height="29.071px" viewBox="0 0 389.629 29.071" enable-background="new 0 0 389.629 29.071"
	 xml:space="preserve">
<g>
	<path fill="#1A1A18" d="M6.482,23.3c-2.073,0-4.12-0.473-5.721-1.365l0.656-4.356c1.601,0.813,3.229,1.312,4.935,1.312
		c1.627,0,2.257-0.552,2.257-1.602c0-2.52-7.821-1.732-7.821-8.162c0-3.438,2.1-6.168,6.955-6.168c1.811,0,3.753,0.342,5.17,0.945
		l-0.578,4.278c-1.496-0.446-2.992-0.709-4.251-0.709c-1.942,0-2.362,0.577-2.362,1.417c0,2.546,7.821,1.68,7.821,8.11
		C13.542,20.885,10.918,23.3,6.482,23.3z"/>
	<path fill="#1A1A18" d="M25.034,19.521H19.68l-0.761,3.438h-5.433l5.826-19.684h6.272l5.932,19.684h-5.722L25.034,19.521z
		 M21.911,9.6l-1.26,5.643h3.438L22.829,9.6l-0.394-2.1h-0.079L21.911,9.6z"/>
	<path fill="#1A1A18" d="M46.917,16.266c0,4.619-2.467,7.034-7.506,7.034s-7.585-2.415-7.585-7.034V3.274h5.144v12.887
		c0,1.758,0.683,2.545,2.441,2.545c1.785,0,2.388-0.734,2.388-2.545V3.274h5.118V16.266z"/>
	<path fill="#1A1A18" d="M57.07,22.958h-7.664V3.274h7.716c4.225,0,6.377,1.969,6.377,5.092c0,2.073-0.945,3.411-2.415,4.12v0.053
		c1.968,0.656,3.018,2.178,3.018,4.619C64.104,20.701,61.978,22.958,57.07,22.958z M56.913,7.578h-2.546v3.465h2.598
		c1.181,0,1.601-0.446,1.601-1.785C58.566,7.973,58.12,7.578,56.913,7.578z M57.044,14.875h-2.677v3.884h2.782
		c1.286,0,1.759-0.42,1.759-1.968C58.907,15.426,58.487,14.875,57.044,14.875z"/>
	<path fill="#1A1A18" d="M78.927,18.522l-0.104,4.436H66.146V3.274h12.335l0.105,4.514h-7.322v3.045H77.3v4.12h-6.036v3.569H78.927z
		"/>
	<path fill="#1A1A18" d="M92.466,14.901l3.832,8.057h-5.932l-2.625-7.033H86.01v7.033h-5.118V3.274h6.798
		c4.986,0,7.453,1.89,7.453,6.325C95.143,12.224,94.198,14.166,92.466,14.901z M87.794,7.526H86.01v4.54h1.758
		c1.496,0,2.021-0.367,2.021-2.283C89.789,7.998,89.29,7.526,87.794,7.526z"/>
	<path fill="#1A1A18" d="M110.36,18.522l-0.105,4.436H97.579V3.274h12.335l0.105,4.514h-7.323v3.045h6.037v4.12h-6.037v3.569H110.36
		z"/>
	<path fill="#1A1A18" d="M130.012,8.024c-0.866-0.314-2.047-0.524-3.281-0.524c-2.913,0-3.648,1.233-3.648,5.537
		c0,4.541,0.813,5.801,3.727,5.801c1.208,0,2.336-0.236,3.255-0.656l0.472,4.173c-1.181,0.577-2.966,0.945-4.488,0.945
		c-5.617,0-8.346-3.202-8.346-10.288c0-6.614,2.651-10.078,8.661-10.078c1.391,0,3.097,0.314,4.146,0.734L130.012,8.024z"/>
	<path fill="#1A1A18" d="M142.867,19.521h-5.354l-0.761,3.438h-5.433l5.827-19.684h6.272l5.932,19.684h-5.722L142.867,19.521z
		 M139.744,9.6l-1.26,5.643h3.438l-1.26-5.643l-0.394-2.1h-0.079L139.744,9.6z"/>
	<path fill="#1A1A18" d="M155.854,23.3c-2.073,0-4.12-0.473-5.721-1.365l0.656-4.356c1.601,0.813,3.229,1.312,4.935,1.312
		c1.627,0,2.257-0.552,2.257-1.602c0-2.52-7.821-1.732-7.821-8.162c0-3.438,2.1-6.168,6.955-6.168c1.811,0,3.753,0.342,5.17,0.945
		l-0.578,4.278c-1.496-0.446-2.992-0.709-4.251-0.709c-1.942,0-2.362,0.577-2.362,1.417c0,2.546,7.821,1.68,7.821,8.11
		C162.914,20.885,160.289,23.3,155.854,23.3z"/>
	<path fill="#1A1A18" d="M174.641,22.958v-7.716h-4.777v7.716h-5.118V3.274h5.118v7.375h4.777V3.274h5.144v19.684H174.641z"/>
	<path fill="#1A1A18" d="M190.094,22.958h-7.664V3.274h7.716c4.225,0,6.377,1.969,6.377,5.092c0,2.073-0.945,3.411-2.415,4.12v0.053
		c1.968,0.656,3.018,2.178,3.018,4.619C197.128,20.701,195.002,22.958,190.094,22.958z M189.937,7.578h-2.546v3.465h2.598
		c1.181,0,1.601-0.446,1.601-1.785C191.59,7.973,191.144,7.578,189.937,7.578z M190.068,14.875h-2.677v3.884h2.782
		c1.286,0,1.759-0.42,1.759-1.968C191.932,15.426,191.512,14.875,190.068,14.875z"/>
	<path fill="#1A1A18" d="M208.96,19.521h-5.354l-0.761,3.438h-5.433l5.827-19.684h6.272l5.932,19.684h-5.722L208.96,19.521z
		 M205.837,9.6l-1.26,5.643h3.438l-1.26-5.643l-0.394-2.1h-0.079L205.837,9.6z"/>
	<path fill="#1A1A18" d="M227.799,8.024c-0.866-0.314-2.047-0.524-3.281-0.524c-2.913,0-3.648,1.233-3.648,5.537
		c0,4.541,0.813,5.801,3.727,5.801c1.207,0,2.335-0.236,3.254-0.656l0.473,4.173c-1.181,0.577-2.966,0.945-4.488,0.945
		c-5.617,0-8.346-3.202-8.346-10.288c0-6.614,2.651-10.078,8.661-10.078c1.391,0,3.097,0.314,4.146,0.734L227.799,8.024z"/>
	<path fill="#1A1A18" d="M240.288,22.958l-3.701-8.005h-1.26v8.005h-5.118V3.274h5.118v7.611h1.365l3.648-7.611h5.748l-4.724,9.422
		l4.96,10.262H240.288z"/>
	<path fill="#1A1A18" d="M263.823,19.521h-5.354l-0.761,3.438h-5.433l5.826-19.684h6.272l5.932,19.684h-5.722L263.823,19.521z
		 M260.7,9.6l-1.26,5.643h3.438l-1.26-5.643l-0.394-2.1h-0.079L260.7,9.6z"/>
	<path fill="#1A1A18" d="M283.134,22.958l-5.879-9.081l-1.102-1.811l-0.052,0.026l0.026,2.126v8.739h-4.514V3.274h4.304
		l6.325,10.209l0.052-0.026l-0.052-2.1l0.026-8.083h4.514v19.684H283.134z"/>
	<path fill="#1A1A18" d="M303.364,22.25c-1.365,0.655-3.596,1.075-5.617,1.075c-6.509,0-8.818-3.49-8.818-10.209
		c0-6.876,2.704-10.183,9.055-10.183c1.732,0,3.701,0.314,5.118,0.865l-0.472,4.384c-1.286-0.473-2.939-0.762-4.357-0.762
		c-3.228,0-3.963,1.207-3.963,5.643c0,4.672,0.761,5.695,3.307,5.695c0.394,0,0.814-0.026,1.181-0.104v-6.431h4.567V22.25z"/>
	<path fill="#1A1A18" d="M318.477,18.522l-0.104,4.436h-12.677V3.274h12.335l0.105,4.514h-7.322v3.045h6.036v4.12h-6.036v3.569
		H318.477z"/>
	<path fill="#1A1A18" d="M328.104,22.958h-7.664V3.274h7.716c4.226,0,6.377,1.969,6.377,5.092c0,2.073-0.945,3.411-2.415,4.12v0.053
		c1.968,0.656,3.018,2.178,3.018,4.619C335.138,20.701,333.013,22.958,328.104,22.958z M327.947,7.578h-2.546v3.465H328
		c1.181,0,1.601-0.446,1.601-1.785C329.601,7.973,329.154,7.578,327.947,7.578z M328.078,14.875h-2.677v3.884h2.782
		c1.286,0,1.758-0.42,1.758-1.968C329.942,15.426,329.522,14.875,328.078,14.875z"/>
	<path fill="#1A1A18" d="M344.897,23.3c-5.669,0-8.241-2.992-8.241-10.184c0-7.218,2.467-10.157,8.241-10.157
		s8.241,2.939,8.241,10.157C353.138,20.518,350.671,23.3,344.897,23.3z M344.871,7.553c-2.152,0-2.834,0.892-2.834,5.563
		c0,4.698,0.708,5.643,2.887,5.643c2.179,0,2.835-0.971,2.835-5.643C347.758,8.418,347.102,7.553,344.871,7.553z"/>
	<path fill="#1A1A18" d="M363.315,7.867v15.091h-5.223V7.867h-4.461l0.105-4.593h13.936l0.105,4.593H363.315z"/>
	<path fill="#1A1A18" d="M382.13,18.522l-0.105,4.436h-12.676V3.274h12.335l0.105,4.514h-7.323v3.045h6.037v4.12h-6.037v3.569
		H382.13z"/>
	<path fill="#1A1A18" d="M386.193,23.273c-1.837,0-2.65-0.709-2.65-2.493c0-1.602,0.813-2.52,2.65-2.52s2.624,0.918,2.624,2.52
		C388.817,22.275,388.03,23.273,386.193,23.273z"/>
</g>
</svg>
