<?xml version="1.0" encoding="utf-8"?>
<!-- Generator: Adobe Illustrator 16.0.0, SVG Export Plug-In . SVG Version: 6.00 Build 0)  -->
<!DOCTYPE svg PUBLIC "-//W3C//DTD SVG 1.1//EN" "http://www.w3.org/Graphics/SVG/1.1/DTD/svg11.dtd">
<svg version="1.1" id="Ebene_1" xmlns="http://www.w3.org/2000/svg" xmlns:xlink="http://www.w3.org/1999/xlink" x="0px" y="0px"
	 width="388.198px" height="15.594px" viewBox="0 0 388.198 15.594" enable-background="new 0 0 388.198 15.594"
	 xml:space="preserve">
<g>
	<path fill="#1A1A18" d="M7.452,9.553H2.357l-1.002,2.795H0.353L4.375,1.762h1.101l4.022,10.586H8.455L7.452,9.553z M4.545,3.54
		L2.667,8.721h4.488L5.307,3.54L4.954,2.453H4.912L4.545,3.54z"/>
	<path fill="#1A1A18" d="M12.137,7.464h1.327l2.908-3.458h1.101L14.24,7.817l3.373,4.53h-1.086l-3.063-4.121h-1.327v4.121h-0.861
		V1.112l0.861-0.057V7.464z"/>
	<path fill="#1A1A18" d="M20.646,4.712v5.632c0,1.002,0.522,1.397,1.355,1.397c0.24,0,0.536-0.043,0.706-0.113l0.071,0.678
		c-0.226,0.099-0.635,0.169-1.002,0.169c-1.299,0-1.99-0.678-1.99-2.103v-5.66h-1.299V4.021h1.313l0.169-2.188l0.677-0.084v2.272
		h2.188v0.691H20.646z"/>
	<path fill="#1A1A18" d="M25.571,2.312c-0.424,0-0.664-0.142-0.664-0.593c0-0.381,0.24-0.593,0.664-0.593
		c0.423,0,0.663,0.212,0.663,0.593C26.234,2.129,25.994,2.312,25.571,2.312z M25.133,12.348V4.062l0.861-0.07v8.355H25.133z"/>
	<path fill="#1A1A18" d="M32.062,12.531c-2.428,0-3.514-1.214-3.514-4.333c0-3.091,1.101-4.319,3.514-4.319
		c2.442,0,3.472,1.229,3.472,4.319C35.535,11.317,34.504,12.531,32.062,12.531z M32.062,11.783c1.863,0,2.583-0.988,2.583-3.585
		c0-2.583-0.72-3.557-2.583-3.557c-1.877,0-2.625,0.974-2.625,3.557C29.438,10.81,30.186,11.783,32.062,11.783z"/>
	<path fill="#1A1A18" d="M43,12.348V6.73c0-1.426-0.791-2.033-2.202-2.033c-0.818,0-1.807,0.396-2.272,1.13v6.521h-0.847V4.034
		l0.607-0.057l0.155,1.002h0.042c0.564-0.691,1.524-1.101,2.526-1.101c1.764,0,2.837,0.918,2.837,2.837v5.632H43z"/>
	<path fill="#1A1A18" d="M48.446,12.517c-0.988,0-1.919-0.268-2.541-0.762l0.141-0.776c0.607,0.508,1.539,0.79,2.385,0.79
		c1.412,0,2.004-0.72,2.004-1.68c0-2.229-4.488-1.27-4.488-4.022c0-1.354,0.974-2.188,2.767-2.188c0.79,0,1.524,0.155,2.188,0.48
		l-0.084,0.748c-0.692-0.311-1.426-0.466-2.117-0.466c-1.186,0-1.934,0.536-1.934,1.383c0,2.075,4.475,1.045,4.475,3.98
		C51.241,11.515,50.379,12.517,48.446,12.517z"/>
	<path fill="#1A1A18" d="M54.712,8.565c-0.565,0.127-0.861,0.409-0.861,0.762c0,0.324,0.254,0.593,0.946,0.663l1.919,0.198
		c2.047,0.211,2.654,0.832,2.654,1.934c0,1.468-0.847,2.399-3.374,2.399c-2.188,0-3.105-0.875-3.105-2.202
		c0-0.635,0.325-1.256,0.917-1.708c-0.424-0.184-0.762-0.55-0.762-1.115c0-0.508,0.381-0.959,1.073-1.199
		c-0.593-0.324-1.017-0.945-1.017-1.976c0-1.567,0.791-2.442,2.809-2.442c0.72,0,1.482,0.142,2.032,0.579l1.341-0.607l0.198,0.438
		l-1.073,0.72c0.184,0.339,0.296,0.763,0.296,1.299c0,1.566-0.706,2.414-2.794,2.414C55.516,8.721,55.093,8.678,54.712,8.565z
		 M54.557,10.767c-0.593,0.381-0.903,0.946-0.903,1.454c0,0.988,0.677,1.581,2.314,1.581c2.061,0,2.597-0.636,2.597-1.567
		c0-0.72-0.367-1.114-1.976-1.256L54.557,10.767z M53.936,6.335c0,1.397,0.847,1.708,1.962,1.708c1.524,0,1.99-0.593,1.99-1.708
		c0-1.284-0.607-1.736-1.976-1.736C54.472,4.599,53.936,5.178,53.936,6.335z"/>
	<path fill="#1A1A18" d="M60.652,7.901c0-2.611,1.115-4.022,3.317-4.022c1.877,0,3.189,1.144,3.189,3.839
		c0,0.127-0.014,0.311-0.028,0.424h-5.604c0.042,2.668,0.932,3.571,2.921,3.571c0.875,0,1.595-0.212,2.301-0.593l0.113,0.748
		c-0.72,0.409-1.524,0.648-2.498,0.648C61.711,12.517,60.652,11.12,60.652,7.901z M66.369,7.534
		c-0.028-2.103-1.017-2.893-2.399-2.893c-1.637,0-2.372,0.974-2.456,2.893H66.369z"/>
	<path fill="#1A1A18" d="M69.274,12.348V4.062l0.691-0.057l0.028,0.932l0.028,1.144h0.028c0.48-1.299,1.454-2.174,2.71-2.174
		c0.282,0,0.55,0.028,0.791,0.099l-0.071,0.89c-0.24-0.085-0.494-0.113-0.762-0.113c-1.411,0-2.597,1.299-2.597,3.317v4.248H69.274z
		"/>
	<path fill="#1A1A18" d="M79.973,11.176l-0.042-0.014c-0.452,0.79-1.44,1.312-2.597,1.312c-1.51,0-2.555-0.748-2.555-2.611
		c0-1.581,0.974-2.483,3.006-2.483c0.748,0,1.51,0.154,2.075,0.366v-1.03c0-1.581-0.663-2.089-2.131-2.089
		c-0.861,0-1.637,0.155-2.357,0.522l-0.099-0.748c0.79-0.367,1.637-0.551,2.597-0.551c2.033,0,2.852,0.833,2.852,2.992v5.505h-0.649
		L79.973,11.176z M79.859,8.424c-0.211-0.155-0.945-0.396-1.948-0.396c-1.609,0-2.314,0.664-2.314,1.821
		c0,1.411,0.847,1.892,1.962,1.892c1.213,0,2.3-0.848,2.3-1.652V8.424z M76.867,2.214c-0.325,0-0.494-0.142-0.494-0.537
		c0-0.338,0.169-0.55,0.494-0.55s0.494,0.197,0.494,0.55C77.361,2.044,77.192,2.214,76.867,2.214z M78.97,2.214
		c-0.325,0-0.494-0.142-0.494-0.537c0-0.338,0.169-0.55,0.494-0.55s0.494,0.197,0.494,0.55C79.464,2.044,79.295,2.214,78.97,2.214z"
		/>
	<path fill="#1A1A18" d="M84.6,4.712v5.632c0,1.002,0.522,1.397,1.355,1.397c0.24,0,0.536-0.043,0.706-0.113l0.071,0.678
		c-0.226,0.099-0.635,0.169-1.002,0.169c-1.299,0-1.99-0.678-1.99-2.103v-5.66H82.44V4.021h1.313l0.169-2.188L84.6,1.748v2.272
		h2.188v0.691H84.6z"/>
	<path fill="#1A1A18" d="M94.154,7.464h1.327l2.908-3.458h1.101l-3.232,3.812l3.373,4.53h-1.086L95.48,8.227h-1.327v4.121h-0.861
		V1.112l0.861-0.057V7.464z"/>
	<path fill="#1A1A18" d="M106.009,11.176l-0.042-0.014c-0.452,0.79-1.44,1.312-2.597,1.312c-1.51,0-2.555-0.748-2.555-2.611
		c0-1.581,0.974-2.483,3.006-2.483c0.748,0,1.51,0.154,2.075,0.366v-1.03c0-1.581-0.663-2.089-2.131-2.089
		c-0.861,0-1.637,0.155-2.357,0.522l-0.099-0.748c0.79-0.367,1.637-0.551,2.597-0.551c2.033,0,2.852,0.833,2.852,2.992v5.505h-0.649
		L106.009,11.176z M105.896,8.424c-0.211-0.155-0.945-0.396-1.948-0.396c-1.609,0-2.314,0.664-2.314,1.821
		c0,1.411,0.847,1.892,1.962,1.892c1.213,0,2.3-0.848,2.3-1.652V8.424z"/>
	<path fill="#1A1A18" d="M115.28,9.723c0,1.75-1.002,2.794-3.091,2.794c-2.075,0-3.077-1.059-3.077-2.794V4.021h0.847v5.674
		c0,1.299,0.762,2.004,2.23,2.004c1.468,0,2.244-0.691,2.244-2.004V4.021h0.847V9.723z"/>
	<path fill="#1A1A18" d="M118.355,12.348v-7.65h-1.341V4.021h1.341V3.611c0-1.482,0.776-2.484,2.654-2.484
		c0.409,0,0.889,0.07,1.171,0.169l-0.071,0.607c-0.282-0.071-0.621-0.127-0.988-0.127c-1.327,0-1.905,0.691-1.905,1.849v0.396h2.343
		v0.677h-2.343v7.65H118.355z"/>
	<path fill="#1A1A18" d="M122.674,7.901c0-2.611,1.115-4.022,3.317-4.022c1.877,0,3.189,1.144,3.189,3.839
		c0,0.127-0.014,0.311-0.028,0.424h-5.604c0.042,2.668,0.932,3.571,2.921,3.571c0.875,0,1.595-0.212,2.301-0.593l0.113,0.748
		c-0.72,0.409-1.524,0.648-2.498,0.648C123.732,12.517,122.674,11.12,122.674,7.901z M128.39,7.534
		c-0.028-2.103-1.017-2.893-2.399-2.893c-1.637,0-2.372,0.974-2.456,2.893H128.39z"/>
	<path fill="#1A1A18" d="M136.617,12.348V6.73c0-1.426-0.791-2.033-2.202-2.033c-0.818,0-1.807,0.396-2.272,1.13v6.521h-0.847V4.034
		l0.607-0.057l0.155,1.002h0.042c0.564-0.691,1.524-1.101,2.526-1.101c1.764,0,2.837,0.918,2.837,2.837v5.632H136.617z"/>
	<path fill="#1A1A18" d="M150.517,9.723c0,1.75-1.002,2.794-3.091,2.794c-2.075,0-3.077-1.059-3.077-2.794V4.021h0.847v5.674
		c0,1.299,0.762,2.004,2.23,2.004c1.468,0,2.244-0.691,2.244-2.004V4.021h0.847V9.723z"/>
	<path fill="#1A1A18" d="M158.363,12.348V6.73c0-1.426-0.791-2.033-2.202-2.033c-0.818,0-1.807,0.396-2.272,1.13v6.521h-0.847V4.034
		l0.607-0.057l0.155,1.002h0.042c0.564-0.691,1.524-1.101,2.526-1.101c1.764,0,2.837,0.918,2.837,2.837v5.632H158.363z"/>
	<path fill="#1A1A18" d="M167.183,12.348l-0.141-0.974L167,11.359c-0.522,0.763-1.412,1.157-2.583,1.157
		c-2.314,0-3.218-1.354-3.218-4.333c0-2.865,0.959-4.305,3.232-4.305c1.016,0,1.948,0.367,2.541,1.087L167,4.952l-0.028-1.13V1.127
		l0.861-0.071v11.292H167.183z M166.971,5.841c-0.409-0.691-1.27-1.144-2.329-1.144c-1.863,0-2.569,1.017-2.569,3.515
		c0,2.569,0.649,3.571,2.555,3.571c1.397,0,2.075-0.691,2.343-1.214V5.841z"/>
	<path fill="#1A1A18" d="M178.486,12.503c-1.073,0-2.032-0.409-2.569-1.144l-0.042,0.015l-0.169,0.974h-0.564V1.099l0.861-0.057
		v2.767l-0.014,1.129l0.028,0.015c0.593-0.706,1.524-1.087,2.569-1.087c1.948,0,3.189,1.072,3.189,4.305
		C181.774,11.346,180.575,12.503,178.486,12.503z M178.359,4.669c-1.016,0-1.877,0.438-2.357,1.172v4.714
		c0.367,0.636,1.186,1.214,2.385,1.214c1.482,0,2.512-0.748,2.512-3.585C180.899,5.39,179.954,4.669,178.359,4.669z"/>
	<path fill="#1A1A18" d="M184.751,2.312c-0.424,0-0.664-0.142-0.664-0.593c0-0.381,0.24-0.593,0.664-0.593
		c0.423,0,0.663,0.212,0.663,0.593C185.414,2.129,185.174,2.312,184.751,2.312z M184.313,12.348V4.062l0.861-0.07v8.355H184.313z"/>
	<path fill="#1A1A18" d="M190.339,12.517c-0.988,0-1.919-0.268-2.541-0.762l0.141-0.776c0.607,0.508,1.539,0.79,2.385,0.79
		c1.412,0,2.004-0.72,2.004-1.68c0-2.229-4.488-1.27-4.488-4.022c0-1.354,0.974-2.188,2.767-2.188c0.79,0,1.524,0.155,2.188,0.48
		l-0.084,0.748c-0.692-0.311-1.426-0.466-2.117-0.466c-1.186,0-1.934,0.536-1.934,1.383c0,2.075,4.475,1.045,4.475,3.98
		C193.134,11.515,192.273,12.517,190.339,12.517z"/>
	<path fill="#1A1A18" d="M201.021,10.654l-0.649,0.889l0.014,0.043h4.728l-0.028,0.762h-5.745v-0.621l4.051-5.999l0.649-0.903
		l-0.014-0.027h-4.502l0.028-0.776h5.504v0.635L201.021,10.654z"/>
	<path fill="#1A1A18" d="M213.384,9.723c0,1.75-1.002,2.794-3.091,2.794c-2.075,0-3.077-1.059-3.077-2.794V4.021h0.847v5.674
		c0,1.299,0.762,2.004,2.23,2.004c1.468,0,2.244-0.691,2.244-2.004V4.021h0.847V9.723z"/>
	<path fill="#1A1A18" d="M226.057,9.878v2.47h-0.833v-2.47h-5.011l-0.084-0.607l4.799-7.509h1.129v7.297h1.468l-0.042,0.819H226.057
		z M225.28,3.653l0.042-1.144l-0.028-0.014l-0.607,0.987L221.78,8.1l-0.621,0.917l0.014,0.042h4.065L225.28,3.653z"/>
	<path fill="#1A1A18" d="M232.928,12.503c-2.611,0-3.698-1.468-3.698-5.448c0-4.037,1.087-5.434,3.712-5.434
		c2.597,0,3.684,1.396,3.684,5.434C236.626,11.035,235.525,12.503,232.928,12.503z M232.942,2.468c-1.934,0-2.837,0.932-2.837,4.573
		c0,3.684,0.903,4.629,2.837,4.629c1.92,0,2.795-0.945,2.795-4.629C235.737,3.385,234.862,2.468,232.942,2.468z"/>
	<path fill="#1A1A18" d="M242.157,12.503c-2.611,0-3.698-1.468-3.698-5.448c0-4.037,1.087-5.434,3.712-5.434
		c2.597,0,3.684,1.396,3.684,5.434C245.855,11.035,244.754,12.503,242.157,12.503z M242.171,2.468c-1.934,0-2.837,0.932-2.837,4.573
		c0,3.684,0.903,4.629,2.837,4.629c1.919,0,2.795-0.945,2.795-4.629C244.966,3.385,244.091,2.468,242.171,2.468z"/>
	<path fill="#1A1A18" d="M258.132,8.128h-4.079c0.254,2.512,1.397,3.542,3.514,3.542c0.917,0,1.863-0.296,2.654-0.776l0.099,0.748
		c-0.734,0.509-1.821,0.819-2.936,0.819c-2.724,0-3.98-1.384-4.234-4.333h-1.313l0.014-0.594h1.271
		c-0.014-0.211-0.014-0.423-0.014-0.648V6.532h-1.256l-0.014-0.606h1.313c0.254-2.767,1.722-4.263,4.319-4.263
		c0.988,0,1.976,0.212,2.597,0.551l-0.212,0.762c-0.734-0.311-1.341-0.466-2.244-0.466c-2.131,0-3.303,1.186-3.557,3.416h4.799
		l-0.155,0.606h-4.7v0.409c0,0.212,0,0.41,0.014,0.593h4.276L258.132,8.128z"/>
	<path fill="#1A1A18" d="M272.822,2.962c-0.579-0.269-1.425-0.48-2.3-0.48c-2.414,0-3.543,1.102-3.543,4.46
		c0,3.586,1.143,4.715,3.585,4.715c0.889,0,1.651-0.212,2.287-0.551l0.155,0.805c-0.635,0.339-1.609,0.635-2.555,0.635
		c-3.077,0-4.432-1.707-4.432-5.604c0-3.712,1.383-5.349,4.46-5.349c0.889,0,1.919,0.239,2.47,0.508L272.822,2.962z"/>
	<path fill="#1A1A18" d="M279.709,11.176l-0.042-0.014c-0.452,0.79-1.44,1.312-2.597,1.312c-1.51,0-2.555-0.748-2.555-2.611
		c0-1.581,0.974-2.483,3.006-2.483c0.748,0,1.51,0.154,2.075,0.366v-1.03c0-1.581-0.663-2.089-2.131-2.089
		c-0.861,0-1.637,0.155-2.357,0.522l-0.099-0.748c0.79-0.367,1.637-0.551,2.597-0.551c2.033,0,2.852,0.833,2.852,2.992v5.505h-0.649
		L279.709,11.176z M279.596,8.424c-0.211-0.155-0.945-0.396-1.948-0.396c-1.609,0-2.314,0.664-2.314,1.821
		c0,1.411,0.847,1.892,1.962,1.892c1.213,0,2.3-0.848,2.3-1.652V8.424z"/>
	<path fill="#1A1A18" d="M285.042,12.517c-0.988,0-1.919-0.268-2.541-0.762l0.141-0.776c0.607,0.508,1.539,0.79,2.385,0.79
		c1.412,0,2.004-0.72,2.004-1.68c0-2.229-4.488-1.27-4.488-4.022c0-1.354,0.974-2.188,2.767-2.188c0.79,0,1.524,0.155,2.188,0.48
		l-0.084,0.748c-0.692-0.311-1.426-0.466-2.117-0.466c-1.186,0-1.934,0.536-1.934,1.383c0,2.075,4.475,1.045,4.475,3.98
		C287.837,11.515,286.976,12.517,285.042,12.517z"/>
	<path fill="#1A1A18" d="M295.274,12.348V6.716c0-1.284-0.691-2.019-2.173-2.019c-1.03,0-1.906,0.509-2.272,1.144v6.507h-0.861
		V1.127l0.861-0.071v2.738l-0.014,1.13l0.028,0.014c0.579-0.691,1.468-1.072,2.484-1.072c1.835,0,2.809,1.002,2.809,2.851v5.632
		H295.274z"/>
	<path fill="#1A1A18" d="M302.089,12.503c-1.073,0-2.032-0.409-2.569-1.144l-0.042,0.015l-0.169,0.974h-0.564V1.099l0.861-0.057
		v2.767l-0.014,1.129l0.028,0.015c0.593-0.706,1.524-1.087,2.569-1.087c1.948,0,3.189,1.072,3.189,4.305
		C305.378,11.346,304.178,12.503,302.089,12.503z M301.962,4.669c-1.016,0-1.877,0.438-2.357,1.172v4.714
		c0.367,0.636,1.186,1.214,2.385,1.214c1.482,0,2.512-0.748,2.512-3.585C304.503,5.39,303.558,4.669,301.962,4.669z"/>
	<path fill="#1A1A18" d="M312.278,11.176l-0.042-0.014c-0.452,0.79-1.44,1.312-2.597,1.312c-1.51,0-2.555-0.748-2.555-2.611
		c0-1.581,0.974-2.483,3.006-2.483c0.748,0,1.51,0.154,2.075,0.366v-1.03c0-1.581-0.663-2.089-2.131-2.089
		c-0.861,0-1.637,0.155-2.357,0.522l-0.099-0.748c0.79-0.367,1.637-0.551,2.597-0.551c2.033,0,2.852,0.833,2.852,2.992v5.505h-0.649
		L312.278,11.176z M312.165,8.424c-0.211-0.155-0.945-0.396-1.948-0.396c-1.609,0-2.314,0.664-2.314,1.821
		c0,1.411,0.847,1.892,1.962,1.892c1.213,0,2.3-0.848,2.3-1.652V8.424z"/>
	<path fill="#1A1A18" d="M320.435,5.135c-0.522-0.254-1.172-0.438-1.835-0.438c-1.948,0-2.71,1.003-2.71,3.388
		c0,2.696,0.917,3.656,2.682,3.656c0.706,0,1.397-0.198,1.919-0.579l0.085,0.748c-0.494,0.367-1.299,0.621-2.16,0.621
		c-2.287,0-3.416-1.299-3.416-4.446c0-2.837,1.044-4.206,3.43-4.206c0.776,0,1.524,0.197,2.075,0.466L320.435,5.135z"/>
	<path fill="#1A1A18" d="M323.553,7.464h1.327l2.908-3.458h1.101l-3.232,3.812l3.373,4.53h-1.086l-3.063-4.121h-1.327v4.121h-0.861
		V1.112l0.861-0.057V7.464z"/>
	<path fill="#1A1A18" d="M337.283,12.517c-0.988,0-1.919-0.268-2.541-0.762l0.141-0.776c0.607,0.508,1.539,0.79,2.385,0.79
		c1.412,0,2.004-0.72,2.004-1.68c0-2.229-4.488-1.27-4.488-4.022c0-1.354,0.974-2.188,2.767-2.188c0.79,0,1.524,0.155,2.188,0.48
		l-0.084,0.748c-0.692-0.311-1.426-0.466-2.117-0.466c-1.186,0-1.934,0.536-1.934,1.383c0,2.075,4.475,1.045,4.475,3.98
		C340.078,11.515,339.217,12.517,337.283,12.517z"/>
	<path fill="#1A1A18" d="M342.957,2.312c-0.424,0-0.664-0.142-0.664-0.593c0-0.381,0.24-0.593,0.664-0.593
		c0.423,0,0.663,0.212,0.663,0.593C343.62,2.129,343.38,2.312,342.957,2.312z M342.519,12.348V4.062l0.861-0.07v8.355H342.519z"/>
	<path fill="#1A1A18" d="M351.368,5.135c-0.522-0.254-1.172-0.438-1.835-0.438c-1.948,0-2.71,1.003-2.71,3.388
		c0,2.696,0.917,3.656,2.682,3.656c0.706,0,1.397-0.198,1.919-0.579l0.085,0.748c-0.494,0.367-1.299,0.621-2.16,0.621
		c-2.287,0-3.416-1.299-3.416-4.446c0-2.837,1.044-4.206,3.43-4.206c0.776,0,1.524,0.197,2.075,0.466L351.368,5.135z"/>
	<path fill="#1A1A18" d="M358.931,12.348V6.716c0-1.284-0.691-2.019-2.173-2.019c-1.03,0-1.906,0.509-2.272,1.144v6.507h-0.861
		V1.127l0.861-0.071v2.738l-0.014,1.13l0.028,0.014c0.579-0.691,1.468-1.072,2.484-1.072c1.835,0,2.809,1.002,2.809,2.851v5.632
		H358.931z"/>
	<path fill="#1A1A18" d="M361.781,7.901c0-2.611,1.115-4.022,3.317-4.022c1.877,0,3.189,1.144,3.189,3.839
		c0,0.127-0.014,0.311-0.028,0.424h-5.604c0.042,2.668,0.932,3.571,2.921,3.571c0.875,0,1.595-0.212,2.301-0.593l0.113,0.748
		c-0.72,0.409-1.524,0.648-2.498,0.648C362.839,12.517,361.781,11.12,361.781,7.901z M367.497,7.534
		c-0.028-2.103-1.017-2.893-2.399-2.893c-1.638,0-2.372,0.974-2.456,2.893H367.497z"/>
	<path fill="#1A1A18" d="M370.403,12.348V4.062l0.691-0.057l0.028,0.932l0.028,1.144h0.028c0.48-1.299,1.454-2.174,2.71-2.174
		c0.282,0,0.55,0.028,0.791,0.099l-0.071,0.89c-0.24-0.085-0.494-0.113-0.762-0.113c-1.411,0-2.597,1.299-2.597,3.317v4.248H370.403
		z"/>
	<path fill="#1A1A18" d="M381.891,12.348V6.73c0-1.426-0.791-2.033-2.202-2.033c-0.818,0-1.807,0.396-2.272,1.13v6.521h-0.847V4.034
		l0.607-0.057l0.155,1.002h0.042c0.564-0.691,1.524-1.101,2.526-1.101c1.764,0,2.837,0.918,2.837,2.837v5.632H381.891z"/>
	<path fill="#1A1A18" d="M386.067,12.489c-0.424,0-0.649-0.17-0.649-0.607c0-0.396,0.226-0.621,0.649-0.621
		c0.451,0,0.648,0.226,0.648,0.621S386.519,12.489,386.067,12.489z M385.729,9.651l-0.155-7.89h0.932l-0.155,7.89H385.729z"/>
</g>
</svg>
