<?xml version="1.0" encoding="utf-8"?>
<!-- Generator: Adobe Illustrator 16.0.0, SVG Export Plug-In . SVG Version: 6.00 Build 0)  -->
<!DOCTYPE svg PUBLIC "-//W3C//DTD SVG 1.1//EN" "http://www.w3.org/Graphics/SVG/1.1/DTD/svg11.dtd">
<svg version="1.1" id="Ebene_1" xmlns="http://www.w3.org/2000/svg" xmlns:xlink="http://www.w3.org/1999/xlink" x="0px" y="0px"
	 width="42.75px" height="11px" viewBox="0 0 42.75 11" enable-background="new 0 0 42.75 11" xml:space="preserve">
<g id="Text">
	<rect fill="#FFED00" width="42.75" height="11"/>
	<g>
		<path d="M9.538,6.792V6.279l0.963-1.53l0.177-0.266l-0.004-0.008H9.562l0.02-0.705h2.019v0.564L10.67,5.817l-0.178,0.262
			l0.005,0.012h1.111l-0.012,0.701H9.538z"/>
		<path d="M14.273,5.765c0,0.709-0.379,1.081-1.152,1.081s-1.164-0.371-1.164-1.081V3.771h0.79v1.978
			c0,0.271,0.104,0.392,0.374,0.392c0.274,0,0.367-0.113,0.367-0.392V3.771h0.785V5.765z"/>
		<path d="M16.531,5.555l0.589,1.237h-0.911l-0.402-1.08h-0.266v1.08h-0.785V3.771h1.043c0.766,0,1.144,0.29,1.144,0.971
			C16.942,5.145,16.798,5.442,16.531,5.555z M15.814,4.423h-0.273V5.12h0.27c0.229,0,0.311-0.056,0.311-0.351
			C16.121,4.496,16.045,4.423,15.814,4.423z"/>
		<path d="M19.981,6.264h-0.822l-0.116,0.528h-0.834l0.895-3.021h0.963l0.91,3.021h-0.879L19.981,6.264z M19.502,4.742l-0.193,0.866
			h0.527l-0.193-0.866L19.582,4.42H19.57L19.502,4.742z"/>
		<path d="M22.822,6.792l-0.567-1.229h-0.192v1.229h-0.786V3.771h0.786v1.168h0.209l0.561-1.168h0.882l-0.726,1.446l0.763,1.575
			H22.822z"/>
		<path d="M25.389,4.476v2.316h-0.803V4.476H23.9l0.017-0.705h2.14l0.016,0.705H25.389z"/>
		<path d="M26.445,3.771h0.81v3.021h-0.81V3.771z"/>
		<path d="M28.98,6.844c-0.869,0-1.265-0.459-1.265-1.563c0-1.107,0.38-1.559,1.265-1.559c0.887,0,1.266,0.451,1.266,1.559
			C30.246,6.417,29.867,6.844,28.98,6.844z M28.979,4.427c-0.33,0-0.436,0.137-0.436,0.854c0,0.721,0.107,0.866,0.441,0.866
			c0.336,0,0.437-0.148,0.437-0.866C29.421,4.561,29.32,4.427,28.979,4.427z"/>
		<path d="M32.443,6.792l-0.901-1.394L31.373,5.12l-0.01,0.004l0.006,0.327v1.341h-0.693V3.771h0.66l0.971,1.567l0.01-0.004
			l-0.01-0.322l0.004-1.241h0.693v3.021H32.443z"/>
	</g>
</g>
<g id="Screens">
</g>
</svg>
