<?xml version="1.0" encoding="utf-8"?>
<!-- Generator: Adobe Illustrator 23.1.1, SVG Export Plug-In . SVG Version: 6.00 Build 0)  -->
<!DOCTYPE svg PUBLIC "-//W3C//DTD SVG 1.1//EN" "http://www.w3.org/Graphics/SVG/1.1/DTD/svg11.dtd" [
	<!ENTITY ns_extend "http://ns.adobe.com/Extensibility/1.0/">
	<!ENTITY ns_ai "http://ns.adobe.com/AdobeIllustrator/10.0/">
	<!ENTITY ns_graphs "http://ns.adobe.com/Graphs/1.0/">
	<!ENTITY ns_vars "http://ns.adobe.com/Variables/1.0/">
	<!ENTITY ns_imrep "http://ns.adobe.com/ImageReplacement/1.0/">
	<!ENTITY ns_sfw "http://ns.adobe.com/SaveForWeb/1.0/">
	<!ENTITY ns_custom "http://ns.adobe.com/GenericCustomNamespace/1.0/">
	<!ENTITY ns_adobe_xpath "http://ns.adobe.com/XPath/1.0/">
]>
<svg version="1.1" id="Ebene_1" xmlns:x="&ns_extend;" xmlns:i="&ns_ai;" xmlns:graph="&ns_graphs;"
	 xmlns="http://www.w3.org/2000/svg" xmlns:xlink="http://www.w3.org/1999/xlink" x="0px" y="0px" viewBox="0 0 182.59 60.76"
	 style="enable-background:new 0 0 182.59 60.76;" xml:space="preserve">
<style type="text/css">
	.st0{fill-rule:evenodd;clip-rule:evenodd;}
</style>
<metadata>
	<sfw  xmlns="&ns_sfw;">
		<slices></slices>
		<sliceSourceBounds  bottomLeftOrigin="true" height="34.72" width="154.2" x="14" y="-49.2"></sliceSourceBounds>
	</sfw>
</metadata>
<path class="st0" d="M166.3,49.18c-1.33,0-1.92-0.51-1.92-1.81c0-1.16,0.59-1.82,1.92-1.82s1.9,0.66,1.9,1.82
	C168.2,48.46,167.63,49.18,166.3,49.18z M154.98,48.95V34.7h3.74v10.94h4.84l-0.1,3.31H154.98z M153.55,45.74l-0.08,3.21h-9.18V34.7
	h8.93l0.08,3.27H148v2.2h4.37v2.98H148v2.58H153.55z M141.56,29.2c-1.5,0-2.98-0.34-4.14-0.99l0.48-3.15
	c1.16,0.59,2.34,0.95,3.57,0.95c1.18,0,1.63-0.4,1.63-1.16c0-1.82-5.66-1.25-5.66-5.91c0-2.49,1.52-4.46,5.03-4.46
	c1.31,0,2.72,0.25,3.74,0.68l-0.42,3.1c-1.08-0.32-2.17-0.51-3.08-0.51c-1.4,0-1.71,0.42-1.71,1.03c0,1.84,5.66,1.22,5.66,5.87
	C146.67,27.45,144.77,29.2,141.56,29.2z M131.36,44.53h-1.18v4.43h-3.7V34.7h4.88c3.95,0,5.53,1.54,5.53,5.01
	C136.89,42.8,135.35,44.53,131.36,44.53z M131.36,37.8h-1.18v3.78h1.18c1.22,0,1.67-0.28,1.67-1.88
	C133.03,38.16,132.67,37.8,131.36,37.8z M136.41,25.74l-0.08,3.21h-9.18V14.7h8.93l0.08,3.27h-5.3v2.2h4.37v2.98h-4.37v2.58H136.41z
	 M122.79,28.95h-3.78V18.03h-3.23l0.08-3.33h10.09l0.08,3.33h-3.23V28.95z M111.16,28.95l-2.68-5.79h-0.91v5.79h-3.71V14.7h3.71
	v5.51h0.99l2.64-5.51h4.16l-3.42,6.82l3.59,7.43H111.16z M111.09,42.09l0.04-0.02l-0.04-1.52l0.02-5.85h3.27v14.25h-2.64l-4.26-6.57
	l-0.8-1.31l-0.04,0.02l0.02,1.54v6.33h-3.27V34.7h3.12L111.09,42.09z M102.44,25.74l-0.08,3.21h-9.17V14.7h8.93l0.08,3.27h-5.3v2.2
	h4.37v2.98h-4.37v2.58H102.44z M101.72,37.97h-5.3v2.2h4.37v2.98h-4.37v2.58h5.55l-0.08,3.21h-9.18V34.7h8.93L101.72,37.97z
	 M86.69,20.54h4.35l-0.02,3.15h-4.33v5.26h-3.72V14.7h8.91l0.06,3.33h-5.24V20.54z M77.74,28.95l-1.9-5.09h-1.25v5.09h-3.7V14.7
	h4.92c3.61,0,5.39,1.37,5.39,4.58c0,1.9-0.68,3.31-1.94,3.84l2.77,5.83H77.74z M75.88,17.78h-1.29v3.29h1.27
	c1.08,0,1.46-0.27,1.46-1.65C77.32,18.12,76.96,17.78,75.88,17.78z M74.59,48.95h-3.4v-5.97l0.04-1.54l-0.06-0.02l-0.47,1.48
	l-2.11,6.04h-2.41l-2.09-6.02l-0.48-1.48l-0.04,0.02l0.02,1.54v5.95h-3.25V34.7h4.08l2.51,7.2l0.47,1.46h0.06l0.47-1.44l2.55-7.22
	h4.1V48.95z M69.46,25.74l-0.08,3.21h-9.18V14.7h8.93l0.08,3.27h-5.3v2.2h4.37v2.98h-4.37v2.58H69.46z M54.7,46.46h-3.88l-0.55,2.49
	h-3.93l4.22-14.25h4.54l4.29,14.25h-4.14L54.7,46.46z M53.1,39.28l-0.28-1.52h-0.06l-0.32,1.52l-0.91,4.08h2.49L53.1,39.28z
	 M53.33,24.53h-1.18v4.43h-3.7V14.7h4.88c3.95,0,5.53,1.54,5.53,5.02C58.86,22.8,57.32,24.53,53.33,24.53z M53.33,17.8h-1.18v3.78
	h1.18c1.22,0,1.67-0.28,1.67-1.88C55,18.16,54.64,17.8,53.33,17.8z M41.26,49.2c-1.5,0-2.98-0.34-4.14-0.99l0.47-3.15
	c1.16,0.59,2.34,0.95,3.57,0.95c1.18,0,1.63-0.4,1.63-1.16c0-1.82-5.66-1.25-5.66-5.91c0-2.49,1.52-4.47,5.03-4.47
	c1.31,0,2.72,0.25,3.74,0.68l-0.42,3.1c-1.08-0.32-2.17-0.51-3.08-0.51c-1.41,0-1.71,0.42-1.71,1.03c0,1.84,5.66,1.22,5.66,5.87
	C46.37,47.45,44.47,49.2,41.26,49.2z M35.34,22.38l-0.8-1.31l-0.04,0.02l0.02,1.54v6.33h-3.27V14.7h3.11l4.58,7.39l0.04-0.02
	l-0.04-1.52l0.02-5.85h3.27v14.25h-2.64L35.34,22.38z M32.16,34.7h3.7v9.4c0,3.34-1.78,5.09-5.43,5.09c-3.65,0-5.49-1.75-5.49-5.09
	v-9.4h3.72v9.33c0,1.27,0.49,1.84,1.77,1.84c1.29,0,1.73-0.53,1.73-1.84V34.7z M25.34,14.7h3.82v14.25h-3.82V14.7z M14,48.95v-2.41
	l4.54-7.22l0.84-1.25l-0.02-0.04h-5.24l0.1-3.32h9.52v2.66l-4.39,6.99l-0.84,1.24l0.02,0.06h5.24l-0.06,3.31H14z M23.76,25.74
	l-0.07,3.21h-9.18V14.7h8.93l0.08,3.27h-5.3v2.2h4.37v2.98h-4.37v2.58H23.76z M83.12,41.9l0.48,1.46h0.06l0.47-1.44l2.55-7.22h4.1
	v14.25h-3.4v-5.97l0.04-1.54l-0.06-0.02l-0.48,1.48l-2.11,6.04h-2.41l-2.09-6.02l-0.47-1.48l-0.04,0.02l0.02,1.54v5.95h-3.25V34.7
	h4.08L83.12,41.9z M119.94,46.01c1.18,0,1.63-0.4,1.63-1.16c0-1.82-5.66-1.25-5.66-5.91c0-2.49,1.52-4.47,5.03-4.47
	c1.31,0,2.72,0.25,3.74,0.68l-0.42,3.1c-1.08-0.32-2.17-0.51-3.08-0.51c-1.4,0-1.71,0.42-1.71,1.03c0,1.84,5.66,1.22,5.66,5.87
	c0,2.81-1.9,4.56-5.11,4.56c-1.5,0-2.98-0.34-4.14-0.99l0.48-3.15C117.53,45.65,118.71,46.01,119.94,46.01z M142.21,48.95h-3.82
	V34.7h3.82V48.95z"/>
</svg>
