<?xml version="1.0" encoding="utf-8"?>
<!-- Generator: Adobe Illustrator 23.1.1, SVG Export Plug-In . SVG Version: 6.00 Build 0)  -->
<!DOCTYPE svg PUBLIC "-//W3C//DTD SVG 1.1//EN" "http://www.w3.org/Graphics/SVG/1.1/DTD/svg11.dtd" [
	<!ENTITY ns_extend "http://ns.adobe.com/Extensibility/1.0/">
	<!ENTITY ns_ai "http://ns.adobe.com/AdobeIllustrator/10.0/">
	<!ENTITY ns_graphs "http://ns.adobe.com/Graphs/1.0/">
	<!ENTITY ns_vars "http://ns.adobe.com/Variables/1.0/">
	<!ENTITY ns_imrep "http://ns.adobe.com/ImageReplacement/1.0/">
	<!ENTITY ns_sfw "http://ns.adobe.com/SaveForWeb/1.0/">
	<!ENTITY ns_custom "http://ns.adobe.com/GenericCustomNamespace/1.0/">
	<!ENTITY ns_adobe_xpath "http://ns.adobe.com/XPath/1.0/">
]>
<svg version="1.1" id="Ebene_1" xmlns:x="&ns_extend;" xmlns:i="&ns_ai;" xmlns:graph="&ns_graphs;"
	 xmlns="http://www.w3.org/2000/svg" xmlns:xlink="http://www.w3.org/1999/xlink" x="0px" y="0px" viewBox="0 0 182.59 60.76"
	 style="enable-background:new 0 0 182.59 60.76;" xml:space="preserve">
<style type="text/css">
	.st0{fill-rule:evenodd;clip-rule:evenodd;}
</style>
<metadata>
	<sfw  xmlns="&ns_sfw;">
		<slices></slices>
		<sliceSourceBounds  bottomLeftOrigin="true" height="37.76" width="135.24" x="16.52" y="-45.6"></sliceSourceBounds>
	</sfw>
</metadata>
<path class="st0" d="M148.53,14.43v10.92h-3.78V14.43h-3.23l0.08-3.33h10.09l0.08,3.33H148.53z M137.87,10.42
	c-0.93,0-1.41-0.36-1.41-1.27c0-0.85,0.47-1.31,1.41-1.31c0.97,0,1.41,0.46,1.41,1.31C139.27,9.98,138.84,10.42,137.87,10.42z
	 M134.24,10.42c-0.93,0-1.4-0.36-1.4-1.27c0-0.85,0.48-1.31,1.4-1.31c0.97,0,1.41,0.46,1.41,1.31
	C135.65,9.98,135.21,10.42,134.24,10.42z M133.8,11.1h4.54l4.29,14.25h-4.14l-0.55-2.49h-3.88l-0.55,2.49h-3.86h-0.07h-4.22
	l-1.9-5.09h-1.25v5.09h-3.7V11.1h4.92c3.61,0,5.4,1.37,5.4,4.58c0,1.9-0.68,3.31-1.94,3.84l2.73,5.74L133.8,11.1z M137.26,19.77
	l-0.91-4.09l-0.29-1.52h-0.06l-0.32,1.52l-0.91,4.09H137.26z M123.5,14.18h-1.29v3.29h1.27c1.08,0,1.46-0.27,1.46-1.65
	C124.95,14.52,124.59,14.18,123.5,14.18z M117.08,22.14l-0.08,3.21h-9.18V11.1h8.93l0.08,3.27h-5.3v2.2h4.37v2.98h-4.37v2.58H117.08
	z M102.07,25.62c-4.71,0-6.38-2.53-6.38-7.39c0-4.98,1.96-7.37,6.55-7.37c1.25,0,2.68,0.23,3.7,0.63l-0.34,3.17
	c-0.93-0.34-2.13-0.55-3.15-0.55c-2.34,0-2.87,0.87-2.87,4.08c0,3.38,0.55,4.12,2.39,4.12c0.29,0,0.59-0.02,0.85-0.08v-4.65h3.31
	v7.26C105.15,25.31,103.54,25.62,102.07,25.62z M97.08,43.77c0,1.08-0.57,1.81-1.9,1.81c-1.33,0-1.92-0.51-1.92-1.81
	c0-1.16,0.59-1.82,1.92-1.82C96.51,41.95,97.08,42.62,97.08,43.77z M89.63,25.6c-1.5,0-2.98-0.34-4.14-0.99l0.47-3.15
	c1.16,0.59,2.34,0.95,3.57,0.95c1.18,0,1.63-0.4,1.63-1.16c0-1.82-5.66-1.25-5.66-5.91c0-2.49,1.52-4.47,5.03-4.47
	c1.31,0,2.72,0.25,3.74,0.68l-0.42,3.1c-1.08-0.32-2.17-0.51-3.08-0.51c-1.41,0-1.71,0.42-1.71,1.03c0,1.84,5.66,1.22,5.66,5.87
	C94.74,23.85,92.84,25.6,89.63,25.6z M77.07,18.78l-0.8-1.31l-0.04,0.02l0.02,1.54v6.33h-3.27V11.1h3.11l4.58,7.39l0.04-0.02
	l-0.04-1.52l0.02-5.85h3.27v14.25h-2.64L77.07,18.78z M65.46,25.6c-4.1,0-5.96-2.17-5.96-7.37c0-5.22,1.79-7.35,5.96-7.35
	c4.18,0,5.97,2.13,5.97,7.35C71.43,23.58,69.64,25.6,65.46,25.6z M65.44,14.2c-1.56,0-2.05,0.65-2.05,4.03
	c0,3.4,0.51,4.08,2.09,4.08c1.58,0,2.05-0.7,2.05-4.08C67.53,14.83,67.06,14.2,65.44,14.2z M53.97,11.1h3.82v14.25h-3.82V11.1z
	 M48,45.6c-3.65,0-5.49-1.75-5.49-5.09v-9.4h3.72v9.33c0,1.27,0.49,1.84,1.77,1.84c1.29,0,1.73-0.53,1.73-1.84V31.1h3.7v9.4
	C53.43,43.85,51.65,45.6,48,45.6z M49.44,25.35h-3.78V14.43h-3.23l0.08-3.33H52.6l0.08,3.33h-3.23V25.35z M37.59,42.86h-3.88
	l-0.55,2.49h-3.93l4.22-14.25h4.54l4.29,14.25h-4.14L37.59,42.86z M35.99,35.68l-0.29-1.52h-0.06l-0.32,1.52l-0.91,4.08h2.49
	L35.99,35.68z M37.82,25.35l-2.68-5.79h-0.91v5.79h-3.7V11.1h3.7v5.51h0.99l2.64-5.51h4.16l-3.42,6.82l3.59,7.43H37.82z
	 M24.88,22.86H21l-0.55,2.49h-3.93l4.22-14.25h4.54l4.29,14.25h-4.14L24.88,22.86z M23.28,15.68L23,14.16h-0.06l-0.32,1.52
	l-0.91,4.09h2.49L23.28,15.68z M21.23,36.61h0.99l2.64-5.51h4.16l-3.42,6.82l3.59,7.43h-4.37l-2.68-5.79h-0.91v5.79h-3.7V31.1h3.7
	V36.61z M64.21,34.43h-5.24v2.51h4.35l-0.02,3.15h-4.33v5.26h-3.72V31.1h8.91L64.21,34.43z M74.47,34.37h-5.3v2.2h4.37v2.98h-4.37
	v2.58h5.55l-0.08,3.21h-9.18V31.1h8.93L74.47,34.37z M83.83,38.49l0.04-0.02l-0.04-1.52l0.02-5.85h3.27v14.25h-2.64l-4.25-6.57
	l-0.8-1.31l-0.04,0.02l0.02,1.54v6.33h-3.27V31.1h3.12L83.83,38.49z M90.58,41.95c1.33,0,1.9,0.66,1.9,1.82
	c0,1.08-0.57,1.81-1.9,1.81c-1.33,0-1.92-0.51-1.92-1.81C88.66,42.62,89.25,41.95,90.58,41.95z M99.68,41.95
	c1.33,0,1.9,0.66,1.9,1.82c0,1.08-0.57,1.81-1.9,1.81c-1.33,0-1.92-0.51-1.92-1.81C97.76,42.62,98.35,41.95,99.68,41.95z"/>
</svg>
