<?xml version="1.0" encoding="utf-8"?>
<!-- Generator: Adobe Illustrator 23.1.1, SVG Export Plug-In . SVG Version: 6.00 Build 0)  -->
<!DOCTYPE svg PUBLIC "-//W3C//DTD SVG 1.1//EN" "http://www.w3.org/Graphics/SVG/1.1/DTD/svg11.dtd" [
	<!ENTITY ns_extend "http://ns.adobe.com/Extensibility/1.0/">
	<!ENTITY ns_ai "http://ns.adobe.com/AdobeIllustrator/10.0/">
	<!ENTITY ns_graphs "http://ns.adobe.com/Graphs/1.0/">
	<!ENTITY ns_vars "http://ns.adobe.com/Variables/1.0/">
	<!ENTITY ns_imrep "http://ns.adobe.com/ImageReplacement/1.0/">
	<!ENTITY ns_sfw "http://ns.adobe.com/SaveForWeb/1.0/">
	<!ENTITY ns_custom "http://ns.adobe.com/GenericCustomNamespace/1.0/">
	<!ENTITY ns_adobe_xpath "http://ns.adobe.com/XPath/1.0/">
]>
<svg version="1.1" id="Ebene_1" xmlns:x="&ns_extend;" xmlns:i="&ns_ai;" xmlns:graph="&ns_graphs;"
	 xmlns="http://www.w3.org/2000/svg" xmlns:xlink="http://www.w3.org/1999/xlink" x="0px" y="0px" viewBox="0 0 182.59 60.76"
	 style="enable-background:new 0 0 182.59 60.76;" xml:space="preserve">
<style type="text/css">
	.st0{fill-rule:evenodd;clip-rule:evenodd;}
</style>
<metadata>
	<sfw  xmlns="&ns_sfw;">
		<slices></slices>
		<sliceSourceBounds  bottomLeftOrigin="true" height="54.74" width="169.02" x="6.78" y="-57.75"></sliceSourceBounds>
	</sfw>
</metadata>
<path class="st0" d="M170.5,11.61V9.14h5.3v2.47H170.5z M164.33,17.75c-1.5,0-2.98-0.34-4.14-0.99l0.47-3.15
	c1.16,0.59,2.34,0.95,3.57,0.95c1.18,0,1.63-0.4,1.63-1.16c0-1.82-5.66-1.25-5.66-5.91c0-2.49,1.52-4.47,5.03-4.47
	c1.31,0,2.72,0.25,3.74,0.68l-0.42,3.1c-1.08-0.32-2.16-0.51-3.08-0.51c-1.41,0-1.71,0.42-1.71,1.03c0,1.84,5.66,1.21,5.66,5.87
	C169.44,16,167.54,17.75,164.33,17.75z M154.85,17.77c-4.71,0-6.38-2.53-6.38-7.39c0-4.98,1.96-7.37,6.55-7.37
	c1.25,0,2.68,0.23,3.7,0.63l-0.34,3.17c-0.93-0.34-2.13-0.55-3.15-0.55c-2.34,0-2.87,0.87-2.87,4.08c0,3.38,0.55,4.12,2.39,4.12
	c0.29,0,0.59-0.02,0.85-0.08V9.73h3.31v7.26C157.92,17.47,156.31,17.77,154.85,17.77z M140.01,10.93l-0.8-1.31l-0.04,0.02l0.02,1.54
	v6.33h-3.27V3.26h3.12l4.58,7.39l0.04-0.02l-0.04-1.52l0.02-5.85h3.27V17.5h-2.64L140.01,10.93z M135.83,26.81
	c-1.08-0.32-2.16-0.51-3.08-0.51c-1.41,0-1.71,0.42-1.71,1.03c0,1.84,5.66,1.21,5.66,5.87c0,2.81-1.9,4.56-5.11,4.56
	c-1.5,0-2.98-0.34-4.14-0.99l0.47-3.15c1.16,0.59,2.34,0.95,3.57,0.95c1.18,0,1.63-0.4,1.63-1.16c0-1.82-5.66-1.25-5.66-5.91
	c0-2.49,1.52-4.47,5.03-4.47c1.31,0,2.72,0.25,3.74,0.68L135.83,26.81z M128.68,17.75c-3.65,0-5.49-1.75-5.49-5.09v-9.4h3.72v9.33
	c0,1.27,0.49,1.84,1.77,1.84c1.29,0,1.73-0.53,1.73-1.84V3.26h3.7v9.4C134.12,16,132.33,17.75,128.68,17.75z M125.78,37.5h-3.82
	V23.26h3.82V37.5z M117.57,17.77c-4.71,0-6.38-2.53-6.38-7.39c0-4.98,1.96-7.37,6.55-7.37c1.25,0,2.68,0.23,3.71,0.63l-0.34,3.17
	c-0.93-0.34-2.13-0.55-3.15-0.55c-2.34,0-2.87,0.87-2.87,4.08c0,3.38,0.55,4.12,2.39,4.12c0.28,0,0.59-0.02,0.85-0.08V9.73h3.31
	v7.26C120.65,17.47,119.03,17.77,117.57,17.77z M120.67,26.58h-3.23V37.5h-3.78V26.58h-3.23l0.08-3.32h10.09L120.67,26.58z
	 M105.66,3.26h3.82V17.5h-3.82V3.26z M96.67,10.93l-0.8-1.31l-0.04,0.02l0.02,1.54v6.33h-3.27V3.26h3.11l4.58,7.39l0.04-0.02
	l-0.04-1.52l0.02-5.85h3.27V17.5h-2.64L96.67,10.93z M97.73,27.83c0,1.9-0.68,3.31-1.94,3.84l2.73,5.74l4.19-14.15h4.54l4.29,14.25
	h-4.14l-0.55-2.49h-3.88l-0.55,2.49h-3.86h-0.08h-4.22l-1.9-5.09h-1.25v5.09h-3.7V23.26h4.92C95.95,23.26,97.73,24.62,97.73,27.83z
	 M106.17,31.92l-0.91-4.09l-0.28-1.52h-0.06l-0.32,1.52l-0.91,4.09H106.17z M92.41,26.33h-1.29v3.29h1.27
	c1.08,0,1.46-0.27,1.46-1.65C93.86,26.68,93.5,26.33,92.41,26.33z M86.68,3.26h3.82V17.5h-3.82V3.26z M89.73,43.26h3.72V57.5h-3.72
	v-5.58h-3.46v5.58h-3.7V43.26h3.7v5.34h3.46V43.26z M81.66,37.77c-4.71,0-6.38-2.53-6.38-7.39c0-4.98,1.96-7.37,6.55-7.37
	c1.25,0,2.68,0.23,3.7,0.63l-0.34,3.17c-0.93-0.34-2.13-0.55-3.15-0.55c-2.34,0-2.87,0.87-2.87,4.08c0,3.38,0.55,4.12,2.39,4.12
	c0.29,0,0.59-0.02,0.85-0.08v-4.65h3.31v7.26C84.74,37.47,83.12,37.77,81.66,37.77z M85.1,14.29l-0.08,3.21h-9.18V3.26h8.93
	l0.08,3.27h-5.3v2.2h4.37v2.98h-4.37v2.58H85.1z M70.62,17.5l-1.9-5.09h-1.25v5.09h-3.71V3.26h4.92c3.61,0,5.4,1.37,5.4,4.58
	c0,1.9-0.68,3.31-1.94,3.84l2.77,5.83H70.62z M68.76,6.33h-1.29v3.29h1.27c1.08,0,1.46-0.27,1.46-1.65
	C70.2,6.68,69.84,6.33,68.76,6.33z M65.32,34.2h4.85l-0.1,3.3h-8.49V23.26h3.74V34.2z M60.15,34.29l-0.08,3.21H50.9V23.26h8.93
	l0.08,3.27h-5.3v2.2h4.37v2.98H54.6v2.58H60.15z M51.91,17.5h-5.15V3.26h5.07c4.33,0,6.1,2.01,6.1,7.05
	C57.93,15.53,55.91,17.5,51.91,17.5z M51.85,6.54h-1.39v7.71h1.39c1.63,0,2.18-0.49,2.18-3.99C54.03,7.11,53.52,6.54,51.85,6.54z
	 M37.92,10.93l-0.8-1.31l-0.04,0.02l0.02,1.54v6.33h-3.27V3.26h3.12l4.58,7.39l0.04-0.02l-0.04-1.52l0.02-5.85h3.27V17.5h-2.64
	L37.92,10.93z M26.6,17.75c-3.65,0-5.49-1.75-5.49-5.09v-9.4h3.72v9.33c0,1.27,0.49,1.84,1.77,1.84c1.29,0,1.73-0.53,1.73-1.84V3.26
	h3.7v9.4C32.03,16,30.25,17.75,26.6,17.75z M17.8,17.73c-1.33,0-1.92-0.51-1.92-1.8c0-1.16,0.59-1.82,1.92-1.82s1.9,0.66,1.9,1.82
	C19.7,17.01,19.13,17.73,17.8,17.73z M13.3,17.73c-1.33,0-1.92-0.51-1.92-1.8c0-1.16,0.59-1.82,1.92-1.82s1.9,0.66,1.9,1.82
	C15.2,17.01,14.63,17.73,13.3,17.73z M14.25,31.92h0.06l0.47-1.44l2.55-7.22h4.1V37.5h-3.4v-5.96L18.07,30l-0.06-0.02l-0.48,1.48
	l-2.11,6.04h-2.41l-2.09-6.02L10.45,30l-0.04,0.02l0.02,1.54v5.95H7.18V23.26h4.08l2.51,7.2L14.25,31.92z M8.7,17.73
	c-1.33,0-1.92-0.51-1.92-1.8c0-1.16,0.59-1.82,1.92-1.82c1.33,0,1.9,0.66,1.9,1.82C10.6,17.01,10.03,17.73,8.7,17.73z M18.35,50.3
	c0,5.22-2.01,7.2-6.02,7.2H7.18V43.26h5.07C16.58,43.26,18.35,45.27,18.35,50.3z M10.89,54.26h1.39c1.63,0,2.18-0.49,2.18-3.99
	c0-3.15-0.51-3.72-2.18-3.72h-1.39V54.26z M23.52,23.26h3.82V37.5h-3.82V23.26z M27.13,43.26l4.29,14.25h-4.14l-0.55-2.49h-3.88
	L22.3,57.5h-3.93l4.22-14.25H27.13z M26.05,51.92l-0.91-4.08l-0.28-1.52h-0.06l-0.32,1.52l-0.91,4.08H26.05z M28.71,23.26H38.8
	l0.08,3.32h-3.23V37.5h-3.78V26.58h-3.23L28.71,23.26z M37.24,46.62l-0.02-0.04h-5.24l0.09-3.33h9.52v2.66l-4.39,6.99l-0.84,1.23
	l0.02,0.06h5.24l-0.06,3.3h-9.71v-2.41l4.54-7.22L37.24,46.62z M39.59,23.26h10.09l0.08,3.32h-3.23V37.5h-3.78V26.58h-3.23
	L39.59,23.26z M46.53,52.58c0,1.27,0.49,1.84,1.77,1.84c1.29,0,1.73-0.53,1.73-1.84v-9.33h3.7v9.4c0,3.34-1.79,5.09-5.43,5.09
	c-3.65,0-5.49-1.75-5.49-5.09v-9.4h3.72V52.58z M68.82,46.52h-5.3v2.2h4.37v2.98h-4.37v2.58h5.55l-0.08,3.21h-9.18V43.26h8.93
	L68.82,46.52z M80.8,47.83c0,1.9-0.68,3.31-1.94,3.84l2.77,5.83h-4.29l-1.9-5.09h-1.25v5.09h-3.71V43.26h4.92
	C79.02,43.26,80.8,44.62,80.8,47.83z M74.19,49.62h1.27c1.08,0,1.46-0.27,1.46-1.65c0-1.29-0.36-1.63-1.44-1.63h-1.29V49.62z
	 M103.13,43.26l4.29,14.25h-4.14l-0.55-2.49h-3.88L98.3,57.5h-3.93l4.22-14.25H103.13z M102.05,51.92l-0.91-4.08l-0.28-1.52h-0.06
	l-0.32,1.52l-0.91,4.08H102.05z M112.12,54.2h4.85l-0.1,3.3h-8.49V43.26h3.74V54.2z M115.82,43.26h10.09l0.08,3.33h-3.23V57.5h-3.78
	V46.58h-3.23L115.82,43.26z M136.13,46.52h-5.3v2.2h4.37v2.98h-4.37v2.58h5.55l-0.08,3.21h-9.18V43.26h8.93L136.13,46.52z
	 M145.5,50.65l0.04-0.02l-0.04-1.52l0.02-5.85h3.27V57.5h-2.64l-4.26-6.57l-0.8-1.31l-0.04,0.02l0.02,1.54v6.33h-3.27V43.26h3.12
	L145.5,50.65z M152.24,54.1c1.33,0,1.9,0.66,1.9,1.82c0,1.08-0.57,1.81-1.9,1.81s-1.92-0.51-1.92-1.81
	C150.33,54.77,150.91,54.1,152.24,54.1z"/>
</svg>
