<svg enable-background="new 0 0 301.41 74.58" viewBox="0 0 301.41 74.58" xmlns="http://www.w3.org/2000/svg"><path clip-rule="evenodd" d="m264.35 47.88c-2.1 0-3.03-.81-3.03-2.85 0-1.83.93-2.88 3.03-2.88s3 1.05 3 2.88c0 1.71-.9 2.85-3 2.85zm-10.66-.36-3-8.04h-1.98v8.04h-5.85v-22.5h7.77c5.71 0 9.29 2.16 9.29 7.23 0 3-1.45 6.04-3.63 6.06l4.19 9.21zm-2.94-17.64h-2.04v5.19h2.01c1.71 0 2.31-.42 2.31-1.88 0-2.4-.57-3.31-2.28-3.31zm-16.81 13.71h-6.12l-.87 3.93h-6.21l6.67-22.5h7.18l6.79 22.5h-6.55zm-2.52-11.34-.45-2.4h-.09l-.51 2.4-1.44 6.45h3.93zm-11.02 8.64c0 4.05-2.43 6.63-8.05 6.63h-8.77v-22.5h8.83c4.83 0 7.29 2.25 7.29 5.82 0 2.37-1.08 3.9-2.76 4.71v.06c2.26.75 3.46 2.49 3.46 5.28zm-7.35-10.95h-3.79v3.96h2.97c1.35 0 1.83-.41 1.83-2.04 0-1.37-.51-1.92-1.01-1.92zm-.73 8.34h-3.06v4.44h3.18c1.47 0 2.01-.48 2.01-1.44 0-2.37-.48-3-2.13-3zm-25.91 9.54c-5.58 0-7.84-2.94-7.84-11.33 0-8.68 2.28-11.71 7.9-11.71 5.49 0 7.9 3.03 7.9 11.71 0 8.39-2.49 11.33-7.96 11.33zm.06-18.03c-1.59 0-1.53.81-1.53 6.54 0 6.03-.06 6.66 1.53 6.66 1.56 0 2.25-.78 2.25-6.66 0-5.85-.69-6.54-2.25-6.54zm-17.74 18.03c-4.94 0-7.84-2.94-7.84-11.33 0-8.68 2.28-11.71 7.9-11.71 5.49 0 7.9 3.03 7.9 11.71-.01 8.39-2.5 11.33-7.96 11.33zm.06-18.03c-1.59 0-2.31.81-2.31 6.54 0 6.03.72 6.66 2.31 6.66 1.56 0 2.25-.78 2.25-6.66 0-5.85-.69-6.54-2.25-6.54zm-17.75 18.03c-5.58 0-7.83-2.94-7.83-11.33 0-8.68 2.28-11.71 8.18-11.71 5.21 0 7.61 3.03 7.61 11.71 0 8.39-2.49 11.33-7.96 11.33zm.35-18.03c-1.88 0-2.6.81-2.6 6.54 0 6.03.72 6.66 2.6 6.66 1.27 0 1.96-.78 1.96-6.66.01-5.85-.68-6.54-1.96-6.54zm-22.62 13.71h2.67v-11.67l-3.42 1.89-.6-4.56 6.51-4.11h3.39v18.45h2.68v4.02h-11.23zm-20.87 4.41c-5.19 0-8.68-2.76-8.68-8.04v-14.85h6.21v14.73c0 2.01.46 2.91 2.47 2.91 2.04 0 2.73-.84 2.73-2.91v-14.73h5.85v14.85c.01 5.28-2.82 8.04-8.58 8.04zm-10.54-5.61-.09 5.22h-15.34v-3.81l7.47-11.4 1.02-1.98-.03-.06h-7.94l-.19-5.25h15.04v4.2l-6.93 11.04-1.32 1.95.33.09zm-31.55 5.61c-2.37 0-4.52-.54-6.55-1.56l.75-4.98c1.83.93 3.69 1.5 5.65 1.5 1.86 0 2.58-.63 2.58-1.83 0-2.88-8.95-1.98-8.95-9.33 0-3.93 2.4-7.05 7.96-7.05 2.07 0 4.29.39 6.73 1.08l-1.48 4.89c-1.71-.51-2.63-.81-4.86-.81-2.22 0-2.7.66-2.7 2.17 0 2.36 8.95 1.37 8.95 8.72-.01 4.44-3.01 7.2-8.08 7.2zm-15.22-22.89h6.03v22.5h-6.03zm-2.59 15.87c0 4.05-2.43 6.63-8.05 6.63h-8.77v-22.5h8.83c4.83 0 7.29 2.25 7.29 5.82 0 2.37-1.08 3.9-2.76 4.71v.06c2.26.75 3.46 2.49 3.46 5.28zm-8.22-10.95h-2.91v3.96h2.97c1.35 0 1.83-.41 1.83-2.04 0-1.37.27-1.92-1.89-1.92zm.15 8.34h-3.06v4.44h3.18c1.47 0 2.01-.48 2.01-1.44 0-2.37-.48-3-2.13-3z" fill="#020204" fill-rule="evenodd"/></svg>