<svg enable-background="new 0 0 350.77 149.15" viewBox="0 0 350.77 149.15" xmlns="http://www.w3.org/2000/svg"><path clip-rule="evenodd" d="m345.3 56.2h-6.79l-3-8.04h-1.98v8.04h-5.86v-22.5h7.78c5.71 0 8.53 2.16 8.53 7.23 0 3-1.08 5.22-3.06 6.06zm-9.73-17.64h-2.04v5.19h2.01c1.71 0 2.31.19 2.31-2.61 0-2.04-.57-2.58-2.28-2.58zm-10.15 12.57-.12 5.07h-13.68v-22.5h13.29l.12 5.16h-8.38v4.18h6.9v4.01h-6.9v4.08zm-2.55 58.24.06.66-.06-3.09.03-9.24h5.16v22.5h-4.17l-6.73-10.38-1.26-2.07-.06.03.03 2.43v9.99h-4.87v-22.5h4.63zm-29.03 10.83v-22.5h14.11l.12 5.16h-8.38v4.18h6.9v4.01h-6.9v4.08h8.77l-.12 5.07zm7.87-63.58c-7.45 0-10.09-3.99-10.09-11.67 0-7.86 3.09-11.21 10.36-11.21 1.98 0 4.23-.07 5.85.9l-.54 5.1c-1.47-.97-3.36-1.3-4.98-1.3-3.69 0-3.98 1.38-3.98 6.45 0 5.34.32 6.51 3.23 6.51.45 0 .93-.03 1.35.03v-7.5h5.22v11.46c-1.56.75-4.11 1.23-6.42 1.23zm-16.68 64c-7.73 0-10.38-3.99-10.38-11.67 0-7.86 3.42-11.21 10.36-11.21 1.98 0 4.23-.07 5.85.9l-.54 5.1c-1.47-.97-3.36-1.3-4.98-1.3-3.69 0-4.53 1.38-4.53 6.45 0 5.34.87 6.51 3.78 6.51.45 0 .93-.03 1.35.03v-7.5h5.22v11.46c-1.55.75-4.1 1.23-6.13 1.23zm-2.15-86.92h6.03v22.5h-6.03zm-14.2 12.12-1.26-2.07-.06.03.03 2.43v9.99h-5.16v-22.5h4.92l7.24 11.67.06.66-.06-3.09.03-9.24h5.16v22.5h-4.17zm-1.62 64.21-.06-3.09.03-9.24h5.16v22.5h-4.17l-6.73-10.38-1.26-2.07-.06.03.03 2.43v9.99h-5.16v-22.5h5.4l6.76 11.67zm-14.17-76.33h6.03v22.5h-6.03zm-9.49 86.89c-5.76 0-8.55-2.76-8.55-8.04v-14.85h5.76v14.73c0 2.01.78 3.6 2.79 3.6 2.04 0 2.73-1.53 2.73-3.6v-14.73h5.85v14.85c.01 5.28-2.81 8.04-8.58 8.04zm7-69.46-.12 5.07h-13.92v-22.5h13.53l.12 5.16h-8.38v4.18h6.9v4.01h-6.9v4.08zm-22.88 5.07-3-8.04h-1.98v8.04h-5.85v-22.5h7.78c5.7 0 8.53 2.16 8.53 7.23 0 3-1.08 5.22-3.06 6.06l4.38 9.21zm-2.94-17.64h-2.04v5.19h2.01c1.71 0 2.31.19 2.31-2.61 0-2.04-.57-2.58-2.28-2.58zm7.89 66.37c0 3-1.08 5.22-3.06 6.06l5.12 9.21h-7.52l-3-8.04h-1.98v8.04h-5.85v-22.5h7.78c5.69 0 8.51 2.16 8.51 7.23zm-10.44 2.82h2.01c2.04 0 2.31.19 2.31-2.61 0-2.04.02-2.58-2.28-2.58h-2.04zm-13.91-51.55-4.23-9.15h-1.44v9.15h-5.86v-22.5h5.86v8.7h1.56l4.17-8.7h7l-5.83 10.77 5.67 11.73zm-17.95-4.71c1.38 0 2.67-.27 3.72-.75l.54 4.77c-1.35.66-3.39 1.08-5.13 1.08-6.43 0-9.18-3.66-9.18-11.76 0-6.77 3.32-11.09 9.54-11.09 1.59 0 3.54-.07 4.74.41l-.57 4.98c-.99-.36-2.34-.6-3.75-.6-3.01 0-4.17 1.41-4.17 6.33 0 5.19.93 6.63 4.26 6.63zm-4.53 36.71h-5.37v-9.42l.06-1.65-.09-.3-.75 1.83-3.33 9.54h-3.81l-3.3-9.51-.75-1.56-.06-.75.03 2.43v9.39h-5.13v-22.5h6.46l3.96 11.37.75 2.31h.09l.75-2.28 4.02-11.4h6.48v22.5zm-16.73-31.61c-5.76 0-8.68-2.76-8.68-8.04v-14.85h5.89v14.73c0 2.01.78 3.6 2.79 3.6 2.04 0 2.73-1.53 2.73-3.6v-14.73h5.85v14.85c.01 5.28-2.81 8.04-8.58 8.04zm-16.39-.39-3-8.04h-1.98v8.04h-5.85v-22.5h7.78c5.71 0 8.53 2.16 8.53 7.23 0 3-1.08 5.22-3.06 6.06l4.38 9.21zm-2.94-17.64h-2.04v5.19h2.01c1.71 0 2.31.19 2.31-2.61 0-2.04-.57-2.58-2.28-2.58zm-19.88 17.64h-8.14v-22.5h8.02c6.85 0 9.64 3.18 9.64 11.13 0 8.25-3.18 11.37-9.52 11.37zm-.09-17.31h-2.19v12.18h2.19c2.58 0 3.45-.54 3.45-6.3.01-4.98-.8-5.88-3.45-5.88zm-14.95 17.31h-5.97v-17.25h-5.1l.12-5.25h15.94l.6 5.25h-5.58v17.25zm-19.51.39c-1.81 0-4.71-.54-6.54-1.56l.75-4.98c1.83.93 3.69 1.5 5.64 1.5 1.86 0 2.58-.63 2.58-1.83 0-2.88-8.95-1.98-8.95-9.33 0-3.93 2.4-6.35 7.96-6.35 2.07 0 4.29-.31 5.91.38l-.66 5.32c-1.71-.94-3.42-1.24-4.86-1.24-1.82 0-2.7.66-2.7 1.62 0 2.91 8.95 1.92 8.95 9.27-.01 4.44-3.01 7.2-8.08 7.2zm-6.79 26.54-.12 5.07h-14.26v-22.5h13.87l.12 5.16h-8.38v4.18h6.9v4.01h-6.9v4.08zm-8.02-35.75h-5.46v8.82h-5.85v-22.5h5.85v8.43h5.46v-8.43h5.88v22.5h-5.88zm-17.74 4.11c1.38 0 2.67-.27 3.72-.75l.54 4.77c-1.35.66-3.39 1.08-4.97 1.08-6.59 0-9.71-3.66-9.71-11.76 0-6.77 3.03-11.09 9.91-11.09 1.59 0 3.54-.07 4.74.41l-.57 4.98c-.99-.36-2.34-.6-3.75-.6-3.33 0-4.17 1.41-4.17 6.33 0 5.19.93 6.63 4.26 6.63zm-21.71 5.1c-6.48 0-9.43-3.42-9.43-11.64 0-8.25 2.82-10.91 9.43-10.91s9.43 2.66 9.43 10.91c0 8.46-2.82 11.64-9.43 11.64zm-.03-18c-2.46 0-3.24 1.02-3.24 6.36 0 5.88.81 6.45 3.3 6.45s3.24-.87 3.24-6.45c.01-5.37-.74-6.36-3.3-6.36zm3.49-5.97c-2.05 0-2.8-.57-2.8-2.01 0-1.35.75-2.07 2.8-2.07.96 0 1.65.72 1.65 2.07 0 1.32-.69 2.01-1.65 2.01zm-6.31 0c-1.47 0-2.22-.57-2.22-2.01 0-1.35.75-2.07 2.22-2.07 1.53 0 2.22.72 2.22 2.07 0 1.32-.69 2.01-2.22 2.01zm-4.44 27.92c1.53 0 2.22.72 2.22 2.07 0 1.32-.69 2.01-2.22 2.01-1.47 0-2.22-.57-2.22-2.01 0-1.35.75-2.07 2.22-2.07zm-10.45-13.16h-5.46v8.82h-5.86v-22.5h5.86v8.43h5.46v-8.43h5.88v22.5h-5.88zm2.85 23.57h-7.89v3.96h6.48l-.03 4.98h-6.45v8.31h-6.28v-22.5h14.08zm-8.31 35.18h5.46v-8.43h5.88v22.5h-5.88v-8.82h-5.46v8.82h-5.86v-22.5h5.86zm19.42-43.52c0-1.35.75-2.07 2.22-2.07 1.53 0 2.22.72 2.22 2.07 0 1.32-.69 2.01-2.22 2.01-1.47 0-2.22-.57-2.22-2.01zm7.93 17.94c0 5.28-2.82 8.04-8.59 8.04-5.76 0-8.12-2.76-8.12-8.04v-14.85h5.33v14.73c0 2.01.78 3.6 2.79 3.6 2.04 0 2.73-1.53 2.73-3.6v-14.73h5.85v14.85zm1.26 22.31h-8.38v4.18h6.91v4.01h-6.91v4.08h8.77l-.12 5.07h-14.5v-22.5h14.11zm17.89-29.93c0 3-1.08 5.22-3.06 6.06l4.38 9.21h-6.64l-3.03-8.04h-1.81v8.04h-6.14v-22.5h7.77c5.71 0 8.53 2.16 8.53 7.23zm-10.16 2.82h2.11c1.33 0 1.92.19 1.92-2.61 0-2.04-.57-2.58-1.62-2.58h-2.41zm11.21 29.18c0 3-1.08 5.22-3.06 6.06l4.31 9.06 6.62-22.34h7.17l6.79 22.5h-6.55l-.87-3.24h-6.12l-.87 3.24h-6.09-.12-6.06l-3.03-8.04h-1.81v8.04h-6.6v-22.51h8.17c5.3 0 8.12 2.16 8.12 7.23zm13.33 6.45-1.44-6.45-.45-2.4h-.09l-.51 2.4-1.44 6.45zm-23.03-3.63h2.11c.87 0 1.47.19 1.47-2.61 0-2.04-.57-2.58-2.28-2.58h-1.29v5.19zm37.78 4.68c0 2.01.78 3.6 2.79 3.6 2.04 0 2.73-1.53 2.73-3.6v-14.73h5.85v14.85c0 5.28-2.82 8.04-8.59 8.04s-8.68-2.76-8.68-8.04v-14.85h5.88v14.73zm8.76-24.23-2.16-5.43-.84-2.28h-.09l-.84 2.28-2.13 5.43h-6.69l5.53-11.61-5.48-10.89h6.88l1.89 5.14.87 1.73h.09l.87-1.73 1.95-5.14h6.6l-5.4 10.71 5.52 11.79zm10.99 27.35c1.86 0 2.58-.63 2.58-1.83 0-2.88-8.95-1.98-8.95-9.33 0-3.93 2.4-6.35 7.96-6.35 2.26 0 4.29-.31 5.91.38l-.66 5.32c-1.71-.94-3.42-1.24-4.86-1.24-2.22 0-2.7.66-2.7 1.62 0 2.91 8.95 1.92 8.95 9.27 0 4.44-3 7.2-8.08 7.2-2.37 0-4.71-.54-6.55-1.56l.75-4.98c1.84.93 3.7 1.5 5.65 1.5zm1.2-27.35v-17.25h-5.1l.12-5.25h15.94l.12 5.25h-5.1v17.25zm23.3 14.75h-8.29v3.96h6.88l-.03 4.98h-6.85v8.31h-5.88v-22.5h14.08zm-4.56-22.79v8.04h-5.85v-22.5h7.78c5.7 0 8.53 2.16 8.53 7.23 0 3-1.08 5.22-3.06 6.06l4.94 9.21h-7.34l-3-8.04zm4.32-7.02c0-2.04-.16-2.58-2.28-2.58h-2.04v5.19h2.01c1.85 0 2.31.19 2.31-2.61zm10.87 24.9c7.42 0 9.43 2.66 9.43 10.91 0 8.46-2 11.64-9.43 11.64-6.39 0-8.9-3.42-8.9-11.64 0-8.25 2.29-10.91 8.9-10.91zm.03 17.36c3.28 0 3.24-.87 3.24-6.45 0-5.37.04-6.36-3.3-6.36-2.46 0-3.24 1.02-3.24 6.36 0 5.88 1.02 6.45 3.3 6.45zm12.64-32.27.19 5.07h-14.81v-22.5h14.11l.12 5.16h-8.38v4.18h6.9v4.01h-6.9v4.08zm15.52 21.8c0 3-1.08 5.22-3.06 6.06l4.38 9.21h-6.79l-3-8.04h-1.98v8.04h-5.85v-22.5h7.78c5.7 0 8.52 2.16 8.52 7.23zm-10.45 2.82h2.01c1.71 0 2.31.19 2.31-2.61 0-2.04-.57-2.58-2.28-2.58h-2.04zm30.9 1.08c0 8.25-3.18 11.37-9.52 11.37h-8.14v-22.5h8.02c6.84 0 9.64 3.18 9.64 11.13zm-11.8 6.24h2.19c3.46 0 3.45-.54 3.45-6.3 0-4.98-.81-5.88-3.45-5.88h-2.19zm18.28-31.94-.12 5.07h-14.5v-22.5h14.98l-.75 5.16h-8.38v4.18h6.9v4.01h-6.9v4.08zm10.21 19.73h-8.38v4.18h6.9v4.01h-6.9v4.08h8.77l.66 5.07h-15.28v-22.5h14.11zm120 11.97c2.1 0 3 1.05 3 2.88 0 1.71-.9 2.85-3 2.85s-3.03-.81-3.03-2.85c0-1.83.93-2.88 3.03-2.88z" fill="#020204" fill-rule="evenodd"/></svg>