<svg enable-background="new 0 0 350.77 149.15" viewBox="0 0 350.77 149.15" xmlns="http://www.w3.org/2000/svg"><path clip-rule="evenodd" d="m320.84 109.76-1.14-28.58h10.33l-1.47 28.58zm-16 12.17-5.44-14.56h-3.59v14.56h-10.6v-40.75h14.28c10.13 0 15.25 3.91 15.25 13.1 0 5.43-1.96 9.45-5.55 10.98l7.94 16.68h-12.29zm-5.33-31.95h-3.7v9.4h3.64c3.1 0 4.19-.76 4.19-4.73 0-3.69-1.03-4.67-4.13-4.67zm-18.39 22.77-.22 9.18h-26.27v-40.75h25.56l.22 9.35h-15.17v6.3h12.51v8.53h-12.51v7.39zm-51.08 9.18-3.81-24.72-.54-4.4h-.16l-.6 4.4-3.75 24.72h-12.72l-8.54-40.75h11.09l3.59 25.7.54 4.35h.49l.27-4.35 4.24-25.7h11.31l4.3 25.48.65 4.35h.16l.49-4.35 3.64-25.48h10.93l-8.86 40.75zm-24.58-54.35h-10.82v-31.25h-9.24l.22-9.51h28.88l.22 9.51h-9.25v31.25zm-37.79.71c-12.14 0-17.47-6.19-17.47-21.08 0-14.94 5.48-21.03 17.47-21.03 11.57 0 17.4 6.09 17.4 21.03 0 15.32-5.83 21.08-17.4 21.08zm-.45-32.61c-4.46 0-5.18 1.85-5.18 11.52 0 9.73.77 11.68 5.82 11.68 3.98 0 5.34-2.01 5.34-11.68 0-9.07-1.36-11.52-5.98-11.52zm-32.42 32.66c-13.09 0-18.27-7.23-18.27-21.14 0-14.24 5.6-21.08 18.94-21.08 3.41 0 7.49.65 10.42 1.79l-.98 9.07c-2.66-.98-6.09-.78-9.03-.78-6.69 0-8.21 1.71-8.21 10.89 0 9.67 1.58 11.79 6.85 11.79 1.48 0 1.69-.05 2.45-.22v-13.31h9.46v20.76c-2.82 1.97-7.44 2.23-11.63 2.23zm-19.04 44.41-.22 9.18h-25.67v-40.75h24.97l.22 9.35h-15.18v6.3h12.51v8.53h-12.51v7.39zm-14.28-54.35-.41 9.18h-26.26v-40.75h26.43l-.66 9.35h-15.17v6.95h12.51v7.88h-12.51v7.39zm-17.71 22.78v40.75h-10.65v-15.97h-9.9v15.97h-10.6v-40.75h10.6v15.67h9.9v-15.67zm-33.56-13.6-3.81-24.72-.54-3.94h-.16l-.6 3.94-3.04 24.72h-13.44l-8.54-40.75h11.09l3.59 25.7.93 4.35h-.22l.6-4.35 4.66-25.7h10.9l4.3 25.48.65 4.35h.16l.49-4.35 3.64-25.48h10.6l-8.54 40.75zm-1.08 13.6.87 9.51h-9.9v31.24h-10.13v-31.24h-9.94l.22-9.51zm112.76 14.34c0 8.8-4.4 13.75-15.82 13.75h-3.37v12.66h-10.6v-40.75h13.98c11.29 0 15.81 4.4 15.81 14.34zm-19.2 5.33h3.37c3.48 0 4.79-.82 4.79-4.79 0-5-1.03-6.03-4.79-6.03h-3.37zm39.05-20.32c11.96 0 17.08 6.09 17.08 21.03 0 15.32-5.11 21.08-17.08 21.08-11.75 0-17.08-5.83-17.08-21.08.01-14.95 5.12-21.03 17.08-21.03zm.06 32.71c4.88 0 5.87-2.01 5.87-11.68 0-9.73-.99-11.52-5.98-11.52-4.46 0-5.87 1.85-5.87 11.52 0 9.72 1.59 11.68 5.98 11.68zm143.06-.11c3.7 0 5.33 1.79 5.33 4.78 0 2.77-1.63 4.67-5.33 4.67-3.64 0-5.27-1.36-5.27-4.67-.01-2.99 1.63-4.78 5.27-4.78z" fill="#020204" fill-rule="evenodd"/></svg>