<?xml version="1.0" encoding="utf-8"?>
<!-- Generator: Adobe Illustrator 16.0.0, SVG Export Plug-In . SVG Version: 6.00 Build 0)  -->
<!DOCTYPE svg PUBLIC "-//W3C//DTD SVG 1.1//EN" "http://www.w3.org/Graphics/SVG/1.1/DTD/svg11.dtd">
<svg version="1.1" id="Ebene_1" xmlns="http://www.w3.org/2000/svg" xmlns:xlink="http://www.w3.org/1999/xlink" x="0px" y="0px"
	 width="617.988px" height="25.61px" viewBox="0 0 617.988 25.61" enable-background="new 0 0 617.988 25.61" xml:space="preserve">
<g>
	<path d="M12.725,18.796l-0.069,1.483H2.572V2.896h1.53v15.9H12.725z"/>
	<path d="M14.486,12.979c0-4.288,1.83-6.605,5.446-6.605c3.083,0,5.238,1.877,5.238,6.304c0,0.208-0.023,0.51-0.046,0.695h-9.202
		c0.069,4.381,1.53,5.864,4.798,5.864c1.438,0,2.619-0.348,3.777-0.974l0.186,1.229c-1.182,0.672-2.503,1.066-4.102,1.066
		C16.225,20.558,14.486,18.263,14.486,12.979z M23.873,12.376c-0.047-3.454-1.669-4.751-3.94-4.751
		c-2.688,0-3.894,1.599-4.033,4.751H23.873z"/>
	<path d="M28.646,20.28V6.674l1.137-0.093l0.045,1.53l0.047,1.877h0.047c0.787-2.132,2.387-3.569,4.449-3.569
		c0.465,0,0.904,0.046,1.299,0.162l-0.116,1.46c-0.394-0.139-0.812-0.185-1.251-0.185c-2.318,0-4.266,2.132-4.266,5.447v6.977
		H28.646z"/>
	<path d="M47.514,20.28v-9.225c0-2.341-1.299-3.337-3.616-3.337c-1.345,0-2.967,0.649-3.731,1.854V20.28h-1.391V6.628l0.996-0.093
		l0.256,1.646h0.068c0.928-1.136,2.504-1.808,4.149-1.808c2.897,0,4.659,1.506,4.659,4.659v9.248H47.514z"/>
	<path d="M52.172,12.979c0-4.288,1.83-6.605,5.446-6.605c3.083,0,5.238,1.877,5.238,6.304c0,0.208-0.023,0.51-0.046,0.695h-9.202
		c0.069,4.381,1.53,5.864,4.798,5.864c1.438,0,2.619-0.348,3.777-0.974l0.186,1.229c-1.182,0.672-2.503,1.066-4.102,1.066
		C53.91,20.558,52.172,18.263,52.172,12.979z M61.559,12.376c-0.047-3.454-1.669-4.751-3.94-4.751c-2.688,0-3.894,1.599-4.033,4.751
		H61.559z"/>
	<path d="M75.07,20.28v-9.225c0-2.341-1.298-3.337-3.615-3.337c-1.345,0-2.967,0.649-3.732,1.854V20.28h-1.391V6.628l0.997-0.093
		l0.255,1.646h0.069c0.927-1.136,2.503-1.808,4.149-1.808c2.896,0,4.658,1.506,4.658,4.659v9.248H75.07z"/>
	<path d="M92.105,20.604c-1.994,0-3.616-0.533-4.938-1.345l0.278-1.437c1.345,0.881,2.827,1.345,4.659,1.345
		c2.758,0,4.172-1.345,4.172-3.593c0-4.659-8.924-2.619-8.924-8.344c0-2.619,1.669-4.612,5.4-4.612c1.691,0,3.222,0.348,4.45,0.927
		l-0.278,1.367c-1.32-0.556-2.596-0.881-4.102-0.881c-2.875,0-4.011,1.46-4.011,3.106c0,4.427,8.946,2.341,8.946,8.344
		C97.76,18.657,95.813,20.604,92.105,20.604z"/>
	<path d="M102.441,3.8c-0.695,0-1.09-0.232-1.09-0.974c0-0.626,0.395-0.974,1.09-0.974s1.09,0.348,1.09,0.974
		C103.531,3.499,103.137,3.8,102.441,3.8z M101.723,20.28V6.674l1.414-0.116V20.28H101.723z"/>
	<path d="M107.332,12.979c0-4.288,1.831-6.605,5.447-6.605c3.082,0,5.238,1.877,5.238,6.304c0,0.208-0.023,0.51-0.047,0.695h-9.201
		c0.068,4.381,1.529,5.864,4.797,5.864c1.438,0,2.619-0.348,3.778-0.974l0.186,1.229c-1.183,0.672-2.503,1.066-4.103,1.066
		C109.07,20.558,107.332,18.263,107.332,12.979z M116.719,12.376c-0.046-3.454-1.668-4.751-3.939-4.751
		c-2.689,0-3.895,1.599-4.033,4.751H116.719z"/>
	<path d="M137.855,20.28l-0.23-1.599l-0.07-0.023c-0.857,1.251-2.318,1.901-4.241,1.901c-3.802,0-5.284-2.225-5.284-7.116
		c0-4.705,1.576-7.069,5.307-7.069c1.67,0,3.199,0.603,4.172,1.785l0.047-0.023l-0.047-1.854V1.853l1.414-0.116V20.28H137.855z
		 M137.508,9.595c-0.672-1.136-2.086-1.877-3.824-1.877c-3.059,0-4.218,1.669-4.218,5.771c0,4.218,1.065,5.864,4.195,5.864
		c2.294,0,3.407-1.136,3.847-1.993V9.595z"/>
	<path d="M144.738,3.8c-0.695,0-1.089-0.232-1.089-0.974c0-0.626,0.394-0.974,1.089-0.974s1.09,0.348,1.09,0.974
		C145.828,3.499,145.434,3.8,144.738,3.8z M144.021,20.28V6.674l1.413-0.116V20.28H144.021z"/>
	<path d="M149.629,12.979c0-4.288,1.832-6.605,5.447-6.605c3.082,0,5.238,1.877,5.238,6.304c0,0.208-0.023,0.51-0.047,0.695h-9.201
		c0.069,4.381,1.529,5.864,4.798,5.864c1.437,0,2.619-0.348,3.778-0.974l0.186,1.229c-1.183,0.672-2.504,1.066-4.104,1.066
		C151.367,20.558,149.629,18.263,149.629,12.979z M159.017,12.376c-0.046-3.454-1.669-4.751-3.94-4.751
		c-2.689,0-3.895,1.599-4.033,4.751H159.017z"/>
	<path d="M177.117,13.257h-4.01v7.023h-1.529V2.896h5.539c3.94,0,5.655,1.53,5.655,5.169
		C182.772,11.565,181.104,13.257,177.117,13.257z M177.117,4.264h-4.01v7.672h4.01c2.712,0,4.103-0.927,4.103-3.871
		C181.22,5.284,179.898,4.264,177.117,4.264z"/>
	<path d="M190.885,20.581c-3.986,0-5.771-1.993-5.771-7.116c0-5.076,1.808-7.092,5.771-7.092c4.01,0,5.701,2.017,5.701,7.092
		C196.586,18.588,194.895,20.581,190.885,20.581z M190.885,19.353c3.059,0,4.241-1.623,4.241-5.887c0-4.242-1.183-5.841-4.241-5.841
		c-3.083,0-4.312,1.599-4.312,5.841C186.573,17.753,187.802,19.353,190.885,19.353z"/>
	<path d="M208.477,6.604l2.851,10.801l0.464,1.808h0.068l0.371-1.831l2.55-10.778h1.414L212.74,20.28h-1.784l-2.759-10.361
		l-0.439-1.831h-0.07l-0.463,1.831l-2.828,10.361h-1.738l-3.569-13.675h1.437l2.597,10.731l0.417,1.832h0.069l0.44-1.808
		l2.875-10.755H208.477z"/>
	<path d="M218.697,12.979c0-4.288,1.831-6.605,5.447-6.605c3.082,0,5.238,1.877,5.238,6.304c0,0.208-0.023,0.51-0.047,0.695h-9.201
		c0.068,4.381,1.529,5.864,4.797,5.864c1.438,0,2.619-0.348,3.778-0.974l0.186,1.229c-1.183,0.672-2.503,1.066-4.103,1.066
		C220.436,20.558,218.697,18.263,218.697,12.979z M228.084,12.376c-0.046-3.454-1.668-4.751-3.939-4.751
		c-2.689,0-3.895,1.599-4.033,4.751H228.084z"/>
	<path d="M232.858,20.28V6.674l1.136-0.093l0.047,1.53l0.045,1.877h0.047c0.789-2.132,2.387-3.569,4.451-3.569
		c0.463,0,0.902,0.046,1.297,0.162l-0.115,1.46c-0.395-0.139-0.812-0.185-1.252-0.185c-2.318,0-4.266,2.132-4.266,5.447v6.977
		H232.858z"/>
	<path d="M259.35,20.28l-0.232-1.599l-0.068-0.023c-0.857,1.251-2.318,1.901-4.242,1.901c-3.801,0-5.285-2.225-5.285-7.116
		c0-4.705,1.576-7.069,5.309-7.069c1.668,0,3.197,0.603,4.172,1.785l0.047-0.023l-0.047-1.854V1.853l1.414-0.116V20.28H259.35z
		 M259.002,9.595c-0.672-1.136-2.086-1.877-3.824-1.877c-3.061,0-4.219,1.669-4.219,5.771c0,4.218,1.066,5.864,4.195,5.864
		c2.295,0,3.406-1.136,3.848-1.993V9.595z"/>
	<path d="M263.984,12.979c0-4.288,1.832-6.605,5.447-6.605c3.082,0,5.238,1.877,5.238,6.304c0,0.208-0.023,0.51-0.047,0.695h-9.201
		c0.07,4.381,1.529,5.864,4.797,5.864c1.438,0,2.619-0.348,3.779-0.974l0.186,1.229c-1.182,0.672-2.504,1.066-4.104,1.066
		C265.723,20.558,263.984,18.263,263.984,12.979z M273.371,12.376c-0.045-3.454-1.668-4.751-3.939-4.751
		c-2.689,0-3.895,1.599-4.033,4.751H273.371z"/>
	<path d="M278.146,20.28V6.674l1.135-0.093l0.047,1.53l0.047,1.877h0.045c0.789-2.132,2.389-3.569,4.451-3.569
		c0.463,0,0.904,0.046,1.297,0.162l-0.115,1.46c-0.395-0.139-0.811-0.185-1.252-0.185c-2.316,0-4.264,2.132-4.264,5.447v6.977
		H278.146z"/>
	<path d="M306.977,20.28v-8.367h-9.387v8.367h-1.529V2.896h1.529v7.58h9.387v-7.58h1.531V20.28H306.977z"/>
	<path d="M318.172,20.581c-3.986,0-5.771-1.993-5.771-7.116c0-5.076,1.809-7.092,5.771-7.092c4.01,0,5.701,2.017,5.701,7.092
		C323.873,18.588,322.182,20.581,318.172,20.581z M318.172,19.353c3.061,0,4.242-1.623,4.242-5.887c0-4.242-1.182-5.841-4.242-5.841
		c-3.082,0-4.311,1.599-4.311,5.841C313.861,17.753,315.09,19.353,318.172,19.353z M316.41,3.638c-0.533,0-0.811-0.231-0.811-0.88
		c0-0.557,0.277-0.904,0.811-0.904s0.812,0.325,0.812,0.904C317.223,3.36,316.943,3.638,316.41,3.638z M319.863,3.638
		c-0.533,0-0.811-0.231-0.811-0.88c0-0.557,0.277-0.904,0.811-0.904s0.812,0.325,0.812,0.904
		C320.676,3.36,320.396,3.638,319.863,3.638z"/>
	<path d="M335.439,8.436c-0.859-0.417-1.924-0.718-3.014-0.718c-3.199,0-4.451,1.646-4.451,5.562c0,4.427,1.508,6.003,4.404,6.003
		c1.158,0,2.295-0.325,3.152-0.95l0.139,1.228c-0.811,0.603-2.133,1.02-3.545,1.02c-3.756,0-5.609-2.132-5.609-7.301
		c0-4.659,1.715-6.907,5.631-6.907c1.275,0,2.504,0.324,3.408,0.765L335.439,8.436z"/>
	<path d="M347.861,20.28v-9.248c0-2.109-1.137-3.314-3.57-3.314c-1.691,0-3.129,0.834-3.73,1.877V20.28h-1.414V1.853l1.414-0.116
		v4.497l-0.023,1.854l0.047,0.023c0.949-1.136,2.41-1.762,4.078-1.762c3.014,0,4.613,1.646,4.613,4.682v9.248H347.861z"/>
	<path d="M356.83,20.558c-1.623,0-3.152-0.44-4.172-1.252l0.232-1.274c0.996,0.834,2.525,1.298,3.916,1.298
		c2.318,0,3.291-1.182,3.291-2.758c0-3.662-7.369-2.086-7.369-6.606c0-2.225,1.598-3.592,4.543-3.592
		c1.297,0,2.502,0.255,3.592,0.788l-0.139,1.229c-1.137-0.51-2.342-0.765-3.477-0.765c-1.947,0-3.176,0.881-3.176,2.271
		c0,3.407,7.348,1.715,7.348,6.536C361.42,18.912,360.006,20.558,356.83,20.558z"/>
	<path d="M366.773,7.74v9.248c0,1.646,0.857,2.295,2.227,2.295c0.393,0,0.879-0.07,1.158-0.186l0.115,1.113
		c-0.371,0.162-1.043,0.278-1.645,0.278c-2.133,0-3.27-1.112-3.27-3.454V7.74h-2.131V6.604h2.154l0.279-3.592l1.111-0.139v3.731
		h3.594V7.74H366.773z"/>
	<path d="M382.232,20.28l-0.23-1.599l-0.07-0.023c-0.857,1.251-2.318,1.901-4.242,1.901c-3.801,0-5.283-2.225-5.283-7.116
		c0-4.705,1.576-7.069,5.307-7.069c1.67,0,3.199,0.603,4.172,1.785l0.047-0.023l-0.047-1.854V1.853l1.414-0.116V20.28H382.232z
		 M381.885,9.595c-0.672-1.136-2.086-1.877-3.824-1.877c-3.059,0-4.219,1.669-4.219,5.771c0,4.218,1.066,5.864,4.195,5.864
		c2.295,0,3.408-1.136,3.848-1.993V9.595z"/>
	<path d="M387.748,20.28V6.674l1.137-0.093l0.045,1.53l0.047,1.877h0.047c0.787-2.132,2.387-3.569,4.449-3.569
		c0.465,0,0.904,0.046,1.299,0.162l-0.115,1.46c-0.395-0.139-0.812-0.185-1.252-0.185c-2.318,0-4.266,2.132-4.266,5.447v6.977
		H387.748z"/>
	<path d="M407.752,15.969c0,2.874-1.646,4.589-5.076,4.589c-3.408,0-5.053-1.739-5.053-4.589V6.604h1.391v9.318
		c0,2.132,1.25,3.291,3.662,3.291c2.41,0,3.686-1.136,3.686-3.291V6.604h1.391V15.969z"/>
	<path d="M419.941,8.436c-0.857-0.417-1.924-0.718-3.014-0.718c-3.197,0-4.449,1.646-4.449,5.562c0,4.427,1.506,6.003,4.404,6.003
		c1.158,0,2.293-0.325,3.152-0.95l0.139,1.228c-0.812,0.603-2.133,1.02-3.547,1.02c-3.754,0-5.609-2.132-5.609-7.301
		c0-4.659,1.715-6.907,5.633-6.907c1.275,0,2.504,0.324,3.406,0.765L419.941,8.436z"/>
	<path d="M425.062,12.26h2.18l4.773-5.679h1.809l-5.309,6.258l5.541,7.44h-1.785l-5.029-6.768h-2.18v6.768h-1.414V1.83l1.414-0.093
		V12.26z"/>
	<path d="M436.791,20.28V6.674l1.135-0.093l0.047,1.53l0.047,1.877h0.045c0.789-2.132,2.389-3.569,4.451-3.569
		c0.463,0,0.904,0.046,1.297,0.162l-0.115,1.46c-0.395-0.139-0.811-0.185-1.252-0.185c-2.316,0-4.264,2.132-4.264,5.447v6.977
		H436.791z"/>
	<path d="M445.691,12.979c0-4.288,1.83-6.605,5.445-6.605c3.084,0,5.238,1.877,5.238,6.304c0,0.208-0.021,0.51-0.045,0.695h-9.203
		c0.07,4.381,1.531,5.864,4.799,5.864c1.438,0,2.619-0.348,3.777-0.974l0.186,1.229c-1.182,0.672-2.502,1.066-4.102,1.066
		C447.43,20.558,445.691,18.263,445.691,12.979z M455.078,12.376c-0.047-3.454-1.67-4.751-3.941-4.751
		c-2.688,0-3.893,1.599-4.031,4.751H455.078z"/>
	<path d="M461.219,3.8c-0.695,0-1.088-0.232-1.088-0.974c0-0.626,0.393-0.974,1.088-0.974s1.09,0.348,1.09,0.974
		C462.309,3.499,461.914,3.8,461.219,3.8z M460.5,20.28V6.674l1.414-0.116V20.28H460.5z"/>
	<path d="M475.729,20.28v-9.225c0-2.341-1.297-3.337-3.615-3.337c-1.346,0-2.967,0.649-3.732,1.854V20.28h-1.391V6.628l0.996-0.093
		l0.256,1.646h0.07c0.926-1.136,2.502-1.808,4.148-1.808c2.896,0,4.658,1.506,4.658,4.659v9.248H475.729z"/>
	<path d="M482.635,3.8c-0.695,0-1.09-0.232-1.09-0.974c0-0.626,0.395-0.974,1.09-0.974s1.09,0.348,1.09,0.974
		C483.725,3.499,483.33,3.8,482.635,3.8z M481.916,20.28V6.674l1.414-0.116V20.28H481.916z"/>
	<path d="M490.746,14.068c-0.926,0.209-1.414,0.672-1.414,1.252c0,0.533,0.418,0.973,1.553,1.089l3.152,0.324
		c3.361,0.348,4.357,1.368,4.357,3.175c0,2.411-1.391,3.94-5.539,3.94c-3.592,0-5.1-1.437-5.1-3.616
		c0-1.043,0.533-2.063,1.508-2.805c-0.695-0.301-1.252-0.904-1.252-1.831c0-0.834,0.625-1.576,1.762-1.97
		c-0.975-0.533-1.67-1.553-1.67-3.245c0-2.573,1.299-4.01,4.613-4.01c1.182,0,2.434,0.231,3.338,0.95l2.201-0.997l0.324,0.718
		l-1.762,1.182c0.303,0.557,0.488,1.252,0.488,2.132c0,2.573-1.16,3.964-4.59,3.964C492.068,14.323,491.373,14.253,490.746,14.068z
		 M490.492,17.684c-0.975,0.625-1.484,1.553-1.484,2.387c0,1.623,1.113,2.596,3.801,2.596c3.385,0,4.266-1.043,4.266-2.573
		c0-1.182-0.604-1.831-3.244-2.062L490.492,17.684z M489.473,10.406c0,2.295,1.391,2.805,3.221,2.805
		c2.504,0,3.268-0.974,3.268-2.805c0-2.109-0.996-2.851-3.244-2.851C490.352,7.555,489.473,8.505,489.473,10.406z"/>
	<path d="M500.504,12.979c0-4.288,1.832-6.605,5.447-6.605c3.082,0,5.238,1.877,5.238,6.304c0,0.208-0.023,0.51-0.047,0.695h-9.201
		c0.07,4.381,1.529,5.864,4.797,5.864c1.438,0,2.619-0.348,3.779-0.974l0.186,1.229c-1.182,0.672-2.504,1.066-4.104,1.066
		C502.242,20.558,500.504,18.263,500.504,12.979z M509.891,12.376c-0.045-3.454-1.668-4.751-3.939-4.751
		c-2.689,0-3.895,1.599-4.033,4.751H509.891z"/>
	<path d="M514.666,20.28V6.674l1.135-0.093l0.047,1.53l0.047,1.877h0.045c0.789-2.132,2.389-3.569,4.451-3.569
		c0.463,0,0.904,0.046,1.297,0.162l-0.115,1.46c-0.395-0.139-0.811-0.185-1.252-0.185c-2.316,0-4.264,2.132-4.264,5.447v6.977
		H514.666z"/>
	<path d="M533.762,12.26h2.18l4.773-5.679h1.809l-5.309,6.258l5.541,7.44h-1.785l-5.029-6.768h-2.18v6.768h-1.414V1.83l1.414-0.093
		V12.26z"/>
	<path d="M544.309,12.979c0-4.288,1.83-6.605,5.445-6.605c3.084,0,5.238,1.877,5.238,6.304c0,0.208-0.021,0.51-0.045,0.695h-9.203
		c0.07,4.381,1.531,5.864,4.799,5.864c1.438,0,2.619-0.348,3.777-0.974l0.186,1.229c-1.182,0.672-2.502,1.066-4.102,1.066
		C546.047,20.558,544.309,18.263,544.309,12.979z M553.695,12.376c-0.047-3.454-1.67-4.751-3.941-4.751
		c-2.688,0-3.893,1.599-4.031,4.751H553.695z"/>
	<path d="M567.207,20.28v-9.225c0-2.341-1.297-3.337-3.615-3.337c-1.346,0-2.967,0.649-3.732,1.854V20.28h-1.391V6.628l0.996-0.093
		l0.256,1.646h0.07c0.926-1.136,2.502-1.808,4.148-1.808c2.896,0,4.658,1.506,4.658,4.659v9.248H567.207z"/>
	<path d="M581.484,20.28v-9.225c0-2.341-1.297-3.337-3.615-3.337c-1.346,0-2.967,0.649-3.732,1.854V20.28h-1.391V6.628l0.996-0.093
		l0.256,1.646h0.07c0.926-1.136,2.502-1.808,4.148-1.808c2.896,0,4.658,1.506,4.658,4.659v9.248H581.484z"/>
	<path d="M586.143,12.979c0-4.288,1.832-6.605,5.447-6.605c3.082,0,5.238,1.877,5.238,6.304c0,0.208-0.023,0.51-0.047,0.695h-9.201
		c0.07,4.381,1.529,5.864,4.797,5.864c1.438,0,2.619-0.348,3.779-0.974l0.186,1.229c-1.182,0.672-2.504,1.066-4.104,1.066
		C587.881,20.558,586.143,18.263,586.143,12.979z M595.529,12.376c-0.045-3.454-1.668-4.751-3.939-4.751
		c-2.689,0-3.895,1.599-4.033,4.751H595.529z"/>
	<path d="M609.043,20.28v-9.225c0-2.341-1.299-3.337-3.617-3.337c-1.344,0-2.967,0.649-3.73,1.854V20.28h-1.391V6.628l0.996-0.093
		l0.254,1.646h0.07c0.928-1.136,2.504-1.808,4.148-1.808c2.898,0,4.66,1.506,4.66,4.659v9.248H609.043z"/>
	<path d="M615.207,20.512c-0.742,0-1.113-0.301-1.113-1.089c0-0.695,0.371-1.066,1.113-1.066c0.717,0,1.064,0.371,1.064,1.066
		S615.924,20.512,615.207,20.512z"/>
</g>
</svg>
