<?xml version="1.0" encoding="utf-8"?>
<!-- Generator: Adobe Illustrator 16.0.0, SVG Export Plug-In . SVG Version: 6.00 Build 0)  -->
<!DOCTYPE svg PUBLIC "-//W3C//DTD SVG 1.1//EN" "http://www.w3.org/Graphics/SVG/1.1/DTD/svg11.dtd">
<svg version="1.1" id="Ebene_1" xmlns="http://www.w3.org/2000/svg" xmlns:xlink="http://www.w3.org/1999/xlink" x="0px" y="0px"
	 width="62.776px" height="31.265px" viewBox="0 0 62.776 31.265" enable-background="new 0 0 62.776 31.265" xml:space="preserve">
<g>
	<path d="M7.462,10.569l-0.039,0.806h-5.98v-9.75h5.747l0.038,0.806H2.288v3.471h4.277V6.63H2.288v3.939H7.462z"/>
	<path d="M11.935,7.878l-2.211,3.497H8.788l2.625-3.9l-2.561-3.77h0.963l2.17,3.354l2.146-3.354h0.923l-2.509,3.744l2.601,3.926
		H14.17L11.935,7.878z"/>
	<path d="M20.124,11.531c-0.885,0-1.703-0.273-2.25-0.988l-0.025,0.013l0.014,1.053v1.638h-0.82V3.744l0.586-0.052l0.169,0.884
		h0.038c0.521-0.624,1.379-1.001,2.38-1.001c1.872,0,2.938,0.949,2.938,3.952C23.153,10.439,21.995,11.531,20.124,11.531z
		 M20.046,4.329c-0.963,0-1.717,0.364-2.184,1.066v4.316c0.338,0.585,1.039,1.118,2.105,1.118c1.378,0,2.366-0.676,2.366-3.302
		C22.334,5.018,21.502,4.329,20.046,4.329z"/>
	<path d="M24.635,7.28c0-2.405,1.026-3.705,3.056-3.705c1.729,0,2.938,1.053,2.938,3.536c0,0.117-0.014,0.286-0.025,0.39H25.44
		c0.039,2.457,0.858,3.289,2.691,3.289c0.807,0,1.469-0.195,2.119-0.546l0.104,0.689c-0.662,0.377-1.404,0.598-2.301,0.598
		C25.61,11.531,24.635,10.244,24.635,7.28z M29.899,6.942c-0.025-1.937-0.936-2.665-2.209-2.665c-1.509,0-2.186,0.897-2.263,2.665
		H29.899z"/>
	<path d="M32.577,11.375V3.744l0.638-0.052l0.026,0.858l0.025,1.053h0.026c0.442-1.196,1.339-2.002,2.496-2.002
		c0.26,0,0.507,0.026,0.728,0.091l-0.064,0.819c-0.221-0.078-0.455-0.104-0.702-0.104c-1.3,0-2.392,1.196-2.392,3.055v3.913H32.577z
		"/>
	<path d="M39.521,4.342v5.187c0,0.923,0.48,1.287,1.248,1.287c0.221,0,0.494-0.039,0.649-0.104l0.065,0.624
		c-0.209,0.091-0.586,0.156-0.924,0.156c-1.195,0-1.832-0.624-1.832-1.938V4.342H37.53V3.705h1.209l0.156-2.015l0.625-0.078v2.093
		h2.015v0.637H39.521z"/>
	<path d="M42.679,7.28c0-2.405,1.027-3.705,3.055-3.705c1.73,0,2.939,1.053,2.939,3.536c0,0.117-0.014,0.286-0.027,0.39h-5.16
		c0.039,2.457,0.857,3.289,2.691,3.289c0.805,0,1.469-0.195,2.119-0.546l0.104,0.689c-0.663,0.377-1.404,0.598-2.301,0.598
		C43.653,11.531,42.679,10.244,42.679,7.28z M47.944,6.942c-0.025-1.937-0.936-2.665-2.211-2.665c-1.508,0-2.184,0.897-2.262,2.665
		H47.944z"/>
	<path d="M55.522,11.375V6.201c0-1.313-0.728-1.872-2.027-1.872c-0.754,0-1.664,0.364-2.094,1.04v6.006h-0.779V3.718l0.559-0.052
		l0.143,0.923h0.039c0.521-0.637,1.404-1.014,2.328-1.014c1.625,0,2.613,0.845,2.613,2.613v5.187H55.522z"/>
	<path d="M61.724,6.643v0.624h-3.289V6.643H61.724z"/>
	<path d="M6.071,20.604l1.6,6.059l0.26,1.014H7.97l0.207-1.027l1.431-6.045H10.4l-1.937,7.67H7.462l-1.547-5.811l-0.246-1.027H5.63
		l-0.261,1.027l-1.586,5.811H2.808l-2.002-7.67h0.807l1.455,6.02l0.234,1.027h0.039l0.248-1.014L5.2,20.604H6.071z"/>
	<path d="M13.208,19.032c-0.391,0-0.611-0.13-0.611-0.546c0-0.351,0.221-0.546,0.611-0.546s0.611,0.195,0.611,0.546
		C13.819,18.862,13.599,19.032,13.208,19.032z M12.806,28.275v-7.631l0.793-0.065v7.696H12.806z"/>
	<path d="M18.356,28.431c-0.91,0-1.769-0.247-2.34-0.702l0.129-0.715c0.56,0.468,1.418,0.728,2.197,0.728
		c1.301,0,1.846-0.663,1.846-1.547c0-2.054-4.133-1.17-4.133-3.705c0-1.248,0.896-2.015,2.547-2.015
		c0.729,0,1.404,0.143,2.016,0.442l-0.078,0.689c-0.637-0.286-1.312-0.429-1.949-0.429c-1.093,0-1.781,0.494-1.781,1.274
		c0,1.911,4.121,0.962,4.121,3.666C20.931,27.508,20.138,28.431,18.356,28.431z"/>
	<path d="M24.661,28.431c-0.91,0-1.768-0.247-2.34-0.702l0.13-0.715c0.56,0.468,1.417,0.728,2.197,0.728
		c1.3,0,1.846-0.663,1.846-1.547c0-2.054-4.134-1.17-4.134-3.705c0-1.248,0.896-2.015,2.548-2.015c0.728,0,1.404,0.143,2.015,0.442
		l-0.078,0.689c-0.637-0.286-1.312-0.429-1.949-0.429c-1.092,0-1.781,0.494-1.781,1.274c0,1.911,4.121,0.962,4.121,3.666
		C27.235,27.508,26.442,28.431,24.661,28.431z"/>
	<path d="M28.626,24.18c0-2.405,1.027-3.705,3.055-3.705c1.729,0,2.938,1.053,2.938,3.536c0,0.117-0.013,0.286-0.026,0.39h-5.161
		c0.039,2.457,0.858,3.289,2.691,3.289c0.806,0,1.469-0.195,2.119-0.546l0.104,0.689c-0.664,0.377-1.404,0.598-2.302,0.598
		C29.601,28.431,28.626,27.144,28.626,24.18z M33.892,23.842c-0.027-1.937-0.937-2.665-2.211-2.665
		c-1.508,0-2.184,0.897-2.262,2.665H33.892z"/>
	<path d="M41.47,28.275v-5.174c0-1.313-0.728-1.872-2.027-1.872c-0.754,0-1.664,0.364-2.094,1.04v6.006h-0.779v-7.657l0.559-0.052
		l0.143,0.923h0.039c0.521-0.637,1.404-1.014,2.328-1.014c1.625,0,2.613,0.845,2.613,2.613v5.187H41.47z"/>
</g>
</svg>
