<svg enable-background="new 0 0 643.8 600" viewBox="0 0 643.8 600" xmlns="http://www.w3.org/2000/svg"><text fill="#fff" font-family="ClanPro-NarrBlack" font-size="12.2353" transform="matrix(.9919 0 0 1 -430.8037 362.9277)">Mehr infos</text><path clip-rule="evenodd" d="m618.6 296.8v-22.1c0-4.3-2.3-6.1-6.5-6.1-2.6 0-5.4 1.1-6.8 3.1v25.1h-7.2v-34l5.2-.4 1.1 3.3c2.6-2.4 6-3.7 9.7-3.7 7.2 0 11.8 4.4 11.8 12.7v22.1zm-47.8-15.5c.3 7.2 3.3 9.7 9.9 9.7 3.4 0 6.3-.6 9.2-1.9l.9 6c-2.9 1.4-6.6 2.3-10.9 2.3-11.5 0-16.5-6.1-16.5-18.3 0-10.8 4.8-17 14.7-17 8.4 0 13.8 4.9 13.8 15.8 0 1.1-.1 2.4-.2 3.5h-20.9zm7.2-13.1c-4.9 0-7 2.5-7.4 8.3h14.5c-.2-6.1-2.9-8.3-7.1-8.3zm-20.7 4.3c0 6.5-3.5 10.2-12.5 10.2-1.5 0-3.1-.1-4.5-.4-1.1.5-1.8 1.2-1.8 2 0 1 .8 1.8 2.6 1.9l8.2.6c8.1.6 11 3.4 11 8.5 0 6.6-4.3 10.7-15.2 10.7-9.5 0-13.6-3.7-13.6-9 0-2.2 1-4.3 3-5.9-1.5-1-2.7-2.6-2.7-4.9s1.4-4.4 4.3-5.7c-2.4-1.5-3.9-4-3.9-8 0-6.3 3.5-10.4 12.6-10.4 3 0 6.1.5 8.5 2l5.7-2 1.5 3.6-3.8 2.8c.3 1 .6 2.4.6 4zm-12.4 27.9c7 0 8.8-1.6 8.8-4.1 0-1.9-1.1-3-5.7-3.3l-8.2-.6c-1.3 1.1-2 2.4-2 3.6-.1 2.9 2 4.4 7.1 4.4zm-.1-32.8c-4.1 0-5.6 1.6-5.6 5 0 4 2.2 5 5.4 5 4.4 0 5.7-1.5 5.7-5 0-3.7-1.6-5-5.5-5zm-27.1 7.1c0-4.3-2.3-6.1-6.5-6.1-2.6 0-5.4 1.1-6.8 3.1v25.1h-7.2v-34l5.2-.4 1.1 3.3c2.6-2.4 6-3.7 9.7-3.7 7.2 0 11.8 4.4 11.8 12.7v22.1h-7.2v-22.1zm-42.2 22.7c-9.4 0-13.9-4.5-13.9-12.3v-22.5h7.2v22.3c0 3.9 2.2 6 6.7 6 4.4 0 6.6-2 6.6-6v-22.3h7.2v22.5c.1 8-4.4 12.3-13.8 12.3zm-21.5-24.9c0 6.5-3.5 10.2-12.6 10.2-1.5 0-3.1-.1-4.5-.4-1.1.5-1.8 1.2-1.8 2 0 1 .8 1.8 2.6 1.9l8.2.6c8.1.6 11 3.4 11 8.5 0 6.6-4.3 10.7-15.2 10.7-9.5 0-13.6-3.7-13.6-9 0-2.2 1-4.3 2.9-5.9-1.5-1-2.7-2.6-2.7-4.9s1.4-4.4 4.3-5.7c-2.4-1.5-3.9-4-3.9-8 0-6.3 3.5-10.4 12.6-10.4 3 0 6.1.5 8.5 2l5.7-2 1.5 3.6-3.8 2.8c.6 1 .8 2.4.8 4zm-12.4 27.9c7 0 8.8-1.6 8.8-4.1 0-1.9-1.1-3-5.7-3.3l-8.2-.6c-1.3 1.1-2 2.4-2 3.6-.1 2.9 2 4.4 7.1 4.4zm-.1-32.8c-4.1 0-5.6 1.6-5.6 5 0 4 2.2 5 5.4 5 4.4 0 5.7-1.5 5.7-5 .1-3.7-1.6-5-5.5-5zm-27 7.1c0-4.3-2.3-6.1-6.5-6.1-2.6 0-5.4 1.1-6.8 3.1v25.1h-7.2v-34l5.2-.4 1.1 3.3c2.6-2.4 6-3.7 9.7-3.7 7.2 0 11.8 4.4 11.8 12.7v22.1h-7.2v-22.1zm-33.7-16.6c-2.9 0-4.3-.9-4.3-3.4 0-2.2 1.4-3.5 4.3-3.5 3 0 4.3 1.2 4.3 3.5s-1.3 3.4-4.3 3.4zm-19.6 35.4-.2-.1c-2.1 2.6-5.2 4-9.5 4-9 0-13.1-5.7-13.1-17.9 0-11.4 4.2-17.6 13.1-17.6 3.5 0 6.6 1.2 9 3.5l.1-.1-.1-4.5v-8.5l7.2-.4v44.9h-5.7zm-.8-21.8c-1.2-1.9-3.7-3.1-6.9-3.1-5.6 0-7.7 3-7.7 11.2 0 8.7 1.8 11.6 7.6 11.6 3.9 0 6-1.8 6.9-3.4v-16.3zm-47.6 9.6c.3 7.2 3.4 9.7 9.9 9.7 3.4 0 6.3-.6 9.2-1.9l.9 6c-2.9 1.4-6.6 2.3-10.9 2.3-11.5 0-16.5-6.1-16.5-18.3 0-10.8 4.8-17 14.7-17 8.4 0 13.8 4.9 13.8 15.8 0 1.1-.1 2.4-.2 3.5h-20.9zm7.2-13.1c-4.9 0-7 2.5-7.4 8.3h14.5c-.1-6.1-2.9-8.3-7.1-8.3zm-33.2 29.3c-4 0-7.4-1.5-9.5-3.8l-1 3.1h-4.9v-44.5l7.2-.4v8.9l-.1 4.5.2.1c2.4-2.3 5.6-3.4 9-3.4 7.9 0 12.9 4.9 12.9 17.6-.1 12.7-5.2 17.9-13.8 17.9zm-1.2-29c-3.1 0-5.6 1.2-7 3.4v16.1c1.2 1.9 3.6 3.5 7.1 3.5 4.6 0 7.5-2.2 7.5-11.8 0-9.3-2.8-11.2-7.6-11.2zm-33.3 29c-4.1 0-7.8-.9-10.6-2.6l.9-6.1c2.7 1.8 6.6 2.7 9.8 2.7 4.1 0 5.9-1.9 5.9-4.4 0-6.5-16.6-3.1-16.6-14.9 0-6 4.1-10.1 12.5-10.1 3.4 0 6.6.7 9.5 1.9l-.6 6c-2.8-1.2-6.4-1.8-9-1.8-3.4 0-5.5 1.4-5.5 3.6 0 6 16.4 2.7 16.4 14.5-.1 6.7-3.9 11.2-12.7 11.2zm-24.3-22.8c0-4.3-2.3-6.1-6.5-6.1-2.6 0-5.4 1.1-6.8 3.1v25.1h-7.2v-34l5.2-.4 1.1 3.3c2.6-2.4 6-3.7 9.7-3.7 7.2 0 11.8 4.4 11.8 12.7v22.1h-7.3zm-31.1 63.1c0-4.3-2.3-6.1-6.5-6.1-2.6 0-5.4 1.1-6.8 3.1v25.1h-7.2v-34l5.2-.4 1.1 3.3c2.6-2.4 6-3.7 9.7-3.7 7.2 0 11.8 4.4 11.8 12.7v22.1h-7.2v-22.1zm-11.1-40.2c-10.6 0-15.3-5.1-15.3-17.8 0-12.6 4.8-17.8 15.3-17.8 10.6 0 15.2 5.2 15.2 17.8 0 12.7-4.6 17.8-15.2 17.8zm0-29.5c-5.7 0-7.8 2.7-7.8 11.7s2.2 11.7 7.8 11.7 7.7-2.7 7.7-11.7-2.1-11.7-7.7-11.7zm-36.8 76.4c.3 7.2 3.3 9.7 9.9 9.7 3.4 0 6.3-.6 9.2-1.9l.9 6c-2.9 1.4-6.6 2.3-10.9 2.3-11.5 0-16.5-6.1-16.5-18.3 0-10.8 4.8-17 14.7-17 8.4 0 13.8 4.9 13.8 15.8 0 1.1-.1 2.4-.2 3.5h-20.9zm7.2-13.2c-4.9 0-7 2.5-7.4 8.3h14.5c-.1-6-2.8-8.3-7.1-8.3zm6.6-34.5h-7.3v-34l7.3-.4zm-3.7-38.7c-2.9 0-4.3-.9-4.3-3.4 0-2.2 1.4-3.5 4.3-3.5 3 0 4.3 1.2 4.3 3.5.1 2.3-1.3 3.4-4.3 3.4zm-18.5 29.1c0 3 1.6 4.3 4.5 4.3.9 0 2.2-.2 2.8-.4l.5 5.4c-1.1.5-3.2.9-5.3.9-6.4 0-9.6-3.7-9.6-10v-19.2h-4.3v-5.6h4.5l1.3-8 5.7-.6v8.6h8v5.6h-8v19zm-22.2 9.6-8.7-15.3h-4.9v15.3h-7.2v-44.5l7.2-.4v23.5h4.9l8.4-12.8h8.2l-10.4 15.6 10.7 18.6zm-41.7 47.7c.3 7.2 3.4 9.7 9.9 9.7 3.4 0 6.3-.6 9.2-1.9l.9 6c-2.9 1.4-6.6 2.3-10.9 2.3-11.5 0-16.5-6.1-16.5-18.3 0-10.8 4.8-17 14.7-17 8.4 0 13.8 4.9 13.8 15.8 0 1.1-.1 2.4-.2 3.5h-20.9zm7.2-13.2c-4.9 0-7 2.5-7.4 8.3h14.5c-.1-6-2.9-8.3-7.1-8.3zm-2.9-43.7h-17l-2.8 9.1h-8.4l15.2-42.5h9.4l15.3 42.6h-8.8zm-7.1-23.2-1.2-4.4h-.2l-1.3 4.4-5.2 16.6h13zm-21.8 3.4-2.7 2.2-4.3-4.8-4.4 4.8-2.8-2 3.5-5.3-5.8-2.3 1.3-3.6 5.9 1.5.5-6.1h3.5l.5 6.1 5.8-1.5 1.2 3.6-5.7 2.3zm-14.4 81.5c0-2.3 1.4-4.4 4.3-5.7-2.4-1.5-3.9-4-3.9-8 0-6.3 3.5-10.4 12.6-10.4 3 0 6.1.5 8.5 2l5.7-2 1.5 3.6-3.8 2.8c.5 1.1.7 2.5.7 4.1 0 6.5-3.5 10.2-12.5 10.2-1.5 0-3.1-.1-4.5-.4-1.1.5-1.8 1.2-1.8 2 0 1 .8 1.8 2.6 1.9l8.2.6c8.1.6 11 3.4 11 8.5 0 6.6-4.3 10.7-15.2 10.7-9.5 0-13.6-3.7-13.6-9 0-2.2 1-4.3 3-5.9-1.7-1.1-2.8-2.7-2.8-5zm12.8-8.6c4.4 0 5.7-1.5 5.7-5 0-3.7-1.6-5-5.6-5-4.1 0-5.6 1.6-5.6 5 .1 4 2.3 5 5.5 5zm.3 22.8c7 0 8.8-1.6 8.8-4.1 0-1.9-1.1-3-5.7-3.3l-8.2-.6c-1.3 1.1-2 2.4-2 3.6-.1 2.9 2 4.4 7.1 4.4zm61.3-3.6h-7.3v-44.5l7.3-.4zm12.3-42.2 5.7-.6v8.6h8v5.6h-8v19c0 3 1.6 4.3 4.5 4.3.9 0 2.2-.2 2.8-.4l.5 5.4c-1.1.5-3.2.9-5.3.9-6.4 0-9.6-3.7-9.6-10v-19.2h-4.3v-5.6h4.5zm260.1-20.9h-7.3v-34l7.3-.4z" fill-rule="evenodd"/></svg>