<svg enable-background="new 0 0 643.8 600" viewBox="0 0 643.8 600" xmlns="http://www.w3.org/2000/svg"><text fill="#fff" font-family="ClanPro-NarrBlack" font-size="12.2353" transform="matrix(.9919 0 0 1 -430.8037 362.9277)">Mehr infos</text><path clip-rule="evenodd" d="m546.1 225.4 22.6 47.5h-35l-15.5-41.5h-10.2v41.5h-30.2v-116.1h40.1c29.4 0 44 11.1 44 37.3-.1 15.5-5.6 26.9-15.8 31.3zm-27.6-43.5h-10.5v26.8h10.4c8.8 0 11.9-2.2 11.9-13.5 0-10.5-3-13.3-11.8-13.3zm-52.4 64.9-.6 26.2h-74.8v-116.2h72.8l.6 26.6h-43.2v18h35.6v24.3h-35.6v21.1zm-39.7 62.8c8.2 0 18.3 1.9 24.5 4.3l-2.9 25.7c-5.1-1.9-12.1-3.1-19.4-3.1-17.2 0-21.5 7.3-21.5 32.7 0 26.8 4.8 34.2 22 34.2 7.1 0 13.8-1.4 19.2-3.9l2.8 24.6c-7 3.4-17.5 5.6-26.5 5.6-33.1 0-49.2-18.9-49.2-60.7-.2-38.9 15.5-59.4 51-59.4zm-81.7-82.2h-28.2v45.5h-30.2v-116.1h30.2v43.5h28.2v-43.5h30.4v116.2h-30.4zm-39.8 160.3c0 10.4 4 15 14.4 15 10.5 0 14.1-4.3 14.1-15v-76h30.2v76.7c0 27.3-14.6 41.5-44.3 41.5s-44.8-14.2-44.8-41.5v-76.7h30.4zm-79.9-112.8c-33.5 0-48.6-17.7-48.6-60.1 0-42.6 14.6-59.9 48.6-59.9s48.6 17.3 48.6 59.9c.1 43.7-14.5 60.1-48.6 60.1zm-.1-92.9c-12.7 0-16.7 5.3-16.7 32.8 0 27.7 4.2 33.3 17 33.3s16.7-5.7 16.7-33.3c0-27.7-3.8-32.8-17-32.8zm-107.8 245.8h-42v-116.2h41.4c35.3 0 49.7 16.4 49.7 57.5 0 42.6-16.4 58.7-49.1 58.7zm-.5-89.4h-11.3v62.9h11.3c13.3 0 17.8-4 17.8-32.5.1-25.7-4.1-30.4-17.8-30.4zm16.9-111h-28.2v45.5h-30.2v-116.1h30.2v43.5h28.2v-43.5h30.4v116.2h-30.4zm129.5 121.6c0 15.5-5.6 26.9-15.8 31.3l22.6 47.5h-35l-15.5-41.5h-10.2v41.5h-30.2v-116.2h40.1c29.4 0 44 11.2 44 37.4zm-53.9 14.5h10.4c8.8 0 11.9-2.2 11.9-13.5 0-10.5-2.9-13.3-11.8-13.3h-10.5zm283.2-7h8.1l21.5-44.9h33.9l-27.9 55.6 29.3 60.6h-35.6l-21.8-47.2h-7.4v47.2h-30.2v-116.2h30.2v44.9z" fill-rule="evenodd"/></svg>