<svg enable-background="new 0 0 643.8 600" viewBox="0 0 643.8 600" xmlns="http://www.w3.org/2000/svg"><text fill="#fff" font-family="ClanPro-NarrBlack" font-size="12.2353" transform="matrix(.9919 0 0 1 -430.8037 362.9277)">Mehr infos</text><path clip-rule="evenodd" d="m481.4 268.4h-7.4l-3.3-8.8h-2.2v8.8h-6.4v-24.7h8.6c6.3 0 9.4 2.4 9.4 8 0 3.3-1.2 5.7-3.4 6.7zm-10.7-19.4h-2.2v5.7h2.2c1.9 0 2.5-.5 2.5-2.9 0-2.2-.6-2.8-2.5-2.8zm-21.2 19.8c-6.3 0-9.5-3-9.5-8.8v-16.3h6.5v16.2c0 2.2.9 3.2 3.1 3.2s3-.9 3-3.2v-16.2h6.4v16.3c-.1 5.8-3.2 8.8-9.5 8.8zm3.1-26.4c-1.6 0-2.4-.6-2.4-2.2 0-1.5.8-2.3 2.4-2.3 1.7 0 2.4.8 2.4 2.3.1 1.5-.7 2.2-2.4 2.2zm-6.3 0c-1.6 0-2.4-.6-2.4-2.2 0-1.5.8-2.3 2.4-2.3 1.7 0 2.4.8 2.4 2.3.1 1.5-.7 2.2-2.4 2.2zm-17.4 11.3h7.6v5.5h-7.5v9.1h-6.5v-24.7h15.5l.1 5.8h-9.1v4.3zm-16.1 43.2v4.4h-5.8v-4.4h-9.8l-.5-4 8.6-16.3h7.6v15.1h2l-.1 5.2zm-5.3-14.1-4.4 8.9h4.1l.2-6.2zm-2-14.4-4.7-10.1h-1.6v10.1h-6.4v-24.7h6.4v9.6h1.7l4.6-9.6h7.2l-5.9 11.8 6.2 12.9zm-19.7-5.2c1.5 0 2.9-.3 4.1-.8l.6 5.2c-1.5.7-3.7 1.2-5.6 1.2-7.1 0-10.5-4-10.5-12.9 0-8.3 3.3-12.7 10.9-12.7 1.8 0 3.9.4 5.2.9l-.6 5.5c-1.1-.4-2.6-.7-4.1-.7-3.7 0-4.6 1.6-4.6 7-.1 5.7.9 7.3 4.6 7.3zm-19.7.8h-6.7l-1 4.3h-6.8l7.3-24.7h7.9l7.5 24.7h-7.2zm-2.8-12.4-.5-2.6h-.1l-.6 2.6-1.6 7.1h4.3zm-12.1 9.5c0 4.5-2.7 7.3-8.9 7.3h-9.6v-24.7h9.7c5.3 0 8 2.5 8 6.4 0 2.6-1.2 4.3-3 5.2v.1c2.5.7 3.8 2.6 3.8 5.7zm-9-12.1h-3.2v4.4h3.3c1.5 0 2-.6 2-2.2-.1-1.7-.6-2.2-2.1-2.2zm.1 9.2h-3.3v4.9h3.5c1.6 0 2.2-.5 2.2-2.5 0-1.7-.5-2.4-2.4-2.4zm3.5 17.4-10.3 29.6h-5l10.2-29.6zm-24.6 26.1c-6.1 0-8.6-3.7-8.6-12.6 0-9.4 2.5-12.8 8.7-12.8 6 0 8.7 3.3 8.7 12.8 0 8.9-2.8 12.6-8.8 12.6zm.1-19.8c-1.8 0-2.5.9-2.5 7.2 0 6.6.8 7.3 2.5 7.3s2.5-.9 2.5-7.3c0-6.5-.8-7.2-2.5-7.2zm1.6-23.2h-6v9.7h-6.4v-24.7h6.4v9.3h6v-9.3h6.5v24.7h-6.5zm-26.2 38.2h2.9v-12.8l-3.8 2.1-.7-5 7.2-4.5h3.7v20.3h2.9v4.4h-12.4v-4.5zm2.6-28.1c-2.6 0-5.2-.6-7.2-1.7l.8-5.5c2 1 4.1 1.6 6.2 1.6 2 0 2.8-.7 2.8-2 0-3.2-9.8-2.2-9.8-10.3 0-4.3 2.6-7.8 8.8-7.8 2.3 0 4.7.4 6.5 1.2l-.7 5.4c-1.9-.6-3.8-.9-5.3-.9-2.4 0-3 .7-3 1.8 0 3.2 9.8 2.1 9.8 10.2 0 5-3.3 8-8.9 8zm-6.8 42.3 3.1.7.5-3.2h2.8l.4 3.2 3-.7 1 2.7-2.9 1.4 1.7 2.8-2.1 1.6-2.4-2.4-2.5 2.4-2.1-1.5 1.6-2.9-2.9-1.4zm-9.6-47.1h-6.7l-1 4.3h-6.8l7.3-24.7h7.9l7.5 24.7h-7.2zm-2.8-12.4-.5-2.6h-.1l-.6 2.6-1.6 7.1h4.3zm-3.4 24.6c2.3 0 4.7.4 6.5 1.2l-.7 5.4c-1.9-.6-3.8-.9-5.3-.9-2.4 0-3 .7-3 1.8 0 3.2 9.8 2.1 9.8 10.2 0 4.9-3.3 7.9-8.9 7.9-2.6 0-5.2-.6-7.2-1.7l.8-5.5c2 1 4.1 1.6 6.2 1.6 2 0 2.8-.7 2.8-2 0-3.2-9.8-2.2-9.8-10.3.1-4.3 2.7-7.7 8.8-7.7zm-14-13c1.5 0 2.9-.3 4.1-.8l.6 5.2c-1.5.7-3.7 1.2-5.6 1.2-7.1 0-10.5-4-10.5-12.9 0-8.3 3.3-12.7 10.9-12.7 1.8 0 3.9.4 5.2.9l-.6 5.5c-1.1-.4-2.6-.7-4.1-.7-3.7 0-4.6 1.6-4.6 7-.1 5.7.9 7.3 4.6 7.3zm3.4 25.7c0 9.1-3.5 12.5-10.5 12.5h-8.9v-24.7h8.8c7.5-.1 10.6 3.4 10.6 12.2zm-13 6.8h2.4c2.8 0 3.8-.9 3.8-6.9 0-5.5-.9-6.5-3.8-6.5h-2.4zm-16.2-4h-6v9.7h-6.4v-24.7h6.4v9.3h6v-9.3h6.5v24.7h-6.5zm0-23.3h-6.6v-19h-5.6l.1-5.8h17.5l.1 5.8h-5.6v19zm-13.5-5.8-.1 5.7h-16.9v-4.2l7.9-12.5 1.5-2.2v-.1h-9.1l.2-5.8h16.5v4.6l-7.6 12.1-1.5 2.1v.1h9.1zm-23.6 5.8h-6.6v-19h-5.6l.1-5.8h17.5l.1 5.8h-5.6v19zm-13.3-5.6-.1 5.6h-15.9v-24.7h15.5l.1 5.7h-9.2v3.8h7.6v5.2h-7.6v4.5h9.6zm-23.7 38.6h-8.9v-24.7h8.8c7.5 0 10.6 3.5 10.6 12.2 0 9-3.5 12.5-10.5 12.5zm-.1-19.1h-2.4v13.4h2.4c2.8 0 3.8-.9 3.8-6.9 0-5.5-.9-6.5-3.8-6.5zm-5.2-13.5c-1.8 0-3.3-.3-4.5-.9l.3-5.4c.7.4 1.8.6 3.1.6 2.7 0 4-1.1 4-4v-15.5h6.6v15.7c0 7.2-3.7 9.5-9.5 9.5zm2.7 60.4c2 0 2.8-.7 2.8-2 0-3.2-9.8-2.2-9.8-10.3 0-4.3 2.6-7.8 8.8-7.8 2.3 0 4.7.4 6.5 1.2l-.7 5.4c-1.9-.6-3.8-.9-5.4-.9-2.4 0-3 .7-3 1.8 0 3.2 9.8 2.1 9.8 10.2 0 4.9-3.3 7.9-8.9 7.9-2.6 0-5.2-.6-7.2-1.7l.8-5.5c2.1 1.1 4.1 1.7 6.3 1.7zm18.2 5.2h-6.6v-24.7h6.6zm13.7-38.6-.1 5.6h-16v-24.7h15.5l.1 5.7h-9.2v3.8h7.6v5.2h-7.6v4.5h9.7zm.2 13.4c1.8 0 3.9.4 5.2.9l-.6 5.5c-1.1-.4-2.6-.7-4.1-.7-3.7 0-4.6 1.5-4.6 7 0 5.7 1 7.3 4.7 7.3 1.5 0 2.9-.3 4.1-.8l.6 5.2c-1.5.7-3.7 1.2-5.6 1.2-7.1 0-10.5-4-10.5-12.9-.1-8.4 3.2-12.7 10.8-12.7zm15.7-32.6h5.7v24.7h-4.7l-7.4-11.4-1.4-2.3h-.1v2.7 11h-5.7v-24.7h5.4l8 12.8h.1l-.1-2.6zm-1.6 42.3h6v-9.3h6.5v24.7h-6.5v-9.7h-6v9.7h-6.4v-24.7h6.4zm31.4-3.6h-9.2v3.8h7.6v5.2h-7.6v4.5h9.6l-.1 5.6h-15.9v-24.7h15.5zm20.9 2.3c0 3.3-1.2 5.7-3.4 6.7l4.8 10.1h-7.5l-3.3-8.8h-2.2v8.8h-6.4v-24.7h8.6c6.3-.1 9.4 2.3 9.4 7.9zm-11.5 3.1h2.2c1.9 0 2.5-.5 2.5-2.9 0-2.2-.6-2.8-2.5-2.8h-2.2zm27.9 1.7v-2.7-10.2h5.7v24.7h-4.6l-7.4-11.4-1.4-2.3h-.1v2.7 11h-5.7v-24.7h5.4zm11.8 6.1c2.3 0 3.3 1.2 3.3 3.2 0 1.9-1 3.1-3.3 3.1s-3.3-.9-3.3-3.1c-.1-2.1.9-3.2 3.3-3.2zm67-46.6c-1.9 0-3.6.9-5.2 2l-1.5-5.1c2-1.5 4.6-2.5 8-2.5 5.4 0 8.1 2.9 8.1 7.3 0 4-3.2 7.6-7.9 12v.1h7.7l-.1 5.6h-15.6v-4c5.1-5.7 9.3-9.8 9.3-13.1.1-1.4-.8-2.3-2.8-2.3zm20.7-5.6c6 0 8.7 3.3 8.7 12.8 0 8.8-2.7 12.6-8.8 12.6s-8.6-3.7-8.6-12.6c.1-9.4 2.6-12.8 8.7-12.8zm0 20.1c1.7 0 2.5-.9 2.5-7.3s-.8-7.2-2.5-7.2c-1.8 0-2.5.9-2.5 7.2 0 6.6.8 7.3 2.5 7.3zm20.2-5.3h-9.2v-4.3h9.2zm41.2-2 .8 2.5h.1l.8-2.5 4.4-12.5h7.1v24.7h-5.9v-10.3l.1-2.7h-.1l-.8 2.6-3.7 10.5h-4.2l-3.6-10.5-.8-2.6h-.1v2.7 10.3h-5.6v-24.7h7.1z" fill-rule="evenodd"/></svg>