<svg enable-background="new 0 0 643.8 600" viewBox="0 0 643.8 600" xmlns="http://www.w3.org/2000/svg"><text fill="#fff" font-family="ClanPro-NarrBlack" font-size="12.2353" transform="matrix(.9919 0 0 1 -430.8037 362.9277)">Mehr infos</text><path clip-rule="evenodd" d="m545.8 392.1c-5.3 0-6.4 1.6-6.4 3.8 0 6.9 21.2 4.6 21.2 22 0 10.5-7.1 17.1-19.2 17.1-5.6 0-11.2-1.3-15.5-3.7l1.8-11.8c4.3 2.2 8.8 3.6 13.4 3.6 4.4 0 6.1-1.5 6.1-4.3 0-6.8-21.2-4.7-21.2-22.2 0-9.3 5.7-16.7 18.9-16.7 4.9 0 10.2.9 14 2.6l-1.6 11.6c-4-1.3-8-2-11.5-2zm-43.6 32.5v9.5h-12.6v-9.5h-21.1l-1.1-8.7 18.5-35.2h16.3v32.6h4.3l-.3 11.3zm-11.4-30.5-9.5 19.2h8.8l.5-13.4.4-5.8zm-47.4 8.7h19.9v9.3h-19.9zm-16.2-111.1-10-21.7h-3.4v21.7h-13.9v-53.4h13.9v20.7h3.7l9.9-20.7h15.6l-12.8 25.6 13.5 27.8zm-48.8 130.4h16.7l-.3 12h-33.6v-8.7c11-12.3 20-21.2 20-28.2 0-3.2-1.9-5.1-6.1-5.1-4.1 0-7.8 1.9-11.3 4.3l-3.2-11c4.3-3.1 10-5.3 17.2-5.3 11.7 0 17.5 6.3 17.5 15.7 0 8.7-6.9 16.5-17 26zm6.2-141.6c3.3 0 6.3-.6 8.8-1.8l1.3 11.3c-3.2 1.6-8 2.6-12.2 2.6-15.2 0-22.7-8.7-22.7-27.9 0-18 7.2-27.4 23.5-27.4 3.8 0 8.4.9 11.3 2l-1.4 11.8c-2.3-.9-5.6-1.4-8.9-1.4-7.9 0-9.9 3.3-9.9 15 .1 12.4 2.3 15.8 10.2 15.8zm-42.5 1.8h-14.5l-2.1 9.3h-14.7l15.8-53.4h17l16.1 53.4h-15.5zm-5.9-26.9-1.1-5.7h-.2l-1.2 5.7-3.4 15.3h9.3zm-26.2 20.5c0 9.6-5.8 15.7-19.1 15.7h-20.8v-53.4h20.9c11.5 0 17.3 5.3 17.3 13.8 0 5.6-2.6 9.3-6.5 11.2v.1c5.4 1.9 8.2 6 8.2 12.6zm-19.5-26h-6.9v9.4h7c3.2 0 4.3-1.2 4.3-4.8.1-3.5-1.1-4.6-4.4-4.6zm.3 19.8h-7.3v10.5h7.5c3.5 0 4.8-1.1 4.8-5.3.1-3.7-1-5.2-5-5.2zm-15.9-49.3h-14.2v-41h-12.1l.3-12.5h37.8l.3 12.5h-12.1zm-29-12.4-.2 12.4h-36.4v-9l17-27.1 3.1-4.7-.1-.1h-19.7l.4-12.5h35.7v10l-16.5 26.2-3.1 4.6.1.2zm-51.1 12.4h-14.2v-41h-12.1l.3-12.5h37.8l.3 12.5h-12.1zm-28.6-12-.3 12h-34.4v-53.4h33.5l.3 12.2h-19.9v8.3h16.4v11.2h-16.4v9.7zm-2 29.8 16.1 53.4h-15.5l-2.1-9.3h-14.5l-2.1 9.3h-14.7l15.8-53.4zm-4.1 32.5-3.4-15.3-1.1-5.7h-.2l-1.2 5.7-3.4 15.3zm-50.4 60.7h16.3l-.1 11.8h-16.2v19.7h-14v-53.4h33.4l.2 12.5h-19.7v9.4zm9.4-50.9c3.3 0 6.3-.6 8.8-1.8l1.3 11.3c-3.2 1.6-8 2.6-12.2 2.6-15.2 0-22.7-8.7-22.7-27.9 0-18 7.2-27.4 23.5-27.4 3.8 0 8.4.9 11.3 2l-1.4 11.8c-2.3-.9-5.6-1.4-8.9-1.4-7.9 0-9.9 3.3-9.9 15 .1 12.4 2.3 15.8 10.2 15.8zm-15.4-59.1c-4 0-7.2-.7-9.8-1.9l.7-11.6c1.5.8 3.8 1.3 6.6 1.3 5.8 0 8.7-2.3 8.7-8.7v-33.5h14.2v33.8c.1 15.7-7.9 20.6-20.4 20.6zm5.7 273c4.4 0 6.1-1.5 6.1-4.3 0-6.8-21.2-4.7-21.2-22.2 0-9.3 5.7-16.7 18.9-16.7 4.9 0 10.2.9 14 2.6l-1.6 11.6c-4.1-1.2-8.1-1.9-11.5-1.9-5.3 0-6.4 1.6-6.4 3.8 0 6.9 21.2 4.6 21.2 22 0 10.5-7.1 17.1-19.2 17.1-5.6 0-11.2-1.3-15.5-3.7l1.8-11.8c4.3 2.1 8.8 3.5 13.4 3.5zm39.4 11h-14.3v-53.4h14.3zm29.9-54.3c3.8 0 8.4.9 11.3 2l-1.4 11.8c-2.4-.9-5.6-1.4-8.9-1.4-7.9 0-9.9 3.3-9.9 15 0 12.3 2.2 15.7 10.1 15.7 3.3 0 6.3-.6 8.8-1.8l1.3 11.3c-3.2 1.6-8.1 2.6-12.2 2.6-15.2 0-22.7-8.7-22.7-27.9.1-17.9 7.3-27.3 23.6-27.3zm30.4 20.9h13v-20h14v53.4h-14v-20.9h-13v20.9h-13.9v-53.4h13.9zm15.3-54c0 10.5-7.1 17.1-19.2 17.1-5.6 0-11.2-1.3-15.5-3.7l1.8-11.8c4.3 2.2 8.8 3.6 13.4 3.6 4.4 0 6.1-1.5 6.1-4.3 0-6.8-21.2-4.7-21.2-22.2 0-9.3 5.7-16.7 18.9-16.7 4.9 0 10.2.9 14 2.6l-1.6 11.6c-4.1-1.2-8.1-1.9-11.5-1.9-5.3 0-6.4 1.6-6.4 3.8-.1 6.8 21.2 4.4 21.2 21.9zm-38.7-10.8c0 19.6-7.6 27-22.6 27h-19.3v-53.4h19c16.3-.1 22.9 7.5 22.9 26.4zm-22.8-14.1h-5.2v28.9h5.2c6.1 0 8.2-1.9 8.2-15 0-11.8-1.9-13.9-8.2-13.9zm-26.3-12.4v53.4h-14v-20.9h-13v20.9h-13.8v-53.4h13.9v20h13v-20zm5.6-78.5c0-3.2 1.8-4.9 5.3-4.9 3.6 0 5.3 1.7 5.3 4.9 0 3.1-1.6 4.8-5.3 4.8-3.6-.1-5.3-1.4-5.3-4.8zm13.6 0c0-3.2 1.8-4.9 5.3-4.9 3.6 0 5.3 1.7 5.3 4.9 0 3.1-1.6 4.8-5.3 4.8-3.6-.1-5.3-1.4-5.3-4.8zm18.8 42.5c0 12.5-6.7 19.1-20.4 19.1s-20.6-6.5-20.6-19.1v-35.3h14v35c0 4.8 1.9 6.9 6.6 6.9 4.8 0 6.5-2 6.5-6.9v-35h13.9zm42.5-69.2c0 10.5-7.1 17.1-19.2 17.1-5.6 0-11.2-1.3-15.5-3.7l1.8-11.8c4.3 2.2 8.8 3.6 13.4 3.6 4.4 0 6.1-1.5 6.1-4.3 0-6.8-21.2-4.7-21.2-22.2 0-9.3 5.7-16.7 18.9-16.7 4.9 0 10.2.9 14 2.6l-1.6 11.6c-4.1-1.2-8.1-1.9-11.5-1.9-5.3 0-6.4 1.6-6.4 3.8 0 6.8 21.2 4.4 21.2 21.9zm-10 87.4-7.1-19.1h-4.7v19.1h-13.9v-53.4h18.4c13.5 0 20.2 5.1 20.2 17.2 0 7.1-2.6 12.4-7.3 14.4l10.4 21.9h-16zm-7-41.9h-4.8v12.3h4.8c4.1 0 5.5-1 5.5-6.2-.1-4.8-1.5-6.1-5.5-6.1zm22-29.3v-53.4h13.9v20h13v-20h14v53.4h-14v-20.9h-13v20.9zm62.5 44.2c0 19.6-7.5 27-22.6 27h-19.3v-53.4h19c16.2 0 22.9 7.5 22.9 26.4zm-28 14.8h5.2c6.1 0 8.2-1.9 8.2-15 0-11.8-1.9-14-8.2-14h-5.2zm20.3 113.5h-19.9v8.3h16.4v11.2h-16.4v9.7h20.8l-.3 12h-34.4v-53.4h33.5zm-26.9-62.8-1.4-10.8 15.5-9.8h8v43.8h6.3v9.5h-26.6v-9.5h6.3v-27.7zm71.9 67.8c0 7.1-2.6 12.4-7.3 14.4l10.4 21.9h-16.1l-7.1-19.1h-4.7v19.1h-13.9v-53.5h18.4c13.6 0 20.3 5.1 20.3 17.2zm-24.8 6.6h4.8c4.1 0 5.5-1 5.5-6.2 0-4.8-1.4-6.1-5.4-6.1h-4.8v12.3zm5.3-84c-4.6 0-8.6 1.6-12 4.3l-3.1-10.7c4-3.1 9.9-5.3 16.1-5.3 11.5 0 18.2 5.7 18.2 15.2 0 4.8-2.2 8.7-6.4 11v.1c4.8 2.1 7.4 5.9 7.4 11.5 0 10.3-6.3 16.8-20.2 16.8-5.8 0-11.1-1.6-14.8-3.7l2.3-10.5c3.8 1.9 7.6 2.9 11.9 2.9 4.9 0 7.3-2.1 7.3-5.8 0-3.5-1.9-6.1-11.5-6.1v-9.5c9.2 0 11.1-2.1 11.1-5.7.2-2.8-1.6-4.5-6.3-4.5zm22.7-40.9-.3 12h-34.4v-53.4h33.5l.3 12.2h-19.9v8.3h16.4v11.2h-16.4v9.7zm-.5 91.5 21.9-64h11.1l-22.3 64zm34.8-132.9h12.2v53.4h-9.9l-16-24.6-3-4.9-.1.1.1 5.8v23.7h-12.3v-53.4h11.7l17.2 27.7.1-.1-.1-5.7zm-2 170.2.1-.1-.1-5.7.1-21.9h12.2v53.4h-9.9l-16-24.6-3-4.9-.1.1.1 5.8v23.7h-12.3v-53.5h11.7zm25.3 13c5 0 7.1 2.5 7.1 6.8 0 4.1-2.1 6.8-7.1 6.8s-7.2-1.9-7.2-6.8c0-4.3 2.2-6.8 7.2-6.8zm12.2-37.4 6.6 1.6 1-6.9h6l.9 6.9 6.6-1.6 2.1 5.8-6.3 3.1 3.6 6.1-4.5 3.4-5.3-5.1-5.4 5.2-4.6-3.3 3.5-6.3-6.3-3zm6.2-47.6c0-20.4 5.4-27.6 18.7-27.6 13 0 18.7 7.2 18.7 27.6 0 19.1-5.9 27.1-18.9 27.1-13.2.1-18.5-8-18.5-27.1zm18.7 15.7c3.7 0 5.3-1.9 5.3-15.8s-1.6-15.5-5.3-15.5c-3.8 0-5.5 1.9-5.5 15.5 0 14.3 1.7 15.8 5.5 15.8z" fill-rule="evenodd"/></svg>