<svg enable-background="new 0 0 643.8 600" viewBox="0 0 643.8 600" xmlns="http://www.w3.org/2000/svg"><text fill="#fff" font-family="ClanPro-NarrBlack" font-size="12.2353" transform="matrix(.9919 0 0 1 -430.8037 362.9277)">Mehr infos</text><path clip-rule="evenodd" d="m568.8 409.3-4.2-79.5h29.8l-4.1 79.5zm-14.2 8.3-.6 25.5h-73v-113.3h71l.6 26h-42.2v17.5h34.8v23.7h-34.8v20.6zm-84.1-8.7c0 22.4-15.1 36.3-40.6 36.3-11.9 0-23.7-2.7-32.9-7.9l3.8-25.1c9.2 4.7 18.6 7.6 28.4 7.6 9.4 0 13-3.2 13-9.2 0-14.5-45-10-45-47 0-19.8 12.1-35.5 40-35.5 10.4 0 21.6 2 29.8 5.4l-3.3 24.6c-8.6-2.6-17.2-4.1-24.5-4.1-11.2 0-13.6 3.3-13.6 8.2-.2 14.6 44.9 9.6 44.9 46.7zm-20.9-142.4-.6 25.5h-73v-113.3h71l.6 26h-42.2v17.5h34.8v23.8h-34.8v20.6h44.2zm-125.3-41.4h34.7l-.2 25.1h-34.5v41.9h-29.6v-113.4h70.9l.5 26.4h-41.7v20zm-40.9 41.4-.6 25.5h-73v-113.3h71l.6 26h-42.2v17.5h34.8v23.8h-34.8v20.6h44.2zm-120.6-87.8h30.4v113.3h-30.4zm-46.5 229.3h-9.4v35.2h-29.5v-113.4h38.8c31.4 0 44 12.2 44 39.9.1 24.5-12.2 38.3-43.9 38.3zm0-53.5h-9.4v30.1h9.4c9.7 0 13.3-2.3 13.3-15 0-12.3-2.9-15.1-13.3-15.1zm10.6-62.4h-30.1v-86.9h-25.7l.6-26.4h80.3l.6 26.4h-25.7zm126.1 74.2c0 15.1-5.4 26.3-15.4 30.5l22.1 46.4h-34.2l-15.1-40.5h-10v40.5h-29.4v-113.4h39.1c28.7 0 42.9 10.9 42.9 36.5zm-52.6 14.2h10.1c8.6 0 11.6-2.1 11.6-13.1 0-10.3-2.9-13-11.5-13h-10.3v26.1zm138.3-24.7h-42.2v17.5h34.8v23.7h-34.8v20.6h44.1l-.6 25.5h-73v-113.3h71zm44.9 87.4h-30.4v-113.4h30.4zm196.4-24.5c10.3 0 14.8 5 14.8 13.3 0 7.7-4.5 13-14.8 13-10.1 0-14.7-3.8-14.7-13 .1-8.3 4.6-13.3 14.7-13.3z" fill-rule="evenodd"/></svg>