<?xml version="1.0" encoding="utf-8"?>
<!-- Generator: Adobe Illustrator 16.0.0, SVG Export Plug-In . SVG Version: 6.00 Build 0)  -->
<!DOCTYPE svg PUBLIC "-//W3C//DTD SVG 1.1//EN" "http://www.w3.org/Graphics/SVG/1.1/DTD/svg11.dtd">
<svg version="1.1" id="Ebene_1" xmlns="http://www.w3.org/2000/svg" xmlns:xlink="http://www.w3.org/1999/xlink" x="0px" y="0px"
	 width="44.664px" height="12.453px" viewBox="0 0 44.664 12.453" enable-background="new 0 0 44.664 12.453" xml:space="preserve">
<g id="Text">
	<rect fill="#238C96" width="44.664" height="12.453"/>
	<g>
		<path fill="#FFFFFF" d="M5.992,7.689L5.349,6.298H5.13v1.392H4.24V4.268h0.89v1.323h0.237l0.634-1.323H7L6.18,5.905l0.862,1.785
			H5.992z"/>
		<path fill="#FFFFFF" d="M9.169,7.092H8.237L8.105,7.689H7.161l1.013-3.422h1.091l1.03,3.422H9.301L9.169,7.092z M8.626,5.367
			l-0.22,0.98h0.598l-0.219-0.98L8.717,5.002H8.703L8.626,5.367z"/>
		<path fill="#FFFFFF" d="M11.966,7.689h-1.332V4.268h1.342c0.734,0,1.108,0.342,1.108,0.885c0,0.361-0.164,0.594-0.42,0.717v0.009
			c0.342,0.114,0.524,0.379,0.524,0.804C13.188,7.297,12.819,7.689,11.966,7.689z M11.938,5.016h-0.442v0.603h0.452
			c0.205,0,0.277-0.077,0.277-0.311C12.226,5.084,12.148,5.016,11.938,5.016z M11.962,6.284h-0.466V6.96h0.483
			c0.224,0,0.306-0.073,0.306-0.343C12.285,6.38,12.212,6.284,11.962,6.284z"/>
		<path fill="#FFFFFF" d="M15.877,6.918l-0.018,0.771h-2.204V4.268H15.8l0.018,0.785h-1.272v0.529h1.05v0.716h-1.05v0.62H15.877z"/>
		<path fill="#FFFFFF" d="M18.393,6.896L18.37,7.689h-2.04V4.268h0.898v2.628H18.393z"/>
		<path fill="#FFFFFF" d="M20.857,6.896l-0.022,0.793h-2.039V4.268h0.898v2.628H20.857z"/>
		<path fill="#FFFFFF" d="M22.539,7.749c-0.986,0-1.433-0.521-1.433-1.771c0-1.255,0.429-1.766,1.433-1.766
			c1.003,0,1.434,0.511,1.434,1.766C23.973,7.266,23.542,7.749,22.539,7.749z M22.534,5.012c-0.374,0-0.493,0.154-0.493,0.967
			c0,0.816,0.123,0.981,0.502,0.981s0.493-0.169,0.493-0.981C23.036,5.162,22.922,5.012,22.534,5.012z"/>
		<path fill="#FFFFFF" d="M25.332,7.749c-0.359,0-0.717-0.082-0.995-0.237l0.114-0.758c0.277,0.143,0.562,0.229,0.857,0.229
			c0.282,0,0.393-0.096,0.393-0.277c0-0.438-1.359-0.301-1.359-1.419c0-0.598,0.365-1.072,1.209-1.072
			c0.314,0,0.652,0.06,0.898,0.164l-0.1,0.744c-0.262-0.078-0.521-0.123-0.74-0.123c-0.338,0-0.41,0.1-0.41,0.246
			c0,0.442,1.359,0.292,1.359,1.409C26.559,7.329,26.104,7.749,25.332,7.749z"/>
		<path fill="#FFFFFF" d="M29.053,6.896l-0.023,0.793H26.99V4.268h0.898v2.628H29.053z"/>
		<path fill="#FFFFFF" d="M31.678,6.918l-0.02,0.771h-2.203V4.268H31.6l0.019,0.785h-1.272v0.529h1.049v0.716h-1.049v0.62H31.678z"
			/>
		<path fill="#FFFFFF" d="M34.484,7.566c-0.237,0.113-0.625,0.187-0.978,0.187c-1.132,0-1.532-0.606-1.532-1.774
			c0-1.195,0.469-1.771,1.573-1.771c0.302,0,0.644,0.055,0.89,0.151l-0.082,0.762c-0.224-0.082-0.51-0.133-0.758-0.133
			c-0.561,0-0.688,0.21-0.688,0.981c0,0.812,0.132,0.99,0.574,0.99c0.068,0,0.142-0.005,0.205-0.02V5.823h0.795V7.566z"/>
		<path fill="#FFFFFF" d="M37.223,6.918l-0.018,0.771h-2.204V4.268h2.146l0.018,0.785h-1.271v0.529h1.049v0.716h-1.049v0.62H37.223z
			"/>
		<path fill="#FFFFFF" d="M39.68,7.689l-1.022-1.579l-0.191-0.315l-0.009,0.005l0.005,0.369v1.52h-0.784V4.268h0.747l1.101,1.774
			l0.009-0.004l-0.009-0.365l0.004-1.405h0.785v3.421H39.68L39.68,7.689z"/>
	</g>
</g>
<g id="Screens">
</g>
</svg>
