<?xml version="1.0" encoding="utf-8"?>
<!-- Generator: Adobe Illustrator 16.0.4, SVG Export Plug-In . SVG Version: 6.00 Build 0)  -->
<!DOCTYPE svg PUBLIC "-//W3C//DTD SVG 1.1//EN" "http://www.w3.org/Graphics/SVG/1.1/DTD/svg11.dtd">
<svg version="1.1" id="Ebene_1" xmlns="http://www.w3.org/2000/svg" xmlns:xlink="http://www.w3.org/1999/xlink" x="0px" y="0px"
	 width="152.699px" height="112.889px" viewBox="0 0 152.699 112.889" enable-background="new 0 0 152.699 112.889"
	 xml:space="preserve">
<g>
	<path d="M0,0h4.83v22.499H0V0z"/>
	<path d="M22.199,22.499l-7.709-12.18l-1.26-2.1L13.17,8.25l0.03,2.43v11.819H9.03V0h4.05l8.34,13.649l0.061-0.03l-0.061-2.4V0
		h4.141v22.499H22.199z"/>
	<path d="M37.11,22.499h-7.649V0h7.56c6.6,0,9.329,3.12,9.329,11.129C46.35,19.409,43.29,22.499,37.11,22.499z M37.051,4.35H34.17
		v13.83h2.881c3.119,0,4.35-1.02,4.35-7.08C41.4,5.49,40.26,4.35,37.051,4.35z"/>
	<path d="M65.76,14.849c0,5.4-2.789,8.04-8.25,8.04c-5.459,0-8.309-2.64-8.309-8.04V0h4.739v14.79c0,2.58,1.05,3.689,3.569,3.689
		c2.521,0,3.541-1.08,3.541-3.689V0h4.709V14.849z"/>
	<path d="M74.58,22.889c-2.34,0-4.559-0.57-6.299-1.59l0.629-4.14c1.74,0.93,3.57,1.5,5.58,1.5c2.25,0,3.24-0.87,3.24-2.52
		c0-3.69-9.359-2.4-9.359-9.75c0-3.81,2.31-6.75,7.5-6.75c2.039,0,4.109,0.39,5.67,1.11L81,4.83c-1.68-0.57-3.299-0.87-4.83-0.87
		c-2.549,0-3.27,0.96-3.27,2.22c0,3.6,9.359,2.28,9.359,9.66C82.26,20.249,79.44,22.889,74.58,22.889z"/>
	<path d="M93.18,4.41v18.089h-4.77V4.41h-5.459L83.07,0H98.55l0.091,4.41H93.18z"/>
	<path d="M112.68,12.989l4.74,9.51h-5.46l-3.569-8.58h-2.76v8.58h-4.711V0h7.381c5.25,0,7.799,2.07,7.799,6.93
		C116.1,10.14,114.87,12.27,112.68,12.989z M108.36,4.08h-2.729v6.12h2.67c2.069,0,2.91-0.6,2.91-3.09
		C111.211,4.77,110.43,4.08,108.36,4.08z"/>
	<path d="M119.82,0h4.83v22.499h-4.83V0z"/>
	<path d="M142.829,18.239l-0.12,4.26H128.85V0h13.439l0.09,4.32h-8.819v4.62h7.409v3.96h-7.409v5.34H142.829z"/>
	<path d="M152.699,9.629v3.24h-7.949v-3.24H152.699z"/>
	<path d="M5.131,52.889c-2.34,0-4.561-0.57-6.301-1.59l0.631-4.14c1.74,0.93,3.57,1.5,5.58,1.5c2.25,0,3.239-0.87,3.239-2.52
		c0-3.69-9.359-2.4-9.359-9.75c0-3.81,2.31-6.75,7.499-6.75c2.041,0,4.11,0.39,5.67,1.11l-0.539,4.08
		c-1.681-0.57-3.301-0.87-4.83-0.87c-2.551,0-3.27,0.96-3.27,2.22c0,3.6,9.359,2.28,9.359,9.66
		C12.811,50.249,9.99,52.889,5.131,52.889z"/>
	<path d="M26.58,48.059h-7.199l-1.11,4.44h-4.979L20.19,30h5.76l6.989,22.499H27.69L26.58,48.059z M22.41,36.12l-1.979,7.83h5.13
		l-1.98-7.83l-0.51-2.4h-0.09L22.41,36.12z"/>
	<path d="M50.459,44.849c0,5.4-2.789,8.04-8.25,8.04c-5.459,0-8.309-2.64-8.309-8.04V30h4.739v14.79c0,2.58,1.05,3.689,3.569,3.689
		c2.521,0,3.541-1.08,3.541-3.689V30h4.709V44.849z"/>
	<path d="M69.269,51.689c-1.53,0.72-3.96,1.23-6.239,1.23c-7.051,0-9.721-3.78-9.721-11.64c0-8.04,3-11.669,9.93-11.669
		c1.951,0,4.11,0.39,5.67,1.02l-0.479,4.2c-1.41-0.57-3.239-0.93-4.92-0.93c-4.02,0-5.249,1.56-5.249,7.319
		c0,5.85,1.199,7.32,4.648,7.32c0.781,0,1.5-0.06,2.131-0.24v-7.98h4.229V51.689z"/>
	<path d="M86.549,48.239l-0.12,4.26h-13.86V30h13.439l0.091,4.32h-8.819v4.62h7.409v3.96h-7.409v5.34H86.549z"/>
	<path d="M101.158,42.989l4.74,9.51h-5.461l-3.569-8.58h-2.76v8.58h-4.71V30h7.38c5.25,0,7.8,2.07,7.8,6.93
		C104.578,40.14,103.348,42.27,101.158,42.989z M96.838,34.08h-2.729v6.12h2.67c2.069,0,2.909-0.6,2.909-3.09
		C99.688,34.77,98.908,34.08,96.838,34.08z"/>
	<path d="M4.44,64.41v5.01h7.35l-0.06,4.17H4.44v8.91h-4.71V60H13.17l0.061,4.41H4.44z"/>
	<path d="M32.07,74.849c0,5.4-2.79,8.04-8.25,8.04c-5.459,0-8.31-2.64-8.31-8.04V60h4.739v14.79c0,2.58,1.051,3.689,3.57,3.689
		s3.54-1.08,3.54-3.689V60h4.71V74.849z M21.061,58.77c-1.23,0-1.859-0.51-1.859-1.8c0-1.17,0.629-1.8,1.859-1.8
		c1.26,0,1.859,0.63,1.859,1.8C22.92,58.17,22.32,58.77,21.061,58.77z M26.61,58.77c-1.229,0-1.86-0.51-1.86-1.8
		c0-1.17,0.631-1.8,1.86-1.8c1.29,0,1.86,0.63,1.86,1.8C28.471,58.17,27.9,58.77,26.61,58.77z"/>
	<path d="M47.43,72.989l4.74,9.51h-5.461l-3.569-8.58h-2.76v8.58h-4.71V60h7.38c5.25,0,7.8,2.07,7.8,6.93
		C50.85,70.14,49.619,72.27,47.43,72.989z M43.109,64.08H40.38v6.12h2.67c2.069,0,2.909-0.6,2.909-3.09
		C45.959,64.77,45.18,64.08,43.109,64.08z"/>
	<path d="M72.658,74.639c0,6.12-3.09,8.28-8.068,8.28c-1.681,0-3.03-0.36-4.08-0.9l0.27-4.11c0.689,0.42,1.74,0.72,3.029,0.72
		c2.641,0,4.021-1.17,4.021-4.08V60h4.829V74.639z"/>
	<path d="M90.508,78.239l-0.119,4.26H76.529V60h13.439l0.09,4.32h-8.82v4.62h7.41v3.96h-7.41v5.34H90.508z"/>
	<path d="M101.008,82.499h-7.649V60h7.56c6.6,0,9.33,3.12,9.33,11.129C110.248,79.409,107.188,82.499,101.008,82.499z
		 M100.948,64.35h-2.88v13.83h2.88c3.12,0,4.351-1.02,4.351-7.08C105.299,65.49,104.158,64.35,100.948,64.35z"/>
	<path d="M127.378,78.239l-0.12,4.26h-13.859V60h13.439l0.09,4.32h-8.819v4.62h7.409v3.96h-7.409v5.34H127.378z"/>
	<path d="M8.041,112.499H-0.27V90h8.25c4.56,0,6.869,2.1,6.869,5.76c0,2.49-1.109,4.02-2.819,4.77v0.06
		c2.28,0.72,3.54,2.431,3.54,5.37C15.57,110.009,13.35,112.499,8.041,112.499z M7.801,94.11h-3.51v5.04h3.6
		c1.74,0,2.43-0.72,2.43-2.55C10.32,94.71,9.57,94.11,7.801,94.11z M7.98,102.839H4.291v5.64h3.84c1.83,0,2.699-0.66,2.699-2.88
		C10.83,103.62,10.051,102.839,7.98,102.839z"/>
	<path d="M30.42,102.989l4.74,9.51h-5.461l-3.569-8.579h-2.76v8.579h-4.71V90h7.38c5.25,0,7.8,2.07,7.8,6.93
		C33.84,100.14,32.609,102.27,30.42,102.989z M26.1,94.08H23.37v6.12h2.67c2.069,0,2.909-0.6,2.909-3.09
		C28.949,94.77,28.17,94.08,26.1,94.08z"/>
	<path d="M48.809,108.059h-7.199l-1.109,4.439h-4.98L42.42,90h5.76l6.989,22.499H49.92L48.809,108.059z M44.64,96.12l-1.979,7.83
		h5.129l-1.979-7.83l-0.511-2.4h-0.09L44.64,96.12z"/>
	<path d="M70.439,112.499l-7.711-12.179l-1.26-2.1l-0.06,0.03l0.03,2.431v11.818h-4.17V90h4.049l8.34,13.649l0.061-0.029l-0.061-2.4
		V90h4.141v22.499H70.439z"/>
	<path d="M90.689,94.68c-1.021-0.39-2.431-0.69-3.9-0.69c-3.66,0-4.89,1.59-4.89,7.11c0,5.879,1.29,7.529,4.979,7.529
		c1.471,0,2.76-0.33,3.87-0.84l0.479,3.989c-1.32,0.66-3.27,1.11-5.039,1.11c-6.27,0-9.24-3.6-9.24-11.789
		c0-7.71,2.939-11.49,9.51-11.49c1.59,0,3.57,0.39,4.71,0.9L90.689,94.68z"/>
	<path d="M105.659,112.499v-9.329h-6.96v9.329h-4.71V90h4.71v8.79h6.96V90h4.71v22.499H105.659z"/>
	<path d="M128.248,108.239l-0.119,4.26H114.27V90h13.439l0.09,4.32h-8.82v4.62h7.41v3.959h-7.41v5.34H128.248z"/>
	<path d="M132.929,112.829c-1.771,0-2.55-0.689-2.55-2.459c0-1.59,0.779-2.49,2.55-2.49c1.739,0,2.521,0.9,2.521,2.49
		C135.449,111.87,134.668,112.829,132.929,112.829z"/>
</g>
</svg>
