<?xml version="1.0" encoding="utf-8"?>
<!-- Generator: Adobe Illustrator 16.0.4, SVG Export Plug-In . SVG Version: 6.00 Build 0)  -->
<!DOCTYPE svg PUBLIC "-//W3C//DTD SVG 1.1//EN" "http://www.w3.org/Graphics/SVG/1.1/DTD/svg11.dtd">
<svg version="1.1" id="Ebene_1" xmlns="http://www.w3.org/2000/svg" xmlns:xlink="http://www.w3.org/1999/xlink" x="0px" y="0px"
	 width="189.947px" height="38.652px" viewBox="0 0 189.947 38.652" enable-background="new 0 0 189.947 38.652"
	 xml:space="preserve">
<g>
	<path d="M10.502,38.752c-3.9,0-7.602-0.95-10.502-2.65l1.051-6.9c2.9,1.55,5.95,2.5,9.301,2.5c3.75,0,5.4-1.45,5.4-4.2
		c0-6.15-15.602-4-15.602-16.251C0.15,4.9,4.001,0,12.651,0c3.4,0,6.851,0.65,9.45,1.85l-0.9,6.801c-2.799-0.95-5.5-1.45-8.05-1.45
		c-4.25,0-5.45,1.6-5.45,3.7c0,6,15.602,3.8,15.602,16.101C23.303,34.353,18.602,38.752,10.502,38.752z"/>
	<path d="M46.252,30.702H34.251l-1.851,7.4H24.1L35.602,0.6h9.6l11.651,37.502h-8.751L46.252,30.702z M39.301,10.801l-3.3,13.051
		h8.551l-3.3-13.051l-0.851-4h-0.149L39.301,10.801z"/>
	<path d="M86.052,25.352c0,9.001-4.65,13.401-13.751,13.401s-13.852-4.4-13.852-13.401V0.6h7.901v24.652c0,4.3,1.75,6.15,5.95,6.15
		s5.9-1.8,5.9-6.15V0.6h7.851V25.352z"/>
	<path d="M105.9,38.103H92.049V0.6H105.8c7.601,0,11.45,3.5,11.45,9.601c0,4.15-1.85,6.701-4.699,7.951v0.1
		c3.8,1.2,5.9,4.05,5.9,8.95C118.451,33.952,114.75,38.103,105.9,38.103z M105.5,7.451h-5.851v8.4h6.001c2.899,0,4.05-1.2,4.05-4.25
		C109.7,8.451,108.45,7.451,105.5,7.451z M105.8,22.001h-6.15v9.401h6.4c3.05,0,4.501-1.1,4.501-4.8
		C110.551,23.302,109.25,22.001,105.8,22.001z"/>
	<path d="M146.9,31.002l-0.2,7.101h-23.102V0.6H146l0.15,7.201h-14.701v7.7h12.352v6.601h-12.352v8.9H146.9z"/>
	<path d="M171.25,22.251l7.9,15.851h-9.102L164.1,23.802h-4.602v14.301h-7.85V0.6h12.301c8.75,0,13,3.45,13,11.551
		C176.949,17.501,174.899,21.051,171.25,22.251z M164.049,7.401h-4.551v10.2h4.451c3.449,0,4.85-1,4.85-5.15
		C168.799,8.551,167.499,7.401,164.049,7.401z"/>
	<path d="M185.748,38.652c-2.951,0-4.25-1.15-4.25-4.1c0-2.65,1.299-4.15,4.25-4.15c2.9,0,4.199,1.5,4.199,4.15
		C189.947,37.052,188.648,38.652,185.748,38.652z"/>
</g>
</svg>
