<?xml version="1.0" encoding="utf-8"?>
<!-- Generator: Adobe Illustrator 16.0.4, SVG Export Plug-In . SVG Version: 6.00 Build 0)  -->
<!DOCTYPE svg PUBLIC "-//W3C//DTD SVG 1.1//EN" "http://www.w3.org/Graphics/SVG/1.1/DTD/svg11.dtd">
<svg version="1.1" id="Ebene_1" xmlns="http://www.w3.org/2000/svg" xmlns:xlink="http://www.w3.org/1999/xlink" x="0px" y="0px"
	 width="209.649px" height="38.802px" viewBox="0 0 209.649 38.802" enable-background="new 0 0 209.649 38.802"
	 xml:space="preserve">
<g>
	<path d="M10.502,38.802c-3.9,0-7.602-0.95-10.502-2.65l1.051-6.9c2.9,1.55,5.95,2.5,9.301,2.5c3.75,0,5.4-1.45,5.4-4.2
		c0-6.15-15.602-4-15.602-16.251C0.15,4.95,4.001,0.05,12.651,0.05c3.4,0,6.851,0.65,9.45,1.85l-0.9,6.801
		c-2.799-0.95-5.5-1.45-8.05-1.45c-4.25,0-5.45,1.6-5.45,3.7c0,6,15.602,3.8,15.602,16.101
		C23.303,34.402,18.602,38.802,10.502,38.802z"/>
	<path d="M49.502,8.451c-1.701-0.65-4.051-1.15-6.5-1.15c-6.102,0-8.151,2.65-8.151,11.851c0,9.8,2.15,12.551,8.301,12.551
		c2.45,0,4.601-0.55,6.45-1.4l0.801,6.65c-2.201,1.1-5.451,1.85-8.401,1.85c-10.45,0-15.401-6-15.401-19.651
		C26.6,6.3,31.5,0,42.451,0c2.65,0,5.95,0.65,7.851,1.5L49.502,8.451z"/>
	<path d="M74.451,38.152V22.602H62.851v15.551H55V0.65h7.851v14.651h11.601V0.65h7.851v37.502H74.451z"/>
	<path d="M110.752,38.152L97.9,17.851l-2.1-3.5l-0.101,0.05l0.05,4.05v19.701H88.8V0.65h6.751l13.9,22.751l0.1-0.05l-0.1-4V0.65h6.9
		v37.502H110.752z"/>
	<path d="M146.151,31.052l-0.2,7.101H122.85V0.65h22.401l0.15,7.201H130.7v7.7h12.351v6.601H130.7v8.9H146.151z"/>
	<path d="M172.601,30.852l-0.2,7.3h-21.502V0.65h7.901v30.202H172.601z"/>
	<path d="M198.351,30.852l-0.2,7.3h-21.502V0.65h7.901v30.202H198.351z"/>
	<path d="M205.449,38.702c-2.95,0-4.25-1.15-4.25-4.1c0-2.65,1.3-4.15,4.25-4.15c2.9,0,4.2,1.5,4.2,4.15
		C209.649,37.102,208.35,38.702,205.449,38.702z"/>
</g>
</svg>
