<?xml version="1.0" encoding="utf-8"?>
<!-- Generator: Adobe Illustrator 26.2.0, SVG Export Plug-In . SVG Version: 6.00 Build 0)  -->
<svg version="1.1" id="Ebene_1" xmlns="http://www.w3.org/2000/svg" xmlns:xlink="http://www.w3.org/1999/xlink" x="0px" y="0px"
	 viewBox="0 0 970 250" style="enable-background:new 0 0 970 250;" xml:space="preserve">
<style type="text/css">
	.st0{fill:#FFFFFF;}
</style>
<path class="st0" d="M219.7,122.3h-12.3V90.8h12.4c6.8,0,10.2,3.2,10.2,8.1c0,3.3-1.5,5.5-3.9,6.6v0.1c3.1,1.1,4.8,3.5,4.8,7.4
	C230.9,118.7,227.5,122.3,219.7,122.3z M219.4,97.7h-4.1v5.5h4.2c1.9,0,2.6-0.7,2.6-2.9C222.1,98.4,221.4,97.7,219.4,97.7z
	 M219.6,109.4h-4.3v6.2h4.4c2.1,0,2.8-0.7,2.8-3.2C222.6,110.3,221.9,109.4,219.6,109.4z"/>
<path class="st0" d="M254.7,115.2l-0.2,7.1h-20.3V90.8h19.7l0.2,7.2h-11.7v4.9h9.7v6.6h-9.7v5.7H254.7z"/>
<path class="st0" d="M258.1,90.8h8.4v31.5h-8.4V90.8z"/>
<path class="st0" d="M280.2,90.8l5.5,15.9l1,3.2h0.1l1-3.2l5.6-16h9.1v31.5H295V109l0.1-3.4H295l-1,3.3l-4.7,13.4H284l-4.6-13.3
	l-1-3.3h-0.1v3.4v13.2h-7.2V90.8H280.2z"/>
<path class="st0" d="M332.6,122.3l-5.9-12.8h-2v12.8h-8.2V90.8h8.2V103h2.2l5.8-12.2h9.2l-7.6,15.1l7.9,16.4H332.6z"/>
<path class="st0" d="M360.8,116.8h-8.6l-1.2,5.5h-8.7l9.3-31.5h10l9.5,31.5H362L360.8,116.8z M355.8,101l-2,9h5.5l-2-9l-0.6-3.4
	h-0.1L355.8,101z"/>
<path class="st0" d="M395.8,111.6c0,7.4-4,11.3-12,11.3s-12.1-3.9-12.1-11.3V90.8h8.2v20.6c0,2.8,1.1,4.1,3.9,4.1
	c2.9,0,3.8-1.2,3.8-4.1V90.8h8.2V111.6z"/>
<path class="st0" d="M408,98.2v5.5h9.6v7H408v11.6h-8.2V90.8h19.7l0.1,7.3C419.6,98.2,408,98.2,408,98.2z"/>
<path class="st0" d="M452.3,115.2l-0.2,7.1h-20.3V90.8h19.7l0.2,7.2H440v4.9h9.7v6.6H440v5.7H452.3z"/>
<path class="st0" d="M455.8,90.8h8.4v31.5h-8.4V90.8z"/>
<path class="st0" d="M487.3,122.3l-9.4-14.5l-1.8-2.9H476v3.4v14h-7.2V90.8h6.9l10.1,16.3h0.1l-0.1-3.4V90.8h7.2v31.5H487.3
	L487.3,122.3z"/>
<path class="st0" d="M517.9,115.2l-0.2,7.1h-20.3V90.8h19.7l0.2,7.2h-11.7v4.9h9.7v6.6h-9.7v5.7
	C505.6,115.2,517.9,115.2,517.9,115.2z"/>
<path class="st0" d="M529.2,122.9c-3.3,0-6.6-0.8-9.2-2.2l1-7c2.6,1.3,5.2,2.1,7.9,2.1c2.6,0,3.6-0.9,3.6-2.6
	c0-4-12.5-2.8-12.5-13.1c0-5.5,3.4-9.9,11.1-9.9c2.9,0,6,0.5,8.3,1.5l-0.9,6.8c-2.4-0.7-4.8-1.1-6.8-1.1c-3.1,0-3.8,0.9-3.8,2.3
	c0,4.1,12.5,2.7,12.5,13C540.5,119,536.3,122.9,529.2,122.9z"/>
<path class="st0" d="M223.7,158.8h-8.6l-1.2,5.5h-8.7l9.3-31.5h10l9.5,31.5h-9.2L223.7,158.8z M218.7,143l-2,9h5.5l-2-9l-0.6-3.4
	h-0.1L218.7,143z"/>
<path class="st0" d="M252.3,164.3l-5.9-12.8h-2v12.8h-8.2v-31.5h8.2V145h2.2l5.8-12.2h9.2l-7.6,15.1l7.9,16.4H252.3z"/>
<path class="st0" d="M278,140.2v24.2h-8.4v-24.2h-7.1l0.2-7.3H285l0.2,7.3H278z"/>
<path class="st0" d="M288,132.8h8.4v31.5H288V132.8z"/>
<path class="st0" d="M313.4,164.9c-9.1,0-13.2-4.8-13.2-16.3c0-11.6,4-16.3,13.2-16.3s13.2,4.7,13.2,16.3
	C326.6,160.4,322.6,164.9,313.4,164.9z M313.3,139.7c-3.4,0-4.5,1.4-4.5,8.9s1.1,9,4.6,9s4.5-1.6,4.5-9
	C318,141.1,316.9,139.7,313.3,139.7z"/>
<path class="st0" d="M348.4,164.3l-9.4-14.5l-1.8-2.9h-0.1v3.4v14H330v-31.5h6.9l10.1,16.3h0.1l-0.1-3.4v-12.9h7.2v31.5L348.4,164.3
	L348.4,164.3z"/>
<path class="st0" d="M366.8,164.9c-3.3,0-6.6-0.8-9.2-2.2l1-7c2.6,1.3,5.2,2.1,7.9,2.1c2.6,0,3.6-0.9,3.6-2.6
	c0-4-12.5-2.8-12.5-13.1c0-5.5,3.4-9.9,11.1-9.9c2.9,0,6,0.6,8.3,1.5l-0.9,6.9c-2.4-0.7-4.8-1.1-6.8-1.1c-3.1,0-3.8,0.9-3.8,2.3
	c0,4.1,12.5,2.7,12.5,13C378.1,161,373.9,164.9,366.8,164.9z"/>
<path class="st0" d="M403.3,163.2c-2.2,1.1-5.8,1.7-9,1.7c-10.4,0-14.1-5.6-14.1-16.3c0-11,4.3-16.3,14.5-16.3
	c2.8,0,5.9,0.5,8.2,1.4l-0.8,7c-2.1-0.8-4.7-1.2-7-1.2c-5.2,0-6.3,1.9-6.3,9c0,7.5,1.2,9.1,5.3,9.1c0.6,0,1.3,0,1.9-0.2v-10.3h7.3
	V163.2L403.3,163.2z"/>
<path class="st0" d="M427.5,157.2l-0.2,7.1H407v-31.5h19.7l0.2,7.2h-11.7v4.9h9.7v6.6h-9.7v5.7H427.5L427.5,157.2z"/>
<path class="st0" d="M449.2,151.4l6.1,12.9h-9.5l-4.2-11.3h-2.8v11.3h-8.2v-31.5h10.9c8,0,11.9,3,11.9,10.1
	C453.4,147.2,451.9,150.3,449.2,151.4z M441.7,139.6h-2.9v7.3h2.8c2.4,0,3.2-0.6,3.2-3.7C444.9,140.4,444.1,139.6,441.7,139.6z"/>
<path class="st0" d="M473.6,158.8H465l-1.2,5.5h-8.7l9.3-31.5h10l9.5,31.5h-9.2L473.6,158.8z M465.4,131.3c-2.1,0-3.1-0.8-3.1-2.8
	c0-1.9,1-2.9,3.1-2.9s3.1,1,3.1,2.9C468.5,130.4,467.5,131.3,465.4,131.3z M468.6,143l-2,9h5.5l-2-9l-0.6-3.4h-0.1L468.6,143z
	 M473.4,131.3c-2.1,0-3.1-0.8-3.1-2.8c0-1.9,1-2.9,3.1-2.9s3.1,1,3.1,2.9C476.5,130.4,475.6,131.3,473.4,131.3z"/>
<path class="st0" d="M497,140.2v24.2h-8.4v-24.2h-7.1l0.2-7.3H504l0.2,7.3H497z"/>
<path class="st0" d="M514.6,164.9c-3.3,0-6.6-0.8-9.2-2.2l1-7c2.6,1.3,5.2,2.1,7.9,2.1c2.6,0,3.6-0.9,3.6-2.6
	c0-4-12.5-2.8-12.5-13.1c0-5.5,3.4-9.9,11.1-9.9c2.9,0,6,0.6,8.3,1.5l-0.9,6.8c-2.4-0.7-4.8-1.1-6.8-1.1c-3.1,0-3.8,0.9-3.8,2.3
	c0,4.1,12.5,2.7,12.5,13C525.9,161,521.7,164.9,514.6,164.9z"/>
<path class="st0" d="M534.3,165.1c-2.9,0-4.2-1.1-4.2-4c0-2.6,1.3-4,4.2-4s4.2,1.5,4.2,4C538.5,163.5,537.3,165.1,534.3,165.1z"/>
<path class="st0" d="M549.6,131.8l0.6,4.1l3.9-0.9l1.2,3.4l-3.7,1.8l2.1,3.6l-2.7,2l-3.1-3l-3.2,3.1L542,144l2.1-3.7l-3.7-1.8
	l1.3-3.5l3.9,0.9l0.6-4.1L549.6,131.8L549.6,131.8z"/>
<g>
	<path class="st0" d="M817.8,228l0.1,1.1l1.1-0.3l0.2,0.7l-1.1,0.4l0.7,1l-0.5,0.4l-0.8-0.9l-0.8,0.9l-0.5-0.4l0.7-1l-1.1-0.4
		l0.2-0.7l1.1,0.3l0.1-1.1H817.8L817.8,228z"/>
	<path class="st0" d="M823.8,234.9h-2.9l-0.5,1.8h-1.5l2.6-8.2h1.7l2.6,8.2h-1.6L823.8,234.9z M822.1,230.4l-0.9,3.2h2.2l-0.9-3.2
		l-0.2-0.9l0,0L822.1,230.4z"/>
	<path class="st0" d="M828,232.5h0.8l1.5-2.5h1.5l-1.8,3l1.8,3.6h-1.5l-1.5-3H828v3h-1.3V228l1.3-0.1V232.5L828,232.5z"/>
	<path class="st0" d="M834.3,231.1v3.8c0,0.6,0.3,0.8,0.8,0.8c0.2,0,0.4,0,0.5-0.1l0.1,1c-0.2,0.1-0.6,0.2-1,0.2
		c-1.1,0-1.7-0.7-1.7-1.9V231h-0.7v-1h0.8l0.2-1.5l1-0.1v1.6h1.4v1L834.3,231.1L834.3,231.1z"/>
	<path class="st0" d="M837.6,229.1c-0.5,0-0.8-0.2-0.8-0.6c0-0.4,0.3-0.6,0.8-0.6s0.8,0.2,0.8,0.6
		C838.4,228.9,838.2,229.1,837.6,229.1z M836.9,236.6V230l1.3-0.1v6.7L836.9,236.6L836.9,236.6z"/>
	<path class="st0" d="M842.3,236.8c-1.9,0-2.7-0.9-2.7-3.4s0.8-3.4,2.7-3.4s2.7,0.9,2.7,3.4C845,235.9,844.2,236.8,842.3,236.8z
		 M842.3,235.7c1,0,1.3-0.5,1.3-2.3s-0.3-2.3-1.3-2.3s-1.3,0.5-1.3,2.3S841.4,235.7,842.3,235.7z"/>
	<path class="st0" d="M849.8,236.6v-4.4c0-0.8-0.4-1.1-1.1-1.1c-0.4,0-0.9,0.2-1.2,0.6v4.9h-1.3V230l1-0.1l0.2,0.6
		c0.4-0.4,1.1-0.7,1.7-0.7c1.3,0,2.1,0.8,2.1,2.3v4.4L849.8,236.6L849.8,236.6z"/>
	<path class="st0" d="M854.1,236.8c-0.7,0-1.4-0.1-1.8-0.5l0.1-1.2c0.5,0.3,1.2,0.5,1.7,0.5c0.7,0,1.1-0.4,1.1-0.9
		c0-1.3-2.9-0.7-2.9-2.9c0-1.1,0.8-1.9,2.2-1.9c0.6,0,1.2,0.1,1.7,0.3l-0.1,1.1c-0.5-0.2-1.1-0.3-1.5-0.3c-0.6,0-1,0.3-1,0.7
		c0,1.2,2.9,0.6,2.9,2.9C856.3,236,855.6,236.8,854.1,236.8z"/>
	<path class="st0" d="M860.2,236.8c-0.7,0-1.3-0.3-1.6-0.7l0,0l-0.2,0.6h-0.9V228l1.3-0.1v1.7v0.9l0,0c0.4-0.4,1-0.6,1.6-0.6
		c1.4,0,2.3,0.9,2.3,3.4C862.6,235.8,861.7,236.8,860.2,236.8z M860,231.1c-0.5,0-1,0.2-1.2,0.6v3.2c0.2,0.4,0.6,0.7,1.2,0.7
		c0.8,0,1.3-0.4,1.3-2.3C861.3,231.5,860.8,231.1,860,231.1z"/>
	<path class="st0" d="M863.5,233.2c0-2.2,0.8-3.3,2.6-3.3c1.5,0,2.5,0.9,2.5,3.1c0,0.2,0,0.5,0,0.7h-3.7c0,1.5,0.6,1.9,1.8,1.9
		c0.6,0,1.1-0.1,1.6-0.3l0.1,1.1c-0.5,0.3-1.2,0.4-1.9,0.4C864.3,236.8,863.5,235.6,863.5,233.2z M867.3,232.7
		c0-1.2-0.5-1.6-1.2-1.6c-0.9,0-1.2,0.5-1.3,1.6H867.3z"/>
	<path class="st0" d="M873.5,236.6l-0.1-0.6l0,0c-0.4,0.5-0.9,0.7-1.7,0.7c-1.6,0-2.3-1-2.3-3.5c0-2.3,0.8-3.4,2.3-3.4
		c0.6,0,1.2,0.2,1.6,0.6l0,0v-0.9V228l1.3-0.1v8.7L873.5,236.6L873.5,236.6z M873.2,231.7c-0.2-0.4-0.7-0.6-1.2-0.6
		c-1,0-1.3,0.5-1.3,2.2c0,1.8,0.3,2.3,1.3,2.3c0.7,0,1-0.3,1.2-0.6V231.7z"/>
	<path class="st0" d="M876.8,229.1c-0.5,0-0.8-0.2-0.8-0.6c0-0.4,0.3-0.6,0.8-0.6s0.8,0.2,0.8,0.6
		C877.6,228.9,877.3,229.1,876.8,229.1z M876.1,236.6V230l1.3-0.1v6.7L876.1,236.6L876.1,236.6z"/>
	<path class="st0" d="M882.7,236.6v-4.4c0-0.8-0.4-1.1-1.1-1.1c-0.4,0-0.9,0.2-1.2,0.6v4.9h-1.3V230l1-0.1l0.2,0.6
		c0.4-0.4,1.1-0.7,1.7-0.7c1.3,0,2.1,0.8,2.1,2.3v4.4L882.7,236.6L882.7,236.6z"/>
	<path class="st0" d="M886.8,233.8c-0.2,0.1-0.3,0.2-0.3,0.4s0.1,0.3,0.5,0.4l1.4,0.1c1.4,0.1,2,0.6,2,1.6c0,1.2-0.8,2-2.7,2
		c-1.7,0-2.4-0.7-2.4-1.7c0-0.4,0.2-0.9,0.5-1.2c-0.3-0.2-0.5-0.5-0.5-0.9s0.2-0.8,0.8-1.1c-0.4-0.3-0.7-0.8-0.7-1.6
		c0-1.2,0.6-2,2.2-2c0.5,0,1.1,0.1,1.5,0.4l1-0.4l0.3,0.7l-0.7,0.6c0.1,0.2,0.1,0.5,0.1,0.8c0,1.3-0.7,2-2.2,2
		C887.3,233.9,887,233.9,886.8,233.8z M886.7,235.7c-0.3,0.2-0.4,0.5-0.4,0.7c0,0.6,0.4,0.9,1.3,0.9c1.2,0,1.5-0.3,1.5-0.8
		c0-0.4-0.2-0.6-1-0.7L886.7,235.7z M886.6,231.9c0,0.8,0.4,1,1,1c0.8,0,1-0.3,1-1c0-0.8-0.3-1-1-1
		C886.8,230.9,886.6,231.3,886.6,231.9z"/>
	<path class="st0" d="M896.1,234.5c0,1.5-0.8,2.3-2.5,2.3s-2.5-0.8-2.5-2.3V230h1.3v4.4c0,0.7,0.4,1.1,1.1,1.1
		c0.8,0,1.1-0.4,1.1-1.1V230h1.3v4.5H896.1z"/>
	<path class="st0" d="M901,236.6v-4.4c0-0.8-0.4-1.1-1.1-1.1c-0.4,0-0.9,0.2-1.2,0.6v4.9h-1.3V230l1-0.1l0.2,0.6
		c0.4-0.4,1.1-0.7,1.7-0.7c1.3,0,2.1,0.8,2.1,2.3v4.4L901,236.6L901,236.6z"/>
	<path class="st0" d="M905.1,233.8c-0.2,0.1-0.3,0.2-0.3,0.4s0.1,0.3,0.5,0.4l1.4,0.1c1.4,0.1,2,0.6,2,1.6c0,1.2-0.8,2-2.7,2
		c-1.7,0-2.4-0.7-2.4-1.7c0-0.4,0.2-0.9,0.5-1.2c-0.3-0.2-0.5-0.5-0.5-0.9s0.2-0.8,0.8-1.1c-0.4-0.3-0.7-0.8-0.7-1.6
		c0-1.2,0.6-2,2.3-2c0.5,0,1.1,0.1,1.5,0.4l1-0.4l0.3,0.7l-0.7,0.6c0.1,0.2,0.1,0.5,0.1,0.8c0,1.3-0.7,2-2.2,2
		C905.6,233.9,905.3,233.9,905.1,233.8z M905,235.7c-0.3,0.2-0.4,0.5-0.4,0.7c0,0.6,0.4,0.9,1.3,0.9c1.2,0,1.5-0.3,1.5-0.8
		c0-0.4-0.2-0.6-1-0.7L905,235.7z M904.9,231.9c0,0.8,0.4,1,1,1c0.8,0,1-0.3,1-1c0-0.8-0.3-1-1-1S904.9,231.3,904.9,231.9z"/>
	<path class="st0" d="M909.2,233.2c0-2.2,0.8-3.3,2.6-3.3c1.5,0,2.5,0.9,2.5,3.1c0,0.2,0,0.5,0,0.7h-3.7c0,1.5,0.6,1.9,1.8,1.9
		c0.6,0,1.1-0.1,1.6-0.3l0.1,1.1c-0.5,0.3-1.2,0.4-1.9,0.4C910,236.8,909.2,235.6,909.2,233.2z M913,232.7c0-1.2-0.5-1.6-1.2-1.6
		c-0.9,0-1.2,0.5-1.3,1.6H913z"/>
	<path class="st0" d="M918.9,236.6v-4.4c0-0.8-0.4-1.1-1.1-1.1c-0.4,0-0.9,0.2-1.2,0.6v4.9h-1.3V230l1-0.1l0.2,0.6
		c0.4-0.4,1.1-0.7,1.7-0.7c1.3,0,2.1,0.8,2.1,2.3v4.4L918.9,236.6L918.9,236.6z"/>
	<path class="st0" d="M925.8,233.8c-0.2,0.1-0.3,0.2-0.3,0.4s0.1,0.3,0.5,0.4l1.4,0.1c1.4,0.1,2,0.6,2,1.6c0,1.2-0.8,2-2.7,2
		c-1.7,0-2.4-0.7-2.4-1.7c0-0.4,0.2-0.9,0.5-1.2c-0.3-0.2-0.5-0.5-0.5-0.9s0.2-0.8,0.8-1.1c-0.4-0.3-0.7-0.8-0.7-1.6
		c0-1.2,0.6-2,2.3-2c0.5,0,1.1,0.1,1.5,0.4l1-0.4l0.3,0.7l-0.7,0.6c0.1,0.2,0.1,0.5,0.1,0.8c0,1.3-0.7,2-2.2,2
		C926.3,233.9,926.1,233.9,925.8,233.8z M925.8,235.7c-0.3,0.2-0.4,0.5-0.4,0.7c0,0.6,0.4,0.9,1.3,0.9c1.2,0,1.5-0.3,1.5-0.8
		c0-0.4-0.2-0.6-1-0.7L925.8,235.7z M925.6,231.9c0,0.8,0.4,1,1,1c0.8,0,1-0.3,1-1c0-0.8-0.3-1-1-1
		C925.9,230.9,925.6,231.3,925.6,231.9z"/>
	<path class="st0" d="M929.9,233.2c0-2.2,0.8-3.3,2.6-3.3c1.5,0,2.5,0.9,2.5,3.1c0,0.2,0,0.5,0,0.7h-3.7c0,1.5,0.6,1.9,1.8,1.9
		c0.6,0,1.1-0.1,1.6-0.3l0.1,1.1c-0.5,0.3-1.2,0.4-1.9,0.4C930.8,236.8,929.9,235.6,929.9,233.2z M933.7,232.7
		c0-1.2-0.5-1.6-1.2-1.6c-0.9,0-1.2,0.5-1.3,1.6H933.7z"/>
	<path class="st0" d="M936.2,236.6V228l1.3-0.1v8.7L936.2,236.6L936.2,236.6z"/>
	<path class="st0" d="M940.7,231.1v3.8c0,0.6,0.3,0.8,0.8,0.8c0.2,0,0.4,0,0.5-0.1l0.1,1c-0.2,0.1-0.6,0.2-1,0.2
		c-1.1,0-1.7-0.7-1.7-1.9V231h-0.7v-1h0.8l0.2-1.5l1-0.1v1.6h1.4v1L940.7,231.1L940.7,231.1z"/>
	<path class="st0" d="M942.7,233.2c0-2.2,0.8-3.3,2.6-3.3c1.5,0,2.5,0.9,2.5,3.1c0,0.2,0,0.5,0,0.7H944c0,1.5,0.6,1.9,1.8,1.9
		c0.6,0,1.1-0.1,1.6-0.3l0.1,1.1c-0.5,0.3-1.2,0.4-1.9,0.4C943.6,236.8,942.7,235.6,942.7,233.2z M946.5,232.7
		c0-1.2-0.5-1.6-1.2-1.6c-0.9,0-1.2,0.5-1.3,1.6H946.5z"/>
	<path class="st0" d="M952.5,236.6v-4.4c0-0.8-0.4-1.1-1.1-1.1c-0.4,0-0.9,0.2-1.2,0.6v4.9h-1.3V230l1-0.1l0.2,0.6
		c0.4-0.4,1.1-0.7,1.7-0.7c1.3,0,2.1,0.8,2.1,2.3v4.4L952.5,236.6L952.5,236.6z"/>
</g>
</svg>
