<?xml version="1.0" encoding="utf-8"?>
<!-- Generator: Adobe Illustrator 16.0.0, SVG Export Plug-In . SVG Version: 6.00 Build 0)  -->
<!DOCTYPE svg PUBLIC "-//W3C//DTD SVG 1.1//EN" "http://www.w3.org/Graphics/SVG/1.1/DTD/svg11.dtd">
<svg version="1.1" id="Ebene_1" xmlns="http://www.w3.org/2000/svg" xmlns:xlink="http://www.w3.org/1999/xlink" x="0px" y="0px"
	 width="29.344px" height="18.291px" viewBox="0 0 29.344 18.291" enable-background="new 0 0 29.344 18.291" xml:space="preserve">
<g id="Text">
	<g>
		<path fill="#1A1A18" d="M2.9,4.159H1.555L1.365,5.022H0l1.463-4.944h1.575l1.489,4.944H3.091L2.9,4.159z M2.115,1.667L1.799,3.084
			h0.863L2.346,1.667L2.247,1.14H2.227L2.115,1.667z"/>
		<path fill="#1A1A18" d="M7.389,5.022l-0.93-2.011H6.143v2.011H4.857V0.078h1.285V1.99h0.343l0.916-1.912h1.444L7.658,2.445
			l1.245,2.577H7.389z"/>
		<path fill="#1A1A18" d="M11.422,1.232v3.79H10.11v-3.79H8.99l0.025-1.154h3.5l0.026,1.154H11.422z"/>
		<path fill="#1A1A18" d="M12.991,0.078h1.324v4.944h-1.324V0.078z"/>
		<path fill="#1A1A18" d="M16.979,5.108c-1.424,0-2.069-0.752-2.069-2.558c0-1.812,0.619-2.551,2.069-2.551s2.069,0.738,2.069,2.551
			C19.049,4.409,18.43,5.108,16.979,5.108z M16.973,1.153c-0.541,0-0.712,0.224-0.712,1.397c0,1.18,0.178,1.417,0.726,1.417
			s0.711-0.244,0.711-1.417C17.697,1.371,17.533,1.153,16.973,1.153z"/>
		<path fill="#1A1A18" d="M22.482,5.022l-1.477-2.28l-0.276-0.455l-0.013,0.006l0.006,0.534v2.195h-1.134V0.078h1.081l1.589,2.564
			l0.013-0.006l-0.013-0.527l0.007-2.031h1.134v4.944H22.482z"/>
		<path fill="#1A1A18" d="M25.363,5.108c-0.521,0-1.034-0.119-1.438-0.343L24.09,3.67C24.492,3.874,24.901,4,25.329,4
			c0.407,0,0.565-0.139,0.565-0.402c0-0.633-1.964-0.435-1.964-2.05C23.933,0.686,24.46,0,25.68,0c0.455,0,0.942,0.085,1.299,0.236
			l-0.146,1.075c-0.376-0.112-0.751-0.179-1.067-0.179c-0.488,0-0.594,0.146-0.594,0.356c0,0.64,1.965,0.422,1.965,2.037
			C27.137,4.502,26.477,5.108,25.363,5.108z"/>
		<path fill="#1A1A18" d="M29.344,2.122v0.856h-1.839V2.122H29.344z"/>
		<path fill="#1A1A18" d="M3.843,11.437C3.5,11.603,2.94,11.708,2.432,11.708c-1.635,0-2.215-0.877-2.215-2.564
			c0-1.728,0.68-2.558,2.274-2.558c0.435,0,0.93,0.079,1.284,0.218L3.658,7.903C3.335,7.784,2.92,7.712,2.563,7.712
			c-0.811,0-0.995,0.304-0.995,1.417c0,1.175,0.191,1.431,0.83,1.431c0.101,0,0.205-0.006,0.297-0.025V8.918h1.147L3.843,11.437
			L3.843,11.437z"/>
		<path fill="#1A1A18" d="M7.639,10.5l-0.025,1.114H4.429V6.67h3.099l0.026,1.135H5.715v0.764H7.23v1.035H5.715V10.5H7.639z"/>
		<path fill="#1A1A18" d="M11.041,9.591l0.962,2.023h-1.489l-0.66-1.768H9.419v1.768H8.134V6.67h1.707
			c1.253,0,1.872,0.475,1.872,1.589C11.713,8.918,11.476,9.406,11.041,9.591z M9.867,7.738H9.419v1.141h0.44
			c0.376,0,0.509-0.093,0.509-0.574C10.368,7.857,10.243,7.738,9.867,7.738z"/>
		<path fill="#1A1A18" d="M14.877,10.751h-1.347l-0.189,0.863h-1.364L13.44,6.67h1.575l1.49,4.944h-1.438L14.877,10.751z
			 M13.591,6.434c-0.323,0-0.487-0.126-0.487-0.442c0-0.296,0.164-0.454,0.487-0.454c0.337,0,0.488,0.158,0.488,0.454
			C14.079,6.281,13.928,6.434,13.591,6.434z M14.092,8.259l-0.316,1.418h0.863l-0.316-1.418l-0.099-0.527h-0.02L14.092,8.259z
			 M14.85,6.434c-0.322,0-0.487-0.126-0.487-0.442c0-0.296,0.165-0.454,0.487-0.454c0.337,0,0.488,0.158,0.488,0.454
			C15.338,6.281,15.187,6.434,14.85,6.434z"/>
		<path fill="#1A1A18" d="M18.548,7.824v3.791h-1.312V7.824h-1.12l0.025-1.154h3.501l0.025,1.154H18.548z"/>
		<path fill="#1A1A18" d="M23.273,10.5l-0.024,1.114h-3.186V6.67h3.1l0.025,1.135H21.35v0.764h1.517v1.035H21.35V10.5H23.273z"/>
		<path fill="#1A1A18" d="M1.641,18.291c-0.521,0-1.035-0.119-1.437-0.343l0.165-1.096c0.4,0.205,0.811,0.33,1.237,0.33
			c0.409,0,0.567-0.139,0.567-0.402c0-0.633-1.964-0.436-1.964-2.049c0-0.864,0.526-1.551,1.746-1.551
			c0.455,0,0.942,0.086,1.299,0.238L3.11,14.493c-0.376-0.112-0.752-0.178-1.067-0.178c-0.488,0-0.595,0.145-0.595,0.354
			c0,0.64,1.966,0.422,1.966,2.037C3.414,17.685,2.755,18.291,1.641,18.291z"/>
		<path fill="#1A1A18" d="M3.928,13.263h1.325v4.942H3.928V13.263z"/>
		<path fill="#1A1A18" d="M8.938,14.454c-0.218-0.079-0.514-0.133-0.824-0.133c-0.73,0-0.916,0.312-0.916,1.392
			c0,1.142,0.204,1.457,0.937,1.457c0.304,0,0.587-0.06,0.818-0.164l0.117,1.048c-0.297,0.145-0.744,0.237-1.127,0.237
			c-1.41,0-2.097-0.806-2.097-2.584c0-1.661,0.666-2.53,2.176-2.53c0.351,0,0.777,0.078,1.041,0.184L8.938,14.454z"/>
		<path fill="#1A1A18" d="M12.029,18.205v-1.938h-1.199v1.938H9.544v-4.942h1.285v1.852h1.199v-1.852h1.291v4.942H12.029z"/>
		<path fill="#1A1A18" d="M17.197,17.091l-0.026,1.114h-3.185v-4.942h3.1l0.025,1.133h-1.84v0.766h1.518v1.033h-1.518v0.896H17.197z
			"/>
		<path fill="#1A1A18" d="M20.598,16.183l0.963,2.022h-1.49l-0.658-1.767h-0.436v1.767H17.69v-4.942h1.708
			c1.252,0,1.871,0.475,1.871,1.588C21.27,15.509,21.033,15.997,20.598,16.183z M19.424,14.329h-0.447v1.141h0.441
			c0.375,0,0.508-0.093,0.508-0.572C19.926,14.446,19.8,14.329,19.424,14.329z"/>
		<path fill="#1A1A18" d="M24.777,18.205L23.3,15.924l-0.277-0.454l-0.014,0.008l0.007,0.533v2.194h-1.134v-4.942h1.081l1.589,2.562
			l0.014-0.008l-0.014-0.526l0.007-2.028h1.134v4.942H24.777z"/>
		<path fill="#1A1A18" d="M26.49,16.729l-0.186-3.467h1.299l-0.179,3.467H26.49z M26.979,18.284c-0.441,0-0.64-0.165-0.64-0.567
			c0-0.362,0.197-0.579,0.64-0.579c0.447,0,0.646,0.217,0.646,0.579C27.624,18.054,27.426,18.284,26.979,18.284z"/>
	</g>
</g>
<g id="Screens">
</g>
</svg>
