<?xml version="1.0" encoding="utf-8"?>
<!-- Generator: Adobe Illustrator 16.0.0, SVG Export Plug-In . SVG Version: 6.00 Build 0)  -->
<!DOCTYPE svg PUBLIC "-//W3C//DTD SVG 1.1//EN" "http://www.w3.org/Graphics/SVG/1.1/DTD/svg11.dtd">
<svg version="1.1" id="Ebene_1" xmlns="http://www.w3.org/2000/svg" xmlns:xlink="http://www.w3.org/1999/xlink" x="0px" y="0px"
	 width="41.678px" height="18.213px" viewBox="0 0 41.678 18.213" enable-background="new 0 0 41.678 18.213" xml:space="preserve">
<g id="Text">
	<g>
		<path fill="#1A1A18" d="M1.641,1.154v0.87h1.51L3.144,3.118H1.641v1.826H0.349V0H3.44l0.02,1.154H1.641z"/>
		<path fill="#1A1A18" d="M6.875,3.797L6.842,4.944H3.896V0h1.298v3.797H6.875z"/>
		<path fill="#1A1A18" d="M10.506,3.83L10.48,4.944H7.296V0h3.1l0.025,1.135H8.582v0.764h1.517v1.035H8.582V3.83H10.506z"/>
		<path fill="#1A1A18" d="M13.75,2.354l1.213,2.591h-1.443l-0.476-1.193L12.859,3.25h-0.021l-0.185,0.501l-0.468,1.193h-1.472
			l1.188-2.551L10.73,0h1.51l0.415,1.016l0.191,0.494h0.02l0.191-0.494L13.486,0h1.449L13.75,2.354z"/>
		<path fill="#1A1A18" d="M15.403,0h1.325v4.944h-1.325V0z"/>
		<path fill="#1A1A18" d="M19.378,4.944h-1.925V0h1.938c1.062,0,1.602,0.495,1.602,1.279c0,0.521-0.237,0.857-0.605,1.035v0.013
			c0.493,0.165,0.758,0.548,0.758,1.16C21.145,4.377,20.611,4.944,19.378,4.944z M19.339,1.082h-0.64v0.869h0.652
			c0.297,0,0.401-0.111,0.401-0.447C19.754,1.181,19.642,1.082,19.339,1.082z M19.371,2.914h-0.672V3.89h0.699
			c0.322,0,0.44-0.105,0.44-0.494C19.84,3.053,19.734,2.914,19.371,2.914z"/>
		<path fill="#1A1A18" d="M24.869,3.83l-0.026,1.114h-3.184V0h3.098l0.026,1.135h-1.839v0.764h1.517v1.035h-1.517V3.83H24.869z"/>
		<path fill="#1A1A18" d="M28.343,3.797L28.31,4.944h-2.946V0h1.299v3.797H28.343z"/>
		<path fill="#1A1A18" d="M3.256,9.513l0.964,2.023h-1.49l-0.66-1.766H1.635v1.767H0.349V6.592h1.708
			c1.252,0,1.871,0.475,1.871,1.589C3.928,8.84,3.691,9.328,3.256,9.513z M2.082,7.66H1.635v1.141h0.441
			c0.375,0,0.508-0.093,0.508-0.574C2.584,7.779,2.458,7.66,2.082,7.66z"/>
		<path fill="#1A1A18" d="M7.751,10.422l-0.025,1.114H4.541V6.592h3.099l0.025,1.135H5.826V8.49h1.516v1.035H5.826v0.896
			L7.751,10.422L7.751,10.422z"/>
		<path fill="#1A1A18" d="M8.298,6.592h1.325v4.944H8.298V6.592z"/>
		<path fill="#1A1A18" d="M13.242,11.536l-1.477-2.28l-0.277-0.455l-0.014,0.006l0.007,0.534v2.195h-1.134V6.592h1.081l1.589,2.564
			l0.014-0.006l-0.014-0.527l0.007-2.031h1.134v4.944H13.242z"/>
		<path fill="#1A1A18" d="M14.883,6.592h1.325v4.944h-1.325V6.592z"/>
		<path fill="#1A1A18" d="M20.427,11.358c-0.344,0.164-0.903,0.271-1.411,0.271c-1.636,0-2.216-0.877-2.216-2.564
			c0-1.728,0.681-2.558,2.274-2.558c0.435,0,0.93,0.079,1.285,0.218l-0.118,1.101c-0.323-0.119-0.738-0.191-1.095-0.191
			c-0.812,0-0.995,0.304-0.995,1.417c0,1.173,0.19,1.431,0.83,1.431c0.1,0,0.205-0.008,0.297-0.026V8.84h1.146v2.519H20.427z"/>
		<path fill="#1A1A18" d="M24.223,10.422l-0.025,1.114h-3.185V6.592h3.099l0.026,1.135h-1.84V8.49h1.517v1.035h-1.517v0.896
			L24.223,10.422L24.223,10.422z"/>
		<path fill="#1A1A18" d="M27.611,11.536l-1.478-2.28l-0.276-0.455l-0.015,0.006l0.008,0.534v2.195h-1.135V6.592h1.081l1.59,2.564
			L27.4,9.15l-0.014-0.527l0.007-2.031h1.134v4.944H27.611z"/>
		<path fill="#1A1A18" d="M32.1,6.592l0.87,2.499l0.164,0.507h0.021l0.165-0.5l0.883-2.506h1.424v4.944h-1.18V9.467l0.013-0.534
			l-0.02-0.007L34.276,9.44l-0.732,2.097h-0.837l-0.726-2.09l-0.164-0.514L31.803,8.94l0.007,0.533v2.063h-1.127V6.592H32.1z"/>
		<path fill="#1A1A18" d="M36.351,6.592h1.324v4.944h-1.324V6.592z"/>
		<path fill="#1A1A18" d="M40.557,7.746v3.79h-1.312v-3.79h-1.12l0.026-1.154h3.5l0.026,1.154H40.557z"/>
		<path fill="#1A1A18" d="M2.9,17.265H1.555l-0.19,0.862H0l1.463-4.942h1.575l1.49,4.942H3.091L2.9,17.265z M2.115,14.771
			l-0.316,1.418h0.863l-0.315-1.418l-0.1-0.526h-0.02L2.115,14.771z"/>
		<path fill="#1A1A18" d="M7.389,18.127l-0.931-2.011H6.143v2.011H4.857v-4.942h1.285v1.91h0.343l0.916-1.91h1.444L7.658,15.55
			l1.246,2.577H7.389z"/>
		<path fill="#1A1A18" d="M11.798,18.127l-0.929-2.011h-0.315v2.011H9.267v-4.942h1.286v1.91h0.342l0.917-1.91h1.442l-1.187,2.365
			l1.246,2.577H11.798z"/>
		<path fill="#1A1A18" d="M17.421,16.446c0,1.16-0.62,1.767-1.886,1.767s-1.904-0.606-1.904-1.767v-3.264h1.291v3.236
			c0,0.441,0.173,0.639,0.613,0.639c0.448,0,0.6-0.184,0.6-0.639v-3.236h1.286V16.446z"/>
		<path fill="#1A1A18" d="M18.574,15.636c-0.462,0-0.666-0.179-0.666-0.627c0-0.4,0.204-0.633,0.666-0.633
			c0.461,0,0.659,0.23,0.659,0.633C19.233,15.386,19.035,15.636,18.574,15.636z M18.574,18.206c-0.462,0-0.666-0.178-0.666-0.626
			c0-0.401,0.204-0.634,0.666-0.634c0.461,0,0.659,0.23,0.659,0.634C19.233,17.955,19.035,18.206,18.574,18.206z"/>
	</g>
</g>
<g id="Screens">
</g>
</svg>
