<?xml version="1.0" encoding="utf-8"?>
<!-- Generator: Adobe Illustrator 16.0.4, SVG Export Plug-In . SVG Version: 6.00 Build 0)  -->
<!DOCTYPE svg PUBLIC "-//W3C//DTD SVG 1.1//EN" "http://www.w3.org/Graphics/SVG/1.1/DTD/svg11.dtd">
<svg version="1.1" id="Ebene_1" xmlns="http://www.w3.org/2000/svg" xmlns:xlink="http://www.w3.org/1999/xlink" x="0px" y="0px"
	 width="92.926px" height="184.414px" viewBox="0 0 92.926 184.414" enable-background="new 0 0 92.926 184.414"
	 xml:space="preserve">
<g>
	<path fill="#FFFFFF" d="M0.447,23.998v-4.062l7.648-12.16l1.407-2.111L9.471,5.6H0.64L0.8,0h16.03v4.48L9.439,16.255l-1.408,2.08
		l0.031,0.097h8.832l-0.096,5.566H0.447z"/>
	<path fill="#FFFFFF" d="M37.278,15.84c0,5.631-3.008,8.574-9.151,8.574s-9.248-2.943-9.248-8.574V0h6.272v15.711
		c0,2.145,0.831,3.104,2.976,3.104c2.176,0,2.912-0.896,2.912-3.104V0h6.239V15.84z"/>
	<path fill="#FFFFFF" d="M13.375,55.998v-9.406H7.551v9.406H1.312V32h6.239v8.992h5.824V32h6.271v23.998H13.375z"/>
	<path fill="#FFFFFF" d="M38.463,50.591l-0.129,5.407H22.879V32h15.039l0.129,5.504h-8.928v3.712h7.359v5.023h-7.359v4.352H38.463z"
		/>
	<path fill="#FFFFFF" d="M41.119,32h6.432v23.998h-6.432V32z"/>
	<path fill="#FFFFFF" d="M57.342,56.414c-2.527,0-5.023-0.576-6.975-1.664l0.8-5.311c1.952,0.992,3.936,1.6,6.016,1.6
		c1.983,0,2.751-0.672,2.751-1.952c0-3.071-9.535-2.112-9.535-9.951c0-4.192,2.561-7.52,8.48-7.52c2.207,0,4.575,0.416,6.303,1.151
		l-0.703,5.217c-1.824-0.545-3.648-0.864-5.184-0.864c-2.369,0-2.881,0.704-2.881,1.728c0,3.104,9.535,2.048,9.535,9.887
		C65.949,53.471,62.75,56.414,57.342,56.414z"/>
	<path fill="#FFFFFF" d="M74.047,56.414c-2.528,0-5.023-0.576-6.977-1.664l0.801-5.311c1.951,0.992,3.936,1.6,6.016,1.6
		c1.983,0,2.752-0.672,2.752-1.952c0-3.071-9.535-2.112-9.535-9.951c0-4.192,2.559-7.52,8.479-7.52c2.208,0,4.576,0.416,6.304,1.151
		l-0.704,5.217c-1.824-0.545-3.647-0.864-5.184-0.864c-2.367,0-2.879,0.704-2.879,1.728c0,3.104,9.535,2.048,9.535,9.887
		C82.654,53.471,79.454,56.414,74.047,56.414z"/>
	<path fill="#FFFFFF" d="M90.271,53.662c0,1.889-1.632,5.088-3.136,6.912l-2.048-0.512l0.768-3.744
		c-0.896-0.48-1.888-1.535-1.888-2.848c0-1.729,0.863-3.104,3.104-3.104C89.246,50.367,90.271,51.679,90.271,53.662z"/>
	<path fill="#FFFFFF" d="M19.486,79.84c0,5.631-3.008,8.574-9.151,8.574s-9.247-2.943-9.247-8.574V64h6.271v15.711
		c0,2.145,0.832,3.104,2.976,3.104c2.176,0,2.911-0.896,2.911-3.104V64h6.24V79.84z"/>
	<path fill="#FFFFFF" d="M29.406,64l4.225,12.127l0.8,2.465h0.096l0.8-2.433L39.614,64h6.911v23.998h-5.728V77.951l0.064-2.592
		l-0.097-0.031l-0.799,2.495l-3.553,10.175h-4.063l-3.52-10.143l-0.8-2.496l-0.064,0.032l0.032,2.592v10.015h-5.472V64H29.406z"/>
	<path fill="#FFFFFF" d="M18.559,96l2.527,15.008l0.385,2.559h0.096l0.287-2.559L23.998,96h6.239l-5.023,23.998h-7.487l-2.24-14.559
		l-0.32-2.592H15.07l-0.352,2.592l-2.208,14.559H5.023L0,96h6.527l2.111,15.135l0.32,2.561h0.096l0.353-2.561L11.902,96H18.559z"/>
	<path fill="#FFFFFF" d="M43.07,115.807h-6.527l-0.928,4.191h-6.623L36.096,96h7.646l7.232,23.998h-6.977L43.07,115.807z
		 M39.263,103.711l-1.536,6.881h4.192l-1.536-6.881l-0.48-2.559h-0.096L39.263,103.711z"/>
	<path fill="#FFFFFF" d="M64.639,119.998v-9.406h-5.824v9.406h-6.239V96h6.239v8.992h5.824V96h6.271v23.998H64.639z"/>
	<path fill="#FFFFFF" d="M88.254,110.176l4.672,9.822h-7.231l-3.2-8.574h-2.111v8.574h-6.24V96h8.288
		c6.079,0,9.087,2.305,9.087,7.711C91.518,106.912,90.366,109.279,88.254,110.176z M82.559,101.184h-2.176v5.535h2.144
		c1.824,0,2.464-0.447,2.464-2.783C84.99,101.76,84.383,101.184,82.559,101.184z"/>
	<path fill="#FFFFFF" d="M0.447,151.998v-4.062l7.648-12.16l1.407-2.111L9.471,133.6H0.64L0.8,128h16.03v4.48l-7.391,11.775
		l-1.408,2.078l0.031,0.098h8.832l-0.096,5.566H0.447z"/>
	<path fill="#FFFFFF" d="M37.278,143.84c0,5.631-3.008,8.574-9.151,8.574s-9.248-2.943-9.248-8.574V128h6.272v15.711
		c0,2.145,0.831,3.104,2.976,3.104c2.176,0,2.912-0.895,2.912-3.104V128h6.239V143.84z"/>
	<path fill="#FFFFFF" d="M7.583,184.414c-2.528,0-5.023-0.576-6.976-1.664l0.801-5.311c1.951,0.992,3.936,1.6,6.016,1.6
		c1.983,0,2.751-0.672,2.751-1.951c0-3.072-9.535-2.113-9.535-9.951c0-4.193,2.56-7.52,8.479-7.52c2.207,0,4.576,0.416,6.303,1.15
		l-0.703,5.217c-1.824-0.545-3.648-0.865-5.184-0.865c-2.368,0-2.88,0.705-2.88,1.729c0,3.104,9.535,2.049,9.535,9.887
		C16.19,181.471,12.99,184.414,7.583,184.414z"/>
	<path fill="#FFFFFF" d="M34.014,178.592l-0.127,5.406H18.432V160h15.039l0.127,5.504h-8.927v3.711h7.359v5.023h-7.359v4.354H34.014
		z"/>
	<path fill="#FFFFFF" d="M36.671,160h6.432v23.998h-6.432V160z"/>
	<path fill="#FFFFFF" d="M60.67,183.998l-7.168-11.07l-1.344-2.209l-0.064,0.033l0.032,2.592v10.654h-5.503V160h5.247l7.712,12.447
		l0.063-0.031l-0.063-2.561L59.613,160h5.504v23.998H60.67z"/>
	<path fill="#FFFFFF" d="M70.942,184.383c-2.24,0-3.231-0.863-3.231-3.041c0-1.951,0.991-3.07,3.231-3.07
		c2.239,0,3.2,1.119,3.2,3.07C74.143,183.166,73.182,184.383,70.942,184.383z"/>
</g>
</svg>
