<?xml version="1.0" encoding="utf-8"?>
<!-- Generator: Adobe Illustrator 16.0.4, SVG Export Plug-In . SVG Version: 6.00 Build 0)  -->
<!DOCTYPE svg PUBLIC "-//W3C//DTD SVG 1.1//EN" "http://www.w3.org/Graphics/SVG/1.1/DTD/svg11.dtd">
<svg version="1.1" id="Ebene_1" xmlns="http://www.w3.org/2000/svg" xmlns:xlink="http://www.w3.org/1999/xlink" x="0px" y="0px"
	 width="89.823px" height="60.574px" viewBox="0 0 89.823 60.574" enable-background="new 0 0 89.823 60.574" xml:space="preserve">
<g>
	<path fill="#FFFFFF" d="M0,23.998v-4.062l7.648-12.16l1.407-2.111L9.023,5.6H0.192L0.353,0h16.03v4.48L8.992,16.255l-1.408,2.08
		l0.031,0.097h8.832l-0.096,5.566H0z"/>
	<path fill="#FFFFFF" d="M36.831,15.84c0,5.631-3.008,8.574-9.151,8.574s-9.248-2.943-9.248-8.574V0h6.272v15.711
		c0,2.145,0.831,3.104,2.976,3.104c2.176,0,2.912-0.896,2.912-3.104V0h6.239V15.84z"/>
	<path fill="#FFFFFF" d="M12.928,55.998v-9.406H7.104v9.406H0.864V32h6.239v8.992h5.824V32h6.271v23.998H12.928z"/>
	<path fill="#FFFFFF" d="M38.016,50.591l-0.129,5.407H22.432V32h15.039l0.129,5.504h-8.928v3.712h7.359v5.023h-7.359v4.352H38.016z"
		/>
	<path fill="#FFFFFF" d="M40.672,32h6.432v23.998h-6.432V32z"/>
	<path fill="#FFFFFF" d="M56.895,56.414c-2.527,0-5.023-0.576-6.975-1.664l0.8-5.311c1.952,0.992,3.936,1.6,6.016,1.6
		c1.983,0,2.751-0.672,2.751-1.952c0-3.071-9.535-2.112-9.535-9.951c0-4.192,2.561-7.52,8.48-7.52c2.207,0,4.575,0.416,6.303,1.151
		l-0.703,5.217c-1.824-0.545-3.648-0.864-5.184-0.864c-2.369,0-2.881,0.704-2.881,1.728c0,3.104,9.535,2.048,9.535,9.887
		C65.502,53.471,62.303,56.414,56.895,56.414z"/>
	<path fill="#FFFFFF" d="M73.6,56.414c-2.528,0-5.023-0.576-6.977-1.664l0.801-5.311c1.951,0.992,3.936,1.6,6.016,1.6
		c1.983,0,2.752-0.672,2.752-1.952c0-3.071-9.535-2.112-9.535-9.951c0-4.192,2.559-7.52,8.479-7.52c2.208,0,4.576,0.416,6.304,1.151
		l-0.704,5.217c-1.824-0.545-3.647-0.864-5.184-0.864c-2.367,0-2.879,0.704-2.879,1.728c0,3.104,9.535,2.048,9.535,9.887
		C82.207,53.471,79.007,56.414,73.6,56.414z"/>
	<path fill="#FFFFFF" d="M89.823,53.662c0,1.889-1.632,5.088-3.136,6.912l-2.048-0.512l0.768-3.744
		c-0.896-0.48-1.888-1.535-1.888-2.848c0-1.729,0.863-3.104,3.104-3.104C88.799,50.367,89.823,51.679,89.823,53.662z"/>
</g>
</svg>
