<?xml version="1.0" encoding="utf-8"?>
<!-- Generator: Adobe Illustrator 27.2.0, SVG Export Plug-In . SVG Version: 6.00 Build 0)  -->
<svg version="1.1" id="Ebene_1" xmlns="http://www.w3.org/2000/svg" xmlns:xlink="http://www.w3.org/1999/xlink" x="0px" y="0px"
	 viewBox="0 0 124.56 90.65" style="enable-background:new 0 0 124.56 90.65;" xml:space="preserve">
<style type="text/css">
	.st0{fill:#FFFFFF;}
	.st1{fill:#238C96;}
</style>
<g>
	<path d="M5.23,18.96c-1.9,0-3.77-0.43-5.23-1.25l0.6-3.98c1.46,0.74,2.95,1.2,4.51,1.2c1.49,0,2.06-0.5,2.06-1.46
		c0-2.3-7.15-1.58-7.15-7.46c0-3.14,1.92-5.64,6.36-5.64c1.66,0,3.43,0.31,4.73,0.86l-0.53,3.91C9.22,4.73,7.85,4.49,6.7,4.49
		c-1.78,0-2.16,0.53-2.16,1.3c0,2.33,7.15,1.54,7.15,7.42C11.69,16.75,9.29,18.96,5.23,18.96z"/>
	<path d="M22.2,15.51h-4.9l-0.7,3.14h-4.97l5.33-18h5.74l5.42,18H22.9L22.2,15.51z M19.34,6.43l-1.15,5.16h3.14l-1.15-5.16
		l-0.36-1.92h-0.07L19.34,6.43z"/>
	<path d="M42.22,12.53c0,4.22-2.26,6.43-6.86,6.43s-6.94-2.21-6.94-6.43V0.65h4.7v11.79c0,1.61,0.62,2.33,2.23,2.33
		c1.63,0,2.18-0.67,2.18-2.33V0.65h4.68V12.53z"/>
	<path d="M57.22,18c-1.25,0.6-3.29,0.98-5.14,0.98c-5.95,0-8.06-3.19-8.06-9.34c0-6.29,2.47-9.31,8.28-9.31
		c1.58,0,3.38,0.29,4.68,0.79l-0.43,4.01c-1.18-0.43-2.69-0.7-3.98-0.7c-2.95,0-3.62,1.1-3.62,5.16c0,4.27,0.7,5.21,3.02,5.21
		c0.36,0,0.74-0.02,1.08-0.1V8.83h4.18V18z"/>
	<path d="M65.71,8.86v3.12h-6.7V8.86H65.71z"/>
	<path d="M5.23,42.96c-1.9,0-3.77-0.43-5.23-1.25l0.6-3.98c1.46,0.74,2.95,1.2,4.51,1.2c1.49,0,2.06-0.5,2.06-1.46
		c0-2.3-7.15-1.58-7.15-7.46c0-3.14,1.92-5.64,6.36-5.64c1.66,0,3.43,0.31,4.73,0.86l-0.53,3.91c-1.37-0.41-2.74-0.65-3.89-0.65
		c-1.78,0-2.16,0.53-2.16,1.3c0,2.33,7.15,1.54,7.15,7.42C11.69,40.75,9.29,42.96,5.23,42.96z"/>
	<path d="M20.83,28.85v13.8h-4.78v-13.8h-4.08l0.1-4.2h12.75l0.1,4.2H20.83z"/>
	<path d="M34.06,39.51h-4.9l-0.7,3.14H23.5l5.33-18h5.74l5.42,18h-5.23L34.06,39.51z M31.2,30.43l-1.15,5.16h3.14l-1.15-5.16
		l-0.36-1.92h-0.07L31.2,30.43z"/>
	<path d="M51.77,35.28l3.5,7.37h-5.42l-2.4-6.43h-1.58v6.43h-4.68v-18h6.22c4.56,0,6.82,1.73,6.82,5.78
		C54.22,32.83,53.35,34.61,51.77,35.28z M47.5,28.54h-1.63v4.15h1.61c1.37,0,1.85-0.34,1.85-2.09
		C49.32,28.97,48.86,28.54,47.5,28.54z"/>
	<path d="M65.66,42.65l-3.38-7.32h-1.15v7.32h-4.68v-18h4.68v6.96h1.25l3.34-6.96h5.26l-4.32,8.62l4.54,9.38H65.66z"/>
	<path d="M84.19,38.59l-0.1,4.06H72.5v-18h11.28l0.1,4.13h-6.7v2.78h5.52v3.77h-5.52v3.26H84.19z"/>
	<path d="M0.72,48.65h4.82v18H0.72V48.65z"/>
	<path d="M18.72,66.65l-5.38-8.3l-1.01-1.66l-0.05,0.02l0.02,1.94v7.99H8.18v-18h3.94l5.78,9.34l0.05-0.02l-0.05-1.92l0.02-7.39
		h4.13v18H18.72z"/>
	<path d="M31.01,66.65h-6.5v-18h6.41c5.47,0,7.7,2.54,7.7,8.9C38.62,64.15,36.07,66.65,31.01,66.65z M30.94,52.8h-1.75v9.74h1.75
		c2.06,0,2.76-0.62,2.76-5.04C33.7,53.52,33.05,52.8,30.94,52.8z"/>
	<path d="M54.22,60.53c0,4.22-2.26,6.43-6.86,6.43s-6.94-2.21-6.94-6.43V48.65h4.7v11.79c0,1.61,0.62,2.33,2.23,2.33
		c1.63,0,2.18-0.67,2.18-2.33V48.65h4.68V60.53z"/>
	<path d="M61.03,66.96c-1.9,0-3.77-0.43-5.23-1.25l0.6-3.98c1.46,0.74,2.95,1.2,4.51,1.2c1.49,0,2.06-0.5,2.06-1.46
		c0-2.3-7.15-1.58-7.15-7.46c0-3.14,1.92-5.64,6.36-5.64c1.66,0,3.43,0.31,4.73,0.86l-0.53,3.91c-1.37-0.41-2.74-0.65-3.89-0.65
		c-1.78,0-2.16,0.53-2.16,1.3c0,2.33,7.15,1.54,7.15,7.42C67.49,64.75,65.09,66.96,61.03,66.96z"/>
	<path d="M76.63,52.85v13.8h-4.78v-13.8h-4.08l0.1-4.2h12.75l0.1,4.2H76.63z"/>
	<path d="M92.74,59.28l3.5,7.37h-5.42l-2.4-6.43h-1.58v6.43h-4.68v-18h6.22c4.56,0,6.82,1.73,6.82,5.78
		C95.18,56.83,94.32,58.61,92.74,59.28z M88.46,52.54h-1.63v4.15h1.61c1.37,0,1.85-0.34,1.85-2.09
		C90.29,52.97,89.83,52.54,88.46,52.54z"/>
	<path d="M97.61,48.65h4.82v18h-4.82V48.65z"/>
	<path d="M116.76,62.59l-0.1,4.06h-11.59v-18h11.28l0.1,4.13h-6.7v2.78h5.52v3.77h-5.52v3.26H116.76z"/>
	<path d="M124.56,56.86v3.12h-6.7v-3.12H124.56z"/>
	<path d="M5.23,90.96c-1.9,0-3.77-0.43-5.23-1.25l0.6-3.98c1.46,0.74,2.95,1.2,4.51,1.2c1.49,0,2.06-0.5,2.06-1.46
		c0-2.3-7.15-1.58-7.15-7.46c0-3.14,1.92-5.64,6.36-5.64c1.66,0,3.43,0.31,4.73,0.86l-0.53,3.91c-1.37-0.41-2.74-0.65-3.89-0.65
		c-1.78,0-2.16,0.53-2.16,1.3c0,2.33,7.15,1.54,7.15,7.42C11.69,88.75,9.29,90.96,5.23,90.96z"/>
	<path d="M22.2,87.51h-4.9l-0.7,3.14h-4.97l5.33-18h5.74l5.42,18H22.9L22.2,87.51z M19.34,78.43l-1.15,5.16h3.14l-1.15-5.16
		l-0.36-1.92h-0.07L19.34,78.43z"/>
	<path d="M42.22,84.53c0,4.22-2.26,6.43-6.86,6.43s-6.94-2.21-6.94-6.43V72.65h4.7v11.79c0,1.61,0.62,2.33,2.23,2.33
		c1.63,0,2.18-0.67,2.18-2.33V72.65h4.68V84.53z"/>
	<path d="M57.22,90c-1.25,0.6-3.29,0.98-5.14,0.98c-5.95,0-8.06-3.19-8.06-9.34c0-6.29,2.47-9.31,8.28-9.31
		c1.58,0,3.38,0.29,4.68,0.79l-0.43,4.01c-1.18-0.43-2.69-0.7-3.98-0.7c-2.95,0-3.62,1.1-3.62,5.16c0,4.27,0.7,5.21,3.02,5.21
		c0.36,0,0.74-0.02,1.08-0.1v-5.88h4.18V90z"/>
	<path d="M71.04,86.59l-0.1,4.06H59.35v-18h11.28l0.1,4.13h-6.7v2.78h5.52v3.77h-5.52v3.26H71.04z"/>
	<path d="M83.42,83.28l3.5,7.37H81.5l-2.4-6.43h-1.58v6.43h-4.68v-18h6.22c4.56,0,6.82,1.73,6.82,5.78
		C85.87,80.83,85.01,82.61,83.42,83.28z M79.15,76.54h-1.63v4.15h1.61c1.37,0,1.85-0.34,1.85-2.09
		C80.98,76.97,80.52,76.54,79.15,76.54z"/>
	<path d="M90.02,90.94c-1.68,0-2.42-0.65-2.42-2.28c0-1.46,0.74-2.3,2.42-2.3c1.68,0,2.4,0.84,2.4,2.3
		C92.42,90.03,91.7,90.94,90.02,90.94z"/>
</g>
</svg>
