<?xml version="1.0" encoding="UTF-8"?><svg id="Ebene_1" xmlns="http://www.w3.org/2000/svg" viewBox="0 0 98.68 86.37"><path d="m8.07,9.15c0,4.18-2.13,5.49-5.47,5.49-1.06,0-1.92-.19-2.6-.49l.19-3.1c.4.21,1.03.34,1.77.34,1.56,0,2.32-.61,2.32-2.32V.12h3.8v9.02Z"/><path d="m19.26,11.16l-.08,3.21h-9.18V.12h8.93l.08,3.27h-5.3v2.2h4.37v2.98h-4.37v2.58h5.55Z"/><path d="m26.9,3.45v10.92h-3.78V3.45h-3.23l.08-3.32h10.09l.08,3.32h-3.23Z"/><path d="m30.76,14.37v-2.41l4.54-7.22.84-1.25-.02-.04h-5.24l.09-3.32h9.52v2.66l-4.39,6.99-.84,1.23.02.06h5.24l-.06,3.31h-9.71Z"/><path d="m48.25,3.45v10.92h-3.78V3.45h-3.23l.08-3.32h10.09l.08,3.32h-3.23Z"/><path d="m8.83,32.37l-4.25-6.57-.8-1.31-.04.02.02,1.54v6.33H.49v-14.25h3.12l4.58,7.39.04-.02-.04-1.52.02-5.85h3.27v14.25h-2.64Z"/><path d="m22.66,29.16l-.08,3.21h-9.18v-14.25h8.93l.08,3.27h-5.3v2.2h4.37v2.98h-4.37v2.58h5.55Z"/><path d="m34.88,27.53c0,3.34-1.79,5.09-5.43,5.09s-5.49-1.75-5.49-5.09v-9.4h3.72v9.33c0,1.27.49,1.84,1.77,1.84s1.73-.53,1.73-1.84v-9.33h3.7v9.4Z"/><path d="m45.94,29.16l-.08,3.21h-9.18v-14.25h8.93l.08,3.27h-5.3v2.2h4.37v2.98h-4.37v2.58h5.55Z"/><path d="m55.7,32.37l-4.25-6.57-.8-1.31-.04.02.02,1.54v6.33h-3.27v-14.25h3.12l4.58,7.39.04-.02-.04-1.52.02-5.85h3.27v14.25h-2.64Z"/><path d="m.64,36.12h3.82v14.25H.64v-14.25Z"/><path d="m14.89,50.37l-4.25-6.57-.8-1.31-.04.02.02,1.54v6.33h-3.27v-14.25h3.12l4.58,7.39.04-.02-.04-1.52.02-5.85h3.27v14.25h-2.64Z"/><path d="m24.62,50.37h-5.15v-14.25h5.07c4.33,0,6.1,2.01,6.1,7.05s-2.01,7.2-6.02,7.2Zm-.06-10.96h-1.39v7.71h1.39c1.63,0,2.18-.49,2.18-3.99,0-3.15-.51-3.72-2.18-3.72Z"/><path d="m42.99,45.53c0,3.34-1.79,5.09-5.43,5.09s-5.49-1.75-5.49-5.09v-9.4h3.72v9.33c0,1.27.49,1.84,1.77,1.84s1.73-.53,1.73-1.84v-9.33h3.7v9.4Z"/><path d="m48.39,50.62c-1.5,0-2.98-.34-4.14-.99l.47-3.15c1.16.59,2.34.95,3.57.95s1.63-.4,1.63-1.16c0-1.82-5.66-1.25-5.66-5.91,0-2.49,1.52-4.46,5.03-4.46,1.31,0,2.72.25,3.74.68l-.42,3.1c-1.08-.32-2.17-.51-3.08-.51-1.41,0-1.71.42-1.71,1.03,0,1.84,5.66,1.22,5.66,5.87,0,2.81-1.9,4.56-5.11,4.56Z"/><path d="m60.74,39.45v10.92h-3.78v-10.92h-3.23l.08-3.32h10.09l.08,3.32h-3.23Z"/><path d="m73.49,44.54l2.77,5.83h-4.29l-1.9-5.09h-1.25v5.09h-3.7v-14.25h4.92c3.61,0,5.4,1.37,5.4,4.58,0,1.9-.68,3.31-1.94,3.84Zm-3.38-5.34h-1.29v3.29h1.27c1.08,0,1.46-.27,1.46-1.65,0-1.29-.36-1.63-1.44-1.63Z"/><path d="m77.34,36.12h3.82v14.25h-3.82v-14.25Z"/><path d="m92.5,47.16l-.08,3.21h-9.18v-14.25h8.93l.08,3.27h-5.3v2.2h4.37v2.98h-4.37v2.58h5.55Z"/><path d="m98.68,42.01v2.47h-5.3v-2.47h5.3Z"/><path d="m4.21,68.62c-1.5,0-2.98-.34-4.14-.99l.47-3.15c1.16.59,2.34.95,3.57.95s1.63-.4,1.63-1.16c0-1.82-5.66-1.25-5.66-5.91,0-2.49,1.52-4.46,5.03-4.46,1.31,0,2.72.25,3.74.68l-.42,3.1c-1.08-.32-2.17-.51-3.08-.51-1.41,0-1.71.42-1.71,1.03,0,1.84,5.66,1.22,5.66,5.87,0,2.81-1.9,4.56-5.11,4.56Z"/><path d="m17.65,65.88h-3.88l-.55,2.49h-3.93l4.22-14.25h4.54l4.29,14.25h-4.14l-.55-2.49Zm-2.26-7.18l-.91,4.08h2.49l-.91-4.08-.28-1.52h-.06l-.32,1.52Z"/><path d="m33.49,63.53c0,3.34-1.79,5.09-5.43,5.09s-5.49-1.75-5.49-5.09v-9.4h3.72v9.33c0,1.27.49,1.84,1.77,1.84s1.73-.53,1.73-1.84v-9.33h3.7v9.4Z"/><path d="m45.37,67.86c-.99.47-2.6.78-4.07.78-4.71,0-6.38-2.53-6.38-7.39s1.96-7.37,6.55-7.37c1.25,0,2.68.23,3.71.63l-.34,3.17c-.93-.34-2.13-.55-3.15-.55-2.34,0-2.87.87-2.87,4.08,0,3.38.55,4.12,2.39,4.12.29,0,.59-.02.85-.08v-4.65h3.31v7.26Z"/><path d="m56.31,65.16l-.08,3.21h-9.18v-14.25h8.93l.08,3.27h-5.3v2.2h4.37v2.98h-4.37v2.58h5.55Z"/><path d="m66.11,62.54l2.77,5.83h-4.29l-1.9-5.09h-1.25v5.09h-3.7v-14.25h4.92c3.61,0,5.4,1.37,5.4,4.58,0,1.9-.68,3.31-1.94,3.84Zm-3.38-5.34h-1.29v3.29h1.27c1.08,0,1.46-.27,1.46-1.65,0-1.29-.36-1.63-1.44-1.63Z"/><path d="m7.78,86.37l-2.68-5.79h-.91v5.79H.49v-14.25h3.7v5.51h.99l2.64-5.51h4.16l-3.42,6.82,3.59,7.43h-4.37Z"/><path d="m20.55,83.88h-3.88l-.55,2.49h-3.93l4.22-14.25h4.54l4.29,14.25h-4.14l-.55-2.49Zm-2.26-7.18l-.91,4.08h2.49l-.91-4.08-.28-1.52h-.06l-.32,1.52Z"/><path d="m36.4,81.53c0,3.34-1.79,5.09-5.43,5.09s-5.49-1.75-5.49-5.09v-9.4h3.72v9.33c0,1.27.49,1.84,1.77,1.84s1.73-.53,1.73-1.84v-9.33h3.7v9.4Z"/><path d="m41.93,75.45v2.51h4.35l-.02,3.15h-4.33v5.26h-3.72v-14.25h8.91l.06,3.32h-5.24Z"/><path d="m57.68,83.16l-.08,3.21h-9.18v-14.25h8.93l.08,3.27h-5.3v2.2h4.37v2.98h-4.37v2.58h5.55Z"/><path d="m67.44,86.37l-4.25-6.57-.8-1.31-.04.02.02,1.54v6.33h-3.27v-14.25h3.12l4.58,7.39.04-.02-.04-1.52.02-5.85h3.27v14.25h-2.64Z"/></svg>