<?xml version="1.0" encoding="UTF-8"?><svg id="Ebene_1" xmlns="http://www.w3.org/2000/svg" viewBox="0 0 224.95 80.97"><path d="m15.8,31.54l.05.16h12.61l-.21,9.11H2.86v-6.58c8.35-9.32,15.14-16.01,15.14-21.34,0-2.43-1.4-3.83-4.63-3.83s-5.88,1.4-8.52,3.29L2.43,4C5.67,1.63,9.98-.04,15.42-.04,24.26-.04,28.68,4.76,28.68,11.87c0,6.57-5.23,12.45-12.88,19.67Z"/><path d="m46.14,41.35c-4.31,0-8.35-.92-11.7-2.8l1.72-7.98c2.96,1.46,5.39,2.21,8.84,2.21,4.31,0,5.44-1.67,5.44-5.17,0-3.18-1.72-4.31-5.39-4.31-2.1,0-4.69.32-6.68,1.02l-3.34-3.88L36.5.39h21.99l.38,8.95h-14.07l-.38,5.98c1.24-.22,2.53-.32,3.99-.32,7.81,0,12.34,3.93,12.34,11.8,0,9.05-4.42,14.55-14.61,14.55Z"/><path d="m76.65,18.61c-5.71,0-8.3-3.23-8.3-9.32C68.35,2.82,70.94-.04,76.71-.04c5.39,0,8.35,2.64,8.35,9.32,0,6.2-3.07,9.32-8.41,9.32Zm23.12-11.05l-21.83,30.99-5.55-4.42L94.28,3.14l5.5,4.42Zm-23.07-1.62c-1.24,0-1.83.65-1.83,3.34s.59,3.29,1.83,3.29,1.83-.59,1.83-3.29-.65-3.34-1.83-3.34Zm19.35,35.41c-5.71,0-8.3-3.23-8.3-9.27,0-6.47,2.59-9.49,8.35-9.49,5.44,0,8.35,2.8,8.35,9.49,0,6.14-3.02,9.27-8.41,9.27Zm.05-12.45c-1.24,0-1.83.59-1.83,3.18s.59,3.18,1.83,3.18,1.89-.54,1.89-3.18-.65-3.18-1.89-3.18Z"/><path d="m9.35,54.65l2.92,6.13h-4.51l-2-5.35h-1.32v5.35H.54v-14.98h5.17c3.8,0,5.67,1.44,5.67,4.81,0,2-.72,3.48-2.04,4.03Zm-3.56-5.61h-1.36v3.46h1.34c1.14,0,1.54-.28,1.54-1.74,0-1.36-.38-1.72-1.52-1.72Z"/><path d="m20.97,58.16h-4.07l-.58,2.62h-4.13l4.44-14.98h4.77l4.51,14.98h-4.35l-.58-2.62Zm-2.38-7.55l-.96,4.29h2.62l-.96-4.29-.3-1.6h-.06l-.34,1.6Z"/><path d="m32.73,60.78h-5.83v-14.98h5.87c3.22,0,4.85,1.5,4.85,3.88,0,1.58-.72,2.6-1.84,3.14v.04c1.5.5,2.3,1.66,2.3,3.52,0,2.7-1.62,4.41-5.35,4.41Zm-.12-11.7h-1.94v2.64h1.98c.9,0,1.22-.34,1.22-1.36s-.34-1.28-1.26-1.28Zm.1,5.55h-2.04v2.96h2.12c.98,0,1.34-.32,1.34-1.5,0-1.04-.32-1.46-1.42-1.46Z"/><path d="m47.08,58.16h-4.07l-.58,2.62h-4.13l4.43-14.98h4.77l4.51,14.98h-4.35l-.58-2.62Zm-2.38-7.55l-.96,4.29h2.62l-.96-4.29-.3-1.6h-.06l-.34,1.6Z"/><path d="m58.21,49.29v11.48h-3.97v-11.48h-3.39l.08-3.5h10.61l.08,3.5h-3.4Z"/><path d="m69.65,49.29v11.48h-3.97v-11.48h-3.4l.08-3.5h10.61l.08,3.5h-3.39Z"/><path d="m86.46,58.16h-4.07l-.58,2.62h-4.13l4.43-14.98h4.77l4.51,14.98h-4.35l-.58-2.62Zm-2.38-7.55l-.96,4.29h2.62l-.96-4.29-.3-1.6h-.06l-.34,1.6Z"/><path d="m103.11,55.69c0,3.52-1.88,5.35-5.71,5.35s-5.77-1.84-5.77-5.35v-9.89h3.91v9.81c0,1.34.52,1.94,1.86,1.94s1.82-.56,1.82-1.94v-9.81h3.89v9.89Z"/><path d="m108.92,49.29v2.64h4.57l-.02,3.32h-4.55v5.53h-3.91v-14.98h9.37l.06,3.5h-5.51Z"/><path d="m125.37,56.13h-1.24v4.65h-3.89v-14.98h5.13c4.15,0,5.81,1.62,5.81,5.27,0,3.24-1.62,5.05-5.81,5.05Zm0-7.07h-1.24v3.97h1.24c1.28,0,1.76-.3,1.76-1.98s-.38-2-1.76-2Z"/><path d="m139.19,58.16h-4.07l-.58,2.62h-4.13l4.44-14.98h4.77l4.51,14.98h-4.35l-.58-2.62Zm-2.38-7.55l-.96,4.29h2.62l-.96-4.29-.3-1.6h-.06l-.34,1.6Z"/><path d="m149.07,61.04c-1.58,0-3.13-.36-4.35-1.04l.5-3.32c1.22.62,2.46,1,3.76,1s1.72-.42,1.72-1.22c0-1.92-5.95-1.32-5.95-6.21,0-2.62,1.6-4.69,5.29-4.69,1.38,0,2.86.26,3.94.72l-.44,3.26c-1.14-.34-2.28-.54-3.24-.54-1.48,0-1.8.44-1.8,1.08,0,1.94,5.95,1.28,5.95,6.17,0,2.96-2,4.79-5.37,4.79Z"/><path d="m159.49,61.04c-1.58,0-3.14-.36-4.36-1.04l.5-3.32c1.22.62,2.46,1,3.76,1s1.72-.42,1.72-1.22c0-1.92-5.95-1.32-5.95-6.21,0-2.62,1.6-4.69,5.29-4.69,1.38,0,2.86.26,3.93.72l-.44,3.26c-1.14-.34-2.28-.54-3.23-.54-1.48,0-1.8.44-1.8,1.08,0,1.94,5.95,1.28,5.95,6.17,0,2.96-2,4.79-5.37,4.79Z"/><path d="m175.99,57.4l-.08,3.38h-9.65v-14.98h9.39l.08,3.44h-5.57v2.32h4.6v3.14h-4.6v2.72h5.83Z"/><path d="m186.25,60.78l-4.47-6.91-.84-1.38-.04.02.02,1.62v6.65h-3.44v-14.98h3.28l4.81,7.77.04-.02-.04-1.6.02-6.15h3.44v14.98h-2.78Z"/><path d="m196.47,60.78h-5.41v-14.98h5.33c4.55,0,6.41,2.12,6.41,7.41s-2.12,7.57-6.33,7.57Zm-.06-11.52h-1.46v8.11h1.46c1.72,0,2.3-.52,2.3-4.19,0-3.32-.54-3.92-2.3-3.92Z"/><path d="m214.16,57.4l-.08,3.38h-9.65v-14.98h9.39l.08,3.44h-5.57v2.32h4.6v3.14h-4.6v2.72h5.83Z"/><path d="m219.57,61.04c-1.58,0-3.14-.36-4.36-1.04l.5-3.32c1.22.62,2.46,1,3.76,1s1.72-.42,1.72-1.22c0-1.92-5.95-1.32-5.95-6.21,0-2.62,1.6-4.69,5.29-4.69,1.38,0,2.86.26,3.93.72l-.44,3.26c-1.14-.34-2.28-.54-3.23-.54-1.48,0-1.8.44-1.8,1.08,0,1.94,5.95,1.28,5.95,6.17,0,2.96-2,4.79-5.37,4.79Z"/><path d="m0,80.75v-2.54l4.77-7.59.88-1.32-.02-.04H.12l.1-3.5h10.01v2.8l-4.62,7.35-.88,1.3.02.06h5.51l-.06,3.48H0Z"/><path d="m22.99,75.65c0,3.52-1.88,5.35-5.71,5.35s-5.77-1.84-5.77-5.35v-9.89h3.92v9.81c0,1.34.52,1.94,1.86,1.94s1.82-.56,1.82-1.94v-9.81h3.89v9.89Z"/><path d="m30.71,80.75h-5.83v-14.98h5.87c3.21,0,4.85,1.5,4.85,3.88,0,1.58-.72,2.6-1.84,3.14v.04c1.5.5,2.3,1.66,2.3,3.52,0,2.7-1.62,4.41-5.35,4.41Zm-.12-11.7h-1.94v2.64h1.98c.9,0,1.22-.34,1.22-1.36s-.34-1.28-1.26-1.28Zm.1,5.55h-2.04v2.96h2.12c.98,0,1.34-.32,1.34-1.5,0-1.04-.32-1.46-1.42-1.46Z"/><path d="m47.35,77.37l-.08,3.38h-9.65v-14.98h9.39l.08,3.44h-5.57v2.32h4.6v3.14h-4.6v2.72h5.83Z"/><path d="m56.37,80.75v-5.87h-3.63v5.87h-3.89v-14.98h3.89v5.61h3.63v-5.61h3.92v14.98h-3.92Z"/><path d="m68.17,81.01c-4.31,0-6.27-2.28-6.27-7.75s1.88-7.73,6.27-7.73,6.27,2.24,6.27,7.73-1.88,7.75-6.27,7.75Zm-1.9-15.96c-.98,0-1.48-.38-1.48-1.34,0-.9.5-1.38,1.48-1.38s1.48.48,1.48,1.38-.46,1.34-1.48,1.34Zm1.88,3.97c-1.64,0-2.16.68-2.16,4.23s.54,4.29,2.2,4.29,2.16-.74,2.16-4.29-.5-4.23-2.2-4.23Zm1.94-3.97c-.98,0-1.48-.38-1.48-1.34,0-.9.5-1.38,1.48-1.38s1.48.48,1.48,1.38-.46,1.34-1.48,1.34Z"/><path d="m84.88,74.61l2.92,6.13h-4.51l-2-5.35h-1.32v5.35h-3.89v-14.98h5.17c3.79,0,5.67,1.44,5.67,4.81,0,2-.72,3.48-2.04,4.03Zm-3.55-5.61h-1.36v3.46h1.34c1.14,0,1.54-.28,1.54-1.74,0-1.36-.38-1.72-1.52-1.72Z"/><path d="m102.99,77.37l-.08,3.38h-9.65v-14.98h9.39l.08,3.44h-5.57v2.32h4.59v3.14h-4.59v2.72h5.83Z"/><path d="m113.29,74.61l2.92,6.13h-4.51l-2-5.35h-1.32v5.35h-3.89v-14.98h5.17c3.79,0,5.67,1.44,5.67,4.81,0,2-.72,3.48-2.04,4.03Zm-3.55-5.61h-1.36v3.46h1.34c1.14,0,1.54-.28,1.54-1.74,0-1.36-.38-1.72-1.52-1.72Z"/><path d="m124.71,80.75v-5.87h-3.63v5.87h-3.89v-14.98h3.89v5.61h3.63v-5.61h3.92v14.98h-3.92Z"/><path d="m138.37,78.13h-4.07l-.58,2.62h-4.13l4.43-14.98h4.77l4.51,14.98h-4.35l-.58-2.62Zm-2.38-7.55l-.96,4.29h2.62l-.96-4.29-.3-1.6h-.06l-.34,1.6Z"/><path d="m153.33,77.27l-.1,3.48h-8.93v-14.98h3.94v11.5h5.09Z"/><path d="m159.41,69.26v11.48h-3.97v-11.48h-3.4l.08-3.5h10.61l.08,3.5h-3.39Z"/><path d="m173.73,77.37l-.08,3.38h-9.65v-14.98h9.39l.08,3.44h-5.57v2.32h4.59v3.14h-4.59v2.72h5.83Z"/><path d="m183.99,80.75l-4.47-6.91-.84-1.38-.04.02.02,1.62v6.65h-3.44v-14.98h3.28l4.81,7.77.04-.02-.04-1.6.02-6.15h3.44v14.98h-2.78Z"/><path d="m190.4,80.99c-1.4,0-2.02-.54-2.02-1.9,0-1.22.62-1.92,2.02-1.92s2,.7,2,1.92c0,1.14-.6,1.9-2,1.9Z"/><path d="m197.65,65.19l.26,1.94,1.84-.44.58,1.64-1.78.86,1.02,1.7-1.26.96-1.48-1.44-1.52,1.46-1.3-.92.98-1.76-1.78-.84.62-1.66,1.86.44.28-1.94h1.68Z"/></svg>