<?xml version="1.0" encoding="utf-8"?>
<!-- Generator: Adobe Illustrator 23.1.1, SVG Export Plug-In . SVG Version: 6.00 Build 0)  -->
<svg version="1.1" id="Ebene_1" xmlns="http://www.w3.org/2000/svg" xmlns:xlink="http://www.w3.org/1999/xlink" x="0px" y="0px"
	 viewBox="0 0 149.03 82.65" style="enable-background:new 0 0 149.03 82.65;" xml:space="preserve">
<style type="text/css">
	.st0{fill-rule:evenodd;clip-rule:evenodd;}
</style>
<path class="st0" d="M109.52,71.73l-3.97-0.99l1.49-7.26c-1.74-0.93-3.66-2.98-3.66-5.52c0-3.35,1.68-6.02,6.02-6.02
	c4.22,0,6.21,2.54,6.21,6.39C115.6,61.99,112.44,68.19,109.52,71.73z M100.02,52.37l-0.25,10.49H69.8V16.31h29.17l0.25,10.67H81.9
	v7.2h14.28v9.74H81.9v8.44H100.02z M56.52,53.11c2.85,0,5.52-0.56,7.7-1.55l1.12,9.87c-2.79,1.36-7.01,2.23-10.61,2.23
	c-13.28,0-19.74-7.57-19.74-24.33c0-15.64,6.27-23.83,20.48-23.83c3.29,0,7.32,0.74,9.81,1.74l-1.18,10.3
	c-2.05-0.75-4.84-1.24-7.76-1.24c-6.89,0-8.63,2.92-8.63,13.1C47.7,50.13,49.63,53.11,56.52,53.11z M16.92,16.31h12.47v46.55H16.92
	V16.31z"/>
</svg>
