<svg enable-background="new 0 0 150.75 103.59" viewBox="0 0 150.75 103.59" xmlns="http://www.w3.org/2000/svg"><g clip-rule="evenodd" fill-rule="evenodd"><path d="m19.05 53.09 8 6 10-13-4-3-7 9-4-3z"/><path d="m122.76 44.44c.07 2.04.82 2.74 2.48 2.74.78 0 1.44-.17 2.11-.49l.14 1.04c-.65.35-1.46.57-2.39.57-2.55 0-3.6-1.34-3.6-4.24 0-2.43 1.07-3.8 3.2-3.8 1.85 0 3.06 1.09 3.06 3.57 0 .2-.01.43-.03.6h-4.97zm1.95-3.11c-1.31 0-1.9.73-1.98 2.26h3.89c-.02-1.64-.79-2.26-1.91-2.26zm-5.14 17.26c0-1.09-.61-1.59-1.61-1.59-.83 0-1.54.48-1.54 1.46v5.28h-1.22v-5.28c0-1.05-.66-1.47-1.52-1.47-.65 0-1.31.35-1.62.87v5.88h-1.24v-7.72l.88-.07.22.83h.04c.47-.57 1.22-.91 2-.91 1.04 0 1.73.39 2.09 1.18h.03c.44-.81 1.24-1.2 2.18-1.2 1.5 0 2.52.88 2.52 2.72v5.16h-1.22v-5.14zm-.89-15.57c0-1.14-.61-1.62-1.75-1.62-.66 0-1.44.31-1.81.87v5.88h-1.24v-7.72l.88-.06.21.82h.04c.53-.58 1.38-.92 2.25-.92 1.64 0 2.64.92 2.64 2.77v5.12h-1.22zm-11.49 1.42c.06 2.04.82 2.74 2.48 2.74.78 0 1.44-.17 2.11-.49l.14 1.04c-.65.35-1.46.57-2.39.57-2.55 0-3.6-1.34-3.6-4.24 0-2.43 1.07-3.8 3.2-3.8 1.85 0 3.06 1.09 3.06 3.57 0 .2-.01.43-.03.6h-4.97zm1.95-3.11c-1.31 0-1.9.73-1.98 2.26h3.89c-.02-1.64-.79-2.26-1.91-2.26zm-.02 18.11c0 .19-.01.43-.03.6h-4.97c.06 2.04.82 2.74 2.48 2.74.78 0 1.44-.17 2.11-.49l.14 1.04c-.65.35-1.46.57-2.39.57-2.55 0-3.6-1.34-3.6-4.24 0-2.43 1.07-3.8 3.2-3.8 1.85 0 3.06 1.1 3.06 3.58zm-5.02-.25h3.89c-.03-1.64-.79-2.26-1.91-2.26-1.32 0-1.91.73-1.98 2.26zm-1.02-11.85-.04-.01c-.48.64-1.25.98-2.29.98-2.09 0-2.98-1.27-2.98-4.04 0-2.63.92-4 2.99-4 .86 0 1.64.3 2.18.87l.03-.01-.03-1.04v-2.18l1.24-.08v10.33h-.95zm-.13-5.06c-.32-.53-1.01-.88-1.85-.88-1.51 0-2.05.81-2.05 2.91 0 2.17.49 2.96 2.04 2.96 1.08 0 1.64-.53 1.86-.95zm-3.91 11.79.96-.1v2.03h1.91v.96h-1.91v4.76c0 .81.43 1.13 1.13 1.13.22 0 .5-.04.65-.1l.08.94c-.23.12-.66.19-1.08.19-1.33 0-2.01-.74-2.01-2.12v-4.8h-1.08v-.96h1.12zm-2.18 7.4c0 1.46-.82 2.43-2.73 2.43-.92 0-1.78-.22-2.38-.65l.16-1.07c.58.44 1.47.68 2.21.68 1.13 0 1.6-.55 1.6-1.27 0-1.76-3.96-.94-3.96-3.55 0-1.31.92-2.17 2.7-2.17.75 0 1.47.16 2.09.44l-.1 1.04c-.65-.27-1.39-.42-2.01-.42-.92 0-1.51.4-1.51 1.04-.01 1.65 3.93.79 3.93 3.5zm-5.33-17.03c.06 2.04.82 2.74 2.48 2.74.78 0 1.44-.17 2.11-.49l.14 1.04c-.65.35-1.46.57-2.39.57-2.55 0-3.6-1.34-3.6-4.24 0-2.43 1.07-3.8 3.2-3.8 1.85 0 3.06 1.09 3.06 3.57 0 .2-.01.43-.03.6h-4.97zm1.95-3.11c-1.31 0-1.9.73-1.98 2.26h3.89c-.03-1.64-.8-2.26-1.91-2.26zm-5.54 22.5c-.52 1.42-1.27 1.99-2.4 1.99-.43 0-.86-.09-1.2-.25l.12-.92c.3.14.59.21.87.21.6 0 1.01-.23 1.35-.99l.04-.13-3.39-7.75h1.43l2.21 5.63.36.97h.04l.29-1 1.78-5.6h1.33zm.27-15.69h-1.24v-7.71l1.24-.06zm-.61-9.05c-.53 0-.79-.17-.79-.66 0-.43.26-.66.79-.66s.79.23.79.66c0 .46-.26.66-.79.66zm-4.21 3.92c0-1.04-.56-1.61-1.76-1.61-.81 0-1.51.39-1.82.88v5.86h-1.22v-10.26l1.22-.08v2.25l-.01 1.05.03.01c.56-.58 1.35-.86 2.17-.86 1.69 0 2.61.99 2.61 2.76v5.13h-1.22zm-6.01 15.02c0-1.31.92-2.17 2.7-2.17.75 0 1.47.16 2.09.44l-.1 1.04c-.65-.27-1.39-.42-2.01-.42-.92 0-1.51.4-1.51 1.04 0 1.65 3.94.79 3.94 3.5 0 1.46-.82 2.43-2.73 2.43-.92 0-1.78-.22-2.38-.65l.16-1.07c.58.44 1.47.68 2.21.68 1.13 0 1.6-.55 1.6-1.27 0-1.75-3.97-.93-3.97-3.55zm-2.23-10.82c.61 0 1.18-.16 1.65-.44l.09 1.01c-.46.31-1.18.53-2 .53-2.17 0-3.29-1.25-3.29-4.1 0-2.61 1.01-3.94 3.33-3.94.69 0 1.39.16 1.9.38l-.08 1.1c-.45-.21-1.01-.35-1.57-.35-1.68 0-2.3.81-2.3 2.81-.01 2.19.78 3 2.27 3zm-4.76-1.34c0 1.46-.82 2.43-2.73 2.43-.92 0-1.78-.22-2.38-.65l.16-1.07c.58.44 1.47.68 2.21.68 1.13 0 1.6-.55 1.6-1.27 0-1.75-3.96-.94-3.96-3.55 0-1.31.92-2.17 2.7-2.17.75 0 1.47.16 2.09.44l-.1 1.04c-.65-.27-1.39-.42-2.01-.42-.92 0-1.51.4-1.51 1.04-.01 1.65 3.93.79 3.93 3.5zm-7.09-4.35c-1.21 0-2.18 1.03-2.18 2.69v3.93h-1.23v-7.7l.99-.06.1 1.66h.02c.48-1.12 1.33-1.77 2.38-1.77.29 0 .56.04.77.1l-.08 1.25c-.23-.07-.49-.1-.77-.1zm-3.09 12.55.96-.1v2.03h1.91v.96h-1.91v4.76c0 .81.43 1.13 1.13 1.13.22 0 .49-.04.65-.1l.08.94c-.23.12-.66.19-1.08.19-1.33 0-2.01-.74-2.01-2.12v-4.8h-1.08v-.96h1.12zm-7.02-9.63c.06 2.04.82 2.74 2.48 2.74.78 0 1.44-.17 2.11-.49l.14 1.04c-.65.35-1.46.57-2.39.57-2.55 0-3.6-1.34-3.6-4.24 0-2.43 1.07-3.8 3.2-3.8 1.85 0 3.06 1.09 3.06 3.57 0 .2-.01.43-.03.6h-4.97zm1.95-3.11c-1.31 0-1.9.73-1.98 2.26h3.89c-.03-1.64-.79-2.26-1.91-2.26zm-2.63 12.04c.53 0 .79.23.79.66 0 .46-.26.66-.79.66s-.79-.17-.79-.66c0-.43.26-.66.79-.66zm-6-5.23-3.47-9.75h1.48l2.46 7.48.31 1h.04l.3-1 2.47-7.48h1.4l-3.47 9.75zm3.53 7.11h-4.68v2.99h3.93l-.01 1.18h-3.91v4.32h-1.34v-9.75h5.99zm3.08 8.49h-1.24v-7.71l1.24-.07zm3.98 0h-1.24v-10.26l1.24-.08zm10.13-7.88c1.85 0 3.06 1.09 3.06 3.58 0 .19-.01.43-.03.6h-4.97c.06 2.04.82 2.74 2.48 2.74.78 0 1.44-.17 2.11-.49l.14 1.04c-.65.35-1.46.57-2.39.57-2.55 0-3.6-1.34-3.6-4.24 0-2.43 1.07-3.8 3.2-3.8zm1.92 3.33c-.03-1.64-.79-2.26-1.91-2.26-1.31 0-1.9.73-1.98 2.26zm3.93-1.55h.03c.48-1.12 1.33-1.77 2.38-1.77.29 0 .56.04.77.1l-.08 1.25c-.23-.08-.49-.1-.77-.1-1.21 0-2.18 1.03-2.18 2.69v3.93h-1.24v-7.7l.99-.06zm52.51-1.78c1.85 0 3.06 1.09 3.06 3.58 0 .19-.01.43-.03.6h-4.97c.06 2.04.82 2.74 2.48 2.74.78 0 1.44-.17 2.11-.49l.14 1.04c-.65.35-1.46.57-2.39.57-2.55 0-3.6-1.34-3.6-4.24 0-2.43 1.06-3.8 3.2-3.8zm1.92 3.33c-.03-1.64-.79-2.26-1.91-2.26-1.31 0-1.9.73-1.98 2.26z"/></g></svg>