<?xml version="1.0" encoding="utf-8"?>
<!-- Generator: Adobe Illustrator 26.0.3, SVG Export Plug-In . SVG Version: 6.00 Build 0)  -->
<svg version="1.1" id="Ebene_1" xmlns="http://www.w3.org/2000/svg" xmlns:xlink="http://www.w3.org/1999/xlink" x="0px" y="0px"
	 viewBox="0 0 728 90" style="enable-background:new 0 0 728 90;" xml:space="preserve">
<style type="text/css">
	.st0{opacity:0.5;}
</style>
<g class="st0">
	<path d="M164.37,65.1l0.03,0.09h6.87l-0.12,4.96h-13.83v-3.58c4.55-5.08,8.25-8.72,8.25-11.63c0-1.32-0.76-2.08-2.52-2.08
		c-1.67,0-3.2,0.76-4.64,1.79l-1.32-4.55c1.76-1.29,4.11-2.2,7.07-2.2c4.82,0,7.22,2.61,7.22,6.49
		C171.38,57.97,168.54,61.17,164.37,65.1z"/>
	<path d="M180.89,70.44c-2.35,0-4.55-0.5-6.37-1.53l0.94-4.34c1.61,0.79,2.94,1.2,4.81,1.2c2.35,0,2.97-0.91,2.97-2.82
		c0-1.73-0.94-2.35-2.94-2.35c-1.14,0-2.55,0.18-3.64,0.56l-1.82-2.11l0.79-10.92h11.98l0.21,4.87h-7.66l-0.2,3.26
		c0.68-0.12,1.38-0.18,2.17-0.18c4.26,0,6.72,2.14,6.72,6.43C188.85,67.45,186.44,70.44,180.89,70.44z"/>
	<path d="M198.68,70.44c-5.46,0-7.66-3.32-7.66-11.19c0-8.4,2.23-11.36,7.72-11.36c5.37,0,7.72,2.97,7.72,11.36
		C206.46,67.12,204.02,70.44,198.68,70.44z M198.74,52.8c-1.56,0-2.26,0.79-2.26,6.4c0,5.9,0.7,6.52,2.26,6.52
		c1.53,0,2.2-0.76,2.2-6.52C200.94,53.47,200.26,52.8,198.74,52.8z"/>
	<path d="M220.72,62.66h-4.55c0.65,2.47,2.14,3.26,4.32,3.26c1.03,0,2.06-0.29,2.99-0.65l0.38,4.14c-1.26,0.65-2.85,1-4.87,1
		c-4.87,0-7.81-2.5-8.69-7.75h-2.17l0.03-2.82h1.88v-1.06h-1.88l-0.03-2.91h2.17c0.94-4.84,4.11-7.84,8.95-7.84
		c1.94,0,3.4,0.29,4.64,0.76l-1.03,4.52c-0.68-0.23-1.44-0.38-2.32-0.38c-2.38,0-3.7,0.88-4.32,2.94h6.02l-0.62,2.91h-5.78v1.06
		h5.46L220.72,62.66z"/>
	<path d="M228.62,47.05l0.22,1.66l1.57-0.38l0.5,1.4l-1.52,0.74l0.87,1.45l-1.08,0.82l-1.27-1.23l-1.3,1.25l-1.11-0.79l0.84-1.51
		l-1.52-0.72l0.53-1.42l1.59,0.38l0.24-1.66H228.62z"/>
</g>
</svg>
