<?xml version="1.0" encoding="utf-8"?>
<!-- Generator: Adobe Illustrator 26.0.3, SVG Export Plug-In . SVG Version: 6.00 Build 0)  -->
<svg version="1.1" id="Ebene_1" xmlns="http://www.w3.org/2000/svg" xmlns:xlink="http://www.w3.org/1999/xlink" x="0px" y="0px"
	 viewBox="0 0 728 90" style="enable-background:new 0 0 728 90;" xml:space="preserve">
<style type="text/css">
	.st0{opacity:0.7;}
</style>
<g class="st0">
	<path d="M163.26,70.43c-2.41,0-4.58-0.65-6.11-1.53l0.97-4.35c1.59,0.79,3.14,1.2,4.91,1.2c2.03,0,3.03-0.85,3.03-2.41
		c0-1.44-0.79-2.53-4.73-2.53v-3.97c3.79,0,4.58-0.85,4.58-2.35c0-1.15-0.76-1.82-2.7-1.82c-1.91,0-3.55,0.65-4.94,1.76L157,50.03
		c1.65-1.29,4.08-2.17,6.64-2.17c4.76,0,7.52,2.35,7.52,6.26c0,2-0.91,3.59-2.64,4.55v0.06c1.97,0.85,3.06,2.44,3.06,4.76
		C171.58,67.72,168.96,70.43,163.26,70.43z"/>
	<path d="M181.42,70.43c-5.47,0-7.67-3.32-7.67-11.2c0-8.4,2.23-11.37,7.73-11.37c5.38,0,7.73,2.97,7.73,11.37
		C189.21,67.11,186.77,70.43,181.42,70.43z M181.48,52.77c-1.56,0-2.26,0.79-2.26,6.41c0,5.91,0.71,6.52,2.26,6.52
		c1.53,0,2.2-0.76,2.2-6.52C183.68,53.44,183,52.77,181.48,52.77z"/>
	<path d="M198.72,70.43c-5.47,0-7.67-3.32-7.67-11.2c0-8.4,2.23-11.37,7.73-11.37c5.38,0,7.73,2.97,7.73,11.37
		C206.51,67.11,204.07,70.43,198.72,70.43z M198.78,52.77c-1.56,0-2.26,0.79-2.26,6.41c0,5.91,0.71,6.52,2.26,6.52
		c1.53,0,2.2-0.76,2.2-6.52C200.99,53.44,200.31,52.77,198.78,52.77z"/>
	<path d="M220.79,62.64h-4.55c0.65,2.47,2.15,3.26,4.32,3.26c1.03,0,2.06-0.29,3-0.65l0.38,4.14c-1.26,0.65-2.85,1-4.88,1
		c-4.88,0-7.82-2.5-8.7-7.76h-2.17l0.03-2.82h1.88v-1.06h-1.88l-0.03-2.91h2.17c0.94-4.85,4.11-7.85,8.96-7.85
		c1.94,0,3.41,0.29,4.64,0.76l-1.03,4.53c-0.68-0.23-1.44-0.38-2.32-0.38c-2.38,0-3.7,0.88-4.32,2.94h6.02l-0.62,2.91h-5.79v1.06
		h5.47L220.79,62.64z"/>
	<path d="M228.7,47l0.22,1.66l1.58-0.38l0.5,1.4l-1.52,0.74l0.87,1.46l-1.08,0.82L228,51.47l-1.3,1.25l-1.11-0.79l0.84-1.51
		l-1.52-0.72l0.53-1.42l1.59,0.38l0.24-1.66H228.7z"/>
</g>
</svg>
