<?xml version="1.0" encoding="utf-8"?>
<!-- Generator: Adobe Illustrator 16.0.0, SVG Export Plug-In . SVG Version: 6.00 Build 0)  -->
<!DOCTYPE svg PUBLIC "-//W3C//DTD SVG 1.1//EN" "http://www.w3.org/Graphics/SVG/1.1/DTD/svg11.dtd">
<svg version="1.1" id="Ebene_1" xmlns="http://www.w3.org/2000/svg" xmlns:xlink="http://www.w3.org/1999/xlink" x="0px" y="0px"
	 width="347.7px" height="87.1px" viewBox="0 0 347.7 87.1" enable-background="new 0 0 347.7 87.1" xml:space="preserve">
<g>
	<g>
		<path fill="#1A1A18" d="M9.5,7.5c2.7,0,3.9,1.1,3.9,3.1c0,4.4-5.6,9.9-12.6,17.5v5.4h21.1l0.2-7.5H11.6l0-0.1
			C17.9,20,22.3,15.2,22.3,9.8c0-5.8-3.7-9.8-11-9.8C6.7,0,3.1,1.4,0.4,3.3l2,6.9C4.7,8.6,7,7.5,9.5,7.5z M39.7,0.4h-9v33.1h9V0.4z
			 M51.4,18.8l0-3.6l0.1,0l1.9,3l10,15.3h6.2V0.4h-7.7l0,13.6l0.1,3.5l-0.1,0L51.1,0.4h-7.4v33.1h7.7V18.8z M90,0.4H85l-9.7,6.1
			l0.9,6.7l5.1-2.8v17.2h-4v5.9H94v-5.9h-4V0.4z M103.3,16.8c3.1,0,4.5-1.7,4.5-4.2c0-2.7-1.3-4.2-4.5-4.2c-3.1,0-4.5,1.5-4.5,4.2
			C98.7,15.6,100.1,16.8,103.3,16.8z M103.3,34c3.1,0,4.5-1.7,4.5-4.2c0-2.7-1.3-4.2-4.5-4.2c-3.1,0-4.5,1.5-4.5,4.2
			C98.7,32.8,100.1,34,103.3,34z M130.3,20h2.2l6.3,13.5H149l-8.5-17.3l8.1-15.9h-9.8l-6.2,12.8h-2.3V0.4h-8.7v33.1h8.7V20z
			 M173.3,26h-13.1v-6h10.3v-6.9h-10.3V8h12.5l-0.2-7.6h-21.1v33.1h21.7L173.3,26z M193.6,12.8h-8.2V0.4h-8.7v33.1h8.7v-13h8.2v13
			h8.8V0.4h-8.8V12.8z M231.2,11c0-7.5-4.2-10.7-12.7-10.7h-11.6v33.1h8.7V21.7h3l4.5,11.8h10.1l-6.5-13.6
			C229.6,18.7,231.2,15.4,231.2,11z M218.6,15.2h-3V7.5h3c2.6,0,3.4,0.8,3.4,3.8C222.1,14.5,221.2,15.2,218.6,15.2z M244.1,20h10.3
			v-6.9h-10.3V8h12.5l-0.2-7.6h-21.1v33.1h21.7l0.2-7.5h-13.1V20z M278.7,14l0.1,3.5l-0.1,0L267.9,0.4h-7.4v33.1h7.7V18.8l0-3.6
			l0.1,0l1.9,3l10,15.3h6.2V0.4h-7.7L278.7,14z M17,75.1c0,3-1,4.3-4.1,4.3c-3,0-4.2-1.3-4.2-4.3V53.4H0v21.9C0,83,4.3,87.1,13,87.1
			c8.6,0,12.8-4.1,12.8-11.8V53.4H17V75.1z M48.2,67l0.1,3.5l-0.1,0L37.4,53.4H30v33.1h7.7V71.8l0-3.6l0.1,0l1.9,3l10,15.3h6.2V53.4
			h-7.7L48.2,67z M72.5,53.4h-12v33.1h12.1c9.5,0,14.2-4.6,14.2-16.8C86.9,58.1,82.7,53.4,72.5,53.4z M72.5,79h-3.3V61h3.3
			c3.9,0,5.2,1.3,5.2,8.7C77.7,77.8,76.4,79,72.5,79z M108.1,62.8c0-1.4,0.7-2.4,4-2.4c2.2,0,4.7,0.4,7.3,1.2l1-7.2
			c-2.4-1-5.7-1.6-8.8-1.6c-8.3,0-11.9,4.6-11.9,10.4c0,10.8,13.4,9.5,13.4,13.7c0,1.8-1.1,2.7-3.9,2.7c-2.9,0-5.7-0.8-8.4-2.2
			l-1.1,7.3c2.7,1.5,6.2,2.3,9.8,2.3c7.6,0,12.1-4.1,12.1-10.6C121.5,65.7,108.1,67.1,108.1,62.8z M139.3,79.6c-5,0-6.4-2.1-6.4-9.8
			c0-7.2,1.3-9.3,6.2-9.3c2.1,0,4.1,0.4,5.6,0.9l0.9-7.3c-1.8-0.7-4.7-1.2-7.1-1.2c-10.3,0-14.8,5.8-14.8,17
			c0,11.9,4.7,17.3,14.3,17.3c2.6,0,5.6-0.6,7.7-1.6l-0.8-7C143.3,79.2,141.3,79.6,139.3,79.6z M165.8,65.8h-8.2V53.4h-8.7v33.1h8.7
			v-13h8.2v13h8.8V53.4h-8.8V65.8z M187.8,73.1h10.3v-6.9h-10.3V61h12.5l-0.2-7.6h-21.1v33.1h21.7l0.2-7.5h-13.1V73.1z M221,75.1
			c0,3-1,4.3-4.1,4.3c-3,0-4.2-1.3-4.2-4.3V53.4h-8.8v21.9c0,7.8,4.3,11.8,13,11.8c8.6,0,12.8-4.1,12.8-11.8V53.4H221V75.1z
			 M242.7,73.1H253v-6.9h-10.3V61h12.5l-0.2-7.6H234v33.1h21.7l0.2-7.5h-13.1V73.1z M283.5,64c0-7.5-4.2-10.7-12.7-10.7h-11.6v33.1
			h8.7V74.7h3l4.5,11.8h10.1L278.9,73C281.9,71.7,283.5,68.5,283.5,64z M270.9,68.2h-3v-7.6h3c2.6,0,3.4,0.8,3.4,3.8
			C274.4,67.6,273.5,68.2,270.9,68.2z M305.8,67l0.1,3.5l-0.1,0L295,53.4h-7.4v33.1h7.7V71.8l0-3.6l0.1,0l1.9,3l10,15.3h6.2V53.4
			h-7.7L305.8,67z M321.7,78.6c-3.1,0-4.5,1.5-4.5,4.2c0,3,1.4,4.2,4.5,4.2s4.5-1.7,4.5-4.2C326.2,80.2,324.9,78.6,321.7,78.6z
			 M343.2,78.6c-3.1,0-4.5,1.5-4.5,4.2c0,3,1.4,4.2,4.5,4.2c3.1,0,4.5-1.7,4.5-4.2C347.7,80.2,346.3,78.6,343.2,78.6z M332.6,78.6
			c-3.1,0-4.5,1.5-4.5,4.2c0,3,1.4,4.2,4.5,4.2c3.1,0,4.5-1.7,4.5-4.2C337.1,80.2,335.7,78.6,332.6,78.6z"/>
	</g>
</g>
</svg>
