<?xml version="1.0" encoding="utf-8"?>
<!-- Generator: Adobe Illustrator 23.1.1, SVG Export Plug-In . SVG Version: 6.00 Build 0)  -->
<!DOCTYPE svg PUBLIC "-//W3C//DTD SVG 1.1//EN" "http://www.w3.org/Graphics/SVG/1.1/DTD/svg11.dtd" [
	<!ENTITY ns_extend "http://ns.adobe.com/Extensibility/1.0/">
	<!ENTITY ns_ai "http://ns.adobe.com/AdobeIllustrator/10.0/">
	<!ENTITY ns_graphs "http://ns.adobe.com/Graphs/1.0/">
	<!ENTITY ns_vars "http://ns.adobe.com/Variables/1.0/">
	<!ENTITY ns_imrep "http://ns.adobe.com/ImageReplacement/1.0/">
	<!ENTITY ns_sfw "http://ns.adobe.com/SaveForWeb/1.0/">
	<!ENTITY ns_custom "http://ns.adobe.com/GenericCustomNamespace/1.0/">
	<!ENTITY ns_adobe_xpath "http://ns.adobe.com/XPath/1.0/">
]>
<svg version="1.1" id="Ebene_1" xmlns:x="&ns_extend;" xmlns:i="&ns_ai;" xmlns:graph="&ns_graphs;"
	 xmlns="http://www.w3.org/2000/svg" xmlns:xlink="http://www.w3.org/1999/xlink" x="0px" y="0px" viewBox="0 0 235.44 75.82"
	 style="enable-background:new 0 0 235.44 75.82;" xml:space="preserve">
<style type="text/css">
	.st0{fill-rule:evenodd;clip-rule:evenodd;}
</style>
<metadata>
	<sfw  xmlns="&ns_sfw;">
		<slices></slices>
		<sliceSourceBounds  bottomLeftOrigin="true" height="55.9" width="215.54" x="10.64" y="9.21"></sliceSourceBounds>
	</sfw>
</metadata>
<path class="st0" d="M217.86,26.01v-3.84h8.32v3.84H217.86z M209.43,26.48H204v8.69h-5.81V13.01H204v8.3h5.43v-8.3h5.84v22.16h-5.84
	V26.48z M191.33,35.17h-5.93V18.18h-5.07l0.12-5.17h15.83l0.12,5.17h-5.07V35.17z M175.6,35.17l-0.86-3.87h-6.08l-0.86,3.87h-6.17
	l6.62-22.16h7.12l6.74,22.16H175.6z M172.23,20.13l-0.45-2.36h-0.09l-0.51,2.36l-1.43,6.35h3.9L172.23,20.13z M160.97,30.18
	l-0.12,4.99h-14.4V13.01h14.01l0.12,5.08h-8.32v3.43h6.85v4.64h-6.85v4.02H160.97z M142.13,68.52c-2.09,0-3.01-0.8-3.01-2.81
	c0-1.8,0.92-2.84,3.01-2.84s2.98,1.03,2.98,2.84C145.11,67.4,144.21,68.52,142.13,68.52z M138.26,35.17l-2.98-7.92h-1.97v7.92h-5.81
	V13.01h7.72c5.66,0,8.46,2.13,8.46,7.12c0,2.95-1.07,5.14-3.04,5.97l4.35,9.07H138.26z M135.33,17.79h-2.03v5.11h2
	c1.7,0,2.3-0.41,2.3-2.57C137.6,18.33,137.03,17.79,135.33,17.79z M125.17,28.64c0,3.99-2.41,6.53-7.99,6.53h-8.7V13.01h8.76
	c4.8,0,7.24,2.22,7.24,5.73c0,2.33-1.07,3.84-2.74,4.64v0.06C123.98,24.18,125.17,25.89,125.17,28.64z M117.01,17.85h-2.89v3.9h2.95
	c1.34,0,1.82-0.5,1.82-2.01C118.88,18.3,118.38,17.85,117.01,17.85z M117.15,26.07h-3.04v4.37h3.16c1.46,0,2-0.47,2-2.22
	C119.27,26.69,118.79,26.07,117.15,26.07z M116.11,45.62c1.58,0,3.52,0.35,4.71,0.83l-0.57,4.91c-0.98-0.35-2.33-0.59-3.73-0.59
	c-3.31,0-4.14,1.39-4.14,6.23c0,5.11,0.92,6.53,4.23,6.53c1.37,0,2.65-0.27,3.7-0.74l0.54,4.7c-1.34,0.65-3.37,1.06-5.1,1.06
	c-6.38,0-9.48-3.6-9.48-11.58C106.28,49.52,109.29,45.62,116.11,45.62z M97.54,22.17h8.32v3.84h-8.32V22.17z M97.81,35.17h-6.86
	l-4.2-9.01h-1.43v9.01h-5.81V13.01h5.81v8.57h1.55l4.14-8.57h6.53l-5.37,10.61L97.81,35.17z M78.62,68.17l-0.86-3.87h-6.08
	l-0.86,3.87h-6.17l6.62-22.16h7.12l6.74,22.16H78.62z M75.25,53.13l-0.45-2.36h-0.09l-0.51,2.36l-1.43,6.35h3.9L75.25,53.13z
	 M71.32,35.17l-2.98-7.92h-1.97v7.92h-5.81V13.01h7.72c5.66,0,8.47,2.13,8.47,7.12c0,2.95-1.07,5.14-3.04,5.97l4.35,9.07H71.32z
	 M68.4,17.79h-2.03v5.11h2c1.7,0,2.3-0.41,2.3-2.57C70.66,18.33,70.1,17.79,68.4,17.79z M48.76,35.55c-6.44,0-9.36-3.37-9.36-11.46
	c0-8.13,2.8-11.44,9.36-11.44s9.36,3.31,9.36,11.44C58.12,32.42,55.31,35.55,48.76,35.55z M48.73,17.82c-2.44,0-3.22,1-3.22,6.26
	c0,5.29,0.8,6.35,3.28,6.35c2.47,0,3.22-1.09,3.22-6.35C52.01,18.8,51.26,17.82,48.73,17.82z M27.15,35.17l-2.09-13.44l-0.3-2.39
	h-0.09l-0.33,2.39l-2.06,13.44h-6.97l-4.68-22.16h6.08l1.97,13.98l0.3,2.36h0.09l0.33-2.36l2.33-13.98h6.2l2.36,13.86l0.36,2.36
	h0.09l0.27-2.36l2-13.86h5.81l-4.68,22.16H27.15z M27.87,51.74c0,2.33-1.07,3.84-2.74,4.64v0.06c2.23,0.74,3.43,2.45,3.43,5.2
	c0,3.99-2.41,6.53-7.99,6.53h-8.7V46.01h8.76C25.42,46.01,27.87,48.22,27.87,51.74z M17.49,63.44h3.16c1.46,0,2-0.47,2-2.22
	c0-1.54-0.48-2.16-2.12-2.16h-3.04V63.44z M17.49,50.85v3.9h2.95c1.34,0,1.82-0.5,1.82-2.01c0-1.45-0.51-1.89-1.88-1.89H17.49z
	 M42.62,46.01l6.74,22.16h-6.5l-0.86-3.87h-6.08l-0.86,3.87h-6.17l6.62-22.16H42.62z M40.92,59.48l-1.43-6.35l-0.45-2.36h-0.09
	l-0.51,2.36l-1.43,6.35H40.92z M56.71,63.03h7.6l-0.15,5.14H50.84V46.01h5.87V63.03z M98.68,57.5l0.06-0.03l-0.06-2.36l0.03-9.1
	h5.13v22.16h-4.14l-6.68-10.22l-1.25-2.04l-0.06,0.03l0.03,2.39v9.84h-5.13V46.01h4.89L98.68,57.5z M137.12,51.09h-8.32v3.43h6.86
	v4.64h-6.86v4.02h8.7l-0.12,4.99h-14.4V46.01H137L137.12,51.09z"/>
</svg>
