<?xml version="1.0" encoding="utf-8"?>
<!-- Generator: Adobe Illustrator 16.0.4, SVG Export Plug-In . SVG Version: 6.00 Build 0)  -->
<!DOCTYPE svg PUBLIC "-//W3C//DTD SVG 1.1//EN" "http://www.w3.org/Graphics/SVG/1.1/DTD/svg11.dtd">
<svg version="1.1" id="Ebene_1" xmlns="http://www.w3.org/2000/svg" xmlns:xlink="http://www.w3.org/1999/xlink" x="0px" y="0px"
	 width="248.782px" height="142.989px" viewBox="0 0 248.782 142.989" enable-background="new 0 0 248.782 142.989"
	 xml:space="preserve">
<g>
	<path d="M22.037,0l3.002,17.819l0.456,3.039h0.114l0.342-3.039L28.496,0h7.409l-5.965,28.495h-8.891l-2.66-17.287l-0.38-3.077
		h-0.114l-0.418,3.077l-2.622,17.287H5.965L0,0h7.751l2.508,17.972l0.38,3.039h0.114l0.418-3.039L14.134,0H22.037z"/>
	<path d="M56.731,22.075l-0.152,6.42H38.228V0h17.857l0.152,6.534H45.637v4.408h8.739v5.965h-8.739v5.168H56.731z"/>
	<path d="M76.263,28.495L67.752,15.35l-1.596-2.622l-0.076,0.039l0.038,3.076v12.652h-6.535V0h6.231l9.157,14.78l0.076-0.039
		l-0.076-3.039L75.009,0h6.535v28.495H76.263z"/>
	<path d="M102.103,28.495L93.592,15.35l-1.596-2.622l-0.076,0.039l0.038,3.076v12.652h-6.535V0h6.231l9.157,14.78l0.076-0.039
		l-0.076-3.039L100.849,0h6.535v28.495H102.103z"/>
	<path d="M9.005,66.989c-3.002,0-5.965-0.684-8.283-1.976l0.95-6.308c2.317,1.179,4.673,1.9,7.143,1.9
		c2.355,0,3.267-0.798,3.267-2.317c0-3.647-11.322-2.508-11.322-11.816c0-4.978,3.04-8.929,10.069-8.929
		c2.622,0,5.433,0.494,7.485,1.367l-0.836,6.193c-2.166-0.646-4.332-1.025-6.155-1.025c-2.812,0-3.419,0.836-3.419,2.052
		c0,3.685,11.322,2.432,11.322,11.74C19.225,63.494,15.426,66.989,9.005,66.989z"/>
	<path d="M35.87,61.519h-7.751l-1.102,4.977h-7.865L27.587,38h9.081l8.587,28.495h-8.283L35.87,61.519z M31.348,47.156l-1.824,8.169
		h4.978l-1.824-8.169l-0.57-3.04h-0.114L31.348,47.156z"/>
	<path d="M67.561,56.808c0,6.687-3.571,10.182-10.866,10.182s-10.98-3.495-10.98-10.182V38h7.447v18.655
		c0,2.545,0.988,3.686,3.534,3.686c2.583,0,3.457-1.064,3.457-3.686V38h7.409V56.808z"/>
	<path d="M82.268,66.495H71.173V38h11.17c6.117,0,9.233,2.85,9.233,7.37c0,3.002-1.368,4.939-3.496,5.966v0.075
		c2.85,0.951,4.369,3.154,4.369,6.688C92.45,63.228,89.373,66.495,82.268,66.495z M82.04,44.231h-3.686v5.015h3.761
		c1.71,0,2.318-0.646,2.318-2.583C84.434,44.801,83.788,44.231,82.04,44.231z M82.23,54.794h-3.875v5.623h4.027
		c1.862,0,2.546-0.608,2.546-2.85C84.928,55.591,84.32,54.794,82.23,54.794z"/>
	<path d="M113.92,60.075l-0.152,6.42H95.417V38h17.857l0.152,6.534h-10.601v4.408h8.739v5.965h-8.739v5.168H113.92z"/>
	<path d="M133.529,54.831l5.547,11.664h-8.586l-3.8-10.182h-2.507v10.182h-7.409V38h9.841c7.219,0,10.791,2.735,10.791,9.156
		C137.404,50.956,136.036,53.768,133.529,54.831z M126.766,44.155h-2.583v6.572h2.545c2.166,0,2.926-0.531,2.926-3.305
		C129.653,44.839,128.931,44.155,126.766,44.155z"/>
	<path d="M155.53,66.495l-5.357-11.588h-1.824v11.588h-7.409V38h7.409v11.019h1.976L155.606,38h8.321l-6.839,13.64l7.181,14.855
		H155.53z"/>
	<path d="M184.866,60.075l-0.152,6.42h-18.352V38h17.857l0.152,6.534h-10.601v4.408h8.739v5.965h-8.739v5.168H184.866z"/>
	<path d="M188.022,38h7.637v28.495h-7.637V38z"/>
	<path d="M212.264,44.649v21.846h-7.561V44.649h-6.459L198.396,38h20.175l0.152,6.649H212.264z"/>
	<path d="M11.322,95.644H8.967v8.852H1.558V76h9.765c7.903,0,11.057,3.077,11.057,10.03C22.379,92.186,19.301,95.644,11.322,95.644z
		 M11.322,82.192H8.967v7.562h2.355c2.432,0,3.344-0.569,3.344-3.762C14.666,82.915,13.944,82.192,11.322,82.192z"/>
	<path d="M41.835,92.831l5.547,11.664h-8.586l-3.799-10.182h-2.508v10.182h-7.409V76h9.841c7.219,0,10.791,2.735,10.791,9.156
		C45.71,88.956,44.342,91.768,41.835,92.831z M35.072,82.155h-2.583v6.572h2.545c2.166,0,2.926-0.531,2.926-3.305
		C37.959,82.839,37.237,82.155,35.072,82.155z"/>
	<path d="M59.847,104.989c-8.207,0-11.93-4.331-11.93-14.742c0-10.447,3.572-14.703,11.93-14.703c8.359,0,11.93,4.256,11.93,14.703
		C71.777,100.962,68.206,104.989,59.847,104.989z M59.81,82.192c-3.116,0-4.104,1.293-4.104,8.055c0,6.802,1.026,8.17,4.179,8.17
		c3.154,0,4.104-1.406,4.104-8.17C63.989,83.446,63.039,82.192,59.81,82.192z"/>
	<path d="M73.491,104.495v-4.824l9.081-14.438l1.671-2.508l-0.038-0.075H73.719L73.909,76h19.036v5.319l-8.777,13.981l-1.672,2.47
		l0.038,0.114H93.02l-0.114,6.61H73.491z"/>
	<path d="M114.49,98.075l-0.152,6.42H95.986V76h17.857l0.152,6.534h-10.601v4.408h8.739v5.965h-8.739v5.168H114.49z"/>
	<path d="M124.79,104.989c-3.001,0-5.965-0.684-8.283-1.976l0.95-6.308c2.317,1.179,4.673,1.9,7.143,1.9
		c2.355,0,3.268-0.798,3.268-2.317c0-3.647-11.323-2.508-11.323-11.816c0-4.978,3.04-8.929,10.069-8.929
		c2.622,0,5.433,0.494,7.485,1.367l-0.836,6.193c-2.166-0.646-4.332-1.025-6.155-1.025c-2.812,0-3.419,0.836-3.419,2.052
		c0,3.685,11.322,2.432,11.322,11.74C135.01,101.494,131.21,104.989,124.79,104.989z"/>
	<path d="M144.625,104.989c-3.001,0-5.965-0.684-8.283-1.976l0.95-6.308c2.317,1.179,4.673,1.9,7.143,1.9
		c2.355,0,3.268-0.798,3.268-2.317c0-3.647-11.323-2.508-11.323-11.816c0-4.978,3.04-8.929,10.069-8.929
		c2.622,0,5.433,0.494,7.485,1.367l-0.836,6.193c-2.166-0.646-4.332-1.025-6.155-1.025c-2.812,0-3.419,0.836-3.419,2.052
		c0,3.685,11.322,2.432,11.322,11.74C154.846,101.494,151.046,104.989,144.625,104.989z"/>
	<path d="M167.577,87.778v4.939h-10.601v-4.939H167.577z"/>
	<path d="M18.313,130.831l5.547,11.664h-8.586l-3.799-10.182H8.967v10.182H1.558V114h9.841c7.219,0,10.791,2.735,10.791,9.156
		C22.189,126.956,20.821,129.768,18.313,130.831z M11.55,120.155H8.967v6.572h2.545c2.166,0,2.926-0.531,2.926-3.305
		C14.438,120.839,13.716,120.155,11.55,120.155z"/>
	<path d="M44.229,136.075l-0.152,6.42H25.725V114h17.857l0.152,6.534H33.134v4.408h8.739v5.965h-8.739v5.168H44.229z"/>
	<path d="M64.255,135.885l-0.19,6.61H47.081V114h7.485v21.885H64.255z"/>
	<path d="M85.192,136.075l-0.152,6.42H66.688V114h17.857l0.152,6.534H74.098v4.408h8.739v5.965h-8.739v5.168H85.192z"/>
	<path d="M111.297,114l-8.435,28.495H94.39L85.993,114h8.168l3.99,17.781l0.646,3.001h0.114l0.608-3.001L103.623,114H111.297z"/>
	<path d="M125.396,137.519h-7.751l-1.102,4.977h-7.865L117.114,114h9.081l8.587,28.495h-8.283L125.396,137.519z M120.875,123.156
		l-1.824,8.169h4.978l-1.824-8.169l-0.57-3.04h-0.114L120.875,123.156z"/>
	<path d="M153.364,142.495l-8.511-13.146l-1.596-2.622l-0.076,0.039l0.038,3.076v12.652h-6.535V114h6.231l9.157,14.78l0.076-0.039
		l-0.076-3.039L152.11,114h6.535v28.495H153.364z"/>
	<path d="M174.948,120.649v21.846h-7.561v-21.846h-6.459l0.152-6.649h20.175l0.152,6.649H174.948z"/>
	<path d="M192.543,114h7.637v28.495h-7.637V114z"/>
	<path d="M211.808,142.989c-3.001,0-5.965-0.684-8.283-1.976l0.95-6.308c2.317,1.179,4.673,1.9,7.143,1.9
		c2.355,0,3.268-0.798,3.268-2.317c0-3.647-11.323-2.508-11.323-11.816c0-4.978,3.04-8.929,10.069-8.929
		c2.622,0,5.433,0.494,7.485,1.367l-0.836,6.193c-2.166-0.646-4.332-1.025-6.155-1.025c-2.812,0-3.419,0.836-3.419,2.052
		c0,3.685,11.322,2.432,11.322,11.74C222.028,139.494,218.229,142.989,211.808,142.989z"/>
	<path d="M236.507,120.649v21.846h-7.561v-21.846h-6.459l0.152-6.649h20.174l0.152,6.649H236.507z"/>
	<path d="M244.983,142.952c-2.66,0-3.838-1.026-3.838-3.609c0-2.318,1.178-3.648,3.838-3.648c2.659,0,3.799,1.33,3.799,3.648
		C248.782,141.508,247.643,142.952,244.983,142.952z"/>
</g>
</svg>
