<?xml version="1.0" encoding="utf-8"?>
<!-- Generator: Adobe Illustrator 16.0.4, SVG Export Plug-In . SVG Version: 6.00 Build 0)  -->
<!DOCTYPE svg PUBLIC "-//W3C//DTD SVG 1.1//EN" "http://www.w3.org/Graphics/SVG/1.1/DTD/svg11.dtd">
<svg version="1.1" id="Ebene_1" xmlns="http://www.w3.org/2000/svg" xmlns:xlink="http://www.w3.org/1999/xlink" x="0px" y="0px"
	 width="155.698px" height="113.25px" viewBox="0 0 155.698 113.25" enable-background="new 0 0 155.698 113.25"
	 xml:space="preserve">
<g>
	<path d="M0.9,0.36H6.93v22.499H0.9V0.36z"/>
	<path d="M23.398,22.859L16.68,12.479l-1.26-2.07l-0.061,0.03l0.03,2.43v9.99h-5.16V0.36h4.92l7.229,11.669L22.439,12l-0.061-2.4
		l0.03-9.24h5.159v22.499H23.398z"/>
	<path d="M38.76,22.859h-8.131V0.36h8.01c6.84,0,9.631,3.18,9.631,11.129C48.27,19.739,45.089,22.859,38.76,22.859z M38.67,5.55
		h-2.19v12.179h2.19c2.579,0,3.449-0.78,3.449-6.3C42.119,6.45,41.309,5.55,38.67,5.55z"/>
	<path d="M67.77,15.209c0,5.28-2.82,8.04-8.58,8.04s-8.67-2.76-8.67-8.04V0.36h5.88v14.729c0,2.01,0.78,2.91,2.79,2.91
		c2.039,0,2.73-0.84,2.73-2.91V0.36h5.85V15.209z"/>
	<path d="M76.289,23.249c-2.369,0-4.709-0.54-6.539-1.56l0.75-4.98c1.83,0.93,3.689,1.5,5.64,1.5c1.86,0,2.579-0.63,2.579-1.83
		c0-2.88-8.939-1.98-8.939-9.33c0-3.93,2.4-7.049,7.95-7.049c2.069,0,4.29,0.39,5.909,1.08l-0.659,4.89
		c-1.71-0.51-3.42-0.81-4.86-0.81c-2.22,0-2.699,0.66-2.699,1.62c0,2.91,8.939,1.92,8.939,9.27
		C84.359,20.489,81.359,23.249,76.289,23.249z"/>
	<path d="M95.789,5.609v17.25h-5.97V5.609h-5.1l0.12-5.25h15.93l0.119,5.25H95.789z"/>
	<path d="M115.919,13.649l4.38,9.209h-6.779l-3-8.04h-1.98v8.04h-5.85V0.36h7.77c5.7,0,8.52,2.16,8.52,7.229
		C118.979,10.589,117.898,12.809,115.919,13.649z M110.579,5.22h-2.04v5.189h2.01c1.711,0,2.311-0.42,2.311-2.61
		C112.859,5.76,112.289,5.22,110.579,5.22z"/>
	<path d="M122.01,0.36h6.029v22.499h-6.029V0.36z"/>
	<path d="M145.947,17.789l-0.119,5.07h-14.49V0.36h14.1l0.121,5.16h-8.37V9h6.899v4.71h-6.899v4.08H145.947z"/>
	<path d="M155.698,9.66v3.899h-8.37V9.66H155.698z"/>
	<path d="M6.54,53.249c-2.37,0-4.71-0.54-6.54-1.56l0.75-4.98c1.83,0.93,3.689,1.5,5.641,1.5c1.859,0,2.58-0.63,2.58-1.83
		c0-2.88-8.94-1.98-8.94-9.33C0.03,33.12,2.43,30,7.98,30c2.069,0,4.289,0.39,5.909,1.08l-0.659,4.89
		c-1.711-0.51-3.42-0.81-4.86-0.81c-2.22,0-2.7,0.66-2.7,1.62c0,2.91,8.939,1.92,8.939,9.27
		C14.609,50.489,11.609,53.249,6.54,53.249z"/>
	<path d="M27.75,48.929h-6.12l-0.87,3.93h-6.209L21.21,30.36h7.17l6.78,22.499h-6.541L27.75,48.929z M24.18,37.589l-1.439,6.45h3.93
		l-1.439-6.45l-0.451-2.4h-0.09L24.18,37.589z"/>
	<path d="M52.77,45.209c0,5.28-2.82,8.04-8.58,8.04s-8.67-2.76-8.67-8.04V30.36H41.4v14.729c0,2.01,0.779,2.91,2.789,2.91
		c2.04,0,2.73-0.84,2.73-2.91V30.36h5.85V45.209z"/>
	<path d="M71.52,52.049c-1.561,0.75-4.11,1.23-6.42,1.23c-7.439,0-10.08-3.99-10.08-11.669c0-7.86,3.09-11.64,10.35-11.64
		c1.98,0,4.23,0.36,5.85,0.99l-0.539,5.01c-1.471-0.54-3.36-0.87-4.98-0.87c-3.689,0-4.529,1.38-4.529,6.45
		c0,5.34,0.869,6.51,3.779,6.51c0.45,0,0.93-0.03,1.35-0.12v-7.35h5.221V52.049z"/>
	<path d="M88.799,47.789l-0.119,5.07h-14.49V30.36h14.1l0.12,5.16h-8.37V39h6.9v4.71h-6.9v4.08H88.799z"/>
	<path d="M104.279,43.649l4.379,9.209h-6.779l-3-8.04h-1.979v8.04h-5.851V30.36h7.771c5.7,0,8.52,2.16,8.52,7.229
		C107.339,40.589,106.259,42.809,104.279,43.649z M98.939,35.22h-2.04v5.189h2.01c1.71,0,2.31-0.42,2.31-2.61
		C101.219,35.76,100.648,35.22,98.939,35.22z"/>
	<path d="M6.54,65.609v3.96h6.87l-0.03,4.98H6.54v8.31H0.66V60.36h14.07l0.09,5.25H6.54z"/>
	<path d="M33.84,75.209c0,5.28-2.82,8.04-8.58,8.04s-8.67-2.76-8.67-8.04V60.36h5.88v14.729c0,2.01,0.78,2.91,2.79,2.91
		c2.039,0,2.73-0.84,2.73-2.91V60.36h5.85V75.209z M22.41,59.28c-1.471,0-2.221-0.57-2.221-2.01c0-1.35,0.75-2.07,2.221-2.07
		c1.529,0,2.219,0.72,2.219,2.07C24.629,58.59,23.939,59.28,22.41,59.28z M28.14,59.28c-1.47,0-2.22-0.57-2.22-2.01
		c0-1.35,0.75-2.07,2.22-2.07c1.53,0,2.22,0.72,2.22,2.07C30.359,58.59,29.67,59.28,28.14,59.28z"/>
	<path d="M49.919,73.649l4.38,9.209H47.52l-3-8.04h-1.98v8.04h-5.85V60.36h7.77c5.7,0,8.52,2.16,8.52,7.229
		C52.979,70.589,51.898,72.809,49.919,73.649z M44.579,65.22h-2.04v5.189h2.01c1.711,0,2.311-0.42,2.311-2.61
		C46.859,65.76,46.289,65.22,44.579,65.22z"/>
	<path d="M74.488,74.609c0,6.6-3.359,8.669-8.64,8.669c-1.681,0-3.03-0.3-4.11-0.78l0.301-4.89c0.629,0.33,1.619,0.54,2.789,0.54
		c2.461,0,3.66-0.96,3.66-3.66V60.36h6V74.609z"/>
	<path d="M92.158,77.789l-0.12,5.07H77.549V60.36h14.1l0.119,5.16h-8.369V69h6.899v4.71h-6.899v4.08H92.158z"/>
	<path d="M102.538,82.859h-8.13V60.36h8.01c6.84,0,9.63,3.18,9.63,11.129C112.048,79.739,108.867,82.859,102.538,82.859z
		 M102.448,65.55h-2.19v12.179h2.19c2.579,0,3.45-0.78,3.45-6.3C105.898,66.45,105.088,65.55,102.448,65.55z"/>
	<path d="M129.117,77.789l-0.119,5.07h-14.49V60.36h14.1l0.121,5.16h-8.37V69h6.899v4.71h-6.899v4.08H129.117z"/>
	<path d="M9.42,112.859H0.66V90.36h8.82c4.829,0,7.289,2.25,7.289,5.82c0,2.37-1.08,3.9-2.76,4.709v0.06
		c2.25,0.75,3.449,2.49,3.449,5.28C17.459,110.279,15.029,112.859,9.42,112.859z M9.24,95.28H6.33v3.959H9.3
		c1.351,0,1.83-0.51,1.83-2.04C11.13,95.729,10.62,95.28,9.24,95.28z M9.391,103.619H6.33v4.44h3.18c1.471,0,2.01-0.479,2.01-2.25
		C11.52,104.25,11.04,103.619,9.391,103.619z"/>
	<path d="M33.029,103.65l4.38,9.209h-6.78l-3-8.039H25.65v8.039H19.8V90.36h7.771c5.699,0,8.52,2.16,8.52,7.229
		C36.09,100.589,35.01,102.809,33.029,103.65z M27.689,95.22H25.65v5.189h2.01c1.709,0,2.31-0.42,2.31-2.61
		C29.97,95.76,29.399,95.22,27.689,95.22z"/>
	<path d="M50.489,108.929h-6.12l-0.869,3.93h-6.211l6.66-22.499h7.17l6.779,22.499h-6.539L50.489,108.929z M46.92,97.589
		l-1.44,6.449h3.93l-1.44-6.449l-0.449-2.4h-0.09L46.92,97.589z"/>
	<path d="M72.568,112.859l-6.72-10.379l-1.26-2.071l-0.06,0.03l0.029,2.429v9.99h-5.16V90.36h4.92l7.23,11.669l0.06-0.029l-0.06-2.4
		l0.029-9.24h5.16v22.499H72.568z"/>
	<path d="M93.269,95.79c-0.99-0.36-2.34-0.6-3.75-0.6c-3.329,0-4.17,1.41-4.17,6.33c0,5.189,0.931,6.63,4.26,6.63
		c1.38,0,2.67-0.271,3.72-0.75l0.541,4.771c-1.351,0.66-3.391,1.08-5.131,1.08c-6.42,0-9.539-3.66-9.539-11.76
		c0-7.56,3.029-11.52,9.899-11.52c1.59,0,3.54,0.36,4.739,0.84L93.269,95.79z"/>
	<path d="M107.338,112.859v-8.82h-5.459v8.82h-5.851V90.36h5.851v8.43h5.459v-8.43h5.88v22.499H107.338z"/>
	<path d="M130.857,107.789l-0.119,5.07h-14.49V90.36h14.1l0.12,5.16h-8.37V99h6.9v4.71h-6.9v4.079H130.857z"/>
	<path d="M135.508,113.218c-2.1,0-3.029-0.81-3.029-2.85c0-1.83,0.93-2.879,3.029-2.879s3,1.049,3,2.879
		C138.508,112.08,137.607,113.218,135.508,113.218z"/>
</g>
</svg>
