<?xml version="1.0" encoding="utf-8"?>
<!-- Generator: Adobe Illustrator 23.1.1, SVG Export Plug-In . SVG Version: 6.00 Build 0)  -->
<!DOCTYPE svg PUBLIC "-//W3C//DTD SVG 1.1//EN" "http://www.w3.org/Graphics/SVG/1.1/DTD/svg11.dtd" [
	<!ENTITY ns_extend "http://ns.adobe.com/Extensibility/1.0/">
	<!ENTITY ns_ai "http://ns.adobe.com/AdobeIllustrator/10.0/">
	<!ENTITY ns_graphs "http://ns.adobe.com/Graphs/1.0/">
	<!ENTITY ns_vars "http://ns.adobe.com/Variables/1.0/">
	<!ENTITY ns_imrep "http://ns.adobe.com/ImageReplacement/1.0/">
	<!ENTITY ns_sfw "http://ns.adobe.com/SaveForWeb/1.0/">
	<!ENTITY ns_custom "http://ns.adobe.com/GenericCustomNamespace/1.0/">
	<!ENTITY ns_adobe_xpath "http://ns.adobe.com/XPath/1.0/">
]>
<svg version="1.1" id="Ebene_1" xmlns:x="&ns_extend;" xmlns:i="&ns_ai;" xmlns:graph="&ns_graphs;"
	 xmlns="http://www.w3.org/2000/svg" xmlns:xlink="http://www.w3.org/1999/xlink" x="0px" y="0px" viewBox="0 0 319.7 72.3"
	 style="enable-background:new 0 0 319.7 72.3;" xml:space="preserve">
<style type="text/css">
	.st0{fill-rule:evenodd;clip-rule:evenodd;}
</style>
<metadata>
	<sfw  xmlns="&ns_sfw;">
		<slices></slices>
		<sliceSourceBounds  bottomLeftOrigin="true" height="35.3" width="281.5" x="-62.6" y="149.1"></sliceSourceBounds>
	</sfw>
</metadata>
<path class="st0" d="M301.1,33.8l-4.5-6.9l-0.8-1.4l0,0l0,1.6v6.7h-3.4v-15h3.3l4.8,7.8l0,0l0-1.6l0-6.2h3.4v15H301.1z M286.9,33.8
	l-2-5.4h-1.3v5.4h-3.9v-15h5.2c3.8,0,5.7,1.4,5.7,4.8c0,2-0.7,3.5-2,4l2.9,6.1H286.9z M284.9,22h-1.4v3.5h1.3c1.1,0,1.5-0.3,1.5-1.7
	C286.4,22.4,286,22,284.9,22z M278.1,30.4l-0.1,3.4h-9.7v-15h9.4l0.1,3.4h-5.6v2.3h4.6v3.1h-4.6v2.7H278.1z M263.8,33.8h-4V22.3
	h-3.4l0.1-3.5h10.6l0.1,3.5h-3.4V33.8z M257.6,33.8h-8.9v-15h3.9v11.5h5.1L257.6,33.8z M242.4,18.8h4v15h-4V18.8z M235.4,24.9h4.6
	l0,3.3h-4.6v5.5h-3.9v-15h9.4l0.1,3.5h-5.5V24.9z M229.2,54c-1.4,0-2-0.5-2-1.9c0-1.2,0.6-1.9,2-1.9s2,0.7,2,1.9
	C231.2,53.2,230.6,54,229.2,54z M225,51.1v2.7h-3.5v-2.7h-5.9l-0.3-2.4l5.2-9.9h4.6v9.2h1.2l-0.1,3.2H225z M221.7,42.5l-2.7,5.4h2.5
	l0.1-3.8L221.7,42.5L221.7,42.5z M217.7,26.8l-0.8-1.4l0,0l0,1.6v6.7h-3.4v-15h3.3l4.8,7.8l0,0l0-1.6l0-6.2h3.4v15h-2.8L217.7,26.8z
	 M205.8,51.1h1.8v-7.8l-2.3,1.3l-0.4-3l4.3-2.7h2.3v12.3h1.8v2.7h-7.5V51.1z M211.9,30.4l-0.1,3.4h-9.7v-15h9.4l0.1,3.4h-5.6v2.3
	h4.6v3.1h-4.6v2.7H211.9z M194.6,34c-3.8,0-5.8-1.8-5.8-5.4v-9.9h3.9v9.8c0,1.3,0.5,1.9,1.9,1.9c1.4,0,1.8-0.6,1.8-1.9v-9.8h3.9v9.9
	C200.3,32.2,198.4,34,194.6,34z M187.4,30.4l-0.1,3.4h-9.7v-15h9.4l0.1,3.4h-5.6v2.3h4.6v3.1h-4.6v2.7H187.4z M168.4,26.8l-0.8-1.4
	l0,0l0,1.6v6.7h-3.4v-15h3.3l4.8,7.8l0,0l0-1.6l0-6.2h3.4v15h-2.8L168.4,26.8z M172.8,42.2h-5.6v2.3h4.6v3.1h-4.6v2.7h5.8l-0.1,3.4
	h-9.7v-15h9.4L172.8,42.2z M157.4,47.9h-3.6v5.9h-3.9v-15h3.9v5.6h3.6v-5.6h3.9v15h-3.9V47.9z M150.3,26.8l-0.8-1.4l0,0l0,1.6v6.7
	H146v-15h3.3l4.8,7.8l0,0l0-1.6l0-6.2h3.4v15h-2.8L150.3,26.8z M144.5,30.4l-0.1,3.4h-9.7v-15h9.4l0.1,3.4h-5.6v2.3h4.6v3.1h-4.6
	v2.7H144.5z M126.8,33.8h-5.4v-15h5.3c4.6,0,6.4,2.1,6.4,7.4C133.1,31.7,131,33.8,126.8,33.8z M126.7,22.2h-1.5v8.1h1.5
	c1.7,0,2.3-0.5,2.3-4.2C129,22.8,128.5,22.2,126.7,22.2z M126.5,46.5L126.5,46.5v-1.6l0-6.2h3.4v15h-2.8l-4.5-6.9l-0.8-1.4l0,0
	l0,1.6v6.7h-3.4v-15h3.3L126.5,46.5z M110.7,54c-3.8,0-5.8-1.8-5.8-5.4v-9.9h3.9v9.8c0,1.3,0.5,1.9,1.9,1.9c1.4,0,1.8-0.6,1.8-1.9
	v-9.8h3.9v9.9C116.5,52.2,114.6,54,110.7,54z M112.2,33.8h-4V22.3h-3.4l0.1-3.5h10.6l0.1,3.5h-3.4V33.8z M99.5,18.8h4v15h-4V18.8z
	 M98.8,49.2c0,2.9-1.8,4.7-5.7,4.7c-1.6,0-3.1-0.4-4.2-1l0.7-3c1.1,0.5,2.1,0.8,3.3,0.8c1.4,0,2.1-0.6,2.1-1.6c0-1-0.5-1.7-3.2-1.7
	v-2.7c2.6,0,3.1-0.6,3.1-1.6c0-0.8-0.5-1.2-1.8-1.2c-1.3,0-2.4,0.4-3.4,1.2l-0.9-3c1.1-0.9,2.8-1.5,4.5-1.5c3.2,0,5.1,1.6,5.1,4.3
	c0,1.4-0.6,2.4-1.8,3.1v0C98,46.6,98.8,47.7,98.8,49.2z M93.7,27.5l0-1.6l-0.1,0l-0.5,1.6L91,33.8h-2.5l-2.2-6.3l-0.5-1.6l0,0l0,1.6
	v6.3h-3.4v-15h4.3l2.6,7.6l0.5,1.5h0.1l0.5-1.5l2.7-7.6h4.3v15h-3.6V27.5z M84.5,51.1h1.8v2.7h-7.5v-2.7h1.8v-7.8l-2.3,1.3l-0.4-3
	l4.3-2.7h2.3V51.1z M73.2,33.8h-4V22.3h-3.4l0.1-3.5h10.6l0.1,3.5h-3.4V33.8z M65.1,30.3L65,33.8H54.8v-2.5l4.8-7.6l0.9-1.3l0,0
	h-5.5l0.1-3.5h10v2.8l-4.6,7.4l-0.9,1.3l0,0.1H65.1z M52.8,49.1h-1.2v4.7h-3.9v-15h5.1c4.2,0,5.8,1.6,5.8,5.3
	C58.6,47.3,57,49.1,52.8,49.1z M52.8,42h-1.2v4h1.2c1.3,0,1.8-0.3,1.8-2C54.5,42.4,54.1,42,52.8,42z M50.7,33.8h-4V22.3h-3.4
	l0.1-3.5H54l0.1,3.5h-3.4V33.8z M42.7,30.4l-0.1,3.4h-9.7v-15h9.4l0.1,3.4h-5.6v2.3h4.6v3.1h-4.6v2.7H42.7z M25.1,34
	c-1.1,0-2-0.2-2.7-0.5l0.2-3.3c0.4,0.2,1.1,0.4,1.9,0.4c1.6,0,2.4-0.6,2.4-2.4v-9.4h4v9.5C30.9,32.7,28.6,34,25.1,34z M26.8,44.4
	h3.6v-5.6h3.9v15h-3.9v-5.9h-3.6v5.9h-3.9v-15h3.9V44.4z M45.9,42.2h-5.6v2.3h4.6v3.1h-4.6v2.7h5.8l-0.1,3.4h-9.7v-15h9.4L45.9,42.2
	z M67,38.8l4.5,15h-4.4l-0.6-2.6h-4.1l-0.6,2.6h-4.1l4.4-15H67z M65.9,47.9l-1-4.3L64.6,42h-0.1l-0.3,1.6l-1,4.3H65.9z M143.7,46.2
	c0,5.5-2.1,7.6-6.3,7.6H132v-15h5.3C141.9,38.8,143.7,40.9,143.7,46.2z M135.9,50.3h1.5c1.7,0,2.3-0.5,2.3-4.2
	c0-3.3-0.5-3.9-2.3-3.9h-1.5V50.3z M185.5,44c0,3.2-1.6,5.1-5.8,5.1h-1.2v4.7h-3.9v-15h5.1C183.9,38.8,185.5,40.4,185.5,44z
	 M178.5,46h1.2c1.3,0,1.8-0.3,1.8-2c0-1.6-0.4-2-1.8-2h-1.2V46z M194,38.8l4.5,15h-4.4l-0.6-2.6h-4.1l-0.6,2.6h-4.1l4.4-15H194z
	 M192.8,47.9l-1-4.3l-0.3-1.6h-0.1l-0.3,1.6l-1,4.3H192.8z M232.6,39.7l1.9,0.4l0.3-1.9h1.7l0.3,1.9l1.8-0.4l0.6,1.6l-1.8,0.9l1,1.7
	l-1.3,1l-1.5-1.4l-1.5,1.5l-1.3-0.9l1-1.8l-1.8-0.8L232.6,39.7z"/>
</svg>
