<svg enable-background="new 0 0 123.48 8.68" viewBox="0 0 123.48 8.68" xmlns="http://www.w3.org/2000/svg"><path d="m1.76.14.08.96.92-.23.19.57-.91.35.56.83-.42.34-.68-.76-.7.76-.44-.32.56-.85-.92-.36.21-.57.92.24.08-.96z"/><path d="m7.19 5.77h-2.7l-.45 1.45h-1.32l2.4-6.75h1.49l2.42 6.75h-1.4zm-1.56-3.69-.81 2.64h2.05l-.81-2.64-.19-.7h-.03z"/><path d="m10.96 3.84h.77l1.33-2.03h1.3l-1.65 2.47 1.7 2.95h-1.31l-1.38-2.43h-.77v2.43h-1.13v-7.06l1.14-.06z"/><path d="m16.62 2.68v3.02c0 .48.25.68.71.68.14 0 .34-.03.44-.06l.07.85c-.17.08-.51.14-.84.14-1.02 0-1.52-.58-1.52-1.58v-3.05h-.68v-.88h.71l.21-1.27.9-.09v1.36h1.27v.88z"/><path d="m19.57 1.08c-.46 0-.68-.14-.68-.53-.01-.35.22-.55.68-.55.47 0 .68.2.68.55 0 .36-.22.53-.68.53zm-.59 6.14v-5.38l1.16-.06v5.45h-1.16z"/><path d="m23.79 7.35c-1.67 0-2.43-.81-2.43-2.82 0-2 .76-2.83 2.43-2.83 1.68 0 2.4.83 2.4 2.83 0 2.01-.72 2.82-2.4 2.82zm0-.97c.89 0 1.22-.43 1.22-1.85s-.33-1.85-1.22-1.85c-.9 0-1.24.43-1.24 1.85s.35 1.85 1.24 1.85z"/><path d="m30.47 7.22v-3.5c0-.68-.37-.97-1.04-.97-.41 0-.86.18-1.08.5v3.98h-1.14v-5.4l.82-.06.18.52c.41-.38.95-.58 1.54-.58 1.14 0 1.86.69 1.86 2.01v3.51h-1.14z"/><path d="m34.32 7.33c-.65 0-1.23-.13-1.68-.4l.14-.97c.42.28 1.05.42 1.55.42.66 0 .94-.3.94-.69 0-1.03-2.64-.5-2.64-2.37 0-.95.66-1.6 1.98-1.6.54 0 1.05.11 1.5.31l-.11.94c-.45-.19-1.01-.28-1.42-.28-.54 0-.86.22-.86.58 0 .95 2.6.42 2.6 2.3 0 1.06-.6 1.76-2 1.76z"/><path d="m39.79 7.33c-.64 0-1.17-.24-1.51-.6l-.16.5h-.77v-7.06l1.14-.06v1.4l-.02.72.03.02c.38-.37.89-.54 1.43-.54 1.25 0 2.04.77 2.04 2.79 0 2.01-.81 2.83-2.18 2.83zm-.19-4.59c-.49 0-.88.2-1.12.53v2.57c.19.3.57.55 1.13.55.73 0 1.19-.34 1.19-1.86 0-1.49-.43-1.79-1.2-1.79z"/><path d="m42.71 4.41c0-1.72.76-2.7 2.32-2.7 1.33 0 2.19.78 2.19 2.51 0 .17-.01.39-.03.55h-3.29c.05 1.13.53 1.53 1.57 1.53.53 0 1-.1 1.46-.3l.13.95c-.46.23-1.05.37-1.73.37-1.83 0-2.62-.96-2.62-2.91zm3.46-.41c-.02-.95-.45-1.31-1.12-1.31-.78 0-1.12.4-1.17 1.31z"/><path d="m51.7 7.22-.13-.51-.03-.01c-.33.4-.82.63-1.51.63-1.42 0-2.08-.9-2.08-2.84 0-1.8.67-2.79 2.07-2.79.55 0 1.05.19 1.42.55l.02-.02-.02-.72v-1.34l1.14-.06v7.11zm-.26-3.97c-.2-.3-.59-.5-1.09-.5-.89 0-1.21.47-1.21 1.78 0 1.38.29 1.84 1.21 1.84.62 0 .95-.29 1.1-.54v-2.58z"/><path d="m54.68 1.08c-.46 0-.68-.13-.68-.53 0-.35.22-.55.68-.55.47 0 .68.2.68.55.01.36-.21.53-.68.53zm-.58 6.14v-5.38l1.16-.06v5.45h-1.16z"/><path d="m60.01 7.22v-3.5c0-.68-.37-.97-1.04-.97-.41 0-.86.18-1.08.5v3.98h-1.14v-5.4l.82-.06.18.52c.41-.38.95-.58 1.54-.58 1.14 0 1.86.69 1.86 2.01v3.51h-1.14z"/><path d="m63.58 4.92c-.18.08-.29.19-.29.33 0 .15.13.28.41.3l1.3.09c1.29.09 1.75.54 1.75 1.34 0 1.04-.67 1.7-2.4 1.7-1.51 0-2.15-.59-2.15-1.43 0-.35.16-.68.47-.94-.24-.15-.42-.41-.42-.77s.22-.69.67-.9c-.39-.25-.63-.64-.63-1.27 0-1 .55-1.66 2-1.66.47 0 .96.07 1.34.32l.9-.32.24.57-.6.45c.07.18.11.4.11.65 0 1.04-.55 1.62-1.99 1.62-.25-.01-.49-.03-.71-.08zm-.09 1.61c-.21.17-.32.39-.32.58 0 .45.33.69 1.14.69 1.12 0 1.4-.26 1.4-.65 0-.31-.17-.47-.91-.52zm-.08-3.14c0 .63.35.79.86.79.7 0 .91-.24.91-.79 0-.59-.26-.79-.88-.79-.65-.01-.89.24-.89.79z"/><path d="m71.89 5.37c0 1.27-.72 1.95-2.21 1.95s-2.2-.71-2.2-1.95v-3.57h1.14v3.54c0 .62.34.94 1.06.94.7 0 1.05-.31 1.05-.94v-3.54h1.14v3.57z"/><path d="m76.37 7.22v-3.5c0-.68-.37-.97-1.04-.97-.41 0-.86.18-1.08.5v3.98h-1.14v-5.4l.82-.06.18.52c.41-.38.95-.58 1.54-.58 1.14 0 1.86.69 1.86 2.01v3.51h-1.14z"/><path d="m79.94 4.92c-.18.08-.29.19-.29.33 0 .15.13.28.4.3l1.31.09c1.29.09 1.75.54 1.75 1.34 0 1.04-.68 1.7-2.4 1.7-1.51 0-2.15-.59-2.15-1.43 0-.35.16-.68.47-.94-.25-.15-.43-.41-.43-.77s.22-.69.67-.9c-.38-.25-.62-.64-.62-1.27 0-1 .55-1.66 2-1.66.47 0 .96.07 1.34.32l.9-.32.24.57-.6.45c.07.18.11.4.11.65 0 1.04-.55 1.62-1.99 1.62-.24-.01-.49-.03-.71-.08zm-.08 1.61c-.21.17-.32.39-.32.58 0 .45.33.69 1.14.69 1.12 0 1.39-.26 1.39-.65 0-.31-.17-.47-.91-.52zm-.08-3.14c0 .63.35.79.85.79.7 0 .91-.24.91-.79 0-.59-.26-.79-.88-.79-.65-.01-.88.24-.88.79z"/><path d="m83.58 4.41c0-1.72.76-2.7 2.32-2.7 1.33 0 2.19.78 2.19 2.51 0 .17-.01.39-.03.55h-3.29c.05 1.13.53 1.53 1.57 1.53.53 0 1-.1 1.46-.3l.13.95c-.46.23-1.05.37-1.73.37-1.83 0-2.62-.96-2.62-2.91zm3.46-.41c-.02-.95-.45-1.31-1.13-1.31-.78 0-1.12.4-1.17 1.31z"/><path d="m92.36 7.22v-3.5c0-.68-.37-.97-1.04-.97-.41 0-.86.18-1.08.5v3.98h-1.14v-5.4l.82-.06.18.52c.41-.38.95-.58 1.54-.58 1.14 0 1.86.69 1.86 2.01v3.51h-1.14z"/><path d="m98.46 4.92c-.18.08-.29.19-.29.33 0 .15.13.28.41.3l1.31.09c1.29.09 1.75.54 1.75 1.34 0 1.04-.67 1.7-2.4 1.7-1.51 0-2.15-.59-2.15-1.43 0-.35.16-.68.47-.94-.24-.15-.42-.41-.42-.77s.22-.69.67-.9c-.39-.25-.64-.64-.64-1.27 0-1 .55-1.66 2-1.66.47 0 .96.07 1.34.32l.9-.32.24.57-.6.45c.07.18.11.4.11.65 0 1.04-.55 1.62-1.99 1.62-.24-.01-.49-.03-.71-.08zm-.08 1.61c-.21.17-.32.39-.32.58 0 .45.33.69 1.14.69 1.12 0 1.4-.26 1.4-.65 0-.31-.17-.47-.91-.52zm-.08-3.14c0 .63.35.79.86.79.7 0 .91-.24.91-.79 0-.59-.26-.79-.88-.79-.66-.01-.89.24-.89.79z"/><path d="m102.1 4.41c0-1.72.76-2.7 2.32-2.7 1.33 0 2.19.78 2.19 2.51 0 .17-.01.39-.03.55h-3.29c.05 1.13.53 1.53 1.57 1.53.53 0 1-.1 1.46-.3l.13.95c-.46.23-1.05.37-1.73.37-1.82 0-2.62-.96-2.62-2.91zm3.46-.41c-.02-.95-.45-1.31-1.12-1.31-.78 0-1.12.4-1.17 1.31z"/><path d="m107.76 7.22v-7.05l1.15-.06v7.11z"/><path d="m111.76 2.68v3.02c0 .48.25.68.71.68.14 0 .34-.03.44-.06l.07.85c-.18.08-.51.14-.85.14-1.02 0-1.52-.58-1.52-1.58v-3.05h-.68v-.88h.71l.21-1.27.9-.09v1.36h1.27v.88z"/><path d="m113.56 4.41c0-1.72.76-2.7 2.32-2.7 1.33 0 2.19.78 2.19 2.51 0 .17-.01.39-.03.55h-3.29c.05 1.13.53 1.53 1.57 1.53.53 0 1-.1 1.46-.3l.13.95c-.46.23-1.05.37-1.73.37-1.83 0-2.62-.96-2.62-2.91zm3.46-.41c-.02-.95-.45-1.31-1.13-1.31-.78 0-1.12.4-1.17 1.31z"/><path d="m122.34 7.22v-3.5c0-.68-.37-.97-1.04-.97-.41 0-.86.18-1.08.5v3.98h-1.14v-5.4l.82-.06.18.52c.41-.38.95-.58 1.54-.58 1.14 0 1.86.69 1.86 2.01v3.51h-1.14z"/></svg>