<?xml version="1.0" encoding="utf-8"?>
<!-- Generator: Adobe Illustrator 23.1.1, SVG Export Plug-In . SVG Version: 6.00 Build 0)  -->
<!DOCTYPE svg PUBLIC "-//W3C//DTD SVG 1.1//EN" "http://www.w3.org/Graphics/SVG/1.1/DTD/svg11.dtd" [
	<!ENTITY ns_extend "http://ns.adobe.com/Extensibility/1.0/">
	<!ENTITY ns_ai "http://ns.adobe.com/AdobeIllustrator/10.0/">
	<!ENTITY ns_graphs "http://ns.adobe.com/Graphs/1.0/">
	<!ENTITY ns_vars "http://ns.adobe.com/Variables/1.0/">
	<!ENTITY ns_imrep "http://ns.adobe.com/ImageReplacement/1.0/">
	<!ENTITY ns_sfw "http://ns.adobe.com/SaveForWeb/1.0/">
	<!ENTITY ns_custom "http://ns.adobe.com/GenericCustomNamespace/1.0/">
	<!ENTITY ns_adobe_xpath "http://ns.adobe.com/XPath/1.0/">
]>
<svg version="1.1" id="Ebene_1" xmlns:x="&ns_extend;" xmlns:i="&ns_ai;" xmlns:graph="&ns_graphs;"
	 xmlns="http://www.w3.org/2000/svg" xmlns:xlink="http://www.w3.org/1999/xlink" x="0px" y="0px" viewBox="0 0 88.86 25.59"
	 style="enable-background:new 0 0 88.86 25.59;" xml:space="preserve">
<style type="text/css">
	.st0{fill-rule:evenodd;clip-rule:evenodd;}
</style>
<metadata>
	<sfw  xmlns="&ns_sfw;">
		<slices></slices>
		<sliceSourceBounds  bottomLeftOrigin="true" height="19.88" width="81.19" x="2.15" y="-9.81"></sliceSourceBounds>
	</sfw>
</metadata>
<path class="st0" d="M82.35,17.37c-0.69,0-0.99-0.26-0.99-0.93c0-0.6,0.3-0.94,0.99-0.94s0.98,0.34,0.98,0.94
	C83.33,17,83.04,17.37,82.35,17.37z M77.01,17.68l-0.41-0.68l-0.02,0.01l0.01,0.79v3.27H74.9v-7.35h1.61l2.36,3.81l0.02-0.01
	l-0.02-0.78l0.01-3.02h1.69v7.35H79.2L77.01,17.68z M75.62,6.99L75.2,6.31l-0.02,0.01l0.01,0.79v3.27h-1.69V3.03h1.61l2.36,3.81
	l0.02-0.01l-0.02-0.78l0.01-3.02h1.69v7.35h-1.36L75.62,6.99z M72.77,8.72l-0.04,1.66H68V3.03h4.61l0.04,1.69h-2.74v1.14h2.26v1.54
	h-2.26v1.33H72.77z M68.24,15.56c-0.48-0.18-1.1-0.28-1.63-0.28c-1.21,0-1.48,0.45-1.48,2.11c0,1.75,0.28,2.13,1.24,2.13
	c0.15,0,0.3-0.01,0.44-0.04v-2.4h1.71v3.75c-0.51,0.25-1.34,0.4-2.1,0.4c-2.43,0-3.29-1.3-3.29-3.81c0-2.57,1.01-3.8,3.38-3.8
	c0.65,0,1.38,0.12,1.91,0.32L68.24,15.56z M65.08,7.5H63.3v2.88h-1.91V3.03h1.91v2.76h1.78V3.03h1.92v7.35h-1.92V7.5z M59.29,8.84
	c0.45,0,0.87-0.09,1.22-0.25l0.18,1.56c-0.44,0.22-1.11,0.35-1.68,0.35c-2.1,0-3.12-1.2-3.12-3.84c0-2.47,0.99-3.76,3.24-3.76
	c0.52,0,1.16,0.12,1.55,0.27L60.49,4.8c-0.32-0.12-0.76-0.2-1.23-0.2c-1.09,0-1.36,0.46-1.36,2.07C57.9,8.37,58.2,8.84,59.29,8.84z
	 M53.44,9.09h-2l-0.28,1.28h-2.03l2.18-7.35h2.34l2.22,7.35h-2.14L53.44,9.09z M52.62,5.39L52.47,4.6h-0.03l-0.17,0.78L51.81,7.5
	h1.28L52.62,5.39z M53.4,2.67c-0.48,0-0.73-0.19-0.73-0.66c0-0.44,0.25-0.68,0.73-0.68c0.5,0,0.73,0.24,0.73,0.68
	C54.13,2.45,53.9,2.67,53.4,2.67z M51.53,2.67c-0.48,0-0.73-0.19-0.73-0.66c0-0.44,0.25-0.68,0.73-0.68c0.5,0,0.73,0.24,0.73,0.68
	C52.26,2.45,52.03,2.67,51.53,2.67z M44.59,10.38V3.03h1.93v5.65h2.5l-0.05,1.71H44.59z M42.19,21.08l-0.98-2.63h-0.65v2.63h-1.91
	v-7.35h2.54c1.86,0,2.78,0.71,2.78,2.36c0,0.98-0.35,1.71-1,1.98l1.43,3.01H42.19z M41.23,15.31h-0.67v1.7h0.66
	c0.56,0,0.75-0.14,0.75-0.85C41.97,15.49,41.78,15.31,41.23,15.31z M41.24,6.04h2.25l-0.01,1.63h-2.24v2.72h-1.92V3.03h4.6
	l0.03,1.72h-2.71V6.04z M36.37,8.72l-0.04,1.66H31.6V3.03h4.61l0.04,1.69h-2.74v1.14h2.26v1.54h-2.26v1.33H36.37z M28.27,10.51
	c-0.77,0-1.54-0.18-2.14-0.51l0.25-1.63c0.6,0.3,1.21,0.49,1.84,0.49c0.61,0,0.84-0.21,0.84-0.6c0-0.94-2.92-0.65-2.92-3.05
	c0-1.28,0.78-2.3,2.6-2.3c0.68,0,1.4,0.13,1.93,0.35l-0.22,1.6c-0.56-0.17-1.12-0.26-1.59-0.26c-0.73,0-0.88,0.22-0.88,0.53
	c0,0.95,2.92,0.63,2.92,3.03C30.91,9.6,29.93,10.51,28.27,10.51z M23.15,10.51c-0.77,0-1.54-0.18-2.14-0.51l0.25-1.63
	c0.6,0.3,1.21,0.49,1.84,0.49c0.61,0,0.84-0.21,0.84-0.6c0-0.94-2.92-0.65-2.92-3.05c0-1.28,0.78-2.3,2.6-2.3
	c0.68,0,1.4,0.13,1.93,0.35l-0.22,1.6c-0.56-0.17-1.12-0.26-1.59-0.26c-0.73,0-0.88,0.22-0.88,0.53c0,0.95,2.92,0.63,2.92,3.03
	C25.79,9.6,24.81,10.51,23.15,10.51z M21.18,18.31l1.06-4.59h1.98l-2.18,7.35h-2.19l-2.17-7.35h2.11l1.03,4.59L21,19.09h0.03
	L21.18,18.31z M17.39,10.51c-2.12,0-3.08-1.12-3.08-3.8c0-2.7,0.92-3.79,3.08-3.79c2.16,0,3.08,1.1,3.08,3.79
	C20.47,9.47,19.54,10.51,17.39,10.51z M17.38,4.62c-0.8,0-1.06,0.33-1.06,2.08c0,1.75,0.26,2.11,1.08,2.11
	c0.81,0,1.06-0.36,1.06-2.11C18.46,4.95,18.21,4.62,17.38,4.62z M11.95,10.38l-0.98-2.63h-0.65v2.63H8.41V3.03h2.54
	c1.86,0,2.78,0.71,2.78,2.36c0,0.98-0.35,1.71-1,1.98l1.43,3.01H11.95z M10.99,4.61h-0.67v1.7h0.66c0.56,0,0.76-0.14,0.76-0.85
	C11.74,4.79,11.55,4.61,10.99,4.61z M9.58,19.37h2.5l-0.05,1.71H7.65v-7.35h1.93V19.37z M5.44,10.52c-2.43,0-3.29-1.3-3.29-3.81
	c0-2.57,1.01-3.8,3.38-3.8c0.65,0,1.38,0.12,1.91,0.32L7.27,4.86c-0.48-0.18-1.1-0.28-1.63-0.28c-1.21,0-1.48,0.45-1.48,2.11
	c0,1.75,0.28,2.13,1.24,2.13c0.15,0,0.3-0.01,0.44-0.04v-2.4h1.71v3.75C7.03,10.36,6.2,10.52,5.44,10.52z M5.38,13.6
	c0.52,0,1.16,0.12,1.55,0.27L6.75,15.5c-0.32-0.12-0.76-0.2-1.23-0.2c-1.09,0-1.36,0.46-1.36,2.07c0,1.7,0.3,2.17,1.39,2.17
	c0.45,0,0.87-0.09,1.22-0.25l0.18,1.56C6.5,21.07,5.84,21.2,5.27,21.2c-2.1,0-3.12-1.2-3.12-3.84C2.15,14.89,3.14,13.6,5.38,13.6z
	 M17.36,15.41h-2.74v1.14h2.26v1.54h-2.26v1.33h2.86l-0.04,1.66h-4.74v-7.35h4.61L17.36,15.41z M29.34,15.41H26.6v1.14h2.26v1.54
	H26.6v1.33h2.86l-0.04,1.66h-4.74v-7.35h4.61L29.34,15.41z M35.53,16.09c0,0.98-0.35,1.71-1,1.98l1.43,3.01h-2.22l-0.98-2.63h-0.65
	v2.63H30.2v-7.35h2.54C34.61,13.72,35.53,14.43,35.53,16.09z M32.12,17.01h0.66c0.56,0,0.76-0.14,0.76-0.85
	c0-0.67-0.19-0.84-0.75-0.84h-0.67V17.01z M49.53,15.41H46.8v1.14h2.26v1.54H46.8v1.33h2.86l-0.04,1.66h-4.74v-7.35h4.61
	L49.53,15.41z M52.44,21.08h-1.97v-7.35h1.97V21.08z M57.49,17.54l0.02-0.01l-0.02-0.78l0.01-3.02h1.69v7.35h-1.36l-2.2-3.39
	l-0.41-0.68l-0.02,0.01l0.01,0.79v3.27h-1.69v-7.35h1.61L57.49,17.54z M62.24,21.08h-1.97v-7.35h1.97V21.08z M74.04,15.41H71.3v1.14
	h2.26v1.54H71.3v1.33h2.86l-0.04,1.66h-4.74v-7.35H74L74.04,15.41z M82.35,19.32c0.69,0,0.98,0.34,0.98,0.94
	c0,0.56-0.29,0.93-0.98,0.93s-0.99-0.26-0.99-0.93C81.36,19.67,81.67,19.32,82.35,19.32z"/>
</svg>
