<?xml version="1.0" encoding="utf-8"?>
<!-- Generator: Adobe Illustrator 23.1.1, SVG Export Plug-In . SVG Version: 6.00 Build 0)  -->
<!DOCTYPE svg PUBLIC "-//W3C//DTD SVG 1.1//EN" "http://www.w3.org/Graphics/SVG/1.1/DTD/svg11.dtd" [
	<!ENTITY ns_extend "http://ns.adobe.com/Extensibility/1.0/">
	<!ENTITY ns_ai "http://ns.adobe.com/AdobeIllustrator/10.0/">
	<!ENTITY ns_graphs "http://ns.adobe.com/Graphs/1.0/">
	<!ENTITY ns_vars "http://ns.adobe.com/Variables/1.0/">
	<!ENTITY ns_imrep "http://ns.adobe.com/ImageReplacement/1.0/">
	<!ENTITY ns_sfw "http://ns.adobe.com/SaveForWeb/1.0/">
	<!ENTITY ns_custom "http://ns.adobe.com/GenericCustomNamespace/1.0/">
	<!ENTITY ns_adobe_xpath "http://ns.adobe.com/XPath/1.0/">
]>
<svg version="1.1" id="Ebene_1" xmlns:x="&ns_extend;" xmlns:i="&ns_ai;" xmlns:graph="&ns_graphs;"
	 xmlns="http://www.w3.org/2000/svg" xmlns:xlink="http://www.w3.org/1999/xlink" x="0px" y="0px" viewBox="0 0 57.54 34.02"
	 style="enable-background:new 0 0 57.54 34.02;" xml:space="preserve">
<style type="text/css">
	.st0{fill-rule:evenodd;clip-rule:evenodd;fill:#020204;}
</style>
<metadata>
	<sfw  xmlns="&ns_sfw;">
		<slices></slices>
		<sliceSourceBounds  bottomLeftOrigin="true" height="8.99" width="45" x="6.44" y="-22.06"></sliceSourceBounds>
	</sfw>
</metadata>
<path class="st0" d="M49.44,19.32l-0.32-6.1h2.28l-0.31,6.1H49.44z M46.03,21.92l-1.16-3.11h-0.76v3.11h-2.26v-8.7h3.01
	c2.2,0,3.29,0.84,3.29,2.8c0,1.16-0.42,2.02-1.18,2.34l1.69,3.56L46.03,21.92L46.03,21.92z M44.9,15.1h-0.79v2.01h0.78
	c0.66,0,0.89-0.16,0.89-1.01C45.78,15.31,45.56,15.1,44.9,15.1z M40.98,19.96l-0.05,1.96h-5.6v-8.7h5.45l0.05,1.99h-3.24v1.34h2.67
	v1.82h-2.67v1.58C37.59,19.96,40.98,19.96,40.98,19.96z M34.43,19.35c0,1.56-0.94,2.56-3.11,2.56h-3.38v-8.69h3.41
	c1.87,0,2.81,0.87,2.81,2.25c0,0.91-0.42,1.51-1.07,1.82v0.02C33.96,17.6,34.43,18.28,34.43,19.35z M31.25,15.12h-1.12v1.53h1.15
	c0.52,0,0.71-0.2,0.71-0.79C31.98,15.3,31.78,15.12,31.25,15.12z M31.31,18.34h-1.18v1.72h1.23c0.57,0,0.78-0.19,0.78-0.87
	C32.13,18.59,31.94,18.34,31.31,18.34z M23.52,22.06c-2.22,0-3.35-1.07-3.35-3.11v-5.74h2.27v5.69c0,0.78,0.3,1.12,1.08,1.12
	c0.79,0,1.06-0.32,1.06-1.12v-5.69h2.26v5.74C26.83,21,25.74,22.06,23.52,22.06z M17.17,20.4H14.8l-0.34,1.52h-2.4l2.58-8.69h2.77
	l2.62,8.69H17.5L17.17,20.4z M16.19,16.01l-0.17-0.93h-0.03l-0.2,0.93l-0.56,2.49h1.52L16.19,16.01z M8.96,22.06
	c-0.91,0-1.82-0.21-2.53-0.6l0.29-1.93c0.71,0.36,1.43,0.58,2.18,0.58c0.72,0,1-0.24,1-0.71c0-1.11-3.46-0.77-3.46-3.61
	c0-1.52,0.93-2.73,3.07-2.73c0.8,0,1.66,0.15,2.28,0.42l-0.25,1.89c-0.66-0.2-1.32-0.31-1.88-0.31c-0.86,0-1.05,0.25-1.05,0.63
	c0,1.12,3.46,0.74,3.46,3.58C12.08,21,10.92,22.06,8.96,22.06z M50.3,20.04c0.79,0,1.14,0.38,1.14,1.02c0,0.59-0.35,1-1.14,1
	c-0.78,0-1.12-0.29-1.12-1C49.18,20.42,49.53,20.04,50.3,20.04z"/>
</svg>
