<?xml version="1.0" encoding="utf-8"?>
<!-- Generator: Adobe Illustrator 23.1.1, SVG Export Plug-In . SVG Version: 6.00 Build 0)  -->
<!DOCTYPE svg PUBLIC "-//W3C//DTD SVG 1.1//EN" "http://www.w3.org/Graphics/SVG/1.1/DTD/svg11.dtd" [
	<!ENTITY ns_extend "http://ns.adobe.com/Extensibility/1.0/">
	<!ENTITY ns_ai "http://ns.adobe.com/AdobeIllustrator/10.0/">
	<!ENTITY ns_graphs "http://ns.adobe.com/Graphs/1.0/">
	<!ENTITY ns_vars "http://ns.adobe.com/Variables/1.0/">
	<!ENTITY ns_imrep "http://ns.adobe.com/ImageReplacement/1.0/">
	<!ENTITY ns_sfw "http://ns.adobe.com/SaveForWeb/1.0/">
	<!ENTITY ns_custom "http://ns.adobe.com/GenericCustomNamespace/1.0/">
	<!ENTITY ns_adobe_xpath "http://ns.adobe.com/XPath/1.0/">
]>
<svg version="1.1" id="Ebene_1" xmlns:x="&ns_extend;" xmlns:i="&ns_ai;" xmlns:graph="&ns_graphs;"
	 xmlns="http://www.w3.org/2000/svg" xmlns:xlink="http://www.w3.org/1999/xlink" x="0px" y="0px" viewBox="0 0 88.86 37.12"
	 style="enable-background:new 0 0 88.86 37.12;" xml:space="preserve">
<style type="text/css">
	.st0{fill-rule:evenodd;clip-rule:evenodd;}
</style>
<metadata>
	<sfw  xmlns="&ns_sfw;">
		<slices></slices>
		<sliceSourceBounds  bottomLeftOrigin="true" height="31.08" width="83.61" x="3.25" y="-22.7"></sliceSourceBounds>
	</sfw>
</metadata>
<path class="st0" d="M83.93,7.77V6.41h2.93v1.37H83.93z M83.51,9.2l-0.03,1.83h-5.37V9.7l2.51-3.99l0.46-0.69l-0.01-0.02h-2.9
	l0.05-1.84h5.26v1.47l-2.43,3.87L80.6,9.17l0.01,0.03H83.51z M75.97,11.03h-2.09V4.99H72.1l0.04-1.84h5.58l0.04,1.84h-1.79V11.03z
	 M70.13,16.28c-1.29,0-1.59,0.48-1.59,2.26c0,1.87,0.3,2.28,1.32,2.28c0.16,0,0.33-0.01,0.47-0.04V18.2h1.83v4.01
	c-0.55,0.26-1.44,0.43-2.25,0.43c-2.61,0-3.53-1.4-3.53-4.09c0-2.75,1.08-4.08,3.63-4.08c0.69,0,1.48,0.13,2.05,0.35l-0.19,1.75
	C71.36,16.39,70.7,16.28,70.13,16.28z M69.27,3.15h2.11v7.88h-2.11V3.15z M65.62,11.17c-0.83,0-1.65-0.19-2.29-0.55l0.26-1.74
	c0.64,0.33,1.29,0.53,1.98,0.53c0.65,0,0.9-0.22,0.9-0.64c0-1.01-3.13-0.69-3.13-3.27c0-1.38,0.84-2.47,2.78-2.47
	c0.73,0,1.5,0.14,2.07,0.38l-0.23,1.71c-0.6-0.18-1.2-0.28-1.7-0.28c-0.78,0-0.95,0.23-0.95,0.57c0,1.02,3.13,0.67,3.13,3.25
	C68.45,10.2,67.4,11.17,65.62,11.17z M63.55,14.62h2.05v5.2c0,1.85-0.99,2.82-3.01,2.82c-2.02,0-3.04-0.97-3.04-2.82v-5.2h2.06v5.16
	c0,0.7,0.27,1.02,0.98,1.02c0.71,0,0.96-0.29,0.96-1.02V14.62z M59.98,6.38h2.41l-0.01,1.74h-2.4v2.91h-2.06V3.15h4.93l0.03,1.84
	h-2.9V6.38z M57.14,22.5l-0.3-1.38h-2.14l-0.3,1.38h-2.18l2.33-7.88h2.51l2.37,7.88H57.14z M55.95,17.15l-0.16-0.84h-0.03
	l-0.18,0.84l-0.5,2.26h1.38L55.95,17.15z M53.91,11.17c-2.02,0-3.04-0.97-3.04-2.82v-5.2h2.06v5.16c0,0.7,0.27,1.02,0.98,1.02
	c0.71,0,0.96-0.29,0.96-1.02V3.15h2.05v5.2C56.92,10.2,55.93,11.17,53.91,11.17z M48.15,9.65h-2.14l-0.3,1.38h-2.18l2.33-7.88h2.51
	l2.37,7.88h-2.29L48.15,9.65z M47.27,5.68l-0.16-0.84h-0.03L46.9,5.68l-0.5,2.26h1.38L47.27,5.68z M46.37,17.15
	c0,1.05-0.38,1.83-1.07,2.12l1.53,3.23h-2.37l-1.05-2.82h-0.69v2.82h-2.05v-7.88h2.72C45.38,14.62,46.37,15.37,46.37,17.15z
	 M43.42,16.32h-0.71v1.82h0.7c0.6,0,0.81-0.15,0.81-0.91C44.22,16.51,44.02,16.32,43.42,16.32z M40.93,9.26l-0.04,1.78h-5.08V3.15
	h4.94l0.04,1.81h-2.93v1.22h2.42v1.65h-2.42v1.43H40.93z M32.92,11.03l-1.05-2.82h-0.69v2.82h-2.05V3.15h2.72
	c2,0,2.98,0.76,2.98,2.53c0,1.05-0.38,1.83-1.07,2.12l1.53,3.23H32.92z M31.9,4.85h-0.71v1.82h0.7c0.6,0,0.81-0.15,0.81-0.91
	C32.69,5.04,32.49,4.85,31.9,4.85z M28.34,9.26l-0.04,1.78h-5.08V3.15h4.94l0.04,1.81h-2.93v1.22h2.42v1.65h-2.42v1.43H28.34z
	 M19.66,11.17c-0.83,0-1.65-0.19-2.29-0.55l0.26-1.74c0.64,0.33,1.29,0.53,1.98,0.53c0.65,0,0.9-0.22,0.9-0.64
	c0-1.01-3.13-0.69-3.13-3.27c0-1.38,0.84-2.47,2.78-2.47c0.73,0,1.5,0.14,2.07,0.38L22,5.12c-0.6-0.18-1.2-0.28-1.7-0.28
	c-0.78,0-0.95,0.23-0.95,0.57c0,1.02,3.13,0.67,3.13,3.25C22.49,10.2,21.44,11.17,19.66,11.17z M18.76,14.62h2.06v7.88h-2.06v-3.09
	h-1.91v3.09H14.8v-7.88h2.05v2.95h1.91V14.62z M12.71,7.4l-0.44-0.73l-0.02,0.01l0.01,0.85v3.5h-1.81V3.15h1.72l2.53,4.09l0.02-0.01
	l-0.02-0.84l0.01-3.24h1.81v7.88h-1.46L12.71,7.4z M6.45,11.17c-2.02,0-3.04-0.97-3.04-2.82v-5.2h2.06v5.16
	c0,0.7,0.27,1.02,0.98,1.02c0.71,0,0.96-0.29,0.96-1.02V3.15h2.05v5.2C9.46,10.2,8.47,11.17,6.45,11.17z M6.05,14.49
	c0.73,0,1.5,0.14,2.07,0.38l-0.23,1.71c-0.6-0.18-1.2-0.28-1.7-0.28c-0.78,0-0.95,0.23-0.95,0.57c0,1.02,3.13,0.67,3.13,3.25
	c0,1.56-1.05,2.52-2.83,2.52c-0.83,0-1.65-0.19-2.29-0.55l0.26-1.74c0.64,0.33,1.29,0.53,1.98,0.53c0.65,0,0.9-0.22,0.9-0.64
	c0-1.01-3.13-0.69-3.13-3.27C3.27,15.58,4.11,14.49,6.05,14.49z M7.13,30.06l0.26,0.81h0.03l0.26-0.8l1.41-3.99h2.27v7.88H9.49v-3.3
	l0.02-0.85L9.48,29.8l-0.26,0.82l-1.17,3.34H6.71l-1.16-3.33l-0.26-0.82l-0.02,0.01l0.01,0.85v3.29h-1.8v-7.88h2.26L7.13,30.06z
	 M12.55,20.85c0.48,0,0.93-0.09,1.3-0.26l0.19,1.67c-0.47,0.23-1.19,0.38-1.8,0.38c-2.25,0-3.34-1.28-3.34-4.12
	c0-2.65,1.06-4.04,3.47-4.04c0.56,0,1.24,0.13,1.66,0.29l-0.2,1.74c-0.35-0.13-0.82-0.21-1.31-0.21c-1.17,0-1.46,0.49-1.46,2.22
	C11.05,20.34,11.38,20.85,12.55,20.85z M16.73,26.08l2.37,7.88h-2.29l-0.3-1.38h-2.14l-0.3,1.38h-2.18l2.33-7.88H16.73z
	 M16.13,30.87l-0.5-2.26l-0.16-0.84h-0.03l-0.18,0.84l-0.5,2.26H16.13z M21.66,32.33c0.65,0,0.9-0.22,0.9-0.64
	c0-1.01-3.13-0.69-3.13-3.27c0-1.38,0.84-2.47,2.78-2.47c0.73,0,1.5,0.14,2.07,0.38l-0.23,1.71c-0.6-0.18-1.2-0.28-1.7-0.28
	c-0.78,0-0.95,0.23-0.95,0.57c0,1.02,3.13,0.67,3.13,3.25c0,1.56-1.05,2.52-2.83,2.52c-0.83,0-1.65-0.19-2.29-0.55l0.26-1.74
	C20.32,32.13,20.97,32.33,21.66,32.33z M27,20.72l-0.04,1.78h-5.08v-7.88h4.94l0.04,1.81h-2.93v1.22h2.42v1.65h-2.42v1.43H27z
	 M28.53,25.95c0.56,0,1.24,0.13,1.66,0.29l-0.2,1.74c-0.35-0.13-0.82-0.21-1.31-0.21c-1.17,0-1.46,0.49-1.46,2.22
	c0,1.82,0.33,2.32,1.49,2.32c0.48,0,0.94-0.09,1.3-0.26l0.19,1.67c-0.47,0.23-1.19,0.38-1.8,0.38c-2.25,0-3.34-1.28-3.34-4.12
	C25.06,27.33,26.12,25.95,28.53,25.95z M27.71,19.82v-5.2h2.06v5.16c0,0.7,0.27,1.02,0.98,1.02c0.71,0,0.96-0.29,0.96-1.02v-5.16
	h2.05v5.2c0,1.85-0.99,2.82-3.01,2.82C28.73,22.63,27.71,21.67,27.71,19.82z M33.01,29.03h1.91v-2.95h2.06v7.88h-2.06v-3.09h-1.91
	v3.09h-2.05v-7.88h2.05V29.03z M39.87,20.72l-0.04,1.78h-5.08v-7.88h4.94l0.04,1.81H36.8v1.22h2.42v1.65H36.8v1.43H39.87z
	 M40.24,33.96h-2.11v-7.88h2.11V33.96z M45.65,30.17l0.02-0.01l-0.02-0.84l0.01-3.24h1.81v7.88h-1.46l-2.35-3.64l-0.44-0.73
	l-0.02,0.01l0.01,0.85v3.5H41.4v-7.88h1.72L45.65,30.17z M47.38,20.34c0.64,0.33,1.29,0.53,1.98,0.53c0.65,0,0.9-0.22,0.9-0.64
	c0-1.01-3.13-0.69-3.13-3.27c0-1.38,0.84-2.47,2.78-2.47c0.73,0,1.5,0.14,2.07,0.38l-0.23,1.71c-0.6-0.18-1.2-0.28-1.7-0.28
	c-0.78,0-0.95,0.23-0.95,0.57c0,1.02,3.13,0.67,3.13,3.25c0,1.56-1.05,2.52-2.83,2.52c-0.83,0-1.65-0.19-2.29-0.55L47.38,20.34z
	 M53.52,27.89h-2.93v1.22h2.42v1.65h-2.42v1.43h3.07l-0.04,1.78h-5.08v-7.88h4.94L53.52,27.89z M58.71,30.17l0.02-0.01l-0.02-0.84
	l0.01-3.24h1.81v7.88h-1.46l-2.35-3.64l-0.44-0.73l-0.02,0.01l0.01,0.85v3.5h-1.81v-7.88h1.72L58.71,30.17z M62.44,32.08
	c0.74,0,1.05,0.37,1.05,1.01c0,0.6-0.32,1-1.05,1s-1.06-0.28-1.06-1C61.38,32.45,61.7,32.08,62.44,32.08z M75.89,19.24h-2.93v-1.37
	h2.93V19.24z"/>
</svg>
