<?xml version="1.0" encoding="utf-8"?>
<!-- Generator: Adobe Illustrator 23.1.1, SVG Export Plug-In . SVG Version: 6.00 Build 0)  -->
<!DOCTYPE svg PUBLIC "-//W3C//DTD SVG 1.1//EN" "http://www.w3.org/Graphics/SVG/1.1/DTD/svg11.dtd" [
	<!ENTITY ns_extend "http://ns.adobe.com/Extensibility/1.0/">
	<!ENTITY ns_ai "http://ns.adobe.com/AdobeIllustrator/10.0/">
	<!ENTITY ns_graphs "http://ns.adobe.com/Graphs/1.0/">
	<!ENTITY ns_vars "http://ns.adobe.com/Variables/1.0/">
	<!ENTITY ns_imrep "http://ns.adobe.com/ImageReplacement/1.0/">
	<!ENTITY ns_sfw "http://ns.adobe.com/SaveForWeb/1.0/">
	<!ENTITY ns_custom "http://ns.adobe.com/GenericCustomNamespace/1.0/">
	<!ENTITY ns_adobe_xpath "http://ns.adobe.com/XPath/1.0/">
]>
<svg version="1.1" id="Ebene_1" xmlns:x="&ns_extend;" xmlns:i="&ns_ai;" xmlns:graph="&ns_graphs;"
	 xmlns="http://www.w3.org/2000/svg" xmlns:xlink="http://www.w3.org/1999/xlink" x="0px" y="0px" viewBox="0 0 62.16 30.72"
	 style="enable-background:new 0 0 62.16 30.72;" xml:space="preserve">
<style type="text/css">
	.st0{fill:none;}
</style>
<metadata>
	<sfw  xmlns="&ns_sfw;">
		<slices></slices>
		<sliceSourceBounds  bottomLeftOrigin="true" height="54" width="128" x="0" y="0"></sliceSourceBounds>
	</sfw>
</metadata>
<g id="Boundingbox">
	<rect y="0" class="st0" width="128" height="54"/>
</g>
<g id="Logo">
	<g>
		<rect id="Grafik" x="14" y="21.21" width="39.65" height="3.17"/>
		<g id="Wortmarke">
			<path d="M29.48,16.07c0,0.51-0.2,0.64-0.7,0.64h-0.71v-1.23h0.71C29.3,15.48,29.48,15.62,29.48,16.07L29.48,16.07z M31.24,16.01
				c0-1.2-0.84-1.78-2.43-1.78h-2.43v5.4h1.68v-1.78h0.7l0.91,1.78h1.99l-1.38-2.1C30.89,17.3,31.24,16.7,31.24,16.01L31.24,16.01z"
				/>
			<polygon points="44.82,18.29 44.82,17.47 47.01,17.47 47.01,16.29 44.82,16.29 44.82,15.57 47.47,15.57 47.44,14.22 43.13,14.22 
				43.13,19.62 47.55,19.62 47.58,18.29 			"/>
			<polygon points="42.12,19.62 42.12,14.22 40.44,14.22 40.44,16.22 38.64,16.22 38.64,14.22 36.96,14.22 36.96,19.62 38.64,19.62 
				38.64,17.59 40.44,17.59 40.44,19.62 			"/>
			<path d="M36.18,14.34c-0.39-0.13-0.94-0.22-1.45-0.22c-2.07,0-3,1.07-3,2.78c0,1.84,0.98,2.82,2.85,2.82
				c0.56,0,1.16-0.13,1.61-0.33l-0.18-1.24c-0.34,0.13-0.77,0.22-1.21,0.22c-1.03,0-1.3-0.35-1.3-1.47c0-1.06,0.25-1.41,1.28-1.41
				c0.48,0,0.88,0.07,1.23,0.17L36.18,14.34z"/>
			<path d="M51.45,16.07c0,0.51-0.2,0.64-0.7,0.64h-0.71v-1.23h0.71C51.27,15.48,51.45,15.62,51.45,16.07L51.45,16.07z M53.21,16.01
				c0-1.2-0.84-1.78-2.43-1.78h-2.43v5.4h1.68v-1.78h0.7l0.92,1.78h1.99l-1.38-2.1C52.87,17.3,53.21,16.7,53.21,16.01L53.21,16.01z"
				/>
			<path d="M23.29,17.46h-1.24l0.45-1.41l0.17-0.56h0.02l0.16,0.56L23.29,17.46z M25.86,19.62l-2.19-5.4h-1.95l-2.15,5.4h1.79
				l0.29-0.91h2.03l0.28,0.91H25.86z"/>
			<rect x="19.72" y="14.22" width="1.25" height="1.15"/>
			<rect x="24.42" y="14.22" width="1.25" height="1.15"/>
			<polygon points="17.53,14.22 16.22,16.24 15.68,16.24 15.68,14.22 14,14.22 14,19.62 15.68,19.62 15.68,17.51 16.2,17.51 
				17.51,19.62 19.57,19.62 17.7,16.78 19.47,14.22 			"/>
		</g>
	</g>
</g>
</svg>
