<?xml version="1.0" encoding="utf-8"?>
<!-- Generator: Adobe Illustrator 16.0.4, SVG Export Plug-In . SVG Version: 6.00 Build 0)  -->
<!DOCTYPE svg PUBLIC "-//W3C//DTD SVG 1.1//EN" "http://www.w3.org/Graphics/SVG/1.1/DTD/svg11.dtd">
<svg version="1.1" id="Ebene_1" xmlns="http://www.w3.org/2000/svg" xmlns:xlink="http://www.w3.org/1999/xlink" x="0px" y="0px"
	 width="129.687px" height="31.293px" viewBox="0 0 129.687 31.293" enable-background="new 0 0 129.687 31.293"
	 xml:space="preserve">
<g>
	<g>
		<rect fill="#248C96" width="129.687" height="31.293"/>
	</g>
	<g>
		<path fill="#FFFFFF" d="M13.8,20.892H9.71V10.386h4.118c2.255,0,3.404,1.051,3.404,2.719c0,1.105-0.504,1.82-1.289,2.199v0.027
			c1.051,0.35,1.611,1.162,1.611,2.465C17.554,19.688,16.419,20.892,13.8,20.892z M13.716,12.684h-1.359v1.849h1.387
			c0.63,0,0.854-0.238,0.854-0.952C14.599,12.894,14.36,12.684,13.716,12.684z M13.786,16.577h-1.429v2.074h1.485
			c0.687,0,0.938-0.225,0.938-1.051C14.781,16.872,14.557,16.577,13.786,16.577z"/>
		<path fill="#FFFFFF" d="M25.463,18.524l-0.056,2.367h-6.766V10.386h6.583l0.056,2.41h-3.908v1.625h3.222v2.199h-3.222v1.904
			H25.463z"/>
		<path fill="#FFFFFF" d="M32.687,16.592l2.045,4.3h-3.166l-1.401-3.754h-0.924v3.754H26.51V10.386h3.628
			c2.662,0,3.978,1.01,3.978,3.377C34.116,15.163,33.612,16.2,32.687,16.592z M30.194,12.655h-0.953v2.424h0.938
			c0.798,0,1.079-0.196,1.079-1.219C31.258,12.907,30.992,12.655,30.194,12.655z"/>
		<path fill="#FFFFFF" d="M40.834,19.058h-2.857l-0.406,1.834h-2.899l3.109-10.506h3.348l3.166,10.506h-3.054L40.834,19.058z
			 M39.167,13.763l-0.672,3.012h1.835l-0.672-3.012l-0.21-1.121h-0.042L39.167,13.763z"/>
		<path fill="#FFFFFF" d="M48.632,12.838v8.054h-2.788v-8.054h-2.381l0.056-2.452h7.438l0.056,2.452H48.632z"/>
		<path fill="#FFFFFF" d="M58.671,18.524l-0.056,2.367h-6.766V10.386h6.583l0.056,2.41h-3.908v1.625h3.222v2.199h-3.222v1.904
			H58.671z"/>
		<path fill="#FFFFFF" d="M65.867,20.892l-3.138-4.846l-0.588-0.967l-0.028,0.014l0.014,1.135v4.664h-2.409V10.386h2.297
			l3.375,5.449l0.028-0.014L65.39,14.7l0.014-4.314h2.409v10.506H65.867z"/>
		<path fill="#FFFFFF" d="M78.719,18.454l-0.07,2.438h-6.261V10.386h2.76v8.068H78.719z"/>
		<path fill="#FFFFFF" d="M85.032,19.058h-2.857l-0.406,1.834h-2.899l3.109-10.506h3.348l3.166,10.506h-3.054L85.032,19.058z
			 M83.365,13.763l-0.672,3.012h1.835l-0.672-3.012l-0.21-1.121h-0.042L83.365,13.763z"/>
		<path fill="#FFFFFF" d="M91.96,21.074c-1.106,0-2.199-0.252-3.054-0.729l0.35-2.325c0.854,0.434,1.723,0.7,2.633,0.7
			c0.869,0,1.205-0.294,1.205-0.854c0-1.345-4.174-0.924-4.174-4.355c0-1.836,1.121-3.293,3.712-3.293
			c0.966,0,2.003,0.183,2.759,0.505l-0.308,2.283c-0.798-0.238-1.597-0.378-2.269-0.378c-1.037,0-1.261,0.308-1.261,0.756
			c0,1.359,4.174,0.896,4.174,4.328C95.729,19.786,94.328,21.074,91.96,21.074z"/>
		<path fill="#FFFFFF" d="M99.268,21.074c-1.106,0-2.199-0.252-3.054-0.729l0.35-2.325c0.854,0.434,1.723,0.7,2.633,0.7
			c0.869,0,1.205-0.294,1.205-0.854c0-1.345-4.174-0.924-4.174-4.355c0-1.836,1.121-3.293,3.712-3.293
			c0.966,0,2.003,0.183,2.759,0.505l-0.308,2.283c-0.798-0.238-1.597-0.378-2.269-0.378c-1.037,0-1.261,0.308-1.261,0.756
			c0,1.359,4.174,0.896,4.174,4.328C103.036,19.786,101.635,21.074,99.268,21.074z"/>
		<path fill="#FFFFFF" d="M110.834,18.524l-0.056,2.367h-6.766V10.386h6.583l0.056,2.41h-3.908v1.625h3.222v2.199h-3.222v1.904
			H110.834z"/>
		<path fill="#FFFFFF" d="M118.03,20.892l-3.138-4.846l-0.588-0.967l-0.028,0.014l0.014,1.135v4.664h-2.409V10.386h2.297
			l3.375,5.449l0.028-0.014l-0.028-1.121l0.014-4.314h2.409v10.506H118.03z"/>
	</g>
</g>
</svg>
