<?xml version="1.0" encoding="utf-8"?>
<!-- Generator: Adobe Illustrator 16.0.4, SVG Export Plug-In . SVG Version: 6.00 Build 0)  -->
<!DOCTYPE svg PUBLIC "-//W3C//DTD SVG 1.1//EN" "http://www.w3.org/Graphics/SVG/1.1/DTD/svg11.dtd">
<svg version="1.1" id="Ebene_1" xmlns="http://www.w3.org/2000/svg" xmlns:xlink="http://www.w3.org/1999/xlink" x="0px" y="0px"
	 width="230.232px" height="190.475px" viewBox="0 0 230.232 190.475" enable-background="new 0 0 230.232 190.475"
	 xml:space="preserve">
<g>
	<path d="M23.195,0l3.16,18.756l0.479,3.2h0.12l0.359-3.2L29.994,0h7.799l-6.279,29.994h-9.357l-2.8-18.196l-0.399-3.239h-0.121
		l-0.439,3.239l-2.76,18.196H6.278L0,0h8.158l2.64,18.916l0.399,3.199h0.121l0.439-3.199L14.877,0H23.195z"/>
	<path d="M59.716,23.236l-0.16,6.758H40.238V0h18.797l0.16,6.879H48.037v4.639h9.199v6.279h-9.199v5.439H59.716z"/>
	<path d="M80.275,29.994l-8.958-13.838l-1.68-2.759l-0.08,0.04l0.04,3.239v13.317h-6.879V0h6.559l9.639,15.557l0.08-0.039l-0.08-3.2
		L78.956,0h6.879v29.994H80.275z"/>
	<path d="M107.476,29.994l-8.958-13.838l-1.68-2.759l-0.08,0.04l0.039,3.239v13.317h-6.879V0h6.56l9.638,15.557l0.08-0.039
		l-0.08-3.2L106.156,0h6.879v29.994H107.476z"/>
	<path d="M9.479,70.515c-3.16,0-6.279-0.72-8.719-2.079l1-6.64c2.439,1.239,4.918,2,7.518,2c2.48,0,3.439-0.84,3.439-2.44
		c0-3.839-11.918-2.639-11.918-12.438c0-5.238,3.2-9.398,10.599-9.398c2.76,0,5.72,0.52,7.879,1.439l-0.88,6.52
		c-2.279-0.68-4.559-1.08-6.479-1.08c-2.96,0-3.6,0.88-3.6,2.16c0,3.879,11.918,2.559,11.918,12.357
		C20.236,66.835,16.236,70.515,9.479,70.515z"/>
	<path d="M37.756,64.756h-8.158l-1.16,5.238h-8.278L29.037,40h9.559l9.039,29.994h-8.719L37.756,64.756z M32.997,49.639
		l-1.919,8.598h5.238l-1.92-8.598l-0.6-3.2h-0.12L32.997,49.639z"/>
	<path d="M71.115,59.797c0,7.038-3.76,10.718-11.438,10.718s-11.558-3.68-11.558-10.718V40h7.838v19.637
		c0,2.68,1.04,3.879,3.72,3.879c2.72,0,3.64-1.119,3.64-3.879V40h7.799V59.797z"/>
	<path d="M86.596,69.994H74.918V40h11.758c6.439,0,9.719,2.999,9.719,7.758c0,3.16-1.439,5.199-3.68,6.279v0.08
		c3,1,4.6,3.319,4.6,7.039C97.314,66.555,94.074,69.994,86.596,69.994z M86.355,46.559h-3.879v5.279h3.959
		c1.801,0,2.44-0.68,2.44-2.72C88.876,47.158,88.195,46.559,86.355,46.559z M86.557,57.677h-4.08v5.919h4.24
		c1.959,0,2.679-0.64,2.679-3C89.396,58.517,88.756,57.677,86.557,57.677z"/>
	<path d="M119.914,63.236l-0.16,6.758h-19.316V40h18.797l0.16,6.879h-11.158v4.639h9.198v6.279h-9.198v5.439H119.914z"/>
	<path d="M140.555,57.717l5.839,12.277h-9.038l-4-10.718h-2.639v10.718h-7.799V40h10.357c7.6,0,11.358,2.879,11.358,9.639
		C144.634,53.637,143.194,56.597,140.555,57.717z M133.436,46.479h-2.719v6.919h2.68c2.279,0,3.078-0.56,3.078-3.479
		C136.475,47.198,135.715,46.479,133.436,46.479z"/>
	<path d="M163.715,69.994l-5.64-12.197h-1.919v12.197h-7.799V40h7.799v11.598h2.079L163.795,40h8.758l-7.199,14.357l7.56,15.637
		H163.715z"/>
	<path d="M194.594,63.236l-0.16,6.758h-19.316V40h18.797l0.16,6.879h-11.158v4.639h9.197v6.279h-9.197v5.439H194.594z"/>
	<path d="M197.916,40h8.039v29.994h-8.039V40z"/>
	<path d="M223.434,46.998v22.996h-7.959V46.998h-6.799l0.16-6.998h21.236l0.16,6.998H223.434z"/>
	<path d="M11.918,100.676h-2.48v9.318H1.639V80h10.279c8.318,0,11.638,3.239,11.638,10.559
		C23.556,97.037,20.316,100.676,11.918,100.676z M11.918,86.519h-2.48v7.958h2.48c2.559,0,3.52-0.6,3.52-3.959
		C15.438,87.278,14.678,86.519,11.918,86.519z"/>
	<path d="M44.036,97.717l5.839,12.277h-9.039l-3.998-10.718h-2.641v10.718h-7.799V80h10.359c7.598,0,11.357,2.879,11.357,9.639
		C48.115,93.637,46.676,96.597,44.036,97.717z M36.918,86.479h-2.721v6.919h2.68c2.279,0,3.08-0.56,3.08-3.479
		C39.957,87.198,39.197,86.479,36.918,86.479z"/>
	<path d="M62.996,110.515c-8.639,0-12.558-4.56-12.558-15.518c0-10.998,3.759-15.478,12.558-15.478s12.559,4.479,12.559,15.478
		C75.555,106.275,71.795,110.515,62.996,110.515z M62.957,86.519c-3.28,0-4.32,1.36-4.32,8.479c0,7.159,1.08,8.599,4.4,8.599
		c3.318,0,4.318-1.48,4.318-8.599C67.355,87.838,66.355,86.519,62.957,86.519z"/>
	<path d="M77.358,109.994v-5.078l9.558-15.197l1.76-2.641l-0.039-0.08H77.598L77.799,80h20.036v5.599l-9.239,14.718l-1.759,2.6
		l0.04,0.119h11.038l-0.12,6.959H77.358z"/>
	<path d="M120.515,103.236l-0.16,6.758h-19.317V80h18.797l0.16,6.879h-11.158v4.639h9.199v6.279h-9.199v5.439H120.515z"/>
	<path d="M131.357,110.515c-3.16,0-6.279-0.72-8.719-2.079l1-6.64c2.439,1.239,4.918,2,7.518,2c2.48,0,3.439-0.84,3.439-2.44
		c0-3.839-11.918-2.639-11.918-12.438c0-5.238,3.2-9.398,10.599-9.398c2.76,0,5.72,0.52,7.879,1.439l-0.88,6.52
		c-2.279-0.68-4.559-1.08-6.479-1.08c-2.96,0-3.6,0.88-3.6,2.16c0,3.879,11.918,2.559,11.918,12.357
		C142.115,106.835,138.115,110.515,131.357,110.515z"/>
	<path d="M152.236,110.515c-3.159,0-6.278-0.72-8.719-2.079l1-6.64c2.439,1.239,4.92,2,7.52,2c2.479,0,3.439-0.84,3.439-2.44
		c0-3.839-11.918-2.639-11.918-12.438c0-5.238,3.199-9.398,10.598-9.398c2.76,0,5.719,0.52,7.879,1.439l-0.88,6.52
		c-2.28-0.68-4.56-1.08-6.479-1.08c-2.959,0-3.599,0.88-3.599,2.16c0,3.879,11.918,2.559,11.918,12.357
		C162.995,106.835,158.996,110.515,152.236,110.515z"/>
	<path d="M176.396,92.397v5.199h-11.157v-5.199H176.396z"/>
	<path d="M19.276,137.717l5.839,12.277h-9.039l-3.998-10.718H9.438v10.718H1.639V120h10.359c7.598,0,11.357,2.879,11.357,9.639
		C23.355,133.637,21.916,136.597,19.276,137.717z M12.158,126.479H9.438v6.919h2.68c2.279,0,3.08-0.56,3.08-3.479
		C15.197,127.198,14.438,126.479,12.158,126.479z"/>
	<path d="M46.556,143.236l-0.16,6.758H27.078V120h18.797l0.16,6.879H34.877v4.639h9.199v6.279h-9.199v5.439H46.556z"/>
	<path d="M67.636,143.035l-0.2,6.959H49.559V120h7.879v23.035H67.636z"/>
	<path d="M89.676,143.236l-0.16,6.758H70.198V120h18.797l0.16,6.879H77.997v4.639h9.198v6.279h-9.198v5.439H89.676z"/>
	<path d="M117.154,120l-8.879,29.994h-8.918L90.519,120h8.599l4.199,18.717l0.68,3.159h0.12l0.64-3.159l4.32-18.717H117.154z"/>
	<path d="M131.996,144.756h-8.159l-1.159,5.238h-8.279L123.277,120h9.559l9.038,29.994h-8.719L131.996,144.756z M127.236,129.639
		l-1.92,8.598h5.239l-1.919-8.598l-0.601-3.2h-0.12L127.236,129.639z"/>
	<path d="M161.435,149.994l-8.958-13.838l-1.68-2.759l-0.08,0.04l0.039,3.239v13.317h-6.879V120h6.56l9.638,15.557l0.08-0.039
		l-0.08-3.2L160.115,120h6.879v29.994H161.435z"/>
	<path d="M184.154,126.998v22.996h-7.959v-22.996h-6.799l0.16-6.998h21.236l0.16,6.998H184.154z"/>
	<path d="M1.959,160h8.039v29.995H1.959V160z"/>
	<path d="M22.237,190.515c-3.159,0-6.278-0.72-8.719-2.079l1-6.639c2.439,1.239,4.919,1.999,7.519,1.999
		c2.479,0,3.439-0.84,3.439-2.439c0-3.839-11.918-2.64-11.918-12.438c0-5.239,3.199-9.399,10.598-9.399
		c2.76,0,5.72,0.521,7.879,1.44l-0.879,6.519c-2.28-0.68-4.56-1.079-6.479-1.079c-2.96,0-3.599,0.88-3.599,2.159
		c0,3.88,11.918,2.56,11.918,12.358C32.996,186.836,28.996,190.515,22.237,190.515z"/>
	<path d="M48.236,166.999v22.996h-7.959v-22.996h-6.799l0.16-6.999h21.236l0.16,6.999H48.236z"/>
	<path d="M57.158,190.475c-2.8,0-4.039-1.079-4.039-3.799c0-2.439,1.239-3.84,4.039-3.84c2.799,0,3.999,1.4,3.999,3.84
		C61.157,188.955,59.957,190.475,57.158,190.475z"/>
</g>
</svg>
