<?xml version="1.0" encoding="utf-8"?>
<!-- Generator: Adobe Illustrator 16.0.4, SVG Export Plug-In . SVG Version: 6.00 Build 0)  -->
<!DOCTYPE svg PUBLIC "-//W3C//DTD SVG 1.1//EN" "http://www.w3.org/Graphics/SVG/1.1/DTD/svg11.dtd">
<svg version="1.1" id="Ebene_1" xmlns="http://www.w3.org/2000/svg" xmlns:xlink="http://www.w3.org/1999/xlink" x="0px" y="0px"
	 width="283.464px" height="74.286px" viewBox="0 0 283.464 74.286" enable-background="new 0 0 283.464 74.286"
	 xml:space="preserve">
<g id="Logo">
	<rect y="51.385" fill="#FFF000" width="283.464" height="22.899"/>
	<g>
		<path d="M110.651,13.955c0,3.654-1.441,4.582-4.994,4.582h-5.046V9.733h5.097C109.417,9.733,110.651,10.709,110.651,13.955
			L110.651,13.955z M123.266,13.49c0-8.601-6.023-12.771-17.352-12.771H88.56v38.619h12.049V26.622h4.996l6.539,12.719h14.211
			l-9.886-15.037C120.795,22.758,123.266,18.485,123.266,13.49L123.266,13.49z"/>
		<polygon points="220.335,29.813 220.335,23.944 236.042,23.944 236.042,15.5 220.335,15.5 220.335,10.35 239.337,10.35 
			239.132,0.721 208.289,0.721 208.289,39.34 239.9,39.34 240.107,29.813 		"/>
		<polygon points="201.029,39.34 201.029,0.721 189.029,0.721 189.029,14.985 176.21,14.985 176.21,0.721 164.164,0.721 
			164.164,39.34 176.21,39.34 176.21,24.819 189.029,24.819 189.029,39.34 		"/>
		<path d="M158.56,1.596C155.781,0.67,151.816,0,148.16,0c-14.829,0-21.421,7.672-21.421,19.875
			c0,13.182,7.004,20.186,20.392,20.186c3.967,0,8.291-0.926,11.535-2.368l-1.289-8.856c-2.475,0.979-5.459,1.598-8.648,1.598
			c-7.364,0-9.27-2.52-9.27-10.504c0-7.567,1.75-10.092,9.167-10.092c3.447,0,6.332,0.515,8.754,1.184L158.56,1.596z"/>
		<path d="M267.759,13.955c0,3.654-1.438,4.582-4.994,4.582h-5.047V9.733h5.102C266.525,9.733,267.759,10.709,267.759,13.955
			L267.759,13.955z M280.375,13.49c0-8.601-6.023-12.771-17.352-12.771h-17.354v38.619h12.047V26.622h4.996l6.537,12.719h14.211
			l-9.883-15.037C277.902,22.758,280.375,18.485,280.375,13.49L280.375,13.49z"/>
		<path d="M66.441,23.893h-8.856l3.244-10.094l1.185-4.018h0.155l1.133,4.018L66.441,23.893z M84.772,39.34L69.118,0.721H55.165
			L39.821,39.34h12.822l2.059-6.487h14.521l2.009,6.487H84.772z"/>
		<rect x="40.885" y="0.709" width="8.969" height="8.19"/>
		<rect x="74.497" y="0.709" width="8.969" height="8.19"/>
		<polygon points="25.23,0.721 15.91,15.19 12.048,15.19 12.048,0.721 0,0.721 0,39.338 12.048,39.338 12.048,24.254 15.756,24.254 
			25.126,39.338 39.803,39.338 26.467,19 39.081,0.721 		"/>
	</g>
</g>
</svg>
