<?xml version="1.0" encoding="utf-8"?>
<!-- Generator: Adobe Illustrator 16.0.0, SVG Export Plug-In . SVG Version: 6.00 Build 0)  -->
<!DOCTYPE svg PUBLIC "-//W3C//DTD SVG 1.1//EN" "http://www.w3.org/Graphics/SVG/1.1/DTD/svg11.dtd">
<svg version="1.1" xmlns="http://www.w3.org/2000/svg" xmlns:xlink="http://www.w3.org/1999/xlink" x="0px" y="0px"
	 width="335.083px" height="54px" viewBox="0 0 335.083 54" enable-background="new 0 0 335.083 54" xml:space="preserve">
<g id="Logo">
	<g>
		<g>
			<path fill="#EA5B0C" d="M21.444,29.89c-0.895,0.922-2.251,1.627-4.122,1.627c-1.87,0-3.199-0.705-4.095-1.627
				c-1.301-1.356-1.627-3.092-1.627-5.423c0-2.305,0.326-4.04,1.627-5.396c0.896-0.922,2.225-1.627,4.095-1.627
				c1.871,0,3.228,0.705,4.122,1.627c1.301,1.356,1.627,3.091,1.627,5.396C23.071,26.798,22.745,28.533,21.444,29.89z
				 M19.356,20.697c-0.516-0.515-1.221-0.786-2.034-0.786s-1.491,0.271-2.007,0.786c-0.84,0.841-0.949,2.278-0.949,3.769
				s0.109,2.928,0.949,3.769c0.516,0.515,1.193,0.813,2.007,0.813s1.519-0.299,2.034-0.813c0.84-0.841,0.949-2.278,0.949-3.769
				S20.196,21.538,19.356,20.697z"/>
		</g>
		<g>
			<path fill="#EA5B0C" d="M29.901,31.517c-2.25,0-4.148-0.38-5.775-1.979l1.817-1.817c1.111,1.14,2.603,1.438,3.958,1.438
				c1.682,0,3.01-0.597,3.01-1.898c0-0.921-0.515-1.518-1.844-1.626l-2.195-0.19c-2.576-0.217-4.068-1.383-4.068-3.796
				c0-2.685,2.305-4.203,5.18-4.203c2.061,0,3.823,0.434,5.098,1.546l-1.735,1.762c-0.868-0.732-2.088-1.003-3.39-1.003
				c-1.654,0-2.494,0.732-2.494,1.762c0,0.813,0.434,1.437,1.898,1.573l2.168,0.19c2.576,0.217,4.095,1.437,4.095,3.877
				C35.623,30.024,33.183,31.517,29.901,31.517z"/>
			<path fill="#EA5B0C" d="M43.624,31.517c-3.091,0-6.128-1.898-6.128-7.05s3.037-7.023,6.128-7.023
				c1.898,0,3.227,0.542,4.528,1.925l-1.897,1.844c-0.868-0.949-1.546-1.301-2.631-1.301c-1.057,0-1.952,0.434-2.549,1.22
				c-0.596,0.759-0.813,1.735-0.813,3.335s0.218,2.603,0.813,3.362c0.597,0.787,1.492,1.221,2.549,1.221
				c1.085,0,1.763-0.353,2.631-1.302l1.897,1.816C46.851,30.947,45.522,31.517,43.624,31.517z"/>
			<path fill="#EA5B0C" d="M57.97,31.354v-1.247c-1.003,1.003-1.951,1.41-3.66,1.41c-1.708,0-2.847-0.407-3.688-1.248
				c-0.705-0.731-1.084-1.789-1.084-2.955c0-2.305,1.6-3.959,4.744-3.959h3.634v-0.976c0-1.735-0.868-2.576-3.01-2.576
				c-1.519,0-2.251,0.353-3.01,1.329l-1.817-1.708c1.303-1.519,2.658-1.979,4.936-1.979c3.77,0,5.667,1.6,5.667,4.718v9.192H57.97z
				 M57.916,25.28h-3.227c-1.627,0-2.468,0.732-2.468,1.979c0,1.248,0.787,1.953,2.521,1.953c1.059,0,1.844-0.082,2.576-0.787
				c0.406-0.406,0.597-1.058,0.597-2.033V25.28z"/>
		</g>
		<g>
			<path fill="#EA5B0C" d="M71.7,20.833c-0.624-0.624-1.112-0.922-2.061-0.922c-1.492,0-2.739,1.193-2.739,3.091v8.352h-2.766
				V17.606h2.712v1.491c0.705-0.976,2.115-1.654,3.66-1.654c1.328,0,2.332,0.353,3.281,1.302L71.7,20.833z"/>
		</g>
		<path fill="#EA5B0C" d="M80.934,31.521c-3.552,0-5.749-2.551-5.749-6.697c0-4.149,2.197-6.699,5.749-6.699
			c1.79,0,2.901,0.461,4.312,2.007L84.295,21c-1.112-1.247-1.979-1.654-3.361-1.654c-1.465,0-2.685,0.597-3.471,1.735
			c-0.651,0.949-0.896,1.979-0.896,3.744c0,1.761,0.244,2.791,0.896,3.74c0.786,1.141,2.006,1.736,3.471,1.736
			c1.382,0,2.249-0.406,3.361-1.654l0.95,0.867C83.835,31.06,82.724,31.521,80.934,31.521"/>
		<path fill="#EA5B0C" d="M96.002,31.356V23.25c0-2.521-1.275-3.905-3.605-3.905c-2.334,0-3.688,1.437-3.688,3.905v8.106h-1.383
			v-16.59h1.383v5.068c0.976-1.139,2.276-1.708,3.85-1.708c2.983,0,4.825,1.87,4.825,4.88v8.35H96.002L96.002,31.356z"/>
		<path fill="#EA5B0C" d="M108.168,25.121H104.1c-2.25,0-3.334,0.896-3.334,2.63c0,1.734,1.057,2.549,3.417,2.549
			c1.192,0,2.331-0.107,3.254-1.002c0.488-0.463,0.731-1.277,0.731-2.496V25.121L108.168,25.121z M108.168,31.356v-1.301
			c-1.11,1.111-2.143,1.465-3.985,1.465c-1.927,0-3.011-0.326-3.85-1.193c-0.596-0.623-0.95-1.572-0.95-2.549
			c0-2.386,1.709-3.77,4.557-3.77h4.229v-1.464c0-2.087-1.031-3.2-3.688-3.2c-1.844,0-2.793,0.461-3.605,1.653l-1.004-0.868
			c1.111-1.545,2.495-2.005,4.609-2.005c3.444,0,5.07,1.544,5.07,4.283v8.947H108.168L108.168,31.356z"/>
		<path fill="#EA5B0C" d="M120.969,20.375c-0.785-0.786-1.382-1.03-2.467-1.03c-2.252,0-3.498,1.844-3.498,3.959v8.053h-1.383
			V18.288h1.383v1.735c0.76-1.22,2.277-1.897,3.823-1.897c1.247,0,2.223,0.325,3.144,1.247L120.969,20.375L120.969,20.375z"/>
		<polygon fill="#EA5B0C" points="128.518,18.288 129.9,18.288 129.9,31.356 128.518,31.356 128.518,18.288 		"/>
		<polygon fill="#EA5B0C" points="123.568,14.782 124.949,14.782 124.949,31.356 123.568,31.356 123.568,14.782 		"/>
		<path fill="#EA5B0C" d="M141.939,21.542c-0.569-1.355-1.898-2.197-3.39-2.197s-2.819,0.841-3.388,2.197
			c-0.325,0.813-0.408,1.22-0.46,2.467h7.698C142.346,22.762,142.264,22.355,141.939,21.542 M134.702,25.121
			c0,3.308,1.487,5.152,4.256,5.152c1.544,0,2.495-0.461,3.604-1.572l1.031,0.812c-1.33,1.33-2.549,2.008-4.719,2.008
			c-3.604,0-5.559-2.332-5.559-6.698c0-4.204,1.954-6.697,5.233-6.697c3.255,0,5.233,2.385,5.233,6.371v0.624H134.702
			L134.702,25.121z"/>
		<path fill="#EA5B0C" d="M160.189,16.705c0,2.783-2.256,5.039-5.04,5.039c-2.783,0-5.042-2.256-5.042-5.039
			c0-2.786,2.259-5.041,5.042-5.041C157.934,11.664,160.189,13.919,160.189,16.705"/>
		<path fill="#EA5B0C" d="M162.033,16.705c0,3.794-3.088,6.882-6.884,6.882c-3.794,0-6.882-3.088-6.882-6.882
			c0-3.795,3.088-6.882,6.882-6.882C158.945,9.823,162.033,12.91,162.033,16.705 M155.149,8.672c-4.429,0-8.033,3.604-8.033,8.033
			c0,4.429,3.604,8.033,8.033,8.033s8.033-3.604,8.033-8.033C163.183,12.275,159.578,8.672,155.149,8.672"/>
		<g>
			<path fill="#858584" d="M15.081,43.179c-0.262,0.262-0.687,0.425-1.147,0.425c-0.497,0-0.849-0.136-1.174-0.497v0.442h-1.139
				v-6.432h1.175v2.141c0.307-0.343,0.659-0.47,1.138-0.47c0.461,0,0.886,0.163,1.147,0.425c0.47,0.47,0.479,1.273,0.479,1.979
				C15.56,41.896,15.551,42.709,15.081,43.179z M13.591,39.846c-0.705,0-0.795,0.578-0.795,1.346s0.09,1.354,0.795,1.354
				c0.704,0,0.795-0.587,0.795-1.354S14.295,39.846,13.591,39.846z"/>
			<path fill="#858584" d="M19.237,40.125c-0.181-0.181-0.334-0.279-0.623-0.279c-0.361,0-0.759,0.271-0.759,0.867v2.836h-1.175
				v-4.706h1.147v0.451c0.226-0.271,0.678-0.506,1.184-0.506c0.46,0,0.786,0.118,1.11,0.442L19.237,40.125z"/>
			<path fill="#858584" d="M23.204,43.549v-0.406c-0.316,0.316-0.615,0.451-1.156,0.451c-0.533,0-0.922-0.135-1.202-0.415
				c-0.253-0.263-0.388-0.642-0.388-1.058c0-0.749,0.515-1.363,1.607-1.363h1.111v-0.235c0-0.515-0.253-0.74-0.877-0.74
				c-0.451,0-0.659,0.108-0.902,0.388l-0.75-0.731c0.461-0.506,0.912-0.65,1.698-0.65c1.318,0,2.005,0.561,2.005,1.662v3.099H23.204
				z M23.177,41.562h-0.931c-0.425,0-0.659,0.198-0.659,0.533c0,0.325,0.217,0.542,0.678,0.542c0.324,0,0.532-0.027,0.74-0.227
				c0.127-0.117,0.172-0.307,0.172-0.596V41.562z"/>
			<path fill="#858584" d="M28.354,43.549v-2.846c0-0.641-0.406-0.857-0.776-0.857c-0.371,0-0.786,0.217-0.786,0.857v2.846h-1.175
				v-4.706h1.147v0.434c0.308-0.325,0.741-0.488,1.175-0.488c0.469,0,0.849,0.153,1.11,0.416c0.38,0.379,0.479,0.821,0.479,1.337
				v3.008H28.354z"/>
			<path fill="#858584" d="M33.395,43.549v-0.442c-0.325,0.361-0.668,0.497-1.165,0.497c-0.461,0-0.895-0.163-1.156-0.425
				c-0.47-0.47-0.479-1.283-0.479-1.987c0-0.705,0.009-1.509,0.479-1.979c0.262-0.262,0.687-0.425,1.147-0.425
				c0.479,0,0.84,0.127,1.147,0.47v-2.141h1.174v6.432H33.395z M32.563,39.846c-0.704,0-0.795,0.578-0.795,1.346
				s0.091,1.354,0.795,1.354c0.705,0,0.805-0.587,0.805-1.354S33.269,39.846,32.563,39.846z"/>
		</g>
		<g>
			<path fill="#EA5B0C" d="M37.954,43.549v-6.432h1.256v6.432H37.954z"/>
			<path fill="#EA5B0C" d="M40.709,43.549v-6.432h1.256v6.432H40.709z"/>
		</g>
		<g>
			<path fill="#858584" d="M47.337,43.604c-0.939,0-2.104-0.506-2.104-2.412s1.165-2.403,2.104-2.403
				c0.65,0,1.139,0.199,1.555,0.633l-0.795,0.795c-0.244-0.263-0.452-0.37-0.76-0.37c-0.279,0-0.496,0.099-0.668,0.307
				c-0.181,0.226-0.262,0.542-0.262,1.039c0,0.496,0.081,0.822,0.262,1.048c0.172,0.208,0.389,0.307,0.668,0.307
				c0.308,0,0.516-0.108,0.76-0.37l0.795,0.786C48.476,43.396,47.987,43.604,47.337,43.604z"/>
		</g>
		<g>
			<path fill="#858584" d="M52.904,43.025c-0.289,0.307-0.768,0.578-1.463,0.578c-0.696,0-1.165-0.271-1.454-0.578
				c-0.425-0.443-0.533-0.977-0.533-1.834c0-0.85,0.108-1.383,0.533-1.825c0.289-0.307,0.758-0.578,1.454-0.578
				c0.695,0,1.174,0.271,1.463,0.578c0.425,0.442,0.533,0.976,0.533,1.825C53.438,42.049,53.329,42.582,52.904,43.025z
				 M51.992,40.053c-0.136-0.135-0.316-0.207-0.551-0.207c-0.235,0-0.407,0.072-0.542,0.207c-0.244,0.244-0.271,0.65-0.271,1.139
				c0,0.487,0.027,0.903,0.271,1.146c0.135,0.136,0.307,0.208,0.542,0.208c0.234,0,0.415-0.072,0.551-0.208
				c0.244-0.243,0.271-0.659,0.271-1.146C52.263,40.703,52.236,40.297,51.992,40.053z"/>
			<path fill="#858584" d="M60.032,43.549v-2.846c0-0.641-0.406-0.857-0.776-0.857c-0.361,0-0.786,0.217-0.786,0.83v2.873h-1.174
				v-2.846c0-0.641-0.407-0.857-0.777-0.857s-0.786,0.217-0.786,0.857v2.846h-1.174v-4.706h1.147v0.434
				c0.307-0.316,0.74-0.488,1.174-0.488c0.523,0,0.948,0.19,1.246,0.597c0.398-0.416,0.822-0.597,1.41-0.597
				c0.469,0,0.894,0.153,1.156,0.416c0.379,0.379,0.515,0.821,0.515,1.337v3.008H60.032z"/>
			<path fill="#858584" d="M67.947,43.549v-2.846c0-0.641-0.406-0.857-0.776-0.857c-0.361,0-0.786,0.217-0.786,0.83v2.873H65.21
				v-2.846c0-0.641-0.406-0.857-0.776-0.857s-0.786,0.217-0.786,0.857v2.846h-1.174v-4.706h1.146v0.434
				c0.308-0.316,0.741-0.488,1.175-0.488c0.524,0,0.948,0.19,1.247,0.597c0.396-0.416,0.821-0.597,1.408-0.597
				c0.471,0,0.895,0.153,1.156,0.416c0.38,0.379,0.516,0.821,0.516,1.337v3.008H67.947z"/>
			<path fill="#858584" d="M73.098,43.549v-0.434c-0.307,0.325-0.74,0.488-1.174,0.488c-0.47,0-0.85-0.154-1.111-0.416
				c-0.38-0.379-0.479-0.822-0.479-1.337v-3.008h1.174v2.845c0,0.642,0.407,0.858,0.777,0.858s0.786-0.217,0.786-0.858v-2.845h1.174
				v4.706H73.098z"/>
			<path fill="#858584" d="M78.302,43.549v-2.846c0-0.641-0.406-0.857-0.777-0.857c-0.37,0-0.785,0.217-0.785,0.857v2.846h-1.175
				v-4.706h1.147v0.434c0.307-0.325,0.74-0.488,1.174-0.488c0.471,0,0.85,0.153,1.111,0.416c0.38,0.379,0.479,0.821,0.479,1.337
				v3.008H78.302z"/>
			<path fill="#858584" d="M80.724,38.039v-0.958h1.201v0.958H80.724z M80.742,43.549v-4.706h1.174v4.706H80.742z"/>
			<path fill="#858584" d="M85.097,43.604c-0.939,0-2.105-0.506-2.105-2.412s1.166-2.403,2.105-2.403
				c0.65,0,1.138,0.199,1.553,0.633l-0.795,0.795c-0.243-0.263-0.451-0.37-0.758-0.37c-0.28,0-0.497,0.099-0.669,0.307
				c-0.181,0.226-0.262,0.542-0.262,1.039c0,0.496,0.081,0.822,0.262,1.048c0.172,0.208,0.389,0.307,0.669,0.307
				c0.307,0,0.515-0.108,0.758-0.37l0.795,0.786C86.234,43.396,85.747,43.604,85.097,43.604z"/>
			<path fill="#858584" d="M89.975,43.549v-0.406c-0.316,0.316-0.615,0.451-1.156,0.451c-0.533,0-0.922-0.135-1.201-0.415
				c-0.253-0.263-0.388-0.642-0.388-1.058c0-0.749,0.516-1.363,1.607-1.363h1.11v-0.235c0-0.515-0.252-0.74-0.877-0.74
				c-0.45,0-0.658,0.108-0.902,0.388l-0.749-0.731c0.46-0.506,0.911-0.65,1.698-0.65c1.319,0,2.004,0.561,2.004,1.662v3.099H89.975z
				 M89.947,41.562h-0.93c-0.426,0-0.66,0.198-0.66,0.533c0,0.325,0.217,0.542,0.678,0.542c0.324,0,0.533-0.027,0.74-0.227
				c0.128-0.117,0.172-0.307,0.172-0.596V41.562z"/>
			<path fill="#858584" d="M93.859,43.549c-0.956,0-1.363-0.678-1.363-1.346v-2.331h-0.497v-0.894h0.497v-1.392h1.174v1.392h0.832
				v0.894H93.67v2.259c0,0.271,0.127,0.424,0.407,0.424h0.425v0.994H93.859z"/>
			<path fill="#858584" d="M95.55,38.039v-0.958h1.2v0.958H95.55z M95.566,43.549v-4.706h1.176v4.706H95.566z"/>
			<path fill="#858584" d="M101.305,43.025c-0.289,0.307-0.768,0.578-1.463,0.578c-0.696,0-1.166-0.271-1.455-0.578
				c-0.424-0.443-0.533-0.977-0.533-1.834c0-0.85,0.109-1.383,0.533-1.825c0.289-0.307,0.759-0.578,1.455-0.578
				c0.695,0,1.174,0.271,1.463,0.578c0.424,0.442,0.533,0.976,0.533,1.825C101.838,42.049,101.729,42.582,101.305,43.025z
				 M100.393,40.053c-0.137-0.135-0.315-0.207-0.551-0.207c-0.236,0-0.408,0.072-0.542,0.207c-0.245,0.244-0.271,0.65-0.271,1.139
				c0,0.487,0.026,0.903,0.271,1.146c0.134,0.136,0.306,0.208,0.542,0.208c0.235,0,0.414-0.072,0.551-0.208
				c0.244-0.243,0.27-0.659,0.27-1.146C100.662,40.703,100.637,40.297,100.393,40.053z"/>
			<path fill="#858584" d="M105.695,43.549v-2.846c0-0.641-0.406-0.857-0.777-0.857s-0.785,0.217-0.785,0.857v2.846h-1.175v-4.706
				h1.147v0.434c0.307-0.325,0.74-0.488,1.174-0.488c0.47,0,0.85,0.153,1.111,0.416c0.38,0.379,0.479,0.821,0.479,1.337v3.008
				H105.695z"/>
		</g>
		<g>
			<path fill="#EA5B0C" d="M110.281,43.549v-6.432h1.256v6.432H110.281z"/>
			<path fill="#EA5B0C" d="M113.037,43.549v-6.432h1.256v6.432H113.037z"/>
		</g>
		<g>
			<path fill="#858584" d="M120.404,43.549v-0.442c-0.326,0.361-0.667,0.497-1.166,0.497c-0.46,0-0.895-0.163-1.155-0.425
				c-0.47-0.47-0.479-1.283-0.479-1.987c0-0.705,0.01-1.509,0.479-1.979c0.261-0.262,0.688-0.425,1.147-0.425
				c0.479,0,0.84,0.127,1.146,0.47v-2.141h1.174v6.432H120.404z M119.572,39.846c-0.702,0-0.794,0.578-0.794,1.346
				s0.092,1.354,0.794,1.354c0.706,0,0.805-0.587,0.805-1.354S120.278,39.846,119.572,39.846z"/>
			<path fill="#858584" d="M123.793,41.562c0,0.605,0.371,1.048,1.029,1.048c0.516,0,0.769-0.145,1.066-0.442l0.713,0.695
				c-0.478,0.479-0.939,0.741-1.787,0.741c-1.111,0-2.178-0.506-2.178-2.412c0-1.536,0.832-2.403,2.051-2.403
				c1.312,0,2.051,0.958,2.051,2.249v0.524H123.793z M125.473,40.252c-0.125-0.28-0.389-0.488-0.785-0.488
				c-0.398,0-0.659,0.208-0.784,0.488c-0.073,0.172-0.1,0.298-0.11,0.506h1.79C125.572,40.55,125.545,40.424,125.473,40.252z"/>
			<path fill="#858584" d="M129.367,43.604c-0.742,0-1.409-0.082-2.005-0.678l0.767-0.768c0.389,0.388,0.896,0.442,1.256,0.442
				c0.406,0,0.831-0.136,0.831-0.488c0-0.234-0.125-0.397-0.497-0.434l-0.74-0.072c-0.85-0.081-1.373-0.451-1.373-1.318
				c0-0.976,0.857-1.5,1.814-1.5c0.733,0,1.348,0.127,1.799,0.552l-0.723,0.731c-0.271-0.244-0.688-0.316-1.093-0.316
				c-0.47,0-0.669,0.217-0.669,0.452c0,0.171,0.073,0.37,0.488,0.406l0.74,0.072c0.93,0.09,1.4,0.587,1.4,1.382
				C131.363,43.106,130.479,43.604,129.367,43.604z"/>
			<path fill="#858584" d="M132.333,38.039v-0.958h1.2v0.958H132.333z M132.35,43.549v-4.706h1.175v4.706H132.35z"/>
			<path fill="#858584" d="M136.459,45.328c-0.722,0-1.218-0.145-1.707-0.614l0.732-0.74c0.262,0.253,0.523,0.361,0.922,0.361
				c0.703,0,0.947-0.497,0.947-0.976v-0.479c-0.307,0.343-0.658,0.469-1.119,0.469c-0.46,0-0.859-0.153-1.121-0.415
				c-0.441-0.442-0.479-1.048-0.479-1.87s0.037-1.418,0.479-1.86c0.262-0.263,0.668-0.416,1.129-0.416
				c0.499,0,0.822,0.136,1.148,0.497v-0.442h1.138v4.534C138.528,44.506,137.725,45.328,136.459,45.328z M136.577,39.846
				c-0.696,0-0.769,0.596-0.769,1.219s0.072,1.229,0.769,1.229c0.697,0,0.776-0.605,0.776-1.229S137.274,39.846,136.577,39.846z"/>
			<path fill="#858584" d="M142.584,43.549v-2.846c0-0.641-0.405-0.857-0.776-0.857c-0.37,0-0.786,0.217-0.786,0.857v2.846h-1.174
				v-4.706h1.147v0.434c0.306-0.325,0.739-0.488,1.173-0.488c0.471,0,0.85,0.153,1.111,0.416c0.382,0.379,0.479,0.821,0.479,1.337
				v3.008H142.584z"/>
		</g>
	</g>
</g>
<g id="Bannertool">
	<g>
		<path fill="#858584" d="M198.812,35.672c-1.358,0-2.073-0.947-2.073-2.251v-5.683h-1.179V27.06h1.179v-2.752h0.911v2.752h1.948
			v0.679h-1.948v5.7c0,0.894,0.411,1.43,1.322,1.43h0.626v0.804H198.812z"/>
		<path fill="#858584" d="M207.515,34.832c-0.607,0.607-1.43,0.947-2.395,0.947s-1.787-0.34-2.395-0.947
			c-0.911-0.911-1.072-2.233-1.072-3.467c0-1.232,0.161-2.555,1.072-3.466c0.607-0.607,1.43-0.947,2.395-0.947
			s1.787,0.34,2.395,0.947c0.911,0.911,1.072,2.233,1.072,3.466C208.587,32.599,208.426,33.921,207.515,34.832z M206.907,28.488
			c-0.465-0.464-1.09-0.732-1.787-0.732s-1.322,0.269-1.787,0.732c-0.714,0.715-0.768,1.877-0.768,2.877
			c0,1.001,0.054,2.162,0.768,2.877c0.465,0.465,1.09,0.732,1.787,0.732s1.322-0.268,1.787-0.732
			c0.715-0.715,0.769-1.876,0.769-2.877C207.676,30.365,207.622,29.203,206.907,28.488z"/>
		<path fill="#858584" d="M216.916,34.832c-0.607,0.607-1.43,0.947-2.395,0.947s-1.787-0.34-2.395-0.947
			c-0.911-0.911-1.072-2.233-1.072-3.467c0-1.232,0.161-2.555,1.072-3.466c0.607-0.607,1.43-0.947,2.395-0.947
			s1.787,0.34,2.395,0.947c0.911,0.911,1.072,2.233,1.072,3.466C217.988,32.599,217.827,33.921,216.916,34.832z M216.309,28.488
			c-0.465-0.464-1.09-0.732-1.787-0.732c-0.696,0-1.322,0.269-1.787,0.732c-0.714,0.715-0.768,1.877-0.768,2.877
			c0,1.001,0.054,2.162,0.768,2.877c0.465,0.465,1.091,0.732,1.787,0.732c0.697,0,1.322-0.268,1.787-0.732
			c0.715-0.715,0.769-1.876,0.769-2.877C217.077,30.365,217.023,29.203,216.309,28.488z"/>
		<path fill="#858584" d="M222.637,35.672c-1.395,0-2.073-0.894-2.073-2.233V22.95h0.911v10.471c0,0.965,0.304,1.447,1.322,1.447
			h0.626v0.804H222.637z"/>
		<path fill="#858584" d="M228.374,35.779c-1.501,0-2.609-0.394-3.484-1.233l0.625-0.625c0.68,0.715,1.591,1.054,2.823,1.054
			c1.68,0,2.591-0.589,2.591-1.751c0-0.894-0.518-1.34-1.644-1.447l-1.43-0.125c-1.733-0.143-2.591-0.911-2.591-2.251
			c0-1.483,1.215-2.448,3.091-2.448c1.18,0,2.27,0.34,3.021,0.911l-0.607,0.607c-0.661-0.482-1.466-0.732-2.413-0.732
			c-1.411,0-2.197,0.607-2.197,1.662c0,0.893,0.536,1.34,1.751,1.447l1.394,0.125c1.43,0.125,2.52,0.571,2.52,2.251
			C231.822,34.796,230.482,35.779,228.374,35.779z"/>
	</g>
	<g>
		<path fill="#EA5B0C" d="M273.559,35.028c-0.446,0.447-1.215,0.751-2.108,0.751c-0.965,0-1.805-0.215-2.555-1.215v1.107h-0.911
			V22.95h0.911v5.218c0.75-1.002,1.59-1.216,2.555-1.216c0.894,0,1.662,0.304,2.108,0.751c0.876,0.875,1.108,2.305,1.108,3.662
			C274.667,32.724,274.435,34.153,273.559,35.028z M271.325,27.756c-2.108,0-2.43,1.823-2.43,3.609c0,1.787,0.321,3.609,2.43,3.609
			s2.431-1.822,2.431-3.609C273.756,29.579,273.434,27.756,271.325,27.756z"/>
		<path fill="#EA5B0C" d="M282.692,35.672v-0.857c-0.732,0.732-1.412,0.965-2.627,0.965c-1.269,0-1.983-0.215-2.537-0.786
			c-0.394-0.411-0.625-1.036-0.625-1.68c0-1.572,1.125-2.483,3.001-2.483h2.788v-0.965c0-1.377-0.679-2.109-2.431-2.109
			c-1.215,0-1.84,0.305-2.376,1.09l-0.661-0.571c0.732-1.019,1.644-1.322,3.037-1.322c2.27,0,3.342,1.019,3.342,2.823v5.896H282.692
			z M282.692,31.562h-2.681c-1.482,0-2.197,0.59-2.197,1.733s0.696,1.679,2.251,1.679c0.786,0,1.537-0.071,2.145-0.661
			c0.321-0.304,0.482-0.84,0.482-1.644V31.562z"/>
		<path fill="#EA5B0C" d="M292.72,35.672v-5.343c0-1.661-0.84-2.573-2.377-2.573c-1.536,0-2.43,0.947-2.43,2.573v5.343h-0.911V27.06
			h0.911v1.019c0.644-0.75,1.501-1.126,2.537-1.126c0.965,0,1.733,0.286,2.287,0.822c0.572,0.554,0.894,1.376,0.894,2.394v5.504
			H292.72z"/>
		<path fill="#EA5B0C" d="M302.711,35.672v-5.343c0-1.661-0.84-2.573-2.377-2.573c-1.536,0-2.43,0.947-2.43,2.573v5.343h-0.911
			V27.06h0.911v1.019c0.644-0.75,1.501-1.126,2.537-1.126c0.965,0,1.733,0.286,2.287,0.822c0.572,0.554,0.894,1.376,0.894,2.394
			v5.504H302.711z"/>
		<path fill="#EA5B0C" d="M307.396,31.562c0,2.18,0.982,3.395,2.805,3.395c1.019,0,1.645-0.304,2.377-1.036l0.679,0.536
			c-0.876,0.875-1.68,1.322-3.109,1.322c-2.376,0-3.663-1.537-3.663-4.414c0-2.77,1.287-4.413,3.449-4.413
			c2.144,0,3.448,1.572,3.448,4.199v0.411H307.396z M312.166,29.203c-0.375-0.893-1.251-1.447-2.233-1.447
			c-0.983,0-1.858,0.555-2.233,1.447c-0.215,0.537-0.269,0.805-0.304,1.627h5.074C312.434,30.008,312.38,29.74,312.166,29.203z"/>
		<path fill="#EA5B0C" d="M321.174,28.436c-0.518-0.519-0.911-0.68-1.626-0.68c-1.482,0-2.305,1.215-2.305,2.609v5.307h-0.911V27.06
			h0.911v1.144c0.5-0.805,1.501-1.251,2.52-1.251c0.821,0,1.465,0.214,2.072,0.822L321.174,28.436z"/>
	</g>
	<line fill="none" stroke="#858584" stroke-width="0.5" stroke-miterlimit="10" x1="178.078" y1="17.333" x2="178.078" y2="43.5"/>
	<line fill="none" stroke="#858584" stroke-width="0.5" stroke-miterlimit="10" x1="249.538" y1="17.333" x2="249.538" y2="43.5"/>
</g>
</svg>
