<svg enable-background="new 0 0 244.83 157.04" viewBox="0 0 244.83 157.04" xmlns="http://www.w3.org/2000/svg"><g clip-rule="evenodd" fill-rule="evenodd"><path d="m56.53 28.74c1.98-.84 3.06-3.06 3.06-6.06 0-5.07-2.82-7.23-8.52-7.23h-7.77v22.5h5.85v-8.04h1.98l3 8.04h6.78zm-5.37-3.24h-2.01v-5.19h2.04c1.71 0 2.28.54 2.28 2.58 0 2.19-.6 2.61-2.31 2.61z"/><path d="m71.12 15.09c-6.6 0-9.42 3.36-9.42 11.61 0 8.22 2.94 11.64 9.42 11.64 6.6 0 9.42-3.18 9.42-11.64 0-8.25-2.82-11.61-9.42-11.61zm.03 18.06c-2.49 0-3.3-1.08-3.3-6.45 0-5.34.78-6.36 3.24-6.36 2.55 0 3.3.99 3.3 6.36 0 5.34-.75 6.45-3.24 6.45z"/><path d="m96.65 26.04v-.06c1.68-.81 2.76-2.34 2.76-4.71 0-3.57-2.46-5.82-7.29-5.82h-8.82v22.5h8.76c5.61 0 8.04-2.58 8.04-6.63 0-2.79-1.2-4.53-3.45-5.28zm-7.68-5.67h2.91c1.38 0 1.89.45 1.89 1.92 0 1.53-.48 2.04-1.83 2.04h-2.97zm3.18 12.78h-3.18v-4.44h3.06c1.65 0 2.13.63 2.13 2.19 0 1.77-.54 2.25-2.01 2.25z"/><path d="m107.97 30.18c0 2.01.78 2.91 2.79 2.91 2.04 0 2.73-.84 2.73-2.91v-14.73h5.85v14.85c0 5.28-2.82 8.04-8.58 8.04s-8.67-2.76-8.67-8.04v-14.85h5.88z"/><path d="m128.03 33.3c1.86 0 2.58-.63 2.58-1.83 0-2.88-8.94-1.98-8.94-9.33 0-3.93 2.4-7.05 7.95-7.05 2.07 0 4.29.39 5.91 1.08l-.66 4.89c-1.71-.51-3.42-.81-4.86-.81-2.22 0-2.7.66-2.7 1.62 0 2.91 8.94 1.92 8.94 9.27 0 4.44-3 7.2-8.07 7.2-2.37 0-4.71-.54-6.54-1.56l.75-4.98c1.83.93 3.69 1.5 5.64 1.5z"/><path d="m153.09 15.45.12 5.25h-5.1v17.25h-5.97v-17.25h-5.1l.12-5.25z"/><path d="m169.52 20.61h-8.37v3.48h6.9v4.71h-6.9v4.08h8.76l-.12 5.07h-14.49v-22.5h14.1z"/><path d="m185.53 28.74c1.98-.84 3.06-3.06 3.06-6.06 0-5.07-2.82-7.23-8.52-7.23h-7.77v22.5h5.85v-8.04h1.98l3 8.04h6.78zm-5.37-3.24h-2.01v-5.19h2.04c1.71 0 2.28.54 2.28 2.58 0 2.19-.6 2.61-2.31 2.61z"/><path d="m193.7 32.58c2.1 0 3 1.05 3 2.88 0 1.71-.9 2.85-3 2.85s-3.03-.81-3.03-2.85c0-1.83.93-2.88 3.03-2.88z"/></g></svg>