<?xml version="1.0" encoding="utf-8"?>
<!-- Generator: Adobe Illustrator 16.0.0, SVG Export Plug-In . SVG Version: 6.00 Build 0)  -->
<!DOCTYPE svg PUBLIC "-//W3C//DTD SVG 1.1//EN" "http://www.w3.org/Graphics/SVG/1.1/DTD/svg11.dtd">
<svg version="1.1" id="Ebene_1" xmlns="http://www.w3.org/2000/svg" xmlns:xlink="http://www.w3.org/1999/xlink" x="0px" y="0px"
	 width="45.742px" height="34.075px" viewBox="0 0 45.742 34.075" enable-background="new 0 0 45.742 34.075" xml:space="preserve">
<g id="Text">
	<g>
		<path fill="#FFFFFF" d="M3.155,3.399c0,1.574-0.801,2.068-2.061,2.068c-0.4,0-0.723-0.072-0.98-0.187l0.072-1.166
			c0.15,0.078,0.386,0.128,0.665,0.128c0.587,0,0.873-0.229,0.873-0.873V0h1.431V3.399z"/>
		<path fill="#FFFFFF" d="M7.37,4.158L7.341,5.367H3.884V0h3.364l0.028,1.23H5.28v0.83h1.646v1.124H5.28v0.974H7.37z"/>
		<path fill="#FFFFFF" d="M10.245,1.252v4.115H8.821V1.252H7.604L7.634,0h3.799l0.029,1.252H10.245z"/>
		<path fill="#FFFFFF" d="M11.696,5.367V4.458l1.711-2.719l0.314-0.473l-0.008-0.015h-1.975L11.774,0h3.586v1.002l-1.653,2.634
			l-0.315,0.465L13.4,4.122h1.975l-0.021,1.245H11.696z"/>
		<path fill="#FFFFFF" d="M18.286,1.252v4.115h-1.425V1.252h-1.216L15.674,0h3.8l0.029,1.252H18.286z"/>
		<path fill="#FFFFFF" d="M23.078,0l0.944,2.712l0.181,0.552h0.021l0.178-0.544L25.36,0h1.548v5.367h-1.281V3.12l0.014-0.58
			l-0.021-0.007L25.44,3.092l-0.794,2.275h-0.909L22.95,3.098L22.771,2.54l-0.015,0.008l0.007,0.579v2.24h-1.224V0H23.078z"/>
		<path fill="#FFFFFF" d="M27.692,0h1.438v5.367h-1.438V0z"/>
		<path fill="#FFFFFF" d="M32.257,1.252v4.115h-1.426V1.252h-1.215L29.645,0h3.8l0.029,1.252H32.257z"/>
		<path fill="#FFFFFF" d="M0.938,11.562h0.637V8.777L0.759,9.229L0.615,8.141l1.554-0.98h0.809v4.401h0.637v0.959H0.938V11.562z"/>
		<path fill="#FFFFFF" d="M7.799,11.562v0.959H6.532v-0.959H4.413L4.3,10.688l1.859-3.535h1.64v3.277h0.437l-0.029,1.131
			L7.799,11.562L7.799,11.562z M6.625,9.085l0.036-0.579L6.646,8.499l-0.959,1.932h0.888L6.625,9.085z"/>
		<path fill="#FFFFFF" d="M12.677,8.405v4.115h-1.424V8.405h-1.217l0.029-1.252h3.8l0.028,1.252H12.677z"/>
		<path fill="#FFFFFF" d="M16.618,11.583h-1.459l-0.207,0.938H13.47l1.589-5.367h1.71l1.618,5.367h-1.561L16.618,11.583z
			 M15.767,8.878l-0.343,1.539h0.938l-0.344-1.539L15.91,8.306h-0.021L15.767,8.878z"/>
		<path fill="#FFFFFF" d="M22.335,12.327c-0.372,0.179-0.98,0.294-1.531,0.294c-1.775,0-2.404-0.952-2.404-2.784
			c0-1.875,0.736-2.776,2.469-2.776c0.473,0,1.009,0.086,1.396,0.235l-0.129,1.195c-0.351-0.129-0.802-0.207-1.188-0.207
			c-0.88,0-1.08,0.329-1.08,1.538c0,1.274,0.207,1.554,0.902,1.554c0.106,0,0.221-0.008,0.321-0.029V9.594h1.245L22.335,12.327
			L22.335,12.327z"/>
		<path fill="#FFFFFF" d="M26.457,11.312l-0.029,1.209H22.97V7.153h3.363l0.028,1.23h-1.995v0.83h1.646v1.124h-1.646v0.974
			L26.457,11.312L26.457,11.312z"/>
		<path fill="#FFFFFF" d="M4.093,19.481c-0.371,0.18-0.98,0.294-1.531,0.294c-1.774,0-2.404-0.952-2.404-2.784
			c0-1.875,0.737-2.776,2.469-2.776c0.473,0,1.01,0.086,1.396,0.235l-0.129,1.195c-0.352-0.129-0.803-0.207-1.188-0.207
			c-0.88,0-1.081,0.329-1.081,1.538c0,1.274,0.208,1.554,0.902,1.554c0.107,0,0.222-0.008,0.322-0.029v-1.752h1.244V19.481z"/>
		<path fill="#FFFFFF" d="M8.214,18.465l-0.029,1.209H4.729v-5.366h3.364l0.028,1.23H6.124v0.83H7.77v1.124H6.124v0.973H8.214z"/>
		<path fill="#FFFFFF" d="M11.983,18.43l-0.035,1.244H8.749v-5.366h1.41v4.122H11.983z"/>
		<path fill="#FFFFFF" d="M14.38,19.674h-1.94v-5.366h1.91c1.632,0,2.297,0.759,2.297,2.655
			C16.647,18.931,15.89,19.674,14.38,19.674z M14.358,15.546h-0.523v2.906h0.523c0.615,0,0.822-0.188,0.822-1.504
			C15.181,15.761,14.987,15.546,14.358,15.546z"/>
		<path fill="#FFFFFF" d="M19.13,16.526v0.93h-1.997v-0.93H19.13z"/>
		<path fill="#FFFFFF" d="M19.351,19.674v-0.908l1.711-2.719l0.314-0.473l-0.008-0.015h-1.975l0.035-1.252h3.586v1.002l-1.653,2.634
			l-0.315,0.466l0.008,0.021h1.975l-0.021,1.245H19.351L19.351,19.674z"/>
		<path fill="#FFFFFF" d="M27.585,17.85c0,1.26-0.672,1.918-2.045,1.918c-1.375,0-2.068-0.658-2.068-1.918v-3.542h1.402v3.514
			c0,0.479,0.186,0.694,0.666,0.694c0.485,0,0.649-0.2,0.649-0.694v-3.514h1.396V17.85z"/>
		<path fill="#FFFFFF" d="M31.419,17.478l1.045,2.196h-1.617l-0.715-1.918H29.66v1.918h-1.396v-5.366h1.854
			c1.36,0,2.032,0.516,2.032,1.725C32.149,16.748,31.892,17.277,31.419,17.478z M30.146,15.467H29.66v1.238h0.479
			c0.407,0,0.552-0.101,0.552-0.623C30.69,15.596,30.554,15.467,30.146,15.467z"/>
		<path fill="#FFFFFF" d="M36.8,17.85c0,1.26-0.672,1.918-2.047,1.918c-1.373,0-2.068-0.658-2.068-1.918v-3.542h1.402v3.514
			c0,0.479,0.188,0.694,0.666,0.694c0.485,0,0.65-0.2,0.65-0.694v-3.514H36.8V17.85z M34.073,14.05
			c-0.351,0-0.528-0.136-0.528-0.479c0-0.322,0.179-0.494,0.528-0.494c0.365,0,0.529,0.172,0.529,0.494
			C34.603,13.886,34.438,14.05,34.073,14.05z M35.44,14.05c-0.353,0-0.528-0.136-0.528-0.479c0-0.322,0.178-0.494,0.528-0.494
			c0.365,0,0.529,0.172,0.529,0.494C35.97,13.886,35.806,14.05,35.44,14.05z"/>
		<path fill="#FFFFFF" d="M40.691,15.603c-0.236-0.086-0.559-0.143-0.895-0.143c-0.795,0-0.996,0.336-0.996,1.51
			c0,1.237,0.224,1.581,1.018,1.581c0.329,0,0.637-0.063,0.889-0.18l0.129,1.139c-0.322,0.158-0.81,0.258-1.226,0.258
			c-1.53,0-2.274-0.873-2.274-2.805c0-1.804,0.723-2.748,2.36-2.748c0.38,0,0.845,0.086,1.132,0.2L40.691,15.603z"/>
		<path fill="#FFFFFF" d="M44.096,19.674l-1.009-2.182h-0.344v2.182h-1.396v-5.366h1.396v2.075h0.373l0.993-2.075h1.567
			l-1.288,2.569l1.353,2.797H44.096z"/>
		<path fill="#FFFFFF" d="M4.093,26.635c-0.371,0.179-0.98,0.294-1.531,0.294c-1.774,0-2.404-0.952-2.404-2.784
			c0-1.875,0.737-2.775,2.469-2.775c0.473,0,1.01,0.086,1.396,0.234l-0.129,1.195c-0.352-0.129-0.803-0.207-1.188-0.207
			c-0.88,0-1.081,0.328-1.081,1.537c0,1.274,0.208,1.554,0.902,1.554c0.107,0,0.222-0.007,0.322-0.028v-1.753h1.244V26.635z"/>
		<path fill="#FFFFFF" d="M7.498,25.891h-1.46l-0.207,0.938H4.35l1.589-5.367h1.71l1.618,5.367H7.706L7.498,25.891z M6.646,23.186
			l-0.343,1.539h0.938l-0.344-1.539L6.79,22.613H6.769L6.646,23.186z"/>
		<path fill="#FFFFFF" d="M12.778,24.631l1.045,2.197h-1.618l-0.716-1.918h-0.473v1.918H9.622v-5.367h1.854
			c1.359,0,2.032,0.516,2.032,1.725C13.508,23.901,13.25,24.431,12.778,24.631z M11.504,22.62h-0.487v1.238h0.48
			c0.408,0,0.551-0.102,0.551-0.623C12.048,22.749,11.911,22.62,11.504,22.62z"/>
		<path fill="#FFFFFF" d="M16.94,25.891h-1.459l-0.208,0.938h-1.481l1.588-5.367h1.711l1.617,5.367h-1.561L16.94,25.891z
			 M16.089,23.186l-0.344,1.539h0.938l-0.344-1.539l-0.107-0.572h-0.021L16.089,23.186z"/>
		<path fill="#FFFFFF" d="M22.206,26.829l-1.604-2.478l-0.301-0.493l-0.014,0.007l0.007,0.58v2.384h-1.231v-5.367h1.174l1.725,2.783
			l0.016-0.008l-0.016-0.572l0.008-2.203h1.23v5.367H22.206z"/>
		<path fill="#FFFFFF" d="M26.269,22.713v4.115h-1.424v-4.115h-1.217l0.029-1.252h3.799l0.028,1.252H26.269z"/>
		<path fill="#FFFFFF" d="M27.971,21.461h1.438v5.367h-1.438V21.461z"/>
		<path fill="#FFFFFF" d="M33.681,25.62l-0.029,1.209h-3.456v-5.367h3.364l0.027,1.229h-1.996v0.83h1.646v1.124h-1.646v0.975H33.681
			z"/>
		<path fill="#FFFFFF" d="M2.641,29.868v4.114H1.216v-4.114H0l0.028-1.253h3.801l0.028,1.253H2.641z"/>
		<path fill="#FFFFFF" d="M7.771,32.773l-0.029,1.209H4.284v-5.367h3.364l0.028,1.23H5.681v0.829h1.646v1.125H5.681v0.975
			L7.771,32.773L7.771,32.773z"/>
		<path fill="#FFFFFF" d="M9.708,34.075c-0.565,0-1.123-0.129-1.561-0.371l0.18-1.188c0.436,0.222,0.88,0.356,1.346,0.356
			c0.443,0,0.615-0.149,0.615-0.437c0-0.687-2.133-0.474-2.133-2.226c0-0.938,0.572-1.683,1.896-1.683
			c0.494,0,1.023,0.093,1.41,0.259l-0.158,1.166c-0.408-0.121-0.815-0.193-1.159-0.193c-0.529,0-0.644,0.158-0.644,0.387
			c0,0.693,2.133,0.458,2.133,2.212C11.634,33.417,10.917,34.075,9.708,34.075z"/>
		<path fill="#FFFFFF" d="M14.358,29.868v4.114h-1.424v-4.114h-1.217l0.029-1.253h3.799l0.029,1.253H14.358z"/>
		<path fill="#FFFFFF" d="M19.487,32.773l-0.028,1.209h-3.456v-5.367h3.363l0.029,1.23h-1.998v0.829h1.646v1.125h-1.646v0.975
			L19.487,32.773L19.487,32.773z"/>
		<path fill="#FFFFFF" d="M23.165,33.982l-1.604-2.478l-0.301-0.492l-0.014,0.007l0.007,0.58v2.383h-1.231v-5.367h1.174l1.725,2.784
			l0.016-0.008l-0.016-0.572l0.008-2.204h1.23v5.367H23.165z"/>
		<path fill="#FFFFFF" d="M25.46,34.068c-0.502,0-0.724-0.192-0.724-0.68c0-0.437,0.222-0.688,0.724-0.688
			c0.5,0,0.715,0.252,0.715,0.688C26.175,33.795,25.96,34.068,25.46,34.068z"/>
	</g>
</g>
<g id="Screens">
</g>
</svg>
