<?xml version="1.0" encoding="utf-8"?>
<!-- Generator: Adobe Illustrator 16.0.0, SVG Export Plug-In . SVG Version: 6.00 Build 0)  -->
<!DOCTYPE svg PUBLIC "-//W3C//DTD SVG 1.1//EN" "http://www.w3.org/Graphics/SVG/1.1/DTD/svg11.dtd">
<svg version="1.1" id="Ebene_1" xmlns="http://www.w3.org/2000/svg" xmlns:xlink="http://www.w3.org/1999/xlink" x="0px" y="0px"
	 width="55.348px" height="12.699px" viewBox="0 0 55.348 12.699" enable-background="new 0 0 55.348 12.699" xml:space="preserve">
<g id="Text">
	<g>
		<path fill="#FFFFFF" d="M1.988,5.453H0.049V0.086h1.912c1.631,0,2.297,0.76,2.297,2.655C4.258,4.709,3.499,5.453,1.988,5.453z
			 M1.967,1.324H1.445v2.905h0.521c0.616,0,0.824-0.188,0.824-1.503C2.791,1.539,2.598,1.324,1.967,1.324z"/>
		<path fill="#FFFFFF" d="M7.412,4.516h-1.46L5.744,5.453h-1.48l1.588-5.367h1.711L9.18,5.453H7.619L7.412,4.516z M6.561,1.811
			L6.217,3.35h0.938L6.811,1.811L6.703,1.238H6.682L6.561,1.811z"/>
		<path fill="#FFFFFF" d="M10.952,5.546c-0.565,0-1.124-0.129-1.561-0.372L9.57,3.986c0.438,0.222,0.882,0.357,1.347,0.357
			c0.443,0,0.614-0.15,0.614-0.438c0-0.687-2.132-0.473-2.132-2.226C9.399,0.744,9.972,0,11.296,0c0.493,0,1.021,0.094,1.409,0.258
			l-0.157,1.166c-0.407-0.12-0.815-0.192-1.159-0.192c-0.529,0-0.645,0.158-0.645,0.387c0,0.694,2.133,0.458,2.133,2.212
			C12.877,4.888,12.162,5.546,10.952,5.546z"/>
		<path fill="#FFFFFF" d="M18.128,5.453l-1.604-2.477l-0.301-0.493L16.21,2.49l0.007,0.58v2.383h-1.23V0.086h1.175l1.725,2.784
			L17.9,2.862L17.885,2.29l0.007-2.204h1.231v5.367H18.128z"/>
		<path fill="#FFFFFF" d="M23.336,4.244l-0.029,1.209h-3.456V0.086h3.364l0.028,1.23h-1.997v0.83h1.646V3.27h-1.646v0.974H23.336z"
			/>
		<path fill="#FFFFFF" d="M27.936,3.628c0,1.261-0.672,1.918-2.047,1.918c-1.373,0-2.068-0.657-2.068-1.918V0.086h1.403V3.6
			c0,0.479,0.188,0.693,0.665,0.693c0.486,0,0.651-0.199,0.651-0.693V0.086h1.396V3.628z"/>
		<path fill="#FFFFFF" d="M32.1,4.244l-0.03,1.209h-3.457V0.086h3.364l0.028,1.23H30.01v0.83h1.646V3.27H30.01v0.974H32.1z"/>
		<path fill="#FFFFFF" d="M37.014,4.516h-1.46l-0.208,0.938h-1.479l1.588-5.367h1.711l1.617,5.367h-1.562L37.014,4.516z
			 M36.162,1.811L35.818,3.35h0.938l-0.344-1.539l-0.107-0.572h-0.021L36.162,1.811z"/>
		<path fill="#FFFFFF" d="M41.885,5.453L40.876,3.27h-0.344v2.183h-1.396V0.086h1.396v2.075h0.371l0.995-2.075h1.567l-1.289,2.569
			l1.354,2.798H41.885z"/>
		<path fill="#FFFFFF" d="M46.67,5.453L45.662,3.27h-0.345v2.183h-1.396V0.086h1.396v2.075h0.372l0.995-2.075h1.566l-1.288,2.569
			l1.353,2.798H46.67z"/>
		<path fill="#FFFFFF" d="M52.773,3.628c0,1.261-0.673,1.918-2.047,1.918s-2.067-0.657-2.067-1.918V0.086h1.401V3.6
			c0,0.479,0.188,0.693,0.666,0.693c0.486,0,0.65-0.199,0.65-0.693V0.086h1.396L52.773,3.628L52.773,3.628z"/>
		<path fill="#FFFFFF" d="M55.348,2.305v0.93h-1.996v-0.93H55.348z"/>
		<path fill="#FFFFFF" d="M4.114,10.781c0,1.26-0.673,1.918-2.046,1.918C0.693,12.699,0,12.041,0,10.781V7.239h1.401v3.514
			c0,0.479,0.187,0.694,0.666,0.694c0.486,0,0.65-0.2,0.65-0.694V7.239h1.396V10.781z"/>
		<path fill="#FFFFFF" d="M7.934,12.606L6.331,10.13L6.03,9.637L6.016,9.644l0.008,0.58v2.383H4.792V7.239h1.174l1.725,2.784
			l0.016-0.008L7.69,9.443l0.007-2.204h1.231v5.367H7.934z"/>
		<path fill="#FFFFFF" d="M9.715,7.239h1.438v5.367H9.715V7.239z"/>
		<path fill="#FFFFFF" d="M16.318,7.239l-1.589,5.367h-1.596l-1.581-5.367h1.538l0.751,3.349l0.122,0.565h0.021l0.114-0.565
			l0.773-3.349H16.318z"/>
		<path fill="#FFFFFF" d="M20.146,11.397l-0.027,1.209H16.66V7.239h3.362l0.029,1.23h-1.997V9.3h1.646v1.124h-1.646v0.975
			L20.146,11.397L20.146,11.397z"/>
		<path fill="#FFFFFF" d="M23.836,10.409l1.045,2.197h-1.617l-0.715-1.918h-0.473v1.918H20.68V7.239h1.854
			c1.359,0,2.032,0.516,2.032,1.725C24.566,9.68,24.309,10.209,23.836,10.409z M22.562,8.398h-0.485v1.238h0.479
			c0.408,0,0.552-0.102,0.552-0.623C23.106,8.527,22.971,8.398,22.562,8.398z"/>
		<path fill="#FFFFFF" d="M26.633,12.699c-0.565,0-1.123-0.129-1.562-0.372l0.181-1.188c0.436,0.222,0.88,0.356,1.346,0.356
			c0.443,0,0.615-0.149,0.615-0.437c0-0.688-2.133-0.474-2.133-2.227c0-0.938,0.571-1.682,1.896-1.682
			c0.494,0,1.023,0.093,1.41,0.258l-0.158,1.166c-0.408-0.121-0.814-0.193-1.159-0.193c-0.528,0-0.644,0.158-0.644,0.388
			c0,0.693,2.133,0.458,2.133,2.212C28.559,12.041,27.842,12.699,26.633,12.699z"/>
		<path fill="#FFFFFF" d="M33.122,10.781c0,1.26-0.673,1.918-2.046,1.918c-1.375,0-2.068-0.658-2.068-1.918V7.239h1.402v3.514
			c0,0.479,0.186,0.694,0.666,0.694c0.485,0,0.649-0.2,0.649-0.694V7.239h1.396V10.781z"/>
		<path fill="#FFFFFF" d="M35.339,7.239l0.944,2.712l0.18,0.552h0.021l0.179-0.544l0.959-2.72h1.547v5.367h-1.281v-2.247l0.014-0.58
			L37.88,9.772l-0.18,0.559l-0.795,2.275h-0.908l-0.787-2.27l-0.18-0.559l-0.015,0.008l0.007,0.579v2.24H33.8V7.239H35.339z"/>
		<path fill="#FFFFFF" d="M40.468,12.692c-0.501,0-0.723-0.193-0.723-0.68c0-0.438,0.222-0.688,0.723-0.688s0.716,0.251,0.716,0.688
			C41.184,12.42,40.969,12.692,40.468,12.692z"/>
	</g>
</g>
<g id="Screens">
</g>
</svg>
