<?xml version="1.0" encoding="utf-8"?>
<!-- Generator: Adobe Illustrator 16.0.0, SVG Export Plug-In . SVG Version: 6.00 Build 0)  -->
<!DOCTYPE svg PUBLIC "-//W3C//DTD SVG 1.1//EN" "http://www.w3.org/Graphics/SVG/1.1/DTD/svg11.dtd">
<svg version="1.1" id="Ebene_1" xmlns="http://www.w3.org/2000/svg" xmlns:xlink="http://www.w3.org/1999/xlink" x="0px" y="0px"
	 width="48.988px" height="19.768px" viewBox="0 0 48.988 19.768" enable-background="new 0 0 48.988 19.768" xml:space="preserve">
<g id="Text">
	<g>
		<path fill="#FFFFFF" d="M2.325,5.367H0.386V0h1.912c1.631,0,2.297,0.759,2.297,2.654C4.595,4.623,3.836,5.367,2.325,5.367z
			 M2.304,1.238H1.782v2.905h0.521c0.616,0,0.824-0.187,0.824-1.503C3.128,1.453,2.935,1.238,2.304,1.238z"/>
		<path fill="#FFFFFF" d="M5.237,0h1.438v5.367H5.237V0z"/>
		<path fill="#FFFFFF" d="M10.946,4.158l-0.028,1.209H7.461V0h3.364l0.027,1.229H8.856v0.83h1.646v1.124H8.856v0.975H10.946z"/>
		<path fill="#FFFFFF" d="M15.86,4.43h-1.459l-0.208,0.938h-1.48L14.3,0h1.711l1.617,5.367h-1.562L15.86,4.43z M15.009,1.725
			l-0.344,1.539h0.938l-0.344-1.539l-0.107-0.572h-0.021L15.009,1.725z"/>
		<path fill="#FFFFFF" d="M20.731,5.367l-1.008-2.184H19.38v2.184h-1.396V0h1.396v2.075h0.372L20.747,0h1.565l-1.288,2.568
			l1.354,2.799H20.731z"/>
		<path fill="#FFFFFF" d="M25.519,5.367l-1.01-2.184h-0.344v2.184H22.77V0h1.396v2.075h0.373L25.532,0H27.1l-1.288,2.568
			l1.354,2.799H25.519z"/>
		<path fill="#FFFFFF" d="M31.62,3.542c0,1.26-0.673,1.918-2.046,1.918c-1.374,0-2.068-0.658-2.068-1.918V0h1.402v3.514
			c0,0.479,0.187,0.694,0.666,0.694c0.485,0,0.65-0.2,0.65-0.694V0h1.396V3.542z"/>
		<path fill="#FFFFFF" d="M34.194,2.219v0.93h-1.996v-0.93H34.194z"/>
		<path fill="#FFFFFF" d="M2.226,10.854H1.782v1.667H0.386V7.153h1.84c1.488,0,2.082,0.579,2.082,1.891
			C4.308,10.202,3.729,10.854,2.226,10.854z M2.226,8.319H1.782v1.426h0.442c0.458,0,0.63-0.107,0.63-0.709
			C2.855,8.456,2.72,8.319,2.226,8.319z"/>
		<path fill="#FFFFFF" d="M8.05,11.275L8.014,12.52h-3.2V7.153h1.41v4.122H8.05z"/>
		<path fill="#FFFFFF" d="M11.274,11.583H9.815l-0.207,0.938H8.126l1.589-5.367h1.71l1.618,5.367h-1.562L11.274,11.583z
			 M10.423,8.878l-0.343,1.539h0.938l-0.344-1.539l-0.107-0.572h-0.021L10.423,8.878z"/>
		<path fill="#FFFFFF" d="M15.26,8.405v4.115h-1.425V8.405h-1.216l0.027-1.252h3.801l0.028,1.252H15.26z"/>
		<path fill="#FFFFFF" d="M19.358,8.405v4.115h-1.424V8.405h-1.217l0.029-1.252h3.8l0.028,1.252H19.358z"/>
		<path fill="#FFFFFF" d="M22.405,8.405V9.35h1.64l-0.006,1.188h-1.634v1.981h-1.401V7.153h3.355l0.021,1.252H22.405z"/>
		<path fill="#FFFFFF" d="M26.913,12.613c-1.546,0-2.248-0.814-2.248-2.775c0-1.968,0.674-2.771,2.248-2.771
			c1.573,0,2.246,0.803,2.246,2.771C29.159,11.854,28.487,12.613,26.913,12.613z M26.905,8.319c-0.586,0-0.771,0.244-0.771,1.519
			c0,1.281,0.193,1.539,0.787,1.539c0.595,0,0.771-0.267,0.771-1.539C27.692,8.556,27.515,8.319,26.905,8.319z"/>
		<path fill="#FFFFFF" d="M32.901,10.323l1.045,2.197h-1.617l-0.717-1.918H31.14v1.918h-1.395V7.153h1.854
			c1.359,0,2.032,0.517,2.032,1.726C33.631,9.594,33.373,10.123,32.901,10.323z M31.627,8.312H31.14V9.55h0.48
			c0.407,0,0.551-0.102,0.551-0.623C32.171,8.441,32.034,8.312,31.627,8.312z"/>
		<path fill="#FFFFFF" d="M35.833,7.153l0.944,2.712l0.18,0.553h0.021l0.18-0.544l0.959-2.721h1.546v5.367h-1.281v-2.247l0.015-0.58
			l-0.021-0.007l-0.181,0.56L37.4,12.521h-0.908l-0.787-2.269l-0.18-0.56L35.51,9.701l0.008,0.578v2.24h-1.225V7.153H35.833z"/>
		<path fill="#FFFFFF" d="M4.767,14.308l-1.59,5.367H1.581L0,14.308h1.538l0.752,3.349l0.121,0.565h0.021l0.115-0.565l0.772-3.349
			H4.767z"/>
		<path fill="#FFFFFF" d="M7.011,19.768c-1.545,0-2.246-0.814-2.246-2.775c0-1.969,0.672-2.771,2.246-2.771
			c1.575,0,2.248,0.802,2.248,2.771C9.259,19.009,8.586,19.768,7.011,19.768z M7.005,15.474c-0.588,0-0.773,0.244-0.773,1.519
			c0,1.28,0.193,1.538,0.787,1.538s0.773-0.266,0.773-1.538C7.792,15.71,7.612,15.474,7.005,15.474z"/>
		<path fill="#FFFFFF" d="M12.985,19.675l-1.604-2.478l-0.301-0.492l-0.015,0.007l0.007,0.58v2.383H9.843v-5.367h1.174l1.726,2.784
			l0.016-0.008l-0.016-0.572l0.008-2.204h1.229v5.367H12.985z"/>
		<path fill="#FFFFFF" d="M19.065,19.675l-1.009-2.183h-0.344v2.183h-1.396v-5.367h1.396v2.075h0.372l0.995-2.075h1.566
			l-1.289,2.569l1.354,2.798H19.065z"/>
		<path fill="#FFFFFF" d="M23.872,18.737h-1.459l-0.207,0.938h-1.482l1.589-5.367h1.71l1.618,5.367H24.08L23.872,18.737z
			 M22.478,14.05c-0.352,0-0.528-0.136-0.528-0.479c0-0.321,0.178-0.493,0.528-0.493c0.365,0,0.529,0.172,0.529,0.493
			C23.007,13.886,22.843,14.05,22.478,14.05z M23.021,16.031l-0.343,1.539h0.938l-0.345-1.539l-0.106-0.571h-0.021L23.021,16.031z
			 M23.845,14.05c-0.352,0-0.53-0.136-0.53-0.479c0-0.321,0.18-0.493,0.53-0.493c0.364,0,0.529,0.172,0.529,0.493
			C24.374,13.886,24.209,14.05,23.845,14.05z"/>
		<path fill="#FFFFFF" d="M29.152,17.478l1.045,2.197h-1.617l-0.716-1.918h-0.473v1.918h-1.396v-5.367h1.854
			c1.36,0,2.032,0.516,2.032,1.726C29.882,16.748,29.624,17.277,29.152,17.478z M27.878,15.467h-0.486v1.238h0.479
			c0.407,0,0.552-0.102,0.552-0.623C28.423,15.596,28.286,15.467,27.878,15.467z"/>
		<path fill="#FFFFFF" d="M33.651,15.603c-0.235-0.086-0.558-0.143-0.895-0.143c-0.794,0-0.994,0.336-0.994,1.51
			c0,1.238,0.222,1.581,1.016,1.581c0.33,0,0.638-0.063,0.889-0.179l0.129,1.138c-0.321,0.158-0.81,0.258-1.225,0.258
			c-1.53,0-2.274-0.873-2.274-2.805c0-1.804,0.723-2.748,2.361-2.748c0.379,0,0.844,0.086,1.131,0.2L33.651,15.603z"/>
		<path fill="#FFFFFF" d="M37.007,19.675v-2.104h-1.303v2.104h-1.396v-5.367h1.396v2.011h1.303v-2.011h1.402v5.367H37.007z"/>
		<path fill="#FFFFFF" d="M42.615,18.466l-0.028,1.209H39.13v-5.367h3.363l0.028,1.23h-1.997v0.83h1.646v1.124h-1.646v0.974H42.615z
			"/>
		<path fill="#FFFFFF" d="M46.307,17.478l1.045,2.197h-1.618l-0.715-1.918h-0.473v1.918H43.15v-5.367h1.854
			c1.359,0,2.032,0.516,2.032,1.726C47.036,16.748,46.778,17.277,46.307,17.478z M45.032,15.467h-0.486v1.238h0.479
			c0.408,0,0.553-0.102,0.553-0.623C45.577,15.596,45.44,15.467,45.032,15.467z"/>
		<path fill="#FFFFFF" d="M48.272,19.761c-0.5,0-0.723-0.193-0.723-0.68c0-0.438,0.223-0.688,0.723-0.688
			c0.502,0,0.717,0.251,0.717,0.688C48.989,19.488,48.774,19.761,48.272,19.761z"/>
	</g>
</g>
<g id="Screens">
</g>
</svg>
