<svg enable-background="new 0 0 141.14 43.14" viewBox="0 0 141.14 43.14" xmlns="http://www.w3.org/2000/svg"><path clip-rule="evenodd" d="m106.89 17.24c-.99 0-1.2.29-1.2.72 0 1.3 3.98.85 3.98 4.12 0 1.98-1.33 3.2-3.59 3.2-1.06 0-2.1-.24-2.91-.7l.33-2.22c.81.41 1.64.67 2.51.67.83 0 1.15-.28 1.15-.82 0-1.28-3.98-.88-3.98-4.15 0-1.75 1.07-3.14 3.54-3.14.92 0 1.91.17 2.63.48l-.29 2.18c-.77-.21-1.53-.34-2.17-.34zm-9 8.05c-2.88 0-4.19-1.52-4.19-5.18 0-3.67 1.26-5.17 4.19-5.17 2.94 0 4.19 1.49 4.19 5.17 0 3.77-1.25 5.18-4.19 5.18zm-.02-8.01c-1.09 0-1.44.45-1.44 2.83 0 2.39.36 2.87 1.47 2.87s1.44-.49 1.44-2.87c0-2.39-.33-2.83-1.47-2.83zm-8.73 1.92h3.06l-.01 2.22h-3.05v3.7h-2.62v-10.02h6.26l.04 2.34h-3.69v1.76zm-9.16 1.3-.56-.92-.03.01.01 1.08v4.45h-2.3v-10.02h2.19l3.22 5.19.03-.01-.03-1.07.01-4.11h2.3v10.01h-1.86zm-7.35-5.4h2.68v10.01h-2.68zm-7.45 10.02-1.34-3.58h-.88v3.58h-2.6v-10.02h3.46c2.54 0 3.79.96 3.79 3.22 0 1.34-.48 2.32-1.36 2.7l1.95 4.1zm-1.31-7.85h-.91v2.31h.9c.76 0 1.03-.19 1.03-1.16-.01-.91-.26-1.15-1.02-1.15zm-7.81 3.92h-2.43v3.92h-2.6v-10.01h2.6v3.75h2.43v-3.75h2.62v10.01h-2.62zm-6.37 1.67-.05 2.26h-6.45v-10.02h6.27l.05 2.3h-3.72v1.55h3.07v2.1h-3.07v1.82h3.9zm-10.59-1.93.03-1.08-.04-.01-.33 1.04-1.48 4.25h-1.7l-1.47-4.23-.33-1.04-.03.01.01 1.08v4.18h-2.28v-10.03h2.87l1.76 5.06.33 1.03h.04l.33-1.01 1.79-5.07h2.88v10.01h-2.38z" fill="#fefefe" fill-rule="evenodd"/></svg>