<?xml version="1.0" encoding="utf-8"?>
<!-- Generator: Adobe Illustrator 23.1.1, SVG Export Plug-In . SVG Version: 6.00 Build 0)  -->
<!DOCTYPE svg PUBLIC "-//W3C//DTD SVG 1.1//EN" "http://www.w3.org/Graphics/SVG/1.1/DTD/svg11.dtd" [
	<!ENTITY ns_extend "http://ns.adobe.com/Extensibility/1.0/">
	<!ENTITY ns_ai "http://ns.adobe.com/AdobeIllustrator/10.0/">
	<!ENTITY ns_graphs "http://ns.adobe.com/Graphs/1.0/">
	<!ENTITY ns_vars "http://ns.adobe.com/Variables/1.0/">
	<!ENTITY ns_imrep "http://ns.adobe.com/ImageReplacement/1.0/">
	<!ENTITY ns_sfw "http://ns.adobe.com/SaveForWeb/1.0/">
	<!ENTITY ns_custom "http://ns.adobe.com/GenericCustomNamespace/1.0/">
	<!ENTITY ns_adobe_xpath "http://ns.adobe.com/XPath/1.0/">
]>
<svg version="1.1" id="Ebene_1" xmlns:x="&ns_extend;" xmlns:i="&ns_ai;" xmlns:graph="&ns_graphs;"
	 xmlns="http://www.w3.org/2000/svg" xmlns:xlink="http://www.w3.org/1999/xlink" x="0px" y="0px" viewBox="0 0 234.7 177.4"
	 style="enable-background:new 0 0 234.7 177.4;" xml:space="preserve">
<style type="text/css">
	.st0{fill-rule:evenodd;clip-rule:evenodd;}
</style>
<metadata>
	<sfw  xmlns="&ns_sfw;">
		<slices></slices>
		<sliceSourceBounds  bottomLeftOrigin="true" height="154.9" width="207.7" x="9.4" y="32.8"></sliceSourceBounds>
	</sfw>
</metadata>
<path class="st0" d="M210.5,71l-0.9-3.9h-6.1l-0.9,3.9h-6.2l6.6-22.2h7.1L217,71H210.5z M207.2,55.9l-0.4-2.4h-0.1l-0.5,2.4
	l-1.4,6.4h3.9L207.2,55.9z M189.8,61.7l0.1-2.4l-0.1,0l-0.7,2.3l-3.3,9.4h-3.8l-3.3-9.4l-0.7-2.3l-0.1,0l0,2.4V71h-5.1V48.8h6.4
	l3.9,11.2l0.7,2.3h0.1l0.7-2.2l4-11.2h6.4V71h-5.3V61.7z M186.6,119.9h-8.3v3.4h6.9v4.6h-6.9v4h8.7l-0.1,5h-14.4v-22.2h14
	L186.6,119.9z M153.4,125.9c0-7.7,3.1-11.5,10.3-11.5c2,0,4.2,0.4,5.8,1l-0.5,4.9c-1.5-0.5-3.3-0.9-4.9-0.9c-3.7,0-4.5,1.4-4.5,6.4
	c0,5.3,0.9,6.4,3.8,6.4c0.4,0,0.9,0,1.3-0.1v-7.2h5.2v11.3c-1.6,0.7-4.1,1.2-6.4,1.2C156.1,137.4,153.4,133.4,153.4,125.9z
	 M163.5,48.8h6V71h-6V48.8z M147.9,71V48.8h5.9v17h7.6l-0.1,5.1H147.9z M139.4,71l-4.2-9h-1.4v9h-5.8V48.8h5.8v8.6h1.6l4.1-8.6h6.5
	l-5.4,10.6l5.6,11.6H139.4z M138.9,31.3c0,4.4-3,7.1-8,7.1c-2.4,0-4.7-0.5-6.5-1.5l0.7-4.9c1.8,0.9,3.7,1.5,5.6,1.5
	c1.8,0,2.6-0.6,2.6-1.8c0-2.8-8.9-1.9-8.9-9.2c0-3.9,2.4-6.9,7.9-6.9c2.1,0,4.3,0.4,5.9,1.1l-0.7,4.8c-1.7-0.5-3.4-0.8-4.8-0.8
	c-2.2,0-2.7,0.6-2.7,1.6C130,25,138.9,24,138.9,31.3z M122.8,33l-0.1,5h-14.4V15.8h14l0.1,5.1h-8.3v3.4h6.9V29h-6.9v4H122.8z
	 M100.1,38l-3-7.9h-2V38h-5.8V15.8h7.7c5.7,0,8.5,2.1,8.5,7.1c0,3-1.1,5.1-3,6l4.4,9.1H100.1z M97.2,20.6h-2v5.1h2
	c1.7,0,2.3-0.4,2.3-2.6C99.5,21.1,98.9,20.6,97.2,20.6z M87.1,33L87,38H72.6V15.8h14l0.1,5.1h-8.3v3.4h6.9V29h-6.9v4H87.1z
	 M63.8,29.3h-5.4V38h-5.8V15.8h5.8v8.3h5.4v-8.3h5.8V38h-5.8V29.3z M46.1,33.3c1.4,0,2.7-0.3,3.7-0.7l0.5,4.7
	c-1.3,0.7-3.4,1.1-5.1,1.1c-6.4,0-9.5-3.6-9.5-11.6c0-7.4,3-11.3,9.8-11.3c1.6,0,3.5,0.4,4.7,0.8l-0.6,4.9c-1-0.4-2.3-0.6-3.7-0.6
	c-3.3,0-4.1,1.4-4.1,6.2C41.9,31.9,42.8,33.3,46.1,33.3z M27.1,15.8h6V38h-6V15.8z M24.8,31.3c0,4.4-3,7.1-8,7.1
	c-2.4,0-4.7-0.5-6.5-1.5l0.7-4.9c1.8,0.9,3.7,1.5,5.6,1.5c1.8,0,2.6-0.6,2.6-1.8c0-2.8-8.9-1.9-8.9-9.2c0-3.9,2.4-6.9,7.9-6.9
	c2.1,0,4.3,0.4,5.9,1.1l-0.7,4.8c-1.7-0.5-3.4-0.8-4.8-0.8c-2.2,0-2.7,0.6-2.7,1.6C15.9,25,24.8,24,24.8,31.3z M23.1,48.8L29.8,71
	h-6.5l-0.9-3.9h-6.1L15.5,71H9.4L16,48.8H23.1z M21.4,62.3L20,55.9l-0.4-2.4h-0.1l-0.5,2.4l-1.4,6.4H21.4z M23.1,147.8l6.7,22.2
	h-6.5l-0.9-3.9h-6.1l-0.9,3.9H9.4l6.6-22.2H23.1z M21.4,161.3l-1.4-6.4l-0.4-2.4h-0.1l-0.5,2.4l-1.4,6.4H21.4z M45.4,153h-8.2v3.9
	H44l0,4.9h-6.8v8.2h-5.8v-22.2h14L45.4,153z M59.9,120h-8.2v3.9h6.8l0,4.9h-6.8v8.2h-5.8v-22.2h14L59.9,120z M65.2,147.8V166h2.7v4
	H56.7v-4h2.7v-11.5l-3.4,1.9l-0.6-4.5l6.5-4H65.2z M78.9,147.6c5.5,0,7.8,3,7.8,11.4c0,7.9-2.5,11.3-7.9,11.3
	c-5.5,0-7.8-3.3-7.8-11.3C71.1,150.6,73.3,147.6,78.9,147.6z M78.9,165.5c1.6,0,2.2-0.8,2.2-6.6c0-5.8-0.7-6.4-2.2-6.4
	c-1.6,0-2.3,0.8-2.3,6.4C76.6,164.9,77.3,165.5,78.9,165.5z M84.9,137H79v-22.2h7.7c5.7,0,8.5,2.1,8.5,7.1c0,3-1.1,5.1-3,6l4.4,9.1
	h-6.7l-3-7.9h-2V137z M86.9,124.7c1.7,0,2.3-0.4,2.3-2.6c0-2-0.6-2.5-2.3-2.5h-2v5.1H86.9z M96.4,147.6c5.5,0,7.8,3,7.8,11.4
	c0,7.9-2.5,11.3-7.9,11.3c-5.5,0-7.8-3.3-7.8-11.3C88.6,150.6,90.9,147.6,96.4,147.6z M96.4,165.5c1.5,0,2.2-0.8,2.2-6.6
	c0-5.8-0.7-6.4-2.2-6.4c-1.6,0-2.3,0.8-2.3,6.4C94.2,164.9,94.9,165.5,96.4,165.5z M109.1,164.7c2.1,0,3,1,3,2.8
	c0,1.7-0.9,2.8-3,2.8s-3-0.8-3-2.8C106.1,165.7,107,164.7,109.1,164.7z M98,114.8h14l0.1,5.1h-8.3v3.4h6.9v4.6h-6.9v4h8.7l-0.1,5H98
	V114.8z M121,137h-6v-22.2h6V137z M110.2,48.8l0.1,5.2h-5.1v17h-5.9V54h-5.1l0.1-5.2H110.2z M103.2,86.9h-8.3v3.4h6.9V95h-6.9v4h8.7
	l-0.1,5H89.1V81.8h14L103.2,86.9z M92.3,71h-6V48.8h6V71z M77.3,120h-5.1v17h-5.9v-17h-5.1l0.1-5.2h15.8L77.3,120z M60.7,87h-5.1v17
	h-5.9V87h-5.1l0.1-5.2h15.8L60.7,87z M36.6,81.8h6V104h-6V81.8z M43,129.4c0,5.2-2.8,7.9-8.5,7.9c-5.7,0-8.6-2.7-8.6-7.9v-14.6h5.8
	v14.5c0,2,0.8,2.9,2.8,2.9c2,0,2.7-0.8,2.7-2.9v-14.5H43V129.4z M16.8,131.8h7.6l-0.1,5.1H10.9v-22.2h5.9V131.8z M10.9,81.8h6.4
	L21.3,93l0.7,2.3h0.1l0.7-2.2l4-11.2h6.4V104H28v-9.3l0.1-2.4l-0.1,0l-0.7,2.3l-3.3,9.4h-3.8l-3.3-9.4l-0.7-2.3l-0.1,0l0,2.4v9.2
	h-5.1V81.8z M42.1,71l-3-7.9h-2V71h-5.8V48.8H39c5.7,0,8.5,2.1,8.5,7.1c0,3-1.1,5.1-3,6l4.4,9.1H42.1z M39.2,53.6h-2v5.1h2
	c1.7,0,2.3-0.4,2.3-2.6C41.4,54.1,40.9,53.6,39.2,53.6z M67,64.4c0,4-2.4,6.5-8,6.5h-8.7V48.8H59c4.8,0,7.2,2.2,7.2,5.7
	c0,2.3-1.1,3.8-2.7,4.6v0.1C65.8,60,67,61.7,67,64.4z M58.8,53.6h-2.9v3.9h3c1.3,0,1.8-0.5,1.8-2C60.7,54.1,60.2,53.6,58.8,53.6z
	 M59,61.9h-3v4.4h3.2c1.5,0,2-0.5,2-2.2C61.1,62.5,60.6,61.9,59,61.9z M77.2,104h-8.1V81.8h8c6.8,0,9.6,3.1,9.6,11
	C86.7,100.9,83.5,104,77.2,104z M77.1,86.9H75v12h2.2c2.6,0,3.4-0.8,3.4-6.2C80.6,87.8,79.8,86.9,77.1,86.9z M83.8,66l-0.1,5H69.3
	V48.8h14l0.1,5.1h-8.3v3.4H82V62h-6.9v4H83.8z M125.8,64.3c0,4.4-3,7.1-8,7.1c-2.4,0-4.7-0.5-6.5-1.5l0.7-4.9
	c1.8,0.9,3.7,1.5,5.6,1.5c1.8,0,2.6-0.6,2.6-1.8c0-2.8-8.9-2-8.9-9.2c0-3.9,2.4-6.9,7.9-6.9c2.1,0,4.3,0.4,5.9,1.1l-0.7,4.8
	c-1.7-0.5-3.4-0.8-4.8-0.8c-2.2,0-2.7,0.7-2.7,1.6C117,58,125.8,57,125.8,64.3z M115,104l-3.3-9.4l-0.7-2.3l-0.1,0l0,2.4v9.2h-5.1
	V81.8h6.4l3.9,11.2l0.7,2.3h0.1l0.7-2.2l4-11.2h6.4V104h-5.3v-9.3l0.1-2.4l-0.1,0l-0.7,2.3l-3.3,9.4H115z M136.3,126.3L136.3,126.3
	v-2.4l0-9.1h5.1V137h-4.1l-6.7-10.2l-1.3-2l-0.1,0l0,2.4v9.8h-5.1v-22.2h4.9L136.3,126.3z M150.7,137h-6v-22.2h6V137z M205.4,121.9
	c0,3-1.1,5.1-3,6l4.4,9.1H200l-3-7.9h-2v7.9h-5.8v-22.2h7.7C202.6,114.8,205.4,116.9,205.4,121.9z M195,124.7h2
	c1.7,0,2.3-0.4,2.3-2.6c0-2-0.6-2.5-2.3-2.5h-2V124.7z"/>
</svg>
