<?xml version="1.0" encoding="utf-8"?>
<!-- Generator: Adobe Illustrator 16.0.0, SVG Export Plug-In . SVG Version: 6.00 Build 0)  -->
<!DOCTYPE svg PUBLIC "-//W3C//DTD SVG 1.1//EN" "http://www.w3.org/Graphics/SVG/1.1/DTD/svg11.dtd">
<svg version="1.1" xmlns="http://www.w3.org/2000/svg" xmlns:xlink="http://www.w3.org/1999/xlink" x="0px" y="0px" width="360.7px"
	 height="151.5px" viewBox="0 0 360.7 151.5" enable-background="new 0 0 360.7 151.5" xml:space="preserve">
<g id="Boundingbox">
	<rect fill="none" width="360.7" height="151.5"/>
</g>
<g id="Logo">
	<rect x="38.6" y="90" fill="#FFED00" width="283.5" height="22.9"/>
	<g>
		<path fill="#1A1A18" d="M149.3,52.6c0,3.7-1.4,4.6-5,4.6h-5v-8.8h5.1C148,48.3,149.3,49.3,149.3,52.6L149.3,52.6z M161.9,52.1
			c0-8.6-6-12.8-17.4-12.8h-17.4V78h12V65.2h5l6.5,12.7H165l-9.9-15C159.4,61.4,161.9,57.1,161.9,52.1L161.9,52.1z"/>
		<polygon fill="#1A1A18" points="259,68.4 259,62.6 274.7,62.6 274.7,54.1 259,54.1 259,49 278,49 277.8,39.3 246.9,39.3 246.9,78 
			278.5,78 278.7,68.4 		"/>
		<polygon fill="#1A1A18" points="239.7,78 239.7,39.3 227.7,39.3 227.7,53.6 214.8,53.6 214.8,39.3 202.8,39.3 202.8,78 214.8,78 
			214.8,63.4 227.7,63.4 227.7,78 		"/>
		<path fill="#1A1A18" d="M197.2,40.2c-2.8-0.9-6.7-1.6-10.4-1.6c-14.8,0-21.4,7.7-21.4,19.9c0,13.2,7,20.2,20.4,20.2
			c4,0,8.3-0.9,11.5-2.4l-1.3-8.9c-2.5,1-5.5,1.6-8.7,1.6c-7.4,0-9.3-2.5-9.3-10.5c0-7.6,1.8-10.1,9.2-10.1c3.5,0,6.3,0.5,8.8,1.2
			L197.2,40.2z"/>
		<path fill="#1A1A18" d="M306.4,52.6c0,3.7-1.4,4.6-5,4.6h-5v-8.8h5.1C305.1,48.3,306.4,49.3,306.4,52.6L306.4,52.6z M319,52.1
			c0-8.6-6-12.8-17.4-12.8h-17.4V78h12V65.2h5l6.5,12.7h14.2l-9.9-15C316.5,61.4,319,57.1,319,52.1L319,52.1z"/>
		<path fill="#1A1A18" d="M105.1,62.5h-8.9l3.2-10.1l1.2-4h0.2l1.1,4L105.1,62.5z M123.4,78l-15.7-38.6h-14L78.4,78h12.8l2.1-6.5
			h14.5l2,6.5H123.4z"/>
		<rect x="79.5" y="39.3" fill="#1A1A18" width="9" height="8.2"/>
		<rect x="113.1" y="39.3" fill="#1A1A18" width="9" height="8.2"/>
		<polygon fill="#1A1A18" points="63.9,39.3 54.5,53.8 50.7,53.8 50.7,39.3 38.6,39.3 38.6,78 50.7,78 50.7,62.9 54.4,62.9 63.8,78 
			78.4,78 65.1,57.6 77.7,39.3 		"/>
	</g>
</g>
</svg>
