<?xml version="1.0" encoding="utf-8"?>
<!-- Generator: Adobe Illustrator 16.0.0, SVG Export Plug-In . SVG Version: 6.00 Build 0)  -->
<!DOCTYPE svg PUBLIC "-//W3C//DTD SVG 1.1//EN" "http://www.w3.org/Graphics/SVG/1.1/DTD/svg11.dtd">
<svg version="1.1" id="Ebene_1" xmlns="http://www.w3.org/2000/svg" xmlns:xlink="http://www.w3.org/1999/xlink" x="0px" y="0px"
	 width="132.8px" height="35.4px" viewBox="0 0 132.8 35.4" enable-background="new 0 0 132.8 35.4" xml:space="preserve">
<g>
	<g>
		<path fill="#1A1A18" d="M3.5,4.5c1,0,1.4,0.4,1.4,1.1c0,1.6-2.1,3.6-4.6,6.4v2H8l0.1-2.7H4.3l0,0C6.6,9,8.2,7.3,8.2,5.3
			c0-2.1-1.3-3.6-4-3.6c-1.7,0-3,0.5-4,1.2l0.7,2.5C1.7,4.9,2.6,4.5,3.5,4.5z M14.5,1.9h-3.3v12.1h3.3V1.9z M18.9,8.6l0-1.3l0,0
			l0.7,1.1l3.7,5.6h2.3V1.9h-2.8l0,5l0,1.3l0,0l-4-6.3H16v12.1h2.8V8.6z M33,1.9h-1.9l-3.6,2.2l0.3,2.4l1.9-1v6.3h-1.5v2.2h6.1v-2.2
			H33V1.9z M37.9,7.9c1.2,0,1.6-0.6,1.6-1.5c0-1-0.5-1.5-1.6-1.5c-1.2,0-1.7,0.6-1.7,1.5C36.2,7.4,36.7,7.9,37.9,7.9z M37.9,14.1
			c1.2,0,1.6-0.6,1.6-1.5c0-1-0.5-1.5-1.6-1.5c-1.2,0-1.7,0.6-1.7,1.5C36.2,13.7,36.7,14.1,37.9,14.1z M47.8,9h0.8l2.3,4.9h3.8
			l-3.1-6.3l3-5.8h-3.6l-2.3,4.7h-0.9V1.9h-3.2v12.1h3.2V9z M63.6,11.2h-4.8V9h3.8V6.5h-3.8V4.6h4.6l-0.1-2.8h-7.7v12.1h7.9
			L63.6,11.2z M71,6.4h-3V1.9h-3.2v12.1H68V9.2h3v4.7h3.2V1.9H71V6.4z M84.8,5.8c0-2.7-1.5-3.9-4.7-3.9h-4.3v12.1h3.2V9.6h1.1
			l1.6,4.3h3.7L83.1,9C84.2,8.6,84.8,7.4,84.8,5.8z M80.2,7.3h-1.1V4.5h1.1c0.9,0,1.2,0.3,1.2,1.4C81.4,7,81.1,7.3,80.2,7.3z
			 M89.5,9h3.8V6.5h-3.8V4.6h4.6l-0.1-2.8h-7.7v12.1h7.9l0.1-2.7h-4.8V9z M102.2,6.8l0,1.3l0,0l-4-6.3h-2.7v12.1h2.8V8.6l0-1.3l0,0
			l0.7,1.1l3.7,5.6h2.3V1.9h-2.8L102.2,6.8z M6.2,29.1c0,1.1-0.4,1.6-1.5,1.6c-1.1,0-1.5-0.5-1.5-1.6v-7.9H0v8
			c0,2.8,1.6,4.3,4.8,4.3c3.2,0,4.7-1.5,4.7-4.3v-8H6.2V29.1z M17.7,26.2l0,1.3l0,0l-4-6.3H11v12.1h2.8v-5.4l0-1.3l0,0l0.7,1.1
			l3.7,5.6h2.3V21.2h-2.8L17.7,26.2z M26.6,21.2h-4.4v12.1h4.5c3.5,0,5.2-1.7,5.2-6.1C31.9,22.9,30.3,21.2,26.6,21.2z M26.6,30.5
			h-1.2V24h1.2c1.4,0,1.9,0.5,1.9,3.2C28.5,30.1,28,30.5,26.6,30.5z M39.6,24.6c0-0.5,0.3-0.9,1.5-0.9c0.8,0,1.7,0.2,2.7,0.4
			l0.4-2.6C43.3,21.2,42,21,40.9,21c-3,0-4.4,1.7-4.4,3.8c0,3.9,4.9,3.5,4.9,5c0,0.6-0.4,1-1.4,1C39,30.8,38,30.5,37,30l-0.4,2.7
			c1,0.5,2.3,0.8,3.6,0.8c2.8,0,4.4-1.5,4.4-3.9C44.5,25.7,39.6,26.2,39.6,24.6z M51.1,30.7c-1.8,0-2.3-0.8-2.3-3.6
			c0-2.6,0.5-3.4,2.3-3.4c0.8,0,1.5,0.1,2.1,0.3l0.3-2.7c-0.7-0.3-1.7-0.5-2.6-0.5c-3.8,0-5.4,2.1-5.4,6.2c0,4.3,1.7,6.3,5.2,6.3
			c1,0,2.1-0.2,2.8-0.6l-0.3-2.6C52.5,30.6,51.8,30.7,51.1,30.7z M60.8,25.7h-3v-4.5h-3.2v12.1h3.2v-4.7h3v4.7H64V21.2h-3.2V25.7z
			 M68.9,28.4h3.8v-2.5h-3.8V24h4.6l-0.1-2.8h-7.7v12.1h7.9l0.1-2.7h-4.8V28.4z M81,29.1c0,1.1-0.4,1.6-1.5,1.6
			c-1.1,0-1.5-0.5-1.5-1.6v-7.9h-3.2v8c0,2.8,1.6,4.3,4.8,4.3c3.2,0,4.7-1.5,4.7-4.3v-8H81V29.1z M89,28.4h3.8v-2.5H89V24h4.6
			l-0.1-2.8h-7.7v12.1h7.9l0.1-2.7H89V28.4z M104,25.1c0-2.7-1.5-3.9-4.7-3.9H95v12.1h3.2V29h1.1l1.6,4.3h3.7l-2.4-4.9
			C103.4,27.9,104,26.7,104,25.1z M99.4,26.6h-1.1v-2.8h1.1c0.9,0,1.2,0.3,1.2,1.4C100.6,26.4,100.3,26.6,99.4,26.6z M112.2,26.2
			l0,1.3l0,0l-4-6.3h-2.7v12.1h2.8v-5.4l0-1.3l0,0l0.7,1.1l3.7,5.6h2.3V21.2h-2.8L112.2,26.2z M125.9,30.4c-1.2,0-1.7,0.6-1.7,1.5
			c0,1.1,0.5,1.5,1.7,1.5c1.1,0,1.6-0.6,1.6-1.5C127.5,31,127,30.4,125.9,30.4z M118,30.4c-1.2,0-1.7,0.6-1.7,1.5
			c0,1.1,0.5,1.5,1.7,1.5c1.1,0,1.6-0.6,1.6-1.5C119.6,31,119.1,30.4,118,30.4z M122,30.4c-1.2,0-1.7,0.6-1.7,1.5
			c0,1.1,0.5,1.5,1.7,1.5s1.6-0.6,1.6-1.5C123.6,31,123.1,30.4,122,30.4z"/>
	</g>
</g>
</svg>
