<?xml version="1.0" encoding="utf-8"?>
<!-- Generator: Adobe Illustrator 16.0.0, SVG Export Plug-In . SVG Version: 6.00 Build 0)  -->
<!DOCTYPE svg PUBLIC "-//W3C//DTD SVG 1.1//EN" "http://www.w3.org/Graphics/SVG/1.1/DTD/svg11.dtd">
<svg version="1.1" id="Ebene_1" xmlns="http://www.w3.org/2000/svg" xmlns:xlink="http://www.w3.org/1999/xlink" x="0px" y="0px"
	 width="230px" height="34.9px" viewBox="0 0 230 34.9" enable-background="new 0 0 230 34.9" xml:space="preserve">
<g>
	<g>
		<path fill="#1A1A18" d="M3.5,10.1c-1.1,0-2.1-0.3-3.1-0.8L0,12.1C1,12.7,2.3,13,3.6,13c2.8,0,4.4-1.5,4.4-4c0-4.1-4.9-3.5-4.9-5.2
			c0-0.5,0.3-0.9,1.5-0.9c0.8,0,1.7,0.2,2.6,0.5l0.4-2.7C6.7,0.2,5.5,0,4.3,0C1.3,0,0,1.8,0,3.9C0,8,4.9,7.5,4.9,9.1
			C4.9,9.8,4.5,10.1,3.5,10.1z M16.8,12.4l-0.3-2.7c-0.6,0.3-1.3,0.4-2,0.4c-1.8,0-2.3-0.8-2.3-3.7c0-2.7,0.5-3.5,2.3-3.5
			c0.8,0,1.5,0.1,2,0.3l0.3-2.8C16.1,0.2,15,0,14.2,0c-3.7,0-5.4,2.2-5.4,6.4c0,4.5,1.7,6.5,5.2,6.5C14.9,13,16,12.7,16.8,12.4z
			 M21.1,7.8h3v4.9h3.2V0.2h-3.2v4.7h-3V0.2H18v12.5h3.2V7.8z M36.9,9.9h-4.8V7.6h3.8V5h-3.8V3.1h4.6l-0.1-2.9H29v12.5h7.9L36.9,9.9
			z M42.8,13c3.1,0,4.7-1.5,4.7-4.5V0.2h-3.2v8.2c0,1.2-0.4,1.6-1.5,1.6c-1.1,0-1.5-0.5-1.5-1.6V0.2H38v8.3C38,11.4,39.6,13,42.8,13
			z M57,9.9h-4.8V7.6h3.8V5h-3.8V3.1h4.6l-0.1-2.9H49v12.5h7.9L57,9.9z M64.1,12.7h3.7l-2.4-5.1c1.1-0.5,1.7-1.7,1.7-3.4
			c0-2.8-1.5-4-4.6-4h-4.2v12.5h3.2V8.3h1.1L64.1,12.7z M61.4,2.9h1.1c0.9,0,1.2,0.3,1.2,1.4c0,1.2-0.3,1.5-1.3,1.5h-1.1V2.9z
			 M76.2,8.9c0-4.1-4.9-3.5-4.9-5.2c0-0.5,0.3-0.9,1.5-0.9c0.8,0,1.7,0.2,2.6,0.5l0.4-2.7C74.9,0.2,73.7,0,72.6,0
			c-3,0-4.3,1.7-4.3,3.9c0,4.1,4.9,3.6,4.9,5.2c0,0.7-0.4,1-1.4,1c-1.1,0-2.1-0.3-3.1-0.8l-0.4,2.8c1,0.6,2.3,0.9,3.6,0.9
			C74.6,13,76.2,11.4,76.2,8.9z M79.5,12.7l0.5-2.2h3.3l0.5,2.2h3.6L83.7,0.2h-3.9l-3.6,12.5H79.5z M81.4,4.2l0.3-1.3h0L82,4.2
			l0.8,3.6h-2.1L81.4,4.2z M93.8,8.4c0,1.2-0.4,1.6-1.5,1.6c-1.1,0-1.5-0.5-1.5-1.6V0.2h-3.2v8.3c0,2.9,1.6,4.5,4.7,4.5
			c3.1,0,4.7-1.5,4.7-4.5V0.2h-3.2V8.4z M103.7,13c1.3,0,2.6-0.3,3.5-0.7V5.9h-2.8V10c-0.2,0-0.5,0.1-0.7,0.1
			c-1.6,0-2.1-0.7-2.1-3.6c0-2.8,0.5-3.6,2.5-3.6c0.9,0,1.9,0.2,2.7,0.5l0.3-2.8c-0.9-0.4-2.1-0.6-3.2-0.6c-4,0-5.6,2.1-5.6,6.5
			C98.2,10.8,99.6,13,103.7,13z M111.5,7.5l0-1.4l0,0l0.4,1.3l1.8,5.3h2.1l1.8-5.3l0.4-1.3l0,0l0,1.4v5.2h2.9V0.2h-3.5l-2.2,6.3
			l-0.4,1.3h0l-0.4-1.3l-2.2-6.3h-3.5v12.5h2.8V7.5z M125.3,0.2l-3.6,12.5h3.4l0.5-2.2h3.3l0.5,2.2h3.6l-3.7-12.5H125.3z M126.2,7.8
			l0.8-3.6l0.3-1.3h0.1l0.2,1.3l0.8,3.6H126.2z M136.5,3.8c0-0.5,0.3-0.9,1.5-0.9c0.8,0,1.7,0.2,2.6,0.5l0.4-2.7
			c-0.9-0.4-2.1-0.6-3.2-0.6c-3,0-4.3,1.7-4.3,3.9c0,4.1,4.9,3.6,4.9,5.2c0,0.7-0.4,1-1.4,1c-1.1,0-2.1-0.3-3.1-0.8l-0.4,2.8
			c1,0.6,2.3,0.9,3.6,0.9c2.8,0,4.4-1.5,4.4-4C141.4,4.9,136.5,5.4,136.5,3.8z M147.9,10.1c-1.8,0-2.3-0.8-2.3-3.7
			c0-2.7,0.5-3.5,2.3-3.5c0.8,0,1.5,0.1,2,0.3l0.3-2.8c-0.7-0.3-1.7-0.5-2.6-0.5c-3.7,0-5.4,2.2-5.4,6.4c0,4.5,1.7,6.5,5.2,6.5
			c0.9,0,2.1-0.2,2.8-0.6l-0.3-2.7C149.3,10,148.6,10.1,147.9,10.1z M157.6,4.9h-3V0.2h-3.2v12.5h3.2V7.8h3v4.9h3.2V0.2h-3.2V4.9z
			 M162.5,12.7h3.3V0.2h-3.3V12.7z M174.2,5.4l0,1.3l0,0l-3.9-6.5h-2.7v12.5h2.8V7.2l0-1.4l0,0l0.7,1.2l3.7,5.8h2.3V0.2h-2.8
			L174.2,5.4z M181.9,7.6h3.8V5h-3.8V3.1h4.6l-0.1-2.9h-7.7v12.5h7.9l0.1-2.8h-4.8V7.6z M194.6,5.4l0,1.3l0,0l-3.9-6.5h-2.7v12.5
			h2.8V7.2l0-1.4l0,0l0.7,1.2l3.7,5.8h2.3V0.2h-2.8L194.6,5.4z M209.3,6.6l-0.4,1.3h0l-0.4-1.3l-2.2-6.3h-3.5v12.5h2.8V7.5l0-1.4
			l0,0l0.4,1.3l1.8,5.3h2.1l1.8-5.3l0.4-1.3l0.1,0l0,1.4v5.2h2.9V0.2h-3.5L209.3,6.6z M216.8,12.7h3.3V0.2h-3.3V12.7z M229.9,0.2
			h-8.7l-0.1,2.9h2.8v9.6h3.3V3.1h2.8L229.9,0.2z M10.3,22.2H6.7L4.4,27H3.5v-4.8H0.4v12.5h3.2v-5.1h0.8l2.3,5.1h3.8l-3.1-6.5
			L10.3,22.2z M14.5,29.6h3.8V27h-3.8V25H19L19,22.2h-7.7v12.5h7.9l0.1-2.8h-4.8V29.6z M26.7,26.9h-3v-4.7h-3.2v12.5h3.2v-4.9h3v4.9
			h3.2V22.2h-3.2V26.9z M40.4,26.2c0-2.8-1.5-4-4.6-4h-4.2v12.5h3.2v-4.5h1.1l1.6,4.5h3.7l-2.4-5.1C39.8,29.1,40.4,27.9,40.4,26.2z
			 M35.8,27.8h-1.1v-2.9h1.1c0.9,0,1.2,0.3,1.2,1.4C37,27.5,36.7,27.8,35.8,27.8z M49.6,25.1l0-2.9h-7.7v12.5h3.2v-4.6h3.7l0-2.8
			h-3.7v-2.2H49.6z M56.8,30.4c0,1.2-0.4,1.6-1.5,1.6c-1.1,0-1.5-0.5-1.5-1.6v-8.2h-3.2v8.3c0,2.9,1.6,4.5,4.7,4.5
			c3.1,0,4.7-1.5,4.7-4.5v-8.3h-3.2V30.4z M68.2,27.3l0,1.3l0,0l-3.9-6.5h-2.7v12.5h2.8v-5.6l0-1.4l0,0l0.7,1.2l3.7,5.8H71V22.2
			h-2.8L68.2,27.3z M82.5,22.2H79L76.7,27h-0.9v-4.8h-3.2v12.5h3.2v-5.1h0.8l2.3,5.1h3.8l-3.1-6.5L82.5,22.2z M83,22.2l-0.1,2.9h2.8
			v9.6h3.3v-9.6h2.8l-0.1-2.9H83z M92.8,34.7h3.3V22.2h-3.3V34.7z M102.7,22c-3.6,0-5.1,1.9-5.1,6.5c0,4.6,1.6,6.5,5.1,6.5
			c3.6,0,5.1-1.8,5.1-6.5C107.9,23.8,106.3,22,102.7,22z M102.7,32c-1.4,0-1.8-0.6-1.8-3.6c0-3,0.4-3.5,1.8-3.5
			c1.4,0,1.8,0.5,1.8,3.5C104.5,31.4,104.1,32,102.7,32z M115.8,27.3l0,1.3l0,0l-3.9-6.5h-2.7v12.5h2.8v-5.6l0-1.4l0,0l0.7,1.2
			l3.7,5.8h2.3V22.2h-2.8L115.8,27.3z M121.6,31.7c-1.1,0-1.7,0.6-1.7,1.6c0,1.1,0.5,1.6,1.7,1.6c1.1,0,1.6-0.6,1.6-1.6
			C123.3,32.3,122.8,31.7,121.6,31.7z"/>
	</g>
</g>
</svg>
