<?xml version="1.0" encoding="utf-8"?>
<!-- Generator: Adobe Illustrator 16.0.0, SVG Export Plug-In . SVG Version: 6.00 Build 0)  -->
<!DOCTYPE svg PUBLIC "-//W3C//DTD SVG 1.1//EN" "http://www.w3.org/Graphics/SVG/1.1/DTD/svg11.dtd">
<svg version="1.1" id="Ebene_1" xmlns="http://www.w3.org/2000/svg" xmlns:xlink="http://www.w3.org/1999/xlink" x="0px" y="0px"
	 width="141.3px" height="15.6px" viewBox="0 0 141.3 15.6" enable-background="new 0 0 141.3 15.6" xml:space="preserve">
<g>
	<g>
		<path fill="#1A1A18" d="M4.4,2.9H0v12.5h4.4c3.5,0,5.2-1.7,5.2-6.3C9.6,4.6,8.1,2.9,4.4,2.9z M4.4,12.5H3.2V5.8h1.2
			c1.4,0,1.9,0.5,1.9,3.3C6.3,12.1,5.8,12.5,4.4,12.5z M11.1,15.4h3.3V2.9h-3.3V15.4z M19.4,10.3h3.8V7.7h-3.8V5.7h4.6l-0.1-2.9
			h-7.7v12.5h7.9l0.1-2.8h-4.8V10.3z M31.8,2.9l-3.6,12.5h3.4l0.5-2.2h3.3l0.5,2.2h3.6L35.7,2.9H31.8z M32.6,10.5l0.8-3.6l0.3-1.3h0
			L34,6.9l0.8,3.6H32.6z M43.4,2.9h-3.2v12.5h7.3l0.1-2.9h-4.2V2.9z M51.9,2.9h-3.2v12.5H56l0.1-2.9h-4.2V2.9z M60.3,10.3H64V7.7
			h-3.8V5.7h4.6l-0.1-2.9h-7.7v12.5H65l0.1-2.8h-4.8V10.3z M69,6.4c0-0.5,0.3-0.9,1.5-0.9c0.8,0,1.7,0.2,2.6,0.5l0.4-2.7
			c-0.9-0.4-2.1-0.6-3.2-0.6c-3,0-4.3,1.7-4.3,3.9c0,4.1,4.9,3.6,4.9,5.2c0,0.7-0.4,1-1.4,1c-1.1,0-2.1-0.3-3.1-0.8l-0.4,2.8
			c1,0.6,2.3,0.9,3.6,0.9c2.8,0,4.4-1.5,4.4-4C73.9,7.5,69,8.1,69,6.4z M84.9,2.9h-3.6l-2.3,4.8h-0.9V2.9H75v12.5h3.2v-5.1H79
			l2.3,5.1h3.8L82,8.9L84.9,2.9z M88.5,2.3c0.8,0,1.2-0.4,1.2-1.1c0-0.8-0.4-1.2-1.2-1.2c-0.8,0-1.2,0.4-1.2,1.2
			C87.3,2,87.7,2.3,88.5,2.3z M91.7,2.3c0.8,0,1.2-0.4,1.2-1.1c0-0.8-0.4-1.2-1.2-1.2c-0.8,0-1.2,0.4-1.2,1.2
			C90.5,2,90.9,2.3,91.7,2.3z M90.1,2.7c-3.6,0-5.1,1.9-5.1,6.5c0,4.6,1.6,6.5,5.1,6.5c3.6,0,5.1-1.8,5.1-6.5
			C95.2,4.5,93.7,2.7,90.1,2.7z M90.1,12.7c-1.4,0-1.8-0.6-1.8-3.6c0-3,0.4-3.5,1.8-3.5c1.4,0,1.8,0.6,1.8,3.5
			C91.9,12.1,91.5,12.7,90.1,12.7z M103.2,8l0,1.3l0,0l-3.9-6.5h-2.7v12.5h2.8V9.8l0-1.4l0,0l0.7,1.2l3.7,5.8h2.3V2.9h-2.8L103.2,8z
			 M114.3,8l0,1.3l0,0l-3.9-6.5h-2.7v12.5h2.8V9.8l0-1.4l0,0l0.7,1.2l3.7,5.8h2.3V2.9h-2.8L114.3,8z M122,10.3h3.8V7.7H122V5.7h4.6
			l-0.1-2.9h-7.7v12.5h7.9l0.1-2.8H122V10.3z M136.9,6.9c0-2.8-1.5-4-4.6-4H128v12.5h3.2v-4.5h1.1l1.6,4.5h3.7l-2.4-5.1
			C136.3,9.8,136.9,8.6,136.9,6.9z M132.3,8.5h-1.1V5.6h1.1c0.9,0,1.2,0.3,1.2,1.4C133.5,8.2,133.2,8.5,132.3,8.5z M139.7,12.4
			c-1.1,0-1.6,0.6-1.6,1.6c0,1.1,0.5,1.6,1.6,1.6c1.1,0,1.6-0.6,1.6-1.6C141.3,13,140.8,12.4,139.7,12.4z"/>
	</g>
</g>
</svg>
